<?xml version="1.0" encoding="UTF-8" standalone="no"?>
<!DOCTYPE svg PUBLIC "-//W3C//DTD SVG 1.1//EN"
 "http://www.w3.org/Graphics/SVG/1.1/DTD/svg11.dtd">
<!-- Generated by graphviz version 11.0.0 (20240428.1522)
 -->
<!-- Pages: 1 -->
<svg width="1980pt" height="206pt"
 viewBox="0.00 0.00 1980.00 206.00" xmlns="http://www.w3.org/2000/svg" xmlns:xlink="http://www.w3.org/1999/xlink">
<g id="graph0" class="graph" transform="scale(1 1) rotate(0) translate(4 202)">
<polygon fill="white" stroke="none" points="-4,4 -4,-202 1976,-202 1976,4 -4,4"/>
<!-- 2272686389632 -->
<g id="node1" class="node">
<title>2272686389632</title>
<ellipse fill="green" stroke="black" cx="18" cy="-118" rx="18" ry="18"/>
</g>
<!-- 2272686457008 -->
<g id="node2" class="node">
<title>2272686457008</title>
<polygon fill="none" stroke="black" points="221.5,-136 72,-136 72,-100 221.5,-100 221.5,-136"/>
<text text-anchor="middle" x="146.75" y="-112.97" font-family="Times New Roman,serif" font-size="12.00">Customer searches for ticket</text>
</g>
<!-- 2272686389632&#45;&gt;2272686457008 -->
<g id="edge1" class="edge">
<title>2272686389632&#45;&gt;2272686457008</title>
<path fill="none" stroke="black" d="M36.36,-118C43.15,-118 51.48,-118 60.48,-118"/>
<polygon fill="black" stroke="black" points="60.22,-121.5 70.22,-118 60.22,-114.5 60.22,-121.5"/>
</g>
<!-- 2272686457344 -->
<g id="node3" class="node">
<title>2272686457344</title>
<polygon fill="none" stroke="black" points="329,-136 257.5,-136 257.5,-100 329,-100 329,-136"/>
<text text-anchor="middle" x="293.25" y="-112.97" font-family="Times New Roman,serif" font-size="12.00">Select route</text>
</g>
<!-- 2272686457008&#45;&gt;2272686457344 -->
<g id="edge2" class="edge">
<title>2272686457008&#45;&gt;2272686457344</title>
<path fill="none" stroke="black" d="M221.69,-118C229.9,-118 238.08,-118 245.8,-118"/>
<polygon fill="black" stroke="black" points="245.61,-121.5 255.61,-118 245.61,-114.5 245.61,-121.5"/>
</g>
<!-- 2272686391024 -->
<g id="node4" class="node">
<title>2272686391024</title>
<polygon fill="none" stroke="black" points="475.5,-136 365,-136 365,-100 475.5,-100 475.5,-136"/>
<text text-anchor="middle" x="420.25" y="-112.97" font-family="Times New Roman,serif" font-size="12.00">Select date and time</text>
</g>
<!-- 2272686457344&#45;&gt;2272686391024 -->
<g id="edge3" class="edge">
<title>2272686457344&#45;&gt;2272686391024</title>
<path fill="none" stroke="black" d="M329.4,-118C336.95,-118 345.16,-118 353.44,-118"/>
<polygon fill="black" stroke="black" points="353.22,-121.5 363.22,-118 353.22,-114.5 353.22,-121.5"/>
</g>
<!-- 2272686388240 -->
<g id="node5" class="node">
<title>2272686388240</title>
<polygon fill="none" stroke="black" points="664.75,-136 511.5,-136 511.5,-100 664.75,-100 664.75,-136"/>
<text text-anchor="middle" x="588.12" y="-112.97" font-family="Times New Roman,serif" font-size="12.00">Provide personal information</text>
</g>
<!-- 2272686391024&#45;&gt;2272686388240 -->
<g id="edge4" class="edge">
<title>2272686391024&#45;&gt;2272686388240</title>
<path fill="none" stroke="black" d="M475.56,-118C483.36,-118 491.54,-118 499.78,-118"/>
<polygon fill="black" stroke="black" points="499.5,-121.5 509.5,-118 499.5,-114.5 499.5,-121.5"/>
</g>
<!-- 2272686388192 -->
<g id="node6" class="node">
<title>2272686388192</title>
<polygon fill="none" stroke="black" points="830,-136 700.75,-136 700.75,-100 830,-100 830,-136"/>
<text text-anchor="middle" x="765.38" y="-112.97" font-family="Times New Roman,serif" font-size="12.00">Provide payment details</text>
</g>
<!-- 2272686388240&#45;&gt;2272686388192 -->
<g id="edge5" class="edge">
<title>2272686388240&#45;&gt;2272686388192</title>
<path fill="none" stroke="black" d="M665.23,-118C673.11,-118 681.12,-118 688.99,-118"/>
<polygon fill="black" stroke="black" points="688.89,-121.5 698.89,-118 688.89,-114.5 688.89,-121.5"/>
</g>
<!-- 2272686387136 -->
<g id="node7" class="node">
<title>2272686387136</title>
<polygon fill="none" stroke="black" points="893,-136 866,-118 893,-100 920,-118 893,-136"/>
<text text-anchor="middle" x="893" y="-112.97" font-family="Times New Roman,serif" font-size="12.00">+</text>
</g>
<!-- 2272686388192&#45;&gt;2272686387136 -->
<g id="edge6" class="edge">
<title>2272686388192&#45;&gt;2272686387136</title>
<path fill="none" stroke="black" d="M830.29,-118C838.41,-118 846.5,-118 854.02,-118"/>
<polygon fill="black" stroke="black" points="853.78,-121.5 863.78,-118 853.78,-114.5 853.78,-121.5"/>
</g>
<!-- 2272686386560 -->
<g id="node8" class="node">
<title>2272686386560</title>
<polygon fill="none" stroke="black" points="1053,-190 956,-190 956,-154 1053,-154 1053,-190"/>
<text text-anchor="middle" x="1004.5" y="-166.97" font-family="Times New Roman,serif" font-size="12.00">Send instructions</text>
</g>
<!-- 2272686387136&#45;&gt;2272686386560 -->
<g id="edge9" class="edge">
<title>2272686387136&#45;&gt;2272686386560</title>
<path fill="none" stroke="black" d="M909.23,-125.51C921.39,-131.51 939.13,-140.26 955.95,-148.55"/>
<polygon fill="black" stroke="black" points="954.37,-151.68 964.89,-152.96 957.47,-145.4 954.37,-151.68"/>
</g>
<!-- 2272686390352 -->
<g id="node9" class="node">
<title>2272686390352</title>
<polygon fill="none" stroke="black" points="1176.25,-90 1089,-90 1089,-54 1176.25,-54 1176.25,-90"/>
<text text-anchor="middle" x="1132.62" y="-66.97" font-family="Times New Roman,serif" font-size="12.00">Generate ticket</text>
</g>
<!-- 2272686387136&#45;&gt;2272686390352 -->
<g id="edge7" class="edge">
<title>2272686387136&#45;&gt;2272686390352</title>
<path fill="none" stroke="black" d="M908.83,-110.02C921.11,-103.78 939.21,-95.45 956,-91 995.82,-80.44 1042.2,-75.73 1077.29,-73.64"/>
<polygon fill="black" stroke="black" points="1077.43,-77.14 1087.23,-73.11 1077.05,-70.15 1077.43,-77.14"/>
</g>
<!-- 2272686457680 -->
<g id="node10" class="node">
<title>2272686457680</title>
<polygon fill="none" stroke="black" points="1047,-136 962,-136 962,-100 1047,-100 1047,-136"/>
<text text-anchor="middle" x="1004.5" y="-112.97" font-family="Times New Roman,serif" font-size="12.00">Send reminder</text>
</g>
<!-- 2272686387136&#45;&gt;2272686457680 -->
<g id="edge8" class="edge">
<title>2272686387136&#45;&gt;2272686457680</title>
<path fill="none" stroke="black" d="M920.79,-118C929.71,-118 939.99,-118 950.2,-118"/>
<polygon fill="black" stroke="black" points="950.11,-121.5 960.11,-118 950.11,-114.5 950.11,-121.5"/>
</g>
<!-- 2272686388576 -->
<g id="node11" class="node">
<title>2272686388576</title>
<polygon fill="none" stroke="black" points="1132.62,-180 1105.62,-162 1132.62,-144 1159.62,-162 1132.62,-180"/>
<text text-anchor="middle" x="1132.62" y="-156.97" font-family="Times New Roman,serif" font-size="12.00">+</text>
</g>
<!-- 2272686386560&#45;&gt;2272686388576 -->
<g id="edge10" class="edge">
<title>2272686386560&#45;&gt;2272686388576</title>
<path fill="none" stroke="black" d="M1053.18,-168.22C1067.64,-167.07 1083.25,-165.84 1096.71,-164.77"/>
<polygon fill="black" stroke="black" points="1096.7,-168.28 1106.39,-164 1096.14,-161.3 1096.7,-168.28"/>
</g>
<!-- 2272686389344 -->
<g id="node12" class="node">
<title>2272686389344</title>
<polygon fill="none" stroke="black" points="1571.88,-90 1544.88,-72 1571.88,-54 1598.88,-72 1571.88,-90"/>
<text text-anchor="middle" x="1571.88" y="-66.97" font-family="Times New Roman,serif" font-size="12.00">+</text>
</g>
<!-- 2272686390352&#45;&gt;2272686389344 -->
<g id="edge11" class="edge">
<title>2272686390352&#45;&gt;2272686389344</title>
<path fill="none" stroke="black" d="M1176.75,-72C1262.19,-72 1451.72,-72 1532.84,-72"/>
<polygon fill="black" stroke="black" points="1532.71,-75.5 1542.71,-72 1532.71,-68.5 1532.71,-75.5"/>
</g>
<!-- 2272686457680&#45;&gt;2272686388576 -->
<g id="edge12" class="edge">
<title>2272686457680&#45;&gt;2272686388576</title>
<path fill="none" stroke="black" d="M1047.5,-132.65C1065.9,-139.07 1087,-146.43 1103.46,-152.18"/>
<polygon fill="black" stroke="black" points="1102.01,-155.38 1112.6,-155.36 1104.32,-148.77 1102.01,-155.38"/>
</g>
<!-- 2272686388864 -->
<g id="node14" class="node">
<title>2272686388864</title>
<polygon fill="none" stroke="black" points="1363.25,-180 1212.25,-180 1212.25,-144 1363.25,-144 1363.25,-180"/>
<text text-anchor="middle" x="1287.75" y="-156.97" font-family="Times New Roman,serif" font-size="12.00">Customer completes journey</text>
</g>
<!-- 2272686388576&#45;&gt;2272686388864 -->
<g id="edge13" class="edge">
<title>2272686388576&#45;&gt;2272686388864</title>
<path fill="none" stroke="black" d="M1160.3,-162C1171.84,-162 1186.05,-162 1200.74,-162"/>
<polygon fill="black" stroke="black" points="1200.52,-165.5 1210.52,-162 1200.52,-158.5 1200.52,-165.5"/>
</g>
<!-- 2272686388528 -->
<g id="node13" class="node">
<title>2272686388528</title>
<polygon fill="none" stroke="black" points="1810,-144 1690.5,-144 1690.5,-108 1810,-108 1810,-144"/>
<text text-anchor="middle" x="1750.25" y="-120.97" font-family="Times New Roman,serif" font-size="12.00">Update seat inventory</text>
</g>
<!-- 2272686389344&#45;&gt;2272686388528 -->
<g id="edge16" class="edge">
<title>2272686389344&#45;&gt;2272686388528</title>
<path fill="none" stroke="black" d="M1591.09,-77.58C1611.96,-83.97 1647.44,-94.83 1679.51,-104.65"/>
<polygon fill="black" stroke="black" points="1678.19,-107.91 1688.78,-107.49 1680.24,-101.21 1678.19,-107.91"/>
</g>
<!-- 2272686389296 -->
<g id="node15" class="node">
<title>2272686389296</title>
<polygon fill="none" stroke="black" points="1806.62,-90 1693.88,-90 1693.88,-54 1806.62,-54 1806.62,-90"/>
<text text-anchor="middle" x="1750.25" y="-66.97" font-family="Times New Roman,serif" font-size="12.00">Send ticket via SMS</text>
</g>
<!-- 2272686389344&#45;&gt;2272686389296 -->
<g id="edge15" class="edge">
<title>2272686389344&#45;&gt;2272686389296</title>
<path fill="none" stroke="black" d="M1599.66,-72C1621.61,-72 1653.64,-72 1682.43,-72"/>
<polygon fill="black" stroke="black" points="1682.18,-75.5 1692.18,-72 1682.18,-68.5 1682.18,-75.5"/>
</g>
<!-- 2272686390016 -->
<g id="node16" class="node">
<title>2272686390016</title>
<polygon fill="none" stroke="black" points="1807.38,-36 1693.12,-36 1693.12,0 1807.38,0 1807.38,-36"/>
<text text-anchor="middle" x="1750.25" y="-12.97" font-family="Times New Roman,serif" font-size="12.00">Send ticket via email</text>
</g>
<!-- 2272686389344&#45;&gt;2272686390016 -->
<g id="edge14" class="edge">
<title>2272686389344&#45;&gt;2272686390016</title>
<path fill="none" stroke="black" d="M1591.09,-66.42C1612.52,-59.86 1649.33,-48.59 1682.05,-38.57"/>
<polygon fill="black" stroke="black" points="1682.98,-41.95 1691.52,-35.68 1680.93,-35.26 1682.98,-41.95"/>
</g>
<!-- 2272686388000 -->
<g id="node18" class="node">
<title>2272686388000</title>
<polygon fill="none" stroke="black" points="1873,-117 1846,-99 1873,-81 1900,-99 1873,-117"/>
<text text-anchor="middle" x="1873" y="-93.97" font-family="Times New Roman,serif" font-size="12.00">+</text>
</g>
<!-- 2272686388528&#45;&gt;2272686388000 -->
<g id="edge17" class="edge">
<title>2272686388528&#45;&gt;2272686388000</title>
<path fill="none" stroke="black" d="M1810.21,-112.82C1820.82,-110.44 1831.48,-108.06 1840.9,-105.95"/>
<polygon fill="black" stroke="black" points="1841.58,-109.39 1850.58,-103.79 1840.05,-102.56 1841.58,-109.39"/>
</g>
<!-- 2272686387184 -->
<g id="node17" class="node">
<title>2272686387184</title>
<polygon fill="none" stroke="black" points="1426.25,-180 1399.25,-162 1426.25,-144 1453.25,-162 1426.25,-180"/>
<text text-anchor="middle" x="1426.25" y="-156.97" font-family="Times New Roman,serif" font-size="12.00">X</text>
</g>
<!-- 2272686388864&#45;&gt;2272686387184 -->
<g id="edge18" class="edge">
<title>2272686388864&#45;&gt;2272686387184</title>
<path fill="none" stroke="black" d="M1363.39,-162C1371.54,-162 1379.57,-162 1387.01,-162"/>
<polygon fill="black" stroke="black" points="1386.99,-165.5 1396.99,-162 1386.99,-158.5 1386.99,-165.5"/>
</g>
<!-- 2272686389296&#45;&gt;2272686388000 -->
<g id="edge19" class="edge">
<title>2272686389296&#45;&gt;2272686388000</title>
<path fill="none" stroke="black" d="M1807.03,-84.47C1818.7,-87.08 1830.61,-89.74 1840.98,-92.06"/>
<polygon fill="black" stroke="black" points="1839.95,-95.42 1850.48,-94.19 1841.48,-88.59 1839.95,-95.42"/>
</g>
<!-- 2272686390016&#45;&gt;2272686388000 -->
<g id="edge20" class="edge">
<title>2272686390016&#45;&gt;2272686388000</title>
<path fill="none" stroke="black" d="M1794.99,-36.4C1800.17,-39.07 1805.29,-41.95 1810,-45 1825.86,-55.25 1841.88,-69.32 1853.67,-80.53"/>
<polygon fill="black" stroke="black" points="1851.09,-82.91 1860.69,-87.38 1855.98,-77.9 1851.09,-82.91"/>
</g>
<!-- 2272686387808 -->
<g id="node19" class="node">
<title>2272686387808</title>
<polygon fill="none" stroke="black" points="1750.25,-198 1723.25,-180 1750.25,-162 1777.25,-180 1750.25,-198"/>
<text text-anchor="middle" x="1750.25" y="-174.97" font-family="Times New Roman,serif" font-size="12.00">X</text>
</g>
<!-- 2272686387184&#45;&gt;2272686387808 -->
<g id="edge22" class="edge">
<title>2272686387184&#45;&gt;2272686387808</title>
<path fill="none" stroke="black" d="M1444.33,-168.38C1456.63,-172.61 1473.71,-177.79 1489.25,-180 1569.14,-191.36 1664.23,-186.86 1714.34,-183.1"/>
<polygon fill="black" stroke="black" points="1714.59,-186.59 1724.28,-182.32 1714.03,-179.62 1714.59,-186.59"/>
</g>
<!-- 2272686390688 -->
<g id="node20" class="node">
<title>2272686390688</title>
<polygon fill="none" stroke="black" points="1654.5,-171 1489.25,-171 1489.25,-135 1654.5,-135 1654.5,-171"/>
<text text-anchor="middle" x="1571.88" y="-147.97" font-family="Times New Roman,serif" font-size="12.00">Post&#45;travel feedback or services</text>
</g>
<!-- 2272686387184&#45;&gt;2272686390688 -->
<g id="edge21" class="edge">
<title>2272686387184&#45;&gt;2272686390688</title>
<path fill="none" stroke="black" d="M1451.61,-160.47C1459.21,-160 1468.08,-159.44 1477.5,-158.85"/>
<polygon fill="black" stroke="black" points="1477.49,-162.36 1487.25,-158.24 1477.06,-155.37 1477.49,-162.36"/>
</g>
<!-- 2272686384256 -->
<g id="node21" class="node">
<title>2272686384256</title>
<ellipse fill="orange" stroke="black" cx="1954" cy="-99" rx="18" ry="18"/>
</g>
<!-- 2272686388000&#45;&gt;2272686384256 -->
<g id="edge23" class="edge">
<title>2272686388000&#45;&gt;2272686384256</title>
<path fill="none" stroke="black" d="M1900.75,-99C1908.38,-99 1916.73,-99 1924.47,-99"/>
<polygon fill="black" stroke="black" points="1924.43,-102.5 1934.43,-99 1924.43,-95.5 1924.43,-102.5"/>
</g>
<!-- 2272686387808&#45;&gt;2272686388000 -->
<g id="edge24" class="edge">
<title>2272686387808&#45;&gt;2272686388000</title>
<path fill="none" stroke="black" d="M1768.38,-173.65C1780.47,-168.8 1796.8,-161.53 1810,-153 1825.86,-142.75 1841.88,-128.68 1853.67,-117.47"/>
<polygon fill="black" stroke="black" points="1855.98,-120.1 1860.69,-110.62 1851.09,-115.09 1855.98,-120.1"/>
</g>
<!-- 2272686390688&#45;&gt;2272686387808 -->
<g id="edge25" class="edge">
<title>2272686390688&#45;&gt;2272686387808</title>
<path fill="none" stroke="black" d="M1654.87,-165.55C1676.65,-168.89 1698.94,-172.3 1716.38,-174.97"/>
<polygon fill="black" stroke="black" points="1715.71,-178.41 1726.12,-176.46 1716.77,-171.49 1715.71,-178.41"/>
</g>
</g>
</svg>
