<?xml version="1.0" encoding="UTF-8" standalone="no"?>
<!DOCTYPE svg PUBLIC "-//W3C//DTD SVG 1.1//EN"
 "http://www.w3.org/Graphics/SVG/1.1/DTD/svg11.dtd">
<!-- Generated by graphviz version 11.0.0 (20240428.1522)
 -->
<!-- Pages: 1 -->
<svg width="2326pt" height="150pt"
 viewBox="0.00 0.00 2326.00 150.27" xmlns="http://www.w3.org/2000/svg" xmlns:xlink="http://www.w3.org/1999/xlink">
<g id="graph0" class="graph" transform="scale(1 1) rotate(0) translate(4 146.27)">
<polygon fill="white" stroke="none" points="-4,4 -4,-146.27 2322,-146.27 2322,4 -4,4"/>
<!-- 2272685795056 -->
<g id="node1" class="node">
<title>2272685795056</title>
<ellipse fill="green" stroke="black" cx="18" cy="-91" rx="18" ry="18"/>
</g>
<!-- 2272685908064 -->
<g id="node2" class="node">
<title>2272685908064</title>
<polygon fill="none" stroke="black" points="221.5,-109 72,-109 72,-73 221.5,-73 221.5,-109"/>
<text text-anchor="middle" x="146.75" y="-85.97" font-family="Times New Roman,serif" font-size="12.00">Customer searches for ticket</text>
</g>
<!-- 2272685795056&#45;&gt;2272685908064 -->
<g id="edge1" class="edge">
<title>2272685795056&#45;&gt;2272685908064</title>
<path fill="none" stroke="black" d="M36.36,-91C43.15,-91 51.48,-91 60.48,-91"/>
<polygon fill="black" stroke="black" points="60.22,-94.5 70.22,-91 60.22,-87.5 60.22,-94.5"/>
</g>
<!-- 2272685911136 -->
<g id="node3" class="node">
<title>2272685911136</title>
<polygon fill="none" stroke="black" points="329,-109 257.5,-109 257.5,-73 329,-73 329,-109"/>
<text text-anchor="middle" x="293.25" y="-85.97" font-family="Times New Roman,serif" font-size="12.00">Select route</text>
</g>
<!-- 2272685908064&#45;&gt;2272685911136 -->
<g id="edge2" class="edge">
<title>2272685908064&#45;&gt;2272685911136</title>
<path fill="none" stroke="black" d="M221.69,-91C229.9,-91 238.08,-91 245.8,-91"/>
<polygon fill="black" stroke="black" points="245.61,-94.5 255.61,-91 245.61,-87.5 245.61,-94.5"/>
</g>
<!-- 2272685794960 -->
<g id="node4" class="node">
<title>2272685794960</title>
<polygon fill="none" stroke="black" points="475.5,-109 365,-109 365,-73 475.5,-73 475.5,-109"/>
<text text-anchor="middle" x="420.25" y="-85.97" font-family="Times New Roman,serif" font-size="12.00">Select date and time</text>
</g>
<!-- 2272685911136&#45;&gt;2272685794960 -->
<g id="edge3" class="edge">
<title>2272685911136&#45;&gt;2272685794960</title>
<path fill="none" stroke="black" d="M329.4,-91C336.95,-91 345.16,-91 353.44,-91"/>
<polygon fill="black" stroke="black" points="353.22,-94.5 363.22,-91 353.22,-87.5 353.22,-94.5"/>
</g>
<!-- 2272685914208 -->
<g id="node5" class="node">
<title>2272685914208</title>
<polygon fill="none" stroke="black" points="664.75,-109 511.5,-109 511.5,-73 664.75,-73 664.75,-109"/>
<text text-anchor="middle" x="588.12" y="-85.97" font-family="Times New Roman,serif" font-size="12.00">Provide personal information</text>
</g>
<!-- 2272685794960&#45;&gt;2272685914208 -->
<g id="edge4" class="edge">
<title>2272685794960&#45;&gt;2272685914208</title>
<path fill="none" stroke="black" d="M475.56,-91C483.36,-91 491.54,-91 499.78,-91"/>
<polygon fill="black" stroke="black" points="499.5,-94.5 509.5,-91 499.5,-87.5 499.5,-94.5"/>
</g>
<!-- 2272685794864 -->
<g id="node6" class="node">
<title>2272685794864</title>
<polygon fill="none" stroke="black" points="830,-109 700.75,-109 700.75,-73 830,-73 830,-109"/>
<text text-anchor="middle" x="765.38" y="-85.97" font-family="Times New Roman,serif" font-size="12.00">Provide payment details</text>
</g>
<!-- 2272685914208&#45;&gt;2272685794864 -->
<g id="edge5" class="edge">
<title>2272685914208&#45;&gt;2272685794864</title>
<path fill="none" stroke="black" d="M665.23,-91C673.11,-91 681.12,-91 688.99,-91"/>
<polygon fill="black" stroke="black" points="688.89,-94.5 698.89,-91 688.89,-87.5 688.89,-94.5"/>
</g>
<!-- 2272685795104 -->
<g id="node7" class="node">
<title>2272685795104</title>
<polygon fill="none" stroke="black" points="893,-109 866,-91 893,-73 920,-91 893,-109"/>
<text text-anchor="middle" x="893" y="-85.97" font-family="Times New Roman,serif" font-size="12.00">+</text>
</g>
<!-- 2272685794864&#45;&gt;2272685795104 -->
<g id="edge6" class="edge">
<title>2272685794864&#45;&gt;2272685795104</title>
<path fill="none" stroke="black" d="M830.29,-91C838.41,-91 846.5,-91 854.02,-91"/>
<polygon fill="black" stroke="black" points="853.78,-94.5 863.78,-91 853.78,-87.5 853.78,-94.5"/>
</g>
<!-- 2272685787040 -->
<g id="node8" class="node">
<title>2272685787040</title>
<polygon fill="none" stroke="black" points="1198.75,-136 1079.25,-136 1079.25,-100 1198.75,-100 1198.75,-136"/>
<text text-anchor="middle" x="1139" y="-112.97" font-family="Times New Roman,serif" font-size="12.00">Update seat inventory</text>
</g>
<!-- 2272685795104&#45;&gt;2272685787040 -->
<g id="edge7" class="edge">
<title>2272685795104&#45;&gt;2272685787040</title>
<path fill="none" stroke="black" d="M916.95,-93.54C951.09,-97.32 1016.67,-104.57 1067.57,-110.21"/>
<polygon fill="black" stroke="black" points="1067.02,-113.67 1077.35,-111.29 1067.79,-106.71 1067.02,-113.67"/>
</g>
<!-- 2272685912144 -->
<g id="node9" class="node">
<title>2272685912144</title>
<polygon fill="none" stroke="black" points="1043.25,-86 956,-86 956,-50 1043.25,-50 1043.25,-86"/>
<text text-anchor="middle" x="999.62" y="-62.98" font-family="Times New Roman,serif" font-size="12.00">Generate ticket</text>
</g>
<!-- 2272685795104&#45;&gt;2272685912144 -->
<g id="edge8" class="edge">
<title>2272685795104&#45;&gt;2272685912144</title>
<path fill="none" stroke="black" d="M914.17,-86.57C922.9,-84.65 933.57,-82.3 944.36,-79.93"/>
<polygon fill="black" stroke="black" points="945.07,-83.36 954.08,-77.79 943.56,-76.52 945.07,-83.36"/>
</g>
<!-- 2272685911616 -->
<g id="node11" class="node">
<title>2272685911616</title>
<polygon fill="none" stroke="black" points="1261.75,-136 1234.75,-118 1261.75,-100 1288.75,-118 1261.75,-136"/>
<text text-anchor="middle" x="1261.75" y="-112.97" font-family="Times New Roman,serif" font-size="12.00">+</text>
</g>
<!-- 2272685787040&#45;&gt;2272685911616 -->
<g id="edge9" class="edge">
<title>2272685787040&#45;&gt;2272685911616</title>
<path fill="none" stroke="black" d="M1198.96,-118C1207.05,-118 1215.18,-118 1222.76,-118"/>
<polygon fill="black" stroke="black" points="1222.62,-121.5 1232.62,-118 1222.62,-114.5 1222.62,-121.5"/>
</g>
<!-- 2272685913440 -->
<g id="node10" class="node">
<title>2272685913440</title>
<polygon fill="none" stroke="black" points="1139,-82 1112,-64 1139,-46 1166,-64 1139,-82"/>
<text text-anchor="middle" x="1139" y="-58.98" font-family="Times New Roman,serif" font-size="12.00">+</text>
</g>
<!-- 2272685912144&#45;&gt;2272685913440 -->
<g id="edge10" class="edge">
<title>2272685912144&#45;&gt;2272685913440</title>
<path fill="none" stroke="black" d="M1043.71,-66.75C1062.09,-66.21 1083.31,-65.59 1100.97,-65.08"/>
<polygon fill="black" stroke="black" points="1100.85,-68.58 1110.75,-64.79 1100.65,-61.59 1100.85,-68.58"/>
</g>
<!-- 2272685913440&#45;&gt;2272685911616 -->
<g id="edge11" class="edge">
<title>2272685913440&#45;&gt;2272685911616</title>
<path fill="none" stroke="black" d="M1155.79,-71.06C1175.76,-79.99 1210.46,-95.51 1234.46,-106.24"/>
<polygon fill="black" stroke="black" points="1233.02,-109.43 1243.58,-110.32 1235.88,-103.04 1233.02,-109.43"/>
</g>
<!-- 2272685792080 -->
<g id="node12" class="node">
<title>2272685792080</title>
<polygon fill="none" stroke="black" points="1587.75,-82 1473.5,-82 1473.5,-46 1587.75,-46 1587.75,-82"/>
<text text-anchor="middle" x="1530.62" y="-58.98" font-family="Times New Roman,serif" font-size="12.00">Send ticket via email</text>
</g>
<!-- 2272685913440&#45;&gt;2272685792080 -->
<g id="edge12" class="edge">
<title>2272685913440&#45;&gt;2272685792080</title>
<path fill="none" stroke="black" d="M1166.78,-64C1227,-64 1374.65,-64 1461.91,-64"/>
<polygon fill="black" stroke="black" points="1461.78,-67.5 1471.78,-64 1461.78,-60.5 1461.78,-67.5"/>
</g>
<!-- 2272685908352 -->
<g id="node14" class="node">
<title>2272685908352</title>
<polygon fill="none" stroke="black" points="1437.5,-36 1324.75,-36 1324.75,0 1437.5,0 1437.5,-36"/>
<text text-anchor="middle" x="1381.12" y="-12.97" font-family="Times New Roman,serif" font-size="12.00">Send ticket via SMS</text>
</g>
<!-- 2272685913440&#45;&gt;2272685908352 -->
<g id="edge13" class="edge">
<title>2272685913440&#45;&gt;2272685908352</title>
<path fill="none" stroke="black" d="M1160.89,-60C1194.59,-53.54 1262.35,-40.56 1313.67,-30.73"/>
<polygon fill="black" stroke="black" points="1314.04,-34.22 1323.2,-28.91 1312.72,-27.35 1314.04,-34.22"/>
</g>
<!-- 2272685914688 -->
<g id="node13" class="node">
<title>2272685914688</title>
<polygon fill="none" stroke="black" points="1423.62,-136 1338.62,-136 1338.62,-100 1423.62,-100 1423.62,-136"/>
<text text-anchor="middle" x="1381.12" y="-112.97" font-family="Times New Roman,serif" font-size="12.00">Send reminder</text>
</g>
<!-- 2272685911616&#45;&gt;2272685914688 -->
<g id="edge14" class="edge">
<title>2272685911616&#45;&gt;2272685914688</title>
<path fill="none" stroke="black" d="M1289.38,-118C1300.58,-118 1314.02,-118 1327.08,-118"/>
<polygon fill="black" stroke="black" points="1326.89,-121.5 1336.89,-118 1326.89,-114.5 1326.89,-121.5"/>
</g>
<!-- 2272685915072 -->
<g id="node15" class="node">
<title>2272685915072</title>
<polygon fill="none" stroke="black" points="2219,-78 2192,-60 2219,-42 2246,-60 2219,-78"/>
<text text-anchor="middle" x="2219" y="-54.98" font-family="Times New Roman,serif" font-size="12.00">+</text>
</g>
<!-- 2272685792080&#45;&gt;2272685915072 -->
<g id="edge15" class="edge">
<title>2272685792080&#45;&gt;2272685915072</title>
<path fill="none" stroke="black" d="M1588.14,-62.82C1649.39,-61.64 1750,-60 1836.75,-60 1836.75,-60 1836.75,-60 1984.38,-60 2053.4,-60 2133.9,-60 2180.11,-60"/>
<polygon fill="black" stroke="black" points="2179.86,-63.5 2189.86,-60 2179.86,-56.5 2179.86,-63.5"/>
</g>
<!-- 2272685905232 -->
<g id="node16" class="node">
<title>2272685905232</title>
<polygon fill="none" stroke="black" points="1579.12,-136 1482.12,-136 1482.12,-100 1579.12,-100 1579.12,-136"/>
<text text-anchor="middle" x="1530.62" y="-112.97" font-family="Times New Roman,serif" font-size="12.00">Send instructions</text>
</g>
<!-- 2272685914688&#45;&gt;2272685905232 -->
<g id="edge16" class="edge">
<title>2272685914688&#45;&gt;2272685905232</title>
<path fill="none" stroke="black" d="M1424,-118C1438.46,-118 1454.94,-118 1470.52,-118"/>
<polygon fill="black" stroke="black" points="1470.15,-121.5 1480.15,-118 1470.15,-114.5 1470.15,-121.5"/>
</g>
<!-- 2272685908352&#45;&gt;2272685915072 -->
<g id="edge17" class="edge">
<title>2272685908352&#45;&gt;2272685915072</title>
<path fill="none" stroke="black" d="M1437.8,-18C1500.95,-18 1607.01,-18 1698.25,-18 1698.25,-18 1698.25,-18 1984.38,-18 2058.93,-18 2144.79,-38.98 2188.74,-51.28"/>
<polygon fill="black" stroke="black" points="2187.69,-54.62 2198.27,-54.01 2189.62,-47.89 2187.69,-54.62"/>
</g>
<!-- 2272685795488 -->
<g id="node21" class="node">
<title>2272685795488</title>
<ellipse fill="orange" stroke="black" cx="2300" cy="-60" rx="18" ry="18"/>
</g>
<!-- 2272685915072&#45;&gt;2272685795488 -->
<g id="edge19" class="edge">
<title>2272685915072&#45;&gt;2272685795488</title>
<path fill="none" stroke="black" d="M2246.75,-60C2254.38,-60 2262.73,-60 2270.47,-60"/>
<polygon fill="black" stroke="black" points="2270.43,-63.5 2280.43,-60 2270.43,-56.5 2270.43,-63.5"/>
</g>
<!-- 2272685910896 -->
<g id="node17" class="node">
<title>2272685910896</title>
<polygon fill="none" stroke="black" points="1774.75,-136 1623.75,-136 1623.75,-100 1774.75,-100 1774.75,-136"/>
<text text-anchor="middle" x="1699.25" y="-112.97" font-family="Times New Roman,serif" font-size="12.00">Customer completes journey</text>
</g>
<!-- 2272685905232&#45;&gt;2272685910896 -->
<g id="edge18" class="edge">
<title>2272685905232&#45;&gt;2272685910896</title>
<path fill="none" stroke="black" d="M1579.37,-118C1589.69,-118 1600.9,-118 1612.17,-118"/>
<polygon fill="black" stroke="black" points="1611.93,-121.5 1621.93,-118 1611.93,-114.5 1611.93,-121.5"/>
</g>
<!-- 2272685786272 -->
<g id="node18" class="node">
<title>2272685786272</title>
<polygon fill="none" stroke="black" points="1837.75,-136 1810.75,-118 1837.75,-100 1864.75,-118 1837.75,-136"/>
<text text-anchor="middle" x="1837.75" y="-112.97" font-family="Times New Roman,serif" font-size="12.00">X</text>
</g>
<!-- 2272685910896&#45;&gt;2272685786272 -->
<g id="edge20" class="edge">
<title>2272685910896&#45;&gt;2272685786272</title>
<path fill="none" stroke="black" d="M1774.89,-118C1783.04,-118 1791.07,-118 1798.51,-118"/>
<polygon fill="black" stroke="black" points="1798.49,-121.5 1808.49,-118 1798.49,-114.5 1798.49,-121.5"/>
</g>
<!-- 2272685793712 -->
<g id="node19" class="node">
<title>2272685793712</title>
<polygon fill="none" stroke="black" points="2129,-124 2102,-106 2129,-88 2156,-106 2129,-124"/>
<text text-anchor="middle" x="2129" y="-100.97" font-family="Times New Roman,serif" font-size="12.00">X</text>
</g>
<!-- 2272685786272&#45;&gt;2272685793712 -->
<g id="edge21" class="edge">
<title>2272685786272&#45;&gt;2272685793712</title>
<path fill="none" stroke="black" d="M1856.99,-123.62C1869.23,-127.09 1885.79,-131.22 1900.75,-133 1973.68,-141.7 1994.1,-147.98 2066,-133 2078.93,-130.31 2092.47,-124.77 2103.59,-119.4"/>
<polygon fill="black" stroke="black" points="2105.11,-122.55 2112.43,-114.89 2101.93,-116.31 2105.11,-122.55"/>
</g>
<!-- 2272685900048 -->
<g id="node20" class="node">
<title>2272685900048</title>
<polygon fill="none" stroke="black" points="2066,-124 1900.75,-124 1900.75,-88 2066,-88 2066,-124"/>
<text text-anchor="middle" x="1983.38" y="-100.97" font-family="Times New Roman,serif" font-size="12.00">Post&#45;travel feedback or services</text>
</g>
<!-- 2272685786272&#45;&gt;2272685900048 -->
<g id="edge22" class="edge">
<title>2272685786272&#45;&gt;2272685900048</title>
<path fill="none" stroke="black" d="M1862.47,-116.02C1870.22,-115.37 1879.37,-114.61 1889.09,-113.79"/>
<polygon fill="black" stroke="black" points="1889.08,-117.31 1898.76,-112.99 1888.5,-110.33 1889.08,-117.31"/>
</g>
<!-- 2272685793712&#45;&gt;2272685915072 -->
<g id="edge23" class="edge">
<title>2272685793712&#45;&gt;2272685915072</title>
<path fill="none" stroke="black" d="M2144.93,-98.2C2158.08,-91.32 2177.49,-81.17 2193.01,-73.06"/>
<polygon fill="black" stroke="black" points="2194.42,-76.28 2201.66,-68.54 2191.17,-70.07 2194.42,-76.28"/>
</g>
<!-- 2272685900048&#45;&gt;2272685793712 -->
<g id="edge24" class="edge">
<title>2272685900048&#45;&gt;2272685793712</title>
<path fill="none" stroke="black" d="M2066.26,-106C2074.43,-106 2082.42,-106 2089.8,-106"/>
<polygon fill="black" stroke="black" points="2089.68,-109.5 2099.68,-106 2089.68,-102.5 2089.68,-109.5"/>
</g>
</g>
</svg>
