<?xml version="1.0" encoding="UTF-8" standalone="no"?>
<!DOCTYPE svg PUBLIC "-//W3C//DTD SVG 1.1//EN"
 "http://www.w3.org/Graphics/SVG/1.1/DTD/svg11.dtd">
<!-- Generated by graphviz version 11.0.0 (20240428.1522)
 -->
<!-- Pages: 1 -->
<svg width="2609pt" height="98pt"
 viewBox="0.00 0.00 2608.50 98.00" xmlns="http://www.w3.org/2000/svg" xmlns:xlink="http://www.w3.org/1999/xlink">
<g id="graph0" class="graph" transform="scale(1 1) rotate(0) translate(4 94)">
<polygon fill="white" stroke="none" points="-4,4 -4,-94 2604.5,-94 2604.5,4 -4,4"/>
<!-- 2272686708000 -->
<g id="node1" class="node">
<title>2272686708000</title>
<ellipse fill="green" stroke="black" cx="18" cy="-45" rx="18" ry="18"/>
</g>
<!-- 2272686383632 -->
<g id="node2" class="node">
<title>2272686383632</title>
<polygon fill="none" stroke="black" points="221.5,-63 72,-63 72,-27 221.5,-27 221.5,-63"/>
<text text-anchor="middle" x="146.75" y="-39.98" font-family="Times New Roman,serif" font-size="12.00">Customer searches for ticket</text>
</g>
<!-- 2272686708000&#45;&gt;2272686383632 -->
<g id="edge1" class="edge">
<title>2272686708000&#45;&gt;2272686383632</title>
<path fill="none" stroke="black" d="M36.36,-45C43.15,-45 51.48,-45 60.48,-45"/>
<polygon fill="black" stroke="black" points="60.22,-48.5 70.22,-45 60.22,-41.5 60.22,-48.5"/>
</g>
<!-- 2272686391120 -->
<g id="node3" class="node">
<title>2272686391120</title>
<polygon fill="none" stroke="black" points="284.5,-63 257.5,-45 284.5,-27 311.5,-45 284.5,-63"/>
<text text-anchor="middle" x="284.5" y="-39.98" font-family="Times New Roman,serif" font-size="12.00">+</text>
</g>
<!-- 2272686383632&#45;&gt;2272686391120 -->
<g id="edge2" class="edge">
<title>2272686383632&#45;&gt;2272686391120</title>
<path fill="none" stroke="black" d="M221.98,-45C230.01,-45 237.92,-45 245.25,-45"/>
<polygon fill="black" stroke="black" points="245.09,-48.5 255.09,-45 245.09,-41.5 245.09,-48.5"/>
</g>
<!-- 2272686386176 -->
<g id="node4" class="node">
<title>2272686386176</title>
<polygon fill="none" stroke="black" points="458,-90 347.5,-90 347.5,-54 458,-54 458,-90"/>
<text text-anchor="middle" x="402.75" y="-66.97" font-family="Times New Roman,serif" font-size="12.00">Select date and time</text>
</g>
<!-- 2272686391120&#45;&gt;2272686386176 -->
<g id="edge3" class="edge">
<title>2272686391120&#45;&gt;2272686386176</title>
<path fill="none" stroke="black" d="M305.22,-49.58C314.01,-51.62 324.91,-54.15 336.2,-56.78"/>
<polygon fill="black" stroke="black" points="335.07,-60.11 345.61,-58.96 336.66,-53.29 335.07,-60.11"/>
</g>
<!-- 2272685900720 -->
<g id="node5" class="node">
<title>2272685900720</title>
<polygon fill="none" stroke="black" points="438.5,-36 367,-36 367,0 438.5,0 438.5,-36"/>
<text text-anchor="middle" x="402.75" y="-12.98" font-family="Times New Roman,serif" font-size="12.00">Select route</text>
</g>
<!-- 2272686391120&#45;&gt;2272685900720 -->
<g id="edge4" class="edge">
<title>2272686391120&#45;&gt;2272685900720</title>
<path fill="none" stroke="black" d="M305.22,-40.42C319.1,-37.2 338.27,-32.74 355.88,-28.65"/>
<polygon fill="black" stroke="black" points="356.43,-32.12 365.38,-26.45 354.85,-25.3 356.43,-32.12"/>
</g>
<!-- 2272686377104 -->
<g id="node6" class="node">
<title>2272686377104</title>
<polygon fill="none" stroke="black" points="521,-90 494,-72 521,-54 548,-72 521,-90"/>
<text text-anchor="middle" x="521" y="-66.97" font-family="Times New Roman,serif" font-size="12.00">+</text>
</g>
<!-- 2272686386176&#45;&gt;2272686377104 -->
<g id="edge5" class="edge">
<title>2272686386176&#45;&gt;2272686377104</title>
<path fill="none" stroke="black" d="M458.47,-72C466.43,-72 474.48,-72 482.01,-72"/>
<polygon fill="black" stroke="black" points="481.82,-75.5 491.82,-72 481.82,-68.5 481.82,-75.5"/>
</g>
<!-- 2272685909936 -->
<g id="node7" class="node">
<title>2272685909936</title>
<polygon fill="none" stroke="black" points="521,-36 494,-18 521,0 548,-18 521,-36"/>
<text text-anchor="middle" x="521" y="-12.98" font-family="Times New Roman,serif" font-size="12.00">+</text>
</g>
<!-- 2272685900720&#45;&gt;2272685909936 -->
<g id="edge6" class="edge">
<title>2272685900720&#45;&gt;2272685909936</title>
<path fill="none" stroke="black" d="M438.94,-18C452.62,-18 468.32,-18 482.23,-18"/>
<polygon fill="black" stroke="black" points="481.91,-21.5 491.91,-18 481.91,-14.5 481.91,-21.5"/>
</g>
<!-- 2272686388576 -->
<g id="node8" class="node">
<title>2272686388576</title>
<polygon fill="none" stroke="black" points="611,-90 584,-72 611,-54 638,-72 611,-90"/>
<text text-anchor="middle" x="611" y="-66.97" font-family="Times New Roman,serif" font-size="12.00">+</text>
</g>
<!-- 2272686377104&#45;&gt;2272686388576 -->
<g id="edge8" class="edge">
<title>2272686377104&#45;&gt;2272686388576</title>
<path fill="none" stroke="black" d="M548.88,-72C556.13,-72 564.12,-72 571.85,-72"/>
<polygon fill="black" stroke="black" points="571.77,-75.5 581.77,-72 571.77,-68.5 571.77,-75.5"/>
</g>
<!-- 2272685908880 -->
<g id="node9" class="node">
<title>2272685908880</title>
<polygon fill="none" stroke="black" points="611,-36 584,-18 611,0 638,-18 611,-36"/>
<text text-anchor="middle" x="611" y="-12.98" font-family="Times New Roman,serif" font-size="12.00">+</text>
</g>
<!-- 2272686377104&#45;&gt;2272685908880 -->
<g id="edge7" class="edge">
<title>2272686377104&#45;&gt;2272685908880</title>
<path fill="none" stroke="black" d="M535.75,-63.56C549.36,-55.21 570.46,-42.27 586.69,-32.3"/>
<polygon fill="black" stroke="black" points="588.07,-35.56 594.77,-27.35 584.41,-29.6 588.07,-35.56"/>
</g>
<!-- 2272685909936&#45;&gt;2272686388576 -->
<g id="edge10" class="edge">
<title>2272685909936&#45;&gt;2272686388576</title>
<path fill="none" stroke="black" d="M535.75,-26.44C549.36,-34.79 570.46,-47.73 586.69,-57.7"/>
<polygon fill="black" stroke="black" points="584.41,-60.4 594.77,-62.65 588.07,-54.44 584.41,-60.4"/>
</g>
<!-- 2272685909936&#45;&gt;2272685908880 -->
<g id="edge9" class="edge">
<title>2272685909936&#45;&gt;2272685908880</title>
<path fill="none" stroke="black" d="M548.88,-18C556.13,-18 564.12,-18 571.85,-18"/>
<polygon fill="black" stroke="black" points="571.77,-21.5 581.77,-18 571.77,-14.5 571.77,-21.5"/>
</g>
<!-- 2272686387520 -->
<g id="node10" class="node">
<title>2272686387520</title>
<polygon fill="none" stroke="black" points="815.25,-90 686,-90 686,-54 815.25,-54 815.25,-90"/>
<text text-anchor="middle" x="750.62" y="-66.97" font-family="Times New Roman,serif" font-size="12.00">Provide payment details</text>
</g>
<!-- 2272686388576&#45;&gt;2272686387520 -->
<g id="edge11" class="edge">
<title>2272686388576&#45;&gt;2272686387520</title>
<path fill="none" stroke="black" d="M638.86,-72C649.27,-72 661.74,-72 674.51,-72"/>
<polygon fill="black" stroke="black" points="674.25,-75.5 684.25,-72 674.25,-68.5 674.25,-75.5"/>
</g>
<!-- 2272685905328 -->
<g id="node11" class="node">
<title>2272685905328</title>
<polygon fill="none" stroke="black" points="827.25,-36 674,-36 674,0 827.25,0 827.25,-36"/>
<text text-anchor="middle" x="750.62" y="-12.98" font-family="Times New Roman,serif" font-size="12.00">Provide personal information</text>
</g>
<!-- 2272685908880&#45;&gt;2272685905328 -->
<g id="edge12" class="edge">
<title>2272685908880&#45;&gt;2272685905328</title>
<path fill="none" stroke="black" d="M638.86,-18C645.93,-18 653.96,-18 662.38,-18"/>
<polygon fill="black" stroke="black" points="662.13,-21.5 672.13,-18 662.13,-14.5 662.13,-21.5"/>
</g>
<!-- 2272686390016 -->
<g id="node12" class="node">
<title>2272686390016</title>
<polygon fill="none" stroke="black" points="890.25,-63 863.25,-45 890.25,-27 917.25,-45 890.25,-63"/>
<text text-anchor="middle" x="890.25" y="-39.98" font-family="Times New Roman,serif" font-size="12.00">+</text>
</g>
<!-- 2272686387520&#45;&gt;2272686390016 -->
<g id="edge13" class="edge">
<title>2272686387520&#45;&gt;2272686390016</title>
<path fill="none" stroke="black" d="M815.6,-59.45C830.18,-56.59 845.04,-53.67 857.57,-51.22"/>
<polygon fill="black" stroke="black" points="858.15,-54.67 867.29,-49.31 856.8,-47.8 858.15,-54.67"/>
</g>
<!-- 2272685905328&#45;&gt;2272686390016 -->
<g id="edge14" class="edge">
<title>2272685905328&#45;&gt;2272686390016</title>
<path fill="none" stroke="black" d="M827.68,-32.92C838.14,-34.97 848.38,-36.98 857.41,-38.75"/>
<polygon fill="black" stroke="black" points="856.52,-42.15 867.01,-40.64 857.87,-35.28 856.52,-42.15"/>
</g>
<!-- 2272686384544 -->
<g id="node13" class="node">
<title>2272686384544</title>
<polygon fill="none" stroke="black" points="1040.5,-63 953.25,-63 953.25,-27 1040.5,-27 1040.5,-63"/>
<text text-anchor="middle" x="996.88" y="-39.98" font-family="Times New Roman,serif" font-size="12.00">Generate ticket</text>
</g>
<!-- 2272686390016&#45;&gt;2272686384544 -->
<g id="edge15" class="edge">
<title>2272686390016&#45;&gt;2272686384544</title>
<path fill="none" stroke="black" d="M917.92,-45C925.25,-45 933.46,-45 941.74,-45"/>
<polygon fill="black" stroke="black" points="941.48,-48.5 951.48,-45 941.48,-41.5 941.48,-48.5"/>
</g>
<!-- 2272685908832 -->
<g id="node14" class="node">
<title>2272685908832</title>
<polygon fill="none" stroke="black" points="1196,-63 1076.5,-63 1076.5,-27 1196,-27 1196,-63"/>
<text text-anchor="middle" x="1136.25" y="-39.98" font-family="Times New Roman,serif" font-size="12.00">Update seat inventory</text>
</g>
<!-- 2272686384544&#45;&gt;2272685908832 -->
<g id="edge16" class="edge">
<title>2272686384544&#45;&gt;2272685908832</title>
<path fill="none" stroke="black" d="M1040.96,-45C1048.56,-45 1056.64,-45 1064.76,-45"/>
<polygon fill="black" stroke="black" points="1064.69,-48.5 1074.69,-45 1064.69,-41.5 1064.69,-48.5"/>
</g>
<!-- 2272686376576 -->
<g id="node15" class="node">
<title>2272686376576</title>
<polygon fill="none" stroke="black" points="1259,-63 1232,-45 1259,-27 1286,-45 1259,-63"/>
<text text-anchor="middle" x="1259" y="-39.98" font-family="Times New Roman,serif" font-size="12.00">X</text>
</g>
<!-- 2272685908832&#45;&gt;2272686376576 -->
<g id="edge17" class="edge">
<title>2272685908832&#45;&gt;2272686376576</title>
<path fill="none" stroke="black" d="M1196.21,-45C1204.3,-45 1212.43,-45 1220.01,-45"/>
<polygon fill="black" stroke="black" points="1219.87,-48.5 1229.87,-45 1219.87,-41.5 1219.87,-48.5"/>
</g>
<!-- 2272686375952 -->
<g id="node16" class="node">
<title>2272686375952</title>
<polygon fill="none" stroke="black" points="1435.5,-90 1322.75,-90 1322.75,-54 1435.5,-54 1435.5,-90"/>
<text text-anchor="middle" x="1379.12" y="-66.97" font-family="Times New Roman,serif" font-size="12.00">Send ticket via SMS</text>
</g>
<!-- 2272686376576&#45;&gt;2272686375952 -->
<g id="edge19" class="edge">
<title>2272686376576&#45;&gt;2272686375952</title>
<path fill="none" stroke="black" d="M1279.77,-49.52C1288.68,-51.56 1299.77,-54.09 1311.27,-56.72"/>
<polygon fill="black" stroke="black" points="1310.35,-60.1 1320.87,-58.91 1311.91,-53.27 1310.35,-60.1"/>
</g>
<!-- 2272685908784 -->
<g id="node17" class="node">
<title>2272685908784</title>
<polygon fill="none" stroke="black" points="1436.25,-36 1322,-36 1322,0 1436.25,0 1436.25,-36"/>
<text text-anchor="middle" x="1379.12" y="-12.98" font-family="Times New Roman,serif" font-size="12.00">Send ticket via email</text>
</g>
<!-- 2272686376576&#45;&gt;2272685908784 -->
<g id="edge18" class="edge">
<title>2272686376576&#45;&gt;2272685908784</title>
<path fill="none" stroke="black" d="M1279.77,-40.48C1288.53,-38.48 1299.4,-35.99 1310.69,-33.41"/>
<polygon fill="black" stroke="black" points="1311.14,-36.9 1320.11,-31.26 1309.58,-30.08 1311.14,-36.9"/>
</g>
<!-- 2272686376768 -->
<g id="node18" class="node">
<title>2272686376768</title>
<polygon fill="none" stroke="black" points="1499.25,-63 1472.25,-45 1499.25,-27 1526.25,-45 1499.25,-63"/>
<text text-anchor="middle" x="1499.25" y="-39.98" font-family="Times New Roman,serif" font-size="12.00">X</text>
</g>
<!-- 2272686375952&#45;&gt;2272686376768 -->
<g id="edge20" class="edge">
<title>2272686375952&#45;&gt;2272686376768</title>
<path fill="none" stroke="black" d="M1435.73,-59.29C1446.62,-56.8 1457.67,-54.28 1467.39,-52.05"/>
<polygon fill="black" stroke="black" points="1468.03,-55.5 1477,-49.86 1466.47,-48.67 1468.03,-55.5"/>
</g>
<!-- 2272685908784&#45;&gt;2272686376768 -->
<g id="edge21" class="edge">
<title>2272685908784&#45;&gt;2272686376768</title>
<path fill="none" stroke="black" d="M1436.42,-30.87C1447.15,-33.32 1458,-35.8 1467.56,-37.98"/>
<polygon fill="black" stroke="black" points="1466.47,-41.33 1476.99,-40.14 1468.03,-34.5 1466.47,-41.33"/>
</g>
<!-- 2272686375856 -->
<g id="node19" class="node">
<title>2272686375856</title>
<polygon fill="none" stroke="black" points="1589.25,-63 1562.25,-45 1589.25,-27 1616.25,-45 1589.25,-63"/>
<text text-anchor="middle" x="1589.25" y="-39.98" font-family="Times New Roman,serif" font-size="12.00">X</text>
</g>
<!-- 2272686376768&#45;&gt;2272686375856 -->
<g id="edge22" class="edge">
<title>2272686376768&#45;&gt;2272686375856</title>
<path fill="none" stroke="black" d="M1527.13,-45C1534.38,-45 1542.37,-45 1550.1,-45"/>
<polygon fill="black" stroke="black" points="1550.02,-48.5 1560.02,-45 1550.02,-41.5 1550.02,-48.5"/>
</g>
<!-- 2272686382720 -->
<g id="node20" class="node">
<title>2272686382720</title>
<polygon fill="none" stroke="black" points="1737.25,-86 1652.25,-86 1652.25,-50 1737.25,-50 1737.25,-86"/>
<text text-anchor="middle" x="1694.75" y="-62.98" font-family="Times New Roman,serif" font-size="12.00">Send reminder</text>
</g>
<!-- 2272686375856&#45;&gt;2272686382720 -->
<g id="edge23" class="edge">
<title>2272686375856&#45;&gt;2272686382720</title>
<path fill="none" stroke="black" d="M1610.21,-49.43C1619.11,-51.41 1630.05,-53.85 1641.06,-56.29"/>
<polygon fill="black" stroke="black" points="1640.01,-59.64 1650.53,-58.4 1641.53,-52.81 1640.01,-59.64"/>
</g>
<!-- 2272686386896 -->
<g id="node21" class="node">
<title>2272686386896</title>
<polygon fill="none" stroke="black" points="1800.25,-63 1773.25,-45 1800.25,-27 1827.25,-45 1800.25,-63"/>
<text text-anchor="middle" x="1800.25" y="-39.98" font-family="Times New Roman,serif" font-size="12.00">X</text>
</g>
<!-- 2272686382720&#45;&gt;2272686386896 -->
<g id="edge24" class="edge">
<title>2272686382720&#45;&gt;2272686386896</title>
<path fill="none" stroke="black" d="M1737.55,-58.71C1747.76,-56.44 1758.51,-54.05 1768.12,-51.92"/>
<polygon fill="black" stroke="black" points="1768.69,-55.38 1777.69,-49.79 1767.17,-48.54 1768.69,-55.38"/>
</g>
<!-- 2272686386896&#45;&gt;2272686375856 -->
<g id="edge25" class="edge">
<title>2272686386896&#45;&gt;2272686375856</title>
<path fill="none" stroke="black" d="M1775.42,-43.1C1763.9,-42.28 1749.86,-41.41 1737.25,-41 1699.49,-39.78 1690.01,-39.78 1652.25,-41 1643.58,-41.28 1634.23,-41.78 1625.5,-42.33"/>
<polygon fill="black" stroke="black" points="1625.33,-38.83 1615.59,-43 1625.8,-45.82 1625.33,-38.83"/>
</g>
<!-- 2272686380992 -->
<g id="node22" class="node">
<title>2272686380992</title>
<polygon fill="none" stroke="black" points="1890.25,-63 1863.25,-45 1890.25,-27 1917.25,-45 1890.25,-63"/>
<text text-anchor="middle" x="1890.25" y="-39.98" font-family="Times New Roman,serif" font-size="12.00">X</text>
</g>
<!-- 2272686386896&#45;&gt;2272686380992 -->
<g id="edge26" class="edge">
<title>2272686386896&#45;&gt;2272686380992</title>
<path fill="none" stroke="black" d="M1828.13,-45C1835.38,-45 1843.37,-45 1851.1,-45"/>
<polygon fill="black" stroke="black" points="1851.02,-48.5 1861.02,-45 1851.02,-41.5 1851.02,-48.5"/>
</g>
<!-- 2272685910224 -->
<g id="node23" class="node">
<title>2272685910224</title>
<polygon fill="none" stroke="black" points="2050.25,-86 1953.25,-86 1953.25,-50 2050.25,-50 2050.25,-86"/>
<text text-anchor="middle" x="2001.75" y="-62.98" font-family="Times New Roman,serif" font-size="12.00">Send instructions</text>
</g>
<!-- 2272686380992&#45;&gt;2272685910224 -->
<g id="edge27" class="edge">
<title>2272686380992&#45;&gt;2272685910224</title>
<path fill="none" stroke="black" d="M1911.59,-49.27C1920.22,-51.08 1930.77,-53.3 1941.55,-55.56"/>
<polygon fill="black" stroke="black" points="1940.81,-58.99 1951.31,-57.62 1942.25,-52.13 1940.81,-58.99"/>
</g>
<!-- 2272686375664 -->
<g id="node24" class="node">
<title>2272686375664</title>
<polygon fill="none" stroke="black" points="2113.25,-63 2086.25,-45 2113.25,-27 2140.25,-45 2113.25,-63"/>
<text text-anchor="middle" x="2113.25" y="-39.98" font-family="Times New Roman,serif" font-size="12.00">X</text>
</g>
<!-- 2272685910224&#45;&gt;2272686375664 -->
<g id="edge28" class="edge">
<title>2272685910224&#45;&gt;2272686375664</title>
<path fill="none" stroke="black" d="M2050.46,-57.98C2060.67,-55.83 2071.22,-53.62 2080.64,-51.64"/>
<polygon fill="black" stroke="black" points="2081.32,-55.07 2090.39,-49.59 2079.88,-48.22 2081.32,-55.07"/>
</g>
<!-- 2272686375664&#45;&gt;2272686380992 -->
<g id="edge29" class="edge">
<title>2272686375664&#45;&gt;2272686380992</title>
<path fill="none" stroke="black" d="M2088.42,-43.1C2076.9,-42.28 2062.86,-41.41 2050.25,-41 2007.16,-39.61 1996.34,-39.61 1953.25,-41 1944.58,-41.28 1935.23,-41.78 1926.5,-42.33"/>
<polygon fill="black" stroke="black" points="1926.33,-38.83 1916.59,-43 1926.8,-45.82 1926.33,-38.83"/>
</g>
<!-- 2272686378928 -->
<g id="node25" class="node">
<title>2272686378928</title>
<polygon fill="none" stroke="black" points="2327.25,-63 2176.25,-63 2176.25,-27 2327.25,-27 2327.25,-63"/>
<text text-anchor="middle" x="2251.75" y="-39.98" font-family="Times New Roman,serif" font-size="12.00">Customer completes journey</text>
</g>
<!-- 2272686375664&#45;&gt;2272686378928 -->
<g id="edge30" class="edge">
<title>2272686375664&#45;&gt;2272686378928</title>
<path fill="none" stroke="black" d="M2140.89,-45C2148.01,-45 2156.11,-45 2164.61,-45"/>
<polygon fill="black" stroke="black" points="2164.44,-48.5 2174.44,-45 2164.44,-41.5 2164.44,-48.5"/>
</g>
<!-- 2272686385648 -->
<g id="node26" class="node">
<title>2272686385648</title>
<polygon fill="none" stroke="black" points="2528.5,-63 2363.25,-63 2363.25,-27 2528.5,-27 2528.5,-63"/>
<text text-anchor="middle" x="2445.88" y="-39.98" font-family="Times New Roman,serif" font-size="12.00">Post&#45;travel feedback or services</text>
</g>
<!-- 2272686378928&#45;&gt;2272686385648 -->
<g id="edge31" class="edge">
<title>2272686378928&#45;&gt;2272686385648</title>
<path fill="none" stroke="black" d="M2327.58,-45C2335.46,-45 2343.54,-45 2351.59,-45"/>
<polygon fill="black" stroke="black" points="2351.42,-48.5 2361.42,-45 2351.42,-41.5 2351.42,-48.5"/>
</g>
<!-- 2272686707184 -->
<g id="node27" class="node">
<title>2272686707184</title>
<ellipse fill="orange" stroke="black" cx="2582.5" cy="-45" rx="18" ry="18"/>
</g>
<!-- 2272686385648&#45;&gt;2272686707184 -->
<g id="edge32" class="edge">
<title>2272686385648&#45;&gt;2272686707184</title>
<path fill="none" stroke="black" d="M2528.68,-45C2537.29,-45 2545.56,-45 2552.9,-45"/>
<polygon fill="black" stroke="black" points="2552.76,-48.5 2562.76,-45 2552.76,-41.5 2552.76,-48.5"/>
</g>
</g>
</svg>
