<?xml version="1.0" encoding="UTF-8" standalone="no"?>
<!DOCTYPE svg PUBLIC "-//W3C//DTD SVG 1.1//EN"
 "http://www.w3.org/Graphics/SVG/1.1/DTD/svg11.dtd">
<!-- Generated by graphviz version 11.0.0 (20240428.1522)
 -->
<!-- Pages: 1 -->
<svg width="2519pt" height="98pt"
 viewBox="0.00 0.00 2518.50 98.00" xmlns="http://www.w3.org/2000/svg" xmlns:xlink="http://www.w3.org/1999/xlink">
<g id="graph0" class="graph" transform="scale(1 1) rotate(0) translate(4 94)">
<polygon fill="white" stroke="none" points="-4,4 -4,-94 2514.5,-94 2514.5,4 -4,4"/>
<!-- 2272685911856 -->
<g id="node1" class="node">
<title>2272685911856</title>
<ellipse fill="green" stroke="black" cx="18" cy="-45" rx="18" ry="18"/>
</g>
<!-- 2272685947984 -->
<g id="node2" class="node">
<title>2272685947984</title>
<polygon fill="none" stroke="black" points="221.5,-63 72,-63 72,-27 221.5,-27 221.5,-63"/>
<text text-anchor="middle" x="146.75" y="-39.98" font-family="Times New Roman,serif" font-size="12.00">Customer searches for ticket</text>
</g>
<!-- 2272685911856&#45;&gt;2272685947984 -->
<g id="edge1" class="edge">
<title>2272685911856&#45;&gt;2272685947984</title>
<path fill="none" stroke="black" d="M36.36,-45C43.15,-45 51.48,-45 60.48,-45"/>
<polygon fill="black" stroke="black" points="60.22,-48.5 70.22,-45 60.22,-41.5 60.22,-48.5"/>
</g>
<!-- 2272685938048 -->
<g id="node3" class="node">
<title>2272685938048</title>
<polygon fill="none" stroke="black" points="284.5,-63 257.5,-45 284.5,-27 311.5,-45 284.5,-63"/>
<text text-anchor="middle" x="284.5" y="-39.98" font-family="Times New Roman,serif" font-size="12.00">+</text>
</g>
<!-- 2272685947984&#45;&gt;2272685938048 -->
<g id="edge2" class="edge">
<title>2272685947984&#45;&gt;2272685938048</title>
<path fill="none" stroke="black" d="M221.98,-45C230.01,-45 237.92,-45 245.25,-45"/>
<polygon fill="black" stroke="black" points="245.09,-48.5 255.09,-45 245.09,-41.5 245.09,-48.5"/>
</g>
<!-- 2272686201008 -->
<g id="node4" class="node">
<title>2272686201008</title>
<polygon fill="none" stroke="black" points="458,-90 347.5,-90 347.5,-54 458,-54 458,-90"/>
<text text-anchor="middle" x="402.75" y="-66.97" font-family="Times New Roman,serif" font-size="12.00">Select date and time</text>
</g>
<!-- 2272685938048&#45;&gt;2272686201008 -->
<g id="edge3" class="edge">
<title>2272685938048&#45;&gt;2272686201008</title>
<path fill="none" stroke="black" d="M305.22,-49.58C314.01,-51.62 324.91,-54.15 336.2,-56.78"/>
<polygon fill="black" stroke="black" points="335.07,-60.11 345.61,-58.96 336.66,-53.29 335.07,-60.11"/>
</g>
<!-- 2272686210800 -->
<g id="node5" class="node">
<title>2272686210800</title>
<polygon fill="none" stroke="black" points="438.5,-36 367,-36 367,0 438.5,0 438.5,-36"/>
<text text-anchor="middle" x="402.75" y="-12.97" font-family="Times New Roman,serif" font-size="12.00">Select route</text>
</g>
<!-- 2272685938048&#45;&gt;2272686210800 -->
<g id="edge4" class="edge">
<title>2272685938048&#45;&gt;2272686210800</title>
<path fill="none" stroke="black" d="M305.22,-40.42C319.1,-37.2 338.27,-32.74 355.88,-28.65"/>
<polygon fill="black" stroke="black" points="356.43,-32.12 365.38,-26.45 354.85,-25.3 356.43,-32.12"/>
</g>
<!-- 2272686134128 -->
<g id="node6" class="node">
<title>2272686134128</title>
<polygon fill="none" stroke="black" points="521,-63 494,-45 521,-27 548,-45 521,-63"/>
<text text-anchor="middle" x="521" y="-39.98" font-family="Times New Roman,serif" font-size="12.00">+</text>
</g>
<!-- 2272686201008&#45;&gt;2272686134128 -->
<g id="edge5" class="edge">
<title>2272686201008&#45;&gt;2272686134128</title>
<path fill="none" stroke="black" d="M458.47,-59.29C468.99,-56.85 479.65,-54.37 489.09,-52.18"/>
<polygon fill="black" stroke="black" points="489.85,-55.6 498.8,-49.92 488.26,-48.78 489.85,-55.6"/>
</g>
<!-- 2272686210800&#45;&gt;2272686134128 -->
<g id="edge6" class="edge">
<title>2272686210800&#45;&gt;2272686134128</title>
<path fill="none" stroke="black" d="M438.94,-26.17C454.92,-29.88 473.65,-34.23 489.08,-37.82"/>
<polygon fill="black" stroke="black" points="488.12,-41.19 498.66,-40.04 489.71,-34.37 488.12,-41.19"/>
</g>
<!-- 2272686132304 -->
<g id="node7" class="node">
<title>2272686132304</title>
<polygon fill="none" stroke="black" points="737.25,-90 584,-90 584,-54 737.25,-54 737.25,-90"/>
<text text-anchor="middle" x="660.62" y="-66.97" font-family="Times New Roman,serif" font-size="12.00">Provide personal information</text>
</g>
<!-- 2272686134128&#45;&gt;2272686132304 -->
<g id="edge7" class="edge">
<title>2272686134128&#45;&gt;2272686132304</title>
<path fill="none" stroke="black" d="M542.6,-49.04C551.04,-50.7 561.42,-52.73 572.48,-54.9"/>
<polygon fill="black" stroke="black" points="571.75,-58.33 582.23,-56.82 573.09,-51.46 571.75,-58.33"/>
</g>
<!-- 2272685939872 -->
<g id="node8" class="node">
<title>2272685939872</title>
<polygon fill="none" stroke="black" points="725.25,-36 596,-36 596,0 725.25,0 725.25,-36"/>
<text text-anchor="middle" x="660.62" y="-12.97" font-family="Times New Roman,serif" font-size="12.00">Provide payment details</text>
</g>
<!-- 2272686134128&#45;&gt;2272685939872 -->
<g id="edge8" class="edge">
<title>2272686134128&#45;&gt;2272685939872</title>
<path fill="none" stroke="black" d="M542.6,-40.96C554.01,-38.72 568.96,-35.79 584.35,-32.77"/>
<polygon fill="black" stroke="black" points="584.97,-36.21 594.1,-30.85 583.62,-29.34 584.97,-36.21"/>
</g>
<!-- 2272685948704 -->
<g id="node9" class="node">
<title>2272685948704</title>
<polygon fill="none" stroke="black" points="800.25,-63 773.25,-45 800.25,-27 827.25,-45 800.25,-63"/>
<text text-anchor="middle" x="800.25" y="-39.98" font-family="Times New Roman,serif" font-size="12.00">+</text>
</g>
<!-- 2272686132304&#45;&gt;2272685948704 -->
<g id="edge9" class="edge">
<title>2272686132304&#45;&gt;2272685948704</title>
<path fill="none" stroke="black" d="M737.68,-57.08C748.14,-55.03 758.38,-53.02 767.41,-51.25"/>
<polygon fill="black" stroke="black" points="767.87,-54.72 777.01,-49.36 766.52,-47.85 767.87,-54.72"/>
</g>
<!-- 2272685939872&#45;&gt;2272685948704 -->
<g id="edge10" class="edge">
<title>2272685939872&#45;&gt;2272685948704</title>
<path fill="none" stroke="black" d="M725.6,-30.55C740.18,-33.41 755.04,-36.33 767.57,-38.78"/>
<polygon fill="black" stroke="black" points="766.8,-42.2 777.29,-40.69 768.15,-35.33 766.8,-42.2"/>
</g>
<!-- 2272686210416 -->
<g id="node10" class="node">
<title>2272686210416</title>
<polygon fill="none" stroke="black" points="950.5,-63 863.25,-63 863.25,-27 950.5,-27 950.5,-63"/>
<text text-anchor="middle" x="906.88" y="-39.98" font-family="Times New Roman,serif" font-size="12.00">Generate ticket</text>
</g>
<!-- 2272685948704&#45;&gt;2272686210416 -->
<g id="edge11" class="edge">
<title>2272685948704&#45;&gt;2272686210416</title>
<path fill="none" stroke="black" d="M827.92,-45C835.25,-45 843.46,-45 851.74,-45"/>
<polygon fill="black" stroke="black" points="851.48,-48.5 861.48,-45 851.48,-41.5 851.48,-48.5"/>
</g>
<!-- 2272686132784 -->
<g id="node11" class="node">
<title>2272686132784</title>
<polygon fill="none" stroke="black" points="1106,-63 986.5,-63 986.5,-27 1106,-27 1106,-63"/>
<text text-anchor="middle" x="1046.25" y="-39.98" font-family="Times New Roman,serif" font-size="12.00">Update seat inventory</text>
</g>
<!-- 2272686210416&#45;&gt;2272686132784 -->
<g id="edge12" class="edge">
<title>2272686210416&#45;&gt;2272686132784</title>
<path fill="none" stroke="black" d="M950.96,-45C958.56,-45 966.64,-45 974.76,-45"/>
<polygon fill="black" stroke="black" points="974.69,-48.5 984.69,-45 974.69,-41.5 974.69,-48.5"/>
</g>
<!-- 2272686711168 -->
<g id="node12" class="node">
<title>2272686711168</title>
<polygon fill="none" stroke="black" points="1169,-63 1142,-45 1169,-27 1196,-45 1169,-63"/>
<text text-anchor="middle" x="1169" y="-39.98" font-family="Times New Roman,serif" font-size="12.00">X</text>
</g>
<!-- 2272686132784&#45;&gt;2272686711168 -->
<g id="edge13" class="edge">
<title>2272686132784&#45;&gt;2272686711168</title>
<path fill="none" stroke="black" d="M1106.21,-45C1114.3,-45 1122.43,-45 1130.01,-45"/>
<polygon fill="black" stroke="black" points="1129.87,-48.5 1139.87,-45 1129.87,-41.5 1129.87,-48.5"/>
</g>
<!-- 2272686131200 -->
<g id="node13" class="node">
<title>2272686131200</title>
<polygon fill="none" stroke="black" points="1345.5,-90 1232.75,-90 1232.75,-54 1345.5,-54 1345.5,-90"/>
<text text-anchor="middle" x="1289.12" y="-66.97" font-family="Times New Roman,serif" font-size="12.00">Send ticket via SMS</text>
</g>
<!-- 2272686711168&#45;&gt;2272686131200 -->
<g id="edge14" class="edge">
<title>2272686711168&#45;&gt;2272686131200</title>
<path fill="none" stroke="black" d="M1189.77,-49.52C1198.68,-51.56 1209.77,-54.09 1221.27,-56.72"/>
<polygon fill="black" stroke="black" points="1220.35,-60.1 1230.87,-58.91 1221.91,-53.27 1220.35,-60.1"/>
</g>
<!-- 2272686199232 -->
<g id="node14" class="node">
<title>2272686199232</title>
<polygon fill="none" stroke="black" points="1346.25,-36 1232,-36 1232,0 1346.25,0 1346.25,-36"/>
<text text-anchor="middle" x="1289.12" y="-12.97" font-family="Times New Roman,serif" font-size="12.00">Send ticket via email</text>
</g>
<!-- 2272686711168&#45;&gt;2272686199232 -->
<g id="edge15" class="edge">
<title>2272686711168&#45;&gt;2272686199232</title>
<path fill="none" stroke="black" d="M1189.77,-40.48C1198.53,-38.48 1209.4,-35.99 1220.69,-33.41"/>
<polygon fill="black" stroke="black" points="1221.14,-36.9 1230.11,-31.26 1219.58,-30.08 1221.14,-36.9"/>
</g>
<!-- 2272686134176 -->
<g id="node15" class="node">
<title>2272686134176</title>
<polygon fill="none" stroke="black" points="1409.25,-63 1382.25,-45 1409.25,-27 1436.25,-45 1409.25,-63"/>
<text text-anchor="middle" x="1409.25" y="-39.98" font-family="Times New Roman,serif" font-size="12.00">X</text>
</g>
<!-- 2272686131200&#45;&gt;2272686134176 -->
<g id="edge16" class="edge">
<title>2272686131200&#45;&gt;2272686134176</title>
<path fill="none" stroke="black" d="M1345.73,-59.29C1356.62,-56.8 1367.67,-54.28 1377.39,-52.05"/>
<polygon fill="black" stroke="black" points="1378.03,-55.5 1387,-49.86 1376.47,-48.67 1378.03,-55.5"/>
</g>
<!-- 2272686199232&#45;&gt;2272686134176 -->
<g id="edge17" class="edge">
<title>2272686199232&#45;&gt;2272686134176</title>
<path fill="none" stroke="black" d="M1346.42,-30.87C1357.15,-33.32 1368,-35.8 1377.56,-37.98"/>
<polygon fill="black" stroke="black" points="1376.47,-41.33 1386.99,-40.14 1378.03,-34.5 1376.47,-41.33"/>
</g>
<!-- 2272686710640 -->
<g id="node16" class="node">
<title>2272686710640</title>
<polygon fill="none" stroke="black" points="1499.25,-63 1472.25,-45 1499.25,-27 1526.25,-45 1499.25,-63"/>
<text text-anchor="middle" x="1499.25" y="-39.98" font-family="Times New Roman,serif" font-size="12.00">X</text>
</g>
<!-- 2272686134176&#45;&gt;2272686710640 -->
<g id="edge18" class="edge">
<title>2272686134176&#45;&gt;2272686710640</title>
<path fill="none" stroke="black" d="M1437.13,-45C1444.38,-45 1452.37,-45 1460.1,-45"/>
<polygon fill="black" stroke="black" points="1460.02,-48.5 1470.02,-45 1460.02,-41.5 1460.02,-48.5"/>
</g>
<!-- 2272686131872 -->
<g id="node17" class="node">
<title>2272686131872</title>
<polygon fill="none" stroke="black" points="1647.25,-86 1562.25,-86 1562.25,-50 1647.25,-50 1647.25,-86"/>
<text text-anchor="middle" x="1604.75" y="-62.98" font-family="Times New Roman,serif" font-size="12.00">Send reminder</text>
</g>
<!-- 2272686710640&#45;&gt;2272686131872 -->
<g id="edge19" class="edge">
<title>2272686710640&#45;&gt;2272686131872</title>
<path fill="none" stroke="black" d="M1520.21,-49.43C1529.11,-51.41 1540.05,-53.85 1551.06,-56.29"/>
<polygon fill="black" stroke="black" points="1550.01,-59.64 1560.53,-58.4 1551.53,-52.81 1550.01,-59.64"/>
</g>
<!-- 2272686141568 -->
<g id="node18" class="node">
<title>2272686141568</title>
<polygon fill="none" stroke="black" points="1710.25,-63 1683.25,-45 1710.25,-27 1737.25,-45 1710.25,-63"/>
<text text-anchor="middle" x="1710.25" y="-39.98" font-family="Times New Roman,serif" font-size="12.00">X</text>
</g>
<!-- 2272686131872&#45;&gt;2272686141568 -->
<g id="edge20" class="edge">
<title>2272686131872&#45;&gt;2272686141568</title>
<path fill="none" stroke="black" d="M1647.55,-58.71C1657.76,-56.44 1668.51,-54.05 1678.12,-51.92"/>
<polygon fill="black" stroke="black" points="1678.69,-55.38 1687.69,-49.79 1677.17,-48.54 1678.69,-55.38"/>
</g>
<!-- 2272686141568&#45;&gt;2272686710640 -->
<g id="edge21" class="edge">
<title>2272686141568&#45;&gt;2272686710640</title>
<path fill="none" stroke="black" d="M1685.42,-43.1C1673.9,-42.28 1659.86,-41.41 1647.25,-41 1609.49,-39.78 1600.01,-39.78 1562.25,-41 1553.58,-41.28 1544.23,-41.78 1535.5,-42.33"/>
<polygon fill="black" stroke="black" points="1535.33,-38.83 1525.59,-43 1535.8,-45.82 1535.33,-38.83"/>
</g>
<!-- 2272686140176 -->
<g id="node19" class="node">
<title>2272686140176</title>
<polygon fill="none" stroke="black" points="1800.25,-63 1773.25,-45 1800.25,-27 1827.25,-45 1800.25,-63"/>
<text text-anchor="middle" x="1800.25" y="-39.98" font-family="Times New Roman,serif" font-size="12.00">X</text>
</g>
<!-- 2272686141568&#45;&gt;2272686140176 -->
<g id="edge22" class="edge">
<title>2272686141568&#45;&gt;2272686140176</title>
<path fill="none" stroke="black" d="M1738.13,-45C1745.38,-45 1753.37,-45 1761.1,-45"/>
<polygon fill="black" stroke="black" points="1761.02,-48.5 1771.02,-45 1761.02,-41.5 1761.02,-48.5"/>
</g>
<!-- 2272686133648 -->
<g id="node20" class="node">
<title>2272686133648</title>
<polygon fill="none" stroke="black" points="1960.25,-86 1863.25,-86 1863.25,-50 1960.25,-50 1960.25,-86"/>
<text text-anchor="middle" x="1911.75" y="-62.98" font-family="Times New Roman,serif" font-size="12.00">Send instructions</text>
</g>
<!-- 2272686140176&#45;&gt;2272686133648 -->
<g id="edge23" class="edge">
<title>2272686140176&#45;&gt;2272686133648</title>
<path fill="none" stroke="black" d="M1821.59,-49.27C1830.22,-51.08 1840.77,-53.3 1851.55,-55.56"/>
<polygon fill="black" stroke="black" points="1850.81,-58.99 1861.31,-57.62 1852.25,-52.13 1850.81,-58.99"/>
</g>
<!-- 2272686138016 -->
<g id="node21" class="node">
<title>2272686138016</title>
<polygon fill="none" stroke="black" points="2023.25,-63 1996.25,-45 2023.25,-27 2050.25,-45 2023.25,-63"/>
<text text-anchor="middle" x="2023.25" y="-39.98" font-family="Times New Roman,serif" font-size="12.00">X</text>
</g>
<!-- 2272686133648&#45;&gt;2272686138016 -->
<g id="edge24" class="edge">
<title>2272686133648&#45;&gt;2272686138016</title>
<path fill="none" stroke="black" d="M1960.46,-57.98C1970.67,-55.83 1981.22,-53.62 1990.64,-51.64"/>
<polygon fill="black" stroke="black" points="1991.32,-55.07 2000.39,-49.59 1989.88,-48.22 1991.32,-55.07"/>
</g>
<!-- 2272686138016&#45;&gt;2272686140176 -->
<g id="edge25" class="edge">
<title>2272686138016&#45;&gt;2272686140176</title>
<path fill="none" stroke="black" d="M1998.42,-43.1C1986.9,-42.28 1972.86,-41.41 1960.25,-41 1917.16,-39.61 1906.34,-39.61 1863.25,-41 1854.58,-41.28 1845.23,-41.78 1836.5,-42.33"/>
<polygon fill="black" stroke="black" points="1836.33,-38.83 1826.59,-43 1836.8,-45.82 1836.33,-38.83"/>
</g>
<!-- 2272686208016 -->
<g id="node22" class="node">
<title>2272686208016</title>
<polygon fill="none" stroke="black" points="2237.25,-63 2086.25,-63 2086.25,-27 2237.25,-27 2237.25,-63"/>
<text text-anchor="middle" x="2161.75" y="-39.98" font-family="Times New Roman,serif" font-size="12.00">Customer completes journey</text>
</g>
<!-- 2272686138016&#45;&gt;2272686208016 -->
<g id="edge26" class="edge">
<title>2272686138016&#45;&gt;2272686208016</title>
<path fill="none" stroke="black" d="M2050.89,-45C2058.01,-45 2066.11,-45 2074.61,-45"/>
<polygon fill="black" stroke="black" points="2074.44,-48.5 2084.44,-45 2074.44,-41.5 2074.44,-48.5"/>
</g>
<!-- 2272686204944 -->
<g id="node23" class="node">
<title>2272686204944</title>
<polygon fill="none" stroke="black" points="2438.5,-63 2273.25,-63 2273.25,-27 2438.5,-27 2438.5,-63"/>
<text text-anchor="middle" x="2355.88" y="-39.98" font-family="Times New Roman,serif" font-size="12.00">Post&#45;travel feedback or services</text>
</g>
<!-- 2272686208016&#45;&gt;2272686204944 -->
<g id="edge27" class="edge">
<title>2272686208016&#45;&gt;2272686204944</title>
<path fill="none" stroke="black" d="M2237.58,-45C2245.46,-45 2253.54,-45 2261.59,-45"/>
<polygon fill="black" stroke="black" points="2261.42,-48.5 2271.42,-45 2261.42,-41.5 2261.42,-48.5"/>
</g>
<!-- 2272685911232 -->
<g id="node24" class="node">
<title>2272685911232</title>
<ellipse fill="orange" stroke="black" cx="2492.5" cy="-45" rx="18" ry="18"/>
</g>
<!-- 2272686204944&#45;&gt;2272685911232 -->
<g id="edge28" class="edge">
<title>2272686204944&#45;&gt;2272685911232</title>
<path fill="none" stroke="black" d="M2438.68,-45C2447.29,-45 2455.56,-45 2462.9,-45"/>
<polygon fill="black" stroke="black" points="2462.76,-48.5 2472.76,-45 2462.76,-41.5 2462.76,-48.5"/>
</g>
</g>
</svg>
