<?xml version="1.0" encoding="UTF-8" standalone="no"?>
<!DOCTYPE svg PUBLIC "-//W3C//DTD SVG 1.1//EN"
 "http://www.w3.org/Graphics/SVG/1.1/DTD/svg11.dtd">
<!-- Generated by graphviz version 11.0.0 (20240428.1522)
 -->
<!-- Pages: 1 -->
<svg width="2191pt" height="152pt"
 viewBox="0.00 0.00 2191.00 152.00" xmlns="http://www.w3.org/2000/svg" xmlns:xlink="http://www.w3.org/1999/xlink">
<g id="graph0" class="graph" transform="scale(1 1) rotate(0) translate(4 148)">
<polygon fill="white" stroke="none" points="-4,4 -4,-148 2187,-148 2187,4 -4,4"/>
<!-- 2272686209936 -->
<g id="node1" class="node">
<title>2272686209936</title>
<ellipse fill="green" stroke="black" cx="18" cy="-72" rx="18" ry="18"/>
</g>
<!-- 2272686385600 -->
<g id="node2" class="node">
<title>2272686385600</title>
<polygon fill="none" stroke="black" points="221.5,-90 72,-90 72,-54 221.5,-54 221.5,-90"/>
<text text-anchor="middle" x="146.75" y="-66.97" font-family="Times New Roman,serif" font-size="12.00">Customer searches for ticket</text>
</g>
<!-- 2272686209936&#45;&gt;2272686385600 -->
<g id="edge1" class="edge">
<title>2272686209936&#45;&gt;2272686385600</title>
<path fill="none" stroke="black" d="M36.36,-72C43.15,-72 51.48,-72 60.48,-72"/>
<polygon fill="black" stroke="black" points="60.22,-75.5 70.22,-72 60.22,-68.5 60.22,-75.5"/>
</g>
<!-- 2272686195824 -->
<g id="node3" class="node">
<title>2272686195824</title>
<polygon fill="none" stroke="black" points="329,-90 257.5,-90 257.5,-54 329,-54 329,-90"/>
<text text-anchor="middle" x="293.25" y="-66.97" font-family="Times New Roman,serif" font-size="12.00">Select route</text>
</g>
<!-- 2272686385600&#45;&gt;2272686195824 -->
<g id="edge2" class="edge">
<title>2272686385600&#45;&gt;2272686195824</title>
<path fill="none" stroke="black" d="M221.69,-72C229.9,-72 238.08,-72 245.8,-72"/>
<polygon fill="black" stroke="black" points="245.61,-75.5 255.61,-72 245.61,-68.5 245.61,-75.5"/>
</g>
<!-- 2272686375136 -->
<g id="node4" class="node">
<title>2272686375136</title>
<polygon fill="none" stroke="black" points="475.5,-90 365,-90 365,-54 475.5,-54 475.5,-90"/>
<text text-anchor="middle" x="420.25" y="-66.97" font-family="Times New Roman,serif" font-size="12.00">Select date and time</text>
</g>
<!-- 2272686195824&#45;&gt;2272686375136 -->
<g id="edge3" class="edge">
<title>2272686195824&#45;&gt;2272686375136</title>
<path fill="none" stroke="black" d="M329.4,-72C336.95,-72 345.16,-72 353.44,-72"/>
<polygon fill="black" stroke="black" points="353.22,-75.5 363.22,-72 353.22,-68.5 353.22,-75.5"/>
</g>
<!-- 2272686384688 -->
<g id="node5" class="node">
<title>2272686384688</title>
<polygon fill="none" stroke="black" points="664.75,-90 511.5,-90 511.5,-54 664.75,-54 664.75,-90"/>
<text text-anchor="middle" x="588.12" y="-66.97" font-family="Times New Roman,serif" font-size="12.00">Provide personal information</text>
</g>
<!-- 2272686375136&#45;&gt;2272686384688 -->
<g id="edge4" class="edge">
<title>2272686375136&#45;&gt;2272686384688</title>
<path fill="none" stroke="black" d="M475.56,-72C483.36,-72 491.54,-72 499.78,-72"/>
<polygon fill="black" stroke="black" points="499.5,-75.5 509.5,-72 499.5,-68.5 499.5,-75.5"/>
</g>
<!-- 2272686209840 -->
<g id="node6" class="node">
<title>2272686209840</title>
<polygon fill="none" stroke="black" points="830,-90 700.75,-90 700.75,-54 830,-54 830,-90"/>
<text text-anchor="middle" x="765.38" y="-66.97" font-family="Times New Roman,serif" font-size="12.00">Provide payment details</text>
</g>
<!-- 2272686384688&#45;&gt;2272686209840 -->
<g id="edge5" class="edge">
<title>2272686384688&#45;&gt;2272686209840</title>
<path fill="none" stroke="black" d="M665.23,-72C673.11,-72 681.12,-72 688.99,-72"/>
<polygon fill="black" stroke="black" points="688.89,-75.5 698.89,-72 688.89,-68.5 688.89,-75.5"/>
</g>
<!-- 2272686385456 -->
<g id="node7" class="node">
<title>2272686385456</title>
<polygon fill="none" stroke="black" points="953.25,-90 866,-90 866,-54 953.25,-54 953.25,-90"/>
<text text-anchor="middle" x="909.62" y="-66.97" font-family="Times New Roman,serif" font-size="12.00">Generate ticket</text>
</g>
<!-- 2272686209840&#45;&gt;2272686385456 -->
<g id="edge6" class="edge">
<title>2272686209840&#45;&gt;2272686385456</title>
<path fill="none" stroke="black" d="M830.43,-72C838.45,-72 846.6,-72 854.46,-72"/>
<polygon fill="black" stroke="black" points="854.19,-75.5 864.19,-72 854.19,-68.5 854.19,-75.5"/>
</g>
<!-- 2272686386512 -->
<g id="node8" class="node">
<title>2272686386512</title>
<polygon fill="none" stroke="black" points="1016.25,-90 989.25,-72 1016.25,-54 1043.25,-72 1016.25,-90"/>
<text text-anchor="middle" x="1016.25" y="-66.97" font-family="Times New Roman,serif" font-size="12.00">+</text>
</g>
<!-- 2272686385456&#45;&gt;2272686386512 -->
<g id="edge7" class="edge">
<title>2272686385456&#45;&gt;2272686386512</title>
<path fill="none" stroke="black" d="M953.48,-72C961.35,-72 969.52,-72 977.23,-72"/>
<polygon fill="black" stroke="black" points="976.99,-75.5 986.99,-72 976.99,-68.5 976.99,-75.5"/>
</g>
<!-- 2272686390448 -->
<g id="node9" class="node">
<title>2272686390448</title>
<polygon fill="none" stroke="black" points="1195.38,-144 1082.62,-144 1082.62,-108 1195.38,-108 1195.38,-144"/>
<text text-anchor="middle" x="1139" y="-120.97" font-family="Times New Roman,serif" font-size="12.00">Send ticket via SMS</text>
</g>
<!-- 2272686386512&#45;&gt;2272686390448 -->
<g id="edge10" class="edge">
<title>2272686386512&#45;&gt;2272686390448</title>
<path fill="none" stroke="black" d="M1033.04,-79.06C1046.63,-85.14 1067.03,-94.26 1086.25,-102.86"/>
<polygon fill="black" stroke="black" points="1084.81,-106.05 1095.37,-106.94 1087.67,-99.66 1084.81,-106.05"/>
</g>
<!-- 2272686384640 -->
<g id="node10" class="node">
<title>2272686384640</title>
<polygon fill="none" stroke="black" points="1196.12,-90 1081.88,-90 1081.88,-54 1196.12,-54 1196.12,-90"/>
<text text-anchor="middle" x="1139" y="-66.97" font-family="Times New Roman,serif" font-size="12.00">Send ticket via email</text>
</g>
<!-- 2272686386512&#45;&gt;2272686384640 -->
<g id="edge8" class="edge">
<title>2272686386512&#45;&gt;2272686384640</title>
<path fill="none" stroke="black" d="M1044.05,-72C1051.95,-72 1060.98,-72 1070.24,-72"/>
<polygon fill="black" stroke="black" points="1070.09,-75.5 1080.09,-72 1070.09,-68.5 1070.09,-75.5"/>
</g>
<!-- 2272686207296 -->
<g id="node11" class="node">
<title>2272686207296</title>
<polygon fill="none" stroke="black" points="1198.75,-36 1079.25,-36 1079.25,0 1198.75,0 1198.75,-36"/>
<text text-anchor="middle" x="1139" y="-12.97" font-family="Times New Roman,serif" font-size="12.00">Update seat inventory</text>
</g>
<!-- 2272686386512&#45;&gt;2272686207296 -->
<g id="edge9" class="edge">
<title>2272686386512&#45;&gt;2272686207296</title>
<path fill="none" stroke="black" d="M1033.04,-64.94C1046.63,-58.86 1067.03,-49.74 1086.25,-41.14"/>
<polygon fill="black" stroke="black" points="1087.67,-44.34 1095.37,-37.06 1084.81,-37.95 1087.67,-44.34"/>
</g>
<!-- 2272686375424 -->
<g id="node12" class="node">
<title>2272686375424</title>
<polygon fill="none" stroke="black" points="1261.75,-90 1234.75,-72 1261.75,-54 1288.75,-72 1261.75,-90"/>
<text text-anchor="middle" x="1261.75" y="-66.97" font-family="Times New Roman,serif" font-size="12.00">+</text>
</g>
<!-- 2272686390448&#45;&gt;2272686375424 -->
<g id="edge11" class="edge">
<title>2272686390448&#45;&gt;2272686375424</title>
<path fill="none" stroke="black" d="M1181.22,-107.57C1198.81,-99.7 1218.82,-90.75 1234.37,-83.8"/>
<polygon fill="black" stroke="black" points="1235.73,-87.02 1243.43,-79.75 1232.87,-80.63 1235.73,-87.02"/>
</g>
<!-- 2272686384640&#45;&gt;2272686375424 -->
<g id="edge12" class="edge">
<title>2272686384640&#45;&gt;2272686375424</title>
<path fill="none" stroke="black" d="M1196.49,-72C1205.41,-72 1214.46,-72 1222.83,-72"/>
<polygon fill="black" stroke="black" points="1222.62,-75.5 1232.62,-72 1222.62,-68.5 1222.62,-75.5"/>
</g>
<!-- 2272686207296&#45;&gt;2272686375424 -->
<g id="edge13" class="edge">
<title>2272686207296&#45;&gt;2272686375424</title>
<path fill="none" stroke="black" d="M1181.22,-36.43C1198.81,-44.3 1218.82,-53.25 1234.37,-60.2"/>
<polygon fill="black" stroke="black" points="1232.87,-63.37 1243.43,-64.25 1235.73,-56.98 1232.87,-63.37"/>
</g>
<!-- 2272686384496 -->
<g id="node13" class="node">
<title>2272686384496</title>
<polygon fill="none" stroke="black" points="1409.75,-90 1324.75,-90 1324.75,-54 1409.75,-54 1409.75,-90"/>
<text text-anchor="middle" x="1367.25" y="-66.97" font-family="Times New Roman,serif" font-size="12.00">Send reminder</text>
</g>
<!-- 2272686375424&#45;&gt;2272686384496 -->
<g id="edge14" class="edge">
<title>2272686375424&#45;&gt;2272686384496</title>
<path fill="none" stroke="black" d="M1289.4,-72C1296.65,-72 1304.76,-72 1312.93,-72"/>
<polygon fill="black" stroke="black" points="1312.91,-75.5 1322.91,-72 1312.91,-68.5 1312.91,-75.5"/>
</g>
<!-- 2272686386272 -->
<g id="node14" class="node">
<title>2272686386272</title>
<polygon fill="none" stroke="black" points="1542.75,-90 1445.75,-90 1445.75,-54 1542.75,-54 1542.75,-90"/>
<text text-anchor="middle" x="1494.25" y="-66.97" font-family="Times New Roman,serif" font-size="12.00">Send instructions</text>
</g>
<!-- 2272686384496&#45;&gt;2272686386272 -->
<g id="edge15" class="edge">
<title>2272686384496&#45;&gt;2272686386272</title>
<path fill="none" stroke="black" d="M1410.22,-72C1417.93,-72 1426.12,-72 1434.22,-72"/>
<polygon fill="black" stroke="black" points="1434.06,-75.5 1444.06,-72 1434.06,-68.5 1434.06,-75.5"/>
</g>
<!-- 2272686198128 -->
<g id="node15" class="node">
<title>2272686198128</title>
<polygon fill="none" stroke="black" points="1729.75,-90 1578.75,-90 1578.75,-54 1729.75,-54 1729.75,-90"/>
<text text-anchor="middle" x="1654.25" y="-66.97" font-family="Times New Roman,serif" font-size="12.00">Customer completes journey</text>
</g>
<!-- 2272686386272&#45;&gt;2272686198128 -->
<g id="edge16" class="edge">
<title>2272686386272&#45;&gt;2272686198128</title>
<path fill="none" stroke="black" d="M1543.08,-72C1550.76,-72 1558.91,-72 1567.17,-72"/>
<polygon fill="black" stroke="black" points="1566.94,-75.5 1576.94,-72 1566.94,-68.5 1566.94,-75.5"/>
</g>
<!-- 2272686375712 -->
<g id="node16" class="node">
<title>2272686375712</title>
<polygon fill="none" stroke="black" points="1792.75,-90 1765.75,-72 1792.75,-54 1819.75,-72 1792.75,-90"/>
<text text-anchor="middle" x="1792.75" y="-66.97" font-family="Times New Roman,serif" font-size="12.00">X</text>
</g>
<!-- 2272686198128&#45;&gt;2272686375712 -->
<g id="edge17" class="edge">
<title>2272686198128&#45;&gt;2272686375712</title>
<path fill="none" stroke="black" d="M1729.89,-72C1738.04,-72 1746.07,-72 1753.51,-72"/>
<polygon fill="black" stroke="black" points="1753.49,-75.5 1763.49,-72 1753.49,-68.5 1753.49,-75.5"/>
</g>
<!-- 2272686375760 -->
<g id="node17" class="node">
<title>2272686375760</title>
<polygon fill="none" stroke="black" points="2084,-90 2057,-72 2084,-54 2111,-72 2084,-90"/>
<text text-anchor="middle" x="2084" y="-66.97" font-family="Times New Roman,serif" font-size="12.00">X</text>
</g>
<!-- 2272686375712&#45;&gt;2272686375760 -->
<g id="edge19" class="edge">
<title>2272686375712&#45;&gt;2272686375760</title>
<path fill="none" stroke="black" d="M1817.58,-73.9C1829.1,-74.72 1843.14,-75.59 1855.75,-76 1929.16,-78.37 1947.59,-78.37 2021,-76 2029.67,-75.72 2039.02,-75.22 2047.75,-74.67"/>
<polygon fill="black" stroke="black" points="2047.92,-78.17 2057.66,-74 2047.45,-71.18 2047.92,-78.17"/>
</g>
<!-- 2272686384736 -->
<g id="node18" class="node">
<title>2272686384736</title>
<polygon fill="none" stroke="black" points="2021,-67 1855.75,-67 1855.75,-31 2021,-31 2021,-67"/>
<text text-anchor="middle" x="1938.38" y="-43.98" font-family="Times New Roman,serif" font-size="12.00">Post&#45;travel feedback or services</text>
</g>
<!-- 2272686375712&#45;&gt;2272686384736 -->
<g id="edge18" class="edge">
<title>2272686375712&#45;&gt;2272686384736</title>
<path fill="none" stroke="black" d="M1815.25,-68.56C1823.44,-67.25 1833.38,-65.65 1844.02,-63.95"/>
<polygon fill="black" stroke="black" points="1844.5,-67.42 1853.82,-62.38 1843.39,-60.51 1844.5,-67.42"/>
</g>
<!-- 2272686210080 -->
<g id="node19" class="node">
<title>2272686210080</title>
<ellipse fill="orange" stroke="black" cx="2165" cy="-72" rx="18" ry="18"/>
</g>
<!-- 2272686375760&#45;&gt;2272686210080 -->
<g id="edge21" class="edge">
<title>2272686375760&#45;&gt;2272686210080</title>
<path fill="none" stroke="black" d="M2111.75,-72C2119.38,-72 2127.73,-72 2135.47,-72"/>
<polygon fill="black" stroke="black" points="2135.43,-75.5 2145.43,-72 2135.43,-68.5 2135.43,-75.5"/>
</g>
<!-- 2272686384736&#45;&gt;2272686375760 -->
<g id="edge20" class="edge">
<title>2272686384736&#45;&gt;2272686375760</title>
<path fill="none" stroke="black" d="M2021.26,-62.11C2031.48,-63.75 2041.42,-65.34 2050.24,-66.75"/>
<polygon fill="black" stroke="black" points="2049.56,-70.19 2059.98,-68.31 2050.66,-63.28 2049.56,-70.19"/>
</g>
</g>
</svg>
