<?xml version="1.0" encoding="UTF-8" standalone="no"?>
<!DOCTYPE svg PUBLIC "-//W3C//DTD SVG 1.1//EN"
 "http://www.w3.org/Graphics/SVG/1.1/DTD/svg11.dtd">
<!-- Generated by graphviz version 11.0.0 (20240428.1522)
 -->
<!-- Pages: 1 -->
<svg width="2160pt" height="152pt"
 viewBox="0.00 0.00 2159.75 152.00" xmlns="http://www.w3.org/2000/svg" xmlns:xlink="http://www.w3.org/1999/xlink">
<g id="graph0" class="graph" transform="scale(1 1) rotate(0) translate(4 148)">
<polygon fill="white" stroke="none" points="-4,4 -4,-148 2155.75,-148 2155.75,4 -4,4"/>
<!-- 2272685765600 -->
<g id="node1" class="node">
<title>2272685765600</title>
<ellipse fill="green" stroke="black" cx="18" cy="-72" rx="18" ry="18"/>
</g>
<!-- 2272686388816 -->
<g id="node2" class="node">
<title>2272686388816</title>
<polygon fill="none" stroke="black" points="223,-90 72,-90 72,-54 223,-54 223,-90"/>
<text text-anchor="middle" x="147.5" y="-66.97" font-family="Times New Roman,serif" font-size="12.00">Customer completes journey</text>
</g>
<!-- 2272685765600&#45;&gt;2272686388816 -->
<g id="edge1" class="edge">
<title>2272685765600&#45;&gt;2272686388816</title>
<path fill="none" stroke="black" d="M36.46,-72C43.25,-72 51.56,-72 60.54,-72"/>
<polygon fill="black" stroke="black" points="60.25,-75.5 70.25,-72 60.25,-68.5 60.25,-75.5"/>
</g>
<!-- 2272685864768 -->
<g id="node3" class="node">
<title>2272685864768</title>
<polygon fill="none" stroke="black" points="344,-90 259,-90 259,-54 344,-54 344,-90"/>
<text text-anchor="middle" x="301.5" y="-66.97" font-family="Times New Roman,serif" font-size="12.00">Send reminder</text>
</g>
<!-- 2272686388816&#45;&gt;2272685864768 -->
<g id="edge2" class="edge">
<title>2272686388816&#45;&gt;2272685864768</title>
<path fill="none" stroke="black" d="M223.16,-72C231.24,-72 239.34,-72 247.09,-72"/>
<polygon fill="black" stroke="black" points="247.03,-75.5 257.03,-72 247.03,-68.5 247.03,-75.5"/>
</g>
<!-- 2272686388720 -->
<g id="node4" class="node">
<title>2272686388720</title>
<polygon fill="none" stroke="black" points="529.5,-90 380,-90 380,-54 529.5,-54 529.5,-90"/>
<text text-anchor="middle" x="454.75" y="-66.97" font-family="Times New Roman,serif" font-size="12.00">Customer searches for ticket</text>
</g>
<!-- 2272685864768&#45;&gt;2272686388720 -->
<g id="edge3" class="edge">
<title>2272685864768&#45;&gt;2272686388720</title>
<path fill="none" stroke="black" d="M344.23,-72C351.8,-72 359.95,-72 368.26,-72"/>
<polygon fill="black" stroke="black" points="368.14,-75.5 378.14,-72 368.14,-68.5 368.14,-75.5"/>
</g>
<!-- 2272685907200 -->
<g id="node5" class="node">
<title>2272685907200</title>
<polygon fill="none" stroke="black" points="685,-90 565.5,-90 565.5,-54 685,-54 685,-90"/>
<text text-anchor="middle" x="625.25" y="-66.97" font-family="Times New Roman,serif" font-size="12.00">Update seat inventory</text>
</g>
<!-- 2272686388720&#45;&gt;2272685907200 -->
<g id="edge4" class="edge">
<title>2272686388720&#45;&gt;2272685907200</title>
<path fill="none" stroke="black" d="M529.66,-72C537.62,-72 545.7,-72 553.62,-72"/>
<polygon fill="black" stroke="black" points="553.56,-75.5 563.56,-72 553.56,-68.5 553.56,-75.5"/>
</g>
<!-- 2272685857232 -->
<g id="node6" class="node">
<title>2272685857232</title>
<polygon fill="none" stroke="black" points="850.25,-90 721,-90 721,-54 850.25,-54 850.25,-90"/>
<text text-anchor="middle" x="785.62" y="-66.97" font-family="Times New Roman,serif" font-size="12.00">Provide payment details</text>
</g>
<!-- 2272685907200&#45;&gt;2272685857232 -->
<g id="edge5" class="edge">
<title>2272685907200&#45;&gt;2272685857232</title>
<path fill="none" stroke="black" d="M685.22,-72C693.05,-72 701.17,-72 709.23,-72"/>
<polygon fill="black" stroke="black" points="709.04,-75.5 719.04,-72 709.04,-68.5 709.04,-75.5"/>
</g>
<!-- 2272685855552 -->
<g id="node7" class="node">
<title>2272685855552</title>
<polygon fill="none" stroke="black" points="913.25,-90 886.25,-72 913.25,-54 940.25,-72 913.25,-90"/>
<text text-anchor="middle" x="913.25" y="-66.97" font-family="Times New Roman,serif" font-size="12.00">+</text>
</g>
<!-- 2272685857232&#45;&gt;2272685855552 -->
<g id="edge6" class="edge">
<title>2272685857232&#45;&gt;2272685855552</title>
<path fill="none" stroke="black" d="M850.54,-72C858.66,-72 866.75,-72 874.27,-72"/>
<polygon fill="black" stroke="black" points="874.03,-75.5 884.03,-72 874.03,-68.5 874.03,-75.5"/>
</g>
<!-- 2272685862176 -->
<g id="node8" class="node">
<title>2272685862176</title>
<polygon fill="none" stroke="black" points="1114.12,-144 1003.62,-144 1003.62,-108 1114.12,-108 1114.12,-144"/>
<text text-anchor="middle" x="1058.88" y="-120.97" font-family="Times New Roman,serif" font-size="12.00">Select date and time</text>
</g>
<!-- 2272685855552&#45;&gt;2272685862176 -->
<g id="edge9" class="edge">
<title>2272685855552&#45;&gt;2272685862176</title>
<path fill="none" stroke="black" d="M929.89,-79.28C942.32,-84.96 960.24,-92.88 976.25,-99 981.52,-101.01 987.01,-103.02 992.54,-104.98"/>
<polygon fill="black" stroke="black" points="991.16,-108.21 1001.76,-108.18 993.46,-101.59 991.16,-108.21"/>
</g>
<!-- 2272685859296 -->
<g id="node9" class="node">
<title>2272685859296</title>
<polygon fill="none" stroke="black" points="1094.62,-90 1023.12,-90 1023.12,-54 1094.62,-54 1094.62,-90"/>
<text text-anchor="middle" x="1058.88" y="-66.97" font-family="Times New Roman,serif" font-size="12.00">Select route</text>
</g>
<!-- 2272685855552&#45;&gt;2272685859296 -->
<g id="edge8" class="edge">
<title>2272685855552&#45;&gt;2272685859296</title>
<path fill="none" stroke="black" d="M940.93,-72C960.64,-72 987.97,-72 1011.26,-72"/>
<polygon fill="black" stroke="black" points="1011.15,-75.5 1021.15,-72 1011.15,-68.5 1011.15,-75.5"/>
</g>
<!-- 2272685914832 -->
<g id="node10" class="node">
<title>2272685914832</title>
<polygon fill="none" stroke="black" points="1141.5,-36 976.25,-36 976.25,0 1141.5,0 1141.5,-36"/>
<text text-anchor="middle" x="1058.88" y="-12.98" font-family="Times New Roman,serif" font-size="12.00">Post&#45;travel feedback or services</text>
</g>
<!-- 2272685855552&#45;&gt;2272685914832 -->
<g id="edge7" class="edge">
<title>2272685855552&#45;&gt;2272685914832</title>
<path fill="none" stroke="black" d="M929.89,-64.72C942.32,-59.04 960.24,-51.12 976.25,-45 980.56,-43.35 985.03,-41.71 989.54,-40.09"/>
<polygon fill="black" stroke="black" points="990.41,-43.49 998.69,-36.88 988.09,-36.89 990.41,-43.49"/>
</g>
<!-- 2272685863904 -->
<g id="node11" class="node">
<title>2272685863904</title>
<polygon fill="none" stroke="black" points="1204.5,-144 1177.5,-126 1204.5,-108 1231.5,-126 1204.5,-144"/>
<text text-anchor="middle" x="1204.5" y="-120.97" font-family="Times New Roman,serif" font-size="12.00">+</text>
</g>
<!-- 2272685862176&#45;&gt;2272685863904 -->
<g id="edge10" class="edge">
<title>2272685862176&#45;&gt;2272685863904</title>
<path fill="none" stroke="black" d="M1114.58,-126C1131.51,-126 1149.79,-126 1165.34,-126"/>
<polygon fill="black" stroke="black" points="1165.13,-129.5 1175.13,-126 1165.13,-122.5 1165.13,-129.5"/>
</g>
<!-- 2272685861984 -->
<g id="node12" class="node">
<title>2272685861984</title>
<polygon fill="none" stroke="black" points="1204.5,-90 1177.5,-72 1204.5,-54 1231.5,-72 1204.5,-90"/>
<text text-anchor="middle" x="1204.5" y="-66.97" font-family="Times New Roman,serif" font-size="12.00">+</text>
</g>
<!-- 2272685859296&#45;&gt;2272685861984 -->
<g id="edge11" class="edge">
<title>2272685859296&#45;&gt;2272685861984</title>
<path fill="none" stroke="black" d="M1095.01,-72C1116.31,-72 1143.5,-72 1165.33,-72"/>
<polygon fill="black" stroke="black" points="1165.32,-75.5 1175.32,-72 1165.32,-68.5 1165.32,-75.5"/>
</g>
<!-- 2272685911808 -->
<g id="node13" class="node">
<title>2272685911808</title>
<polygon fill="none" stroke="black" points="1204.5,-36 1177.5,-18 1204.5,0 1231.5,-18 1204.5,-36"/>
<text text-anchor="middle" x="1204.5" y="-12.98" font-family="Times New Roman,serif" font-size="12.00">+</text>
</g>
<!-- 2272685914832&#45;&gt;2272685911808 -->
<g id="edge12" class="edge">
<title>2272685914832&#45;&gt;2272685911808</title>
<path fill="none" stroke="black" d="M1141.76,-18C1149.93,-18 1157.92,-18 1165.3,-18"/>
<polygon fill="black" stroke="black" points="1165.18,-21.5 1175.18,-18 1165.18,-14.5 1165.18,-21.5"/>
</g>
<!-- 2272685853824 -->
<g id="node14" class="node">
<title>2272685853824</title>
<polygon fill="none" stroke="black" points="1294.5,-117 1267.5,-99 1294.5,-81 1321.5,-99 1294.5,-117"/>
<text text-anchor="middle" x="1294.5" y="-93.97" font-family="Times New Roman,serif" font-size="12.00">+</text>
</g>
<!-- 2272685863904&#45;&gt;2272685853824 -->
<g id="edge13" class="edge">
<title>2272685863904&#45;&gt;2272685853824</title>
<path fill="none" stroke="black" d="M1223.73,-120.41C1235.53,-116.79 1251.15,-111.99 1264.61,-107.86"/>
<polygon fill="black" stroke="black" points="1265.31,-111.31 1273.84,-105.03 1263.26,-104.62 1265.31,-111.31"/>
</g>
<!-- 2272685904896 -->
<g id="node15" class="node">
<title>2272685904896</title>
<polygon fill="none" stroke="black" points="1294.5,-63 1267.5,-45 1294.5,-27 1321.5,-45 1294.5,-63"/>
<text text-anchor="middle" x="1294.5" y="-39.98" font-family="Times New Roman,serif" font-size="12.00">+</text>
</g>
<!-- 2272685863904&#45;&gt;2272685904896 -->
<g id="edge14" class="edge">
<title>2272685863904&#45;&gt;2272685904896</title>
<path fill="none" stroke="black" d="M1216.65,-115.74C1231.06,-102.47 1256.4,-79.15 1274.03,-62.92"/>
<polygon fill="black" stroke="black" points="1276.34,-65.55 1281.33,-56.2 1271.6,-60.4 1276.34,-65.55"/>
</g>
<!-- 2272685861984&#45;&gt;2272685853824 -->
<g id="edge16" class="edge">
<title>2272685861984&#45;&gt;2272685853824</title>
<path fill="none" stroke="black" d="M1223.73,-77.59C1235.53,-81.21 1251.15,-86.01 1264.61,-90.14"/>
<polygon fill="black" stroke="black" points="1263.26,-93.38 1273.84,-92.97 1265.31,-86.69 1263.26,-93.38"/>
</g>
<!-- 2272685861984&#45;&gt;2272685904896 -->
<g id="edge15" class="edge">
<title>2272685861984&#45;&gt;2272685904896</title>
<path fill="none" stroke="black" d="M1223.73,-66.41C1235.53,-62.79 1251.15,-57.99 1264.61,-53.86"/>
<polygon fill="black" stroke="black" points="1265.31,-57.31 1273.84,-51.03 1263.26,-50.62 1265.31,-57.31"/>
</g>
<!-- 2272685911808&#45;&gt;2272685853824 -->
<g id="edge18" class="edge">
<title>2272685911808&#45;&gt;2272685853824</title>
<path fill="none" stroke="black" d="M1216.65,-28.26C1231.06,-41.53 1256.4,-64.85 1274.03,-81.08"/>
<polygon fill="black" stroke="black" points="1271.6,-83.6 1281.33,-87.8 1276.34,-78.45 1271.6,-83.6"/>
</g>
<!-- 2272685911808&#45;&gt;2272685904896 -->
<g id="edge17" class="edge">
<title>2272685911808&#45;&gt;2272685904896</title>
<path fill="none" stroke="black" d="M1223.73,-23.59C1235.53,-27.21 1251.15,-32.01 1264.61,-36.14"/>
<polygon fill="black" stroke="black" points="1263.26,-39.38 1273.84,-38.97 1265.31,-32.69 1263.26,-39.38"/>
</g>
<!-- 2272685857568 -->
<g id="node16" class="node">
<title>2272685857568</title>
<polygon fill="none" stroke="black" points="1470.25,-117 1357.5,-117 1357.5,-81 1470.25,-81 1470.25,-117"/>
<text text-anchor="middle" x="1413.88" y="-93.97" font-family="Times New Roman,serif" font-size="12.00">Send ticket via SMS</text>
</g>
<!-- 2272685853824&#45;&gt;2272685857568 -->
<g id="edge19" class="edge">
<title>2272685853824&#45;&gt;2272685857568</title>
<path fill="none" stroke="black" d="M1322.13,-99C1329.3,-99 1337.37,-99 1345.69,-99"/>
<polygon fill="black" stroke="black" points="1345.59,-102.5 1355.59,-99 1345.59,-95.5 1345.59,-102.5"/>
</g>
<!-- 2272685797984 -->
<g id="node17" class="node">
<title>2272685797984</title>
<polygon fill="none" stroke="black" points="1462.38,-63 1365.38,-63 1365.38,-27 1462.38,-27 1462.38,-63"/>
<text text-anchor="middle" x="1413.88" y="-39.98" font-family="Times New Roman,serif" font-size="12.00">Send instructions</text>
</g>
<!-- 2272685904896&#45;&gt;2272685797984 -->
<g id="edge20" class="edge">
<title>2272685904896&#45;&gt;2272685797984</title>
<path fill="none" stroke="black" d="M1322.13,-45C1331.57,-45 1342.6,-45 1353.66,-45"/>
<polygon fill="black" stroke="black" points="1353.62,-48.5 1363.62,-45 1353.62,-41.5 1353.62,-48.5"/>
</g>
<!-- 2272685858912 -->
<g id="node18" class="node">
<title>2272685858912</title>
<polygon fill="none" stroke="black" points="1533.25,-90 1506.25,-72 1533.25,-54 1560.25,-72 1533.25,-90"/>
<text text-anchor="middle" x="1533.25" y="-66.97" font-family="Times New Roman,serif" font-size="12.00">+</text>
</g>
<!-- 2272685857568&#45;&gt;2272685858912 -->
<g id="edge21" class="edge">
<title>2272685857568&#45;&gt;2272685858912</title>
<path fill="none" stroke="black" d="M1470.47,-86.21C1481.17,-83.75 1492.01,-81.26 1501.55,-79.06"/>
<polygon fill="black" stroke="black" points="1502.03,-82.54 1510.99,-76.89 1500.46,-75.72 1502.03,-82.54"/>
</g>
<!-- 2272685797984&#45;&gt;2272685858912 -->
<g id="edge22" class="edge">
<title>2272685797984&#45;&gt;2272685858912</title>
<path fill="none" stroke="black" d="M1462.62,-55.98C1475.66,-58.98 1489.45,-62.15 1501.29,-64.88"/>
<polygon fill="black" stroke="black" points="1500.37,-68.26 1510.9,-67.09 1501.94,-61.44 1500.37,-68.26"/>
</g>
<!-- 2272685857184 -->
<g id="node19" class="node">
<title>2272685857184</title>
<polygon fill="none" stroke="black" points="1749.5,-90 1596.25,-90 1596.25,-54 1749.5,-54 1749.5,-90"/>
<text text-anchor="middle" x="1672.88" y="-66.97" font-family="Times New Roman,serif" font-size="12.00">Provide personal information</text>
</g>
<!-- 2272685858912&#45;&gt;2272685857184 -->
<g id="edge23" class="edge">
<title>2272685858912&#45;&gt;2272685857184</title>
<path fill="none" stroke="black" d="M1561.11,-72C1568.18,-72 1576.21,-72 1584.63,-72"/>
<polygon fill="black" stroke="black" points="1584.38,-75.5 1594.38,-72 1584.38,-68.5 1584.38,-75.5"/>
</g>
<!-- 2272686710160 -->
<g id="node20" class="node">
<title>2272686710160</title>
<polygon fill="none" stroke="black" points="1812.5,-90 1785.5,-72 1812.5,-54 1839.5,-72 1812.5,-90"/>
<text text-anchor="middle" x="1812.5" y="-66.97" font-family="Times New Roman,serif" font-size="12.00">X</text>
</g>
<!-- 2272685857184&#45;&gt;2272686710160 -->
<g id="edge24" class="edge">
<title>2272685857184&#45;&gt;2272686710160</title>
<path fill="none" stroke="black" d="M1749.93,-72C1758,-72 1765.92,-72 1773.27,-72"/>
<polygon fill="black" stroke="black" points="1773.11,-75.5 1783.11,-72 1773.11,-68.5 1773.11,-75.5"/>
</g>
<!-- 2272686711504 -->
<g id="node21" class="node">
<title>2272686711504</title>
<polygon fill="none" stroke="black" points="2052.75,-90 2025.75,-72 2052.75,-54 2079.75,-72 2052.75,-90"/>
<text text-anchor="middle" x="2052.75" y="-66.97" font-family="Times New Roman,serif" font-size="12.00">X</text>
</g>
<!-- 2272686710160&#45;&gt;2272686711504 -->
<g id="edge25" class="edge">
<title>2272686710160&#45;&gt;2272686711504</title>
<path fill="none" stroke="black" d="M1837.33,-73.9C1848.85,-74.72 1862.89,-75.59 1875.5,-76 1926.25,-77.64 1939,-77.64 1989.75,-76 1998.42,-75.72 2007.77,-75.22 2016.5,-74.67"/>
<polygon fill="black" stroke="black" points="2016.67,-78.17 2026.41,-74 2016.2,-71.18 2016.67,-78.17"/>
</g>
<!-- 2272685859968 -->
<g id="node22" class="node">
<title>2272685859968</title>
<polygon fill="none" stroke="black" points="1989.75,-67 1875.5,-67 1875.5,-31 1989.75,-31 1989.75,-67"/>
<text text-anchor="middle" x="1932.62" y="-43.98" font-family="Times New Roman,serif" font-size="12.00">Send ticket via email</text>
</g>
<!-- 2272686710160&#45;&gt;2272685859968 -->
<g id="edge26" class="edge">
<title>2272686710160&#45;&gt;2272685859968</title>
<path fill="none" stroke="black" d="M1834.08,-67.99C1842.65,-66.32 1853.15,-64.28 1864.04,-62.16"/>
<polygon fill="black" stroke="black" points="1864.37,-65.66 1873.51,-60.31 1863.03,-58.79 1864.37,-65.66"/>
</g>
<!-- 2272685767376 -->
<g id="node23" class="node">
<title>2272685767376</title>
<ellipse fill="orange" stroke="black" cx="2133.75" cy="-72" rx="18" ry="18"/>
</g>
<!-- 2272686711504&#45;&gt;2272685767376 -->
<g id="edge28" class="edge">
<title>2272686711504&#45;&gt;2272685767376</title>
<path fill="none" stroke="black" d="M2080.5,-72C2088.13,-72 2096.48,-72 2104.22,-72"/>
<polygon fill="black" stroke="black" points="2104.18,-75.5 2114.18,-72 2104.18,-68.5 2104.18,-75.5"/>
</g>
<!-- 2272685859968&#45;&gt;2272686711504 -->
<g id="edge27" class="edge">
<title>2272685859968&#45;&gt;2272686711504</title>
<path fill="none" stroke="black" d="M1989.92,-59.96C2000.28,-61.98 2010.76,-64.02 2020.07,-65.83"/>
<polygon fill="black" stroke="black" points="2019.17,-69.22 2029.65,-67.7 2020.51,-62.35 2019.17,-69.22"/>
</g>
</g>
</svg>
