<?xml version="1.0" encoding="UTF-8" standalone="no"?>
<!DOCTYPE svg PUBLIC "-//W3C//DTD SVG 1.1//EN"
 "http://www.w3.org/Graphics/SVG/1.1/DTD/svg11.dtd">
<!-- Generated by graphviz version 11.0.0 (20240428.1522)
 -->
<!-- Pages: 1 -->
<svg width="2553pt" height="218pt"
 viewBox="0.00 0.00 2553.00 218.00" xmlns="http://www.w3.org/2000/svg" xmlns:xlink="http://www.w3.org/1999/xlink">
<g id="graph0" class="graph" transform="scale(1 1) rotate(0) translate(4 214)">
<polygon fill="white" stroke="none" points="-4,4 -4,-214 2549,-214 2549,4 -4,4"/>
<!-- 2272685265920 -->
<g id="node1" class="node">
<title>2272685265920</title>
<ellipse fill="green" stroke="black" cx="18" cy="-122" rx="18" ry="18"/>
</g>
<!-- 2272685649952 -->
<g id="node2" class="node">
<title>2272685649952</title>
<polygon fill="none" stroke="black" points="223,-140 72,-140 72,-104 223,-104 223,-140"/>
<text text-anchor="middle" x="147.5" y="-116.97" font-family="Times New Roman,serif" font-size="12.00">Customer completes journey</text>
</g>
<!-- 2272685265920&#45;&gt;2272685649952 -->
<g id="edge1" class="edge">
<title>2272685265920&#45;&gt;2272685649952</title>
<path fill="none" stroke="black" d="M36.46,-122C43.25,-122 51.56,-122 60.54,-122"/>
<polygon fill="black" stroke="black" points="60.25,-125.5 70.25,-122 60.25,-118.5 60.25,-125.5"/>
</g>
<!-- 2272685641120 -->
<g id="node3" class="node">
<title>2272685641120</title>
<polygon fill="none" stroke="black" points="344,-140 259,-140 259,-104 344,-104 344,-140"/>
<text text-anchor="middle" x="301.5" y="-116.97" font-family="Times New Roman,serif" font-size="12.00">Send reminder</text>
</g>
<!-- 2272685649952&#45;&gt;2272685641120 -->
<g id="edge2" class="edge">
<title>2272685649952&#45;&gt;2272685641120</title>
<path fill="none" stroke="black" d="M223.16,-122C231.24,-122 239.34,-122 247.09,-122"/>
<polygon fill="black" stroke="black" points="247.03,-125.5 257.03,-122 247.03,-118.5 247.03,-125.5"/>
</g>
<!-- 2272685386656 -->
<g id="node4" class="node">
<title>2272685386656</title>
<polygon fill="none" stroke="black" points="529.5,-140 380,-140 380,-104 529.5,-104 529.5,-140"/>
<text text-anchor="middle" x="454.75" y="-116.97" font-family="Times New Roman,serif" font-size="12.00">Customer searches for ticket</text>
</g>
<!-- 2272685641120&#45;&gt;2272685386656 -->
<g id="edge3" class="edge">
<title>2272685641120&#45;&gt;2272685386656</title>
<path fill="none" stroke="black" d="M344.23,-122C351.8,-122 359.95,-122 368.26,-122"/>
<polygon fill="black" stroke="black" points="368.14,-125.5 378.14,-122 368.14,-118.5 368.14,-125.5"/>
</g>
<!-- 2272685378880 -->
<g id="node5" class="node">
<title>2272685378880</title>
<polygon fill="none" stroke="black" points="685,-140 565.5,-140 565.5,-104 685,-104 685,-140"/>
<text text-anchor="middle" x="625.25" y="-116.97" font-family="Times New Roman,serif" font-size="12.00">Update seat inventory</text>
</g>
<!-- 2272685386656&#45;&gt;2272685378880 -->
<g id="edge4" class="edge">
<title>2272685386656&#45;&gt;2272685378880</title>
<path fill="none" stroke="black" d="M529.66,-122C537.62,-122 545.7,-122 553.62,-122"/>
<polygon fill="black" stroke="black" points="553.56,-125.5 563.56,-122 553.56,-118.5 553.56,-125.5"/>
</g>
<!-- 2272685639776 -->
<g id="node6" class="node">
<title>2272685639776</title>
<polygon fill="none" stroke="black" points="808.25,-140 721,-140 721,-104 808.25,-104 808.25,-140"/>
<text text-anchor="middle" x="764.62" y="-116.97" font-family="Times New Roman,serif" font-size="12.00">Generate ticket</text>
</g>
<!-- 2272685378880&#45;&gt;2272685639776 -->
<g id="edge5" class="edge">
<title>2272685378880&#45;&gt;2272685639776</title>
<path fill="none" stroke="black" d="M685.31,-122C693.32,-122 701.51,-122 709.43,-122"/>
<polygon fill="black" stroke="black" points="709.28,-125.5 719.28,-122 709.28,-118.5 709.28,-125.5"/>
</g>
<!-- 2272685646496 -->
<g id="node7" class="node">
<title>2272685646496</title>
<polygon fill="none" stroke="black" points="871.25,-140 844.25,-122 871.25,-104 898.25,-122 871.25,-140"/>
<text text-anchor="middle" x="871.25" y="-116.97" font-family="Times New Roman,serif" font-size="12.00">+</text>
</g>
<!-- 2272685639776&#45;&gt;2272685646496 -->
<g id="edge6" class="edge">
<title>2272685639776&#45;&gt;2272685646496</title>
<path fill="none" stroke="black" d="M808.48,-122C816.35,-122 824.52,-122 832.23,-122"/>
<polygon fill="black" stroke="black" points="831.99,-125.5 841.99,-122 831.99,-118.5 831.99,-125.5"/>
</g>
<!-- 2272685642704 -->
<g id="node8" class="node">
<title>2272685642704</title>
<polygon fill="none" stroke="black" points="998.88,-86 971.88,-68 998.88,-50 1025.88,-68 998.88,-86"/>
<text text-anchor="middle" x="998.88" y="-62.98" font-family="Times New Roman,serif" font-size="12.00">X</text>
</g>
<!-- 2272685646496&#45;&gt;2272685642704 -->
<g id="edge7" class="edge">
<title>2272685646496&#45;&gt;2272685642704</title>
<path fill="none" stroke="black" d="M888.29,-114.97C900.8,-109.49 918.61,-101.72 934.25,-95 946.32,-89.81 959.71,-84.12 971.07,-79.31"/>
<polygon fill="black" stroke="black" points="972.4,-82.55 980.25,-75.43 969.68,-76.1 972.4,-82.55"/>
</g>
<!-- 2272685638000 -->
<g id="node9" class="node">
<title>2272685638000</title>
<polygon fill="none" stroke="black" points="1054.12,-194 943.62,-194 943.62,-158 1054.12,-158 1054.12,-194"/>
<text text-anchor="middle" x="998.88" y="-170.97" font-family="Times New Roman,serif" font-size="12.00">Select date and time</text>
</g>
<!-- 2272685646496&#45;&gt;2272685638000 -->
<g id="edge8" class="edge">
<title>2272685646496&#45;&gt;2272685638000</title>
<path fill="none" stroke="black" d="M888.29,-129.03C900.8,-134.51 918.61,-142.28 934.25,-149 937.4,-150.35 940.64,-151.74 943.91,-153.14"/>
<polygon fill="black" stroke="black" points="942.42,-156.31 952.99,-157.02 945.17,-149.87 942.42,-156.31"/>
</g>
<!-- 2272685389632 -->
<g id="node10" class="node">
<title>2272685389632</title>
<polygon fill="none" stroke="black" points="1063.5,-140 934.25,-140 934.25,-104 1063.5,-104 1063.5,-140"/>
<text text-anchor="middle" x="998.88" y="-116.97" font-family="Times New Roman,serif" font-size="12.00">Provide payment details</text>
</g>
<!-- 2272685646496&#45;&gt;2272685389632 -->
<g id="edge9" class="edge">
<title>2272685646496&#45;&gt;2272685389632</title>
<path fill="none" stroke="black" d="M898.89,-122C905.97,-122 913.98,-122 922.31,-122"/>
<polygon fill="black" stroke="black" points="922.28,-125.5 932.28,-122 922.28,-118.5 922.28,-125.5"/>
</g>
<!-- 2272685641888 -->
<g id="node12" class="node">
<title>2272685641888</title>
<polygon fill="none" stroke="black" points="1264.75,-90 1099.5,-90 1099.5,-54 1264.75,-54 1264.75,-90"/>
<text text-anchor="middle" x="1182.12" y="-66.97" font-family="Times New Roman,serif" font-size="12.00">Post&#45;travel feedback or services</text>
</g>
<!-- 2272685642704&#45;&gt;2272685641888 -->
<g id="edge11" class="edge">
<title>2272685642704&#45;&gt;2272685641888</title>
<path fill="none" stroke="black" d="M1025.84,-68.57C1042.34,-68.94 1064.8,-69.43 1087.51,-69.93"/>
<polygon fill="black" stroke="black" points="1087.43,-73.43 1097.5,-70.15 1087.58,-66.43 1087.43,-73.43"/>
</g>
<!-- 2272685387856 -->
<g id="node14" class="node">
<title>2272685387856</title>
<polygon fill="none" stroke="black" points="1217.88,-36 1146.38,-36 1146.38,0 1217.88,0 1217.88,-36"/>
<text text-anchor="middle" x="1182.12" y="-12.97" font-family="Times New Roman,serif" font-size="12.00">Select route</text>
</g>
<!-- 2272685642704&#45;&gt;2272685387856 -->
<g id="edge10" class="edge">
<title>2272685642704&#45;&gt;2272685387856</title>
<path fill="none" stroke="black" d="M1018.59,-62.84C1045.92,-55.3 1097.6,-41.04 1135.38,-30.62"/>
<polygon fill="black" stroke="black" points="1135.95,-34.09 1144.66,-28.06 1134.09,-27.35 1135.95,-34.09"/>
</g>
<!-- 2272685642368 -->
<g id="node11" class="node">
<title>2272685642368</title>
<polygon fill="none" stroke="black" points="1417.75,-194 1390.75,-176 1417.75,-158 1444.75,-176 1417.75,-194"/>
<text text-anchor="middle" x="1417.75" y="-170.97" font-family="Times New Roman,serif" font-size="12.00">+</text>
</g>
<!-- 2272685638000&#45;&gt;2272685642368 -->
<g id="edge12" class="edge">
<title>2272685638000&#45;&gt;2272685642368</title>
<path fill="none" stroke="black" d="M1054.37,-176C1140.27,-176 1304.95,-176 1379.02,-176"/>
<polygon fill="black" stroke="black" points="1378.59,-179.5 1388.59,-176 1378.59,-172.5 1378.59,-179.5"/>
</g>
<!-- 2272685379696 -->
<g id="node13" class="node">
<title>2272685379696</title>
<polygon fill="none" stroke="black" points="1417.75,-140 1390.75,-122 1417.75,-104 1444.75,-122 1417.75,-140"/>
<text text-anchor="middle" x="1417.75" y="-116.97" font-family="Times New Roman,serif" font-size="12.00">+</text>
</g>
<!-- 2272685389632&#45;&gt;2272685379696 -->
<g id="edge13" class="edge">
<title>2272685389632&#45;&gt;2272685379696</title>
<path fill="none" stroke="black" d="M1063.64,-122C1151.58,-122 1307.3,-122 1378.86,-122"/>
<polygon fill="black" stroke="black" points="1378.49,-125.5 1388.49,-122 1378.49,-118.5 1378.49,-125.5"/>
</g>
<!-- 2272685642656 -->
<g id="node16" class="node">
<title>2272685642656</title>
<polygon fill="none" stroke="black" points="1507.75,-113 1480.75,-95 1507.75,-77 1534.75,-95 1507.75,-113"/>
<text text-anchor="middle" x="1507.75" y="-89.97" font-family="Times New Roman,serif" font-size="12.00">+</text>
</g>
<!-- 2272685642368&#45;&gt;2272685642656 -->
<g id="edge14" class="edge">
<title>2272685642368&#45;&gt;2272685642656</title>
<path fill="none" stroke="black" d="M1429.9,-165.74C1444.31,-152.47 1469.65,-129.15 1487.28,-112.92"/>
<polygon fill="black" stroke="black" points="1489.59,-115.55 1494.58,-106.2 1484.85,-110.4 1489.59,-115.55"/>
</g>
<!-- 2272685382288 -->
<g id="node17" class="node">
<title>2272685382288</title>
<polygon fill="none" stroke="black" points="1507.75,-167 1480.75,-149 1507.75,-131 1534.75,-149 1507.75,-167"/>
<text text-anchor="middle" x="1507.75" y="-143.97" font-family="Times New Roman,serif" font-size="12.00">+</text>
</g>
<!-- 2272685642368&#45;&gt;2272685382288 -->
<g id="edge15" class="edge">
<title>2272685642368&#45;&gt;2272685382288</title>
<path fill="none" stroke="black" d="M1436.98,-170.41C1448.78,-166.79 1464.4,-161.99 1477.86,-157.86"/>
<polygon fill="black" stroke="black" points="1478.56,-161.31 1487.09,-155.03 1476.51,-154.62 1478.56,-161.31"/>
</g>
<!-- 2272685644384 -->
<g id="node15" class="node">
<title>2272685644384</title>
<polygon fill="none" stroke="black" points="1327.75,-86 1300.75,-68 1327.75,-50 1354.75,-68 1327.75,-86"/>
<text text-anchor="middle" x="1327.75" y="-62.98" font-family="Times New Roman,serif" font-size="12.00">X</text>
</g>
<!-- 2272685641888&#45;&gt;2272685644384 -->
<g id="edge16" class="edge">
<title>2272685641888&#45;&gt;2272685644384</title>
<path fill="none" stroke="black" d="M1265.01,-69.72C1273.61,-69.48 1282.01,-69.25 1289.71,-69.03"/>
<polygon fill="black" stroke="black" points="1289.74,-72.53 1299.64,-68.75 1289.55,-65.53 1289.74,-72.53"/>
</g>
<!-- 2272685379696&#45;&gt;2272685642656 -->
<g id="edge18" class="edge">
<title>2272685379696&#45;&gt;2272685642656</title>
<path fill="none" stroke="black" d="M1436.98,-116.41C1448.78,-112.79 1464.4,-107.99 1477.86,-103.86"/>
<polygon fill="black" stroke="black" points="1478.56,-107.31 1487.09,-101.03 1476.51,-100.62 1478.56,-107.31"/>
</g>
<!-- 2272685379696&#45;&gt;2272685382288 -->
<g id="edge17" class="edge">
<title>2272685379696&#45;&gt;2272685382288</title>
<path fill="none" stroke="black" d="M1436.98,-127.59C1448.78,-131.21 1464.4,-136.01 1477.86,-140.14"/>
<polygon fill="black" stroke="black" points="1476.51,-143.38 1487.09,-142.97 1478.56,-136.69 1476.51,-143.38"/>
</g>
<!-- 2272685387856&#45;&gt;2272685644384 -->
<g id="edge19" class="edge">
<title>2272685387856&#45;&gt;2272685644384</title>
<path fill="none" stroke="black" d="M1218.17,-29.29C1232.63,-34.03 1249.54,-39.66 1264.75,-45 1276.09,-48.98 1288.52,-53.55 1299.25,-57.56"/>
<polygon fill="black" stroke="black" points="1297.7,-60.71 1308.29,-60.96 1300.16,-54.16 1297.7,-60.71"/>
</g>
<!-- 2272685646928 -->
<g id="node20" class="node">
<title>2272685646928</title>
<polygon fill="none" stroke="black" points="1417.75,-86 1390.75,-68 1417.75,-50 1444.75,-68 1417.75,-86"/>
<text text-anchor="middle" x="1417.75" y="-62.98" font-family="Times New Roman,serif" font-size="12.00">+</text>
</g>
<!-- 2272685644384&#45;&gt;2272685646928 -->
<g id="edge20" class="edge">
<title>2272685644384&#45;&gt;2272685646928</title>
<path fill="none" stroke="black" d="M1355.63,-68C1362.88,-68 1370.87,-68 1378.6,-68"/>
<polygon fill="black" stroke="black" points="1378.52,-71.5 1388.52,-68 1378.52,-64.5 1378.52,-71.5"/>
</g>
<!-- 2272685649520 -->
<g id="node19" class="node">
<title>2272685649520</title>
<polygon fill="none" stroke="black" points="1597.75,-113 1570.75,-95 1597.75,-77 1624.75,-95 1597.75,-113"/>
<text text-anchor="middle" x="1597.75" y="-89.97" font-family="Times New Roman,serif" font-size="12.00">X</text>
</g>
<!-- 2272685642656&#45;&gt;2272685649520 -->
<g id="edge21" class="edge">
<title>2272685642656&#45;&gt;2272685649520</title>
<path fill="none" stroke="black" d="M1535.63,-95C1542.88,-95 1550.87,-95 1558.6,-95"/>
<polygon fill="black" stroke="black" points="1558.52,-98.5 1568.52,-95 1558.52,-91.5 1558.52,-98.5"/>
</g>
<!-- 2272685643088 -->
<g id="node18" class="node">
<title>2272685643088</title>
<polygon fill="none" stroke="black" points="1597.75,-167 1570.75,-149 1597.75,-131 1624.75,-149 1597.75,-167"/>
<text text-anchor="middle" x="1597.75" y="-143.97" font-family="Times New Roman,serif" font-size="12.00">X</text>
</g>
<!-- 2272685382288&#45;&gt;2272685643088 -->
<g id="edge22" class="edge">
<title>2272685382288&#45;&gt;2272685643088</title>
<path fill="none" stroke="black" d="M1535.63,-149C1542.88,-149 1550.87,-149 1558.6,-149"/>
<polygon fill="black" stroke="black" points="1558.52,-152.5 1568.52,-149 1558.52,-145.5 1558.52,-152.5"/>
</g>
<!-- 2272685648320 -->
<g id="node21" class="node">
<title>2272685648320</title>
<polygon fill="none" stroke="black" points="1773.5,-210 1660.75,-210 1660.75,-174 1773.5,-174 1773.5,-210"/>
<text text-anchor="middle" x="1717.12" y="-186.97" font-family="Times New Roman,serif" font-size="12.00">Send ticket via SMS</text>
</g>
<!-- 2272685643088&#45;&gt;2272685648320 -->
<g id="edge25" class="edge">
<title>2272685643088&#45;&gt;2272685648320</title>
<path fill="none" stroke="black" d="M1616.07,-155.34C1626.64,-159.22 1640.85,-164.42 1655.24,-169.7"/>
<polygon fill="black" stroke="black" points="1653.69,-172.85 1664.28,-173.01 1656.1,-166.28 1653.69,-172.85"/>
</g>
<!-- 2272685390640 -->
<g id="node22" class="node">
<title>2272685390640</title>
<polygon fill="none" stroke="black" points="1765.62,-116 1668.62,-116 1668.62,-80 1765.62,-80 1765.62,-116"/>
<text text-anchor="middle" x="1717.12" y="-92.97" font-family="Times New Roman,serif" font-size="12.00">Send instructions</text>
</g>
<!-- 2272685649520&#45;&gt;2272685390640 -->
<g id="edge26" class="edge">
<title>2272685649520&#45;&gt;2272685390640</title>
<path fill="none" stroke="black" d="M1624.51,-95.66C1634.12,-95.9 1645.49,-96.19 1656.87,-96.49"/>
<polygon fill="black" stroke="black" points="1656.61,-99.98 1666.7,-96.74 1656.79,-92.98 1656.61,-99.98"/>
</g>
<!-- 2272685646928&#45;&gt;2272685642656 -->
<g id="edge23" class="edge">
<title>2272685646928&#45;&gt;2272685642656</title>
<path fill="none" stroke="black" d="M1436.98,-73.59C1448.78,-77.21 1464.4,-82.01 1477.86,-86.14"/>
<polygon fill="black" stroke="black" points="1476.51,-89.38 1487.09,-88.97 1478.56,-82.69 1476.51,-89.38"/>
</g>
<!-- 2272685646928&#45;&gt;2272685382288 -->
<g id="edge24" class="edge">
<title>2272685646928&#45;&gt;2272685382288</title>
<path fill="none" stroke="black" d="M1429.9,-78.26C1444.31,-91.53 1469.65,-114.85 1487.28,-131.08"/>
<polygon fill="black" stroke="black" points="1484.85,-133.6 1494.58,-137.8 1489.59,-128.45 1484.85,-133.6"/>
</g>
<!-- 2272685641936 -->
<g id="node23" class="node">
<title>2272685641936</title>
<polygon fill="none" stroke="black" points="1836.5,-168 1809.5,-150 1836.5,-132 1863.5,-150 1836.5,-168"/>
<text text-anchor="middle" x="1836.5" y="-144.97" font-family="Times New Roman,serif" font-size="12.00">X</text>
</g>
<!-- 2272685648320&#45;&gt;2272685641936 -->
<g id="edge27" class="edge">
<title>2272685648320&#45;&gt;2272685641936</title>
<path fill="none" stroke="black" d="M1769.61,-173.58C1782.63,-168.92 1796.14,-164.08 1807.51,-160.01"/>
<polygon fill="black" stroke="black" points="1808.41,-163.41 1816.65,-156.75 1806.05,-156.82 1808.41,-163.41"/>
</g>
<!-- 2272685646832 -->
<g id="node24" class="node">
<title>2272685646832</title>
<polygon fill="none" stroke="black" points="1836.5,-114 1809.5,-96 1836.5,-78 1863.5,-96 1836.5,-114"/>
<text text-anchor="middle" x="1836.5" y="-90.97" font-family="Times New Roman,serif" font-size="12.00">X</text>
</g>
<!-- 2272685390640&#45;&gt;2272685646832 -->
<g id="edge28" class="edge">
<title>2272685390640&#45;&gt;2272685646832</title>
<path fill="none" stroke="black" d="M1765.87,-97.19C1776.54,-97 1787.72,-96.81 1797.91,-96.64"/>
<polygon fill="black" stroke="black" points="1797.89,-100.14 1807.83,-96.47 1797.77,-93.14 1797.89,-100.14"/>
</g>
<!-- 2272685641936&#45;&gt;2272685643088 -->
<g id="edge29" class="edge">
<title>2272685641936&#45;&gt;2272685643088</title>
<path fill="none" stroke="black" d="M1808.9,-149.89C1766.93,-149.71 1685.18,-149.37 1636.94,-149.16"/>
<polygon fill="black" stroke="black" points="1636.98,-145.66 1626.96,-149.12 1636.95,-152.66 1636.98,-145.66"/>
</g>
<!-- 2272685382672 -->
<g id="node25" class="node">
<title>2272685382672</title>
<polygon fill="none" stroke="black" points="1926.5,-141 1899.5,-123 1926.5,-105 1953.5,-123 1926.5,-141"/>
<text text-anchor="middle" x="1926.5" y="-117.97" font-family="Times New Roman,serif" font-size="12.00">+</text>
</g>
<!-- 2272685641936&#45;&gt;2272685382672 -->
<g id="edge31" class="edge">
<title>2272685641936&#45;&gt;2272685382672</title>
<path fill="none" stroke="black" d="M1855.73,-144.41C1867.53,-140.79 1883.15,-135.99 1896.61,-131.86"/>
<polygon fill="black" stroke="black" points="1897.31,-135.31 1905.84,-129.03 1895.26,-128.62 1897.31,-135.31"/>
</g>
<!-- 2272685646832&#45;&gt;2272685649520 -->
<g id="edge30" class="edge">
<title>2272685646832&#45;&gt;2272685649520</title>
<path fill="none" stroke="black" d="M1820.71,-88.15C1808.45,-82.12 1790.36,-74.27 1773.5,-71 1724.31,-61.46 1710.01,-61.8 1660.75,-71 1648.24,-73.34 1635.01,-78.11 1623.99,-82.79"/>
<polygon fill="black" stroke="black" points="1622.9,-79.44 1615.21,-86.73 1625.77,-85.83 1622.9,-79.44"/>
</g>
<!-- 2272685646832&#45;&gt;2272685382672 -->
<g id="edge32" class="edge">
<title>2272685646832&#45;&gt;2272685382672</title>
<path fill="none" stroke="black" d="M1855.73,-101.59C1867.53,-105.21 1883.15,-110.01 1896.61,-114.14"/>
<polygon fill="black" stroke="black" points="1895.26,-117.38 1905.84,-116.97 1897.31,-110.69 1895.26,-117.38"/>
</g>
<!-- 2272685387904 -->
<g id="node26" class="node">
<title>2272685387904</title>
<polygon fill="none" stroke="black" points="2142.75,-141 1989.5,-141 1989.5,-105 2142.75,-105 2142.75,-141"/>
<text text-anchor="middle" x="2066.12" y="-117.97" font-family="Times New Roman,serif" font-size="12.00">Provide personal information</text>
</g>
<!-- 2272685382672&#45;&gt;2272685387904 -->
<g id="edge33" class="edge">
<title>2272685382672&#45;&gt;2272685387904</title>
<path fill="none" stroke="black" d="M1954.36,-123C1961.43,-123 1969.46,-123 1977.88,-123"/>
<polygon fill="black" stroke="black" points="1977.63,-126.5 1987.63,-123 1977.63,-119.5 1977.63,-126.5"/>
</g>
<!-- 2272685645440 -->
<g id="node27" class="node">
<title>2272685645440</title>
<polygon fill="none" stroke="black" points="2205.75,-141 2178.75,-123 2205.75,-105 2232.75,-123 2205.75,-141"/>
<text text-anchor="middle" x="2205.75" y="-117.97" font-family="Times New Roman,serif" font-size="12.00">X</text>
</g>
<!-- 2272685387904&#45;&gt;2272685645440 -->
<g id="edge34" class="edge">
<title>2272685387904&#45;&gt;2272685645440</title>
<path fill="none" stroke="black" d="M2143.18,-123C2151.25,-123 2159.17,-123 2166.52,-123"/>
<polygon fill="black" stroke="black" points="2166.36,-126.5 2176.36,-123 2166.36,-119.5 2166.36,-126.5"/>
</g>
<!-- 2272685644864 -->
<g id="node28" class="node">
<title>2272685644864</title>
<polygon fill="none" stroke="black" points="2446,-141 2419,-123 2446,-105 2473,-123 2446,-141"/>
<text text-anchor="middle" x="2446" y="-117.97" font-family="Times New Roman,serif" font-size="12.00">X</text>
</g>
<!-- 2272685645440&#45;&gt;2272685644864 -->
<g id="edge35" class="edge">
<title>2272685645440&#45;&gt;2272685644864</title>
<path fill="none" stroke="black" d="M2230.58,-124.9C2242.1,-125.72 2256.14,-126.59 2268.75,-127 2319.5,-128.64 2332.25,-128.64 2383,-127 2391.67,-126.72 2401.02,-126.22 2409.75,-125.67"/>
<polygon fill="black" stroke="black" points="2409.92,-129.17 2419.66,-125 2409.45,-122.18 2409.92,-129.17"/>
</g>
<!-- 2272685645344 -->
<g id="node29" class="node">
<title>2272685645344</title>
<polygon fill="none" stroke="black" points="2383,-118 2268.75,-118 2268.75,-82 2383,-82 2383,-118"/>
<text text-anchor="middle" x="2325.88" y="-94.97" font-family="Times New Roman,serif" font-size="12.00">Send ticket via email</text>
</g>
<!-- 2272685645440&#45;&gt;2272685645344 -->
<g id="edge36" class="edge">
<title>2272685645440&#45;&gt;2272685645344</title>
<path fill="none" stroke="black" d="M2227.33,-118.99C2235.9,-117.32 2246.4,-115.28 2257.29,-113.16"/>
<polygon fill="black" stroke="black" points="2257.62,-116.66 2266.76,-111.31 2256.28,-109.79 2257.62,-116.66"/>
</g>
<!-- 2272685268848 -->
<g id="node30" class="node">
<title>2272685268848</title>
<ellipse fill="orange" stroke="black" cx="2527" cy="-123" rx="18" ry="18"/>
</g>
<!-- 2272685644864&#45;&gt;2272685268848 -->
<g id="edge38" class="edge">
<title>2272685644864&#45;&gt;2272685268848</title>
<path fill="none" stroke="black" d="M2473.75,-123C2481.38,-123 2489.73,-123 2497.47,-123"/>
<polygon fill="black" stroke="black" points="2497.43,-126.5 2507.43,-123 2497.43,-119.5 2497.43,-126.5"/>
</g>
<!-- 2272685645344&#45;&gt;2272685644864 -->
<g id="edge37" class="edge">
<title>2272685645344&#45;&gt;2272685644864</title>
<path fill="none" stroke="black" d="M2383.17,-110.96C2393.53,-112.98 2404.01,-115.02 2413.32,-116.83"/>
<polygon fill="black" stroke="black" points="2412.42,-120.22 2422.9,-118.7 2413.76,-113.35 2412.42,-120.22"/>
</g>
</g>
</svg>
