<?xml version="1.0" encoding="UTF-8" standalone="no"?>
<!DOCTYPE svg PUBLIC "-//W3C//DTD SVG 1.1//EN"
 "http://www.w3.org/Graphics/SVG/1.1/DTD/svg11.dtd">
<!-- Generated by graphviz version 11.0.0 (20240428.1522)
 -->
<!-- Pages: 1 -->
<svg width="2283pt" height="152pt"
 viewBox="0.00 0.00 2283.00 152.00" xmlns="http://www.w3.org/2000/svg" xmlns:xlink="http://www.w3.org/1999/xlink">
<g id="graph0" class="graph" transform="scale(1 1) rotate(0) translate(4 148)">
<polygon fill="white" stroke="none" points="-4,4 -4,-148 2279,-148 2279,4 -4,4"/>
<!-- 2272686714624 -->
<g id="node1" class="node">
<title>2272686714624</title>
<ellipse fill="green" stroke="black" cx="18" cy="-72" rx="18" ry="18"/>
</g>
<!-- 2272685640016 -->
<g id="node2" class="node">
<title>2272685640016</title>
<polygon fill="none" stroke="black" points="223,-90 72,-90 72,-54 223,-54 223,-90"/>
<text text-anchor="middle" x="147.5" y="-66.97" font-family="Times New Roman,serif" font-size="12.00">Customer completes journey</text>
</g>
<!-- 2272686714624&#45;&gt;2272685640016 -->
<g id="edge1" class="edge">
<title>2272686714624&#45;&gt;2272685640016</title>
<path fill="none" stroke="black" d="M36.46,-72C43.25,-72 51.56,-72 60.54,-72"/>
<polygon fill="black" stroke="black" points="60.25,-75.5 70.25,-72 60.25,-68.5 60.25,-75.5"/>
</g>
<!-- 2272685640688 -->
<g id="node3" class="node">
<title>2272685640688</title>
<polygon fill="none" stroke="black" points="344,-90 259,-90 259,-54 344,-54 344,-90"/>
<text text-anchor="middle" x="301.5" y="-66.97" font-family="Times New Roman,serif" font-size="12.00">Send reminder</text>
</g>
<!-- 2272685640016&#45;&gt;2272685640688 -->
<g id="edge2" class="edge">
<title>2272685640016&#45;&gt;2272685640688</title>
<path fill="none" stroke="black" d="M223.16,-72C231.24,-72 239.34,-72 247.09,-72"/>
<polygon fill="black" stroke="black" points="247.03,-75.5 257.03,-72 247.03,-68.5 247.03,-75.5"/>
</g>
<!-- 2272685643040 -->
<g id="node4" class="node">
<title>2272685643040</title>
<polygon fill="none" stroke="black" points="529.5,-90 380,-90 380,-54 529.5,-54 529.5,-90"/>
<text text-anchor="middle" x="454.75" y="-66.97" font-family="Times New Roman,serif" font-size="12.00">Customer searches for ticket</text>
</g>
<!-- 2272685640688&#45;&gt;2272685643040 -->
<g id="edge3" class="edge">
<title>2272685640688&#45;&gt;2272685643040</title>
<path fill="none" stroke="black" d="M344.23,-72C351.8,-72 359.95,-72 368.26,-72"/>
<polygon fill="black" stroke="black" points="368.14,-75.5 378.14,-72 368.14,-68.5 368.14,-75.5"/>
</g>
<!-- 2272685640880 -->
<g id="node5" class="node">
<title>2272685640880</title>
<polygon fill="none" stroke="black" points="685,-90 565.5,-90 565.5,-54 685,-54 685,-90"/>
<text text-anchor="middle" x="625.25" y="-66.97" font-family="Times New Roman,serif" font-size="12.00">Update seat inventory</text>
</g>
<!-- 2272685643040&#45;&gt;2272685640880 -->
<g id="edge4" class="edge">
<title>2272685643040&#45;&gt;2272685640880</title>
<path fill="none" stroke="black" d="M529.66,-72C537.62,-72 545.7,-72 553.62,-72"/>
<polygon fill="black" stroke="black" points="553.56,-75.5 563.56,-72 553.56,-68.5 553.56,-75.5"/>
</g>
<!-- 2272685643904 -->
<g id="node6" class="node">
<title>2272685643904</title>
<polygon fill="none" stroke="black" points="850.25,-90 721,-90 721,-54 850.25,-54 850.25,-90"/>
<text text-anchor="middle" x="785.62" y="-66.97" font-family="Times New Roman,serif" font-size="12.00">Provide payment details</text>
</g>
<!-- 2272685640880&#45;&gt;2272685643904 -->
<g id="edge5" class="edge">
<title>2272685640880&#45;&gt;2272685643904</title>
<path fill="none" stroke="black" d="M685.22,-72C693.05,-72 701.17,-72 709.23,-72"/>
<polygon fill="black" stroke="black" points="709.04,-75.5 719.04,-72 709.04,-68.5 709.04,-75.5"/>
</g>
<!-- 2272685644528 -->
<g id="node7" class="node">
<title>2272685644528</title>
<polygon fill="none" stroke="black" points="913.25,-90 886.25,-72 913.25,-54 940.25,-72 913.25,-90"/>
<text text-anchor="middle" x="913.25" y="-66.97" font-family="Times New Roman,serif" font-size="12.00">+</text>
</g>
<!-- 2272685643904&#45;&gt;2272685644528 -->
<g id="edge6" class="edge">
<title>2272685643904&#45;&gt;2272685644528</title>
<path fill="none" stroke="black" d="M850.54,-72C858.66,-72 866.75,-72 874.27,-72"/>
<polygon fill="black" stroke="black" points="874.03,-75.5 884.03,-72 874.03,-68.5 874.03,-75.5"/>
</g>
<!-- 2272685649088 -->
<g id="node8" class="node">
<title>2272685649088</title>
<polygon fill="none" stroke="black" points="1141.5,-144 976.25,-144 976.25,-108 1141.5,-108 1141.5,-144"/>
<text text-anchor="middle" x="1058.88" y="-120.97" font-family="Times New Roman,serif" font-size="12.00">Post&#45;travel feedback or services</text>
</g>
<!-- 2272685644528&#45;&gt;2272685649088 -->
<g id="edge7" class="edge">
<title>2272685644528&#45;&gt;2272685649088</title>
<path fill="none" stroke="black" d="M929.89,-79.28C942.32,-84.96 960.24,-92.88 976.25,-99 980.56,-100.65 985.03,-102.29 989.54,-103.91"/>
<polygon fill="black" stroke="black" points="988.09,-107.11 998.69,-107.12 990.41,-100.51 988.09,-107.11"/>
</g>
<!-- 2272685640832 -->
<g id="node9" class="node">
<title>2272685640832</title>
<polygon fill="none" stroke="black" points="1094.62,-90 1023.12,-90 1023.12,-54 1094.62,-54 1094.62,-90"/>
<text text-anchor="middle" x="1058.88" y="-66.97" font-family="Times New Roman,serif" font-size="12.00">Select route</text>
</g>
<!-- 2272685644528&#45;&gt;2272685640832 -->
<g id="edge9" class="edge">
<title>2272685644528&#45;&gt;2272685640832</title>
<path fill="none" stroke="black" d="M940.93,-72C960.64,-72 987.97,-72 1011.26,-72"/>
<polygon fill="black" stroke="black" points="1011.15,-75.5 1021.15,-72 1011.15,-68.5 1011.15,-75.5"/>
</g>
<!-- 2272685646256 -->
<g id="node10" class="node">
<title>2272685646256</title>
<polygon fill="none" stroke="black" points="1114.12,-36 1003.62,-36 1003.62,0 1114.12,0 1114.12,-36"/>
<text text-anchor="middle" x="1058.88" y="-12.97" font-family="Times New Roman,serif" font-size="12.00">Select date and time</text>
</g>
<!-- 2272685644528&#45;&gt;2272685646256 -->
<g id="edge8" class="edge">
<title>2272685644528&#45;&gt;2272685646256</title>
<path fill="none" stroke="black" d="M929.89,-64.72C942.32,-59.04 960.24,-51.12 976.25,-45 981.52,-42.99 987.01,-40.98 992.54,-39.02"/>
<polygon fill="black" stroke="black" points="993.46,-42.41 1001.76,-35.82 991.16,-35.79 993.46,-42.41"/>
</g>
<!-- 2272685638960 -->
<g id="node11" class="node">
<title>2272685638960</title>
<polygon fill="none" stroke="black" points="1204.5,-90 1177.5,-72 1204.5,-54 1231.5,-72 1204.5,-90"/>
<text text-anchor="middle" x="1204.5" y="-66.97" font-family="Times New Roman,serif" font-size="12.00">+</text>
</g>
<!-- 2272685649088&#45;&gt;2272685638960 -->
<g id="edge10" class="edge">
<title>2272685649088&#45;&gt;2272685638960</title>
<path fill="none" stroke="black" d="M1117.63,-107.62C1125.69,-104.85 1133.83,-101.93 1141.5,-99 1153.51,-94.41 1166.59,-88.81 1177.62,-83.9"/>
<polygon fill="black" stroke="black" points="1178.81,-87.2 1186.48,-79.9 1175.93,-80.82 1178.81,-87.2"/>
</g>
<!-- 2272685640832&#45;&gt;2272685638960 -->
<g id="edge11" class="edge">
<title>2272685640832&#45;&gt;2272685638960</title>
<path fill="none" stroke="black" d="M1095.01,-72C1116.31,-72 1143.5,-72 1165.33,-72"/>
<polygon fill="black" stroke="black" points="1165.32,-75.5 1175.32,-72 1165.32,-68.5 1165.32,-75.5"/>
</g>
<!-- 2272685646256&#45;&gt;2272685638960 -->
<g id="edge12" class="edge">
<title>2272685646256&#45;&gt;2272685638960</title>
<path fill="none" stroke="black" d="M1114.56,-35.32C1123.61,-38.41 1132.86,-41.7 1141.5,-45 1153.51,-49.59 1166.59,-55.19 1177.62,-60.1"/>
<polygon fill="black" stroke="black" points="1175.93,-63.18 1186.48,-64.1 1178.81,-56.8 1175.93,-63.18"/>
</g>
<!-- 2272685645584 -->
<g id="node12" class="node">
<title>2272685645584</title>
<polygon fill="none" stroke="black" points="1354.75,-90 1267.5,-90 1267.5,-54 1354.75,-54 1354.75,-90"/>
<text text-anchor="middle" x="1311.12" y="-66.97" font-family="Times New Roman,serif" font-size="12.00">Generate ticket</text>
</g>
<!-- 2272685638960&#45;&gt;2272685645584 -->
<g id="edge13" class="edge">
<title>2272685638960&#45;&gt;2272685645584</title>
<path fill="none" stroke="black" d="M1232.17,-72C1239.5,-72 1247.71,-72 1255.99,-72"/>
<polygon fill="black" stroke="black" points="1255.73,-75.5 1265.73,-72 1255.73,-68.5 1255.73,-75.5"/>
</g>
<!-- 2272685640640 -->
<g id="node13" class="node">
<title>2272685640640</title>
<polygon fill="none" stroke="black" points="1417.75,-90 1390.75,-72 1417.75,-54 1444.75,-72 1417.75,-90"/>
<text text-anchor="middle" x="1417.75" y="-66.97" font-family="Times New Roman,serif" font-size="12.00">+</text>
</g>
<!-- 2272685645584&#45;&gt;2272685640640 -->
<g id="edge14" class="edge">
<title>2272685645584&#45;&gt;2272685640640</title>
<path fill="none" stroke="black" d="M1354.98,-72C1362.85,-72 1371.02,-72 1378.73,-72"/>
<polygon fill="black" stroke="black" points="1378.49,-75.5 1388.49,-72 1378.49,-68.5 1378.49,-75.5"/>
</g>
<!-- 2272685645248 -->
<g id="node14" class="node">
<title>2272685645248</title>
<polygon fill="none" stroke="black" points="1585.62,-117 1488.62,-117 1488.62,-81 1585.62,-81 1585.62,-117"/>
<text text-anchor="middle" x="1537.12" y="-93.97" font-family="Times New Roman,serif" font-size="12.00">Send instructions</text>
</g>
<!-- 2272685640640&#45;&gt;2272685645248 -->
<g id="edge16" class="edge">
<title>2272685640640&#45;&gt;2272685645248</title>
<path fill="none" stroke="black" d="M1438.66,-76.58C1449.4,-79.05 1463.26,-82.24 1477.15,-85.43"/>
<polygon fill="black" stroke="black" points="1476.23,-88.81 1486.76,-87.64 1477.8,-81.99 1476.23,-88.81"/>
</g>
<!-- 2272685644576 -->
<g id="node15" class="node">
<title>2272685644576</title>
<polygon fill="none" stroke="black" points="1593.5,-63 1480.75,-63 1480.75,-27 1593.5,-27 1593.5,-63"/>
<text text-anchor="middle" x="1537.12" y="-39.98" font-family="Times New Roman,serif" font-size="12.00">Send ticket via SMS</text>
</g>
<!-- 2272685640640&#45;&gt;2272685644576 -->
<g id="edge15" class="edge">
<title>2272685640640&#45;&gt;2272685644576</title>
<path fill="none" stroke="black" d="M1438.66,-67.42C1447.34,-65.42 1458.08,-62.95 1469.21,-60.39"/>
<polygon fill="black" stroke="black" points="1469.98,-63.81 1478.94,-58.15 1468.41,-56.98 1469.98,-63.81"/>
</g>
<!-- 2272685640400 -->
<g id="node16" class="node">
<title>2272685640400</title>
<polygon fill="none" stroke="black" points="1656.5,-90 1629.5,-72 1656.5,-54 1683.5,-72 1656.5,-90"/>
<text text-anchor="middle" x="1656.5" y="-66.97" font-family="Times New Roman,serif" font-size="12.00">+</text>
</g>
<!-- 2272685645248&#45;&gt;2272685640400 -->
<g id="edge17" class="edge">
<title>2272685645248&#45;&gt;2272685640400</title>
<path fill="none" stroke="black" d="M1585.87,-88.02C1598.91,-85.02 1612.7,-81.85 1624.54,-79.12"/>
<polygon fill="black" stroke="black" points="1625.19,-82.56 1634.15,-76.91 1623.62,-75.74 1625.19,-82.56"/>
</g>
<!-- 2272685644576&#45;&gt;2272685640400 -->
<g id="edge18" class="edge">
<title>2272685644576&#45;&gt;2272685640400</title>
<path fill="none" stroke="black" d="M1593.72,-57.79C1604.42,-60.25 1615.26,-62.74 1624.8,-64.94"/>
<polygon fill="black" stroke="black" points="1623.71,-68.28 1634.24,-67.11 1625.28,-61.46 1623.71,-68.28"/>
</g>
<!-- 2272685643136 -->
<g id="node17" class="node">
<title>2272685643136</title>
<polygon fill="none" stroke="black" points="1872.75,-90 1719.5,-90 1719.5,-54 1872.75,-54 1872.75,-90"/>
<text text-anchor="middle" x="1796.12" y="-66.97" font-family="Times New Roman,serif" font-size="12.00">Provide personal information</text>
</g>
<!-- 2272685640400&#45;&gt;2272685643136 -->
<g id="edge19" class="edge">
<title>2272685640400&#45;&gt;2272685643136</title>
<path fill="none" stroke="black" d="M1684.36,-72C1691.43,-72 1699.46,-72 1707.88,-72"/>
<polygon fill="black" stroke="black" points="1707.63,-75.5 1717.63,-72 1707.63,-68.5 1707.63,-75.5"/>
</g>
<!-- 2272685645824 -->
<g id="node18" class="node">
<title>2272685645824</title>
<polygon fill="none" stroke="black" points="1935.75,-90 1908.75,-72 1935.75,-54 1962.75,-72 1935.75,-90"/>
<text text-anchor="middle" x="1935.75" y="-66.97" font-family="Times New Roman,serif" font-size="12.00">X</text>
</g>
<!-- 2272685643136&#45;&gt;2272685645824 -->
<g id="edge20" class="edge">
<title>2272685643136&#45;&gt;2272685645824</title>
<path fill="none" stroke="black" d="M1873.18,-72C1881.25,-72 1889.17,-72 1896.52,-72"/>
<polygon fill="black" stroke="black" points="1896.36,-75.5 1906.36,-72 1896.36,-68.5 1896.36,-75.5"/>
</g>
<!-- 2272685643232 -->
<g id="node19" class="node">
<title>2272685643232</title>
<polygon fill="none" stroke="black" points="2176,-90 2149,-72 2176,-54 2203,-72 2176,-90"/>
<text text-anchor="middle" x="2176" y="-66.97" font-family="Times New Roman,serif" font-size="12.00">X</text>
</g>
<!-- 2272685645824&#45;&gt;2272685643232 -->
<g id="edge22" class="edge">
<title>2272685645824&#45;&gt;2272685643232</title>
<path fill="none" stroke="black" d="M1960.58,-73.9C1972.1,-74.72 1986.14,-75.59 1998.75,-76 2049.5,-77.64 2062.25,-77.64 2113,-76 2121.67,-75.72 2131.02,-75.22 2139.75,-74.67"/>
<polygon fill="black" stroke="black" points="2139.92,-78.17 2149.66,-74 2139.45,-71.18 2139.92,-78.17"/>
</g>
<!-- 2272685643280 -->
<g id="node20" class="node">
<title>2272685643280</title>
<polygon fill="none" stroke="black" points="2113,-67 1998.75,-67 1998.75,-31 2113,-31 2113,-67"/>
<text text-anchor="middle" x="2055.88" y="-43.98" font-family="Times New Roman,serif" font-size="12.00">Send ticket via email</text>
</g>
<!-- 2272685645824&#45;&gt;2272685643280 -->
<g id="edge21" class="edge">
<title>2272685645824&#45;&gt;2272685643280</title>
<path fill="none" stroke="black" d="M1957.33,-67.99C1965.9,-66.32 1976.4,-64.28 1987.29,-62.16"/>
<polygon fill="black" stroke="black" points="1987.62,-65.66 1996.76,-60.31 1986.28,-58.79 1987.62,-65.66"/>
</g>
<!-- 2272686710016 -->
<g id="node21" class="node">
<title>2272686710016</title>
<ellipse fill="orange" stroke="black" cx="2257" cy="-72" rx="18" ry="18"/>
</g>
<!-- 2272685643232&#45;&gt;2272686710016 -->
<g id="edge24" class="edge">
<title>2272685643232&#45;&gt;2272686710016</title>
<path fill="none" stroke="black" d="M2203.75,-72C2211.38,-72 2219.73,-72 2227.47,-72"/>
<polygon fill="black" stroke="black" points="2227.43,-75.5 2237.43,-72 2227.43,-68.5 2227.43,-75.5"/>
</g>
<!-- 2272685643280&#45;&gt;2272685643232 -->
<g id="edge23" class="edge">
<title>2272685643280&#45;&gt;2272685643232</title>
<path fill="none" stroke="black" d="M2113.17,-59.96C2123.53,-61.98 2134.01,-64.02 2143.32,-65.83"/>
<polygon fill="black" stroke="black" points="2142.42,-69.22 2152.9,-67.7 2143.76,-62.35 2142.42,-69.22"/>
</g>
</g>
</svg>
