<?xml version="1.0" encoding="UTF-8" standalone="no"?>
<!DOCTYPE svg PUBLIC "-//W3C//DTD SVG 1.1//EN"
 "http://www.w3.org/Graphics/SVG/1.1/DTD/svg11.dtd">
<!-- Generated by graphviz version 11.0.0 (20240428.1522)
 -->
<!-- Pages: 1 -->
<svg width="2534pt" height="236pt"
 viewBox="0.00 0.00 2534.25 236.00" xmlns="http://www.w3.org/2000/svg" xmlns:xlink="http://www.w3.org/1999/xlink">
<g id="graph0" class="graph" transform="scale(1 1) rotate(0) translate(4 232)">
<polygon fill="white" stroke="none" points="-4,4 -4,-232 2530.25,-232 2530.25,4 -4,4"/>
<!-- 2272685127488 -->
<g id="node1" class="node">
<title>2272685127488</title>
<ellipse fill="green" stroke="black" cx="18" cy="-133" rx="18" ry="18"/>
</g>
<!-- 2272685114240 -->
<g id="node2" class="node">
<title>2272685114240</title>
<polygon fill="none" stroke="black" points="223,-151 72,-151 72,-115 223,-115 223,-151"/>
<text text-anchor="middle" x="147.5" y="-127.97" font-family="Times New Roman,serif" font-size="12.00">Customer completes journey</text>
</g>
<!-- 2272685127488&#45;&gt;2272685114240 -->
<g id="edge1" class="edge">
<title>2272685127488&#45;&gt;2272685114240</title>
<path fill="none" stroke="black" d="M36.46,-133C43.25,-133 51.56,-133 60.54,-133"/>
<polygon fill="black" stroke="black" points="60.25,-136.5 70.25,-133 60.25,-129.5 60.25,-136.5"/>
</g>
<!-- 2272685123696 -->
<g id="node3" class="node">
<title>2272685123696</title>
<polygon fill="none" stroke="black" points="344,-151 259,-151 259,-115 344,-115 344,-151"/>
<text text-anchor="middle" x="301.5" y="-127.97" font-family="Times New Roman,serif" font-size="12.00">Send reminder</text>
</g>
<!-- 2272685114240&#45;&gt;2272685123696 -->
<g id="edge2" class="edge">
<title>2272685114240&#45;&gt;2272685123696</title>
<path fill="none" stroke="black" d="M223.16,-133C231.24,-133 239.34,-133 247.09,-133"/>
<polygon fill="black" stroke="black" points="247.03,-136.5 257.03,-133 247.03,-129.5 247.03,-136.5"/>
</g>
<!-- 2272685128688 -->
<g id="node4" class="node">
<title>2272685128688</title>
<polygon fill="none" stroke="black" points="529.5,-151 380,-151 380,-115 529.5,-115 529.5,-151"/>
<text text-anchor="middle" x="454.75" y="-127.97" font-family="Times New Roman,serif" font-size="12.00">Customer searches for ticket</text>
</g>
<!-- 2272685123696&#45;&gt;2272685128688 -->
<g id="edge3" class="edge">
<title>2272685123696&#45;&gt;2272685128688</title>
<path fill="none" stroke="black" d="M344.23,-133C351.8,-133 359.95,-133 368.26,-133"/>
<polygon fill="black" stroke="black" points="368.14,-136.5 378.14,-133 368.14,-129.5 368.14,-136.5"/>
</g>
<!-- 2272685120720 -->
<g id="node5" class="node">
<title>2272685120720</title>
<polygon fill="none" stroke="black" points="685,-151 565.5,-151 565.5,-115 685,-115 685,-151"/>
<text text-anchor="middle" x="625.25" y="-127.97" font-family="Times New Roman,serif" font-size="12.00">Update seat inventory</text>
</g>
<!-- 2272685128688&#45;&gt;2272685120720 -->
<g id="edge4" class="edge">
<title>2272685128688&#45;&gt;2272685120720</title>
<path fill="none" stroke="black" d="M529.66,-133C537.62,-133 545.7,-133 553.62,-133"/>
<polygon fill="black" stroke="black" points="553.56,-136.5 563.56,-133 553.56,-129.5 553.56,-136.5"/>
</g>
<!-- 2272685114864 -->
<g id="node6" class="node">
<title>2272685114864</title>
<polygon fill="none" stroke="black" points="808.25,-151 721,-151 721,-115 808.25,-115 808.25,-151"/>
<text text-anchor="middle" x="764.62" y="-127.97" font-family="Times New Roman,serif" font-size="12.00">Generate ticket</text>
</g>
<!-- 2272685120720&#45;&gt;2272685114864 -->
<g id="edge5" class="edge">
<title>2272685120720&#45;&gt;2272685114864</title>
<path fill="none" stroke="black" d="M685.31,-133C693.32,-133 701.51,-133 709.43,-133"/>
<polygon fill="black" stroke="black" points="709.28,-136.5 719.28,-133 709.28,-129.5 709.28,-136.5"/>
</g>
<!-- 2272685124080 -->
<g id="node7" class="node">
<title>2272685124080</title>
<polygon fill="none" stroke="black" points="871.25,-151 844.25,-133 871.25,-115 898.25,-133 871.25,-151"/>
<text text-anchor="middle" x="871.25" y="-127.97" font-family="Times New Roman,serif" font-size="12.00">+</text>
</g>
<!-- 2272685114864&#45;&gt;2272685124080 -->
<g id="edge6" class="edge">
<title>2272685114864&#45;&gt;2272685124080</title>
<path fill="none" stroke="black" d="M808.48,-133C816.35,-133 824.52,-133 832.23,-133"/>
<polygon fill="black" stroke="black" points="831.99,-136.5 841.99,-133 831.99,-129.5 831.99,-136.5"/>
</g>
<!-- 2272685113904 -->
<g id="node8" class="node">
<title>2272685113904</title>
<polygon fill="none" stroke="black" points="989.5,-82 962.5,-64 989.5,-46 1016.5,-64 989.5,-82"/>
<text text-anchor="middle" x="989.5" y="-58.98" font-family="Times New Roman,serif" font-size="12.00">X</text>
</g>
<!-- 2272685124080&#45;&gt;2272685113904 -->
<g id="edge7" class="edge">
<title>2272685124080&#45;&gt;2272685113904</title>
<path fill="none" stroke="black" d="M886.03,-124.75C898.58,-117.24 917.65,-105.85 934.25,-96 944.09,-90.16 954.95,-83.75 964.35,-78.21"/>
<polygon fill="black" stroke="black" points="966.07,-81.26 972.91,-73.17 962.51,-75.23 966.07,-81.26"/>
</g>
<!-- 2272685128160 -->
<g id="node9" class="node">
<title>2272685128160</title>
<polygon fill="none" stroke="black" points="1044.75,-228 934.25,-228 934.25,-192 1044.75,-192 1044.75,-228"/>
<text text-anchor="middle" x="989.5" y="-204.97" font-family="Times New Roman,serif" font-size="12.00">Select date and time</text>
</g>
<!-- 2272685124080&#45;&gt;2272685128160 -->
<g id="edge9" class="edge">
<title>2272685124080&#45;&gt;2272685128160</title>
<path fill="none" stroke="black" d="M883.56,-143.38C895.57,-154.1 915.39,-170.91 934.25,-183 935.83,-184.02 937.46,-185.02 939.12,-186.01"/>
<polygon fill="black" stroke="black" points="937.09,-188.88 947.51,-190.77 940.54,-182.79 937.09,-188.88"/>
</g>
<!-- 2272685115584 -->
<g id="node10" class="node">
<title>2272685115584</title>
<polygon fill="none" stroke="black" points="1025.25,-174 953.75,-174 953.75,-138 1025.25,-138 1025.25,-174"/>
<text text-anchor="middle" x="989.5" y="-150.97" font-family="Times New Roman,serif" font-size="12.00">Select route</text>
</g>
<!-- 2272685124080&#45;&gt;2272685115584 -->
<g id="edge10" class="edge">
<title>2272685124080&#45;&gt;2272685115584</title>
<path fill="none" stroke="black" d="M892.77,-137.06C906.56,-139.79 925.31,-143.5 942.56,-146.91"/>
<polygon fill="black" stroke="black" points="941.64,-150.3 952.13,-148.8 942.99,-143.43 941.64,-150.3"/>
</g>
<!-- 2272685125376 -->
<g id="node11" class="node">
<title>2272685125376</title>
<polygon fill="none" stroke="black" points="1228,-128 1098.75,-128 1098.75,-92 1228,-92 1228,-128"/>
<text text-anchor="middle" x="1163.38" y="-104.97" font-family="Times New Roman,serif" font-size="12.00">Provide payment details</text>
</g>
<!-- 2272685124080&#45;&gt;2272685125376 -->
<g id="edge8" class="edge">
<title>2272685124080&#45;&gt;2272685125376</title>
<path fill="none" stroke="black" d="M895.99,-131.12C937.29,-127.84 1024,-120.97 1087.31,-115.95"/>
<polygon fill="black" stroke="black" points="1087.24,-119.47 1096.93,-115.19 1086.69,-112.49 1087.24,-119.47"/>
</g>
<!-- 2272685647696 -->
<g id="node12" class="node">
<title>2272685647696</title>
<polygon fill="none" stroke="black" points="1309,-66 1282,-48 1309,-30 1336,-48 1309,-66"/>
<text text-anchor="middle" x="1309" y="-42.98" font-family="Times New Roman,serif" font-size="12.00">X</text>
</g>
<!-- 2272685113904&#45;&gt;2272685647696 -->
<g id="edge11" class="edge">
<title>2272685113904&#45;&gt;2272685647696</title>
<path fill="none" stroke="black" d="M1015.41,-62.74C1071.29,-59.93 1206.79,-53.1 1271.9,-49.82"/>
<polygon fill="black" stroke="black" points="1271.88,-53.32 1281.69,-49.33 1271.53,-46.33 1271.88,-53.32"/>
</g>
<!-- 2272685116256 -->
<g id="node15" class="node">
<title>2272685116256</title>
<polygon fill="none" stroke="black" points="1246,-36 1080.75,-36 1080.75,0 1246,0 1246,-36"/>
<text text-anchor="middle" x="1163.38" y="-12.97" font-family="Times New Roman,serif" font-size="12.00">Post&#45;travel feedback or services</text>
</g>
<!-- 2272685113904&#45;&gt;2272685116256 -->
<g id="edge12" class="edge">
<title>2272685113904&#45;&gt;2272685116256</title>
<path fill="none" stroke="black" d="M1009.55,-58.9C1027.37,-54.13 1055.24,-46.67 1082.32,-39.43"/>
<polygon fill="black" stroke="black" points="1083.22,-42.81 1091.98,-36.84 1081.41,-36.04 1083.22,-42.81"/>
</g>
<!-- 2272685125664 -->
<g id="node13" class="node">
<title>2272685125664</title>
<polygon fill="none" stroke="black" points="1399,-228 1372,-210 1399,-192 1426,-210 1399,-228"/>
<text text-anchor="middle" x="1399" y="-204.97" font-family="Times New Roman,serif" font-size="12.00">+</text>
</g>
<!-- 2272685128160&#45;&gt;2272685125664 -->
<g id="edge13" class="edge">
<title>2272685128160&#45;&gt;2272685125664</title>
<path fill="none" stroke="black" d="M1045.03,-210C1128.85,-210 1287.25,-210 1359.88,-210"/>
<polygon fill="black" stroke="black" points="1359.67,-213.5 1369.67,-210 1359.67,-206.5 1359.67,-213.5"/>
</g>
<!-- 2272685129648 -->
<g id="node14" class="node">
<title>2272685129648</title>
<polygon fill="none" stroke="black" points="1399,-174 1372,-156 1399,-138 1426,-156 1399,-174"/>
<text text-anchor="middle" x="1399" y="-150.97" font-family="Times New Roman,serif" font-size="12.00">+</text>
</g>
<!-- 2272685115584&#45;&gt;2272685129648 -->
<g id="edge14" class="edge">
<title>2272685115584&#45;&gt;2272685129648</title>
<path fill="none" stroke="black" d="M1025.6,-156C1101.71,-156 1281.42,-156 1360.05,-156"/>
<polygon fill="black" stroke="black" points="1359.82,-159.5 1369.82,-156 1359.82,-152.5 1359.82,-159.5"/>
</g>
<!-- 2272685121392 -->
<g id="node16" class="node">
<title>2272685121392</title>
<polygon fill="none" stroke="black" points="1399,-120 1372,-102 1399,-84 1426,-102 1399,-120"/>
<text text-anchor="middle" x="1399" y="-96.97" font-family="Times New Roman,serif" font-size="12.00">+</text>
</g>
<!-- 2272685125376&#45;&gt;2272685121392 -->
<g id="edge15" class="edge">
<title>2272685125376&#45;&gt;2272685121392</title>
<path fill="none" stroke="black" d="M1228.21,-107.81C1270.94,-106.35 1325.66,-104.48 1361.26,-103.26"/>
<polygon fill="black" stroke="black" points="1361.17,-106.76 1371.04,-102.92 1360.93,-99.77 1361.17,-106.76"/>
</g>
<!-- 2272685119280 -->
<g id="node17" class="node">
<title>2272685119280</title>
<polygon fill="none" stroke="black" points="1399,-66 1372,-48 1399,-30 1426,-48 1399,-66"/>
<text text-anchor="middle" x="1399" y="-42.98" font-family="Times New Roman,serif" font-size="12.00">+</text>
</g>
<!-- 2272685647696&#45;&gt;2272685119280 -->
<g id="edge17" class="edge">
<title>2272685647696&#45;&gt;2272685119280</title>
<path fill="none" stroke="black" d="M1336.88,-48C1344.13,-48 1352.12,-48 1359.85,-48"/>
<polygon fill="black" stroke="black" points="1359.77,-51.5 1369.77,-48 1359.77,-44.5 1359.77,-51.5"/>
</g>
<!-- 2272685114192 -->
<g id="node18" class="node">
<title>2272685114192</title>
<polygon fill="none" stroke="black" points="1489,-120 1462,-102 1489,-84 1516,-102 1489,-120"/>
<text text-anchor="middle" x="1489" y="-96.97" font-family="Times New Roman,serif" font-size="12.00">+</text>
</g>
<!-- 2272685125664&#45;&gt;2272685114192 -->
<g id="edge18" class="edge">
<title>2272685125664&#45;&gt;2272685114192</title>
<path fill="none" stroke="black" d="M1410.83,-199.63C1415.69,-194.77 1421.35,-188.78 1426,-183 1444.08,-160.52 1443.92,-151.48 1462,-129 1464.25,-126.2 1466.74,-123.35 1469.26,-120.61"/>
<polygon fill="black" stroke="black" points="1471.72,-123.1 1476.12,-113.46 1466.67,-118.25 1471.72,-123.1"/>
</g>
<!-- 2272685122928 -->
<g id="node19" class="node">
<title>2272685122928</title>
<polygon fill="none" stroke="black" points="1489,-174 1462,-156 1489,-138 1516,-156 1489,-174"/>
<text text-anchor="middle" x="1489" y="-150.97" font-family="Times New Roman,serif" font-size="12.00">+</text>
</g>
<!-- 2272685125664&#45;&gt;2272685122928 -->
<g id="edge19" class="edge">
<title>2272685125664&#45;&gt;2272685122928</title>
<path fill="none" stroke="black" d="M1413.75,-201.56C1427.36,-193.21 1448.46,-180.27 1464.69,-170.3"/>
<polygon fill="black" stroke="black" points="1466.07,-173.56 1472.77,-165.35 1462.41,-167.6 1466.07,-173.56"/>
</g>
<!-- 2272685129648&#45;&gt;2272685114192 -->
<g id="edge20" class="edge">
<title>2272685129648&#45;&gt;2272685114192</title>
<path fill="none" stroke="black" d="M1413.75,-147.56C1427.36,-139.21 1448.46,-126.27 1464.69,-116.3"/>
<polygon fill="black" stroke="black" points="1466.07,-119.56 1472.77,-111.35 1462.41,-113.6 1466.07,-119.56"/>
</g>
<!-- 2272685129648&#45;&gt;2272685122928 -->
<g id="edge21" class="edge">
<title>2272685129648&#45;&gt;2272685122928</title>
<path fill="none" stroke="black" d="M1426.88,-156C1434.13,-156 1442.12,-156 1449.85,-156"/>
<polygon fill="black" stroke="black" points="1449.77,-159.5 1459.77,-156 1449.77,-152.5 1449.77,-159.5"/>
</g>
<!-- 2272685116256&#45;&gt;2272685647696 -->
<g id="edge16" class="edge">
<title>2272685116256&#45;&gt;2272685647696</title>
<path fill="none" stroke="black" d="M1246.26,-35.1C1256.94,-37.34 1267.33,-39.5 1276.44,-41.41"/>
<polygon fill="black" stroke="black" points="1275.61,-44.81 1286.11,-43.43 1277.04,-37.96 1275.61,-44.81"/>
</g>
<!-- 2272685121392&#45;&gt;2272685114192 -->
<g id="edge22" class="edge">
<title>2272685121392&#45;&gt;2272685114192</title>
<path fill="none" stroke="black" d="M1426.88,-102C1434.13,-102 1442.12,-102 1449.85,-102"/>
<polygon fill="black" stroke="black" points="1449.77,-105.5 1459.77,-102 1449.77,-98.5 1449.77,-105.5"/>
</g>
<!-- 2272685121392&#45;&gt;2272685122928 -->
<g id="edge23" class="edge">
<title>2272685121392&#45;&gt;2272685122928</title>
<path fill="none" stroke="black" d="M1413.75,-110.44C1427.36,-118.79 1448.46,-131.73 1464.69,-141.7"/>
<polygon fill="black" stroke="black" points="1462.41,-144.4 1472.77,-146.65 1466.07,-138.44 1462.41,-144.4"/>
</g>
<!-- 2272685119280&#45;&gt;2272685114192 -->
<g id="edge25" class="edge">
<title>2272685119280&#45;&gt;2272685114192</title>
<path fill="none" stroke="black" d="M1413.75,-56.44C1427.36,-64.79 1448.46,-77.73 1464.69,-87.7"/>
<polygon fill="black" stroke="black" points="1462.41,-90.4 1472.77,-92.65 1466.07,-84.44 1462.41,-90.4"/>
</g>
<!-- 2272685119280&#45;&gt;2272685122928 -->
<g id="edge24" class="edge">
<title>2272685119280&#45;&gt;2272685122928</title>
<path fill="none" stroke="black" d="M1410.83,-58.37C1415.69,-63.23 1421.35,-69.22 1426,-75 1444.08,-97.48 1443.92,-106.52 1462,-129 1464.25,-131.8 1466.74,-134.65 1469.26,-137.39"/>
<polygon fill="black" stroke="black" points="1466.67,-139.75 1476.12,-144.54 1471.72,-134.9 1466.67,-139.75"/>
</g>
<!-- 2272685641072 -->
<g id="node20" class="node">
<title>2272685641072</title>
<polygon fill="none" stroke="black" points="1579,-120 1552,-102 1579,-84 1606,-102 1579,-120"/>
<text text-anchor="middle" x="1579" y="-96.97" font-family="Times New Roman,serif" font-size="12.00">X</text>
</g>
<!-- 2272685114192&#45;&gt;2272685641072 -->
<g id="edge26" class="edge">
<title>2272685114192&#45;&gt;2272685641072</title>
<path fill="none" stroke="black" d="M1516.88,-102C1524.13,-102 1532.12,-102 1539.85,-102"/>
<polygon fill="black" stroke="black" points="1539.77,-105.5 1549.77,-102 1539.77,-98.5 1539.77,-105.5"/>
</g>
<!-- 2272685649280 -->
<g id="node21" class="node">
<title>2272685649280</title>
<polygon fill="none" stroke="black" points="1579,-174 1552,-156 1579,-138 1606,-156 1579,-174"/>
<text text-anchor="middle" x="1579" y="-150.97" font-family="Times New Roman,serif" font-size="12.00">X</text>
</g>
<!-- 2272685122928&#45;&gt;2272685649280 -->
<g id="edge27" class="edge">
<title>2272685122928&#45;&gt;2272685649280</title>
<path fill="none" stroke="black" d="M1516.88,-156C1524.13,-156 1532.12,-156 1539.85,-156"/>
<polygon fill="black" stroke="black" points="1539.77,-159.5 1549.77,-156 1539.77,-152.5 1539.77,-159.5"/>
</g>
<!-- 2272685114624 -->
<g id="node22" class="node">
<title>2272685114624</title>
<polygon fill="none" stroke="black" points="1746.88,-123 1649.88,-123 1649.88,-87 1746.88,-87 1746.88,-123"/>
<text text-anchor="middle" x="1698.38" y="-99.97" font-family="Times New Roman,serif" font-size="12.00">Send instructions</text>
</g>
<!-- 2272685641072&#45;&gt;2272685114624 -->
<g id="edge28" class="edge">
<title>2272685641072&#45;&gt;2272685114624</title>
<path fill="none" stroke="black" d="M1605.76,-102.66C1615.37,-102.9 1626.74,-103.19 1638.12,-103.49"/>
<polygon fill="black" stroke="black" points="1637.86,-106.98 1647.95,-103.74 1638.04,-99.98 1637.86,-106.98"/>
</g>
<!-- 2272685113520 -->
<g id="node23" class="node">
<title>2272685113520</title>
<polygon fill="none" stroke="black" points="1754.75,-217 1642,-217 1642,-181 1754.75,-181 1754.75,-217"/>
<text text-anchor="middle" x="1698.38" y="-193.97" font-family="Times New Roman,serif" font-size="12.00">Send ticket via SMS</text>
</g>
<!-- 2272685649280&#45;&gt;2272685113520 -->
<g id="edge29" class="edge">
<title>2272685649280&#45;&gt;2272685113520</title>
<path fill="none" stroke="black" d="M1597.32,-162.34C1607.89,-166.22 1622.1,-171.42 1636.49,-176.7"/>
<polygon fill="black" stroke="black" points="1634.94,-179.85 1645.53,-180.01 1637.35,-173.28 1634.94,-179.85"/>
</g>
<!-- 2272685650000 -->
<g id="node25" class="node">
<title>2272685650000</title>
<polygon fill="none" stroke="black" points="1817.75,-121 1790.75,-103 1817.75,-85 1844.75,-103 1817.75,-121"/>
<text text-anchor="middle" x="1817.75" y="-97.97" font-family="Times New Roman,serif" font-size="12.00">X</text>
</g>
<!-- 2272685114624&#45;&gt;2272685650000 -->
<g id="edge30" class="edge">
<title>2272685114624&#45;&gt;2272685650000</title>
<path fill="none" stroke="black" d="M1747.12,-104.19C1757.79,-104 1768.97,-103.81 1779.16,-103.64"/>
<polygon fill="black" stroke="black" points="1779.14,-107.14 1789.08,-103.47 1779.02,-100.14 1779.14,-107.14"/>
</g>
<!-- 2272685648368 -->
<g id="node24" class="node">
<title>2272685648368</title>
<polygon fill="none" stroke="black" points="1817.75,-175 1790.75,-157 1817.75,-139 1844.75,-157 1817.75,-175"/>
<text text-anchor="middle" x="1817.75" y="-151.97" font-family="Times New Roman,serif" font-size="12.00">X</text>
</g>
<!-- 2272685113520&#45;&gt;2272685648368 -->
<g id="edge31" class="edge">
<title>2272685113520&#45;&gt;2272685648368</title>
<path fill="none" stroke="black" d="M1750.86,-180.58C1763.88,-175.92 1777.39,-171.08 1788.76,-167.01"/>
<polygon fill="black" stroke="black" points="1789.66,-170.41 1797.9,-163.75 1787.3,-163.82 1789.66,-170.41"/>
</g>
<!-- 2272685648368&#45;&gt;2272685649280 -->
<g id="edge32" class="edge">
<title>2272685648368&#45;&gt;2272685649280</title>
<path fill="none" stroke="black" d="M1790.15,-156.89C1748.18,-156.71 1666.43,-156.37 1618.19,-156.16"/>
<polygon fill="black" stroke="black" points="1618.23,-152.66 1608.21,-156.12 1618.2,-159.66 1618.23,-152.66"/>
</g>
<!-- 2272685126528 -->
<g id="node26" class="node">
<title>2272685126528</title>
<polygon fill="none" stroke="black" points="1907.75,-148 1880.75,-130 1907.75,-112 1934.75,-130 1907.75,-148"/>
<text text-anchor="middle" x="1907.75" y="-124.97" font-family="Times New Roman,serif" font-size="12.00">+</text>
</g>
<!-- 2272685648368&#45;&gt;2272685126528 -->
<g id="edge34" class="edge">
<title>2272685648368&#45;&gt;2272685126528</title>
<path fill="none" stroke="black" d="M1836.98,-151.41C1848.78,-147.79 1864.4,-142.99 1877.86,-138.86"/>
<polygon fill="black" stroke="black" points="1878.56,-142.31 1887.09,-136.03 1876.51,-135.62 1878.56,-142.31"/>
</g>
<!-- 2272685650000&#45;&gt;2272685641072 -->
<g id="edge33" class="edge">
<title>2272685650000&#45;&gt;2272685641072</title>
<path fill="none" stroke="black" d="M1801.96,-95.15C1789.7,-89.12 1771.61,-81.27 1754.75,-78 1705.56,-68.46 1691.26,-68.8 1642,-78 1629.49,-80.34 1616.26,-85.11 1605.24,-89.79"/>
<polygon fill="black" stroke="black" points="1604.15,-86.44 1596.46,-93.73 1607.02,-92.83 1604.15,-86.44"/>
</g>
<!-- 2272685650000&#45;&gt;2272685126528 -->
<g id="edge35" class="edge">
<title>2272685650000&#45;&gt;2272685126528</title>
<path fill="none" stroke="black" d="M1836.98,-108.59C1848.78,-112.21 1864.4,-117.01 1877.86,-121.14"/>
<polygon fill="black" stroke="black" points="1876.51,-124.38 1887.09,-123.97 1878.56,-117.69 1876.51,-124.38"/>
</g>
<!-- 2272685120480 -->
<g id="node27" class="node">
<title>2272685120480</title>
<polygon fill="none" stroke="black" points="2124,-148 1970.75,-148 1970.75,-112 2124,-112 2124,-148"/>
<text text-anchor="middle" x="2047.38" y="-124.97" font-family="Times New Roman,serif" font-size="12.00">Provide personal information</text>
</g>
<!-- 2272685126528&#45;&gt;2272685120480 -->
<g id="edge36" class="edge">
<title>2272685126528&#45;&gt;2272685120480</title>
<path fill="none" stroke="black" d="M1935.61,-130C1942.68,-130 1950.71,-130 1959.13,-130"/>
<polygon fill="black" stroke="black" points="1958.88,-133.5 1968.88,-130 1958.88,-126.5 1958.88,-133.5"/>
</g>
<!-- 2272685125472 -->
<g id="node28" class="node">
<title>2272685125472</title>
<polygon fill="none" stroke="black" points="2187,-148 2160,-130 2187,-112 2214,-130 2187,-148"/>
<text text-anchor="middle" x="2187" y="-124.97" font-family="Times New Roman,serif" font-size="12.00">X</text>
</g>
<!-- 2272685120480&#45;&gt;2272685125472 -->
<g id="edge37" class="edge">
<title>2272685120480&#45;&gt;2272685125472</title>
<path fill="none" stroke="black" d="M2124.43,-130C2132.5,-130 2140.42,-130 2147.77,-130"/>
<polygon fill="black" stroke="black" points="2147.61,-133.5 2157.61,-130 2147.61,-126.5 2147.61,-133.5"/>
</g>
<!-- 2272685129408 -->
<g id="node29" class="node">
<title>2272685129408</title>
<polygon fill="none" stroke="black" points="2427.25,-148 2400.25,-130 2427.25,-112 2454.25,-130 2427.25,-148"/>
<text text-anchor="middle" x="2427.25" y="-124.97" font-family="Times New Roman,serif" font-size="12.00">X</text>
</g>
<!-- 2272685125472&#45;&gt;2272685129408 -->
<g id="edge39" class="edge">
<title>2272685125472&#45;&gt;2272685129408</title>
<path fill="none" stroke="black" d="M2211.83,-131.9C2223.35,-132.72 2237.39,-133.59 2250,-134 2300.75,-135.64 2313.5,-135.64 2364.25,-134 2372.92,-133.72 2382.27,-133.22 2391,-132.67"/>
<polygon fill="black" stroke="black" points="2391.17,-136.17 2400.91,-132 2390.7,-129.18 2391.17,-136.17"/>
</g>
<!-- 2272685114720 -->
<g id="node30" class="node">
<title>2272685114720</title>
<polygon fill="none" stroke="black" points="2364.25,-125 2250,-125 2250,-89 2364.25,-89 2364.25,-125"/>
<text text-anchor="middle" x="2307.12" y="-101.97" font-family="Times New Roman,serif" font-size="12.00">Send ticket via email</text>
</g>
<!-- 2272685125472&#45;&gt;2272685114720 -->
<g id="edge38" class="edge">
<title>2272685125472&#45;&gt;2272685114720</title>
<path fill="none" stroke="black" d="M2208.58,-125.99C2217.15,-124.32 2227.65,-122.28 2238.54,-120.16"/>
<polygon fill="black" stroke="black" points="2238.87,-123.66 2248.01,-118.31 2237.53,-116.79 2238.87,-123.66"/>
</g>
<!-- 2272685128016 -->
<g id="node31" class="node">
<title>2272685128016</title>
<ellipse fill="orange" stroke="black" cx="2508.25" cy="-130" rx="18" ry="18"/>
</g>
<!-- 2272685129408&#45;&gt;2272685128016 -->
<g id="edge41" class="edge">
<title>2272685129408&#45;&gt;2272685128016</title>
<path fill="none" stroke="black" d="M2455,-130C2462.63,-130 2470.98,-130 2478.72,-130"/>
<polygon fill="black" stroke="black" points="2478.68,-133.5 2488.68,-130 2478.68,-126.5 2478.68,-133.5"/>
</g>
<!-- 2272685114720&#45;&gt;2272685129408 -->
<g id="edge40" class="edge">
<title>2272685114720&#45;&gt;2272685129408</title>
<path fill="none" stroke="black" d="M2364.42,-117.96C2374.78,-119.98 2385.26,-122.02 2394.57,-123.83"/>
<polygon fill="black" stroke="black" points="2393.67,-127.22 2404.15,-125.7 2395.01,-120.35 2393.67,-127.22"/>
</g>
</g>
</svg>
