<?xml version="1.0" encoding="UTF-8" standalone="no"?>
<!DOCTYPE svg PUBLIC "-//W3C//DTD SVG 1.1//EN"
 "http://www.w3.org/Graphics/SVG/1.1/DTD/svg11.dtd">
<!-- Generated by graphviz version 2.50.0 (0)
 -->
<!-- Pages: 1 -->
<svg width="1760pt" height="98pt"
 viewBox="0.00 0.00 1760.00 98.00" xmlns="http://www.w3.org/2000/svg" xmlns:xlink="http://www.w3.org/1999/xlink">
<g id="graph0" class="graph" transform="scale(1 1) rotate(0) translate(4 94)">
<polygon fill="white" stroke="transparent" points="-4,4 -4,-94 1756,-94 1756,4 -4,4"/>
<!-- 6037770704 -->
<g id="node1" class="node">
<title>6037770704</title>
<ellipse fill="green" stroke="black" cx="18" cy="-45" rx="18" ry="18"/>
</g>
<!-- 6037771152 -->
<g id="node2" class="node">
<title>6037771152</title>
<polygon fill="none" stroke="black" points="99,-63 72,-45 99,-27 126,-45 99,-63"/>
<text text-anchor="middle" x="99" y="-41.9" font-family="Times,serif" font-size="12.00">X</text>
</g>
<!-- 6037770704&#45;&gt;6037771152 -->
<g id="edge1" class="edge">
<title>6037770704&#45;&gt;6037771152</title>
<path fill="none" stroke="black" d="M36.14,-45C43.64,-45 52.75,-45 61.64,-45"/>
<polygon fill="black" stroke="black" points="61.87,-48.5 71.87,-45 61.87,-41.5 61.87,-48.5"/>
</g>
<!-- 6037768272 -->
<g id="node3" class="node">
<title>6037768272</title>
<polygon fill="none" stroke="black" points="324,-63 297,-45 324,-27 351,-45 324,-63"/>
<text text-anchor="middle" x="324" y="-41.9" font-family="Times,serif" font-size="12.00">X</text>
</g>
<!-- 6037771152&#45;&gt;6037768272 -->
<g id="edge3" class="edge">
<title>6037771152&#45;&gt;6037768272</title>
<path fill="none" stroke="black" d="M123.24,-46.86C134.87,-47.69 149.17,-48.59 162,-49 205.98,-50.42 217.02,-50.42 261,-49 270.32,-48.7 280.42,-48.15 289.7,-47.54"/>
<polygon fill="black" stroke="black" points="290.02,-51.03 299.76,-46.86 289.54,-44.05 290.02,-51.03"/>
</g>
<!-- 6028939088 -->
<g id="node4" class="node">
<title>6028939088</title>
<polygon fill="none" stroke="black" points="261,-40 162,-40 162,-4 261,-4 261,-40"/>
<text text-anchor="middle" x="211.5" y="-18.9" font-family="Times,serif" font-size="12.00">Provide feedback</text>
</g>
<!-- 6037771152&#45;&gt;6028939088 -->
<g id="edge2" class="edge">
<title>6037771152&#45;&gt;6028939088</title>
<path fill="none" stroke="black" d="M120.01,-40.83C129.05,-38.95 140.26,-36.62 151.67,-34.25"/>
<polygon fill="black" stroke="black" points="152.62,-37.62 161.7,-32.16 151.2,-30.77 152.62,-37.62"/>
</g>
<!-- 6033573904 -->
<g id="node5" class="node">
<title>6033573904</title>
<polygon fill="none" stroke="black" points="491,-63 387,-63 387,-27 491,-27 491,-63"/>
<text text-anchor="middle" x="439" y="-41.9" font-family="Times,serif" font-size="12.00">Resolve complaint</text>
</g>
<!-- 6037768272&#45;&gt;6033573904 -->
<g id="edge5" class="edge">
<title>6037768272&#45;&gt;6033573904</title>
<path fill="none" stroke="black" d="M351.21,-45C358.88,-45 367.62,-45 376.51,-45"/>
<polygon fill="black" stroke="black" points="376.58,-48.5 386.58,-45 376.58,-41.5 376.58,-48.5"/>
</g>
<!-- 6028939088&#45;&gt;6037768272 -->
<g id="edge4" class="edge">
<title>6028939088&#45;&gt;6037768272</title>
<path fill="none" stroke="black" d="M261.29,-32.16C272.07,-34.4 283.19,-36.71 292.97,-38.75"/>
<polygon fill="black" stroke="black" points="292.47,-42.22 302.97,-40.83 293.89,-35.37 292.47,-42.22"/>
</g>
<!-- 6055729488 -->
<g id="node6" class="node">
<title>6055729488</title>
<polygon fill="none" stroke="black" points="554,-63 527,-45 554,-27 581,-45 554,-63"/>
<text text-anchor="middle" x="554" y="-41.9" font-family="Times,serif" font-size="12.00">X</text>
</g>
<!-- 6033573904&#45;&gt;6055729488 -->
<g id="edge6" class="edge">
<title>6033573904&#45;&gt;6055729488</title>
<path fill="none" stroke="black" d="M491.21,-45C499.82,-45 508.59,-45 516.72,-45"/>
<polygon fill="black" stroke="black" points="516.97,-48.5 526.97,-45 516.97,-41.5 516.97,-48.5"/>
</g>
<!-- 6037999184 -->
<g id="node7" class="node">
<title>6037999184</title>
<polygon fill="none" stroke="black" points="927,-90 784,-90 784,-54 927,-54 927,-90"/>
<text text-anchor="middle" x="855.5" y="-68.9" font-family="Times,serif" font-size="12.00">Reject and notify customer</text>
</g>
<!-- 6055729488&#45;&gt;6037999184 -->
<g id="edge7" class="edge">
<title>6055729488&#45;&gt;6037999184</title>
<path fill="none" stroke="black" d="M578,-47.07C619.29,-50.8 707.77,-58.77 773.58,-64.71"/>
<polygon fill="black" stroke="black" points="773.67,-68.23 783.94,-65.64 774.29,-61.26 773.67,-68.23"/>
</g>
<!-- 6033331984 -->
<g id="node8" class="node">
<title>6033331984</title>
<polygon fill="none" stroke="black" points="742,-40 617,-40 617,-4 742,-4 742,-40"/>
<text text-anchor="middle" x="679.5" y="-18.9" font-family="Times,serif" font-size="12.00">Process reimbursement</text>
</g>
<!-- 6055729488&#45;&gt;6033331984 -->
<g id="edge8" class="edge">
<title>6055729488&#45;&gt;6033331984</title>
<path fill="none" stroke="black" d="M575.39,-41.2C584.39,-39.53 595.54,-37.45 607.16,-35.29"/>
<polygon fill="black" stroke="black" points="607.81,-38.73 617,-33.45 606.53,-31.84 607.81,-38.73"/>
</g>
<!-- 6038000528 -->
<g id="node9" class="node">
<title>6038000528</title>
<polygon fill="none" stroke="black" points="996,-63 969,-45 996,-27 1023,-45 996,-63"/>
<text text-anchor="middle" x="996" y="-41.9" font-family="Times,serif" font-size="12.00">X</text>
</g>
<!-- 6037999184&#45;&gt;6038000528 -->
<g id="edge9" class="edge">
<title>6037999184&#45;&gt;6038000528</title>
<path fill="none" stroke="black" d="M927.37,-58.18C940.59,-55.61 953.72,-53.05 964.85,-50.88"/>
<polygon fill="black" stroke="black" points="965.7,-54.28 974.85,-48.93 964.36,-47.41 965.7,-54.28"/>
</g>
<!-- 6055767824 -->
<g id="node10" class="node">
<title>6055767824</title>
<polygon fill="none" stroke="black" points="933,-36 778,-36 778,0 933,0 933,-36"/>
<text text-anchor="middle" x="855.5" y="-14.9" font-family="Times,serif" font-size="12.00">Approve and notify customer</text>
</g>
<!-- 6033331984&#45;&gt;6055767824 -->
<g id="edge10" class="edge">
<title>6033331984&#45;&gt;6055767824</title>
<path fill="none" stroke="black" d="M742.34,-20.58C750.62,-20.39 759.24,-20.19 767.85,-19.99"/>
<polygon fill="black" stroke="black" points="768.02,-23.49 777.94,-19.76 767.86,-16.49 768.02,-23.49"/>
</g>
<!-- 6031993360 -->
<g id="node11" class="node">
<title>6031993360</title>
<polygon fill="none" stroke="black" points="1195,-63 1059,-63 1059,-27 1195,-27 1195,-63"/>
<text text-anchor="middle" x="1127" y="-41.9" font-family="Times,serif" font-size="12.00">Review complaint details</text>
</g>
<!-- 6038000528&#45;&gt;6031993360 -->
<g id="edge12" class="edge">
<title>6038000528&#45;&gt;6031993360</title>
<path fill="none" stroke="black" d="M1023.11,-45C1030.78,-45 1039.6,-45 1048.78,-45"/>
<polygon fill="black" stroke="black" points="1048.84,-48.5 1058.84,-45 1048.84,-41.5 1048.84,-48.5"/>
</g>
<!-- 6055767824&#45;&gt;6038000528 -->
<g id="edge11" class="edge">
<title>6055767824&#45;&gt;6038000528</title>
<path fill="none" stroke="black" d="M933.04,-32.92C944.22,-35.1 955.15,-37.23 964.63,-39.08"/>
<polygon fill="black" stroke="black" points="964.18,-42.56 974.67,-41.04 965.52,-35.69 964.18,-42.56"/>
</g>
<!-- 6029062928 -->
<g id="node12" class="node">
<title>6029062928</title>
<polygon fill="none" stroke="black" points="1438,-63 1231,-63 1231,-27 1438,-27 1438,-63"/>
<text text-anchor="middle" x="1334.5" y="-41.9" font-family="Times,serif" font-size="12.00">Assign complaint to relevant department</text>
</g>
<!-- 6031993360&#45;&gt;6029062928 -->
<g id="edge13" class="edge">
<title>6031993360&#45;&gt;6029062928</title>
<path fill="none" stroke="black" d="M1195,-45C1203.25,-45 1211.86,-45 1220.56,-45"/>
<polygon fill="black" stroke="black" points="1220.8,-48.5 1230.8,-45 1220.8,-41.5 1220.8,-48.5"/>
</g>
<!-- 6037564944 -->
<g id="node13" class="node">
<title>6037564944</title>
<polygon fill="none" stroke="black" points="1560,-63 1474,-63 1474,-27 1560,-27 1560,-63"/>
<text text-anchor="middle" x="1517" y="-41.9" font-family="Times,serif" font-size="12.00">Log complaint</text>
</g>
<!-- 6029062928&#45;&gt;6037564944 -->
<g id="edge14" class="edge">
<title>6029062928&#45;&gt;6037564944</title>
<path fill="none" stroke="black" d="M1438.14,-45C1446.96,-45 1455.62,-45 1463.77,-45"/>
<polygon fill="black" stroke="black" points="1463.79,-48.5 1473.79,-45 1463.79,-41.5 1463.79,-48.5"/>
</g>
<!-- 6038116688 -->
<g id="node14" class="node">
<title>6038116688</title>
<polygon fill="none" stroke="black" points="1680,-63 1596,-63 1596,-27 1680,-27 1680,-63"/>
<text text-anchor="middle" x="1638" y="-41.9" font-family="Times,serif" font-size="12.00">File complaint</text>
</g>
<!-- 6037564944&#45;&gt;6038116688 -->
<g id="edge15" class="edge">
<title>6037564944&#45;&gt;6038116688</title>
<path fill="none" stroke="black" d="M1560.29,-45C1568.46,-45 1577.1,-45 1585.53,-45"/>
<polygon fill="black" stroke="black" points="1585.65,-48.5 1595.65,-45 1585.65,-41.5 1585.65,-48.5"/>
</g>
<!-- 6056737680 -->
<g id="node15" class="node">
<title>6056737680</title>
<ellipse fill="orange" stroke="black" cx="1734" cy="-45" rx="18" ry="18"/>
</g>
<!-- 6038116688&#45;&gt;6056737680 -->
<g id="edge16" class="edge">
<title>6038116688&#45;&gt;6056737680</title>
<path fill="none" stroke="black" d="M1680.23,-45C1688.78,-45 1697.58,-45 1705.49,-45"/>
<polygon fill="black" stroke="black" points="1705.61,-48.5 1715.61,-45 1705.61,-41.5 1705.61,-48.5"/>
</g>
</g>
</svg>
