<?xml version="1.0" encoding="UTF-8" standalone="no"?>
<!DOCTYPE svg PUBLIC "-//W3C//DTD SVG 1.1//EN"
 "http://www.w3.org/Graphics/SVG/1.1/DTD/svg11.dtd">
<!-- Generated by graphviz version 2.50.0 (0)
 -->
<!-- Pages: 1 -->
<svg width="1748pt" height="98pt"
 viewBox="0.00 0.00 1748.00 98.00" xmlns="http://www.w3.org/2000/svg" xmlns:xlink="http://www.w3.org/1999/xlink">
<g id="graph0" class="graph" transform="scale(1 1) rotate(0) translate(4 94)">
<polygon fill="white" stroke="transparent" points="-4,4 -4,-94 1744,-94 1744,4 -4,4"/>
<!-- 6029444944 -->
<g id="node1" class="node">
<title>6029444944</title>
<ellipse fill="green" stroke="black" cx="18" cy="-45" rx="18" ry="18"/>
</g>
<!-- 6028980944 -->
<g id="node2" class="node">
<title>6028980944</title>
<polygon fill="none" stroke="black" points="176,-63 72,-63 72,-27 176,-27 176,-63"/>
<text text-anchor="middle" x="124" y="-41.9" font-family="Times,serif" font-size="12.00">Resolve complaint</text>
</g>
<!-- 6029444944&#45;&gt;6028980944 -->
<g id="edge1" class="edge">
<title>6029444944&#45;&gt;6028980944</title>
<path fill="none" stroke="black" d="M36.17,-45C43.38,-45 52.23,-45 61.5,-45"/>
<polygon fill="black" stroke="black" points="61.66,-48.5 71.66,-45 61.66,-41.5 61.66,-48.5"/>
</g>
<!-- 6029061904 -->
<g id="node3" class="node">
<title>6029061904</title>
<polygon fill="none" stroke="black" points="298,-63 212,-63 212,-27 298,-27 298,-63"/>
<text text-anchor="middle" x="255" y="-41.9" font-family="Times,serif" font-size="12.00">Log complaint</text>
</g>
<!-- 6028980944&#45;&gt;6029061904 -->
<g id="edge2" class="edge">
<title>6028980944&#45;&gt;6029061904</title>
<path fill="none" stroke="black" d="M176.35,-45C184.75,-45 193.45,-45 201.86,-45"/>
<polygon fill="black" stroke="black" points="201.93,-48.5 211.93,-45 201.93,-41.5 201.93,-48.5"/>
</g>
<!-- 6037449104 -->
<g id="node4" class="node">
<title>6037449104</title>
<polygon fill="none" stroke="black" points="477,-63 334,-63 334,-27 477,-27 477,-63"/>
<text text-anchor="middle" x="405.5" y="-41.9" font-family="Times,serif" font-size="12.00">Reject and notify customer</text>
</g>
<!-- 6029061904&#45;&gt;6037449104 -->
<g id="edge3" class="edge">
<title>6029061904&#45;&gt;6037449104</title>
<path fill="none" stroke="black" d="M298.16,-45C306.26,-45 314.99,-45 323.84,-45"/>
<polygon fill="black" stroke="black" points="323.86,-48.5 333.86,-45 323.86,-41.5 323.86,-48.5"/>
</g>
<!-- 6038000720 -->
<g id="node5" class="node">
<title>6038000720</title>
<polygon fill="none" stroke="black" points="597,-63 513,-63 513,-27 597,-27 597,-63"/>
<text text-anchor="middle" x="555" y="-41.9" font-family="Times,serif" font-size="12.00">File complaint</text>
</g>
<!-- 6037449104&#45;&gt;6038000720 -->
<g id="edge4" class="edge">
<title>6037449104&#45;&gt;6038000720</title>
<path fill="none" stroke="black" d="M477.23,-45C485.75,-45 494.33,-45 502.51,-45"/>
<polygon fill="black" stroke="black" points="502.62,-48.5 512.62,-45 502.62,-41.5 502.62,-48.5"/>
</g>
<!-- 6035542288 -->
<g id="node6" class="node">
<title>6035542288</title>
<polygon fill="none" stroke="black" points="660,-63 633,-45 660,-27 687,-45 660,-63"/>
<text text-anchor="middle" x="660" y="-41.9" font-family="Times,serif" font-size="12.00">X</text>
</g>
<!-- 6038000720&#45;&gt;6035542288 -->
<g id="edge5" class="edge">
<title>6038000720&#45;&gt;6035542288</title>
<path fill="none" stroke="black" d="M597,-45C605.52,-45 614.45,-45 622.78,-45"/>
<polygon fill="black" stroke="black" points="622.95,-48.5 632.95,-45 622.95,-41.5 622.95,-48.5"/>
</g>
<!-- 6028639504 -->
<g id="node7" class="node">
<title>6028639504</title>
<polygon fill="none" stroke="black" points="822,-88 723,-88 723,-52 822,-52 822,-88"/>
<text text-anchor="middle" x="772.5" y="-66.9" font-family="Times,serif" font-size="12.00">Provide feedback</text>
</g>
<!-- 6035542288&#45;&gt;6028639504 -->
<g id="edge7" class="edge">
<title>6035542288&#45;&gt;6028639504</title>
<path fill="none" stroke="black" d="M680.5,-49.41C689.7,-51.49 701.21,-54.1 712.92,-56.75"/>
<polygon fill="black" stroke="black" points="712.24,-60.18 722.76,-58.97 713.78,-53.35 712.24,-60.18"/>
</g>
<!-- 6034052560 -->
<g id="node8" class="node">
<title>6034052560</title>
<polygon fill="none" stroke="black" points="1065,-36 858,-36 858,0 1065,0 1065,-36"/>
<text text-anchor="middle" x="961.5" y="-14.9" font-family="Times,serif" font-size="12.00">Assign complaint to relevant department</text>
</g>
<!-- 6035542288&#45;&gt;6034052560 -->
<g id="edge6" class="edge">
<title>6035542288&#45;&gt;6034052560</title>
<path fill="none" stroke="black" d="M684,-42.93C718.91,-39.78 787.55,-33.59 847.71,-28.17"/>
<polygon fill="black" stroke="black" points="848.03,-31.65 857.67,-27.27 847.4,-24.68 848.03,-31.65"/>
</g>
<!-- 6032828176 -->
<g id="node10" class="node">
<title>6032828176</title>
<polygon fill="none" stroke="black" points="1039,-90 884,-90 884,-54 1039,-54 1039,-90"/>
<text text-anchor="middle" x="961.5" y="-68.9" font-family="Times,serif" font-size="12.00">Approve and notify customer</text>
</g>
<!-- 6028639504&#45;&gt;6032828176 -->
<g id="edge8" class="edge">
<title>6028639504&#45;&gt;6032828176</title>
<path fill="none" stroke="black" d="M822.14,-70.52C837.88,-70.69 855.85,-70.88 873.5,-71.07"/>
<polygon fill="black" stroke="black" points="873.8,-74.57 883.84,-71.18 873.88,-67.57 873.8,-74.57"/>
</g>
<!-- 6055767824 -->
<g id="node9" class="node">
<title>6055767824</title>
<polygon fill="none" stroke="black" points="1128,-63 1101,-45 1128,-27 1155,-45 1128,-63"/>
<text text-anchor="middle" x="1128" y="-41.9" font-family="Times,serif" font-size="12.00">X</text>
</g>
<!-- 6034052560&#45;&gt;6055767824 -->
<g id="edge9" class="edge">
<title>6034052560&#45;&gt;6055767824</title>
<path fill="none" stroke="black" d="M1065.28,-34.87C1076.29,-36.68 1086.79,-38.4 1095.89,-39.89"/>
<polygon fill="black" stroke="black" points="1095.46,-43.37 1105.89,-41.54 1096.59,-36.46 1095.46,-43.37"/>
</g>
<!-- 6030234768 -->
<g id="node11" class="node">
<title>6030234768</title>
<polygon fill="none" stroke="black" points="1327,-63 1191,-63 1191,-27 1327,-27 1327,-63"/>
<text text-anchor="middle" x="1259" y="-41.9" font-family="Times,serif" font-size="12.00">Review complaint details</text>
</g>
<!-- 6055767824&#45;&gt;6030234768 -->
<g id="edge11" class="edge">
<title>6055767824&#45;&gt;6030234768</title>
<path fill="none" stroke="black" d="M1155.11,-45C1162.78,-45 1171.6,-45 1180.78,-45"/>
<polygon fill="black" stroke="black" points="1180.84,-48.5 1190.84,-45 1180.84,-41.5 1180.84,-48.5"/>
</g>
<!-- 6032828176&#45;&gt;6055767824 -->
<g id="edge10" class="edge">
<title>6032828176&#45;&gt;6055767824</title>
<path fill="none" stroke="black" d="M1039.45,-59.37C1059.48,-56.08 1079.93,-52.73 1096.02,-50.08"/>
<polygon fill="black" stroke="black" points="1096.62,-53.53 1105.92,-48.46 1095.49,-46.63 1096.62,-53.53"/>
</g>
<!-- 6037999376 -->
<g id="node12" class="node">
<title>6037999376</title>
<polygon fill="none" stroke="black" points="1390,-63 1363,-45 1390,-27 1417,-45 1390,-63"/>
<text text-anchor="middle" x="1390" y="-41.9" font-family="Times,serif" font-size="12.00">X</text>
</g>
<!-- 6030234768&#45;&gt;6037999376 -->
<g id="edge12" class="edge">
<title>6030234768&#45;&gt;6037999376</title>
<path fill="none" stroke="black" d="M1327.14,-45C1336,-45 1344.79,-45 1352.84,-45"/>
<polygon fill="black" stroke="black" points="1352.94,-48.5 1362.94,-45 1352.94,-41.5 1352.94,-48.5"/>
</g>
<!-- 6037202192 -->
<g id="node13" class="node">
<title>6037202192</title>
<polygon fill="none" stroke="black" points="1641,-63 1614,-45 1641,-27 1668,-45 1641,-63"/>
<text text-anchor="middle" x="1641" y="-41.9" font-family="Times,serif" font-size="12.00">X</text>
</g>
<!-- 6037999376&#45;&gt;6037202192 -->
<g id="edge13" class="edge">
<title>6037999376&#45;&gt;6037202192</title>
<path fill="none" stroke="black" d="M1414.24,-46.86C1425.87,-47.69 1440.17,-48.59 1453,-49 1508.53,-50.79 1522.47,-50.79 1578,-49 1587.32,-48.7 1597.42,-48.15 1606.7,-47.54"/>
<polygon fill="black" stroke="black" points="1607.02,-51.03 1616.76,-46.86 1606.54,-44.05 1607.02,-51.03"/>
</g>
<!-- 6029450512 -->
<g id="node14" class="node">
<title>6029450512</title>
<polygon fill="none" stroke="black" points="1578,-40 1453,-40 1453,-4 1578,-4 1578,-40"/>
<text text-anchor="middle" x="1515.5" y="-18.9" font-family="Times,serif" font-size="12.00">Process reimbursement</text>
</g>
<!-- 6037999376&#45;&gt;6029450512 -->
<g id="edge14" class="edge">
<title>6037999376&#45;&gt;6029450512</title>
<path fill="none" stroke="black" d="M1411.39,-41.2C1420.39,-39.53 1431.54,-37.45 1443.16,-35.29"/>
<polygon fill="black" stroke="black" points="1443.81,-38.73 1453,-33.45 1442.53,-31.84 1443.81,-38.73"/>
</g>
<!-- 6031918288 -->
<g id="node15" class="node">
<title>6031918288</title>
<ellipse fill="orange" stroke="black" cx="1722" cy="-45" rx="18" ry="18"/>
</g>
<!-- 6037202192&#45;&gt;6031918288 -->
<g id="edge16" class="edge">
<title>6037202192&#45;&gt;6031918288</title>
<path fill="none" stroke="black" d="M1668.31,-45C1676.42,-45 1685.37,-45 1693.56,-45"/>
<polygon fill="black" stroke="black" points="1693.75,-48.5 1703.75,-45 1693.75,-41.5 1693.75,-48.5"/>
</g>
<!-- 6029450512&#45;&gt;6037202192 -->
<g id="edge15" class="edge">
<title>6029450512&#45;&gt;6037202192</title>
<path fill="none" stroke="black" d="M1578.25,-33.5C1589.12,-35.52 1599.98,-37.55 1609.5,-39.32"/>
<polygon fill="black" stroke="black" points="1609.13,-42.81 1619.61,-41.2 1610.42,-35.93 1609.13,-42.81"/>
</g>
</g>
</svg>
