<?xml version="1.0" encoding="UTF-8" standalone="no"?>
<!DOCTYPE svg PUBLIC "-//W3C//DTD SVG 1.1//EN"
 "http://www.w3.org/Graphics/SVG/1.1/DTD/svg11.dtd">
<!-- Generated by graphviz version 11.0.0 (20240428.1522)
 -->
<!-- Pages: 1 -->
<svg width="4132pt" height="225pt"
 viewBox="0.00 0.00 4131.50 225.00" xmlns="http://www.w3.org/2000/svg" xmlns:xlink="http://www.w3.org/1999/xlink">
<g id="graph0" class="graph" transform="scale(1 1) rotate(0) translate(4 221)">
<polygon fill="white" stroke="none" points="-4,4 -4,-221 4127.5,-221 4127.5,4 -4,4"/>
<!-- 2479414941392 -->
<g id="node1" class="node">
<title>2479414941392</title>
<ellipse fill="green" stroke="black" cx="18" cy="-130" rx="18" ry="18"/>
</g>
<!-- 2479397515920 -->
<g id="node2" class="node">
<title>2479397515920</title>
<polygon fill="none" stroke="black" points="168.25,-148 72,-148 72,-112 168.25,-112 168.25,-148"/>
<text text-anchor="middle" x="120.12" y="-124.97" font-family="Times New Roman,serif" font-size="12.00">Send notification</text>
</g>
<!-- 2479414941392&#45;&gt;2479397515920 -->
<g id="edge1" class="edge">
<title>2479414941392&#45;&gt;2479397515920</title>
<path fill="none" stroke="black" d="M36.44,-130C43.3,-130 51.6,-130 60.26,-130"/>
<polygon fill="black" stroke="black" points="60.26,-133.5 70.26,-130 60.26,-126.5 60.26,-133.5"/>
</g>
<!-- 2479397517072 -->
<g id="node3" class="node">
<title>2479397517072</title>
<polygon fill="none" stroke="black" points="231.25,-148 204.25,-130 231.25,-112 258.25,-130 231.25,-148"/>
<text text-anchor="middle" x="231.25" y="-124.97" font-family="Times New Roman,serif" font-size="12.00">+</text>
</g>
<!-- 2479397515920&#45;&gt;2479397517072 -->
<g id="edge2" class="edge">
<title>2479397515920&#45;&gt;2479397517072</title>
<path fill="none" stroke="black" d="M168.67,-130C176.51,-130 184.55,-130 192.12,-130"/>
<polygon fill="black" stroke="black" points="192.02,-133.5 202.02,-130 192.02,-126.5 192.02,-133.5"/>
</g>
<!-- 2479396705376 -->
<g id="node4" class="node">
<title>2479396705376</title>
<polygon fill="none" stroke="black" points="618,-194 481.25,-194 481.25,-158 618,-158 618,-194"/>
<text text-anchor="middle" x="549.62" y="-170.97" font-family="Times New Roman,serif" font-size="12.00">Check regulatory updates</text>
</g>
<!-- 2479397517072&#45;&gt;2479396705376 -->
<g id="edge3" class="edge">
<title>2479397517072&#45;&gt;2479396705376</title>
<path fill="none" stroke="black" d="M246.54,-137.88C258.81,-144.23 277.16,-152.77 294.25,-157 351.9,-171.27 418.96,-175.8 469.74,-176.88"/>
<polygon fill="black" stroke="black" points="469.41,-180.38 479.46,-177.05 469.52,-173.38 469.41,-180.38"/>
</g>
<!-- 2479397516448 -->
<g id="node5" class="node">
<title>2479397516448</title>
<polygon fill="none" stroke="black" points="445.25,-148 294.25,-148 294.25,-112 445.25,-112 445.25,-148"/>
<text text-anchor="middle" x="369.75" y="-124.97" font-family="Times New Roman,serif" font-size="12.00">Gather necessary documents</text>
</g>
<!-- 2479397517072&#45;&gt;2479397516448 -->
<g id="edge4" class="edge">
<title>2479397517072&#45;&gt;2479397516448</title>
<path fill="none" stroke="black" d="M258.89,-130C266.01,-130 274.11,-130 282.61,-130"/>
<polygon fill="black" stroke="black" points="282.44,-133.5 292.44,-130 282.44,-126.5 282.44,-133.5"/>
</g>
<!-- 2479397550560 -->
<g id="node6" class="node">
<title>2479397550560</title>
<polygon fill="none" stroke="black" points="443.38,-94 296.12,-94 296.12,-58 443.38,-58 443.38,-94"/>
<text text-anchor="middle" x="369.75" y="-70.97" font-family="Times New Roman,serif" font-size="12.00">Prepare financial statements</text>
</g>
<!-- 2479397517072&#45;&gt;2479397550560 -->
<g id="edge5" class="edge">
<title>2479397517072&#45;&gt;2479397550560</title>
<path fill="none" stroke="black" d="M248.19,-122.73C260.65,-117.13 278.44,-109.3 294.25,-103 298.05,-101.48 301.98,-99.96 305.94,-98.44"/>
<polygon fill="black" stroke="black" points="306.95,-101.8 315.07,-95 304.48,-95.25 306.95,-101.8"/>
</g>
<!-- 2479397541680 -->
<g id="node8" class="node">
<title>2479397541680</title>
<polygon fill="none" stroke="black" points="1656,-194 1629,-176 1656,-158 1683,-176 1656,-194"/>
<text text-anchor="middle" x="1656" y="-170.97" font-family="Times New Roman,serif" font-size="12.00">+</text>
</g>
<!-- 2479396705376&#45;&gt;2479397541680 -->
<g id="edge6" class="edge">
<title>2479396705376&#45;&gt;2479397541680</title>
<path fill="none" stroke="black" d="M618.28,-176C678.33,-176 768.44,-176 846.88,-176 846.88,-176 846.88,-176 1441.25,-176 1502.82,-176 1574.36,-176 1617.09,-176"/>
<polygon fill="black" stroke="black" points="1616.83,-179.5 1626.83,-176 1616.83,-172.5 1616.83,-179.5"/>
</g>
<!-- 2479397514576 -->
<g id="node7" class="node">
<title>2479397514576</title>
<polygon fill="none" stroke="black" points="549.62,-117 522.62,-99 549.62,-81 576.62,-99 549.62,-117"/>
<text text-anchor="middle" x="549.62" y="-93.97" font-family="Times New Roman,serif" font-size="12.00">+</text>
</g>
<!-- 2479397516448&#45;&gt;2479397514576 -->
<g id="edge7" class="edge">
<title>2479397516448&#45;&gt;2479397514576</title>
<path fill="none" stroke="black" d="M445.67,-116.94C470.32,-112.65 496.44,-108.1 516.2,-104.65"/>
<polygon fill="black" stroke="black" points="516.59,-108.14 525.84,-102.97 515.39,-101.24 516.59,-108.14"/>
</g>
<!-- 2479397550560&#45;&gt;2479397514576 -->
<g id="edge8" class="edge">
<title>2479397550560&#45;&gt;2479397514576</title>
<path fill="none" stroke="black" d="M443.87,-85.45C468.58,-88.65 494.98,-92.06 515.1,-94.66"/>
<polygon fill="black" stroke="black" points="514.58,-98.13 524.94,-95.94 515.48,-91.18 514.58,-98.13"/>
</g>
<!-- 2479397541488 -->
<g id="node9" class="node">
<title>2479397541488</title>
<polygon fill="none" stroke="black" points="757.75,-117 654,-117 654,-81 757.75,-81 757.75,-117"/>
<text text-anchor="middle" x="705.88" y="-93.97" font-family="Times New Roman,serif" font-size="12.00">Submit documents</text>
</g>
<!-- 2479397514576&#45;&gt;2479397541488 -->
<g id="edge9" class="edge">
<title>2479397514576&#45;&gt;2479397541488</title>
<path fill="none" stroke="black" d="M577.49,-99C595.44,-99 619.81,-99 642.43,-99"/>
<polygon fill="black" stroke="black" points="642.19,-102.5 652.19,-99 642.19,-95.5 642.19,-102.5"/>
</g>
<!-- 2479397541248 -->
<g id="node10" class="node">
<title>2479397541248</title>
<polygon fill="none" stroke="black" points="1893.75,-190 1754.75,-190 1754.75,-154 1893.75,-154 1893.75,-190"/>
<text text-anchor="middle" x="1824.25" y="-166.97" font-family="Times New Roman,serif" font-size="12.00">Evaluate compliance risks</text>
</g>
<!-- 2479397541680&#45;&gt;2479397541248 -->
<g id="edge10" class="edge">
<title>2479397541680&#45;&gt;2479397541248</title>
<path fill="none" stroke="black" d="M1682.61,-175.38C1698.98,-174.99 1721.18,-174.46 1743.1,-173.93"/>
<polygon fill="black" stroke="black" points="1743.08,-177.43 1752.99,-173.69 1742.91,-170.43 1743.08,-177.43"/>
</g>
<!-- 2479397519232 -->
<g id="node11" class="node">
<title>2479397519232</title>
<polygon fill="none" stroke="black" points="902,-117 793.75,-117 793.75,-81 902,-81 902,-117"/>
<text text-anchor="middle" x="847.88" y="-93.97" font-family="Times New Roman,serif" font-size="12.00">Review submission</text>
</g>
<!-- 2479397541488&#45;&gt;2479397519232 -->
<g id="edge11" class="edge">
<title>2479397541488&#45;&gt;2479397519232</title>
<path fill="none" stroke="black" d="M758.21,-99C766.06,-99 774.25,-99 782.34,-99"/>
<polygon fill="black" stroke="black" points="782.15,-102.5 792.15,-99 782.15,-95.5 782.15,-102.5"/>
</g>
<!-- 2479397505744 -->
<g id="node12" class="node">
<title>2479397505744</title>
<polygon fill="none" stroke="black" points="1956.75,-140 1929.75,-122 1956.75,-104 1983.75,-122 1956.75,-140"/>
<text text-anchor="middle" x="1956.75" y="-116.97" font-family="Times New Roman,serif" font-size="12.00">+</text>
</g>
<!-- 2479397541248&#45;&gt;2479397505744 -->
<g id="edge12" class="edge">
<title>2479397541248&#45;&gt;2479397505744</title>
<path fill="none" stroke="black" d="M1873.47,-153.52C1891.94,-146.45 1912.35,-138.63 1928.23,-132.54"/>
<polygon fill="black" stroke="black" points="1929.4,-135.85 1937.48,-129 1926.89,-129.31 1929.4,-135.85"/>
</g>
<!-- 2479397549456 -->
<g id="node13" class="node">
<title>2479397549456</title>
<polygon fill="none" stroke="black" points="965,-117 938,-99 965,-81 992,-99 965,-117"/>
<text text-anchor="middle" x="965" y="-93.97" font-family="Times New Roman,serif" font-size="12.00">X</text>
</g>
<!-- 2479397519232&#45;&gt;2479397549456 -->
<g id="edge13" class="edge">
<title>2479397519232&#45;&gt;2479397549456</title>
<path fill="none" stroke="black" d="M902.39,-99C910.33,-99 918.37,-99 925.91,-99"/>
<polygon fill="black" stroke="black" points="925.74,-102.5 935.74,-99 925.74,-95.5 925.74,-102.5"/>
</g>
<!-- 2479397518800 -->
<g id="node14" class="node">
<title>2479397518800</title>
<polygon fill="none" stroke="black" points="2206.75,-140 2019.75,-140 2019.75,-104 2206.75,-104 2206.75,-140"/>
<text text-anchor="middle" x="2113.25" y="-116.97" font-family="Times New Roman,serif" font-size="12.00">Complete risk assessment/mitigation</text>
</g>
<!-- 2479397505744&#45;&gt;2479397518800 -->
<g id="edge14" class="edge">
<title>2479397505744&#45;&gt;2479397518800</title>
<path fill="none" stroke="black" d="M1984.31,-122C1991.33,-122 1999.35,-122 2007.87,-122"/>
<polygon fill="black" stroke="black" points="2007.81,-125.5 2017.81,-122 2007.81,-118.5 2007.81,-125.5"/>
</g>
<!-- 2479397548880 -->
<g id="node15" class="node">
<title>2479397548880</title>
<polygon fill="none" stroke="black" points="1440.25,-140 1413.25,-122 1440.25,-104 1467.25,-122 1440.25,-140"/>
<text text-anchor="middle" x="1440.25" y="-116.97" font-family="Times New Roman,serif" font-size="12.00">X</text>
</g>
<!-- 2479397549456&#45;&gt;2479397548880 -->
<g id="edge16" class="edge">
<title>2479397549456&#45;&gt;2479397548880</title>
<path fill="none" stroke="black" d="M985.7,-103.67C997.82,-106.33 1013.72,-109.44 1028,-111 1165.54,-126.05 1330.41,-124.62 1402.49,-123.04"/>
<polygon fill="black" stroke="black" points="1402.22,-126.54 1412.13,-122.81 1402.05,-119.54 1402.22,-126.54"/>
</g>
<!-- 2479397515536 -->
<g id="node17" class="node">
<title>2479397515536</title>
<polygon fill="none" stroke="black" points="1224,-102 1028,-102 1028,-66 1224,-66 1224,-102"/>
<text text-anchor="middle" x="1126" y="-78.97" font-family="Times New Roman,serif" font-size="12.00">Request clarifications of discrepancies</text>
</g>
<!-- 2479397549456&#45;&gt;2479397515536 -->
<g id="edge15" class="edge">
<title>2479397549456&#45;&gt;2479397515536</title>
<path fill="none" stroke="black" d="M989.46,-96.79C997.18,-96.06 1006.34,-95.19 1016.19,-94.27"/>
<polygon fill="black" stroke="black" points="1016.44,-97.76 1026.06,-93.33 1015.78,-90.79 1016.44,-97.76"/>
</g>
<!-- 2479396707728 -->
<g id="node16" class="node">
<title>2479396707728</title>
<polygon fill="none" stroke="black" points="2269.75,-140 2242.75,-122 2269.75,-104 2296.75,-122 2269.75,-140"/>
<text text-anchor="middle" x="2269.75" y="-116.97" font-family="Times New Roman,serif" font-size="12.00">X</text>
</g>
<!-- 2479397518800&#45;&gt;2479396707728 -->
<g id="edge17" class="edge">
<title>2479397518800&#45;&gt;2479396707728</title>
<path fill="none" stroke="black" d="M2207.24,-122C2215.45,-122 2223.41,-122 2230.72,-122"/>
<polygon fill="black" stroke="black" points="2230.49,-125.5 2240.49,-122 2230.49,-118.5 2230.49,-125.5"/>
</g>
<!-- 2479397514912 -->
<g id="node20" class="node">
<title>2479397514912</title>
<polygon fill="none" stroke="black" points="1530.25,-140 1503.25,-122 1530.25,-104 1557.25,-122 1530.25,-140"/>
<text text-anchor="middle" x="1530.25" y="-116.97" font-family="Times New Roman,serif" font-size="12.00">+</text>
</g>
<!-- 2479397548880&#45;&gt;2479397514912 -->
<g id="edge18" class="edge">
<title>2479397548880&#45;&gt;2479397514912</title>
<path fill="none" stroke="black" d="M1468.13,-122C1475.38,-122 1483.37,-122 1491.1,-122"/>
<polygon fill="black" stroke="black" points="1491.02,-125.5 1501.02,-122 1491.02,-118.5 1491.02,-125.5"/>
</g>
<!-- 2479397549552 -->
<g id="node18" class="node">
<title>2479397549552</title>
<polygon fill="none" stroke="black" points="2886,-140 2859,-122 2886,-104 2913,-122 2886,-140"/>
<text text-anchor="middle" x="2886" y="-116.97" font-family="Times New Roman,serif" font-size="12.00">X</text>
</g>
<!-- 2479396707728&#45;&gt;2479397549552 -->
<g id="edge20" class="edge">
<title>2479396707728&#45;&gt;2479397549552</title>
<path fill="none" stroke="black" d="M2289.14,-127.64C2333.47,-140.71 2449.94,-172 2549.5,-172 2549.5,-172 2549.5,-172 2674.25,-172 2741.67,-172 2818.04,-147.47 2857.74,-132.78"/>
<polygon fill="black" stroke="black" points="2858.86,-136.1 2866.97,-129.28 2856.38,-129.55 2858.86,-136.1"/>
</g>
<!-- 2479397516832 -->
<g id="node19" class="node">
<title>2479397516832</title>
<polygon fill="none" stroke="black" points="2487.5,-117 2332.75,-117 2332.75,-81 2487.5,-81 2487.5,-117"/>
<text text-anchor="middle" x="2410.12" y="-93.97" font-family="Times New Roman,serif" font-size="12.00">Launch detailed investigation</text>
</g>
<!-- 2479396707728&#45;&gt;2479397516832 -->
<g id="edge19" class="edge">
<title>2479396707728&#45;&gt;2479397516832</title>
<path fill="none" stroke="black" d="M2292.07,-118.46C2300.34,-117.08 2310.4,-115.41 2321.11,-113.63"/>
<polygon fill="black" stroke="black" points="2321.68,-117.08 2330.97,-111.99 2320.53,-110.18 2321.68,-117.08"/>
</g>
<!-- 2479397546768 -->
<g id="node21" class="node">
<title>2479397546768</title>
<polygon fill="none" stroke="black" points="1377.25,-102 1260,-102 1260,-66 1377.25,-66 1377.25,-102"/>
<text text-anchor="middle" x="1318.62" y="-78.97" font-family="Times New Roman,serif" font-size="12.00">Receive clarifications</text>
</g>
<!-- 2479397515536&#45;&gt;2479397546768 -->
<g id="edge21" class="edge">
<title>2479397515536&#45;&gt;2479397546768</title>
<path fill="none" stroke="black" d="M1224.27,-84C1232.41,-84 1240.53,-84 1248.39,-84"/>
<polygon fill="black" stroke="black" points="1248.19,-87.5 1258.19,-84 1248.19,-80.5 1248.19,-87.5"/>
</g>
<!-- 2479397540720 -->
<g id="node23" class="node">
<title>2479397540720</title>
<polygon fill="none" stroke="black" points="3062.5,-140 2949,-140 2949,-104 3062.5,-104 3062.5,-140"/>
<text text-anchor="middle" x="3005.75" y="-116.97" font-family="Times New Roman,serif" font-size="12.00">Compile audit report</text>
</g>
<!-- 2479397549552&#45;&gt;2479397540720 -->
<g id="edge24" class="edge">
<title>2479397549552&#45;&gt;2479397540720</title>
<path fill="none" stroke="black" d="M2913.72,-122C2920.9,-122 2929.01,-122 2937.35,-122"/>
<polygon fill="black" stroke="black" points="2937.28,-125.5 2947.28,-122 2937.28,-118.5 2937.28,-125.5"/>
</g>
<!-- 2479397518320 -->
<g id="node22" class="node">
<title>2479397518320</title>
<polygon fill="none" stroke="black" points="2550.5,-117 2523.5,-99 2550.5,-81 2577.5,-99 2550.5,-117"/>
<text text-anchor="middle" x="2550.5" y="-93.97" font-family="Times New Roman,serif" font-size="12.00">+</text>
</g>
<!-- 2479397516832&#45;&gt;2479397518320 -->
<g id="edge25" class="edge">
<title>2479397516832&#45;&gt;2479397518320</title>
<path fill="none" stroke="black" d="M2487.6,-99C2495.78,-99 2503.83,-99 2511.28,-99"/>
<polygon fill="black" stroke="black" points="2511.27,-102.5 2521.27,-99 2511.27,-95.5 2511.27,-102.5"/>
</g>
<!-- 2479397514912&#45;&gt;2479397541680 -->
<g id="edge22" class="edge">
<title>2479397514912&#45;&gt;2479397541680</title>
<path fill="none" stroke="black" d="M1547.43,-129.06C1567.99,-138.03 1603.78,-153.65 1628.39,-164.39"/>
<polygon fill="black" stroke="black" points="1626.87,-167.54 1637.43,-168.33 1629.67,-161.13 1626.87,-167.54"/>
</g>
<!-- 2479397549888 -->
<g id="node24" class="node">
<title>2479397549888</title>
<polygon fill="none" stroke="black" points="1718.75,-140 1593.25,-140 1593.25,-104 1718.75,-104 1718.75,-140"/>
<text text-anchor="middle" x="1656" y="-116.97" font-family="Times New Roman,serif" font-size="12.00">Evaluate financial risks</text>
</g>
<!-- 2479397514912&#45;&gt;2479397549888 -->
<g id="edge27" class="edge">
<title>2479397514912&#45;&gt;2479397549888</title>
<path fill="none" stroke="black" d="M1558.1,-122C1565.19,-122 1573.19,-122 1581.48,-122"/>
<polygon fill="black" stroke="black" points="1581.39,-125.5 1591.39,-122 1581.39,-118.5 1581.39,-125.5"/>
</g>
<!-- 2479397550896 -->
<g id="node25" class="node">
<title>2479397550896</title>
<polygon fill="none" stroke="black" points="1893,-94 1755.5,-94 1755.5,-58 1893,-58 1893,-94"/>
<text text-anchor="middle" x="1824.25" y="-70.97" font-family="Times New Roman,serif" font-size="12.00">Evaluate operational risks</text>
</g>
<!-- 2479397514912&#45;&gt;2479397550896 -->
<g id="edge26" class="edge">
<title>2479397514912&#45;&gt;2479397550896</title>
<path fill="none" stroke="black" d="M1545.55,-114.16C1557.82,-107.83 1576.17,-99.3 1593.25,-95 1642.31,-82.65 1698.92,-77.86 1743.71,-76.18"/>
<polygon fill="black" stroke="black" points="1743.73,-79.68 1753.61,-75.86 1743.5,-72.68 1743.73,-79.68"/>
</g>
<!-- 2479397546768&#45;&gt;2479397548880 -->
<g id="edge23" class="edge">
<title>2479397546768&#45;&gt;2479397548880</title>
<path fill="none" stroke="black" d="M1377.69,-102.44C1389.07,-106.06 1400.53,-109.7 1410.43,-112.85"/>
<polygon fill="black" stroke="black" points="1409.2,-116.13 1419.79,-115.82 1411.32,-109.46 1409.2,-116.13"/>
</g>
<!-- 2479397517648 -->
<g id="node27" class="node">
<title>2479397517648</title>
<polygon fill="none" stroke="black" points="2727.38,-144 2619.12,-144 2619.12,-108 2727.38,-108 2727.38,-144"/>
<text text-anchor="middle" x="2673.25" y="-120.97" font-family="Times New Roman,serif" font-size="12.00">Conduct interviews</text>
</g>
<!-- 2479397518320&#45;&gt;2479397517648 -->
<g id="edge31" class="edge">
<title>2479397518320&#45;&gt;2479397517648</title>
<path fill="none" stroke="black" d="M2571.44,-103.46C2581.54,-105.72 2594.43,-108.6 2607.6,-111.54"/>
<polygon fill="black" stroke="black" points="2606.67,-114.92 2617.19,-113.69 2608.2,-108.09 2606.67,-114.92"/>
</g>
<!-- 2479397513904 -->
<g id="node28" class="node">
<title>2479397513904</title>
<polygon fill="none" stroke="black" points="2723.25,-90 2623.25,-90 2623.25,-54 2723.25,-54 2723.25,-90"/>
<text text-anchor="middle" x="2673.25" y="-66.97" font-family="Times New Roman,serif" font-size="12.00">Perform site visits</text>
</g>
<!-- 2479397518320&#45;&gt;2479397513904 -->
<g id="edge30" class="edge">
<title>2479397518320&#45;&gt;2479397513904</title>
<path fill="none" stroke="black" d="M2571.44,-94.54C2582.6,-92.05 2597.16,-88.79 2611.74,-85.53"/>
<polygon fill="black" stroke="black" points="2612.36,-88.98 2621.35,-83.38 2610.83,-82.15 2612.36,-88.98"/>
</g>
<!-- 2479397514768 -->
<g id="node29" class="node">
<title>2479397514768</title>
<polygon fill="none" stroke="black" points="2733,-36 2613.5,-36 2613.5,0 2733,0 2733,-36"/>
<text text-anchor="middle" x="2673.25" y="-12.97" font-family="Times New Roman,serif" font-size="12.00">Conduct data analysis</text>
</g>
<!-- 2479397518320&#45;&gt;2479397514768 -->
<g id="edge32" class="edge">
<title>2479397518320&#45;&gt;2479397514768</title>
<path fill="none" stroke="black" d="M2561.72,-88.44C2573.44,-76.75 2593.6,-57.86 2613.5,-45 2615.12,-43.95 2616.79,-42.92 2618.49,-41.92"/>
<polygon fill="black" stroke="black" points="2620.11,-45.02 2627.18,-37.13 2616.73,-38.89 2620.11,-45.02"/>
</g>
<!-- 2479397549600 -->
<g id="node26" class="node">
<title>2479397549600</title>
<polygon fill="none" stroke="black" points="3125.5,-140 3098.5,-122 3125.5,-104 3152.5,-122 3125.5,-140"/>
<text text-anchor="middle" x="3125.5" y="-116.97" font-family="Times New Roman,serif" font-size="12.00">X</text>
</g>
<!-- 2479397540720&#45;&gt;2479397549600 -->
<g id="edge33" class="edge">
<title>2479397540720&#45;&gt;2479397549600</title>
<path fill="none" stroke="black" d="M3062.87,-122C3070.87,-122 3078.95,-122 3086.5,-122"/>
<polygon fill="black" stroke="black" points="3086.33,-125.5 3096.33,-122 3086.33,-118.5 3086.33,-125.5"/>
</g>
<!-- 2479397549888&#45;&gt;2479397505744 -->
<g id="edge28" class="edge">
<title>2479397549888&#45;&gt;2479397505744</title>
<path fill="none" stroke="black" d="M1718.9,-122C1778.87,-122 1867.88,-122 1917.96,-122"/>
<polygon fill="black" stroke="black" points="1917.71,-125.5 1927.71,-122 1917.71,-118.5 1917.71,-125.5"/>
</g>
<!-- 2479397550896&#45;&gt;2479397505744 -->
<g id="edge29" class="edge">
<title>2479397550896&#45;&gt;2479397505744</title>
<path fill="none" stroke="black" d="M1877.58,-94.44C1894.59,-100.44 1912.82,-106.87 1927.39,-112"/>
<polygon fill="black" stroke="black" points="1926.18,-115.29 1936.77,-115.31 1928.51,-108.69 1926.18,-115.29"/>
</g>
<!-- 2479397540480 -->
<g id="node31" class="node">
<title>2479397540480</title>
<polygon fill="none" stroke="black" points="3352.25,-163 3188.5,-163 3188.5,-127 3352.25,-127 3352.25,-163"/>
<text text-anchor="middle" x="3270.38" y="-139.97" font-family="Times New Roman,serif" font-size="12.00">Review report by audit director</text>
</g>
<!-- 2479397549600&#45;&gt;2479397540480 -->
<g id="edge34" class="edge">
<title>2479397549600&#45;&gt;2479397540480</title>
<path fill="none" stroke="black" d="M3147.89,-125.44C3156.09,-126.76 3166.07,-128.37 3176.74,-130.09"/>
<polygon fill="black" stroke="black" points="3176.14,-133.54 3186.56,-131.67 3177.25,-126.62 3176.14,-133.54"/>
</g>
<!-- 2479397541104 -->
<g id="node30" class="node">
<title>2479397541104</title>
<polygon fill="none" stroke="black" points="2796,-117 2769,-99 2796,-81 2823,-99 2796,-117"/>
<text text-anchor="middle" x="2796" y="-93.97" font-family="Times New Roman,serif" font-size="12.00">+</text>
</g>
<!-- 2479397517648&#45;&gt;2479397541104 -->
<g id="edge35" class="edge">
<title>2479397517648&#45;&gt;2479397541104</title>
<path fill="none" stroke="black" d="M2727.56,-114.08C2739.91,-111.32 2752.65,-108.47 2763.68,-106"/>
<polygon fill="black" stroke="black" points="2764.42,-109.42 2773.42,-103.83 2762.9,-102.59 2764.42,-109.42"/>
</g>
<!-- 2479397513904&#45;&gt;2479397541104 -->
<g id="edge36" class="edge">
<title>2479397513904&#45;&gt;2479397541104</title>
<path fill="none" stroke="black" d="M2723.71,-83.06C2737.33,-86.11 2751.72,-89.32 2763.98,-92.06"/>
<polygon fill="black" stroke="black" points="2762.98,-95.43 2773.51,-94.19 2764.51,-88.6 2762.98,-95.43"/>
</g>
<!-- 2479397514768&#45;&gt;2479397541104 -->
<g id="edge37" class="edge">
<title>2479397514768&#45;&gt;2479397541104</title>
<path fill="none" stroke="black" d="M2717.99,-36.4C2723.17,-39.07 2728.29,-41.95 2733,-45 2748.86,-55.25 2764.88,-69.32 2776.67,-80.53"/>
<polygon fill="black" stroke="black" points="2774.09,-82.91 2783.69,-87.38 2778.98,-77.9 2774.09,-82.91"/>
</g>
<!-- 2479397541104&#45;&gt;2479397549552 -->
<g id="edge38" class="edge">
<title>2479397541104&#45;&gt;2479397549552</title>
<path fill="none" stroke="black" d="M2816.09,-103.99C2827.51,-106.97 2842.26,-110.83 2855.19,-114.21"/>
<polygon fill="black" stroke="black" points="2853.92,-117.49 2864.48,-116.64 2855.69,-110.72 2853.92,-117.49"/>
</g>
<!-- 2479397549408 -->
<g id="node32" class="node">
<title>2479397549408</title>
<polygon fill="none" stroke="black" points="3415.25,-163 3388.25,-145 3415.25,-127 3442.25,-145 3415.25,-163"/>
<text text-anchor="middle" x="3415.25" y="-139.97" font-family="Times New Roman,serif" font-size="12.00">X</text>
</g>
<!-- 2479397540480&#45;&gt;2479397549408 -->
<g id="edge39" class="edge">
<title>2479397540480&#45;&gt;2479397549408</title>
<path fill="none" stroke="black" d="M3352.41,-145C3360.58,-145 3368.58,-145 3375.97,-145"/>
<polygon fill="black" stroke="black" points="3375.87,-148.5 3385.87,-145 3375.87,-141.5 3375.87,-148.5"/>
</g>
<!-- 2479396974432 -->
<g id="node33" class="node">
<title>2479396974432</title>
<polygon fill="none" stroke="black" points="3586.5,-217 3497.75,-217 3497.75,-181 3586.5,-181 3586.5,-217"/>
<text text-anchor="middle" x="3542.12" y="-193.97" font-family="Times New Roman,serif" font-size="12.00">Approve report</text>
</g>
<!-- 2479397549408&#45;&gt;2479396974432 -->
<g id="edge41" class="edge">
<title>2479397549408&#45;&gt;2479396974432</title>
<path fill="none" stroke="black" d="M3432.3,-152.02C3444.81,-157.48 3462.63,-165.24 3478.25,-172 3481.37,-173.35 3484.57,-174.73 3487.8,-176.12"/>
<polygon fill="black" stroke="black" points="3486.2,-179.24 3496.77,-179.99 3488.97,-172.82 3486.2,-179.24"/>
</g>
<!-- 2479397516016 -->
<g id="node34" class="node">
<title>2479397516016</title>
<polygon fill="none" stroke="black" points="3606,-163 3478.25,-163 3478.25,-127 3606,-127 3606,-163"/>
<text text-anchor="middle" x="3542.12" y="-139.97" font-family="Times New Roman,serif" font-size="12.00">Send report for revision</text>
</g>
<!-- 2479397549408&#45;&gt;2479397516016 -->
<g id="edge40" class="edge">
<title>2479397549408&#45;&gt;2479397516016</title>
<path fill="none" stroke="black" d="M3443.04,-145C3450.13,-145 3458.15,-145 3466.47,-145"/>
<polygon fill="black" stroke="black" points="3466.43,-148.5 3476.43,-145 3466.43,-141.5 3466.43,-148.5"/>
</g>
<!-- 2479397550224 -->
<g id="node35" class="node">
<title>2479397550224</title>
<polygon fill="none" stroke="black" points="3773.12,-217 3655.88,-217 3655.88,-181 3773.12,-181 3773.12,-217"/>
<text text-anchor="middle" x="3714.5" y="-193.97" font-family="Times New Roman,serif" font-size="12.00">Distribute final report</text>
</g>
<!-- 2479396974432&#45;&gt;2479397550224 -->
<g id="edge42" class="edge">
<title>2479396974432&#45;&gt;2479397550224</title>
<path fill="none" stroke="black" d="M3586.56,-199C3604.11,-199 3624.81,-199 3644.34,-199"/>
<polygon fill="black" stroke="black" points="3644.16,-202.5 3654.16,-199 3644.16,-195.5 3644.16,-202.5"/>
</g>
<!-- 2479397551232 -->
<g id="node36" class="node">
<title>2479397551232</title>
<polygon fill="none" stroke="black" points="3787,-140 3642,-140 3642,-104 3787,-104 3787,-140"/>
<text text-anchor="middle" x="3714.5" y="-116.97" font-family="Times New Roman,serif" font-size="12.00">Update and resubmit report</text>
</g>
<!-- 2479397516016&#45;&gt;2479397551232 -->
<g id="edge43" class="edge">
<title>2479397516016&#45;&gt;2479397551232</title>
<path fill="none" stroke="black" d="M3606.08,-136.5C3614.03,-135.43 3622.26,-134.32 3630.46,-133.21"/>
<polygon fill="black" stroke="black" points="3630.66,-136.71 3640.1,-131.91 3629.72,-129.78 3630.66,-136.71"/>
</g>
<!-- 2479397518176 -->
<g id="node37" class="node">
<title>2479397518176</title>
<polygon fill="none" stroke="black" points="3908,-217 3823,-217 3823,-181 3908,-181 3908,-217"/>
<text text-anchor="middle" x="3865.5" y="-193.97" font-family="Times New Roman,serif" font-size="12.00">Archive report</text>
</g>
<!-- 2479397550224&#45;&gt;2479397518176 -->
<g id="edge45" class="edge">
<title>2479397550224&#45;&gt;2479397518176</title>
<path fill="none" stroke="black" d="M3773.53,-199C3785.92,-199 3798.94,-199 3811.14,-199"/>
<polygon fill="black" stroke="black" points="3811.02,-202.5 3821.02,-199 3811.02,-195.5 3811.02,-202.5"/>
</g>
<!-- 2479397551232&#45;&gt;2479397549600 -->
<g id="edge44" class="edge">
<title>2479397551232&#45;&gt;2479397549600</title>
<path fill="none" stroke="black" d="M3641.52,-118.95C3629.65,-118.56 3617.48,-118.21 3606,-118 3420.48,-114.55 3373.96,-112.02 3188.5,-118 3179.83,-118.28 3170.48,-118.78 3161.75,-119.33"/>
<polygon fill="black" stroke="black" points="3161.58,-115.83 3151.84,-120 3162.05,-122.82 3161.58,-115.83"/>
</g>
<!-- 2479397542736 -->
<g id="node38" class="node">
<title>2479397542736</title>
<polygon fill="none" stroke="black" points="4051.5,-217 3944,-217 3944,-181 4051.5,-181 4051.5,-217"/>
<text text-anchor="middle" x="3997.75" y="-193.97" font-family="Times New Roman,serif" font-size="12.00">Close audit process</text>
</g>
<!-- 2479397518176&#45;&gt;2479397542736 -->
<g id="edge46" class="edge">
<title>2479397518176&#45;&gt;2479397542736</title>
<path fill="none" stroke="black" d="M3908.43,-199C3916.11,-199 3924.29,-199 3932.45,-199"/>
<polygon fill="black" stroke="black" points="3932.41,-202.5 3942.41,-199 3932.41,-195.5 3932.41,-202.5"/>
</g>
<!-- 2479414941488 -->
<g id="node39" class="node">
<title>2479414941488</title>
<ellipse fill="orange" stroke="black" cx="4105.5" cy="-199" rx="18" ry="18"/>
</g>
<!-- 2479397542736&#45;&gt;2479414941488 -->
<g id="edge47" class="edge">
<title>2479397542736&#45;&gt;2479414941488</title>
<path fill="none" stroke="black" d="M4051.93,-199C4060.21,-199 4068.47,-199 4075.91,-199"/>
<polygon fill="black" stroke="black" points="4075.65,-202.5 4085.65,-199 4075.65,-195.5 4075.65,-202.5"/>
</g>
</g>
</svg>
