<?xml version="1.0" encoding="UTF-8" standalone="no"?>
<!DOCTYPE svg PUBLIC "-//W3C//DTD SVG 1.1//EN"
 "http://www.w3.org/Graphics/SVG/1.1/DTD/svg11.dtd">
<!-- Generated by graphviz version 11.0.0 (20240428.1522)
 -->
<!-- Pages: 1 -->
<svg width="4190pt" height="322pt"
 viewBox="0.00 0.00 4189.50 322.12" xmlns="http://www.w3.org/2000/svg" xmlns:xlink="http://www.w3.org/1999/xlink">
<g id="graph0" class="graph" transform="scale(1 1) rotate(0) translate(4 318.12)">
<polygon fill="white" stroke="none" points="-4,4 -4,-318.12 4185.5,-318.12 4185.5,4 -4,4"/>
<!-- 2479397238928 -->
<g id="node1" class="node">
<title>2479397238928</title>
<ellipse fill="green" stroke="black" cx="18" cy="-211.12" rx="18" ry="18"/>
</g>
<!-- 2479397226832 -->
<g id="node2" class="node">
<title>2479397226832</title>
<polygon fill="none" stroke="black" points="168.25,-229.12 72,-229.12 72,-193.12 168.25,-193.12 168.25,-229.12"/>
<text text-anchor="middle" x="120.12" y="-206.1" font-family="Times New Roman,serif" font-size="12.00">Send notification</text>
</g>
<!-- 2479397238928&#45;&gt;2479397226832 -->
<g id="edge1" class="edge">
<title>2479397238928&#45;&gt;2479397226832</title>
<path fill="none" stroke="black" d="M36.44,-211.12C43.3,-211.12 51.6,-211.12 60.26,-211.12"/>
<polygon fill="black" stroke="black" points="60.26,-214.62 70.26,-211.12 60.26,-207.62 60.26,-214.62"/>
</g>
<!-- 2479397226256 -->
<g id="node3" class="node">
<title>2479397226256</title>
<polygon fill="none" stroke="black" points="231.25,-229.12 204.25,-211.12 231.25,-193.12 258.25,-211.12 231.25,-229.12"/>
<text text-anchor="middle" x="231.25" y="-206.1" font-family="Times New Roman,serif" font-size="12.00">+</text>
</g>
<!-- 2479397226832&#45;&gt;2479397226256 -->
<g id="edge2" class="edge">
<title>2479397226832&#45;&gt;2479397226256</title>
<path fill="none" stroke="black" d="M168.67,-211.12C176.51,-211.12 184.55,-211.12 192.12,-211.12"/>
<polygon fill="black" stroke="black" points="192.02,-214.62 202.02,-211.12 192.02,-207.62 192.02,-214.62"/>
</g>
<!-- 2479397206976 -->
<g id="node4" class="node">
<title>2479397206976</title>
<polygon fill="none" stroke="black" points="445.25,-283.12 294.25,-283.12 294.25,-247.12 445.25,-247.12 445.25,-283.12"/>
<text text-anchor="middle" x="369.75" y="-260.1" font-family="Times New Roman,serif" font-size="12.00">Gather necessary documents</text>
</g>
<!-- 2479397226256&#45;&gt;2479397206976 -->
<g id="edge3" class="edge">
<title>2479397226256&#45;&gt;2479397206976</title>
<path fill="none" stroke="black" d="M248.19,-218.39C260.65,-224 278.44,-231.82 294.25,-238.12 298.05,-239.64 301.98,-241.17 305.94,-242.68"/>
<polygon fill="black" stroke="black" points="304.48,-245.87 315.07,-246.12 306.95,-239.32 304.48,-245.87"/>
</g>
<!-- 2479397225824 -->
<g id="node5" class="node">
<title>2479397225824</title>
<polygon fill="none" stroke="black" points="438.12,-229.12 301.38,-229.12 301.38,-193.12 438.12,-193.12 438.12,-229.12"/>
<text text-anchor="middle" x="369.75" y="-206.1" font-family="Times New Roman,serif" font-size="12.00">Check regulatory updates</text>
</g>
<!-- 2479397226256&#45;&gt;2479397225824 -->
<g id="edge4" class="edge">
<title>2479397226256&#45;&gt;2479397225824</title>
<path fill="none" stroke="black" d="M258.89,-211.12C268.03,-211.12 278.77,-211.12 289.9,-211.12"/>
<polygon fill="black" stroke="black" points="289.6,-214.62 299.6,-211.12 289.6,-207.62 289.6,-214.62"/>
</g>
<!-- 2479397230816 -->
<g id="node6" class="node">
<title>2479397230816</title>
<polygon fill="none" stroke="black" points="443.38,-175.12 296.12,-175.12 296.12,-139.12 443.38,-139.12 443.38,-175.12"/>
<text text-anchor="middle" x="369.75" y="-152.1" font-family="Times New Roman,serif" font-size="12.00">Prepare financial statements</text>
</g>
<!-- 2479397226256&#45;&gt;2479397230816 -->
<g id="edge5" class="edge">
<title>2479397226256&#45;&gt;2479397230816</title>
<path fill="none" stroke="black" d="M248.19,-203.85C260.65,-198.25 278.44,-190.42 294.25,-184.12 298.05,-182.61 301.98,-181.08 305.94,-179.56"/>
<polygon fill="black" stroke="black" points="306.95,-182.92 315.07,-176.12 304.48,-176.37 306.95,-182.92"/>
</g>
<!-- 2479397230864 -->
<g id="node7" class="node">
<title>2479397230864</title>
<polygon fill="none" stroke="black" points="508.25,-229.12 481.25,-211.12 508.25,-193.12 535.25,-211.12 508.25,-229.12"/>
<text text-anchor="middle" x="508.25" y="-206.1" font-family="Times New Roman,serif" font-size="12.00">+</text>
</g>
<!-- 2479397206976&#45;&gt;2479397230864 -->
<g id="edge6" class="edge">
<title>2479397206976&#45;&gt;2479397230864</title>
<path fill="none" stroke="black" d="M423.01,-246.66C430.5,-243.87 438.09,-240.97 445.25,-238.12 457.11,-233.4 470.08,-227.81 481.08,-222.95"/>
<polygon fill="black" stroke="black" points="482.22,-226.28 489.93,-219.01 479.37,-219.89 482.22,-226.28"/>
</g>
<!-- 2479397225824&#45;&gt;2479397230864 -->
<g id="edge7" class="edge">
<title>2479397225824&#45;&gt;2479397230864</title>
<path fill="none" stroke="black" d="M438.6,-211.12C449.04,-211.12 459.5,-211.12 468.99,-211.12"/>
<polygon fill="black" stroke="black" points="468.91,-214.62 478.91,-211.12 468.91,-207.62 468.91,-214.62"/>
</g>
<!-- 2479397230816&#45;&gt;2479397230864 -->
<g id="edge8" class="edge">
<title>2479397230816&#45;&gt;2479397230864</title>
<path fill="none" stroke="black" d="M423.01,-175.59C430.5,-178.37 438.09,-181.27 445.25,-184.12 457.11,-188.85 470.08,-194.43 481.08,-199.29"/>
<polygon fill="black" stroke="black" points="479.37,-202.36 489.93,-203.23 482.22,-195.97 479.37,-202.36"/>
</g>
<!-- 2479397231152 -->
<g id="node8" class="node">
<title>2479397231152</title>
<polygon fill="none" stroke="black" points="675,-229.12 571.25,-229.12 571.25,-193.12 675,-193.12 675,-229.12"/>
<text text-anchor="middle" x="623.12" y="-206.1" font-family="Times New Roman,serif" font-size="12.00">Submit documents</text>
</g>
<!-- 2479397230864&#45;&gt;2479397231152 -->
<g id="edge9" class="edge">
<title>2479397230864&#45;&gt;2479397231152</title>
<path fill="none" stroke="black" d="M536,-211.12C543.17,-211.12 551.24,-211.12 559.48,-211.12"/>
<polygon fill="black" stroke="black" points="559.25,-214.62 569.25,-211.12 559.25,-207.62 559.25,-214.62"/>
</g>
<!-- 2479397226496 -->
<g id="node9" class="node">
<title>2479397226496</title>
<polygon fill="none" stroke="black" points="819.25,-229.12 711,-229.12 711,-193.12 819.25,-193.12 819.25,-229.12"/>
<text text-anchor="middle" x="765.12" y="-206.1" font-family="Times New Roman,serif" font-size="12.00">Review submission</text>
</g>
<!-- 2479397231152&#45;&gt;2479397226496 -->
<g id="edge10" class="edge">
<title>2479397231152&#45;&gt;2479397226496</title>
<path fill="none" stroke="black" d="M675.46,-211.12C683.31,-211.12 691.5,-211.12 699.59,-211.12"/>
<polygon fill="black" stroke="black" points="699.4,-214.62 709.4,-211.12 699.4,-207.62 699.4,-214.62"/>
</g>
<!-- 2479397205584 -->
<g id="node10" class="node">
<title>2479397205584</title>
<polygon fill="none" stroke="black" points="882.25,-229.12 855.25,-211.12 882.25,-193.12 909.25,-211.12 882.25,-229.12"/>
<text text-anchor="middle" x="882.25" y="-206.1" font-family="Times New Roman,serif" font-size="12.00">X</text>
</g>
<!-- 2479397226496&#45;&gt;2479397205584 -->
<g id="edge11" class="edge">
<title>2479397226496&#45;&gt;2479397205584</title>
<path fill="none" stroke="black" d="M819.64,-211.12C827.58,-211.12 835.62,-211.12 843.16,-211.12"/>
<polygon fill="black" stroke="black" points="842.99,-214.62 852.99,-211.12 842.99,-207.62 842.99,-214.62"/>
</g>
<!-- 2479397205728 -->
<g id="node11" class="node">
<title>2479397205728</title>
<polygon fill="none" stroke="black" points="1357.5,-229.12 1330.5,-211.12 1357.5,-193.12 1384.5,-211.12 1357.5,-229.12"/>
<text text-anchor="middle" x="1357.5" y="-206.1" font-family="Times New Roman,serif" font-size="12.00">X</text>
</g>
<!-- 2479397205584&#45;&gt;2479397205728 -->
<g id="edge12" class="edge">
<title>2479397205584&#45;&gt;2479397205728</title>
<path fill="none" stroke="black" d="M907.08,-213.02C918.6,-213.85 932.64,-214.72 945.25,-215.12 1100.39,-220.12 1139.36,-220.12 1294.5,-215.12 1303.17,-214.84 1312.52,-214.34 1321.25,-213.79"/>
<polygon fill="black" stroke="black" points="1321.42,-217.29 1331.16,-213.12 1320.95,-210.3 1321.42,-217.29"/>
</g>
<!-- 2479397229712 -->
<g id="node12" class="node">
<title>2479397229712</title>
<polygon fill="none" stroke="black" points="1141.25,-206.12 945.25,-206.12 945.25,-170.12 1141.25,-170.12 1141.25,-206.12"/>
<text text-anchor="middle" x="1043.25" y="-183.1" font-family="Times New Roman,serif" font-size="12.00">Request clarifications of discrepancies</text>
</g>
<!-- 2479397205584&#45;&gt;2479397229712 -->
<g id="edge13" class="edge">
<title>2479397205584&#45;&gt;2479397229712</title>
<path fill="none" stroke="black" d="M905.02,-207.97C913.1,-206.8 922.91,-205.39 933.52,-203.85"/>
<polygon fill="black" stroke="black" points="933.94,-207.33 943.34,-202.43 932.94,-200.4 933.94,-207.33"/>
</g>
<!-- 2479397227216 -->
<g id="node13" class="node">
<title>2479397227216</title>
<polygon fill="none" stroke="black" points="1447.5,-229.12 1420.5,-211.12 1447.5,-193.12 1474.5,-211.12 1447.5,-229.12"/>
<text text-anchor="middle" x="1447.5" y="-206.1" font-family="Times New Roman,serif" font-size="12.00">+</text>
</g>
<!-- 2479397205728&#45;&gt;2479397227216 -->
<g id="edge14" class="edge">
<title>2479397205728&#45;&gt;2479397227216</title>
<path fill="none" stroke="black" d="M1385.38,-211.12C1392.63,-211.12 1400.62,-211.12 1408.35,-211.12"/>
<polygon fill="black" stroke="black" points="1408.27,-214.62 1418.27,-211.12 1408.27,-207.62 1408.27,-214.62"/>
</g>
<!-- 2479397227552 -->
<g id="node14" class="node">
<title>2479397227552</title>
<polygon fill="none" stroke="black" points="1294.5,-206.12 1177.25,-206.12 1177.25,-170.12 1294.5,-170.12 1294.5,-206.12"/>
<text text-anchor="middle" x="1235.88" y="-183.1" font-family="Times New Roman,serif" font-size="12.00">Receive clarifications</text>
</g>
<!-- 2479397229712&#45;&gt;2479397227552 -->
<g id="edge15" class="edge">
<title>2479397229712&#45;&gt;2479397227552</title>
<path fill="none" stroke="black" d="M1141.52,-188.12C1149.66,-188.12 1157.78,-188.12 1165.64,-188.12"/>
<polygon fill="black" stroke="black" points="1165.44,-191.62 1175.44,-188.12 1165.44,-184.62 1165.44,-191.62"/>
</g>
<!-- 2479397207792 -->
<g id="node15" class="node">
<title>2479397207792</title>
<polygon fill="none" stroke="black" points="1649.5,-283.12 1510.5,-283.12 1510.5,-247.12 1649.5,-247.12 1649.5,-283.12"/>
<text text-anchor="middle" x="1580" y="-260.1" font-family="Times New Roman,serif" font-size="12.00">Evaluate compliance risks</text>
</g>
<!-- 2479397227216&#45;&gt;2479397207792 -->
<g id="edge19" class="edge">
<title>2479397227216&#45;&gt;2479397207792</title>
<path fill="none" stroke="black" d="M1464.49,-218.27C1476.97,-223.81 1494.77,-231.6 1510.5,-238.12 1514.03,-239.59 1517.67,-241.08 1521.35,-242.57"/>
<polygon fill="black" stroke="black" points="1519.76,-245.7 1530.34,-246.18 1522.37,-239.21 1519.76,-245.7"/>
</g>
<!-- 2479397225488 -->
<g id="node16" class="node">
<title>2479397225488</title>
<polygon fill="none" stroke="black" points="1642.75,-229.12 1517.25,-229.12 1517.25,-193.12 1642.75,-193.12 1642.75,-229.12"/>
<text text-anchor="middle" x="1580" y="-206.1" font-family="Times New Roman,serif" font-size="12.00">Evaluate financial risks</text>
</g>
<!-- 2479397227216&#45;&gt;2479397225488 -->
<g id="edge18" class="edge">
<title>2479397227216&#45;&gt;2479397225488</title>
<path fill="none" stroke="black" d="M1475.22,-211.12C1484.19,-211.12 1494.67,-211.12 1505.45,-211.12"/>
<polygon fill="black" stroke="black" points="1505.24,-214.62 1515.24,-211.12 1505.24,-207.62 1505.24,-214.62"/>
</g>
<!-- 2479397230480 -->
<g id="node17" class="node">
<title>2479397230480</title>
<polygon fill="none" stroke="black" points="1648.75,-175.12 1511.25,-175.12 1511.25,-139.12 1648.75,-139.12 1648.75,-175.12"/>
<text text-anchor="middle" x="1580" y="-152.1" font-family="Times New Roman,serif" font-size="12.00">Evaluate operational risks</text>
</g>
<!-- 2479397227216&#45;&gt;2479397230480 -->
<g id="edge17" class="edge">
<title>2479397227216&#45;&gt;2479397230480</title>
<path fill="none" stroke="black" d="M1464.49,-203.97C1476.97,-198.44 1494.77,-190.64 1510.5,-184.12 1514.03,-182.66 1517.67,-181.17 1521.35,-179.68"/>
<polygon fill="black" stroke="black" points="1522.37,-183.04 1530.34,-176.06 1519.76,-176.54 1522.37,-183.04"/>
</g>
<!-- 2479397227552&#45;&gt;2479397205728 -->
<g id="edge16" class="edge">
<title>2479397227552&#45;&gt;2479397205728</title>
<path fill="none" stroke="black" d="M1294.94,-199.29C1305.12,-201.24 1315.37,-203.21 1324.5,-204.97"/>
<polygon fill="black" stroke="black" points="1323.81,-208.4 1334.29,-206.85 1325.13,-201.53 1323.81,-208.4"/>
</g>
<!-- 2479397227600 -->
<g id="node18" class="node">
<title>2479397227600</title>
<polygon fill="none" stroke="black" points="1712.5,-229.12 1685.5,-211.12 1712.5,-193.12 1739.5,-211.12 1712.5,-229.12"/>
<text text-anchor="middle" x="1712.5" y="-206.1" font-family="Times New Roman,serif" font-size="12.00">+</text>
</g>
<!-- 2479397207792&#45;&gt;2479397227600 -->
<g id="edge20" class="edge">
<title>2479397207792&#45;&gt;2479397227600</title>
<path fill="none" stroke="black" d="M1628.25,-246.75C1635.39,-243.9 1642.65,-240.96 1649.5,-238.12 1661.29,-233.23 1674.26,-227.62 1685.27,-222.79"/>
<polygon fill="black" stroke="black" points="1686.39,-226.12 1694.12,-218.88 1683.56,-219.72 1686.39,-226.12"/>
</g>
<!-- 2479397225488&#45;&gt;2479397227600 -->
<g id="edge21" class="edge">
<title>2479397225488&#45;&gt;2479397227600</title>
<path fill="none" stroke="black" d="M1643.19,-211.12C1653.44,-211.12 1663.79,-211.12 1673.22,-211.12"/>
<polygon fill="black" stroke="black" points="1673.1,-214.62 1683.1,-211.12 1673.1,-207.62 1673.1,-214.62"/>
</g>
<!-- 2479397230480&#45;&gt;2479397227600 -->
<g id="edge22" class="edge">
<title>2479397230480&#45;&gt;2479397227600</title>
<path fill="none" stroke="black" d="M1628.25,-175.5C1635.39,-178.34 1642.65,-181.28 1649.5,-184.12 1661.29,-189.01 1674.26,-194.62 1685.27,-199.45"/>
<polygon fill="black" stroke="black" points="1683.56,-202.53 1694.12,-203.36 1686.39,-196.12 1683.56,-202.53"/>
</g>
<!-- 2479397227888 -->
<g id="node19" class="node">
<title>2479397227888</title>
<polygon fill="none" stroke="black" points="1962.5,-229.12 1775.5,-229.12 1775.5,-193.12 1962.5,-193.12 1962.5,-229.12"/>
<text text-anchor="middle" x="1869" y="-206.1" font-family="Times New Roman,serif" font-size="12.00">Complete risk assessment/mitigation</text>
</g>
<!-- 2479397227600&#45;&gt;2479397227888 -->
<g id="edge23" class="edge">
<title>2479397227600&#45;&gt;2479397227888</title>
<path fill="none" stroke="black" d="M1740.06,-211.12C1747.08,-211.12 1755.1,-211.12 1763.62,-211.12"/>
<polygon fill="black" stroke="black" points="1763.56,-214.62 1773.56,-211.12 1763.56,-207.62 1763.56,-214.62"/>
</g>
<!-- 2479397205968 -->
<g id="node20" class="node">
<title>2479397205968</title>
<polygon fill="none" stroke="black" points="2025.5,-229.12 1998.5,-211.12 2025.5,-193.12 2052.5,-211.12 2025.5,-229.12"/>
<text text-anchor="middle" x="2025.5" y="-206.1" font-family="Times New Roman,serif" font-size="12.00">X</text>
</g>
<!-- 2479397227888&#45;&gt;2479397205968 -->
<g id="edge24" class="edge">
<title>2479397227888&#45;&gt;2479397205968</title>
<path fill="none" stroke="black" d="M1962.99,-211.12C1971.2,-211.12 1979.16,-211.12 1986.47,-211.12"/>
<polygon fill="black" stroke="black" points="1986.24,-214.62 1996.24,-211.12 1986.24,-207.62 1986.24,-214.62"/>
</g>
<!-- 2479397205680 -->
<g id="node21" class="node">
<title>2479397205680</title>
<polygon fill="none" stroke="black" points="2821.75,-210.12 2794.75,-192.12 2821.75,-174.12 2848.75,-192.12 2821.75,-210.12"/>
<text text-anchor="middle" x="2821.75" y="-187.1" font-family="Times New Roman,serif" font-size="12.00">X</text>
</g>
<!-- 2479397205968&#45;&gt;2479397205680 -->
<g id="edge25" class="edge">
<title>2479397205968&#45;&gt;2479397205680</title>
<path fill="none" stroke="black" d="M2044.21,-217C2087.96,-231 2204.94,-265.12 2305.25,-265.12 2305.25,-265.12 2305.25,-265.12 2642.75,-265.12 2702.73,-265.12 2766.14,-229.21 2798.66,-207.76"/>
<polygon fill="black" stroke="black" points="2800.52,-210.73 2806.84,-202.22 2796.6,-204.93 2800.52,-210.73"/>
</g>
<!-- 2479397228224 -->
<g id="node22" class="node">
<title>2479397228224</title>
<polygon fill="none" stroke="black" points="2243.25,-187.12 2088.5,-187.12 2088.5,-151.12 2243.25,-151.12 2243.25,-187.12"/>
<text text-anchor="middle" x="2165.88" y="-164.1" font-family="Times New Roman,serif" font-size="12.00">Launch detailed investigation</text>
</g>
<!-- 2479397205968&#45;&gt;2479397228224 -->
<g id="edge26" class="edge">
<title>2479397205968&#45;&gt;2479397228224</title>
<path fill="none" stroke="black" d="M2044.88,-205.55C2057.54,-201.7 2075.26,-196.32 2093.2,-190.88"/>
<polygon fill="black" stroke="black" points="2094.06,-194.27 2102.61,-188.02 2092.03,-187.58 2094.06,-194.27"/>
</g>
<!-- 2479397227168 -->
<g id="node23" class="node">
<title>2479397227168</title>
<polygon fill="none" stroke="black" points="2998.25,-210.12 2884.75,-210.12 2884.75,-174.12 2998.25,-174.12 2998.25,-210.12"/>
<text text-anchor="middle" x="2941.5" y="-187.1" font-family="Times New Roman,serif" font-size="12.00">Compile audit report</text>
</g>
<!-- 2479397205680&#45;&gt;2479397227168 -->
<g id="edge27" class="edge">
<title>2479397205680&#45;&gt;2479397227168</title>
<path fill="none" stroke="black" d="M2849.47,-192.12C2856.65,-192.12 2864.76,-192.12 2873.1,-192.12"/>
<polygon fill="black" stroke="black" points="2873.03,-195.62 2883.03,-192.12 2873.03,-188.62 2873.03,-195.62"/>
</g>
<!-- 2479397227648 -->
<g id="node24" class="node">
<title>2479397227648</title>
<polygon fill="none" stroke="black" points="2306.25,-168.12 2279.25,-150.12 2306.25,-132.12 2333.25,-150.12 2306.25,-168.12"/>
<text text-anchor="middle" x="2306.25" y="-145.1" font-family="Times New Roman,serif" font-size="12.00">+</text>
</g>
<!-- 2479397228224&#45;&gt;2479397227648 -->
<g id="edge28" class="edge">
<title>2479397228224&#45;&gt;2479397227648</title>
<path fill="none" stroke="black" d="M2243.35,-158.62C2253.32,-157.25 2263.08,-155.91 2271.8,-154.72"/>
<polygon fill="black" stroke="black" points="2272.04,-158.22 2281.47,-153.39 2271.09,-151.28 2272.04,-158.22"/>
</g>
<!-- 2479397206592 -->
<g id="node28" class="node">
<title>2479397206592</title>
<polygon fill="none" stroke="black" points="3061.25,-210.12 3034.25,-192.12 3061.25,-174.12 3088.25,-192.12 3061.25,-210.12"/>
<text text-anchor="middle" x="3061.25" y="-187.1" font-family="Times New Roman,serif" font-size="12.00">X</text>
</g>
<!-- 2479397227168&#45;&gt;2479397206592 -->
<g id="edge29" class="edge">
<title>2479397227168&#45;&gt;2479397206592</title>
<path fill="none" stroke="black" d="M2998.62,-192.12C3006.62,-192.12 3014.7,-192.12 3022.25,-192.12"/>
<polygon fill="black" stroke="black" points="3022.08,-195.62 3032.08,-192.12 3022.08,-188.62 3022.08,-195.62"/>
</g>
<!-- 2479397206112 -->
<g id="node25" class="node">
<title>2479397206112</title>
<polygon fill="none" stroke="black" points="2396.25,-141.12 2369.25,-123.12 2396.25,-105.12 2423.25,-123.12 2396.25,-141.12"/>
<text text-anchor="middle" x="2396.25" y="-118.1" font-family="Times New Roman,serif" font-size="12.00">X</text>
</g>
<!-- 2479397227648&#45;&gt;2479397206112 -->
<g id="edge31" class="edge">
<title>2479397227648&#45;&gt;2479397206112</title>
<path fill="none" stroke="black" d="M2325.48,-144.53C2337.28,-140.91 2352.9,-136.12 2366.36,-131.99"/>
<polygon fill="black" stroke="black" points="2367.06,-135.43 2375.59,-129.15 2365.01,-128.74 2367.06,-135.43"/>
</g>
<!-- 2479397206256 -->
<g id="node26" class="node">
<title>2479397206256</title>
<polygon fill="none" stroke="black" points="2396.25,-53.12 2369.25,-35.12 2396.25,-17.12 2423.25,-35.12 2396.25,-53.12"/>
<text text-anchor="middle" x="2396.25" y="-30.1" font-family="Times New Roman,serif" font-size="12.00">X</text>
</g>
<!-- 2479397227648&#45;&gt;2479397206256 -->
<g id="edge32" class="edge">
<title>2479397227648&#45;&gt;2479397206256</title>
<path fill="none" stroke="black" d="M2316.34,-138.25C2331.23,-118.78 2361.04,-79.83 2379.45,-55.77"/>
<polygon fill="black" stroke="black" points="2382.13,-58.03 2385.42,-47.96 2376.57,-53.78 2382.13,-58.03"/>
</g>
<!-- 2479397206304 -->
<g id="node27" class="node">
<title>2479397206304</title>
<polygon fill="none" stroke="black" points="2396.25,-195.12 2369.25,-177.12 2396.25,-159.12 2423.25,-177.12 2396.25,-195.12"/>
<text text-anchor="middle" x="2396.25" y="-172.1" font-family="Times New Roman,serif" font-size="12.00">X</text>
</g>
<!-- 2479397227648&#45;&gt;2479397206304 -->
<g id="edge30" class="edge">
<title>2479397227648&#45;&gt;2479397206304</title>
<path fill="none" stroke="black" d="M2325.48,-155.72C2337.28,-159.34 2352.9,-164.13 2366.36,-168.26"/>
<polygon fill="black" stroke="black" points="2365.01,-171.5 2375.59,-171.09 2367.06,-164.81 2365.01,-171.5"/>
</g>
<!-- 2479397205872 -->
<g id="node30" class="node">
<title>2479397205872</title>
<polygon fill="none" stroke="black" points="2641.75,-141.12 2614.75,-123.12 2641.75,-105.12 2668.75,-123.12 2641.75,-141.12"/>
<text text-anchor="middle" x="2641.75" y="-118.1" font-family="Times New Roman,serif" font-size="12.00">X</text>
</g>
<!-- 2479397206112&#45;&gt;2479397205872 -->
<g id="edge33" class="edge">
<title>2479397206112&#45;&gt;2479397205872</title>
<path fill="none" stroke="black" d="M2412.62,-115.67C2424.91,-110.15 2442.75,-103.08 2459.25,-100.12 2511.53,-90.74 2526.47,-90.74 2578.75,-100.12 2590.99,-102.32 2603.98,-106.78 2614.89,-111.19"/>
<polygon fill="black" stroke="black" points="2613.42,-114.37 2623.99,-115.08 2616.17,-107.93 2613.42,-114.37"/>
</g>
<!-- 2479397207312 -->
<g id="node32" class="node">
<title>2479397207312</title>
<polygon fill="none" stroke="black" points="2573.12,-145.12 2464.88,-145.12 2464.88,-109.12 2573.12,-109.12 2573.12,-145.12"/>
<text text-anchor="middle" x="2519" y="-122.1" font-family="Times New Roman,serif" font-size="12.00">Conduct interviews</text>
</g>
<!-- 2479397206112&#45;&gt;2479397207312 -->
<g id="edge34" class="edge">
<title>2479397206112&#45;&gt;2479397207312</title>
<path fill="none" stroke="black" d="M2422.86,-123.97C2431.9,-124.27 2442.52,-124.62 2453.33,-124.98"/>
<polygon fill="black" stroke="black" points="2452.97,-128.47 2463.09,-125.3 2453.21,-121.47 2452.97,-128.47"/>
</g>
<!-- 2479397205488 -->
<g id="node29" class="node">
<title>2479397205488</title>
<polygon fill="none" stroke="black" points="2641.75,-53.12 2614.75,-35.12 2641.75,-17.12 2668.75,-35.12 2641.75,-53.12"/>
<text text-anchor="middle" x="2641.75" y="-30.1" font-family="Times New Roman,serif" font-size="12.00">X</text>
</g>
<!-- 2479397206256&#45;&gt;2479397205488 -->
<g id="edge36" class="edge">
<title>2479397206256&#45;&gt;2479397205488</title>
<path fill="none" stroke="black" d="M2411.47,-26.92C2423.69,-20.37 2442.01,-11.71 2459.25,-8.12 2511.25,2.71 2526.75,2.71 2578.75,-8.12 2591.68,-10.82 2605.22,-16.36 2616.34,-21.72"/>
<polygon fill="black" stroke="black" points="2614.68,-24.81 2625.18,-26.23 2617.86,-18.57 2614.68,-24.81"/>
</g>
<!-- 2479397225152 -->
<g id="node34" class="node">
<title>2479397225152</title>
<polygon fill="none" stroke="black" points="2578.75,-53.12 2459.25,-53.12 2459.25,-17.12 2578.75,-17.12 2578.75,-53.12"/>
<text text-anchor="middle" x="2519" y="-30.1" font-family="Times New Roman,serif" font-size="12.00">Conduct data analysis</text>
</g>
<!-- 2479397206256&#45;&gt;2479397225152 -->
<g id="edge35" class="edge">
<title>2479397206256&#45;&gt;2479397225152</title>
<path fill="none" stroke="black" d="M2424.05,-35.12C2431.21,-35.12 2439.3,-35.12 2447.66,-35.12"/>
<polygon fill="black" stroke="black" points="2447.63,-38.62 2457.63,-35.12 2447.63,-31.62 2447.63,-38.62"/>
</g>
<!-- 2479397206640 -->
<g id="node31" class="node">
<title>2479397206640</title>
<polygon fill="none" stroke="black" points="2641.75,-195.12 2614.75,-177.12 2641.75,-159.12 2668.75,-177.12 2641.75,-195.12"/>
<text text-anchor="middle" x="2641.75" y="-172.1" font-family="Times New Roman,serif" font-size="12.00">X</text>
</g>
<!-- 2479397206304&#45;&gt;2479397206640 -->
<g id="edge38" class="edge">
<title>2479397206304&#45;&gt;2479397206640</title>
<path fill="none" stroke="black" d="M2423.77,-177.12C2467.02,-177.12 2552.89,-177.12 2602.66,-177.12"/>
<polygon fill="black" stroke="black" points="2602.38,-180.62 2612.38,-177.12 2602.38,-173.62 2602.38,-180.62"/>
</g>
<!-- 2479397228944 -->
<g id="node35" class="node">
<title>2479397228944</title>
<polygon fill="none" stroke="black" points="2569,-237.12 2469,-237.12 2469,-201.12 2569,-201.12 2569,-237.12"/>
<text text-anchor="middle" x="2519" y="-214.1" font-family="Times New Roman,serif" font-size="12.00">Perform site visits</text>
</g>
<!-- 2479397206304&#45;&gt;2479397228944 -->
<g id="edge37" class="edge">
<title>2479397206304&#45;&gt;2479397228944</title>
<path fill="none" stroke="black" d="M2414.81,-183.23C2426.29,-187.22 2442.02,-192.7 2457.74,-198.16"/>
<polygon fill="black" stroke="black" points="2456.55,-201.46 2467.15,-201.43 2458.85,-194.84 2456.55,-201.46"/>
</g>
<!-- 2479397207696 -->
<g id="node33" class="node">
<title>2479397207696</title>
<polygon fill="none" stroke="black" points="3288,-233.12 3124.25,-233.12 3124.25,-197.12 3288,-197.12 3288,-233.12"/>
<text text-anchor="middle" x="3206.12" y="-210.1" font-family="Times New Roman,serif" font-size="12.00">Review report by audit director</text>
</g>
<!-- 2479397206592&#45;&gt;2479397207696 -->
<g id="edge39" class="edge">
<title>2479397206592&#45;&gt;2479397207696</title>
<path fill="none" stroke="black" d="M3083.64,-195.57C3091.84,-196.89 3101.82,-198.49 3112.49,-200.21"/>
<polygon fill="black" stroke="black" points="3111.89,-203.66 3122.31,-201.79 3113,-196.75 3111.89,-203.66"/>
</g>
<!-- 2479397207360 -->
<g id="node37" class="node">
<title>2479397207360</title>
<polygon fill="none" stroke="black" points="2731.75,-168.12 2704.75,-150.12 2731.75,-132.12 2758.75,-150.12 2731.75,-168.12"/>
<text text-anchor="middle" x="2731.75" y="-145.1" font-family="Times New Roman,serif" font-size="12.00">+</text>
</g>
<!-- 2479397205488&#45;&gt;2479397207360 -->
<g id="edge43" class="edge">
<title>2479397205488&#45;&gt;2479397207360</title>
<path fill="none" stroke="black" d="M2651.84,-47C2666.73,-66.47 2696.54,-105.41 2714.95,-129.48"/>
<polygon fill="black" stroke="black" points="2712.07,-131.47 2720.92,-137.28 2717.63,-127.21 2712.07,-131.47"/>
</g>
<!-- 2479397205872&#45;&gt;2479397207360 -->
<g id="edge44" class="edge">
<title>2479397205872&#45;&gt;2479397207360</title>
<path fill="none" stroke="black" d="M2660.98,-128.72C2672.78,-132.34 2688.4,-137.13 2701.86,-141.26"/>
<polygon fill="black" stroke="black" points="2700.51,-144.5 2711.09,-144.09 2702.56,-137.81 2700.51,-144.5"/>
</g>
<!-- 2479397206640&#45;&gt;2479397207360 -->
<g id="edge45" class="edge">
<title>2479397206640&#45;&gt;2479397207360</title>
<path fill="none" stroke="black" d="M2660.98,-171.53C2672.78,-167.91 2688.4,-163.12 2701.86,-158.99"/>
<polygon fill="black" stroke="black" points="2702.56,-162.43 2711.09,-156.15 2700.51,-155.74 2702.56,-162.43"/>
</g>
<!-- 2479397207312&#45;&gt;2479397205872 -->
<g id="edge40" class="edge">
<title>2479397207312&#45;&gt;2479397205872</title>
<path fill="none" stroke="black" d="M2573.31,-125.36C2583.64,-125.01 2594.26,-124.66 2603.91,-124.34"/>
<polygon fill="black" stroke="black" points="2603.75,-127.85 2613.62,-124.02 2603.51,-120.85 2603.75,-127.85"/>
</g>
<!-- 2479397206736 -->
<g id="node36" class="node">
<title>2479397206736</title>
<polygon fill="none" stroke="black" points="3351,-233.12 3324,-215.12 3351,-197.12 3378,-215.12 3351,-233.12"/>
<text text-anchor="middle" x="3351" y="-210.1" font-family="Times New Roman,serif" font-size="12.00">X</text>
</g>
<!-- 2479397207696&#45;&gt;2479397206736 -->
<g id="edge46" class="edge">
<title>2479397207696&#45;&gt;2479397206736</title>
<path fill="none" stroke="black" d="M3288.16,-215.12C3296.33,-215.12 3304.33,-215.12 3311.72,-215.12"/>
<polygon fill="black" stroke="black" points="3311.62,-218.62 3321.62,-215.12 3311.62,-211.62 3311.62,-218.62"/>
</g>
<!-- 2479397225152&#45;&gt;2479397205488 -->
<g id="edge41" class="edge">
<title>2479397225152&#45;&gt;2479397205488</title>
<path fill="none" stroke="black" d="M2578.96,-35.12C2587.05,-35.12 2595.18,-35.12 2602.76,-35.12"/>
<polygon fill="black" stroke="black" points="2602.62,-38.62 2612.62,-35.12 2602.62,-31.62 2602.62,-38.62"/>
</g>
<!-- 2479397228944&#45;&gt;2479397206640 -->
<g id="edge42" class="edge">
<title>2479397228944&#45;&gt;2479397206640</title>
<path fill="none" stroke="black" d="M2569.46,-201.92C2584.17,-196.8 2599.77,-191.38 2612.62,-186.91"/>
<polygon fill="black" stroke="black" points="2613.38,-190.35 2621.68,-183.76 2611.08,-183.74 2613.38,-190.35"/>
</g>
<!-- 2479397226160 -->
<g id="node38" class="node">
<title>2479397226160</title>
<polygon fill="none" stroke="black" points="3541.75,-233.12 3414,-233.12 3414,-197.12 3541.75,-197.12 3541.75,-233.12"/>
<text text-anchor="middle" x="3477.88" y="-210.1" font-family="Times New Roman,serif" font-size="12.00">Send report for revision</text>
</g>
<!-- 2479397206736&#45;&gt;2479397226160 -->
<g id="edge48" class="edge">
<title>2479397206736&#45;&gt;2479397226160</title>
<path fill="none" stroke="black" d="M3378.79,-215.12C3385.88,-215.12 3393.9,-215.12 3402.22,-215.12"/>
<polygon fill="black" stroke="black" points="3402.18,-218.62 3412.18,-215.12 3402.18,-211.62 3402.18,-218.62"/>
</g>
<!-- 2479397228560 -->
<g id="node39" class="node">
<title>2479397228560</title>
<polygon fill="none" stroke="black" points="3522.25,-287.12 3433.5,-287.12 3433.5,-251.12 3522.25,-251.12 3522.25,-287.12"/>
<text text-anchor="middle" x="3477.88" y="-264.1" font-family="Times New Roman,serif" font-size="12.00">Approve report</text>
</g>
<!-- 2479397206736&#45;&gt;2479397228560 -->
<g id="edge49" class="edge">
<title>2479397206736&#45;&gt;2479397228560</title>
<path fill="none" stroke="black" d="M3368.05,-222.14C3380.56,-227.6 3398.38,-235.37 3414,-242.12 3417.12,-243.47 3420.32,-244.85 3423.55,-246.25"/>
<polygon fill="black" stroke="black" points="3421.95,-249.37 3432.52,-250.11 3424.72,-242.94 3421.95,-249.37"/>
</g>
<!-- 2479397207360&#45;&gt;2479397205680 -->
<g id="edge47" class="edge">
<title>2479397207360&#45;&gt;2479397205680</title>
<path fill="none" stroke="black" d="M2748.08,-157.44C2761,-163.6 2779.75,-172.56 2794.98,-179.82"/>
<polygon fill="black" stroke="black" points="2793.4,-182.95 2803.94,-184.1 2796.42,-176.63 2793.4,-182.95"/>
</g>
<!-- 2479397229280 -->
<g id="node41" class="node">
<title>2479397229280</title>
<polygon fill="none" stroke="black" points="3722.75,-210.12 3577.75,-210.12 3577.75,-174.12 3722.75,-174.12 3722.75,-210.12"/>
<text text-anchor="middle" x="3650.25" y="-187.1" font-family="Times New Roman,serif" font-size="12.00">Update and resubmit report</text>
</g>
<!-- 2479397226160&#45;&gt;2479397229280 -->
<g id="edge50" class="edge">
<title>2479397226160&#45;&gt;2479397229280</title>
<path fill="none" stroke="black" d="M3541.83,-206.62C3549.78,-205.55 3558.01,-204.44 3566.21,-203.33"/>
<polygon fill="black" stroke="black" points="3566.41,-206.84 3575.85,-202.03 3565.47,-199.9 3566.41,-206.84"/>
</g>
<!-- 2479397227984 -->
<g id="node40" class="node">
<title>2479397227984</title>
<polygon fill="none" stroke="black" points="3650.25,-287.12 3623.25,-269.12 3650.25,-251.12 3677.25,-269.12 3650.25,-287.12"/>
<text text-anchor="middle" x="3650.25" y="-264.1" font-family="Times New Roman,serif" font-size="12.00">+</text>
</g>
<!-- 2479397228560&#45;&gt;2479397227984 -->
<g id="edge51" class="edge">
<title>2479397228560&#45;&gt;2479397227984</title>
<path fill="none" stroke="black" d="M3522.31,-269.12C3549.67,-269.12 3584.66,-269.12 3610.97,-269.12"/>
<polygon fill="black" stroke="black" points="3610.88,-272.62 3620.88,-269.12 3610.88,-265.62 3610.88,-272.62"/>
</g>
<!-- 2479397224816 -->
<g id="node42" class="node">
<title>2479397224816</title>
<polygon fill="none" stroke="black" points="3876,-314.12 3758.75,-314.12 3758.75,-278.12 3876,-278.12 3876,-314.12"/>
<text text-anchor="middle" x="3817.38" y="-291.1" font-family="Times New Roman,serif" font-size="12.00">Distribute final report</text>
</g>
<!-- 2479397227984&#45;&gt;2479397224816 -->
<g id="edge54" class="edge">
<title>2479397227984&#45;&gt;2479397224816</title>
<path fill="none" stroke="black" d="M3672.84,-272.65C3691.81,-275.75 3720.48,-280.44 3747.23,-284.82"/>
<polygon fill="black" stroke="black" points="3746.61,-288.26 3757.04,-286.42 3747.74,-281.35 3746.61,-288.26"/>
</g>
<!-- 2479397230048 -->
<g id="node43" class="node">
<title>2479397230048</title>
<polygon fill="none" stroke="black" points="3859.88,-260.12 3774.88,-260.12 3774.88,-224.12 3859.88,-224.12 3859.88,-260.12"/>
<text text-anchor="middle" x="3817.38" y="-237.1" font-family="Times New Roman,serif" font-size="12.00">Archive report</text>
</g>
<!-- 2479397227984&#45;&gt;2479397230048 -->
<g id="edge53" class="edge">
<title>2479397227984&#45;&gt;2479397230048</title>
<path fill="none" stroke="black" d="M3672.84,-265.59C3695.73,-261.85 3732.75,-255.8 3763.46,-250.78"/>
<polygon fill="black" stroke="black" points="3763.65,-254.29 3772.95,-249.22 3762.52,-247.38 3763.65,-254.29"/>
</g>
<!-- 2479397229280&#45;&gt;2479397206592 -->
<g id="edge52" class="edge">
<title>2479397229280&#45;&gt;2479397206592</title>
<path fill="none" stroke="black" d="M3577.27,-189.07C3565.4,-188.68 3553.23,-188.34 3541.75,-188.12 3356.23,-184.67 3309.71,-182.15 3124.25,-188.12 3115.58,-188.4 3106.23,-188.9 3097.5,-189.45"/>
<polygon fill="black" stroke="black" points="3097.33,-185.96 3087.59,-190.12 3097.8,-192.94 3097.33,-185.96"/>
</g>
<!-- 2479397231200 -->
<g id="node44" class="node">
<title>2479397231200</title>
<polygon fill="none" stroke="black" points="3939,-287.12 3912,-269.12 3939,-251.12 3966,-269.12 3939,-287.12"/>
<text text-anchor="middle" x="3939" y="-264.1" font-family="Times New Roman,serif" font-size="12.00">+</text>
</g>
<!-- 2479397224816&#45;&gt;2479397231200 -->
<g id="edge55" class="edge">
<title>2479397224816&#45;&gt;2479397231200</title>
<path fill="none" stroke="black" d="M3876.44,-283.02C3886.98,-280.64 3897.6,-278.24 3906.98,-276.12"/>
<polygon fill="black" stroke="black" points="3907.64,-279.56 3916.63,-273.95 3906.1,-272.73 3907.64,-279.56"/>
</g>
<!-- 2479397230048&#45;&gt;2479397231200 -->
<g id="edge56" class="edge">
<title>2479397230048&#45;&gt;2479397231200</title>
<path fill="none" stroke="black" d="M3860.21,-251.57C3875.58,-255.04 3892.7,-258.9 3906.95,-262.12"/>
<polygon fill="black" stroke="black" points="3906.15,-265.52 3916.68,-264.31 3907.69,-258.69 3906.15,-265.52"/>
</g>
<!-- 2479397231488 -->
<g id="node45" class="node">
<title>2479397231488</title>
<polygon fill="none" stroke="black" points="4109.5,-287.12 4002,-287.12 4002,-251.12 4109.5,-251.12 4109.5,-287.12"/>
<text text-anchor="middle" x="4055.75" y="-264.1" font-family="Times New Roman,serif" font-size="12.00">Close audit process</text>
</g>
<!-- 2479397231200&#45;&gt;2479397231488 -->
<g id="edge57" class="edge">
<title>2479397231200&#45;&gt;2479397231488</title>
<path fill="none" stroke="black" d="M3966.61,-269.12C3973.81,-269.12 3981.91,-269.12 3990.22,-269.12"/>
<polygon fill="black" stroke="black" points="3990.1,-272.62 4000.1,-269.12 3990.1,-265.62 3990.1,-272.62"/>
</g>
<!-- 2479397239024 -->
<g id="node46" class="node">
<title>2479397239024</title>
<ellipse fill="orange" stroke="black" cx="4163.5" cy="-269.12" rx="18" ry="18"/>
</g>
<!-- 2479397231488&#45;&gt;2479397239024 -->
<g id="edge58" class="edge">
<title>2479397231488&#45;&gt;2479397239024</title>
<path fill="none" stroke="black" d="M4109.93,-269.12C4118.21,-269.12 4126.47,-269.12 4133.91,-269.12"/>
<polygon fill="black" stroke="black" points="4133.65,-272.62 4143.65,-269.12 4133.65,-265.62 4133.65,-272.62"/>
</g>
</g>
</svg>
