<?xml version="1.0" encoding="UTF-8" standalone="no"?>
<!DOCTYPE svg PUBLIC "-//W3C//DTD SVG 1.1//EN"
 "http://www.w3.org/Graphics/SVG/1.1/DTD/svg11.dtd">
<!-- Generated by graphviz version 11.0.0 (20240428.1522)
 -->
<!-- Pages: 1 -->
<svg width="4099pt" height="152pt"
 viewBox="0.00 0.00 4098.75 152.00" xmlns="http://www.w3.org/2000/svg" xmlns:xlink="http://www.w3.org/1999/xlink">
<g id="graph0" class="graph" transform="scale(1 1) rotate(0) translate(4 148)">
<polygon fill="white" stroke="none" points="-4,4 -4,-148 4094.75,-148 4094.75,4 -4,4"/>
<!-- 2479394092960 -->
<g id="node1" class="node">
<title>2479394092960</title>
<ellipse fill="green" stroke="black" cx="18" cy="-72" rx="18" ry="18"/>
</g>
<!-- 2479394159456 -->
<g id="node2" class="node">
<title>2479394159456</title>
<polygon fill="none" stroke="black" points="179.5,-90 72,-90 72,-54 179.5,-54 179.5,-90"/>
<text text-anchor="middle" x="125.75" y="-66.97" font-family="Times New Roman,serif" font-size="12.00">Close audit process</text>
</g>
<!-- 2479394092960&#45;&gt;2479394159456 -->
<g id="edge1" class="edge">
<title>2479394092960&#45;&gt;2479394159456</title>
<path fill="none" stroke="black" d="M36.46,-72C43.31,-72 51.62,-72 60.38,-72"/>
<polygon fill="black" stroke="black" points="60.11,-75.5 70.11,-72 60.11,-68.5 60.11,-75.5"/>
</g>
<!-- 2479394082784 -->
<g id="node3" class="node">
<title>2479394082784</title>
<polygon fill="none" stroke="black" points="300.5,-90 215.5,-90 215.5,-54 300.5,-54 300.5,-90"/>
<text text-anchor="middle" x="258" y="-66.97" font-family="Times New Roman,serif" font-size="12.00">Archive report</text>
</g>
<!-- 2479394159456&#45;&gt;2479394082784 -->
<g id="edge2" class="edge">
<title>2479394159456&#45;&gt;2479394082784</title>
<path fill="none" stroke="black" d="M179.73,-72C187.68,-72 195.88,-72 203.83,-72"/>
<polygon fill="black" stroke="black" points="203.74,-75.5 213.74,-72 203.74,-68.5 203.74,-75.5"/>
</g>
<!-- 2479394293808 -->
<g id="node4" class="node">
<title>2479394293808</title>
<polygon fill="none" stroke="black" points="453.75,-90 336.5,-90 336.5,-54 453.75,-54 453.75,-90"/>
<text text-anchor="middle" x="395.12" y="-66.97" font-family="Times New Roman,serif" font-size="12.00">Distribute final report</text>
</g>
<!-- 2479394082784&#45;&gt;2479394293808 -->
<g id="edge3" class="edge">
<title>2479394082784&#45;&gt;2479394293808</title>
<path fill="none" stroke="black" d="M300.64,-72C308.43,-72 316.75,-72 325.11,-72"/>
<polygon fill="black" stroke="black" points="324.96,-75.5 334.96,-72 324.96,-68.5 324.96,-75.5"/>
</g>
<!-- 2479394094496 -->
<g id="node5" class="node">
<title>2479394094496</title>
<polygon fill="none" stroke="black" points="578.5,-90 489.75,-90 489.75,-54 578.5,-54 578.5,-90"/>
<text text-anchor="middle" x="534.12" y="-66.97" font-family="Times New Roman,serif" font-size="12.00">Approve report</text>
</g>
<!-- 2479394293808&#45;&gt;2479394094496 -->
<g id="edge4" class="edge">
<title>2479394293808&#45;&gt;2479394094496</title>
<path fill="none" stroke="black" d="M454.23,-72C462.16,-72 470.29,-72 478.17,-72"/>
<polygon fill="black" stroke="black" points="477.97,-75.5 487.97,-72 477.97,-68.5 477.97,-75.5"/>
</g>
<!-- 2479394295248 -->
<g id="node6" class="node">
<title>2479394295248</title>
<polygon fill="none" stroke="black" points="778.25,-90 614.5,-90 614.5,-54 778.25,-54 778.25,-90"/>
<text text-anchor="middle" x="696.38" y="-66.97" font-family="Times New Roman,serif" font-size="12.00">Review report by audit director</text>
</g>
<!-- 2479394094496&#45;&gt;2479394295248 -->
<g id="edge5" class="edge">
<title>2479394094496&#45;&gt;2479394295248</title>
<path fill="none" stroke="black" d="M578.91,-72C586.43,-72 594.49,-72 602.73,-72"/>
<polygon fill="black" stroke="black" points="602.53,-75.5 612.53,-72 602.53,-68.5 602.53,-75.5"/>
</g>
<!-- 2479394294672 -->
<g id="node7" class="node">
<title>2479394294672</title>
<polygon fill="none" stroke="black" points="959.25,-90 814.25,-90 814.25,-54 959.25,-54 959.25,-90"/>
<text text-anchor="middle" x="886.75" y="-66.97" font-family="Times New Roman,serif" font-size="12.00">Update and resubmit report</text>
</g>
<!-- 2479394295248&#45;&gt;2479394294672 -->
<g id="edge6" class="edge">
<title>2479394295248&#45;&gt;2479394294672</title>
<path fill="none" stroke="black" d="M778.63,-72C786.52,-72 794.54,-72 802.46,-72"/>
<polygon fill="black" stroke="black" points="802.44,-75.5 812.44,-72 802.44,-68.5 802.44,-75.5"/>
</g>
<!-- 2479394093056 -->
<g id="node8" class="node">
<title>2479394093056</title>
<polygon fill="none" stroke="black" points="1123,-90 995.25,-90 995.25,-54 1123,-54 1123,-90"/>
<text text-anchor="middle" x="1059.12" y="-66.97" font-family="Times New Roman,serif" font-size="12.00">Send report for revision</text>
</g>
<!-- 2479394294672&#45;&gt;2479394093056 -->
<g id="edge7" class="edge">
<title>2479394294672&#45;&gt;2479394093056</title>
<path fill="none" stroke="black" d="M959.51,-72C967.39,-72 975.43,-72 983.35,-72"/>
<polygon fill="black" stroke="black" points="983.32,-75.5 993.32,-72 983.32,-68.5 983.32,-75.5"/>
</g>
<!-- 2479394081296 -->
<g id="node9" class="node">
<title>2479394081296</title>
<polygon fill="none" stroke="black" points="1322.75,-90 1159,-90 1159,-54 1322.75,-54 1322.75,-90"/>
<text text-anchor="middle" x="1240.88" y="-66.97" font-family="Times New Roman,serif" font-size="12.00">Review report by audit director</text>
</g>
<!-- 2479394093056&#45;&gt;2479394081296 -->
<g id="edge8" class="edge">
<title>2479394093056&#45;&gt;2479394081296</title>
<path fill="none" stroke="black" d="M1123.5,-72C1131.26,-72 1139.31,-72 1147.4,-72"/>
<polygon fill="black" stroke="black" points="1147.3,-75.5 1157.3,-72 1147.3,-68.5 1147.3,-75.5"/>
</g>
<!-- 2479394150096 -->
<g id="node10" class="node">
<title>2479394150096</title>
<polygon fill="none" stroke="black" points="1472.25,-90 1358.75,-90 1358.75,-54 1472.25,-54 1472.25,-90"/>
<text text-anchor="middle" x="1415.5" y="-66.97" font-family="Times New Roman,serif" font-size="12.00">Compile audit report</text>
</g>
<!-- 2479394081296&#45;&gt;2479394150096 -->
<g id="edge9" class="edge">
<title>2479394081296&#45;&gt;2479394150096</title>
<path fill="none" stroke="black" d="M1323.13,-72C1331.12,-72 1339.17,-72 1347,-72"/>
<polygon fill="black" stroke="black" points="1346.78,-75.5 1356.78,-72 1346.78,-68.5 1346.78,-75.5"/>
</g>
<!-- 2479394095072 -->
<g id="node11" class="node">
<title>2479394095072</title>
<polygon fill="none" stroke="black" points="1695.25,-90 1508.25,-90 1508.25,-54 1695.25,-54 1695.25,-90"/>
<text text-anchor="middle" x="1601.75" y="-66.97" font-family="Times New Roman,serif" font-size="12.00">Complete risk assessment/mitigation</text>
</g>
<!-- 2479394150096&#45;&gt;2479394095072 -->
<g id="edge10" class="edge">
<title>2479394150096&#45;&gt;2479394095072</title>
<path fill="none" stroke="black" d="M1472.53,-72C1480.25,-72 1488.36,-72 1496.61,-72"/>
<polygon fill="black" stroke="black" points="1496.4,-75.5 1506.4,-72 1496.4,-68.5 1496.4,-75.5"/>
</g>
<!-- 2479394151008 -->
<g id="node12" class="node">
<title>2479394151008</title>
<polygon fill="none" stroke="black" points="1831.25,-90 1731.25,-90 1731.25,-54 1831.25,-54 1831.25,-90"/>
<text text-anchor="middle" x="1781.25" y="-66.97" font-family="Times New Roman,serif" font-size="12.00">Perform site visits</text>
</g>
<!-- 2479394095072&#45;&gt;2479394151008 -->
<g id="edge11" class="edge">
<title>2479394095072&#45;&gt;2479394151008</title>
<path fill="none" stroke="black" d="M1695.66,-72C1703.79,-72 1711.88,-72 1719.64,-72"/>
<polygon fill="black" stroke="black" points="1719.63,-75.5 1729.63,-72 1719.63,-68.5 1719.63,-75.5"/>
</g>
<!-- 2479394297168 -->
<g id="node13" class="node">
<title>2479394297168</title>
<polygon fill="none" stroke="black" points="1975.5,-90 1867.25,-90 1867.25,-54 1975.5,-54 1975.5,-90"/>
<text text-anchor="middle" x="1921.38" y="-66.97" font-family="Times New Roman,serif" font-size="12.00">Conduct interviews</text>
</g>
<!-- 2479394151008&#45;&gt;2479394297168 -->
<g id="edge12" class="edge">
<title>2479394151008&#45;&gt;2479394297168</title>
<path fill="none" stroke="black" d="M1831.73,-72C1839.51,-72 1847.66,-72 1855.73,-72"/>
<polygon fill="black" stroke="black" points="1855.52,-75.5 1865.52,-72 1855.52,-68.5 1855.52,-75.5"/>
</g>
<!-- 2479394301200 -->
<g id="node14" class="node">
<title>2479394301200</title>
<polygon fill="none" stroke="black" points="2131,-90 2011.5,-90 2011.5,-54 2131,-54 2131,-90"/>
<text text-anchor="middle" x="2071.25" y="-66.97" font-family="Times New Roman,serif" font-size="12.00">Conduct data analysis</text>
</g>
<!-- 2479394297168&#45;&gt;2479394301200 -->
<g id="edge13" class="edge">
<title>2479394297168&#45;&gt;2479394301200</title>
<path fill="none" stroke="black" d="M1975.76,-72C1983.58,-72 1991.73,-72 1999.82,-72"/>
<polygon fill="black" stroke="black" points="1999.67,-75.5 2009.67,-72 1999.67,-68.5 1999.67,-75.5"/>
</g>
<!-- 2479394302784 -->
<g id="node15" class="node">
<title>2479394302784</title>
<polygon fill="none" stroke="black" points="2321.75,-90 2167,-90 2167,-54 2321.75,-54 2321.75,-90"/>
<text text-anchor="middle" x="2244.38" y="-66.97" font-family="Times New Roman,serif" font-size="12.00">Launch detailed investigation</text>
</g>
<!-- 2479394301200&#45;&gt;2479394302784 -->
<g id="edge14" class="edge">
<title>2479394301200&#45;&gt;2479394302784</title>
<path fill="none" stroke="black" d="M2131.14,-72C2138.9,-72 2146.97,-72 2155.09,-72"/>
<polygon fill="black" stroke="black" points="2155.03,-75.5 2165.03,-72 2155.03,-68.5 2155.03,-75.5"/>
</g>
<!-- 2479394299280 -->
<g id="node16" class="node">
<title>2479394299280</title>
<polygon fill="none" stroke="black" points="2384.75,-90 2357.75,-72 2384.75,-54 2411.75,-72 2384.75,-90"/>
<text text-anchor="middle" x="2384.75" y="-66.97" font-family="Times New Roman,serif" font-size="12.00">+</text>
</g>
<!-- 2479394302784&#45;&gt;2479394299280 -->
<g id="edge15" class="edge">
<title>2479394302784&#45;&gt;2479394299280</title>
<path fill="none" stroke="black" d="M2321.85,-72C2330.03,-72 2338.08,-72 2345.53,-72"/>
<polygon fill="black" stroke="black" points="2345.52,-75.5 2355.52,-72 2345.52,-68.5 2345.52,-75.5"/>
</g>
<!-- 2479394160416 -->
<g id="node17" class="node">
<title>2479394160416</title>
<polygon fill="none" stroke="black" points="2579.25,-117 2453.75,-117 2453.75,-81 2579.25,-81 2579.25,-117"/>
<text text-anchor="middle" x="2516.5" y="-93.97" font-family="Times New Roman,serif" font-size="12.00">Evaluate financial risks</text>
</g>
<!-- 2479394299280&#45;&gt;2479394160416 -->
<g id="edge16" class="edge">
<title>2479394299280&#45;&gt;2479394160416</title>
<path fill="none" stroke="black" d="M2406.02,-76.22C2416.05,-78.3 2428.82,-80.96 2442.08,-83.72"/>
<polygon fill="black" stroke="black" points="2441.3,-87.13 2451.8,-85.75 2442.73,-80.28 2441.3,-87.13"/>
</g>
<!-- 2479394093392 -->
<g id="node18" class="node">
<title>2479394093392</title>
<polygon fill="none" stroke="black" points="2585.25,-63 2447.75,-63 2447.75,-27 2585.25,-27 2585.25,-63"/>
<text text-anchor="middle" x="2516.5" y="-39.98" font-family="Times New Roman,serif" font-size="12.00">Evaluate operational risks</text>
</g>
<!-- 2479394299280&#45;&gt;2479394093392 -->
<g id="edge17" class="edge">
<title>2479394299280&#45;&gt;2479394093392</title>
<path fill="none" stroke="black" d="M2406.02,-67.78C2414.52,-66.01 2425,-63.83 2436.08,-61.53"/>
<polygon fill="black" stroke="black" points="2436.74,-64.96 2445.82,-59.5 2435.32,-58.11 2436.74,-64.96"/>
</g>
<!-- 2479394093776 -->
<g id="node19" class="node">
<title>2479394093776</title>
<polygon fill="none" stroke="black" points="2648.25,-90 2621.25,-72 2648.25,-54 2675.25,-72 2648.25,-90"/>
<text text-anchor="middle" x="2648.25" y="-66.97" font-family="Times New Roman,serif" font-size="12.00">+</text>
</g>
<!-- 2479394160416&#45;&gt;2479394093776 -->
<g id="edge18" class="edge">
<title>2479394160416&#45;&gt;2479394093776</title>
<path fill="none" stroke="black" d="M2579.71,-86.05C2592.23,-83.45 2604.87,-80.82 2615.79,-78.55"/>
<polygon fill="black" stroke="black" points="2616.3,-82.02 2625.38,-76.55 2614.87,-75.16 2616.3,-82.02"/>
</g>
<!-- 2479394093392&#45;&gt;2479394093776 -->
<g id="edge19" class="edge">
<title>2479394093392&#45;&gt;2479394093776</title>
<path fill="none" stroke="black" d="M2585.42,-59.13C2596.11,-61.36 2606.69,-63.56 2615.99,-65.5"/>
<polygon fill="black" stroke="black" points="2615.03,-68.87 2625.53,-67.48 2616.45,-62.02 2615.03,-68.87"/>
</g>
<!-- 2479394094064 -->
<g id="node20" class="node">
<title>2479394094064</title>
<polygon fill="none" stroke="black" points="2850.25,-90 2711.25,-90 2711.25,-54 2850.25,-54 2850.25,-90"/>
<text text-anchor="middle" x="2780.75" y="-66.97" font-family="Times New Roman,serif" font-size="12.00">Evaluate compliance risks</text>
</g>
<!-- 2479394093776&#45;&gt;2479394094064 -->
<g id="edge20" class="edge">
<title>2479394093776&#45;&gt;2479394094064</title>
<path fill="none" stroke="black" d="M2675.97,-72C2683.13,-72 2691.25,-72 2699.72,-72"/>
<polygon fill="black" stroke="black" points="2699.49,-75.5 2709.49,-72 2699.49,-68.5 2699.49,-75.5"/>
</g>
<!-- 2479394150384 -->
<g id="node21" class="node">
<title>2479394150384</title>
<polygon fill="none" stroke="black" points="3003.5,-90 2886.25,-90 2886.25,-54 3003.5,-54 3003.5,-90"/>
<text text-anchor="middle" x="2944.88" y="-66.97" font-family="Times New Roman,serif" font-size="12.00">Receive clarifications</text>
</g>
<!-- 2479394094064&#45;&gt;2479394150384 -->
<g id="edge21" class="edge">
<title>2479394094064&#45;&gt;2479394150384</title>
<path fill="none" stroke="black" d="M2850.51,-72C2858.39,-72 2866.44,-72 2874.33,-72"/>
<polygon fill="black" stroke="black" points="2874.25,-75.5 2884.25,-72 2874.25,-68.5 2874.25,-75.5"/>
</g>
<!-- 2479394302544 -->
<g id="node22" class="node">
<title>2479394302544</title>
<polygon fill="none" stroke="black" points="3235.5,-90 3039.5,-90 3039.5,-54 3235.5,-54 3235.5,-90"/>
<text text-anchor="middle" x="3137.5" y="-66.97" font-family="Times New Roman,serif" font-size="12.00">Request clarifications of discrepancies</text>
</g>
<!-- 2479394150384&#45;&gt;2479394302544 -->
<g id="edge22" class="edge">
<title>2479394150384&#45;&gt;2479394302544</title>
<path fill="none" stroke="black" d="M3003.85,-72C3011.53,-72 3019.59,-72 3027.79,-72"/>
<polygon fill="black" stroke="black" points="3027.52,-75.5 3037.52,-72 3027.52,-68.5 3027.52,-75.5"/>
</g>
<!-- 2479394296640 -->
<g id="node23" class="node">
<title>2479394296640</title>
<polygon fill="none" stroke="black" points="3379.75,-90 3271.5,-90 3271.5,-54 3379.75,-54 3379.75,-90"/>
<text text-anchor="middle" x="3325.62" y="-66.97" font-family="Times New Roman,serif" font-size="12.00">Review submission</text>
</g>
<!-- 2479394302544&#45;&gt;2479394296640 -->
<g id="edge23" class="edge">
<title>2479394302544&#45;&gt;2479394296640</title>
<path fill="none" stroke="black" d="M3235.92,-72C3243.98,-72 3252,-72 3259.73,-72"/>
<polygon fill="black" stroke="black" points="3259.7,-75.5 3269.7,-72 3259.7,-68.5 3259.7,-75.5"/>
</g>
<!-- 2479394094112 -->
<g id="node24" class="node">
<title>2479394094112</title>
<polygon fill="none" stroke="black" points="3519.5,-90 3415.75,-90 3415.75,-54 3519.5,-54 3519.5,-90"/>
<text text-anchor="middle" x="3467.62" y="-66.97" font-family="Times New Roman,serif" font-size="12.00">Submit documents</text>
</g>
<!-- 2479394296640&#45;&gt;2479394094112 -->
<g id="edge24" class="edge">
<title>2479394296640&#45;&gt;2479394094112</title>
<path fill="none" stroke="black" d="M3379.95,-72C3387.83,-72 3396.01,-72 3404.05,-72"/>
<polygon fill="black" stroke="black" points="3403.78,-75.5 3413.78,-72 3403.78,-68.5 3403.78,-75.5"/>
</g>
<!-- 2479394082064 -->
<g id="node25" class="node">
<title>2479394082064</title>
<polygon fill="none" stroke="black" points="3582.5,-90 3555.5,-72 3582.5,-54 3609.5,-72 3582.5,-90"/>
<text text-anchor="middle" x="3582.5" y="-66.97" font-family="Times New Roman,serif" font-size="12.00">+</text>
</g>
<!-- 2479394094112&#45;&gt;2479394082064 -->
<g id="edge25" class="edge">
<title>2479394094112&#45;&gt;2479394082064</title>
<path fill="none" stroke="black" d="M3519.78,-72C3527.74,-72 3535.84,-72 3543.45,-72"/>
<polygon fill="black" stroke="black" points="3543.38,-75.5 3553.38,-72 3543.38,-68.5 3543.38,-75.5"/>
</g>
<!-- 2479394291888 -->
<g id="node26" class="node">
<title>2479394291888</title>
<polygon fill="none" stroke="black" points="3796.5,-144 3645.5,-144 3645.5,-108 3796.5,-108 3796.5,-144"/>
<text text-anchor="middle" x="3721" y="-120.97" font-family="Times New Roman,serif" font-size="12.00">Gather necessary documents</text>
</g>
<!-- 2479394082064&#45;&gt;2479394291888 -->
<g id="edge28" class="edge">
<title>2479394082064&#45;&gt;2479394291888</title>
<path fill="none" stroke="black" d="M3599.44,-79.27C3611.9,-84.87 3629.69,-92.7 3645.5,-99 3649.3,-100.52 3653.23,-102.04 3657.19,-103.56"/>
<polygon fill="black" stroke="black" points="3655.73,-106.75 3666.32,-107 3658.2,-100.2 3655.73,-106.75"/>
</g>
<!-- 2479394291840 -->
<g id="node27" class="node">
<title>2479394291840</title>
<polygon fill="none" stroke="black" points="3789.38,-90 3652.62,-90 3652.62,-54 3789.38,-54 3789.38,-90"/>
<text text-anchor="middle" x="3721" y="-66.97" font-family="Times New Roman,serif" font-size="12.00">Check regulatory updates</text>
</g>
<!-- 2479394082064&#45;&gt;2479394291840 -->
<g id="edge26" class="edge">
<title>2479394082064&#45;&gt;2479394291840</title>
<path fill="none" stroke="black" d="M3610.14,-72C3619.28,-72 3630.02,-72 3641.15,-72"/>
<polygon fill="black" stroke="black" points="3640.85,-75.5 3650.85,-72 3640.85,-68.5 3640.85,-75.5"/>
</g>
<!-- 2479394086816 -->
<g id="node28" class="node">
<title>2479394086816</title>
<polygon fill="none" stroke="black" points="3794.62,-36 3647.38,-36 3647.38,0 3794.62,0 3794.62,-36"/>
<text text-anchor="middle" x="3721" y="-12.97" font-family="Times New Roman,serif" font-size="12.00">Prepare financial statements</text>
</g>
<!-- 2479394082064&#45;&gt;2479394086816 -->
<g id="edge27" class="edge">
<title>2479394082064&#45;&gt;2479394086816</title>
<path fill="none" stroke="black" d="M3599.44,-64.73C3611.9,-59.13 3629.69,-51.3 3645.5,-45 3649.3,-43.48 3653.23,-41.96 3657.19,-40.44"/>
<polygon fill="black" stroke="black" points="3658.2,-43.8 3666.32,-37 3655.73,-37.25 3658.2,-43.8"/>
</g>
<!-- 2479394154896 -->
<g id="node29" class="node">
<title>2479394154896</title>
<polygon fill="none" stroke="black" points="3859.5,-90 3832.5,-72 3859.5,-54 3886.5,-72 3859.5,-90"/>
<text text-anchor="middle" x="3859.5" y="-66.97" font-family="Times New Roman,serif" font-size="12.00">+</text>
</g>
<!-- 2479394291888&#45;&gt;2479394154896 -->
<g id="edge29" class="edge">
<title>2479394291888&#45;&gt;2479394154896</title>
<path fill="none" stroke="black" d="M3774.26,-107.53C3781.75,-104.75 3789.34,-101.85 3796.5,-99 3808.36,-94.27 3821.33,-88.69 3832.33,-83.83"/>
<polygon fill="black" stroke="black" points="3833.47,-87.16 3841.18,-79.89 3830.62,-80.76 3833.47,-87.16"/>
</g>
<!-- 2479394291840&#45;&gt;2479394154896 -->
<g id="edge30" class="edge">
<title>2479394291840&#45;&gt;2479394154896</title>
<path fill="none" stroke="black" d="M3789.85,-72C3800.29,-72 3810.75,-72 3820.24,-72"/>
<polygon fill="black" stroke="black" points="3820.16,-75.5 3830.16,-72 3820.16,-68.5 3820.16,-75.5"/>
</g>
<!-- 2479394086816&#45;&gt;2479394154896 -->
<g id="edge31" class="edge">
<title>2479394086816&#45;&gt;2479394154896</title>
<path fill="none" stroke="black" d="M3774.26,-36.47C3781.75,-39.25 3789.34,-42.15 3796.5,-45 3808.36,-49.73 3821.33,-55.31 3832.33,-60.17"/>
<polygon fill="black" stroke="black" points="3830.62,-63.24 3841.18,-64.11 3833.47,-56.84 3830.62,-63.24"/>
</g>
<!-- 2479394158256 -->
<g id="node30" class="node">
<title>2479394158256</title>
<polygon fill="none" stroke="black" points="4018.75,-90 3922.5,-90 3922.5,-54 4018.75,-54 4018.75,-90"/>
<text text-anchor="middle" x="3970.62" y="-66.97" font-family="Times New Roman,serif" font-size="12.00">Send notification</text>
</g>
<!-- 2479394154896&#45;&gt;2479394158256 -->
<g id="edge32" class="edge">
<title>2479394154896&#45;&gt;2479394158256</title>
<path fill="none" stroke="black" d="M3887.19,-72C3894.48,-72 3902.68,-72 3911,-72"/>
<polygon fill="black" stroke="black" points="3910.84,-75.5 3920.84,-72 3910.84,-68.5 3910.84,-75.5"/>
</g>
<!-- 2479393979136 -->
<g id="node31" class="node">
<title>2479393979136</title>
<ellipse fill="orange" stroke="black" cx="4072.75" cy="-72" rx="18" ry="18"/>
</g>
<!-- 2479394158256&#45;&gt;2479393979136 -->
<g id="edge33" class="edge">
<title>2479394158256&#45;&gt;2479393979136</title>
<path fill="none" stroke="black" d="M4019.05,-72C4027.31,-72 4035.66,-72 4043.21,-72"/>
<polygon fill="black" stroke="black" points="4043.12,-75.5 4053.12,-72 4043.12,-68.5 4043.12,-75.5"/>
</g>
</g>
</svg>
