<?xml version="1.0" encoding="UTF-8" standalone="no"?>
<!DOCTYPE svg PUBLIC "-//W3C//DTD SVG 1.1//EN"
 "http://www.w3.org/Graphics/SVG/1.1/DTD/svg11.dtd">
<!-- Generated by graphviz version 11.0.0 (20240428.1522)
 -->
<!-- Pages: 1 -->
<svg width="5202pt" height="162pt"
 viewBox="0.00 0.00 5201.50 162.39" xmlns="http://www.w3.org/2000/svg" xmlns:xlink="http://www.w3.org/1999/xlink">
<g id="graph0" class="graph" transform="scale(1 1) rotate(0) translate(4 158.39)">
<polygon fill="white" stroke="none" points="-4,4 -4,-158.39 5197.5,-158.39 5197.5,4 -4,4"/>
<!-- 2479368416976 -->
<g id="node1" class="node">
<title>2479368416976</title>
<ellipse fill="green" stroke="black" cx="18" cy="-68" rx="18" ry="18"/>
</g>
<!-- 2479386327328 -->
<g id="node2" class="node">
<title>2479386327328</title>
<polygon fill="none" stroke="black" points="209.5,-86 72,-86 72,-50 209.5,-50 209.5,-86"/>
<text text-anchor="middle" x="140.75" y="-62.98" font-family="Times New Roman,serif" font-size="12.00">Evaluate operational risks</text>
</g>
<!-- 2479368416976&#45;&gt;2479386327328 -->
<g id="edge1" class="edge">
<title>2479368416976&#45;&gt;2479386327328</title>
<path fill="none" stroke="black" d="M36.3,-68C43.04,-68 51.28,-68 60.13,-68"/>
<polygon fill="black" stroke="black" points="60.09,-71.5 70.09,-68 60.09,-64.5 60.09,-71.5"/>
</g>
<!-- 2479386319120 -->
<g id="node3" class="node">
<title>2479386319120</title>
<polygon fill="none" stroke="black" points="272.5,-86 245.5,-68 272.5,-50 299.5,-68 272.5,-86"/>
<text text-anchor="middle" x="272.5" y="-62.98" font-family="Times New Roman,serif" font-size="12.00">X</text>
</g>
<!-- 2479386327328&#45;&gt;2479386319120 -->
<g id="edge2" class="edge">
<title>2479386327328&#45;&gt;2479386319120</title>
<path fill="none" stroke="black" d="M209.67,-68C217.87,-68 226.02,-68 233.57,-68"/>
<polygon fill="black" stroke="black" points="233.36,-71.5 243.36,-68 233.36,-64.5 233.36,-71.5"/>
</g>
<!-- 2479386316864 -->
<g id="node4" class="node">
<title>2479386316864</title>
<polygon fill="none" stroke="black" points="526.25,-86 499.25,-68 526.25,-50 553.25,-68 526.25,-86"/>
<text text-anchor="middle" x="526.25" y="-62.98" font-family="Times New Roman,serif" font-size="12.00">X</text>
</g>
<!-- 2479386319120&#45;&gt;2479386316864 -->
<g id="edge3" class="edge">
<title>2479386319120&#45;&gt;2479386316864</title>
<path fill="none" stroke="black" d="M297.33,-69.9C308.85,-70.72 322.89,-71.59 335.5,-72 392.25,-73.83 406.5,-73.83 463.25,-72 471.92,-71.72 481.27,-71.22 490,-70.67"/>
<polygon fill="black" stroke="black" points="490.17,-74.17 499.91,-70 489.7,-67.18 490.17,-74.17"/>
</g>
<!-- 2479386319744 -->
<g id="node5" class="node">
<title>2479386319744</title>
<polygon fill="none" stroke="black" points="463.25,-63 335.5,-63 335.5,-27 463.25,-27 463.25,-63"/>
<text text-anchor="middle" x="399.38" y="-39.98" font-family="Times New Roman,serif" font-size="12.00">Send report for revision</text>
</g>
<!-- 2479386319120&#45;&gt;2479386319744 -->
<g id="edge4" class="edge">
<title>2479386319120&#45;&gt;2479386319744</title>
<path fill="none" stroke="black" d="M294.4,-64.15C302.8,-62.6 313.04,-60.72 323.77,-58.74"/>
<polygon fill="black" stroke="black" points="324.39,-62.19 333.59,-56.93 323.12,-55.3 324.39,-62.19"/>
</g>
<!-- 2479385383792 -->
<g id="node6" class="node">
<title>2479385383792</title>
<polygon fill="none" stroke="black" points="616.25,-86 589.25,-68 616.25,-50 643.25,-68 616.25,-86"/>
<text text-anchor="middle" x="616.25" y="-62.98" font-family="Times New Roman,serif" font-size="12.00">+</text>
</g>
<!-- 2479386316864&#45;&gt;2479385383792 -->
<g id="edge6" class="edge">
<title>2479386316864&#45;&gt;2479385383792</title>
<path fill="none" stroke="black" d="M554.13,-68C561.38,-68 569.37,-68 577.1,-68"/>
<polygon fill="black" stroke="black" points="577.02,-71.5 587.02,-68 577.02,-64.5 577.02,-71.5"/>
</g>
<!-- 2479386319744&#45;&gt;2479386316864 -->
<g id="edge5" class="edge">
<title>2479386319744&#45;&gt;2479386316864</title>
<path fill="none" stroke="black" d="M463.54,-56.63C473.81,-58.53 484.04,-60.41 493.15,-62.09"/>
<polygon fill="black" stroke="black" points="492.4,-65.51 502.87,-63.88 493.67,-58.63 492.4,-65.51"/>
</g>
<!-- 2479385383744 -->
<g id="node7" class="node">
<title>2479385383744</title>
<polygon fill="none" stroke="black" points="771.75,-113 683,-113 683,-77 771.75,-77 771.75,-113"/>
<text text-anchor="middle" x="727.38" y="-89.97" font-family="Times New Roman,serif" font-size="12.00">Approve report</text>
</g>
<!-- 2479385383792&#45;&gt;2479385383744 -->
<g id="edge8" class="edge">
<title>2479385383792&#45;&gt;2479385383744</title>
<path fill="none" stroke="black" d="M636.76,-72.83C646.62,-75.27 659.13,-78.36 671.66,-81.46"/>
<polygon fill="black" stroke="black" points="670.58,-84.8 681.13,-83.81 672.26,-78.01 670.58,-84.8"/>
</g>
<!-- 2479386320368 -->
<g id="node8" class="node">
<title>2479386320368</title>
<polygon fill="none" stroke="black" points="775.5,-59 679.25,-59 679.25,-23 775.5,-23 775.5,-59"/>
<text text-anchor="middle" x="727.38" y="-35.98" font-family="Times New Roman,serif" font-size="12.00">Send notification</text>
</g>
<!-- 2479385383792&#45;&gt;2479386320368 -->
<g id="edge7" class="edge">
<title>2479385383792&#45;&gt;2479386320368</title>
<path fill="none" stroke="black" d="M636.76,-63.17C645.68,-60.97 656.77,-58.22 668.07,-55.43"/>
<polygon fill="black" stroke="black" points="668.57,-58.91 677.44,-53.11 666.89,-52.11 668.57,-58.91"/>
</g>
<!-- 2479386329008 -->
<g id="node9" class="node">
<title>2479386329008</title>
<polygon fill="none" stroke="black" points="838.5,-86 811.5,-68 838.5,-50 865.5,-68 838.5,-86"/>
<text text-anchor="middle" x="838.5" y="-62.98" font-family="Times New Roman,serif" font-size="12.00">+</text>
</g>
<!-- 2479385383744&#45;&gt;2479386329008 -->
<g id="edge9" class="edge">
<title>2479385383744&#45;&gt;2479386329008</title>
<path fill="none" stroke="black" d="M772.13,-84.17C783.8,-81.29 796.16,-78.23 806.95,-75.56"/>
<polygon fill="black" stroke="black" points="807.6,-79 816.47,-73.2 805.92,-72.21 807.6,-79"/>
</g>
<!-- 2479386320368&#45;&gt;2479386329008 -->
<g id="edge10" class="edge">
<title>2479386320368&#45;&gt;2479386329008</title>
<path fill="none" stroke="black" d="M775.92,-52.76C786.46,-55.37 797.35,-58.06 806.98,-60.45"/>
<polygon fill="black" stroke="black" points="806,-63.81 816.54,-62.81 807.68,-57.02 806,-63.81"/>
</g>
<!-- 2479386328864 -->
<g id="node10" class="node">
<title>2479386328864</title>
<polygon fill="none" stroke="black" points="1021,-86 901.5,-86 901.5,-50 1021,-50 1021,-86"/>
<text text-anchor="middle" x="961.25" y="-62.98" font-family="Times New Roman,serif" font-size="12.00">Conduct data analysis</text>
</g>
<!-- 2479386329008&#45;&gt;2479386328864 -->
<g id="edge11" class="edge">
<title>2479386329008&#45;&gt;2479386328864</title>
<path fill="none" stroke="black" d="M866.3,-68C873.46,-68 881.55,-68 889.91,-68"/>
<polygon fill="black" stroke="black" points="889.88,-71.5 899.88,-68 889.88,-64.5 889.88,-71.5"/>
</g>
<!-- 2479386322336 -->
<g id="node11" class="node">
<title>2479386322336</title>
<polygon fill="none" stroke="black" points="1196,-86 1057,-86 1057,-50 1196,-50 1196,-86"/>
<text text-anchor="middle" x="1126.5" y="-62.98" font-family="Times New Roman,serif" font-size="12.00">Evaluate compliance risks</text>
</g>
<!-- 2479386328864&#45;&gt;2479386322336 -->
<g id="edge12" class="edge">
<title>2479386328864&#45;&gt;2479386322336</title>
<path fill="none" stroke="black" d="M1021.19,-68C1029.01,-68 1037.13,-68 1045.24,-68"/>
<polygon fill="black" stroke="black" points="1045.14,-71.5 1055.14,-68 1045.14,-64.5 1045.14,-71.5"/>
</g>
<!-- 2479386324400 -->
<g id="node12" class="node">
<title>2479386324400</title>
<polygon fill="none" stroke="black" points="1259,-86 1232,-68 1259,-50 1286,-68 1259,-86"/>
<text text-anchor="middle" x="1259" y="-62.98" font-family="Times New Roman,serif" font-size="12.00">X</text>
</g>
<!-- 2479386322336&#45;&gt;2479386324400 -->
<g id="edge13" class="edge">
<title>2479386322336&#45;&gt;2479386324400</title>
<path fill="none" stroke="black" d="M1196.19,-68C1204.23,-68 1212.21,-68 1219.62,-68"/>
<polygon fill="black" stroke="black" points="1219.59,-71.5 1229.59,-68 1219.59,-64.5 1219.59,-71.5"/>
</g>
<!-- 2479386323872 -->
<g id="node13" class="node">
<title>2479386323872</title>
<polygon fill="none" stroke="black" points="1539.75,-86 1512.75,-68 1539.75,-50 1566.75,-68 1539.75,-86"/>
<text text-anchor="middle" x="1539.75" y="-62.98" font-family="Times New Roman,serif" font-size="12.00">X</text>
</g>
<!-- 2479386324400&#45;&gt;2479386323872 -->
<g id="edge14" class="edge">
<title>2479386324400&#45;&gt;2479386323872</title>
<path fill="none" stroke="black" d="M1283.83,-69.9C1295.35,-70.72 1309.39,-71.59 1322,-72 1390.74,-74.22 1408.01,-74.22 1476.75,-72 1485.42,-71.72 1494.77,-71.22 1503.5,-70.67"/>
<polygon fill="black" stroke="black" points="1503.67,-74.17 1513.41,-70 1503.2,-67.18 1503.67,-74.17"/>
</g>
<!-- 2479386317008 -->
<g id="node14" class="node">
<title>2479386317008</title>
<polygon fill="none" stroke="black" points="1476.75,-63 1322,-63 1322,-27 1476.75,-27 1476.75,-63"/>
<text text-anchor="middle" x="1399.38" y="-39.98" font-family="Times New Roman,serif" font-size="12.00">Launch detailed investigation</text>
</g>
<!-- 2479386324400&#45;&gt;2479386317008 -->
<g id="edge15" class="edge">
<title>2479386324400&#45;&gt;2479386317008</title>
<path fill="none" stroke="black" d="M1281.32,-64.46C1289.59,-63.08 1299.65,-61.41 1310.36,-59.63"/>
<polygon fill="black" stroke="black" points="1310.93,-63.08 1320.22,-57.99 1309.78,-56.18 1310.93,-63.08"/>
</g>
<!-- 2479386316144 -->
<g id="node15" class="node">
<title>2479386316144</title>
<polygon fill="none" stroke="black" points="1716.25,-86 1602.75,-86 1602.75,-50 1716.25,-50 1716.25,-86"/>
<text text-anchor="middle" x="1659.5" y="-62.98" font-family="Times New Roman,serif" font-size="12.00">Compile audit report</text>
</g>
<!-- 2479386323872&#45;&gt;2479386316144 -->
<g id="edge17" class="edge">
<title>2479386323872&#45;&gt;2479386316144</title>
<path fill="none" stroke="black" d="M1567.47,-68C1574.65,-68 1582.76,-68 1591.1,-68"/>
<polygon fill="black" stroke="black" points="1591.03,-71.5 1601.03,-68 1591.03,-64.5 1591.03,-71.5"/>
</g>
<!-- 2479386317008&#45;&gt;2479386323872 -->
<g id="edge16" class="edge">
<title>2479386317008&#45;&gt;2479386323872</title>
<path fill="none" stroke="black" d="M1476.85,-57.71C1487.07,-59.41 1497.09,-61.08 1505.98,-62.55"/>
<polygon fill="black" stroke="black" points="1505.39,-66 1515.83,-64.19 1506.54,-59.1 1505.39,-66"/>
</g>
<!-- 2479386315328 -->
<g id="node16" class="node">
<title>2479386315328</title>
<polygon fill="none" stroke="black" points="1779.25,-86 1752.25,-68 1779.25,-50 1806.25,-68 1779.25,-86"/>
<text text-anchor="middle" x="1779.25" y="-62.98" font-family="Times New Roman,serif" font-size="12.00">+</text>
</g>
<!-- 2479386316144&#45;&gt;2479386315328 -->
<g id="edge18" class="edge">
<title>2479386316144&#45;&gt;2479386315328</title>
<path fill="none" stroke="black" d="M1716.62,-68C1724.62,-68 1732.7,-68 1740.25,-68"/>
<polygon fill="black" stroke="black" points="1740.08,-71.5 1750.08,-68 1740.08,-64.5 1740.08,-71.5"/>
</g>
<!-- 2479385379424 -->
<g id="node17" class="node">
<title>2479385379424</title>
<polygon fill="none" stroke="black" points="1950.5,-111 1842.25,-111 1842.25,-75 1950.5,-75 1950.5,-111"/>
<text text-anchor="middle" x="1896.38" y="-87.97" font-family="Times New Roman,serif" font-size="12.00">Review submission</text>
</g>
<!-- 2479386315328&#45;&gt;2479385379424 -->
<g id="edge19" class="edge">
<title>2479386315328&#45;&gt;2479385379424</title>
<path fill="none" stroke="black" d="M1800.3,-72.35C1809,-74.24 1819.72,-76.57 1830.79,-78.98"/>
<polygon fill="black" stroke="black" points="1829.93,-82.37 1840.44,-81.07 1831.41,-75.53 1829.93,-82.37"/>
</g>
<!-- 2479386324640 -->
<g id="node18" class="node">
<title>2479386324640</title>
<polygon fill="none" stroke="black" points="2133.75,-59 1986.5,-59 1986.5,-23 2133.75,-23 2133.75,-59"/>
<text text-anchor="middle" x="2060.12" y="-35.98" font-family="Times New Roman,serif" font-size="12.00">Prepare financial statements</text>
</g>
<!-- 2479386315328&#45;&gt;2479386324640 -->
<g id="edge20" class="edge">
<title>2479386315328&#45;&gt;2479386324640</title>
<path fill="none" stroke="black" d="M1803.55,-65.74C1840.87,-62.13 1915.89,-54.87 1975.04,-49.14"/>
<polygon fill="black" stroke="black" points="1975.14,-52.65 1984.75,-48.2 1974.46,-45.68 1975.14,-52.65"/>
</g>
<!-- 2479386315376 -->
<g id="node19" class="node">
<title>2479386315376</title>
<polygon fill="none" stroke="black" points="2060.12,-113 2033.12,-95 2060.12,-77 2087.12,-95 2060.12,-113"/>
<text text-anchor="middle" x="2060.12" y="-89.97" font-family="Times New Roman,serif" font-size="12.00">X</text>
</g>
<!-- 2479385379424&#45;&gt;2479386315376 -->
<g id="edge21" class="edge">
<title>2479385379424&#45;&gt;2479386315376</title>
<path fill="none" stroke="black" d="M1950.79,-93.66C1973.97,-93.95 2000.57,-94.28 2021.61,-94.54"/>
<polygon fill="black" stroke="black" points="2021.43,-98.03 2031.47,-94.66 2021.51,-91.03 2021.43,-98.03"/>
</g>
<!-- 2479385391904 -->
<g id="node20" class="node">
<title>2479385391904</title>
<polygon fill="none" stroke="black" points="2672,-82 2645,-64 2672,-46 2699,-64 2672,-82"/>
<text text-anchor="middle" x="2672" y="-58.98" font-family="Times New Roman,serif" font-size="12.00">+</text>
</g>
<!-- 2479386324640&#45;&gt;2479385391904 -->
<g id="edge22" class="edge">
<title>2479386324640&#45;&gt;2479385391904</title>
<path fill="none" stroke="black" d="M2133.82,-42.83C2238.78,-45.64 2438.85,-51.56 2609,-60 2617.59,-60.43 2626.85,-60.97 2635.52,-61.53"/>
<polygon fill="black" stroke="black" points="2635.15,-65.01 2645.36,-62.18 2635.61,-58.03 2635.15,-65.01"/>
</g>
<!-- 2479386319696 -->
<g id="node21" class="node">
<title>2479386319696</title>
<polygon fill="none" stroke="black" points="2428.75,-105 2401.75,-87 2428.75,-69 2455.75,-87 2428.75,-105"/>
<text text-anchor="middle" x="2428.75" y="-81.97" font-family="Times New Roman,serif" font-size="12.00">X</text>
</g>
<!-- 2479386315376&#45;&gt;2479386319696 -->
<g id="edge23" class="edge">
<title>2479386315376&#45;&gt;2479386319696</title>
<path fill="none" stroke="black" d="M2080.63,-99.76C2129.32,-110.89 2259.92,-136.04 2365.75,-114 2378.68,-111.31 2392.22,-105.77 2403.34,-100.4"/>
<polygon fill="black" stroke="black" points="2404.86,-103.55 2412.18,-95.89 2401.68,-97.31 2404.86,-103.55"/>
</g>
<!-- 2479385390992 -->
<g id="node22" class="node">
<title>2479385390992</title>
<polygon fill="none" stroke="black" points="2365.75,-105 2169.75,-105 2169.75,-69 2365.75,-69 2365.75,-105"/>
<text text-anchor="middle" x="2267.75" y="-81.97" font-family="Times New Roman,serif" font-size="12.00">Request clarifications of discrepancies</text>
</g>
<!-- 2479386315376&#45;&gt;2479385390992 -->
<g id="edge24" class="edge">
<title>2479386315376&#45;&gt;2479385390992</title>
<path fill="none" stroke="black" d="M2086.34,-94.02C2104.81,-93.3 2131.28,-92.27 2158.27,-91.22"/>
<polygon fill="black" stroke="black" points="2158.06,-94.73 2167.92,-90.85 2157.79,-87.74 2158.06,-94.73"/>
</g>
<!-- 2479385393536 -->
<g id="node23" class="node">
<title>2479385393536</title>
<polygon fill="none" stroke="black" points="2886,-82 2735,-82 2735,-46 2886,-46 2886,-82"/>
<text text-anchor="middle" x="2810.5" y="-58.98" font-family="Times New Roman,serif" font-size="12.00">Gather necessary documents</text>
</g>
<!-- 2479385391904&#45;&gt;2479385393536 -->
<g id="edge25" class="edge">
<title>2479385391904&#45;&gt;2479385393536</title>
<path fill="none" stroke="black" d="M2699.64,-64C2706.76,-64 2714.86,-64 2723.36,-64"/>
<polygon fill="black" stroke="black" points="2723.19,-67.5 2733.19,-64 2723.19,-60.5 2723.19,-67.5"/>
</g>
<!-- 2479386319408 -->
<g id="node25" class="node">
<title>2479386319408</title>
<polygon fill="none" stroke="black" points="2609,-105 2491.75,-105 2491.75,-69 2609,-69 2609,-105"/>
<text text-anchor="middle" x="2550.38" y="-81.97" font-family="Times New Roman,serif" font-size="12.00">Receive clarifications</text>
</g>
<!-- 2479386319696&#45;&gt;2479386319408 -->
<g id="edge27" class="edge">
<title>2479386319696&#45;&gt;2479386319408</title>
<path fill="none" stroke="black" d="M2456.6,-87C2463.7,-87 2471.71,-87 2479.96,-87"/>
<polygon fill="black" stroke="black" points="2479.8,-90.5 2489.8,-87 2479.8,-83.5 2479.8,-90.5"/>
</g>
<!-- 2479385390992&#45;&gt;2479386319696 -->
<g id="edge26" class="edge">
<title>2479385390992&#45;&gt;2479386319696</title>
<path fill="none" stroke="black" d="M2365.82,-87C2374.12,-87 2382.15,-87 2389.53,-87"/>
<polygon fill="black" stroke="black" points="2389.37,-90.5 2399.37,-87 2389.37,-83.5 2389.37,-90.5"/>
</g>
<!-- 2479385387920 -->
<g id="node24" class="node">
<title>2479385387920</title>
<polygon fill="none" stroke="black" points="2949,-82 2922,-64 2949,-46 2976,-64 2949,-82"/>
<text text-anchor="middle" x="2949" y="-58.98" font-family="Times New Roman,serif" font-size="12.00">+</text>
</g>
<!-- 2479385393536&#45;&gt;2479385387920 -->
<g id="edge28" class="edge">
<title>2479385393536&#45;&gt;2479385387920</title>
<path fill="none" stroke="black" d="M2886.14,-64C2894.29,-64 2902.32,-64 2909.76,-64"/>
<polygon fill="black" stroke="black" points="2909.74,-67.5 2919.74,-64 2909.74,-60.5 2909.74,-67.5"/>
</g>
<!-- 2479392653920 -->
<g id="node26" class="node">
<title>2479392653920</title>
<polygon fill="none" stroke="black" points="3039,-136 3012,-118 3039,-100 3066,-118 3039,-136"/>
<text text-anchor="middle" x="3039" y="-112.97" font-family="Times New Roman,serif" font-size="12.00">X</text>
</g>
<!-- 2479385387920&#45;&gt;2479392653920 -->
<g id="edge30" class="edge">
<title>2479385387920&#45;&gt;2479392653920</title>
<path fill="none" stroke="black" d="M2963.75,-72.44C2977.36,-80.79 2998.46,-93.73 3014.69,-103.7"/>
<polygon fill="black" stroke="black" points="3012.41,-106.4 3022.77,-108.65 3016.07,-100.44 3012.41,-106.4"/>
</g>
<!-- 2479385383552 -->
<g id="node27" class="node">
<title>2479385383552</title>
<polygon fill="none" stroke="black" points="3265.75,-82 3102,-82 3102,-46 3265.75,-46 3265.75,-82"/>
<text text-anchor="middle" x="3183.88" y="-58.98" font-family="Times New Roman,serif" font-size="12.00">Review report by audit director</text>
</g>
<!-- 2479385387920&#45;&gt;2479385383552 -->
<g id="edge32" class="edge">
<title>2479385387920&#45;&gt;2479385383552</title>
<path fill="none" stroke="black" d="M2976.71,-64C3004.45,-64 3049.43,-64 3090.3,-64"/>
<polygon fill="black" stroke="black" points="3090.19,-67.5 3100.19,-64 3090.19,-60.5 3090.19,-67.5"/>
</g>
<!-- 2479386322480 -->
<g id="node28" class="node">
<title>2479386322480</title>
<polygon fill="none" stroke="black" points="3438.5,-36 3301.75,-36 3301.75,0 3438.5,0 3438.5,-36"/>
<text text-anchor="middle" x="3370.12" y="-12.97" font-family="Times New Roman,serif" font-size="12.00">Check regulatory updates</text>
</g>
<!-- 2479385387920&#45;&gt;2479386322480 -->
<g id="edge31" class="edge">
<title>2479385387920&#45;&gt;2479386322480</title>
<path fill="none" stroke="black" d="M2970.06,-59.74C2999.05,-53.75 3054.39,-42.91 3102,-37 3164.97,-29.19 3236.73,-24.31 3290,-21.45"/>
<polygon fill="black" stroke="black" points="3290.1,-24.95 3299.91,-20.93 3289.74,-17.96 3290.1,-24.95"/>
</g>
<!-- 2479386319408&#45;&gt;2479385391904 -->
<g id="edge29" class="edge">
<title>2479386319408&#45;&gt;2479385391904</title>
<path fill="none" stroke="black" d="M2609.44,-75.84C2619.62,-73.88 2629.87,-71.91 2639,-70.15"/>
<polygon fill="black" stroke="black" points="2639.63,-73.6 2648.79,-68.27 2638.31,-66.72 2639.63,-73.6"/>
</g>
<!-- 2479386325408 -->
<g id="node29" class="node">
<title>2479386325408</title>
<polygon fill="none" stroke="black" points="3370.12,-136 3343.12,-118 3370.12,-100 3397.12,-118 3370.12,-136"/>
<text text-anchor="middle" x="3370.12" y="-112.97" font-family="Times New Roman,serif" font-size="12.00">X</text>
</g>
<!-- 2479392653920&#45;&gt;2479386325408 -->
<g id="edge33" class="edge">
<title>2479392653920&#45;&gt;2479386325408</title>
<path fill="none" stroke="black" d="M3054.22,-126.21C3066.44,-132.76 3084.76,-141.41 3102,-145 3173.25,-159.84 3193.57,-154.27 3265.75,-145 3291.55,-141.69 3320.11,-133.9 3340.66,-127.53"/>
<polygon fill="black" stroke="black" points="3341.56,-130.92 3350.03,-124.55 3339.44,-124.25 3341.56,-130.92"/>
</g>
<!-- 2479385379376 -->
<g id="node30" class="node">
<title>2479385379376</title>
<polygon fill="none" stroke="black" points="3238,-136 3129.75,-136 3129.75,-100 3238,-100 3238,-136"/>
<text text-anchor="middle" x="3183.88" y="-112.97" font-family="Times New Roman,serif" font-size="12.00">Conduct interviews</text>
</g>
<!-- 2479392653920&#45;&gt;2479385379376 -->
<g id="edge34" class="edge">
<title>2479392653920&#45;&gt;2479385379376</title>
<path fill="none" stroke="black" d="M3066.87,-118C3081.4,-118 3100.01,-118 3118.06,-118"/>
<polygon fill="black" stroke="black" points="3117.97,-121.5 3127.97,-118 3117.97,-114.5 3117.97,-121.5"/>
</g>
<!-- 2479386322864 -->
<g id="node31" class="node">
<title>2479386322864</title>
<polygon fill="none" stroke="black" points="3501.5,-82 3474.5,-64 3501.5,-46 3528.5,-64 3501.5,-82"/>
<text text-anchor="middle" x="3501.5" y="-58.98" font-family="Times New Roman,serif" font-size="12.00">+</text>
</g>
<!-- 2479385383552&#45;&gt;2479386322864 -->
<g id="edge35" class="edge">
<title>2479385383552&#45;&gt;2479386322864</title>
<path fill="none" stroke="black" d="M3266.16,-64C3329.3,-64 3414.01,-64 3462.38,-64"/>
<polygon fill="black" stroke="black" points="3462.34,-67.5 3472.34,-64 3462.34,-60.5 3462.34,-67.5"/>
</g>
<!-- 2479386322480&#45;&gt;2479386322864 -->
<g id="edge36" class="edge">
<title>2479386322480&#45;&gt;2479386322864</title>
<path fill="none" stroke="black" d="M3423,-36.44C3439.86,-42.44 3457.94,-48.87 3472.39,-54"/>
<polygon fill="black" stroke="black" points="3471.08,-57.25 3481.68,-57.31 3473.43,-50.66 3471.08,-57.25"/>
</g>
<!-- 2479386325408&#45;&gt;2479386322864 -->
<g id="edge37" class="edge">
<title>2479386325408&#45;&gt;2479386322864</title>
<path fill="none" stroke="black" d="M3387.51,-111.16C3409.19,-102.11 3447.68,-86.05 3473.64,-75.21"/>
<polygon fill="black" stroke="black" points="3474.97,-78.45 3482.85,-71.37 3472.27,-71.99 3474.97,-78.45"/>
</g>
<!-- 2479385379376&#45;&gt;2479386325408 -->
<g id="edge38" class="edge">
<title>2479385379376&#45;&gt;2479386325408</title>
<path fill="none" stroke="black" d="M3238.17,-118C3267.89,-118 3304.2,-118 3331.05,-118"/>
<polygon fill="black" stroke="black" points="3330.78,-121.5 3340.78,-118 3330.78,-114.5 3330.78,-121.5"/>
</g>
<!-- 2479386320464 -->
<g id="node32" class="node">
<title>2479386320464</title>
<polygon fill="none" stroke="black" points="3664.5,-82 3564.5,-82 3564.5,-46 3664.5,-46 3664.5,-82"/>
<text text-anchor="middle" x="3614.5" y="-58.98" font-family="Times New Roman,serif" font-size="12.00">Perform site visits</text>
</g>
<!-- 2479386322864&#45;&gt;2479386320464 -->
<g id="edge39" class="edge">
<title>2479386322864&#45;&gt;2479386320464</title>
<path fill="none" stroke="black" d="M3529.37,-64C3536.6,-64 3544.73,-64 3553.01,-64"/>
<polygon fill="black" stroke="black" points="3552.81,-67.5 3562.81,-64 3552.81,-60.5 3552.81,-67.5"/>
</g>
<!-- 2479385392960 -->
<g id="node33" class="node">
<title>2479385392960</title>
<polygon fill="none" stroke="black" points="3804.25,-82 3700.5,-82 3700.5,-46 3804.25,-46 3804.25,-82"/>
<text text-anchor="middle" x="3752.38" y="-58.98" font-family="Times New Roman,serif" font-size="12.00">Submit documents</text>
</g>
<!-- 2479386320464&#45;&gt;2479385392960 -->
<g id="edge40" class="edge">
<title>2479386320464&#45;&gt;2479385392960</title>
<path fill="none" stroke="black" d="M3664.94,-64C3672.78,-64 3680.97,-64 3689.06,-64"/>
<polygon fill="black" stroke="black" points="3688.86,-67.5 3698.86,-64 3688.86,-60.5 3688.86,-67.5"/>
</g>
<!-- 2479385395072 -->
<g id="node34" class="node">
<title>2479385395072</title>
<polygon fill="none" stroke="black" points="3947.75,-82 3840.25,-82 3840.25,-46 3947.75,-46 3947.75,-82"/>
<text text-anchor="middle" x="3894" y="-58.98" font-family="Times New Roman,serif" font-size="12.00">Close audit process</text>
</g>
<!-- 2479385392960&#45;&gt;2479385395072 -->
<g id="edge41" class="edge">
<title>2479385392960&#45;&gt;2479385395072</title>
<path fill="none" stroke="black" d="M3804.57,-64C3812.4,-64 3820.57,-64 3828.64,-64"/>
<polygon fill="black" stroke="black" points="3828.42,-67.5 3838.42,-64 3828.42,-60.5 3828.42,-67.5"/>
</g>
<!-- 2479386317584 -->
<g id="node35" class="node">
<title>2479386317584</title>
<polygon fill="none" stroke="black" points="4010.75,-82 3983.75,-64 4010.75,-46 4037.75,-64 4010.75,-82"/>
<text text-anchor="middle" x="4010.75" y="-58.98" font-family="Times New Roman,serif" font-size="12.00">X</text>
</g>
<!-- 2479385395072&#45;&gt;2479386317584 -->
<g id="edge42" class="edge">
<title>2479385395072&#45;&gt;2479386317584</title>
<path fill="none" stroke="black" d="M3948.01,-64C3955.95,-64 3964,-64 3971.55,-64"/>
<polygon fill="black" stroke="black" points="3971.4,-67.5 3981.4,-64 3971.4,-60.5 3971.4,-67.5"/>
</g>
<!-- 2479386322096 -->
<g id="node36" class="node">
<title>2479386322096</title>
<polygon fill="none" stroke="black" points="4389.62,-109 4272.38,-109 4272.38,-73 4389.62,-73 4389.62,-109"/>
<text text-anchor="middle" x="4331" y="-85.97" font-family="Times New Roman,serif" font-size="12.00">Distribute final report</text>
</g>
<!-- 2479386317584&#45;&gt;2479386322096 -->
<g id="edge43" class="edge">
<title>2479386317584&#45;&gt;2479386322096</title>
<path fill="none" stroke="black" d="M4035.41,-66.01C4082.52,-70 4189.62,-79.09 4260.86,-85.13"/>
<polygon fill="black" stroke="black" points="4260.21,-88.59 4270.47,-85.95 4260.8,-81.62 4260.21,-88.59"/>
</g>
<!-- 2479386313024 -->
<g id="node37" class="node">
<title>2479386313024</title>
<polygon fill="none" stroke="black" points="4201.5,-59 4073.75,-59 4073.75,-23 4201.5,-23 4201.5,-59"/>
<text text-anchor="middle" x="4137.62" y="-35.98" font-family="Times New Roman,serif" font-size="12.00">Send report for revision</text>
</g>
<!-- 2479386317584&#45;&gt;2479386313024 -->
<g id="edge44" class="edge">
<title>2479386317584&#45;&gt;2479386313024</title>
<path fill="none" stroke="black" d="M4032.65,-60.15C4041.05,-58.6 4051.29,-56.72 4062.02,-54.74"/>
<polygon fill="black" stroke="black" points="4062.64,-58.19 4071.84,-52.93 4061.37,-51.3 4062.64,-58.19"/>
</g>
<!-- 2479386324976 -->
<g id="node38" class="node">
<title>2479386324976</title>
<polygon fill="none" stroke="black" points="4933,-85 4906,-67 4933,-49 4960,-67 4933,-85"/>
<text text-anchor="middle" x="4933" y="-61.98" font-family="Times New Roman,serif" font-size="12.00">X</text>
</g>
<!-- 2479386322096&#45;&gt;2479386324976 -->
<g id="edge45" class="edge">
<title>2479386322096&#45;&gt;2479386324976</title>
<path fill="none" stroke="black" d="M4389.74,-89.37C4488.28,-86.47 4695.21,-79.89 4870,-71 4878.59,-70.56 4887.85,-70.01 4896.52,-69.46"/>
<polygon fill="black" stroke="black" points="4896.61,-72.96 4906.35,-68.81 4896.15,-65.97 4896.61,-72.96"/>
</g>
<!-- 2479386315616 -->
<g id="node39" class="node">
<title>2479386315616</title>
<polygon fill="none" stroke="black" points="4424.5,-55 4237.5,-55 4237.5,-19 4424.5,-19 4424.5,-55"/>
<text text-anchor="middle" x="4331" y="-31.98" font-family="Times New Roman,serif" font-size="12.00">Complete risk assessment/mitigation</text>
</g>
<!-- 2479386313024&#45;&gt;2479386315616 -->
<g id="edge46" class="edge">
<title>2479386313024&#45;&gt;2479386315616</title>
<path fill="none" stroke="black" d="M4201.82,-39.68C4209.51,-39.52 4217.53,-39.35 4225.63,-39.18"/>
<polygon fill="black" stroke="black" points="4225.67,-42.68 4235.59,-38.97 4225.52,-35.68 4225.67,-42.68"/>
</g>
<!-- 2479386326752 -->
<g id="node41" class="node">
<title>2479386326752</title>
<polygon fill="none" stroke="black" points="5121.5,-85 4996,-85 4996,-49 5121.5,-49 5121.5,-85"/>
<text text-anchor="middle" x="5058.75" y="-61.98" font-family="Times New Roman,serif" font-size="12.00">Evaluate financial risks</text>
</g>
<!-- 2479386324976&#45;&gt;2479386326752 -->
<g id="edge47" class="edge">
<title>2479386324976&#45;&gt;2479386326752</title>
<path fill="none" stroke="black" d="M4960.85,-67C4967.94,-67 4975.94,-67 4984.23,-67"/>
<polygon fill="black" stroke="black" points="4984.14,-70.5 4994.14,-67 4984.14,-63.5 4984.14,-70.5"/>
</g>
<!-- 2479386323296 -->
<g id="node40" class="node">
<title>2479386323296</title>
<polygon fill="none" stroke="black" points="4568,-59 4460.5,-59 4460.5,-23 4568,-23 4568,-59"/>
<text text-anchor="middle" x="4514.25" y="-35.98" font-family="Times New Roman,serif" font-size="12.00">Close audit process</text>
</g>
<!-- 2479386315616&#45;&gt;2479386323296 -->
<g id="edge48" class="edge">
<title>2479386315616&#45;&gt;2479386323296</title>
<path fill="none" stroke="black" d="M4424.75,-39.05C4432.94,-39.23 4441.11,-39.41 4448.99,-39.58"/>
<polygon fill="black" stroke="black" points="4448.7,-43.08 4458.78,-39.8 4448.86,-36.08 4448.7,-43.08"/>
</g>
<!-- 2479385380672 -->
<g id="node42" class="node">
<title>2479385380672</title>
<polygon fill="none" stroke="black" points="4749,-61 4604,-61 4604,-25 4749,-25 4749,-61"/>
<text text-anchor="middle" x="4676.5" y="-37.98" font-family="Times New Roman,serif" font-size="12.00">Update and resubmit report</text>
</g>
<!-- 2479386323296&#45;&gt;2479385380672 -->
<g id="edge49" class="edge">
<title>2479386323296&#45;&gt;2479385380672</title>
<path fill="none" stroke="black" d="M4568.17,-41.66C4576,-41.76 4584.23,-41.86 4592.5,-41.96"/>
<polygon fill="black" stroke="black" points="4592.21,-45.46 4602.25,-42.09 4592.3,-38.46 4592.21,-45.46"/>
</g>
<!-- 2479368408048 -->
<g id="node44" class="node">
<title>2479368408048</title>
<ellipse fill="orange" stroke="black" cx="5175.5" cy="-67" rx="18" ry="18"/>
</g>
<!-- 2479386326752&#45;&gt;2479368408048 -->
<g id="edge50" class="edge">
<title>2479386326752&#45;&gt;2479368408048</title>
<path fill="none" stroke="black" d="M5121.83,-67C5130.22,-67 5138.47,-67 5145.87,-67"/>
<polygon fill="black" stroke="black" points="5145.86,-70.5 5155.86,-67 5145.86,-63.5 5145.86,-70.5"/>
</g>
<!-- 2479385380864 -->
<g id="node43" class="node">
<title>2479385380864</title>
<polygon fill="none" stroke="black" points="4870,-62 4785,-62 4785,-26 4870,-26 4870,-62"/>
<text text-anchor="middle" x="4827.5" y="-38.98" font-family="Times New Roman,serif" font-size="12.00">Archive report</text>
</g>
<!-- 2479385380672&#45;&gt;2479385380864 -->
<g id="edge51" class="edge">
<title>2479385380672&#45;&gt;2479385380864</title>
<path fill="none" stroke="black" d="M4749.38,-43.48C4757.39,-43.54 4765.43,-43.59 4773.15,-43.64"/>
<polygon fill="black" stroke="black" points="4773.02,-47.14 4783.04,-43.71 4773.07,-40.14 4773.02,-47.14"/>
</g>
<!-- 2479385380864&#45;&gt;2479386324976 -->
<g id="edge52" class="edge">
<title>2479385380864&#45;&gt;2479386324976</title>
<path fill="none" stroke="black" d="M4870.3,-53.29C4880.51,-55.56 4891.26,-57.95 4900.87,-60.08"/>
<polygon fill="black" stroke="black" points="4899.92,-63.46 4910.44,-62.21 4901.44,-56.62 4899.92,-63.46"/>
</g>
</g>
</svg>
