<?xml version="1.0" encoding="UTF-8" standalone="no"?>
<!DOCTYPE svg PUBLIC "-//W3C//DTD SVG 1.1//EN"
 "http://www.w3.org/Graphics/SVG/1.1/DTD/svg11.dtd">
<!-- Generated by graphviz version 11.0.0 (20240428.1522)
 -->
<!-- Pages: 1 -->
<svg width="4812pt" height="155pt"
 viewBox="0.00 0.00 4812.00 155.00" xmlns="http://www.w3.org/2000/svg" xmlns:xlink="http://www.w3.org/1999/xlink">
<g id="graph0" class="graph" transform="scale(1 1) rotate(0) translate(4 151)">
<polygon fill="white" stroke="none" points="-4,4 -4,-151 4808,-151 4808,4 -4,4"/>
<!-- 2479389897360 -->
<g id="node1" class="node">
<title>2479389897360</title>
<ellipse fill="green" stroke="black" cx="18" cy="-75" rx="18" ry="18"/>
</g>
<!-- 2479392544560 -->
<g id="node2" class="node">
<title>2479392544560</title>
<polygon fill="none" stroke="black" points="209.5,-93 72,-93 72,-57 209.5,-57 209.5,-93"/>
<text text-anchor="middle" x="140.75" y="-69.97" font-family="Times New Roman,serif" font-size="12.00">Evaluate operational risks</text>
</g>
<!-- 2479389897360&#45;&gt;2479392544560 -->
<g id="edge1" class="edge">
<title>2479389897360&#45;&gt;2479392544560</title>
<path fill="none" stroke="black" d="M36.3,-75C43.04,-75 51.28,-75 60.13,-75"/>
<polygon fill="black" stroke="black" points="60.09,-78.5 70.09,-75 60.09,-71.5 60.09,-78.5"/>
</g>
<!-- 2479393040688 -->
<g id="node3" class="node">
<title>2479393040688</title>
<polygon fill="none" stroke="black" points="272.5,-93 245.5,-75 272.5,-57 299.5,-75 272.5,-93"/>
<text text-anchor="middle" x="272.5" y="-69.97" font-family="Times New Roman,serif" font-size="12.00">X</text>
</g>
<!-- 2479392544560&#45;&gt;2479393040688 -->
<g id="edge2" class="edge">
<title>2479392544560&#45;&gt;2479393040688</title>
<path fill="none" stroke="black" d="M209.67,-75C217.87,-75 226.02,-75 233.57,-75"/>
<polygon fill="black" stroke="black" points="233.36,-78.5 243.36,-75 233.36,-71.5 233.36,-78.5"/>
</g>
<!-- 2479392553824 -->
<g id="node4" class="node">
<title>2479392553824</title>
<polygon fill="none" stroke="black" points="424.25,-118 335.5,-118 335.5,-82 424.25,-82 424.25,-118"/>
<text text-anchor="middle" x="379.88" y="-94.97" font-family="Times New Roman,serif" font-size="12.00">Approve report</text>
</g>
<!-- 2479393040688&#45;&gt;2479392553824 -->
<g id="edge3" class="edge">
<title>2479393040688&#45;&gt;2479392553824</title>
<path fill="none" stroke="black" d="M293.32,-79.7C302.17,-81.8 313.09,-84.39 324.12,-87.01"/>
<polygon fill="black" stroke="black" points="323.12,-90.37 333.66,-89.27 324.73,-83.56 323.12,-90.37"/>
</g>
<!-- 2479392539904 -->
<g id="node5" class="node">
<title>2479392539904</title>
<polygon fill="none" stroke="black" points="588,-66 460.25,-66 460.25,-30 588,-30 588,-66"/>
<text text-anchor="middle" x="524.12" y="-42.98" font-family="Times New Roman,serif" font-size="12.00">Send report for revision</text>
</g>
<!-- 2479393040688&#45;&gt;2479392539904 -->
<g id="edge4" class="edge">
<title>2479393040688&#45;&gt;2479392539904</title>
<path fill="none" stroke="black" d="M296.54,-72.51C330.78,-68.8 396.64,-61.68 448.56,-56.06"/>
<polygon fill="black" stroke="black" points="448.68,-59.57 458.25,-55.02 447.93,-52.61 448.68,-59.57"/>
</g>
<!-- 2479392552960 -->
<g id="node7" class="node">
<title>2479392552960</title>
<polygon fill="none" stroke="black" points="572.25,-120 476,-120 476,-84 572.25,-84 572.25,-120"/>
<text text-anchor="middle" x="524.12" y="-96.97" font-family="Times New Roman,serif" font-size="12.00">Send notification</text>
</g>
<!-- 2479392553824&#45;&gt;2479392552960 -->
<g id="edge5" class="edge">
<title>2479392553824&#45;&gt;2479392552960</title>
<path fill="none" stroke="black" d="M424.72,-100.62C437.22,-100.79 451.04,-100.99 464.28,-101.17"/>
<polygon fill="black" stroke="black" points="464.16,-104.67 474.21,-101.31 464.26,-97.67 464.16,-104.67"/>
</g>
<!-- 2479393031712 -->
<g id="node6" class="node">
<title>2479393031712</title>
<polygon fill="none" stroke="black" points="651,-93 624,-75 651,-57 678,-75 651,-93"/>
<text text-anchor="middle" x="651" y="-69.97" font-family="Times New Roman,serif" font-size="12.00">X</text>
</g>
<!-- 2479392539904&#45;&gt;2479393031712 -->
<g id="edge6" class="edge">
<title>2479392539904&#45;&gt;2479393031712</title>
<path fill="none" stroke="black" d="M588.29,-61.66C598.93,-63.96 609.53,-66.25 618.88,-68.27"/>
<polygon fill="black" stroke="black" points="617.95,-71.65 628.46,-70.34 619.43,-64.81 617.95,-71.65"/>
</g>
<!-- 2479392545952 -->
<g id="node8" class="node">
<title>2479392545952</title>
<polygon fill="none" stroke="black" points="833.5,-93 714,-93 714,-57 833.5,-57 833.5,-93"/>
<text text-anchor="middle" x="773.75" y="-69.97" font-family="Times New Roman,serif" font-size="12.00">Conduct data analysis</text>
</g>
<!-- 2479393031712&#45;&gt;2479392545952 -->
<g id="edge8" class="edge">
<title>2479393031712&#45;&gt;2479392545952</title>
<path fill="none" stroke="black" d="M678.8,-75C685.96,-75 694.05,-75 702.41,-75"/>
<polygon fill="black" stroke="black" points="702.38,-78.5 712.38,-75 702.38,-71.5 702.38,-78.5"/>
</g>
<!-- 2479392552960&#45;&gt;2479393031712 -->
<g id="edge7" class="edge">
<title>2479392552960&#45;&gt;2479393031712</title>
<path fill="none" stroke="black" d="M572.69,-91.72C588.2,-88.36 605.01,-84.73 618.98,-81.71"/>
<polygon fill="black" stroke="black" points="619.44,-85.19 628.47,-79.65 617.96,-78.35 619.44,-85.19"/>
</g>
<!-- 2479392543072 -->
<g id="node9" class="node">
<title>2479392543072</title>
<polygon fill="none" stroke="black" points="1008.5,-93 869.5,-93 869.5,-57 1008.5,-57 1008.5,-93"/>
<text text-anchor="middle" x="939" y="-69.97" font-family="Times New Roman,serif" font-size="12.00">Evaluate compliance risks</text>
</g>
<!-- 2479392545952&#45;&gt;2479392543072 -->
<g id="edge9" class="edge">
<title>2479392545952&#45;&gt;2479392543072</title>
<path fill="none" stroke="black" d="M833.69,-75C841.51,-75 849.63,-75 857.74,-75"/>
<polygon fill="black" stroke="black" points="857.64,-78.5 867.64,-75 857.64,-71.5 857.64,-78.5"/>
</g>
<!-- 2479393041120 -->
<g id="node10" class="node">
<title>2479393041120</title>
<polygon fill="none" stroke="black" points="1071.5,-93 1044.5,-75 1071.5,-57 1098.5,-75 1071.5,-93"/>
<text text-anchor="middle" x="1071.5" y="-69.97" font-family="Times New Roman,serif" font-size="12.00">X</text>
</g>
<!-- 2479392543072&#45;&gt;2479393041120 -->
<g id="edge10" class="edge">
<title>2479392543072&#45;&gt;2479393041120</title>
<path fill="none" stroke="black" d="M1008.69,-75C1016.73,-75 1024.71,-75 1032.12,-75"/>
<polygon fill="black" stroke="black" points="1032.09,-78.5 1042.09,-75 1032.09,-71.5 1032.09,-78.5"/>
</g>
<!-- 2479392551184 -->
<g id="node11" class="node">
<title>2479392551184</title>
<polygon fill="none" stroke="black" points="1438.75,-120 1325.25,-120 1325.25,-84 1438.75,-84 1438.75,-120"/>
<text text-anchor="middle" x="1382" y="-96.97" font-family="Times New Roman,serif" font-size="12.00">Compile audit report</text>
</g>
<!-- 2479393041120&#45;&gt;2479392551184 -->
<g id="edge12" class="edge">
<title>2479393041120&#45;&gt;2479392551184</title>
<path fill="none" stroke="black" d="M1096.2,-77.07C1142.17,-81.1 1244.99,-90.1 1313.67,-96.11"/>
<polygon fill="black" stroke="black" points="1313.03,-99.56 1323.3,-96.95 1313.64,-92.59 1313.03,-99.56"/>
</g>
<!-- 2479392541536 -->
<g id="node12" class="node">
<title>2479392541536</title>
<polygon fill="none" stroke="black" points="1289.25,-70 1134.5,-70 1134.5,-34 1289.25,-34 1289.25,-70"/>
<text text-anchor="middle" x="1211.88" y="-46.98" font-family="Times New Roman,serif" font-size="12.00">Launch detailed investigation</text>
</g>
<!-- 2479393041120&#45;&gt;2479392541536 -->
<g id="edge11" class="edge">
<title>2479393041120&#45;&gt;2479392541536</title>
<path fill="none" stroke="black" d="M1093.82,-71.46C1102.09,-70.08 1112.15,-68.41 1122.86,-66.63"/>
<polygon fill="black" stroke="black" points="1123.43,-70.08 1132.72,-64.99 1122.28,-63.18 1123.43,-70.08"/>
</g>
<!-- 2479393045536 -->
<g id="node13" class="node">
<title>2479393045536</title>
<polygon fill="none" stroke="black" points="1501.75,-93 1474.75,-75 1501.75,-57 1528.75,-75 1501.75,-93"/>
<text text-anchor="middle" x="1501.75" y="-69.97" font-family="Times New Roman,serif" font-size="12.00">X</text>
</g>
<!-- 2479392551184&#45;&gt;2479393045536 -->
<g id="edge13" class="edge">
<title>2479392551184&#45;&gt;2479393045536</title>
<path fill="none" stroke="black" d="M1439.12,-89.13C1449.61,-86.73 1460.22,-84.29 1469.62,-82.14"/>
<polygon fill="black" stroke="black" points="1470.32,-85.57 1479.28,-79.92 1468.75,-78.75 1470.32,-85.57"/>
</g>
<!-- 2479392548640 -->
<g id="node14" class="node">
<title>2479392548640</title>
<polygon fill="none" stroke="black" points="1438.75,-66 1325.25,-66 1325.25,-30 1438.75,-30 1438.75,-66"/>
<text text-anchor="middle" x="1382" y="-42.98" font-family="Times New Roman,serif" font-size="12.00">Compile audit report</text>
</g>
<!-- 2479392541536&#45;&gt;2479392548640 -->
<g id="edge14" class="edge">
<title>2479392541536&#45;&gt;2479392548640</title>
<path fill="none" stroke="black" d="M1289.56,-50.18C1297.59,-49.98 1305.71,-49.79 1313.62,-49.6"/>
<polygon fill="black" stroke="black" points="1313.61,-53.1 1323.52,-49.37 1313.44,-46.11 1313.61,-53.1"/>
</g>
<!-- 2479392539568 -->
<g id="node15" class="node">
<title>2479392539568</title>
<polygon fill="none" stroke="black" points="1664.75,-93 1564.75,-93 1564.75,-57 1664.75,-57 1664.75,-93"/>
<text text-anchor="middle" x="1614.75" y="-69.97" font-family="Times New Roman,serif" font-size="12.00">Perform site visits</text>
</g>
<!-- 2479393045536&#45;&gt;2479392539568 -->
<g id="edge16" class="edge">
<title>2479393045536&#45;&gt;2479392539568</title>
<path fill="none" stroke="black" d="M1529.62,-75C1536.85,-75 1544.98,-75 1553.26,-75"/>
<polygon fill="black" stroke="black" points="1553.06,-78.5 1563.06,-75 1553.06,-71.5 1553.06,-78.5"/>
</g>
<!-- 2479392548640&#45;&gt;2479393045536 -->
<g id="edge15" class="edge">
<title>2479392548640&#45;&gt;2479393045536</title>
<path fill="none" stroke="black" d="M1439.12,-60.87C1449.61,-63.27 1460.22,-65.71 1469.62,-67.86"/>
<polygon fill="black" stroke="black" points="1468.75,-71.25 1479.28,-70.08 1470.32,-64.43 1468.75,-71.25"/>
</g>
<!-- 2479392540096 -->
<g id="node16" class="node">
<title>2479392540096</title>
<polygon fill="none" stroke="black" points="1727.75,-93 1700.75,-75 1727.75,-57 1754.75,-75 1727.75,-93"/>
<text text-anchor="middle" x="1727.75" y="-69.97" font-family="Times New Roman,serif" font-size="12.00">+</text>
</g>
<!-- 2479392539568&#45;&gt;2479392540096 -->
<g id="edge17" class="edge">
<title>2479392539568&#45;&gt;2479392540096</title>
<path fill="none" stroke="black" d="M1665.08,-75C1672.99,-75 1681.06,-75 1688.65,-75"/>
<polygon fill="black" stroke="black" points="1688.57,-78.5 1698.57,-75 1688.57,-71.5 1688.57,-78.5"/>
</g>
<!-- 2479392550944 -->
<g id="node17" class="node">
<title>2479392550944</title>
<polygon fill="none" stroke="black" points="1962.38,-147 1815.12,-147 1815.12,-111 1962.38,-111 1962.38,-147"/>
<text text-anchor="middle" x="1888.75" y="-123.97" font-family="Times New Roman,serif" font-size="12.00">Prepare financial statements</text>
</g>
<!-- 2479392540096&#45;&gt;2479392550944 -->
<g id="edge20" class="edge">
<title>2479392540096&#45;&gt;2479392550944</title>
<path fill="none" stroke="black" d="M1744.31,-82.5C1756.7,-88.29 1774.6,-96.27 1790.75,-102 1795.74,-103.77 1800.9,-105.5 1806.13,-107.17"/>
<polygon fill="black" stroke="black" points="1804.89,-110.45 1815.48,-110.08 1806.97,-103.77 1804.89,-110.45"/>
</g>
<!-- 2479392547536 -->
<g id="node18" class="node">
<title>2479392547536</title>
<polygon fill="none" stroke="black" points="1986.75,-93 1790.75,-93 1790.75,-57 1986.75,-57 1986.75,-93"/>
<text text-anchor="middle" x="1888.75" y="-69.97" font-family="Times New Roman,serif" font-size="12.00">Request clarifications of discrepancies</text>
</g>
<!-- 2479392540096&#45;&gt;2479392547536 -->
<g id="edge19" class="edge">
<title>2479392540096&#45;&gt;2479392547536</title>
<path fill="none" stroke="black" d="M1755.36,-75C1762.37,-75 1770.38,-75 1778.92,-75"/>
<polygon fill="black" stroke="black" points="1778.89,-78.5 1788.89,-75 1778.89,-71.5 1778.89,-78.5"/>
</g>
<!-- 2479392539376 -->
<g id="node19" class="node">
<title>2479392539376</title>
<polygon fill="none" stroke="black" points="2135.5,-47 2027.25,-47 2027.25,-11 2135.5,-11 2135.5,-47"/>
<text text-anchor="middle" x="2081.38" y="-23.98" font-family="Times New Roman,serif" font-size="12.00">Review submission</text>
</g>
<!-- 2479392540096&#45;&gt;2479392539376 -->
<g id="edge18" class="edge">
<title>2479392540096&#45;&gt;2479392539376</title>
<path fill="none" stroke="black" d="M1743.03,-67.08C1755.29,-60.71 1773.64,-52.15 1790.75,-48 1866.38,-29.64 1956.18,-26.52 2015.52,-26.93"/>
<polygon fill="black" stroke="black" points="2015.41,-30.43 2025.45,-27.04 2015.49,-23.43 2015.41,-30.43"/>
</g>
<!-- 2479392552432 -->
<g id="node21" class="node">
<title>2479392552432</title>
<polygon fill="none" stroke="black" points="2203,-101 2176,-83 2203,-65 2230,-83 2203,-101"/>
<text text-anchor="middle" x="2203" y="-77.97" font-family="Times New Roman,serif" font-size="12.00">+</text>
</g>
<!-- 2479392550944&#45;&gt;2479392552432 -->
<g id="edge21" class="edge">
<title>2479392550944&#45;&gt;2479392552432</title>
<path fill="none" stroke="black" d="M1962.77,-129.85C2013.23,-128.89 2081.54,-124.51 2140,-110 2152.82,-106.82 2166.34,-101.22 2177.48,-95.94"/>
<polygon fill="black" stroke="black" points="2178.94,-99.12 2186.35,-91.54 2175.83,-92.85 2178.94,-99.12"/>
</g>
<!-- 2479392550368 -->
<g id="node20" class="node">
<title>2479392550368</title>
<polygon fill="none" stroke="black" points="2140,-101 2022.75,-101 2022.75,-65 2140,-65 2140,-101"/>
<text text-anchor="middle" x="2081.38" y="-77.97" font-family="Times New Roman,serif" font-size="12.00">Receive clarifications</text>
</g>
<!-- 2479392547536&#45;&gt;2479392550368 -->
<g id="edge22" class="edge">
<title>2479392547536&#45;&gt;2479392550368</title>
<path fill="none" stroke="black" d="M1987.02,-79.08C1995.16,-79.42 2003.28,-79.76 2011.14,-80.09"/>
<polygon fill="black" stroke="black" points="2010.81,-83.58 2020.94,-80.51 2011.1,-76.59 2010.81,-83.58"/>
</g>
<!-- 2479392539376&#45;&gt;2479392552432 -->
<g id="edge23" class="edge">
<title>2479392539376&#45;&gt;2479392552432</title>
<path fill="none" stroke="black" d="M2123.21,-47.43C2140.64,-55.3 2160.46,-64.25 2175.87,-71.2"/>
<polygon fill="black" stroke="black" points="2174.27,-74.32 2184.83,-75.25 2177.15,-67.94 2174.27,-74.32"/>
</g>
<!-- 2479392550368&#45;&gt;2479392552432 -->
<g id="edge24" class="edge">
<title>2479392550368&#45;&gt;2479392552432</title>
<path fill="none" stroke="black" d="M2140.44,-83C2148.4,-83 2156.42,-83 2163.9,-83"/>
<polygon fill="black" stroke="black" points="2163.64,-86.5 2173.64,-83 2163.64,-79.5 2163.64,-86.5"/>
</g>
<!-- 2479393031424 -->
<g id="node22" class="node">
<title>2479393031424</title>
<polygon fill="none" stroke="black" points="2293,-101 2266,-83 2293,-65 2320,-83 2293,-101"/>
<text text-anchor="middle" x="2293" y="-77.97" font-family="Times New Roman,serif" font-size="12.00">X</text>
</g>
<!-- 2479392552432&#45;&gt;2479393031424 -->
<g id="edge25" class="edge">
<title>2479392552432&#45;&gt;2479393031424</title>
<path fill="none" stroke="black" d="M2230.88,-83C2238.13,-83 2246.12,-83 2253.85,-83"/>
<polygon fill="black" stroke="black" points="2253.77,-86.5 2263.77,-83 2253.77,-79.5 2253.77,-86.5"/>
</g>
<!-- 2479393037952 -->
<g id="node23" class="node">
<title>2479393037952</title>
<polygon fill="none" stroke="black" points="3266.75,-101 3239.75,-83 3266.75,-65 3293.75,-83 3266.75,-101"/>
<text text-anchor="middle" x="3266.75" y="-77.97" font-family="Times New Roman,serif" font-size="12.00">X</text>
</g>
<!-- 2479393031424&#45;&gt;2479393037952 -->
<g id="edge26" class="edge">
<title>2479393031424&#45;&gt;2479393037952</title>
<path fill="none" stroke="black" d="M2316.05,-86.1C2362.65,-92.38 2474.62,-106 2569,-106 2569,-106 2569,-106 2950.12,-106 3052.97,-106 3174.16,-93.7 3231.89,-87.09"/>
<polygon fill="black" stroke="black" points="3232.18,-90.58 3241.71,-85.95 3231.37,-83.63 3232.18,-90.58"/>
</g>
<!-- 2479393039920 -->
<g id="node24" class="node">
<title>2479393039920</title>
<polygon fill="none" stroke="black" points="2507,-78 2356,-78 2356,-42 2507,-42 2507,-78"/>
<text text-anchor="middle" x="2431.5" y="-54.98" font-family="Times New Roman,serif" font-size="12.00">Gather necessary documents</text>
</g>
<!-- 2479393031424&#45;&gt;2479393039920 -->
<g id="edge27" class="edge">
<title>2479393031424&#45;&gt;2479393039920</title>
<path fill="none" stroke="black" d="M2315.33,-79.41C2323.62,-78.01 2333.7,-76.31 2344.42,-74.5"/>
<polygon fill="black" stroke="black" points="2344.99,-77.96 2354.27,-72.84 2343.83,-71.06 2344.99,-77.96"/>
</g>
<!-- 2479392544080 -->
<g id="node26" class="node">
<title>2479392544080</title>
<polygon fill="none" stroke="black" points="3433.5,-101 3329.75,-101 3329.75,-65 3433.5,-65 3433.5,-101"/>
<text text-anchor="middle" x="3381.62" y="-77.97" font-family="Times New Roman,serif" font-size="12.00">Submit documents</text>
</g>
<!-- 2479393037952&#45;&gt;2479392544080 -->
<g id="edge28" class="edge">
<title>2479393037952&#45;&gt;2479392544080</title>
<path fill="none" stroke="black" d="M3294.5,-83C3301.67,-83 3309.74,-83 3317.98,-83"/>
<polygon fill="black" stroke="black" points="3317.75,-86.5 3327.75,-83 3317.75,-79.5 3317.75,-86.5"/>
</g>
<!-- 2479393037472 -->
<g id="node25" class="node">
<title>2479393037472</title>
<polygon fill="none" stroke="black" points="2570,-78 2543,-60 2570,-42 2597,-60 2570,-78"/>
<text text-anchor="middle" x="2570" y="-54.98" font-family="Times New Roman,serif" font-size="12.00">X</text>
</g>
<!-- 2479393039920&#45;&gt;2479393037472 -->
<g id="edge29" class="edge">
<title>2479393039920&#45;&gt;2479393037472</title>
<path fill="none" stroke="black" d="M2507.14,-60C2515.29,-60 2523.32,-60 2530.76,-60"/>
<polygon fill="black" stroke="black" points="2530.74,-63.5 2540.74,-60 2530.74,-56.5 2530.74,-63.5"/>
</g>
<!-- 2479393042560 -->
<g id="node28" class="node">
<title>2479393042560</title>
<polygon fill="none" stroke="black" points="2804.25,-78 2777.25,-60 2804.25,-42 2831.25,-60 2804.25,-78"/>
<text text-anchor="middle" x="2804.25" y="-54.98" font-family="Times New Roman,serif" font-size="12.00">X</text>
</g>
<!-- 2479393037472&#45;&gt;2479393042560 -->
<g id="edge30" class="edge">
<title>2479393037472&#45;&gt;2479393042560</title>
<path fill="none" stroke="black" d="M2597.64,-60C2638.83,-60 2718.14,-60 2765.3,-60"/>
<polygon fill="black" stroke="black" points="2765.05,-63.5 2775.05,-60 2765.05,-56.5 2765.05,-63.5"/>
</g>
<!-- 2479393039488 -->
<g id="node29" class="node">
<title>2479393039488</title>
<polygon fill="none" stroke="black" points="2741.25,-36 2633,-36 2633,0 2741.25,0 2741.25,-36"/>
<text text-anchor="middle" x="2687.12" y="-12.97" font-family="Times New Roman,serif" font-size="12.00">Conduct interviews</text>
</g>
<!-- 2479393037472&#45;&gt;2479393039488 -->
<g id="edge31" class="edge">
<title>2479393037472&#45;&gt;2479393039488</title>
<path fill="none" stroke="black" d="M2587.99,-53.8C2598.06,-50.13 2611.49,-45.23 2625.19,-40.23"/>
<polygon fill="black" stroke="black" points="2626.04,-43.65 2634.23,-36.93 2623.64,-37.07 2626.04,-43.65"/>
</g>
<!-- 2479393034496 -->
<g id="node27" class="node">
<title>2479393034496</title>
<polygon fill="none" stroke="black" points="3496.5,-101 3469.5,-83 3496.5,-65 3523.5,-83 3496.5,-101"/>
<text text-anchor="middle" x="3496.5" y="-77.97" font-family="Times New Roman,serif" font-size="12.00">X</text>
</g>
<!-- 2479392544080&#45;&gt;2479393034496 -->
<g id="edge32" class="edge">
<title>2479392544080&#45;&gt;2479393034496</title>
<path fill="none" stroke="black" d="M3433.78,-83C3441.74,-83 3449.84,-83 3457.45,-83"/>
<polygon fill="black" stroke="black" points="3457.38,-86.5 3467.38,-83 3457.38,-79.5 3457.38,-86.5"/>
</g>
<!-- 2479393044480 -->
<g id="node30" class="node">
<title>2479393044480</title>
<polygon fill="none" stroke="black" points="3687.25,-128 3559.5,-128 3559.5,-92 3687.25,-92 3687.25,-128"/>
<text text-anchor="middle" x="3623.38" y="-104.97" font-family="Times New Roman,serif" font-size="12.00">Send report for revision</text>
</g>
<!-- 2479393034496&#45;&gt;2479393044480 -->
<g id="edge35" class="edge">
<title>2479393034496&#45;&gt;2479393044480</title>
<path fill="none" stroke="black" d="M3517.56,-87.34C3526.24,-89.21 3536.97,-91.54 3548.24,-93.97"/>
<polygon fill="black" stroke="black" points="3547.16,-97.32 3557.67,-96.01 3548.64,-90.48 3547.16,-97.32"/>
</g>
<!-- 2479392548736 -->
<g id="node31" class="node">
<title>2479392548736</title>
<polygon fill="none" stroke="black" points="3682,-74 3564.75,-74 3564.75,-38 3682,-38 3682,-74"/>
<text text-anchor="middle" x="3623.38" y="-50.98" font-family="Times New Roman,serif" font-size="12.00">Distribute final report</text>
</g>
<!-- 2479393034496&#45;&gt;2479392548736 -->
<g id="edge34" class="edge">
<title>2479393034496&#45;&gt;2479392548736</title>
<path fill="none" stroke="black" d="M3517.56,-78.66C3527.53,-76.51 3540.22,-73.76 3553.3,-70.93"/>
<polygon fill="black" stroke="black" points="3553.82,-74.4 3562.86,-68.87 3552.34,-67.56 3553.82,-74.4"/>
</g>
<!-- 2479392541008 -->
<g id="node32" class="node">
<title>2479392541008</title>
<polygon fill="none" stroke="black" points="3031,-78 2867.25,-78 2867.25,-42 3031,-42 3031,-78"/>
<text text-anchor="middle" x="2949.12" y="-54.98" font-family="Times New Roman,serif" font-size="12.00">Review report by audit director</text>
</g>
<!-- 2479393042560&#45;&gt;2479392541008 -->
<g id="edge36" class="edge">
<title>2479393042560&#45;&gt;2479392541008</title>
<path fill="none" stroke="black" d="M2832.12,-60C2839.15,-60 2847.13,-60 2855.55,-60"/>
<polygon fill="black" stroke="black" points="2855.3,-63.5 2865.3,-60 2855.3,-56.5 2855.3,-63.5"/>
</g>
<!-- 2479393039488&#45;&gt;2479393042560 -->
<g id="edge33" class="edge">
<title>2479393039488&#45;&gt;2479393042560</title>
<path fill="none" stroke="black" d="M2738.62,-36.42C2751.18,-41 2764.19,-45.75 2775.21,-49.77"/>
<polygon fill="black" stroke="black" points="2773.87,-53.01 2784.46,-53.15 2776.27,-46.43 2773.87,-53.01"/>
</g>
<!-- 2479393500736 -->
<g id="node33" class="node">
<title>2479393500736</title>
<polygon fill="none" stroke="black" points="3910.25,-128 3723.25,-128 3723.25,-92 3910.25,-92 3910.25,-128"/>
<text text-anchor="middle" x="3816.75" y="-104.97" font-family="Times New Roman,serif" font-size="12.00">Complete risk assessment/mitigation</text>
</g>
<!-- 2479393044480&#45;&gt;2479393500736 -->
<g id="edge37" class="edge">
<title>2479393044480&#45;&gt;2479393500736</title>
<path fill="none" stroke="black" d="M3687.57,-110C3695.26,-110 3703.28,-110 3711.38,-110"/>
<polygon fill="black" stroke="black" points="3711.34,-113.5 3721.34,-110 3711.34,-106.5 3711.34,-113.5"/>
</g>
<!-- 2479392540816 -->
<g id="node34" class="node">
<title>2479392540816</title>
<polygon fill="none" stroke="black" points="4053.75,-74 3946.25,-74 3946.25,-38 4053.75,-38 4053.75,-74"/>
<text text-anchor="middle" x="4000" y="-50.98" font-family="Times New Roman,serif" font-size="12.00">Close audit process</text>
</g>
<!-- 2479392548736&#45;&gt;2479392540816 -->
<g id="edge38" class="edge">
<title>2479392548736&#45;&gt;2479392540816</title>
<path fill="none" stroke="black" d="M3682.5,-56C3750.73,-56 3863.57,-56 3934.46,-56"/>
<polygon fill="black" stroke="black" points="3934.38,-59.5 3944.38,-56 3934.38,-52.5 3934.38,-59.5"/>
</g>
<!-- 2479392540624 -->
<g id="node35" class="node">
<title>2479392540624</title>
<polygon fill="none" stroke="black" points="3203.75,-78 3067,-78 3067,-42 3203.75,-42 3203.75,-78"/>
<text text-anchor="middle" x="3135.38" y="-54.98" font-family="Times New Roman,serif" font-size="12.00">Check regulatory updates</text>
</g>
<!-- 2479392541008&#45;&gt;2479392540624 -->
<g id="edge39" class="edge">
<title>2479392541008&#45;&gt;2479392540624</title>
<path fill="none" stroke="black" d="M3031.48,-60C3039.38,-60 3047.39,-60 3055.27,-60"/>
<polygon fill="black" stroke="black" points="3055.18,-63.5 3065.18,-60 3055.18,-56.5 3055.18,-63.5"/>
</g>
<!-- 2479393494400 -->
<g id="node37" class="node">
<title>2479393494400</title>
<polygon fill="none" stroke="black" points="4053.75,-128 3946.25,-128 3946.25,-92 4053.75,-92 4053.75,-128"/>
<text text-anchor="middle" x="4000" y="-104.97" font-family="Times New Roman,serif" font-size="12.00">Close audit process</text>
</g>
<!-- 2479393500736&#45;&gt;2479393494400 -->
<g id="edge41" class="edge">
<title>2479393500736&#45;&gt;2479393494400</title>
<path fill="none" stroke="black" d="M3910.5,-110C3918.69,-110 3926.86,-110 3934.74,-110"/>
<polygon fill="black" stroke="black" points="3934.53,-113.5 3944.53,-110 3934.53,-106.5 3934.53,-113.5"/>
</g>
<!-- 2479393030896 -->
<g id="node36" class="node">
<title>2479393030896</title>
<polygon fill="none" stroke="black" points="4241.5,-101 4214.5,-83 4241.5,-65 4268.5,-83 4241.5,-101"/>
<text text-anchor="middle" x="4241.5" y="-77.97" font-family="Times New Roman,serif" font-size="12.00">X</text>
</g>
<!-- 2479392540816&#45;&gt;2479393030896 -->
<g id="edge42" class="edge">
<title>2479392540816&#45;&gt;2479393030896</title>
<path fill="none" stroke="black" d="M4054.15,-61.99C4100.59,-67.23 4166.61,-74.67 4206.33,-79.15"/>
<polygon fill="black" stroke="black" points="4205.69,-82.6 4216.01,-80.24 4206.47,-75.64 4205.69,-82.6"/>
</g>
<!-- 2479392540624&#45;&gt;2479393037952 -->
<g id="edge40" class="edge">
<title>2479392540624&#45;&gt;2479393037952</title>
<path fill="none" stroke="black" d="M3204.09,-72.04C3214.38,-73.87 3224.57,-75.68 3233.6,-77.29"/>
<polygon fill="black" stroke="black" points="3232.79,-80.7 3243.25,-79 3234.02,-73.8 3232.79,-80.7"/>
</g>
<!-- 2479392538992 -->
<g id="node39" class="node">
<title>2479392538992</title>
<polygon fill="none" stroke="black" points="4449.5,-101 4304.5,-101 4304.5,-65 4449.5,-65 4449.5,-101"/>
<text text-anchor="middle" x="4377" y="-77.97" font-family="Times New Roman,serif" font-size="12.00">Update and resubmit report</text>
</g>
<!-- 2479393030896&#45;&gt;2479392538992 -->
<g id="edge43" class="edge">
<title>2479393030896&#45;&gt;2479392538992</title>
<path fill="none" stroke="black" d="M4269.19,-83C4276.34,-83 4284.45,-83 4292.94,-83"/>
<polygon fill="black" stroke="black" points="4292.75,-86.5 4302.75,-83 4292.75,-79.5 4292.75,-86.5"/>
</g>
<!-- 2479392545712 -->
<g id="node38" class="node">
<title>2479392545712</title>
<polygon fill="none" stroke="black" points="4178.5,-126 4089.75,-126 4089.75,-90 4178.5,-90 4178.5,-126"/>
<text text-anchor="middle" x="4134.12" y="-102.97" font-family="Times New Roman,serif" font-size="12.00">Approve report</text>
</g>
<!-- 2479393494400&#45;&gt;2479392545712 -->
<g id="edge44" class="edge">
<title>2479393494400&#45;&gt;2479392545712</title>
<path fill="none" stroke="black" d="M4053.98,-109.2C4061.89,-109.08 4070.06,-108.95 4078.01,-108.83"/>
<polygon fill="black" stroke="black" points="4078,-112.33 4087.94,-108.68 4077.89,-105.34 4078,-112.33"/>
</g>
<!-- 2479392545712&#45;&gt;2479393030896 -->
<g id="edge45" class="edge">
<title>2479392545712&#45;&gt;2479393030896</title>
<path fill="none" stroke="black" d="M4178.9,-97.61C4189.27,-95.15 4200.12,-92.58 4209.77,-90.29"/>
<polygon fill="black" stroke="black" points="4210.44,-93.73 4219.36,-88.02 4208.82,-86.92 4210.44,-93.73"/>
</g>
<!-- 2479392549984 -->
<g id="node40" class="node">
<title>2479392549984</title>
<polygon fill="none" stroke="black" points="4570.5,-101 4485.5,-101 4485.5,-65 4570.5,-65 4570.5,-101"/>
<text text-anchor="middle" x="4528" y="-77.97" font-family="Times New Roman,serif" font-size="12.00">Archive report</text>
</g>
<!-- 2479392538992&#45;&gt;2479392549984 -->
<g id="edge46" class="edge">
<title>2479392538992&#45;&gt;2479392549984</title>
<path fill="none" stroke="black" d="M4449.88,-83C4457.89,-83 4465.93,-83 4473.65,-83"/>
<polygon fill="black" stroke="black" points="4473.54,-86.5 4483.54,-83 4473.54,-79.5 4473.54,-86.5"/>
</g>
<!-- 2479392545232 -->
<g id="node41" class="node">
<title>2479392545232</title>
<polygon fill="none" stroke="black" points="4732,-101 4606.5,-101 4606.5,-65 4732,-65 4732,-101"/>
<text text-anchor="middle" x="4669.25" y="-77.97" font-family="Times New Roman,serif" font-size="12.00">Evaluate financial risks</text>
</g>
<!-- 2479392549984&#45;&gt;2479392545232 -->
<g id="edge47" class="edge">
<title>2479392549984&#45;&gt;2479392545232</title>
<path fill="none" stroke="black" d="M4570.78,-83C4578.44,-83 4586.63,-83 4594.89,-83"/>
<polygon fill="black" stroke="black" points="4594.65,-86.5 4604.65,-83 4594.65,-79.5 4594.65,-86.5"/>
</g>
<!-- 2479389889392 -->
<g id="node42" class="node">
<title>2479389889392</title>
<ellipse fill="orange" stroke="black" cx="4786" cy="-83" rx="18" ry="18"/>
</g>
<!-- 2479392545232&#45;&gt;2479389889392 -->
<g id="edge48" class="edge">
<title>2479392545232&#45;&gt;2479389889392</title>
<path fill="none" stroke="black" d="M4732.33,-83C4740.72,-83 4748.97,-83 4756.37,-83"/>
<polygon fill="black" stroke="black" points="4756.36,-86.5 4766.36,-83 4756.36,-79.5 4756.36,-86.5"/>
</g>
</g>
</svg>
