<?xml version="1.0" encoding="UTF-8" standalone="no"?>
<!DOCTYPE svg PUBLIC "-//W3C//DTD SVG 1.1//EN"
 "http://www.w3.org/Graphics/SVG/1.1/DTD/svg11.dtd">
<!-- Generated by graphviz version 11.0.0 (20240428.1522)
 -->
<!-- Pages: 1 -->
<svg width="4575pt" height="228pt"
 viewBox="0.00 0.00 4574.50 228.00" xmlns="http://www.w3.org/2000/svg" xmlns:xlink="http://www.w3.org/1999/xlink">
<g id="graph0" class="graph" transform="scale(1 1) rotate(0) translate(4 224)">
<polygon fill="white" stroke="none" points="-4,4 -4,-224 4570.5,-224 4570.5,4 -4,4"/>
<!-- 2479393567856 -->
<g id="node1" class="node">
<title>2479393567856</title>
<ellipse fill="green" stroke="black" cx="18" cy="-148" rx="18" ry="18"/>
</g>
<!-- 2479393555136 -->
<g id="node2" class="node">
<title>2479393555136</title>
<polygon fill="none" stroke="black" points="209.5,-166 72,-166 72,-130 209.5,-130 209.5,-166"/>
<text text-anchor="middle" x="140.75" y="-142.97" font-family="Times New Roman,serif" font-size="12.00">Evaluate operational risks</text>
</g>
<!-- 2479393567856&#45;&gt;2479393555136 -->
<g id="edge1" class="edge">
<title>2479393567856&#45;&gt;2479393555136</title>
<path fill="none" stroke="black" d="M36.3,-148C43.04,-148 51.28,-148 60.13,-148"/>
<polygon fill="black" stroke="black" points="60.09,-151.5 70.09,-148 60.09,-144.5 60.09,-151.5"/>
</g>
<!-- 2479393967856 -->
<g id="node3" class="node">
<title>2479393967856</title>
<polygon fill="none" stroke="black" points="272.5,-166 245.5,-148 272.5,-130 299.5,-148 272.5,-166"/>
<text text-anchor="middle" x="272.5" y="-142.97" font-family="Times New Roman,serif" font-size="12.00">X</text>
</g>
<!-- 2479393555136&#45;&gt;2479393967856 -->
<g id="edge2" class="edge">
<title>2479393555136&#45;&gt;2479393967856</title>
<path fill="none" stroke="black" d="M209.67,-148C217.87,-148 226.02,-148 233.57,-148"/>
<polygon fill="black" stroke="black" points="233.36,-151.5 243.36,-148 233.36,-144.5 233.36,-151.5"/>
</g>
<!-- 2479393560944 -->
<g id="node4" class="node">
<title>2479393560944</title>
<polygon fill="none" stroke="black" points="424.25,-191 335.5,-191 335.5,-155 424.25,-155 424.25,-191"/>
<text text-anchor="middle" x="379.88" y="-167.97" font-family="Times New Roman,serif" font-size="12.00">Approve report</text>
</g>
<!-- 2479393967856&#45;&gt;2479393560944 -->
<g id="edge3" class="edge">
<title>2479393967856&#45;&gt;2479393560944</title>
<path fill="none" stroke="black" d="M293.32,-152.7C302.17,-154.8 313.09,-157.39 324.12,-160.01"/>
<polygon fill="black" stroke="black" points="323.12,-163.37 333.66,-162.27 324.73,-156.56 323.12,-163.37"/>
</g>
<!-- 2479393565648 -->
<g id="node5" class="node">
<title>2479393565648</title>
<polygon fill="none" stroke="black" points="588,-139 460.25,-139 460.25,-103 588,-103 588,-139"/>
<text text-anchor="middle" x="524.12" y="-115.97" font-family="Times New Roman,serif" font-size="12.00">Send report for revision</text>
</g>
<!-- 2479393967856&#45;&gt;2479393565648 -->
<g id="edge4" class="edge">
<title>2479393967856&#45;&gt;2479393565648</title>
<path fill="none" stroke="black" d="M296.54,-145.51C330.78,-141.8 396.64,-134.68 448.56,-129.06"/>
<polygon fill="black" stroke="black" points="448.68,-132.57 458.25,-128.02 447.93,-125.61 448.68,-132.57"/>
</g>
<!-- 2479393556768 -->
<g id="node7" class="node">
<title>2479393556768</title>
<polygon fill="none" stroke="black" points="572.25,-193 476,-193 476,-157 572.25,-157 572.25,-193"/>
<text text-anchor="middle" x="524.12" y="-169.97" font-family="Times New Roman,serif" font-size="12.00">Send notification</text>
</g>
<!-- 2479393560944&#45;&gt;2479393556768 -->
<g id="edge5" class="edge">
<title>2479393560944&#45;&gt;2479393556768</title>
<path fill="none" stroke="black" d="M424.72,-173.62C437.22,-173.79 451.04,-173.99 464.28,-174.17"/>
<polygon fill="black" stroke="black" points="464.16,-177.67 474.21,-174.31 464.26,-170.67 464.16,-177.67"/>
</g>
<!-- 2479396639024 -->
<g id="node6" class="node">
<title>2479396639024</title>
<polygon fill="none" stroke="black" points="651,-166 624,-148 651,-130 678,-148 651,-166"/>
<text text-anchor="middle" x="651" y="-142.97" font-family="Times New Roman,serif" font-size="12.00">X</text>
</g>
<!-- 2479393565648&#45;&gt;2479396639024 -->
<g id="edge6" class="edge">
<title>2479393565648&#45;&gt;2479396639024</title>
<path fill="none" stroke="black" d="M588.29,-134.66C598.93,-136.96 609.53,-139.25 618.88,-141.27"/>
<polygon fill="black" stroke="black" points="617.95,-144.65 628.46,-143.34 619.43,-137.81 617.95,-144.65"/>
</g>
<!-- 2479393558112 -->
<g id="node8" class="node">
<title>2479393558112</title>
<polygon fill="none" stroke="black" points="833.5,-166 714,-166 714,-130 833.5,-130 833.5,-166"/>
<text text-anchor="middle" x="773.75" y="-142.97" font-family="Times New Roman,serif" font-size="12.00">Conduct data analysis</text>
</g>
<!-- 2479396639024&#45;&gt;2479393558112 -->
<g id="edge8" class="edge">
<title>2479396639024&#45;&gt;2479393558112</title>
<path fill="none" stroke="black" d="M678.8,-148C685.96,-148 694.05,-148 702.41,-148"/>
<polygon fill="black" stroke="black" points="702.38,-151.5 712.38,-148 702.38,-144.5 702.38,-151.5"/>
</g>
<!-- 2479393556768&#45;&gt;2479396639024 -->
<g id="edge7" class="edge">
<title>2479393556768&#45;&gt;2479396639024</title>
<path fill="none" stroke="black" d="M572.69,-164.72C588.2,-161.36 605.01,-157.73 618.98,-154.71"/>
<polygon fill="black" stroke="black" points="619.44,-158.19 628.47,-152.65 617.96,-151.35 619.44,-158.19"/>
</g>
<!-- 2479394088448 -->
<g id="node9" class="node">
<title>2479394088448</title>
<polygon fill="none" stroke="black" points="1008.5,-166 869.5,-166 869.5,-130 1008.5,-130 1008.5,-166"/>
<text text-anchor="middle" x="939" y="-142.97" font-family="Times New Roman,serif" font-size="12.00">Evaluate compliance risks</text>
</g>
<!-- 2479393558112&#45;&gt;2479394088448 -->
<g id="edge9" class="edge">
<title>2479393558112&#45;&gt;2479394088448</title>
<path fill="none" stroke="black" d="M833.69,-148C841.51,-148 849.63,-148 857.74,-148"/>
<polygon fill="black" stroke="black" points="857.64,-151.5 867.64,-148 857.64,-144.5 857.64,-151.5"/>
</g>
<!-- 2479394152832 -->
<g id="node10" class="node">
<title>2479394152832</title>
<polygon fill="none" stroke="black" points="1071.5,-166 1044.5,-148 1071.5,-130 1098.5,-148 1071.5,-166"/>
<text text-anchor="middle" x="1071.5" y="-142.97" font-family="Times New Roman,serif" font-size="12.00">X</text>
</g>
<!-- 2479394088448&#45;&gt;2479394152832 -->
<g id="edge10" class="edge">
<title>2479394088448&#45;&gt;2479394152832</title>
<path fill="none" stroke="black" d="M1008.69,-148C1016.73,-148 1024.71,-148 1032.12,-148"/>
<polygon fill="black" stroke="black" points="1032.09,-151.5 1042.09,-148 1032.09,-144.5 1032.09,-151.5"/>
</g>
<!-- 2479393972800 -->
<g id="node11" class="node">
<title>2479393972800</title>
<polygon fill="none" stroke="black" points="1501.75,-166 1474.75,-148 1501.75,-130 1528.75,-148 1501.75,-166"/>
<text text-anchor="middle" x="1501.75" y="-142.97" font-family="Times New Roman,serif" font-size="12.00">X</text>
</g>
<!-- 2479394152832&#45;&gt;2479393972800 -->
<g id="edge11" class="edge">
<title>2479394152832&#45;&gt;2479393972800</title>
<path fill="none" stroke="black" d="M1096.33,-149.9C1107.85,-150.72 1121.89,-151.59 1134.5,-152 1269.65,-156.36 1303.6,-156.36 1438.75,-152 1447.42,-151.72 1456.77,-151.22 1465.5,-150.67"/>
<polygon fill="black" stroke="black" points="1465.67,-154.17 1475.41,-150 1465.2,-147.18 1465.67,-154.17"/>
</g>
<!-- 2479393565504 -->
<g id="node12" class="node">
<title>2479393565504</title>
<polygon fill="none" stroke="black" points="1289.25,-143 1134.5,-143 1134.5,-107 1289.25,-107 1289.25,-143"/>
<text text-anchor="middle" x="1211.88" y="-119.97" font-family="Times New Roman,serif" font-size="12.00">Launch detailed investigation</text>
</g>
<!-- 2479394152832&#45;&gt;2479393565504 -->
<g id="edge12" class="edge">
<title>2479394152832&#45;&gt;2479393565504</title>
<path fill="none" stroke="black" d="M1093.82,-144.46C1102.09,-143.08 1112.15,-141.41 1122.86,-139.63"/>
<polygon fill="black" stroke="black" points="1123.43,-143.08 1132.72,-137.99 1122.28,-136.18 1123.43,-143.08"/>
</g>
<!-- 2479394089648 -->
<g id="node13" class="node">
<title>2479394089648</title>
<polygon fill="none" stroke="black" points="1664.75,-166 1564.75,-166 1564.75,-130 1664.75,-130 1664.75,-166"/>
<text text-anchor="middle" x="1614.75" y="-142.97" font-family="Times New Roman,serif" font-size="12.00">Perform site visits</text>
</g>
<!-- 2479393972800&#45;&gt;2479394089648 -->
<g id="edge13" class="edge">
<title>2479393972800&#45;&gt;2479394089648</title>
<path fill="none" stroke="black" d="M1529.62,-148C1536.85,-148 1544.98,-148 1553.26,-148"/>
<polygon fill="black" stroke="black" points="1553.06,-151.5 1563.06,-148 1553.06,-144.5 1553.06,-151.5"/>
</g>
<!-- 2479393562480 -->
<g id="node14" class="node">
<title>2479393562480</title>
<polygon fill="none" stroke="black" points="1438.75,-143 1325.25,-143 1325.25,-107 1438.75,-107 1438.75,-143"/>
<text text-anchor="middle" x="1382" y="-119.97" font-family="Times New Roman,serif" font-size="12.00">Compile audit report</text>
</g>
<!-- 2479393565504&#45;&gt;2479393562480 -->
<g id="edge14" class="edge">
<title>2479393565504&#45;&gt;2479393562480</title>
<path fill="none" stroke="black" d="M1289.56,-125C1297.59,-125 1305.71,-125 1313.62,-125"/>
<polygon fill="black" stroke="black" points="1313.52,-128.5 1323.52,-125 1313.52,-121.5 1313.52,-128.5"/>
</g>
<!-- 2479394088256 -->
<g id="node15" class="node">
<title>2479394088256</title>
<polygon fill="none" stroke="black" points="1727.75,-166 1700.75,-148 1727.75,-130 1754.75,-148 1727.75,-166"/>
<text text-anchor="middle" x="1727.75" y="-142.97" font-family="Times New Roman,serif" font-size="12.00">+</text>
</g>
<!-- 2479394089648&#45;&gt;2479394088256 -->
<g id="edge16" class="edge">
<title>2479394089648&#45;&gt;2479394088256</title>
<path fill="none" stroke="black" d="M1665.08,-148C1672.99,-148 1681.06,-148 1688.65,-148"/>
<polygon fill="black" stroke="black" points="1688.57,-151.5 1698.57,-148 1688.57,-144.5 1688.57,-151.5"/>
</g>
<!-- 2479393562480&#45;&gt;2479393972800 -->
<g id="edge15" class="edge">
<title>2479393562480&#45;&gt;2479393972800</title>
<path fill="none" stroke="black" d="M1439.12,-135.96C1449.45,-137.98 1459.89,-140.02 1469.17,-141.83"/>
<polygon fill="black" stroke="black" points="1468.23,-145.21 1478.72,-143.7 1469.58,-138.34 1468.23,-145.21"/>
</g>
<!-- 2479393557488 -->
<g id="node16" class="node">
<title>2479393557488</title>
<polygon fill="none" stroke="black" points="1938,-220 1790.75,-220 1790.75,-184 1938,-184 1938,-220"/>
<text text-anchor="middle" x="1864.38" y="-196.97" font-family="Times New Roman,serif" font-size="12.00">Prepare financial statements</text>
</g>
<!-- 2479394088256&#45;&gt;2479393557488 -->
<g id="edge17" class="edge">
<title>2479394088256&#45;&gt;2479393557488</title>
<path fill="none" stroke="black" d="M1744.71,-155.24C1757.17,-160.82 1774.96,-168.63 1790.75,-175 1794.53,-176.52 1798.43,-178.06 1802.37,-179.6"/>
<polygon fill="black" stroke="black" points="1800.84,-182.76 1811.43,-183.08 1803.35,-176.22 1800.84,-182.76"/>
</g>
<!-- 2479393560320 -->
<g id="node17" class="node">
<title>2479393560320</title>
<polygon fill="none" stroke="black" points="1918.5,-166 1810.25,-166 1810.25,-130 1918.5,-130 1918.5,-166"/>
<text text-anchor="middle" x="1864.38" y="-142.97" font-family="Times New Roman,serif" font-size="12.00">Review submission</text>
</g>
<!-- 2479394088256&#45;&gt;2479393560320 -->
<g id="edge18" class="edge">
<title>2479394088256&#45;&gt;2479393560320</title>
<path fill="none" stroke="black" d="M1755.35,-148C1767.86,-148 1783.39,-148 1798.73,-148"/>
<polygon fill="black" stroke="black" points="1798.31,-151.5 1808.31,-148 1798.31,-144.5 1798.31,-151.5"/>
</g>
<!-- 2479393561376 -->
<g id="node18" class="node">
<title>2479393561376</title>
<polygon fill="none" stroke="black" points="1923,-112 1805.75,-112 1805.75,-76 1923,-76 1923,-112"/>
<text text-anchor="middle" x="1864.38" y="-88.97" font-family="Times New Roman,serif" font-size="12.00">Receive clarifications</text>
</g>
<!-- 2479394088256&#45;&gt;2479393561376 -->
<g id="edge19" class="edge">
<title>2479394088256&#45;&gt;2479393561376</title>
<path fill="none" stroke="black" d="M1744.71,-140.76C1757.17,-135.18 1774.96,-127.37 1790.75,-121 1794.53,-119.48 1798.43,-117.94 1802.37,-116.4"/>
<polygon fill="black" stroke="black" points="1803.35,-119.78 1811.43,-112.92 1800.84,-113.24 1803.35,-119.78"/>
</g>
<!-- 2479393555664 -->
<g id="node19" class="node">
<title>2479393555664</title>
<polygon fill="none" stroke="black" points="2001,-166 1974,-148 2001,-130 2028,-148 2001,-166"/>
<text text-anchor="middle" x="2001" y="-142.97" font-family="Times New Roman,serif" font-size="12.00">+</text>
</g>
<!-- 2479393557488&#45;&gt;2479393555664 -->
<g id="edge20" class="edge">
<title>2479393557488&#45;&gt;2479393555664</title>
<path fill="none" stroke="black" d="M1915.91,-183.62C1923.34,-180.8 1930.89,-177.87 1938,-175 1949.84,-170.22 1962.81,-164.63 1973.81,-159.78"/>
<polygon fill="black" stroke="black" points="1974.94,-163.11 1982.66,-155.85 1972.1,-156.71 1974.94,-163.11"/>
</g>
<!-- 2479393560320&#45;&gt;2479393555664 -->
<g id="edge21" class="edge">
<title>2479393560320&#45;&gt;2479393555664</title>
<path fill="none" stroke="black" d="M1918.97,-148C1933.37,-148 1948.65,-148 1962.02,-148"/>
<polygon fill="black" stroke="black" points="1961.68,-151.5 1971.68,-148 1961.68,-144.5 1961.68,-151.5"/>
</g>
<!-- 2479393561376&#45;&gt;2479393555664 -->
<g id="edge22" class="edge">
<title>2479393561376&#45;&gt;2479393555664</title>
<path fill="none" stroke="black" d="M1915.91,-112.38C1923.34,-115.2 1930.89,-118.13 1938,-121 1949.84,-125.78 1962.81,-131.37 1973.81,-136.22"/>
<polygon fill="black" stroke="black" points="1972.1,-139.29 1982.66,-140.15 1974.94,-132.89 1972.1,-139.29"/>
</g>
<!-- 2479394511264 -->
<g id="node20" class="node">
<title>2479394511264</title>
<polygon fill="none" stroke="black" points="2091,-166 2064,-148 2091,-130 2118,-148 2091,-166"/>
<text text-anchor="middle" x="2091" y="-142.97" font-family="Times New Roman,serif" font-size="12.00">X</text>
</g>
<!-- 2479393555664&#45;&gt;2479394511264 -->
<g id="edge23" class="edge">
<title>2479393555664&#45;&gt;2479394511264</title>
<path fill="none" stroke="black" d="M2028.88,-148C2036.13,-148 2044.12,-148 2051.85,-148"/>
<polygon fill="black" stroke="black" points="2051.77,-151.5 2061.77,-148 2051.77,-144.5 2051.77,-151.5"/>
</g>
<!-- 2479394151776 -->
<g id="node21" class="node">
<title>2479394151776</title>
<polygon fill="none" stroke="black" points="3010.5,-147 2983.5,-129 3010.5,-111 3037.5,-129 3010.5,-147"/>
<text text-anchor="middle" x="3010.5" y="-123.97" font-family="Times New Roman,serif" font-size="12.00">X</text>
</g>
<!-- 2479394511264&#45;&gt;2479394151776 -->
<g id="edge25" class="edge">
<title>2479394511264&#45;&gt;2479394151776</title>
<path fill="none" stroke="black" d="M2110.82,-153.37C2155.1,-165.5 2269.46,-194 2367,-194 2367,-194 2367,-194 2790.12,-194 2863.11,-194 2944.33,-160.52 2984.37,-141.62"/>
<polygon fill="black" stroke="black" points="2985.68,-144.87 2993.17,-137.37 2982.64,-138.57 2985.68,-144.87"/>
</g>
<!-- 2479393560800 -->
<g id="node22" class="node">
<title>2479393560800</title>
<polygon fill="none" stroke="black" points="2305,-124 2154,-124 2154,-88 2305,-88 2305,-124"/>
<text text-anchor="middle" x="2229.5" y="-100.97" font-family="Times New Roman,serif" font-size="12.00">Gather necessary documents</text>
</g>
<!-- 2479394511264&#45;&gt;2479393560800 -->
<g id="edge24" class="edge">
<title>2479394511264&#45;&gt;2479393560800</title>
<path fill="none" stroke="black" d="M2110.13,-142.42C2122.56,-138.6 2139.93,-133.25 2157.55,-127.83"/>
<polygon fill="black" stroke="black" points="2158.53,-131.19 2167.06,-124.9 2156.48,-124.5 2158.53,-131.19"/>
</g>
<!-- 2479393561424 -->
<g id="node24" class="node">
<title>2479393561424</title>
<polygon fill="none" stroke="black" points="3177.25,-147 3073.5,-147 3073.5,-111 3177.25,-111 3177.25,-147"/>
<text text-anchor="middle" x="3125.38" y="-123.97" font-family="Times New Roman,serif" font-size="12.00">Submit documents</text>
</g>
<!-- 2479394151776&#45;&gt;2479393561424 -->
<g id="edge26" class="edge">
<title>2479394151776&#45;&gt;2479393561424</title>
<path fill="none" stroke="black" d="M3038.25,-129C3045.42,-129 3053.49,-129 3061.73,-129"/>
<polygon fill="black" stroke="black" points="3061.5,-132.5 3071.5,-129 3061.5,-125.5 3061.5,-132.5"/>
</g>
<!-- 2479393563344 -->
<g id="node23" class="node">
<title>2479393563344</title>
<polygon fill="none" stroke="black" points="2368,-105 2341,-87 2368,-69 2395,-87 2368,-105"/>
<text text-anchor="middle" x="2368" y="-81.97" font-family="Times New Roman,serif" font-size="12.00">+</text>
</g>
<!-- 2479393560800&#45;&gt;2479393563344 -->
<g id="edge27" class="edge">
<title>2479393560800&#45;&gt;2479393563344</title>
<path fill="none" stroke="black" d="M2305.14,-95.61C2315.15,-94.22 2324.98,-92.85 2333.75,-91.63"/>
<polygon fill="black" stroke="black" points="2334.05,-95.12 2343.48,-90.27 2333.09,-88.19 2334.05,-95.12"/>
</g>
<!-- 2479394159648 -->
<g id="node25" class="node">
<title>2479394159648</title>
<polygon fill="none" stroke="black" points="2458,-128 2431,-110 2458,-92 2485,-110 2458,-128"/>
<text text-anchor="middle" x="2458" y="-104.97" font-family="Times New Roman,serif" font-size="12.00">X</text>
</g>
<!-- 2479393563344&#45;&gt;2479394159648 -->
<g id="edge28" class="edge">
<title>2479393563344&#45;&gt;2479394159648</title>
<path fill="none" stroke="black" d="M2388.09,-91.99C2399.51,-94.97 2414.26,-98.83 2427.19,-102.21"/>
<polygon fill="black" stroke="black" points="2425.92,-105.49 2436.48,-104.64 2427.69,-98.72 2425.92,-105.49"/>
</g>
<!-- 2479393559024 -->
<g id="node27" class="node">
<title>2479393559024</title>
<polygon fill="none" stroke="black" points="2857.5,-82 2720.75,-82 2720.75,-46 2857.5,-46 2857.5,-82"/>
<text text-anchor="middle" x="2789.12" y="-58.98" font-family="Times New Roman,serif" font-size="12.00">Check regulatory updates</text>
</g>
<!-- 2479393563344&#45;&gt;2479393559024 -->
<g id="edge30" class="edge">
<title>2479393563344&#45;&gt;2479393559024</title>
<path fill="none" stroke="black" d="M2393.44,-85.36C2404.85,-84.61 2418.62,-83.73 2431,-83 2526.6,-77.37 2636.65,-71.63 2709.03,-67.95"/>
<polygon fill="black" stroke="black" points="2708.99,-71.46 2718.8,-67.46 2708.64,-64.47 2708.99,-71.46"/>
</g>
<!-- 2479393567280 -->
<g id="node28" class="node">
<title>2479393567280</title>
<polygon fill="none" stroke="black" points="2684.75,-36 2521,-36 2521,0 2684.75,0 2684.75,-36"/>
<text text-anchor="middle" x="2602.88" y="-12.97" font-family="Times New Roman,serif" font-size="12.00">Review report by audit director</text>
</g>
<!-- 2479393563344&#45;&gt;2479393567280 -->
<g id="edge29" class="edge">
<title>2479393563344&#45;&gt;2479393567280</title>
<path fill="none" stroke="black" d="M2381.62,-77.64C2393.69,-69.14 2412.71,-56.92 2431,-50 2455.82,-40.61 2483.76,-33.9 2509.73,-29.13"/>
<polygon fill="black" stroke="black" points="2509.99,-32.63 2519.24,-27.46 2508.79,-25.74 2509.99,-32.63"/>
</g>
<!-- 2479394677792 -->
<g id="node26" class="node">
<title>2479394677792</title>
<polygon fill="none" stroke="black" points="3320.75,-147 3213.25,-147 3213.25,-111 3320.75,-111 3320.75,-147"/>
<text text-anchor="middle" x="3267" y="-123.97" font-family="Times New Roman,serif" font-size="12.00">Close audit process</text>
</g>
<!-- 2479393561424&#45;&gt;2479394677792 -->
<g id="edge31" class="edge">
<title>2479393561424&#45;&gt;2479394677792</title>
<path fill="none" stroke="black" d="M3177.57,-129C3185.4,-129 3193.57,-129 3201.64,-129"/>
<polygon fill="black" stroke="black" points="3201.42,-132.5 3211.42,-129 3201.42,-125.5 3201.42,-132.5"/>
</g>
<!-- 2479394509536 -->
<g id="node30" class="node">
<title>2479394509536</title>
<polygon fill="none" stroke="black" points="2789.12,-136 2762.12,-118 2789.12,-100 2816.12,-118 2789.12,-136"/>
<text text-anchor="middle" x="2789.12" y="-112.97" font-family="Times New Roman,serif" font-size="12.00">X</text>
</g>
<!-- 2479394159648&#45;&gt;2479394509536 -->
<g id="edge33" class="edge">
<title>2479394159648&#45;&gt;2479394509536</title>
<path fill="none" stroke="black" d="M2473.22,-118.21C2485.44,-124.76 2503.76,-133.41 2521,-137 2605.49,-154.6 2707.89,-136.69 2757.81,-125.51"/>
<polygon fill="black" stroke="black" points="2758.34,-128.98 2767.3,-123.31 2756.77,-122.16 2758.34,-128.98"/>
</g>
<!-- 2479393555040 -->
<g id="node31" class="node">
<title>2479393555040</title>
<polygon fill="none" stroke="black" points="2657,-128 2548.75,-128 2548.75,-92 2657,-92 2657,-128"/>
<text text-anchor="middle" x="2602.88" y="-104.97" font-family="Times New Roman,serif" font-size="12.00">Conduct interviews</text>
</g>
<!-- 2479394159648&#45;&gt;2479393555040 -->
<g id="edge32" class="edge">
<title>2479394159648&#45;&gt;2479393555040</title>
<path fill="none" stroke="black" d="M2485.87,-110C2500.4,-110 2519.01,-110 2537.06,-110"/>
<polygon fill="black" stroke="black" points="2536.97,-113.5 2546.97,-110 2536.97,-106.5 2536.97,-113.5"/>
</g>
<!-- 2479394509200 -->
<g id="node29" class="node">
<title>2479394509200</title>
<polygon fill="none" stroke="black" points="3383.75,-147 3356.75,-129 3383.75,-111 3410.75,-129 3383.75,-147"/>
<text text-anchor="middle" x="3383.75" y="-123.97" font-family="Times New Roman,serif" font-size="12.00">X</text>
</g>
<!-- 2479394677792&#45;&gt;2479394509200 -->
<g id="edge34" class="edge">
<title>2479394677792&#45;&gt;2479394509200</title>
<path fill="none" stroke="black" d="M3321.01,-129C3328.95,-129 3337,-129 3344.55,-129"/>
<polygon fill="black" stroke="black" points="3344.4,-132.5 3354.4,-129 3344.4,-125.5 3344.4,-132.5"/>
</g>
<!-- 2479393556624 -->
<g id="node32" class="node">
<title>2479393556624</title>
<polygon fill="none" stroke="black" points="2920.5,-109 2893.5,-91 2920.5,-73 2947.5,-91 2920.5,-109"/>
<text text-anchor="middle" x="2920.5" y="-85.97" font-family="Times New Roman,serif" font-size="12.00">+</text>
</g>
<!-- 2479393559024&#45;&gt;2479393556624 -->
<g id="edge35" class="edge">
<title>2479393559024&#45;&gt;2479393556624</title>
<path fill="none" stroke="black" d="M2857.84,-78.13C2868.3,-80.32 2878.65,-82.48 2887.8,-84.38"/>
<polygon fill="black" stroke="black" points="2887.06,-87.81 2897.56,-86.42 2888.49,-80.95 2887.06,-87.81"/>
</g>
<!-- 2479393567280&#45;&gt;2479393556624 -->
<g id="edge36" class="edge">
<title>2479393567280&#45;&gt;2479393556624</title>
<path fill="none" stroke="black" d="M2685.15,-11.28C2736.47,-10.09 2803.11,-14.28 2857.5,-37 2875.31,-44.44 2891.6,-59.08 2903.01,-71.24"/>
<polygon fill="black" stroke="black" points="2900.12,-73.27 2909.39,-78.39 2905.34,-68.6 2900.12,-73.27"/>
</g>
<!-- 2479393559408 -->
<g id="node33" class="node">
<title>2479393559408</title>
<polygon fill="none" stroke="black" points="3574.5,-172 3446.75,-172 3446.75,-136 3574.5,-136 3574.5,-172"/>
<text text-anchor="middle" x="3510.62" y="-148.97" font-family="Times New Roman,serif" font-size="12.00">Send report for revision</text>
</g>
<!-- 2479394509200&#45;&gt;2479393559408 -->
<g id="edge40" class="edge">
<title>2479394509200&#45;&gt;2479393559408</title>
<path fill="none" stroke="black" d="M3405.37,-133.13C3413.89,-134.83 3424.33,-136.92 3435.29,-139.12"/>
<polygon fill="black" stroke="black" points="3434.38,-142.5 3444.87,-141.04 3435.75,-135.64 3434.38,-142.5"/>
</g>
<!-- 2479393560464 -->
<g id="node34" class="node">
<title>2479393560464</title>
<polygon fill="none" stroke="black" points="3762.62,-120 3645.38,-120 3645.38,-84 3762.62,-84 3762.62,-120"/>
<text text-anchor="middle" x="3704" y="-96.97" font-family="Times New Roman,serif" font-size="12.00">Distribute final report</text>
</g>
<!-- 2479394509200&#45;&gt;2479393560464 -->
<g id="edge41" class="edge">
<title>2479394509200&#45;&gt;2479393560464</title>
<path fill="none" stroke="black" d="M3408.41,-126.99C3455.52,-123 3562.62,-113.91 3633.86,-107.87"/>
<polygon fill="black" stroke="black" points="3633.8,-111.38 3643.47,-107.05 3633.21,-104.41 3633.8,-111.38"/>
</g>
<!-- 2479394509536&#45;&gt;2479393556624 -->
<g id="edge38" class="edge">
<title>2479394509536&#45;&gt;2479393556624</title>
<path fill="none" stroke="black" d="M2810.34,-113.78C2831.23,-109.42 2864.1,-102.56 2888.32,-97.51"/>
<polygon fill="black" stroke="black" points="2888.87,-100.97 2897.95,-95.5 2887.44,-94.12 2888.87,-100.97"/>
</g>
<!-- 2479393555040&#45;&gt;2479394509536 -->
<g id="edge39" class="edge">
<title>2479393555040&#45;&gt;2479394509536</title>
<path fill="none" stroke="black" d="M2657.17,-112.31C2687.53,-113.63 2724.79,-115.25 2751.79,-116.42"/>
<polygon fill="black" stroke="black" points="2751.39,-119.91 2761.54,-116.85 2751.7,-112.91 2751.39,-119.91"/>
</g>
<!-- 2479393556624&#45;&gt;2479394151776 -->
<g id="edge37" class="edge">
<title>2479393556624&#45;&gt;2479394151776</title>
<path fill="none" stroke="black" d="M2937.64,-97.97C2950.29,-103.43 2968.17,-111.15 2982.92,-117.52"/>
<polygon fill="black" stroke="black" points="2981.5,-120.72 2992.07,-121.47 2984.28,-114.3 2981.5,-120.72"/>
</g>
<!-- 2479393564400 -->
<g id="node36" class="node">
<title>2479393564400</title>
<polygon fill="none" stroke="black" points="3797.5,-174 3610.5,-174 3610.5,-138 3797.5,-138 3797.5,-174"/>
<text text-anchor="middle" x="3704" y="-150.97" font-family="Times New Roman,serif" font-size="12.00">Complete risk assessment/mitigation</text>
</g>
<!-- 2479393559408&#45;&gt;2479393564400 -->
<g id="edge42" class="edge">
<title>2479393559408&#45;&gt;2479393564400</title>
<path fill="none" stroke="black" d="M3574.82,-154.66C3582.51,-154.74 3590.53,-154.82 3598.63,-154.91"/>
<polygon fill="black" stroke="black" points="3598.56,-158.41 3608.59,-155.01 3598.63,-151.41 3598.56,-158.41"/>
</g>
<!-- 2479394511552 -->
<g id="node35" class="node">
<title>2479394511552</title>
<polygon fill="none" stroke="black" points="4004,-147 3977,-129 4004,-111 4031,-129 4004,-147"/>
<text text-anchor="middle" x="4004" y="-123.97" font-family="Times New Roman,serif" font-size="12.00">X</text>
</g>
<!-- 2479393560464&#45;&gt;2479394511552 -->
<g id="edge43" class="edge">
<title>2479393560464&#45;&gt;2479394511552</title>
<path fill="none" stroke="black" d="M3762.81,-107.24C3823.77,-112.76 3917.8,-121.28 3968.23,-125.85"/>
<polygon fill="black" stroke="black" points="3967.69,-129.32 3977.97,-126.73 3968.32,-122.34 3967.69,-129.32"/>
</g>
<!-- 2479393561232 -->
<g id="node37" class="node">
<title>2479393561232</title>
<polygon fill="none" stroke="black" points="4212,-147 4067,-147 4067,-111 4212,-111 4212,-147"/>
<text text-anchor="middle" x="4139.5" y="-123.97" font-family="Times New Roman,serif" font-size="12.00">Update and resubmit report</text>
</g>
<!-- 2479394511552&#45;&gt;2479393561232 -->
<g id="edge44" class="edge">
<title>2479394511552&#45;&gt;2479393561232</title>
<path fill="none" stroke="black" d="M4031.69,-129C4038.84,-129 4046.95,-129 4055.44,-129"/>
<polygon fill="black" stroke="black" points="4055.25,-132.5 4065.25,-129 4055.25,-125.5 4055.25,-132.5"/>
</g>
<!-- 2479393561328 -->
<g id="node38" class="node">
<title>2479393561328</title>
<polygon fill="none" stroke="black" points="3941,-172 3833.5,-172 3833.5,-136 3941,-136 3941,-172"/>
<text text-anchor="middle" x="3887.25" y="-148.97" font-family="Times New Roman,serif" font-size="12.00">Close audit process</text>
</g>
<!-- 2479393564400&#45;&gt;2479393561328 -->
<g id="edge45" class="edge">
<title>2479393564400&#45;&gt;2479393561328</title>
<path fill="none" stroke="black" d="M3797.75,-154.98C3805.94,-154.89 3814.11,-154.8 3821.99,-154.71"/>
<polygon fill="black" stroke="black" points="3821.82,-158.21 3831.78,-154.6 3821.74,-151.21 3821.82,-158.21"/>
</g>
<!-- 2479393566896 -->
<g id="node39" class="node">
<title>2479393566896</title>
<polygon fill="none" stroke="black" points="4333,-147 4248,-147 4248,-111 4333,-111 4333,-147"/>
<text text-anchor="middle" x="4290.5" y="-123.97" font-family="Times New Roman,serif" font-size="12.00">Archive report</text>
</g>
<!-- 2479393561232&#45;&gt;2479393566896 -->
<g id="edge47" class="edge">
<title>2479393561232&#45;&gt;2479393566896</title>
<path fill="none" stroke="black" d="M4212.38,-129C4220.39,-129 4228.43,-129 4236.15,-129"/>
<polygon fill="black" stroke="black" points="4236.04,-132.5 4246.04,-129 4236.04,-125.5 4236.04,-132.5"/>
</g>
<!-- 2479393561328&#45;&gt;2479394511552 -->
<g id="edge46" class="edge">
<title>2479393561328&#45;&gt;2479394511552</title>
<path fill="none" stroke="black" d="M3941.26,-142.45C3951.66,-140.18 3962.26,-137.88 3971.67,-135.83"/>
<polygon fill="black" stroke="black" points="3972.35,-139.26 3981.38,-133.71 3970.86,-132.42 3972.35,-139.26"/>
</g>
<!-- 2479393563296 -->
<g id="node40" class="node">
<title>2479393563296</title>
<polygon fill="none" stroke="black" points="4494.5,-147 4369,-147 4369,-111 4494.5,-111 4494.5,-147"/>
<text text-anchor="middle" x="4431.75" y="-123.97" font-family="Times New Roman,serif" font-size="12.00">Evaluate financial risks</text>
</g>
<!-- 2479393566896&#45;&gt;2479393563296 -->
<g id="edge48" class="edge">
<title>2479393566896&#45;&gt;2479393563296</title>
<path fill="none" stroke="black" d="M4333.28,-129C4340.94,-129 4349.13,-129 4357.39,-129"/>
<polygon fill="black" stroke="black" points="4357.15,-132.5 4367.15,-129 4357.15,-125.5 4357.15,-132.5"/>
</g>
<!-- 2479393570256 -->
<g id="node41" class="node">
<title>2479393570256</title>
<ellipse fill="orange" stroke="black" cx="4548.5" cy="-129" rx="18" ry="18"/>
</g>
<!-- 2479393563296&#45;&gt;2479393570256 -->
<g id="edge49" class="edge">
<title>2479393563296&#45;&gt;2479393570256</title>
<path fill="none" stroke="black" d="M4494.83,-129C4503.22,-129 4511.47,-129 4518.87,-129"/>
<polygon fill="black" stroke="black" points="4518.86,-132.5 4528.86,-129 4518.86,-125.5 4518.86,-132.5"/>
</g>
</g>
</svg>
