<?xml version="1.0" encoding="UTF-8" standalone="no"?>
<!DOCTYPE svg PUBLIC "-//W3C//DTD SVG 1.1//EN"
 "http://www.w3.org/Graphics/SVG/1.1/DTD/svg11.dtd">
<!-- Generated by graphviz version 11.0.0 (20240428.1522)
 -->
<!-- Pages: 1 -->
<svg width="4320pt" height="170pt"
 viewBox="0.00 0.00 4320.00 170.39" xmlns="http://www.w3.org/2000/svg" xmlns:xlink="http://www.w3.org/1999/xlink">
<g id="graph0" class="graph" transform="scale(1 1) rotate(0) translate(4 166.39)">
<polygon fill="white" stroke="none" points="-4,4 -4,-166.39 4316,-166.39 4316,4 -4,4"/>
<!-- 2479389017680 -->
<g id="node1" class="node">
<title>2479389017680</title>
<ellipse fill="green" stroke="black" cx="18" cy="-72" rx="18" ry="18"/>
</g>
<!-- 2479392664960 -->
<g id="node2" class="node">
<title>2479392664960</title>
<polygon fill="none" stroke="black" points="209.5,-90 72,-90 72,-54 209.5,-54 209.5,-90"/>
<text text-anchor="middle" x="140.75" y="-66.97" font-family="Times New Roman,serif" font-size="12.00">Evaluate operational risks</text>
</g>
<!-- 2479389017680&#45;&gt;2479392664960 -->
<g id="edge1" class="edge">
<title>2479389017680&#45;&gt;2479392664960</title>
<path fill="none" stroke="black" d="M36.3,-72C43.04,-72 51.28,-72 60.13,-72"/>
<polygon fill="black" stroke="black" points="60.09,-75.5 70.09,-72 60.09,-68.5 60.09,-75.5"/>
</g>
<!-- 2479393565216 -->
<g id="node3" class="node">
<title>2479393565216</title>
<polygon fill="none" stroke="black" points="373.25,-90 245.5,-90 245.5,-54 373.25,-54 373.25,-90"/>
<text text-anchor="middle" x="309.38" y="-66.97" font-family="Times New Roman,serif" font-size="12.00">Send report for revision</text>
</g>
<!-- 2479392664960&#45;&gt;2479393565216 -->
<g id="edge2" class="edge">
<title>2479392664960&#45;&gt;2479393565216</title>
<path fill="none" stroke="black" d="M209.52,-72C217.55,-72 225.77,-72 233.88,-72"/>
<polygon fill="black" stroke="black" points="233.72,-75.5 243.72,-72 233.72,-68.5 233.72,-75.5"/>
</g>
<!-- 2479392544128 -->
<g id="node4" class="node">
<title>2479392544128</title>
<polygon fill="none" stroke="black" points="505.5,-90 409.25,-90 409.25,-54 505.5,-54 505.5,-90"/>
<text text-anchor="middle" x="457.38" y="-66.97" font-family="Times New Roman,serif" font-size="12.00">Send notification</text>
</g>
<!-- 2479393565216&#45;&gt;2479392544128 -->
<g id="edge3" class="edge">
<title>2479393565216&#45;&gt;2479392544128</title>
<path fill="none" stroke="black" d="M373.56,-72C381.54,-72 389.67,-72 397.57,-72"/>
<polygon fill="black" stroke="black" points="397.43,-75.5 407.43,-72 397.43,-68.5 397.43,-75.5"/>
</g>
<!-- 2479392667840 -->
<g id="node5" class="node">
<title>2479392667840</title>
<polygon fill="none" stroke="black" points="630.25,-90 541.5,-90 541.5,-54 630.25,-54 630.25,-90"/>
<text text-anchor="middle" x="585.88" y="-66.97" font-family="Times New Roman,serif" font-size="12.00">Approve report</text>
</g>
<!-- 2479392544128&#45;&gt;2479392667840 -->
<g id="edge4" class="edge">
<title>2479392544128&#45;&gt;2479392667840</title>
<path fill="none" stroke="black" d="M505.84,-72C513.66,-72 521.82,-72 529.81,-72"/>
<polygon fill="black" stroke="black" points="529.81,-75.5 539.81,-72 529.81,-68.5 529.81,-75.5"/>
</g>
<!-- 2479392547056 -->
<g id="node6" class="node">
<title>2479392547056</title>
<polygon fill="none" stroke="black" points="785.75,-90 666.25,-90 666.25,-54 785.75,-54 785.75,-90"/>
<text text-anchor="middle" x="726" y="-66.97" font-family="Times New Roman,serif" font-size="12.00">Conduct data analysis</text>
</g>
<!-- 2479392667840&#45;&gt;2479392547056 -->
<g id="edge5" class="edge">
<title>2479392667840&#45;&gt;2479392547056</title>
<path fill="none" stroke="black" d="M630.58,-72C638.21,-72 646.31,-72 654.45,-72"/>
<polygon fill="black" stroke="black" points="654.41,-75.5 664.41,-72 654.41,-68.5 654.41,-75.5"/>
</g>
<!-- 2479392545280 -->
<g id="node7" class="node">
<title>2479392545280</title>
<polygon fill="none" stroke="black" points="960.75,-90 821.75,-90 821.75,-54 960.75,-54 960.75,-90"/>
<text text-anchor="middle" x="891.25" y="-66.97" font-family="Times New Roman,serif" font-size="12.00">Evaluate compliance risks</text>
</g>
<!-- 2479392547056&#45;&gt;2479392545280 -->
<g id="edge6" class="edge">
<title>2479392547056&#45;&gt;2479392545280</title>
<path fill="none" stroke="black" d="M785.94,-72C793.76,-72 801.88,-72 809.99,-72"/>
<polygon fill="black" stroke="black" points="809.89,-75.5 819.89,-72 809.89,-68.5 809.89,-75.5"/>
</g>
<!-- 2479392551328 -->
<g id="node8" class="node">
<title>2479392551328</title>
<polygon fill="none" stroke="black" points="1023.75,-90 996.75,-72 1023.75,-54 1050.75,-72 1023.75,-90"/>
<text text-anchor="middle" x="1023.75" y="-66.97" font-family="Times New Roman,serif" font-size="12.00">X</text>
</g>
<!-- 2479392545280&#45;&gt;2479392551328 -->
<g id="edge7" class="edge">
<title>2479392545280&#45;&gt;2479392551328</title>
<path fill="none" stroke="black" d="M960.94,-72C968.98,-72 976.96,-72 984.37,-72"/>
<polygon fill="black" stroke="black" points="984.34,-75.5 994.34,-72 984.34,-68.5 984.34,-75.5"/>
</g>
<!-- 2479392546960 -->
<g id="node9" class="node">
<title>2479392546960</title>
<polygon fill="none" stroke="black" points="1304.5,-90 1277.5,-72 1304.5,-54 1331.5,-72 1304.5,-90"/>
<text text-anchor="middle" x="1304.5" y="-66.97" font-family="Times New Roman,serif" font-size="12.00">X</text>
</g>
<!-- 2479392551328&#45;&gt;2479392546960 -->
<g id="edge8" class="edge">
<title>2479392551328&#45;&gt;2479392546960</title>
<path fill="none" stroke="black" d="M1048.58,-73.9C1060.1,-74.72 1074.14,-75.59 1086.75,-76 1155.49,-78.22 1172.76,-78.22 1241.5,-76 1250.17,-75.72 1259.52,-75.22 1268.25,-74.67"/>
<polygon fill="black" stroke="black" points="1268.42,-78.17 1278.16,-74 1267.95,-71.18 1268.42,-78.17"/>
</g>
<!-- 2479389887808 -->
<g id="node10" class="node">
<title>2479389887808</title>
<polygon fill="none" stroke="black" points="1241.5,-67 1086.75,-67 1086.75,-31 1241.5,-31 1241.5,-67"/>
<text text-anchor="middle" x="1164.12" y="-43.98" font-family="Times New Roman,serif" font-size="12.00">Launch detailed investigation</text>
</g>
<!-- 2479392551328&#45;&gt;2479389887808 -->
<g id="edge9" class="edge">
<title>2479392551328&#45;&gt;2479389887808</title>
<path fill="none" stroke="black" d="M1046.07,-68.46C1054.34,-67.08 1064.4,-65.41 1075.11,-63.63"/>
<polygon fill="black" stroke="black" points="1075.68,-67.08 1084.97,-61.99 1074.53,-60.18 1075.68,-67.08"/>
</g>
<!-- 2479393569536 -->
<g id="node11" class="node">
<title>2479393569536</title>
<polygon fill="none" stroke="black" points="1481,-90 1367.5,-90 1367.5,-54 1481,-54 1481,-90"/>
<text text-anchor="middle" x="1424.25" y="-66.97" font-family="Times New Roman,serif" font-size="12.00">Compile audit report</text>
</g>
<!-- 2479392546960&#45;&gt;2479393569536 -->
<g id="edge11" class="edge">
<title>2479392546960&#45;&gt;2479393569536</title>
<path fill="none" stroke="black" d="M1332.22,-72C1339.4,-72 1347.51,-72 1355.85,-72"/>
<polygon fill="black" stroke="black" points="1355.78,-75.5 1365.78,-72 1355.78,-68.5 1355.78,-75.5"/>
</g>
<!-- 2479389887808&#45;&gt;2479392546960 -->
<g id="edge10" class="edge">
<title>2479389887808&#45;&gt;2479392546960</title>
<path fill="none" stroke="black" d="M1241.6,-61.71C1251.82,-63.41 1261.84,-65.08 1270.73,-66.55"/>
<polygon fill="black" stroke="black" points="1270.14,-70 1280.58,-68.19 1271.29,-63.1 1270.14,-70"/>
</g>
<!-- 2479393564448 -->
<g id="node12" class="node">
<title>2479393564448</title>
<polygon fill="none" stroke="black" points="1544,-90 1517,-72 1544,-54 1571,-72 1544,-90"/>
<text text-anchor="middle" x="1544" y="-66.97" font-family="Times New Roman,serif" font-size="12.00">+</text>
</g>
<!-- 2479393569536&#45;&gt;2479393564448 -->
<g id="edge12" class="edge">
<title>2479393569536&#45;&gt;2479393564448</title>
<path fill="none" stroke="black" d="M1481.37,-72C1489.37,-72 1497.45,-72 1505,-72"/>
<polygon fill="black" stroke="black" points="1504.83,-75.5 1514.83,-72 1504.83,-68.5 1504.83,-75.5"/>
</g>
<!-- 2479392668032 -->
<g id="node13" class="node">
<title>2479392668032</title>
<polygon fill="none" stroke="black" points="1739.25,-144 1622,-144 1622,-108 1739.25,-108 1739.25,-144"/>
<text text-anchor="middle" x="1680.62" y="-120.97" font-family="Times New Roman,serif" font-size="12.00">Receive clarifications</text>
</g>
<!-- 2479393564448&#45;&gt;2479392668032 -->
<g id="edge13" class="edge">
<title>2479393564448&#45;&gt;2479392668032</title>
<path fill="none" stroke="black" d="M1560.96,-79.24C1573.42,-84.82 1591.21,-92.63 1607,-99 1610.78,-100.52 1614.68,-102.06 1618.62,-103.6"/>
<polygon fill="black" stroke="black" points="1617.09,-106.76 1627.68,-107.08 1619.6,-100.22 1617.09,-106.76"/>
</g>
<!-- 2479389894576 -->
<g id="node14" class="node">
<title>2479389894576</title>
<polygon fill="none" stroke="black" points="1734.75,-90 1626.5,-90 1626.5,-54 1734.75,-54 1734.75,-90"/>
<text text-anchor="middle" x="1680.62" y="-66.97" font-family="Times New Roman,serif" font-size="12.00">Review submission</text>
</g>
<!-- 2479393564448&#45;&gt;2479389894576 -->
<g id="edge14" class="edge">
<title>2479393564448&#45;&gt;2479389894576</title>
<path fill="none" stroke="black" d="M1571.6,-72C1584.11,-72 1599.64,-72 1614.98,-72"/>
<polygon fill="black" stroke="black" points="1614.56,-75.5 1624.56,-72 1614.56,-68.5 1614.56,-75.5"/>
</g>
<!-- 2479389886080 -->
<g id="node15" class="node">
<title>2479389886080</title>
<polygon fill="none" stroke="black" points="1754.25,-36 1607,-36 1607,0 1754.25,0 1754.25,-36"/>
<text text-anchor="middle" x="1680.62" y="-12.97" font-family="Times New Roman,serif" font-size="12.00">Prepare financial statements</text>
</g>
<!-- 2479393564448&#45;&gt;2479389886080 -->
<g id="edge15" class="edge">
<title>2479393564448&#45;&gt;2479389886080</title>
<path fill="none" stroke="black" d="M1560.96,-64.76C1573.42,-59.18 1591.21,-51.37 1607,-45 1610.78,-43.48 1614.68,-41.94 1618.62,-40.4"/>
<polygon fill="black" stroke="black" points="1619.6,-43.78 1627.68,-36.92 1617.09,-37.24 1619.6,-43.78"/>
</g>
<!-- 2479393566992 -->
<g id="node16" class="node">
<title>2479393566992</title>
<polygon fill="none" stroke="black" points="1817.25,-90 1790.25,-72 1817.25,-54 1844.25,-72 1817.25,-90"/>
<text text-anchor="middle" x="1817.25" y="-66.97" font-family="Times New Roman,serif" font-size="12.00">+</text>
</g>
<!-- 2479392668032&#45;&gt;2479393566992 -->
<g id="edge16" class="edge">
<title>2479392668032&#45;&gt;2479393566992</title>
<path fill="none" stroke="black" d="M1732.16,-107.62C1739.59,-104.8 1747.14,-101.87 1754.25,-99 1766.09,-94.22 1779.06,-88.63 1790.06,-83.78"/>
<polygon fill="black" stroke="black" points="1791.19,-87.11 1798.91,-79.85 1788.35,-80.71 1791.19,-87.11"/>
</g>
<!-- 2479389894576&#45;&gt;2479393566992 -->
<g id="edge17" class="edge">
<title>2479389894576&#45;&gt;2479393566992</title>
<path fill="none" stroke="black" d="M1735.22,-72C1749.62,-72 1764.9,-72 1778.27,-72"/>
<polygon fill="black" stroke="black" points="1777.93,-75.5 1787.93,-72 1777.93,-68.5 1777.93,-75.5"/>
</g>
<!-- 2479389886080&#45;&gt;2479393566992 -->
<g id="edge18" class="edge">
<title>2479389886080&#45;&gt;2479393566992</title>
<path fill="none" stroke="black" d="M1732.16,-36.38C1739.59,-39.2 1747.14,-42.13 1754.25,-45 1766.09,-49.78 1779.06,-55.37 1790.06,-60.22"/>
<polygon fill="black" stroke="black" points="1788.35,-63.29 1798.91,-64.15 1791.19,-56.89 1788.35,-63.29"/>
</g>
<!-- 2479393563488 -->
<g id="node17" class="node">
<title>2479393563488</title>
<polygon fill="none" stroke="black" points="2031.25,-90 1880.25,-90 1880.25,-54 2031.25,-54 2031.25,-90"/>
<text text-anchor="middle" x="1955.75" y="-66.97" font-family="Times New Roman,serif" font-size="12.00">Gather necessary documents</text>
</g>
<!-- 2479393566992&#45;&gt;2479393563488 -->
<g id="edge19" class="edge">
<title>2479393566992&#45;&gt;2479393563488</title>
<path fill="none" stroke="black" d="M1844.89,-72C1852.01,-72 1860.11,-72 1868.61,-72"/>
<polygon fill="black" stroke="black" points="1868.44,-75.5 1878.44,-72 1868.44,-68.5 1868.44,-75.5"/>
</g>
<!-- 2479393559072 -->
<g id="node18" class="node">
<title>2479393559072</title>
<polygon fill="none" stroke="black" points="2094.25,-90 2067.25,-72 2094.25,-54 2121.25,-72 2094.25,-90"/>
<text text-anchor="middle" x="2094.25" y="-66.97" font-family="Times New Roman,serif" font-size="12.00">+</text>
</g>
<!-- 2479393563488&#45;&gt;2479393559072 -->
<g id="edge20" class="edge">
<title>2479393563488&#45;&gt;2479393559072</title>
<path fill="none" stroke="black" d="M2031.39,-72C2039.54,-72 2047.57,-72 2055.01,-72"/>
<polygon fill="black" stroke="black" points="2054.99,-75.5 2064.99,-72 2054.99,-68.5 2054.99,-75.5"/>
</g>
<!-- 2479392553200 -->
<g id="node19" class="node">
<title>2479392553200</title>
<polygon fill="none" stroke="black" points="2184.25,-144 2157.25,-126 2184.25,-108 2211.25,-126 2184.25,-144"/>
<text text-anchor="middle" x="2184.25" y="-120.97" font-family="Times New Roman,serif" font-size="12.00">X</text>
</g>
<!-- 2479393559072&#45;&gt;2479392553200 -->
<g id="edge21" class="edge">
<title>2479393559072&#45;&gt;2479392553200</title>
<path fill="none" stroke="black" d="M2109,-80.44C2122.61,-88.79 2143.71,-101.73 2159.94,-111.7"/>
<polygon fill="black" stroke="black" points="2157.66,-114.4 2168.02,-116.65 2161.32,-108.44 2157.66,-114.4"/>
</g>
<!-- 2479393558784 -->
<g id="node20" class="node">
<title>2479393558784</title>
<polygon fill="none" stroke="black" points="2411,-90 2247.25,-90 2247.25,-54 2411,-54 2411,-90"/>
<text text-anchor="middle" x="2329.12" y="-66.97" font-family="Times New Roman,serif" font-size="12.00">Review report by audit director</text>
</g>
<!-- 2479393559072&#45;&gt;2479393558784 -->
<g id="edge22" class="edge">
<title>2479393559072&#45;&gt;2479393558784</title>
<path fill="none" stroke="black" d="M2121.96,-72C2149.7,-72 2194.68,-72 2235.55,-72"/>
<polygon fill="black" stroke="black" points="2235.44,-75.5 2245.44,-72 2235.44,-68.5 2235.44,-75.5"/>
</g>
<!-- 2479392550464 -->
<g id="node21" class="node">
<title>2479392550464</title>
<polygon fill="none" stroke="black" points="2583.75,-44 2447,-44 2447,-8 2583.75,-8 2583.75,-44"/>
<text text-anchor="middle" x="2515.38" y="-20.98" font-family="Times New Roman,serif" font-size="12.00">Check regulatory updates</text>
</g>
<!-- 2479393559072&#45;&gt;2479392550464 -->
<g id="edge23" class="edge">
<title>2479393559072&#45;&gt;2479392550464</title>
<path fill="none" stroke="black" d="M2115.31,-67.74C2144.3,-61.75 2199.64,-50.91 2247.25,-45 2310.22,-37.19 2381.98,-32.31 2435.25,-29.45"/>
<polygon fill="black" stroke="black" points="2435.35,-32.95 2445.16,-28.93 2434.99,-25.96 2435.35,-32.95"/>
</g>
<!-- 2479385466864 -->
<g id="node22" class="node">
<title>2479385466864</title>
<polygon fill="none" stroke="black" points="2515.38,-144 2488.38,-126 2515.38,-108 2542.38,-126 2515.38,-144"/>
<text text-anchor="middle" x="2515.38" y="-120.97" font-family="Times New Roman,serif" font-size="12.00">X</text>
</g>
<!-- 2479392553200&#45;&gt;2479385466864 -->
<g id="edge24" class="edge">
<title>2479392553200&#45;&gt;2479385466864</title>
<path fill="none" stroke="black" d="M2199.47,-134.21C2211.69,-140.76 2230.01,-149.41 2247.25,-153 2318.5,-167.84 2338.82,-162.27 2411,-153 2436.8,-149.69 2465.36,-141.9 2485.91,-135.53"/>
<polygon fill="black" stroke="black" points="2486.81,-138.92 2495.28,-132.55 2484.69,-132.25 2486.81,-138.92"/>
</g>
<!-- 2479392545856 -->
<g id="node24" class="node">
<title>2479392545856</title>
<polygon fill="none" stroke="black" points="2383.25,-144 2275,-144 2275,-108 2383.25,-108 2383.25,-144"/>
<text text-anchor="middle" x="2329.12" y="-120.97" font-family="Times New Roman,serif" font-size="12.00">Conduct interviews</text>
</g>
<!-- 2479392553200&#45;&gt;2479392545856 -->
<g id="edge25" class="edge">
<title>2479392553200&#45;&gt;2479392545856</title>
<path fill="none" stroke="black" d="M2212.12,-126C2226.65,-126 2245.26,-126 2263.31,-126"/>
<polygon fill="black" stroke="black" points="2263.22,-129.5 2273.22,-126 2263.22,-122.5 2263.22,-129.5"/>
</g>
<!-- 2479392663472 -->
<g id="node23" class="node">
<title>2479392663472</title>
<polygon fill="none" stroke="black" points="2646.75,-90 2619.75,-72 2646.75,-54 2673.75,-72 2646.75,-90"/>
<text text-anchor="middle" x="2646.75" y="-66.97" font-family="Times New Roman,serif" font-size="12.00">+</text>
</g>
<!-- 2479393558784&#45;&gt;2479392663472 -->
<g id="edge26" class="edge">
<title>2479393558784&#45;&gt;2479392663472</title>
<path fill="none" stroke="black" d="M2411.41,-72C2474.55,-72 2559.26,-72 2607.63,-72"/>
<polygon fill="black" stroke="black" points="2607.59,-75.5 2617.59,-72 2607.59,-68.5 2607.59,-75.5"/>
</g>
<!-- 2479392550464&#45;&gt;2479392663472 -->
<g id="edge27" class="edge">
<title>2479392550464&#45;&gt;2479392663472</title>
<path fill="none" stroke="black" d="M2568.25,-44.44C2585.11,-50.44 2603.19,-56.87 2617.64,-62"/>
<polygon fill="black" stroke="black" points="2616.33,-65.25 2626.93,-65.31 2618.68,-58.66 2616.33,-65.25"/>
</g>
<!-- 2479385466864&#45;&gt;2479392663472 -->
<g id="edge28" class="edge">
<title>2479385466864&#45;&gt;2479392663472</title>
<path fill="none" stroke="black" d="M2532.76,-119.16C2554.44,-110.11 2592.93,-94.05 2618.89,-83.21"/>
<polygon fill="black" stroke="black" points="2620.22,-86.45 2628.1,-79.37 2617.52,-79.99 2620.22,-86.45"/>
</g>
<!-- 2479392667648 -->
<g id="node25" class="node">
<title>2479392667648</title>
<polygon fill="none" stroke="black" points="2809.75,-90 2709.75,-90 2709.75,-54 2809.75,-54 2809.75,-90"/>
<text text-anchor="middle" x="2759.75" y="-66.97" font-family="Times New Roman,serif" font-size="12.00">Perform site visits</text>
</g>
<!-- 2479392663472&#45;&gt;2479392667648 -->
<g id="edge30" class="edge">
<title>2479392663472&#45;&gt;2479392667648</title>
<path fill="none" stroke="black" d="M2674.62,-72C2681.85,-72 2689.98,-72 2698.26,-72"/>
<polygon fill="black" stroke="black" points="2698.06,-75.5 2708.06,-72 2698.06,-68.5 2698.06,-75.5"/>
</g>
<!-- 2479392545856&#45;&gt;2479385466864 -->
<g id="edge29" class="edge">
<title>2479392545856&#45;&gt;2479385466864</title>
<path fill="none" stroke="black" d="M2383.42,-126C2413.14,-126 2449.45,-126 2476.3,-126"/>
<polygon fill="black" stroke="black" points="2476.03,-129.5 2486.03,-126 2476.03,-122.5 2476.03,-129.5"/>
</g>
<!-- 2479392543216 -->
<g id="node26" class="node">
<title>2479392543216</title>
<polygon fill="none" stroke="black" points="2949.5,-90 2845.75,-90 2845.75,-54 2949.5,-54 2949.5,-90"/>
<text text-anchor="middle" x="2897.62" y="-66.97" font-family="Times New Roman,serif" font-size="12.00">Submit documents</text>
</g>
<!-- 2479392667648&#45;&gt;2479392543216 -->
<g id="edge31" class="edge">
<title>2479392667648&#45;&gt;2479392543216</title>
<path fill="none" stroke="black" d="M2810.19,-72C2818.03,-72 2826.22,-72 2834.31,-72"/>
<polygon fill="black" stroke="black" points="2834.11,-75.5 2844.11,-72 2834.11,-68.5 2834.11,-75.5"/>
</g>
<!-- 2479389892464 -->
<g id="node27" class="node">
<title>2479389892464</title>
<polygon fill="none" stroke="black" points="3093,-90 2985.5,-90 2985.5,-54 3093,-54 3093,-90"/>
<text text-anchor="middle" x="3039.25" y="-66.97" font-family="Times New Roman,serif" font-size="12.00">Close audit process</text>
</g>
<!-- 2479392543216&#45;&gt;2479389892464 -->
<g id="edge32" class="edge">
<title>2479392543216&#45;&gt;2479389892464</title>
<path fill="none" stroke="black" d="M2949.82,-72C2957.65,-72 2965.82,-72 2973.89,-72"/>
<polygon fill="black" stroke="black" points="2973.67,-75.5 2983.67,-72 2973.67,-68.5 2973.67,-75.5"/>
</g>
<!-- 2479393566704 -->
<g id="node28" class="node">
<title>2479393566704</title>
<polygon fill="none" stroke="black" points="3246.25,-90 3129,-90 3129,-54 3246.25,-54 3246.25,-90"/>
<text text-anchor="middle" x="3187.62" y="-66.97" font-family="Times New Roman,serif" font-size="12.00">Distribute final report</text>
</g>
<!-- 2479389892464&#45;&gt;2479393566704 -->
<g id="edge33" class="edge">
<title>2479389892464&#45;&gt;2479393566704</title>
<path fill="none" stroke="black" d="M3093.09,-72C3101,-72 3109.25,-72 3117.43,-72"/>
<polygon fill="black" stroke="black" points="3117.39,-75.5 3127.39,-72 3117.39,-68.5 3117.39,-75.5"/>
</g>
<!-- 2479389893280 -->
<g id="node29" class="node">
<title>2479389893280</title>
<polygon fill="none" stroke="black" points="3469.25,-90 3282.25,-90 3282.25,-54 3469.25,-54 3469.25,-90"/>
<text text-anchor="middle" x="3375.75" y="-66.97" font-family="Times New Roman,serif" font-size="12.00">Complete risk assessment/mitigation</text>
</g>
<!-- 2479393566704&#45;&gt;2479389893280 -->
<g id="edge34" class="edge">
<title>2479393566704&#45;&gt;2479389893280</title>
<path fill="none" stroke="black" d="M3246.5,-72C3254.27,-72 3262.43,-72 3270.71,-72"/>
<polygon fill="black" stroke="black" points="3270.54,-75.5 3280.54,-72 3270.54,-68.5 3270.54,-75.5"/>
</g>
<!-- 2479392545184 -->
<g id="node30" class="node">
<title>2479392545184</title>
<polygon fill="none" stroke="black" points="3612.75,-90 3505.25,-90 3505.25,-54 3612.75,-54 3612.75,-90"/>
<text text-anchor="middle" x="3559" y="-66.97" font-family="Times New Roman,serif" font-size="12.00">Close audit process</text>
</g>
<!-- 2479389893280&#45;&gt;2479392545184 -->
<g id="edge35" class="edge">
<title>2479389893280&#45;&gt;2479392545184</title>
<path fill="none" stroke="black" d="M3469.5,-72C3477.69,-72 3485.86,-72 3493.74,-72"/>
<polygon fill="black" stroke="black" points="3493.53,-75.5 3503.53,-72 3493.53,-68.5 3493.53,-75.5"/>
</g>
<!-- 2479392543168 -->
<g id="node31" class="node">
<title>2479392543168</title>
<polygon fill="none" stroke="black" points="3776.5,-90 3648.75,-90 3648.75,-54 3776.5,-54 3776.5,-90"/>
<text text-anchor="middle" x="3712.62" y="-66.97" font-family="Times New Roman,serif" font-size="12.00">Send report for revision</text>
</g>
<!-- 2479392545184&#45;&gt;2479392543168 -->
<g id="edge36" class="edge">
<title>2479392545184&#45;&gt;2479392543168</title>
<path fill="none" stroke="black" d="M3613.03,-72C3620.81,-72 3628.94,-72 3637.05,-72"/>
<polygon fill="black" stroke="black" points="3636.95,-75.5 3646.95,-72 3636.95,-68.5 3636.95,-75.5"/>
</g>
<!-- 2479393559792 -->
<g id="node32" class="node">
<title>2479393559792</title>
<polygon fill="none" stroke="black" points="3957.5,-90 3812.5,-90 3812.5,-54 3957.5,-54 3957.5,-90"/>
<text text-anchor="middle" x="3885" y="-66.97" font-family="Times New Roman,serif" font-size="12.00">Update and resubmit report</text>
</g>
<!-- 2479392543168&#45;&gt;2479393559792 -->
<g id="edge37" class="edge">
<title>2479392543168&#45;&gt;2479393559792</title>
<path fill="none" stroke="black" d="M3776.58,-72C3784.44,-72 3792.57,-72 3800.68,-72"/>
<polygon fill="black" stroke="black" points="3800.59,-75.5 3810.59,-72 3800.59,-68.5 3800.59,-75.5"/>
</g>
<!-- 2479393560176 -->
<g id="node33" class="node">
<title>2479393560176</title>
<polygon fill="none" stroke="black" points="4078.5,-90 3993.5,-90 3993.5,-54 4078.5,-54 4078.5,-90"/>
<text text-anchor="middle" x="4036" y="-66.97" font-family="Times New Roman,serif" font-size="12.00">Archive report</text>
</g>
<!-- 2479393559792&#45;&gt;2479393560176 -->
<g id="edge38" class="edge">
<title>2479393559792&#45;&gt;2479393560176</title>
<path fill="none" stroke="black" d="M3957.88,-72C3965.89,-72 3973.93,-72 3981.65,-72"/>
<polygon fill="black" stroke="black" points="3981.54,-75.5 3991.54,-72 3981.54,-68.5 3981.54,-75.5"/>
</g>
<!-- 2479393975584 -->
<g id="node34" class="node">
<title>2479393975584</title>
<polygon fill="none" stroke="black" points="4240,-90 4114.5,-90 4114.5,-54 4240,-54 4240,-90"/>
<text text-anchor="middle" x="4177.25" y="-66.97" font-family="Times New Roman,serif" font-size="12.00">Evaluate financial risks</text>
</g>
<!-- 2479393560176&#45;&gt;2479393975584 -->
<g id="edge39" class="edge">
<title>2479393560176&#45;&gt;2479393975584</title>
<path fill="none" stroke="black" d="M4078.78,-72C4086.44,-72 4094.63,-72 4102.89,-72"/>
<polygon fill="black" stroke="black" points="4102.65,-75.5 4112.65,-72 4102.65,-68.5 4102.65,-75.5"/>
</g>
<!-- 2479389018784 -->
<g id="node35" class="node">
<title>2479389018784</title>
<ellipse fill="orange" stroke="black" cx="4294" cy="-72" rx="18" ry="18"/>
</g>
<!-- 2479393975584&#45;&gt;2479389018784 -->
<g id="edge40" class="edge">
<title>2479393975584&#45;&gt;2479389018784</title>
<path fill="none" stroke="black" d="M4240.33,-72C4248.72,-72 4256.97,-72 4264.37,-72"/>
<polygon fill="black" stroke="black" points="4264.36,-75.5 4274.36,-72 4264.36,-68.5 4264.36,-75.5"/>
</g>
</g>
</svg>
