<?xml version="1.0" encoding="UTF-8" standalone="no"?>
<!DOCTYPE svg PUBLIC "-//W3C//DTD SVG 1.1//EN"
 "http://www.w3.org/Graphics/SVG/1.1/DTD/svg11.dtd">
<!-- Generated by graphviz version 11.0.0 (20240428.1522)
 -->
<!-- Pages: 1 -->
<svg width="1767pt" height="72pt"
 viewBox="0.00 0.00 1767.25 72.00" xmlns="http://www.w3.org/2000/svg" xmlns:xlink="http://www.w3.org/1999/xlink">
<g id="graph0" class="graph" transform="scale(1 1) rotate(0) translate(4 68)">
<polygon fill="white" stroke="none" points="-4,4 -4,-68 1763.25,-68 1763.25,4 -4,4"/>
<!-- 2272679681088 -->
<g id="node1" class="node">
<title>2272679681088</title>
<ellipse fill="green" stroke="black" cx="18" cy="-41" rx="18" ry="18"/>
</g>
<!-- 2272679678304 -->
<g id="node2" class="node">
<title>2272679678304</title>
<polygon fill="none" stroke="black" points="208.75,-59 72,-59 72,-23 208.75,-23 208.75,-59"/>
<text text-anchor="middle" x="140.38" y="-35.98" font-family="Times New Roman,serif" font-size="12.00">Receive customer inquiry</text>
</g>
<!-- 2272679681088&#45;&gt;2272679678304 -->
<g id="edge1" class="edge">
<title>2272679681088&#45;&gt;2272679678304</title>
<path fill="none" stroke="black" d="M36.25,-41C43.09,-41 51.47,-41 60.48,-41"/>
<polygon fill="black" stroke="black" points="60.19,-44.5 70.19,-41 60.19,-37.5 60.19,-44.5"/>
</g>
<!-- 2272679677968 -->
<g id="node3" class="node">
<title>2272679677968</title>
<polygon fill="none" stroke="black" points="398,-59 244.75,-59 244.75,-23 398,-23 398,-59"/>
<text text-anchor="middle" x="321.38" y="-35.98" font-family="Times New Roman,serif" font-size="12.00">Collect customer information</text>
</g>
<!-- 2272679678304&#45;&gt;2272679677968 -->
<g id="edge2" class="edge">
<title>2272679678304&#45;&gt;2272679677968</title>
<path fill="none" stroke="black" d="M209.05,-41C216.92,-41 225.03,-41 233.12,-41"/>
<polygon fill="black" stroke="black" points="233,-44.5 243,-41 233,-37.5 233,-44.5"/>
</g>
<!-- 2272679676576 -->
<g id="node4" class="node">
<title>2272679676576</title>
<polygon fill="none" stroke="black" points="639.75,-59 434,-59 434,-23 639.75,-23 639.75,-59"/>
<text text-anchor="middle" x="536.88" y="-35.98" font-family="Times New Roman,serif" font-size="12.00">Address customer concerns or questions</text>
</g>
<!-- 2272679677968&#45;&gt;2272679676576 -->
<g id="edge3" class="edge">
<title>2272679677968&#45;&gt;2272679676576</title>
<path fill="none" stroke="black" d="M398.25,-41C406.07,-41 414.13,-41 422.25,-41"/>
<polygon fill="black" stroke="black" points="422.22,-44.5 432.22,-41 422.22,-37.5 422.22,-44.5"/>
</g>
<!-- 2272656728160 -->
<g id="node5" class="node">
<title>2272656728160</title>
<polygon fill="none" stroke="black" points="702.75,-59 675.75,-41 702.75,-23 729.75,-41 702.75,-59"/>
<text text-anchor="middle" x="702.75" y="-35.98" font-family="Times New Roman,serif" font-size="12.00">X</text>
</g>
<!-- 2272679676576&#45;&gt;2272656728160 -->
<g id="edge4" class="edge">
<title>2272679676576&#45;&gt;2272656728160</title>
<path fill="none" stroke="black" d="M639.8,-41C648.15,-41 656.21,-41 663.6,-41"/>
<polygon fill="black" stroke="black" points="663.45,-44.5 673.45,-41 663.45,-37.5 663.45,-44.5"/>
</g>
<!-- 2272679676432 -->
<g id="node6" class="node">
<title>2272679676432</title>
<polygon fill="none" stroke="black" points="1660.25,-59 1633.25,-41 1660.25,-23 1687.25,-41 1660.25,-59"/>
<text text-anchor="middle" x="1660.25" y="-35.98" font-family="Times New Roman,serif" font-size="12.00">X</text>
</g>
<!-- 2272656728160&#45;&gt;2272679676432 -->
<g id="edge6" class="edge">
<title>2272656728160&#45;&gt;2272679676432</title>
<path fill="none" stroke="black" d="M726.48,-43.46C783.3,-49.39 936.15,-64 1064,-64 1064,-64 1064,-64 1311,-64 1426.55,-64 1563.21,-51.24 1625.4,-44.73"/>
<polygon fill="black" stroke="black" points="1625.39,-48.25 1634.96,-43.71 1624.65,-41.28 1625.39,-48.25"/>
</g>
<!-- 2272679677296 -->
<g id="node7" class="node">
<title>2272679677296</title>
<polygon fill="none" stroke="black" points="988,-36 765.75,-36 765.75,0 988,0 988,-36"/>
<text text-anchor="middle" x="876.88" y="-12.97" font-family="Times New Roman,serif" font-size="12.00">Guide customer in selecting product/service</text>
</g>
<!-- 2272656728160&#45;&gt;2272679677296 -->
<g id="edge5" class="edge">
<title>2272656728160&#45;&gt;2272679677296</title>
<path fill="none" stroke="black" d="M725.9,-38.04C733.92,-36.97 743.63,-35.67 754.22,-34.26"/>
<polygon fill="black" stroke="black" points="754.59,-37.74 764.04,-32.94 753.66,-30.8 754.59,-37.74"/>
</g>
<!-- 2272679681184 -->
<g id="node12" class="node">
<title>2272679681184</title>
<ellipse fill="orange" stroke="black" cx="1741.25" cy="-41" rx="18" ry="18"/>
</g>
<!-- 2272679676432&#45;&gt;2272679681184 -->
<g id="edge8" class="edge">
<title>2272679676432&#45;&gt;2272679681184</title>
<path fill="none" stroke="black" d="M1688,-41C1695.63,-41 1703.98,-41 1711.72,-41"/>
<polygon fill="black" stroke="black" points="1711.68,-44.5 1721.68,-41 1711.68,-37.5 1711.68,-44.5"/>
</g>
<!-- 2272679679024 -->
<g id="node8" class="node">
<title>2272679679024</title>
<polygon fill="none" stroke="black" points="1106,-36 1024,-36 1024,0 1106,0 1106,-36"/>
<text text-anchor="middle" x="1065" y="-12.97" font-family="Times New Roman,serif" font-size="12.00">Provide quote</text>
</g>
<!-- 2272679677296&#45;&gt;2272679679024 -->
<g id="edge7" class="edge">
<title>2272679677296&#45;&gt;2272679679024</title>
<path fill="none" stroke="black" d="M988.3,-18C996.52,-18 1004.55,-18 1012.12,-18"/>
<polygon fill="black" stroke="black" points="1012.1,-21.5 1022.1,-18 1012.1,-14.5 1012.1,-21.5"/>
</g>
<!-- 2272679677632 -->
<g id="node9" class="node">
<title>2272679677632</title>
<polygon fill="none" stroke="black" points="1211.25,-36 1142,-36 1142,0 1211.25,0 1211.25,-36"/>
<text text-anchor="middle" x="1176.62" y="-12.97" font-family="Times New Roman,serif" font-size="12.00">Place order</text>
</g>
<!-- 2272679679024&#45;&gt;2272679677632 -->
<g id="edge9" class="edge">
<title>2272679679024&#45;&gt;2272679677632</title>
<path fill="none" stroke="black" d="M1106.2,-18C1114,-18 1122.23,-18 1130.18,-18"/>
<polygon fill="black" stroke="black" points="1130.05,-21.5 1140.05,-18 1130.05,-14.5 1130.05,-21.5"/>
</g>
<!-- 2272679676912 -->
<g id="node10" class="node">
<title>2272679676912</title>
<polygon fill="none" stroke="black" points="1372.75,-36 1247.25,-36 1247.25,0 1372.75,0 1372.75,-36"/>
<text text-anchor="middle" x="1310" y="-12.97" font-family="Times New Roman,serif" font-size="12.00">Record order in system</text>
</g>
<!-- 2272679677632&#45;&gt;2272679676912 -->
<g id="edge10" class="edge">
<title>2272679677632&#45;&gt;2272679676912</title>
<path fill="none" stroke="black" d="M1211.46,-18C1218.93,-18 1227.13,-18 1235.5,-18"/>
<polygon fill="black" stroke="black" points="1235.46,-21.5 1245.46,-18 1235.46,-14.5 1235.46,-21.5"/>
</g>
<!-- 2272679678688 -->
<g id="node11" class="node">
<title>2272679678688</title>
<polygon fill="none" stroke="black" points="1597.25,-36 1408.75,-36 1408.75,0 1597.25,0 1597.25,-36"/>
<text text-anchor="middle" x="1503" y="-12.97" font-family="Times New Roman,serif" font-size="12.00">Send order confirmation to customer</text>
</g>
<!-- 2272679676912&#45;&gt;2272679678688 -->
<g id="edge11" class="edge">
<title>2272679676912&#45;&gt;2272679678688</title>
<path fill="none" stroke="black" d="M1373.01,-18C1380.8,-18 1388.93,-18 1397.15,-18"/>
<polygon fill="black" stroke="black" points="1396.88,-21.5 1406.88,-18 1396.88,-14.5 1396.88,-21.5"/>
</g>
<!-- 2272679678688&#45;&gt;2272679676432 -->
<g id="edge12" class="edge">
<title>2272679678688&#45;&gt;2272679676432</title>
<path fill="none" stroke="black" d="M1597.45,-31.84C1607.69,-33.36 1617.55,-34.82 1626.27,-36.11"/>
<polygon fill="black" stroke="black" points="1625.48,-39.54 1635.88,-37.54 1626.51,-32.61 1625.48,-39.54"/>
</g>
</g>
</svg>
