<?xml version="1.0" encoding="UTF-8" standalone="no"?>
<!DOCTYPE svg PUBLIC "-//W3C//DTD SVG 1.1//EN"
 "http://www.w3.org/Graphics/SVG/1.1/DTD/svg11.dtd">
<!-- Generated by graphviz version 11.0.0 (20240428.1522)
 -->
<!-- Pages: 1 -->
<svg width="1938pt" height="98pt"
 viewBox="0.00 0.00 1938.00 98.00" xmlns="http://www.w3.org/2000/svg" xmlns:xlink="http://www.w3.org/1999/xlink">
<g id="graph0" class="graph" transform="scale(1 1) rotate(0) translate(4 94)">
<polygon fill="white" stroke="none" points="-4,4 -4,-94 1934,-94 1934,4 -4,4"/>
<!-- 2272662841504 -->
<g id="node1" class="node">
<title>2272662841504</title>
<ellipse fill="green" stroke="black" cx="18" cy="-45" rx="18" ry="18"/>
</g>
<!-- 2272662846448 -->
<g id="node2" class="node">
<title>2272662846448</title>
<polygon fill="none" stroke="black" points="208.75,-63 72,-63 72,-27 208.75,-27 208.75,-63"/>
<text text-anchor="middle" x="140.38" y="-39.98" font-family="Times New Roman,serif" font-size="12.00">Receive customer inquiry</text>
</g>
<!-- 2272662841504&#45;&gt;2272662846448 -->
<g id="edge1" class="edge">
<title>2272662841504&#45;&gt;2272662846448</title>
<path fill="none" stroke="black" d="M36.25,-45C43.09,-45 51.47,-45 60.48,-45"/>
<polygon fill="black" stroke="black" points="60.19,-48.5 70.19,-45 60.19,-41.5 60.19,-48.5"/>
</g>
<!-- 2272662843568 -->
<g id="node3" class="node">
<title>2272662843568</title>
<polygon fill="none" stroke="black" points="271.75,-63 244.75,-45 271.75,-27 298.75,-45 271.75,-63"/>
<text text-anchor="middle" x="271.75" y="-39.98" font-family="Times New Roman,serif" font-size="12.00">+</text>
</g>
<!-- 2272662846448&#45;&gt;2272662843568 -->
<g id="edge2" class="edge">
<title>2272662846448&#45;&gt;2272662843568</title>
<path fill="none" stroke="black" d="M209.09,-45C217.1,-45 225.05,-45 232.44,-45"/>
<polygon fill="black" stroke="black" points="232.38,-48.5 242.38,-45 232.38,-41.5 232.38,-48.5"/>
</g>
<!-- 2272680228384 -->
<g id="node4" class="node">
<title>2272680228384</title>
<polygon fill="none" stroke="black" points="514.25,-90 361,-90 361,-54 514.25,-54 514.25,-90"/>
<text text-anchor="middle" x="437.62" y="-66.97" font-family="Times New Roman,serif" font-size="12.00">Collect customer information</text>
</g>
<!-- 2272662843568&#45;&gt;2272680228384 -->
<g id="edge3" class="edge">
<title>2272662843568&#45;&gt;2272680228384</title>
<path fill="none" stroke="black" d="M294.17,-48.53C308.66,-50.92 328.85,-54.24 349.48,-57.64"/>
<polygon fill="black" stroke="black" points="348.69,-61.06 359.13,-59.23 349.83,-54.15 348.69,-61.06"/>
</g>
<!-- 2272679974752 -->
<g id="node5" class="node">
<title>2272679974752</title>
<polygon fill="none" stroke="black" points="540.5,-36 334.75,-36 334.75,0 540.5,0 540.5,-36"/>
<text text-anchor="middle" x="437.62" y="-12.97" font-family="Times New Roman,serif" font-size="12.00">Address customer concerns or questions</text>
</g>
<!-- 2272662843568&#45;&gt;2272679974752 -->
<g id="edge4" class="edge">
<title>2272662843568&#45;&gt;2272679974752</title>
<path fill="none" stroke="black" d="M294.17,-41.47C302.37,-40.12 312.4,-38.47 323.3,-36.67"/>
<polygon fill="black" stroke="black" points="323.66,-40.16 332.96,-35.08 322.52,-33.25 323.66,-40.16"/>
</g>
<!-- 2272680224400 -->
<g id="node6" class="node">
<title>2272680224400</title>
<polygon fill="none" stroke="black" points="603.5,-63 576.5,-45 603.5,-27 630.5,-45 603.5,-63"/>
<text text-anchor="middle" x="603.5" y="-39.98" font-family="Times New Roman,serif" font-size="12.00">+</text>
</g>
<!-- 2272680228384&#45;&gt;2272680224400 -->
<g id="edge5" class="edge">
<title>2272680228384&#45;&gt;2272680224400</title>
<path fill="none" stroke="black" d="M514.33,-59.53C534.03,-56.28 554.22,-52.95 570.3,-50.31"/>
<polygon fill="black" stroke="black" points="570.42,-53.83 579.72,-48.75 569.29,-46.93 570.42,-53.83"/>
</g>
<!-- 2272679974752&#45;&gt;2272680224400 -->
<g id="edge6" class="edge">
<title>2272679974752&#45;&gt;2272680224400</title>
<path fill="none" stroke="black" d="M540.55,-34.79C551.02,-36.52 561.02,-38.17 569.83,-39.62"/>
<polygon fill="black" stroke="black" points="569.08,-43.04 579.52,-41.21 570.22,-36.13 569.08,-43.04"/>
</g>
<!-- 2272661715808 -->
<g id="node7" class="node">
<title>2272661715808</title>
<polygon fill="none" stroke="black" points="693.5,-63 666.5,-45 693.5,-27 720.5,-45 693.5,-63"/>
<text text-anchor="middle" x="693.5" y="-39.98" font-family="Times New Roman,serif" font-size="12.00">X</text>
</g>
<!-- 2272680224400&#45;&gt;2272661715808 -->
<g id="edge7" class="edge">
<title>2272680224400&#45;&gt;2272661715808</title>
<path fill="none" stroke="black" d="M631.38,-45C638.63,-45 646.62,-45 654.35,-45"/>
<polygon fill="black" stroke="black" points="654.27,-48.5 664.27,-45 654.27,-41.5 654.27,-48.5"/>
</g>
<!-- 2272661710816 -->
<g id="node8" class="node">
<title>2272661710816</title>
<polygon fill="none" stroke="black" points="1159.75,-63 1132.75,-45 1159.75,-27 1186.75,-45 1159.75,-63"/>
<text text-anchor="middle" x="1159.75" y="-39.98" font-family="Times New Roman,serif" font-size="12.00">X</text>
</g>
<!-- 2272661715808&#45;&gt;2272661710816 -->
<g id="edge8" class="edge">
<title>2272661715808&#45;&gt;2272661710816</title>
<path fill="none" stroke="black" d="M718.33,-46.9C729.85,-47.72 743.89,-48.59 756.5,-49 907.64,-53.87 945.61,-53.87 1096.75,-49 1105.42,-48.72 1114.77,-48.22 1123.5,-47.67"/>
<polygon fill="black" stroke="black" points="1123.67,-51.17 1133.41,-47 1123.2,-44.18 1123.67,-51.17"/>
</g>
<!-- 2272662831904 -->
<g id="node9" class="node">
<title>2272662831904</title>
<polygon fill="none" stroke="black" points="978.75,-40 756.5,-40 756.5,-4 978.75,-4 978.75,-40"/>
<text text-anchor="middle" x="867.62" y="-16.98" font-family="Times New Roman,serif" font-size="12.00">Guide customer in selecting product/service</text>
</g>
<!-- 2272661715808&#45;&gt;2272662831904 -->
<g id="edge9" class="edge">
<title>2272661715808&#45;&gt;2272662831904</title>
<path fill="none" stroke="black" d="M716.65,-42.04C724.67,-40.97 734.38,-39.67 744.97,-38.26"/>
<polygon fill="black" stroke="black" points="745.34,-41.74 754.79,-36.94 744.41,-34.8 745.34,-41.74"/>
</g>
<!-- 2272684620592 -->
<g id="node10" class="node">
<title>2272684620592</title>
<polygon fill="none" stroke="black" points="1249.75,-63 1222.75,-45 1249.75,-27 1276.75,-45 1249.75,-63"/>
<text text-anchor="middle" x="1249.75" y="-39.98" font-family="Times New Roman,serif" font-size="12.00">X</text>
</g>
<!-- 2272661710816&#45;&gt;2272684620592 -->
<g id="edge10" class="edge">
<title>2272661710816&#45;&gt;2272684620592</title>
<path fill="none" stroke="black" d="M1187.63,-45C1194.88,-45 1202.87,-45 1210.6,-45"/>
<polygon fill="black" stroke="black" points="1210.52,-48.5 1220.52,-45 1210.52,-41.5 1210.52,-48.5"/>
</g>
<!-- 2272662838864 -->
<g id="node11" class="node">
<title>2272662838864</title>
<polygon fill="none" stroke="black" points="1096.75,-40 1014.75,-40 1014.75,-4 1096.75,-4 1096.75,-40"/>
<text text-anchor="middle" x="1055.75" y="-16.98" font-family="Times New Roman,serif" font-size="12.00">Provide quote</text>
</g>
<!-- 2272662831904&#45;&gt;2272662838864 -->
<g id="edge11" class="edge">
<title>2272662831904&#45;&gt;2272662838864</title>
<path fill="none" stroke="black" d="M979.05,-22C987.27,-22 995.3,-22 1002.87,-22"/>
<polygon fill="black" stroke="black" points="1002.85,-25.5 1012.85,-22 1002.85,-18.5 1002.85,-25.5"/>
</g>
<!-- 2272684620304 -->
<g id="node12" class="node">
<title>2272684620304</title>
<polygon fill="none" stroke="black" points="1831,-63 1804,-45 1831,-27 1858,-45 1831,-63"/>
<text text-anchor="middle" x="1831" y="-39.98" font-family="Times New Roman,serif" font-size="12.00">X</text>
</g>
<!-- 2272684620592&#45;&gt;2272684620304 -->
<g id="edge13" class="edge">
<title>2272684620592&#45;&gt;2272684620304</title>
<path fill="none" stroke="black" d="M1274.58,-46.9C1286.1,-47.72 1300.14,-48.59 1312.75,-49 1514.98,-55.52 1565.77,-55.52 1768,-49 1776.67,-48.72 1786.02,-48.22 1794.75,-47.67"/>
<polygon fill="black" stroke="black" points="1794.92,-51.17 1804.66,-47 1794.45,-44.18 1794.92,-51.17"/>
</g>
<!-- 2272679976288 -->
<g id="node13" class="node">
<title>2272679976288</title>
<polygon fill="none" stroke="black" points="1382,-40 1312.75,-40 1312.75,-4 1382,-4 1382,-40"/>
<text text-anchor="middle" x="1347.38" y="-16.98" font-family="Times New Roman,serif" font-size="12.00">Place order</text>
</g>
<!-- 2272684620592&#45;&gt;2272679976288 -->
<g id="edge14" class="edge">
<title>2272684620592&#45;&gt;2272679976288</title>
<path fill="none" stroke="black" d="M1270.1,-40.35C1279.19,-38.16 1290.43,-35.46 1301.47,-32.8"/>
<polygon fill="black" stroke="black" points="1301.97,-36.28 1310.87,-30.54 1300.33,-29.47 1301.97,-36.28"/>
</g>
<!-- 2272662838864&#45;&gt;2272661710816 -->
<g id="edge12" class="edge">
<title>2272662838864&#45;&gt;2272661710816</title>
<path fill="none" stroke="black" d="M1097.06,-31.09C1107.28,-33.39 1118.09,-35.83 1127.76,-38.01"/>
<polygon fill="black" stroke="black" points="1126.87,-41.4 1137.4,-40.19 1128.41,-34.57 1126.87,-41.4"/>
</g>
<!-- 2272662838000 -->
<g id="node16" class="node">
<title>2272662838000</title>
<ellipse fill="orange" stroke="black" cx="1912" cy="-45" rx="18" ry="18"/>
</g>
<!-- 2272684620304&#45;&gt;2272662838000 -->
<g id="edge16" class="edge">
<title>2272684620304&#45;&gt;2272662838000</title>
<path fill="none" stroke="black" d="M1858.75,-45C1866.38,-45 1874.73,-45 1882.47,-45"/>
<polygon fill="black" stroke="black" points="1882.43,-48.5 1892.43,-45 1882.43,-41.5 1882.43,-48.5"/>
</g>
<!-- 2272662840928 -->
<g id="node14" class="node">
<title>2272662840928</title>
<polygon fill="none" stroke="black" points="1543.5,-40 1418,-40 1418,-4 1543.5,-4 1543.5,-40"/>
<text text-anchor="middle" x="1480.75" y="-16.98" font-family="Times New Roman,serif" font-size="12.00">Record order in system</text>
</g>
<!-- 2272679976288&#45;&gt;2272662840928 -->
<g id="edge15" class="edge">
<title>2272679976288&#45;&gt;2272662840928</title>
<path fill="none" stroke="black" d="M1382.21,-22C1389.68,-22 1397.88,-22 1406.25,-22"/>
<polygon fill="black" stroke="black" points="1406.21,-25.5 1416.21,-22 1406.21,-18.5 1406.21,-25.5"/>
</g>
<!-- 2272679973504 -->
<g id="node15" class="node">
<title>2272679973504</title>
<polygon fill="none" stroke="black" points="1768,-40 1579.5,-40 1579.5,-4 1768,-4 1768,-40"/>
<text text-anchor="middle" x="1673.75" y="-16.98" font-family="Times New Roman,serif" font-size="12.00">Send order confirmation to customer</text>
</g>
<!-- 2272662840928&#45;&gt;2272679973504 -->
<g id="edge17" class="edge">
<title>2272662840928&#45;&gt;2272679973504</title>
<path fill="none" stroke="black" d="M1543.76,-22C1551.55,-22 1559.68,-22 1567.9,-22"/>
<polygon fill="black" stroke="black" points="1567.63,-25.5 1577.63,-22 1567.63,-18.5 1567.63,-25.5"/>
</g>
<!-- 2272679973504&#45;&gt;2272684620304 -->
<g id="edge18" class="edge">
<title>2272679973504&#45;&gt;2272684620304</title>
<path fill="none" stroke="black" d="M1768.2,-35.84C1778.44,-37.36 1788.3,-38.82 1797.02,-40.11"/>
<polygon fill="black" stroke="black" points="1796.23,-43.54 1806.63,-41.54 1797.26,-36.61 1796.23,-43.54"/>
</g>
</g>
</svg>
