<?xml version="1.0" encoding="UTF-8" standalone="no"?>
<!DOCTYPE svg PUBLIC "-//W3C//DTD SVG 1.1//EN"
 "http://www.w3.org/Graphics/SVG/1.1/DTD/svg11.dtd">
<!-- Generated by graphviz version 11.0.0 (20240428.1522)
 -->
<!-- Pages: 1 -->
<svg width="1730pt" height="98pt"
 viewBox="0.00 0.00 1730.00 98.00" xmlns="http://www.w3.org/2000/svg" xmlns:xlink="http://www.w3.org/1999/xlink">
<g id="graph0" class="graph" transform="scale(1 1) rotate(0) translate(4 94)">
<polygon fill="white" stroke="none" points="-4,4 -4,-94 1726,-94 1726,4 -4,4"/>
<!-- 2272684618768 -->
<g id="node1" class="node">
<title>2272684618768</title>
<ellipse fill="green" stroke="black" cx="18" cy="-45" rx="18" ry="18"/>
</g>
<!-- 2272679976144 -->
<g id="node2" class="node">
<title>2272679976144</title>
<polygon fill="none" stroke="black" points="99,-63 72,-45 99,-27 126,-45 99,-63"/>
<text text-anchor="middle" x="99" y="-39.98" font-family="Times New Roman,serif" font-size="12.00">X</text>
</g>
<!-- 2272684618768&#45;&gt;2272679976144 -->
<g id="edge1" class="edge">
<title>2272684618768&#45;&gt;2272679976144</title>
<path fill="none" stroke="black" d="M36.14,-45C43.11,-45 51.47,-45 59.75,-45"/>
<polygon fill="black" stroke="black" points="59.75,-48.5 69.75,-45 59.75,-41.5 59.75,-48.5"/>
</g>
<!-- 2272684612864 -->
<g id="node3" class="node">
<title>2272684612864</title>
<polygon fill="none" stroke="black" points="680.25,-63 653.25,-45 680.25,-27 707.25,-45 680.25,-63"/>
<text text-anchor="middle" x="680.25" y="-39.98" font-family="Times New Roman,serif" font-size="12.00">X</text>
</g>
<!-- 2272679976144&#45;&gt;2272684612864 -->
<g id="edge3" class="edge">
<title>2272679976144&#45;&gt;2272684612864</title>
<path fill="none" stroke="black" d="M123.83,-46.9C135.35,-47.72 149.39,-48.59 162,-49 364.23,-55.52 415.02,-55.52 617.25,-49 625.92,-48.72 635.27,-48.22 644,-47.67"/>
<polygon fill="black" stroke="black" points="644.17,-51.17 653.91,-47 643.7,-44.18 644.17,-51.17"/>
</g>
<!-- 2272684615600 -->
<g id="node4" class="node">
<title>2272684615600</title>
<polygon fill="none" stroke="black" points="350.5,-40 162,-40 162,-4 350.5,-4 350.5,-40"/>
<text text-anchor="middle" x="256.25" y="-16.98" font-family="Times New Roman,serif" font-size="12.00">Send order confirmation to customer</text>
</g>
<!-- 2272679976144&#45;&gt;2272684615600 -->
<g id="edge2" class="edge">
<title>2272679976144&#45;&gt;2272684615600</title>
<path fill="none" stroke="black" d="M121.91,-41.75C130.04,-40.55 139.89,-39.09 150.51,-37.52"/>
<polygon fill="black" stroke="black" points="150.95,-40.99 160.33,-36.06 149.92,-34.07 150.95,-40.99"/>
</g>
<!-- 2272684614592 -->
<g id="node6" class="node">
<title>2272684614592</title>
<polygon fill="none" stroke="black" points="770.25,-63 743.25,-45 770.25,-27 797.25,-45 770.25,-63"/>
<text text-anchor="middle" x="770.25" y="-39.98" font-family="Times New Roman,serif" font-size="12.00">+</text>
</g>
<!-- 2272684612864&#45;&gt;2272684614592 -->
<g id="edge4" class="edge">
<title>2272684612864&#45;&gt;2272684614592</title>
<path fill="none" stroke="black" d="M708.13,-45C715.38,-45 723.37,-45 731.1,-45"/>
<polygon fill="black" stroke="black" points="731.02,-48.5 741.02,-45 731.02,-41.5 731.02,-48.5"/>
</g>
<!-- 2272684614544 -->
<g id="node5" class="node">
<title>2272684614544</title>
<polygon fill="none" stroke="black" points="512,-40 386.5,-40 386.5,-4 512,-4 512,-40"/>
<text text-anchor="middle" x="449.25" y="-16.98" font-family="Times New Roman,serif" font-size="12.00">Record order in system</text>
</g>
<!-- 2272684615600&#45;&gt;2272684614544 -->
<g id="edge5" class="edge">
<title>2272684615600&#45;&gt;2272684614544</title>
<path fill="none" stroke="black" d="M350.79,-22C358.86,-22 366.94,-22 374.81,-22"/>
<polygon fill="black" stroke="black" points="374.65,-25.5 384.65,-22 374.65,-18.5 374.65,-25.5"/>
</g>
<!-- 2272684614928 -->
<g id="node8" class="node">
<title>2272684614928</title>
<polygon fill="none" stroke="black" points="617.25,-40 548,-40 548,-4 617.25,-4 617.25,-40"/>
<text text-anchor="middle" x="582.62" y="-16.98" font-family="Times New Roman,serif" font-size="12.00">Place order</text>
</g>
<!-- 2272684614544&#45;&gt;2272684614928 -->
<g id="edge6" class="edge">
<title>2272684614544&#45;&gt;2272684614928</title>
<path fill="none" stroke="black" d="M512.47,-22C520.49,-22 528.57,-22 536.25,-22"/>
<polygon fill="black" stroke="black" points="536.01,-25.5 546.01,-22 536.01,-18.5 536.01,-25.5"/>
</g>
<!-- 2272684613392 -->
<g id="node7" class="node">
<title>2272684613392</title>
<polygon fill="none" stroke="black" points="1055.5,-90 833.25,-90 833.25,-54 1055.5,-54 1055.5,-90"/>
<text text-anchor="middle" x="944.38" y="-66.97" font-family="Times New Roman,serif" font-size="12.00">Guide customer in selecting product/service</text>
</g>
<!-- 2272684614592&#45;&gt;2272684613392 -->
<g id="edge8" class="edge">
<title>2272684614592&#45;&gt;2272684613392</title>
<path fill="none" stroke="black" d="M792.7,-48.36C800.88,-49.65 810.89,-51.22 821.83,-52.93"/>
<polygon fill="black" stroke="black" points="821.13,-56.37 831.55,-54.46 822.22,-49.45 821.13,-56.37"/>
</g>
<!-- 2272684615264 -->
<g id="node9" class="node">
<title>2272684615264</title>
<polygon fill="none" stroke="black" points="985.38,-36 903.38,-36 903.38,0 985.38,0 985.38,-36"/>
<text text-anchor="middle" x="944.38" y="-12.97" font-family="Times New Roman,serif" font-size="12.00">Provide quote</text>
</g>
<!-- 2272684614592&#45;&gt;2272684615264 -->
<g id="edge7" class="edge">
<title>2272684614592&#45;&gt;2272684615264</title>
<path fill="none" stroke="black" d="M792.7,-41.64C817.29,-37.78 858.46,-31.32 891.55,-26.13"/>
<polygon fill="black" stroke="black" points="892.05,-29.59 901.39,-24.59 890.97,-22.68 892.05,-29.59"/>
</g>
<!-- 2272684614160 -->
<g id="node10" class="node">
<title>2272684614160</title>
<polygon fill="none" stroke="black" points="1118.5,-63 1091.5,-45 1118.5,-27 1145.5,-45 1118.5,-63"/>
<text text-anchor="middle" x="1118.5" y="-39.98" font-family="Times New Roman,serif" font-size="12.00">+</text>
</g>
<!-- 2272684613392&#45;&gt;2272684614160 -->
<g id="edge10" class="edge">
<title>2272684613392&#45;&gt;2272684614160</title>
<path fill="none" stroke="black" d="M1055.85,-54.67C1066.17,-53.05 1075.98,-51.51 1084.62,-50.16"/>
<polygon fill="black" stroke="black" points="1085.15,-53.62 1094.48,-48.61 1084.06,-46.7 1085.15,-53.62"/>
</g>
<!-- 2272684614928&#45;&gt;2272684612864 -->
<g id="edge9" class="edge">
<title>2272684614928&#45;&gt;2272684612864</title>
<path fill="none" stroke="black" d="M617.61,-30.17C627.72,-32.61 638.73,-35.25 648.61,-37.63"/>
<polygon fill="black" stroke="black" points="647.56,-40.98 658.1,-39.91 649.2,-34.17 647.56,-40.98"/>
</g>
<!-- 2272684615264&#45;&gt;2272684614160 -->
<g id="edge11" class="edge">
<title>2272684615264&#45;&gt;2272684614160</title>
<path fill="none" stroke="black" d="M985.73,-24.33C1015.81,-29.05 1056.39,-35.41 1084.54,-39.83"/>
<polygon fill="black" stroke="black" points="1083.85,-43.26 1094.27,-41.36 1084.94,-36.35 1083.85,-43.26"/>
</g>
<!-- 2272684614112 -->
<g id="node11" class="node">
<title>2272684614112</title>
<polygon fill="none" stroke="black" points="1387.25,-90 1181.5,-90 1181.5,-54 1387.25,-54 1387.25,-90"/>
<text text-anchor="middle" x="1284.38" y="-66.97" font-family="Times New Roman,serif" font-size="12.00">Address customer concerns or questions</text>
</g>
<!-- 2272684614160&#45;&gt;2272684614112 -->
<g id="edge12" class="edge">
<title>2272684614160&#45;&gt;2272684614112</title>
<path fill="none" stroke="black" d="M1140.92,-48.53C1149.12,-49.88 1159.15,-51.53 1170.05,-53.33"/>
<polygon fill="black" stroke="black" points="1169.27,-56.75 1179.71,-54.92 1170.41,-49.84 1169.27,-56.75"/>
</g>
<!-- 2272684615936 -->
<g id="node12" class="node">
<title>2272684615936</title>
<polygon fill="none" stroke="black" points="1361,-36 1207.75,-36 1207.75,0 1361,0 1361,-36"/>
<text text-anchor="middle" x="1284.38" y="-12.97" font-family="Times New Roman,serif" font-size="12.00">Collect customer information</text>
</g>
<!-- 2272684614160&#45;&gt;2272684615936 -->
<g id="edge13" class="edge">
<title>2272684614160&#45;&gt;2272684615936</title>
<path fill="none" stroke="black" d="M1140.92,-41.47C1155.41,-39.08 1175.6,-35.76 1196.23,-32.36"/>
<polygon fill="black" stroke="black" points="1196.58,-35.85 1205.88,-30.77 1195.44,-28.94 1196.58,-35.85"/>
</g>
<!-- 2272684613440 -->
<g id="node13" class="node">
<title>2272684613440</title>
<polygon fill="none" stroke="black" points="1450.25,-63 1423.25,-45 1450.25,-27 1477.25,-45 1450.25,-63"/>
<text text-anchor="middle" x="1450.25" y="-39.98" font-family="Times New Roman,serif" font-size="12.00">+</text>
</g>
<!-- 2272684614112&#45;&gt;2272684613440 -->
<g id="edge14" class="edge">
<title>2272684614112&#45;&gt;2272684613440</title>
<path fill="none" stroke="black" d="M1387.3,-55.21C1397.77,-53.48 1407.77,-51.83 1416.58,-50.38"/>
<polygon fill="black" stroke="black" points="1416.97,-53.87 1426.27,-48.79 1415.83,-46.96 1416.97,-53.87"/>
</g>
<!-- 2272684615936&#45;&gt;2272684613440 -->
<g id="edge15" class="edge">
<title>2272684615936&#45;&gt;2272684613440</title>
<path fill="none" stroke="black" d="M1361.08,-30.47C1380.78,-33.72 1400.97,-37.05 1417.05,-39.69"/>
<polygon fill="black" stroke="black" points="1416.04,-43.07 1426.47,-41.25 1417.17,-36.17 1416.04,-43.07"/>
</g>
<!-- 2272684613728 -->
<g id="node14" class="node">
<title>2272684613728</title>
<polygon fill="none" stroke="black" points="1650,-63 1513.25,-63 1513.25,-27 1650,-27 1650,-63"/>
<text text-anchor="middle" x="1581.62" y="-39.98" font-family="Times New Roman,serif" font-size="12.00">Receive customer inquiry</text>
</g>
<!-- 2272684613440&#45;&gt;2272684613728 -->
<g id="edge16" class="edge">
<title>2272684613440&#45;&gt;2272684613728</title>
<path fill="none" stroke="black" d="M1478.06,-45C1485.21,-45 1493.32,-45 1501.76,-45"/>
<polygon fill="black" stroke="black" points="1501.5,-48.5 1511.5,-45 1501.5,-41.5 1501.5,-48.5"/>
</g>
<!-- 2272684618864 -->
<g id="node15" class="node">
<title>2272684618864</title>
<ellipse fill="orange" stroke="black" cx="1704" cy="-45" rx="18" ry="18"/>
</g>
<!-- 2272684613728&#45;&gt;2272684618864 -->
<g id="edge17" class="edge">
<title>2272684613728&#45;&gt;2272684618864</title>
<path fill="none" stroke="black" d="M1650.2,-45C1658.82,-45 1667.23,-45 1674.72,-45"/>
<polygon fill="black" stroke="black" points="1674.45,-48.5 1684.45,-45 1674.45,-41.5 1674.45,-48.5"/>
</g>
</g>
</svg>
