<?xml version="1.0" encoding="UTF-8" standalone="no"?>
<!DOCTYPE svg PUBLIC "-//W3C//DTD SVG 1.1//EN"
 "http://www.w3.org/Graphics/SVG/1.1/DTD/svg11.dtd">
<!-- Generated by graphviz version 11.0.0 (20240428.1522)
 -->
<!-- Pages: 1 -->
<svg width="1842pt" height="98pt"
 viewBox="0.00 0.00 1842.00 98.00" xmlns="http://www.w3.org/2000/svg" xmlns:xlink="http://www.w3.org/1999/xlink">
<g id="graph0" class="graph" transform="scale(1 1) rotate(0) translate(4 94)">
<polygon fill="white" stroke="none" points="-4,4 -4,-94 1838,-94 1838,4 -4,4"/>
<!-- 2272662838624 -->
<g id="node1" class="node">
<title>2272662838624</title>
<ellipse fill="green" stroke="black" cx="18" cy="-45" rx="18" ry="18"/>
</g>
<!-- 2272679682768 -->
<g id="node2" class="node">
<title>2272679682768</title>
<polygon fill="none" stroke="black" points="225.25,-63 72,-63 72,-27 225.25,-27 225.25,-63"/>
<text text-anchor="middle" x="148.62" y="-39.98" font-family="Times New Roman,serif" font-size="12.00">Collect customer information</text>
</g>
<!-- 2272662838624&#45;&gt;2272679682768 -->
<g id="edge1" class="edge">
<title>2272662838624&#45;&gt;2272679682768</title>
<path fill="none" stroke="black" d="M36.35,-45C43.12,-45 51.43,-45 60.42,-45"/>
<polygon fill="black" stroke="black" points="60.16,-48.5 70.16,-45 60.16,-41.5 60.16,-48.5"/>
</g>
<!-- 2272679688576 -->
<g id="node3" class="node">
<title>2272679688576</title>
<polygon fill="none" stroke="black" points="288.25,-63 261.25,-45 288.25,-27 315.25,-45 288.25,-63"/>
<text text-anchor="middle" x="288.25" y="-39.98" font-family="Times New Roman,serif" font-size="12.00">+</text>
</g>
<!-- 2272679682768&#45;&gt;2272679688576 -->
<g id="edge2" class="edge">
<title>2272679682768&#45;&gt;2272679688576</title>
<path fill="none" stroke="black" d="M225.68,-45C233.75,-45 241.67,-45 249.02,-45"/>
<polygon fill="black" stroke="black" points="248.86,-48.5 258.86,-45 248.86,-41.5 248.86,-48.5"/>
</g>
<!-- 2272679686608 -->
<g id="node4" class="node">
<title>2272679686608</title>
<polygon fill="none" stroke="black" points="488,-90 351.25,-90 351.25,-54 488,-54 488,-90"/>
<text text-anchor="middle" x="419.62" y="-66.97" font-family="Times New Roman,serif" font-size="12.00">Receive customer inquiry</text>
</g>
<!-- 2272679688576&#45;&gt;2272679686608 -->
<g id="edge4" class="edge">
<title>2272679688576&#45;&gt;2272679686608</title>
<path fill="none" stroke="black" d="M309.46,-49.22C317.99,-51 328.52,-53.2 339.64,-55.52"/>
<polygon fill="black" stroke="black" points="338.92,-58.94 349.42,-57.56 340.35,-52.09 338.92,-58.94"/>
</g>
<!-- 2272679679024 -->
<g id="node5" class="node">
<title>2272679679024</title>
<polygon fill="none" stroke="black" points="454.25,-36 385,-36 385,0 454.25,0 454.25,-36"/>
<text text-anchor="middle" x="419.62" y="-12.97" font-family="Times New Roman,serif" font-size="12.00">Place order</text>
</g>
<!-- 2272679688576&#45;&gt;2272679679024 -->
<g id="edge3" class="edge">
<title>2272679688576&#45;&gt;2272679679024</title>
<path fill="none" stroke="black" d="M309.46,-40.78C326.59,-37.21 351.78,-31.95 373.65,-27.39"/>
<polygon fill="black" stroke="black" points="374.16,-30.85 383.24,-25.39 372.73,-24 374.16,-30.85"/>
</g>
<!-- 2272679682576 -->
<g id="node6" class="node">
<title>2272679682576</title>
<polygon fill="none" stroke="black" points="551,-63 524,-45 551,-27 578,-45 551,-63"/>
<text text-anchor="middle" x="551" y="-39.98" font-family="Times New Roman,serif" font-size="12.00">+</text>
</g>
<!-- 2272679686608&#45;&gt;2272679682576 -->
<g id="edge5" class="edge">
<title>2272679686608&#45;&gt;2272679682576</title>
<path fill="none" stroke="black" d="M488.34,-57.87C498.8,-55.68 509.15,-53.52 518.3,-51.62"/>
<polygon fill="black" stroke="black" points="518.99,-55.05 528.06,-49.58 517.56,-48.19 518.99,-55.05"/>
</g>
<!-- 2272679679024&#45;&gt;2272679682576 -->
<g id="edge6" class="edge">
<title>2272679679024&#45;&gt;2272679682576</title>
<path fill="none" stroke="black" d="M454.62,-25.09C474.33,-29.21 499,-34.36 518.31,-38.39"/>
<polygon fill="black" stroke="black" points="517.56,-41.81 528.07,-40.42 518.99,-34.95 517.56,-41.81"/>
</g>
<!-- 2272679681376 -->
<g id="node7" class="node">
<title>2272679681376</title>
<polygon fill="none" stroke="black" points="802.5,-63 614,-63 614,-27 802.5,-27 802.5,-63"/>
<text text-anchor="middle" x="708.25" y="-39.98" font-family="Times New Roman,serif" font-size="12.00">Send order confirmation to customer</text>
</g>
<!-- 2272679682576&#45;&gt;2272679681376 -->
<g id="edge7" class="edge">
<title>2272679682576&#45;&gt;2272679681376</title>
<path fill="none" stroke="black" d="M578.69,-45C585.68,-45 593.66,-45 602.14,-45"/>
<polygon fill="black" stroke="black" points="602.03,-48.5 612.03,-45 602.03,-41.5 602.03,-48.5"/>
</g>
<!-- 2272679686464 -->
<g id="node8" class="node">
<title>2272679686464</title>
<polygon fill="none" stroke="black" points="1044.25,-63 838.5,-63 838.5,-27 1044.25,-27 1044.25,-63"/>
<text text-anchor="middle" x="941.38" y="-39.98" font-family="Times New Roman,serif" font-size="12.00">Address customer concerns or questions</text>
</g>
<!-- 2272679681376&#45;&gt;2272679686464 -->
<g id="edge8" class="edge">
<title>2272679681376&#45;&gt;2272679686464</title>
<path fill="none" stroke="black" d="M802.92,-45C810.83,-45 818.89,-45 826.92,-45"/>
<polygon fill="black" stroke="black" points="826.75,-48.5 836.75,-45 826.75,-41.5 826.75,-48.5"/>
</g>
<!-- 2272679679312 -->
<g id="node9" class="node">
<title>2272679679312</title>
<polygon fill="none" stroke="black" points="1107.25,-63 1080.25,-45 1107.25,-27 1134.25,-45 1107.25,-63"/>
<text text-anchor="middle" x="1107.25" y="-39.98" font-family="Times New Roman,serif" font-size="12.00">X</text>
</g>
<!-- 2272679686464&#45;&gt;2272679679312 -->
<g id="edge9" class="edge">
<title>2272679686464&#45;&gt;2272679679312</title>
<path fill="none" stroke="black" d="M1044.3,-45C1052.65,-45 1060.71,-45 1068.1,-45"/>
<polygon fill="black" stroke="black" points="1067.95,-48.5 1077.95,-45 1067.95,-41.5 1067.95,-48.5"/>
</g>
<!-- 2272679685696 -->
<g id="node10" class="node">
<title>2272679685696</title>
<polygon fill="none" stroke="black" points="1735,-63 1708,-45 1735,-27 1762,-45 1735,-63"/>
<text text-anchor="middle" x="1735" y="-39.98" font-family="Times New Roman,serif" font-size="12.00">X</text>
</g>
<!-- 2272679679312&#45;&gt;2272679685696 -->
<g id="edge10" class="edge">
<title>2272679679312&#45;&gt;2272679685696</title>
<path fill="none" stroke="black" d="M1132.08,-46.9C1143.6,-47.72 1157.64,-48.59 1170.25,-49 1393.13,-56.18 1449.12,-56.18 1672,-49 1680.67,-48.72 1690.02,-48.22 1698.75,-47.67"/>
<polygon fill="black" stroke="black" points="1698.92,-51.17 1708.66,-47 1698.45,-44.18 1698.92,-51.17"/>
</g>
<!-- 2272679687040 -->
<g id="node11" class="node">
<title>2272679687040</title>
<polygon fill="none" stroke="black" points="1252.25,-40 1170.25,-40 1170.25,-4 1252.25,-4 1252.25,-40"/>
<text text-anchor="middle" x="1211.25" y="-16.98" font-family="Times New Roman,serif" font-size="12.00">Provide quote</text>
</g>
<!-- 2272679679312&#45;&gt;2272679687040 -->
<g id="edge11" class="edge">
<title>2272679679312&#45;&gt;2272679687040</title>
<path fill="none" stroke="black" d="M1127.92,-40.57C1136.86,-38.55 1147.9,-36.06 1158.97,-33.56"/>
<polygon fill="black" stroke="black" points="1159.49,-37.03 1168.48,-31.42 1157.95,-30.2 1159.49,-37.03"/>
</g>
<!-- 2272662831328 -->
<g id="node14" class="node">
<title>2272662831328</title>
<ellipse fill="orange" stroke="black" cx="1816" cy="-45" rx="18" ry="18"/>
</g>
<!-- 2272679685696&#45;&gt;2272662831328 -->
<g id="edge13" class="edge">
<title>2272679685696&#45;&gt;2272662831328</title>
<path fill="none" stroke="black" d="M1762.75,-45C1770.38,-45 1778.73,-45 1786.47,-45"/>
<polygon fill="black" stroke="black" points="1786.43,-48.5 1796.43,-45 1786.43,-41.5 1786.43,-48.5"/>
</g>
<!-- 2272679684016 -->
<g id="node12" class="node">
<title>2272679684016</title>
<polygon fill="none" stroke="black" points="1510.5,-40 1288.25,-40 1288.25,-4 1510.5,-4 1510.5,-40"/>
<text text-anchor="middle" x="1399.38" y="-16.98" font-family="Times New Roman,serif" font-size="12.00">Guide customer in selecting product/service</text>
</g>
<!-- 2272679687040&#45;&gt;2272679684016 -->
<g id="edge12" class="edge">
<title>2272679687040&#45;&gt;2272679684016</title>
<path fill="none" stroke="black" d="M1252.64,-22C1260.07,-22 1268.17,-22 1276.63,-22"/>
<polygon fill="black" stroke="black" points="1276.4,-25.5 1286.4,-22 1276.4,-18.5 1276.4,-25.5"/>
</g>
<!-- 2272679680320 -->
<g id="node13" class="node">
<title>2272679680320</title>
<polygon fill="none" stroke="black" points="1672,-40 1546.5,-40 1546.5,-4 1672,-4 1672,-40"/>
<text text-anchor="middle" x="1609.25" y="-16.98" font-family="Times New Roman,serif" font-size="12.00">Record order in system</text>
</g>
<!-- 2272679684016&#45;&gt;2272679680320 -->
<g id="edge14" class="edge">
<title>2272679684016&#45;&gt;2272679680320</title>
<path fill="none" stroke="black" d="M1510.7,-22C1518.86,-22 1526.97,-22 1534.83,-22"/>
<polygon fill="black" stroke="black" points="1534.61,-25.5 1544.61,-22 1534.61,-18.5 1534.61,-25.5"/>
</g>
<!-- 2272679680320&#45;&gt;2272679685696 -->
<g id="edge15" class="edge">
<title>2272679680320&#45;&gt;2272679685696</title>
<path fill="none" stroke="black" d="M1672.49,-33.57C1682.7,-35.47 1692.9,-37.36 1701.97,-39.05"/>
<polygon fill="black" stroke="black" points="1701.19,-42.46 1711.67,-40.85 1702.47,-35.58 1701.19,-42.46"/>
</g>
</g>
</svg>
