<?xml version="1.0" encoding="UTF-8" standalone="no"?>
<!DOCTYPE svg PUBLIC "-//W3C//DTD SVG 1.1//EN"
 "http://www.w3.org/Graphics/SVG/1.1/DTD/svg11.dtd">
<!-- Generated by graphviz version 11.0.0 (20240428.1522)
 -->
<!-- Pages: 1 -->
<svg width="1662pt" height="98pt"
 viewBox="0.00 0.00 1662.00 98.00" xmlns="http://www.w3.org/2000/svg" xmlns:xlink="http://www.w3.org/1999/xlink">
<g id="graph0" class="graph" transform="scale(1 1) rotate(0) translate(4 94)">
<polygon fill="white" stroke="none" points="-4,4 -4,-94 1658,-94 1658,4 -4,4"/>
<!-- 2272684619488 -->
<g id="node1" class="node">
<title>2272684619488</title>
<ellipse fill="green" stroke="black" cx="18" cy="-45" rx="18" ry="18"/>
</g>
<!-- 2272684288784 -->
<g id="node2" class="node">
<title>2272684288784</title>
<polygon fill="none" stroke="black" points="225.25,-63 72,-63 72,-27 225.25,-27 225.25,-63"/>
<text text-anchor="middle" x="148.62" y="-39.98" font-family="Times New Roman,serif" font-size="12.00">Collect customer information</text>
</g>
<!-- 2272684619488&#45;&gt;2272684288784 -->
<g id="edge1" class="edge">
<title>2272684619488&#45;&gt;2272684288784</title>
<path fill="none" stroke="black" d="M36.35,-45C43.12,-45 51.43,-45 60.42,-45"/>
<polygon fill="black" stroke="black" points="60.16,-48.5 70.16,-45 60.16,-41.5 60.16,-48.5"/>
</g>
<!-- 2272662835744 -->
<g id="node3" class="node">
<title>2272662835744</title>
<polygon fill="none" stroke="black" points="288.25,-63 261.25,-45 288.25,-27 315.25,-45 288.25,-63"/>
<text text-anchor="middle" x="288.25" y="-39.98" font-family="Times New Roman,serif" font-size="12.00">+</text>
</g>
<!-- 2272684288784&#45;&gt;2272662835744 -->
<g id="edge2" class="edge">
<title>2272684288784&#45;&gt;2272662835744</title>
<path fill="none" stroke="black" d="M225.68,-45C233.75,-45 241.67,-45 249.02,-45"/>
<polygon fill="black" stroke="black" points="248.86,-48.5 258.86,-45 248.86,-41.5 248.86,-48.5"/>
</g>
<!-- 2272684289312 -->
<g id="node4" class="node">
<title>2272684289312</title>
<polygon fill="none" stroke="black" points="454.25,-90 385,-90 385,-54 454.25,-54 454.25,-90"/>
<text text-anchor="middle" x="419.62" y="-66.97" font-family="Times New Roman,serif" font-size="12.00">Place order</text>
</g>
<!-- 2272662835744&#45;&gt;2272684289312 -->
<g id="edge3" class="edge">
<title>2272662835744&#45;&gt;2272684289312</title>
<path fill="none" stroke="black" d="M309.46,-49.22C326.59,-52.79 351.78,-58.05 373.65,-62.61"/>
<polygon fill="black" stroke="black" points="372.73,-66 383.24,-64.61 374.16,-59.15 372.73,-66"/>
</g>
<!-- 2272684277984 -->
<g id="node5" class="node">
<title>2272684277984</title>
<polygon fill="none" stroke="black" points="488,-36 351.25,-36 351.25,0 488,0 488,-36"/>
<text text-anchor="middle" x="419.62" y="-12.97" font-family="Times New Roman,serif" font-size="12.00">Receive customer inquiry</text>
</g>
<!-- 2272662835744&#45;&gt;2272684277984 -->
<g id="edge4" class="edge">
<title>2272662835744&#45;&gt;2272684277984</title>
<path fill="none" stroke="black" d="M309.46,-40.78C317.99,-39 328.52,-36.8 339.64,-34.48"/>
<polygon fill="black" stroke="black" points="340.35,-37.91 349.42,-32.44 338.92,-31.06 340.35,-37.91"/>
</g>
<!-- 2272684278368 -->
<g id="node6" class="node">
<title>2272684278368</title>
<polygon fill="none" stroke="black" points="551,-63 524,-45 551,-27 578,-45 551,-63"/>
<text text-anchor="middle" x="551" y="-39.98" font-family="Times New Roman,serif" font-size="12.00">+</text>
</g>
<!-- 2272684289312&#45;&gt;2272684278368 -->
<g id="edge5" class="edge">
<title>2272684289312&#45;&gt;2272684278368</title>
<path fill="none" stroke="black" d="M454.62,-64.91C474.33,-60.79 499,-55.64 518.31,-51.61"/>
<polygon fill="black" stroke="black" points="518.99,-55.05 528.07,-49.58 517.56,-48.19 518.99,-55.05"/>
</g>
<!-- 2272684277984&#45;&gt;2272684278368 -->
<g id="edge6" class="edge">
<title>2272684277984&#45;&gt;2272684278368</title>
<path fill="none" stroke="black" d="M488.34,-32.13C498.8,-34.32 509.15,-36.48 518.3,-38.38"/>
<polygon fill="black" stroke="black" points="517.56,-41.81 528.06,-40.42 518.99,-34.95 517.56,-41.81"/>
</g>
<!-- 2272684286288 -->
<g id="node7" class="node">
<title>2272684286288</title>
<polygon fill="none" stroke="black" points="802.5,-63 614,-63 614,-27 802.5,-27 802.5,-63"/>
<text text-anchor="middle" x="708.25" y="-39.98" font-family="Times New Roman,serif" font-size="12.00">Send order confirmation to customer</text>
</g>
<!-- 2272684278368&#45;&gt;2272684286288 -->
<g id="edge7" class="edge">
<title>2272684278368&#45;&gt;2272684286288</title>
<path fill="none" stroke="black" d="M578.69,-45C585.68,-45 593.66,-45 602.14,-45"/>
<polygon fill="black" stroke="black" points="602.03,-48.5 612.03,-45 602.03,-41.5 602.03,-48.5"/>
</g>
<!-- 2272684289552 -->
<g id="node8" class="node">
<title>2272684289552</title>
<polygon fill="none" stroke="black" points="1044.25,-63 838.5,-63 838.5,-27 1044.25,-27 1044.25,-63"/>
<text text-anchor="middle" x="941.38" y="-39.98" font-family="Times New Roman,serif" font-size="12.00">Address customer concerns or questions</text>
</g>
<!-- 2272684286288&#45;&gt;2272684289552 -->
<g id="edge8" class="edge">
<title>2272684286288&#45;&gt;2272684289552</title>
<path fill="none" stroke="black" d="M802.92,-45C810.83,-45 818.89,-45 826.92,-45"/>
<polygon fill="black" stroke="black" points="826.75,-48.5 836.75,-45 826.75,-41.5 826.75,-48.5"/>
</g>
<!-- 2272684283168 -->
<g id="node9" class="node">
<title>2272684283168</title>
<polygon fill="none" stroke="black" points="1162.25,-63 1080.25,-63 1080.25,-27 1162.25,-27 1162.25,-63"/>
<text text-anchor="middle" x="1121.25" y="-39.98" font-family="Times New Roman,serif" font-size="12.00">Provide quote</text>
</g>
<!-- 2272684289552&#45;&gt;2272684283168 -->
<g id="edge9" class="edge">
<title>2272684289552&#45;&gt;2272684283168</title>
<path fill="none" stroke="black" d="M1044.56,-45C1052.89,-45 1061.06,-45 1068.77,-45"/>
<polygon fill="black" stroke="black" points="1068.57,-48.5 1078.57,-45 1068.57,-41.5 1068.57,-48.5"/>
</g>
<!-- 2272684283312 -->
<g id="node10" class="node">
<title>2272684283312</title>
<polygon fill="none" stroke="black" points="1420.5,-63 1198.25,-63 1198.25,-27 1420.5,-27 1420.5,-63"/>
<text text-anchor="middle" x="1309.38" y="-39.98" font-family="Times New Roman,serif" font-size="12.00">Guide customer in selecting product/service</text>
</g>
<!-- 2272684283168&#45;&gt;2272684283312 -->
<g id="edge10" class="edge">
<title>2272684283168&#45;&gt;2272684283312</title>
<path fill="none" stroke="black" d="M1162.64,-45C1170.07,-45 1178.17,-45 1186.63,-45"/>
<polygon fill="black" stroke="black" points="1186.4,-48.5 1196.4,-45 1186.4,-41.5 1186.4,-48.5"/>
</g>
<!-- 2272684290512 -->
<g id="node11" class="node">
<title>2272684290512</title>
<polygon fill="none" stroke="black" points="1582,-63 1456.5,-63 1456.5,-27 1582,-27 1582,-63"/>
<text text-anchor="middle" x="1519.25" y="-39.98" font-family="Times New Roman,serif" font-size="12.00">Record order in system</text>
</g>
<!-- 2272684283312&#45;&gt;2272684290512 -->
<g id="edge11" class="edge">
<title>2272684283312&#45;&gt;2272684290512</title>
<path fill="none" stroke="black" d="M1420.7,-45C1428.86,-45 1436.97,-45 1444.83,-45"/>
<polygon fill="black" stroke="black" points="1444.61,-48.5 1454.61,-45 1444.61,-41.5 1444.61,-48.5"/>
</g>
<!-- 2272684615552 -->
<g id="node12" class="node">
<title>2272684615552</title>
<ellipse fill="orange" stroke="black" cx="1636" cy="-45" rx="18" ry="18"/>
</g>
<!-- 2272684290512&#45;&gt;2272684615552 -->
<g id="edge12" class="edge">
<title>2272684290512&#45;&gt;2272684615552</title>
<path fill="none" stroke="black" d="M1582.33,-45C1590.72,-45 1598.97,-45 1606.37,-45"/>
<polygon fill="black" stroke="black" points="1606.36,-48.5 1616.36,-45 1606.36,-41.5 1606.36,-48.5"/>
</g>
</g>
</svg>
