<?xml version="1.0" encoding="UTF-8" standalone="no"?>
<!DOCTYPE svg PUBLIC "-//W3C//DTD SVG 1.1//EN"
 "http://www.w3.org/Graphics/SVG/1.1/DTD/svg11.dtd">
<!-- Generated by graphviz version 2.50.0 (0)
 -->
<!-- Pages: 1 -->
<svg width="2026pt" height="136pt"
 viewBox="0.00 0.00 2026.00 136.00" xmlns="http://www.w3.org/2000/svg" xmlns:xlink="http://www.w3.org/1999/xlink">
<g id="graph0" class="graph" transform="scale(1 1) rotate(0) translate(4 132)">
<polygon fill="white" stroke="transparent" points="-4,4 -4,-132 2022,-132 2022,4 -4,4"/>
<!-- 6192026832 -->
<g id="node1" class="node">
<title>6192026832</title>
<ellipse fill="green" stroke="black" cx="18" cy="-83" rx="18" ry="18"/>
</g>
<!-- 6192057808 -->
<g id="node2" class="node">
<title>6192057808</title>
<polygon fill="none" stroke="black" points="226,-101 72,-101 72,-65 226,-65 226,-101"/>
<text text-anchor="middle" x="149" y="-79.9" font-family="Times,serif" font-size="12.00">Collect customer information</text>
</g>
<!-- 6192026832&#45;&gt;6192057808 -->
<g id="edge1" class="edge">
<title>6192026832&#45;&gt;6192057808</title>
<path fill="none" stroke="black" d="M36.13,-83C43.25,-83 52.09,-83 61.65,-83"/>
<polygon fill="black" stroke="black" points="61.84,-86.5 71.84,-83 61.84,-79.5 61.84,-86.5"/>
</g>
<!-- 6192057552 -->
<g id="node3" class="node">
<title>6192057552</title>
<polygon fill="none" stroke="black" points="289,-101 262,-83 289,-65 316,-83 289,-101"/>
<text text-anchor="middle" x="289" y="-79.9" font-family="Times,serif" font-size="12.00">+</text>
</g>
<!-- 6192057808&#45;&gt;6192057552 -->
<g id="edge2" class="edge">
<title>6192057808&#45;&gt;6192057552</title>
<path fill="none" stroke="black" d="M226.27,-83C235.19,-83 243.96,-83 251.95,-83"/>
<polygon fill="black" stroke="black" points="251.96,-86.5 261.96,-83 251.96,-79.5 251.96,-86.5"/>
</g>
<!-- 6192032528 -->
<g id="node4" class="node">
<title>6192032528</title>
<polygon fill="none" stroke="black" points="489,-128 352,-128 352,-92 489,-92 489,-128"/>
<text text-anchor="middle" x="420.5" y="-106.9" font-family="Times,serif" font-size="12.00">Receive customer inquiry</text>
</g>
<!-- 6192057552&#45;&gt;6192032528 -->
<g id="edge4" class="edge">
<title>6192057552&#45;&gt;6192032528</title>
<path fill="none" stroke="black" d="M309.95,-87.16C318.87,-89.02 330.03,-91.35 341.77,-93.79"/>
<polygon fill="black" stroke="black" points="341.24,-97.26 351.74,-95.87 342.67,-90.41 341.24,-97.26"/>
</g>
<!-- 6192059472 -->
<g id="node5" class="node">
<title>6192059472</title>
<polygon fill="none" stroke="black" points="455.5,-74 385.5,-74 385.5,-38 455.5,-38 455.5,-74"/>
<text text-anchor="middle" x="420.5" y="-52.9" font-family="Times,serif" font-size="12.00">Place order</text>
</g>
<!-- 6192057552&#45;&gt;6192059472 -->
<g id="edge3" class="edge">
<title>6192057552&#45;&gt;6192059472</title>
<path fill="none" stroke="black" d="M309.95,-78.84C327.36,-75.21 353.25,-69.81 375.49,-65.18"/>
<polygon fill="black" stroke="black" points="376.33,-68.58 385.41,-63.11 374.9,-61.72 376.33,-68.58"/>
</g>
<!-- 6192056912 -->
<g id="node6" class="node">
<title>6192056912</title>
<polygon fill="none" stroke="black" points="552,-101 525,-83 552,-65 579,-83 552,-101"/>
<text text-anchor="middle" x="552" y="-79.9" font-family="Times,serif" font-size="12.00">+</text>
</g>
<!-- 6192032528&#45;&gt;6192056912 -->
<g id="edge5" class="edge">
<title>6192032528&#45;&gt;6192056912</title>
<path fill="none" stroke="black" d="M489.28,-95.87C500.52,-93.52 511.63,-91.21 521.27,-89.2"/>
<polygon fill="black" stroke="black" points="522,-92.62 531.08,-87.15 520.57,-85.77 522,-92.62"/>
</g>
<!-- 6192059472&#45;&gt;6192056912 -->
<g id="edge6" class="edge">
<title>6192059472&#45;&gt;6192056912</title>
<path fill="none" stroke="black" d="M455.52,-63.09C475.85,-67.33 501.44,-72.67 521.01,-76.75"/>
<polygon fill="black" stroke="black" points="520.4,-80.2 530.91,-78.81 521.83,-73.34 520.4,-80.2"/>
</g>
<!-- 6192029008 -->
<g id="node7" class="node">
<title>6192029008</title>
<polygon fill="none" stroke="black" points="642,-101 615,-83 642,-65 669,-83 642,-101"/>
<text text-anchor="middle" x="642" y="-79.9" font-family="Times,serif" font-size="12.00">X</text>
</g>
<!-- 6192056912&#45;&gt;6192029008 -->
<g id="edge7" class="edge">
<title>6192056912&#45;&gt;6192029008</title>
<path fill="none" stroke="black" d="M579.4,-83C587.39,-83 596.31,-83 604.82,-83"/>
<polygon fill="black" stroke="black" points="604.92,-86.5 614.92,-83 604.92,-79.5 604.92,-86.5"/>
</g>
<!-- 6192027344 -->
<g id="node8" class="node">
<title>6192027344</title>
<polygon fill="none" stroke="black" points="1919,-101 1892,-83 1919,-65 1946,-83 1919,-101"/>
<text text-anchor="middle" x="1919" y="-79.9" font-family="Times,serif" font-size="12.00">X</text>
</g>
<!-- 6192029008&#45;&gt;6192027344 -->
<g id="edge8" class="edge">
<title>6192029008&#45;&gt;6192027344</title>
<path fill="none" stroke="black" d="M665.77,-85.29C725.67,-91.11 892.64,-106 1032,-106 1032,-106 1032,-106 1704,-106 1769.66,-106 1846,-95.17 1887.43,-88.37"/>
<polygon fill="black" stroke="black" points="1888.14,-91.8 1897.42,-86.7 1886.98,-84.89 1888.14,-91.8"/>
</g>
<!-- 6192061136 -->
<g id="node9" class="node">
<title>6192061136</title>
<polygon fill="none" stroke="black" points="894,-78 705,-78 705,-42 894,-42 894,-78"/>
<text text-anchor="middle" x="799.5" y="-56.9" font-family="Times,serif" font-size="12.00">Send order confirmation to customer</text>
</g>
<!-- 6192029008&#45;&gt;6192061136 -->
<g id="edge9" class="edge">
<title>6192029008&#45;&gt;6192061136</title>
<path fill="none" stroke="black" d="M664.3,-79.85C672.85,-78.58 683.39,-77.03 694.76,-75.34"/>
<polygon fill="black" stroke="black" points="695.56,-78.76 704.94,-73.84 694.54,-71.84 695.56,-78.76"/>
</g>
<!-- 6174825360 -->
<g id="node16" class="node">
<title>6174825360</title>
<ellipse fill="orange" stroke="black" cx="2000" cy="-83" rx="18" ry="18"/>
</g>
<!-- 6192027344&#45;&gt;6174825360 -->
<g id="edge11" class="edge">
<title>6192027344&#45;&gt;6174825360</title>
<path fill="none" stroke="black" d="M1946.31,-83C1954.42,-83 1963.37,-83 1971.56,-83"/>
<polygon fill="black" stroke="black" points="1971.75,-86.5 1981.75,-83 1971.75,-79.5 1971.75,-86.5"/>
</g>
<!-- 6192034192 -->
<g id="node10" class="node">
<title>6192034192</title>
<polygon fill="none" stroke="black" points="1136,-78 930,-78 930,-42 1136,-42 1136,-78"/>
<text text-anchor="middle" x="1033" y="-56.9" font-family="Times,serif" font-size="12.00">Address customer concerns or questions</text>
</g>
<!-- 6192061136&#45;&gt;6192034192 -->
<g id="edge10" class="edge">
<title>6192061136&#45;&gt;6192034192</title>
<path fill="none" stroke="black" d="M894.33,-60C902.61,-60 911.06,-60 919.47,-60"/>
<polygon fill="black" stroke="black" points="919.72,-63.5 929.72,-60 919.72,-56.5 919.72,-63.5"/>
</g>
<!-- 6192030864 -->
<g id="node11" class="node">
<title>6192030864</title>
<polygon fill="none" stroke="black" points="1199,-78 1172,-60 1199,-42 1226,-60 1199,-78"/>
<text text-anchor="middle" x="1199" y="-56.9" font-family="Times,serif" font-size="12.00">X</text>
</g>
<!-- 6192034192&#45;&gt;6192030864 -->
<g id="edge12" class="edge">
<title>6192034192&#45;&gt;6192030864</title>
<path fill="none" stroke="black" d="M1136.47,-60C1145.37,-60 1153.93,-60 1161.69,-60"/>
<polygon fill="black" stroke="black" points="1161.72,-63.5 1171.72,-60 1161.72,-56.5 1161.72,-63.5"/>
</g>
<!-- 6192028240 -->
<g id="node12" class="node">
<title>6192028240</title>
<polygon fill="none" stroke="black" points="1829,-78 1802,-60 1829,-42 1856,-60 1829,-78"/>
<text text-anchor="middle" x="1829" y="-56.9" font-family="Times,serif" font-size="12.00">X</text>
</g>
<!-- 6192030864&#45;&gt;6192028240 -->
<g id="edge14" class="edge">
<title>6192030864&#45;&gt;6192028240</title>
<path fill="none" stroke="black" d="M1226.18,-60C1325.23,-60 1677.15,-60 1791.69,-60"/>
<polygon fill="black" stroke="black" points="1791.7,-63.5 1801.7,-60 1791.7,-56.5 1791.7,-63.5"/>
</g>
<!-- 6192035856 -->
<g id="node13" class="node">
<title>6192035856</title>
<polygon fill="none" stroke="black" points="1345,-36 1262,-36 1262,0 1345,0 1345,-36"/>
<text text-anchor="middle" x="1303.5" y="-14.9" font-family="Times,serif" font-size="12.00">Provide quote</text>
</g>
<!-- 6192030864&#45;&gt;6192035856 -->
<g id="edge13" class="edge">
<title>6192030864&#45;&gt;6192035856</title>
<path fill="none" stroke="black" d="M1216.47,-53.25C1226.3,-49.22 1239.38,-43.86 1252.36,-38.55"/>
<polygon fill="black" stroke="black" points="1253.81,-41.73 1261.74,-34.7 1251.16,-35.25 1253.81,-41.73"/>
</g>
<!-- 6192028240&#45;&gt;6192027344 -->
<g id="edge15" class="edge">
<title>6192028240&#45;&gt;6192027344</title>
<path fill="none" stroke="black" d="M1849.09,-64.99C1860.82,-68.06 1876.07,-72.04 1889.24,-75.48"/>
<polygon fill="black" stroke="black" points="1888.68,-78.96 1899.24,-78.1 1890.45,-72.18 1888.68,-78.96"/>
</g>
<!-- 6192037520 -->
<g id="node14" class="node">
<title>6192037520</title>
<polygon fill="none" stroke="black" points="1604,-36 1381,-36 1381,0 1604,0 1604,-36"/>
<text text-anchor="middle" x="1492.5" y="-14.9" font-family="Times,serif" font-size="12.00">Guide customer in selecting product/service</text>
</g>
<!-- 6192035856&#45;&gt;6192037520 -->
<g id="edge16" class="edge">
<title>6192035856&#45;&gt;6192037520</title>
<path fill="none" stroke="black" d="M1345.08,-18C1353.04,-18 1361.78,-18 1370.88,-18"/>
<polygon fill="black" stroke="black" points="1370.9,-21.5 1380.9,-18 1370.9,-14.5 1370.9,-21.5"/>
</g>
<!-- 6192055376 -->
<g id="node15" class="node">
<title>6192055376</title>
<polygon fill="none" stroke="black" points="1766,-36 1640,-36 1640,0 1766,0 1766,-36"/>
<text text-anchor="middle" x="1703" y="-14.9" font-family="Times,serif" font-size="12.00">Record order in system</text>
</g>
<!-- 6192037520&#45;&gt;6192055376 -->
<g id="edge17" class="edge">
<title>6192037520&#45;&gt;6192055376</title>
<path fill="none" stroke="black" d="M1604.16,-18C1612.89,-18 1621.56,-18 1629.93,-18"/>
<polygon fill="black" stroke="black" points="1629.96,-21.5 1639.96,-18 1629.96,-14.5 1629.96,-21.5"/>
</g>
<!-- 6192055376&#45;&gt;6192028240 -->
<g id="edge18" class="edge">
<title>6192055376&#45;&gt;6192028240</title>
<path fill="none" stroke="black" d="M1757.31,-36.06C1772.43,-41.18 1788.26,-46.54 1801.09,-50.89"/>
<polygon fill="black" stroke="black" points="1800.08,-54.24 1810.68,-54.13 1802.33,-47.61 1800.08,-54.24"/>
</g>
</g>
</svg>
