<?xml version="1.0" encoding="UTF-8" standalone="no"?>
<!DOCTYPE svg PUBLIC "-//W3C//DTD SVG 1.1//EN"
 "http://www.w3.org/Graphics/SVG/1.1/DTD/svg11.dtd">
<!-- Generated by graphviz version 11.0.0 (20240428.1522)
 -->
<!-- Pages: 1 -->
<svg width="1938pt" height="136pt"
 viewBox="0.00 0.00 1938.00 136.00" xmlns="http://www.w3.org/2000/svg" xmlns:xlink="http://www.w3.org/1999/xlink">
<g id="graph0" class="graph" transform="scale(1 1) rotate(0) translate(4 132)">
<polygon fill="white" stroke="none" points="-4,4 -4,-132 1934,-132 1934,4 -4,4"/>
<!-- 2547373169248 -->
<g id="node1" class="node">
<title>2547373169248</title>
<ellipse fill="green" stroke="black" cx="18" cy="-83" rx="18" ry="18"/>
</g>
<!-- 2547390676768 -->
<g id="node2" class="node">
<title>2547390676768</title>
<polygon fill="none" stroke="black" points="208.75,-101 72,-101 72,-65 208.75,-65 208.75,-101"/>
<text text-anchor="middle" x="140.38" y="-77.97" font-family="Times New Roman,serif" font-size="12.00">Receive customer inquiry</text>
</g>
<!-- 2547373169248&#45;&gt;2547390676768 -->
<g id="edge1" class="edge">
<title>2547373169248&#45;&gt;2547390676768</title>
<path fill="none" stroke="black" d="M36.25,-83C43.09,-83 51.47,-83 60.48,-83"/>
<polygon fill="black" stroke="black" points="60.19,-86.5 70.19,-83 60.19,-79.5 60.19,-86.5"/>
</g>
<!-- 2547390665200 -->
<g id="node3" class="node">
<title>2547390665200</title>
<polygon fill="none" stroke="black" points="271.75,-101 244.75,-83 271.75,-65 298.75,-83 271.75,-101"/>
<text text-anchor="middle" x="271.75" y="-77.97" font-family="Times New Roman,serif" font-size="12.00">+</text>
</g>
<!-- 2547390676768&#45;&gt;2547390665200 -->
<g id="edge2" class="edge">
<title>2547390676768&#45;&gt;2547390665200</title>
<path fill="none" stroke="black" d="M209.09,-83C217.1,-83 225.05,-83 232.44,-83"/>
<polygon fill="black" stroke="black" points="232.38,-86.5 242.38,-83 232.38,-79.5 232.38,-86.5"/>
</g>
<!-- 2547390665680 -->
<g id="node4" class="node">
<title>2547390665680</title>
<polygon fill="none" stroke="black" points="540.5,-128 334.75,-128 334.75,-92 540.5,-92 540.5,-128"/>
<text text-anchor="middle" x="437.62" y="-104.97" font-family="Times New Roman,serif" font-size="12.00">Address customer concerns or questions</text>
</g>
<!-- 2547390665200&#45;&gt;2547390665680 -->
<g id="edge3" class="edge">
<title>2547390665200&#45;&gt;2547390665680</title>
<path fill="none" stroke="black" d="M294.17,-86.53C302.37,-87.88 312.4,-89.53 323.3,-91.33"/>
<polygon fill="black" stroke="black" points="322.52,-94.75 332.96,-92.92 323.66,-87.84 322.52,-94.75"/>
</g>
<!-- 2547390660928 -->
<g id="node5" class="node">
<title>2547390660928</title>
<polygon fill="none" stroke="black" points="514.25,-74 361,-74 361,-38 514.25,-38 514.25,-74"/>
<text text-anchor="middle" x="437.62" y="-50.98" font-family="Times New Roman,serif" font-size="12.00">Collect customer information</text>
</g>
<!-- 2547390665200&#45;&gt;2547390660928 -->
<g id="edge4" class="edge">
<title>2547390665200&#45;&gt;2547390660928</title>
<path fill="none" stroke="black" d="M294.17,-79.47C308.66,-77.08 328.85,-73.76 349.48,-70.36"/>
<polygon fill="black" stroke="black" points="349.83,-73.85 359.13,-68.77 348.69,-66.94 349.83,-73.85"/>
</g>
<!-- 2547390676000 -->
<g id="node6" class="node">
<title>2547390676000</title>
<polygon fill="none" stroke="black" points="603.5,-101 576.5,-83 603.5,-65 630.5,-83 603.5,-101"/>
<text text-anchor="middle" x="603.5" y="-77.97" font-family="Times New Roman,serif" font-size="12.00">+</text>
</g>
<!-- 2547390665680&#45;&gt;2547390676000 -->
<g id="edge5" class="edge">
<title>2547390665680&#45;&gt;2547390676000</title>
<path fill="none" stroke="black" d="M540.55,-93.21C551.02,-91.48 561.02,-89.83 569.83,-88.38"/>
<polygon fill="black" stroke="black" points="570.22,-91.87 579.52,-86.79 569.08,-84.96 570.22,-91.87"/>
</g>
<!-- 2547390660928&#45;&gt;2547390676000 -->
<g id="edge6" class="edge">
<title>2547390660928&#45;&gt;2547390676000</title>
<path fill="none" stroke="black" d="M514.33,-68.47C534.03,-71.72 554.22,-75.05 570.3,-77.69"/>
<polygon fill="black" stroke="black" points="569.29,-81.07 579.72,-79.25 570.42,-74.17 569.29,-81.07"/>
</g>
<!-- 2547391395216 -->
<g id="node7" class="node">
<title>2547391395216</title>
<polygon fill="none" stroke="black" points="693.5,-101 666.5,-83 693.5,-65 720.5,-83 693.5,-101"/>
<text text-anchor="middle" x="693.5" y="-77.97" font-family="Times New Roman,serif" font-size="12.00">X</text>
</g>
<!-- 2547390676000&#45;&gt;2547391395216 -->
<g id="edge7" class="edge">
<title>2547390676000&#45;&gt;2547391395216</title>
<path fill="none" stroke="black" d="M631.38,-83C638.63,-83 646.62,-83 654.35,-83"/>
<polygon fill="black" stroke="black" points="654.27,-86.5 664.27,-83 654.27,-79.5 654.27,-86.5"/>
</g>
<!-- 2547391394976 -->
<g id="node8" class="node">
<title>2547391394976</title>
<polygon fill="none" stroke="black" points="1831,-101 1804,-83 1831,-65 1858,-83 1831,-101"/>
<text text-anchor="middle" x="1831" y="-77.97" font-family="Times New Roman,serif" font-size="12.00">X</text>
</g>
<!-- 2547391395216&#45;&gt;2547391394976 -->
<g id="edge9" class="edge">
<title>2547391395216&#45;&gt;2547391394976</title>
<path fill="none" stroke="black" d="M717.23,-85.46C774.05,-91.39 926.9,-106 1054.75,-106 1054.75,-106 1054.75,-106 1584.75,-106 1661.07,-106 1750.17,-94.82 1797.14,-88.05"/>
<polygon fill="black" stroke="black" points="1797.53,-91.53 1806.91,-86.61 1796.51,-84.61 1797.53,-91.53"/>
</g>
<!-- 2547391396320 -->
<g id="node9" class="node">
<title>2547391396320</title>
<polygon fill="none" stroke="black" points="978.75,-78 756.5,-78 756.5,-42 978.75,-42 978.75,-78"/>
<text text-anchor="middle" x="867.62" y="-54.98" font-family="Times New Roman,serif" font-size="12.00">Guide customer in selecting product/service</text>
</g>
<!-- 2547391395216&#45;&gt;2547391396320 -->
<g id="edge8" class="edge">
<title>2547391395216&#45;&gt;2547391396320</title>
<path fill="none" stroke="black" d="M716.65,-80.04C724.67,-78.97 734.38,-77.67 744.97,-76.26"/>
<polygon fill="black" stroke="black" points="745.34,-79.74 754.79,-74.94 744.41,-72.8 745.34,-79.74"/>
</g>
<!-- 2547373178848 -->
<g id="node16" class="node">
<title>2547373178848</title>
<ellipse fill="orange" stroke="black" cx="1912" cy="-83" rx="18" ry="18"/>
</g>
<!-- 2547391394976&#45;&gt;2547373178848 -->
<g id="edge11" class="edge">
<title>2547391394976&#45;&gt;2547373178848</title>
<path fill="none" stroke="black" d="M1858.75,-83C1866.38,-83 1874.73,-83 1882.47,-83"/>
<polygon fill="black" stroke="black" points="1882.43,-86.5 1892.43,-83 1882.43,-79.5 1882.43,-86.5"/>
</g>
<!-- 2547390669376 -->
<g id="node10" class="node">
<title>2547390669376</title>
<polygon fill="none" stroke="black" points="1096.75,-78 1014.75,-78 1014.75,-42 1096.75,-42 1096.75,-78"/>
<text text-anchor="middle" x="1055.75" y="-54.98" font-family="Times New Roman,serif" font-size="12.00">Provide quote</text>
</g>
<!-- 2547391396320&#45;&gt;2547390669376 -->
<g id="edge10" class="edge">
<title>2547391396320&#45;&gt;2547390669376</title>
<path fill="none" stroke="black" d="M979.05,-60C987.27,-60 995.3,-60 1002.87,-60"/>
<polygon fill="black" stroke="black" points="1002.85,-63.5 1012.85,-60 1002.85,-56.5 1002.85,-63.5"/>
</g>
<!-- 2547391395024 -->
<g id="node11" class="node">
<title>2547391395024</title>
<polygon fill="none" stroke="black" points="1159.75,-78 1132.75,-60 1159.75,-42 1186.75,-60 1159.75,-78"/>
<text text-anchor="middle" x="1159.75" y="-54.98" font-family="Times New Roman,serif" font-size="12.00">X</text>
</g>
<!-- 2547390669376&#45;&gt;2547391395024 -->
<g id="edge12" class="edge">
<title>2547390669376&#45;&gt;2547391395024</title>
<path fill="none" stroke="black" d="M1097.06,-60C1104.83,-60 1112.94,-60 1120.63,-60"/>
<polygon fill="black" stroke="black" points="1120.37,-63.5 1130.37,-60 1120.37,-56.5 1120.37,-63.5"/>
</g>
<!-- 2547391394880 -->
<g id="node12" class="node">
<title>2547391394880</title>
<polygon fill="none" stroke="black" points="1741,-78 1714,-60 1741,-42 1768,-60 1741,-78"/>
<text text-anchor="middle" x="1741" y="-54.98" font-family="Times New Roman,serif" font-size="12.00">X</text>
</g>
<!-- 2547391395024&#45;&gt;2547391394880 -->
<g id="edge13" class="edge">
<title>2547391395024&#45;&gt;2547391394880</title>
<path fill="none" stroke="black" d="M1187.53,-60C1280.92,-60 1592.53,-60 1701.76,-60"/>
<polygon fill="black" stroke="black" points="1701.66,-63.5 1711.66,-60 1701.66,-56.5 1701.66,-63.5"/>
</g>
<!-- 2547390673984 -->
<g id="node13" class="node">
<title>2547390673984</title>
<polygon fill="none" stroke="black" points="1292,-36 1222.75,-36 1222.75,0 1292,0 1292,-36"/>
<text text-anchor="middle" x="1257.38" y="-12.97" font-family="Times New Roman,serif" font-size="12.00">Place order</text>
</g>
<!-- 2547391395024&#45;&gt;2547390673984 -->
<g id="edge14" class="edge">
<title>2547391395024&#45;&gt;2547390673984</title>
<path fill="none" stroke="black" d="M1176.54,-53.06C1186.24,-48.81 1199.19,-43.12 1211.83,-37.56"/>
<polygon fill="black" stroke="black" points="1213.17,-40.8 1220.92,-33.57 1210.35,-34.39 1213.17,-40.8"/>
</g>
<!-- 2547391394880&#45;&gt;2547391394976 -->
<g id="edge15" class="edge">
<title>2547391394880&#45;&gt;2547391394976</title>
<path fill="none" stroke="black" d="M1761.09,-64.99C1772.51,-67.97 1787.26,-71.83 1800.19,-75.21"/>
<polygon fill="black" stroke="black" points="1798.92,-78.49 1809.48,-77.64 1800.69,-71.72 1798.92,-78.49"/>
</g>
<!-- 2547391395984 -->
<g id="node14" class="node">
<title>2547391395984</title>
<polygon fill="none" stroke="black" points="1453.5,-36 1328,-36 1328,0 1453.5,0 1453.5,-36"/>
<text text-anchor="middle" x="1390.75" y="-12.97" font-family="Times New Roman,serif" font-size="12.00">Record order in system</text>
</g>
<!-- 2547390673984&#45;&gt;2547391395984 -->
<g id="edge16" class="edge">
<title>2547390673984&#45;&gt;2547391395984</title>
<path fill="none" stroke="black" d="M1292.21,-18C1299.68,-18 1307.88,-18 1316.25,-18"/>
<polygon fill="black" stroke="black" points="1316.21,-21.5 1326.21,-18 1316.21,-14.5 1316.21,-21.5"/>
</g>
<!-- 2547390667456 -->
<g id="node15" class="node">
<title>2547390667456</title>
<polygon fill="none" stroke="black" points="1678,-36 1489.5,-36 1489.5,0 1678,0 1678,-36"/>
<text text-anchor="middle" x="1583.75" y="-12.97" font-family="Times New Roman,serif" font-size="12.00">Send order confirmation to customer</text>
</g>
<!-- 2547391395984&#45;&gt;2547390667456 -->
<g id="edge17" class="edge">
<title>2547391395984&#45;&gt;2547390667456</title>
<path fill="none" stroke="black" d="M1453.76,-18C1461.55,-18 1469.68,-18 1477.9,-18"/>
<polygon fill="black" stroke="black" points="1477.63,-21.5 1487.63,-18 1477.63,-14.5 1477.63,-21.5"/>
</g>
<!-- 2547390667456&#45;&gt;2547391394880 -->
<g id="edge18" class="edge">
<title>2547390667456&#45;&gt;2547391394880</title>
<path fill="none" stroke="black" d="M1652.84,-36.42C1672.91,-41.85 1693.83,-47.51 1710.15,-51.92"/>
<polygon fill="black" stroke="black" points="1709.11,-55.27 1719.67,-54.5 1710.93,-48.51 1709.11,-55.27"/>
</g>
</g>
</svg>
