<?xml version="1.0" encoding="UTF-8" standalone="no"?>
<!DOCTYPE svg PUBLIC "-//W3C//DTD SVG 1.1//EN"
 "http://www.w3.org/Graphics/SVG/1.1/DTD/svg11.dtd">
<!-- Generated by graphviz version 11.0.0 (20240428.1522)
 -->
<!-- Pages: 1 -->
<svg width="3683pt" height="190pt"
 viewBox="0.00 0.00 3683.25 190.00" xmlns="http://www.w3.org/2000/svg" xmlns:xlink="http://www.w3.org/1999/xlink">
<g id="graph0" class="graph" transform="scale(1 1) rotate(0) translate(4 186)">
<polygon fill="white" stroke="none" points="-4,4 -4,-186 3679.25,-186 3679.25,4 -4,4"/>
<!-- 2547390671392 -->
<g id="node1" class="node">
<title>2547390671392</title>
<ellipse fill="green" stroke="black" cx="18" cy="-137" rx="18" ry="18"/>
</g>
<!-- 2547373167760 -->
<g id="node2" class="node">
<title>2547373167760</title>
<polygon fill="none" stroke="black" points="208.75,-155 72,-155 72,-119 208.75,-119 208.75,-155"/>
<text text-anchor="middle" x="140.38" y="-131.97" font-family="Times New Roman,serif" font-size="12.00">Receive customer inquiry</text>
</g>
<!-- 2547390671392&#45;&gt;2547373167760 -->
<g id="edge1" class="edge">
<title>2547390671392&#45;&gt;2547373167760</title>
<path fill="none" stroke="black" d="M36.25,-137C43.09,-137 51.47,-137 60.48,-137"/>
<polygon fill="black" stroke="black" points="60.19,-140.5 70.19,-137 60.19,-133.5 60.19,-140.5"/>
</g>
<!-- 2547373162960 -->
<g id="node3" class="node">
<title>2547373162960</title>
<polygon fill="none" stroke="black" points="271.75,-155 244.75,-137 271.75,-119 298.75,-137 271.75,-155"/>
<text text-anchor="middle" x="271.75" y="-131.97" font-family="Times New Roman,serif" font-size="12.00">+</text>
</g>
<!-- 2547373167760&#45;&gt;2547373162960 -->
<g id="edge2" class="edge">
<title>2547373167760&#45;&gt;2547373162960</title>
<path fill="none" stroke="black" d="M209.09,-137C217.1,-137 225.05,-137 232.44,-137"/>
<polygon fill="black" stroke="black" points="232.38,-140.5 242.38,-137 232.38,-133.5 232.38,-140.5"/>
</g>
<!-- 2547373170736 -->
<g id="node4" class="node">
<title>2547373170736</title>
<polygon fill="none" stroke="black" points="514.25,-182 361,-182 361,-146 514.25,-146 514.25,-182"/>
<text text-anchor="middle" x="437.62" y="-158.97" font-family="Times New Roman,serif" font-size="12.00">Collect customer information</text>
</g>
<!-- 2547373162960&#45;&gt;2547373170736 -->
<g id="edge4" class="edge">
<title>2547373162960&#45;&gt;2547373170736</title>
<path fill="none" stroke="black" d="M294.17,-140.53C308.66,-142.92 328.85,-146.24 349.48,-149.64"/>
<polygon fill="black" stroke="black" points="348.69,-153.06 359.13,-151.23 349.83,-146.15 348.69,-153.06"/>
</g>
<!-- 2547373178080 -->
<g id="node5" class="node">
<title>2547373178080</title>
<polygon fill="none" stroke="black" points="540.5,-128 334.75,-128 334.75,-92 540.5,-92 540.5,-128"/>
<text text-anchor="middle" x="437.62" y="-104.97" font-family="Times New Roman,serif" font-size="12.00">Address customer concerns or questions</text>
</g>
<!-- 2547373162960&#45;&gt;2547373178080 -->
<g id="edge3" class="edge">
<title>2547373162960&#45;&gt;2547373178080</title>
<path fill="none" stroke="black" d="M294.17,-133.47C302.37,-132.12 312.4,-130.47 323.3,-128.67"/>
<polygon fill="black" stroke="black" points="323.66,-132.16 332.96,-127.08 322.52,-125.25 323.66,-132.16"/>
</g>
<!-- 2547373170880 -->
<g id="node6" class="node">
<title>2547373170880</title>
<polygon fill="none" stroke="black" points="603.5,-155 576.5,-137 603.5,-119 630.5,-137 603.5,-155"/>
<text text-anchor="middle" x="603.5" y="-131.97" font-family="Times New Roman,serif" font-size="12.00">+</text>
</g>
<!-- 2547373170736&#45;&gt;2547373170880 -->
<g id="edge5" class="edge">
<title>2547373170736&#45;&gt;2547373170880</title>
<path fill="none" stroke="black" d="M514.33,-151.53C534.03,-148.28 554.22,-144.95 570.3,-142.31"/>
<polygon fill="black" stroke="black" points="570.42,-145.83 579.72,-140.75 569.29,-138.93 570.42,-145.83"/>
</g>
<!-- 2547373178080&#45;&gt;2547373170880 -->
<g id="edge6" class="edge">
<title>2547373178080&#45;&gt;2547373170880</title>
<path fill="none" stroke="black" d="M540.55,-126.79C551.02,-128.52 561.02,-130.17 569.83,-131.62"/>
<polygon fill="black" stroke="black" points="569.08,-135.04 579.52,-133.21 570.22,-128.13 569.08,-135.04"/>
</g>
<!-- 2547390665968 -->
<g id="node7" class="node">
<title>2547390665968</title>
<polygon fill="none" stroke="black" points="693.5,-155 666.5,-137 693.5,-119 720.5,-137 693.5,-155"/>
<text text-anchor="middle" x="693.5" y="-131.97" font-family="Times New Roman,serif" font-size="12.00">X</text>
</g>
<!-- 2547373170880&#45;&gt;2547390665968 -->
<g id="edge7" class="edge">
<title>2547373170880&#45;&gt;2547390665968</title>
<path fill="none" stroke="black" d="M631.38,-137C638.63,-137 646.62,-137 654.35,-137"/>
<polygon fill="black" stroke="black" points="654.27,-140.5 664.27,-137 654.27,-133.5 654.27,-140.5"/>
</g>
<!-- 2547390665056 -->
<g id="node8" class="node">
<title>2547390665056</title>
<polygon fill="none" stroke="black" points="1754.25,-155 1727.25,-137 1754.25,-119 1781.25,-137 1754.25,-155"/>
<text text-anchor="middle" x="1754.25" y="-131.97" font-family="Times New Roman,serif" font-size="12.00">X</text>
</g>
<!-- 2547390665968&#45;&gt;2547390665056 -->
<g id="edge9" class="edge">
<title>2547390665968&#45;&gt;2547390665056</title>
<path fill="none" stroke="black" d="M716.42,-140.25C761.19,-146.59 866.41,-160 955.25,-160 955.25,-160 955.25,-160 1463.12,-160 1556.37,-160 1665.94,-148.05 1719.85,-141.38"/>
<polygon fill="black" stroke="black" points="1720.11,-144.87 1729.59,-140.15 1719.23,-137.93 1720.11,-144.87"/>
</g>
<!-- 2547373168528 -->
<g id="node9" class="node">
<title>2547373168528</title>
<polygon fill="none" stroke="black" points="893.25,-132 756.5,-132 756.5,-96 893.25,-96 893.25,-132"/>
<text text-anchor="middle" x="824.88" y="-108.97" font-family="Times New Roman,serif" font-size="12.00">Receive customer inquiry</text>
</g>
<!-- 2547390665968&#45;&gt;2547373168528 -->
<g id="edge8" class="edge">
<title>2547390665968&#45;&gt;2547373168528</title>
<path fill="none" stroke="black" d="M715.57,-133.25C723.92,-131.77 734.07,-129.96 744.78,-128.06"/>
<polygon fill="black" stroke="black" points="745.37,-131.51 754.6,-126.32 744.14,-124.62 745.37,-131.51"/>
</g>
<!-- 2547390666496 -->
<g id="node10" class="node">
<title>2547390666496</title>
<polygon fill="none" stroke="black" points="1844.25,-155 1817.25,-137 1844.25,-119 1871.25,-137 1844.25,-155"/>
<text text-anchor="middle" x="1844.25" y="-131.97" font-family="Times New Roman,serif" font-size="12.00">X</text>
</g>
<!-- 2547390665056&#45;&gt;2547390666496 -->
<g id="edge10" class="edge">
<title>2547390665056&#45;&gt;2547390666496</title>
<path fill="none" stroke="black" d="M1782.13,-137C1789.38,-137 1797.37,-137 1805.1,-137"/>
<polygon fill="black" stroke="black" points="1805.02,-140.5 1815.02,-137 1805.02,-133.5 1805.02,-140.5"/>
</g>
<!-- 2547373167904 -->
<g id="node11" class="node">
<title>2547373167904</title>
<polygon fill="none" stroke="black" points="956.25,-132 929.25,-114 956.25,-96 983.25,-114 956.25,-132"/>
<text text-anchor="middle" x="956.25" y="-108.97" font-family="Times New Roman,serif" font-size="12.00">+</text>
</g>
<!-- 2547373168528&#45;&gt;2547373167904 -->
<g id="edge11" class="edge">
<title>2547373168528&#45;&gt;2547373167904</title>
<path fill="none" stroke="black" d="M893.59,-114C901.6,-114 909.55,-114 916.94,-114"/>
<polygon fill="black" stroke="black" points="916.88,-117.5 926.88,-114 916.88,-110.5 916.88,-117.5"/>
</g>
<!-- 2547390674560 -->
<g id="node12" class="node">
<title>2547390674560</title>
<polygon fill="none" stroke="black" points="3576.25,-155 3549.25,-137 3576.25,-119 3603.25,-137 3576.25,-155"/>
<text text-anchor="middle" x="3576.25" y="-131.97" font-family="Times New Roman,serif" font-size="12.00">X</text>
</g>
<!-- 2547390666496&#45;&gt;2547390674560 -->
<g id="edge12" class="edge">
<title>2547390666496&#45;&gt;2547390674560</title>
<path fill="none" stroke="black" d="M1866.35,-140.7C1905.37,-147.2 1991.48,-160 2064.62,-160 2064.62,-160 2064.62,-160 3227,-160 3342.55,-160 3479.21,-147.24 3541.4,-140.73"/>
<polygon fill="black" stroke="black" points="3541.39,-144.25 3550.96,-139.71 3540.65,-137.28 3541.39,-144.25"/>
</g>
<!-- 2547372617712 -->
<g id="node13" class="node">
<title>2547372617712</title>
<polygon fill="none" stroke="black" points="1934.25,-132 1907.25,-114 1934.25,-96 1961.25,-114 1934.25,-132"/>
<text text-anchor="middle" x="1934.25" y="-108.97" font-family="Times New Roman,serif" font-size="12.00">X</text>
</g>
<!-- 2547390666496&#45;&gt;2547372617712 -->
<g id="edge13" class="edge">
<title>2547390666496&#45;&gt;2547372617712</title>
<path fill="none" stroke="black" d="M1864.34,-132.01C1875.76,-129.03 1890.51,-125.17 1903.44,-121.79"/>
<polygon fill="black" stroke="black" points="1903.94,-125.28 1912.73,-119.36 1902.17,-118.51 1903.94,-125.28"/>
</g>
<!-- 2547373165696 -->
<g id="node14" class="node">
<title>2547373165696</title>
<polygon fill="none" stroke="black" points="1198.75,-132 1045.5,-132 1045.5,-96 1198.75,-96 1198.75,-132"/>
<text text-anchor="middle" x="1122.12" y="-108.97" font-family="Times New Roman,serif" font-size="12.00">Collect customer information</text>
</g>
<!-- 2547373167904&#45;&gt;2547373165696 -->
<g id="edge14" class="edge">
<title>2547373167904&#45;&gt;2547373165696</title>
<path fill="none" stroke="black" d="M983.94,-114C997.84,-114 1015.7,-114 1033.91,-114"/>
<polygon fill="black" stroke="black" points="1033.75,-117.5 1043.75,-114 1033.75,-110.5 1033.75,-117.5"/>
</g>
<!-- 2547373173904 -->
<g id="node15" class="node">
<title>2547373173904</title>
<polygon fill="none" stroke="black" points="1225,-78 1019.25,-78 1019.25,-42 1225,-42 1225,-78"/>
<text text-anchor="middle" x="1122.12" y="-54.98" font-family="Times New Roman,serif" font-size="12.00">Address customer concerns or questions</text>
</g>
<!-- 2547373167904&#45;&gt;2547373173904 -->
<g id="edge15" class="edge">
<title>2547373167904&#45;&gt;2547373173904</title>
<path fill="none" stroke="black" d="M972.79,-106.45C985.17,-100.62 1003.06,-92.63 1019.25,-87 1024.52,-85.17 1029.97,-83.39 1035.5,-81.68"/>
<polygon fill="black" stroke="black" points="1036.15,-85.13 1044.73,-78.91 1034.14,-78.43 1036.15,-85.13"/>
</g>
<!-- 2547390675136 -->
<g id="node30" class="node">
<title>2547390675136</title>
<ellipse fill="orange" stroke="black" cx="3657.25" cy="-137" rx="18" ry="18"/>
</g>
<!-- 2547390674560&#45;&gt;2547390675136 -->
<g id="edge20" class="edge">
<title>2547390674560&#45;&gt;2547390675136</title>
<path fill="none" stroke="black" d="M3604,-137C3611.63,-137 3619.98,-137 3627.72,-137"/>
<polygon fill="black" stroke="black" points="3627.68,-140.5 3637.68,-137 3627.68,-133.5 3627.68,-140.5"/>
</g>
<!-- 2547390668272 -->
<g id="node16" class="node">
<title>2547390668272</title>
<polygon fill="none" stroke="black" points="2995,-132 2968,-114 2995,-96 3022,-114 2995,-132"/>
<text text-anchor="middle" x="2995" y="-108.97" font-family="Times New Roman,serif" font-size="12.00">X</text>
</g>
<!-- 2547372617712&#45;&gt;2547390668272 -->
<g id="edge17" class="edge">
<title>2547372617712&#45;&gt;2547390668272</title>
<path fill="none" stroke="black" d="M1961.15,-114.66C2008.01,-115.8 2109.98,-118 2196,-118 2196,-118 2196,-118 2703.88,-118 2794.92,-118 2902.02,-116.01 2957.12,-114.83"/>
<polygon fill="black" stroke="black" points="2956.95,-118.34 2966.87,-114.62 2956.8,-111.34 2956.95,-118.34"/>
</g>
<!-- 2547373175920 -->
<g id="node18" class="node">
<title>2547373175920</title>
<polygon fill="none" stroke="black" points="2134,-90 1997.25,-90 1997.25,-54 2134,-54 2134,-90"/>
<text text-anchor="middle" x="2065.62" y="-66.97" font-family="Times New Roman,serif" font-size="12.00">Receive customer inquiry</text>
</g>
<!-- 2547372617712&#45;&gt;2547373175920 -->
<g id="edge16" class="edge">
<title>2547372617712&#45;&gt;2547373175920</title>
<path fill="none" stroke="black" d="M1953.24,-108.16C1964.91,-104.37 1980.94,-99.17 1997.19,-93.89"/>
<polygon fill="black" stroke="black" points="1997.99,-97.31 2006.42,-90.89 1995.83,-90.65 1997.99,-97.31"/>
</g>
<!-- 2547373167664 -->
<g id="node17" class="node">
<title>2547373167664</title>
<polygon fill="none" stroke="black" points="1288,-132 1261,-114 1288,-96 1315,-114 1288,-132"/>
<text text-anchor="middle" x="1288" y="-108.97" font-family="Times New Roman,serif" font-size="12.00">+</text>
</g>
<!-- 2547373165696&#45;&gt;2547373167664 -->
<g id="edge18" class="edge">
<title>2547373165696&#45;&gt;2547373167664</title>
<path fill="none" stroke="black" d="M1198.83,-114C1216.16,-114 1233.88,-114 1248.83,-114"/>
<polygon fill="black" stroke="black" points="1248.67,-117.5 1258.67,-114 1248.67,-110.5 1248.67,-117.5"/>
</g>
<!-- 2547373173904&#45;&gt;2547373167664 -->
<g id="edge19" class="edge">
<title>2547373173904&#45;&gt;2547373167664</title>
<path fill="none" stroke="black" d="M1198.07,-78.47C1207.21,-81.13 1216.36,-83.99 1225,-87 1237.14,-91.23 1250.24,-96.78 1261.25,-101.74"/>
<polygon fill="black" stroke="black" points="1259.54,-104.81 1270.09,-105.82 1262.47,-98.45 1259.54,-104.81"/>
</g>
<!-- 2547373174384 -->
<g id="node20" class="node">
<title>2547373174384</title>
<polygon fill="none" stroke="black" points="3127.25,-132 3058,-132 3058,-96 3127.25,-96 3127.25,-132"/>
<text text-anchor="middle" x="3092.62" y="-108.97" font-family="Times New Roman,serif" font-size="12.00">Place order</text>
</g>
<!-- 2547390668272&#45;&gt;2547373174384 -->
<g id="edge21" class="edge">
<title>2547390668272&#45;&gt;2547373174384</title>
<path fill="none" stroke="black" d="M3022.89,-114C3030.25,-114 3038.43,-114 3046.51,-114"/>
<polygon fill="black" stroke="black" points="3046.26,-117.5 3056.26,-114 3046.26,-110.5 3046.26,-117.5"/>
</g>
<!-- 2547373168480 -->
<g id="node19" class="node">
<title>2547373168480</title>
<polygon fill="none" stroke="black" points="1573.25,-132 1351,-132 1351,-96 1573.25,-96 1573.25,-132"/>
<text text-anchor="middle" x="1462.12" y="-108.97" font-family="Times New Roman,serif" font-size="12.00">Guide customer in selecting product/service</text>
</g>
<!-- 2547373167664&#45;&gt;2547373168480 -->
<g id="edge22" class="edge">
<title>2547373167664&#45;&gt;2547373168480</title>
<path fill="none" stroke="black" d="M1315.89,-114C1322.8,-114 1330.68,-114 1339.14,-114"/>
<polygon fill="black" stroke="black" points="1339.02,-117.5 1349.02,-114 1339.02,-110.5 1339.02,-117.5"/>
</g>
<!-- 2547373172896 -->
<g id="node21" class="node">
<title>2547373172896</title>
<polygon fill="none" stroke="black" points="2197,-90 2170,-72 2197,-54 2224,-72 2197,-90"/>
<text text-anchor="middle" x="2197" y="-66.97" font-family="Times New Roman,serif" font-size="12.00">+</text>
</g>
<!-- 2547373175920&#45;&gt;2547373172896 -->
<g id="edge23" class="edge">
<title>2547373175920&#45;&gt;2547373172896</title>
<path fill="none" stroke="black" d="M2134.34,-72C2142.35,-72 2150.3,-72 2157.69,-72"/>
<polygon fill="black" stroke="black" points="2157.63,-75.5 2167.63,-72 2157.63,-68.5 2157.63,-75.5"/>
</g>
<!-- 2547373172848 -->
<g id="node25" class="node">
<title>2547373172848</title>
<polygon fill="none" stroke="black" points="1691.25,-132 1609.25,-132 1609.25,-96 1691.25,-96 1691.25,-132"/>
<text text-anchor="middle" x="1650.25" y="-108.97" font-family="Times New Roman,serif" font-size="12.00">Provide quote</text>
</g>
<!-- 2547373168480&#45;&gt;2547373172848 -->
<g id="edge24" class="edge">
<title>2547373168480&#45;&gt;2547373172848</title>
<path fill="none" stroke="black" d="M1573.55,-114C1581.77,-114 1589.8,-114 1597.37,-114"/>
<polygon fill="black" stroke="black" points="1597.35,-117.5 1607.35,-114 1597.35,-110.5 1597.35,-117.5"/>
</g>
<!-- 2547373171264 -->
<g id="node24" class="node">
<title>2547373171264</title>
<polygon fill="none" stroke="black" points="3288.75,-132 3163.25,-132 3163.25,-96 3288.75,-96 3288.75,-132"/>
<text text-anchor="middle" x="3226" y="-108.97" font-family="Times New Roman,serif" font-size="12.00">Record order in system</text>
</g>
<!-- 2547373174384&#45;&gt;2547373171264 -->
<g id="edge25" class="edge">
<title>2547373174384&#45;&gt;2547373171264</title>
<path fill="none" stroke="black" d="M3127.46,-114C3134.93,-114 3143.13,-114 3151.5,-114"/>
<polygon fill="black" stroke="black" points="3151.46,-117.5 3161.46,-114 3151.46,-110.5 3151.46,-117.5"/>
</g>
<!-- 2547373178752 -->
<g id="node22" class="node">
<title>2547373178752</title>
<polygon fill="none" stroke="black" points="2439.5,-90 2286.25,-90 2286.25,-54 2439.5,-54 2439.5,-90"/>
<text text-anchor="middle" x="2362.88" y="-66.97" font-family="Times New Roman,serif" font-size="12.00">Collect customer information</text>
</g>
<!-- 2547373172896&#45;&gt;2547373178752 -->
<g id="edge26" class="edge">
<title>2547373172896&#45;&gt;2547373178752</title>
<path fill="none" stroke="black" d="M2224.69,-72C2238.59,-72 2256.45,-72 2274.66,-72"/>
<polygon fill="black" stroke="black" points="2274.5,-75.5 2284.5,-72 2274.5,-68.5 2274.5,-75.5"/>
</g>
<!-- 2547373170352 -->
<g id="node23" class="node">
<title>2547373170352</title>
<polygon fill="none" stroke="black" points="2465.75,-36 2260,-36 2260,0 2465.75,0 2465.75,-36"/>
<text text-anchor="middle" x="2362.88" y="-12.97" font-family="Times New Roman,serif" font-size="12.00">Address customer concerns or questions</text>
</g>
<!-- 2547373172896&#45;&gt;2547373170352 -->
<g id="edge27" class="edge">
<title>2547373172896&#45;&gt;2547373170352</title>
<path fill="none" stroke="black" d="M2213.54,-64.45C2225.92,-58.62 2243.81,-50.63 2260,-45 2265.27,-43.17 2270.72,-41.39 2276.25,-39.68"/>
<polygon fill="black" stroke="black" points="2276.9,-43.13 2285.48,-36.91 2274.89,-36.43 2276.9,-43.13"/>
</g>
<!-- 2547373169104 -->
<g id="node26" class="node">
<title>2547373169104</title>
<polygon fill="none" stroke="black" points="2528.75,-90 2501.75,-72 2528.75,-54 2555.75,-72 2528.75,-90"/>
<text text-anchor="middle" x="2528.75" y="-66.97" font-family="Times New Roman,serif" font-size="12.00">+</text>
</g>
<!-- 2547373178752&#45;&gt;2547373169104 -->
<g id="edge29" class="edge">
<title>2547373178752&#45;&gt;2547373169104</title>
<path fill="none" stroke="black" d="M2439.58,-72C2456.91,-72 2474.63,-72 2489.58,-72"/>
<polygon fill="black" stroke="black" points="2489.42,-75.5 2499.42,-72 2489.42,-68.5 2489.42,-75.5"/>
</g>
<!-- 2547373170352&#45;&gt;2547373169104 -->
<g id="edge30" class="edge">
<title>2547373170352&#45;&gt;2547373169104</title>
<path fill="none" stroke="black" d="M2438.82,-36.47C2447.96,-39.13 2457.11,-41.99 2465.75,-45 2477.89,-49.23 2490.99,-54.78 2502,-59.74"/>
<polygon fill="black" stroke="black" points="2500.29,-62.81 2510.84,-63.82 2503.22,-56.45 2500.29,-62.81"/>
</g>
<!-- 2547373170448 -->
<g id="node27" class="node">
<title>2547373170448</title>
<polygon fill="none" stroke="black" points="3513.25,-132 3324.75,-132 3324.75,-96 3513.25,-96 3513.25,-132"/>
<text text-anchor="middle" x="3419" y="-108.97" font-family="Times New Roman,serif" font-size="12.00">Send order confirmation to customer</text>
</g>
<!-- 2547373171264&#45;&gt;2547373170448 -->
<g id="edge31" class="edge">
<title>2547373171264&#45;&gt;2547373170448</title>
<path fill="none" stroke="black" d="M3289.01,-114C3296.8,-114 3304.93,-114 3313.15,-114"/>
<polygon fill="black" stroke="black" points="3312.88,-117.5 3322.88,-114 3312.88,-110.5 3312.88,-117.5"/>
</g>
<!-- 2547373172848&#45;&gt;2547390665056 -->
<g id="edge28" class="edge">
<title>2547373172848&#45;&gt;2547390665056</title>
<path fill="none" stroke="black" d="M1691.56,-123.09C1701.78,-125.39 1712.59,-127.83 1722.26,-130.01"/>
<polygon fill="black" stroke="black" points="1721.37,-133.4 1731.9,-132.19 1722.91,-126.57 1721.37,-133.4"/>
</g>
<!-- 2547373169296 -->
<g id="node28" class="node">
<title>2547373169296</title>
<polygon fill="none" stroke="black" points="2814,-90 2591.75,-90 2591.75,-54 2814,-54 2814,-90"/>
<text text-anchor="middle" x="2702.88" y="-66.97" font-family="Times New Roman,serif" font-size="12.00">Guide customer in selecting product/service</text>
</g>
<!-- 2547373169104&#45;&gt;2547373169296 -->
<g id="edge33" class="edge">
<title>2547373169104&#45;&gt;2547373169296</title>
<path fill="none" stroke="black" d="M2556.64,-72C2563.55,-72 2571.43,-72 2579.89,-72"/>
<polygon fill="black" stroke="black" points="2579.77,-75.5 2589.77,-72 2579.77,-68.5 2579.77,-75.5"/>
</g>
<!-- 2547373170448&#45;&gt;2547390674560 -->
<g id="edge32" class="edge">
<title>2547373170448&#45;&gt;2547390674560</title>
<path fill="none" stroke="black" d="M3513.45,-127.84C3523.69,-129.36 3533.55,-130.82 3542.27,-132.11"/>
<polygon fill="black" stroke="black" points="3541.48,-135.54 3551.88,-133.54 3542.51,-128.61 3541.48,-135.54"/>
</g>
<!-- 2547373171696 -->
<g id="node29" class="node">
<title>2547373171696</title>
<polygon fill="none" stroke="black" points="2932,-90 2850,-90 2850,-54 2932,-54 2932,-90"/>
<text text-anchor="middle" x="2891" y="-66.97" font-family="Times New Roman,serif" font-size="12.00">Provide quote</text>
</g>
<!-- 2547373169296&#45;&gt;2547373171696 -->
<g id="edge34" class="edge">
<title>2547373169296&#45;&gt;2547373171696</title>
<path fill="none" stroke="black" d="M2814.3,-72C2822.52,-72 2830.55,-72 2838.12,-72"/>
<polygon fill="black" stroke="black" points="2838.1,-75.5 2848.1,-72 2838.1,-68.5 2838.1,-75.5"/>
</g>
<!-- 2547373171696&#45;&gt;2547390668272 -->
<g id="edge35" class="edge">
<title>2547373171696&#45;&gt;2547390668272</title>
<path fill="none" stroke="black" d="M2932.31,-88.6C2944.05,-93.43 2956.58,-98.59 2967.26,-102.99"/>
<polygon fill="black" stroke="black" points="2965.63,-106.1 2976.21,-106.67 2968.29,-99.63 2965.63,-106.1"/>
</g>
</g>
</svg>
