<?xml version="1.0" encoding="UTF-8" standalone="no"?>
<!DOCTYPE svg PUBLIC "-//W3C//DTD SVG 1.1//EN"
 "http://www.w3.org/Graphics/SVG/1.1/DTD/svg11.dtd">
<!-- Generated by graphviz version 11.0.0 (20240428.1522)
 -->
<!-- Pages: 1 -->
<svg width="1947pt" height="114pt"
 viewBox="0.00 0.00 1947.25 114.00" xmlns="http://www.w3.org/2000/svg" xmlns:xlink="http://www.w3.org/1999/xlink">
<g id="graph0" class="graph" transform="scale(1 1) rotate(0) translate(4 110)">
<polygon fill="white" stroke="none" points="-4,4 -4,-110 1943.25,-110 1943.25,4 -4,4"/>
<!-- 2547390670336 -->
<g id="node1" class="node">
<title>2547390670336</title>
<ellipse fill="green" stroke="black" cx="18" cy="-83" rx="18" ry="18"/>
</g>
<!-- 2547390665344 -->
<g id="node2" class="node">
<title>2547390665344</title>
<polygon fill="none" stroke="black" points="208.75,-101 72,-101 72,-65 208.75,-65 208.75,-101"/>
<text text-anchor="middle" x="140.38" y="-77.97" font-family="Times New Roman,serif" font-size="12.00">Receive customer inquiry</text>
</g>
<!-- 2547390670336&#45;&gt;2547390665344 -->
<g id="edge1" class="edge">
<title>2547390670336&#45;&gt;2547390665344</title>
<path fill="none" stroke="black" d="M36.25,-83C43.09,-83 51.47,-83 60.48,-83"/>
<polygon fill="black" stroke="black" points="60.19,-86.5 70.19,-83 60.19,-79.5 60.19,-86.5"/>
</g>
<!-- 2547390667408 -->
<g id="node3" class="node">
<title>2547390667408</title>
<polygon fill="none" stroke="black" points="398,-101 244.75,-101 244.75,-65 398,-65 398,-101"/>
<text text-anchor="middle" x="321.38" y="-77.97" font-family="Times New Roman,serif" font-size="12.00">Collect customer information</text>
</g>
<!-- 2547390665344&#45;&gt;2547390667408 -->
<g id="edge2" class="edge">
<title>2547390665344&#45;&gt;2547390667408</title>
<path fill="none" stroke="black" d="M209.05,-83C216.92,-83 225.03,-83 233.12,-83"/>
<polygon fill="black" stroke="black" points="233,-86.5 243,-83 233,-79.5 233,-86.5"/>
</g>
<!-- 2547390666736 -->
<g id="node4" class="node">
<title>2547390666736</title>
<polygon fill="none" stroke="black" points="639.75,-101 434,-101 434,-65 639.75,-65 639.75,-101"/>
<text text-anchor="middle" x="536.88" y="-77.97" font-family="Times New Roman,serif" font-size="12.00">Address customer concerns or questions</text>
</g>
<!-- 2547390667408&#45;&gt;2547390666736 -->
<g id="edge3" class="edge">
<title>2547390667408&#45;&gt;2547390666736</title>
<path fill="none" stroke="black" d="M398.25,-83C406.07,-83 414.13,-83 422.25,-83"/>
<polygon fill="black" stroke="black" points="422.22,-86.5 432.22,-83 422.22,-79.5 422.22,-86.5"/>
</g>
<!-- 2547390662848 -->
<g id="node5" class="node">
<title>2547390662848</title>
<polygon fill="none" stroke="black" points="702.75,-101 675.75,-83 702.75,-65 729.75,-83 702.75,-101"/>
<text text-anchor="middle" x="702.75" y="-77.97" font-family="Times New Roman,serif" font-size="12.00">X</text>
</g>
<!-- 2547390666736&#45;&gt;2547390662848 -->
<g id="edge4" class="edge">
<title>2547390666736&#45;&gt;2547390662848</title>
<path fill="none" stroke="black" d="M639.8,-83C648.15,-83 656.21,-83 663.6,-83"/>
<polygon fill="black" stroke="black" points="663.45,-86.5 673.45,-83 663.45,-79.5 663.45,-86.5"/>
</g>
<!-- 2547390664864 -->
<g id="node6" class="node">
<title>2547390664864</title>
<polygon fill="none" stroke="black" points="1840.25,-101 1813.25,-83 1840.25,-65 1867.25,-83 1840.25,-101"/>
<text text-anchor="middle" x="1840.25" y="-77.97" font-family="Times New Roman,serif" font-size="12.00">X</text>
</g>
<!-- 2547390662848&#45;&gt;2547390664864 -->
<g id="edge5" class="edge">
<title>2547390662848&#45;&gt;2547390664864</title>
<path fill="none" stroke="black" d="M726.48,-85.46C783.3,-91.39 936.15,-106 1064,-106 1064,-106 1064,-106 1594,-106 1670.32,-106 1759.42,-94.82 1806.39,-88.05"/>
<polygon fill="black" stroke="black" points="1806.78,-91.53 1816.16,-86.61 1805.76,-84.61 1806.78,-91.53"/>
</g>
<!-- 2547390667072 -->
<g id="node7" class="node">
<title>2547390667072</title>
<polygon fill="none" stroke="black" points="988,-78 765.75,-78 765.75,-42 988,-42 988,-78"/>
<text text-anchor="middle" x="876.88" y="-54.98" font-family="Times New Roman,serif" font-size="12.00">Guide customer in selecting product/service</text>
</g>
<!-- 2547390662848&#45;&gt;2547390667072 -->
<g id="edge6" class="edge">
<title>2547390662848&#45;&gt;2547390667072</title>
<path fill="none" stroke="black" d="M725.9,-80.04C733.92,-78.97 743.63,-77.67 754.22,-76.26"/>
<polygon fill="black" stroke="black" points="754.59,-79.74 764.04,-74.94 753.66,-72.8 754.59,-79.74"/>
</g>
<!-- 2547390670432 -->
<g id="node14" class="node">
<title>2547390670432</title>
<ellipse fill="orange" stroke="black" cx="1921.25" cy="-83" rx="18" ry="18"/>
</g>
<!-- 2547390664864&#45;&gt;2547390670432 -->
<g id="edge8" class="edge">
<title>2547390664864&#45;&gt;2547390670432</title>
<path fill="none" stroke="black" d="M1868,-83C1875.63,-83 1883.98,-83 1891.72,-83"/>
<polygon fill="black" stroke="black" points="1891.68,-86.5 1901.68,-83 1891.68,-79.5 1891.68,-86.5"/>
</g>
<!-- 2547390665680 -->
<g id="node8" class="node">
<title>2547390665680</title>
<polygon fill="none" stroke="black" points="1106,-78 1024,-78 1024,-42 1106,-42 1106,-78"/>
<text text-anchor="middle" x="1065" y="-54.98" font-family="Times New Roman,serif" font-size="12.00">Provide quote</text>
</g>
<!-- 2547390667072&#45;&gt;2547390665680 -->
<g id="edge7" class="edge">
<title>2547390667072&#45;&gt;2547390665680</title>
<path fill="none" stroke="black" d="M988.3,-60C996.52,-60 1004.55,-60 1012.12,-60"/>
<polygon fill="black" stroke="black" points="1012.1,-63.5 1022.1,-60 1012.1,-56.5 1012.1,-63.5"/>
</g>
<!-- 2547390664912 -->
<g id="node9" class="node">
<title>2547390664912</title>
<polygon fill="none" stroke="black" points="1169,-78 1142,-60 1169,-42 1196,-60 1169,-78"/>
<text text-anchor="middle" x="1169" y="-54.98" font-family="Times New Roman,serif" font-size="12.00">X</text>
</g>
<!-- 2547390665680&#45;&gt;2547390664912 -->
<g id="edge9" class="edge">
<title>2547390665680&#45;&gt;2547390664912</title>
<path fill="none" stroke="black" d="M1106.31,-60C1114.08,-60 1122.19,-60 1129.88,-60"/>
<polygon fill="black" stroke="black" points="1129.62,-63.5 1139.62,-60 1129.62,-56.5 1129.62,-63.5"/>
</g>
<!-- 2547390665200 -->
<g id="node10" class="node">
<title>2547390665200</title>
<polygon fill="none" stroke="black" points="1750.25,-78 1723.25,-60 1750.25,-42 1777.25,-60 1750.25,-78"/>
<text text-anchor="middle" x="1750.25" y="-54.98" font-family="Times New Roman,serif" font-size="12.00">X</text>
</g>
<!-- 2547390664912&#45;&gt;2547390665200 -->
<g id="edge11" class="edge">
<title>2547390664912&#45;&gt;2547390665200</title>
<path fill="none" stroke="black" d="M1196.78,-60C1290.17,-60 1601.78,-60 1711.01,-60"/>
<polygon fill="black" stroke="black" points="1710.91,-63.5 1720.91,-60 1710.91,-56.5 1710.91,-63.5"/>
</g>
<!-- 2547390667840 -->
<g id="node11" class="node">
<title>2547390667840</title>
<polygon fill="none" stroke="black" points="1301.25,-36 1232,-36 1232,0 1301.25,0 1301.25,-36"/>
<text text-anchor="middle" x="1266.62" y="-12.97" font-family="Times New Roman,serif" font-size="12.00">Place order</text>
</g>
<!-- 2547390664912&#45;&gt;2547390667840 -->
<g id="edge10" class="edge">
<title>2547390664912&#45;&gt;2547390667840</title>
<path fill="none" stroke="black" d="M1185.79,-53.06C1195.49,-48.81 1208.44,-43.12 1221.08,-37.56"/>
<polygon fill="black" stroke="black" points="1222.42,-40.8 1230.17,-33.57 1219.6,-34.39 1222.42,-40.8"/>
</g>
<!-- 2547390665200&#45;&gt;2547390664864 -->
<g id="edge12" class="edge">
<title>2547390665200&#45;&gt;2547390664864</title>
<path fill="none" stroke="black" d="M1770.34,-64.99C1781.76,-67.97 1796.51,-71.83 1809.44,-75.21"/>
<polygon fill="black" stroke="black" points="1808.17,-78.49 1818.73,-77.64 1809.94,-71.72 1808.17,-78.49"/>
</g>
<!-- 2547390666016 -->
<g id="node12" class="node">
<title>2547390666016</title>
<polygon fill="none" stroke="black" points="1462.75,-36 1337.25,-36 1337.25,0 1462.75,0 1462.75,-36"/>
<text text-anchor="middle" x="1400" y="-12.97" font-family="Times New Roman,serif" font-size="12.00">Record order in system</text>
</g>
<!-- 2547390667840&#45;&gt;2547390666016 -->
<g id="edge13" class="edge">
<title>2547390667840&#45;&gt;2547390666016</title>
<path fill="none" stroke="black" d="M1301.46,-18C1308.93,-18 1317.13,-18 1325.5,-18"/>
<polygon fill="black" stroke="black" points="1325.46,-21.5 1335.46,-18 1325.46,-14.5 1325.46,-21.5"/>
</g>
<!-- 2547390666352 -->
<g id="node13" class="node">
<title>2547390666352</title>
<polygon fill="none" stroke="black" points="1687.25,-36 1498.75,-36 1498.75,0 1687.25,0 1687.25,-36"/>
<text text-anchor="middle" x="1593" y="-12.97" font-family="Times New Roman,serif" font-size="12.00">Send order confirmation to customer</text>
</g>
<!-- 2547390666016&#45;&gt;2547390666352 -->
<g id="edge14" class="edge">
<title>2547390666016&#45;&gt;2547390666352</title>
<path fill="none" stroke="black" d="M1463.01,-18C1470.8,-18 1478.93,-18 1487.15,-18"/>
<polygon fill="black" stroke="black" points="1486.88,-21.5 1496.88,-18 1486.88,-14.5 1486.88,-21.5"/>
</g>
<!-- 2547390666352&#45;&gt;2547390665200 -->
<g id="edge15" class="edge">
<title>2547390666352&#45;&gt;2547390665200</title>
<path fill="none" stroke="black" d="M1662.09,-36.42C1682.16,-41.85 1703.08,-47.51 1719.4,-51.92"/>
<polygon fill="black" stroke="black" points="1718.36,-55.27 1728.92,-54.5 1720.18,-48.51 1718.36,-55.27"/>
</g>
</g>
</svg>
