<?xml version="1.0" encoding="UTF-8" standalone="no"?>
<!DOCTYPE svg PUBLIC "-//W3C//DTD SVG 1.1//EN"
 "http://www.w3.org/Graphics/SVG/1.1/DTD/svg11.dtd">
<!-- Generated by graphviz version 11.0.0 (20240428.1522)
 -->
<!-- Pages: 1 -->
<svg width="2478pt" height="98pt"
 viewBox="0.00 0.00 2478.00 98.00" xmlns="http://www.w3.org/2000/svg" xmlns:xlink="http://www.w3.org/1999/xlink">
<g id="graph0" class="graph" transform="scale(1 1) rotate(0) translate(4 94)">
<polygon fill="white" stroke="none" points="-4,4 -4,-94 2474,-94 2474,4 -4,4"/>
<!-- 2547393084544 -->
<g id="node1" class="node">
<title>2547393084544</title>
<ellipse fill="green" stroke="black" cx="18" cy="-45" rx="18" ry="18"/>
</g>
<!-- 2547393391424 -->
<g id="node2" class="node">
<title>2547393391424</title>
<polygon fill="none" stroke="black" points="99,-63 72,-45 99,-27 126,-45 99,-63"/>
<text text-anchor="middle" x="99" y="-39.98" font-family="Times New Roman,serif" font-size="12.00">X</text>
</g>
<!-- 2547393084544&#45;&gt;2547393391424 -->
<g id="edge1" class="edge">
<title>2547393084544&#45;&gt;2547393391424</title>
<path fill="none" stroke="black" d="M36.14,-45C43.11,-45 51.47,-45 59.75,-45"/>
<polygon fill="black" stroke="black" points="59.75,-48.5 69.75,-45 59.75,-41.5 59.75,-48.5"/>
</g>
<!-- 2547393391664 -->
<g id="node3" class="node">
<title>2547393391664</title>
<polygon fill="none" stroke="black" points="413.5,-63 386.5,-45 413.5,-27 440.5,-45 413.5,-63"/>
<text text-anchor="middle" x="413.5" y="-39.98" font-family="Times New Roman,serif" font-size="12.00">X</text>
</g>
<!-- 2547393391424&#45;&gt;2547393391664 -->
<g id="edge3" class="edge">
<title>2547393391424&#45;&gt;2547393391664</title>
<path fill="none" stroke="black" d="M123.83,-46.9C135.35,-47.72 149.39,-48.59 162,-49 245.73,-51.7 266.77,-51.7 350.5,-49 359.17,-48.72 368.52,-48.22 377.25,-47.67"/>
<polygon fill="black" stroke="black" points="377.42,-51.17 387.16,-47 376.95,-44.18 377.42,-51.17"/>
</g>
<!-- 2547393081904 -->
<g id="node4" class="node">
<title>2547393081904</title>
<polygon fill="none" stroke="black" points="350.5,-40 162,-40 162,-4 350.5,-4 350.5,-40"/>
<text text-anchor="middle" x="256.25" y="-16.98" font-family="Times New Roman,serif" font-size="12.00">Send order confirmation to customer</text>
</g>
<!-- 2547393391424&#45;&gt;2547393081904 -->
<g id="edge2" class="edge">
<title>2547393391424&#45;&gt;2547393081904</title>
<path fill="none" stroke="black" d="M121.91,-41.75C130.04,-40.55 139.89,-39.09 150.51,-37.52"/>
<polygon fill="black" stroke="black" points="150.95,-40.99 160.33,-36.06 149.92,-34.07 150.95,-40.99"/>
</g>
<!-- 2547391238640 -->
<g id="node5" class="node">
<title>2547391238640</title>
<polygon fill="none" stroke="black" points="503.5,-63 476.5,-45 503.5,-27 530.5,-45 503.5,-63"/>
<text text-anchor="middle" x="503.5" y="-39.98" font-family="Times New Roman,serif" font-size="12.00">X</text>
</g>
<!-- 2547393391664&#45;&gt;2547391238640 -->
<g id="edge5" class="edge">
<title>2547393391664&#45;&gt;2547391238640</title>
<path fill="none" stroke="black" d="M441.38,-45C448.63,-45 456.62,-45 464.35,-45"/>
<polygon fill="black" stroke="black" points="464.27,-48.5 474.27,-45 464.27,-41.5 464.27,-48.5"/>
</g>
<!-- 2547393081904&#45;&gt;2547393391664 -->
<g id="edge4" class="edge">
<title>2547393081904&#45;&gt;2547393391664</title>
<path fill="none" stroke="black" d="M350.7,-35.84C360.94,-37.36 370.8,-38.82 379.52,-40.11"/>
<polygon fill="black" stroke="black" points="378.73,-43.54 389.13,-41.54 379.76,-36.61 378.73,-43.54"/>
</g>
<!-- 2547393390944 -->
<g id="node6" class="node">
<title>2547393390944</title>
<polygon fill="none" stroke="black" points="755,-63 728,-45 755,-27 782,-45 755,-63"/>
<text text-anchor="middle" x="755" y="-39.98" font-family="Times New Roman,serif" font-size="12.00">X</text>
</g>
<!-- 2547391238640&#45;&gt;2547393390944 -->
<g id="edge7" class="edge">
<title>2547391238640&#45;&gt;2547393390944</title>
<path fill="none" stroke="black" d="M528.33,-46.9C539.85,-47.72 553.89,-48.59 566.5,-49 622.25,-50.8 636.25,-50.8 692,-49 700.67,-48.72 710.02,-48.22 718.75,-47.67"/>
<polygon fill="black" stroke="black" points="718.92,-51.17 728.66,-47 718.45,-44.18 718.92,-51.17"/>
</g>
<!-- 2547393392432 -->
<g id="node7" class="node">
<title>2547393392432</title>
<polygon fill="none" stroke="black" points="692,-40 566.5,-40 566.5,-4 692,-4 692,-40"/>
<text text-anchor="middle" x="629.25" y="-16.98" font-family="Times New Roman,serif" font-size="12.00">Record order in system</text>
</g>
<!-- 2547391238640&#45;&gt;2547393392432 -->
<g id="edge6" class="edge">
<title>2547391238640&#45;&gt;2547393392432</title>
<path fill="none" stroke="black" d="M525.49,-41.1C533.89,-39.54 544.1,-37.64 554.78,-35.65"/>
<polygon fill="black" stroke="black" points="555.36,-39.11 564.55,-33.84 554.08,-32.22 555.36,-39.11"/>
</g>
<!-- 2547393391712 -->
<g id="node8" class="node">
<title>2547393391712</title>
<polygon fill="none" stroke="black" points="845,-63 818,-45 845,-27 872,-45 845,-63"/>
<text text-anchor="middle" x="845" y="-39.98" font-family="Times New Roman,serif" font-size="12.00">X</text>
</g>
<!-- 2547393390944&#45;&gt;2547393391712 -->
<g id="edge9" class="edge">
<title>2547393390944&#45;&gt;2547393391712</title>
<path fill="none" stroke="black" d="M782.88,-45C790.13,-45 798.12,-45 805.85,-45"/>
<polygon fill="black" stroke="black" points="805.77,-48.5 815.77,-45 805.77,-41.5 805.77,-48.5"/>
</g>
<!-- 2547393392432&#45;&gt;2547393390944 -->
<g id="edge8" class="edge">
<title>2547393392432&#45;&gt;2547393390944</title>
<path fill="none" stroke="black" d="M692.49,-33.57C702.7,-35.47 712.9,-37.36 721.97,-39.05"/>
<polygon fill="black" stroke="black" points="721.19,-42.46 731.67,-40.85 722.47,-35.58 721.19,-42.46"/>
</g>
<!-- 2547393391472 -->
<g id="node9" class="node">
<title>2547393391472</title>
<polygon fill="none" stroke="black" points="1040.25,-63 1013.25,-45 1040.25,-27 1067.25,-45 1040.25,-63"/>
<text text-anchor="middle" x="1040.25" y="-39.98" font-family="Times New Roman,serif" font-size="12.00">X</text>
</g>
<!-- 2547393391712&#45;&gt;2547393391472 -->
<g id="edge11" class="edge">
<title>2547393391712&#45;&gt;2547393391472</title>
<path fill="none" stroke="black" d="M869.83,-46.9C881.35,-47.72 895.39,-48.59 908,-49 938.76,-49.99 946.49,-49.99 977.25,-49 985.92,-48.72 995.27,-48.22 1004,-47.67"/>
<polygon fill="black" stroke="black" points="1004.17,-51.17 1013.91,-47 1003.7,-44.18 1004.17,-51.17"/>
</g>
<!-- 2547393081568 -->
<g id="node10" class="node">
<title>2547393081568</title>
<polygon fill="none" stroke="black" points="977.25,-40 908,-40 908,-4 977.25,-4 977.25,-40"/>
<text text-anchor="middle" x="942.62" y="-16.98" font-family="Times New Roman,serif" font-size="12.00">Place order</text>
</g>
<!-- 2547393391712&#45;&gt;2547393081568 -->
<g id="edge10" class="edge">
<title>2547393391712&#45;&gt;2547393081568</title>
<path fill="none" stroke="black" d="M865.35,-40.35C874.44,-38.16 885.68,-35.46 896.72,-32.8"/>
<polygon fill="black" stroke="black" points="897.22,-36.28 906.12,-30.54 895.58,-29.47 897.22,-36.28"/>
</g>
<!-- 2547393391952 -->
<g id="node11" class="node">
<title>2547393391952</title>
<polygon fill="none" stroke="black" points="1130.25,-63 1103.25,-45 1130.25,-27 1157.25,-45 1130.25,-63"/>
<text text-anchor="middle" x="1130.25" y="-39.98" font-family="Times New Roman,serif" font-size="12.00">X</text>
</g>
<!-- 2547393391472&#45;&gt;2547393391952 -->
<g id="edge13" class="edge">
<title>2547393391472&#45;&gt;2547393391952</title>
<path fill="none" stroke="black" d="M1068.13,-45C1075.38,-45 1083.37,-45 1091.1,-45"/>
<polygon fill="black" stroke="black" points="1091.02,-48.5 1101.02,-45 1091.02,-41.5 1091.02,-48.5"/>
</g>
<!-- 2547393081568&#45;&gt;2547393391472 -->
<g id="edge12" class="edge">
<title>2547393081568&#45;&gt;2547393391472</title>
<path fill="none" stroke="black" d="M977.61,-30.17C987.72,-32.61 998.73,-35.25 1008.61,-37.63"/>
<polygon fill="black" stroke="black" points="1007.56,-40.98 1018.1,-39.91 1009.2,-34.17 1007.56,-40.98"/>
</g>
<!-- 2547393391040 -->
<g id="node12" class="node">
<title>2547393391040</title>
<polygon fill="none" stroke="black" points="1338.25,-63 1311.25,-45 1338.25,-27 1365.25,-45 1338.25,-63"/>
<text text-anchor="middle" x="1338.25" y="-39.98" font-family="Times New Roman,serif" font-size="12.00">X</text>
</g>
<!-- 2547393391952&#45;&gt;2547393391040 -->
<g id="edge14" class="edge">
<title>2547393391952&#45;&gt;2547393391040</title>
<path fill="none" stroke="black" d="M1155.08,-46.9C1166.6,-47.72 1180.64,-48.59 1193.25,-49 1229.68,-50.17 1238.82,-50.17 1275.25,-49 1283.92,-48.72 1293.27,-48.22 1302,-47.67"/>
<polygon fill="black" stroke="black" points="1302.17,-51.17 1311.91,-47 1301.7,-44.18 1302.17,-51.17"/>
</g>
<!-- 2547393083920 -->
<g id="node13" class="node">
<title>2547393083920</title>
<polygon fill="none" stroke="black" points="1275.25,-40 1193.25,-40 1193.25,-4 1275.25,-4 1275.25,-40"/>
<text text-anchor="middle" x="1234.25" y="-16.98" font-family="Times New Roman,serif" font-size="12.00">Provide quote</text>
</g>
<!-- 2547393391952&#45;&gt;2547393083920 -->
<g id="edge15" class="edge">
<title>2547393391952&#45;&gt;2547393083920</title>
<path fill="none" stroke="black" d="M1150.92,-40.57C1159.86,-38.55 1170.9,-36.06 1181.97,-33.56"/>
<polygon fill="black" stroke="black" points="1182.49,-37.03 1191.48,-31.42 1180.95,-30.2 1182.49,-37.03"/>
</g>
<!-- 2547393392240 -->
<g id="node14" class="node">
<title>2547393392240</title>
<polygon fill="none" stroke="black" points="1428.25,-63 1401.25,-45 1428.25,-27 1455.25,-45 1428.25,-63"/>
<text text-anchor="middle" x="1428.25" y="-39.98" font-family="Times New Roman,serif" font-size="12.00">X</text>
</g>
<!-- 2547393391040&#45;&gt;2547393392240 -->
<g id="edge17" class="edge">
<title>2547393391040&#45;&gt;2547393392240</title>
<path fill="none" stroke="black" d="M1366.13,-45C1373.38,-45 1381.37,-45 1389.1,-45"/>
<polygon fill="black" stroke="black" points="1389.02,-48.5 1399.02,-45 1389.02,-41.5 1389.02,-48.5"/>
</g>
<!-- 2547393083920&#45;&gt;2547393391040 -->
<g id="edge16" class="edge">
<title>2547393083920&#45;&gt;2547393391040</title>
<path fill="none" stroke="black" d="M1275.56,-31.09C1285.78,-33.39 1296.59,-35.83 1306.26,-38.01"/>
<polygon fill="black" stroke="black" points="1305.37,-41.4 1315.9,-40.19 1306.91,-34.57 1305.37,-41.4"/>
</g>
<!-- 2547393391856 -->
<g id="node15" class="node">
<title>2547393391856</title>
<polygon fill="none" stroke="black" points="1776.5,-63 1749.5,-45 1776.5,-27 1803.5,-45 1776.5,-63"/>
<text text-anchor="middle" x="1776.5" y="-39.98" font-family="Times New Roman,serif" font-size="12.00">X</text>
</g>
<!-- 2547393392240&#45;&gt;2547393391856 -->
<g id="edge19" class="edge">
<title>2547393392240&#45;&gt;2547393391856</title>
<path fill="none" stroke="black" d="M1453.08,-46.9C1464.6,-47.72 1478.64,-48.59 1491.25,-49 1589.98,-52.18 1614.77,-52.18 1713.5,-49 1722.17,-48.72 1731.52,-48.22 1740.25,-47.67"/>
<polygon fill="black" stroke="black" points="1740.42,-51.17 1750.16,-47 1739.95,-44.18 1740.42,-51.17"/>
</g>
<!-- 2547393080944 -->
<g id="node16" class="node">
<title>2547393080944</title>
<polygon fill="none" stroke="black" points="1713.5,-40 1491.25,-40 1491.25,-4 1713.5,-4 1713.5,-40"/>
<text text-anchor="middle" x="1602.38" y="-16.98" font-family="Times New Roman,serif" font-size="12.00">Guide customer in selecting product/service</text>
</g>
<!-- 2547393392240&#45;&gt;2547393080944 -->
<g id="edge18" class="edge">
<title>2547393392240&#45;&gt;2547393080944</title>
<path fill="none" stroke="black" d="M1451.4,-42.04C1459.42,-40.97 1469.13,-39.67 1479.72,-38.26"/>
<polygon fill="black" stroke="black" points="1480.09,-41.74 1489.54,-36.94 1479.16,-34.8 1480.09,-41.74"/>
</g>
<!-- 2547393392336 -->
<g id="node17" class="node">
<title>2547393392336</title>
<polygon fill="none" stroke="black" points="1866.5,-63 1839.5,-45 1866.5,-27 1893.5,-45 1866.5,-63"/>
<text text-anchor="middle" x="1866.5" y="-39.98" font-family="Times New Roman,serif" font-size="12.00">+</text>
</g>
<!-- 2547393391856&#45;&gt;2547393392336 -->
<g id="edge21" class="edge">
<title>2547393391856&#45;&gt;2547393392336</title>
<path fill="none" stroke="black" d="M1804.38,-45C1811.63,-45 1819.62,-45 1827.35,-45"/>
<polygon fill="black" stroke="black" points="1827.27,-48.5 1837.27,-45 1827.27,-41.5 1827.27,-48.5"/>
</g>
<!-- 2547393080944&#45;&gt;2547393391856 -->
<g id="edge20" class="edge">
<title>2547393080944&#45;&gt;2547393391856</title>
<path fill="none" stroke="black" d="M1713.85,-36.76C1723.9,-38.11 1733.47,-39.38 1741.95,-40.52"/>
<polygon fill="black" stroke="black" points="1741.25,-43.95 1751.63,-41.81 1742.18,-37.02 1741.25,-43.95"/>
</g>
<!-- 2547393071584 -->
<g id="node18" class="node">
<title>2547393071584</title>
<polygon fill="none" stroke="black" points="2135.25,-90 1929.5,-90 1929.5,-54 2135.25,-54 2135.25,-90"/>
<text text-anchor="middle" x="2032.38" y="-66.97" font-family="Times New Roman,serif" font-size="12.00">Address customer concerns or questions</text>
</g>
<!-- 2547393392336&#45;&gt;2547393071584 -->
<g id="edge23" class="edge">
<title>2547393392336&#45;&gt;2547393071584</title>
<path fill="none" stroke="black" d="M1888.92,-48.53C1897.12,-49.88 1907.15,-51.53 1918.05,-53.33"/>
<polygon fill="black" stroke="black" points="1917.27,-56.75 1927.71,-54.92 1918.41,-49.84 1917.27,-56.75"/>
</g>
<!-- 2547393080896 -->
<g id="node19" class="node">
<title>2547393080896</title>
<polygon fill="none" stroke="black" points="2109,-36 1955.75,-36 1955.75,0 2109,0 2109,-36"/>
<text text-anchor="middle" x="2032.38" y="-12.97" font-family="Times New Roman,serif" font-size="12.00">Collect customer information</text>
</g>
<!-- 2547393392336&#45;&gt;2547393080896 -->
<g id="edge22" class="edge">
<title>2547393392336&#45;&gt;2547393080896</title>
<path fill="none" stroke="black" d="M1888.92,-41.47C1903.41,-39.08 1923.6,-35.76 1944.23,-32.36"/>
<polygon fill="black" stroke="black" points="1944.58,-35.85 1953.88,-30.77 1943.44,-28.94 1944.58,-35.85"/>
</g>
<!-- 2547393080368 -->
<g id="node20" class="node">
<title>2547393080368</title>
<polygon fill="none" stroke="black" points="2198.25,-63 2171.25,-45 2198.25,-27 2225.25,-45 2198.25,-63"/>
<text text-anchor="middle" x="2198.25" y="-39.98" font-family="Times New Roman,serif" font-size="12.00">+</text>
</g>
<!-- 2547393071584&#45;&gt;2547393080368 -->
<g id="edge24" class="edge">
<title>2547393071584&#45;&gt;2547393080368</title>
<path fill="none" stroke="black" d="M2135.3,-55.21C2145.77,-53.48 2155.77,-51.83 2164.58,-50.38"/>
<polygon fill="black" stroke="black" points="2164.97,-53.87 2174.27,-48.79 2163.83,-46.96 2164.97,-53.87"/>
</g>
<!-- 2547393080896&#45;&gt;2547393080368 -->
<g id="edge25" class="edge">
<title>2547393080896&#45;&gt;2547393080368</title>
<path fill="none" stroke="black" d="M2109.08,-30.47C2128.78,-33.72 2148.97,-37.05 2165.05,-39.69"/>
<polygon fill="black" stroke="black" points="2164.04,-43.07 2174.47,-41.25 2165.17,-36.17 2164.04,-43.07"/>
</g>
<!-- 2547393081232 -->
<g id="node21" class="node">
<title>2547393081232</title>
<polygon fill="none" stroke="black" points="2398,-63 2261.25,-63 2261.25,-27 2398,-27 2398,-63"/>
<text text-anchor="middle" x="2329.62" y="-39.98" font-family="Times New Roman,serif" font-size="12.00">Receive customer inquiry</text>
</g>
<!-- 2547393080368&#45;&gt;2547393081232 -->
<g id="edge26" class="edge">
<title>2547393080368&#45;&gt;2547393081232</title>
<path fill="none" stroke="black" d="M2226.06,-45C2233.21,-45 2241.32,-45 2249.76,-45"/>
<polygon fill="black" stroke="black" points="2249.5,-48.5 2259.5,-45 2249.5,-41.5 2249.5,-48.5"/>
</g>
<!-- 2547393084496 -->
<g id="node22" class="node">
<title>2547393084496</title>
<ellipse fill="orange" stroke="black" cx="2452" cy="-45" rx="18" ry="18"/>
</g>
<!-- 2547393081232&#45;&gt;2547393084496 -->
<g id="edge27" class="edge">
<title>2547393081232&#45;&gt;2547393084496</title>
<path fill="none" stroke="black" d="M2398.2,-45C2406.82,-45 2415.23,-45 2422.72,-45"/>
<polygon fill="black" stroke="black" points="2422.45,-48.5 2432.45,-45 2422.45,-41.5 2422.45,-48.5"/>
</g>
</g>
</svg>
