<?xml version="1.0" encoding="UTF-8" standalone="no"?>
<!DOCTYPE svg PUBLIC "-//W3C//DTD SVG 1.1//EN"
 "http://www.w3.org/Graphics/SVG/1.1/DTD/svg11.dtd">
<!-- Generated by graphviz version 11.0.0 (20240428.1522)
 -->
<!-- Pages: 1 -->
<svg width="1758pt" height="98pt"
 viewBox="0.00 0.00 1758.00 98.00" xmlns="http://www.w3.org/2000/svg" xmlns:xlink="http://www.w3.org/1999/xlink">
<g id="graph0" class="graph" transform="scale(1 1) rotate(0) translate(4 94)">
<polygon fill="white" stroke="none" points="-4,4 -4,-94 1754,-94 1754,4 -4,4"/>
<!-- 2547391383696 -->
<g id="node1" class="node">
<title>2547391383696</title>
<ellipse fill="green" stroke="black" cx="18" cy="-45" rx="18" ry="18"/>
</g>
<!-- 2547391242960 -->
<g id="node2" class="node">
<title>2547391242960</title>
<polygon fill="none" stroke="black" points="99,-63 72,-45 99,-27 126,-45 99,-63"/>
<text text-anchor="middle" x="99" y="-39.98" font-family="Times New Roman,serif" font-size="12.00">X</text>
</g>
<!-- 2547391383696&#45;&gt;2547391242960 -->
<g id="edge1" class="edge">
<title>2547391383696&#45;&gt;2547391242960</title>
<path fill="none" stroke="black" d="M36.14,-45C43.11,-45 51.47,-45 59.75,-45"/>
<polygon fill="black" stroke="black" points="59.75,-48.5 69.75,-45 59.75,-41.5 59.75,-48.5"/>
</g>
<!-- 2547391236768 -->
<g id="node3" class="node">
<title>2547391236768</title>
<polygon fill="none" stroke="black" points="1056.5,-63 1029.5,-45 1056.5,-27 1083.5,-45 1056.5,-63"/>
<text text-anchor="middle" x="1056.5" y="-39.98" font-family="Times New Roman,serif" font-size="12.00">X</text>
</g>
<!-- 2547391242960&#45;&gt;2547391236768 -->
<g id="edge3" class="edge">
<title>2547391242960&#45;&gt;2547391236768</title>
<path fill="none" stroke="black" d="M122.78,-47.55C178.34,-53.54 325.25,-68 448.25,-68 448.25,-68 448.25,-68 695.25,-68 815.36,-68 957.53,-55.11 1021.42,-48.63"/>
<polygon fill="black" stroke="black" points="1021.68,-52.12 1031.27,-47.62 1020.96,-45.16 1021.68,-52.12"/>
</g>
<!-- 2547391238304 -->
<g id="node4" class="node">
<title>2547391238304</title>
<polygon fill="none" stroke="black" points="350.5,-40 162,-40 162,-4 350.5,-4 350.5,-40"/>
<text text-anchor="middle" x="256.25" y="-16.98" font-family="Times New Roman,serif" font-size="12.00">Send order confirmation to customer</text>
</g>
<!-- 2547391242960&#45;&gt;2547391238304 -->
<g id="edge2" class="edge">
<title>2547391242960&#45;&gt;2547391238304</title>
<path fill="none" stroke="black" d="M121.91,-41.75C130.04,-40.55 139.89,-39.09 150.51,-37.52"/>
<polygon fill="black" stroke="black" points="150.95,-40.99 160.33,-36.06 149.92,-34.07 150.95,-40.99"/>
</g>
<!-- 2547372771616 -->
<g id="node6" class="node">
<title>2547372771616</title>
<polygon fill="none" stroke="black" points="1146.5,-63 1119.5,-45 1146.5,-27 1173.5,-45 1146.5,-63"/>
<text text-anchor="middle" x="1146.5" y="-39.98" font-family="Times New Roman,serif" font-size="12.00">+</text>
</g>
<!-- 2547391236768&#45;&gt;2547372771616 -->
<g id="edge4" class="edge">
<title>2547391236768&#45;&gt;2547372771616</title>
<path fill="none" stroke="black" d="M1084.38,-45C1091.63,-45 1099.62,-45 1107.35,-45"/>
<polygon fill="black" stroke="black" points="1107.27,-48.5 1117.27,-45 1107.27,-41.5 1107.27,-48.5"/>
</g>
<!-- 2547391235664 -->
<g id="node5" class="node">
<title>2547391235664</title>
<polygon fill="none" stroke="black" points="512,-40 386.5,-40 386.5,-4 512,-4 512,-40"/>
<text text-anchor="middle" x="449.25" y="-16.98" font-family="Times New Roman,serif" font-size="12.00">Record order in system</text>
</g>
<!-- 2547391238304&#45;&gt;2547391235664 -->
<g id="edge5" class="edge">
<title>2547391238304&#45;&gt;2547391235664</title>
<path fill="none" stroke="black" d="M350.79,-22C358.86,-22 366.94,-22 374.81,-22"/>
<polygon fill="black" stroke="black" points="374.65,-25.5 384.65,-22 374.65,-18.5 374.65,-25.5"/>
</g>
<!-- 2547391237776 -->
<g id="node7" class="node">
<title>2547391237776</title>
<polygon fill="none" stroke="black" points="617.25,-40 548,-40 548,-4 617.25,-4 617.25,-40"/>
<text text-anchor="middle" x="582.62" y="-16.98" font-family="Times New Roman,serif" font-size="12.00">Place order</text>
</g>
<!-- 2547391235664&#45;&gt;2547391237776 -->
<g id="edge6" class="edge">
<title>2547391235664&#45;&gt;2547391237776</title>
<path fill="none" stroke="black" d="M512.47,-22C520.49,-22 528.57,-22 536.25,-22"/>
<polygon fill="black" stroke="black" points="536.01,-25.5 546.01,-22 536.01,-18.5 536.01,-25.5"/>
</g>
<!-- 2547391234560 -->
<g id="node8" class="node">
<title>2547391234560</title>
<polygon fill="none" stroke="black" points="1389,-90 1235.75,-90 1235.75,-54 1389,-54 1389,-90"/>
<text text-anchor="middle" x="1312.38" y="-66.97" font-family="Times New Roman,serif" font-size="12.00">Collect customer information</text>
</g>
<!-- 2547372771616&#45;&gt;2547391234560 -->
<g id="edge7" class="edge">
<title>2547372771616&#45;&gt;2547391234560</title>
<path fill="none" stroke="black" d="M1168.92,-48.53C1183.41,-50.92 1203.6,-54.24 1224.23,-57.64"/>
<polygon fill="black" stroke="black" points="1223.44,-61.06 1233.88,-59.23 1224.58,-54.15 1223.44,-61.06"/>
</g>
<!-- 2547391244160 -->
<g id="node9" class="node">
<title>2547391244160</title>
<polygon fill="none" stroke="black" points="1415.25,-36 1209.5,-36 1209.5,0 1415.25,0 1415.25,-36"/>
<text text-anchor="middle" x="1312.38" y="-12.97" font-family="Times New Roman,serif" font-size="12.00">Address customer concerns or questions</text>
</g>
<!-- 2547372771616&#45;&gt;2547391244160 -->
<g id="edge8" class="edge">
<title>2547372771616&#45;&gt;2547391244160</title>
<path fill="none" stroke="black" d="M1168.92,-41.47C1177.12,-40.12 1187.15,-38.47 1198.05,-36.67"/>
<polygon fill="black" stroke="black" points="1198.41,-40.16 1207.71,-35.08 1197.27,-33.25 1198.41,-40.16"/>
</g>
<!-- 2547373076032 -->
<g id="node10" class="node">
<title>2547373076032</title>
<polygon fill="none" stroke="black" points="735.25,-40 653.25,-40 653.25,-4 735.25,-4 735.25,-40"/>
<text text-anchor="middle" x="694.25" y="-16.98" font-family="Times New Roman,serif" font-size="12.00">Provide quote</text>
</g>
<!-- 2547391237776&#45;&gt;2547373076032 -->
<g id="edge9" class="edge">
<title>2547391237776&#45;&gt;2547373076032</title>
<path fill="none" stroke="black" d="M617.71,-22C625.31,-22 633.54,-22 641.68,-22"/>
<polygon fill="black" stroke="black" points="641.52,-25.5 651.52,-22 641.52,-18.5 641.52,-25.5"/>
</g>
<!-- 2547373078816 -->
<g id="node11" class="node">
<title>2547373078816</title>
<polygon fill="none" stroke="black" points="1478.25,-63 1451.25,-45 1478.25,-27 1505.25,-45 1478.25,-63"/>
<text text-anchor="middle" x="1478.25" y="-39.98" font-family="Times New Roman,serif" font-size="12.00">+</text>
</g>
<!-- 2547391234560&#45;&gt;2547373078816 -->
<g id="edge10" class="edge">
<title>2547391234560&#45;&gt;2547373078816</title>
<path fill="none" stroke="black" d="M1389.08,-59.53C1408.78,-56.28 1428.97,-52.95 1445.05,-50.31"/>
<polygon fill="black" stroke="black" points="1445.17,-53.83 1454.47,-48.75 1444.04,-46.93 1445.17,-53.83"/>
</g>
<!-- 2547391244160&#45;&gt;2547373078816 -->
<g id="edge11" class="edge">
<title>2547391244160&#45;&gt;2547373078816</title>
<path fill="none" stroke="black" d="M1415.3,-34.79C1425.77,-36.52 1435.77,-38.17 1444.58,-39.62"/>
<polygon fill="black" stroke="black" points="1443.83,-43.04 1454.27,-41.21 1444.97,-36.13 1443.83,-43.04"/>
</g>
<!-- 2547391249728 -->
<g id="node12" class="node">
<title>2547391249728</title>
<polygon fill="none" stroke="black" points="993.5,-40 771.25,-40 771.25,-4 993.5,-4 993.5,-40"/>
<text text-anchor="middle" x="882.38" y="-16.98" font-family="Times New Roman,serif" font-size="12.00">Guide customer in selecting product/service</text>
</g>
<!-- 2547373076032&#45;&gt;2547391249728 -->
<g id="edge12" class="edge">
<title>2547373076032&#45;&gt;2547391249728</title>
<path fill="none" stroke="black" d="M735.64,-22C743.07,-22 751.17,-22 759.63,-22"/>
<polygon fill="black" stroke="black" points="759.4,-25.5 769.4,-22 759.4,-18.5 759.4,-25.5"/>
</g>
<!-- 2547391392624 -->
<g id="node13" class="node">
<title>2547391392624</title>
<polygon fill="none" stroke="black" points="1678,-63 1541.25,-63 1541.25,-27 1678,-27 1678,-63"/>
<text text-anchor="middle" x="1609.62" y="-39.98" font-family="Times New Roman,serif" font-size="12.00">Receive customer inquiry</text>
</g>
<!-- 2547373078816&#45;&gt;2547391392624 -->
<g id="edge13" class="edge">
<title>2547373078816&#45;&gt;2547391392624</title>
<path fill="none" stroke="black" d="M1506.06,-45C1513.21,-45 1521.32,-45 1529.76,-45"/>
<polygon fill="black" stroke="black" points="1529.5,-48.5 1539.5,-45 1529.5,-41.5 1529.5,-48.5"/>
</g>
<!-- 2547391249728&#45;&gt;2547391236768 -->
<g id="edge14" class="edge">
<title>2547391249728&#45;&gt;2547391236768</title>
<path fill="none" stroke="black" d="M993.85,-36.76C1003.9,-38.11 1013.47,-39.38 1021.95,-40.52"/>
<polygon fill="black" stroke="black" points="1021.25,-43.95 1031.63,-41.81 1022.18,-37.02 1021.25,-43.95"/>
</g>
<!-- 2547391396080 -->
<g id="node14" class="node">
<title>2547391396080</title>
<ellipse fill="orange" stroke="black" cx="1732" cy="-45" rx="18" ry="18"/>
</g>
<!-- 2547391392624&#45;&gt;2547391396080 -->
<g id="edge15" class="edge">
<title>2547391392624&#45;&gt;2547391396080</title>
<path fill="none" stroke="black" d="M1678.2,-45C1686.82,-45 1695.23,-45 1702.72,-45"/>
<polygon fill="black" stroke="black" points="1702.45,-48.5 1712.45,-45 1702.45,-41.5 1702.45,-48.5"/>
</g>
</g>
</svg>
