<?xml version="1.0" encoding="UTF-8" standalone="no"?>
<!DOCTYPE svg PUBLIC "-//W3C//DTD SVG 1.1//EN"
 "http://www.w3.org/Graphics/SVG/1.1/DTD/svg11.dtd">
<!-- Generated by graphviz version 11.0.0 (20240428.1522)
 -->
<!-- Pages: 1 -->
<svg width="1842pt" height="98pt"
 viewBox="0.00 0.00 1842.00 98.00" xmlns="http://www.w3.org/2000/svg" xmlns:xlink="http://www.w3.org/1999/xlink">
<g id="graph0" class="graph" transform="scale(1 1) rotate(0) translate(4 94)">
<polygon fill="white" stroke="none" points="-4,4 -4,-94 1838,-94 1838,4 -4,4"/>
<!-- 2547393082528 -->
<g id="node1" class="node">
<title>2547393082528</title>
<ellipse fill="green" stroke="black" cx="18" cy="-45" rx="18" ry="18"/>
</g>
<!-- 2547393395600 -->
<g id="node2" class="node">
<title>2547393395600</title>
<polygon fill="none" stroke="black" points="225.25,-63 72,-63 72,-27 225.25,-27 225.25,-63"/>
<text text-anchor="middle" x="148.62" y="-39.98" font-family="Times New Roman,serif" font-size="12.00">Collect customer information</text>
</g>
<!-- 2547393082528&#45;&gt;2547393395600 -->
<g id="edge1" class="edge">
<title>2547393082528&#45;&gt;2547393395600</title>
<path fill="none" stroke="black" d="M36.35,-45C43.12,-45 51.43,-45 60.42,-45"/>
<polygon fill="black" stroke="black" points="60.16,-48.5 70.16,-45 60.16,-41.5 60.16,-48.5"/>
</g>
<!-- 2547393395408 -->
<g id="node3" class="node">
<title>2547393395408</title>
<polygon fill="none" stroke="black" points="288.25,-63 261.25,-45 288.25,-27 315.25,-45 288.25,-63"/>
<text text-anchor="middle" x="288.25" y="-39.98" font-family="Times New Roman,serif" font-size="12.00">+</text>
</g>
<!-- 2547393395600&#45;&gt;2547393395408 -->
<g id="edge2" class="edge">
<title>2547393395600&#45;&gt;2547393395408</title>
<path fill="none" stroke="black" d="M225.68,-45C233.75,-45 241.67,-45 249.02,-45"/>
<polygon fill="black" stroke="black" points="248.86,-48.5 258.86,-45 248.86,-41.5 248.86,-48.5"/>
</g>
<!-- 2547393394976 -->
<g id="node4" class="node">
<title>2547393394976</title>
<polygon fill="none" stroke="black" points="454.25,-90 385,-90 385,-54 454.25,-54 454.25,-90"/>
<text text-anchor="middle" x="419.62" y="-66.97" font-family="Times New Roman,serif" font-size="12.00">Place order</text>
</g>
<!-- 2547393395408&#45;&gt;2547393394976 -->
<g id="edge3" class="edge">
<title>2547393395408&#45;&gt;2547393394976</title>
<path fill="none" stroke="black" d="M309.46,-49.22C326.59,-52.79 351.78,-58.05 373.65,-62.61"/>
<polygon fill="black" stroke="black" points="372.73,-66 383.24,-64.61 374.16,-59.15 372.73,-66"/>
</g>
<!-- 2547393396416 -->
<g id="node5" class="node">
<title>2547393396416</title>
<polygon fill="none" stroke="black" points="488,-36 351.25,-36 351.25,0 488,0 488,-36"/>
<text text-anchor="middle" x="419.62" y="-12.97" font-family="Times New Roman,serif" font-size="12.00">Receive customer inquiry</text>
</g>
<!-- 2547393395408&#45;&gt;2547393396416 -->
<g id="edge4" class="edge">
<title>2547393395408&#45;&gt;2547393396416</title>
<path fill="none" stroke="black" d="M309.46,-40.78C317.99,-39 328.52,-36.8 339.64,-34.48"/>
<polygon fill="black" stroke="black" points="340.35,-37.91 349.42,-32.44 338.92,-31.06 340.35,-37.91"/>
</g>
<!-- 2547393079744 -->
<g id="node6" class="node">
<title>2547393079744</title>
<polygon fill="none" stroke="black" points="551,-63 524,-45 551,-27 578,-45 551,-63"/>
<text text-anchor="middle" x="551" y="-39.98" font-family="Times New Roman,serif" font-size="12.00">+</text>
</g>
<!-- 2547393394976&#45;&gt;2547393079744 -->
<g id="edge5" class="edge">
<title>2547393394976&#45;&gt;2547393079744</title>
<path fill="none" stroke="black" d="M454.62,-64.91C474.33,-60.79 499,-55.64 518.31,-51.61"/>
<polygon fill="black" stroke="black" points="518.99,-55.05 528.07,-49.58 517.56,-48.19 518.99,-55.05"/>
</g>
<!-- 2547393396416&#45;&gt;2547393079744 -->
<g id="edge6" class="edge">
<title>2547393396416&#45;&gt;2547393079744</title>
<path fill="none" stroke="black" d="M488.34,-32.13C498.8,-34.32 509.15,-36.48 518.3,-38.38"/>
<polygon fill="black" stroke="black" points="517.56,-41.81 528.06,-40.42 518.99,-34.95 517.56,-41.81"/>
</g>
<!-- 2547393395024 -->
<g id="node7" class="node">
<title>2547393395024</title>
<polygon fill="none" stroke="black" points="641,-63 614,-45 641,-27 668,-45 641,-63"/>
<text text-anchor="middle" x="641" y="-39.98" font-family="Times New Roman,serif" font-size="12.00">X</text>
</g>
<!-- 2547393079744&#45;&gt;2547393395024 -->
<g id="edge7" class="edge">
<title>2547393079744&#45;&gt;2547393395024</title>
<path fill="none" stroke="black" d="M578.88,-45C586.13,-45 594.12,-45 601.85,-45"/>
<polygon fill="black" stroke="black" points="601.77,-48.5 611.77,-45 601.77,-41.5 601.77,-48.5"/>
</g>
<!-- 2547393393584 -->
<g id="node8" class="node">
<title>2547393393584</title>
<polygon fill="none" stroke="black" points="955.5,-63 928.5,-45 955.5,-27 982.5,-45 955.5,-63"/>
<text text-anchor="middle" x="955.5" y="-39.98" font-family="Times New Roman,serif" font-size="12.00">X</text>
</g>
<!-- 2547393395024&#45;&gt;2547393393584 -->
<g id="edge8" class="edge">
<title>2547393395024&#45;&gt;2547393393584</title>
<path fill="none" stroke="black" d="M665.83,-46.9C677.35,-47.72 691.39,-48.59 704,-49 787.73,-51.7 808.77,-51.7 892.5,-49 901.17,-48.72 910.52,-48.22 919.25,-47.67"/>
<polygon fill="black" stroke="black" points="919.42,-51.17 929.16,-47 918.95,-44.18 919.42,-51.17"/>
</g>
<!-- 2547393077680 -->
<g id="node9" class="node">
<title>2547393077680</title>
<polygon fill="none" stroke="black" points="892.5,-40 704,-40 704,-4 892.5,-4 892.5,-40"/>
<text text-anchor="middle" x="798.25" y="-16.98" font-family="Times New Roman,serif" font-size="12.00">Send order confirmation to customer</text>
</g>
<!-- 2547393395024&#45;&gt;2547393077680 -->
<g id="edge9" class="edge">
<title>2547393395024&#45;&gt;2547393077680</title>
<path fill="none" stroke="black" d="M663.91,-41.75C672.04,-40.55 681.89,-39.09 692.51,-37.52"/>
<polygon fill="black" stroke="black" points="692.95,-40.99 702.33,-36.06 691.92,-34.07 692.95,-40.99"/>
</g>
<!-- 2547393083968 -->
<g id="node10" class="node">
<title>2547393083968</title>
<polygon fill="none" stroke="black" points="1224.25,-63 1018.5,-63 1018.5,-27 1224.25,-27 1224.25,-63"/>
<text text-anchor="middle" x="1121.38" y="-39.98" font-family="Times New Roman,serif" font-size="12.00">Address customer concerns or questions</text>
</g>
<!-- 2547393393584&#45;&gt;2547393083968 -->
<g id="edge11" class="edge">
<title>2547393393584&#45;&gt;2547393083968</title>
<path fill="none" stroke="black" d="M983.19,-45C990.27,-45 998.38,-45 1007.04,-45"/>
<polygon fill="black" stroke="black" points="1006.75,-48.5 1016.75,-45 1006.75,-41.5 1006.75,-48.5"/>
</g>
<!-- 2547393077680&#45;&gt;2547393393584 -->
<g id="edge10" class="edge">
<title>2547393077680&#45;&gt;2547393393584</title>
<path fill="none" stroke="black" d="M892.7,-35.84C902.94,-37.36 912.8,-38.82 921.52,-40.11"/>
<polygon fill="black" stroke="black" points="920.73,-43.54 931.13,-41.54 921.76,-36.61 920.73,-43.54"/>
</g>
<!-- 2547393395360 -->
<g id="node11" class="node">
<title>2547393395360</title>
<polygon fill="none" stroke="black" points="1342.25,-63 1260.25,-63 1260.25,-27 1342.25,-27 1342.25,-63"/>
<text text-anchor="middle" x="1301.25" y="-39.98" font-family="Times New Roman,serif" font-size="12.00">Provide quote</text>
</g>
<!-- 2547393083968&#45;&gt;2547393395360 -->
<g id="edge12" class="edge">
<title>2547393083968&#45;&gt;2547393395360</title>
<path fill="none" stroke="black" d="M1224.56,-45C1232.89,-45 1241.06,-45 1248.77,-45"/>
<polygon fill="black" stroke="black" points="1248.57,-48.5 1258.57,-45 1248.57,-41.5 1248.57,-48.5"/>
</g>
<!-- 2547393084784 -->
<g id="node12" class="node">
<title>2547393084784</title>
<polygon fill="none" stroke="black" points="1600.5,-63 1378.25,-63 1378.25,-27 1600.5,-27 1600.5,-63"/>
<text text-anchor="middle" x="1489.38" y="-39.98" font-family="Times New Roman,serif" font-size="12.00">Guide customer in selecting product/service</text>
</g>
<!-- 2547393395360&#45;&gt;2547393084784 -->
<g id="edge13" class="edge">
<title>2547393395360&#45;&gt;2547393084784</title>
<path fill="none" stroke="black" d="M1342.64,-45C1350.07,-45 1358.17,-45 1366.63,-45"/>
<polygon fill="black" stroke="black" points="1366.4,-48.5 1376.4,-45 1366.4,-41.5 1366.4,-48.5"/>
</g>
<!-- 2547393394880 -->
<g id="node13" class="node">
<title>2547393394880</title>
<polygon fill="none" stroke="black" points="1762,-63 1636.5,-63 1636.5,-27 1762,-27 1762,-63"/>
<text text-anchor="middle" x="1699.25" y="-39.98" font-family="Times New Roman,serif" font-size="12.00">Record order in system</text>
</g>
<!-- 2547393084784&#45;&gt;2547393394880 -->
<g id="edge14" class="edge">
<title>2547393084784&#45;&gt;2547393394880</title>
<path fill="none" stroke="black" d="M1600.7,-45C1608.86,-45 1616.97,-45 1624.83,-45"/>
<polygon fill="black" stroke="black" points="1624.61,-48.5 1634.61,-45 1624.61,-41.5 1624.61,-48.5"/>
</g>
<!-- 2547391383504 -->
<g id="node14" class="node">
<title>2547391383504</title>
<ellipse fill="orange" stroke="black" cx="1816" cy="-45" rx="18" ry="18"/>
</g>
<!-- 2547393394880&#45;&gt;2547391383504 -->
<g id="edge15" class="edge">
<title>2547393394880&#45;&gt;2547391383504</title>
<path fill="none" stroke="black" d="M1762.33,-45C1770.72,-45 1778.97,-45 1786.37,-45"/>
<polygon fill="black" stroke="black" points="1786.36,-48.5 1796.36,-45 1786.36,-41.5 1786.36,-48.5"/>
</g>
</g>
</svg>
