<?xml version="1.0" encoding="UTF-8" standalone="no"?>
<!DOCTYPE svg PUBLIC "-//W3C//DTD SVG 1.1//EN"
 "http://www.w3.org/Graphics/SVG/1.1/DTD/svg11.dtd">
<!-- Generated by graphviz version 11.0.0 (20240428.1522)
 -->
<!-- Pages: 1 -->
<svg width="1767pt" height="67pt"
 viewBox="0.00 0.00 1767.25 67.00" xmlns="http://www.w3.org/2000/svg" xmlns:xlink="http://www.w3.org/1999/xlink">
<g id="graph0" class="graph" transform="scale(1 1) rotate(0) translate(4 63)">
<polygon fill="white" stroke="none" points="-4,4 -4,-63 1763.25,-63 1763.25,4 -4,4"/>
<!-- 2547393388064 -->
<g id="node1" class="node">
<title>2547393388064</title>
<ellipse fill="green" stroke="black" cx="18" cy="-41" rx="18" ry="18"/>
</g>
<!-- 2547390665824 -->
<g id="node2" class="node">
<title>2547390665824</title>
<polygon fill="none" stroke="black" points="208.75,-59 72,-59 72,-23 208.75,-23 208.75,-59"/>
<text text-anchor="middle" x="140.38" y="-35.98" font-family="Times New Roman,serif" font-size="12.00">Receive customer inquiry</text>
</g>
<!-- 2547393388064&#45;&gt;2547390665824 -->
<g id="edge1" class="edge">
<title>2547393388064&#45;&gt;2547390665824</title>
<path fill="none" stroke="black" d="M36.25,-41C43.09,-41 51.47,-41 60.48,-41"/>
<polygon fill="black" stroke="black" points="60.19,-44.5 70.19,-41 60.19,-37.5 60.19,-44.5"/>
</g>
<!-- 2547373176976 -->
<g id="node3" class="node">
<title>2547373176976</title>
<polygon fill="none" stroke="black" points="398,-59 244.75,-59 244.75,-23 398,-23 398,-59"/>
<text text-anchor="middle" x="321.38" y="-35.98" font-family="Times New Roman,serif" font-size="12.00">Collect customer information</text>
</g>
<!-- 2547390665824&#45;&gt;2547373176976 -->
<g id="edge2" class="edge">
<title>2547390665824&#45;&gt;2547373176976</title>
<path fill="none" stroke="black" d="M209.05,-41C216.92,-41 225.03,-41 233.12,-41"/>
<polygon fill="black" stroke="black" points="233,-44.5 243,-41 233,-37.5 233,-44.5"/>
</g>
<!-- 2547390668272 -->
<g id="node4" class="node">
<title>2547390668272</title>
<polygon fill="none" stroke="black" points="639.75,-59 434,-59 434,-23 639.75,-23 639.75,-59"/>
<text text-anchor="middle" x="536.88" y="-35.98" font-family="Times New Roman,serif" font-size="12.00">Address customer concerns or questions</text>
</g>
<!-- 2547373176976&#45;&gt;2547390668272 -->
<g id="edge3" class="edge">
<title>2547373176976&#45;&gt;2547390668272</title>
<path fill="none" stroke="black" d="M398.25,-41C406.07,-41 414.13,-41 422.25,-41"/>
<polygon fill="black" stroke="black" points="422.22,-44.5 432.22,-41 422.22,-37.5 422.22,-44.5"/>
</g>
<!-- 2547390674848 -->
<g id="node5" class="node">
<title>2547390674848</title>
<polygon fill="none" stroke="black" points="898,-59 675.75,-59 675.75,-23 898,-23 898,-59"/>
<text text-anchor="middle" x="786.88" y="-35.98" font-family="Times New Roman,serif" font-size="12.00">Guide customer in selecting product/service</text>
</g>
<!-- 2547390668272&#45;&gt;2547390674848 -->
<g id="edge4" class="edge">
<title>2547390668272&#45;&gt;2547390674848</title>
<path fill="none" stroke="black" d="M640.18,-41C648.07,-41 656.08,-41 664.08,-41"/>
<polygon fill="black" stroke="black" points="663.85,-44.5 673.85,-41 663.85,-37.5 663.85,-44.5"/>
</g>
<!-- 2547390672064 -->
<g id="node6" class="node">
<title>2547390672064</title>
<polygon fill="none" stroke="black" points="1016,-59 934,-59 934,-23 1016,-23 1016,-59"/>
<text text-anchor="middle" x="975" y="-35.98" font-family="Times New Roman,serif" font-size="12.00">Provide quote</text>
</g>
<!-- 2547390674848&#45;&gt;2547390672064 -->
<g id="edge5" class="edge">
<title>2547390674848&#45;&gt;2547390672064</title>
<path fill="none" stroke="black" d="M898.3,-41C906.52,-41 914.55,-41 922.12,-41"/>
<polygon fill="black" stroke="black" points="922.1,-44.5 932.1,-41 922.1,-37.5 922.1,-44.5"/>
</g>
<!-- 2547391385328 -->
<g id="node7" class="node">
<title>2547391385328</title>
<polygon fill="none" stroke="black" points="1079,-59 1052,-41 1079,-23 1106,-41 1079,-59"/>
<text text-anchor="middle" x="1079" y="-35.98" font-family="Times New Roman,serif" font-size="12.00">X</text>
</g>
<!-- 2547390672064&#45;&gt;2547391385328 -->
<g id="edge6" class="edge">
<title>2547390672064&#45;&gt;2547391385328</title>
<path fill="none" stroke="black" d="M1016.31,-41C1024.08,-41 1032.19,-41 1039.88,-41"/>
<polygon fill="black" stroke="black" points="1039.62,-44.5 1049.62,-41 1039.62,-37.5 1039.62,-44.5"/>
</g>
<!-- 2547391384416 -->
<g id="node8" class="node">
<title>2547391384416</title>
<polygon fill="none" stroke="black" points="1660.25,-59 1633.25,-41 1660.25,-23 1687.25,-41 1660.25,-59"/>
<text text-anchor="middle" x="1660.25" y="-35.98" font-family="Times New Roman,serif" font-size="12.00">X</text>
</g>
<!-- 2547391385328&#45;&gt;2547391384416 -->
<g id="edge7" class="edge">
<title>2547391385328&#45;&gt;2547391384416</title>
<path fill="none" stroke="black" d="M1103.83,-42.9C1115.35,-43.72 1129.39,-44.59 1142,-45 1344.23,-51.52 1395.02,-51.52 1597.25,-45 1605.92,-44.72 1615.27,-44.22 1624,-43.67"/>
<polygon fill="black" stroke="black" points="1624.17,-47.17 1633.91,-43 1623.7,-40.18 1624.17,-47.17"/>
</g>
<!-- 2547390672544 -->
<g id="node9" class="node">
<title>2547390672544</title>
<polygon fill="none" stroke="black" points="1211.25,-36 1142,-36 1142,0 1211.25,0 1211.25,-36"/>
<text text-anchor="middle" x="1176.62" y="-12.97" font-family="Times New Roman,serif" font-size="12.00">Place order</text>
</g>
<!-- 2547391385328&#45;&gt;2547390672544 -->
<g id="edge8" class="edge">
<title>2547391385328&#45;&gt;2547390672544</title>
<path fill="none" stroke="black" d="M1099.35,-36.35C1108.44,-34.16 1119.68,-31.46 1130.72,-28.8"/>
<polygon fill="black" stroke="black" points="1131.22,-32.28 1140.12,-26.54 1129.58,-25.47 1131.22,-32.28"/>
</g>
<!-- 2547393389072 -->
<g id="node12" class="node">
<title>2547393389072</title>
<ellipse fill="orange" stroke="black" cx="1741.25" cy="-41" rx="18" ry="18"/>
</g>
<!-- 2547391384416&#45;&gt;2547393389072 -->
<g id="edge10" class="edge">
<title>2547391384416&#45;&gt;2547393389072</title>
<path fill="none" stroke="black" d="M1688,-41C1695.63,-41 1703.98,-41 1711.72,-41"/>
<polygon fill="black" stroke="black" points="1711.68,-44.5 1721.68,-41 1711.68,-37.5 1711.68,-44.5"/>
</g>
<!-- 2547390676144 -->
<g id="node10" class="node">
<title>2547390676144</title>
<polygon fill="none" stroke="black" points="1372.75,-36 1247.25,-36 1247.25,0 1372.75,0 1372.75,-36"/>
<text text-anchor="middle" x="1310" y="-12.97" font-family="Times New Roman,serif" font-size="12.00">Record order in system</text>
</g>
<!-- 2547390672544&#45;&gt;2547390676144 -->
<g id="edge9" class="edge">
<title>2547390672544&#45;&gt;2547390676144</title>
<path fill="none" stroke="black" d="M1211.46,-18C1218.93,-18 1227.13,-18 1235.5,-18"/>
<polygon fill="black" stroke="black" points="1235.46,-21.5 1245.46,-18 1235.46,-14.5 1235.46,-21.5"/>
</g>
<!-- 2547390671392 -->
<g id="node11" class="node">
<title>2547390671392</title>
<polygon fill="none" stroke="black" points="1597.25,-36 1408.75,-36 1408.75,0 1597.25,0 1597.25,-36"/>
<text text-anchor="middle" x="1503" y="-12.97" font-family="Times New Roman,serif" font-size="12.00">Send order confirmation to customer</text>
</g>
<!-- 2547390676144&#45;&gt;2547390671392 -->
<g id="edge11" class="edge">
<title>2547390676144&#45;&gt;2547390671392</title>
<path fill="none" stroke="black" d="M1373.01,-18C1380.8,-18 1388.93,-18 1397.15,-18"/>
<polygon fill="black" stroke="black" points="1396.88,-21.5 1406.88,-18 1396.88,-14.5 1396.88,-21.5"/>
</g>
<!-- 2547390671392&#45;&gt;2547391384416 -->
<g id="edge12" class="edge">
<title>2547390671392&#45;&gt;2547391384416</title>
<path fill="none" stroke="black" d="M1597.45,-31.84C1607.69,-33.36 1617.55,-34.82 1626.27,-36.11"/>
<polygon fill="black" stroke="black" points="1625.48,-39.54 1635.88,-37.54 1626.51,-32.61 1625.48,-39.54"/>
</g>
</g>
</svg>
