<?xml version="1.0" encoding="UTF-8" standalone="no"?>
<!DOCTYPE svg PUBLIC "-//W3C//DTD SVG 1.1//EN"
 "http://www.w3.org/Graphics/SVG/1.1/DTD/svg11.dtd">
<!-- Generated by graphviz version 11.0.0 (20240428.1522)
 -->
<!-- Pages: 1 -->
<svg width="2202pt" height="98pt"
 viewBox="0.00 0.00 2202.00 98.00" xmlns="http://www.w3.org/2000/svg" xmlns:xlink="http://www.w3.org/1999/xlink">
<g id="graph0" class="graph" transform="scale(1 1) rotate(0) translate(4 94)">
<polygon fill="white" stroke="none" points="-4,4 -4,-94 2198,-94 2198,4 -4,4"/>
<!-- 2547391235136 -->
<g id="node1" class="node">
<title>2547391235136</title>
<ellipse fill="green" stroke="black" cx="18" cy="-45" rx="18" ry="18"/>
</g>
<!-- 2547393348816 -->
<g id="node2" class="node">
<title>2547393348816</title>
<polygon fill="none" stroke="black" points="225.25,-63 72,-63 72,-27 225.25,-27 225.25,-63"/>
<text text-anchor="middle" x="148.62" y="-39.98" font-family="Times New Roman,serif" font-size="12.00">Collect customer information</text>
</g>
<!-- 2547391235136&#45;&gt;2547393348816 -->
<g id="edge1" class="edge">
<title>2547391235136&#45;&gt;2547393348816</title>
<path fill="none" stroke="black" d="M36.35,-45C43.12,-45 51.43,-45 60.42,-45"/>
<polygon fill="black" stroke="black" points="60.16,-48.5 70.16,-45 60.16,-41.5 60.16,-48.5"/>
</g>
<!-- 2547393348528 -->
<g id="node3" class="node">
<title>2547393348528</title>
<polygon fill="none" stroke="black" points="288.25,-63 261.25,-45 288.25,-27 315.25,-45 288.25,-63"/>
<text text-anchor="middle" x="288.25" y="-39.98" font-family="Times New Roman,serif" font-size="12.00">+</text>
</g>
<!-- 2547393348816&#45;&gt;2547393348528 -->
<g id="edge2" class="edge">
<title>2547393348816&#45;&gt;2547393348528</title>
<path fill="none" stroke="black" d="M225.68,-45C233.75,-45 241.67,-45 249.02,-45"/>
<polygon fill="black" stroke="black" points="248.86,-48.5 258.86,-45 248.86,-41.5 248.86,-48.5"/>
</g>
<!-- 2547393348432 -->
<g id="node4" class="node">
<title>2547393348432</title>
<polygon fill="none" stroke="black" points="488,-90 351.25,-90 351.25,-54 488,-54 488,-90"/>
<text text-anchor="middle" x="419.62" y="-66.97" font-family="Times New Roman,serif" font-size="12.00">Receive customer inquiry</text>
</g>
<!-- 2547393348528&#45;&gt;2547393348432 -->
<g id="edge3" class="edge">
<title>2547393348528&#45;&gt;2547393348432</title>
<path fill="none" stroke="black" d="M309.46,-49.22C317.99,-51 328.52,-53.2 339.64,-55.52"/>
<polygon fill="black" stroke="black" points="338.92,-58.94 349.42,-57.56 340.35,-52.09 338.92,-58.94"/>
</g>
<!-- 2547393349152 -->
<g id="node5" class="node">
<title>2547393349152</title>
<polygon fill="none" stroke="black" points="454.25,-36 385,-36 385,0 454.25,0 454.25,-36"/>
<text text-anchor="middle" x="419.62" y="-12.97" font-family="Times New Roman,serif" font-size="12.00">Place order</text>
</g>
<!-- 2547393348528&#45;&gt;2547393349152 -->
<g id="edge4" class="edge">
<title>2547393348528&#45;&gt;2547393349152</title>
<path fill="none" stroke="black" d="M309.46,-40.78C326.59,-37.21 351.78,-31.95 373.65,-27.39"/>
<polygon fill="black" stroke="black" points="374.16,-30.85 383.24,-25.39 372.73,-24 374.16,-30.85"/>
</g>
<!-- 2547390954960 -->
<g id="node6" class="node">
<title>2547390954960</title>
<polygon fill="none" stroke="black" points="551,-63 524,-45 551,-27 578,-45 551,-63"/>
<text text-anchor="middle" x="551" y="-39.98" font-family="Times New Roman,serif" font-size="12.00">+</text>
</g>
<!-- 2547393348432&#45;&gt;2547390954960 -->
<g id="edge5" class="edge">
<title>2547393348432&#45;&gt;2547390954960</title>
<path fill="none" stroke="black" d="M488.34,-57.87C498.8,-55.68 509.15,-53.52 518.3,-51.62"/>
<polygon fill="black" stroke="black" points="518.99,-55.05 528.06,-49.58 517.56,-48.19 518.99,-55.05"/>
</g>
<!-- 2547393349152&#45;&gt;2547390954960 -->
<g id="edge6" class="edge">
<title>2547393349152&#45;&gt;2547390954960</title>
<path fill="none" stroke="black" d="M454.62,-25.09C474.33,-29.21 499,-34.36 518.31,-38.39"/>
<polygon fill="black" stroke="black" points="517.56,-41.81 528.07,-40.42 518.99,-34.95 517.56,-41.81"/>
</g>
<!-- 2547393347856 -->
<g id="node7" class="node">
<title>2547393347856</title>
<polygon fill="none" stroke="black" points="641,-63 614,-45 641,-27 668,-45 641,-63"/>
<text text-anchor="middle" x="641" y="-39.98" font-family="Times New Roman,serif" font-size="12.00">X</text>
</g>
<!-- 2547390954960&#45;&gt;2547393347856 -->
<g id="edge7" class="edge">
<title>2547390954960&#45;&gt;2547393347856</title>
<path fill="none" stroke="black" d="M578.88,-45C586.13,-45 594.12,-45 601.85,-45"/>
<polygon fill="black" stroke="black" points="601.77,-48.5 611.77,-45 601.77,-41.5 601.77,-48.5"/>
</g>
<!-- 2547372783616 -->
<g id="node8" class="node">
<title>2547372783616</title>
<polygon fill="none" stroke="black" points="955.5,-63 928.5,-45 955.5,-27 982.5,-45 955.5,-63"/>
<text text-anchor="middle" x="955.5" y="-39.98" font-family="Times New Roman,serif" font-size="12.00">X</text>
</g>
<!-- 2547393347856&#45;&gt;2547372783616 -->
<g id="edge8" class="edge">
<title>2547393347856&#45;&gt;2547372783616</title>
<path fill="none" stroke="black" d="M665.83,-46.9C677.35,-47.72 691.39,-48.59 704,-49 787.73,-51.7 808.77,-51.7 892.5,-49 901.17,-48.72 910.52,-48.22 919.25,-47.67"/>
<polygon fill="black" stroke="black" points="919.42,-51.17 929.16,-47 918.95,-44.18 919.42,-51.17"/>
</g>
<!-- 2547393349824 -->
<g id="node9" class="node">
<title>2547393349824</title>
<polygon fill="none" stroke="black" points="892.5,-40 704,-40 704,-4 892.5,-4 892.5,-40"/>
<text text-anchor="middle" x="798.25" y="-16.98" font-family="Times New Roman,serif" font-size="12.00">Send order confirmation to customer</text>
</g>
<!-- 2547393347856&#45;&gt;2547393349824 -->
<g id="edge9" class="edge">
<title>2547393347856&#45;&gt;2547393349824</title>
<path fill="none" stroke="black" d="M663.91,-41.75C672.04,-40.55 681.89,-39.09 692.51,-37.52"/>
<polygon fill="black" stroke="black" points="692.95,-40.99 702.33,-36.06 691.92,-34.07 692.95,-40.99"/>
</g>
<!-- 2547393347952 -->
<g id="node10" class="node">
<title>2547393347952</title>
<polygon fill="none" stroke="black" points="1045.5,-63 1018.5,-45 1045.5,-27 1072.5,-45 1045.5,-63"/>
<text text-anchor="middle" x="1045.5" y="-39.98" font-family="Times New Roman,serif" font-size="12.00">X</text>
</g>
<!-- 2547372783616&#45;&gt;2547393347952 -->
<g id="edge11" class="edge">
<title>2547372783616&#45;&gt;2547393347952</title>
<path fill="none" stroke="black" d="M983.38,-45C990.63,-45 998.62,-45 1006.35,-45"/>
<polygon fill="black" stroke="black" points="1006.27,-48.5 1016.27,-45 1006.27,-41.5 1006.27,-48.5"/>
</g>
<!-- 2547393349824&#45;&gt;2547372783616 -->
<g id="edge10" class="edge">
<title>2547393349824&#45;&gt;2547372783616</title>
<path fill="none" stroke="black" d="M892.7,-35.84C902.94,-37.36 912.8,-38.82 921.52,-40.11"/>
<polygon fill="black" stroke="black" points="920.73,-43.54 931.13,-41.54 921.76,-36.61 920.73,-43.54"/>
</g>
<!-- 2547391395408 -->
<g id="node11" class="node">
<title>2547391395408</title>
<polygon fill="none" stroke="black" points="1377.25,-63 1350.25,-45 1377.25,-27 1404.25,-45 1377.25,-63"/>
<text text-anchor="middle" x="1377.25" y="-39.98" font-family="Times New Roman,serif" font-size="12.00">X</text>
</g>
<!-- 2547393347952&#45;&gt;2547391395408 -->
<g id="edge12" class="edge">
<title>2547393347952&#45;&gt;2547391395408</title>
<path fill="none" stroke="black" d="M1070.33,-46.9C1081.85,-47.72 1095.89,-48.59 1108.5,-49 1199.9,-51.95 1222.85,-51.95 1314.25,-49 1322.92,-48.72 1332.27,-48.22 1341,-47.67"/>
<polygon fill="black" stroke="black" points="1341.17,-51.17 1350.91,-47 1340.7,-44.18 1341.17,-51.17"/>
</g>
<!-- 2547390953232 -->
<g id="node12" class="node">
<title>2547390953232</title>
<polygon fill="none" stroke="black" points="1314.25,-40 1108.5,-40 1108.5,-4 1314.25,-4 1314.25,-40"/>
<text text-anchor="middle" x="1211.38" y="-16.98" font-family="Times New Roman,serif" font-size="12.00">Address customer concerns or questions</text>
</g>
<!-- 2547393347952&#45;&gt;2547390953232 -->
<g id="edge13" class="edge">
<title>2547393347952&#45;&gt;2547390953232</title>
<path fill="none" stroke="black" d="M1068.6,-41.9C1076.64,-40.77 1086.37,-39.4 1096.93,-37.92"/>
<polygon fill="black" stroke="black" points="1097.27,-41.41 1106.69,-36.55 1096.3,-34.48 1097.27,-41.41"/>
</g>
<!-- 2547393347904 -->
<g id="node13" class="node">
<title>2547393347904</title>
<polygon fill="none" stroke="black" points="1467.25,-63 1440.25,-45 1467.25,-27 1494.25,-45 1467.25,-63"/>
<text text-anchor="middle" x="1467.25" y="-39.98" font-family="Times New Roman,serif" font-size="12.00">X</text>
</g>
<!-- 2547391395408&#45;&gt;2547393347904 -->
<g id="edge15" class="edge">
<title>2547391395408&#45;&gt;2547393347904</title>
<path fill="none" stroke="black" d="M1405.13,-45C1412.38,-45 1420.37,-45 1428.1,-45"/>
<polygon fill="black" stroke="black" points="1428.02,-48.5 1438.02,-45 1428.02,-41.5 1428.02,-48.5"/>
</g>
<!-- 2547390953232&#45;&gt;2547391395408 -->
<g id="edge14" class="edge">
<title>2547390953232&#45;&gt;2547391395408</title>
<path fill="none" stroke="black" d="M1314.3,-36.3C1324.47,-37.73 1334.21,-39.1 1342.83,-40.31"/>
<polygon fill="black" stroke="black" points="1342.31,-43.77 1352.7,-41.69 1343.28,-36.84 1342.31,-43.77"/>
</g>
<!-- 2547393348240 -->
<g id="node14" class="node">
<title>2547393348240</title>
<polygon fill="none" stroke="black" points="2095,-63 2068,-45 2095,-27 2122,-45 2095,-63"/>
<text text-anchor="middle" x="2095" y="-39.98" font-family="Times New Roman,serif" font-size="12.00">X</text>
</g>
<!-- 2547393347904&#45;&gt;2547393348240 -->
<g id="edge17" class="edge">
<title>2547393347904&#45;&gt;2547393348240</title>
<path fill="none" stroke="black" d="M1492.08,-46.9C1503.6,-47.72 1517.64,-48.59 1530.25,-49 1753.13,-56.18 1809.12,-56.18 2032,-49 2040.67,-48.72 2050.02,-48.22 2058.75,-47.67"/>
<polygon fill="black" stroke="black" points="2058.92,-51.17 2068.66,-47 2058.45,-44.18 2058.92,-51.17"/>
</g>
<!-- 2547391396848 -->
<g id="node15" class="node">
<title>2547391396848</title>
<polygon fill="none" stroke="black" points="1612.25,-40 1530.25,-40 1530.25,-4 1612.25,-4 1612.25,-40"/>
<text text-anchor="middle" x="1571.25" y="-16.98" font-family="Times New Roman,serif" font-size="12.00">Provide quote</text>
</g>
<!-- 2547393347904&#45;&gt;2547391396848 -->
<g id="edge16" class="edge">
<title>2547393347904&#45;&gt;2547391396848</title>
<path fill="none" stroke="black" d="M1487.92,-40.57C1496.86,-38.55 1507.9,-36.06 1518.97,-33.56"/>
<polygon fill="black" stroke="black" points="1519.49,-37.03 1528.48,-31.42 1517.95,-30.2 1519.49,-37.03"/>
</g>
<!-- 2547391237056 -->
<g id="node18" class="node">
<title>2547391237056</title>
<ellipse fill="orange" stroke="black" cx="2176" cy="-45" rx="18" ry="18"/>
</g>
<!-- 2547393348240&#45;&gt;2547391237056 -->
<g id="edge19" class="edge">
<title>2547393348240&#45;&gt;2547391237056</title>
<path fill="none" stroke="black" d="M2122.75,-45C2130.38,-45 2138.73,-45 2146.47,-45"/>
<polygon fill="black" stroke="black" points="2146.43,-48.5 2156.43,-45 2146.43,-41.5 2146.43,-48.5"/>
</g>
<!-- 2547391394736 -->
<g id="node16" class="node">
<title>2547391394736</title>
<polygon fill="none" stroke="black" points="1870.5,-40 1648.25,-40 1648.25,-4 1870.5,-4 1870.5,-40"/>
<text text-anchor="middle" x="1759.38" y="-16.98" font-family="Times New Roman,serif" font-size="12.00">Guide customer in selecting product/service</text>
</g>
<!-- 2547391396848&#45;&gt;2547391394736 -->
<g id="edge18" class="edge">
<title>2547391396848&#45;&gt;2547391394736</title>
<path fill="none" stroke="black" d="M1612.64,-22C1620.07,-22 1628.17,-22 1636.63,-22"/>
<polygon fill="black" stroke="black" points="1636.4,-25.5 1646.4,-22 1636.4,-18.5 1636.4,-25.5"/>
</g>
<!-- 2547393349488 -->
<g id="node17" class="node">
<title>2547393349488</title>
<polygon fill="none" stroke="black" points="2032,-40 1906.5,-40 1906.5,-4 2032,-4 2032,-40"/>
<text text-anchor="middle" x="1969.25" y="-16.98" font-family="Times New Roman,serif" font-size="12.00">Record order in system</text>
</g>
<!-- 2547391394736&#45;&gt;2547393349488 -->
<g id="edge20" class="edge">
<title>2547391394736&#45;&gt;2547393349488</title>
<path fill="none" stroke="black" d="M1870.7,-22C1878.86,-22 1886.97,-22 1894.83,-22"/>
<polygon fill="black" stroke="black" points="1894.61,-25.5 1904.61,-22 1894.61,-18.5 1894.61,-25.5"/>
</g>
<!-- 2547393349488&#45;&gt;2547393348240 -->
<g id="edge21" class="edge">
<title>2547393349488&#45;&gt;2547393348240</title>
<path fill="none" stroke="black" d="M2032.49,-33.57C2042.7,-35.47 2052.9,-37.36 2061.97,-39.05"/>
<polygon fill="black" stroke="black" points="2061.19,-42.46 2071.67,-40.85 2062.47,-35.58 2061.19,-42.46"/>
</g>
</g>
</svg>
