<?xml version="1.0" encoding="UTF-8" standalone="no"?>
<!DOCTYPE svg PUBLIC "-//W3C//DTD SVG 1.1//EN"
 "http://www.w3.org/Graphics/SVG/1.1/DTD/svg11.dtd">
<!-- Generated by graphviz version 11.0.0 (20240428.1522)
 -->
<!-- Pages: 1 -->
<svg width="2235pt" height="206pt"
 viewBox="0.00 0.00 2235.00 206.00" xmlns="http://www.w3.org/2000/svg" xmlns:xlink="http://www.w3.org/1999/xlink">
<g id="graph0" class="graph" transform="scale(1 1) rotate(0) translate(4 202)">
<polygon fill="white" stroke="none" points="-4,4 -4,-202 2231,-202 2231,4 -4,4"/>
<!-- 2592518776320 -->
<g id="node1" class="node">
<title>2592518776320</title>
<ellipse fill="green" stroke="black" cx="18" cy="-95" rx="18" ry="18"/>
</g>
<!-- 2592517889808 -->
<g id="node2" class="node">
<title>2592517889808</title>
<polygon fill="none" stroke="black" points="221.5,-113 72,-113 72,-77 221.5,-77 221.5,-113"/>
<text text-anchor="middle" x="146.75" y="-89.97" font-family="Times New Roman,serif" font-size="12.00">Customer searches for ticket</text>
</g>
<!-- 2592518776320&#45;&gt;2592517889808 -->
<g id="edge1" class="edge">
<title>2592518776320&#45;&gt;2592517889808</title>
<path fill="none" stroke="black" d="M36.36,-95C43.15,-95 51.48,-95 60.48,-95"/>
<polygon fill="black" stroke="black" points="60.22,-98.5 70.22,-95 60.22,-91.5 60.22,-98.5"/>
</g>
<!-- 2592517483568 -->
<g id="node3" class="node">
<title>2592517483568</title>
<polygon fill="none" stroke="black" points="329,-113 257.5,-113 257.5,-77 329,-77 329,-113"/>
<text text-anchor="middle" x="293.25" y="-89.97" font-family="Times New Roman,serif" font-size="12.00">Select route</text>
</g>
<!-- 2592517889808&#45;&gt;2592517483568 -->
<g id="edge2" class="edge">
<title>2592517889808&#45;&gt;2592517483568</title>
<path fill="none" stroke="black" d="M221.69,-95C229.9,-95 238.08,-95 245.8,-95"/>
<polygon fill="black" stroke="black" points="245.61,-98.5 255.61,-95 245.61,-91.5 245.61,-98.5"/>
</g>
<!-- 2592517895808 -->
<g id="node4" class="node">
<title>2592517895808</title>
<polygon fill="none" stroke="black" points="475.5,-113 365,-113 365,-77 475.5,-77 475.5,-113"/>
<text text-anchor="middle" x="420.25" y="-89.97" font-family="Times New Roman,serif" font-size="12.00">Select date and time</text>
</g>
<!-- 2592517483568&#45;&gt;2592517895808 -->
<g id="edge3" class="edge">
<title>2592517483568&#45;&gt;2592517895808</title>
<path fill="none" stroke="black" d="M329.4,-95C336.95,-95 345.16,-95 353.44,-95"/>
<polygon fill="black" stroke="black" points="353.22,-98.5 363.22,-95 353.22,-91.5 353.22,-98.5"/>
</g>
<!-- 2592517882608 -->
<g id="node5" class="node">
<title>2592517882608</title>
<polygon fill="none" stroke="black" points="538.5,-113 511.5,-95 538.5,-77 565.5,-95 538.5,-113"/>
<text text-anchor="middle" x="538.5" y="-89.97" font-family="Times New Roman,serif" font-size="12.00">+</text>
</g>
<!-- 2592517895808&#45;&gt;2592517882608 -->
<g id="edge4" class="edge">
<title>2592517895808&#45;&gt;2592517882608</title>
<path fill="none" stroke="black" d="M475.97,-95C483.93,-95 491.98,-95 499.51,-95"/>
<polygon fill="black" stroke="black" points="499.32,-98.5 509.32,-95 499.32,-91.5 499.32,-98.5"/>
</g>
<!-- 2592517479296 -->
<g id="node6" class="node">
<title>2592517479296</title>
<polygon fill="none" stroke="black" points="742.75,-140 613.5,-140 613.5,-104 742.75,-104 742.75,-140"/>
<text text-anchor="middle" x="678.12" y="-116.97" font-family="Times New Roman,serif" font-size="12.00">Provide payment details</text>
</g>
<!-- 2592517882608&#45;&gt;2592517479296 -->
<g id="edge6" class="edge">
<title>2592517882608&#45;&gt;2592517479296</title>
<path fill="none" stroke="black" d="M560.1,-99.04C571.51,-101.28 586.46,-104.21 601.85,-107.23"/>
<polygon fill="black" stroke="black" points="601.12,-110.66 611.6,-109.15 602.47,-103.79 601.12,-110.66"/>
</g>
<!-- 2592517889712 -->
<g id="node7" class="node">
<title>2592517889712</title>
<polygon fill="none" stroke="black" points="754.75,-86 601.5,-86 601.5,-50 754.75,-50 754.75,-86"/>
<text text-anchor="middle" x="678.12" y="-62.98" font-family="Times New Roman,serif" font-size="12.00">Provide personal information</text>
</g>
<!-- 2592517882608&#45;&gt;2592517889712 -->
<g id="edge5" class="edge">
<title>2592517882608&#45;&gt;2592517889712</title>
<path fill="none" stroke="black" d="M560.1,-90.96C568.54,-89.3 578.92,-87.27 589.98,-85.1"/>
<polygon fill="black" stroke="black" points="590.59,-88.54 599.73,-83.18 589.25,-81.67 590.59,-88.54"/>
</g>
<!-- 2592516454448 -->
<g id="node8" class="node">
<title>2592516454448</title>
<polygon fill="none" stroke="black" points="817.75,-113 790.75,-95 817.75,-77 844.75,-95 817.75,-113"/>
<text text-anchor="middle" x="817.75" y="-89.97" font-family="Times New Roman,serif" font-size="12.00">+</text>
</g>
<!-- 2592517479296&#45;&gt;2592516454448 -->
<g id="edge7" class="edge">
<title>2592517479296&#45;&gt;2592516454448</title>
<path fill="none" stroke="black" d="M743.1,-109.45C757.68,-106.59 772.54,-103.67 785.07,-101.22"/>
<polygon fill="black" stroke="black" points="785.65,-104.67 794.79,-99.31 784.3,-97.8 785.65,-104.67"/>
</g>
<!-- 2592517889712&#45;&gt;2592516454448 -->
<g id="edge8" class="edge">
<title>2592517889712&#45;&gt;2592516454448</title>
<path fill="none" stroke="black" d="M755.18,-82.92C765.64,-84.97 775.88,-86.98 784.91,-88.75"/>
<polygon fill="black" stroke="black" points="784.02,-92.15 794.51,-90.64 785.37,-85.28 784.02,-92.15"/>
</g>
<!-- 2592517889664 -->
<g id="node9" class="node">
<title>2592517889664</title>
<polygon fill="none" stroke="black" points="968,-113 880.75,-113 880.75,-77 968,-77 968,-113"/>
<text text-anchor="middle" x="924.38" y="-89.97" font-family="Times New Roman,serif" font-size="12.00">Generate ticket</text>
</g>
<!-- 2592516454448&#45;&gt;2592517889664 -->
<g id="edge9" class="edge">
<title>2592516454448&#45;&gt;2592517889664</title>
<path fill="none" stroke="black" d="M845.42,-95C852.75,-95 860.96,-95 869.24,-95"/>
<polygon fill="black" stroke="black" points="868.98,-98.5 878.98,-95 868.98,-91.5 868.98,-98.5"/>
</g>
<!-- 2592517884000 -->
<g id="node10" class="node">
<title>2592517884000</title>
<polygon fill="none" stroke="black" points="1031,-113 1004,-95 1031,-77 1058,-95 1031,-113"/>
<text text-anchor="middle" x="1031" y="-89.97" font-family="Times New Roman,serif" font-size="12.00">+</text>
</g>
<!-- 2592517889664&#45;&gt;2592517884000 -->
<g id="edge10" class="edge">
<title>2592517889664&#45;&gt;2592517884000</title>
<path fill="none" stroke="black" d="M968.23,-95C976.1,-95 984.27,-95 991.98,-95"/>
<polygon fill="black" stroke="black" points="991.74,-98.5 1001.74,-95 991.74,-91.5 991.74,-98.5"/>
</g>
<!-- 2592517479584 -->
<g id="node11" class="node">
<title>2592517479584</title>
<polygon fill="none" stroke="black" points="1121,-136 1094,-118 1121,-100 1148,-118 1121,-136"/>
<text text-anchor="middle" x="1121" y="-112.97" font-family="Times New Roman,serif" font-size="12.00">X</text>
</g>
<!-- 2592517884000&#45;&gt;2592517479584 -->
<g id="edge11" class="edge">
<title>2592517884000&#45;&gt;2592517479584</title>
<path fill="none" stroke="black" d="M1051.09,-99.99C1062.51,-102.97 1077.26,-106.83 1090.19,-110.21"/>
<polygon fill="black" stroke="black" points="1088.92,-113.49 1099.48,-112.64 1090.69,-106.72 1088.92,-113.49"/>
</g>
<!-- 2592517882128 -->
<g id="node12" class="node">
<title>2592517882128</title>
<polygon fill="none" stroke="black" points="1453.75,-90 1334.25,-90 1334.25,-54 1453.75,-54 1453.75,-90"/>
<text text-anchor="middle" x="1394" y="-66.97" font-family="Times New Roman,serif" font-size="12.00">Update seat inventory</text>
</g>
<!-- 2592517884000&#45;&gt;2592517882128 -->
<g id="edge12" class="edge">
<title>2592517884000&#45;&gt;2592517882128</title>
<path fill="none" stroke="black" d="M1056.44,-93.42C1067.85,-92.68 1081.62,-91.79 1094,-91 1172.27,-85.99 1262.06,-80.29 1322.66,-76.45"/>
<polygon fill="black" stroke="black" points="1322.73,-79.95 1332.49,-75.83 1322.29,-72.97 1322.73,-79.95"/>
</g>
<!-- 2592517883376 -->
<g id="node13" class="node">
<title>2592517883376</title>
<polygon fill="none" stroke="black" points="1298.25,-190 1184,-190 1184,-154 1298.25,-154 1298.25,-190"/>
<text text-anchor="middle" x="1241.12" y="-166.97" font-family="Times New Roman,serif" font-size="12.00">Send ticket via email</text>
</g>
<!-- 2592517479584&#45;&gt;2592517883376 -->
<g id="edge14" class="edge">
<title>2592517479584&#45;&gt;2592517883376</title>
<path fill="none" stroke="black" d="M1137.93,-125.28C1151.21,-131.35 1170.87,-140.34 1189.42,-148.82"/>
<polygon fill="black" stroke="black" points="1187.93,-151.99 1198.48,-152.96 1190.84,-145.62 1187.93,-151.99"/>
</g>
<!-- 2592517887504 -->
<g id="node15" class="node">
<title>2592517887504</title>
<polygon fill="none" stroke="black" points="1297.5,-136 1184.75,-136 1184.75,-100 1297.5,-100 1297.5,-136"/>
<text text-anchor="middle" x="1241.12" y="-112.97" font-family="Times New Roman,serif" font-size="12.00">Send ticket via SMS</text>
</g>
<!-- 2592517479584&#45;&gt;2592517887504 -->
<g id="edge13" class="edge">
<title>2592517479584&#45;&gt;2592517887504</title>
<path fill="none" stroke="black" d="M1148.8,-118C1156.19,-118 1164.54,-118 1173.12,-118"/>
<polygon fill="black" stroke="black" points="1172.96,-121.5 1182.96,-118 1172.96,-114.5 1172.96,-121.5"/>
</g>
<!-- 2592517893312 -->
<g id="node14" class="node">
<title>2592517893312</title>
<polygon fill="none" stroke="black" points="1516.75,-117 1489.75,-99 1516.75,-81 1543.75,-99 1516.75,-117"/>
<text text-anchor="middle" x="1516.75" y="-93.97" font-family="Times New Roman,serif" font-size="12.00">+</text>
</g>
<!-- 2592517882128&#45;&gt;2592517893312 -->
<g id="edge15" class="edge">
<title>2592517882128&#45;&gt;2592517893312</title>
<path fill="none" stroke="black" d="M1453.96,-85.18C1464.57,-87.56 1475.23,-89.94 1484.65,-92.05"/>
<polygon fill="black" stroke="black" points="1483.8,-95.44 1494.33,-94.21 1485.33,-88.61 1483.8,-95.44"/>
</g>
<!-- 2592517480544 -->
<g id="node16" class="node">
<title>2592517480544</title>
<polygon fill="none" stroke="black" points="1394,-144 1367,-126 1394,-108 1421,-126 1394,-144"/>
<text text-anchor="middle" x="1394" y="-120.97" font-family="Times New Roman,serif" font-size="12.00">X</text>
</g>
<!-- 2592517883376&#45;&gt;2592517480544 -->
<g id="edge16" class="edge">
<title>2592517883376&#45;&gt;2592517480544</title>
<path fill="none" stroke="black" d="M1298.73,-154.74C1320.93,-147.97 1345.44,-140.5 1363.91,-134.87"/>
<polygon fill="black" stroke="black" points="1364.82,-138.25 1373.37,-131.99 1362.78,-131.55 1364.82,-138.25"/>
</g>
<!-- 2592516452768 -->
<g id="node17" class="node">
<title>2592516452768</title>
<polygon fill="none" stroke="black" points="1676.75,-198 1579.75,-198 1579.75,-162 1676.75,-162 1676.75,-198"/>
<text text-anchor="middle" x="1628.25" y="-174.97" font-family="Times New Roman,serif" font-size="12.00">Send instructions</text>
</g>
<!-- 2592517893312&#45;&gt;2592516452768 -->
<g id="edge19" class="edge">
<title>2592517893312&#45;&gt;2592516452768</title>
<path fill="none" stroke="black" d="M1528.62,-109.66C1540.58,-121.11 1560.65,-139.46 1579.75,-153 1580.93,-153.83 1582.13,-154.66 1583.35,-155.49"/>
<polygon fill="black" stroke="black" points="1581.41,-158.4 1591.73,-160.82 1585.17,-152.5 1581.41,-158.4"/>
</g>
<!-- 2592517882848 -->
<g id="node18" class="node">
<title>2592517882848</title>
<polygon fill="none" stroke="black" points="1676.75,-144 1579.75,-144 1579.75,-108 1676.75,-108 1676.75,-144"/>
<text text-anchor="middle" x="1628.25" y="-120.97" font-family="Times New Roman,serif" font-size="12.00">Send instructions</text>
</g>
<!-- 2592517893312&#45;&gt;2592517882848 -->
<g id="edge18" class="edge">
<title>2592517893312&#45;&gt;2592517882848</title>
<path fill="none" stroke="black" d="M1537.33,-103.83C1546.28,-106.03 1557.4,-108.78 1568.74,-111.57"/>
<polygon fill="black" stroke="black" points="1567.6,-114.9 1578.15,-113.89 1569.28,-108.1 1567.6,-114.9"/>
</g>
<!-- 2592517897920 -->
<g id="node19" class="node">
<title>2592517897920</title>
<polygon fill="none" stroke="black" points="1670.75,-90 1585.75,-90 1585.75,-54 1670.75,-54 1670.75,-90"/>
<text text-anchor="middle" x="1628.25" y="-66.97" font-family="Times New Roman,serif" font-size="12.00">Send reminder</text>
</g>
<!-- 2592517893312&#45;&gt;2592517897920 -->
<g id="edge20" class="edge">
<title>2592517893312&#45;&gt;2592517897920</title>
<path fill="none" stroke="black" d="M1537.33,-94.17C1547.8,-91.59 1561.26,-88.27 1574.56,-84.99"/>
<polygon fill="black" stroke="black" points="1575.28,-88.42 1584.15,-82.63 1573.6,-81.62 1575.28,-88.42"/>
</g>
<!-- 2592517883808 -->
<g id="node20" class="node">
<title>2592517883808</title>
<polygon fill="none" stroke="black" points="1670.75,-36 1585.75,-36 1585.75,0 1670.75,0 1670.75,-36"/>
<text text-anchor="middle" x="1628.25" y="-12.97" font-family="Times New Roman,serif" font-size="12.00">Send reminder</text>
</g>
<!-- 2592517893312&#45;&gt;2592517883808 -->
<g id="edge17" class="edge">
<title>2592517893312&#45;&gt;2592517883808</title>
<path fill="none" stroke="black" d="M1528.62,-88.34C1540.58,-76.89 1560.65,-58.54 1579.75,-45 1580.93,-44.17 1582.13,-43.34 1583.35,-42.51"/>
<polygon fill="black" stroke="black" points="1585.17,-45.5 1591.73,-37.18 1581.41,-39.6 1585.17,-45.5"/>
</g>
<!-- 2592517887504&#45;&gt;2592517480544 -->
<g id="edge21" class="edge">
<title>2592517887504&#45;&gt;2592517480544</title>
<path fill="none" stroke="black" d="M1297.88,-120.96C1317.52,-122 1339.08,-123.14 1356.7,-124.07"/>
<polygon fill="black" stroke="black" points="1356.51,-127.57 1366.68,-124.6 1356.88,-120.58 1356.51,-127.57"/>
</g>
<!-- 2592517480544&#45;&gt;2592517893312 -->
<g id="edge22" class="edge">
<title>2592517480544&#45;&gt;2592517893312</title>
<path fill="none" stroke="black" d="M1414.94,-121.54C1433.9,-117.3 1462.72,-110.86 1484.69,-105.94"/>
<polygon fill="black" stroke="black" points="1485.31,-109.39 1494.3,-103.8 1483.78,-102.56 1485.31,-109.39"/>
</g>
<!-- 2592516451616 -->
<g id="node21" class="node">
<title>2592516451616</title>
<polygon fill="none" stroke="black" points="1739.75,-117 1712.75,-99 1739.75,-81 1766.75,-99 1739.75,-117"/>
<text text-anchor="middle" x="1739.75" y="-93.97" font-family="Times New Roman,serif" font-size="12.00">+</text>
</g>
<!-- 2592516452768&#45;&gt;2592516451616 -->
<g id="edge23" class="edge">
<title>2592516452768&#45;&gt;2592516451616</title>
<path fill="none" stroke="black" d="M1663.5,-161.63C1668.04,-158.88 1672.57,-155.96 1676.75,-153 1691.97,-142.21 1707.81,-128.36 1719.67,-117.39"/>
<polygon fill="black" stroke="black" points="1721.89,-120.1 1726.78,-110.7 1717.1,-115 1721.89,-120.1"/>
</g>
<!-- 2592517882848&#45;&gt;2592516451616 -->
<g id="edge24" class="edge">
<title>2592517882848&#45;&gt;2592516451616</title>
<path fill="none" stroke="black" d="M1676.96,-114.24C1687.53,-111.63 1698.46,-108.94 1708.13,-106.55"/>
<polygon fill="black" stroke="black" points="1708.85,-109.98 1717.73,-104.18 1707.18,-103.18 1708.85,-109.98"/>
</g>
<!-- 2592517897920&#45;&gt;2592516451616 -->
<g id="edge25" class="edge">
<title>2592517897920&#45;&gt;2592516451616</title>
<path fill="none" stroke="black" d="M1670.96,-82.28C1683.38,-85.35 1696.75,-88.64 1708.31,-91.49"/>
<polygon fill="black" stroke="black" points="1707.14,-94.81 1717.69,-93.81 1708.82,-88.01 1707.14,-94.81"/>
</g>
<!-- 2592517883808&#45;&gt;2592516451616 -->
<g id="edge26" class="edge">
<title>2592517883808&#45;&gt;2592516451616</title>
<path fill="none" stroke="black" d="M1663.5,-36.37C1668.04,-39.12 1672.57,-42.04 1676.75,-45 1691.97,-55.79 1707.81,-69.64 1719.67,-80.61"/>
<polygon fill="black" stroke="black" points="1717.1,-83 1726.78,-87.3 1721.89,-77.9 1717.1,-83"/>
</g>
<!-- 2592516446528 -->
<g id="node22" class="node">
<title>2592516446528</title>
<polygon fill="none" stroke="black" points="1953.75,-117 1802.75,-117 1802.75,-81 1953.75,-81 1953.75,-117"/>
<text text-anchor="middle" x="1878.25" y="-93.97" font-family="Times New Roman,serif" font-size="12.00">Customer completes journey</text>
</g>
<!-- 2592516451616&#45;&gt;2592516446528 -->
<g id="edge27" class="edge">
<title>2592516451616&#45;&gt;2592516446528</title>
<path fill="none" stroke="black" d="M1767.39,-99C1774.51,-99 1782.61,-99 1791.11,-99"/>
<polygon fill="black" stroke="black" points="1790.94,-102.5 1800.94,-99 1790.94,-95.5 1790.94,-102.5"/>
</g>
<!-- 2592517889760 -->
<g id="node23" class="node">
<title>2592517889760</title>
<polygon fill="none" stroke="black" points="2155,-117 1989.75,-117 1989.75,-81 2155,-81 2155,-117"/>
<text text-anchor="middle" x="2072.38" y="-93.97" font-family="Times New Roman,serif" font-size="12.00">Post&#45;travel feedback or services</text>
</g>
<!-- 2592516446528&#45;&gt;2592517889760 -->
<g id="edge28" class="edge">
<title>2592516446528&#45;&gt;2592517889760</title>
<path fill="none" stroke="black" d="M1954.08,-99C1961.96,-99 1970.04,-99 1978.09,-99"/>
<polygon fill="black" stroke="black" points="1977.92,-102.5 1987.92,-99 1977.92,-95.5 1977.92,-102.5"/>
</g>
<!-- 2592518776416 -->
<g id="node24" class="node">
<title>2592518776416</title>
<ellipse fill="orange" stroke="black" cx="2209" cy="-99" rx="18" ry="18"/>
</g>
<!-- 2592517889760&#45;&gt;2592518776416 -->
<g id="edge29" class="edge">
<title>2592517889760&#45;&gt;2592518776416</title>
<path fill="none" stroke="black" d="M2155.18,-99C2163.79,-99 2172.06,-99 2179.4,-99"/>
<polygon fill="black" stroke="black" points="2179.26,-102.5 2189.26,-99 2179.26,-95.5 2179.26,-102.5"/>
</g>
</g>
</svg>
