<?xml version="1.0" encoding="UTF-8" standalone="no"?>
<!DOCTYPE svg PUBLIC "-//W3C//DTD SVG 1.1//EN"
 "http://www.w3.org/Graphics/SVG/1.1/DTD/svg11.dtd">
<!-- Generated by graphviz version 11.0.0 (20240428.1522)
 -->
<!-- Pages: 1 -->
<svg width="2310pt" height="146pt"
 viewBox="0.00 0.00 2310.25 146.00" xmlns="http://www.w3.org/2000/svg" xmlns:xlink="http://www.w3.org/1999/xlink">
<g id="graph0" class="graph" transform="scale(1 1) rotate(0) translate(4 142)">
<polygon fill="white" stroke="none" points="-4,4 -4,-142 2306.25,-142 2306.25,4 -4,4"/>
<!-- 2592517279328 -->
<g id="node1" class="node">
<title>2592517279328</title>
<ellipse fill="green" stroke="black" cx="18" cy="-45" rx="18" ry="18"/>
</g>
<!-- 2592518154784 -->
<g id="node2" class="node">
<title>2592518154784</title>
<polygon fill="none" stroke="black" points="221.5,-63 72,-63 72,-27 221.5,-27 221.5,-63"/>
<text text-anchor="middle" x="146.75" y="-39.98" font-family="Times New Roman,serif" font-size="12.00">Customer searches for ticket</text>
</g>
<!-- 2592517279328&#45;&gt;2592518154784 -->
<g id="edge1" class="edge">
<title>2592517279328&#45;&gt;2592518154784</title>
<path fill="none" stroke="black" d="M36.36,-45C43.15,-45 51.48,-45 60.48,-45"/>
<polygon fill="black" stroke="black" points="60.22,-48.5 70.22,-45 60.22,-41.5 60.22,-48.5"/>
</g>
<!-- 2592517687344 -->
<g id="node3" class="node">
<title>2592517687344</title>
<polygon fill="none" stroke="black" points="329,-63 257.5,-63 257.5,-27 329,-27 329,-63"/>
<text text-anchor="middle" x="293.25" y="-39.98" font-family="Times New Roman,serif" font-size="12.00">Select route</text>
</g>
<!-- 2592518154784&#45;&gt;2592517687344 -->
<g id="edge2" class="edge">
<title>2592518154784&#45;&gt;2592517687344</title>
<path fill="none" stroke="black" d="M221.69,-45C229.9,-45 238.08,-45 245.8,-45"/>
<polygon fill="black" stroke="black" points="245.61,-48.5 255.61,-45 245.61,-41.5 245.61,-48.5"/>
</g>
<!-- 2592514315168 -->
<g id="node4" class="node">
<title>2592514315168</title>
<polygon fill="none" stroke="black" points="475.5,-63 365,-63 365,-27 475.5,-27 475.5,-63"/>
<text text-anchor="middle" x="420.25" y="-39.98" font-family="Times New Roman,serif" font-size="12.00">Select date and time</text>
</g>
<!-- 2592517687344&#45;&gt;2592514315168 -->
<g id="edge3" class="edge">
<title>2592517687344&#45;&gt;2592514315168</title>
<path fill="none" stroke="black" d="M329.4,-45C336.95,-45 345.16,-45 353.44,-45"/>
<polygon fill="black" stroke="black" points="353.22,-48.5 363.22,-45 353.22,-41.5 353.22,-48.5"/>
</g>
<!-- 2592514310320 -->
<g id="node5" class="node">
<title>2592514310320</title>
<polygon fill="none" stroke="black" points="664.75,-63 511.5,-63 511.5,-27 664.75,-27 664.75,-63"/>
<text text-anchor="middle" x="588.12" y="-39.98" font-family="Times New Roman,serif" font-size="12.00">Provide personal information</text>
</g>
<!-- 2592514315168&#45;&gt;2592514310320 -->
<g id="edge4" class="edge">
<title>2592514315168&#45;&gt;2592514310320</title>
<path fill="none" stroke="black" d="M475.56,-45C483.36,-45 491.54,-45 499.78,-45"/>
<polygon fill="black" stroke="black" points="499.5,-48.5 509.5,-45 499.5,-41.5 499.5,-48.5"/>
</g>
<!-- 2592514315600 -->
<g id="node6" class="node">
<title>2592514315600</title>
<polygon fill="none" stroke="black" points="830,-63 700.75,-63 700.75,-27 830,-27 830,-63"/>
<text text-anchor="middle" x="765.38" y="-39.98" font-family="Times New Roman,serif" font-size="12.00">Provide payment details</text>
</g>
<!-- 2592514310320&#45;&gt;2592514315600 -->
<g id="edge5" class="edge">
<title>2592514310320&#45;&gt;2592514315600</title>
<path fill="none" stroke="black" d="M665.23,-45C673.11,-45 681.12,-45 688.99,-45"/>
<polygon fill="black" stroke="black" points="688.89,-48.5 698.89,-45 688.89,-41.5 688.89,-48.5"/>
</g>
<!-- 2592514317184 -->
<g id="node7" class="node">
<title>2592514317184</title>
<polygon fill="none" stroke="black" points="893,-63 866,-45 893,-27 920,-45 893,-63"/>
<text text-anchor="middle" x="893" y="-39.98" font-family="Times New Roman,serif" font-size="12.00">+</text>
</g>
<!-- 2592514315600&#45;&gt;2592514317184 -->
<g id="edge6" class="edge">
<title>2592514315600&#45;&gt;2592514317184</title>
<path fill="none" stroke="black" d="M830.29,-45C838.41,-45 846.5,-45 854.02,-45"/>
<polygon fill="black" stroke="black" points="853.78,-48.5 863.78,-45 853.78,-41.5 853.78,-48.5"/>
</g>
<!-- 2592496071168 -->
<g id="node8" class="node">
<title>2592496071168</title>
<polygon fill="none" stroke="black" points="1043.25,-88 956,-88 956,-52 1043.25,-52 1043.25,-88"/>
<text text-anchor="middle" x="999.62" y="-64.97" font-family="Times New Roman,serif" font-size="12.00">Generate ticket</text>
</g>
<!-- 2592514317184&#45;&gt;2592496071168 -->
<g id="edge7" class="edge">
<title>2592514317184&#45;&gt;2592496071168</title>
<path fill="none" stroke="black" d="M913.68,-49.7C922.56,-51.82 933.53,-54.44 944.6,-57.09"/>
<polygon fill="black" stroke="black" points="943.61,-60.45 954.15,-59.37 945.24,-53.65 943.61,-60.45"/>
</g>
<!-- 2592518153872 -->
<g id="node9" class="node">
<title>2592518153872</title>
<polygon fill="none" stroke="black" points="1198.75,-36 1079.25,-36 1079.25,0 1198.75,0 1198.75,-36"/>
<text text-anchor="middle" x="1139" y="-12.97" font-family="Times New Roman,serif" font-size="12.00">Update seat inventory</text>
</g>
<!-- 2592514317184&#45;&gt;2592518153872 -->
<g id="edge8" class="edge">
<title>2592514317184&#45;&gt;2592518153872</title>
<path fill="none" stroke="black" d="M916.95,-42.46C951.09,-38.68 1016.67,-31.43 1067.57,-25.79"/>
<polygon fill="black" stroke="black" points="1067.79,-29.29 1077.35,-24.71 1067.02,-22.33 1067.79,-29.29"/>
</g>
<!-- 2592496063776 -->
<g id="node10" class="node">
<title>2592496063776</title>
<polygon fill="none" stroke="black" points="1139,-90 1112,-72 1139,-54 1166,-72 1139,-90"/>
<text text-anchor="middle" x="1139" y="-66.97" font-family="Times New Roman,serif" font-size="12.00">+</text>
</g>
<!-- 2592496071168&#45;&gt;2592496063776 -->
<g id="edge9" class="edge">
<title>2592496071168&#45;&gt;2592496063776</title>
<path fill="none" stroke="black" d="M1043.71,-70.63C1061.96,-70.89 1083.01,-71.2 1100.59,-71.46"/>
<polygon fill="black" stroke="black" points="1100.29,-74.95 1110.34,-71.6 1100.39,-67.95 1100.29,-74.95"/>
</g>
<!-- 2592514316800 -->
<g id="node11" class="node">
<title>2592514316800</title>
<polygon fill="none" stroke="black" points="2203.25,-59 2176.25,-41 2203.25,-23 2230.25,-41 2203.25,-59"/>
<text text-anchor="middle" x="2203.25" y="-35.98" font-family="Times New Roman,serif" font-size="12.00">+</text>
</g>
<!-- 2592518153872&#45;&gt;2592514316800 -->
<g id="edge10" class="edge">
<title>2592518153872&#45;&gt;2592514316800</title>
<path fill="none" stroke="black" d="M1199.1,-18C1258.19,-18 1351.63,-18 1432.5,-18 1432.5,-18 1432.5,-18 1968.62,-18 2040.64,-18 2124.55,-28.96 2169.62,-35.75"/>
<polygon fill="black" stroke="black" points="2168.83,-39.17 2179.24,-37.23 2169.89,-32.25 2168.83,-39.17"/>
</g>
<!-- 2592517706080 -->
<g id="node12" class="node">
<title>2592517706080</title>
<polygon fill="none" stroke="black" points="1349,-138 1234.75,-138 1234.75,-102 1349,-102 1349,-138"/>
<text text-anchor="middle" x="1291.88" y="-114.97" font-family="Times New Roman,serif" font-size="12.00">Send ticket via email</text>
</g>
<!-- 2592496063776&#45;&gt;2592517706080 -->
<g id="edge11" class="edge">
<title>2592496063776&#45;&gt;2592517706080</title>
<path fill="none" stroke="black" d="M1158.2,-77.79C1174.51,-82.98 1199.48,-90.92 1223.38,-98.53"/>
<polygon fill="black" stroke="black" points="1222.22,-101.83 1232.81,-101.53 1224.34,-95.16 1222.22,-101.83"/>
</g>
<!-- 2592517691040 -->
<g id="node13" class="node">
<title>2592517691040</title>
<polygon fill="none" stroke="black" points="1348.25,-84 1235.5,-84 1235.5,-48 1348.25,-48 1348.25,-84"/>
<text text-anchor="middle" x="1291.88" y="-60.98" font-family="Times New Roman,serif" font-size="12.00">Send ticket via SMS</text>
</g>
<!-- 2592496063776&#45;&gt;2592517691040 -->
<g id="edge12" class="edge">
<title>2592496063776&#45;&gt;2592517691040</title>
<path fill="none" stroke="black" d="M1165.25,-71C1181.32,-70.36 1202.95,-69.5 1223.72,-68.67"/>
<polygon fill="black" stroke="black" points="1223.77,-72.17 1233.63,-68.28 1223.49,-65.18 1223.77,-72.17"/>
</g>
<!-- 2592517286912 -->
<g id="node21" class="node">
<title>2592517286912</title>
<ellipse fill="orange" stroke="black" cx="2284.25" cy="-41" rx="18" ry="18"/>
</g>
<!-- 2592514316800&#45;&gt;2592517286912 -->
<g id="edge13" class="edge">
<title>2592514316800&#45;&gt;2592517286912</title>
<path fill="none" stroke="black" d="M2231,-41C2238.63,-41 2246.98,-41 2254.72,-41"/>
<polygon fill="black" stroke="black" points="2254.68,-44.5 2264.68,-41 2254.68,-37.5 2254.68,-44.5"/>
</g>
<!-- 2592513862992 -->
<g id="node14" class="node">
<title>2592513862992</title>
<polygon fill="none" stroke="black" points="1476,-138 1391,-138 1391,-102 1476,-102 1476,-138"/>
<text text-anchor="middle" x="1433.5" y="-114.97" font-family="Times New Roman,serif" font-size="12.00">Send reminder</text>
</g>
<!-- 2592517706080&#45;&gt;2592513862992 -->
<g id="edge14" class="edge">
<title>2592517706080&#45;&gt;2592513862992</title>
<path fill="none" stroke="black" d="M1349.26,-120C1359.16,-120 1369.44,-120 1379.25,-120"/>
<polygon fill="black" stroke="black" points="1378.99,-123.5 1388.99,-120 1378.99,-116.5 1378.99,-123.5"/>
</g>
<!-- 2592514316320 -->
<g id="node15" class="node">
<title>2592514316320</title>
<polygon fill="none" stroke="black" points="1482,-84 1385,-84 1385,-48 1482,-48 1482,-84"/>
<text text-anchor="middle" x="1433.5" y="-60.98" font-family="Times New Roman,serif" font-size="12.00">Send instructions</text>
</g>
<!-- 2592517691040&#45;&gt;2592514316320 -->
<g id="edge15" class="edge">
<title>2592517691040&#45;&gt;2592514316320</title>
<path fill="none" stroke="black" d="M1348.46,-66C1356.63,-66 1365.06,-66 1373.3,-66"/>
<polygon fill="black" stroke="black" points="1373.25,-69.5 1383.25,-66 1373.25,-62.5 1373.25,-69.5"/>
</g>
<!-- 2592496074144 -->
<g id="node16" class="node">
<title>2592496074144</title>
<polygon fill="none" stroke="black" points="1545,-86 1518,-68 1545,-50 1572,-68 1545,-86"/>
<text text-anchor="middle" x="1545" y="-62.98" font-family="Times New Roman,serif" font-size="12.00">+</text>
</g>
<!-- 2592513862992&#45;&gt;2592496074144 -->
<g id="edge16" class="edge">
<title>2592513862992&#45;&gt;2592496074144</title>
<path fill="none" stroke="black" d="M1473.41,-101.52C1488.21,-94.5 1504.68,-86.67 1518,-80.35"/>
<polygon fill="black" stroke="black" points="1519.43,-83.54 1526.96,-76.09 1516.43,-77.22 1519.43,-83.54"/>
</g>
<!-- 2592514316320&#45;&gt;2592496074144 -->
<g id="edge17" class="edge">
<title>2592514316320&#45;&gt;2592496074144</title>
<path fill="none" stroke="black" d="M1482.21,-66.87C1490.4,-67.02 1498.8,-67.17 1506.67,-67.32"/>
<polygon fill="black" stroke="black" points="1506.53,-70.82 1516.59,-67.5 1506.66,-63.82 1506.53,-70.82"/>
</g>
<!-- 2592496059744 -->
<g id="node17" class="node">
<title>2592496059744</title>
<polygon fill="none" stroke="black" points="1759,-86 1608,-86 1608,-50 1759,-50 1759,-86"/>
<text text-anchor="middle" x="1683.5" y="-62.98" font-family="Times New Roman,serif" font-size="12.00">Customer completes journey</text>
</g>
<!-- 2592496074144&#45;&gt;2592496059744 -->
<g id="edge18" class="edge">
<title>2592496074144&#45;&gt;2592496059744</title>
<path fill="none" stroke="black" d="M1572.64,-68C1579.76,-68 1587.86,-68 1596.36,-68"/>
<polygon fill="black" stroke="black" points="1596.19,-71.5 1606.19,-68 1596.19,-64.5 1596.19,-71.5"/>
</g>
<!-- 2592518283216 -->
<g id="node18" class="node">
<title>2592518283216</title>
<polygon fill="none" stroke="black" points="1822,-86 1795,-68 1822,-50 1849,-68 1822,-86"/>
<text text-anchor="middle" x="1822" y="-62.98" font-family="Times New Roman,serif" font-size="12.00">X</text>
</g>
<!-- 2592496059744&#45;&gt;2592518283216 -->
<g id="edge19" class="edge">
<title>2592496059744&#45;&gt;2592518283216</title>
<path fill="none" stroke="black" d="M1759.14,-68C1767.29,-68 1775.32,-68 1782.76,-68"/>
<polygon fill="black" stroke="black" points="1782.74,-71.5 1792.74,-68 1782.74,-64.5 1782.74,-71.5"/>
</g>
<!-- 2592518283360 -->
<g id="node19" class="node">
<title>2592518283360</title>
<polygon fill="none" stroke="black" points="2113.25,-82 2086.25,-64 2113.25,-46 2140.25,-64 2113.25,-82"/>
<text text-anchor="middle" x="2113.25" y="-58.98" font-family="Times New Roman,serif" font-size="12.00">X</text>
</g>
<!-- 2592518283216&#45;&gt;2592518283360 -->
<g id="edge20" class="edge">
<title>2592518283216&#45;&gt;2592518283360</title>
<path fill="none" stroke="black" d="M1838.37,-75.45C1850.66,-80.97 1868.5,-88.04 1885,-91 1957.29,-103.98 1978.35,-105.98 2050.25,-91 2063.18,-88.31 2076.72,-82.77 2087.84,-77.4"/>
<polygon fill="black" stroke="black" points="2089.36,-80.55 2096.68,-72.89 2086.18,-74.31 2089.36,-80.55"/>
</g>
<!-- 2592517698720 -->
<g id="node20" class="node">
<title>2592517698720</title>
<polygon fill="none" stroke="black" points="2050.25,-82 1885,-82 1885,-46 2050.25,-46 2050.25,-82"/>
<text text-anchor="middle" x="1967.62" y="-58.98" font-family="Times New Roman,serif" font-size="12.00">Post&#45;travel feedback or services</text>
</g>
<!-- 2592518283216&#45;&gt;2592517698720 -->
<g id="edge21" class="edge">
<title>2592518283216&#45;&gt;2592517698720</title>
<path fill="none" stroke="black" d="M1848.68,-67.28C1855.94,-67.08 1864.29,-66.85 1873.13,-66.6"/>
<polygon fill="black" stroke="black" points="1873.12,-70.11 1883.02,-66.33 1872.93,-63.11 1873.12,-70.11"/>
</g>
<!-- 2592518283360&#45;&gt;2592514316800 -->
<g id="edge22" class="edge">
<title>2592518283360&#45;&gt;2592514316800</title>
<path fill="none" stroke="black" d="M2133.34,-59.01C2144.76,-56.03 2159.51,-52.17 2172.44,-48.79"/>
<polygon fill="black" stroke="black" points="2172.94,-52.28 2181.73,-46.36 2171.17,-45.51 2172.94,-52.28"/>
</g>
<!-- 2592517698720&#45;&gt;2592518283360 -->
<g id="edge23" class="edge">
<title>2592517698720&#45;&gt;2592518283360</title>
<path fill="none" stroke="black" d="M2050.51,-64C2058.68,-64 2066.67,-64 2074.05,-64"/>
<polygon fill="black" stroke="black" points="2073.93,-67.5 2083.93,-64 2073.93,-60.5 2073.93,-67.5"/>
</g>
</g>
</svg>
