<?xml version="1.0" encoding="UTF-8" standalone="no"?>
<!DOCTYPE svg PUBLIC "-//W3C//DTD SVG 1.1//EN"
 "http://www.w3.org/Graphics/SVG/1.1/DTD/svg11.dtd">
<!-- Generated by graphviz version 11.0.0 (20240428.1522)
 -->
<!-- Pages: 1 -->
<svg width="2236pt" height="171pt"
 viewBox="0.00 0.00 2236.25 171.00" xmlns="http://www.w3.org/2000/svg" xmlns:xlink="http://www.w3.org/1999/xlink">
<g id="graph0" class="graph" transform="scale(1 1) rotate(0) translate(4 167)">
<polygon fill="white" stroke="none" points="-4,4 -4,-167 2232.25,-167 2232.25,4 -4,4"/>
<!-- 2592517287008 -->
<g id="node1" class="node">
<title>2592517287008</title>
<ellipse fill="green" stroke="black" cx="18" cy="-72" rx="18" ry="18"/>
</g>
<!-- 2592517690080 -->
<g id="node2" class="node">
<title>2592517690080</title>
<polygon fill="none" stroke="black" points="221.5,-90 72,-90 72,-54 221.5,-54 221.5,-90"/>
<text text-anchor="middle" x="146.75" y="-66.97" font-family="Times New Roman,serif" font-size="12.00">Customer searches for ticket</text>
</g>
<!-- 2592517287008&#45;&gt;2592517690080 -->
<g id="edge1" class="edge">
<title>2592517287008&#45;&gt;2592517690080</title>
<path fill="none" stroke="black" d="M36.36,-72C43.15,-72 51.48,-72 60.48,-72"/>
<polygon fill="black" stroke="black" points="60.22,-75.5 70.22,-72 60.22,-68.5 60.22,-75.5"/>
</g>
<!-- 2592517687680 -->
<g id="node3" class="node">
<title>2592517687680</title>
<polygon fill="none" stroke="black" points="284.5,-90 257.5,-72 284.5,-54 311.5,-72 284.5,-90"/>
<text text-anchor="middle" x="284.5" y="-66.97" font-family="Times New Roman,serif" font-size="12.00">+</text>
</g>
<!-- 2592517690080&#45;&gt;2592517687680 -->
<g id="edge2" class="edge">
<title>2592517690080&#45;&gt;2592517687680</title>
<path fill="none" stroke="black" d="M221.98,-72C230.01,-72 237.92,-72 245.25,-72"/>
<polygon fill="black" stroke="black" points="245.09,-75.5 255.09,-72 245.09,-68.5 245.09,-75.5"/>
</g>
<!-- 2592517687920 -->
<g id="node4" class="node">
<title>2592517687920</title>
<polygon fill="none" stroke="black" points="479.38,-144 368.88,-144 368.88,-108 479.38,-108 479.38,-144"/>
<text text-anchor="middle" x="424.12" y="-120.97" font-family="Times New Roman,serif" font-size="12.00">Select date and time</text>
</g>
<!-- 2592517687680&#45;&gt;2592517687920 -->
<g id="edge5" class="edge">
<title>2592517687680&#45;&gt;2592517687920</title>
<path fill="none" stroke="black" d="M301.43,-79.29C313.88,-84.91 331.67,-92.74 347.5,-99 351.36,-100.53 355.34,-102.06 359.36,-103.59"/>
<polygon fill="black" stroke="black" points="358.05,-106.83 368.65,-107.04 360.5,-100.27 358.05,-106.83"/>
</g>
<!-- 2592517689216 -->
<g id="node5" class="node">
<title>2592517689216</title>
<polygon fill="none" stroke="black" points="459.88,-90 388.38,-90 388.38,-54 459.88,-54 459.88,-90"/>
<text text-anchor="middle" x="424.12" y="-66.97" font-family="Times New Roman,serif" font-size="12.00">Select route</text>
</g>
<!-- 2592517687680&#45;&gt;2592517689216 -->
<g id="edge4" class="edge">
<title>2592517687680&#45;&gt;2592517689216</title>
<path fill="none" stroke="black" d="M312.36,-72C330.58,-72 355.14,-72 376.5,-72"/>
<polygon fill="black" stroke="black" points="376.47,-75.5 386.47,-72 376.47,-68.5 376.47,-75.5"/>
</g>
<!-- 2592517291472 -->
<g id="node6" class="node">
<title>2592517291472</title>
<polygon fill="none" stroke="black" points="500.75,-36 347.5,-36 347.5,0 500.75,0 500.75,-36"/>
<text text-anchor="middle" x="424.12" y="-12.97" font-family="Times New Roman,serif" font-size="12.00">Provide personal information</text>
</g>
<!-- 2592517687680&#45;&gt;2592517291472 -->
<g id="edge3" class="edge">
<title>2592517687680&#45;&gt;2592517291472</title>
<path fill="none" stroke="black" d="M301.43,-64.71C313.88,-59.09 331.67,-51.26 347.5,-45 351.36,-43.47 355.34,-41.94 359.36,-40.41"/>
<polygon fill="black" stroke="black" points="360.5,-43.73 368.65,-36.96 358.05,-37.17 360.5,-43.73"/>
</g>
<!-- 2592513943280 -->
<g id="node7" class="node">
<title>2592513943280</title>
<polygon fill="none" stroke="black" points="563.75,-90 536.75,-72 563.75,-54 590.75,-72 563.75,-90"/>
<text text-anchor="middle" x="563.75" y="-66.97" font-family="Times New Roman,serif" font-size="12.00">+</text>
</g>
<!-- 2592517687920&#45;&gt;2592513943280 -->
<g id="edge6" class="edge">
<title>2592517687920&#45;&gt;2592513943280</title>
<path fill="none" stroke="black" d="M478.18,-107.57C485.79,-104.78 493.49,-101.87 500.75,-99 512.62,-94.3 525.6,-88.72 536.59,-83.86"/>
<polygon fill="black" stroke="black" points="537.73,-87.18 545.44,-79.91 534.88,-80.79 537.73,-87.18"/>
</g>
<!-- 2592517689216&#45;&gt;2592513943280 -->
<g id="edge7" class="edge">
<title>2592517689216&#45;&gt;2592513943280</title>
<path fill="none" stroke="black" d="M460.21,-72C479.92,-72 504.52,-72 524.69,-72"/>
<polygon fill="black" stroke="black" points="524.47,-75.5 534.47,-72 524.47,-68.5 524.47,-75.5"/>
</g>
<!-- 2592517291472&#45;&gt;2592513943280 -->
<g id="edge8" class="edge">
<title>2592517291472&#45;&gt;2592513943280</title>
<path fill="none" stroke="black" d="M478.18,-36.43C485.79,-39.22 493.49,-42.13 500.75,-45 512.62,-49.7 525.6,-55.28 536.59,-60.14"/>
<polygon fill="black" stroke="black" points="534.88,-63.21 545.44,-64.09 537.73,-56.82 534.88,-63.21"/>
</g>
<!-- 2592517706560 -->
<g id="node8" class="node">
<title>2592517706560</title>
<polygon fill="none" stroke="black" points="756,-90 626.75,-90 626.75,-54 756,-54 756,-90"/>
<text text-anchor="middle" x="691.38" y="-66.97" font-family="Times New Roman,serif" font-size="12.00">Provide payment details</text>
</g>
<!-- 2592513943280&#45;&gt;2592517706560 -->
<g id="edge9" class="edge">
<title>2592513943280&#45;&gt;2592517706560</title>
<path fill="none" stroke="black" d="M591.39,-72C598.47,-72 606.48,-72 614.81,-72"/>
<polygon fill="black" stroke="black" points="614.78,-75.5 624.78,-72 614.78,-68.5 614.78,-75.5"/>
</g>
<!-- 2592517703440 -->
<g id="node9" class="node">
<title>2592517703440</title>
<polygon fill="none" stroke="black" points="819,-90 792,-72 819,-54 846,-72 819,-90"/>
<text text-anchor="middle" x="819" y="-66.97" font-family="Times New Roman,serif" font-size="12.00">+</text>
</g>
<!-- 2592517706560&#45;&gt;2592517703440 -->
<g id="edge10" class="edge">
<title>2592517706560&#45;&gt;2592517703440</title>
<path fill="none" stroke="black" d="M756.29,-72C764.41,-72 772.5,-72 780.02,-72"/>
<polygon fill="black" stroke="black" points="779.78,-75.5 789.78,-72 779.78,-68.5 779.78,-75.5"/>
</g>
<!-- 2592517707232 -->
<g id="node10" class="node">
<title>2592517707232</title>
<polygon fill="none" stroke="black" points="969.25,-115 882,-115 882,-79 969.25,-79 969.25,-115"/>
<text text-anchor="middle" x="925.62" y="-91.97" font-family="Times New Roman,serif" font-size="12.00">Generate ticket</text>
</g>
<!-- 2592517703440&#45;&gt;2592517707232 -->
<g id="edge12" class="edge">
<title>2592517703440&#45;&gt;2592517707232</title>
<path fill="none" stroke="black" d="M839.68,-76.7C848.56,-78.82 859.53,-81.44 870.6,-84.09"/>
<polygon fill="black" stroke="black" points="869.61,-87.45 880.15,-86.37 871.24,-80.65 869.61,-87.45"/>
</g>
<!-- 2592517715920 -->
<g id="node11" class="node">
<title>2592517715920</title>
<polygon fill="none" stroke="black" points="1124.75,-63 1005.25,-63 1005.25,-27 1124.75,-27 1124.75,-63"/>
<text text-anchor="middle" x="1065" y="-39.98" font-family="Times New Roman,serif" font-size="12.00">Update seat inventory</text>
</g>
<!-- 2592517703440&#45;&gt;2592517715920 -->
<g id="edge11" class="edge">
<title>2592517703440&#45;&gt;2592517715920</title>
<path fill="none" stroke="black" d="M842.95,-69.46C877.09,-65.68 942.67,-58.43 993.57,-52.79"/>
<polygon fill="black" stroke="black" points="993.79,-56.29 1003.35,-51.71 993.02,-49.33 993.79,-56.29"/>
</g>
<!-- 2592517716832 -->
<g id="node13" class="node">
<title>2592517716832</title>
<polygon fill="none" stroke="black" points="1065,-117 1038,-99 1065,-81 1092,-99 1065,-117"/>
<text text-anchor="middle" x="1065" y="-93.97" font-family="Times New Roman,serif" font-size="12.00">+</text>
</g>
<!-- 2592517707232&#45;&gt;2592517716832 -->
<g id="edge13" class="edge">
<title>2592517707232&#45;&gt;2592517716832</title>
<path fill="none" stroke="black" d="M969.71,-97.63C987.96,-97.89 1009.01,-98.2 1026.59,-98.46"/>
<polygon fill="black" stroke="black" points="1026.29,-101.95 1036.34,-98.6 1026.39,-94.95 1026.29,-101.95"/>
</g>
<!-- 2592517696080 -->
<g id="node12" class="node">
<title>2592517696080</title>
<polygon fill="none" stroke="black" points="1338,-109 1311,-91 1338,-73 1365,-91 1338,-109"/>
<text text-anchor="middle" x="1338" y="-85.97" font-family="Times New Roman,serif" font-size="12.00">+</text>
</g>
<!-- 2592517715920&#45;&gt;2592517696080 -->
<g id="edge14" class="edge">
<title>2592517715920&#45;&gt;2592517696080</title>
<path fill="none" stroke="black" d="M1124.96,-45.36C1167.3,-46.82 1225.41,-51.3 1275,-64 1287.62,-67.23 1300.96,-72.74 1312.01,-77.94"/>
<polygon fill="black" stroke="black" points="1310.32,-81.01 1320.84,-82.27 1313.4,-74.72 1310.32,-81.01"/>
</g>
<!-- 2592513946448 -->
<g id="node16" class="node">
<title>2592513946448</title>
<polygon fill="none" stroke="black" points="1492,-136 1407,-136 1407,-100 1492,-100 1492,-136"/>
<text text-anchor="middle" x="1449.5" y="-112.97" font-family="Times New Roman,serif" font-size="12.00">Send reminder</text>
</g>
<!-- 2592517696080&#45;&gt;2592513946448 -->
<g id="edge16" class="edge">
<title>2592517696080&#45;&gt;2592513946448</title>
<path fill="none" stroke="black" d="M1358.58,-95.83C1369.05,-98.41 1382.51,-101.73 1395.81,-105.01"/>
<polygon fill="black" stroke="black" points="1394.85,-108.38 1405.4,-107.37 1396.53,-101.58 1394.85,-108.38"/>
</g>
<!-- 2592513945296 -->
<g id="node17" class="node">
<title>2592513945296</title>
<polygon fill="none" stroke="black" points="1498,-82 1401,-82 1401,-46 1498,-46 1498,-82"/>
<text text-anchor="middle" x="1449.5" y="-58.98" font-family="Times New Roman,serif" font-size="12.00">Send instructions</text>
</g>
<!-- 2592517696080&#45;&gt;2592513945296 -->
<g id="edge15" class="edge">
<title>2592517696080&#45;&gt;2592513945296</title>
<path fill="none" stroke="black" d="M1358.58,-86.17C1367.53,-83.97 1378.65,-81.22 1389.99,-78.43"/>
<polygon fill="black" stroke="black" points="1390.53,-81.9 1399.4,-76.11 1388.85,-75.1 1390.53,-81.9"/>
</g>
<!-- 2592517696896 -->
<g id="node14" class="node">
<title>2592517696896</title>
<polygon fill="none" stroke="black" points="1275,-163 1160.75,-163 1160.75,-127 1275,-127 1275,-163"/>
<text text-anchor="middle" x="1217.88" y="-139.97" font-family="Times New Roman,serif" font-size="12.00">Send ticket via email</text>
</g>
<!-- 2592517716832&#45;&gt;2592517696896 -->
<g id="edge18" class="edge">
<title>2592517716832&#45;&gt;2592517696896</title>
<path fill="none" stroke="black" d="M1084.2,-104.55C1100.51,-109.52 1125.48,-117.14 1149.38,-124.42"/>
<polygon fill="black" stroke="black" points="1148.22,-127.73 1158.8,-127.29 1150.26,-121.03 1148.22,-127.73"/>
</g>
<!-- 2592517688592 -->
<g id="node15" class="node">
<title>2592517688592</title>
<polygon fill="none" stroke="black" points="1274.25,-109 1161.5,-109 1161.5,-73 1274.25,-73 1274.25,-109"/>
<text text-anchor="middle" x="1217.88" y="-85.97" font-family="Times New Roman,serif" font-size="12.00">Send ticket via SMS</text>
</g>
<!-- 2592517716832&#45;&gt;2592517688592 -->
<g id="edge17" class="edge">
<title>2592517716832&#45;&gt;2592517688592</title>
<path fill="none" stroke="black" d="M1090.91,-97.68C1107.02,-96.83 1128.8,-95.67 1149.72,-94.56"/>
<polygon fill="black" stroke="black" points="1149.91,-98.06 1159.71,-94.03 1149.53,-91.07 1149.91,-98.06"/>
</g>
<!-- 2592517696896&#45;&gt;2592517696080 -->
<g id="edge19" class="edge">
<title>2592517696896&#45;&gt;2592517696080</title>
<path fill="none" stroke="black" d="M1259.2,-126.57C1276.3,-118.75 1295.74,-109.86 1310.91,-102.93"/>
<polygon fill="black" stroke="black" points="1312.09,-106.23 1319.73,-98.89 1309.18,-99.87 1312.09,-106.23"/>
</g>
<!-- 2592517688592&#45;&gt;2592517696080 -->
<g id="edge20" class="edge">
<title>2592517688592&#45;&gt;2592517696080</title>
<path fill="none" stroke="black" d="M1274.48,-91C1282.74,-91 1291.1,-91 1298.9,-91"/>
<polygon fill="black" stroke="black" points="1298.7,-94.5 1308.7,-91 1298.7,-87.5 1298.7,-94.5"/>
</g>
<!-- 2592517693584 -->
<g id="node18" class="node">
<title>2592517693584</title>
<polygon fill="none" stroke="black" points="1561,-109 1534,-91 1561,-73 1588,-91 1561,-109"/>
<text text-anchor="middle" x="1561" y="-85.97" font-family="Times New Roman,serif" font-size="12.00">+</text>
</g>
<!-- 2592513946448&#45;&gt;2592517693584 -->
<g id="edge21" class="edge">
<title>2592513946448&#45;&gt;2592517693584</title>
<path fill="none" stroke="black" d="M1492.21,-107.72C1504.63,-104.65 1518,-101.36 1529.56,-98.51"/>
<polygon fill="black" stroke="black" points="1530.07,-101.99 1538.94,-96.19 1528.39,-95.19 1530.07,-101.99"/>
</g>
<!-- 2592513945296&#45;&gt;2592517693584 -->
<g id="edge22" class="edge">
<title>2592513945296&#45;&gt;2592517693584</title>
<path fill="none" stroke="black" d="M1498.21,-75.76C1508.78,-78.37 1519.71,-81.06 1529.38,-83.45"/>
<polygon fill="black" stroke="black" points="1528.43,-86.82 1538.98,-85.82 1530.1,-80.02 1528.43,-86.82"/>
</g>
<!-- 2592517696800 -->
<g id="node19" class="node">
<title>2592517696800</title>
<polygon fill="none" stroke="black" points="1775,-109 1624,-109 1624,-73 1775,-73 1775,-109"/>
<text text-anchor="middle" x="1699.5" y="-85.97" font-family="Times New Roman,serif" font-size="12.00">Customer completes journey</text>
</g>
<!-- 2592517693584&#45;&gt;2592517696800 -->
<g id="edge23" class="edge">
<title>2592517693584&#45;&gt;2592517696800</title>
<path fill="none" stroke="black" d="M1588.64,-91C1595.76,-91 1603.86,-91 1612.36,-91"/>
<polygon fill="black" stroke="black" points="1612.19,-94.5 1622.19,-91 1612.19,-87.5 1612.19,-94.5"/>
</g>
<!-- 2592517694208 -->
<g id="node20" class="node">
<title>2592517694208</title>
<polygon fill="none" stroke="black" points="1838,-109 1811,-91 1838,-73 1865,-91 1838,-109"/>
<text text-anchor="middle" x="1838" y="-85.97" font-family="Times New Roman,serif" font-size="12.00">X</text>
</g>
<!-- 2592517696800&#45;&gt;2592517694208 -->
<g id="edge24" class="edge">
<title>2592517696800&#45;&gt;2592517694208</title>
<path fill="none" stroke="black" d="M1775.14,-91C1783.29,-91 1791.32,-91 1798.76,-91"/>
<polygon fill="black" stroke="black" points="1798.74,-94.5 1808.74,-91 1798.74,-87.5 1798.74,-94.5"/>
</g>
<!-- 2592517686144 -->
<g id="node21" class="node">
<title>2592517686144</title>
<polygon fill="none" stroke="black" points="2129.25,-109 2102.25,-91 2129.25,-73 2156.25,-91 2129.25,-109"/>
<text text-anchor="middle" x="2129.25" y="-85.97" font-family="Times New Roman,serif" font-size="12.00">X</text>
</g>
<!-- 2592517694208&#45;&gt;2592517686144 -->
<g id="edge25" class="edge">
<title>2592517694208&#45;&gt;2592517686144</title>
<path fill="none" stroke="black" d="M1862.83,-92.9C1874.35,-93.72 1888.39,-94.59 1901,-95 1974.41,-97.37 1992.84,-97.37 2066.25,-95 2074.92,-94.72 2084.27,-94.22 2093,-93.67"/>
<polygon fill="black" stroke="black" points="2093.17,-97.17 2102.91,-93 2092.7,-90.18 2093.17,-97.17"/>
</g>
<!-- 2592517685712 -->
<g id="node22" class="node">
<title>2592517685712</title>
<polygon fill="none" stroke="black" points="2066.25,-86 1901,-86 1901,-50 2066.25,-50 2066.25,-86"/>
<text text-anchor="middle" x="1983.62" y="-62.98" font-family="Times New Roman,serif" font-size="12.00">Post&#45;travel feedback or services</text>
</g>
<!-- 2592517694208&#45;&gt;2592517685712 -->
<g id="edge26" class="edge">
<title>2592517694208&#45;&gt;2592517685712</title>
<path fill="none" stroke="black" d="M1860.5,-87.56C1868.69,-86.25 1878.63,-84.65 1889.27,-82.95"/>
<polygon fill="black" stroke="black" points="1889.75,-86.42 1899.07,-81.38 1888.64,-79.51 1889.75,-86.42"/>
</g>
<!-- 2592517284704 -->
<g id="node23" class="node">
<title>2592517284704</title>
<ellipse fill="orange" stroke="black" cx="2210.25" cy="-91" rx="18" ry="18"/>
</g>
<!-- 2592517686144&#45;&gt;2592517284704 -->
<g id="edge28" class="edge">
<title>2592517686144&#45;&gt;2592517284704</title>
<path fill="none" stroke="black" d="M2157,-91C2164.63,-91 2172.98,-91 2180.72,-91"/>
<polygon fill="black" stroke="black" points="2180.68,-94.5 2190.68,-91 2180.68,-87.5 2180.68,-94.5"/>
</g>
<!-- 2592517685712&#45;&gt;2592517686144 -->
<g id="edge27" class="edge">
<title>2592517685712&#45;&gt;2592517686144</title>
<path fill="none" stroke="black" d="M2066.51,-81.11C2076.73,-82.75 2086.67,-84.34 2095.49,-85.75"/>
<polygon fill="black" stroke="black" points="2094.81,-89.19 2105.23,-87.31 2095.91,-82.28 2094.81,-89.19"/>
</g>
</g>
</svg>
