<?xml version="1.0" encoding="UTF-8" standalone="no"?>
<!DOCTYPE svg PUBLIC "-//W3C//DTD SVG 1.1//EN"
 "http://www.w3.org/Graphics/SVG/1.1/DTD/svg11.dtd">
<!-- Generated by graphviz version 11.0.0 (20240428.1522)
 -->
<!-- Pages: 1 -->
<svg width="2251pt" height="206pt"
 viewBox="0.00 0.00 2251.00 206.00" xmlns="http://www.w3.org/2000/svg" xmlns:xlink="http://www.w3.org/1999/xlink">
<g id="graph0" class="graph" transform="scale(1 1) rotate(0) translate(4 202)">
<polygon fill="white" stroke="none" points="-4,4 -4,-202 2247,-202 2247,4 -4,4"/>
<!-- 2592518034864 -->
<g id="node1" class="node">
<title>2592518034864</title>
<ellipse fill="green" stroke="black" cx="18" cy="-99" rx="18" ry="18"/>
</g>
<!-- 2592518032512 -->
<g id="node2" class="node">
<title>2592518032512</title>
<polygon fill="none" stroke="black" points="237.25,-117 72,-117 72,-81 237.25,-81 237.25,-117"/>
<text text-anchor="middle" x="154.62" y="-93.97" font-family="Times New Roman,serif" font-size="12.00">Post&#45;travel feedback or services</text>
</g>
<!-- 2592518034864&#45;&gt;2592518032512 -->
<g id="edge1" class="edge">
<title>2592518034864&#45;&gt;2592518032512</title>
<path fill="none" stroke="black" d="M36.32,-99C43.09,-99 51.4,-99 60.44,-99"/>
<polygon fill="black" stroke="black" points="60.27,-102.5 70.27,-99 60.27,-95.5 60.27,-102.5"/>
</g>
<!-- 2592518035632 -->
<g id="node3" class="node">
<title>2592518035632</title>
<polygon fill="none" stroke="black" points="424.25,-117 273.25,-117 273.25,-81 424.25,-81 424.25,-117"/>
<text text-anchor="middle" x="348.75" y="-93.97" font-family="Times New Roman,serif" font-size="12.00">Customer completes journey</text>
</g>
<!-- 2592518032512&#45;&gt;2592518035632 -->
<g id="edge2" class="edge">
<title>2592518032512&#45;&gt;2592518035632</title>
<path fill="none" stroke="black" d="M237.66,-99C245.54,-99 253.55,-99 261.47,-99"/>
<polygon fill="black" stroke="black" points="261.47,-102.5 271.47,-99 261.47,-95.5 261.47,-102.5"/>
</g>
<!-- 2592518036064 -->
<g id="node4" class="node">
<title>2592518036064</title>
<polygon fill="none" stroke="black" points="487.25,-117 460.25,-99 487.25,-81 514.25,-99 487.25,-117"/>
<text text-anchor="middle" x="487.25" y="-93.97" font-family="Times New Roman,serif" font-size="12.00">+</text>
</g>
<!-- 2592518035632&#45;&gt;2592518036064 -->
<g id="edge3" class="edge">
<title>2592518035632&#45;&gt;2592518036064</title>
<path fill="none" stroke="black" d="M424.39,-99C432.54,-99 440.57,-99 448.01,-99"/>
<polygon fill="black" stroke="black" points="447.99,-102.5 457.99,-99 447.99,-95.5 447.99,-102.5"/>
</g>
<!-- 2592518044320 -->
<g id="node5" class="node">
<title>2592518044320</title>
<polygon fill="none" stroke="black" points="577.25,-144 550.25,-126 577.25,-108 604.25,-126 577.25,-144"/>
<text text-anchor="middle" x="577.25" y="-120.97" font-family="Times New Roman,serif" font-size="12.00">X</text>
</g>
<!-- 2592518036064&#45;&gt;2592518044320 -->
<g id="edge4" class="edge">
<title>2592518036064&#45;&gt;2592518044320</title>
<path fill="none" stroke="black" d="M506.48,-104.59C518.28,-108.21 533.9,-113.01 547.36,-117.14"/>
<polygon fill="black" stroke="black" points="546.01,-120.38 556.59,-119.97 548.06,-113.69 546.01,-120.38"/>
</g>
<!-- 2592518039568 -->
<g id="node6" class="node">
<title>2592518039568</title>
<polygon fill="none" stroke="black" points="577.25,-90 550.25,-72 577.25,-54 604.25,-72 577.25,-90"/>
<text text-anchor="middle" x="577.25" y="-66.97" font-family="Times New Roman,serif" font-size="12.00">X</text>
</g>
<!-- 2592518036064&#45;&gt;2592518039568 -->
<g id="edge5" class="edge">
<title>2592518036064&#45;&gt;2592518039568</title>
<path fill="none" stroke="black" d="M506.48,-93.41C518.28,-89.79 533.9,-84.99 547.36,-80.86"/>
<polygon fill="black" stroke="black" points="548.06,-84.31 556.59,-78.03 546.01,-77.62 548.06,-84.31"/>
</g>
<!-- 2592518038656 -->
<g id="node8" class="node">
<title>2592518038656</title>
<polygon fill="none" stroke="black" points="731.25,-186 646.25,-186 646.25,-150 731.25,-150 731.25,-186"/>
<text text-anchor="middle" x="688.75" y="-162.97" font-family="Times New Roman,serif" font-size="12.00">Send reminder</text>
</g>
<!-- 2592518044320&#45;&gt;2592518038656 -->
<g id="edge6" class="edge">
<title>2592518044320&#45;&gt;2592518038656</title>
<path fill="none" stroke="black" d="M594.88,-132.38C605.76,-136.55 620.63,-142.25 635.28,-147.87"/>
<polygon fill="black" stroke="black" points="633.84,-151.07 644.43,-151.39 636.35,-144.54 633.84,-151.07"/>
</g>
<!-- 2592518039616 -->
<g id="node7" class="node">
<title>2592518039616</title>
<polygon fill="none" stroke="black" points="737.25,-92 640.25,-92 640.25,-56 737.25,-56 737.25,-92"/>
<text text-anchor="middle" x="688.75" y="-68.97" font-family="Times New Roman,serif" font-size="12.00">Send instructions</text>
</g>
<!-- 2592518039568&#45;&gt;2592518039616 -->
<g id="edge7" class="edge">
<title>2592518039568&#45;&gt;2592518039616</title>
<path fill="none" stroke="black" d="M604.2,-72.47C611.68,-72.61 620.15,-72.77 628.77,-72.92"/>
<polygon fill="black" stroke="black" points="628.53,-76.42 638.59,-73.1 628.66,-69.42 628.53,-76.42"/>
</g>
<!-- 2592518039760 -->
<g id="node10" class="node">
<title>2592518039760</title>
<polygon fill="none" stroke="black" points="800.25,-90 773.25,-72 800.25,-54 827.25,-72 800.25,-90"/>
<text text-anchor="middle" x="800.25" y="-66.97" font-family="Times New Roman,serif" font-size="12.00">X</text>
</g>
<!-- 2592518039616&#45;&gt;2592518039760 -->
<g id="edge8" class="edge">
<title>2592518039616&#45;&gt;2592518039760</title>
<path fill="none" stroke="black" d="M737.46,-73.13C745.65,-72.98 754.05,-72.83 761.92,-72.68"/>
<polygon fill="black" stroke="black" points="761.91,-76.18 771.84,-72.5 761.78,-69.18 761.91,-76.18"/>
</g>
<!-- 2592518030256 -->
<g id="node9" class="node">
<title>2592518030256</title>
<polygon fill="none" stroke="black" points="800.25,-144 773.25,-126 800.25,-108 827.25,-126 800.25,-144"/>
<text text-anchor="middle" x="800.25" y="-120.97" font-family="Times New Roman,serif" font-size="12.00">X</text>
</g>
<!-- 2592518038656&#45;&gt;2592518030256 -->
<g id="edge9" class="edge">
<title>2592518038656&#45;&gt;2592518030256</title>
<path fill="none" stroke="black" d="M731.46,-152C744.97,-146.82 759.61,-141.2 771.81,-136.52"/>
<polygon fill="black" stroke="black" points="772.74,-139.92 780.82,-133.07 770.23,-133.38 772.74,-139.92"/>
</g>
<!-- 2592518030256&#45;&gt;2592518044320 -->
<g id="edge10" class="edge">
<title>2592518030256&#45;&gt;2592518044320</title>
<path fill="none" stroke="black" d="M772.5,-126C733.53,-126 660.97,-126 616.41,-126"/>
<polygon fill="black" stroke="black" points="616.42,-122.5 606.42,-126 616.42,-129.5 616.42,-122.5"/>
</g>
<!-- 2592518037984 -->
<g id="node11" class="node">
<title>2592518037984</title>
<polygon fill="none" stroke="black" points="890.25,-144 863.25,-126 890.25,-108 917.25,-126 890.25,-144"/>
<text text-anchor="middle" x="890.25" y="-120.97" font-family="Times New Roman,serif" font-size="12.00">+</text>
</g>
<!-- 2592518030256&#45;&gt;2592518037984 -->
<g id="edge12" class="edge">
<title>2592518030256&#45;&gt;2592518037984</title>
<path fill="none" stroke="black" d="M828.13,-126C835.38,-126 843.37,-126 851.1,-126"/>
<polygon fill="black" stroke="black" points="851.02,-129.5 861.02,-126 851.02,-122.5 851.02,-129.5"/>
</g>
<!-- 2592518039760&#45;&gt;2592518039568 -->
<g id="edge11" class="edge">
<title>2592518039760&#45;&gt;2592518039568</title>
<path fill="none" stroke="black" d="M784.46,-64.15C772.2,-58.12 754.11,-50.27 737.25,-47 694.93,-38.79 682.57,-38.79 640.25,-47 627.6,-49.45 614.27,-54.48 603.22,-59.39"/>
<polygon fill="black" stroke="black" points="601.98,-56.1 594.41,-63.51 604.95,-62.44 601.98,-56.1"/>
</g>
<!-- 2592518035200 -->
<g id="node12" class="node">
<title>2592518035200</title>
<polygon fill="none" stroke="black" points="890.25,-90 863.25,-72 890.25,-54 917.25,-72 890.25,-90"/>
<text text-anchor="middle" x="890.25" y="-66.97" font-family="Times New Roman,serif" font-size="12.00">+</text>
</g>
<!-- 2592518039760&#45;&gt;2592518035200 -->
<g id="edge13" class="edge">
<title>2592518039760&#45;&gt;2592518035200</title>
<path fill="none" stroke="black" d="M828.13,-72C835.38,-72 843.37,-72 851.1,-72"/>
<polygon fill="black" stroke="black" points="851.02,-75.5 861.02,-72 851.02,-68.5 851.02,-75.5"/>
</g>
<!-- 2592518036640 -->
<g id="node13" class="node">
<title>2592518036640</title>
<polygon fill="none" stroke="black" points="980.25,-144 953.25,-126 980.25,-108 1007.25,-126 980.25,-144"/>
<text text-anchor="middle" x="980.25" y="-120.97" font-family="Times New Roman,serif" font-size="12.00">+</text>
</g>
<!-- 2592518037984&#45;&gt;2592518036640 -->
<g id="edge15" class="edge">
<title>2592518037984&#45;&gt;2592518036640</title>
<path fill="none" stroke="black" d="M918.13,-126C925.38,-126 933.37,-126 941.1,-126"/>
<polygon fill="black" stroke="black" points="941.02,-129.5 951.02,-126 941.02,-122.5 941.02,-129.5"/>
</g>
<!-- 2592518036592 -->
<g id="node14" class="node">
<title>2592518036592</title>
<polygon fill="none" stroke="black" points="980.25,-90 953.25,-72 980.25,-54 1007.25,-72 980.25,-90"/>
<text text-anchor="middle" x="980.25" y="-66.97" font-family="Times New Roman,serif" font-size="12.00">+</text>
</g>
<!-- 2592518037984&#45;&gt;2592518036592 -->
<g id="edge14" class="edge">
<title>2592518037984&#45;&gt;2592518036592</title>
<path fill="none" stroke="black" d="M905,-117.56C918.61,-109.21 939.71,-96.27 955.94,-86.3"/>
<polygon fill="black" stroke="black" points="957.32,-89.56 964.02,-81.35 953.66,-83.6 957.32,-89.56"/>
</g>
<!-- 2592518035200&#45;&gt;2592518036640 -->
<g id="edge17" class="edge">
<title>2592518035200&#45;&gt;2592518036640</title>
<path fill="none" stroke="black" d="M905,-80.44C918.61,-88.79 939.71,-101.73 955.94,-111.7"/>
<polygon fill="black" stroke="black" points="953.66,-114.4 964.02,-116.65 957.32,-108.44 953.66,-114.4"/>
</g>
<!-- 2592518035200&#45;&gt;2592518036592 -->
<g id="edge16" class="edge">
<title>2592518035200&#45;&gt;2592518036592</title>
<path fill="none" stroke="black" d="M918.13,-72C925.38,-72 933.37,-72 941.1,-72"/>
<polygon fill="black" stroke="black" points="941.02,-75.5 951.02,-72 941.02,-68.5 941.02,-75.5"/>
</g>
<!-- 2592518036544 -->
<g id="node16" class="node">
<title>2592518036544</title>
<polygon fill="none" stroke="black" points="1403,-144 1283.5,-144 1283.5,-108 1403,-108 1403,-144"/>
<text text-anchor="middle" x="1343.25" y="-120.97" font-family="Times New Roman,serif" font-size="12.00">Update seat inventory</text>
</g>
<!-- 2592518036640&#45;&gt;2592518036544 -->
<g id="edge18" class="edge">
<title>2592518036640&#45;&gt;2592518036544</title>
<path fill="none" stroke="black" d="M1008.09,-126C1063.41,-126 1191.69,-126 1272.25,-126"/>
<polygon fill="black" stroke="black" points="1271.77,-129.5 1281.77,-126 1271.77,-122.5 1271.77,-129.5"/>
</g>
<!-- 2592518029968 -->
<g id="node15" class="node">
<title>2592518029968</title>
<polygon fill="none" stroke="black" points="1070.25,-90 1043.25,-72 1070.25,-54 1097.25,-72 1070.25,-90"/>
<text text-anchor="middle" x="1070.25" y="-66.97" font-family="Times New Roman,serif" font-size="12.00">X</text>
</g>
<!-- 2592518036592&#45;&gt;2592518029968 -->
<g id="edge19" class="edge">
<title>2592518036592&#45;&gt;2592518029968</title>
<path fill="none" stroke="black" d="M1008.13,-72C1015.38,-72 1023.37,-72 1031.1,-72"/>
<polygon fill="black" stroke="black" points="1031.02,-75.5 1041.02,-72 1031.02,-68.5 1031.02,-75.5"/>
</g>
<!-- 2592518037936 -->
<g id="node18" class="node">
<title>2592518037936</title>
<polygon fill="none" stroke="black" points="1246.75,-94 1134,-94 1134,-58 1246.75,-58 1246.75,-94"/>
<text text-anchor="middle" x="1190.38" y="-70.97" font-family="Times New Roman,serif" font-size="12.00">Send ticket via SMS</text>
</g>
<!-- 2592518029968&#45;&gt;2592518037936 -->
<g id="edge20" class="edge">
<title>2592518029968&#45;&gt;2592518037936</title>
<path fill="none" stroke="black" d="M1096.59,-72.86C1104.4,-73.12 1113.39,-73.43 1122.63,-73.74"/>
<polygon fill="black" stroke="black" points="1122.35,-77.23 1132.46,-74.07 1122.59,-70.24 1122.35,-77.23"/>
</g>
<!-- 2592518037456 -->
<g id="node19" class="node">
<title>2592518037456</title>
<polygon fill="none" stroke="black" points="1247.5,-40 1133.25,-40 1133.25,-4 1247.5,-4 1247.5,-40"/>
<text text-anchor="middle" x="1190.38" y="-16.98" font-family="Times New Roman,serif" font-size="12.00">Send ticket via email</text>
</g>
<!-- 2592518029968&#45;&gt;2592518037456 -->
<g id="edge21" class="edge">
<title>2592518029968&#45;&gt;2592518037456</title>
<path fill="none" stroke="black" d="M1087.67,-65.05C1100.23,-59.73 1118.3,-52.08 1135.73,-44.71"/>
<polygon fill="black" stroke="black" points="1136.64,-48.12 1144.48,-41 1133.91,-41.68 1136.64,-48.12"/>
</g>
<!-- 2592518039664 -->
<g id="node17" class="node">
<title>2592518039664</title>
<polygon fill="none" stroke="black" points="1466,-117 1439,-99 1466,-81 1493,-99 1466,-117"/>
<text text-anchor="middle" x="1466" y="-93.97" font-family="Times New Roman,serif" font-size="12.00">+</text>
</g>
<!-- 2592518036544&#45;&gt;2592518039664 -->
<g id="edge22" class="edge">
<title>2592518036544&#45;&gt;2592518039664</title>
<path fill="none" stroke="black" d="M1403.21,-112.82C1413.82,-110.44 1424.48,-108.06 1433.9,-105.95"/>
<polygon fill="black" stroke="black" points="1434.58,-109.39 1443.58,-103.79 1433.05,-102.56 1434.58,-109.39"/>
</g>
<!-- 2592518039520 -->
<g id="node21" class="node">
<title>2592518039520</title>
<polygon fill="none" stroke="black" points="1616.25,-117 1529,-117 1529,-81 1616.25,-81 1616.25,-117"/>
<text text-anchor="middle" x="1572.62" y="-93.97" font-family="Times New Roman,serif" font-size="12.00">Generate ticket</text>
</g>
<!-- 2592518039664&#45;&gt;2592518039520 -->
<g id="edge23" class="edge">
<title>2592518039664&#45;&gt;2592518039520</title>
<path fill="none" stroke="black" d="M1493.67,-99C1501,-99 1509.21,-99 1517.49,-99"/>
<polygon fill="black" stroke="black" points="1517.23,-102.5 1527.23,-99 1517.23,-95.5 1517.23,-102.5"/>
</g>
<!-- 2592518043600 -->
<g id="node20" class="node">
<title>2592518043600</title>
<polygon fill="none" stroke="black" points="1343.25,-90 1316.25,-72 1343.25,-54 1370.25,-72 1343.25,-90"/>
<text text-anchor="middle" x="1343.25" y="-66.97" font-family="Times New Roman,serif" font-size="12.00">X</text>
</g>
<!-- 2592518037936&#45;&gt;2592518043600 -->
<g id="edge24" class="edge">
<title>2592518037936&#45;&gt;2592518043600</title>
<path fill="none" stroke="black" d="M1247.13,-74.52C1266.5,-74.01 1287.73,-73.45 1305.21,-72.98"/>
<polygon fill="black" stroke="black" points="1305.23,-76.48 1315.13,-72.72 1305.04,-69.49 1305.23,-76.48"/>
</g>
<!-- 2592518037456&#45;&gt;2592518043600 -->
<g id="edge25" class="edge">
<title>2592518037456&#45;&gt;2592518043600</title>
<path fill="none" stroke="black" d="M1247.13,-40.48C1269.79,-47.99 1295,-56.34 1313.77,-62.56"/>
<polygon fill="black" stroke="black" points="1312.51,-65.83 1323.11,-65.66 1314.72,-59.19 1312.51,-65.83"/>
</g>
<!-- 2592518043600&#45;&gt;2592518039664 -->
<g id="edge26" class="edge">
<title>2592518043600&#45;&gt;2592518039664</title>
<path fill="none" stroke="black" d="M1364.19,-76.46C1383.15,-80.7 1411.97,-87.14 1433.94,-92.06"/>
<polygon fill="black" stroke="black" points="1433.03,-95.44 1443.55,-94.2 1434.56,-88.61 1433.03,-95.44"/>
</g>
<!-- 2592518040480 -->
<g id="node22" class="node">
<title>2592518040480</title>
<polygon fill="none" stroke="black" points="1679.25,-117 1652.25,-99 1679.25,-81 1706.25,-99 1679.25,-117"/>
<text text-anchor="middle" x="1679.25" y="-93.97" font-family="Times New Roman,serif" font-size="12.00">+</text>
</g>
<!-- 2592518039520&#45;&gt;2592518040480 -->
<g id="edge27" class="edge">
<title>2592518039520&#45;&gt;2592518040480</title>
<path fill="none" stroke="black" d="M1616.48,-99C1624.35,-99 1632.52,-99 1640.23,-99"/>
<polygon fill="black" stroke="black" points="1639.99,-102.5 1649.99,-99 1639.99,-95.5 1639.99,-102.5"/>
</g>
<!-- 2592518038800 -->
<g id="node23" class="node">
<title>2592518038800</title>
<polygon fill="none" stroke="black" points="1883.5,-198 1754.25,-198 1754.25,-162 1883.5,-162 1883.5,-198"/>
<text text-anchor="middle" x="1818.88" y="-174.97" font-family="Times New Roman,serif" font-size="12.00">Provide payment details</text>
</g>
<!-- 2592518040480&#45;&gt;2592518038800 -->
<g id="edge29" class="edge">
<title>2592518040480&#45;&gt;2592518038800</title>
<path fill="none" stroke="black" d="M1690.27,-109.89C1701.8,-121.88 1721.8,-141.03 1742.25,-153 1744.53,-154.34 1746.89,-155.62 1749.31,-156.86"/>
<polygon fill="black" stroke="black" points="1747.57,-159.91 1758.1,-161.02 1750.56,-153.58 1747.57,-159.91"/>
</g>
<!-- 2592518037648 -->
<g id="node24" class="node">
<title>2592518037648</title>
<polygon fill="none" stroke="black" points="1854.62,-144 1783.12,-144 1783.12,-108 1854.62,-108 1854.62,-144"/>
<text text-anchor="middle" x="1818.88" y="-120.97" font-family="Times New Roman,serif" font-size="12.00">Select route</text>
</g>
<!-- 2592518040480&#45;&gt;2592518037648 -->
<g id="edge28" class="edge">
<title>2592518040480&#45;&gt;2592518037648</title>
<path fill="none" stroke="black" d="M1700.85,-103.04C1719.5,-106.7 1747.63,-112.22 1771.64,-116.93"/>
<polygon fill="black" stroke="black" points="1770.71,-120.31 1781.19,-118.8 1772.05,-113.44 1770.71,-120.31"/>
</g>
<!-- 2592518036448 -->
<g id="node25" class="node">
<title>2592518036448</title>
<polygon fill="none" stroke="black" points="1895.5,-90 1742.25,-90 1742.25,-54 1895.5,-54 1895.5,-90"/>
<text text-anchor="middle" x="1818.88" y="-66.97" font-family="Times New Roman,serif" font-size="12.00">Provide personal information</text>
</g>
<!-- 2592518040480&#45;&gt;2592518036448 -->
<g id="edge30" class="edge">
<title>2592518040480&#45;&gt;2592518036448</title>
<path fill="none" stroke="black" d="M1700.85,-94.96C1709.29,-93.3 1719.67,-91.27 1730.73,-89.1"/>
<polygon fill="black" stroke="black" points="1731.34,-92.54 1740.48,-87.18 1730,-85.67 1731.34,-92.54"/>
</g>
<!-- 2592518035104 -->
<g id="node26" class="node">
<title>2592518035104</title>
<polygon fill="none" stroke="black" points="1874.12,-36 1763.62,-36 1763.62,0 1874.12,0 1874.12,-36"/>
<text text-anchor="middle" x="1818.88" y="-12.97" font-family="Times New Roman,serif" font-size="12.00">Select date and time</text>
</g>
<!-- 2592518040480&#45;&gt;2592518035104 -->
<g id="edge31" class="edge">
<title>2592518040480&#45;&gt;2592518035104</title>
<path fill="none" stroke="black" d="M1690.27,-88.11C1701.8,-76.12 1721.8,-56.97 1742.25,-45 1745.77,-42.94 1749.46,-41 1753.26,-39.18"/>
<polygon fill="black" stroke="black" points="1754.37,-42.52 1762.08,-35.25 1751.52,-36.12 1754.37,-42.52"/>
</g>
<!-- 2592518037360 -->
<g id="node27" class="node">
<title>2592518037360</title>
<polygon fill="none" stroke="black" points="1958.5,-117 1931.5,-99 1958.5,-81 1985.5,-99 1958.5,-117"/>
<text text-anchor="middle" x="1958.5" y="-93.97" font-family="Times New Roman,serif" font-size="12.00">+</text>
</g>
<!-- 2592518038800&#45;&gt;2592518037360 -->
<g id="edge32" class="edge">
<title>2592518038800&#45;&gt;2592518037360</title>
<path fill="none" stroke="black" d="M1878.28,-161.67C1884.24,-159.06 1890.09,-156.17 1895.5,-153 1911.79,-143.46 1927.8,-129.36 1939.47,-117.96"/>
<polygon fill="black" stroke="black" points="1941.85,-120.53 1946.41,-110.96 1936.89,-115.6 1941.85,-120.53"/>
</g>
<!-- 2592518037648&#45;&gt;2592518037360 -->
<g id="edge33" class="edge">
<title>2592518037648&#45;&gt;2592518037360</title>
<path fill="none" stroke="black" d="M1854.96,-119.12C1876.76,-114.84 1904.57,-109.38 1925.72,-105.23"/>
<polygon fill="black" stroke="black" points="1926.39,-108.67 1935.53,-103.31 1925.04,-101.8 1926.39,-108.67"/>
</g>
<!-- 2592518036448&#45;&gt;2592518037360 -->
<g id="edge34" class="edge">
<title>2592518036448&#45;&gt;2592518037360</title>
<path fill="none" stroke="black" d="M1895.93,-86.92C1906.39,-88.97 1916.63,-90.98 1925.66,-92.75"/>
<polygon fill="black" stroke="black" points="1924.77,-96.15 1935.26,-94.64 1926.12,-89.28 1924.77,-96.15"/>
</g>
<!-- 2592518035104&#45;&gt;2592518037360 -->
<g id="edge35" class="edge">
<title>2592518035104&#45;&gt;2592518037360</title>
<path fill="none" stroke="black" d="M1874.29,-34.63C1881.62,-37.67 1888.88,-41.13 1895.5,-45 1911.79,-54.54 1927.8,-68.64 1939.47,-80.04"/>
<polygon fill="black" stroke="black" points="1936.89,-82.4 1946.41,-87.04 1941.85,-77.47 1936.89,-82.4"/>
</g>
<!-- 2592518036832 -->
<g id="node28" class="node">
<title>2592518036832</title>
<polygon fill="none" stroke="black" points="2171,-117 2021.5,-117 2021.5,-81 2171,-81 2171,-117"/>
<text text-anchor="middle" x="2096.25" y="-93.97" font-family="Times New Roman,serif" font-size="12.00">Customer searches for ticket</text>
</g>
<!-- 2592518037360&#45;&gt;2592518036832 -->
<g id="edge36" class="edge">
<title>2592518037360&#45;&gt;2592518036832</title>
<path fill="none" stroke="black" d="M1986.32,-99C1993.41,-99 2001.46,-99 2009.9,-99"/>
<polygon fill="black" stroke="black" points="2009.65,-102.5 2019.65,-99 2009.65,-95.5 2009.65,-102.5"/>
</g>
<!-- 2592518033904 -->
<g id="node29" class="node">
<title>2592518033904</title>
<ellipse fill="orange" stroke="black" cx="2225" cy="-99" rx="18" ry="18"/>
</g>
<!-- 2592518036832&#45;&gt;2592518033904 -->
<g id="edge37" class="edge">
<title>2592518036832&#45;&gt;2592518033904</title>
<path fill="none" stroke="black" d="M2171.35,-99C2179.82,-99 2188.02,-99 2195.33,-99"/>
<polygon fill="black" stroke="black" points="2195.18,-102.5 2205.18,-99 2195.18,-95.5 2195.18,-102.5"/>
</g>
</g>
</svg>
