<?xml version="1.0" encoding="UTF-8" standalone="no"?>
<!DOCTYPE svg PUBLIC "-//W3C//DTD SVG 1.1//EN"
 "http://www.w3.org/Graphics/SVG/1.1/DTD/svg11.dtd">
<!-- Generated by graphviz version 11.0.0 (20240428.1522)
 -->
<!-- Pages: 1 -->
<svg width="2265pt" height="152pt"
 viewBox="0.00 0.00 2264.75 152.00" xmlns="http://www.w3.org/2000/svg" xmlns:xlink="http://www.w3.org/1999/xlink">
<g id="graph0" class="graph" transform="scale(1 1) rotate(0) translate(4 148)">
<polygon fill="white" stroke="none" points="-4,4 -4,-148 2260.75,-148 2260.75,4 -4,4"/>
<!-- 2592518280912 -->
<g id="node1" class="node">
<title>2592518280912</title>
<ellipse fill="green" stroke="black" cx="18" cy="-72" rx="18" ry="18"/>
</g>
<!-- 2592518284368 -->
<g id="node2" class="node">
<title>2592518284368</title>
<polygon fill="none" stroke="black" points="221.5,-90 72,-90 72,-54 221.5,-54 221.5,-90"/>
<text text-anchor="middle" x="146.75" y="-66.97" font-family="Times New Roman,serif" font-size="12.00">Customer searches for ticket</text>
</g>
<!-- 2592518280912&#45;&gt;2592518284368 -->
<g id="edge1" class="edge">
<title>2592518280912&#45;&gt;2592518284368</title>
<path fill="none" stroke="black" d="M36.36,-72C43.15,-72 51.48,-72 60.48,-72"/>
<polygon fill="black" stroke="black" points="60.22,-75.5 70.22,-72 60.22,-68.5 60.22,-75.5"/>
</g>
<!-- 2592518289264 -->
<g id="node3" class="node">
<title>2592518289264</title>
<polygon fill="none" stroke="black" points="329,-90 257.5,-90 257.5,-54 329,-54 329,-90"/>
<text text-anchor="middle" x="293.25" y="-66.97" font-family="Times New Roman,serif" font-size="12.00">Select route</text>
</g>
<!-- 2592518284368&#45;&gt;2592518289264 -->
<g id="edge2" class="edge">
<title>2592518284368&#45;&gt;2592518289264</title>
<path fill="none" stroke="black" d="M221.69,-72C229.9,-72 238.08,-72 245.8,-72"/>
<polygon fill="black" stroke="black" points="245.61,-75.5 255.61,-72 245.61,-68.5 245.61,-75.5"/>
</g>
<!-- 2592518289408 -->
<g id="node4" class="node">
<title>2592518289408</title>
<polygon fill="none" stroke="black" points="475.5,-90 365,-90 365,-54 475.5,-54 475.5,-90"/>
<text text-anchor="middle" x="420.25" y="-66.97" font-family="Times New Roman,serif" font-size="12.00">Select date and time</text>
</g>
<!-- 2592518289264&#45;&gt;2592518289408 -->
<g id="edge3" class="edge">
<title>2592518289264&#45;&gt;2592518289408</title>
<path fill="none" stroke="black" d="M329.4,-72C336.95,-72 345.16,-72 353.44,-72"/>
<polygon fill="black" stroke="black" points="353.22,-75.5 363.22,-72 353.22,-68.5 353.22,-75.5"/>
</g>
<!-- 2592518289696 -->
<g id="node5" class="node">
<title>2592518289696</title>
<polygon fill="none" stroke="black" points="538.5,-90 511.5,-72 538.5,-54 565.5,-72 538.5,-90"/>
<text text-anchor="middle" x="538.5" y="-66.97" font-family="Times New Roman,serif" font-size="12.00">+</text>
</g>
<!-- 2592518289408&#45;&gt;2592518289696 -->
<g id="edge4" class="edge">
<title>2592518289408&#45;&gt;2592518289696</title>
<path fill="none" stroke="black" d="M475.97,-72C483.93,-72 491.98,-72 499.51,-72"/>
<polygon fill="black" stroke="black" points="499.32,-75.5 509.32,-72 499.32,-68.5 499.32,-75.5"/>
</g>
<!-- 2592518286336 -->
<g id="node6" class="node">
<title>2592518286336</title>
<polygon fill="none" stroke="black" points="754.75,-117 601.5,-117 601.5,-81 754.75,-81 754.75,-117"/>
<text text-anchor="middle" x="678.12" y="-93.97" font-family="Times New Roman,serif" font-size="12.00">Provide personal information</text>
</g>
<!-- 2592518289696&#45;&gt;2592518286336 -->
<g id="edge6" class="edge">
<title>2592518289696&#45;&gt;2592518286336</title>
<path fill="none" stroke="black" d="M560.1,-76.04C568.54,-77.7 578.92,-79.73 589.98,-81.9"/>
<polygon fill="black" stroke="black" points="589.25,-85.33 599.73,-83.82 590.59,-78.46 589.25,-85.33"/>
</g>
<!-- 2592518285040 -->
<g id="node7" class="node">
<title>2592518285040</title>
<polygon fill="none" stroke="black" points="742.75,-63 613.5,-63 613.5,-27 742.75,-27 742.75,-63"/>
<text text-anchor="middle" x="678.12" y="-39.98" font-family="Times New Roman,serif" font-size="12.00">Provide payment details</text>
</g>
<!-- 2592518289696&#45;&gt;2592518285040 -->
<g id="edge5" class="edge">
<title>2592518289696&#45;&gt;2592518285040</title>
<path fill="none" stroke="black" d="M560.1,-67.96C571.51,-65.72 586.46,-62.79 601.85,-59.77"/>
<polygon fill="black" stroke="black" points="602.47,-63.21 611.6,-57.85 601.12,-56.34 602.47,-63.21"/>
</g>
<!-- 2592518289504 -->
<g id="node8" class="node">
<title>2592518289504</title>
<polygon fill="none" stroke="black" points="817.75,-90 790.75,-72 817.75,-54 844.75,-72 817.75,-90"/>
<text text-anchor="middle" x="817.75" y="-66.97" font-family="Times New Roman,serif" font-size="12.00">+</text>
</g>
<!-- 2592518286336&#45;&gt;2592518289504 -->
<g id="edge7" class="edge">
<title>2592518286336&#45;&gt;2592518289504</title>
<path fill="none" stroke="black" d="M755.18,-84.08C765.64,-82.03 775.88,-80.02 784.91,-78.25"/>
<polygon fill="black" stroke="black" points="785.37,-81.72 794.51,-76.36 784.02,-74.85 785.37,-81.72"/>
</g>
<!-- 2592518285040&#45;&gt;2592518289504 -->
<g id="edge8" class="edge">
<title>2592518285040&#45;&gt;2592518289504</title>
<path fill="none" stroke="black" d="M743.1,-57.55C757.68,-60.41 772.54,-63.33 785.07,-65.78"/>
<polygon fill="black" stroke="black" points="784.3,-69.2 794.79,-67.69 785.65,-62.33 784.3,-69.2"/>
</g>
<!-- 2592518288736 -->
<g id="node9" class="node">
<title>2592518288736</title>
<polygon fill="none" stroke="black" points="968,-90 880.75,-90 880.75,-54 968,-54 968,-90"/>
<text text-anchor="middle" x="924.38" y="-66.97" font-family="Times New Roman,serif" font-size="12.00">Generate ticket</text>
</g>
<!-- 2592518289504&#45;&gt;2592518288736 -->
<g id="edge9" class="edge">
<title>2592518289504&#45;&gt;2592518288736</title>
<path fill="none" stroke="black" d="M845.42,-72C852.75,-72 860.96,-72 869.24,-72"/>
<polygon fill="black" stroke="black" points="868.98,-75.5 878.98,-72 868.98,-68.5 868.98,-75.5"/>
</g>
<!-- 2592518289360 -->
<g id="node10" class="node">
<title>2592518289360</title>
<polygon fill="none" stroke="black" points="1031,-90 1004,-72 1031,-54 1058,-72 1031,-90"/>
<text text-anchor="middle" x="1031" y="-66.97" font-family="Times New Roman,serif" font-size="12.00">+</text>
</g>
<!-- 2592518288736&#45;&gt;2592518289360 -->
<g id="edge10" class="edge">
<title>2592518288736&#45;&gt;2592518289360</title>
<path fill="none" stroke="black" d="M968.23,-72C976.1,-72 984.27,-72 991.98,-72"/>
<polygon fill="black" stroke="black" points="991.74,-75.5 1001.74,-72 991.74,-68.5 991.74,-75.5"/>
</g>
<!-- 2592518280768 -->
<g id="node11" class="node">
<title>2592518280768</title>
<polygon fill="none" stroke="black" points="1210.88,-144 1096.62,-144 1096.62,-108 1210.88,-108 1210.88,-144"/>
<text text-anchor="middle" x="1153.75" y="-120.97" font-family="Times New Roman,serif" font-size="12.00">Send ticket via email</text>
</g>
<!-- 2592518289360&#45;&gt;2592518280768 -->
<g id="edge12" class="edge">
<title>2592518289360&#45;&gt;2592518280768</title>
<path fill="none" stroke="black" d="M1047.79,-79.06C1061.38,-85.14 1081.78,-94.26 1101,-102.86"/>
<polygon fill="black" stroke="black" points="1099.56,-106.05 1110.12,-106.94 1102.42,-99.66 1099.56,-106.05"/>
</g>
<!-- 2592518286048 -->
<g id="node12" class="node">
<title>2592518286048</title>
<polygon fill="none" stroke="black" points="1210.12,-90 1097.38,-90 1097.38,-54 1210.12,-54 1210.12,-90"/>
<text text-anchor="middle" x="1153.75" y="-66.97" font-family="Times New Roman,serif" font-size="12.00">Send ticket via SMS</text>
</g>
<!-- 2592518289360&#45;&gt;2592518286048 -->
<g id="edge11" class="edge">
<title>2592518289360&#45;&gt;2592518286048</title>
<path fill="none" stroke="black" d="M1058.8,-72C1066.99,-72 1076.39,-72 1086,-72"/>
<polygon fill="black" stroke="black" points="1085.82,-75.5 1095.82,-72 1085.82,-68.5 1085.82,-75.5"/>
</g>
<!-- 2592518290368 -->
<g id="node13" class="node">
<title>2592518290368</title>
<polygon fill="none" stroke="black" points="1213.5,-36 1094,-36 1094,0 1213.5,0 1213.5,-36"/>
<text text-anchor="middle" x="1153.75" y="-12.97" font-family="Times New Roman,serif" font-size="12.00">Update seat inventory</text>
</g>
<!-- 2592518289360&#45;&gt;2592518290368 -->
<g id="edge13" class="edge">
<title>2592518289360&#45;&gt;2592518290368</title>
<path fill="none" stroke="black" d="M1047.79,-64.94C1061.38,-58.86 1081.78,-49.74 1101,-41.14"/>
<polygon fill="black" stroke="black" points="1102.42,-44.34 1110.12,-37.06 1099.56,-37.95 1102.42,-44.34"/>
</g>
<!-- 2592518291088 -->
<g id="node14" class="node">
<title>2592518291088</title>
<polygon fill="none" stroke="black" points="1276.5,-144 1249.5,-126 1276.5,-108 1303.5,-126 1276.5,-144"/>
<text text-anchor="middle" x="1276.5" y="-120.97" font-family="Times New Roman,serif" font-size="12.00">+</text>
</g>
<!-- 2592518280768&#45;&gt;2592518291088 -->
<g id="edge14" class="edge">
<title>2592518280768&#45;&gt;2592518291088</title>
<path fill="none" stroke="black" d="M1211.24,-126C1220.16,-126 1229.21,-126 1237.58,-126"/>
<polygon fill="black" stroke="black" points="1237.37,-129.5 1247.37,-126 1237.37,-122.5 1237.37,-129.5"/>
</g>
<!-- 2592518285712 -->
<g id="node15" class="node">
<title>2592518285712</title>
<polygon fill="none" stroke="black" points="1276.5,-90 1249.5,-72 1276.5,-54 1303.5,-72 1276.5,-90"/>
<text text-anchor="middle" x="1276.5" y="-66.97" font-family="Times New Roman,serif" font-size="12.00">+</text>
</g>
<!-- 2592518286048&#45;&gt;2592518285712 -->
<g id="edge15" class="edge">
<title>2592518286048&#45;&gt;2592518285712</title>
<path fill="none" stroke="black" d="M1210.53,-72C1219.6,-72 1228.81,-72 1237.34,-72"/>
<polygon fill="black" stroke="black" points="1237.33,-75.5 1247.33,-72 1237.33,-68.5 1237.33,-75.5"/>
</g>
<!-- 2592518285424 -->
<g id="node16" class="node">
<title>2592518285424</title>
<polygon fill="none" stroke="black" points="1276.5,-36 1249.5,-18 1276.5,0 1303.5,-18 1276.5,-36"/>
<text text-anchor="middle" x="1276.5" y="-12.97" font-family="Times New Roman,serif" font-size="12.00">+</text>
</g>
<!-- 2592518290368&#45;&gt;2592518285424 -->
<g id="edge16" class="edge">
<title>2592518290368&#45;&gt;2592518285424</title>
<path fill="none" stroke="black" d="M1213.71,-18C1221.8,-18 1229.93,-18 1237.51,-18"/>
<polygon fill="black" stroke="black" points="1237.37,-21.5 1247.37,-18 1237.37,-14.5 1237.37,-21.5"/>
</g>
<!-- 2592518286240 -->
<g id="node17" class="node">
<title>2592518286240</title>
<polygon fill="none" stroke="black" points="1366.5,-117 1339.5,-99 1366.5,-81 1393.5,-99 1366.5,-117"/>
<text text-anchor="middle" x="1366.5" y="-93.97" font-family="Times New Roman,serif" font-size="12.00">+</text>
</g>
<!-- 2592518291088&#45;&gt;2592518286240 -->
<g id="edge17" class="edge">
<title>2592518291088&#45;&gt;2592518286240</title>
<path fill="none" stroke="black" d="M1295.73,-120.41C1307.53,-116.79 1323.15,-111.99 1336.61,-107.86"/>
<polygon fill="black" stroke="black" points="1337.31,-111.31 1345.84,-105.03 1335.26,-104.62 1337.31,-111.31"/>
</g>
<!-- 2592518289552 -->
<g id="node18" class="node">
<title>2592518289552</title>
<polygon fill="none" stroke="black" points="1366.5,-63 1339.5,-45 1366.5,-27 1393.5,-45 1366.5,-63"/>
<text text-anchor="middle" x="1366.5" y="-39.98" font-family="Times New Roman,serif" font-size="12.00">+</text>
</g>
<!-- 2592518291088&#45;&gt;2592518289552 -->
<g id="edge18" class="edge">
<title>2592518291088&#45;&gt;2592518289552</title>
<path fill="none" stroke="black" d="M1288.65,-115.74C1303.06,-102.47 1328.4,-79.15 1346.03,-62.92"/>
<polygon fill="black" stroke="black" points="1348.34,-65.55 1353.33,-56.2 1343.6,-60.4 1348.34,-65.55"/>
</g>
<!-- 2592518285712&#45;&gt;2592518286240 -->
<g id="edge20" class="edge">
<title>2592518285712&#45;&gt;2592518286240</title>
<path fill="none" stroke="black" d="M1295.73,-77.59C1307.53,-81.21 1323.15,-86.01 1336.61,-90.14"/>
<polygon fill="black" stroke="black" points="1335.26,-93.38 1345.84,-92.97 1337.31,-86.69 1335.26,-93.38"/>
</g>
<!-- 2592518285712&#45;&gt;2592518289552 -->
<g id="edge19" class="edge">
<title>2592518285712&#45;&gt;2592518289552</title>
<path fill="none" stroke="black" d="M1295.73,-66.41C1307.53,-62.79 1323.15,-57.99 1336.61,-53.86"/>
<polygon fill="black" stroke="black" points="1337.31,-57.31 1345.84,-51.03 1335.26,-50.62 1337.31,-57.31"/>
</g>
<!-- 2592518285424&#45;&gt;2592518286240 -->
<g id="edge21" class="edge">
<title>2592518285424&#45;&gt;2592518286240</title>
<path fill="none" stroke="black" d="M1288.65,-28.26C1303.06,-41.53 1328.4,-64.85 1346.03,-81.08"/>
<polygon fill="black" stroke="black" points="1343.6,-83.6 1353.33,-87.8 1348.34,-78.45 1343.6,-83.6"/>
</g>
<!-- 2592518285424&#45;&gt;2592518289552 -->
<g id="edge22" class="edge">
<title>2592518285424&#45;&gt;2592518289552</title>
<path fill="none" stroke="black" d="M1295.73,-23.59C1307.53,-27.21 1323.15,-32.01 1336.61,-36.14"/>
<polygon fill="black" stroke="black" points="1335.26,-39.38 1345.84,-38.97 1337.31,-32.69 1335.26,-39.38"/>
</g>
<!-- 2592518287152 -->
<g id="node19" class="node">
<title>2592518287152</title>
<polygon fill="none" stroke="black" points="1520.5,-117 1435.5,-117 1435.5,-81 1520.5,-81 1520.5,-117"/>
<text text-anchor="middle" x="1478" y="-93.97" font-family="Times New Roman,serif" font-size="12.00">Send reminder</text>
</g>
<!-- 2592518286240&#45;&gt;2592518287152 -->
<g id="edge23" class="edge">
<title>2592518286240&#45;&gt;2592518287152</title>
<path fill="none" stroke="black" d="M1394.29,-99C1403.21,-99 1413.49,-99 1423.7,-99"/>
<polygon fill="black" stroke="black" points="1423.61,-102.5 1433.61,-99 1423.61,-95.5 1423.61,-102.5"/>
</g>
<!-- 2592518288928 -->
<g id="node20" class="node">
<title>2592518288928</title>
<polygon fill="none" stroke="black" points="1526.5,-63 1429.5,-63 1429.5,-27 1526.5,-27 1526.5,-63"/>
<text text-anchor="middle" x="1478" y="-39.98" font-family="Times New Roman,serif" font-size="12.00">Send instructions</text>
</g>
<!-- 2592518289552&#45;&gt;2592518288928 -->
<g id="edge24" class="edge">
<title>2592518289552&#45;&gt;2592518288928</title>
<path fill="none" stroke="black" d="M1394.29,-45C1401.51,-45 1409.63,-45 1417.87,-45"/>
<polygon fill="black" stroke="black" points="1417.62,-48.5 1427.62,-45 1417.62,-41.5 1417.62,-48.5"/>
</g>
<!-- 2592518288544 -->
<g id="node21" class="node">
<title>2592518288544</title>
<polygon fill="none" stroke="black" points="1589.5,-90 1562.5,-72 1589.5,-54 1616.5,-72 1589.5,-90"/>
<text text-anchor="middle" x="1589.5" y="-66.97" font-family="Times New Roman,serif" font-size="12.00">+</text>
</g>
<!-- 2592518287152&#45;&gt;2592518288544 -->
<g id="edge25" class="edge">
<title>2592518287152&#45;&gt;2592518288544</title>
<path fill="none" stroke="black" d="M1520.71,-88.72C1533.13,-85.65 1546.5,-82.36 1558.06,-79.51"/>
<polygon fill="black" stroke="black" points="1558.57,-82.99 1567.44,-77.19 1556.89,-76.19 1558.57,-82.99"/>
</g>
<!-- 2592518288928&#45;&gt;2592518288544 -->
<g id="edge26" class="edge">
<title>2592518288928&#45;&gt;2592518288544</title>
<path fill="none" stroke="black" d="M1526.71,-56.76C1537.28,-59.37 1548.21,-62.06 1557.88,-64.45"/>
<polygon fill="black" stroke="black" points="1556.93,-67.82 1567.48,-66.82 1558.6,-61.02 1556.93,-67.82"/>
</g>
<!-- 2592518284416 -->
<g id="node22" class="node">
<title>2592518284416</title>
<polygon fill="none" stroke="black" points="1803.5,-90 1652.5,-90 1652.5,-54 1803.5,-54 1803.5,-90"/>
<text text-anchor="middle" x="1728" y="-66.97" font-family="Times New Roman,serif" font-size="12.00">Customer completes journey</text>
</g>
<!-- 2592518288544&#45;&gt;2592518284416 -->
<g id="edge27" class="edge">
<title>2592518288544&#45;&gt;2592518284416</title>
<path fill="none" stroke="black" d="M1617.14,-72C1624.26,-72 1632.36,-72 1640.86,-72"/>
<polygon fill="black" stroke="black" points="1640.69,-75.5 1650.69,-72 1640.69,-68.5 1640.69,-75.5"/>
</g>
<!-- 2592519320352 -->
<g id="node23" class="node">
<title>2592519320352</title>
<polygon fill="none" stroke="black" points="1866.5,-90 1839.5,-72 1866.5,-54 1893.5,-72 1866.5,-90"/>
<text text-anchor="middle" x="1866.5" y="-66.97" font-family="Times New Roman,serif" font-size="12.00">X</text>
</g>
<!-- 2592518284416&#45;&gt;2592519320352 -->
<g id="edge28" class="edge">
<title>2592518284416&#45;&gt;2592519320352</title>
<path fill="none" stroke="black" d="M1803.64,-72C1811.79,-72 1819.82,-72 1827.26,-72"/>
<polygon fill="black" stroke="black" points="1827.24,-75.5 1837.24,-72 1827.24,-68.5 1827.24,-75.5"/>
</g>
<!-- 2592519323520 -->
<g id="node24" class="node">
<title>2592519323520</title>
<polygon fill="none" stroke="black" points="2157.75,-90 2130.75,-72 2157.75,-54 2184.75,-72 2157.75,-90"/>
<text text-anchor="middle" x="2157.75" y="-66.97" font-family="Times New Roman,serif" font-size="12.00">X</text>
</g>
<!-- 2592519320352&#45;&gt;2592519323520 -->
<g id="edge30" class="edge">
<title>2592519320352&#45;&gt;2592519323520</title>
<path fill="none" stroke="black" d="M1891.33,-73.9C1902.85,-74.72 1916.89,-75.59 1929.5,-76 2002.91,-78.37 2021.34,-78.37 2094.75,-76 2103.42,-75.72 2112.77,-75.22 2121.5,-74.67"/>
<polygon fill="black" stroke="black" points="2121.67,-78.17 2131.41,-74 2121.2,-71.18 2121.67,-78.17"/>
</g>
<!-- 2592518288160 -->
<g id="node25" class="node">
<title>2592518288160</title>
<polygon fill="none" stroke="black" points="2094.75,-67 1929.5,-67 1929.5,-31 2094.75,-31 2094.75,-67"/>
<text text-anchor="middle" x="2012.12" y="-43.98" font-family="Times New Roman,serif" font-size="12.00">Post&#45;travel feedback or services</text>
</g>
<!-- 2592519320352&#45;&gt;2592518288160 -->
<g id="edge29" class="edge">
<title>2592519320352&#45;&gt;2592518288160</title>
<path fill="none" stroke="black" d="M1889,-68.56C1897.19,-67.25 1907.13,-65.65 1917.77,-63.95"/>
<polygon fill="black" stroke="black" points="1918.25,-67.42 1927.57,-62.38 1917.14,-60.51 1918.25,-67.42"/>
</g>
<!-- 2592518282448 -->
<g id="node26" class="node">
<title>2592518282448</title>
<ellipse fill="orange" stroke="black" cx="2238.75" cy="-72" rx="18" ry="18"/>
</g>
<!-- 2592519323520&#45;&gt;2592518282448 -->
<g id="edge32" class="edge">
<title>2592519323520&#45;&gt;2592518282448</title>
<path fill="none" stroke="black" d="M2185.5,-72C2193.13,-72 2201.48,-72 2209.22,-72"/>
<polygon fill="black" stroke="black" points="2209.18,-75.5 2219.18,-72 2209.18,-68.5 2209.18,-75.5"/>
</g>
<!-- 2592518288160&#45;&gt;2592519323520 -->
<g id="edge31" class="edge">
<title>2592518288160&#45;&gt;2592519323520</title>
<path fill="none" stroke="black" d="M2095.01,-62.11C2105.23,-63.75 2115.17,-65.34 2123.99,-66.75"/>
<polygon fill="black" stroke="black" points="2123.31,-70.19 2133.73,-68.31 2124.41,-63.28 2123.31,-70.19"/>
</g>
</g>
</svg>
