<?xml version="1.0" encoding="UTF-8" standalone="no"?>
<!DOCTYPE svg PUBLIC "-//W3C//DTD SVG 1.1//EN"
 "http://www.w3.org/Graphics/SVG/1.1/DTD/svg11.dtd">
<!-- Generated by graphviz version 11.0.0 (20240428.1522)
 -->
<!-- Pages: 1 -->
<svg width="2111pt" height="162pt"
 viewBox="0.00 0.00 2110.50 162.00" xmlns="http://www.w3.org/2000/svg" xmlns:xlink="http://www.w3.org/1999/xlink">
<g id="graph0" class="graph" transform="scale(1 1) rotate(0) translate(4 158)">
<polygon fill="white" stroke="none" points="-4,4 -4,-158 2106.5,-158 2106.5,4 -4,4"/>
<!-- 2592519590240 -->
<g id="node1" class="node">
<title>2592519590240</title>
<ellipse fill="green" stroke="black" cx="18" cy="-77" rx="18" ry="18"/>
</g>
<!-- 2592519320688 -->
<g id="node2" class="node">
<title>2592519320688</title>
<polygon fill="none" stroke="black" points="221.5,-95 72,-95 72,-59 221.5,-59 221.5,-95"/>
<text text-anchor="middle" x="146.75" y="-71.97" font-family="Times New Roman,serif" font-size="12.00">Customer searches for ticket</text>
</g>
<!-- 2592519590240&#45;&gt;2592519320688 -->
<g id="edge1" class="edge">
<title>2592519590240&#45;&gt;2592519320688</title>
<path fill="none" stroke="black" d="M36.36,-77C43.15,-77 51.48,-77 60.48,-77"/>
<polygon fill="black" stroke="black" points="60.22,-80.5 70.22,-77 60.22,-73.5 60.22,-80.5"/>
</g>
<!-- 2592519321024 -->
<g id="node3" class="node">
<title>2592519321024</title>
<polygon fill="none" stroke="black" points="329,-95 257.5,-95 257.5,-59 329,-59 329,-95"/>
<text text-anchor="middle" x="293.25" y="-71.97" font-family="Times New Roman,serif" font-size="12.00">Select route</text>
</g>
<!-- 2592519320688&#45;&gt;2592519321024 -->
<g id="edge2" class="edge">
<title>2592519320688&#45;&gt;2592519321024</title>
<path fill="none" stroke="black" d="M221.69,-77C229.9,-77 238.08,-77 245.8,-77"/>
<polygon fill="black" stroke="black" points="245.61,-80.5 255.61,-77 245.61,-73.5 245.61,-80.5"/>
</g>
<!-- 2592519321696 -->
<g id="node4" class="node">
<title>2592519321696</title>
<polygon fill="none" stroke="black" points="475.5,-95 365,-95 365,-59 475.5,-59 475.5,-95"/>
<text text-anchor="middle" x="420.25" y="-71.97" font-family="Times New Roman,serif" font-size="12.00">Select date and time</text>
</g>
<!-- 2592519321024&#45;&gt;2592519321696 -->
<g id="edge3" class="edge">
<title>2592519321024&#45;&gt;2592519321696</title>
<path fill="none" stroke="black" d="M329.4,-77C336.95,-77 345.16,-77 353.44,-77"/>
<polygon fill="black" stroke="black" points="353.22,-80.5 363.22,-77 353.22,-73.5 353.22,-80.5"/>
</g>
<!-- 2592519321120 -->
<g id="node5" class="node">
<title>2592519321120</title>
<polygon fill="none" stroke="black" points="538.5,-95 511.5,-77 538.5,-59 565.5,-77 538.5,-95"/>
<text text-anchor="middle" x="538.5" y="-71.97" font-family="Times New Roman,serif" font-size="12.00">+</text>
</g>
<!-- 2592519321696&#45;&gt;2592519321120 -->
<g id="edge4" class="edge">
<title>2592519321696&#45;&gt;2592519321120</title>
<path fill="none" stroke="black" d="M475.97,-77C483.93,-77 491.98,-77 499.51,-77"/>
<polygon fill="black" stroke="black" points="499.32,-80.5 509.32,-77 499.32,-73.5 499.32,-80.5"/>
</g>
<!-- 2592519322320 -->
<g id="node6" class="node">
<title>2592519322320</title>
<polygon fill="none" stroke="black" points="742.75,-122 613.5,-122 613.5,-86 742.75,-86 742.75,-122"/>
<text text-anchor="middle" x="678.12" y="-98.97" font-family="Times New Roman,serif" font-size="12.00">Provide payment details</text>
</g>
<!-- 2592519321120&#45;&gt;2592519322320 -->
<g id="edge6" class="edge">
<title>2592519321120&#45;&gt;2592519322320</title>
<path fill="none" stroke="black" d="M560.1,-81.04C571.51,-83.28 586.46,-86.21 601.85,-89.23"/>
<polygon fill="black" stroke="black" points="601.12,-92.66 611.6,-91.15 602.47,-85.79 601.12,-92.66"/>
</g>
<!-- 2592519323280 -->
<g id="node7" class="node">
<title>2592519323280</title>
<polygon fill="none" stroke="black" points="754.75,-68 601.5,-68 601.5,-32 754.75,-32 754.75,-68"/>
<text text-anchor="middle" x="678.12" y="-44.98" font-family="Times New Roman,serif" font-size="12.00">Provide personal information</text>
</g>
<!-- 2592519321120&#45;&gt;2592519323280 -->
<g id="edge5" class="edge">
<title>2592519321120&#45;&gt;2592519323280</title>
<path fill="none" stroke="black" d="M560.1,-72.96C568.54,-71.3 578.92,-69.27 589.98,-67.1"/>
<polygon fill="black" stroke="black" points="590.59,-70.54 599.73,-65.18 589.25,-63.67 590.59,-70.54"/>
</g>
<!-- 2592519320928 -->
<g id="node8" class="node">
<title>2592519320928</title>
<polygon fill="none" stroke="black" points="817.75,-95 790.75,-77 817.75,-59 844.75,-77 817.75,-95"/>
<text text-anchor="middle" x="817.75" y="-71.97" font-family="Times New Roman,serif" font-size="12.00">+</text>
</g>
<!-- 2592519322320&#45;&gt;2592519320928 -->
<g id="edge7" class="edge">
<title>2592519322320&#45;&gt;2592519320928</title>
<path fill="none" stroke="black" d="M743.1,-91.45C757.68,-88.59 772.54,-85.67 785.07,-83.22"/>
<polygon fill="black" stroke="black" points="785.65,-86.67 794.79,-81.31 784.3,-79.8 785.65,-86.67"/>
</g>
<!-- 2592519323280&#45;&gt;2592519320928 -->
<g id="edge8" class="edge">
<title>2592519323280&#45;&gt;2592519320928</title>
<path fill="none" stroke="black" d="M755.18,-64.92C765.64,-66.97 775.88,-68.98 784.91,-70.75"/>
<polygon fill="black" stroke="black" points="784.02,-74.15 794.51,-72.64 785.37,-67.28 784.02,-74.15"/>
</g>
<!-- 2592519321216 -->
<g id="node9" class="node">
<title>2592519321216</title>
<polygon fill="none" stroke="black" points="968,-95 880.75,-95 880.75,-59 968,-59 968,-95"/>
<text text-anchor="middle" x="924.38" y="-71.97" font-family="Times New Roman,serif" font-size="12.00">Generate ticket</text>
</g>
<!-- 2592519320928&#45;&gt;2592519321216 -->
<g id="edge9" class="edge">
<title>2592519320928&#45;&gt;2592519321216</title>
<path fill="none" stroke="black" d="M845.42,-77C852.75,-77 860.96,-77 869.24,-77"/>
<polygon fill="black" stroke="black" points="868.98,-80.5 878.98,-77 868.98,-73.5 868.98,-80.5"/>
</g>
<!-- 2592519320112 -->
<g id="node10" class="node">
<title>2592519320112</title>
<polygon fill="none" stroke="black" points="1031,-95 1004,-77 1031,-59 1058,-77 1031,-95"/>
<text text-anchor="middle" x="1031" y="-71.97" font-family="Times New Roman,serif" font-size="12.00">+</text>
</g>
<!-- 2592519321216&#45;&gt;2592519320112 -->
<g id="edge10" class="edge">
<title>2592519321216&#45;&gt;2592519320112</title>
<path fill="none" stroke="black" d="M968.23,-77C976.1,-77 984.27,-77 991.98,-77"/>
<polygon fill="black" stroke="black" points="991.74,-80.5 1001.74,-77 991.74,-73.5 991.74,-80.5"/>
</g>
<!-- 2592519322416 -->
<g id="node11" class="node">
<title>2592519322416</title>
<polygon fill="none" stroke="black" points="1207.5,-150 1094.75,-150 1094.75,-114 1207.5,-114 1207.5,-150"/>
<text text-anchor="middle" x="1151.12" y="-126.97" font-family="Times New Roman,serif" font-size="12.00">Send ticket via SMS</text>
</g>
<!-- 2592519320112&#45;&gt;2592519322416 -->
<g id="edge11" class="edge">
<title>2592519320112&#45;&gt;2592519322416</title>
<path fill="none" stroke="black" d="M1047.44,-84.19C1060.9,-90.46 1081.18,-99.9 1100.17,-108.74"/>
<polygon fill="black" stroke="black" points="1098.62,-111.88 1109.16,-112.93 1101.58,-105.53 1098.62,-111.88"/>
</g>
<!-- 2592519322992 -->
<g id="node12" class="node">
<title>2592519322992</title>
<polygon fill="none" stroke="black" points="1208.25,-95 1094,-95 1094,-59 1208.25,-59 1208.25,-95"/>
<text text-anchor="middle" x="1151.12" y="-71.97" font-family="Times New Roman,serif" font-size="12.00">Send ticket via email</text>
</g>
<!-- 2592519320112&#45;&gt;2592519322992 -->
<g id="edge12" class="edge">
<title>2592519320112&#45;&gt;2592519322992</title>
<path fill="none" stroke="black" d="M1058.8,-77C1065.92,-77 1073.93,-77 1082.18,-77"/>
<polygon fill="black" stroke="black" points="1082,-80.5 1092,-77 1082,-73.5 1082,-80.5"/>
</g>
<!-- 2592519323328 -->
<g id="node13" class="node">
<title>2592519323328</title>
<polygon fill="none" stroke="black" points="1512.5,-36 1393,-36 1393,0 1512.5,0 1512.5,-36"/>
<text text-anchor="middle" x="1452.75" y="-12.97" font-family="Times New Roman,serif" font-size="12.00">Update seat inventory</text>
</g>
<!-- 2592519320112&#45;&gt;2592519323328 -->
<g id="edge13" class="edge">
<title>2592519320112&#45;&gt;2592519323328</title>
<path fill="none" stroke="black" d="M1046.31,-69.19C1058.58,-62.88 1076.94,-54.36 1094,-50 1191.5,-25.11 1308.23,-18.88 1381.2,-17.68"/>
<polygon fill="black" stroke="black" points="1381.06,-21.18 1391.02,-17.55 1380.97,-14.18 1381.06,-21.18"/>
</g>
<!-- 2592519585968 -->
<g id="node15" class="node">
<title>2592519585968</title>
<polygon fill="none" stroke="black" points="1649.25,-154 1564.25,-154 1564.25,-118 1649.25,-118 1649.25,-154"/>
<text text-anchor="middle" x="1606.75" y="-130.97" font-family="Times New Roman,serif" font-size="12.00">Send reminder</text>
</g>
<!-- 2592519322416&#45;&gt;2592519585968 -->
<g id="edge14" class="edge">
<title>2592519322416&#45;&gt;2592519585968</title>
<path fill="none" stroke="black" d="M1207.75,-132.49C1295.74,-133.27 1465.89,-134.77 1552.43,-135.53"/>
<polygon fill="black" stroke="black" points="1552.27,-139.03 1562.3,-135.62 1552.33,-132.03 1552.27,-139.03"/>
</g>
<!-- 2592519586304 -->
<g id="node16" class="node">
<title>2592519586304</title>
<polygon fill="none" stroke="black" points="1341.25,-95 1244.25,-95 1244.25,-59 1341.25,-59 1341.25,-95"/>
<text text-anchor="middle" x="1292.75" y="-71.97" font-family="Times New Roman,serif" font-size="12.00">Send instructions</text>
</g>
<!-- 2592519322992&#45;&gt;2592519586304 -->
<g id="edge15" class="edge">
<title>2592519322992&#45;&gt;2592519586304</title>
<path fill="none" stroke="black" d="M1208.51,-77C1216.45,-77 1224.62,-77 1232.6,-77"/>
<polygon fill="black" stroke="black" points="1232.6,-80.5 1242.6,-77 1232.6,-73.5 1232.6,-80.5"/>
</g>
<!-- 2592519320544 -->
<g id="node14" class="node">
<title>2592519320544</title>
<polygon fill="none" stroke="black" points="2003.5,-90 1976.5,-72 2003.5,-54 2030.5,-72 2003.5,-90"/>
<text text-anchor="middle" x="2003.5" y="-66.97" font-family="Times New Roman,serif" font-size="12.00">+</text>
</g>
<!-- 2592519323328&#45;&gt;2592519320544 -->
<g id="edge16" class="edge">
<title>2592519323328&#45;&gt;2592519320544</title>
<path fill="none" stroke="black" d="M1512.8,-15.74C1590.51,-13.56 1731.23,-12.33 1850.5,-26 1891.12,-30.65 1901.56,-32.55 1940.5,-45 1952.83,-48.94 1966.04,-54.5 1977.08,-59.54"/>
<polygon fill="black" stroke="black" points="1975.38,-62.61 1985.92,-63.7 1978.36,-56.28 1975.38,-62.61"/>
</g>
<!-- 2592519590336 -->
<g id="node21" class="node">
<title>2592519590336</title>
<ellipse fill="orange" stroke="black" cx="2084.5" cy="-72" rx="18" ry="18"/>
</g>
<!-- 2592519320544&#45;&gt;2592519590336 -->
<g id="edge19" class="edge">
<title>2592519320544&#45;&gt;2592519590336</title>
<path fill="none" stroke="black" d="M2031.25,-72C2038.88,-72 2047.23,-72 2054.97,-72"/>
<polygon fill="black" stroke="black" points="2054.93,-75.5 2064.93,-72 2054.93,-68.5 2054.93,-75.5"/>
</g>
<!-- 2592519585968&#45;&gt;2592519320544 -->
<g id="edge17" class="edge">
<title>2592519585968&#45;&gt;2592519320544</title>
<path fill="none" stroke="black" d="M1649.73,-135.34C1713.57,-133.45 1838.43,-126.23 1940.5,-99 1953.09,-95.64 1966.42,-90.12 1977.48,-84.94"/>
<polygon fill="black" stroke="black" points="1978.86,-88.16 1986.31,-80.63 1975.79,-81.87 1978.86,-88.16"/>
</g>
<!-- 2592519322848 -->
<g id="node17" class="node">
<title>2592519322848</title>
<polygon fill="none" stroke="black" points="1528.25,-95 1377.25,-95 1377.25,-59 1528.25,-59 1528.25,-95"/>
<text text-anchor="middle" x="1452.75" y="-71.97" font-family="Times New Roman,serif" font-size="12.00">Customer completes journey</text>
</g>
<!-- 2592519586304&#45;&gt;2592519322848 -->
<g id="edge18" class="edge">
<title>2592519586304&#45;&gt;2592519322848</title>
<path fill="none" stroke="black" d="M1341.58,-77C1349.26,-77 1357.41,-77 1365.67,-77"/>
<polygon fill="black" stroke="black" points="1365.44,-80.5 1375.44,-77 1365.44,-73.5 1365.44,-80.5"/>
</g>
<!-- 2592519320400 -->
<g id="node18" class="node">
<title>2592519320400</title>
<polygon fill="none" stroke="black" points="1606.75,-95 1579.75,-77 1606.75,-59 1633.75,-77 1606.75,-95"/>
<text text-anchor="middle" x="1606.75" y="-71.97" font-family="Times New Roman,serif" font-size="12.00">X</text>
</g>
<!-- 2592519322848&#45;&gt;2592519320400 -->
<g id="edge20" class="edge">
<title>2592519322848&#45;&gt;2592519320400</title>
<path fill="none" stroke="black" d="M1528.41,-77C1542.04,-77 1555.72,-77 1567.71,-77"/>
<polygon fill="black" stroke="black" points="1567.56,-80.5 1577.56,-77 1567.56,-73.5 1567.56,-80.5"/>
</g>
<!-- 2592519320448 -->
<g id="node19" class="node">
<title>2592519320448</title>
<polygon fill="none" stroke="black" points="1913.5,-90 1886.5,-72 1913.5,-54 1940.5,-72 1913.5,-90"/>
<text text-anchor="middle" x="1913.5" y="-66.97" font-family="Times New Roman,serif" font-size="12.00">X</text>
</g>
<!-- 2592519320400&#45;&gt;2592519320448 -->
<g id="edge22" class="edge">
<title>2592519320400&#45;&gt;2592519320448</title>
<path fill="none" stroke="black" d="M1632.25,-78.54C1676.08,-81.02 1770.8,-85.12 1850.5,-80 1860.02,-79.39 1870.31,-78.25 1879.72,-77.03"/>
<polygon fill="black" stroke="black" points="1880.12,-80.51 1889.55,-75.67 1879.16,-73.57 1880.12,-80.51"/>
</g>
<!-- 2592519586640 -->
<g id="node20" class="node">
<title>2592519586640</title>
<polygon fill="none" stroke="black" points="1850.5,-71 1685.25,-71 1685.25,-35 1850.5,-35 1850.5,-71"/>
<text text-anchor="middle" x="1767.88" y="-47.98" font-family="Times New Roman,serif" font-size="12.00">Post&#45;travel feedback or services</text>
</g>
<!-- 2592519320400&#45;&gt;2592519586640 -->
<g id="edge21" class="edge">
<title>2592519320400&#45;&gt;2592519586640</title>
<path fill="none" stroke="black" d="M1629.54,-73.71C1641.55,-71.9 1657.37,-69.52 1673.99,-67.01"/>
<polygon fill="black" stroke="black" points="1674.13,-70.53 1683.5,-65.58 1673.09,-63.61 1674.13,-70.53"/>
</g>
<!-- 2592519320448&#45;&gt;2592519320544 -->
<g id="edge23" class="edge">
<title>2592519320448&#45;&gt;2592519320544</title>
<path fill="none" stroke="black" d="M1941.38,-72C1948.63,-72 1956.62,-72 1964.35,-72"/>
<polygon fill="black" stroke="black" points="1964.27,-75.5 1974.27,-72 1964.27,-68.5 1964.27,-75.5"/>
</g>
<!-- 2592519586640&#45;&gt;2592519320448 -->
<g id="edge24" class="edge">
<title>2592519586640&#45;&gt;2592519320448</title>
<path fill="none" stroke="black" d="M1850.76,-63.83C1860.6,-65.13 1870.19,-66.4 1878.77,-67.54"/>
<polygon fill="black" stroke="black" points="1878.25,-71 1888.63,-68.84 1879.17,-64.06 1878.25,-71"/>
</g>
</g>
</svg>
