<?xml version="1.0" encoding="UTF-8" standalone="no"?>
<!DOCTYPE svg PUBLIC "-//W3C//DTD SVG 1.1//EN"
 "http://www.w3.org/Graphics/SVG/1.1/DTD/svg11.dtd">
<!-- Generated by graphviz version 11.0.0 (20240428.1522)
 -->
<!-- Pages: 1 -->
<svg width="1774pt" height="505pt"
 viewBox="0.00 0.00 1774.25 504.94" xmlns="http://www.w3.org/2000/svg" xmlns:xlink="http://www.w3.org/1999/xlink">
<g id="graph0" class="graph" transform="scale(1 1) rotate(0) translate(4 500.94)">
<polygon fill="white" stroke="none" points="-4,4 -4,-500.94 1770.25,-500.94 1770.25,4 -4,4"/>
<!-- 2592513862416 -->
<g id="node1" class="node">
<title>2592513862416</title>
<ellipse fill="green" stroke="black" cx="18" cy="-107.94" rx="18" ry="18"/>
</g>
<!-- 2592516882656 -->
<g id="node2" class="node">
<title>2592516882656</title>
<polygon fill="none" stroke="black" points="223,-125.94 72,-125.94 72,-89.94 223,-89.94 223,-125.94"/>
<text text-anchor="middle" x="147.5" y="-102.91" font-family="Times New Roman,serif" font-size="12.00">Customer completes journey</text>
</g>
<!-- 2592513862416&#45;&gt;2592516882656 -->
<g id="edge1" class="edge">
<title>2592513862416&#45;&gt;2592516882656</title>
<path fill="none" stroke="black" d="M36.46,-107.94C43.25,-107.94 51.56,-107.94 60.54,-107.94"/>
<polygon fill="black" stroke="black" points="60.25,-111.44 70.25,-107.94 60.25,-104.44 60.25,-111.44"/>
</g>
<!-- 2592517847136 -->
<g id="node3" class="node">
<title>2592517847136</title>
<polygon fill="none" stroke="black" points="344,-125.94 259,-125.94 259,-89.94 344,-89.94 344,-125.94"/>
<text text-anchor="middle" x="301.5" y="-102.91" font-family="Times New Roman,serif" font-size="12.00">Send reminder</text>
</g>
<!-- 2592516882656&#45;&gt;2592517847136 -->
<g id="edge2" class="edge">
<title>2592516882656&#45;&gt;2592517847136</title>
<path fill="none" stroke="black" d="M223.16,-107.94C231.24,-107.94 239.34,-107.94 247.09,-107.94"/>
<polygon fill="black" stroke="black" points="247.03,-111.44 257.03,-107.94 247.03,-104.44 247.03,-111.44"/>
</g>
<!-- 2592517836480 -->
<g id="node4" class="node">
<title>2592517836480</title>
<polygon fill="none" stroke="black" points="529.5,-125.94 380,-125.94 380,-89.94 529.5,-89.94 529.5,-125.94"/>
<text text-anchor="middle" x="454.75" y="-102.91" font-family="Times New Roman,serif" font-size="12.00">Customer searches for ticket</text>
</g>
<!-- 2592517847136&#45;&gt;2592517836480 -->
<g id="edge3" class="edge">
<title>2592517847136&#45;&gt;2592517836480</title>
<path fill="none" stroke="black" d="M344.23,-107.94C351.8,-107.94 359.95,-107.94 368.26,-107.94"/>
<polygon fill="black" stroke="black" points="368.14,-111.44 378.14,-107.94 368.14,-104.44 368.14,-111.44"/>
</g>
<!-- 2592517843584 -->
<g id="node5" class="node">
<title>2592517843584</title>
<polygon fill="none" stroke="black" points="592.5,-125.94 565.5,-107.94 592.5,-89.94 619.5,-107.94 592.5,-125.94"/>
<text text-anchor="middle" x="592.5" y="-102.91" font-family="Times New Roman,serif" font-size="12.00">+</text>
</g>
<!-- 2592517836480&#45;&gt;2592517843584 -->
<g id="edge4" class="edge">
<title>2592517836480&#45;&gt;2592517843584</title>
<path fill="none" stroke="black" d="M529.98,-107.94C538.01,-107.94 545.92,-107.94 553.25,-107.94"/>
<polygon fill="black" stroke="black" points="553.09,-111.44 563.09,-107.94 553.09,-104.44 553.09,-111.44"/>
</g>
<!-- 2592517840368 -->
<g id="node6" class="node">
<title>2592517840368</title>
<polygon fill="none" stroke="black" points="742.75,-150.94 655.5,-150.94 655.5,-114.94 742.75,-114.94 742.75,-150.94"/>
<text text-anchor="middle" x="699.12" y="-127.91" font-family="Times New Roman,serif" font-size="12.00">Generate ticket</text>
</g>
<!-- 2592517843584&#45;&gt;2592517840368 -->
<g id="edge6" class="edge">
<title>2592517843584&#45;&gt;2592517840368</title>
<path fill="none" stroke="black" d="M613.18,-112.64C622.06,-114.76 633.03,-117.38 644.1,-120.03"/>
<polygon fill="black" stroke="black" points="643.11,-123.39 653.65,-122.31 644.74,-116.58 643.11,-123.39"/>
</g>
<!-- 2592517840416 -->
<g id="node7" class="node">
<title>2592517840416</title>
<polygon fill="none" stroke="black" points="898.25,-98.94 778.75,-98.94 778.75,-62.94 898.25,-62.94 898.25,-98.94"/>
<text text-anchor="middle" x="838.5" y="-75.91" font-family="Times New Roman,serif" font-size="12.00">Update seat inventory</text>
</g>
<!-- 2592517843584&#45;&gt;2592517840416 -->
<g id="edge5" class="edge">
<title>2592517843584&#45;&gt;2592517840416</title>
<path fill="none" stroke="black" d="M616.45,-105.4C650.59,-101.62 716.17,-94.36 767.07,-88.73"/>
<polygon fill="black" stroke="black" points="767.29,-92.23 776.85,-87.65 766.52,-85.27 767.29,-92.23"/>
</g>
<!-- 2592517839168 -->
<g id="node9" class="node">
<title>2592517839168</title>
<polygon fill="none" stroke="black" points="838.5,-209.94 811.5,-191.94 838.5,-173.94 865.5,-191.94 838.5,-209.94"/>
<text text-anchor="middle" x="838.5" y="-186.91" font-family="Times New Roman,serif" font-size="12.00">+</text>
</g>
<!-- 2592517840368&#45;&gt;2592517839168 -->
<g id="edge7" class="edge">
<title>2592517840368&#45;&gt;2592517839168</title>
<path fill="none" stroke="black" d="M742.84,-151.28C765.09,-160.84 791.61,-172.23 810.91,-180.52"/>
<polygon fill="black" stroke="black" points="809.4,-183.68 819.97,-184.41 812.16,-177.24 809.4,-183.68"/>
</g>
<!-- 2592517841952 -->
<g id="node8" class="node">
<title>2592517841952</title>
<polygon fill="none" stroke="black" points="1667.25,-224.94 1640.25,-206.94 1667.25,-188.94 1694.25,-206.94 1667.25,-224.94"/>
<text text-anchor="middle" x="1667.25" y="-201.91" font-family="Times New Roman,serif" font-size="12.00">+</text>
</g>
<!-- 2592517840416&#45;&gt;2592517841952 -->
<g id="edge8" class="edge">
<title>2592517840416&#45;&gt;2592517841952</title>
<path fill="none" stroke="black" d="M893.59,-62.44C964.32,-39.95 1092.48,-4.94 1205.12,-4.94 1205.12,-4.94 1205.12,-4.94 1382.88,-4.94 1482.86,-4.94 1527.27,18.86 1604.25,-44.94 1644.77,-78.52 1658.86,-141.74 1663.72,-178.48"/>
<polygon fill="black" stroke="black" points="1660.24,-178.82 1664.87,-188.35 1667.19,-178.01 1660.24,-178.82"/>
</g>
<!-- 2592513854640 -->
<g id="node26" class="node">
<title>2592513854640</title>
<ellipse fill="orange" stroke="black" cx="1748.25" cy="-206.94" rx="18" ry="18"/>
</g>
<!-- 2592517841952&#45;&gt;2592513854640 -->
<g id="edge16" class="edge">
<title>2592517841952&#45;&gt;2592513854640</title>
<path fill="none" stroke="black" d="M1695,-206.94C1702.63,-206.94 1710.98,-206.94 1718.72,-206.94"/>
<polygon fill="black" stroke="black" points="1718.68,-210.44 1728.68,-206.94 1718.68,-203.44 1718.68,-210.44"/>
</g>
<!-- 2592517482704 -->
<g id="node10" class="node">
<title>2592517482704</title>
<polygon fill="none" stroke="black" points="1010.88,-450.94 983.88,-432.94 1010.88,-414.94 1037.88,-432.94 1010.88,-450.94"/>
<text text-anchor="middle" x="1010.88" y="-427.91" font-family="Times New Roman,serif" font-size="12.00">X</text>
</g>
<!-- 2592517839168&#45;&gt;2592517482704 -->
<g id="edge9" class="edge">
<title>2592517839168&#45;&gt;2592517482704</title>
<path fill="none" stroke="black" d="M844.87,-205.75C857.39,-236.85 890.75,-313.85 934.25,-367.94 949.7,-387.15 971.37,-405.11 987.56,-417.26"/>
<polygon fill="black" stroke="black" points="985.46,-420.06 995.6,-423.14 989.59,-414.41 985.46,-420.06"/>
</g>
<!-- 2592517485488 -->
<g id="node11" class="node">
<title>2592517485488</title>
<polygon fill="none" stroke="black" points="1010.88,-358.94 983.88,-340.94 1010.88,-322.94 1037.88,-340.94 1010.88,-358.94"/>
<text text-anchor="middle" x="1010.88" y="-335.91" font-family="Times New Roman,serif" font-size="12.00">X</text>
</g>
<!-- 2592517839168&#45;&gt;2592517485488 -->
<g id="edge10" class="edge">
<title>2592517839168&#45;&gt;2592517485488</title>
<path fill="none" stroke="black" d="M849.89,-202.87C866.9,-220.59 902.03,-256.34 934.25,-283.94 951.56,-298.76 972.3,-314.25 987.68,-325.33"/>
<polygon fill="black" stroke="black" points="985.52,-328.09 995.69,-331.05 989.58,-322.39 985.52,-328.09"/>
</g>
<!-- 2592517836528 -->
<g id="node12" class="node">
<title>2592517836528</title>
<polygon fill="none" stroke="black" points="1010.88,-274.94 983.88,-256.94 1010.88,-238.94 1037.88,-256.94 1010.88,-274.94"/>
<text text-anchor="middle" x="1010.88" y="-251.91" font-family="Times New Roman,serif" font-size="12.00">X</text>
</g>
<!-- 2592517839168&#45;&gt;2592517836528 -->
<g id="edge11" class="edge">
<title>2592517839168&#45;&gt;2592517836528</title>
<path fill="none" stroke="black" d="M856.46,-198.41C885.93,-209.65 946.83,-232.88 982.4,-246.45"/>
<polygon fill="black" stroke="black" points="980.98,-249.66 991.57,-249.95 983.47,-243.12 980.98,-249.66"/>
</g>
<!-- 2592517847040 -->
<g id="node13" class="node">
<title>2592517847040</title>
<polygon fill="none" stroke="black" points="1604.25,-251.94 1475,-251.94 1475,-215.94 1604.25,-215.94 1604.25,-251.94"/>
<text text-anchor="middle" x="1539.62" y="-228.91" font-family="Times New Roman,serif" font-size="12.00">Provide payment details</text>
</g>
<!-- 2592517839168&#45;&gt;2592517847040 -->
<g id="edge12" class="edge">
<title>2592517839168&#45;&gt;2592517847040</title>
<path fill="none" stroke="black" d="M863.97,-193.41C959.29,-199.13 1308.05,-220.09 1463.26,-229.41"/>
<polygon fill="black" stroke="black" points="1462.84,-232.89 1473.03,-230 1463.26,-225.9 1462.84,-232.89"/>
</g>
<!-- 2592517841328 -->
<g id="node14" class="node">
<title>2592517841328</title>
<polygon fill="none" stroke="black" points="1594.88,-197.94 1484.38,-197.94 1484.38,-161.94 1594.88,-161.94 1594.88,-197.94"/>
<text text-anchor="middle" x="1539.62" y="-174.91" font-family="Times New Roman,serif" font-size="12.00">Select date and time</text>
</g>
<!-- 2592517839168&#45;&gt;2592517841328 -->
<g id="edge15" class="edge">
<title>2592517839168&#45;&gt;2592517841328</title>
<path fill="none" stroke="black" d="M865.63,-191.49C965.35,-189.78 1323.81,-183.62 1472.88,-181.07"/>
<polygon fill="black" stroke="black" points="1472.64,-184.57 1482.58,-180.9 1472.52,-177.57 1472.64,-184.57"/>
</g>
<!-- 2592517843632 -->
<g id="node15" class="node">
<title>2592517843632</title>
<polygon fill="none" stroke="black" points="1575.38,-143.94 1503.88,-143.94 1503.88,-107.94 1575.38,-107.94 1575.38,-143.94"/>
<text text-anchor="middle" x="1539.62" y="-120.91" font-family="Times New Roman,serif" font-size="12.00">Select route</text>
</g>
<!-- 2592517839168&#45;&gt;2592517843632 -->
<g id="edge13" class="edge">
<title>2592517839168&#45;&gt;2592517843632</title>
<path fill="none" stroke="black" d="M862.86,-189.71C882.04,-187.89 909.9,-185.24 934.25,-182.94 1142.41,-163.23 1390.91,-139.84 1492.21,-130.3"/>
<polygon fill="black" stroke="black" points="1492.4,-133.8 1502.03,-129.38 1491.75,-126.83 1492.4,-133.8"/>
</g>
<!-- 2592517842240 -->
<g id="node16" class="node">
<title>2592517842240</title>
<polygon fill="none" stroke="black" points="1087.5,-106.94 934.25,-106.94 934.25,-70.94 1087.5,-70.94 1087.5,-106.94"/>
<text text-anchor="middle" x="1010.88" y="-83.91" font-family="Times New Roman,serif" font-size="12.00">Provide personal information</text>
</g>
<!-- 2592517839168&#45;&gt;2592517842240 -->
<g id="edge14" class="edge">
<title>2592517839168&#45;&gt;2592517842240</title>
<path fill="none" stroke="black" d="M851.11,-181.75C868.36,-166.99 902.17,-139.38 934.25,-120.94 939.58,-117.87 945.26,-114.93 951.02,-112.16"/>
<polygon fill="black" stroke="black" points="952.43,-115.37 960.05,-108 949.5,-109.01 952.43,-115.37"/>
</g>
<!-- 2592517846992 -->
<g id="node19" class="node">
<title>2592517846992</title>
<polygon fill="none" stroke="black" points="1262.5,-496.94 1149.75,-496.94 1149.75,-460.94 1262.5,-460.94 1262.5,-496.94"/>
<text text-anchor="middle" x="1206.12" y="-473.91" font-family="Times New Roman,serif" font-size="12.00">Send ticket via SMS</text>
</g>
<!-- 2592517482704&#45;&gt;2592517846992 -->
<g id="edge20" class="edge">
<title>2592517482704&#45;&gt;2592517846992</title>
<path fill="none" stroke="black" d="M1031.47,-437.6C1056.45,-443.55 1100.91,-454.13 1138.6,-463.1"/>
<polygon fill="black" stroke="black" points="1137.52,-466.44 1148.06,-465.35 1139.14,-459.63 1137.52,-466.44"/>
</g>
<!-- 2592517844784 -->
<g id="node20" class="node">
<title>2592517844784</title>
<polygon fill="none" stroke="black" points="1254.62,-404.94 1157.62,-404.94 1157.62,-368.94 1254.62,-368.94 1254.62,-404.94"/>
<text text-anchor="middle" x="1206.12" y="-381.91" font-family="Times New Roman,serif" font-size="12.00">Send instructions</text>
</g>
<!-- 2592517485488&#45;&gt;2592517844784 -->
<g id="edge21" class="edge">
<title>2592517485488&#45;&gt;2592517844784</title>
<path fill="none" stroke="black" d="M1031.47,-345.6C1058.16,-351.95 1107.12,-363.61 1146.26,-372.92"/>
<polygon fill="black" stroke="black" points="1145.26,-376.29 1155.8,-375.2 1146.88,-369.48 1145.26,-376.29"/>
</g>
<!-- 2592517841664 -->
<g id="node18" class="node">
<title>2592517841664</title>
<polygon fill="none" stroke="black" points="1381.88,-297.94 1354.88,-279.94 1381.88,-261.94 1408.88,-279.94 1381.88,-297.94"/>
<text text-anchor="middle" x="1381.88" y="-274.91" font-family="Times New Roman,serif" font-size="12.00">X</text>
</g>
<!-- 2592517836528&#45;&gt;2592517841664 -->
<g id="edge23" class="edge">
<title>2592517836528&#45;&gt;2592517841664</title>
<path fill="none" stroke="black" d="M1029.81,-262.67C1051.66,-269.33 1089.84,-279.92 1123.5,-283.94 1196.43,-292.63 1215.32,-285.53 1288.75,-283.94 1307.35,-283.53 1328.04,-282.67 1345.09,-281.85"/>
<polygon fill="black" stroke="black" points="1344.93,-285.36 1354.74,-281.37 1344.58,-278.37 1344.93,-285.36"/>
</g>
<!-- 2592516890096 -->
<g id="node21" class="node">
<title>2592516890096</title>
<polygon fill="none" stroke="black" points="1288.75,-274.94 1123.5,-274.94 1123.5,-238.94 1288.75,-238.94 1288.75,-274.94"/>
<text text-anchor="middle" x="1206.12" y="-251.91" font-family="Times New Roman,serif" font-size="12.00">Post&#45;travel feedback or services</text>
</g>
<!-- 2592517836528&#45;&gt;2592516890096 -->
<g id="edge22" class="edge">
<title>2592517836528&#45;&gt;2592516890096</title>
<path fill="none" stroke="black" d="M1038.75,-256.94C1057.98,-256.94 1085.12,-256.94 1111.91,-256.94"/>
<polygon fill="black" stroke="black" points="1111.83,-260.44 1121.83,-256.94 1111.83,-253.44 1111.83,-260.44"/>
</g>
<!-- 2592517847040&#45;&gt;2592517841952 -->
<g id="edge17" class="edge">
<title>2592517847040&#45;&gt;2592517841952</title>
<path fill="none" stroke="black" d="M1604.54,-220.2C1615.11,-217.93 1625.64,-215.67 1634.93,-213.67"/>
<polygon fill="black" stroke="black" points="1635.42,-217.14 1644.46,-211.62 1633.95,-210.3 1635.42,-217.14"/>
</g>
<!-- 2592517841328&#45;&gt;2592517841952 -->
<g id="edge18" class="edge">
<title>2592517841328&#45;&gt;2592517841952</title>
<path fill="none" stroke="black" d="M1595.36,-191.7C1608.85,-194.6 1622.84,-197.61 1634.8,-200.18"/>
<polygon fill="black" stroke="black" points="1633.99,-203.58 1644.5,-202.26 1635.46,-196.74 1633.99,-203.58"/>
</g>
<!-- 2592517843632&#45;&gt;2592517841952 -->
<g id="edge19" class="edge">
<title>2592517843632&#45;&gt;2592517841952</title>
<path fill="none" stroke="black" d="M1575.63,-138.46C1585.22,-142.51 1595.4,-147.4 1604.25,-152.94 1620.26,-162.95 1636.28,-177.03 1648.02,-188.31"/>
<polygon fill="black" stroke="black" points="1645.44,-190.68 1655.02,-195.2 1650.35,-185.69 1645.44,-190.68"/>
</g>
<!-- 2592517842768 -->
<g id="node17" class="node">
<title>2592517842768</title>
<polygon fill="none" stroke="black" points="1206.12,-106.94 1179.12,-88.94 1206.12,-70.94 1233.12,-88.94 1206.12,-106.94"/>
<text text-anchor="middle" x="1206.12" y="-83.91" font-family="Times New Roman,serif" font-size="12.00">X</text>
</g>
<!-- 2592517842240&#45;&gt;2592517842768 -->
<g id="edge24" class="edge">
<title>2592517842240&#45;&gt;2592517842768</title>
<path fill="none" stroke="black" d="M1087.98,-88.94C1115.01,-88.94 1144.3,-88.94 1166.83,-88.94"/>
<polygon fill="black" stroke="black" points="1166.75,-92.44 1176.75,-88.94 1166.75,-85.44 1166.75,-92.44"/>
</g>
<!-- 2592517847472 -->
<g id="node24" class="node">
<title>2592517847472</title>
<polygon fill="none" stroke="black" points="1539.62,-89.94 1512.62,-71.94 1539.62,-53.94 1566.62,-71.94 1539.62,-89.94"/>
<text text-anchor="middle" x="1539.62" y="-66.91" font-family="Times New Roman,serif" font-size="12.00">X</text>
</g>
<!-- 2592517842768&#45;&gt;2592517847472 -->
<g id="edge28" class="edge">
<title>2592517842768&#45;&gt;2592517847472</title>
<path fill="none" stroke="black" d="M1232.18,-87.85C1274.71,-85.99 1363.75,-81.99 1439,-77.94 1460.25,-76.79 1484.04,-75.37 1503.04,-74.19"/>
<polygon fill="black" stroke="black" points="1503.2,-77.69 1512.96,-73.57 1502.76,-70.7 1503.2,-77.69"/>
</g>
<!-- 2592517842096 -->
<g id="node25" class="node">
<title>2592517842096</title>
<polygon fill="none" stroke="black" points="1439,-68.94 1324.75,-68.94 1324.75,-32.94 1439,-32.94 1439,-68.94"/>
<text text-anchor="middle" x="1381.88" y="-45.91" font-family="Times New Roman,serif" font-size="12.00">Send ticket via email</text>
</g>
<!-- 2592517842768&#45;&gt;2592517842096 -->
<g id="edge27" class="edge">
<title>2592517842768&#45;&gt;2592517842096</title>
<path fill="none" stroke="black" d="M1227.06,-84.58C1248.09,-79.98 1282.42,-72.47 1313.32,-65.71"/>
<polygon fill="black" stroke="black" points="1314.01,-69.14 1323.03,-63.59 1312.52,-62.3 1314.01,-69.14"/>
</g>
<!-- 2592517841664&#45;&gt;2592517841952 -->
<g id="edge25" class="edge">
<title>2592517841664&#45;&gt;2592517841952</title>
<path fill="none" stroke="black" d="M1405.65,-282.48C1447.05,-286.14 1536.6,-289.63 1604.25,-260.94 1622.02,-253.4 1638.31,-238.77 1649.73,-226.63"/>
<polygon fill="black" stroke="black" points="1652.05,-229.28 1656.12,-219.5 1646.84,-224.61 1652.05,-229.28"/>
</g>
<!-- 2592517487408 -->
<g id="node22" class="node">
<title>2592517487408</title>
<polygon fill="none" stroke="black" points="1381.88,-450.94 1354.88,-432.94 1381.88,-414.94 1408.88,-432.94 1381.88,-450.94"/>
<text text-anchor="middle" x="1381.88" y="-427.91" font-family="Times New Roman,serif" font-size="12.00">X</text>
</g>
<!-- 2592517846992&#45;&gt;2592517487408 -->
<g id="edge29" class="edge">
<title>2592517846992&#45;&gt;2592517487408</title>
<path fill="none" stroke="black" d="M1262.58,-464.26C1291.77,-456.53 1326.43,-447.35 1350.66,-440.94"/>
<polygon fill="black" stroke="black" points="1351.41,-444.36 1360.18,-438.42 1349.62,-437.59 1351.41,-444.36"/>
</g>
<!-- 2592517481264 -->
<g id="node23" class="node">
<title>2592517481264</title>
<polygon fill="none" stroke="black" points="1381.88,-358.94 1354.88,-340.94 1381.88,-322.94 1408.88,-340.94 1381.88,-358.94"/>
<text text-anchor="middle" x="1381.88" y="-335.91" font-family="Times New Roman,serif" font-size="12.00">X</text>
</g>
<!-- 2592517844784&#45;&gt;2592517481264 -->
<g id="edge30" class="edge">
<title>2592517844784&#45;&gt;2592517481264</title>
<path fill="none" stroke="black" d="M1255.06,-374.25C1285.86,-366.09 1324.89,-355.76 1351.25,-348.78"/>
<polygon fill="black" stroke="black" points="1351.82,-352.25 1360.59,-346.31 1350.03,-345.48 1351.82,-352.25"/>
</g>
<!-- 2592516890096&#45;&gt;2592517841664 -->
<g id="edge26" class="edge">
<title>2592516890096&#45;&gt;2592517841664</title>
<path fill="none" stroke="black" d="M1289.17,-267.8C1309.67,-270.51 1330.54,-273.27 1347.17,-275.48"/>
<polygon fill="black" stroke="black" points="1346.6,-278.93 1356.97,-276.77 1347.52,-271.99 1346.6,-278.93"/>
</g>
<!-- 2592517487408&#45;&gt;2592517841952 -->
<g id="edge31" class="edge">
<title>2592517487408&#45;&gt;2592517841952</title>
<path fill="none" stroke="black" d="M1401.78,-427.74C1443.14,-415.55 1542.86,-381.53 1604.25,-321.94 1630.5,-296.45 1648.29,-257.43 1657.85,-232.04"/>
<polygon fill="black" stroke="black" points="1661.06,-233.46 1661.16,-222.86 1654.48,-231.09 1661.06,-233.46"/>
</g>
<!-- 2592517487408&#45;&gt;2592517482704 -->
<g id="edge34" class="edge">
<title>2592517487408&#45;&gt;2592517482704</title>
<path fill="none" stroke="black" d="M1354.14,-432.94C1289.54,-432.94 1124.79,-432.94 1049.92,-432.94"/>
<polygon fill="black" stroke="black" points="1050.22,-429.44 1040.22,-432.94 1050.22,-436.44 1050.22,-429.44"/>
</g>
<!-- 2592517481264&#45;&gt;2592517841952 -->
<g id="edge32" class="edge">
<title>2592517481264&#45;&gt;2592517841952</title>
<path fill="none" stroke="black" d="M1408.21,-339.92C1451.66,-337.09 1541.75,-326.39 1604.25,-285.94 1625.8,-271.99 1643.08,-247.94 1653.86,-230.03"/>
<polygon fill="black" stroke="black" points="1656.88,-231.8 1658.83,-221.39 1650.81,-228.31 1656.88,-231.8"/>
</g>
<!-- 2592517481264&#45;&gt;2592517485488 -->
<g id="edge35" class="edge">
<title>2592517481264&#45;&gt;2592517485488</title>
<path fill="none" stroke="black" d="M1354.14,-340.94C1289.54,-340.94 1124.79,-340.94 1049.92,-340.94"/>
<polygon fill="black" stroke="black" points="1050.22,-337.44 1040.22,-340.94 1050.22,-344.44 1050.22,-337.44"/>
</g>
<!-- 2592517847472&#45;&gt;2592517841952 -->
<g id="edge33" class="edge">
<title>2592517847472&#45;&gt;2592517841952</title>
<path fill="none" stroke="black" d="M1560.24,-76.68C1573.83,-80.76 1591.68,-87.79 1604.25,-98.94 1629.94,-121.72 1647.62,-157.81 1657.34,-181.92"/>
<polygon fill="black" stroke="black" points="1653.96,-182.89 1660.82,-190.96 1660.49,-180.37 1653.96,-182.89"/>
</g>
<!-- 2592517842096&#45;&gt;2592517847472 -->
<g id="edge36" class="edge">
<title>2592517842096&#45;&gt;2592517847472</title>
<path fill="none" stroke="black" d="M1439.1,-58.52C1461.33,-61.51 1486.11,-64.86 1505.38,-67.45"/>
<polygon fill="black" stroke="black" points="1504.72,-70.9 1515.1,-68.76 1505.66,-63.96 1504.72,-70.9"/>
</g>
</g>
</svg>
