<?xml version="1.0" encoding="UTF-8" standalone="no"?>
<!DOCTYPE svg PUBLIC "-//W3C//DTD SVG 1.1//EN"
 "http://www.w3.org/Graphics/SVG/1.1/DTD/svg11.dtd">
<!-- Generated by graphviz version 11.0.0 (20240428.1522)
 -->
<!-- Pages: 1 -->
<svg width="2175pt" height="206pt"
 viewBox="0.00 0.00 2174.50 206.00" xmlns="http://www.w3.org/2000/svg" xmlns:xlink="http://www.w3.org/1999/xlink">
<g id="graph0" class="graph" transform="scale(1 1) rotate(0) translate(4 202)">
<polygon fill="white" stroke="none" points="-4,4 -4,-202 2170.5,-202 2170.5,4 -4,4"/>
<!-- 2592518159968 -->
<g id="node1" class="node">
<title>2592518159968</title>
<ellipse fill="green" stroke="black" cx="18" cy="-99" rx="18" ry="18"/>
</g>
<!-- 2592518145280 -->
<g id="node2" class="node">
<title>2592518145280</title>
<polygon fill="none" stroke="black" points="223,-117 72,-117 72,-81 223,-81 223,-117"/>
<text text-anchor="middle" x="147.5" y="-93.97" font-family="Times New Roman,serif" font-size="12.00">Customer completes journey</text>
</g>
<!-- 2592518159968&#45;&gt;2592518145280 -->
<g id="edge1" class="edge">
<title>2592518159968&#45;&gt;2592518145280</title>
<path fill="none" stroke="black" d="M36.46,-99C43.25,-99 51.56,-99 60.54,-99"/>
<polygon fill="black" stroke="black" points="60.25,-102.5 70.25,-99 60.25,-95.5 60.25,-102.5"/>
</g>
<!-- 2592518146576 -->
<g id="node3" class="node">
<title>2592518146576</title>
<polygon fill="none" stroke="black" points="344,-117 259,-117 259,-81 344,-81 344,-117"/>
<text text-anchor="middle" x="301.5" y="-93.97" font-family="Times New Roman,serif" font-size="12.00">Send reminder</text>
</g>
<!-- 2592518145280&#45;&gt;2592518146576 -->
<g id="edge2" class="edge">
<title>2592518145280&#45;&gt;2592518146576</title>
<path fill="none" stroke="black" d="M223.16,-99C231.24,-99 239.34,-99 247.09,-99"/>
<polygon fill="black" stroke="black" points="247.03,-102.5 257.03,-99 247.03,-95.5 247.03,-102.5"/>
</g>
<!-- 2592518146096 -->
<g id="node4" class="node">
<title>2592518146096</title>
<polygon fill="none" stroke="black" points="529.5,-117 380,-117 380,-81 529.5,-81 529.5,-117"/>
<text text-anchor="middle" x="454.75" y="-93.97" font-family="Times New Roman,serif" font-size="12.00">Customer searches for ticket</text>
</g>
<!-- 2592518146576&#45;&gt;2592518146096 -->
<g id="edge3" class="edge">
<title>2592518146576&#45;&gt;2592518146096</title>
<path fill="none" stroke="black" d="M344.23,-99C351.8,-99 359.95,-99 368.26,-99"/>
<polygon fill="black" stroke="black" points="368.14,-102.5 378.14,-99 368.14,-95.5 368.14,-102.5"/>
</g>
<!-- 2592518146528 -->
<g id="node5" class="node">
<title>2592518146528</title>
<polygon fill="none" stroke="black" points="592.5,-117 565.5,-99 592.5,-81 619.5,-99 592.5,-117"/>
<text text-anchor="middle" x="592.5" y="-93.97" font-family="Times New Roman,serif" font-size="12.00">+</text>
</g>
<!-- 2592518146096&#45;&gt;2592518146528 -->
<g id="edge4" class="edge">
<title>2592518146096&#45;&gt;2592518146528</title>
<path fill="none" stroke="black" d="M529.98,-99C538.01,-99 545.92,-99 553.25,-99"/>
<polygon fill="black" stroke="black" points="553.09,-102.5 563.09,-99 553.09,-95.5 553.09,-102.5"/>
</g>
<!-- 2592513862320 -->
<g id="node6" class="node">
<title>2592513862320</title>
<polygon fill="none" stroke="black" points="775,-144 655.5,-144 655.5,-108 775,-108 775,-144"/>
<text text-anchor="middle" x="715.25" y="-120.97" font-family="Times New Roman,serif" font-size="12.00">Update seat inventory</text>
</g>
<!-- 2592518146528&#45;&gt;2592513862320 -->
<g id="edge5" class="edge">
<title>2592518146528&#45;&gt;2592513862320</title>
<path fill="none" stroke="black" d="M613.44,-103.46C622.17,-105.41 632.99,-107.83 644.27,-110.35"/>
<polygon fill="black" stroke="black" points="643.17,-113.69 653.69,-112.46 644.7,-106.86 643.17,-113.69"/>
</g>
<!-- 2592517361008 -->
<g id="node7" class="node">
<title>2592517361008</title>
<polygon fill="none" stroke="black" points="758.88,-90 671.62,-90 671.62,-54 758.88,-54 758.88,-90"/>
<text text-anchor="middle" x="715.25" y="-66.97" font-family="Times New Roman,serif" font-size="12.00">Generate ticket</text>
</g>
<!-- 2592518146528&#45;&gt;2592517361008 -->
<g id="edge6" class="edge">
<title>2592518146528&#45;&gt;2592517361008</title>
<path fill="none" stroke="black" d="M613.44,-94.54C626.3,-91.67 643.68,-87.78 660.4,-84.04"/>
<polygon fill="black" stroke="black" points="660.75,-87.55 669.75,-81.95 659.23,-80.72 660.75,-87.55"/>
</g>
<!-- 2592518147104 -->
<g id="node8" class="node">
<title>2592518147104</title>
<polygon fill="none" stroke="black" points="838,-117 811,-99 838,-81 865,-99 838,-117"/>
<text text-anchor="middle" x="838" y="-93.97" font-family="Times New Roman,serif" font-size="12.00">+</text>
</g>
<!-- 2592513862320&#45;&gt;2592518147104 -->
<g id="edge7" class="edge">
<title>2592513862320&#45;&gt;2592518147104</title>
<path fill="none" stroke="black" d="M775.21,-112.82C785.82,-110.44 796.48,-108.06 805.9,-105.95"/>
<polygon fill="black" stroke="black" points="806.58,-109.39 815.58,-103.79 805.05,-102.56 806.58,-109.39"/>
</g>
<!-- 2592517361008&#45;&gt;2592518147104 -->
<g id="edge8" class="edge">
<title>2592517361008&#45;&gt;2592518147104</title>
<path fill="none" stroke="black" d="M759.16,-81.6C774.52,-85.03 791.53,-88.83 805.72,-92.01"/>
<polygon fill="black" stroke="black" points="804.88,-95.4 815.4,-94.17 806.4,-88.57 804.88,-95.4"/>
</g>
<!-- 2592518147248 -->
<g id="node9" class="node">
<title>2592518147248</title>
<polygon fill="none" stroke="black" points="1048.25,-198 919,-198 919,-162 1048.25,-162 1048.25,-198"/>
<text text-anchor="middle" x="983.62" y="-174.97" font-family="Times New Roman,serif" font-size="12.00">Provide payment details</text>
</g>
<!-- 2592518147104&#45;&gt;2592518147248 -->
<g id="edge11" class="edge">
<title>2592518147104&#45;&gt;2592518147248</title>
<path fill="none" stroke="black" d="M848.97,-109.98C860.46,-122.05 880.41,-141.27 901,-153 903.35,-154.34 905.78,-155.63 908.26,-156.86"/>
<polygon fill="black" stroke="black" points="906.79,-160.03 917.34,-161 909.69,-153.67 906.79,-160.03"/>
</g>
<!-- 2592518146816 -->
<g id="node10" class="node">
<title>2592518146816</title>
<polygon fill="none" stroke="black" points="1066.25,-144 901,-144 901,-108 1066.25,-108 1066.25,-144"/>
<text text-anchor="middle" x="983.62" y="-120.97" font-family="Times New Roman,serif" font-size="12.00">Post&#45;travel feedback or services</text>
</g>
<!-- 2592518147104&#45;&gt;2592518146816 -->
<g id="edge10" class="edge">
<title>2592518147104&#45;&gt;2592518146816</title>
<path fill="none" stroke="black" d="M859.88,-102.93C868.23,-104.49 878.46,-106.42 889.43,-108.48"/>
<polygon fill="black" stroke="black" points="888.63,-111.89 899.11,-110.3 889.93,-105.01 888.63,-111.89"/>
</g>
<!-- 2592518147920 -->
<g id="node11" class="node">
<title>2592518147920</title>
<polygon fill="none" stroke="black" points="1038.88,-90 928.38,-90 928.38,-54 1038.88,-54 1038.88,-90"/>
<text text-anchor="middle" x="983.62" y="-66.97" font-family="Times New Roman,serif" font-size="12.00">Select date and time</text>
</g>
<!-- 2592518147104&#45;&gt;2592518147920 -->
<g id="edge9" class="edge">
<title>2592518147104&#45;&gt;2592518147920</title>
<path fill="none" stroke="black" d="M859.88,-95.07C874.92,-92.25 896.08,-88.27 916.61,-84.41"/>
<polygon fill="black" stroke="black" points="917.24,-87.85 926.42,-82.57 915.95,-80.97 917.24,-87.85"/>
</g>
<!-- 2592518148304 -->
<g id="node12" class="node">
<title>2592518148304</title>
<polygon fill="none" stroke="black" points="1019.38,-36 947.88,-36 947.88,0 1019.38,0 1019.38,-36"/>
<text text-anchor="middle" x="983.62" y="-12.97" font-family="Times New Roman,serif" font-size="12.00">Select route</text>
</g>
<!-- 2592518147104&#45;&gt;2592518148304 -->
<g id="edge12" class="edge">
<title>2592518147104&#45;&gt;2592518148304</title>
<path fill="none" stroke="black" d="M848.97,-88.02C860.46,-75.95 880.41,-56.73 901,-45 912.02,-38.72 924.72,-33.63 936.77,-29.64"/>
<polygon fill="black" stroke="black" points="937.63,-33.04 946.14,-26.73 935.55,-26.35 937.63,-33.04"/>
</g>
<!-- 2592518145904 -->
<g id="node13" class="node">
<title>2592518145904</title>
<polygon fill="none" stroke="black" points="1129.25,-117 1102.25,-99 1129.25,-81 1156.25,-99 1129.25,-117"/>
<text text-anchor="middle" x="1129.25" y="-93.97" font-family="Times New Roman,serif" font-size="12.00">+</text>
</g>
<!-- 2592518147248&#45;&gt;2592518145904 -->
<g id="edge13" class="edge">
<title>2592518147248&#45;&gt;2592518145904</title>
<path fill="none" stroke="black" d="M1048.53,-161.63C1054.67,-159.05 1060.67,-156.18 1066.25,-153 1082.65,-143.65 1098.66,-129.55 1110.3,-118.1"/>
<polygon fill="black" stroke="black" points="1112.7,-120.64 1117.22,-111.06 1107.71,-115.73 1112.7,-120.64"/>
</g>
<!-- 2592518146816&#45;&gt;2592518145904 -->
<g id="edge14" class="edge">
<title>2592518146816&#45;&gt;2592518145904</title>
<path fill="none" stroke="black" d="M1066.51,-110.61C1077.02,-108.63 1087.24,-106.71 1096.24,-105.02"/>
<polygon fill="black" stroke="black" points="1096.62,-108.51 1105.8,-103.22 1095.33,-101.63 1096.62,-108.51"/>
</g>
<!-- 2592518147920&#45;&gt;2592518145904 -->
<g id="edge15" class="edge">
<title>2592518147920&#45;&gt;2592518145904</title>
<path fill="none" stroke="black" d="M1039.33,-82.28C1058.66,-85.92 1079.73,-89.88 1096.52,-93.03"/>
<polygon fill="black" stroke="black" points="1095.41,-96.39 1105.89,-94.8 1096.7,-89.51 1095.41,-96.39"/>
</g>
<!-- 2592518148304&#45;&gt;2592518145904 -->
<g id="edge16" class="edge">
<title>2592518148304&#45;&gt;2592518145904</title>
<path fill="none" stroke="black" d="M1019.67,-26.28C1034.6,-30.63 1051.86,-36.8 1066.25,-45 1082.65,-54.35 1098.66,-68.45 1110.3,-79.9"/>
<polygon fill="black" stroke="black" points="1107.71,-82.27 1117.22,-86.94 1112.7,-77.36 1107.71,-82.27"/>
</g>
<!-- 2592518147680 -->
<g id="node14" class="node">
<title>2592518147680</title>
<polygon fill="none" stroke="black" points="1219.25,-144 1192.25,-126 1219.25,-108 1246.25,-126 1219.25,-144"/>
<text text-anchor="middle" x="1219.25" y="-120.97" font-family="Times New Roman,serif" font-size="12.00">X</text>
</g>
<!-- 2592518145904&#45;&gt;2592518147680 -->
<g id="edge17" class="edge">
<title>2592518145904&#45;&gt;2592518147680</title>
<path fill="none" stroke="black" d="M1148.48,-104.59C1160.28,-108.21 1175.9,-113.01 1189.36,-117.14"/>
<polygon fill="black" stroke="black" points="1188.01,-120.38 1198.59,-119.97 1190.06,-113.69 1188.01,-120.38"/>
</g>
<!-- 2592518145712 -->
<g id="node15" class="node">
<title>2592518145712</title>
<polygon fill="none" stroke="black" points="1219.25,-90 1192.25,-72 1219.25,-54 1246.25,-72 1219.25,-90"/>
<text text-anchor="middle" x="1219.25" y="-66.97" font-family="Times New Roman,serif" font-size="12.00">X</text>
</g>
<!-- 2592518145904&#45;&gt;2592518145712 -->
<g id="edge18" class="edge">
<title>2592518145904&#45;&gt;2592518145712</title>
<path fill="none" stroke="black" d="M1148.48,-93.41C1160.28,-89.79 1175.9,-84.99 1189.36,-80.86"/>
<polygon fill="black" stroke="black" points="1190.06,-84.31 1198.59,-78.03 1188.01,-77.62 1190.06,-84.31"/>
</g>
<!-- 2592518147776 -->
<g id="node16" class="node">
<title>2592518147776</title>
<polygon fill="none" stroke="black" points="1395,-187 1282.25,-187 1282.25,-151 1395,-151 1395,-187"/>
<text text-anchor="middle" x="1338.62" y="-163.97" font-family="Times New Roman,serif" font-size="12.00">Send ticket via SMS</text>
</g>
<!-- 2592518147680&#45;&gt;2592518147776 -->
<g id="edge19" class="edge">
<title>2592518147680&#45;&gt;2592518147776</title>
<path fill="none" stroke="black" d="M1237.57,-132.34C1248.14,-136.22 1262.35,-141.42 1276.74,-146.7"/>
<polygon fill="black" stroke="black" points="1275.19,-149.85 1285.78,-150.01 1277.6,-143.28 1275.19,-149.85"/>
</g>
<!-- 2592518149408 -->
<g id="node17" class="node">
<title>2592518149408</title>
<polygon fill="none" stroke="black" points="1387.12,-93 1290.12,-93 1290.12,-57 1387.12,-57 1387.12,-93"/>
<text text-anchor="middle" x="1338.62" y="-69.97" font-family="Times New Roman,serif" font-size="12.00">Send instructions</text>
</g>
<!-- 2592518145712&#45;&gt;2592518149408 -->
<g id="edge20" class="edge">
<title>2592518145712&#45;&gt;2592518149408</title>
<path fill="none" stroke="black" d="M1246.01,-72.66C1255.62,-72.9 1266.99,-73.19 1278.37,-73.49"/>
<polygon fill="black" stroke="black" points="1278.11,-76.98 1288.2,-73.74 1278.29,-69.98 1278.11,-76.98"/>
</g>
<!-- 2592518144944 -->
<g id="node18" class="node">
<title>2592518144944</title>
<polygon fill="none" stroke="black" points="1458,-145 1431,-127 1458,-109 1485,-127 1458,-145"/>
<text text-anchor="middle" x="1458" y="-121.97" font-family="Times New Roman,serif" font-size="12.00">X</text>
</g>
<!-- 2592518147776&#45;&gt;2592518144944 -->
<g id="edge21" class="edge">
<title>2592518147776&#45;&gt;2592518144944</title>
<path fill="none" stroke="black" d="M1391.11,-150.58C1404.13,-145.92 1417.64,-141.08 1429.01,-137.01"/>
<polygon fill="black" stroke="black" points="1429.91,-140.41 1438.15,-133.75 1427.55,-133.82 1429.91,-140.41"/>
</g>
<!-- 2592518145760 -->
<g id="node19" class="node">
<title>2592518145760</title>
<polygon fill="none" stroke="black" points="1458,-91 1431,-73 1458,-55 1485,-73 1458,-91"/>
<text text-anchor="middle" x="1458" y="-67.97" font-family="Times New Roman,serif" font-size="12.00">X</text>
</g>
<!-- 2592518149408&#45;&gt;2592518145760 -->
<g id="edge22" class="edge">
<title>2592518149408&#45;&gt;2592518145760</title>
<path fill="none" stroke="black" d="M1387.37,-74.19C1398.04,-74 1409.22,-73.81 1419.41,-73.64"/>
<polygon fill="black" stroke="black" points="1419.39,-77.14 1429.33,-73.47 1419.27,-70.14 1419.39,-77.14"/>
</g>
<!-- 2592518144944&#45;&gt;2592518147680 -->
<g id="edge23" class="edge">
<title>2592518144944&#45;&gt;2592518147680</title>
<path fill="none" stroke="black" d="M1430.4,-126.89C1388.43,-126.71 1306.68,-126.37 1258.44,-126.16"/>
<polygon fill="black" stroke="black" points="1258.48,-122.66 1248.46,-126.12 1258.45,-129.66 1258.48,-122.66"/>
</g>
<!-- 2592518146624 -->
<g id="node20" class="node">
<title>2592518146624</title>
<polygon fill="none" stroke="black" points="1548,-118 1521,-100 1548,-82 1575,-100 1548,-118"/>
<text text-anchor="middle" x="1548" y="-94.97" font-family="Times New Roman,serif" font-size="12.00">+</text>
</g>
<!-- 2592518144944&#45;&gt;2592518146624 -->
<g id="edge25" class="edge">
<title>2592518144944&#45;&gt;2592518146624</title>
<path fill="none" stroke="black" d="M1477.23,-121.41C1489.03,-117.79 1504.65,-112.99 1518.11,-108.86"/>
<polygon fill="black" stroke="black" points="1518.81,-112.31 1527.34,-106.03 1516.76,-105.62 1518.81,-112.31"/>
</g>
<!-- 2592518145760&#45;&gt;2592518145712 -->
<g id="edge24" class="edge">
<title>2592518145760&#45;&gt;2592518145712</title>
<path fill="none" stroke="black" d="M1442.21,-65.15C1429.95,-59.12 1411.86,-51.27 1395,-48 1345.81,-38.46 1331.51,-38.8 1282.25,-48 1269.74,-50.34 1256.51,-55.11 1245.49,-59.79"/>
<polygon fill="black" stroke="black" points="1244.4,-56.44 1236.71,-63.73 1247.27,-62.83 1244.4,-56.44"/>
</g>
<!-- 2592518145760&#45;&gt;2592518146624 -->
<g id="edge26" class="edge">
<title>2592518145760&#45;&gt;2592518146624</title>
<path fill="none" stroke="black" d="M1477.23,-78.59C1489.03,-82.21 1504.65,-87.01 1518.11,-91.14"/>
<polygon fill="black" stroke="black" points="1516.76,-94.38 1527.34,-93.97 1518.81,-87.69 1516.76,-94.38"/>
</g>
<!-- 2592518146240 -->
<g id="node21" class="node">
<title>2592518146240</title>
<polygon fill="none" stroke="black" points="1764.25,-118 1611,-118 1611,-82 1764.25,-82 1764.25,-118"/>
<text text-anchor="middle" x="1687.62" y="-94.97" font-family="Times New Roman,serif" font-size="12.00">Provide personal information</text>
</g>
<!-- 2592518146624&#45;&gt;2592518146240 -->
<g id="edge27" class="edge">
<title>2592518146624&#45;&gt;2592518146240</title>
<path fill="none" stroke="black" d="M1575.86,-100C1582.93,-100 1590.96,-100 1599.38,-100"/>
<polygon fill="black" stroke="black" points="1599.13,-103.5 1609.13,-100 1599.13,-96.5 1599.13,-103.5"/>
</g>
<!-- 2592518146912 -->
<g id="node22" class="node">
<title>2592518146912</title>
<polygon fill="none" stroke="black" points="1827.25,-118 1800.25,-100 1827.25,-82 1854.25,-100 1827.25,-118"/>
<text text-anchor="middle" x="1827.25" y="-94.97" font-family="Times New Roman,serif" font-size="12.00">X</text>
</g>
<!-- 2592518146240&#45;&gt;2592518146912 -->
<g id="edge28" class="edge">
<title>2592518146240&#45;&gt;2592518146912</title>
<path fill="none" stroke="black" d="M1764.68,-100C1772.75,-100 1780.67,-100 1788.02,-100"/>
<polygon fill="black" stroke="black" points="1787.86,-103.5 1797.86,-100 1787.86,-96.5 1787.86,-103.5"/>
</g>
<!-- 2592518145040 -->
<g id="node23" class="node">
<title>2592518145040</title>
<polygon fill="none" stroke="black" points="2067.5,-118 2040.5,-100 2067.5,-82 2094.5,-100 2067.5,-118"/>
<text text-anchor="middle" x="2067.5" y="-94.97" font-family="Times New Roman,serif" font-size="12.00">X</text>
</g>
<!-- 2592518146912&#45;&gt;2592518145040 -->
<g id="edge29" class="edge">
<title>2592518146912&#45;&gt;2592518145040</title>
<path fill="none" stroke="black" d="M1852.08,-101.9C1863.6,-102.72 1877.64,-103.59 1890.25,-104 1941,-105.64 1953.75,-105.64 2004.5,-104 2013.17,-103.72 2022.52,-103.22 2031.25,-102.67"/>
<polygon fill="black" stroke="black" points="2031.42,-106.17 2041.16,-102 2030.95,-99.18 2031.42,-106.17"/>
</g>
<!-- 2592517370176 -->
<g id="node24" class="node">
<title>2592517370176</title>
<polygon fill="none" stroke="black" points="2004.5,-95 1890.25,-95 1890.25,-59 2004.5,-59 2004.5,-95"/>
<text text-anchor="middle" x="1947.38" y="-71.97" font-family="Times New Roman,serif" font-size="12.00">Send ticket via email</text>
</g>
<!-- 2592518146912&#45;&gt;2592517370176 -->
<g id="edge30" class="edge">
<title>2592518146912&#45;&gt;2592517370176</title>
<path fill="none" stroke="black" d="M1848.83,-95.99C1857.4,-94.32 1867.9,-92.28 1878.79,-90.16"/>
<polygon fill="black" stroke="black" points="1879.12,-93.66 1888.26,-88.31 1877.78,-86.79 1879.12,-93.66"/>
</g>
<!-- 2592518160112 -->
<g id="node25" class="node">
<title>2592518160112</title>
<ellipse fill="orange" stroke="black" cx="2148.5" cy="-100" rx="18" ry="18"/>
</g>
<!-- 2592518145040&#45;&gt;2592518160112 -->
<g id="edge32" class="edge">
<title>2592518145040&#45;&gt;2592518160112</title>
<path fill="none" stroke="black" d="M2095.25,-100C2102.88,-100 2111.23,-100 2118.97,-100"/>
<polygon fill="black" stroke="black" points="2118.93,-103.5 2128.93,-100 2118.93,-96.5 2118.93,-103.5"/>
</g>
<!-- 2592517370176&#45;&gt;2592518145040 -->
<g id="edge31" class="edge">
<title>2592517370176&#45;&gt;2592518145040</title>
<path fill="none" stroke="black" d="M2004.67,-87.96C2015.03,-89.98 2025.51,-92.02 2034.82,-93.83"/>
<polygon fill="black" stroke="black" points="2033.92,-97.22 2044.4,-95.7 2035.26,-90.35 2033.92,-97.22"/>
</g>
</g>
</svg>
