<?xml version="1.0" encoding="UTF-8" standalone="no"?>
<!DOCTYPE svg PUBLIC "-//W3C//DTD SVG 1.1//EN"
 "http://www.w3.org/Graphics/SVG/1.1/DTD/svg11.dtd">
<!-- Generated by graphviz version 2.50.0 (0)
 -->
<!-- Pages: 1 -->
<svg width="1592pt" height="44pt"
 viewBox="0.00 0.00 1592.00 44.00" xmlns="http://www.w3.org/2000/svg" xmlns:xlink="http://www.w3.org/1999/xlink">
<g id="graph0" class="graph" transform="scale(1 1) rotate(0) translate(4 40)">
<polygon fill="white" stroke="transparent" points="-4,4 -4,-40 1588,-40 1588,4 -4,4"/>
<!-- 6417050960 -->
<g id="node1" class="node">
<title>6417050960</title>
<ellipse fill="green" stroke="black" cx="18" cy="-18" rx="18" ry="18"/>
</g>
<!-- 6417076112 -->
<g id="node2" class="node">
<title>6417076112</title>
<polygon fill="none" stroke="black" points="209,-36 72,-36 72,0 209,0 209,-36"/>
<text text-anchor="middle" x="140.5" y="-14.9" font-family="Times,serif" font-size="12.00">Receive customer inquiry</text>
</g>
<!-- 6417050960&#45;&gt;6417076112 -->
<g id="edge1" class="edge">
<title>6417050960&#45;&gt;6417076112</title>
<path fill="none" stroke="black" d="M36.01,-18C43.18,-18 52.09,-18 61.64,-18"/>
<polygon fill="black" stroke="black" points="61.78,-21.5 71.78,-18 61.78,-14.5 61.78,-21.5"/>
</g>
<!-- 6417082768 -->
<g id="node3" class="node">
<title>6417082768</title>
<polygon fill="none" stroke="black" points="399,-36 245,-36 245,0 399,0 399,-36"/>
<text text-anchor="middle" x="322" y="-14.9" font-family="Times,serif" font-size="12.00">Collect customer information</text>
</g>
<!-- 6417076112&#45;&gt;6417082768 -->
<g id="edge2" class="edge">
<title>6417076112&#45;&gt;6417082768</title>
<path fill="none" stroke="black" d="M209.11,-18C217.46,-18 226.09,-18 234.68,-18"/>
<polygon fill="black" stroke="black" points="234.73,-21.5 244.73,-18 234.73,-14.5 234.73,-21.5"/>
</g>
<!-- 6417077776 -->
<g id="node4" class="node">
<title>6417077776</title>
<polygon fill="none" stroke="black" points="641,-36 435,-36 435,0 641,0 641,-36"/>
<text text-anchor="middle" x="538" y="-14.9" font-family="Times,serif" font-size="12.00">Address customer concerns or questions</text>
</g>
<!-- 6417082768&#45;&gt;6417077776 -->
<g id="edge3" class="edge">
<title>6417082768&#45;&gt;6417077776</title>
<path fill="none" stroke="black" d="M399.05,-18C407.43,-18 416.08,-18 424.78,-18"/>
<polygon fill="black" stroke="black" points="425,-21.5 435,-18 425,-14.5 425,-21.5"/>
</g>
<!-- 6417072784 -->
<g id="node5" class="node">
<title>6417072784</title>
<polygon fill="none" stroke="black" points="900,-36 677,-36 677,0 900,0 900,-36"/>
<text text-anchor="middle" x="788.5" y="-14.9" font-family="Times,serif" font-size="12.00">Guide customer in selecting product/service</text>
</g>
<!-- 6417077776&#45;&gt;6417072784 -->
<g id="edge4" class="edge">
<title>6417077776&#45;&gt;6417072784</title>
<path fill="none" stroke="black" d="M641.15,-18C649.62,-18 658.23,-18 666.81,-18"/>
<polygon fill="black" stroke="black" points="666.87,-21.5 676.87,-18 666.87,-14.5 666.87,-21.5"/>
</g>
<!-- 6417074448 -->
<g id="node6" class="node">
<title>6417074448</title>
<polygon fill="none" stroke="black" points="1019,-36 936,-36 936,0 1019,0 1019,-36"/>
<text text-anchor="middle" x="977.5" y="-14.9" font-family="Times,serif" font-size="12.00">Provide quote</text>
</g>
<!-- 6417072784&#45;&gt;6417074448 -->
<g id="edge5" class="edge">
<title>6417072784&#45;&gt;6417074448</title>
<path fill="none" stroke="black" d="M900.17,-18C908.94,-18 917.51,-18 925.54,-18"/>
<polygon fill="black" stroke="black" points="925.77,-21.5 935.77,-18 925.77,-14.5 925.77,-21.5"/>
</g>
<!-- 6417081104 -->
<g id="node7" class="node">
<title>6417081104</title>
<polygon fill="none" stroke="black" points="1125,-36 1055,-36 1055,0 1125,0 1125,-36"/>
<text text-anchor="middle" x="1090" y="-14.9" font-family="Times,serif" font-size="12.00">Place order</text>
</g>
<!-- 6417074448&#45;&gt;6417081104 -->
<g id="edge6" class="edge">
<title>6417074448&#45;&gt;6417081104</title>
<path fill="none" stroke="black" d="M1019.02,-18C1027.34,-18 1036.14,-18 1044.59,-18"/>
<polygon fill="black" stroke="black" points="1044.66,-21.5 1054.66,-18 1044.66,-14.5 1044.66,-21.5"/>
</g>
<!-- 6417079440 -->
<g id="node8" class="node">
<title>6417079440</title>
<polygon fill="none" stroke="black" points="1287,-36 1161,-36 1161,0 1287,0 1287,-36"/>
<text text-anchor="middle" x="1224" y="-14.9" font-family="Times,serif" font-size="12.00">Record order in system</text>
</g>
<!-- 6417081104&#45;&gt;6417079440 -->
<g id="edge7" class="edge">
<title>6417081104&#45;&gt;6417079440</title>
<path fill="none" stroke="black" d="M1125.34,-18C1133.27,-18 1142.01,-18 1150.9,-18"/>
<polygon fill="black" stroke="black" points="1150.96,-21.5 1160.96,-18 1150.96,-14.5 1150.96,-21.5"/>
</g>
<!-- 6417054608 -->
<g id="node9" class="node">
<title>6417054608</title>
<polygon fill="none" stroke="black" points="1512,-36 1323,-36 1323,0 1512,0 1512,-36"/>
<text text-anchor="middle" x="1417.5" y="-14.9" font-family="Times,serif" font-size="12.00">Send order confirmation to customer</text>
</g>
<!-- 6417079440&#45;&gt;6417054608 -->
<g id="edge8" class="edge">
<title>6417079440&#45;&gt;6417054608</title>
<path fill="none" stroke="black" d="M1287.17,-18C1295.42,-18 1304.04,-18 1312.75,-18"/>
<polygon fill="black" stroke="black" points="1313,-21.5 1323,-18 1313,-14.5 1313,-21.5"/>
</g>
<!-- 6417088208 -->
<g id="node10" class="node">
<title>6417088208</title>
<ellipse fill="orange" stroke="black" cx="1566" cy="-18" rx="18" ry="18"/>
</g>
<!-- 6417054608&#45;&gt;6417088208 -->
<g id="edge9" class="edge">
<title>6417054608&#45;&gt;6417088208</title>
<path fill="none" stroke="black" d="M1512.11,-18C1521.41,-18 1530.23,-18 1537.92,-18"/>
<polygon fill="black" stroke="black" points="1537.94,-21.5 1547.94,-18 1537.94,-14.5 1537.94,-21.5"/>
</g>
</g>
</svg>
