<?xml version="1.0" encoding="UTF-8" standalone="no"?>
<!DOCTYPE svg PUBLIC "-//W3C//DTD SVG 1.1//EN"
 "http://www.w3.org/Graphics/SVG/1.1/DTD/svg11.dtd">
<!-- Generated by graphviz version 2.50.0 (0)
 -->
<!-- Pages: 1 -->
<svg width="1772pt" height="72pt"
 viewBox="0.00 0.00 1772.00 72.00" xmlns="http://www.w3.org/2000/svg" xmlns:xlink="http://www.w3.org/1999/xlink">
<g id="graph0" class="graph" transform="scale(1 1) rotate(0) translate(4 68)">
<polygon fill="white" stroke="transparent" points="-4,4 -4,-68 1768,-68 1768,4 -4,4"/>
<!-- 6439781776 -->
<g id="node1" class="node">
<title>6439781776</title>
<ellipse fill="green" stroke="black" cx="18" cy="-41" rx="18" ry="18"/>
</g>
<!-- 12903836624 -->
<g id="node2" class="node">
<title>12903836624</title>
<polygon fill="none" stroke="black" points="99,-59 72,-41 99,-23 126,-41 99,-59"/>
<text text-anchor="middle" x="99" y="-37.9" font-family="Times,serif" font-size="12.00">X</text>
</g>
<!-- 6439781776&#45;&gt;12903836624 -->
<g id="edge1" class="edge">
<title>6439781776&#45;&gt;12903836624</title>
<path fill="none" stroke="black" d="M36.14,-41C43.64,-41 52.75,-41 61.64,-41"/>
<polygon fill="black" stroke="black" points="61.87,-44.5 71.87,-41 61.87,-37.5 61.87,-44.5"/>
</g>
<!-- 12903839376 -->
<g id="node3" class="node">
<title>12903839376</title>
<polygon fill="none" stroke="black" points="1665,-59 1638,-41 1665,-23 1692,-41 1665,-59"/>
<text text-anchor="middle" x="1665" y="-37.9" font-family="Times,serif" font-size="12.00">X</text>
</g>
<!-- 12903836624&#45;&gt;12903839376 -->
<g id="edge3" class="edge">
<title>12903836624&#45;&gt;12903839376</title>
<path fill="none" stroke="black" d="M122.21,-43.77C173.16,-49.89 302.45,-64 411,-64 411,-64 411,-64 1315,-64 1431.57,-64 1569.57,-51.07 1631.3,-44.6"/>
<polygon fill="black" stroke="black" points="1632,-48.04 1641.58,-43.51 1631.26,-41.08 1632,-48.04"/>
</g>
<!-- 12903834064 -->
<g id="node4" class="node">
<title>12903834064</title>
<polygon fill="none" stroke="black" points="299,-36 162,-36 162,0 299,0 299,-36"/>
<text text-anchor="middle" x="230.5" y="-14.9" font-family="Times,serif" font-size="12.00">Receive customer inquiry</text>
</g>
<!-- 12903836624&#45;&gt;12903834064 -->
<g id="edge2" class="edge">
<title>12903836624&#45;&gt;12903834064</title>
<path fill="none" stroke="black" d="M120.81,-37.3C129.6,-35.74 140.44,-33.82 151.83,-31.79"/>
<polygon fill="black" stroke="black" points="152.72,-35.19 161.95,-30 151.5,-28.3 152.72,-35.19"/>
</g>
<!-- 12903910032 -->
<g id="node12" class="node">
<title>12903910032</title>
<ellipse fill="orange" stroke="black" cx="1746" cy="-41" rx="18" ry="18"/>
</g>
<!-- 12903839376&#45;&gt;12903910032 -->
<g id="edge5" class="edge">
<title>12903839376&#45;&gt;12903910032</title>
<path fill="none" stroke="black" d="M1692.31,-41C1700.42,-41 1709.37,-41 1717.56,-41"/>
<polygon fill="black" stroke="black" points="1717.75,-44.5 1727.75,-41 1717.75,-37.5 1717.75,-44.5"/>
</g>
<!-- 12903832336 -->
<g id="node5" class="node">
<title>12903832336</title>
<polygon fill="none" stroke="black" points="489,-36 335,-36 335,0 489,0 489,-36"/>
<text text-anchor="middle" x="412" y="-14.9" font-family="Times,serif" font-size="12.00">Collect customer information</text>
</g>
<!-- 12903834064&#45;&gt;12903832336 -->
<g id="edge4" class="edge">
<title>12903834064&#45;&gt;12903832336</title>
<path fill="none" stroke="black" d="M299.11,-18C307.46,-18 316.09,-18 324.68,-18"/>
<polygon fill="black" stroke="black" points="324.73,-21.5 334.73,-18 324.73,-14.5 324.73,-21.5"/>
</g>
<!-- 6439786128 -->
<g id="node6" class="node">
<title>6439786128</title>
<polygon fill="none" stroke="black" points="731,-36 525,-36 525,0 731,0 731,-36"/>
<text text-anchor="middle" x="628" y="-14.9" font-family="Times,serif" font-size="12.00">Address customer concerns or questions</text>
</g>
<!-- 12903832336&#45;&gt;6439786128 -->
<g id="edge6" class="edge">
<title>12903832336&#45;&gt;6439786128</title>
<path fill="none" stroke="black" d="M489.05,-18C497.43,-18 506.08,-18 514.78,-18"/>
<polygon fill="black" stroke="black" points="515,-21.5 525,-18 515,-14.5 515,-21.5"/>
</g>
<!-- 6439782416 -->
<g id="node7" class="node">
<title>6439782416</title>
<polygon fill="none" stroke="black" points="990,-36 767,-36 767,0 990,0 990,-36"/>
<text text-anchor="middle" x="878.5" y="-14.9" font-family="Times,serif" font-size="12.00">Guide customer in selecting product/service</text>
</g>
<!-- 6439786128&#45;&gt;6439782416 -->
<g id="edge7" class="edge">
<title>6439786128&#45;&gt;6439782416</title>
<path fill="none" stroke="black" d="M731.15,-18C739.62,-18 748.23,-18 756.81,-18"/>
<polygon fill="black" stroke="black" points="756.87,-21.5 766.87,-18 756.87,-14.5 756.87,-21.5"/>
</g>
<!-- 6439790736 -->
<g id="node8" class="node">
<title>6439790736</title>
<polygon fill="none" stroke="black" points="1109,-36 1026,-36 1026,0 1109,0 1109,-36"/>
<text text-anchor="middle" x="1067.5" y="-14.9" font-family="Times,serif" font-size="12.00">Provide quote</text>
</g>
<!-- 6439782416&#45;&gt;6439790736 -->
<g id="edge8" class="edge">
<title>6439782416&#45;&gt;6439790736</title>
<path fill="none" stroke="black" d="M990.17,-18C998.94,-18 1007.51,-18 1015.54,-18"/>
<polygon fill="black" stroke="black" points="1015.77,-21.5 1025.77,-18 1015.77,-14.5 1015.77,-21.5"/>
</g>
<!-- 6439787600 -->
<g id="node9" class="node">
<title>6439787600</title>
<polygon fill="none" stroke="black" points="1215,-36 1145,-36 1145,0 1215,0 1215,-36"/>
<text text-anchor="middle" x="1180" y="-14.9" font-family="Times,serif" font-size="12.00">Place order</text>
</g>
<!-- 6439790736&#45;&gt;6439787600 -->
<g id="edge9" class="edge">
<title>6439790736&#45;&gt;6439787600</title>
<path fill="none" stroke="black" d="M1109.02,-18C1117.34,-18 1126.14,-18 1134.59,-18"/>
<polygon fill="black" stroke="black" points="1134.66,-21.5 1144.66,-18 1134.66,-14.5 1134.66,-21.5"/>
</g>
<!-- 12903828432 -->
<g id="node10" class="node">
<title>12903828432</title>
<polygon fill="none" stroke="black" points="1377,-36 1251,-36 1251,0 1377,0 1377,-36"/>
<text text-anchor="middle" x="1314" y="-14.9" font-family="Times,serif" font-size="12.00">Record order in system</text>
</g>
<!-- 6439787600&#45;&gt;12903828432 -->
<g id="edge10" class="edge">
<title>6439787600&#45;&gt;12903828432</title>
<path fill="none" stroke="black" d="M1215.34,-18C1223.27,-18 1232.01,-18 1240.9,-18"/>
<polygon fill="black" stroke="black" points="1240.96,-21.5 1250.96,-18 1240.96,-14.5 1240.96,-21.5"/>
</g>
<!-- 12903829968 -->
<g id="node11" class="node">
<title>12903829968</title>
<polygon fill="none" stroke="black" points="1602,-36 1413,-36 1413,0 1602,0 1602,-36"/>
<text text-anchor="middle" x="1507.5" y="-14.9" font-family="Times,serif" font-size="12.00">Send order confirmation to customer</text>
</g>
<!-- 12903828432&#45;&gt;12903829968 -->
<g id="edge11" class="edge">
<title>12903828432&#45;&gt;12903829968</title>
<path fill="none" stroke="black" d="M1377.17,-18C1385.42,-18 1394.04,-18 1402.75,-18"/>
<polygon fill="black" stroke="black" points="1403,-21.5 1413,-18 1403,-14.5 1403,-21.5"/>
</g>
<!-- 12903829968&#45;&gt;12903839376 -->
<g id="edge12" class="edge">
<title>12903829968&#45;&gt;12903839376</title>
<path fill="none" stroke="black" d="M1602.1,-31.84C1613.01,-33.46 1623.48,-35.01 1632.61,-36.36"/>
<polygon fill="black" stroke="black" points="1632.26,-39.84 1642.66,-37.84 1633.28,-32.92 1632.26,-39.84"/>
</g>
</g>
</svg>
