<?xml version="1.0" encoding="UTF-8" standalone="no"?>
<!DOCTYPE svg PUBLIC "-//W3C//DTD SVG 1.1//EN"
 "http://www.w3.org/Graphics/SVG/1.1/DTD/svg11.dtd">
<!-- Generated by graphviz version 2.50.0 (0)
 -->
<!-- Pages: 1 -->
<svg width="1592pt" height="44pt"
 viewBox="0.00 0.00 1592.00 44.00" xmlns="http://www.w3.org/2000/svg" xmlns:xlink="http://www.w3.org/1999/xlink">
<g id="graph0" class="graph" transform="scale(1 1) rotate(0) translate(4 40)">
<polygon fill="white" stroke="transparent" points="-4,4 -4,-40 1588,-40 1588,4 -4,4"/>
<!-- 6420749840 -->
<g id="node1" class="node">
<title>6420749840</title>
<ellipse fill="green" stroke="black" cx="18" cy="-18" rx="18" ry="18"/>
</g>
<!-- 6439022416 -->
<g id="node2" class="node">
<title>6439022416</title>
<polygon fill="none" stroke="black" points="209,-36 72,-36 72,0 209,0 209,-36"/>
<text text-anchor="middle" x="140.5" y="-14.9" font-family="Times,serif" font-size="12.00">Receive customer inquiry</text>
</g>
<!-- 6420749840&#45;&gt;6439022416 -->
<g id="edge1" class="edge">
<title>6420749840&#45;&gt;6439022416</title>
<path fill="none" stroke="black" d="M36.01,-18C43.18,-18 52.09,-18 61.64,-18"/>
<polygon fill="black" stroke="black" points="61.78,-21.5 71.78,-18 61.78,-14.5 61.78,-21.5"/>
</g>
<!-- 6420752528 -->
<g id="node3" class="node">
<title>6420752528</title>
<polygon fill="none" stroke="black" points="434,-36 245,-36 245,0 434,0 434,-36"/>
<text text-anchor="middle" x="339.5" y="-14.9" font-family="Times,serif" font-size="12.00">Send order confirmation to customer</text>
</g>
<!-- 6439022416&#45;&gt;6420752528 -->
<g id="edge2" class="edge">
<title>6439022416&#45;&gt;6420752528</title>
<path fill="none" stroke="black" d="M209.02,-18C217.35,-18 226,-18 234.71,-18"/>
<polygon fill="black" stroke="black" points="234.94,-21.5 244.94,-18 234.94,-14.5 234.94,-21.5"/>
</g>
<!-- 6420737872 -->
<g id="node4" class="node">
<title>6420737872</title>
<polygon fill="none" stroke="black" points="596,-36 470,-36 470,0 596,0 596,-36"/>
<text text-anchor="middle" x="533" y="-14.9" font-family="Times,serif" font-size="12.00">Record order in system</text>
</g>
<!-- 6420752528&#45;&gt;6420737872 -->
<g id="edge3" class="edge">
<title>6420752528&#45;&gt;6420737872</title>
<path fill="none" stroke="black" d="M434.01,-18C442.65,-18 451.31,-18 459.72,-18"/>
<polygon fill="black" stroke="black" points="459.83,-21.5 469.83,-18 459.83,-14.5 459.83,-21.5"/>
</g>
<!-- 6420756304 -->
<g id="node5" class="node">
<title>6420756304</title>
<polygon fill="none" stroke="black" points="715,-36 632,-36 632,0 715,0 715,-36"/>
<text text-anchor="middle" x="673.5" y="-14.9" font-family="Times,serif" font-size="12.00">Provide quote</text>
</g>
<!-- 6420737872&#45;&gt;6420756304 -->
<g id="edge4" class="edge">
<title>6420737872&#45;&gt;6420756304</title>
<path fill="none" stroke="black" d="M596.36,-18C604.84,-18 613.46,-18 621.71,-18"/>
<polygon fill="black" stroke="black" points="621.91,-21.5 631.91,-18 621.91,-14.5 621.91,-21.5"/>
</g>
<!-- 6420754576 -->
<g id="node6" class="node">
<title>6420754576</title>
<polygon fill="none" stroke="black" points="821,-36 751,-36 751,0 821,0 821,-36"/>
<text text-anchor="middle" x="786" y="-14.9" font-family="Times,serif" font-size="12.00">Place order</text>
</g>
<!-- 6420756304&#45;&gt;6420754576 -->
<g id="edge5" class="edge">
<title>6420756304&#45;&gt;6420754576</title>
<path fill="none" stroke="black" d="M715.02,-18C723.34,-18 732.14,-18 740.59,-18"/>
<polygon fill="black" stroke="black" points="740.66,-21.5 750.66,-18 740.66,-14.5 740.66,-21.5"/>
</g>
<!-- 6420742800 -->
<g id="node7" class="node">
<title>6420742800</title>
<polygon fill="none" stroke="black" points="1011,-36 857,-36 857,0 1011,0 1011,-36"/>
<text text-anchor="middle" x="934" y="-14.9" font-family="Times,serif" font-size="12.00">Collect customer information</text>
</g>
<!-- 6420754576&#45;&gt;6420742800 -->
<g id="edge6" class="edge">
<title>6420754576&#45;&gt;6420742800</title>
<path fill="none" stroke="black" d="M821.23,-18C829.07,-18 837.75,-18 846.7,-18"/>
<polygon fill="black" stroke="black" points="846.9,-21.5 856.9,-18 846.9,-14.5 846.9,-21.5"/>
</g>
<!-- 6420750928 -->
<g id="node8" class="node">
<title>6420750928</title>
<polygon fill="none" stroke="black" points="1253,-36 1047,-36 1047,0 1253,0 1253,-36"/>
<text text-anchor="middle" x="1150" y="-14.9" font-family="Times,serif" font-size="12.00">Address customer concerns or questions</text>
</g>
<!-- 6420742800&#45;&gt;6420750928 -->
<g id="edge7" class="edge">
<title>6420742800&#45;&gt;6420750928</title>
<path fill="none" stroke="black" d="M1011.05,-18C1019.43,-18 1028.08,-18 1036.78,-18"/>
<polygon fill="black" stroke="black" points="1037,-21.5 1047,-18 1037,-14.5 1037,-21.5"/>
</g>
<!-- 6420757776 -->
<g id="node9" class="node">
<title>6420757776</title>
<polygon fill="none" stroke="black" points="1512,-36 1289,-36 1289,0 1512,0 1512,-36"/>
<text text-anchor="middle" x="1400.5" y="-14.9" font-family="Times,serif" font-size="12.00">Guide customer in selecting product/service</text>
</g>
<!-- 6420750928&#45;&gt;6420757776 -->
<g id="edge8" class="edge">
<title>6420750928&#45;&gt;6420757776</title>
<path fill="none" stroke="black" d="M1253.15,-18C1261.62,-18 1270.23,-18 1278.81,-18"/>
<polygon fill="black" stroke="black" points="1278.87,-21.5 1288.87,-18 1278.87,-14.5 1278.87,-21.5"/>
</g>
<!-- 6420745808 -->
<g id="node10" class="node">
<title>6420745808</title>
<ellipse fill="orange" stroke="black" cx="1566" cy="-18" rx="18" ry="18"/>
</g>
<!-- 6420757776&#45;&gt;6420745808 -->
<g id="edge9" class="edge">
<title>6420757776&#45;&gt;6420745808</title>
<path fill="none" stroke="black" d="M1512.37,-18C1521.55,-18 1530.17,-18 1537.67,-18"/>
<polygon fill="black" stroke="black" points="1537.79,-21.5 1547.79,-18 1537.79,-14.5 1537.79,-21.5"/>
</g>
</g>
</svg>
