<?xml version="1.0" encoding="UTF-8" standalone="no"?>
<!DOCTYPE svg PUBLIC "-//W3C//DTD SVG 1.1//EN"
 "http://www.w3.org/Graphics/SVG/1.1/DTD/svg11.dtd">
<!-- Generated by graphviz version 2.50.0 (0)
 -->
<!-- Pages: 1 -->
<svg width="1592pt" height="44pt"
 viewBox="0.00 0.00 1592.00 44.00" xmlns="http://www.w3.org/2000/svg" xmlns:xlink="http://www.w3.org/1999/xlink">
<g id="graph0" class="graph" transform="scale(1 1) rotate(0) translate(4 40)">
<polygon fill="white" stroke="transparent" points="-4,4 -4,-40 1588,-40 1588,4 -4,4"/>
<!-- 12902742544 -->
<g id="node1" class="node">
<title>12902742544</title>
<ellipse fill="green" stroke="black" cx="18" cy="-18" rx="18" ry="18"/>
</g>
<!-- 12902365904 -->
<g id="node2" class="node">
<title>12902365904</title>
<polygon fill="none" stroke="black" points="209,-36 72,-36 72,0 209,0 209,-36"/>
<text text-anchor="middle" x="140.5" y="-14.9" font-family="Times,serif" font-size="12.00">Receive customer inquiry</text>
</g>
<!-- 12902742544&#45;&gt;12902365904 -->
<g id="edge1" class="edge">
<title>12902742544&#45;&gt;12902365904</title>
<path fill="none" stroke="black" d="M36.01,-18C43.18,-18 52.09,-18 61.64,-18"/>
<polygon fill="black" stroke="black" points="61.78,-21.5 71.78,-18 61.78,-14.5 61.78,-21.5"/>
</g>
<!-- 12902389584 -->
<g id="node3" class="node">
<title>12902389584</title>
<polygon fill="none" stroke="black" points="399,-36 245,-36 245,0 399,0 399,-36"/>
<text text-anchor="middle" x="322" y="-14.9" font-family="Times,serif" font-size="12.00">Collect customer information</text>
</g>
<!-- 12902365904&#45;&gt;12902389584 -->
<g id="edge2" class="edge">
<title>12902365904&#45;&gt;12902389584</title>
<path fill="none" stroke="black" d="M209.11,-18C217.46,-18 226.09,-18 234.68,-18"/>
<polygon fill="black" stroke="black" points="234.73,-21.5 244.73,-18 234.73,-14.5 234.73,-21.5"/>
</g>
<!-- 12902343312 -->
<g id="node4" class="node">
<title>12902343312</title>
<polygon fill="none" stroke="black" points="505,-36 435,-36 435,0 505,0 505,-36"/>
<text text-anchor="middle" x="470" y="-14.9" font-family="Times,serif" font-size="12.00">Place order</text>
</g>
<!-- 12902389584&#45;&gt;12902343312 -->
<g id="edge3" class="edge">
<title>12902389584&#45;&gt;12902343312</title>
<path fill="none" stroke="black" d="M399.42,-18C408.06,-18 416.63,-18 424.65,-18"/>
<polygon fill="black" stroke="black" points="424.84,-21.5 434.84,-18 424.84,-14.5 424.84,-21.5"/>
</g>
<!-- 12902349264 -->
<g id="node5" class="node">
<title>12902349264</title>
<polygon fill="none" stroke="black" points="667,-36 541,-36 541,0 667,0 667,-36"/>
<text text-anchor="middle" x="604" y="-14.9" font-family="Times,serif" font-size="12.00">Record order in system</text>
</g>
<!-- 12902343312&#45;&gt;12902349264 -->
<g id="edge4" class="edge">
<title>12902343312&#45;&gt;12902349264</title>
<path fill="none" stroke="black" d="M505.34,-18C513.27,-18 522.01,-18 530.9,-18"/>
<polygon fill="black" stroke="black" points="530.96,-21.5 540.96,-18 530.96,-14.5 530.96,-21.5"/>
</g>
<!-- 12902351888 -->
<g id="node6" class="node">
<title>12902351888</title>
<polygon fill="none" stroke="black" points="892,-36 703,-36 703,0 892,0 892,-36"/>
<text text-anchor="middle" x="797.5" y="-14.9" font-family="Times,serif" font-size="12.00">Send order confirmation to customer</text>
</g>
<!-- 12902349264&#45;&gt;12902351888 -->
<g id="edge5" class="edge">
<title>12902349264&#45;&gt;12902351888</title>
<path fill="none" stroke="black" d="M667.17,-18C675.42,-18 684.04,-18 692.75,-18"/>
<polygon fill="black" stroke="black" points="693,-21.5 703,-18 693,-14.5 693,-21.5"/>
</g>
<!-- 12902392528 -->
<g id="node7" class="node">
<title>12902392528</title>
<polygon fill="none" stroke="black" points="1134,-36 928,-36 928,0 1134,0 1134,-36"/>
<text text-anchor="middle" x="1031" y="-14.9" font-family="Times,serif" font-size="12.00">Address customer concerns or questions</text>
</g>
<!-- 12902351888&#45;&gt;12902392528 -->
<g id="edge6" class="edge">
<title>12902351888&#45;&gt;12902392528</title>
<path fill="none" stroke="black" d="M892.33,-18C900.61,-18 909.06,-18 917.47,-18"/>
<polygon fill="black" stroke="black" points="917.72,-21.5 927.72,-18 917.72,-14.5 917.72,-21.5"/>
</g>
<!-- 12902362192 -->
<g id="node8" class="node">
<title>12902362192</title>
<polygon fill="none" stroke="black" points="1253,-36 1170,-36 1170,0 1253,0 1253,-36"/>
<text text-anchor="middle" x="1211.5" y="-14.9" font-family="Times,serif" font-size="12.00">Provide quote</text>
</g>
<!-- 12902392528&#45;&gt;12902362192 -->
<g id="edge7" class="edge">
<title>12902392528&#45;&gt;12902362192</title>
<path fill="none" stroke="black" d="M1134.02,-18C1142.92,-18 1151.64,-18 1159.83,-18"/>
<polygon fill="black" stroke="black" points="1159.88,-21.5 1169.88,-18 1159.88,-14.5 1159.88,-21.5"/>
</g>
<!-- 12902397840 -->
<g id="node9" class="node">
<title>12902397840</title>
<polygon fill="none" stroke="black" points="1512,-36 1289,-36 1289,0 1512,0 1512,-36"/>
<text text-anchor="middle" x="1400.5" y="-14.9" font-family="Times,serif" font-size="12.00">Guide customer in selecting product/service</text>
</g>
<!-- 12902362192&#45;&gt;12902397840 -->
<g id="edge8" class="edge">
<title>12902362192&#45;&gt;12902397840</title>
<path fill="none" stroke="black" d="M1253.08,-18C1261.04,-18 1269.78,-18 1278.88,-18"/>
<polygon fill="black" stroke="black" points="1278.9,-21.5 1288.9,-18 1278.9,-14.5 1278.9,-21.5"/>
</g>
<!-- 12902338768 -->
<g id="node10" class="node">
<title>12902338768</title>
<ellipse fill="orange" stroke="black" cx="1566" cy="-18" rx="18" ry="18"/>
</g>
<!-- 12902397840&#45;&gt;12902338768 -->
<g id="edge9" class="edge">
<title>12902397840&#45;&gt;12902338768</title>
<path fill="none" stroke="black" d="M1512.37,-18C1521.55,-18 1530.17,-18 1537.67,-18"/>
<polygon fill="black" stroke="black" points="1537.79,-21.5 1547.79,-18 1537.79,-14.5 1537.79,-21.5"/>
</g>
</g>
</svg>
