<?xml version="1.0" encoding="UTF-8" standalone="no"?>
<!DOCTYPE svg PUBLIC "-//W3C//DTD SVG 1.1//EN"
 "http://www.w3.org/Graphics/SVG/1.1/DTD/svg11.dtd">
<!-- Generated by graphviz version 2.50.0 (0)
 -->
<!-- Pages: 1 -->
<svg width="1592pt" height="44pt"
 viewBox="0.00 0.00 1592.00 44.00" xmlns="http://www.w3.org/2000/svg" xmlns:xlink="http://www.w3.org/1999/xlink">
<g id="graph0" class="graph" transform="scale(1 1) rotate(0) translate(4 40)">
<polygon fill="white" stroke="transparent" points="-4,4 -4,-40 1588,-40 1588,4 -4,4"/>
<!-- 6409276368 -->
<g id="node1" class="node">
<title>6409276368</title>
<ellipse fill="green" stroke="black" cx="18" cy="-18" rx="18" ry="18"/>
</g>
<!-- 12902634192 -->
<g id="node2" class="node">
<title>12902634192</title>
<polygon fill="none" stroke="black" points="226,-36 72,-36 72,0 226,0 226,-36"/>
<text text-anchor="middle" x="149" y="-14.9" font-family="Times,serif" font-size="12.00">Collect customer information</text>
</g>
<!-- 6409276368&#45;&gt;12902634192 -->
<g id="edge1" class="edge">
<title>6409276368&#45;&gt;12902634192</title>
<path fill="none" stroke="black" d="M36.13,-18C43.25,-18 52.09,-18 61.65,-18"/>
<polygon fill="black" stroke="black" points="61.84,-21.5 71.84,-18 61.84,-14.5 61.84,-21.5"/>
</g>
<!-- 12905167568 -->
<g id="node3" class="node">
<title>12905167568</title>
<polygon fill="none" stroke="black" points="399,-36 262,-36 262,0 399,0 399,-36"/>
<text text-anchor="middle" x="330.5" y="-14.9" font-family="Times,serif" font-size="12.00">Receive customer inquiry</text>
</g>
<!-- 12902634192&#45;&gt;12905167568 -->
<g id="edge2" class="edge">
<title>12902634192&#45;&gt;12905167568</title>
<path fill="none" stroke="black" d="M226.12,-18C234.55,-18 243.14,-18 251.58,-18"/>
<polygon fill="black" stroke="black" points="251.79,-21.5 261.79,-18 251.79,-14.5 251.79,-21.5"/>
</g>
<!-- 12905443216 -->
<g id="node4" class="node">
<title>12905443216</title>
<polygon fill="none" stroke="black" points="505,-36 435,-36 435,0 505,0 505,-36"/>
<text text-anchor="middle" x="470" y="-14.9" font-family="Times,serif" font-size="12.00">Place order</text>
</g>
<!-- 12905167568&#45;&gt;12905443216 -->
<g id="edge3" class="edge">
<title>12905167568&#45;&gt;12905443216</title>
<path fill="none" stroke="black" d="M399.04,-18C407.73,-18 416.45,-18 424.64,-18"/>
<polygon fill="black" stroke="black" points="424.68,-21.5 434.68,-18 424.68,-14.5 424.68,-21.5"/>
</g>
<!-- 12905440912 -->
<g id="node5" class="node">
<title>12905440912</title>
<polygon fill="none" stroke="black" points="730,-36 541,-36 541,0 730,0 730,-36"/>
<text text-anchor="middle" x="635.5" y="-14.9" font-family="Times,serif" font-size="12.00">Send order confirmation to customer</text>
</g>
<!-- 12905443216&#45;&gt;12905440912 -->
<g id="edge4" class="edge">
<title>12905443216&#45;&gt;12905440912</title>
<path fill="none" stroke="black" d="M505.27,-18C513.11,-18 521.85,-18 530.97,-18"/>
<polygon fill="black" stroke="black" points="530.99,-21.5 540.99,-18 530.99,-14.5 530.99,-21.5"/>
</g>
<!-- 12905443664 -->
<g id="node6" class="node">
<title>12905443664</title>
<polygon fill="none" stroke="black" points="972,-36 766,-36 766,0 972,0 972,-36"/>
<text text-anchor="middle" x="869" y="-14.9" font-family="Times,serif" font-size="12.00">Address customer concerns or questions</text>
</g>
<!-- 12905440912&#45;&gt;12905443664 -->
<g id="edge5" class="edge">
<title>12905440912&#45;&gt;12905443664</title>
<path fill="none" stroke="black" d="M730.33,-18C738.61,-18 747.06,-18 755.47,-18"/>
<polygon fill="black" stroke="black" points="755.72,-21.5 765.72,-18 755.72,-14.5 755.72,-21.5"/>
</g>
<!-- 12905439952 -->
<g id="node7" class="node">
<title>12905439952</title>
<polygon fill="none" stroke="black" points="1091,-36 1008,-36 1008,0 1091,0 1091,-36"/>
<text text-anchor="middle" x="1049.5" y="-14.9" font-family="Times,serif" font-size="12.00">Provide quote</text>
</g>
<!-- 12905443664&#45;&gt;12905439952 -->
<g id="edge6" class="edge">
<title>12905443664&#45;&gt;12905439952</title>
<path fill="none" stroke="black" d="M972.02,-18C980.92,-18 989.64,-18 997.83,-18"/>
<polygon fill="black" stroke="black" points="997.88,-21.5 1007.88,-18 997.88,-14.5 997.88,-21.5"/>
</g>
<!-- 12905438160 -->
<g id="node8" class="node">
<title>12905438160</title>
<polygon fill="none" stroke="black" points="1350,-36 1127,-36 1127,0 1350,0 1350,-36"/>
<text text-anchor="middle" x="1238.5" y="-14.9" font-family="Times,serif" font-size="12.00">Guide customer in selecting product/service</text>
</g>
<!-- 12905439952&#45;&gt;12905438160 -->
<g id="edge7" class="edge">
<title>12905439952&#45;&gt;12905438160</title>
<path fill="none" stroke="black" d="M1091.08,-18C1099.04,-18 1107.78,-18 1116.88,-18"/>
<polygon fill="black" stroke="black" points="1116.9,-21.5 1126.9,-18 1116.9,-14.5 1116.9,-21.5"/>
</g>
<!-- 12905446416 -->
<g id="node9" class="node">
<title>12905446416</title>
<polygon fill="none" stroke="black" points="1512,-36 1386,-36 1386,0 1512,0 1512,-36"/>
<text text-anchor="middle" x="1449" y="-14.9" font-family="Times,serif" font-size="12.00">Record order in system</text>
</g>
<!-- 12905438160&#45;&gt;12905446416 -->
<g id="edge8" class="edge">
<title>12905438160&#45;&gt;12905446416</title>
<path fill="none" stroke="black" d="M1350.16,-18C1358.89,-18 1367.56,-18 1375.93,-18"/>
<polygon fill="black" stroke="black" points="1375.96,-21.5 1385.96,-18 1375.96,-14.5 1375.96,-21.5"/>
</g>
<!-- 12905432528 -->
<g id="node10" class="node">
<title>12905432528</title>
<ellipse fill="orange" stroke="black" cx="1566" cy="-18" rx="18" ry="18"/>
</g>
<!-- 12905446416&#45;&gt;12905432528 -->
<g id="edge9" class="edge">
<title>12905446416&#45;&gt;12905432528</title>
<path fill="none" stroke="black" d="M1512.21,-18C1521.13,-18 1529.9,-18 1537.65,-18"/>
<polygon fill="black" stroke="black" points="1537.84,-21.5 1547.84,-18 1537.84,-14.5 1537.84,-21.5"/>
</g>
</g>
</svg>
