<?xml version="1.0" encoding="UTF-8" standalone="no"?>
<!DOCTYPE svg PUBLIC "-//W3C//DTD SVG 1.1//EN"
 "http://www.w3.org/Graphics/SVG/1.1/DTD/svg11.dtd">
<!-- Generated by graphviz version 2.50.0 (0)
 -->
<!-- Pages: 1 -->
<svg width="2764pt" height="229pt"
 viewBox="0.00 0.00 2764.00 228.90" xmlns="http://www.w3.org/2000/svg" xmlns:xlink="http://www.w3.org/1999/xlink">
<g id="graph0" class="graph" transform="scale(1 1) rotate(0) translate(4 224.9)">
<polygon fill="white" stroke="transparent" points="-4,4 -4,-224.9 2760,-224.9 2760,4 -4,4"/>
<!-- 6034194384 -->
<g id="node1" class="node">
<title>6034194384</title>
<ellipse fill="green" stroke="black" cx="18" cy="-68.9" rx="18" ry="18"/>
</g>
<!-- 6033927376 -->
<g id="node2" class="node">
<title>6033927376</title>
<polygon fill="none" stroke="black" points="222,-86.9 72,-86.9 72,-50.9 222,-50.9 222,-86.9"/>
<text text-anchor="middle" x="147" y="-65.8" font-family="Times,serif" font-size="12.00">Customer searches for ticket</text>
</g>
<!-- 6034194384&#45;&gt;6033927376 -->
<g id="edge1" class="edge">
<title>6034194384&#45;&gt;6033927376</title>
<path fill="none" stroke="black" d="M36.13,-68.9C43.26,-68.9 52.12,-68.9 61.68,-68.9"/>
<polygon fill="black" stroke="black" points="61.86,-72.4 71.86,-68.9 61.86,-65.4 61.86,-72.4"/>
</g>
<!-- 6033924304 -->
<g id="node3" class="node">
<title>6033924304</title>
<polygon fill="none" stroke="black" points="285,-86.9 258,-68.9 285,-50.9 312,-68.9 285,-86.9"/>
<text text-anchor="middle" x="285" y="-65.8" font-family="Times,serif" font-size="12.00">+</text>
</g>
<!-- 6033927376&#45;&gt;6033924304 -->
<g id="edge2" class="edge">
<title>6033927376&#45;&gt;6033924304</title>
<path fill="none" stroke="black" d="M222.37,-68.9C231.15,-68.9 239.79,-68.9 247.69,-68.9"/>
<polygon fill="black" stroke="black" points="247.96,-72.4 257.96,-68.9 247.96,-65.4 247.96,-72.4"/>
</g>
<!-- 6033916816 -->
<g id="node4" class="node">
<title>6033916816</title>
<polygon fill="none" stroke="black" points="439.5,-113.9 367.5,-113.9 367.5,-77.9 439.5,-77.9 439.5,-113.9"/>
<text text-anchor="middle" x="403.5" y="-92.8" font-family="Times,serif" font-size="12.00">Select route</text>
</g>
<!-- 6033924304&#45;&gt;6033916816 -->
<g id="edge4" class="edge">
<title>6033924304&#45;&gt;6033916816</title>
<path fill="none" stroke="black" d="M305.5,-73.42C319.71,-76.71 339.55,-81.31 357.59,-85.49"/>
<polygon fill="black" stroke="black" points="356.84,-88.91 367.38,-87.76 358.42,-82.09 356.84,-88.91"/>
</g>
<!-- 6033931600 -->
<g id="node5" class="node">
<title>6033931600</title>
<polygon fill="none" stroke="black" points="459,-59.9 348,-59.9 348,-23.9 459,-23.9 459,-59.9"/>
<text text-anchor="middle" x="403.5" y="-38.8" font-family="Times,serif" font-size="12.00">Select date and time</text>
</g>
<!-- 6033924304&#45;&gt;6033931600 -->
<g id="edge3" class="edge">
<title>6033924304&#45;&gt;6033931600</title>
<path fill="none" stroke="black" d="M305.5,-64.38C314.66,-62.25 326.16,-59.59 338.01,-56.84"/>
<polygon fill="black" stroke="black" points="339.04,-60.2 348,-54.53 337.46,-53.38 339.04,-60.2"/>
</g>
<!-- 6033925072 -->
<g id="node6" class="node">
<title>6033925072</title>
<polygon fill="none" stroke="black" points="522,-86.9 495,-68.9 522,-50.9 549,-68.9 522,-86.9"/>
<text text-anchor="middle" x="522" y="-65.8" font-family="Times,serif" font-size="12.00">+</text>
</g>
<!-- 6033916816&#45;&gt;6033925072 -->
<g id="edge5" class="edge">
<title>6033916816&#45;&gt;6033925072</title>
<path fill="none" stroke="black" d="M439.77,-87.72C456.36,-83.88 475.91,-79.35 491.68,-75.69"/>
<polygon fill="black" stroke="black" points="492.47,-79.1 501.42,-73.43 490.89,-72.28 492.47,-79.1"/>
</g>
<!-- 6033931600&#45;&gt;6033925072 -->
<g id="edge6" class="edge">
<title>6033931600&#45;&gt;6033925072</title>
<path fill="none" stroke="black" d="M459.34,-54.61C470.43,-57.18 481.69,-59.79 491.5,-62.06"/>
<polygon fill="black" stroke="black" points="490.97,-65.53 501.5,-64.38 492.55,-58.71 490.97,-65.53"/>
</g>
<!-- 6033928528 -->
<g id="node7" class="node">
<title>6033928528</title>
<polygon fill="none" stroke="black" points="739,-113.9 585,-113.9 585,-77.9 739,-77.9 739,-113.9"/>
<text text-anchor="middle" x="662" y="-92.8" font-family="Times,serif" font-size="12.00">Provide personal information</text>
</g>
<!-- 6033925072&#45;&gt;6033928528 -->
<g id="edge7" class="edge">
<title>6033925072&#45;&gt;6033928528</title>
<path fill="none" stroke="black" d="M543.36,-72.88C552.21,-74.61 563.22,-76.77 574.94,-79.06"/>
<polygon fill="black" stroke="black" points="574.42,-82.52 584.91,-81.01 575.77,-75.65 574.42,-82.52"/>
</g>
<!-- 6033921808 -->
<g id="node8" class="node">
<title>6033921808</title>
<polygon fill="none" stroke="black" points="727,-59.9 597,-59.9 597,-23.9 727,-23.9 727,-59.9"/>
<text text-anchor="middle" x="662" y="-38.8" font-family="Times,serif" font-size="12.00">Provide payment details</text>
</g>
<!-- 6033925072&#45;&gt;6033921808 -->
<g id="edge8" class="edge">
<title>6033925072&#45;&gt;6033921808</title>
<path fill="none" stroke="black" d="M543.36,-64.91C555.16,-62.6 570.82,-59.54 586.84,-56.41"/>
<polygon fill="black" stroke="black" points="587.7,-59.8 596.84,-54.45 586.36,-52.93 587.7,-59.8"/>
</g>
<!-- 6033951312 -->
<g id="node9" class="node">
<title>6033951312</title>
<polygon fill="none" stroke="black" points="802,-86.9 775,-68.9 802,-50.9 829,-68.9 802,-86.9"/>
<text text-anchor="middle" x="802" y="-65.8" font-family="Times,serif" font-size="12.00">+</text>
</g>
<!-- 6033928528&#45;&gt;6033951312 -->
<g id="edge9" class="edge">
<title>6033928528&#45;&gt;6033951312</title>
<path fill="none" stroke="black" d="M739.27,-80.97C750.41,-78.8 761.29,-76.67 770.74,-74.82"/>
<polygon fill="black" stroke="black" points="771.6,-78.22 780.74,-72.86 770.26,-71.35 771.6,-78.22"/>
</g>
<!-- 6033921808&#45;&gt;6033951312 -->
<g id="edge10" class="edge">
<title>6033921808&#45;&gt;6033951312</title>
<path fill="none" stroke="black" d="M727.15,-54.45C742.33,-57.42 757.82,-60.45 770.67,-62.96"/>
<polygon fill="black" stroke="black" points="770.29,-66.45 780.78,-64.94 771.63,-59.58 770.29,-66.45"/>
</g>
<!-- 6033955792 -->
<g id="node10" class="node">
<title>6033955792</title>
<polygon fill="none" stroke="black" points="953,-86.9 865,-86.9 865,-50.9 953,-50.9 953,-86.9"/>
<text text-anchor="middle" x="909" y="-65.8" font-family="Times,serif" font-size="12.00">Generate ticket</text>
</g>
<!-- 6033951312&#45;&gt;6033955792 -->
<g id="edge11" class="edge">
<title>6033951312&#45;&gt;6033955792</title>
<path fill="none" stroke="black" d="M829.23,-68.9C837.08,-68.9 845.99,-68.9 854.93,-68.9"/>
<polygon fill="black" stroke="black" points="854.97,-72.4 864.97,-68.9 854.97,-65.4 854.97,-72.4"/>
</g>
<!-- 6033949712 -->
<g id="node11" class="node">
<title>6033949712</title>
<polygon fill="none" stroke="black" points="1016,-86.9 989,-68.9 1016,-50.9 1043,-68.9 1016,-86.9"/>
<text text-anchor="middle" x="1016" y="-65.8" font-family="Times,serif" font-size="12.00">+</text>
</g>
<!-- 6033955792&#45;&gt;6033949712 -->
<g id="edge12" class="edge">
<title>6033955792&#45;&gt;6033949712</title>
<path fill="none" stroke="black" d="M953.01,-68.9C961.53,-68.9 970.4,-68.9 978.67,-68.9"/>
<polygon fill="black" stroke="black" points="978.76,-72.4 988.76,-68.9 978.76,-65.4 978.76,-72.4"/>
</g>
<!-- 6034194064 -->
<g id="node12" class="node">
<title>6034194064</title>
<polygon fill="none" stroke="black" points="1106,-109.9 1079,-91.9 1106,-73.9 1133,-91.9 1106,-109.9"/>
<text text-anchor="middle" x="1106" y="-88.8" font-family="Times,serif" font-size="12.00">X</text>
</g>
<!-- 6033949712&#45;&gt;6034194064 -->
<g id="edge13" class="edge">
<title>6033949712&#45;&gt;6034194064</title>
<path fill="none" stroke="black" d="M1036.09,-73.89C1047.82,-76.95 1063.07,-80.94 1076.24,-84.38"/>
<polygon fill="black" stroke="black" points="1075.68,-87.85 1086.24,-86.99 1077.45,-81.08 1075.68,-87.85"/>
</g>
<!-- 6033953744 -->
<g id="node13" class="node">
<title>6033953744</title>
<polygon fill="none" stroke="black" points="1440,-63.9 1320,-63.9 1320,-27.9 1440,-27.9 1440,-63.9"/>
<text text-anchor="middle" x="1380" y="-42.8" font-family="Times,serif" font-size="12.00">Update seat inventory</text>
</g>
<!-- 6033949712&#45;&gt;6033953744 -->
<g id="edge14" class="edge">
<title>6033949712&#45;&gt;6033953744</title>
<path fill="none" stroke="black" d="M1040.85,-67.35C1052.37,-66.61 1066.41,-65.7 1079,-64.9 1158.02,-59.85 1248.75,-54.11 1309.56,-50.27"/>
<polygon fill="black" stroke="black" points="1310.04,-53.75 1319.8,-49.63 1309.6,-46.76 1310.04,-53.75"/>
</g>
<!-- 6034178384 -->
<g id="node14" class="node">
<title>6034178384</title>
<polygon fill="none" stroke="black" points="1284,-163.9 1169,-163.9 1169,-127.9 1284,-127.9 1284,-163.9"/>
<text text-anchor="middle" x="1226.5" y="-142.8" font-family="Times,serif" font-size="12.00">Send ticket via email</text>
</g>
<!-- 6034194064&#45;&gt;6034178384 -->
<g id="edge16" class="edge">
<title>6034194064&#45;&gt;6034178384</title>
<path fill="none" stroke="black" d="M1122.49,-98.96C1136.24,-105.22 1157.09,-114.72 1176.44,-123.54"/>
<polygon fill="black" stroke="black" points="1175.24,-126.84 1185.79,-127.8 1178.14,-120.47 1175.24,-126.84"/>
</g>
<!-- 6033920528 -->
<g id="node15" class="node">
<title>6033920528</title>
<polygon fill="none" stroke="black" points="1283,-109.9 1170,-109.9 1170,-73.9 1283,-73.9 1283,-109.9"/>
<text text-anchor="middle" x="1226.5" y="-88.8" font-family="Times,serif" font-size="12.00">Send ticket via SMS</text>
</g>
<!-- 6034194064&#45;&gt;6033920528 -->
<g id="edge15" class="edge">
<title>6034194064&#45;&gt;6033920528</title>
<path fill="none" stroke="black" d="M1133.01,-91.9C1141.01,-91.9 1150.21,-91.9 1159.64,-91.9"/>
<polygon fill="black" stroke="black" points="1159.91,-95.4 1169.91,-91.9 1159.91,-88.4 1159.91,-95.4"/>
</g>
<!-- 6033929232 -->
<g id="node16" class="node">
<title>6033929232</title>
<polygon fill="none" stroke="black" points="1503,-90.9 1476,-72.9 1503,-54.9 1530,-72.9 1503,-90.9"/>
<text text-anchor="middle" x="1503" y="-69.8" font-family="Times,serif" font-size="12.00">+</text>
</g>
<!-- 6033953744&#45;&gt;6033929232 -->
<g id="edge17" class="edge">
<title>6033953744&#45;&gt;6033929232</title>
<path fill="none" stroke="black" d="M1440.08,-59.08C1451.27,-61.58 1462.53,-64.09 1472.31,-66.27"/>
<polygon fill="black" stroke="black" points="1471.76,-69.74 1482.29,-68.5 1473.29,-62.9 1471.76,-69.74"/>
</g>
<!-- 6034178896 -->
<g id="node18" class="node">
<title>6034178896</title>
<polygon fill="none" stroke="black" points="1380,-117.9 1353,-99.9 1380,-81.9 1407,-99.9 1380,-117.9"/>
<text text-anchor="middle" x="1380" y="-96.8" font-family="Times,serif" font-size="12.00">X</text>
</g>
<!-- 6034178384&#45;&gt;6034178896 -->
<g id="edge18" class="edge">
<title>6034178384&#45;&gt;6034178896</title>
<path fill="none" stroke="black" d="M1284.34,-128.64C1307.3,-121.67 1332.72,-113.95 1351.44,-108.26"/>
<polygon fill="black" stroke="black" points="1352.54,-111.59 1361.09,-105.33 1350.5,-104.89 1352.54,-111.59"/>
</g>
<!-- 6033920528&#45;&gt;6034178896 -->
<g id="edge19" class="edge">
<title>6033920528&#45;&gt;6034178896</title>
<path fill="none" stroke="black" d="M1283.05,-94.83C1303.67,-95.92 1326.43,-97.12 1344.61,-98.08"/>
<polygon fill="black" stroke="black" points="1344.57,-101.58 1354.74,-98.62 1344.94,-94.59 1344.57,-101.58"/>
</g>
<!-- 6034189136 -->
<g id="node17" class="node">
<title>6034189136</title>
<polygon fill="none" stroke="black" points="1593,-132.9 1566,-114.9 1593,-96.9 1620,-114.9 1593,-132.9"/>
<text text-anchor="middle" x="1593" y="-111.8" font-family="Times,serif" font-size="12.00">X</text>
</g>
<!-- 6033929232&#45;&gt;6034189136 -->
<g id="edge21" class="edge">
<title>6033929232&#45;&gt;6034189136</title>
<path fill="none" stroke="black" d="M1519.33,-80.21C1532.58,-86.54 1551.97,-95.79 1567.39,-103.15"/>
<polygon fill="black" stroke="black" points="1566.31,-106.52 1576.85,-107.66 1569.33,-100.2 1566.31,-106.52"/>
</g>
<!-- 6034180560 -->
<g id="node19" class="node">
<title>6034180560</title>
<polygon fill="none" stroke="black" points="1593,-63.9 1566,-45.9 1593,-27.9 1620,-45.9 1593,-63.9"/>
<text text-anchor="middle" x="1593" y="-42.8" font-family="Times,serif" font-size="12.00">X</text>
</g>
<!-- 6033929232&#45;&gt;6034180560 -->
<g id="edge20" class="edge">
<title>6033929232&#45;&gt;6034180560</title>
<path fill="none" stroke="black" d="M1521.81,-67.43C1534.01,-63.69 1550.45,-58.65 1564.34,-54.38"/>
<polygon fill="black" stroke="black" points="1565.38,-57.72 1573.92,-51.44 1563.33,-51.03 1565.38,-57.72"/>
</g>
<!-- 6034186832 -->
<g id="node21" class="node">
<title>6034186832</title>
<polygon fill="none" stroke="black" points="1683,-178.9 1656,-160.9 1683,-142.9 1710,-160.9 1683,-178.9"/>
<text text-anchor="middle" x="1683" y="-157.8" font-family="Times,serif" font-size="12.00">X</text>
</g>
<!-- 6034189136&#45;&gt;6034186832 -->
<g id="edge23" class="edge">
<title>6034189136&#45;&gt;6034186832</title>
<path fill="none" stroke="black" d="M1608.93,-122.7C1622.41,-129.75 1642.48,-140.24 1658.18,-148.45"/>
<polygon fill="black" stroke="black" points="1656.81,-151.68 1667.29,-153.21 1660.05,-145.47 1656.81,-151.68"/>
</g>
<!-- 6034191056 -->
<g id="node22" class="node">
<title>6034191056</title>
<polygon fill="none" stroke="black" points="1997,-132.9 1970,-114.9 1997,-96.9 2024,-114.9 1997,-132.9"/>
<text text-anchor="middle" x="1997" y="-111.8" font-family="Times,serif" font-size="12.00">X</text>
</g>
<!-- 6034189136&#45;&gt;6034191056 -->
<g id="edge24" class="edge">
<title>6034189136&#45;&gt;6034191056</title>
<path fill="none" stroke="black" d="M1620.07,-114.9C1689.67,-114.9 1880,-114.9 1959.92,-114.9"/>
<polygon fill="black" stroke="black" points="1959.99,-118.4 1969.99,-114.9 1959.99,-111.4 1959.99,-118.4"/>
</g>
<!-- 6034178896&#45;&gt;6033929232 -->
<g id="edge22" class="edge">
<title>6034178896&#45;&gt;6033929232</title>
<path fill="none" stroke="black" d="M1400.71,-95.5C1420.13,-91.16 1450.06,-84.49 1472.35,-79.51"/>
<polygon fill="black" stroke="black" points="1473.3,-82.89 1482.3,-77.29 1471.78,-76.05 1473.3,-82.89"/>
</g>
<!-- 6034187216 -->
<g id="node20" class="node">
<title>6034187216</title>
<polygon fill="none" stroke="black" points="1683,-63.9 1656,-45.9 1683,-27.9 1710,-45.9 1683,-63.9"/>
<text text-anchor="middle" x="1683" y="-42.8" font-family="Times,serif" font-size="12.00">X</text>
</g>
<!-- 6034180560&#45;&gt;6034187216 -->
<g id="edge26" class="edge">
<title>6034180560&#45;&gt;6034187216</title>
<path fill="none" stroke="black" d="M1620.4,-45.9C1628.39,-45.9 1637.31,-45.9 1645.82,-45.9"/>
<polygon fill="black" stroke="black" points="1645.92,-49.4 1655.92,-45.9 1645.92,-42.4 1645.92,-49.4"/>
</g>
<!-- 6034191440 -->
<g id="node23" class="node">
<title>6034191440</title>
<polygon fill="none" stroke="black" points="1997,-63.9 1970,-45.9 1997,-27.9 2024,-45.9 1997,-63.9"/>
<text text-anchor="middle" x="1997" y="-42.8" font-family="Times,serif" font-size="12.00">X</text>
</g>
<!-- 6034180560&#45;&gt;6034191440 -->
<g id="edge25" class="edge">
<title>6034180560&#45;&gt;6034191440</title>
<path fill="none" stroke="black" d="M1608.22,-37.69C1620.44,-31.14 1638.76,-22.49 1656,-18.9 1776.96,6.3 1813.04,6.3 1934,-18.9 1947.33,-21.67 1961.32,-27.48 1972.62,-33"/>
<polygon fill="black" stroke="black" points="1971.28,-36.25 1981.78,-37.69 1974.48,-30.02 1971.28,-36.25"/>
</g>
<!-- 6033931280 -->
<g id="node25" class="node">
<title>6033931280</title>
<polygon fill="none" stroke="black" points="1838,-86.9 1752,-86.9 1752,-50.9 1838,-50.9 1838,-86.9"/>
<text text-anchor="middle" x="1795" y="-65.8" font-family="Times,serif" font-size="12.00">Send reminder</text>
</g>
<!-- 6034187216&#45;&gt;6033931280 -->
<g id="edge27" class="edge">
<title>6034187216&#45;&gt;6033931280</title>
<path fill="none" stroke="black" d="M1703.92,-50.06C1714.68,-52.31 1728.52,-55.2 1742.1,-58.04"/>
<polygon fill="black" stroke="black" points="1741.39,-61.47 1751.9,-60.09 1742.83,-54.62 1741.39,-61.47"/>
</g>
<!-- 6034186064 -->
<g id="node24" class="node">
<title>6034186064</title>
<polygon fill="none" stroke="black" points="1844,-220.9 1746,-220.9 1746,-184.9 1844,-184.9 1844,-220.9"/>
<text text-anchor="middle" x="1795" y="-199.8" font-family="Times,serif" font-size="12.00">Send instructions</text>
</g>
<!-- 6034186832&#45;&gt;6034186064 -->
<g id="edge28" class="edge">
<title>6034186832&#45;&gt;6034186064</title>
<path fill="none" stroke="black" d="M1700.71,-167.28C1710.57,-171.04 1723.7,-176.06 1736.99,-181.13"/>
<polygon fill="black" stroke="black" points="1736.06,-184.52 1746.65,-184.82 1738.55,-177.98 1736.06,-184.52"/>
</g>
<!-- 6033917328 -->
<g id="node26" class="node">
<title>6033917328</title>
<polygon fill="none" stroke="black" points="2087,-105.9 2060,-87.9 2087,-69.9 2114,-87.9 2087,-105.9"/>
<text text-anchor="middle" x="2087" y="-84.8" font-family="Times,serif" font-size="12.00">+</text>
</g>
<!-- 6034191056&#45;&gt;6033917328 -->
<g id="edge29" class="edge">
<title>6034191056&#45;&gt;6033917328</title>
<path fill="none" stroke="black" d="M2015.81,-109.43C2028.01,-105.69 2044.45,-100.65 2058.34,-96.38"/>
<polygon fill="black" stroke="black" points="2059.38,-99.72 2067.92,-93.44 2057.33,-93.03 2059.38,-99.72"/>
</g>
<!-- 6034191440&#45;&gt;6033917328 -->
<g id="edge30" class="edge">
<title>6034191440&#45;&gt;6033917328</title>
<path fill="none" stroke="black" d="M2013.33,-53.21C2026.58,-59.54 2045.97,-68.79 2061.39,-76.15"/>
<polygon fill="black" stroke="black" points="2060.31,-79.52 2070.85,-80.66 2063.33,-73.2 2060.31,-79.52"/>
</g>
<!-- 6034193680 -->
<g id="node28" class="node">
<title>6034193680</title>
<polygon fill="none" stroke="black" points="1907,-178.9 1880,-160.9 1907,-142.9 1934,-160.9 1907,-178.9"/>
<text text-anchor="middle" x="1907" y="-157.8" font-family="Times,serif" font-size="12.00">X</text>
</g>
<!-- 6034186064&#45;&gt;6034193680 -->
<g id="edge31" class="edge">
<title>6034186064&#45;&gt;6034193680</title>
<path fill="none" stroke="black" d="M1843.29,-184.84C1855.86,-180.04 1868.98,-175.03 1879.95,-170.84"/>
<polygon fill="black" stroke="black" points="1881.25,-174.09 1889.35,-167.26 1878.75,-167.55 1881.25,-174.09"/>
</g>
<!-- 6034194000 -->
<g id="node27" class="node">
<title>6034194000</title>
<polygon fill="none" stroke="black" points="1907,-63.9 1880,-45.9 1907,-27.9 1934,-45.9 1907,-63.9"/>
<text text-anchor="middle" x="1907" y="-42.8" font-family="Times,serif" font-size="12.00">X</text>
</g>
<!-- 6033931280&#45;&gt;6034194000 -->
<g id="edge32" class="edge">
<title>6033931280&#45;&gt;6034194000</title>
<path fill="none" stroke="black" d="M1838.21,-60.07C1850.83,-57.43 1864.4,-54.59 1876.06,-52.16"/>
<polygon fill="black" stroke="black" points="1877.07,-55.52 1886.14,-50.05 1875.64,-48.67 1877.07,-55.52"/>
</g>
<!-- 6033927824 -->
<g id="node29" class="node">
<title>6033927824</title>
<polygon fill="none" stroke="black" points="2302,-105.9 2150,-105.9 2150,-69.9 2302,-69.9 2302,-105.9"/>
<text text-anchor="middle" x="2226" y="-84.8" font-family="Times,serif" font-size="12.00">Customer completes journey</text>
</g>
<!-- 6033917328&#45;&gt;6033927824 -->
<g id="edge33" class="edge">
<title>6033917328&#45;&gt;6033927824</title>
<path fill="none" stroke="black" d="M2114.09,-87.9C2121.73,-87.9 2130.53,-87.9 2139.76,-87.9"/>
<polygon fill="black" stroke="black" points="2139.92,-91.4 2149.92,-87.9 2139.92,-84.4 2139.92,-91.4"/>
</g>
<!-- 6034194000&#45;&gt;6034187216 -->
<g id="edge35" class="edge">
<title>6034194000&#45;&gt;6034187216</title>
<path fill="none" stroke="black" d="M1882.76,-44.04C1871.13,-43.2 1856.83,-42.31 1844,-41.9 1800.47,-40.49 1789.53,-40.49 1746,-41.9 1736.68,-42.2 1726.58,-42.75 1717.3,-43.35"/>
<polygon fill="black" stroke="black" points="1716.98,-39.87 1707.24,-44.04 1717.46,-46.85 1716.98,-39.87"/>
</g>
<!-- 6034194000&#45;&gt;6034191440 -->
<g id="edge34" class="edge">
<title>6034194000&#45;&gt;6034191440</title>
<path fill="none" stroke="black" d="M1934.4,-45.9C1942.39,-45.9 1951.31,-45.9 1959.82,-45.9"/>
<polygon fill="black" stroke="black" points="1959.92,-49.4 1969.92,-45.9 1959.92,-42.4 1959.92,-49.4"/>
</g>
<!-- 6034193680&#45;&gt;6034186832 -->
<g id="edge36" class="edge">
<title>6034193680&#45;&gt;6034186832</title>
<path fill="none" stroke="black" d="M1879.7,-160.9C1840.16,-160.9 1765.29,-160.9 1720.5,-160.9"/>
<polygon fill="black" stroke="black" points="1720.34,-157.4 1710.34,-160.9 1720.34,-164.4 1720.34,-157.4"/>
</g>
<!-- 6034193680&#45;&gt;6034191056 -->
<g id="edge37" class="edge">
<title>6034193680&#45;&gt;6034191056</title>
<path fill="none" stroke="black" d="M1922.93,-153.09C1936.41,-146.05 1956.48,-135.55 1972.18,-127.35"/>
<polygon fill="black" stroke="black" points="1974.05,-130.32 1981.29,-122.58 1970.81,-124.12 1974.05,-130.32"/>
</g>
<!-- 6034184528 -->
<g id="node30" class="node">
<title>6034184528</title>
<polygon fill="none" stroke="black" points="2365,-105.9 2338,-87.9 2365,-69.9 2392,-87.9 2365,-105.9"/>
<text text-anchor="middle" x="2365" y="-84.8" font-family="Times,serif" font-size="12.00">X</text>
</g>
<!-- 6033927824&#45;&gt;6034184528 -->
<g id="edge38" class="edge">
<title>6033927824&#45;&gt;6034184528</title>
<path fill="none" stroke="black" d="M2302.31,-87.9C2311.22,-87.9 2319.97,-87.9 2327.96,-87.9"/>
<polygon fill="black" stroke="black" points="2327.96,-91.4 2337.96,-87.9 2327.96,-84.4 2327.96,-91.4"/>
</g>
<!-- 6034180176 -->
<g id="node31" class="node">
<title>6034180176</title>
<polygon fill="none" stroke="black" points="2657,-105.9 2630,-87.9 2657,-69.9 2684,-87.9 2657,-105.9"/>
<text text-anchor="middle" x="2657" y="-84.8" font-family="Times,serif" font-size="12.00">X</text>
</g>
<!-- 6034184528&#45;&gt;6034180176 -->
<g id="edge39" class="edge">
<title>6034184528&#45;&gt;6034180176</title>
<path fill="none" stroke="black" d="M2389.24,-89.75C2400.87,-90.59 2415.17,-91.48 2428,-91.9 2501.74,-94.27 2520.26,-94.27 2594,-91.9 2603.32,-91.6 2613.42,-91.04 2622.7,-90.44"/>
<polygon fill="black" stroke="black" points="2623.02,-93.93 2632.76,-89.75 2622.54,-86.94 2623.02,-93.93"/>
</g>
<!-- 6033770064 -->
<g id="node32" class="node">
<title>6033770064</title>
<polygon fill="none" stroke="black" points="2594,-82.9 2428,-82.9 2428,-46.9 2594,-46.9 2594,-82.9"/>
<text text-anchor="middle" x="2511" y="-61.8" font-family="Times,serif" font-size="12.00">Post&#45;travel feedback or services</text>
</g>
<!-- 6034184528&#45;&gt;6033770064 -->
<g id="edge40" class="edge">
<title>6034184528&#45;&gt;6033770064</title>
<path fill="none" stroke="black" d="M2387.25,-84.5C2395.84,-83.13 2406.39,-81.44 2417.67,-79.64"/>
<polygon fill="black" stroke="black" points="2418.42,-83.07 2427.74,-78.03 2417.31,-76.16 2418.42,-83.07"/>
</g>
<!-- 6034009360 -->
<g id="node33" class="node">
<title>6034009360</title>
<ellipse fill="orange" stroke="black" cx="2738" cy="-87.9" rx="18" ry="18"/>
</g>
<!-- 6034180176&#45;&gt;6034009360 -->
<g id="edge42" class="edge">
<title>6034180176&#45;&gt;6034009360</title>
<path fill="none" stroke="black" d="M2684.31,-87.9C2692.42,-87.9 2701.37,-87.9 2709.56,-87.9"/>
<polygon fill="black" stroke="black" points="2709.75,-91.4 2719.75,-87.9 2709.75,-84.4 2709.75,-91.4"/>
</g>
<!-- 6033770064&#45;&gt;6034180176 -->
<g id="edge41" class="edge">
<title>6033770064&#45;&gt;6034180176</title>
<path fill="none" stroke="black" d="M2594.1,-78.01C2604.99,-79.75 2615.57,-81.44 2624.81,-82.92"/>
<polygon fill="black" stroke="black" points="2624.56,-86.42 2634.98,-84.54 2625.66,-79.51 2624.56,-86.42"/>
</g>
</g>
</svg>
