<?xml version="1.0" encoding="UTF-8" standalone="no"?>
<!DOCTYPE svg PUBLIC "-//W3C//DTD SVG 1.1//EN"
 "http://www.w3.org/Graphics/SVG/1.1/DTD/svg11.dtd">
<!-- Generated by graphviz version 2.50.0 (0)
 -->
<!-- Pages: 1 -->
<svg width="2821pt" height="237pt"
 viewBox="0.00 0.00 2821.00 236.68" xmlns="http://www.w3.org/2000/svg" xmlns:xlink="http://www.w3.org/1999/xlink">
<g id="graph0" class="graph" transform="scale(1 1) rotate(0) translate(4 232.68)">
<polygon fill="white" stroke="transparent" points="-4,4 -4,-232.68 2817,-232.68 2817,4 -4,4"/>
<!-- 6032823760 -->
<g id="node1" class="node">
<title>6032823760</title>
<ellipse fill="green" stroke="black" cx="18" cy="-97.68" rx="18" ry="18"/>
</g>
<!-- 6037452496 -->
<g id="node2" class="node">
<title>6037452496</title>
<polygon fill="none" stroke="black" points="224,-115.68 72,-115.68 72,-79.68 224,-79.68 224,-115.68"/>
<text text-anchor="middle" x="148" y="-94.58" font-family="Times,serif" font-size="12.00">Customer completes journey</text>
</g>
<!-- 6032823760&#45;&gt;6037452496 -->
<g id="edge1" class="edge">
<title>6032823760&#45;&gt;6037452496</title>
<path fill="none" stroke="black" d="M36.26,-97.68C43.4,-97.68 52.25,-97.68 61.81,-97.68"/>
<polygon fill="black" stroke="black" points="61.99,-101.18 71.99,-97.68 61.99,-94.18 61.99,-101.18"/>
</g>
<!-- 6037443408 -->
<g id="node3" class="node">
<title>6037443408</title>
<polygon fill="none" stroke="black" points="287,-115.68 260,-97.68 287,-79.68 314,-97.68 287,-115.68"/>
<text text-anchor="middle" x="287" y="-94.58" font-family="Times,serif" font-size="12.00">+</text>
</g>
<!-- 6037452496&#45;&gt;6037443408 -->
<g id="edge2" class="edge">
<title>6037452496&#45;&gt;6037443408</title>
<path fill="none" stroke="black" d="M224.31,-97.68C233.22,-97.68 241.97,-97.68 249.96,-97.68"/>
<polygon fill="black" stroke="black" points="249.96,-101.18 259.96,-97.68 249.96,-94.18 249.96,-101.18"/>
</g>
<!-- 6032830160 -->
<g id="node4" class="node">
<title>6032830160</title>
<polygon fill="none" stroke="black" points="468,-142.68 382,-142.68 382,-106.68 468,-106.68 468,-142.68"/>
<text text-anchor="middle" x="425" y="-121.58" font-family="Times,serif" font-size="12.00">Send reminder</text>
</g>
<!-- 6037443408&#45;&gt;6032830160 -->
<g id="edge3" class="edge">
<title>6037443408&#45;&gt;6032830160</title>
<path fill="none" stroke="black" d="M308.07,-101.66C324.85,-105 349.57,-109.9 371.88,-114.33"/>
<polygon fill="black" stroke="black" points="371.43,-117.81 381.92,-116.33 372.79,-110.95 371.43,-117.81"/>
</g>
<!-- 6035216400 -->
<g id="node5" class="node">
<title>6035216400</title>
<polygon fill="none" stroke="black" points="500,-88.68 350,-88.68 350,-52.68 500,-52.68 500,-88.68"/>
<text text-anchor="middle" x="425" y="-67.58" font-family="Times,serif" font-size="12.00">Customer searches for ticket</text>
</g>
<!-- 6037443408&#45;&gt;6035216400 -->
<g id="edge4" class="edge">
<title>6037443408&#45;&gt;6035216400</title>
<path fill="none" stroke="black" d="M308.07,-93.7C316.96,-91.93 328.07,-89.73 339.87,-87.38"/>
<polygon fill="black" stroke="black" points="340.79,-90.77 349.91,-85.39 339.42,-83.9 340.79,-90.77"/>
</g>
<!-- 6032827984 -->
<g id="node6" class="node">
<title>6032827984</title>
<polygon fill="none" stroke="black" points="563,-115.68 536,-97.68 563,-79.68 590,-97.68 563,-115.68"/>
<text text-anchor="middle" x="563" y="-94.58" font-family="Times,serif" font-size="12.00">+</text>
</g>
<!-- 6032830160&#45;&gt;6032827984 -->
<g id="edge5" class="edge">
<title>6032830160&#45;&gt;6032827984</title>
<path fill="none" stroke="black" d="M468.29,-116.29C488.85,-112.2 513.09,-107.39 531.77,-103.68"/>
<polygon fill="black" stroke="black" points="532.65,-107.08 541.78,-101.7 531.29,-100.21 532.65,-107.08"/>
</g>
<!-- 6035216400&#45;&gt;6032827984 -->
<g id="edge6" class="edge">
<title>6035216400&#45;&gt;6032827984</title>
<path fill="none" stroke="black" d="M500.37,-85.44C511.45,-87.65 522.31,-89.8 531.74,-91.67"/>
<polygon fill="black" stroke="black" points="531.24,-95.14 541.73,-93.66 532.6,-88.28 531.24,-95.14"/>
</g>
<!-- 6033615888 -->
<g id="node7" class="node">
<title>6033615888</title>
<polygon fill="none" stroke="black" points="746,-142.68 626,-142.68 626,-106.68 746,-106.68 746,-142.68"/>
<text text-anchor="middle" x="686" y="-121.58" font-family="Times,serif" font-size="12.00">Update seat inventory</text>
</g>
<!-- 6032827984&#45;&gt;6033615888 -->
<g id="edge7" class="edge">
<title>6032827984&#45;&gt;6033615888</title>
<path fill="none" stroke="black" d="M583.71,-102.08C592.76,-104.1 604.09,-106.63 615.87,-109.25"/>
<polygon fill="black" stroke="black" points="615.3,-112.71 625.82,-111.48 616.83,-105.88 615.3,-112.71"/>
</g>
<!-- 6033620176 -->
<g id="node8" class="node">
<title>6033620176</title>
<polygon fill="none" stroke="black" points="730,-88.68 642,-88.68 642,-52.68 730,-52.68 730,-88.68"/>
<text text-anchor="middle" x="686" y="-67.58" font-family="Times,serif" font-size="12.00">Generate ticket</text>
</g>
<!-- 6032827984&#45;&gt;6033620176 -->
<g id="edge8" class="edge">
<title>6032827984&#45;&gt;6033620176</title>
<path fill="none" stroke="black" d="M583.71,-93.28C596.87,-90.35 614.84,-86.34 631.99,-82.51"/>
<polygon fill="black" stroke="black" points="632.96,-85.88 641.96,-80.29 631.43,-79.05 632.96,-85.88"/>
</g>
<!-- 6033606288 -->
<g id="node9" class="node">
<title>6033606288</title>
<polygon fill="none" stroke="black" points="809,-115.68 782,-97.68 809,-79.68 836,-97.68 809,-115.68"/>
<text text-anchor="middle" x="809" y="-94.58" font-family="Times,serif" font-size="12.00">+</text>
</g>
<!-- 6033615888&#45;&gt;6033606288 -->
<g id="edge9" class="edge">
<title>6033615888&#45;&gt;6033606288</title>
<path fill="none" stroke="black" d="M746.08,-111.5C757.27,-109 768.53,-106.49 778.31,-104.31"/>
<polygon fill="black" stroke="black" points="779.29,-107.67 788.29,-102.08 777.76,-100.84 779.29,-107.67"/>
</g>
<!-- 6033620176&#45;&gt;6033606288 -->
<g id="edge10" class="edge">
<title>6033620176&#45;&gt;6033606288</title>
<path fill="none" stroke="black" d="M730,-80.28C746.07,-83.86 763.94,-87.85 778.52,-91.1"/>
<polygon fill="black" stroke="black" points="777.96,-94.56 788.48,-93.33 779.48,-87.73 777.96,-94.56"/>
</g>
<!-- 6033617552 -->
<g id="node10" class="node">
<title>6033617552</title>
<polygon fill="none" stroke="black" points="983,-115.68 872,-115.68 872,-79.68 983,-79.68 983,-115.68"/>
<text text-anchor="middle" x="927.5" y="-94.58" font-family="Times,serif" font-size="12.00">Select date and time</text>
</g>
<!-- 6033606288&#45;&gt;6033617552 -->
<g id="edge11" class="edge">
<title>6033606288&#45;&gt;6033617552</title>
<path fill="none" stroke="black" d="M836.14,-97.68C843.85,-97.68 852.64,-97.68 861.64,-97.68"/>
<polygon fill="black" stroke="black" points="861.85,-101.18 871.85,-97.68 861.85,-94.18 861.85,-101.18"/>
</g>
<!-- 6033615504 -->
<g id="node11" class="node">
<title>6033615504</title>
<polygon fill="none" stroke="black" points="1046,-115.68 1019,-97.68 1046,-79.68 1073,-97.68 1046,-115.68"/>
<text text-anchor="middle" x="1046" y="-94.58" font-family="Times,serif" font-size="12.00">+</text>
</g>
<!-- 6033617552&#45;&gt;6033615504 -->
<g id="edge12" class="edge">
<title>6033617552&#45;&gt;6033615504</title>
<path fill="none" stroke="black" d="M983.34,-97.68C991.96,-97.68 1000.67,-97.68 1008.73,-97.68"/>
<polygon fill="black" stroke="black" points="1008.88,-101.18 1018.88,-97.68 1008.88,-94.18 1008.88,-101.18"/>
</g>
<!-- 6032830864 -->
<g id="node12" class="node">
<title>6032830864</title>
<polygon fill="none" stroke="black" points="1136,-138.68 1109,-120.68 1136,-102.68 1163,-120.68 1136,-138.68"/>
<text text-anchor="middle" x="1136" y="-117.58" font-family="Times,serif" font-size="12.00">X</text>
</g>
<!-- 6033615504&#45;&gt;6032830864 -->
<g id="edge13" class="edge">
<title>6033615504&#45;&gt;6032830864</title>
<path fill="none" stroke="black" d="M1066.09,-102.67C1077.82,-105.74 1093.07,-109.72 1106.24,-113.16"/>
<polygon fill="black" stroke="black" points="1105.68,-116.64 1116.24,-115.78 1107.45,-109.86 1105.68,-116.64"/>
</g>
<!-- 6033611024 -->
<g id="node13" class="node">
<title>6033611024</title>
<polygon fill="none" stroke="black" points="1531,-92.68 1401,-92.68 1401,-56.68 1531,-56.68 1531,-92.68"/>
<text text-anchor="middle" x="1466" y="-71.58" font-family="Times,serif" font-size="12.00">Provide payment details</text>
</g>
<!-- 6033615504&#45;&gt;6033611024 -->
<g id="edge14" class="edge">
<title>6033615504&#45;&gt;6033611024</title>
<path fill="none" stroke="black" d="M1070.84,-96.08C1082.37,-95.32 1096.4,-94.42 1109,-93.68 1206.32,-87.94 1318.64,-82.07 1390.67,-78.41"/>
<polygon fill="black" stroke="black" points="1391.19,-81.89 1401,-77.88 1390.83,-74.89 1391.19,-81.89"/>
</g>
<!-- 6029051856 -->
<g id="node15" class="node">
<title>6029051856</title>
<polygon fill="none" stroke="black" points="1365,-192.68 1199,-192.68 1199,-156.68 1365,-156.68 1365,-192.68"/>
<text text-anchor="middle" x="1282" y="-171.58" font-family="Times,serif" font-size="12.00">Post&#45;travel feedback or services</text>
</g>
<!-- 6032830864&#45;&gt;6029051856 -->
<g id="edge16" class="edge">
<title>6032830864&#45;&gt;6029051856</title>
<path fill="none" stroke="black" d="M1152.38,-127.85C1164.83,-133.54 1182.88,-141.53 1199,-147.68 1203.86,-149.54 1208.92,-151.39 1214.02,-153.2"/>
<polygon fill="black" stroke="black" points="1213.26,-156.64 1223.86,-156.62 1215.56,-150.03 1213.26,-156.64"/>
</g>
<!-- 6029055632 -->
<g id="node16" class="node">
<title>6029055632</title>
<polygon fill="none" stroke="black" points="1318,-138.68 1246,-138.68 1246,-102.68 1318,-102.68 1318,-138.68"/>
<text text-anchor="middle" x="1282" y="-117.58" font-family="Times,serif" font-size="12.00">Select route</text>
</g>
<!-- 6032830864&#45;&gt;6029055632 -->
<g id="edge15" class="edge">
<title>6032830864&#45;&gt;6029055632</title>
<path fill="none" stroke="black" d="M1163.08,-120.68C1183.27,-120.68 1211.73,-120.68 1235.63,-120.68"/>
<polygon fill="black" stroke="black" points="1235.9,-124.18 1245.9,-120.68 1235.9,-117.18 1235.9,-124.18"/>
</g>
<!-- 6032820816 -->
<g id="node14" class="node">
<title>6032820816</title>
<polygon fill="none" stroke="black" points="1594,-119.68 1567,-101.68 1594,-83.68 1621,-101.68 1594,-119.68"/>
<text text-anchor="middle" x="1594" y="-98.58" font-family="Times,serif" font-size="12.00">+</text>
</g>
<!-- 6033611024&#45;&gt;6032820816 -->
<g id="edge17" class="edge">
<title>6033611024&#45;&gt;6032820816</title>
<path fill="none" stroke="black" d="M1531.11,-88.42C1542.36,-90.83 1553.56,-93.23 1563.28,-95.31"/>
<polygon fill="black" stroke="black" points="1562.67,-98.76 1573.18,-97.43 1564.14,-91.92 1562.67,-98.76"/>
</g>
<!-- 6032824528 -->
<g id="node18" class="node">
<title>6032824528</title>
<polygon fill="none" stroke="black" points="1684,-146.68 1657,-128.68 1684,-110.68 1711,-128.68 1684,-146.68"/>
<text text-anchor="middle" x="1684" y="-125.58" font-family="Times,serif" font-size="12.00">X</text>
</g>
<!-- 6032820816&#45;&gt;6032824528 -->
<g id="edge18" class="edge">
<title>6032820816&#45;&gt;6032824528</title>
<path fill="none" stroke="black" d="M1612.81,-107.14C1625.01,-110.89 1641.45,-115.93 1655.34,-120.19"/>
<polygon fill="black" stroke="black" points="1654.33,-123.55 1664.92,-123.13 1656.38,-116.85 1654.33,-123.55"/>
</g>
<!-- 6032819472 -->
<g id="node19" class="node">
<title>6032819472</title>
<polygon fill="none" stroke="black" points="1684,-92.68 1657,-74.68 1684,-56.68 1711,-74.68 1684,-92.68"/>
<text text-anchor="middle" x="1684" y="-71.58" font-family="Times,serif" font-size="12.00">X</text>
</g>
<!-- 6032820816&#45;&gt;6032819472 -->
<g id="edge19" class="edge">
<title>6032820816&#45;&gt;6032819472</title>
<path fill="none" stroke="black" d="M1612.81,-96.22C1625.01,-92.47 1641.45,-87.43 1655.34,-83.17"/>
<polygon fill="black" stroke="black" points="1656.38,-86.51 1664.92,-80.23 1654.33,-79.82 1656.38,-86.51"/>
</g>
<!-- 6032820112 -->
<g id="node17" class="node">
<title>6032820112</title>
<polygon fill="none" stroke="black" points="1466,-146.68 1439,-128.68 1466,-110.68 1493,-128.68 1466,-146.68"/>
<text text-anchor="middle" x="1466" y="-125.58" font-family="Times,serif" font-size="12.00">X</text>
</g>
<!-- 6029051856&#45;&gt;6032820112 -->
<g id="edge20" class="edge">
<title>6029051856&#45;&gt;6032820112</title>
<path fill="none" stroke="black" d="M1354.41,-156.63C1382.95,-149.42 1414.19,-141.52 1436.17,-135.97"/>
<polygon fill="black" stroke="black" points="1437.03,-139.36 1445.86,-133.52 1435.31,-132.57 1437.03,-139.36"/>
</g>
<!-- 6029055632&#45;&gt;6032820112 -->
<g id="edge21" class="edge">
<title>6029055632&#45;&gt;6032820112</title>
<path fill="none" stroke="black" d="M1318.09,-122.22C1350.39,-123.64 1398.02,-125.74 1430.22,-127.15"/>
<polygon fill="black" stroke="black" points="1430.36,-130.66 1440.5,-127.6 1430.67,-123.67 1430.36,-130.66"/>
</g>
<!-- 6032820112&#45;&gt;6032820816 -->
<g id="edge22" class="edge">
<title>6032820112&#45;&gt;6032820816</title>
<path fill="none" stroke="black" d="M1486.69,-124.46C1507.19,-120.07 1539.54,-113.14 1563.18,-108.07"/>
<polygon fill="black" stroke="black" points="1563.99,-111.48 1573.03,-105.96 1562.52,-104.63 1563.99,-111.48"/>
</g>
<!-- 6032829200 -->
<g id="node21" class="node">
<title>6032829200</title>
<polygon fill="none" stroke="black" points="1774,-186.68 1747,-168.68 1774,-150.68 1801,-168.68 1774,-186.68"/>
<text text-anchor="middle" x="1774" y="-165.58" font-family="Times,serif" font-size="12.00">X</text>
</g>
<!-- 6032824528&#45;&gt;6032829200 -->
<g id="edge23" class="edge">
<title>6032824528&#45;&gt;6032829200</title>
<path fill="none" stroke="black" d="M1700.73,-135.83C1713.87,-141.8 1732.84,-150.43 1748.05,-157.34"/>
<polygon fill="black" stroke="black" points="1746.85,-160.64 1757.4,-161.59 1749.75,-154.27 1746.85,-160.64"/>
</g>
<!-- 6032824976 -->
<g id="node22" class="node">
<title>6032824976</title>
<polygon fill="none" stroke="black" points="2103,-148.68 2076,-130.68 2103,-112.68 2130,-130.68 2103,-148.68"/>
<text text-anchor="middle" x="2103" y="-127.58" font-family="Times,serif" font-size="12.00">X</text>
</g>
<!-- 6032824528&#45;&gt;6032824976 -->
<g id="edge24" class="edge">
<title>6032824528&#45;&gt;6032824976</title>
<path fill="none" stroke="black" d="M1711.09,-128.81C1782.83,-129.15 1983.23,-130.11 2065.77,-130.51"/>
<polygon fill="black" stroke="black" points="2065.91,-134.01 2075.92,-130.56 2065.94,-127.01 2065.91,-134.01"/>
</g>
<!-- 6032833808 -->
<g id="node20" class="node">
<title>6032833808</title>
<polygon fill="none" stroke="black" points="2103,-94.68 2076,-76.68 2103,-58.68 2130,-76.68 2103,-94.68"/>
<text text-anchor="middle" x="2103" y="-73.58" font-family="Times,serif" font-size="12.00">X</text>
</g>
<!-- 6032819472&#45;&gt;6032833808 -->
<g id="edge25" class="edge">
<title>6032819472&#45;&gt;6032833808</title>
<path fill="none" stroke="black" d="M1711.09,-74.81C1782.83,-75.15 1983.23,-76.11 2065.77,-76.51"/>
<polygon fill="black" stroke="black" points="2065.91,-80.01 2075.92,-76.56 2065.94,-73.01 2065.91,-80.01"/>
</g>
<!-- 6032832336 -->
<g id="node23" class="node">
<title>6032832336</title>
<polygon fill="none" stroke="black" points="1774,-52.68 1747,-34.68 1774,-16.68 1801,-34.68 1774,-52.68"/>
<text text-anchor="middle" x="1774" y="-31.58" font-family="Times,serif" font-size="12.00">X</text>
</g>
<!-- 6032819472&#45;&gt;6032832336 -->
<g id="edge26" class="edge">
<title>6032819472&#45;&gt;6032832336</title>
<path fill="none" stroke="black" d="M1700.73,-67.53C1713.87,-61.56 1732.84,-52.93 1748.05,-46.02"/>
<polygon fill="black" stroke="black" points="1749.75,-49.09 1757.4,-41.77 1746.85,-42.72 1749.75,-49.09"/>
</g>
<!-- 6033619984 -->
<g id="node25" class="node">
<title>6033619984</title>
<polygon fill="none" stroke="black" points="2193,-121.68 2166,-103.68 2193,-85.68 2220,-103.68 2193,-121.68"/>
<text text-anchor="middle" x="2193" y="-100.58" font-family="Times,serif" font-size="12.00">+</text>
</g>
<!-- 6032833808&#45;&gt;6033619984 -->
<g id="edge27" class="edge">
<title>6032833808&#45;&gt;6033619984</title>
<path fill="none" stroke="black" d="M2121.81,-82.14C2134.01,-85.89 2150.45,-90.93 2164.34,-95.19"/>
<polygon fill="black" stroke="black" points="2163.33,-98.55 2173.92,-98.13 2165.38,-91.85 2163.33,-98.55"/>
</g>
<!-- 6033609552 -->
<g id="node26" class="node">
<title>6033609552</title>
<polygon fill="none" stroke="black" points="1950,-228.68 1837,-228.68 1837,-192.68 1950,-192.68 1950,-228.68"/>
<text text-anchor="middle" x="1893.5" y="-207.58" font-family="Times,serif" font-size="12.00">Send ticket via SMS</text>
</g>
<!-- 6032829200&#45;&gt;6033609552 -->
<g id="edge28" class="edge">
<title>6032829200&#45;&gt;6033609552</title>
<path fill="none" stroke="black" d="M1792.09,-174.79C1802.89,-178.65 1817.58,-183.9 1832.38,-189.19"/>
<polygon fill="black" stroke="black" points="1831.49,-192.59 1842.08,-192.66 1833.84,-186 1831.49,-192.59"/>
</g>
<!-- 6032824976&#45;&gt;6033619984 -->
<g id="edge29" class="edge">
<title>6032824976&#45;&gt;6033619984</title>
<path fill="none" stroke="black" d="M2121.81,-125.22C2134.01,-121.47 2150.45,-116.43 2164.34,-112.17"/>
<polygon fill="black" stroke="black" points="2165.38,-115.51 2173.92,-109.23 2163.33,-108.82 2165.38,-115.51"/>
</g>
<!-- 6033617488 -->
<g id="node24" class="node">
<title>6033617488</title>
<polygon fill="none" stroke="black" points="1942.5,-52.68 1844.5,-52.68 1844.5,-16.68 1942.5,-16.68 1942.5,-52.68"/>
<text text-anchor="middle" x="1893.5" y="-31.58" font-family="Times,serif" font-size="12.00">Send instructions</text>
</g>
<!-- 6032832336&#45;&gt;6033617488 -->
<g id="edge30" class="edge">
<title>6032832336&#45;&gt;6033617488</title>
<path fill="none" stroke="black" d="M1801.08,-34.68C1810.91,-34.68 1822.53,-34.68 1834.13,-34.68"/>
<polygon fill="black" stroke="black" points="1834.27,-38.18 1844.27,-34.68 1834.27,-31.18 1834.27,-38.18"/>
</g>
<!-- 6032821776 -->
<g id="node27" class="node">
<title>6032821776</title>
<polygon fill="none" stroke="black" points="2013,-52.68 1986,-34.68 2013,-16.68 2040,-34.68 2013,-52.68"/>
<text text-anchor="middle" x="2013" y="-31.58" font-family="Times,serif" font-size="12.00">X</text>
</g>
<!-- 6033617488&#45;&gt;6032821776 -->
<g id="edge31" class="edge">
<title>6033617488&#45;&gt;6032821776</title>
<path fill="none" stroke="black" d="M1942.63,-34.68C1953.75,-34.68 1965.4,-34.68 1975.91,-34.68"/>
<polygon fill="black" stroke="black" points="1975.97,-38.18 1985.97,-34.68 1975.97,-31.18 1975.97,-38.18"/>
</g>
<!-- 6033620368 -->
<g id="node29" class="node">
<title>6033620368</title>
<polygon fill="none" stroke="black" points="2410,-121.68 2256,-121.68 2256,-85.68 2410,-85.68 2410,-121.68"/>
<text text-anchor="middle" x="2333" y="-100.58" font-family="Times,serif" font-size="12.00">Provide personal information</text>
</g>
<!-- 6033619984&#45;&gt;6033620368 -->
<g id="edge32" class="edge">
<title>6033619984&#45;&gt;6033620368</title>
<path fill="none" stroke="black" d="M2220.28,-103.68C2227.86,-103.68 2236.58,-103.68 2245.72,-103.68"/>
<polygon fill="black" stroke="black" points="2245.79,-107.18 2255.79,-103.68 2245.79,-100.18 2245.79,-107.18"/>
</g>
<!-- 6032823440 -->
<g id="node28" class="node">
<title>6032823440</title>
<polygon fill="none" stroke="black" points="2013,-186.68 1986,-168.68 2013,-150.68 2040,-168.68 2013,-186.68"/>
<text text-anchor="middle" x="2013" y="-165.58" font-family="Times,serif" font-size="12.00">X</text>
</g>
<!-- 6033609552&#45;&gt;6032823440 -->
<g id="edge33" class="edge">
<title>6033609552&#45;&gt;6032823440</title>
<path fill="none" stroke="black" d="M1945.01,-192.63C1958.87,-187.67 1973.35,-182.5 1985.28,-178.23"/>
<polygon fill="black" stroke="black" points="1986.8,-181.4 1995.04,-174.74 1984.45,-174.81 1986.8,-181.4"/>
</g>
<!-- 6032821776&#45;&gt;6032833808 -->
<g id="edge35" class="edge">
<title>6032821776&#45;&gt;6032833808</title>
<path fill="none" stroke="black" d="M2029.33,-42C2042.58,-48.32 2061.97,-57.58 2077.39,-64.94"/>
<polygon fill="black" stroke="black" points="2076.31,-68.3 2086.85,-69.45 2079.33,-61.98 2076.31,-68.3"/>
</g>
<!-- 6032821776&#45;&gt;6032832336 -->
<g id="edge34" class="edge">
<title>6032821776&#45;&gt;6032832336</title>
<path fill="none" stroke="black" d="M1997.78,-26.47C1985.56,-19.92 1967.24,-11.27 1950,-7.68 1900.83,2.56 1886.17,2.56 1837,-7.68 1823.67,-10.46 1809.68,-16.26 1798.38,-21.78"/>
<polygon fill="black" stroke="black" points="1796.52,-18.8 1789.22,-26.47 1799.72,-25.03 1796.52,-18.8"/>
</g>
<!-- 6032823440&#45;&gt;6032829200 -->
<g id="edge36" class="edge">
<title>6032823440&#45;&gt;6032829200</title>
<path fill="none" stroke="black" d="M1985.97,-168.68C1943.58,-168.68 1859.51,-168.68 1811.28,-168.68"/>
<polygon fill="black" stroke="black" points="1811.27,-165.18 1801.27,-168.68 1811.27,-172.18 1811.27,-165.18"/>
</g>
<!-- 6032823440&#45;&gt;6032824976 -->
<g id="edge37" class="edge">
<title>6032823440&#45;&gt;6032824976</title>
<path fill="none" stroke="black" d="M2030.14,-161.71C2043.17,-156.09 2061.72,-148.07 2076.72,-141.6"/>
<polygon fill="black" stroke="black" points="2078.17,-144.78 2085.96,-137.61 2075.39,-138.36 2078.17,-144.78"/>
</g>
<!-- 6032831184 -->
<g id="node30" class="node">
<title>6032831184</title>
<polygon fill="none" stroke="black" points="2473,-121.68 2446,-103.68 2473,-85.68 2500,-103.68 2473,-121.68"/>
<text text-anchor="middle" x="2473" y="-100.58" font-family="Times,serif" font-size="12.00">X</text>
</g>
<!-- 6033620368&#45;&gt;6032831184 -->
<g id="edge38" class="edge">
<title>6033620368&#45;&gt;6032831184</title>
<path fill="none" stroke="black" d="M2410.27,-103.68C2419.19,-103.68 2427.96,-103.68 2435.95,-103.68"/>
<polygon fill="black" stroke="black" points="2435.96,-107.18 2445.96,-103.68 2435.96,-100.18 2435.96,-107.18"/>
</g>
<!-- 6032830992 -->
<g id="node31" class="node">
<title>6032830992</title>
<polygon fill="none" stroke="black" points="2714,-121.68 2687,-103.68 2714,-85.68 2741,-103.68 2714,-121.68"/>
<text text-anchor="middle" x="2714" y="-100.58" font-family="Times,serif" font-size="12.00">X</text>
</g>
<!-- 6032831184&#45;&gt;6032830992 -->
<g id="edge39" class="edge">
<title>6032831184&#45;&gt;6032830992</title>
<path fill="none" stroke="black" d="M2497.24,-105.54C2508.87,-106.37 2523.17,-107.27 2536,-107.68 2587.08,-109.33 2599.92,-109.33 2651,-107.68 2660.32,-107.38 2670.42,-106.83 2679.7,-106.23"/>
<polygon fill="black" stroke="black" points="2680.02,-109.71 2689.76,-105.54 2679.54,-102.73 2680.02,-109.71"/>
</g>
<!-- 6033615184 -->
<g id="node32" class="node">
<title>6033615184</title>
<polygon fill="none" stroke="black" points="2651,-98.68 2536,-98.68 2536,-62.68 2651,-62.68 2651,-98.68"/>
<text text-anchor="middle" x="2593.5" y="-77.58" font-family="Times,serif" font-size="12.00">Send ticket via email</text>
</g>
<!-- 6032831184&#45;&gt;6033615184 -->
<g id="edge40" class="edge">
<title>6032831184&#45;&gt;6033615184</title>
<path fill="none" stroke="black" d="M2494.37,-99.73C2503.33,-97.99 2514.41,-95.84 2525.86,-93.62"/>
<polygon fill="black" stroke="black" points="2526.83,-96.99 2535.98,-91.65 2525.49,-90.12 2526.83,-96.99"/>
</g>
<!-- 6029269264 -->
<g id="node33" class="node">
<title>6029269264</title>
<ellipse fill="orange" stroke="black" cx="2795" cy="-103.68" rx="18" ry="18"/>
</g>
<!-- 6032830992&#45;&gt;6029269264 -->
<g id="edge42" class="edge">
<title>6032830992&#45;&gt;6029269264</title>
<path fill="none" stroke="black" d="M2741.31,-103.68C2749.42,-103.68 2758.37,-103.68 2766.56,-103.68"/>
<polygon fill="black" stroke="black" points="2766.75,-107.18 2776.75,-103.68 2766.75,-100.18 2766.75,-107.18"/>
</g>
<!-- 6033615184&#45;&gt;6032830992 -->
<g id="edge41" class="edge">
<title>6033615184&#45;&gt;6032830992</title>
<path fill="none" stroke="black" d="M2651.32,-91.71C2662.23,-93.83 2673.24,-95.96 2682.89,-97.84"/>
<polygon fill="black" stroke="black" points="2682.26,-101.28 2692.74,-99.75 2683.59,-94.41 2682.26,-101.28"/>
</g>
</g>
</svg>
