<?xml version="1.0" encoding="UTF-8" standalone="no"?>
<!DOCTYPE svg PUBLIC "-//W3C//DTD SVG 1.1//EN"
 "http://www.w3.org/Graphics/SVG/1.1/DTD/svg11.dtd">
<!-- Generated by graphviz version 11.0.0 (20240428.1522)
 -->
<!-- Pages: 1 -->
<svg width="1758pt" height="98pt"
 viewBox="0.00 0.00 1758.00 98.00" xmlns="http://www.w3.org/2000/svg" xmlns:xlink="http://www.w3.org/1999/xlink">
<g id="graph0" class="graph" transform="scale(1 1) rotate(0) translate(4 94)">
<polygon fill="white" stroke="none" points="-4,4 -4,-94 1754,-94 1754,4 -4,4"/>
<!-- 2675056216976 -->
<g id="node1" class="node">
<title>2675056216976</title>
<ellipse fill="green" stroke="black" cx="18" cy="-45" rx="18" ry="18"/>
</g>
<!-- 2675054042896 -->
<g id="node2" class="node">
<title>2675054042896</title>
<polygon fill="none" stroke="black" points="208.75,-63 72,-63 72,-27 208.75,-27 208.75,-63"/>
<text text-anchor="middle" x="140.38" y="-39.98" font-family="Times New Roman,serif" font-size="12.00">Receive customer inquiry</text>
</g>
<!-- 2675056216976&#45;&gt;2675054042896 -->
<g id="edge1" class="edge">
<title>2675056216976&#45;&gt;2675054042896</title>
<path fill="none" stroke="black" d="M36.25,-45C43.09,-45 51.47,-45 60.48,-45"/>
<polygon fill="black" stroke="black" points="60.19,-48.5 70.19,-45 60.19,-41.5 60.19,-48.5"/>
</g>
<!-- 2675054043424 -->
<g id="node3" class="node">
<title>2675054043424</title>
<polygon fill="none" stroke="black" points="271.75,-63 244.75,-45 271.75,-27 298.75,-45 271.75,-63"/>
<text text-anchor="middle" x="271.75" y="-39.98" font-family="Times New Roman,serif" font-size="12.00">+</text>
</g>
<!-- 2675054042896&#45;&gt;2675054043424 -->
<g id="edge2" class="edge">
<title>2675054042896&#45;&gt;2675054043424</title>
<path fill="none" stroke="black" d="M209.09,-45C217.1,-45 225.05,-45 232.44,-45"/>
<polygon fill="black" stroke="black" points="232.38,-48.5 242.38,-45 232.38,-41.5 232.38,-48.5"/>
</g>
<!-- 2675054041984 -->
<g id="node4" class="node">
<title>2675054041984</title>
<polygon fill="none" stroke="black" points="540.5,-90 334.75,-90 334.75,-54 540.5,-54 540.5,-90"/>
<text text-anchor="middle" x="437.62" y="-66.97" font-family="Times New Roman,serif" font-size="12.00">Address customer concerns or questions</text>
</g>
<!-- 2675054043424&#45;&gt;2675054041984 -->
<g id="edge4" class="edge">
<title>2675054043424&#45;&gt;2675054041984</title>
<path fill="none" stroke="black" d="M294.17,-48.53C302.37,-49.88 312.4,-51.53 323.3,-53.33"/>
<polygon fill="black" stroke="black" points="322.52,-56.75 332.96,-54.92 323.66,-49.84 322.52,-56.75"/>
</g>
<!-- 2675054047072 -->
<g id="node5" class="node">
<title>2675054047072</title>
<polygon fill="none" stroke="black" points="514.25,-36 361,-36 361,0 514.25,0 514.25,-36"/>
<text text-anchor="middle" x="437.62" y="-12.97" font-family="Times New Roman,serif" font-size="12.00">Collect customer information</text>
</g>
<!-- 2675054043424&#45;&gt;2675054047072 -->
<g id="edge3" class="edge">
<title>2675054043424&#45;&gt;2675054047072</title>
<path fill="none" stroke="black" d="M294.17,-41.47C308.66,-39.08 328.85,-35.76 349.48,-32.36"/>
<polygon fill="black" stroke="black" points="349.83,-35.85 359.13,-30.77 348.69,-28.94 349.83,-35.85"/>
</g>
<!-- 2675054376816 -->
<g id="node6" class="node">
<title>2675054376816</title>
<polygon fill="none" stroke="black" points="603.5,-63 576.5,-45 603.5,-27 630.5,-45 603.5,-63"/>
<text text-anchor="middle" x="603.5" y="-39.98" font-family="Times New Roman,serif" font-size="12.00">+</text>
</g>
<!-- 2675054041984&#45;&gt;2675054376816 -->
<g id="edge5" class="edge">
<title>2675054041984&#45;&gt;2675054376816</title>
<path fill="none" stroke="black" d="M540.55,-55.21C551.02,-53.48 561.02,-51.83 569.83,-50.38"/>
<polygon fill="black" stroke="black" points="570.22,-53.87 579.52,-48.79 569.08,-46.96 570.22,-53.87"/>
</g>
<!-- 2675054047072&#45;&gt;2675054376816 -->
<g id="edge6" class="edge">
<title>2675054047072&#45;&gt;2675054376816</title>
<path fill="none" stroke="black" d="M514.33,-30.47C534.03,-33.72 554.22,-37.05 570.3,-39.69"/>
<polygon fill="black" stroke="black" points="569.29,-43.07 579.72,-41.25 570.42,-36.17 569.29,-43.07"/>
</g>
<!-- 2675053746832 -->
<g id="node7" class="node">
<title>2675053746832</title>
<polygon fill="none" stroke="black" points="888.75,-63 666.5,-63 666.5,-27 888.75,-27 888.75,-63"/>
<text text-anchor="middle" x="777.62" y="-39.98" font-family="Times New Roman,serif" font-size="12.00">Guide customer in selecting product/service</text>
</g>
<!-- 2675054376816&#45;&gt;2675053746832 -->
<g id="edge7" class="edge">
<title>2675054376816&#45;&gt;2675053746832</title>
<path fill="none" stroke="black" d="M631.39,-45C638.3,-45 646.18,-45 654.64,-45"/>
<polygon fill="black" stroke="black" points="654.52,-48.5 664.52,-45 654.52,-41.5 654.52,-48.5"/>
</g>
<!-- 2675054042944 -->
<g id="node8" class="node">
<title>2675054042944</title>
<polygon fill="none" stroke="black" points="1006.75,-63 924.75,-63 924.75,-27 1006.75,-27 1006.75,-63"/>
<text text-anchor="middle" x="965.75" y="-39.98" font-family="Times New Roman,serif" font-size="12.00">Provide quote</text>
</g>
<!-- 2675053746832&#45;&gt;2675054042944 -->
<g id="edge8" class="edge">
<title>2675053746832&#45;&gt;2675054042944</title>
<path fill="none" stroke="black" d="M889.05,-45C897.27,-45 905.3,-45 912.87,-45"/>
<polygon fill="black" stroke="black" points="912.85,-48.5 922.85,-45 912.85,-41.5 912.85,-48.5"/>
</g>
<!-- 2675054044672 -->
<g id="node9" class="node">
<title>2675054044672</title>
<polygon fill="none" stroke="black" points="1069.75,-63 1042.75,-45 1069.75,-27 1096.75,-45 1069.75,-63"/>
<text text-anchor="middle" x="1069.75" y="-39.98" font-family="Times New Roman,serif" font-size="12.00">X</text>
</g>
<!-- 2675054042944&#45;&gt;2675054044672 -->
<g id="edge9" class="edge">
<title>2675054042944&#45;&gt;2675054044672</title>
<path fill="none" stroke="black" d="M1007.06,-45C1014.83,-45 1022.94,-45 1030.63,-45"/>
<polygon fill="black" stroke="black" points="1030.37,-48.5 1040.37,-45 1030.37,-41.5 1030.37,-48.5"/>
</g>
<!-- 2675054046496 -->
<g id="node10" class="node">
<title>2675054046496</title>
<polygon fill="none" stroke="black" points="1651,-63 1624,-45 1651,-27 1678,-45 1651,-63"/>
<text text-anchor="middle" x="1651" y="-39.98" font-family="Times New Roman,serif" font-size="12.00">X</text>
</g>
<!-- 2675054044672&#45;&gt;2675054046496 -->
<g id="edge11" class="edge">
<title>2675054044672&#45;&gt;2675054046496</title>
<path fill="none" stroke="black" d="M1094.58,-46.9C1106.1,-47.72 1120.14,-48.59 1132.75,-49 1334.98,-55.52 1385.77,-55.52 1588,-49 1596.67,-48.72 1606.02,-48.22 1614.75,-47.67"/>
<polygon fill="black" stroke="black" points="1614.92,-51.17 1624.66,-47 1614.45,-44.18 1614.92,-51.17"/>
</g>
<!-- 2675054048176 -->
<g id="node11" class="node">
<title>2675054048176</title>
<polygon fill="none" stroke="black" points="1202,-40 1132.75,-40 1132.75,-4 1202,-4 1202,-40"/>
<text text-anchor="middle" x="1167.38" y="-16.98" font-family="Times New Roman,serif" font-size="12.00">Place order</text>
</g>
<!-- 2675054044672&#45;&gt;2675054048176 -->
<g id="edge10" class="edge">
<title>2675054044672&#45;&gt;2675054048176</title>
<path fill="none" stroke="black" d="M1090.1,-40.35C1099.19,-38.16 1110.43,-35.46 1121.47,-32.8"/>
<polygon fill="black" stroke="black" points="1121.97,-36.28 1130.87,-30.54 1120.33,-29.47 1121.97,-36.28"/>
</g>
<!-- 2675056218032 -->
<g id="node14" class="node">
<title>2675056218032</title>
<ellipse fill="orange" stroke="black" cx="1732" cy="-45" rx="18" ry="18"/>
</g>
<!-- 2675054046496&#45;&gt;2675056218032 -->
<g id="edge13" class="edge">
<title>2675054046496&#45;&gt;2675056218032</title>
<path fill="none" stroke="black" d="M1678.75,-45C1686.38,-45 1694.73,-45 1702.47,-45"/>
<polygon fill="black" stroke="black" points="1702.43,-48.5 1712.43,-45 1702.43,-41.5 1702.43,-48.5"/>
</g>
<!-- 2675053744768 -->
<g id="node12" class="node">
<title>2675053744768</title>
<polygon fill="none" stroke="black" points="1363.5,-40 1238,-40 1238,-4 1363.5,-4 1363.5,-40"/>
<text text-anchor="middle" x="1300.75" y="-16.98" font-family="Times New Roman,serif" font-size="12.00">Record order in system</text>
</g>
<!-- 2675054048176&#45;&gt;2675053744768 -->
<g id="edge12" class="edge">
<title>2675054048176&#45;&gt;2675053744768</title>
<path fill="none" stroke="black" d="M1202.21,-22C1209.68,-22 1217.88,-22 1226.25,-22"/>
<polygon fill="black" stroke="black" points="1226.21,-25.5 1236.21,-22 1226.21,-18.5 1226.21,-25.5"/>
</g>
<!-- 2675054042704 -->
<g id="node13" class="node">
<title>2675054042704</title>
<polygon fill="none" stroke="black" points="1588,-40 1399.5,-40 1399.5,-4 1588,-4 1588,-40"/>
<text text-anchor="middle" x="1493.75" y="-16.98" font-family="Times New Roman,serif" font-size="12.00">Send order confirmation to customer</text>
</g>
<!-- 2675053744768&#45;&gt;2675054042704 -->
<g id="edge14" class="edge">
<title>2675053744768&#45;&gt;2675054042704</title>
<path fill="none" stroke="black" d="M1363.76,-22C1371.55,-22 1379.68,-22 1387.9,-22"/>
<polygon fill="black" stroke="black" points="1387.63,-25.5 1397.63,-22 1387.63,-18.5 1387.63,-25.5"/>
</g>
<!-- 2675054042704&#45;&gt;2675054046496 -->
<g id="edge15" class="edge">
<title>2675054042704&#45;&gt;2675054046496</title>
<path fill="none" stroke="black" d="M1588.2,-35.84C1598.44,-37.36 1608.3,-38.82 1617.02,-40.11"/>
<polygon fill="black" stroke="black" points="1616.23,-43.54 1626.63,-41.54 1617.26,-36.61 1616.23,-43.54"/>
</g>
</g>
</svg>
