<?xml version="1.0" encoding="UTF-8" standalone="no"?>
<!DOCTYPE svg PUBLIC "-//W3C//DTD SVG 1.1//EN"
 "http://www.w3.org/Graphics/SVG/1.1/DTD/svg11.dtd">
<!-- Generated by graphviz version 11.0.0 (20240428.1522)
 -->
<!-- Pages: 1 -->
<svg width="993pt" height="800pt"
 viewBox="0.00 0.00 992.50 800.00" xmlns="http://www.w3.org/2000/svg" xmlns:xlink="http://www.w3.org/1999/xlink">
<g id="graph0" class="graph" transform="scale(1 1) rotate(0) translate(4 796)">
<polygon fill="white" stroke="none" points="-4,4 -4,-796 988.5,-796 988.5,4 -4,4"/>
<!-- 2675056776192 -->
<g id="node1" class="node">
<title>2675056776192</title>
<ellipse fill="green" stroke="black" cx="18" cy="-315" rx="18" ry="18"/>
</g>
<!-- 2675056067936 -->
<g id="node2" class="node">
<title>2675056067936</title>
<polygon fill="none" stroke="black" points="99,-333 72,-315 99,-297 126,-315 99,-333"/>
<text text-anchor="middle" x="99" y="-309.98" font-family="Times New Roman,serif" font-size="12.00">X</text>
</g>
<!-- 2675056776192&#45;&gt;2675056067936 -->
<g id="edge1" class="edge">
<title>2675056776192&#45;&gt;2675056067936</title>
<path fill="none" stroke="black" d="M36.14,-315C43.11,-315 51.47,-315 59.75,-315"/>
<polygon fill="black" stroke="black" points="59.75,-318.5 69.75,-315 59.75,-311.5 59.75,-318.5"/>
</g>
<!-- 2675056069184 -->
<g id="node3" class="node">
<title>2675056069184</title>
<polygon fill="none" stroke="black" points="189,-576 162,-558 189,-540 216,-558 189,-576"/>
<text text-anchor="middle" x="189" y="-552.98" font-family="Times New Roman,serif" font-size="12.00">+</text>
</g>
<!-- 2675056067936&#45;&gt;2675056069184 -->
<g id="edge2" class="edge">
<title>2675056067936&#45;&gt;2675056069184</title>
<path fill="none" stroke="black" d="M105.11,-329.12C119.54,-368.96 160.72,-482.68 179.04,-533.24"/>
<polygon fill="black" stroke="black" points="175.66,-534.21 182.36,-542.42 182.24,-531.83 175.66,-534.21"/>
</g>
<!-- 2675056074464 -->
<g id="node4" class="node">
<title>2675056074464</title>
<polygon fill="none" stroke="black" points="189,-333 162,-315 189,-297 216,-315 189,-333"/>
<text text-anchor="middle" x="189" y="-309.98" font-family="Times New Roman,serif" font-size="12.00">+</text>
</g>
<!-- 2675056067936&#45;&gt;2675056074464 -->
<g id="edge3" class="edge">
<title>2675056067936&#45;&gt;2675056074464</title>
<path fill="none" stroke="black" d="M126.88,-315C134.13,-315 142.12,-315 149.85,-315"/>
<polygon fill="black" stroke="black" points="149.77,-318.5 159.77,-315 149.77,-311.5 149.77,-318.5"/>
</g>
<!-- 2675056074848 -->
<g id="node5" class="node">
<title>2675056074848</title>
<polygon fill="none" stroke="black" points="189,-171 162,-153 189,-135 216,-153 189,-171"/>
<text text-anchor="middle" x="189" y="-147.97" font-family="Times New Roman,serif" font-size="12.00">+</text>
</g>
<!-- 2675056067936&#45;&gt;2675056074848 -->
<g id="edge4" class="edge">
<title>2675056067936&#45;&gt;2675056074848</title>
<path fill="none" stroke="black" d="M107.05,-302.02C121.92,-274.65 156.65,-210.71 175.43,-176.15"/>
<polygon fill="black" stroke="black" points="178.49,-177.83 180.19,-167.38 172.34,-174.49 178.49,-177.83"/>
</g>
<!-- 2675056068800 -->
<g id="node7" class="node">
<title>2675056068800</title>
<polygon fill="none" stroke="black" points="474.25,-792 252,-792 252,-756 474.25,-756 474.25,-792"/>
<text text-anchor="middle" x="363.12" y="-768.98" font-family="Times New Roman,serif" font-size="12.00">Guide customer in selecting product/service</text>
</g>
<!-- 2675056069184&#45;&gt;2675056068800 -->
<g id="edge5" class="edge">
<title>2675056069184&#45;&gt;2675056068800</title>
<path fill="none" stroke="black" d="M190.38,-575.55C192.18,-612.89 201.84,-700.54 252,-747 252.65,-747.6 253.31,-748.19 253.98,-748.77"/>
<polygon fill="black" stroke="black" points="251.91,-751.59 262.04,-754.68 256.05,-745.94 251.91,-751.59"/>
</g>
<!-- 2675056069520 -->
<g id="node9" class="node">
<title>2675056069520</title>
<polygon fill="none" stroke="black" points="439.75,-738 286.5,-738 286.5,-702 439.75,-702 439.75,-738"/>
<text text-anchor="middle" x="363.12" y="-714.98" font-family="Times New Roman,serif" font-size="12.00">Collect customer information</text>
</g>
<!-- 2675056069184&#45;&gt;2675056069520 -->
<g id="edge11" class="edge">
<title>2675056069184&#45;&gt;2675056069520</title>
<path fill="none" stroke="black" d="M192.7,-574.07C198.37,-602.55 214.22,-661.79 252,-693 259.01,-698.79 267.08,-703.37 275.6,-706.99"/>
<polygon fill="black" stroke="black" points="274.16,-710.19 284.75,-710.42 276.61,-703.63 274.16,-710.19"/>
</g>
<!-- 2675056069856 -->
<g id="node10" class="node">
<title>2675056069856</title>
<polygon fill="none" stroke="black" points="431.5,-684 294.75,-684 294.75,-648 431.5,-648 431.5,-684"/>
<text text-anchor="middle" x="363.12" y="-660.98" font-family="Times New Roman,serif" font-size="12.00">Receive customer inquiry</text>
</g>
<!-- 2675056069184&#45;&gt;2675056069856 -->
<g id="edge6" class="edge">
<title>2675056069184&#45;&gt;2675056069856</title>
<path fill="none" stroke="black" d="M196.57,-571.48C206.17,-589.69 225.76,-621.85 252,-639 261.61,-645.28 272.57,-650.11 283.75,-653.81"/>
<polygon fill="black" stroke="black" points="282.47,-657.08 293.05,-656.59 284.48,-650.37 282.47,-657.08"/>
</g>
<!-- 2675056070912 -->
<g id="node12" class="node">
<title>2675056070912</title>
<polygon fill="none" stroke="black" points="431.5,-630 294.75,-630 294.75,-594 431.5,-594 431.5,-630"/>
<text text-anchor="middle" x="363.12" y="-606.98" font-family="Times New Roman,serif" font-size="12.00">Receive customer inquiry</text>
</g>
<!-- 2675056069184&#45;&gt;2675056070912 -->
<g id="edge8" class="edge">
<title>2675056069184&#45;&gt;2675056070912</title>
<path fill="none" stroke="black" d="M205.26,-565.51C217.63,-571.4 235.65,-579.48 252,-585 262.04,-588.39 272.72,-591.54 283.33,-594.42"/>
<polygon fill="black" stroke="black" points="282.31,-597.77 292.87,-596.92 284.09,-591 282.31,-597.77"/>
</g>
<!-- 2675056071584 -->
<g id="node13" class="node">
<title>2675056071584</title>
<polygon fill="none" stroke="black" points="397.75,-576 328.5,-576 328.5,-540 397.75,-540 397.75,-576"/>
<text text-anchor="middle" x="363.12" y="-552.98" font-family="Times New Roman,serif" font-size="12.00">Place order</text>
</g>
<!-- 2675056069184&#45;&gt;2675056071584 -->
<g id="edge9" class="edge">
<title>2675056069184&#45;&gt;2675056071584</title>
<path fill="none" stroke="black" d="M216.89,-558C243.59,-558 285,-558 316.79,-558"/>
<polygon fill="black" stroke="black" points="316.5,-561.5 326.5,-558 316.5,-554.5 316.5,-561.5"/>
</g>
<!-- 2675056071920 -->
<g id="node14" class="node">
<title>2675056071920</title>
<polygon fill="none" stroke="black" points="425.88,-522 300.38,-522 300.38,-486 425.88,-486 425.88,-522"/>
<text text-anchor="middle" x="363.12" y="-498.98" font-family="Times New Roman,serif" font-size="12.00">Record order in system</text>
</g>
<!-- 2675056069184&#45;&gt;2675056071920 -->
<g id="edge7" class="edge">
<title>2675056069184&#45;&gt;2675056071920</title>
<path fill="none" stroke="black" d="M205.26,-550.49C217.63,-544.6 235.65,-536.52 252,-531 263.9,-526.98 276.71,-523.29 289.24,-520.01"/>
<polygon fill="black" stroke="black" points="289.85,-523.47 298.68,-517.61 288.12,-516.68 289.85,-523.47"/>
</g>
<!-- 2675056076240 -->
<g id="node18" class="node">
<title>2675056076240</title>
<polygon fill="none" stroke="black" points="404.12,-468 322.12,-468 322.12,-432 404.12,-432 404.12,-468"/>
<text text-anchor="middle" x="363.12" y="-444.98" font-family="Times New Roman,serif" font-size="12.00">Provide quote</text>
</g>
<!-- 2675056069184&#45;&gt;2675056076240 -->
<g id="edge12" class="edge">
<title>2675056069184&#45;&gt;2675056076240</title>
<path fill="none" stroke="black" d="M196.57,-544.52C206.17,-526.31 225.76,-494.15 252,-477 269.36,-465.66 291.07,-459.08 310.62,-455.26"/>
<polygon fill="black" stroke="black" points="311.09,-458.73 320.34,-453.58 309.89,-451.83 311.09,-458.73"/>
</g>
<!-- 2675056077248 -->
<g id="node19" class="node">
<title>2675056077248</title>
<polygon fill="none" stroke="black" points="466,-414 260.25,-414 260.25,-378 466,-378 466,-414"/>
<text text-anchor="middle" x="363.12" y="-390.98" font-family="Times New Roman,serif" font-size="12.00">Address customer concerns or questions</text>
</g>
<!-- 2675056069184&#45;&gt;2675056077248 -->
<g id="edge10" class="edge">
<title>2675056069184&#45;&gt;2675056077248</title>
<path fill="none" stroke="black" d="M192.7,-541.93C198.37,-513.45 214.22,-454.21 252,-423 252.97,-422.2 253.96,-421.42 254.96,-420.67"/>
<polygon fill="black" stroke="black" points="256.74,-423.69 263.21,-415.3 252.92,-417.83 256.74,-423.69"/>
</g>
<!-- 2675056074080 -->
<g id="node17" class="node">
<title>2675056074080</title>
<polygon fill="none" stroke="black" points="431.5,-360 294.75,-360 294.75,-324 431.5,-324 431.5,-360"/>
<text text-anchor="middle" x="363.12" y="-336.98" font-family="Times New Roman,serif" font-size="12.00">Receive customer inquiry</text>
</g>
<!-- 2675056074464&#45;&gt;2675056074080 -->
<g id="edge14" class="edge">
<title>2675056074464&#45;&gt;2675056074080</title>
<path fill="none" stroke="black" d="M211.45,-318.36C229.67,-321.22 256.98,-325.51 283.37,-329.65"/>
<polygon fill="black" stroke="black" points="282.68,-333.08 293.1,-331.17 283.77,-326.17 282.68,-333.08"/>
</g>
<!-- 2675056078256 -->
<g id="node20" class="node">
<title>2675056078256</title>
<polygon fill="none" stroke="black" points="431.5,-306 294.75,-306 294.75,-270 431.5,-270 431.5,-306"/>
<text text-anchor="middle" x="363.12" y="-282.98" font-family="Times New Roman,serif" font-size="12.00">Receive customer inquiry</text>
</g>
<!-- 2675056074464&#45;&gt;2675056078256 -->
<g id="edge13" class="edge">
<title>2675056074464&#45;&gt;2675056078256</title>
<path fill="none" stroke="black" d="M211.45,-311.64C229.67,-308.78 256.98,-304.49 283.37,-300.35"/>
<polygon fill="black" stroke="black" points="283.77,-303.83 293.1,-298.83 282.68,-296.92 283.77,-303.83"/>
</g>
<!-- 2675056068128 -->
<g id="node6" class="node">
<title>2675056068128</title>
<polygon fill="none" stroke="black" points="431.5,-252 294.75,-252 294.75,-216 431.5,-216 431.5,-252"/>
<text text-anchor="middle" x="363.12" y="-228.97" font-family="Times New Roman,serif" font-size="12.00">Receive customer inquiry</text>
</g>
<!-- 2675056074848&#45;&gt;2675056068128 -->
<g id="edge16" class="edge">
<title>2675056074848&#45;&gt;2675056068128</title>
<path fill="none" stroke="black" d="M199.8,-164.28C211.14,-176.62 230.97,-196.09 252,-207 261.83,-212.1 272.66,-216.26 283.57,-219.65"/>
<polygon fill="black" stroke="black" points="282.44,-222.97 293.02,-222.37 284.38,-216.24 282.44,-222.97"/>
</g>
<!-- 2675056069136 -->
<g id="node8" class="node">
<title>2675056069136</title>
<polygon fill="none" stroke="black" points="466,-198 260.25,-198 260.25,-162 466,-162 466,-198"/>
<text text-anchor="middle" x="363.12" y="-174.97" font-family="Times New Roman,serif" font-size="12.00">Address customer concerns or questions</text>
</g>
<!-- 2675056074848&#45;&gt;2675056069136 -->
<g id="edge15" class="edge">
<title>2675056074848&#45;&gt;2675056069136</title>
<path fill="none" stroke="black" d="M211.45,-156.36C221.65,-157.96 234.7,-160.01 248.84,-162.23"/>
<polygon fill="black" stroke="black" points="247.92,-165.63 258.35,-163.72 249.01,-158.71 247.92,-165.63"/>
</g>
<!-- 2675056070192 -->
<g id="node11" class="node">
<title>2675056070192</title>
<polygon fill="none" stroke="black" points="474.25,-144 252,-144 252,-108 474.25,-108 474.25,-144"/>
<text text-anchor="middle" x="363.12" y="-120.97" font-family="Times New Roman,serif" font-size="12.00">Guide customer in selecting product/service</text>
</g>
<!-- 2675056074848&#45;&gt;2675056070192 -->
<g id="edge18" class="edge">
<title>2675056074848&#45;&gt;2675056070192</title>
<path fill="none" stroke="black" d="M211.45,-149.64C219.63,-148.35 229.64,-146.78 240.58,-145.07"/>
<polygon fill="black" stroke="black" points="240.97,-148.55 250.3,-143.54 239.88,-141.63 240.97,-148.55"/>
</g>
<!-- 2675056072592 -->
<g id="node15" class="node">
<title>2675056072592</title>
<polygon fill="none" stroke="black" points="431.5,-90 294.75,-90 294.75,-54 431.5,-54 431.5,-90"/>
<text text-anchor="middle" x="363.12" y="-66.97" font-family="Times New Roman,serif" font-size="12.00">Receive customer inquiry</text>
</g>
<!-- 2675056074848&#45;&gt;2675056072592 -->
<g id="edge17" class="edge">
<title>2675056074848&#45;&gt;2675056072592</title>
<path fill="none" stroke="black" d="M199.8,-141.72C211.14,-129.38 230.97,-109.91 252,-99 261.83,-93.9 272.66,-89.74 283.57,-86.35"/>
<polygon fill="black" stroke="black" points="284.38,-89.76 293.02,-83.63 282.44,-83.03 284.38,-89.76"/>
</g>
<!-- 2675056072928 -->
<g id="node16" class="node">
<title>2675056072928</title>
<polygon fill="none" stroke="black" points="439.75,-36 286.5,-36 286.5,0 439.75,0 439.75,-36"/>
<text text-anchor="middle" x="363.12" y="-12.97" font-family="Times New Roman,serif" font-size="12.00">Collect customer information</text>
</g>
<!-- 2675056074848&#45;&gt;2675056072928 -->
<g id="edge19" class="edge">
<title>2675056074848&#45;&gt;2675056072928</title>
<path fill="none" stroke="black" d="M194.29,-138.24C201.89,-114.74 220.04,-69.05 252,-45 259.08,-39.67 267.07,-35.39 275.44,-31.94"/>
<polygon fill="black" stroke="black" points="276.59,-35.24 284.77,-28.52 274.18,-28.67 276.59,-35.24"/>
</g>
<!-- 2675056074416 -->
<g id="node27" class="node">
<title>2675056074416</title>
<polygon fill="none" stroke="black" points="698,-252 544.75,-252 544.75,-216 698,-216 698,-252"/>
<text text-anchor="middle" x="621.38" y="-228.97" font-family="Times New Roman,serif" font-size="12.00">Collect customer information</text>
</g>
<!-- 2675056068128&#45;&gt;2675056074416 -->
<g id="edge20" class="edge">
<title>2675056068128&#45;&gt;2675056074416</title>
<path fill="none" stroke="black" d="M431.79,-234C462.96,-234 500.33,-234 533.55,-234"/>
<polygon fill="black" stroke="black" points="533.13,-237.5 543.13,-234 533.13,-230.5 533.13,-237.5"/>
</g>
<!-- 2675056074800 -->
<g id="node28" class="node">
<title>2675056074800</title>
<polygon fill="none" stroke="black" points="662.38,-792 580.38,-792 580.38,-756 662.38,-756 662.38,-792"/>
<text text-anchor="middle" x="621.38" y="-768.98" font-family="Times New Roman,serif" font-size="12.00">Provide quote</text>
</g>
<!-- 2675056068800&#45;&gt;2675056074800 -->
<g id="edge21" class="edge">
<title>2675056068800&#45;&gt;2675056074800</title>
<path fill="none" stroke="black" d="M474.66,-774C507.49,-774 541.89,-774 569.02,-774"/>
<polygon fill="black" stroke="black" points="568.66,-777.5 578.66,-774 568.66,-770.5 568.66,-777.5"/>
</g>
<!-- 2675056075568 -->
<g id="node30" class="node">
<title>2675056075568</title>
<polygon fill="none" stroke="black" points="732.5,-198 510.25,-198 510.25,-162 732.5,-162 732.5,-198"/>
<text text-anchor="middle" x="621.38" y="-174.97" font-family="Times New Roman,serif" font-size="12.00">Guide customer in selecting product/service</text>
</g>
<!-- 2675056069136&#45;&gt;2675056075568 -->
<g id="edge22" class="edge">
<title>2675056069136&#45;&gt;2675056075568</title>
<path fill="none" stroke="black" d="M466.14,-180C476.81,-180 487.73,-180 498.59,-180"/>
<polygon fill="black" stroke="black" points="498.36,-183.5 508.36,-180 498.36,-176.5 498.36,-183.5"/>
</g>
<!-- 2675056076576 -->
<g id="node32" class="node">
<title>2675056076576</title>
<polygon fill="none" stroke="black" points="732.5,-738 510.25,-738 510.25,-702 732.5,-702 732.5,-738"/>
<text text-anchor="middle" x="621.38" y="-714.98" font-family="Times New Roman,serif" font-size="12.00">Guide customer in selecting product/service</text>
</g>
<!-- 2675056069520&#45;&gt;2675056076576 -->
<g id="edge23" class="edge">
<title>2675056069520&#45;&gt;2675056076576</title>
<path fill="none" stroke="black" d="M439.97,-720C458.44,-720 478.65,-720 498.66,-720"/>
<polygon fill="black" stroke="black" points="498.56,-723.5 508.56,-720 498.56,-716.5 498.56,-723.5"/>
</g>
<!-- 2675056068464 -->
<g id="node21" class="node">
<title>2675056068464</title>
<polygon fill="none" stroke="black" points="698,-684 544.75,-684 544.75,-648 698,-648 698,-684"/>
<text text-anchor="middle" x="621.38" y="-660.98" font-family="Times New Roman,serif" font-size="12.00">Collect customer information</text>
</g>
<!-- 2675056069856&#45;&gt;2675056068464 -->
<g id="edge24" class="edge">
<title>2675056069856&#45;&gt;2675056068464</title>
<path fill="none" stroke="black" d="M431.79,-666C462.96,-666 500.33,-666 533.55,-666"/>
<polygon fill="black" stroke="black" points="533.13,-669.5 543.13,-666 533.13,-662.5 533.13,-669.5"/>
</g>
<!-- 2675056076912 -->
<g id="node33" class="node">
<title>2675056076912</title>
<polygon fill="none" stroke="black" points="662.38,-144 580.38,-144 580.38,-108 662.38,-108 662.38,-144"/>
<text text-anchor="middle" x="621.38" y="-120.97" font-family="Times New Roman,serif" font-size="12.00">Provide quote</text>
</g>
<!-- 2675056070192&#45;&gt;2675056076912 -->
<g id="edge25" class="edge">
<title>2675056070192&#45;&gt;2675056076912</title>
<path fill="none" stroke="black" d="M474.66,-126C507.49,-126 541.89,-126 569.02,-126"/>
<polygon fill="black" stroke="black" points="568.66,-129.5 578.66,-126 568.66,-122.5 568.66,-129.5"/>
</g>
<!-- 2675056075232 -->
<g id="node29" class="node">
<title>2675056075232</title>
<polygon fill="none" stroke="black" points="724.25,-630 518.5,-630 518.5,-594 724.25,-594 724.25,-630"/>
<text text-anchor="middle" x="621.38" y="-606.98" font-family="Times New Roman,serif" font-size="12.00">Address customer concerns or questions</text>
</g>
<!-- 2675056070912&#45;&gt;2675056075232 -->
<g id="edge26" class="edge">
<title>2675056070912&#45;&gt;2675056075232</title>
<path fill="none" stroke="black" d="M431.79,-612C454.78,-612 481.14,-612 506.72,-612"/>
<polygon fill="black" stroke="black" points="506.5,-615.5 516.5,-612 506.5,-608.5 506.5,-615.5"/>
</g>
<!-- 2675056073408 -->
<g id="node25" class="node">
<title>2675056073408</title>
<polygon fill="none" stroke="black" points="684.12,-576 558.62,-576 558.62,-540 684.12,-540 684.12,-576"/>
<text text-anchor="middle" x="621.38" y="-552.98" font-family="Times New Roman,serif" font-size="12.00">Record order in system</text>
</g>
<!-- 2675056071584&#45;&gt;2675056073408 -->
<g id="edge27" class="edge">
<title>2675056071584&#45;&gt;2675056073408</title>
<path fill="none" stroke="black" d="M398.15,-558C435.84,-558 497.73,-558 546.64,-558"/>
<polygon fill="black" stroke="black" points="546.62,-561.5 556.62,-558 546.62,-554.5 546.62,-561.5"/>
</g>
<!-- 2675056077920 -->
<g id="node35" class="node">
<title>2675056077920</title>
<polygon fill="none" stroke="black" points="715.62,-522 527.12,-522 527.12,-486 715.62,-486 715.62,-522"/>
<text text-anchor="middle" x="621.38" y="-498.98" font-family="Times New Roman,serif" font-size="12.00">Send order confirmation to customer</text>
</g>
<!-- 2675056071920&#45;&gt;2675056077920 -->
<g id="edge28" class="edge">
<title>2675056071920&#45;&gt;2675056077920</title>
<path fill="none" stroke="black" d="M426.16,-504C453.07,-504 485.34,-504 515.77,-504"/>
<polygon fill="black" stroke="black" points="515.38,-507.5 525.38,-504 515.37,-500.5 515.38,-507.5"/>
</g>
<!-- 2675056070576 -->
<g id="node22" class="node">
<title>2675056070576</title>
<polygon fill="none" stroke="black" points="724.25,-90 518.5,-90 518.5,-54 724.25,-54 724.25,-90"/>
<text text-anchor="middle" x="621.38" y="-66.97" font-family="Times New Roman,serif" font-size="12.00">Address customer concerns or questions</text>
</g>
<!-- 2675056072592&#45;&gt;2675056070576 -->
<g id="edge29" class="edge">
<title>2675056072592&#45;&gt;2675056070576</title>
<path fill="none" stroke="black" d="M431.79,-72C454.78,-72 481.14,-72 506.72,-72"/>
<polygon fill="black" stroke="black" points="506.5,-75.5 516.5,-72 506.5,-68.5 506.5,-75.5"/>
</g>
<!-- 2675056073744 -->
<g id="node26" class="node">
<title>2675056073744</title>
<polygon fill="none" stroke="black" points="732.5,-36 510.25,-36 510.25,0 732.5,0 732.5,-36"/>
<text text-anchor="middle" x="621.38" y="-12.97" font-family="Times New Roman,serif" font-size="12.00">Guide customer in selecting product/service</text>
</g>
<!-- 2675056072928&#45;&gt;2675056073744 -->
<g id="edge30" class="edge">
<title>2675056072928&#45;&gt;2675056073744</title>
<path fill="none" stroke="black" d="M439.97,-18C458.44,-18 478.65,-18 498.66,-18"/>
<polygon fill="black" stroke="black" points="498.56,-21.5 508.56,-18 498.56,-14.5 498.56,-21.5"/>
</g>
<!-- 2675056075904 -->
<g id="node31" class="node">
<title>2675056075904</title>
<polygon fill="none" stroke="black" points="698,-360 544.75,-360 544.75,-324 698,-324 698,-360"/>
<text text-anchor="middle" x="621.38" y="-336.98" font-family="Times New Roman,serif" font-size="12.00">Collect customer information</text>
</g>
<!-- 2675056074080&#45;&gt;2675056075904 -->
<g id="edge31" class="edge">
<title>2675056074080&#45;&gt;2675056075904</title>
<path fill="none" stroke="black" d="M431.79,-342C462.96,-342 500.33,-342 533.55,-342"/>
<polygon fill="black" stroke="black" points="533.13,-345.5 543.13,-342 533.13,-338.5 533.13,-345.5"/>
</g>
<!-- 2675056072256 -->
<g id="node24" class="node">
<title>2675056072256</title>
<polygon fill="none" stroke="black" points="656,-468 586.75,-468 586.75,-432 656,-432 656,-468"/>
<text text-anchor="middle" x="621.38" y="-444.98" font-family="Times New Roman,serif" font-size="12.00">Place order</text>
</g>
<!-- 2675056076240&#45;&gt;2675056072256 -->
<g id="edge32" class="edge">
<title>2675056076240&#45;&gt;2675056072256</title>
<path fill="none" stroke="black" d="M404.45,-450C450.8,-450 526.7,-450 575.06,-450"/>
<polygon fill="black" stroke="black" points="574.91,-453.5 584.91,-450 574.91,-446.5 574.91,-453.5"/>
</g>
<!-- 2675056077584 -->
<g id="node34" class="node">
<title>2675056077584</title>
<polygon fill="none" stroke="black" points="732.5,-414 510.25,-414 510.25,-378 732.5,-378 732.5,-414"/>
<text text-anchor="middle" x="621.38" y="-390.98" font-family="Times New Roman,serif" font-size="12.00">Guide customer in selecting product/service</text>
</g>
<!-- 2675056077248&#45;&gt;2675056077584 -->
<g id="edge33" class="edge">
<title>2675056077248&#45;&gt;2675056077584</title>
<path fill="none" stroke="black" d="M466.14,-396C476.81,-396 487.73,-396 498.59,-396"/>
<polygon fill="black" stroke="black" points="498.36,-399.5 508.36,-396 498.36,-392.5 498.36,-399.5"/>
</g>
<!-- 2675056071248 -->
<g id="node23" class="node">
<title>2675056071248</title>
<polygon fill="none" stroke="black" points="724.25,-306 518.5,-306 518.5,-270 724.25,-270 724.25,-306"/>
<text text-anchor="middle" x="621.38" y="-282.98" font-family="Times New Roman,serif" font-size="12.00">Address customer concerns or questions</text>
</g>
<!-- 2675056078256&#45;&gt;2675056071248 -->
<g id="edge34" class="edge">
<title>2675056078256&#45;&gt;2675056071248</title>
<path fill="none" stroke="black" d="M431.79,-288C454.78,-288 481.14,-288 506.72,-288"/>
<polygon fill="black" stroke="black" points="506.5,-291.5 516.5,-288 506.5,-284.5 506.5,-291.5"/>
</g>
<!-- 2675056070240 -->
<g id="node36" class="node">
<title>2675056070240</title>
<polygon fill="none" stroke="black" points="795.5,-576 768.5,-558 795.5,-540 822.5,-558 795.5,-576"/>
<text text-anchor="middle" x="795.5" y="-552.98" font-family="Times New Roman,serif" font-size="12.00">+</text>
</g>
<!-- 2675056068464&#45;&gt;2675056070240 -->
<g id="edge35" class="edge">
<title>2675056068464&#45;&gt;2675056070240</title>
<path fill="none" stroke="black" d="M698.36,-654.58C710.37,-650.79 722.2,-645.73 732.5,-639 754.43,-624.66 771.72,-599.84 782.41,-581.44"/>
<polygon fill="black" stroke="black" points="785.41,-583.25 787.19,-572.8 779.29,-579.86 785.41,-583.25"/>
</g>
<!-- 2675056075088 -->
<g id="node38" class="node">
<title>2675056075088</title>
<polygon fill="none" stroke="black" points="795.5,-171 768.5,-153 795.5,-135 822.5,-153 795.5,-171"/>
<text text-anchor="middle" x="795.5" y="-147.97" font-family="Times New Roman,serif" font-size="12.00">+</text>
</g>
<!-- 2675056070576&#45;&gt;2675056075088 -->
<g id="edge36" class="edge">
<title>2675056070576&#45;&gt;2675056075088</title>
<path fill="none" stroke="black" d="M712.93,-90.43C719.7,-92.94 726.3,-95.78 732.5,-99 749.26,-107.69 765.26,-121.82 776.8,-133.45"/>
<polygon fill="black" stroke="black" points="774.21,-135.81 783.65,-140.62 779.28,-130.97 774.21,-135.81"/>
</g>
<!-- 2675056073216 -->
<g id="node37" class="node">
<title>2675056073216</title>
<polygon fill="none" stroke="black" points="795.5,-333 768.5,-315 795.5,-297 822.5,-315 795.5,-333"/>
<text text-anchor="middle" x="795.5" y="-309.98" font-family="Times New Roman,serif" font-size="12.00">+</text>
</g>
<!-- 2675056071248&#45;&gt;2675056073216 -->
<g id="edge37" class="edge">
<title>2675056071248&#45;&gt;2675056073216</title>
<path fill="none" stroke="black" d="M724.49,-304.02C737.89,-306.12 750.75,-308.14 761.71,-309.86"/>
<polygon fill="black" stroke="black" points="760.87,-313.27 771.29,-311.36 761.96,-306.35 760.87,-313.27"/>
</g>
<!-- 2675056072256&#45;&gt;2675056070240 -->
<g id="edge38" class="edge">
<title>2675056072256&#45;&gt;2675056070240</title>
<path fill="none" stroke="black" d="M656.01,-452.38C679.1,-455.36 709.6,-462.03 732.5,-477 754.43,-491.34 771.72,-516.16 782.41,-534.56"/>
<polygon fill="black" stroke="black" points="779.29,-536.14 787.19,-543.2 785.41,-532.75 779.29,-536.14"/>
</g>
<!-- 2675056073408&#45;&gt;2675056070240 -->
<g id="edge39" class="edge">
<title>2675056073408&#45;&gt;2675056070240</title>
<path fill="none" stroke="black" d="M684.52,-558C708.62,-558 735.43,-558 756.56,-558"/>
<polygon fill="black" stroke="black" points="756.45,-561.5 766.45,-558 756.45,-554.5 756.45,-561.5"/>
</g>
<!-- 2675056073744&#45;&gt;2675056075088 -->
<g id="edge40" class="edge">
<title>2675056073744&#45;&gt;2675056075088</title>
<path fill="none" stroke="black" d="M718.89,-36.49C723.68,-38.98 728.25,-41.8 732.5,-45 760.09,-65.76 777.39,-102.65 786.49,-127.47"/>
<polygon fill="black" stroke="black" points="783.15,-128.5 789.72,-136.8 789.76,-126.21 783.15,-128.5"/>
</g>
<!-- 2675056074416&#45;&gt;2675056075088 -->
<g id="edge41" class="edge">
<title>2675056074416&#45;&gt;2675056075088</title>
<path fill="none" stroke="black" d="M698.46,-220.41C710.2,-216.88 721.93,-212.48 732.5,-207 749.26,-198.31 765.26,-184.18 776.8,-172.55"/>
<polygon fill="black" stroke="black" points="779.28,-175.03 783.65,-165.38 774.21,-170.19 779.28,-175.03"/>
</g>
<!-- 2675056074800&#45;&gt;2675056070240 -->
<g id="edge42" class="edge">
<title>2675056074800&#45;&gt;2675056070240</title>
<path fill="none" stroke="black" d="M662.77,-773.43C685.84,-771.03 713.8,-764.32 732.5,-747 778.06,-704.8 790.2,-628.63 793.4,-587.04"/>
<polygon fill="black" stroke="black" points="796.89,-587.26 794.02,-577.06 789.91,-586.83 796.89,-587.26"/>
</g>
<!-- 2675056075232&#45;&gt;2675056070240 -->
<g id="edge43" class="edge">
<title>2675056075232&#45;&gt;2675056070240</title>
<path fill="none" stroke="black" d="M704.31,-593.56C713.88,-590.92 723.45,-588.05 732.5,-585 744.76,-580.86 757.96,-575.28 769.02,-570.26"/>
<polygon fill="black" stroke="black" points="770.28,-573.54 777.87,-566.15 767.33,-567.19 770.28,-573.54"/>
</g>
<!-- 2675056075568&#45;&gt;2675056075088 -->
<g id="edge44" class="edge">
<title>2675056075568&#45;&gt;2675056075088</title>
<path fill="none" stroke="black" d="M732.85,-162.67C743.17,-161.05 752.98,-159.51 761.62,-158.16"/>
<polygon fill="black" stroke="black" points="762.15,-161.62 771.48,-156.61 761.06,-154.7 762.15,-161.62"/>
</g>
<!-- 2675056075904&#45;&gt;2675056073216 -->
<g id="edge45" class="edge">
<title>2675056075904&#45;&gt;2675056073216</title>
<path fill="none" stroke="black" d="M698.37,-330.08C720.58,-326.6 743.69,-322.97 761.68,-320.15"/>
<polygon fill="black" stroke="black" points="762.15,-323.62 771.48,-318.61 761.06,-316.7 762.15,-323.62"/>
</g>
<!-- 2675056076576&#45;&gt;2675056070240 -->
<g id="edge46" class="edge">
<title>2675056076576&#45;&gt;2675056070240</title>
<path fill="none" stroke="black" d="M720.03,-701.52C724.44,-699.02 728.63,-696.2 732.5,-693 765.85,-665.45 782.12,-616.05 789.37,-585.25"/>
<polygon fill="black" stroke="black" points="792.77,-586.06 791.47,-575.55 785.93,-584.58 792.77,-586.06"/>
</g>
<!-- 2675056076912&#45;&gt;2675056075088 -->
<g id="edge47" class="edge">
<title>2675056076912&#45;&gt;2675056075088</title>
<path fill="none" stroke="black" d="M662.73,-132.33C692.81,-137.05 733.39,-143.41 761.54,-147.83"/>
<polygon fill="black" stroke="black" points="760.85,-151.26 771.27,-149.36 761.94,-144.35 760.85,-151.26"/>
</g>
<!-- 2675056077584&#45;&gt;2675056070240 -->
<g id="edge48" class="edge">
<title>2675056077584&#45;&gt;2675056070240</title>
<path fill="none" stroke="black" d="M720.03,-414.48C724.44,-416.98 728.63,-419.8 732.5,-423 765.85,-450.55 782.12,-499.95 789.37,-530.75"/>
<polygon fill="black" stroke="black" points="785.93,-531.42 791.47,-540.45 792.77,-529.94 785.93,-531.42"/>
</g>
<!-- 2675056077920&#45;&gt;2675056070240 -->
<g id="edge49" class="edge">
<title>2675056077920&#45;&gt;2675056070240</title>
<path fill="none" stroke="black" d="M704.31,-522.44C713.88,-525.08 723.45,-527.95 732.5,-531 744.76,-535.14 757.96,-540.72 769.02,-545.74"/>
<polygon fill="black" stroke="black" points="767.33,-548.81 777.87,-549.85 770.28,-542.46 767.33,-548.81"/>
</g>
<!-- 2675056639584 -->
<g id="node39" class="node">
<title>2675056639584</title>
<polygon fill="none" stroke="black" points="885.5,-333 858.5,-315 885.5,-297 912.5,-315 885.5,-333"/>
<text text-anchor="middle" x="885.5" y="-309.98" font-family="Times New Roman,serif" font-size="12.00">X</text>
</g>
<!-- 2675056070240&#45;&gt;2675056639584 -->
<g id="edge50" class="edge">
<title>2675056070240&#45;&gt;2675056639584</title>
<path fill="none" stroke="black" d="M801.61,-543.88C816.04,-504.04 857.22,-390.32 875.54,-339.76"/>
<polygon fill="black" stroke="black" points="878.74,-341.17 878.86,-330.58 872.16,-338.79 878.74,-341.17"/>
</g>
<!-- 2675056073216&#45;&gt;2675056639584 -->
<g id="edge51" class="edge">
<title>2675056073216&#45;&gt;2675056639584</title>
<path fill="none" stroke="black" d="M823.38,-315C830.63,-315 838.62,-315 846.35,-315"/>
<polygon fill="black" stroke="black" points="846.27,-318.5 856.27,-315 846.27,-311.5 846.27,-318.5"/>
</g>
<!-- 2675056075088&#45;&gt;2675056639584 -->
<g id="edge52" class="edge">
<title>2675056075088&#45;&gt;2675056639584</title>
<path fill="none" stroke="black" d="M803.55,-165.98C818.42,-193.35 853.15,-257.29 871.93,-291.85"/>
<polygon fill="black" stroke="black" points="868.84,-293.51 876.69,-300.62 874.99,-290.17 868.84,-293.51"/>
</g>
<!-- 2675056776288 -->
<g id="node40" class="node">
<title>2675056776288</title>
<ellipse fill="orange" stroke="black" cx="966.5" cy="-315" rx="18" ry="18"/>
</g>
<!-- 2675056639584&#45;&gt;2675056776288 -->
<g id="edge53" class="edge">
<title>2675056639584&#45;&gt;2675056776288</title>
<path fill="none" stroke="black" d="M913.25,-315C920.88,-315 929.23,-315 936.97,-315"/>
<polygon fill="black" stroke="black" points="936.93,-318.5 946.93,-315 936.93,-311.5 936.93,-318.5"/>
</g>
</g>
</svg>
