<?xml version="1.0" encoding="UTF-8" standalone="no"?>
<!DOCTYPE svg PUBLIC "-//W3C//DTD SVG 1.1//EN"
 "http://www.w3.org/Graphics/SVG/1.1/DTD/svg11.dtd">
<!-- Generated by graphviz version 11.0.0 (20240428.1522)
 -->
<!-- Pages: 1 -->
<svg width="1758pt" height="98pt"
 viewBox="0.00 0.00 1758.00 98.00" xmlns="http://www.w3.org/2000/svg" xmlns:xlink="http://www.w3.org/1999/xlink">
<g id="graph0" class="graph" transform="scale(1 1) rotate(0) translate(4 94)">
<polygon fill="white" stroke="none" points="-4,4 -4,-94 1754,-94 1754,4 -4,4"/>
<!-- 2675056628592 -->
<g id="node1" class="node">
<title>2675056628592</title>
<ellipse fill="green" stroke="black" cx="18" cy="-45" rx="18" ry="18"/>
</g>
<!-- 2675056625424 -->
<g id="node2" class="node">
<title>2675056625424</title>
<polygon fill="none" stroke="black" points="208.75,-63 72,-63 72,-27 208.75,-27 208.75,-63"/>
<text text-anchor="middle" x="140.38" y="-39.98" font-family="Times New Roman,serif" font-size="12.00">Receive customer inquiry</text>
</g>
<!-- 2675056628592&#45;&gt;2675056625424 -->
<g id="edge1" class="edge">
<title>2675056628592&#45;&gt;2675056625424</title>
<path fill="none" stroke="black" d="M36.25,-45C43.09,-45 51.47,-45 60.48,-45"/>
<polygon fill="black" stroke="black" points="60.19,-48.5 70.19,-45 60.19,-41.5 60.19,-48.5"/>
</g>
<!-- 2675056426640 -->
<g id="node3" class="node">
<title>2675056426640</title>
<polygon fill="none" stroke="black" points="271.75,-63 244.75,-45 271.75,-27 298.75,-45 271.75,-63"/>
<text text-anchor="middle" x="271.75" y="-39.98" font-family="Times New Roman,serif" font-size="12.00">X</text>
</g>
<!-- 2675056625424&#45;&gt;2675056426640 -->
<g id="edge2" class="edge">
<title>2675056625424&#45;&gt;2675056426640</title>
<path fill="none" stroke="black" d="M209.09,-45C217.1,-45 225.05,-45 232.44,-45"/>
<polygon fill="black" stroke="black" points="232.38,-48.5 242.38,-45 232.38,-41.5 232.38,-48.5"/>
</g>
<!-- 2675056426880 -->
<g id="node4" class="node">
<title>2675056426880</title>
<polygon fill="none" stroke="black" points="1229.25,-63 1202.25,-45 1229.25,-27 1256.25,-45 1229.25,-63"/>
<text text-anchor="middle" x="1229.25" y="-39.98" font-family="Times New Roman,serif" font-size="12.00">X</text>
</g>
<!-- 2675056426640&#45;&gt;2675056426880 -->
<g id="edge4" class="edge">
<title>2675056426640&#45;&gt;2675056426880</title>
<path fill="none" stroke="black" d="M295.53,-47.55C351.09,-53.54 498,-68 621,-68 621,-68 621,-68 868,-68 988.11,-68 1130.28,-55.11 1194.17,-48.63"/>
<polygon fill="black" stroke="black" points="1194.43,-52.12 1204.02,-47.62 1193.71,-45.16 1194.43,-52.12"/>
</g>
<!-- 2675056625808 -->
<g id="node5" class="node">
<title>2675056625808</title>
<polygon fill="none" stroke="black" points="523.25,-40 334.75,-40 334.75,-4 523.25,-4 523.25,-40"/>
<text text-anchor="middle" x="429" y="-16.98" font-family="Times New Roman,serif" font-size="12.00">Send order confirmation to customer</text>
</g>
<!-- 2675056426640&#45;&gt;2675056625808 -->
<g id="edge3" class="edge">
<title>2675056426640&#45;&gt;2675056625808</title>
<path fill="none" stroke="black" d="M294.66,-41.75C302.79,-40.55 312.64,-39.09 323.26,-37.52"/>
<polygon fill="black" stroke="black" points="323.7,-40.99 333.08,-36.06 322.67,-34.07 323.7,-40.99"/>
</g>
<!-- 2675056625472 -->
<g id="node6" class="node">
<title>2675056625472</title>
<polygon fill="none" stroke="black" points="1319.25,-63 1292.25,-45 1319.25,-27 1346.25,-45 1319.25,-63"/>
<text text-anchor="middle" x="1319.25" y="-39.98" font-family="Times New Roman,serif" font-size="12.00">+</text>
</g>
<!-- 2675056426880&#45;&gt;2675056625472 -->
<g id="edge5" class="edge">
<title>2675056426880&#45;&gt;2675056625472</title>
<path fill="none" stroke="black" d="M1257.13,-45C1264.38,-45 1272.37,-45 1280.1,-45"/>
<polygon fill="black" stroke="black" points="1280.02,-48.5 1290.02,-45 1280.02,-41.5 1280.02,-48.5"/>
</g>
<!-- 2675056626144 -->
<g id="node7" class="node">
<title>2675056626144</title>
<polygon fill="none" stroke="black" points="684.75,-40 559.25,-40 559.25,-4 684.75,-4 684.75,-40"/>
<text text-anchor="middle" x="622" y="-16.98" font-family="Times New Roman,serif" font-size="12.00">Record order in system</text>
</g>
<!-- 2675056625808&#45;&gt;2675056626144 -->
<g id="edge6" class="edge">
<title>2675056625808&#45;&gt;2675056626144</title>
<path fill="none" stroke="black" d="M523.54,-22C531.61,-22 539.69,-22 547.56,-22"/>
<polygon fill="black" stroke="black" points="547.4,-25.5 557.4,-22 547.4,-18.5 547.4,-25.5"/>
</g>
<!-- 2675056623984 -->
<g id="node8" class="node">
<title>2675056623984</title>
<polygon fill="none" stroke="black" points="1588,-90 1382.25,-90 1382.25,-54 1588,-54 1588,-90"/>
<text text-anchor="middle" x="1485.12" y="-66.97" font-family="Times New Roman,serif" font-size="12.00">Address customer concerns or questions</text>
</g>
<!-- 2675056625472&#45;&gt;2675056623984 -->
<g id="edge7" class="edge">
<title>2675056625472&#45;&gt;2675056623984</title>
<path fill="none" stroke="black" d="M1341.67,-48.53C1349.87,-49.88 1359.9,-51.53 1370.8,-53.33"/>
<polygon fill="black" stroke="black" points="1370.02,-56.75 1380.46,-54.92 1371.16,-49.84 1370.02,-56.75"/>
</g>
<!-- 2675056624320 -->
<g id="node9" class="node">
<title>2675056624320</title>
<polygon fill="none" stroke="black" points="1561.75,-36 1408.5,-36 1408.5,0 1561.75,0 1561.75,-36"/>
<text text-anchor="middle" x="1485.12" y="-12.97" font-family="Times New Roman,serif" font-size="12.00">Collect customer information</text>
</g>
<!-- 2675056625472&#45;&gt;2675056624320 -->
<g id="edge8" class="edge">
<title>2675056625472&#45;&gt;2675056624320</title>
<path fill="none" stroke="black" d="M1341.67,-41.47C1356.16,-39.08 1376.35,-35.76 1396.98,-32.36"/>
<polygon fill="black" stroke="black" points="1397.33,-35.85 1406.63,-30.77 1396.19,-28.94 1397.33,-35.85"/>
</g>
<!-- 2675056624656 -->
<g id="node10" class="node">
<title>2675056624656</title>
<polygon fill="none" stroke="black" points="790,-40 720.75,-40 720.75,-4 790,-4 790,-40"/>
<text text-anchor="middle" x="755.38" y="-16.98" font-family="Times New Roman,serif" font-size="12.00">Place order</text>
</g>
<!-- 2675056626144&#45;&gt;2675056624656 -->
<g id="edge9" class="edge">
<title>2675056626144&#45;&gt;2675056624656</title>
<path fill="none" stroke="black" d="M685.22,-22C693.24,-22 701.32,-22 709,-22"/>
<polygon fill="black" stroke="black" points="708.76,-25.5 718.76,-22 708.76,-18.5 708.76,-25.5"/>
</g>
<!-- 2675056624704 -->
<g id="node12" class="node">
<title>2675056624704</title>
<polygon fill="none" stroke="black" points="1651,-63 1624,-45 1651,-27 1678,-45 1651,-63"/>
<text text-anchor="middle" x="1651" y="-39.98" font-family="Times New Roman,serif" font-size="12.00">+</text>
</g>
<!-- 2675056623984&#45;&gt;2675056624704 -->
<g id="edge10" class="edge">
<title>2675056623984&#45;&gt;2675056624704</title>
<path fill="none" stroke="black" d="M1588.05,-55.21C1598.52,-53.48 1608.52,-51.83 1617.33,-50.38"/>
<polygon fill="black" stroke="black" points="1617.72,-53.87 1627.02,-48.79 1616.58,-46.96 1617.72,-53.87"/>
</g>
<!-- 2675056624320&#45;&gt;2675056624704 -->
<g id="edge11" class="edge">
<title>2675056624320&#45;&gt;2675056624704</title>
<path fill="none" stroke="black" d="M1561.83,-30.47C1581.53,-33.72 1601.72,-37.05 1617.8,-39.69"/>
<polygon fill="black" stroke="black" points="1616.79,-43.07 1627.22,-41.25 1617.92,-36.17 1616.79,-43.07"/>
</g>
<!-- 2675056426544 -->
<g id="node11" class="node">
<title>2675056426544</title>
<polygon fill="none" stroke="black" points="908,-40 826,-40 826,-4 908,-4 908,-40"/>
<text text-anchor="middle" x="867" y="-16.98" font-family="Times New Roman,serif" font-size="12.00">Provide quote</text>
</g>
<!-- 2675056624656&#45;&gt;2675056426544 -->
<g id="edge12" class="edge">
<title>2675056624656&#45;&gt;2675056426544</title>
<path fill="none" stroke="black" d="M790.46,-22C798.06,-22 806.29,-22 814.43,-22"/>
<polygon fill="black" stroke="black" points="814.27,-25.5 824.27,-22 814.27,-18.5 814.27,-25.5"/>
</g>
<!-- 2675056625040 -->
<g id="node13" class="node">
<title>2675056625040</title>
<polygon fill="none" stroke="black" points="1166.25,-40 944,-40 944,-4 1166.25,-4 1166.25,-40"/>
<text text-anchor="middle" x="1055.12" y="-16.98" font-family="Times New Roman,serif" font-size="12.00">Guide customer in selecting product/service</text>
</g>
<!-- 2675056426544&#45;&gt;2675056625040 -->
<g id="edge13" class="edge">
<title>2675056426544&#45;&gt;2675056625040</title>
<path fill="none" stroke="black" d="M908.39,-22C915.82,-22 923.92,-22 932.38,-22"/>
<polygon fill="black" stroke="black" points="932.15,-25.5 942.15,-22 932.15,-18.5 932.15,-25.5"/>
</g>
<!-- 2675056628688 -->
<g id="node14" class="node">
<title>2675056628688</title>
<ellipse fill="orange" stroke="black" cx="1732" cy="-45" rx="18" ry="18"/>
</g>
<!-- 2675056624704&#45;&gt;2675056628688 -->
<g id="edge14" class="edge">
<title>2675056624704&#45;&gt;2675056628688</title>
<path fill="none" stroke="black" d="M1678.75,-45C1686.38,-45 1694.73,-45 1702.47,-45"/>
<polygon fill="black" stroke="black" points="1702.43,-48.5 1712.43,-45 1702.43,-41.5 1702.43,-48.5"/>
</g>
<!-- 2675056625040&#45;&gt;2675056426880 -->
<g id="edge15" class="edge">
<title>2675056625040&#45;&gt;2675056426880</title>
<path fill="none" stroke="black" d="M1166.6,-36.76C1176.65,-38.11 1186.22,-39.38 1194.7,-40.52"/>
<polygon fill="black" stroke="black" points="1194,-43.95 1204.38,-41.81 1194.93,-37.02 1194,-43.95"/>
</g>
</g>
</svg>
