<?xml version="1.0" encoding="UTF-8" standalone="no"?>
<!DOCTYPE svg PUBLIC "-//W3C//DTD SVG 1.1//EN"
 "http://www.w3.org/Graphics/SVG/1.1/DTD/svg11.dtd">
<!-- Generated by graphviz version 11.0.0 (20240428.1522)
 -->
<!-- Pages: 1 -->
<svg width="1829pt" height="126pt"
 viewBox="0.00 0.00 1829.25 126.00" xmlns="http://www.w3.org/2000/svg" xmlns:xlink="http://www.w3.org/1999/xlink">
<g id="graph0" class="graph" transform="scale(1 1) rotate(0) translate(4 122)">
<polygon fill="white" stroke="none" points="-4,4 -4,-122 1825.25,-122 1825.25,4 -4,4"/>
<!-- 2675036837344 -->
<g id="node1" class="node">
<title>2675036837344</title>
<ellipse fill="green" stroke="black" cx="18" cy="-95" rx="18" ry="18"/>
</g>
<!-- 2675056413536 -->
<g id="node2" class="node">
<title>2675056413536</title>
<polygon fill="none" stroke="black" points="225.25,-113 72,-113 72,-77 225.25,-77 225.25,-113"/>
<text text-anchor="middle" x="148.62" y="-89.97" font-family="Times New Roman,serif" font-size="12.00">Collect customer information</text>
</g>
<!-- 2675036837344&#45;&gt;2675056413536 -->
<g id="edge1" class="edge">
<title>2675036837344&#45;&gt;2675056413536</title>
<path fill="none" stroke="black" d="M36.35,-95C43.12,-95 51.43,-95 60.42,-95"/>
<polygon fill="black" stroke="black" points="60.16,-98.5 70.16,-95 60.16,-91.5 60.16,-98.5"/>
</g>
<!-- 2675056411040 -->
<g id="node3" class="node">
<title>2675056411040</title>
<polygon fill="none" stroke="black" points="398,-113 261.25,-113 261.25,-77 398,-77 398,-113"/>
<text text-anchor="middle" x="329.62" y="-89.97" font-family="Times New Roman,serif" font-size="12.00">Receive customer inquiry</text>
</g>
<!-- 2675056413536&#45;&gt;2675056411040 -->
<g id="edge2" class="edge">
<title>2675056413536&#45;&gt;2675056411040</title>
<path fill="none" stroke="black" d="M225.54,-95C233.41,-95 241.43,-95 249.34,-95"/>
<polygon fill="black" stroke="black" points="249.31,-98.5 259.31,-95 249.31,-91.5 249.31,-98.5"/>
</g>
<!-- 2675036713376 -->
<g id="node4" class="node">
<title>2675036713376</title>
<polygon fill="none" stroke="black" points="503.25,-113 434,-113 434,-77 503.25,-77 503.25,-113"/>
<text text-anchor="middle" x="468.62" y="-89.97" font-family="Times New Roman,serif" font-size="12.00">Place order</text>
</g>
<!-- 2675056411040&#45;&gt;2675036713376 -->
<g id="edge3" class="edge">
<title>2675056411040&#45;&gt;2675036713376</title>
<path fill="none" stroke="black" d="M398.32,-95C406.47,-95 414.63,-95 422.35,-95"/>
<polygon fill="black" stroke="black" points="422.14,-98.5 432.14,-95 422.14,-91.5 422.14,-98.5"/>
</g>
<!-- 2675056423760 -->
<g id="node5" class="node">
<title>2675056423760</title>
<polygon fill="none" stroke="black" points="566.25,-113 539.25,-95 566.25,-77 593.25,-95 566.25,-113"/>
<text text-anchor="middle" x="566.25" y="-89.97" font-family="Times New Roman,serif" font-size="12.00">X</text>
</g>
<!-- 2675036713376&#45;&gt;2675056423760 -->
<g id="edge4" class="edge">
<title>2675036713376&#45;&gt;2675056423760</title>
<path fill="none" stroke="black" d="M503.61,-95C511.24,-95 519.38,-95 527.16,-95"/>
<polygon fill="black" stroke="black" points="527.07,-98.5 537.07,-95 527.07,-91.5 527.07,-98.5"/>
</g>
<!-- 2675056423568 -->
<g id="node6" class="node">
<title>2675056423568</title>
<polygon fill="none" stroke="black" points="1722.25,-113 1695.25,-95 1722.25,-77 1749.25,-95 1722.25,-113"/>
<text text-anchor="middle" x="1722.25" y="-89.97" font-family="Times New Roman,serif" font-size="12.00">X</text>
</g>
<!-- 2675056423760&#45;&gt;2675056423568 -->
<g id="edge5" class="edge">
<title>2675056423760&#45;&gt;2675056423568</title>
<path fill="none" stroke="black" d="M590.42,-97.33C650.6,-103.18 816.82,-118 955.62,-118 955.62,-118 955.62,-118 1471.75,-118 1549.75,-118 1640.88,-106.72 1688.49,-99.96"/>
<polygon fill="black" stroke="black" points="1688.73,-103.46 1698.12,-98.56 1687.72,-96.53 1688.73,-103.46"/>
</g>
<!-- 2675056417520 -->
<g id="node7" class="node">
<title>2675056417520</title>
<polygon fill="none" stroke="black" points="817.75,-90 629.25,-90 629.25,-54 817.75,-54 817.75,-90"/>
<text text-anchor="middle" x="723.5" y="-66.97" font-family="Times New Roman,serif" font-size="12.00">Send order confirmation to customer</text>
</g>
<!-- 2675056423760&#45;&gt;2675056417520 -->
<g id="edge6" class="edge">
<title>2675056423760&#45;&gt;2675056417520</title>
<path fill="none" stroke="black" d="M589.16,-91.75C597.29,-90.55 607.14,-89.09 617.76,-87.52"/>
<polygon fill="black" stroke="black" points="618.2,-90.99 627.58,-86.06 617.17,-84.07 618.2,-90.99"/>
</g>
<!-- 2675036836816 -->
<g id="node14" class="node">
<title>2675036836816</title>
<ellipse fill="orange" stroke="black" cx="1803.25" cy="-95" rx="18" ry="18"/>
</g>
<!-- 2675056423568&#45;&gt;2675036836816 -->
<g id="edge8" class="edge">
<title>2675056423568&#45;&gt;2675036836816</title>
<path fill="none" stroke="black" d="M1750,-95C1757.63,-95 1765.98,-95 1773.72,-95"/>
<polygon fill="black" stroke="black" points="1773.68,-98.5 1783.68,-95 1773.68,-91.5 1773.68,-98.5"/>
</g>
<!-- 2675056415216 -->
<g id="node8" class="node">
<title>2675056415216</title>
<polygon fill="none" stroke="black" points="1059.5,-90 853.75,-90 853.75,-54 1059.5,-54 1059.5,-90"/>
<text text-anchor="middle" x="956.62" y="-66.97" font-family="Times New Roman,serif" font-size="12.00">Address customer concerns or questions</text>
</g>
<!-- 2675056417520&#45;&gt;2675056415216 -->
<g id="edge7" class="edge">
<title>2675056417520&#45;&gt;2675056415216</title>
<path fill="none" stroke="black" d="M818.17,-72C826.08,-72 834.14,-72 842.17,-72"/>
<polygon fill="black" stroke="black" points="842,-75.5 852,-72 842,-68.5 842,-75.5"/>
</g>
<!-- 2675056424096 -->
<g id="node9" class="node">
<title>2675056424096</title>
<polygon fill="none" stroke="black" points="1122.5,-90 1095.5,-72 1122.5,-54 1149.5,-72 1122.5,-90"/>
<text text-anchor="middle" x="1122.5" y="-66.97" font-family="Times New Roman,serif" font-size="12.00">+</text>
</g>
<!-- 2675056415216&#45;&gt;2675056424096 -->
<g id="edge9" class="edge">
<title>2675056415216&#45;&gt;2675056424096</title>
<path fill="none" stroke="black" d="M1059.55,-72C1067.9,-72 1075.96,-72 1083.35,-72"/>
<polygon fill="black" stroke="black" points="1083.2,-75.5 1093.2,-72 1083.2,-68.5 1083.2,-75.5"/>
</g>
<!-- 2675035727600 -->
<g id="node10" class="node">
<title>2675035727600</title>
<polygon fill="none" stroke="black" points="1407.75,-90 1185.5,-90 1185.5,-54 1407.75,-54 1407.75,-90"/>
<text text-anchor="middle" x="1296.62" y="-66.97" font-family="Times New Roman,serif" font-size="12.00">Guide customer in selecting product/service</text>
</g>
<!-- 2675056424096&#45;&gt;2675035727600 -->
<g id="edge11" class="edge">
<title>2675056424096&#45;&gt;2675035727600</title>
<path fill="none" stroke="black" d="M1150.39,-72C1157.3,-72 1165.18,-72 1173.64,-72"/>
<polygon fill="black" stroke="black" points="1173.52,-75.5 1183.52,-72 1173.52,-68.5 1173.52,-75.5"/>
</g>
<!-- 2675036711552 -->
<g id="node11" class="node">
<title>2675036711552</title>
<polygon fill="none" stroke="black" points="1337.62,-36 1255.62,-36 1255.62,0 1337.62,0 1337.62,-36"/>
<text text-anchor="middle" x="1296.62" y="-12.97" font-family="Times New Roman,serif" font-size="12.00">Provide quote</text>
</g>
<!-- 2675056424096&#45;&gt;2675036711552 -->
<g id="edge10" class="edge">
<title>2675056424096&#45;&gt;2675036711552</title>
<path fill="none" stroke="black" d="M1138.76,-64.49C1151.13,-58.6 1169.15,-50.52 1185.5,-45 1204.35,-38.63 1225.49,-33.09 1244.17,-28.7"/>
<polygon fill="black" stroke="black" points="1244.69,-32.17 1253.66,-26.53 1243.13,-25.35 1244.69,-32.17"/>
</g>
<!-- 2675036711648 -->
<g id="node12" class="node">
<title>2675036711648</title>
<polygon fill="none" stroke="black" points="1470.75,-90 1443.75,-72 1470.75,-54 1497.75,-72 1470.75,-90"/>
<text text-anchor="middle" x="1470.75" y="-66.97" font-family="Times New Roman,serif" font-size="12.00">+</text>
</g>
<!-- 2675035727600&#45;&gt;2675036711648 -->
<g id="edge12" class="edge">
<title>2675035727600&#45;&gt;2675036711648</title>
<path fill="none" stroke="black" d="M1408.1,-72C1416.32,-72 1424.21,-72 1431.45,-72"/>
<polygon fill="black" stroke="black" points="1431.43,-75.5 1441.43,-72 1431.43,-68.5 1431.43,-75.5"/>
</g>
<!-- 2675036711552&#45;&gt;2675036711648 -->
<g id="edge13" class="edge">
<title>2675036711552&#45;&gt;2675036711648</title>
<path fill="none" stroke="black" d="M1338.11,-26.19C1359.13,-30.88 1385.09,-37.35 1407.75,-45 1420.01,-49.14 1433.21,-54.72 1444.27,-59.74"/>
<polygon fill="black" stroke="black" points="1442.58,-62.81 1453.12,-63.85 1445.53,-56.46 1442.58,-62.81"/>
</g>
<!-- 2675036716112 -->
<g id="node13" class="node">
<title>2675036716112</title>
<polygon fill="none" stroke="black" points="1659.25,-90 1533.75,-90 1533.75,-54 1659.25,-54 1659.25,-90"/>
<text text-anchor="middle" x="1596.5" y="-66.97" font-family="Times New Roman,serif" font-size="12.00">Record order in system</text>
</g>
<!-- 2675036711648&#45;&gt;2675036716112 -->
<g id="edge14" class="edge">
<title>2675036711648&#45;&gt;2675036716112</title>
<path fill="none" stroke="black" d="M1498.6,-72C1505.69,-72 1513.69,-72 1521.98,-72"/>
<polygon fill="black" stroke="black" points="1521.89,-75.5 1531.89,-72 1521.89,-68.5 1521.89,-75.5"/>
</g>
<!-- 2675036716112&#45;&gt;2675056423568 -->
<g id="edge15" class="edge">
<title>2675036716112&#45;&gt;2675056423568</title>
<path fill="none" stroke="black" d="M1659.74,-83.57C1669.95,-85.47 1680.15,-87.36 1689.22,-89.05"/>
<polygon fill="black" stroke="black" points="1688.44,-92.46 1698.92,-90.85 1689.72,-85.58 1688.44,-92.46"/>
</g>
</g>
</svg>
