<?xml version="1.0" encoding="UTF-8" standalone="no"?>
<!DOCTYPE svg PUBLIC "-//W3C//DTD SVG 1.1//EN"
 "http://www.w3.org/Graphics/SVG/1.1/DTD/svg11.dtd">
<!-- Generated by graphviz version 11.0.0 (20240428.1522)
 -->
<!-- Pages: 1 -->
<svg width="1495pt" height="152pt"
 viewBox="0.00 0.00 1495.00 152.00" xmlns="http://www.w3.org/2000/svg" xmlns:xlink="http://www.w3.org/1999/xlink">
<g id="graph0" class="graph" transform="scale(1 1) rotate(0) translate(4 148)">
<polygon fill="white" stroke="none" points="-4,4 -4,-148 1491,-148 1491,4 -4,4"/>
<!-- 2675056630848 -->
<g id="node1" class="node">
<title>2675056630848</title>
<ellipse fill="green" stroke="black" cx="18" cy="-72" rx="18" ry="18"/>
</g>
<!-- 2675056772160 -->
<g id="node2" class="node">
<title>2675056772160</title>
<polygon fill="none" stroke="black" points="99,-90 72,-72 99,-54 126,-72 99,-90"/>
<text text-anchor="middle" x="99" y="-66.97" font-family="Times New Roman,serif" font-size="12.00">+</text>
</g>
<!-- 2675056630848&#45;&gt;2675056772160 -->
<g id="edge1" class="edge">
<title>2675056630848&#45;&gt;2675056772160</title>
<path fill="none" stroke="black" d="M36.14,-72C43.11,-72 51.47,-72 59.75,-72"/>
<polygon fill="black" stroke="black" points="59.75,-75.5 69.75,-72 59.75,-68.5 59.75,-75.5"/>
</g>
<!-- 2675056775184 -->
<g id="node3" class="node">
<title>2675056775184</title>
<polygon fill="none" stroke="black" points="307,-117 170.25,-117 170.25,-81 307,-81 307,-117"/>
<text text-anchor="middle" x="238.62" y="-93.97" font-family="Times New Roman,serif" font-size="12.00">Receive customer inquiry</text>
</g>
<!-- 2675056772160&#45;&gt;2675056775184 -->
<g id="edge2" class="edge">
<title>2675056772160&#45;&gt;2675056775184</title>
<path fill="none" stroke="black" d="M120.6,-76.04C131.18,-78.12 144.81,-80.79 159.01,-83.58"/>
<polygon fill="black" stroke="black" points="157.96,-86.94 168.45,-85.43 159.31,-80.07 157.96,-86.94"/>
</g>
<!-- 2675054503568 -->
<g id="node4" class="node">
<title>2675054503568</title>
<polygon fill="none" stroke="black" points="315.25,-63 162,-63 162,-27 315.25,-27 315.25,-63"/>
<text text-anchor="middle" x="238.62" y="-39.98" font-family="Times New Roman,serif" font-size="12.00">Collect customer information</text>
</g>
<!-- 2675056772160&#45;&gt;2675054503568 -->
<g id="edge3" class="edge">
<title>2675056772160&#45;&gt;2675054503568</title>
<path fill="none" stroke="black" d="M120.6,-67.96C129.04,-66.3 139.42,-64.27 150.48,-62.1"/>
<polygon fill="black" stroke="black" points="151.09,-65.54 160.23,-60.18 149.75,-58.67 151.09,-65.54"/>
</g>
<!-- 2675056775280 -->
<g id="node5" class="node">
<title>2675056775280</title>
<polygon fill="none" stroke="black" points="378.25,-90 351.25,-72 378.25,-54 405.25,-72 378.25,-90"/>
<text text-anchor="middle" x="378.25" y="-66.97" font-family="Times New Roman,serif" font-size="12.00">+</text>
</g>
<!-- 2675056775184&#45;&gt;2675056775280 -->
<g id="edge4" class="edge">
<title>2675056775184&#45;&gt;2675056775280</title>
<path fill="none" stroke="black" d="M307.23,-85.74C320.55,-83.12 333.93,-80.5 345.37,-78.25"/>
<polygon fill="black" stroke="black" points="345.89,-81.72 355.03,-76.36 344.54,-74.85 345.89,-81.72"/>
</g>
<!-- 2675054503568&#45;&gt;2675056775280 -->
<g id="edge5" class="edge">
<title>2675054503568&#45;&gt;2675056775280</title>
<path fill="none" stroke="black" d="M315.68,-59.92C326.14,-61.97 336.38,-63.98 345.41,-65.75"/>
<polygon fill="black" stroke="black" points="344.52,-69.15 355.01,-67.64 345.87,-62.28 344.52,-69.15"/>
</g>
<!-- 2675056776576 -->
<g id="node6" class="node">
<title>2675056776576</title>
<polygon fill="none" stroke="black" points="510.5,-90 441.25,-90 441.25,-54 510.5,-54 510.5,-90"/>
<text text-anchor="middle" x="475.88" y="-66.97" font-family="Times New Roman,serif" font-size="12.00">Place order</text>
</g>
<!-- 2675056775280&#45;&gt;2675056776576 -->
<g id="edge6" class="edge">
<title>2675056775280&#45;&gt;2675056776576</title>
<path fill="none" stroke="black" d="M406.14,-72C413.5,-72 421.68,-72 429.76,-72"/>
<polygon fill="black" stroke="black" points="429.51,-75.5 439.51,-72 429.51,-68.5 429.51,-75.5"/>
</g>
<!-- 2675054510048 -->
<g id="node7" class="node">
<title>2675054510048</title>
<polygon fill="none" stroke="black" points="735,-90 546.5,-90 546.5,-54 735,-54 735,-90"/>
<text text-anchor="middle" x="640.75" y="-66.97" font-family="Times New Roman,serif" font-size="12.00">Send order confirmation to customer</text>
</g>
<!-- 2675056776576&#45;&gt;2675054510048 -->
<g id="edge7" class="edge">
<title>2675056776576&#45;&gt;2675054510048</title>
<path fill="none" stroke="black" d="M510.62,-72C518.01,-72 526.2,-72 534.78,-72"/>
<polygon fill="black" stroke="black" points="534.72,-75.5 544.72,-72 534.72,-68.5 534.72,-75.5"/>
</g>
<!-- 2675056771680 -->
<g id="node8" class="node">
<title>2675056771680</title>
<polygon fill="none" stroke="black" points="976.75,-90 771,-90 771,-54 976.75,-54 976.75,-90"/>
<text text-anchor="middle" x="873.88" y="-66.97" font-family="Times New Roman,serif" font-size="12.00">Address customer concerns or questions</text>
</g>
<!-- 2675054510048&#45;&gt;2675056771680 -->
<g id="edge8" class="edge">
<title>2675054510048&#45;&gt;2675056771680</title>
<path fill="none" stroke="black" d="M735.42,-72C743.33,-72 751.39,-72 759.42,-72"/>
<polygon fill="black" stroke="black" points="759.25,-75.5 769.25,-72 759.25,-68.5 759.25,-75.5"/>
</g>
<!-- 2675056775136 -->
<g id="node9" class="node">
<title>2675056775136</title>
<polygon fill="none" stroke="black" points="1039.75,-90 1012.75,-72 1039.75,-54 1066.75,-72 1039.75,-90"/>
<text text-anchor="middle" x="1039.75" y="-66.97" font-family="Times New Roman,serif" font-size="12.00">+</text>
</g>
<!-- 2675056771680&#45;&gt;2675056775136 -->
<g id="edge9" class="edge">
<title>2675056771680&#45;&gt;2675056775136</title>
<path fill="none" stroke="black" d="M976.8,-72C985.15,-72 993.21,-72 1000.6,-72"/>
<polygon fill="black" stroke="black" points="1000.45,-75.5 1010.45,-72 1000.45,-68.5 1000.45,-75.5"/>
</g>
<!-- 2675056775664 -->
<g id="node10" class="node">
<title>2675056775664</title>
<polygon fill="none" stroke="black" points="1254.88,-144 1172.88,-144 1172.88,-108 1254.88,-108 1254.88,-144"/>
<text text-anchor="middle" x="1213.88" y="-120.97" font-family="Times New Roman,serif" font-size="12.00">Provide quote</text>
</g>
<!-- 2675056775136&#45;&gt;2675056775664 -->
<g id="edge11" class="edge">
<title>2675056775136&#45;&gt;2675056775664</title>
<path fill="none" stroke="black" d="M1056.01,-79.51C1068.38,-85.4 1086.4,-93.48 1102.75,-99 1121.6,-105.37 1142.74,-110.91 1161.42,-115.3"/>
<polygon fill="black" stroke="black" points="1160.38,-118.65 1170.91,-117.47 1161.94,-111.83 1160.38,-118.65"/>
</g>
<!-- 2675056777008 -->
<g id="node11" class="node">
<title>2675056777008</title>
<polygon fill="none" stroke="black" points="1325,-90 1102.75,-90 1102.75,-54 1325,-54 1325,-90"/>
<text text-anchor="middle" x="1213.88" y="-66.97" font-family="Times New Roman,serif" font-size="12.00">Guide customer in selecting product/service</text>
</g>
<!-- 2675056775136&#45;&gt;2675056777008 -->
<g id="edge10" class="edge">
<title>2675056775136&#45;&gt;2675056777008</title>
<path fill="none" stroke="black" d="M1067.64,-72C1074.55,-72 1082.43,-72 1090.89,-72"/>
<polygon fill="black" stroke="black" points="1090.77,-75.5 1100.77,-72 1090.77,-68.5 1090.77,-75.5"/>
</g>
<!-- 2675054505152 -->
<g id="node12" class="node">
<title>2675054505152</title>
<polygon fill="none" stroke="black" points="1276.62,-36 1151.12,-36 1151.12,0 1276.62,0 1276.62,-36"/>
<text text-anchor="middle" x="1213.88" y="-12.97" font-family="Times New Roman,serif" font-size="12.00">Record order in system</text>
</g>
<!-- 2675056775136&#45;&gt;2675054505152 -->
<g id="edge12" class="edge">
<title>2675056775136&#45;&gt;2675054505152</title>
<path fill="none" stroke="black" d="M1056.01,-64.49C1068.38,-58.6 1086.4,-50.52 1102.75,-45 1114.65,-40.98 1127.46,-37.29 1139.99,-34.01"/>
<polygon fill="black" stroke="black" points="1140.6,-37.47 1149.43,-31.61 1138.87,-30.68 1140.6,-37.47"/>
</g>
<!-- 2675056771200 -->
<g id="node13" class="node">
<title>2675056771200</title>
<polygon fill="none" stroke="black" points="1388,-90 1361,-72 1388,-54 1415,-72 1388,-90"/>
<text text-anchor="middle" x="1388" y="-66.97" font-family="Times New Roman,serif" font-size="12.00">+</text>
</g>
<!-- 2675056775664&#45;&gt;2675056771200 -->
<g id="edge13" class="edge">
<title>2675056775664&#45;&gt;2675056771200</title>
<path fill="none" stroke="black" d="M1255.36,-117.81C1276.38,-113.12 1302.34,-106.65 1325,-99 1337.26,-94.86 1350.46,-89.28 1361.52,-84.26"/>
<polygon fill="black" stroke="black" points="1362.78,-87.54 1370.37,-80.15 1359.83,-81.19 1362.78,-87.54"/>
</g>
<!-- 2675056777008&#45;&gt;2675056771200 -->
<g id="edge14" class="edge">
<title>2675056777008&#45;&gt;2675056771200</title>
<path fill="none" stroke="black" d="M1325.35,-72C1333.57,-72 1341.46,-72 1348.7,-72"/>
<polygon fill="black" stroke="black" points="1348.68,-75.5 1358.68,-72 1348.68,-68.5 1348.68,-75.5"/>
</g>
<!-- 2675054505152&#45;&gt;2675056771200 -->
<g id="edge15" class="edge">
<title>2675054505152&#45;&gt;2675056771200</title>
<path fill="none" stroke="black" d="M1276.86,-31.24C1292.71,-35.15 1309.61,-39.81 1325,-45 1337.26,-49.14 1350.46,-54.72 1361.52,-59.74"/>
<polygon fill="black" stroke="black" points="1359.83,-62.81 1370.37,-63.85 1362.78,-56.46 1359.83,-62.81"/>
</g>
<!-- 2675056636416 -->
<g id="node14" class="node">
<title>2675056636416</title>
<ellipse fill="orange" stroke="black" cx="1469" cy="-72" rx="18" ry="18"/>
</g>
<!-- 2675056771200&#45;&gt;2675056636416 -->
<g id="edge16" class="edge">
<title>2675056771200&#45;&gt;2675056636416</title>
<path fill="none" stroke="black" d="M1415.75,-72C1423.38,-72 1431.73,-72 1439.47,-72"/>
<polygon fill="black" stroke="black" points="1439.43,-75.5 1449.43,-72 1439.43,-68.5 1439.43,-75.5"/>
</g>
</g>
</svg>
