<?xml version="1.0" encoding="UTF-8" standalone="no"?>
<!DOCTYPE svg PUBLIC "-//W3C//DTD SVG 1.1//EN"
 "http://www.w3.org/Graphics/SVG/1.1/DTD/svg11.dtd">
<!-- Generated by graphviz version 11.0.0 (20240428.1522)
 -->
<!-- Pages: 1 -->
<svg width="1756pt" height="98pt"
 viewBox="0.00 0.00 1756.00 98.00" xmlns="http://www.w3.org/2000/svg" xmlns:xlink="http://www.w3.org/1999/xlink">
<g id="graph0" class="graph" transform="scale(1 1) rotate(0) translate(4 94)">
<polygon fill="white" stroke="none" points="-4,4 -4,-94 1752,-94 1752,4 -4,4"/>
<!-- 2547400296112 -->
<g id="node1" class="node">
<title>2547400296112</title>
<ellipse fill="green" stroke="black" cx="18" cy="-45" rx="18" ry="18"/>
</g>
<!-- 2547398192848 -->
<g id="node2" class="node">
<title>2547398192848</title>
<polygon fill="none" stroke="black" points="155.5,-63 72,-63 72,-27 155.5,-27 155.5,-63"/>
<text text-anchor="middle" x="113.75" y="-39.98" font-family="Times New Roman,serif" font-size="12.00">File complaint</text>
</g>
<!-- 2547400296112&#45;&gt;2547398192848 -->
<g id="edge1" class="edge">
<title>2547400296112&#45;&gt;2547398192848</title>
<path fill="none" stroke="black" d="M36.2,-45C43.11,-45 51.48,-45 60.11,-45"/>
<polygon fill="black" stroke="black" points="60.01,-48.5 70.01,-45 60.01,-41.5 60.01,-48.5"/>
</g>
<!-- 2547398189920 -->
<g id="node3" class="node">
<title>2547398189920</title>
<polygon fill="none" stroke="black" points="276.5,-63 191.5,-63 191.5,-27 276.5,-27 276.5,-63"/>
<text text-anchor="middle" x="234" y="-39.98" font-family="Times New Roman,serif" font-size="12.00">Log complaint</text>
</g>
<!-- 2547398192848&#45;&gt;2547398189920 -->
<g id="edge2" class="edge">
<title>2547398192848&#45;&gt;2547398189920</title>
<path fill="none" stroke="black" d="M155.78,-45C163.57,-45 171.84,-45 179.95,-45"/>
<polygon fill="black" stroke="black" points="179.73,-48.5 189.73,-45 179.73,-41.5 179.73,-48.5"/>
</g>
<!-- 2547398188192 -->
<g id="node4" class="node">
<title>2547398188192</title>
<polygon fill="none" stroke="black" points="519,-63 312.5,-63 312.5,-27 519,-27 519,-63"/>
<text text-anchor="middle" x="415.75" y="-39.98" font-family="Times New Roman,serif" font-size="12.00">Assign complaint to relevant department</text>
</g>
<!-- 2547398189920&#45;&gt;2547398188192 -->
<g id="edge3" class="edge">
<title>2547398189920&#45;&gt;2547398188192</title>
<path fill="none" stroke="black" d="M276.69,-45C284.19,-45 292.32,-45 300.77,-45"/>
<polygon fill="black" stroke="black" points="300.5,-48.5 310.5,-45 300.5,-41.5 300.5,-48.5"/>
</g>
<!-- 2547398193712 -->
<g id="node5" class="node">
<title>2547398193712</title>
<polygon fill="none" stroke="black" points="690.25,-63 555,-63 555,-27 690.25,-27 690.25,-63"/>
<text text-anchor="middle" x="622.62" y="-39.98" font-family="Times New Roman,serif" font-size="12.00">Review complaint details</text>
</g>
<!-- 2547398188192&#45;&gt;2547398193712 -->
<g id="edge4" class="edge">
<title>2547398188192&#45;&gt;2547398193712</title>
<path fill="none" stroke="black" d="M519.49,-45C527.54,-45 535.58,-45 543.43,-45"/>
<polygon fill="black" stroke="black" points="543.24,-48.5 553.24,-45 543.24,-41.5 543.24,-48.5"/>
</g>
<!-- 2547370218400 -->
<g id="node6" class="node">
<title>2547370218400</title>
<polygon fill="none" stroke="black" points="753.25,-63 726.25,-45 753.25,-27 780.25,-45 753.25,-63"/>
<text text-anchor="middle" x="753.25" y="-39.98" font-family="Times New Roman,serif" font-size="12.00">X</text>
</g>
<!-- 2547398193712&#45;&gt;2547370218400 -->
<g id="edge5" class="edge">
<title>2547398193712&#45;&gt;2547370218400</title>
<path fill="none" stroke="black" d="M690.57,-45C698.57,-45 706.51,-45 713.9,-45"/>
<polygon fill="black" stroke="black" points="713.85,-48.5 723.85,-45 713.85,-41.5 713.85,-48.5"/>
</g>
<!-- 2547398189248 -->
<g id="node7" class="node">
<title>2547398189248</title>
<polygon fill="none" stroke="black" points="965,-90 822.25,-90 822.25,-54 965,-54 965,-90"/>
<text text-anchor="middle" x="893.62" y="-66.97" font-family="Times New Roman,serif" font-size="12.00">Reject and notify customer</text>
</g>
<!-- 2547370218400&#45;&gt;2547398189248 -->
<g id="edge7" class="edge">
<title>2547370218400&#45;&gt;2547398189248</title>
<path fill="none" stroke="black" d="M774.97,-49.04C784.86,-50.97 797.42,-53.42 810.61,-56"/>
<polygon fill="black" stroke="black" points="809.84,-59.41 820.32,-57.89 811.18,-52.54 809.84,-59.41"/>
</g>
<!-- 2547398189968 -->
<g id="node8" class="node">
<title>2547398189968</title>
<polygon fill="none" stroke="black" points="971,-36 816.25,-36 816.25,0 971,0 971,-36"/>
<text text-anchor="middle" x="893.62" y="-12.97" font-family="Times New Roman,serif" font-size="12.00">Approve and notify customer</text>
</g>
<!-- 2547370218400&#45;&gt;2547398189968 -->
<g id="edge6" class="edge">
<title>2547370218400&#45;&gt;2547398189968</title>
<path fill="none" stroke="black" d="M774.97,-40.96C783.39,-39.31 793.74,-37.29 804.78,-35.14"/>
<polygon fill="black" stroke="black" points="805.37,-38.59 814.51,-33.24 804.03,-31.72 805.37,-38.59"/>
</g>
<!-- 2547398188672 -->
<g id="node9" class="node">
<title>2547398188672</title>
<polygon fill="none" stroke="black" points="1271.5,-90 1167.75,-90 1167.75,-54 1271.5,-54 1271.5,-90"/>
<text text-anchor="middle" x="1219.62" y="-66.97" font-family="Times New Roman,serif" font-size="12.00">Resolve complaint</text>
</g>
<!-- 2547398189248&#45;&gt;2547398188672 -->
<g id="edge8" class="edge">
<title>2547398189248&#45;&gt;2547398188672</title>
<path fill="none" stroke="black" d="M965.33,-72C1022.26,-72 1101.52,-72 1156.15,-72"/>
<polygon fill="black" stroke="black" points="1155.9,-75.5 1165.9,-72 1155.9,-68.5 1155.9,-75.5"/>
</g>
<!-- 2547398191648 -->
<g id="node10" class="node">
<title>2547398191648</title>
<polygon fill="none" stroke="black" points="1131.75,-36 1007,-36 1007,0 1131.75,0 1131.75,-36"/>
<text text-anchor="middle" x="1069.38" y="-12.97" font-family="Times New Roman,serif" font-size="12.00">Process reimbursement</text>
</g>
<!-- 2547398189968&#45;&gt;2547398191648 -->
<g id="edge9" class="edge">
<title>2547398189968&#45;&gt;2547398191648</title>
<path fill="none" stroke="black" d="M971.34,-18C979.28,-18 987.34,-18 995.24,-18"/>
<polygon fill="black" stroke="black" points="995.15,-21.5 1005.15,-18 995.15,-14.5 995.15,-21.5"/>
</g>
<!-- 2547400444000 -->
<g id="node11" class="node">
<title>2547400444000</title>
<polygon fill="none" stroke="black" points="1334.5,-63 1307.5,-45 1334.5,-27 1361.5,-45 1334.5,-63"/>
<text text-anchor="middle" x="1334.5" y="-39.98" font-family="Times New Roman,serif" font-size="12.00">X</text>
</g>
<!-- 2547398188672&#45;&gt;2547400444000 -->
<g id="edge10" class="edge">
<title>2547398188672&#45;&gt;2547400444000</title>
<path fill="none" stroke="black" d="M1271.78,-59.76C1282.39,-57.22 1293.26,-54.62 1302.86,-52.33"/>
<polygon fill="black" stroke="black" points="1303.46,-55.79 1312.37,-50.06 1301.83,-48.98 1303.46,-55.79"/>
</g>
<!-- 2547398187856 -->
<g id="node12" class="node">
<title>2547398187856</title>
<polygon fill="none" stroke="black" points="1271.5,-36 1167.75,-36 1167.75,0 1271.5,0 1271.5,-36"/>
<text text-anchor="middle" x="1219.62" y="-12.97" font-family="Times New Roman,serif" font-size="12.00">Resolve complaint</text>
</g>
<!-- 2547398191648&#45;&gt;2547398187856 -->
<g id="edge11" class="edge">
<title>2547398191648&#45;&gt;2547398187856</title>
<path fill="none" stroke="black" d="M1131.96,-18C1139.87,-18 1147.98,-18 1155.9,-18"/>
<polygon fill="black" stroke="black" points="1155.84,-21.5 1165.84,-18 1155.84,-14.5 1155.84,-21.5"/>
</g>
<!-- 2547398189584 -->
<g id="node13" class="node">
<title>2547398189584</title>
<polygon fill="none" stroke="black" points="1424.5,-63 1397.5,-45 1424.5,-27 1451.5,-45 1424.5,-63"/>
<text text-anchor="middle" x="1424.5" y="-39.98" font-family="Times New Roman,serif" font-size="12.00">X</text>
</g>
<!-- 2547400444000&#45;&gt;2547398189584 -->
<g id="edge13" class="edge">
<title>2547400444000&#45;&gt;2547398189584</title>
<path fill="none" stroke="black" d="M1362.38,-45C1369.63,-45 1377.62,-45 1385.35,-45"/>
<polygon fill="black" stroke="black" points="1385.27,-48.5 1395.27,-45 1385.27,-41.5 1385.27,-48.5"/>
</g>
<!-- 2547398187856&#45;&gt;2547400444000 -->
<g id="edge12" class="edge">
<title>2547398187856&#45;&gt;2547400444000</title>
<path fill="none" stroke="black" d="M1271.78,-30.24C1282.39,-32.78 1293.26,-35.38 1302.86,-37.67"/>
<polygon fill="black" stroke="black" points="1301.83,-41.02 1312.37,-39.94 1303.46,-34.21 1301.83,-41.02"/>
</g>
<!-- 2547398196832 -->
<g id="node14" class="node">
<title>2547398196832</title>
<polygon fill="none" stroke="black" points="1649,-63 1622,-45 1649,-27 1676,-45 1649,-63"/>
<text text-anchor="middle" x="1649" y="-39.98" font-family="Times New Roman,serif" font-size="12.00">X</text>
</g>
<!-- 2547398189584&#45;&gt;2547398196832 -->
<g id="edge15" class="edge">
<title>2547398189584&#45;&gt;2547398196832</title>
<path fill="none" stroke="black" d="M1449.33,-46.9C1460.85,-47.72 1474.89,-48.59 1487.5,-49 1531.26,-50.41 1542.24,-50.41 1586,-49 1594.67,-48.72 1604.02,-48.22 1612.75,-47.67"/>
<polygon fill="black" stroke="black" points="1612.92,-51.17 1622.66,-47 1612.45,-44.18 1612.92,-51.17"/>
</g>
<!-- 2547398190208 -->
<g id="node15" class="node">
<title>2547398190208</title>
<polygon fill="none" stroke="black" points="1586,-40 1487.5,-40 1487.5,-4 1586,-4 1586,-40"/>
<text text-anchor="middle" x="1536.75" y="-16.98" font-family="Times New Roman,serif" font-size="12.00">Provide feedback</text>
</g>
<!-- 2547398189584&#45;&gt;2547398190208 -->
<g id="edge14" class="edge">
<title>2547398189584&#45;&gt;2547398190208</title>
<path fill="none" stroke="black" d="M1445.98,-40.73C1454.58,-38.93 1465.06,-36.75 1475.8,-34.51"/>
<polygon fill="black" stroke="black" points="1476.44,-37.95 1485.52,-32.48 1475.01,-31.1 1476.44,-37.95"/>
</g>
<!-- 2547400309552 -->
<g id="node16" class="node">
<title>2547400309552</title>
<ellipse fill="orange" stroke="black" cx="1730" cy="-45" rx="18" ry="18"/>
</g>
<!-- 2547398196832&#45;&gt;2547400309552 -->
<g id="edge17" class="edge">
<title>2547398196832&#45;&gt;2547400309552</title>
<path fill="none" stroke="black" d="M1676.75,-45C1684.38,-45 1692.73,-45 1700.47,-45"/>
<polygon fill="black" stroke="black" points="1700.43,-48.5 1710.43,-45 1700.43,-41.5 1700.43,-48.5"/>
</g>
<!-- 2547398190208&#45;&gt;2547398196832 -->
<g id="edge16" class="edge">
<title>2547398190208&#45;&gt;2547398196832</title>
<path fill="none" stroke="black" d="M1586.43,-32.16C1596.65,-34.29 1607.17,-36.48 1616.56,-38.44"/>
<polygon fill="black" stroke="black" points="1615.75,-41.85 1626.26,-40.46 1617.18,-35 1615.75,-41.85"/>
</g>
</g>
</svg>
