<?xml version="1.0" encoding="UTF-8" standalone="no"?>
<!DOCTYPE svg PUBLIC "-//W3C//DTD SVG 1.1//EN"
 "http://www.w3.org/Graphics/SVG/1.1/DTD/svg11.dtd">
<!-- Generated by graphviz version 11.0.0 (20240428.1522)
 -->
<!-- Pages: 1 -->
<svg width="1756pt" height="98pt"
 viewBox="0.00 0.00 1756.00 98.00" xmlns="http://www.w3.org/2000/svg" xmlns:xlink="http://www.w3.org/1999/xlink">
<g id="graph0" class="graph" transform="scale(1 1) rotate(0) translate(4 94)">
<polygon fill="white" stroke="none" points="-4,4 -4,-94 1752,-94 1752,4 -4,4"/>
<!-- 2547399001824 -->
<g id="node1" class="node">
<title>2547399001824</title>
<ellipse fill="green" stroke="black" cx="18" cy="-45" rx="18" ry="18"/>
</g>
<!-- 2547400299568 -->
<g id="node2" class="node">
<title>2547400299568</title>
<polygon fill="none" stroke="black" points="99,-63 72,-45 99,-27 126,-45 99,-63"/>
<text text-anchor="middle" x="99" y="-39.98" font-family="Times New Roman,serif" font-size="12.00">X</text>
</g>
<!-- 2547399001824&#45;&gt;2547400299568 -->
<g id="edge1" class="edge">
<title>2547399001824&#45;&gt;2547400299568</title>
<path fill="none" stroke="black" d="M36.14,-45C43.11,-45 51.47,-45 59.75,-45"/>
<polygon fill="black" stroke="black" points="59.75,-48.5 69.75,-45 59.75,-41.5 59.75,-48.5"/>
</g>
<!-- 2547400300048 -->
<g id="node3" class="node">
<title>2547400300048</title>
<polygon fill="none" stroke="black" points="323.5,-63 296.5,-45 323.5,-27 350.5,-45 323.5,-63"/>
<text text-anchor="middle" x="323.5" y="-39.98" font-family="Times New Roman,serif" font-size="12.00">X</text>
</g>
<!-- 2547400299568&#45;&gt;2547400300048 -->
<g id="edge3" class="edge">
<title>2547400299568&#45;&gt;2547400300048</title>
<path fill="none" stroke="black" d="M123.83,-46.9C135.35,-47.72 149.39,-48.59 162,-49 205.76,-50.41 216.74,-50.41 260.5,-49 269.17,-48.72 278.52,-48.22 287.25,-47.67"/>
<polygon fill="black" stroke="black" points="287.42,-51.17 297.16,-47 286.95,-44.18 287.42,-51.17"/>
</g>
<!-- 2547400445488 -->
<g id="node4" class="node">
<title>2547400445488</title>
<polygon fill="none" stroke="black" points="260.5,-40 162,-40 162,-4 260.5,-4 260.5,-40"/>
<text text-anchor="middle" x="211.25" y="-16.98" font-family="Times New Roman,serif" font-size="12.00">Provide feedback</text>
</g>
<!-- 2547400299568&#45;&gt;2547400445488 -->
<g id="edge2" class="edge">
<title>2547400299568&#45;&gt;2547400445488</title>
<path fill="none" stroke="black" d="M120.48,-40.73C129.08,-38.93 139.56,-36.75 150.3,-34.51"/>
<polygon fill="black" stroke="black" points="150.94,-37.95 160.02,-32.48 149.51,-31.1 150.94,-37.95"/>
</g>
<!-- 2547400448320 -->
<g id="node5" class="node">
<title>2547400448320</title>
<polygon fill="none" stroke="black" points="490.25,-63 386.5,-63 386.5,-27 490.25,-27 490.25,-63"/>
<text text-anchor="middle" x="438.38" y="-39.98" font-family="Times New Roman,serif" font-size="12.00">Resolve complaint</text>
</g>
<!-- 2547400300048&#45;&gt;2547400448320 -->
<g id="edge5" class="edge">
<title>2547400300048&#45;&gt;2547400448320</title>
<path fill="none" stroke="black" d="M351.25,-45C358.42,-45 366.49,-45 374.73,-45"/>
<polygon fill="black" stroke="black" points="374.5,-48.5 384.5,-45 374.5,-41.5 374.5,-48.5"/>
</g>
<!-- 2547400445488&#45;&gt;2547400300048 -->
<g id="edge4" class="edge">
<title>2547400445488&#45;&gt;2547400300048</title>
<path fill="none" stroke="black" d="M260.93,-32.16C271.15,-34.29 281.67,-36.48 291.06,-38.44"/>
<polygon fill="black" stroke="black" points="290.25,-41.85 300.76,-40.46 291.68,-35 290.25,-41.85"/>
</g>
<!-- 2547400309360 -->
<g id="node6" class="node">
<title>2547400309360</title>
<polygon fill="none" stroke="black" points="553.25,-63 526.25,-45 553.25,-27 580.25,-45 553.25,-63"/>
<text text-anchor="middle" x="553.25" y="-39.98" font-family="Times New Roman,serif" font-size="12.00">X</text>
</g>
<!-- 2547400448320&#45;&gt;2547400309360 -->
<g id="edge6" class="edge">
<title>2547400448320&#45;&gt;2547400309360</title>
<path fill="none" stroke="black" d="M490.53,-45C498.49,-45 506.59,-45 514.2,-45"/>
<polygon fill="black" stroke="black" points="514.13,-48.5 524.13,-45 514.13,-41.5 514.13,-48.5"/>
</g>
<!-- 2547400045536 -->
<g id="node7" class="node">
<title>2547400045536</title>
<polygon fill="none" stroke="black" points="925.75,-90 783,-90 783,-54 925.75,-54 925.75,-90"/>
<text text-anchor="middle" x="854.38" y="-66.97" font-family="Times New Roman,serif" font-size="12.00">Reject and notify customer</text>
</g>
<!-- 2547400309360&#45;&gt;2547400045536 -->
<g id="edge8" class="edge">
<title>2547400309360&#45;&gt;2547400045536</title>
<path fill="none" stroke="black" d="M577.72,-47.12C618.93,-50.84 706.1,-58.71 771.45,-64.61"/>
<polygon fill="black" stroke="black" points="770.78,-68.06 781.06,-65.47 771.41,-61.09 770.78,-68.06"/>
</g>
<!-- 2547400447168 -->
<g id="node8" class="node">
<title>2547400447168</title>
<polygon fill="none" stroke="black" points="741,-40 616.25,-40 616.25,-4 741,-4 741,-40"/>
<text text-anchor="middle" x="678.62" y="-16.98" font-family="Times New Roman,serif" font-size="12.00">Process reimbursement</text>
</g>
<!-- 2547400309360&#45;&gt;2547400447168 -->
<g id="edge7" class="edge">
<title>2547400309360&#45;&gt;2547400447168</title>
<path fill="none" stroke="black" d="M575.18,-41.1C583.6,-39.53 593.85,-37.62 604.58,-35.62"/>
<polygon fill="black" stroke="black" points="605.19,-39.06 614.38,-33.79 603.91,-32.18 605.19,-39.06"/>
</g>
<!-- 2547400300000 -->
<g id="node9" class="node">
<title>2547400300000</title>
<polygon fill="none" stroke="black" points="994.75,-63 967.75,-45 994.75,-27 1021.75,-45 994.75,-63"/>
<text text-anchor="middle" x="994.75" y="-39.98" font-family="Times New Roman,serif" font-size="12.00">X</text>
</g>
<!-- 2547400045536&#45;&gt;2547400300000 -->
<g id="edge9" class="edge">
<title>2547400045536&#45;&gt;2547400300000</title>
<path fill="none" stroke="black" d="M926.18,-58.18C938.65,-55.75 951.04,-53.33 961.75,-51.24"/>
<polygon fill="black" stroke="black" points="962.4,-54.68 971.54,-49.33 961.06,-47.81 962.4,-54.68"/>
</g>
<!-- 2547400443856 -->
<g id="node10" class="node">
<title>2547400443856</title>
<polygon fill="none" stroke="black" points="931.75,-36 777,-36 777,0 931.75,0 931.75,-36"/>
<text text-anchor="middle" x="854.38" y="-12.97" font-family="Times New Roman,serif" font-size="12.00">Approve and notify customer</text>
</g>
<!-- 2547400447168&#45;&gt;2547400443856 -->
<g id="edge10" class="edge">
<title>2547400447168&#45;&gt;2547400443856</title>
<path fill="none" stroke="black" d="M741.37,-20.58C749.13,-20.4 757.18,-20.21 765.24,-20.03"/>
<polygon fill="black" stroke="black" points="765.19,-23.53 775.11,-19.8 765.03,-16.53 765.19,-23.53"/>
</g>
<!-- 2547400449616 -->
<g id="node11" class="node">
<title>2547400449616</title>
<polygon fill="none" stroke="black" points="1193,-63 1057.75,-63 1057.75,-27 1193,-27 1193,-63"/>
<text text-anchor="middle" x="1125.38" y="-39.98" font-family="Times New Roman,serif" font-size="12.00">Review complaint details</text>
</g>
<!-- 2547400300000&#45;&gt;2547400449616 -->
<g id="edge12" class="edge">
<title>2547400300000&#45;&gt;2547400449616</title>
<path fill="none" stroke="black" d="M1022.4,-45C1029.56,-45 1037.69,-45 1046.15,-45"/>
<polygon fill="black" stroke="black" points="1045.91,-48.5 1055.91,-45 1045.91,-41.5 1045.91,-48.5"/>
</g>
<!-- 2547400443856&#45;&gt;2547400300000 -->
<g id="edge11" class="edge">
<title>2547400443856&#45;&gt;2547400300000</title>
<path fill="none" stroke="black" d="M931.85,-32.92C942.45,-34.99 952.83,-37.01 961.96,-38.8"/>
<polygon fill="black" stroke="black" points="961.19,-42.21 971.67,-40.69 962.53,-35.34 961.19,-42.21"/>
</g>
<!-- 2547400455040 -->
<g id="node12" class="node">
<title>2547400455040</title>
<polygon fill="none" stroke="black" points="1435.5,-63 1229,-63 1229,-27 1435.5,-27 1435.5,-63"/>
<text text-anchor="middle" x="1332.25" y="-39.98" font-family="Times New Roman,serif" font-size="12.00">Assign complaint to relevant department</text>
</g>
<!-- 2547400449616&#45;&gt;2547400455040 -->
<g id="edge13" class="edge">
<title>2547400449616&#45;&gt;2547400455040</title>
<path fill="none" stroke="black" d="M1193.46,-45C1201.15,-45 1209.15,-45 1217.24,-45"/>
<polygon fill="black" stroke="black" points="1217.22,-48.5 1227.22,-45 1217.22,-41.5 1217.22,-48.5"/>
</g>
<!-- 2547400424576 -->
<g id="node13" class="node">
<title>2547400424576</title>
<polygon fill="none" stroke="black" points="1556.5,-63 1471.5,-63 1471.5,-27 1556.5,-27 1556.5,-63"/>
<text text-anchor="middle" x="1514" y="-39.98" font-family="Times New Roman,serif" font-size="12.00">Log complaint</text>
</g>
<!-- 2547400455040&#45;&gt;2547400424576 -->
<g id="edge14" class="edge">
<title>2547400455040&#45;&gt;2547400424576</title>
<path fill="none" stroke="black" d="M1435.99,-45C1444.24,-45 1452.34,-45 1460.01,-45"/>
<polygon fill="black" stroke="black" points="1459.77,-48.5 1469.77,-45 1459.77,-41.5 1459.77,-48.5"/>
</g>
<!-- 2547394313728 -->
<g id="node14" class="node">
<title>2547394313728</title>
<polygon fill="none" stroke="black" points="1676,-63 1592.5,-63 1592.5,-27 1676,-27 1676,-63"/>
<text text-anchor="middle" x="1634.25" y="-39.98" font-family="Times New Roman,serif" font-size="12.00">File complaint</text>
</g>
<!-- 2547400424576&#45;&gt;2547394313728 -->
<g id="edge15" class="edge">
<title>2547400424576&#45;&gt;2547394313728</title>
<path fill="none" stroke="black" d="M1556.69,-45C1564.55,-45 1572.87,-45 1581.01,-45"/>
<polygon fill="black" stroke="black" points="1580.82,-48.5 1590.82,-45 1580.82,-41.5 1580.82,-48.5"/>
</g>
<!-- 2547399004176 -->
<g id="node15" class="node">
<title>2547399004176</title>
<ellipse fill="orange" stroke="black" cx="1730" cy="-45" rx="18" ry="18"/>
</g>
<!-- 2547394313728&#45;&gt;2547399004176 -->
<g id="edge16" class="edge">
<title>2547394313728&#45;&gt;2547399004176</title>
<path fill="none" stroke="black" d="M1676.37,-45C1684.41,-45 1692.68,-45 1700.21,-45"/>
<polygon fill="black" stroke="black" points="1700.15,-48.5 1710.15,-45 1700.15,-41.5 1700.15,-48.5"/>
</g>
</g>
</svg>
