<?xml version="1.0" encoding="UTF-8" standalone="no"?>
<!DOCTYPE svg PUBLIC "-//W3C//DTD SVG 1.1//EN"
 "http://www.w3.org/Graphics/SVG/1.1/DTD/svg11.dtd">
<!-- Generated by graphviz version 11.0.0 (20240428.1522)
 -->
<!-- Pages: 1 -->
<svg width="1800pt" height="98pt"
 viewBox="0.00 0.00 1800.25 98.00" xmlns="http://www.w3.org/2000/svg" xmlns:xlink="http://www.w3.org/1999/xlink">
<g id="graph0" class="graph" transform="scale(1 1) rotate(0) translate(4 94)">
<polygon fill="white" stroke="none" points="-4,4 -4,-94 1796.25,-94 1796.25,4 -4,4"/>
<!-- 2547399398784 -->
<g id="node1" class="node">
<title>2547399398784</title>
<ellipse fill="green" stroke="black" cx="18" cy="-45" rx="18" ry="18"/>
</g>
<!-- 2547399404880 -->
<g id="node2" class="node">
<title>2547399404880</title>
<polygon fill="none" stroke="black" points="175.75,-63 72,-63 72,-27 175.75,-27 175.75,-63"/>
<text text-anchor="middle" x="123.88" y="-39.98" font-family="Times New Roman,serif" font-size="12.00">Resolve complaint</text>
</g>
<!-- 2547399398784&#45;&gt;2547399404880 -->
<g id="edge1" class="edge">
<title>2547399398784&#45;&gt;2547399404880</title>
<path fill="none" stroke="black" d="M36.15,-45C43.04,-45 51.44,-45 60.27,-45"/>
<polygon fill="black" stroke="black" points="60.08,-48.5 70.08,-45 60.08,-41.5 60.08,-48.5"/>
</g>
<!-- 2547399403488 -->
<g id="node3" class="node">
<title>2547399403488</title>
<polygon fill="none" stroke="black" points="296.75,-63 211.75,-63 211.75,-27 296.75,-27 296.75,-63"/>
<text text-anchor="middle" x="254.25" y="-39.98" font-family="Times New Roman,serif" font-size="12.00">Log complaint</text>
</g>
<!-- 2547399404880&#45;&gt;2547399403488 -->
<g id="edge2" class="edge">
<title>2547399404880&#45;&gt;2547399403488</title>
<path fill="none" stroke="black" d="M175.98,-45C183.87,-45 192.04,-45 199.98,-45"/>
<polygon fill="black" stroke="black" points="199.87,-48.5 209.87,-45 199.87,-41.5 199.87,-48.5"/>
</g>
<!-- 2547399400704 -->
<g id="node4" class="node">
<title>2547399400704</title>
<polygon fill="none" stroke="black" points="475.5,-63 332.75,-63 332.75,-27 475.5,-27 475.5,-63"/>
<text text-anchor="middle" x="404.12" y="-39.98" font-family="Times New Roman,serif" font-size="12.00">Reject and notify customer</text>
</g>
<!-- 2547399403488&#45;&gt;2547399400704 -->
<g id="edge3" class="edge">
<title>2547399403488&#45;&gt;2547399400704</title>
<path fill="none" stroke="black" d="M297.23,-45C304.8,-45 312.93,-45 321.19,-45"/>
<polygon fill="black" stroke="black" points="320.99,-48.5 330.99,-45 320.99,-41.5 320.99,-48.5"/>
</g>
<!-- 2547399402912 -->
<g id="node5" class="node">
<title>2547399402912</title>
<polygon fill="none" stroke="black" points="595,-63 511.5,-63 511.5,-27 595,-27 595,-63"/>
<text text-anchor="middle" x="553.25" y="-39.98" font-family="Times New Roman,serif" font-size="12.00">File complaint</text>
</g>
<!-- 2547399400704&#45;&gt;2547399402912 -->
<g id="edge4" class="edge">
<title>2547399400704&#45;&gt;2547399402912</title>
<path fill="none" stroke="black" d="M475.67,-45C483.9,-45 492.17,-45 500.09,-45"/>
<polygon fill="black" stroke="black" points="499.86,-48.5 509.86,-45 499.86,-41.5 499.86,-48.5"/>
</g>
<!-- 2547399409584 -->
<g id="node6" class="node">
<title>2547399409584</title>
<polygon fill="none" stroke="black" points="658,-63 631,-45 658,-27 685,-45 658,-63"/>
<text text-anchor="middle" x="658" y="-39.98" font-family="Times New Roman,serif" font-size="12.00">X</text>
</g>
<!-- 2547399402912&#45;&gt;2547399409584 -->
<g id="edge5" class="edge">
<title>2547399402912&#45;&gt;2547399409584</title>
<path fill="none" stroke="black" d="M595.45,-45C603.14,-45 611.16,-45 618.76,-45"/>
<polygon fill="black" stroke="black" points="618.74,-48.5 628.74,-45 618.74,-41.5 618.74,-48.5"/>
</g>
<!-- 2547399397056 -->
<g id="node7" class="node">
<title>2547399397056</title>
<polygon fill="none" stroke="black" points="873.5,-90 775,-90 775,-54 873.5,-54 873.5,-90"/>
<text text-anchor="middle" x="824.25" y="-66.97" font-family="Times New Roman,serif" font-size="12.00">Provide feedback</text>
</g>
<!-- 2547399409584&#45;&gt;2547399397056 -->
<g id="edge6" class="edge">
<title>2547399409584&#45;&gt;2547399397056</title>
<path fill="none" stroke="black" d="M680.47,-48.53C701.51,-51.99 734.53,-57.42 763.53,-62.18"/>
<polygon fill="black" stroke="black" points="762.89,-65.63 773.33,-63.79 764.03,-58.72 762.89,-65.63"/>
</g>
<!-- 2547399409392 -->
<g id="node8" class="node">
<title>2547399409392</title>
<polygon fill="none" stroke="black" points="927.5,-36 721,-36 721,0 927.5,0 927.5,-36"/>
<text text-anchor="middle" x="824.25" y="-12.97" font-family="Times New Roman,serif" font-size="12.00">Assign complaint to relevant department</text>
</g>
<!-- 2547399409584&#45;&gt;2547399409392 -->
<g id="edge7" class="edge">
<title>2547399409584&#45;&gt;2547399409392</title>
<path fill="none" stroke="black" d="M680.47,-41.47C688.69,-40.12 698.74,-38.47 709.66,-36.67"/>
<polygon fill="black" stroke="black" points="710.05,-40.16 719.35,-35.08 708.91,-33.25 710.05,-40.16"/>
</g>
<!-- 2547399396816 -->
<g id="node9" class="node">
<title>2547399396816</title>
<polygon fill="none" stroke="black" points="1118.25,-90 963.5,-90 963.5,-54 1118.25,-54 1118.25,-90"/>
<text text-anchor="middle" x="1040.88" y="-66.97" font-family="Times New Roman,serif" font-size="12.00">Approve and notify customer</text>
</g>
<!-- 2547399397056&#45;&gt;2547399396816 -->
<g id="edge8" class="edge">
<title>2547399397056&#45;&gt;2547399396816</title>
<path fill="none" stroke="black" d="M873.95,-72C897,-72 925.26,-72 951.87,-72"/>
<polygon fill="black" stroke="black" points="951.65,-75.5 961.65,-72 951.65,-68.5 951.65,-75.5"/>
</g>
<!-- 2547399393456 -->
<g id="node10" class="node">
<title>2547399393456</title>
<polygon fill="none" stroke="black" points="1289.5,-36 1154.25,-36 1154.25,0 1289.5,0 1289.5,-36"/>
<text text-anchor="middle" x="1221.88" y="-12.97" font-family="Times New Roman,serif" font-size="12.00">Review complaint details</text>
</g>
<!-- 2547399409392&#45;&gt;2547399393456 -->
<g id="edge9" class="edge">
<title>2547399409392&#45;&gt;2547399393456</title>
<path fill="none" stroke="black" d="M927.91,-18C994.94,-18 1081.11,-18 1142.61,-18"/>
<polygon fill="black" stroke="black" points="1142.28,-21.5 1152.28,-18 1142.28,-14.5 1142.28,-21.5"/>
</g>
<!-- 2547399394944 -->
<g id="node12" class="node">
<title>2547399394944</title>
<polygon fill="none" stroke="black" points="1289.5,-90 1154.25,-90 1154.25,-54 1289.5,-54 1289.5,-90"/>
<text text-anchor="middle" x="1221.88" y="-66.97" font-family="Times New Roman,serif" font-size="12.00">Review complaint details</text>
</g>
<!-- 2547399396816&#45;&gt;2547399394944 -->
<g id="edge10" class="edge">
<title>2547399396816&#45;&gt;2547399394944</title>
<path fill="none" stroke="black" d="M1118.57,-72C1126.47,-72 1134.51,-72 1142.44,-72"/>
<polygon fill="black" stroke="black" points="1142.42,-75.5 1152.42,-72 1142.42,-68.5 1142.42,-75.5"/>
</g>
<!-- 2547399405600 -->
<g id="node11" class="node">
<title>2547399405600</title>
<polygon fill="none" stroke="black" points="1352.5,-63 1325.5,-45 1352.5,-27 1379.5,-45 1352.5,-63"/>
<text text-anchor="middle" x="1352.5" y="-39.98" font-family="Times New Roman,serif" font-size="12.00">X</text>
</g>
<!-- 2547399393456&#45;&gt;2547399405600 -->
<g id="edge11" class="edge">
<title>2547399393456&#45;&gt;2547399405600</title>
<path fill="none" stroke="black" d="M1289.82,-32.05C1300.47,-34.29 1311.02,-36.5 1320.3,-38.45"/>
<polygon fill="black" stroke="black" points="1319.3,-41.82 1329.81,-40.45 1320.74,-34.97 1319.3,-41.82"/>
</g>
<!-- 2547399404448 -->
<g id="node13" class="node">
<title>2547399404448</title>
<polygon fill="none" stroke="black" points="1442.5,-63 1415.5,-45 1442.5,-27 1469.5,-45 1442.5,-63"/>
<text text-anchor="middle" x="1442.5" y="-39.98" font-family="Times New Roman,serif" font-size="12.00">X</text>
</g>
<!-- 2547399405600&#45;&gt;2547399404448 -->
<g id="edge13" class="edge">
<title>2547399405600&#45;&gt;2547399404448</title>
<path fill="none" stroke="black" d="M1380.38,-45C1387.63,-45 1395.62,-45 1403.35,-45"/>
<polygon fill="black" stroke="black" points="1403.27,-48.5 1413.27,-45 1403.27,-41.5 1403.27,-48.5"/>
</g>
<!-- 2547399394944&#45;&gt;2547399405600 -->
<g id="edge12" class="edge">
<title>2547399394944&#45;&gt;2547399405600</title>
<path fill="none" stroke="black" d="M1289.82,-57.95C1300.47,-55.71 1311.02,-53.5 1320.3,-51.55"/>
<polygon fill="black" stroke="black" points="1320.74,-55.03 1329.81,-49.55 1319.3,-48.18 1320.74,-55.03"/>
</g>
<!-- 2547399396144 -->
<g id="node14" class="node">
<title>2547399396144</title>
<polygon fill="none" stroke="black" points="1693.25,-63 1666.25,-45 1693.25,-27 1720.25,-45 1693.25,-63"/>
<text text-anchor="middle" x="1693.25" y="-39.98" font-family="Times New Roman,serif" font-size="12.00">X</text>
</g>
<!-- 2547399404448&#45;&gt;2547399396144 -->
<g id="edge15" class="edge">
<title>2547399404448&#45;&gt;2547399396144</title>
<path fill="none" stroke="black" d="M1467.33,-46.9C1478.85,-47.72 1492.89,-48.59 1505.5,-49 1560.92,-50.79 1574.83,-50.79 1630.25,-49 1638.92,-48.72 1648.27,-48.22 1657,-47.67"/>
<polygon fill="black" stroke="black" points="1657.17,-51.17 1666.91,-47 1656.7,-44.18 1657.17,-51.17"/>
</g>
<!-- 2547399397776 -->
<g id="node15" class="node">
<title>2547399397776</title>
<polygon fill="none" stroke="black" points="1630.25,-40 1505.5,-40 1505.5,-4 1630.25,-4 1630.25,-40"/>
<text text-anchor="middle" x="1567.88" y="-16.98" font-family="Times New Roman,serif" font-size="12.00">Process reimbursement</text>
</g>
<!-- 2547399404448&#45;&gt;2547399397776 -->
<g id="edge14" class="edge">
<title>2547399404448&#45;&gt;2547399397776</title>
<path fill="none" stroke="black" d="M1464.43,-41.1C1472.85,-39.53 1483.1,-37.62 1493.83,-35.62"/>
<polygon fill="black" stroke="black" points="1494.44,-39.06 1503.63,-33.79 1493.16,-32.18 1494.44,-39.06"/>
</g>
<!-- 2547399399888 -->
<g id="node16" class="node">
<title>2547399399888</title>
<ellipse fill="orange" stroke="black" cx="1774.25" cy="-45" rx="18" ry="18"/>
</g>
<!-- 2547399396144&#45;&gt;2547399399888 -->
<g id="edge17" class="edge">
<title>2547399396144&#45;&gt;2547399399888</title>
<path fill="none" stroke="black" d="M1721,-45C1728.63,-45 1736.98,-45 1744.72,-45"/>
<polygon fill="black" stroke="black" points="1744.68,-48.5 1754.68,-45 1744.68,-41.5 1744.68,-48.5"/>
</g>
<!-- 2547399397776&#45;&gt;2547399396144 -->
<g id="edge16" class="edge">
<title>2547399397776&#45;&gt;2547399396144</title>
<path fill="none" stroke="black" d="M1630.56,-33.5C1640.78,-35.41 1651,-37.31 1660.1,-39.01"/>
<polygon fill="black" stroke="black" points="1659.36,-42.43 1669.83,-40.82 1660.64,-35.55 1659.36,-42.43"/>
</g>
</g>
</svg>
