<?xml version="1.0" encoding="UTF-8" standalone="no"?>
<!DOCTYPE svg PUBLIC "-//W3C//DTD SVG 1.1//EN"
 "http://www.w3.org/Graphics/SVG/1.1/DTD/svg11.dtd">
<!-- Generated by graphviz version 11.0.0 (20240428.1522)
 -->
<!-- Pages: 1 -->
<svg width="1871pt" height="136pt"
 viewBox="0.00 0.00 1871.00 136.00" xmlns="http://www.w3.org/2000/svg" xmlns:xlink="http://www.w3.org/1999/xlink">
<g id="graph0" class="graph" transform="scale(1 1) rotate(0) translate(4 132)">
<polygon fill="white" stroke="none" points="-4,4 -4,-132 1867,-132 1867,4 -4,4"/>
<!-- 2547393073120 -->
<g id="node1" class="node">
<title>2547393073120</title>
<ellipse fill="green" stroke="black" cx="18" cy="-64" rx="18" ry="18"/>
</g>
<!-- 2547399847872 -->
<g id="node2" class="node">
<title>2547399847872</title>
<polygon fill="none" stroke="black" points="175.75,-82 72,-82 72,-46 175.75,-46 175.75,-82"/>
<text text-anchor="middle" x="123.88" y="-58.98" font-family="Times New Roman,serif" font-size="12.00">Resolve complaint</text>
</g>
<!-- 2547393073120&#45;&gt;2547399847872 -->
<g id="edge1" class="edge">
<title>2547393073120&#45;&gt;2547399847872</title>
<path fill="none" stroke="black" d="M36.15,-64C43.04,-64 51.44,-64 60.27,-64"/>
<polygon fill="black" stroke="black" points="60.08,-67.5 70.08,-64 60.08,-60.5 60.08,-67.5"/>
</g>
<!-- 2547373170400 -->
<g id="node3" class="node">
<title>2547373170400</title>
<polygon fill="none" stroke="black" points="296.75,-82 211.75,-82 211.75,-46 296.75,-46 296.75,-82"/>
<text text-anchor="middle" x="254.25" y="-58.98" font-family="Times New Roman,serif" font-size="12.00">Log complaint</text>
</g>
<!-- 2547399847872&#45;&gt;2547373170400 -->
<g id="edge2" class="edge">
<title>2547399847872&#45;&gt;2547373170400</title>
<path fill="none" stroke="black" d="M175.98,-64C183.87,-64 192.04,-64 199.98,-64"/>
<polygon fill="black" stroke="black" points="199.87,-67.5 209.87,-64 199.87,-60.5 199.87,-67.5"/>
</g>
<!-- 2547400047120 -->
<g id="node4" class="node">
<title>2547400047120</title>
<polygon fill="none" stroke="black" points="475.5,-82 332.75,-82 332.75,-46 475.5,-46 475.5,-82"/>
<text text-anchor="middle" x="404.12" y="-58.98" font-family="Times New Roman,serif" font-size="12.00">Reject and notify customer</text>
</g>
<!-- 2547373170400&#45;&gt;2547400047120 -->
<g id="edge3" class="edge">
<title>2547373170400&#45;&gt;2547400047120</title>
<path fill="none" stroke="black" d="M297.23,-64C304.8,-64 312.93,-64 321.19,-64"/>
<polygon fill="black" stroke="black" points="320.99,-67.5 330.99,-64 320.99,-60.5 320.99,-67.5"/>
</g>
<!-- 2547399841200 -->
<g id="node5" class="node">
<title>2547399841200</title>
<polygon fill="none" stroke="black" points="595,-82 511.5,-82 511.5,-46 595,-46 595,-82"/>
<text text-anchor="middle" x="553.25" y="-58.98" font-family="Times New Roman,serif" font-size="12.00">File complaint</text>
</g>
<!-- 2547400047120&#45;&gt;2547399841200 -->
<g id="edge4" class="edge">
<title>2547400047120&#45;&gt;2547399841200</title>
<path fill="none" stroke="black" d="M475.67,-64C483.9,-64 492.17,-64 500.09,-64"/>
<polygon fill="black" stroke="black" points="499.86,-67.5 509.86,-64 499.86,-60.5 499.86,-67.5"/>
</g>
<!-- 2547399847200 -->
<g id="node6" class="node">
<title>2547399847200</title>
<polygon fill="none" stroke="black" points="658,-82 631,-64 658,-46 685,-64 658,-82"/>
<text text-anchor="middle" x="658" y="-58.98" font-family="Times New Roman,serif" font-size="12.00">X</text>
</g>
<!-- 2547399841200&#45;&gt;2547399847200 -->
<g id="edge5" class="edge">
<title>2547399841200&#45;&gt;2547399847200</title>
<path fill="none" stroke="black" d="M595.45,-64C603.14,-64 611.16,-64 618.76,-64"/>
<polygon fill="black" stroke="black" points="618.74,-67.5 628.74,-64 618.74,-60.5 618.74,-67.5"/>
</g>
<!-- 2547399846768 -->
<g id="node7" class="node">
<title>2547399846768</title>
<polygon fill="none" stroke="black" points="927.5,-109 721,-109 721,-73 927.5,-73 927.5,-109"/>
<text text-anchor="middle" x="824.25" y="-85.97" font-family="Times New Roman,serif" font-size="12.00">Assign complaint to relevant department</text>
</g>
<!-- 2547399847200&#45;&gt;2547399846768 -->
<g id="edge6" class="edge">
<title>2547399847200&#45;&gt;2547399846768</title>
<path fill="none" stroke="black" d="M680.47,-67.53C688.69,-68.88 698.74,-70.53 709.66,-72.33"/>
<polygon fill="black" stroke="black" points="708.91,-75.75 719.35,-73.92 710.05,-68.84 708.91,-75.75"/>
</g>
<!-- 2547400047072 -->
<g id="node8" class="node">
<title>2547400047072</title>
<polygon fill="none" stroke="black" points="873.5,-55 775,-55 775,-19 873.5,-19 873.5,-55"/>
<text text-anchor="middle" x="824.25" y="-31.98" font-family="Times New Roman,serif" font-size="12.00">Provide feedback</text>
</g>
<!-- 2547399847200&#45;&gt;2547400047072 -->
<g id="edge7" class="edge">
<title>2547399847200&#45;&gt;2547400047072</title>
<path fill="none" stroke="black" d="M680.47,-60.47C701.51,-57.01 734.53,-51.58 763.53,-46.82"/>
<polygon fill="black" stroke="black" points="764.03,-50.28 773.33,-45.21 762.89,-43.37 764.03,-50.28"/>
</g>
<!-- 2547400043808 -->
<g id="node10" class="node">
<title>2547400043808</title>
<polygon fill="none" stroke="black" points="1108.5,-109 973.25,-109 973.25,-73 1108.5,-73 1108.5,-109"/>
<text text-anchor="middle" x="1040.88" y="-85.97" font-family="Times New Roman,serif" font-size="12.00">Review complaint details</text>
</g>
<!-- 2547399846768&#45;&gt;2547400043808 -->
<g id="edge8" class="edge">
<title>2547399846768&#45;&gt;2547400043808</title>
<path fill="none" stroke="black" d="M927.85,-91C939.21,-91 950.64,-91 961.62,-91"/>
<polygon fill="black" stroke="black" points="961.38,-94.5 971.38,-91 961.38,-87.5 961.38,-94.5"/>
</g>
<!-- 2547399843360 -->
<g id="node9" class="node">
<title>2547399843360</title>
<polygon fill="none" stroke="black" points="1118.25,-55 963.5,-55 963.5,-19 1118.25,-19 1118.25,-55"/>
<text text-anchor="middle" x="1040.88" y="-31.98" font-family="Times New Roman,serif" font-size="12.00">Approve and notify customer</text>
</g>
<!-- 2547400047072&#45;&gt;2547399843360 -->
<g id="edge9" class="edge">
<title>2547400047072&#45;&gt;2547399843360</title>
<path fill="none" stroke="black" d="M873.95,-37C897,-37 925.26,-37 951.87,-37"/>
<polygon fill="black" stroke="black" points="951.65,-40.5 961.65,-37 951.65,-33.5 951.65,-40.5"/>
</g>
<!-- 2547400044576 -->
<g id="node12" class="node">
<title>2547400044576</title>
<polygon fill="none" stroke="black" points="1289.5,-55 1154.25,-55 1154.25,-19 1289.5,-19 1289.5,-55"/>
<text text-anchor="middle" x="1221.88" y="-31.98" font-family="Times New Roman,serif" font-size="12.00">Review complaint details</text>
</g>
<!-- 2547399843360&#45;&gt;2547400044576 -->
<g id="edge10" class="edge">
<title>2547399843360&#45;&gt;2547400044576</title>
<path fill="none" stroke="black" d="M1118.57,-37C1126.47,-37 1134.51,-37 1142.44,-37"/>
<polygon fill="black" stroke="black" points="1142.42,-40.5 1152.42,-37 1142.42,-33.5 1142.42,-40.5"/>
</g>
<!-- 2547399843984 -->
<g id="node11" class="node">
<title>2547399843984</title>
<polygon fill="none" stroke="black" points="1221.88,-109 1194.88,-91 1221.88,-73 1248.88,-91 1221.88,-109"/>
<text text-anchor="middle" x="1221.88" y="-85.97" font-family="Times New Roman,serif" font-size="12.00">X</text>
</g>
<!-- 2547400043808&#45;&gt;2547399843984 -->
<g id="edge11" class="edge">
<title>2547400043808&#45;&gt;2547399843984</title>
<path fill="none" stroke="black" d="M1108.78,-91C1133.75,-91 1161.23,-91 1182.73,-91"/>
<polygon fill="black" stroke="black" points="1182.49,-94.5 1192.49,-91 1182.49,-87.5 1182.49,-94.5"/>
</g>
<!-- 2547399843696 -->
<g id="node14" class="node">
<title>2547399843696</title>
<polygon fill="none" stroke="black" points="1548.62,-128 1521.62,-110 1548.62,-92 1575.62,-110 1548.62,-128"/>
<text text-anchor="middle" x="1548.62" y="-104.97" font-family="Times New Roman,serif" font-size="12.00">X</text>
</g>
<!-- 2547399843984&#45;&gt;2547399843696 -->
<g id="edge12" class="edge">
<title>2547399843984&#45;&gt;2547399843696</title>
<path fill="none" stroke="black" d="M1240.4,-97.09C1260.61,-103.77 1294.99,-114.05 1325.5,-118 1392.14,-126.62 1470.89,-119.81 1514.45,-114.58"/>
<polygon fill="black" stroke="black" points="1514.77,-118.06 1524.26,-113.34 1513.9,-111.12 1514.77,-118.06"/>
</g>
<!-- 2547400043616 -->
<g id="node15" class="node">
<title>2547400043616</title>
<polygon fill="none" stroke="black" points="1450.25,-109 1325.5,-109 1325.5,-73 1450.25,-73 1450.25,-109"/>
<text text-anchor="middle" x="1387.88" y="-85.97" font-family="Times New Roman,serif" font-size="12.00">Process reimbursement</text>
</g>
<!-- 2547399843984&#45;&gt;2547400043616 -->
<g id="edge13" class="edge">
<title>2547399843984&#45;&gt;2547400043616</title>
<path fill="none" stroke="black" d="M1249.59,-91C1267.06,-91 1290.8,-91 1313.62,-91"/>
<polygon fill="black" stroke="black" points="1313.56,-94.5 1323.56,-91 1313.56,-87.5 1313.56,-94.5"/>
</g>
<!-- 2547399844176 -->
<g id="node13" class="node">
<title>2547399844176</title>
<polygon fill="none" stroke="black" points="1387.88,-55 1360.88,-37 1387.88,-19 1414.88,-37 1387.88,-55"/>
<text text-anchor="middle" x="1387.88" y="-31.98" font-family="Times New Roman,serif" font-size="12.00">X</text>
</g>
<!-- 2547400044576&#45;&gt;2547399844176 -->
<g id="edge14" class="edge">
<title>2547400044576&#45;&gt;2547399844176</title>
<path fill="none" stroke="black" d="M1289.58,-37C1309.85,-37 1331.42,-37 1349.08,-37"/>
<polygon fill="black" stroke="black" points="1348.83,-40.5 1358.83,-37 1348.83,-33.5 1348.83,-40.5"/>
</g>
<!-- 2547395419392 -->
<g id="node16" class="node">
<title>2547395419392</title>
<polygon fill="none" stroke="black" points="1674,-82 1647,-64 1674,-46 1701,-64 1674,-82"/>
<text text-anchor="middle" x="1674" y="-58.98" font-family="Times New Roman,serif" font-size="12.00">X</text>
</g>
<!-- 2547399844176&#45;&gt;2547395419392 -->
<g id="edge17" class="edge">
<title>2547399844176&#45;&gt;2547395419392</title>
<path fill="none" stroke="black" d="M1412.13,-39.21C1462.09,-43.96 1579.93,-55.16 1638.59,-60.73"/>
<polygon fill="black" stroke="black" points="1638.03,-64.19 1648.32,-61.65 1638.7,-57.22 1638.03,-64.19"/>
</g>
<!-- 2547400044288 -->
<g id="node18" class="node">
<title>2547400044288</title>
<polygon fill="none" stroke="black" points="1611,-36 1486.25,-36 1486.25,0 1611,0 1611,-36"/>
<text text-anchor="middle" x="1548.62" y="-12.97" font-family="Times New Roman,serif" font-size="12.00">Process reimbursement</text>
</g>
<!-- 2547399844176&#45;&gt;2547400044288 -->
<g id="edge16" class="edge">
<title>2547399844176&#45;&gt;2547400044288</title>
<path fill="none" stroke="black" d="M1411.62,-34.28C1428.27,-32.28 1451.86,-29.46 1474.73,-26.72"/>
<polygon fill="black" stroke="black" points="1474.85,-30.24 1484.36,-25.57 1474.01,-23.29 1474.85,-30.24"/>
</g>
<!-- 2547399844128 -->
<g id="node17" class="node">
<title>2547399844128</title>
<polygon fill="none" stroke="black" points="1764,-105 1737,-87 1764,-69 1791,-87 1764,-105"/>
<text text-anchor="middle" x="1764" y="-81.97" font-family="Times New Roman,serif" font-size="12.00">X</text>
</g>
<!-- 2547399843696&#45;&gt;2547399844128 -->
<g id="edge18" class="edge">
<title>2547399843696&#45;&gt;2547399844128</title>
<path fill="none" stroke="black" d="M1572.46,-107.54C1609.98,-103.49 1684.88,-95.42 1728.77,-90.69"/>
<polygon fill="black" stroke="black" points="1728.93,-94.19 1738.5,-89.64 1728.18,-87.23 1728.93,-94.19"/>
</g>
<!-- 2547400043616&#45;&gt;2547399843696 -->
<g id="edge15" class="edge">
<title>2547400043616&#45;&gt;2547399843696</title>
<path fill="none" stroke="black" d="M1450.71,-98.4C1472.13,-100.96 1495.35,-103.74 1513.69,-105.94"/>
<polygon fill="black" stroke="black" points="1513.12,-109.4 1523.47,-107.11 1513.95,-102.44 1513.12,-109.4"/>
</g>
<!-- 2547395419392&#45;&gt;2547399844128 -->
<g id="edge19" class="edge">
<title>2547395419392&#45;&gt;2547399844128</title>
<path fill="none" stroke="black" d="M1694.09,-68.99C1705.51,-71.97 1720.26,-75.83 1733.19,-79.21"/>
<polygon fill="black" stroke="black" points="1731.92,-82.49 1742.48,-81.64 1733.69,-75.72 1731.92,-82.49"/>
</g>
<!-- 2547393083056 -->
<g id="node19" class="node">
<title>2547393083056</title>
<ellipse fill="orange" stroke="black" cx="1845" cy="-87" rx="18" ry="18"/>
</g>
<!-- 2547399844128&#45;&gt;2547393083056 -->
<g id="edge21" class="edge">
<title>2547399844128&#45;&gt;2547393083056</title>
<path fill="none" stroke="black" d="M1791.75,-87C1799.38,-87 1807.73,-87 1815.47,-87"/>
<polygon fill="black" stroke="black" points="1815.43,-90.5 1825.43,-87 1815.43,-83.5 1815.43,-90.5"/>
</g>
<!-- 2547400044288&#45;&gt;2547395419392 -->
<g id="edge20" class="edge">
<title>2547400044288&#45;&gt;2547395419392</title>
<path fill="none" stroke="black" d="M1599.1,-36.44C1614.81,-42.3 1631.62,-48.57 1645.24,-53.65"/>
<polygon fill="black" stroke="black" points="1643.81,-56.85 1654.41,-57.07 1646.26,-50.29 1643.81,-56.85"/>
</g>
</g>
</svg>
