<?xml version="1.0" encoding="UTF-8" standalone="no"?>
<!DOCTYPE svg PUBLIC "-//W3C//DTD SVG 1.1//EN"
 "http://www.w3.org/Graphics/SVG/1.1/DTD/svg11.dtd">
<!-- Generated by graphviz version 11.0.0 (20240428.1522)
 -->
<!-- Pages: 1 -->
<svg width="1845pt" height="132pt"
 viewBox="0.00 0.00 1844.75 132.00" xmlns="http://www.w3.org/2000/svg" xmlns:xlink="http://www.w3.org/1999/xlink">
<g id="graph0" class="graph" transform="scale(1 1) rotate(0) translate(4 128)">
<polygon fill="white" stroke="none" points="-4,4 -4,-128 1840.75,-128 1840.75,4 -4,4"/>
<!-- 2547399010800 -->
<g id="node1" class="node">
<title>2547399010800</title>
<ellipse fill="green" stroke="black" cx="18" cy="-79" rx="18" ry="18"/>
</g>
<!-- 2547398191120 -->
<g id="node2" class="node">
<title>2547398191120</title>
<polygon fill="none" stroke="black" points="175.75,-97 72,-97 72,-61 175.75,-61 175.75,-97"/>
<text text-anchor="middle" x="123.88" y="-73.97" font-family="Times New Roman,serif" font-size="12.00">Resolve complaint</text>
</g>
<!-- 2547399010800&#45;&gt;2547398191120 -->
<g id="edge1" class="edge">
<title>2547399010800&#45;&gt;2547398191120</title>
<path fill="none" stroke="black" d="M36.15,-79C43.04,-79 51.44,-79 60.27,-79"/>
<polygon fill="black" stroke="black" points="60.08,-82.5 70.08,-79 60.08,-75.5 60.08,-82.5"/>
</g>
<!-- 2547395375760 -->
<g id="node3" class="node">
<title>2547395375760</title>
<polygon fill="none" stroke="black" points="296.75,-97 211.75,-97 211.75,-61 296.75,-61 296.75,-97"/>
<text text-anchor="middle" x="254.25" y="-73.97" font-family="Times New Roman,serif" font-size="12.00">Log complaint</text>
</g>
<!-- 2547398191120&#45;&gt;2547395375760 -->
<g id="edge2" class="edge">
<title>2547398191120&#45;&gt;2547395375760</title>
<path fill="none" stroke="black" d="M175.98,-79C183.87,-79 192.04,-79 199.98,-79"/>
<polygon fill="black" stroke="black" points="199.87,-82.5 209.87,-79 199.87,-75.5 199.87,-82.5"/>
</g>
<!-- 2547400448272 -->
<g id="node4" class="node">
<title>2547400448272</title>
<polygon fill="none" stroke="black" points="475.5,-97 332.75,-97 332.75,-61 475.5,-61 475.5,-97"/>
<text text-anchor="middle" x="404.12" y="-73.97" font-family="Times New Roman,serif" font-size="12.00">Reject and notify customer</text>
</g>
<!-- 2547395375760&#45;&gt;2547400448272 -->
<g id="edge3" class="edge">
<title>2547395375760&#45;&gt;2547400448272</title>
<path fill="none" stroke="black" d="M297.23,-79C304.8,-79 312.93,-79 321.19,-79"/>
<polygon fill="black" stroke="black" points="320.99,-82.5 330.99,-79 320.99,-75.5 320.99,-82.5"/>
</g>
<!-- 2547395373312 -->
<g id="node5" class="node">
<title>2547395373312</title>
<polygon fill="none" stroke="black" points="595,-97 511.5,-97 511.5,-61 595,-61 595,-97"/>
<text text-anchor="middle" x="553.25" y="-73.97" font-family="Times New Roman,serif" font-size="12.00">File complaint</text>
</g>
<!-- 2547400448272&#45;&gt;2547395373312 -->
<g id="edge4" class="edge">
<title>2547400448272&#45;&gt;2547395373312</title>
<path fill="none" stroke="black" d="M475.67,-79C483.9,-79 492.17,-79 500.09,-79"/>
<polygon fill="black" stroke="black" points="499.86,-82.5 509.86,-79 499.86,-75.5 499.86,-82.5"/>
</g>
<!-- 2547395373936 -->
<g id="node6" class="node">
<title>2547395373936</title>
<polygon fill="none" stroke="black" points="658,-97 631,-79 658,-61 685,-79 658,-97"/>
<text text-anchor="middle" x="658" y="-73.97" font-family="Times New Roman,serif" font-size="12.00">X</text>
</g>
<!-- 2547395373312&#45;&gt;2547395373936 -->
<g id="edge5" class="edge">
<title>2547395373312&#45;&gt;2547395373936</title>
<path fill="none" stroke="black" d="M595.45,-79C603.14,-79 611.16,-79 618.76,-79"/>
<polygon fill="black" stroke="black" points="618.74,-82.5 628.74,-79 618.74,-75.5 618.74,-82.5"/>
</g>
<!-- 2547390949200 -->
<g id="node7" class="node">
<title>2547390949200</title>
<polygon fill="none" stroke="black" points="1062,-124 963.5,-124 963.5,-88 1062,-88 1062,-124"/>
<text text-anchor="middle" x="1012.75" y="-100.97" font-family="Times New Roman,serif" font-size="12.00">Provide feedback</text>
</g>
<!-- 2547395373936&#45;&gt;2547390949200 -->
<g id="edge7" class="edge">
<title>2547395373936&#45;&gt;2547390949200</title>
<path fill="none" stroke="black" d="M682.97,-80.83C737.65,-85.02 872.99,-95.38 951.93,-101.42"/>
<polygon fill="black" stroke="black" points="951.4,-104.89 961.64,-102.16 951.94,-97.91 951.4,-104.89"/>
</g>
<!-- 2547400305040 -->
<g id="node8" class="node">
<title>2547400305040</title>
<polygon fill="none" stroke="black" points="927.5,-74 721,-74 721,-38 927.5,-38 927.5,-74"/>
<text text-anchor="middle" x="824.25" y="-50.98" font-family="Times New Roman,serif" font-size="12.00">Assign complaint to relevant department</text>
</g>
<!-- 2547395373936&#45;&gt;2547400305040 -->
<g id="edge6" class="edge">
<title>2547395373936&#45;&gt;2547400305040</title>
<path fill="none" stroke="black" d="M681.15,-75.9C689.21,-74.77 698.96,-73.4 709.54,-71.92"/>
<polygon fill="black" stroke="black" points="709.91,-75.41 719.33,-70.55 708.94,-68.47 709.91,-75.41"/>
</g>
<!-- 2547395374560 -->
<g id="node9" class="node">
<title>2547395374560</title>
<polygon fill="none" stroke="black" points="1737.75,-101 1710.75,-83 1737.75,-65 1764.75,-83 1737.75,-101"/>
<text text-anchor="middle" x="1737.75" y="-77.97" font-family="Times New Roman,serif" font-size="12.00">X</text>
</g>
<!-- 2547390949200&#45;&gt;2547395374560 -->
<g id="edge8" class="edge">
<title>2547390949200&#45;&gt;2547395374560</title>
<path fill="none" stroke="black" d="M1062.4,-106C1128.66,-106 1250.99,-106 1355.38,-106 1355.38,-106 1355.38,-106 1523.38,-106 1587.81,-106 1662.56,-95.5 1704.28,-88.69"/>
<polygon fill="black" stroke="black" points="1704.85,-92.15 1714.14,-87.05 1703.7,-85.24 1704.85,-92.15"/>
</g>
<!-- 2547395371584 -->
<g id="node10" class="node">
<title>2547395371584</title>
<polygon fill="none" stroke="black" points="1012.75,-70 985.75,-52 1012.75,-34 1039.75,-52 1012.75,-70"/>
<text text-anchor="middle" x="1012.75" y="-46.98" font-family="Times New Roman,serif" font-size="12.00">X</text>
</g>
<!-- 2547400305040&#45;&gt;2547395371584 -->
<g id="edge9" class="edge">
<title>2547400305040&#45;&gt;2547395371584</title>
<path fill="none" stroke="black" d="M927.77,-53.8C944.53,-53.44 960.89,-53.09 974.65,-52.8"/>
<polygon fill="black" stroke="black" points="974.58,-56.3 984.5,-52.58 974.43,-49.3 974.58,-56.3"/>
</g>
<!-- 2547399011472 -->
<g id="node15" class="node">
<title>2547399011472</title>
<ellipse fill="orange" stroke="black" cx="1818.75" cy="-83" rx="18" ry="18"/>
</g>
<!-- 2547395374560&#45;&gt;2547399011472 -->
<g id="edge12" class="edge">
<title>2547395374560&#45;&gt;2547399011472</title>
<path fill="none" stroke="black" d="M1765.5,-83C1773.13,-83 1781.48,-83 1789.22,-83"/>
<polygon fill="black" stroke="black" points="1789.18,-86.5 1799.18,-83 1789.18,-79.5 1789.18,-86.5"/>
</g>
<!-- 2547395374848 -->
<g id="node11" class="node">
<title>2547395374848</title>
<polygon fill="none" stroke="black" points="1647.75,-78 1620.75,-60 1647.75,-42 1674.75,-60 1647.75,-78"/>
<text text-anchor="middle" x="1647.75" y="-54.98" font-family="Times New Roman,serif" font-size="12.00">X</text>
</g>
<!-- 2547395371584&#45;&gt;2547395374848 -->
<g id="edge11" class="edge">
<title>2547395371584&#45;&gt;2547395374848</title>
<path fill="none" stroke="black" d="M1040.14,-52.33C1139.69,-53.59 1492.64,-58.05 1609.14,-59.52"/>
<polygon fill="black" stroke="black" points="1609.04,-63.02 1619.08,-59.65 1609.13,-56.02 1609.04,-63.02"/>
</g>
<!-- 2547400305520 -->
<g id="node12" class="node">
<title>2547400305520</title>
<polygon fill="none" stroke="black" points="1252.75,-36 1098,-36 1098,0 1252.75,0 1252.75,-36"/>
<text text-anchor="middle" x="1175.38" y="-12.97" font-family="Times New Roman,serif" font-size="12.00">Approve and notify customer</text>
</g>
<!-- 2547395371584&#45;&gt;2547400305520 -->
<g id="edge10" class="edge">
<title>2547395371584&#45;&gt;2547400305520</title>
<path fill="none" stroke="black" d="M1034.09,-47.69C1047.84,-44.78 1067.03,-40.72 1086.82,-36.53"/>
<polygon fill="black" stroke="black" points="1087.3,-40.01 1096.36,-34.51 1085.85,-33.16 1087.3,-40.01"/>
</g>
<!-- 2547395374848&#45;&gt;2547395374560 -->
<g id="edge13" class="edge">
<title>2547395374848&#45;&gt;2547395374560</title>
<path fill="none" stroke="black" d="M1667.84,-64.99C1679.26,-67.97 1694.01,-71.83 1706.94,-75.21"/>
<polygon fill="black" stroke="black" points="1705.67,-78.49 1716.23,-77.64 1707.44,-71.72 1705.67,-78.49"/>
</g>
<!-- 2547400307104 -->
<g id="node13" class="node">
<title>2547400307104</title>
<polygon fill="none" stroke="black" points="1424,-36 1288.75,-36 1288.75,0 1424,0 1424,-36"/>
<text text-anchor="middle" x="1356.38" y="-12.97" font-family="Times New Roman,serif" font-size="12.00">Review complaint details</text>
</g>
<!-- 2547400305520&#45;&gt;2547400307104 -->
<g id="edge14" class="edge">
<title>2547400305520&#45;&gt;2547400307104</title>
<path fill="none" stroke="black" d="M1253.07,-18C1260.97,-18 1269.01,-18 1276.94,-18"/>
<polygon fill="black" stroke="black" points="1276.92,-21.5 1286.92,-18 1276.92,-14.5 1276.92,-21.5"/>
</g>
<!-- 2547400449760 -->
<g id="node14" class="node">
<title>2547400449760</title>
<polygon fill="none" stroke="black" points="1584.75,-36 1460,-36 1460,0 1584.75,0 1584.75,-36"/>
<text text-anchor="middle" x="1522.38" y="-12.97" font-family="Times New Roman,serif" font-size="12.00">Process reimbursement</text>
</g>
<!-- 2547400307104&#45;&gt;2547400449760 -->
<g id="edge15" class="edge">
<title>2547400307104&#45;&gt;2547400449760</title>
<path fill="none" stroke="black" d="M1424.08,-18C1432.1,-18 1440.32,-18 1448.42,-18"/>
<polygon fill="black" stroke="black" points="1448.24,-21.5 1458.24,-18 1448.24,-14.5 1448.24,-21.5"/>
</g>
<!-- 2547400449760&#45;&gt;2547395374848 -->
<g id="edge16" class="edge">
<title>2547400449760&#45;&gt;2547395374848</title>
<path fill="none" stroke="black" d="M1577.49,-36.42C1591.52,-41.2 1606.08,-46.16 1618.21,-50.29"/>
<polygon fill="black" stroke="black" points="1616.98,-53.56 1627.57,-53.47 1619.23,-46.93 1616.98,-53.56"/>
</g>
</g>
</svg>
