<?xml version="1.0" encoding="UTF-8" standalone="no"?>
<!DOCTYPE svg PUBLIC "-//W3C//DTD SVG 1.1//EN"
 "http://www.w3.org/Graphics/SVG/1.1/DTD/svg11.dtd">
<!-- Generated by graphviz version 11.0.0 (20240428.1522)
 -->
<!-- Pages: 1 -->
<svg width="1629pt" height="144pt"
 viewBox="0.00 0.00 1629.00 144.00" xmlns="http://www.w3.org/2000/svg" xmlns:xlink="http://www.w3.org/1999/xlink">
<g id="graph0" class="graph" transform="scale(1 1) rotate(0) translate(4 140)">
<polygon fill="white" stroke="none" points="-4,4 -4,-140 1625,-140 1625,4 -4,4"/>
<!-- 2547399008784 -->
<g id="node1" class="node">
<title>2547399008784</title>
<ellipse fill="green" stroke="black" cx="18" cy="-45" rx="18" ry="18"/>
</g>
<!-- 2547399843984 -->
<g id="node2" class="node">
<title>2547399843984</title>
<polygon fill="none" stroke="black" points="155.5,-63 72,-63 72,-27 155.5,-27 155.5,-63"/>
<text text-anchor="middle" x="113.75" y="-39.98" font-family="Times New Roman,serif" font-size="12.00">File complaint</text>
</g>
<!-- 2547399008784&#45;&gt;2547399843984 -->
<g id="edge1" class="edge">
<title>2547399008784&#45;&gt;2547399843984</title>
<path fill="none" stroke="black" d="M36.2,-45C43.11,-45 51.48,-45 60.11,-45"/>
<polygon fill="black" stroke="black" points="60.01,-48.5 70.01,-45 60.01,-41.5 60.01,-48.5"/>
</g>
<!-- 2547399847008 -->
<g id="node3" class="node">
<title>2547399847008</title>
<polygon fill="none" stroke="black" points="276.5,-63 191.5,-63 191.5,-27 276.5,-27 276.5,-63"/>
<text text-anchor="middle" x="234" y="-39.98" font-family="Times New Roman,serif" font-size="12.00">Log complaint</text>
</g>
<!-- 2547399843984&#45;&gt;2547399847008 -->
<g id="edge2" class="edge">
<title>2547399843984&#45;&gt;2547399847008</title>
<path fill="none" stroke="black" d="M155.78,-45C163.57,-45 171.84,-45 179.95,-45"/>
<polygon fill="black" stroke="black" points="179.73,-48.5 189.73,-45 179.73,-41.5 179.73,-48.5"/>
</g>
<!-- 2547395369664 -->
<g id="node4" class="node">
<title>2547395369664</title>
<polygon fill="none" stroke="black" points="339.5,-63 312.5,-45 339.5,-27 366.5,-45 339.5,-63"/>
<text text-anchor="middle" x="339.5" y="-39.98" font-family="Times New Roman,serif" font-size="12.00">X</text>
</g>
<!-- 2547399847008&#45;&gt;2547395369664 -->
<g id="edge3" class="edge">
<title>2547399847008&#45;&gt;2547395369664</title>
<path fill="none" stroke="black" d="M276.8,-45C284.62,-45 292.76,-45 300.46,-45"/>
<polygon fill="black" stroke="black" points="300.21,-48.5 310.21,-45 300.21,-41.5 300.21,-48.5"/>
</g>
<!-- 2547395375808 -->
<g id="node5" class="node">
<title>2547395375808</title>
<polygon fill="none" stroke="black" points="609,-88 402.5,-88 402.5,-52 609,-52 609,-88"/>
<text text-anchor="middle" x="505.75" y="-64.97" font-family="Times New Roman,serif" font-size="12.00">Assign complaint to relevant department</text>
</g>
<!-- 2547395369664&#45;&gt;2547395375808 -->
<g id="edge4" class="edge">
<title>2547395369664&#45;&gt;2547395375808</title>
<path fill="none" stroke="black" d="M362.31,-48.32C370.49,-49.57 380.45,-51.08 391.27,-52.73"/>
<polygon fill="black" stroke="black" points="390.42,-56.14 400.84,-54.18 391.48,-49.22 390.42,-56.14"/>
</g>
<!-- 2547399851616 -->
<g id="node6" class="node">
<title>2547399851616</title>
<polygon fill="none" stroke="black" points="787.75,-36 645,-36 645,0 787.75,0 787.75,-36"/>
<text text-anchor="middle" x="716.38" y="-12.97" font-family="Times New Roman,serif" font-size="12.00">Reject and notify customer</text>
</g>
<!-- 2547395369664&#45;&gt;2547399851616 -->
<g id="edge5" class="edge">
<title>2547395369664&#45;&gt;2547399851616</title>
<path fill="none" stroke="black" d="M364.52,-43.27C417.72,-39.44 547.57,-30.09 633.5,-23.9"/>
<polygon fill="black" stroke="black" points="633.56,-27.4 643.29,-23.19 633.06,-20.42 633.56,-27.4"/>
</g>
<!-- 2547399844176 -->
<g id="node8" class="node">
<title>2547399844176</title>
<polygon fill="none" stroke="black" points="784,-90 648.75,-90 648.75,-54 784,-54 784,-90"/>
<text text-anchor="middle" x="716.38" y="-66.97" font-family="Times New Roman,serif" font-size="12.00">Review complaint details</text>
</g>
<!-- 2547395375808&#45;&gt;2547399844176 -->
<g id="edge6" class="edge">
<title>2547395375808&#45;&gt;2547399844176</title>
<path fill="none" stroke="black" d="M609.23,-70.98C618.58,-71.07 627.94,-71.16 637.03,-71.25"/>
<polygon fill="black" stroke="black" points="636.82,-74.75 646.85,-71.34 636.88,-67.75 636.82,-74.75"/>
</g>
<!-- 2547395376864 -->
<g id="node7" class="node">
<title>2547395376864</title>
<polygon fill="none" stroke="black" points="1522,-59 1495,-41 1522,-23 1549,-41 1522,-59"/>
<text text-anchor="middle" x="1522" y="-35.98" font-family="Times New Roman,serif" font-size="12.00">X</text>
</g>
<!-- 2547399851616&#45;&gt;2547395376864 -->
<g id="edge7" class="edge">
<title>2547399851616&#45;&gt;2547395376864</title>
<path fill="none" stroke="black" d="M788.02,-18C843.08,-18 921.46,-18 990.12,-18 990.12,-18 990.12,-18 1318.12,-18 1378.81,-18 1449.06,-28.29 1488.94,-35.1"/>
<polygon fill="black" stroke="black" points="1488.12,-38.51 1498.57,-36.79 1489.32,-31.61 1488.12,-38.51"/>
</g>
<!-- 2547399004560 -->
<g id="node15" class="node">
<title>2547399004560</title>
<ellipse fill="orange" stroke="black" cx="1603" cy="-41" rx="18" ry="18"/>
</g>
<!-- 2547395376864&#45;&gt;2547399004560 -->
<g id="edge9" class="edge">
<title>2547395376864&#45;&gt;2547399004560</title>
<path fill="none" stroke="black" d="M1549.75,-41C1557.38,-41 1565.73,-41 1573.47,-41"/>
<polygon fill="black" stroke="black" points="1573.43,-44.5 1583.43,-41 1573.43,-37.5 1573.43,-44.5"/>
</g>
<!-- 2547395369904 -->
<g id="node9" class="node">
<title>2547395369904</title>
<polygon fill="none" stroke="black" points="850.75,-90 823.75,-72 850.75,-54 877.75,-72 850.75,-90"/>
<text text-anchor="middle" x="850.75" y="-66.97" font-family="Times New Roman,serif" font-size="12.00">X</text>
</g>
<!-- 2547399844176&#45;&gt;2547395369904 -->
<g id="edge8" class="edge">
<title>2547399844176&#45;&gt;2547395369904</title>
<path fill="none" stroke="black" d="M784.34,-72C793.67,-72 802.97,-72 811.52,-72"/>
<polygon fill="black" stroke="black" points="811.5,-75.5 821.5,-72 811.5,-68.5 811.5,-75.5"/>
</g>
<!-- 2547399846336 -->
<g id="node10" class="node">
<title>2547399846336</title>
<polygon fill="none" stroke="black" points="1216.12,-136 1117.62,-136 1117.62,-100 1216.12,-100 1216.12,-136"/>
<text text-anchor="middle" x="1166.88" y="-112.97" font-family="Times New Roman,serif" font-size="12.00">Provide feedback</text>
</g>
<!-- 2547395369904&#45;&gt;2547399846336 -->
<g id="edge10" class="edge">
<title>2547395369904&#45;&gt;2547399846336</title>
<path fill="none" stroke="black" d="M868.3,-78.76C880.63,-83.5 897.98,-89.59 913.75,-93 978.7,-107.03 1054.8,-113.21 1106.27,-115.91"/>
<polygon fill="black" stroke="black" points="1105.83,-119.4 1115.99,-116.4 1106.18,-112.4 1105.83,-119.4"/>
</g>
<!-- 2547400048464 -->
<g id="node11" class="node">
<title>2547400048464</title>
<polygon fill="none" stroke="black" points="1068.5,-84 913.75,-84 913.75,-48 1068.5,-48 1068.5,-84"/>
<text text-anchor="middle" x="991.12" y="-60.98" font-family="Times New Roman,serif" font-size="12.00">Approve and notify customer</text>
</g>
<!-- 2547395369904&#45;&gt;2547400048464 -->
<g id="edge11" class="edge">
<title>2547395369904&#45;&gt;2547400048464</title>
<path fill="none" stroke="black" d="M876.81,-70.91C884.28,-70.59 892.94,-70.21 902.07,-69.82"/>
<polygon fill="black" stroke="black" points="902.04,-73.32 911.88,-69.39 901.74,-66.33 902.04,-73.32"/>
</g>
<!-- 2547395368848 -->
<g id="node12" class="node">
<title>2547395368848</title>
<polygon fill="none" stroke="black" points="1432,-82 1405,-64 1432,-46 1459,-64 1432,-82"/>
<text text-anchor="middle" x="1432" y="-58.98" font-family="Times New Roman,serif" font-size="12.00">X</text>
</g>
<!-- 2547399846336&#45;&gt;2547395368848 -->
<g id="edge12" class="edge">
<title>2547399846336&#45;&gt;2547395368848</title>
<path fill="none" stroke="black" d="M1216.59,-115.25C1257.8,-112.03 1318.1,-105.2 1369,-91 1381.55,-87.5 1394.88,-81.96 1405.94,-76.8"/>
<polygon fill="black" stroke="black" points="1407.3,-80.03 1414.78,-72.53 1404.25,-73.73 1407.3,-80.03"/>
</g>
<!-- 2547399844128 -->
<g id="node13" class="node">
<title>2547399844128</title>
<polygon fill="none" stroke="black" points="1229.25,-82 1104.5,-82 1104.5,-46 1229.25,-46 1229.25,-82"/>
<text text-anchor="middle" x="1166.88" y="-58.98" font-family="Times New Roman,serif" font-size="12.00">Process reimbursement</text>
</g>
<!-- 2547400048464&#45;&gt;2547399844128 -->
<g id="edge13" class="edge">
<title>2547400048464&#45;&gt;2547399844128</title>
<path fill="none" stroke="black" d="M1068.84,-65.12C1076.78,-65.03 1084.84,-64.93 1092.74,-64.84"/>
<polygon fill="black" stroke="black" points="1092.69,-68.34 1102.65,-64.73 1092.61,-61.34 1092.69,-68.34"/>
</g>
<!-- 2547395368848&#45;&gt;2547395376864 -->
<g id="edge14" class="edge">
<title>2547395368848&#45;&gt;2547395376864</title>
<path fill="none" stroke="black" d="M1452.09,-59.01C1463.51,-56.03 1478.26,-52.17 1491.19,-48.79"/>
<polygon fill="black" stroke="black" points="1491.69,-52.28 1500.48,-46.36 1489.92,-45.51 1491.69,-52.28"/>
</g>
<!-- 2547400042416 -->
<g id="node14" class="node">
<title>2547400042416</title>
<polygon fill="none" stroke="black" points="1369,-82 1265.25,-82 1265.25,-46 1369,-46 1369,-82"/>
<text text-anchor="middle" x="1317.12" y="-58.98" font-family="Times New Roman,serif" font-size="12.00">Resolve complaint</text>
</g>
<!-- 2547399844128&#45;&gt;2547400042416 -->
<g id="edge15" class="edge">
<title>2547399844128&#45;&gt;2547400042416</title>
<path fill="none" stroke="black" d="M1229.46,-64C1237.37,-64 1245.48,-64 1253.4,-64"/>
<polygon fill="black" stroke="black" points="1253.34,-67.5 1263.34,-64 1253.34,-60.5 1253.34,-67.5"/>
</g>
<!-- 2547400042416&#45;&gt;2547395368848 -->
<g id="edge16" class="edge">
<title>2547400042416&#45;&gt;2547395368848</title>
<path fill="none" stroke="black" d="M1369.28,-64C1377.24,-64 1385.34,-64 1392.95,-64"/>
<polygon fill="black" stroke="black" points="1392.88,-67.5 1402.88,-64 1392.88,-60.5 1392.88,-67.5"/>
</g>
</g>
</svg>
