<?xml version="1.0" encoding="UTF-8" standalone="no"?>
<!DOCTYPE svg PUBLIC "-//W3C//DTD SVG 1.1//EN"
 "http://www.w3.org/Graphics/SVG/1.1/DTD/svg11.dtd">
<!-- Generated by graphviz version 11.0.0 (20240428.1522)
 -->
<!-- Pages: 1 -->
<svg width="2415pt" height="156pt"
 viewBox="0.00 0.00 2415.00 156.08" xmlns="http://www.w3.org/2000/svg" xmlns:xlink="http://www.w3.org/1999/xlink">
<g id="graph0" class="graph" transform="scale(1 1) rotate(0) translate(4 152.08)">
<polygon fill="white" stroke="none" points="-4,4 -4,-152.08 2411,-152.08 2411,4 -4,4"/>
<!-- 2547394887168 -->
<g id="node1" class="node">
<title>2547394887168</title>
<ellipse fill="green" stroke="black" cx="18" cy="-53.08" rx="18" ry="18"/>
</g>
<!-- 2547394356448 -->
<g id="node2" class="node">
<title>2547394356448</title>
<polygon fill="none" stroke="black" points="221.5,-71.08 72,-71.08 72,-35.08 221.5,-35.08 221.5,-71.08"/>
<text text-anchor="middle" x="146.75" y="-48.06" font-family="Times New Roman,serif" font-size="12.00">Customer searches for ticket</text>
</g>
<!-- 2547394887168&#45;&gt;2547394356448 -->
<g id="edge1" class="edge">
<title>2547394887168&#45;&gt;2547394356448</title>
<path fill="none" stroke="black" d="M36.36,-53.08C43.15,-53.08 51.48,-53.08 60.48,-53.08"/>
<polygon fill="black" stroke="black" points="60.22,-56.58 70.22,-53.08 60.22,-49.58 60.22,-56.58"/>
</g>
<!-- 2547395092864 -->
<g id="node3" class="node">
<title>2547395092864</title>
<polygon fill="none" stroke="black" points="329,-71.08 257.5,-71.08 257.5,-35.08 329,-35.08 329,-71.08"/>
<text text-anchor="middle" x="293.25" y="-48.06" font-family="Times New Roman,serif" font-size="12.00">Select route</text>
</g>
<!-- 2547394356448&#45;&gt;2547395092864 -->
<g id="edge2" class="edge">
<title>2547394356448&#45;&gt;2547395092864</title>
<path fill="none" stroke="black" d="M221.69,-53.08C229.9,-53.08 238.08,-53.08 245.8,-53.08"/>
<polygon fill="black" stroke="black" points="245.61,-56.58 255.61,-53.08 245.61,-49.58 245.61,-56.58"/>
</g>
<!-- 2547395093056 -->
<g id="node4" class="node">
<title>2547395093056</title>
<polygon fill="none" stroke="black" points="475.5,-71.08 365,-71.08 365,-35.08 475.5,-35.08 475.5,-71.08"/>
<text text-anchor="middle" x="420.25" y="-48.06" font-family="Times New Roman,serif" font-size="12.00">Select date and time</text>
</g>
<!-- 2547395092864&#45;&gt;2547395093056 -->
<g id="edge3" class="edge">
<title>2547395092864&#45;&gt;2547395093056</title>
<path fill="none" stroke="black" d="M329.4,-53.08C336.95,-53.08 345.16,-53.08 353.44,-53.08"/>
<polygon fill="black" stroke="black" points="353.22,-56.58 363.22,-53.08 353.22,-49.58 353.22,-56.58"/>
</g>
<!-- 2547395097424 -->
<g id="node5" class="node">
<title>2547395097424</title>
<polygon fill="none" stroke="black" points="538.5,-71.08 511.5,-53.08 538.5,-35.08 565.5,-53.08 538.5,-71.08"/>
<text text-anchor="middle" x="538.5" y="-48.06" font-family="Times New Roman,serif" font-size="12.00">+</text>
</g>
<!-- 2547395093056&#45;&gt;2547395097424 -->
<g id="edge4" class="edge">
<title>2547395093056&#45;&gt;2547395097424</title>
<path fill="none" stroke="black" d="M475.97,-53.08C483.93,-53.08 491.98,-53.08 499.51,-53.08"/>
<polygon fill="black" stroke="black" points="499.32,-56.58 509.32,-53.08 499.32,-49.58 499.32,-56.58"/>
</g>
<!-- 2547395093536 -->
<g id="node6" class="node">
<title>2547395093536</title>
<polygon fill="none" stroke="black" points="754.75,-98.08 601.5,-98.08 601.5,-62.08 754.75,-62.08 754.75,-98.08"/>
<text text-anchor="middle" x="678.12" y="-75.06" font-family="Times New Roman,serif" font-size="12.00">Provide personal information</text>
</g>
<!-- 2547395097424&#45;&gt;2547395093536 -->
<g id="edge6" class="edge">
<title>2547395097424&#45;&gt;2547395093536</title>
<path fill="none" stroke="black" d="M560.1,-57.13C568.54,-58.78 578.92,-60.82 589.98,-62.99"/>
<polygon fill="black" stroke="black" points="589.25,-66.41 599.73,-64.9 590.59,-59.54 589.25,-66.41"/>
</g>
<!-- 2547395099248 -->
<g id="node7" class="node">
<title>2547395099248</title>
<polygon fill="none" stroke="black" points="742.75,-44.08 613.5,-44.08 613.5,-8.08 742.75,-8.08 742.75,-44.08"/>
<text text-anchor="middle" x="678.12" y="-21.06" font-family="Times New Roman,serif" font-size="12.00">Provide payment details</text>
</g>
<!-- 2547395097424&#45;&gt;2547395099248 -->
<g id="edge5" class="edge">
<title>2547395097424&#45;&gt;2547395099248</title>
<path fill="none" stroke="black" d="M560.1,-49.04C571.51,-46.81 586.46,-43.87 601.85,-40.85"/>
<polygon fill="black" stroke="black" points="602.47,-44.3 611.6,-38.94 601.12,-37.43 602.47,-44.3"/>
</g>
<!-- 2547395093632 -->
<g id="node8" class="node">
<title>2547395093632</title>
<polygon fill="none" stroke="black" points="817.75,-71.08 790.75,-53.08 817.75,-35.08 844.75,-53.08 817.75,-71.08"/>
<text text-anchor="middle" x="817.75" y="-48.06" font-family="Times New Roman,serif" font-size="12.00">+</text>
</g>
<!-- 2547395093536&#45;&gt;2547395093632 -->
<g id="edge7" class="edge">
<title>2547395093536&#45;&gt;2547395093632</title>
<path fill="none" stroke="black" d="M755.18,-65.16C765.64,-63.11 775.88,-61.1 784.91,-59.33"/>
<polygon fill="black" stroke="black" points="785.37,-62.81 794.51,-57.45 784.02,-55.94 785.37,-62.81"/>
</g>
<!-- 2547395099248&#45;&gt;2547395093632 -->
<g id="edge8" class="edge">
<title>2547395099248&#45;&gt;2547395093632</title>
<path fill="none" stroke="black" d="M743.1,-38.64C757.68,-41.5 772.54,-44.41 785.07,-46.87"/>
<polygon fill="black" stroke="black" points="784.3,-50.29 794.79,-48.78 785.65,-43.42 784.3,-50.29"/>
</g>
<!-- 2547394357888 -->
<g id="node9" class="node">
<title>2547394357888</title>
<polygon fill="none" stroke="black" points="968,-71.08 880.75,-71.08 880.75,-35.08 968,-35.08 968,-71.08"/>
<text text-anchor="middle" x="924.38" y="-48.06" font-family="Times New Roman,serif" font-size="12.00">Generate ticket</text>
</g>
<!-- 2547395093632&#45;&gt;2547394357888 -->
<g id="edge9" class="edge">
<title>2547395093632&#45;&gt;2547394357888</title>
<path fill="none" stroke="black" d="M845.42,-53.08C852.75,-53.08 860.96,-53.08 869.24,-53.08"/>
<polygon fill="black" stroke="black" points="868.98,-56.58 878.98,-53.08 868.98,-49.58 868.98,-56.58"/>
</g>
<!-- 2547394360432 -->
<g id="node10" class="node">
<title>2547394360432</title>
<polygon fill="none" stroke="black" points="1031,-71.08 1004,-53.08 1031,-35.08 1058,-53.08 1031,-71.08"/>
<text text-anchor="middle" x="1031" y="-48.06" font-family="Times New Roman,serif" font-size="12.00">+</text>
</g>
<!-- 2547394357888&#45;&gt;2547394360432 -->
<g id="edge10" class="edge">
<title>2547394357888&#45;&gt;2547394360432</title>
<path fill="none" stroke="black" d="M968.23,-53.08C976.1,-53.08 984.27,-53.08 991.98,-53.08"/>
<polygon fill="black" stroke="black" points="991.74,-56.58 1001.74,-53.08 991.74,-49.58 991.74,-56.58"/>
</g>
<!-- 2547395419440 -->
<g id="node11" class="node">
<title>2547395419440</title>
<polygon fill="none" stroke="black" points="1121,-94.08 1094,-76.08 1121,-58.08 1148,-76.08 1121,-94.08"/>
<text text-anchor="middle" x="1121" y="-71.06" font-family="Times New Roman,serif" font-size="12.00">X</text>
</g>
<!-- 2547394360432&#45;&gt;2547395419440 -->
<g id="edge11" class="edge">
<title>2547394360432&#45;&gt;2547395419440</title>
<path fill="none" stroke="black" d="M1051.09,-58.08C1062.51,-61.06 1077.26,-64.91 1090.19,-68.29"/>
<polygon fill="black" stroke="black" points="1088.92,-71.58 1099.48,-70.72 1090.69,-64.81 1088.92,-71.58"/>
</g>
<!-- 2547395087776 -->
<g id="node12" class="node">
<title>2547395087776</title>
<polygon fill="none" stroke="black" points="1453.75,-48.08 1334.25,-48.08 1334.25,-12.08 1453.75,-12.08 1453.75,-48.08"/>
<text text-anchor="middle" x="1394" y="-25.06" font-family="Times New Roman,serif" font-size="12.00">Update seat inventory</text>
</g>
<!-- 2547394360432&#45;&gt;2547395087776 -->
<g id="edge12" class="edge">
<title>2547394360432&#45;&gt;2547395087776</title>
<path fill="none" stroke="black" d="M1056.44,-51.5C1067.85,-50.77 1081.62,-49.88 1094,-49.08 1172.27,-44.07 1262.06,-38.37 1322.66,-34.54"/>
<polygon fill="black" stroke="black" points="1322.73,-38.04 1332.49,-33.91 1322.29,-31.05 1322.73,-38.04"/>
</g>
<!-- 2547394350592 -->
<g id="node14" class="node">
<title>2547394350592</title>
<polygon fill="none" stroke="black" points="1298.25,-148.08 1184,-148.08 1184,-112.08 1298.25,-112.08 1298.25,-148.08"/>
<text text-anchor="middle" x="1241.12" y="-125.06" font-family="Times New Roman,serif" font-size="12.00">Send ticket via email</text>
</g>
<!-- 2547395419440&#45;&gt;2547394350592 -->
<g id="edge13" class="edge">
<title>2547395419440&#45;&gt;2547394350592</title>
<path fill="none" stroke="black" d="M1137.93,-83.37C1151.21,-89.44 1170.87,-98.43 1189.42,-106.9"/>
<polygon fill="black" stroke="black" points="1187.93,-110.07 1198.48,-111.05 1190.84,-103.7 1187.93,-110.07"/>
</g>
<!-- 2547394354912 -->
<g id="node15" class="node">
<title>2547394354912</title>
<polygon fill="none" stroke="black" points="1297.5,-94.08 1184.75,-94.08 1184.75,-58.08 1297.5,-58.08 1297.5,-94.08"/>
<text text-anchor="middle" x="1241.12" y="-71.06" font-family="Times New Roman,serif" font-size="12.00">Send ticket via SMS</text>
</g>
<!-- 2547395419440&#45;&gt;2547394354912 -->
<g id="edge14" class="edge">
<title>2547395419440&#45;&gt;2547394354912</title>
<path fill="none" stroke="black" d="M1148.8,-76.08C1156.19,-76.08 1164.54,-76.08 1173.12,-76.08"/>
<polygon fill="black" stroke="black" points="1172.96,-79.58 1182.96,-76.08 1172.96,-72.58 1172.96,-79.58"/>
</g>
<!-- 2547394354576 -->
<g id="node13" class="node">
<title>2547394354576</title>
<polygon fill="none" stroke="black" points="1516.75,-75.08 1489.75,-57.08 1516.75,-39.08 1543.75,-57.08 1516.75,-75.08"/>
<text text-anchor="middle" x="1516.75" y="-52.06" font-family="Times New Roman,serif" font-size="12.00">+</text>
</g>
<!-- 2547395087776&#45;&gt;2547394354576 -->
<g id="edge15" class="edge">
<title>2547395087776&#45;&gt;2547394354576</title>
<path fill="none" stroke="black" d="M1453.96,-43.27C1464.57,-45.64 1475.23,-48.03 1484.65,-50.13"/>
<polygon fill="black" stroke="black" points="1483.8,-53.53 1494.33,-52.29 1485.33,-46.7 1483.8,-53.53"/>
</g>
<!-- 2547395418768 -->
<g id="node16" class="node">
<title>2547395418768</title>
<polygon fill="none" stroke="black" points="1606.75,-102.08 1579.75,-84.08 1606.75,-66.08 1633.75,-84.08 1606.75,-102.08"/>
<text text-anchor="middle" x="1606.75" y="-79.06" font-family="Times New Roman,serif" font-size="12.00">X</text>
</g>
<!-- 2547394354576&#45;&gt;2547395418768 -->
<g id="edge16" class="edge">
<title>2547394354576&#45;&gt;2547395418768</title>
<path fill="none" stroke="black" d="M1535.98,-62.68C1547.78,-66.3 1563.4,-71.09 1576.86,-75.22"/>
<polygon fill="black" stroke="black" points="1575.51,-78.47 1586.09,-78.05 1577.56,-71.77 1575.51,-78.47"/>
</g>
<!-- 2547395426496 -->
<g id="node17" class="node">
<title>2547395426496</title>
<polygon fill="none" stroke="black" points="1606.75,-48.08 1579.75,-30.08 1606.75,-12.08 1633.75,-30.08 1606.75,-48.08"/>
<text text-anchor="middle" x="1606.75" y="-25.06" font-family="Times New Roman,serif" font-size="12.00">X</text>
</g>
<!-- 2547394354576&#45;&gt;2547395426496 -->
<g id="edge17" class="edge">
<title>2547394354576&#45;&gt;2547395426496</title>
<path fill="none" stroke="black" d="M1535.98,-51.49C1547.78,-47.87 1563.4,-43.08 1576.86,-38.95"/>
<polygon fill="black" stroke="black" points="1577.56,-42.4 1586.09,-36.12 1575.51,-35.7 1577.56,-42.4"/>
</g>
<!-- 2547395420496 -->
<g id="node18" class="node">
<title>2547395420496</title>
<polygon fill="none" stroke="black" points="1394,-102.08 1367,-84.08 1394,-66.08 1421,-84.08 1394,-102.08"/>
<text text-anchor="middle" x="1394" y="-79.06" font-family="Times New Roman,serif" font-size="12.00">X</text>
</g>
<!-- 2547394350592&#45;&gt;2547395420496 -->
<g id="edge18" class="edge">
<title>2547394350592&#45;&gt;2547395420496</title>
<path fill="none" stroke="black" d="M1298.73,-112.83C1320.93,-106.06 1345.44,-98.59 1363.91,-92.96"/>
<polygon fill="black" stroke="black" points="1364.82,-96.34 1373.37,-90.07 1362.78,-89.64 1364.82,-96.34"/>
</g>
<!-- 2547394354912&#45;&gt;2547395420496 -->
<g id="edge19" class="edge">
<title>2547394354912&#45;&gt;2547395420496</title>
<path fill="none" stroke="black" d="M1297.88,-79.04C1317.52,-80.08 1339.08,-81.23 1356.7,-82.16"/>
<polygon fill="black" stroke="black" points="1356.51,-85.65 1366.68,-82.69 1356.88,-78.66 1356.51,-85.65"/>
</g>
<!-- 2547395090656 -->
<g id="node19" class="node">
<title>2547395090656</title>
<polygon fill="none" stroke="black" points="1766.75,-145.08 1669.75,-145.08 1669.75,-109.08 1766.75,-109.08 1766.75,-145.08"/>
<text text-anchor="middle" x="1718.25" y="-122.06" font-family="Times New Roman,serif" font-size="12.00">Send instructions</text>
</g>
<!-- 2547395418768&#45;&gt;2547395090656 -->
<g id="edge21" class="edge">
<title>2547395418768&#45;&gt;2547395090656</title>
<path fill="none" stroke="black" d="M1624.38,-90.62C1634.11,-94.43 1647.02,-99.5 1660.11,-104.65"/>
<polygon fill="black" stroke="black" points="1658.6,-107.81 1669.18,-108.21 1661.15,-101.3 1658.6,-107.81"/>
</g>
<!-- 2547394356688 -->
<g id="node20" class="node">
<title>2547394356688</title>
<polygon fill="none" stroke="black" points="1760.75,-51.08 1675.75,-51.08 1675.75,-15.08 1760.75,-15.08 1760.75,-51.08"/>
<text text-anchor="middle" x="1718.25" y="-28.06" font-family="Times New Roman,serif" font-size="12.00">Send reminder</text>
</g>
<!-- 2547395426496&#45;&gt;2547394356688 -->
<g id="edge22" class="edge">
<title>2547395426496&#45;&gt;2547394356688</title>
<path fill="none" stroke="black" d="M1633.42,-30.79C1642.61,-31.04 1653.35,-31.33 1664,-31.63"/>
<polygon fill="black" stroke="black" points="1663.85,-35.12 1673.95,-31.9 1664.05,-28.13 1663.85,-35.12"/>
</g>
<!-- 2547395420496&#45;&gt;2547394354576 -->
<g id="edge20" class="edge">
<title>2547395420496&#45;&gt;2547394354576</title>
<path fill="none" stroke="black" d="M1414.94,-79.63C1433.9,-75.39 1462.72,-68.94 1484.69,-64.03"/>
<polygon fill="black" stroke="black" points="1485.31,-67.48 1494.3,-61.88 1483.78,-60.65 1485.31,-67.48"/>
</g>
<!-- 2547395419920 -->
<g id="node22" class="node">
<title>2547395419920</title>
<polygon fill="none" stroke="black" points="1829.75,-103.08 1802.75,-85.08 1829.75,-67.08 1856.75,-85.08 1829.75,-103.08"/>
<text text-anchor="middle" x="1829.75" y="-80.06" font-family="Times New Roman,serif" font-size="12.00">X</text>
</g>
<!-- 2547395090656&#45;&gt;2547395419920 -->
<g id="edge23" class="edge">
<title>2547395090656&#45;&gt;2547395419920</title>
<path fill="none" stroke="black" d="M1766.96,-108.79C1778.73,-104.27 1790.93,-99.59 1801.36,-95.59"/>
<polygon fill="black" stroke="black" points="1802.37,-98.95 1810.45,-92.1 1799.86,-92.42 1802.37,-98.95"/>
</g>
<!-- 2547395419824 -->
<g id="node21" class="node">
<title>2547395419824</title>
<polygon fill="none" stroke="black" points="1829.75,-49.08 1802.75,-31.08 1829.75,-13.08 1856.75,-31.08 1829.75,-49.08"/>
<text text-anchor="middle" x="1829.75" y="-26.06" font-family="Times New Roman,serif" font-size="12.00">X</text>
</g>
<!-- 2547394356688&#45;&gt;2547395419824 -->
<g id="edge24" class="edge">
<title>2547394356688&#45;&gt;2547395419824</title>
<path fill="none" stroke="black" d="M1760.96,-32.32C1770.93,-32.14 1781.51,-31.95 1791.27,-31.77"/>
<polygon fill="black" stroke="black" points="1791.24,-35.27 1801.17,-31.59 1791.11,-28.27 1791.24,-35.27"/>
</g>
<!-- 2547395419824&#45;&gt;2547395426496 -->
<g id="edge25" class="edge">
<title>2547395419824&#45;&gt;2547395426496</title>
<path fill="none" stroke="black" d="M1813.96,-23.24C1801.7,-17.2 1783.61,-9.36 1766.75,-6.08 1724.43,2.13 1712.13,1.83 1669.75,-6.08 1657.24,-8.42 1644.01,-13.2 1632.99,-17.88"/>
<polygon fill="black" stroke="black" points="1631.9,-14.53 1624.21,-21.81 1634.77,-20.92 1631.9,-14.53"/>
</g>
<!-- 2547394360048 -->
<g id="node23" class="node">
<title>2547394360048</title>
<polygon fill="none" stroke="black" points="1919.75,-76.08 1892.75,-58.08 1919.75,-40.08 1946.75,-58.08 1919.75,-76.08"/>
<text text-anchor="middle" x="1919.75" y="-53.06" font-family="Times New Roman,serif" font-size="12.00">+</text>
</g>
<!-- 2547395419824&#45;&gt;2547394360048 -->
<g id="edge27" class="edge">
<title>2547395419824&#45;&gt;2547394360048</title>
<path fill="none" stroke="black" d="M1848.98,-36.68C1860.78,-40.3 1876.4,-45.09 1889.86,-49.22"/>
<polygon fill="black" stroke="black" points="1888.51,-52.47 1899.09,-52.05 1890.56,-45.77 1888.51,-52.47"/>
</g>
<!-- 2547395419920&#45;&gt;2547395418768 -->
<g id="edge26" class="edge">
<title>2547395419920&#45;&gt;2547395418768</title>
<path fill="none" stroke="black" d="M1802.34,-84.97C1763.39,-84.79 1690.33,-84.46 1645.66,-84.26"/>
<polygon fill="black" stroke="black" points="1645.94,-80.76 1635.92,-84.21 1645.91,-87.76 1645.94,-80.76"/>
</g>
<!-- 2547395419920&#45;&gt;2547394360048 -->
<g id="edge28" class="edge">
<title>2547395419920&#45;&gt;2547394360048</title>
<path fill="none" stroke="black" d="M1848.98,-79.49C1860.78,-75.87 1876.4,-71.08 1889.86,-66.95"/>
<polygon fill="black" stroke="black" points="1890.56,-70.4 1899.09,-64.12 1888.51,-63.7 1890.56,-70.4"/>
</g>
<!-- 2547394362352 -->
<g id="node24" class="node">
<title>2547394362352</title>
<polygon fill="none" stroke="black" points="2133.75,-76.08 1982.75,-76.08 1982.75,-40.08 2133.75,-40.08 2133.75,-76.08"/>
<text text-anchor="middle" x="2058.25" y="-53.06" font-family="Times New Roman,serif" font-size="12.00">Customer completes journey</text>
</g>
<!-- 2547394360048&#45;&gt;2547394362352 -->
<g id="edge29" class="edge">
<title>2547394360048&#45;&gt;2547394362352</title>
<path fill="none" stroke="black" d="M1947.39,-58.08C1954.51,-58.08 1962.61,-58.08 1971.11,-58.08"/>
<polygon fill="black" stroke="black" points="1970.94,-61.58 1980.94,-58.08 1970.94,-54.58 1970.94,-61.58"/>
</g>
<!-- 2547394355248 -->
<g id="node25" class="node">
<title>2547394355248</title>
<polygon fill="none" stroke="black" points="2335,-76.08 2169.75,-76.08 2169.75,-40.08 2335,-40.08 2335,-76.08"/>
<text text-anchor="middle" x="2252.38" y="-53.06" font-family="Times New Roman,serif" font-size="12.00">Post&#45;travel feedback or services</text>
</g>
<!-- 2547394362352&#45;&gt;2547394355248 -->
<g id="edge30" class="edge">
<title>2547394362352&#45;&gt;2547394355248</title>
<path fill="none" stroke="black" d="M2134.08,-58.08C2141.96,-58.08 2150.04,-58.08 2158.09,-58.08"/>
<polygon fill="black" stroke="black" points="2157.92,-61.58 2167.92,-58.08 2157.92,-54.58 2157.92,-61.58"/>
</g>
<!-- 2547394886976 -->
<g id="node26" class="node">
<title>2547394886976</title>
<ellipse fill="orange" stroke="black" cx="2389" cy="-58.08" rx="18" ry="18"/>
</g>
<!-- 2547394355248&#45;&gt;2547394886976 -->
<g id="edge31" class="edge">
<title>2547394355248&#45;&gt;2547394886976</title>
<path fill="none" stroke="black" d="M2335.18,-58.08C2343.79,-58.08 2352.06,-58.08 2359.4,-58.08"/>
<polygon fill="black" stroke="black" points="2359.26,-61.58 2369.26,-58.08 2359.26,-54.58 2359.26,-61.58"/>
</g>
</g>
</svg>
