<?xml version="1.0" encoding="UTF-8" standalone="no"?>
<!DOCTYPE svg PUBLIC "-//W3C//DTD SVG 1.1//EN"
 "http://www.w3.org/Graphics/SVG/1.1/DTD/svg11.dtd">
<!-- Generated by graphviz version 11.0.0 (20240428.1522)
 -->
<!-- Pages: 1 -->
<svg width="2340pt" height="98pt"
 viewBox="0.00 0.00 2339.75 98.00" xmlns="http://www.w3.org/2000/svg" xmlns:xlink="http://www.w3.org/1999/xlink">
<g id="graph0" class="graph" transform="scale(1 1) rotate(0) translate(4 94)">
<polygon fill="white" stroke="none" points="-4,4 -4,-94 2335.75,-94 2335.75,4 -4,4"/>
<!-- 2547395568048 -->
<g id="node1" class="node">
<title>2547395568048</title>
<ellipse fill="green" stroke="black" cx="18" cy="-45" rx="18" ry="18"/>
</g>
<!-- 2547395572272 -->
<g id="node2" class="node">
<title>2547395572272</title>
<polygon fill="none" stroke="black" points="221.5,-63 72,-63 72,-27 221.5,-27 221.5,-63"/>
<text text-anchor="middle" x="146.75" y="-39.98" font-family="Times New Roman,serif" font-size="12.00">Customer searches for ticket</text>
</g>
<!-- 2547395568048&#45;&gt;2547395572272 -->
<g id="edge1" class="edge">
<title>2547395568048&#45;&gt;2547395572272</title>
<path fill="none" stroke="black" d="M36.36,-45C43.15,-45 51.48,-45 60.48,-45"/>
<polygon fill="black" stroke="black" points="60.22,-48.5 70.22,-45 60.22,-41.5 60.22,-48.5"/>
</g>
<!-- 2547395571600 -->
<g id="node3" class="node">
<title>2547395571600</title>
<polygon fill="none" stroke="black" points="329,-63 257.5,-63 257.5,-27 329,-27 329,-63"/>
<text text-anchor="middle" x="293.25" y="-39.98" font-family="Times New Roman,serif" font-size="12.00">Select route</text>
</g>
<!-- 2547395572272&#45;&gt;2547395571600 -->
<g id="edge2" class="edge">
<title>2547395572272&#45;&gt;2547395571600</title>
<path fill="none" stroke="black" d="M221.69,-45C229.9,-45 238.08,-45 245.8,-45"/>
<polygon fill="black" stroke="black" points="245.61,-48.5 255.61,-45 245.61,-41.5 245.61,-48.5"/>
</g>
<!-- 2547395571936 -->
<g id="node4" class="node">
<title>2547395571936</title>
<polygon fill="none" stroke="black" points="475.5,-63 365,-63 365,-27 475.5,-27 475.5,-63"/>
<text text-anchor="middle" x="420.25" y="-39.98" font-family="Times New Roman,serif" font-size="12.00">Select date and time</text>
</g>
<!-- 2547395571600&#45;&gt;2547395571936 -->
<g id="edge3" class="edge">
<title>2547395571600&#45;&gt;2547395571936</title>
<path fill="none" stroke="black" d="M329.4,-45C336.95,-45 345.16,-45 353.44,-45"/>
<polygon fill="black" stroke="black" points="353.22,-48.5 363.22,-45 353.22,-41.5 353.22,-48.5"/>
</g>
<!-- 2547395573568 -->
<g id="node5" class="node">
<title>2547395573568</title>
<polygon fill="none" stroke="black" points="664.75,-63 511.5,-63 511.5,-27 664.75,-27 664.75,-63"/>
<text text-anchor="middle" x="588.12" y="-39.98" font-family="Times New Roman,serif" font-size="12.00">Provide personal information</text>
</g>
<!-- 2547395571936&#45;&gt;2547395573568 -->
<g id="edge4" class="edge">
<title>2547395571936&#45;&gt;2547395573568</title>
<path fill="none" stroke="black" d="M475.56,-45C483.36,-45 491.54,-45 499.78,-45"/>
<polygon fill="black" stroke="black" points="499.5,-48.5 509.5,-45 499.5,-41.5 499.5,-48.5"/>
</g>
<!-- 2547395572848 -->
<g id="node6" class="node">
<title>2547395572848</title>
<polygon fill="none" stroke="black" points="830,-63 700.75,-63 700.75,-27 830,-27 830,-63"/>
<text text-anchor="middle" x="765.38" y="-39.98" font-family="Times New Roman,serif" font-size="12.00">Provide payment details</text>
</g>
<!-- 2547395573568&#45;&gt;2547395572848 -->
<g id="edge5" class="edge">
<title>2547395573568&#45;&gt;2547395572848</title>
<path fill="none" stroke="black" d="M665.23,-45C673.11,-45 681.12,-45 688.99,-45"/>
<polygon fill="black" stroke="black" points="688.89,-48.5 698.89,-45 688.89,-41.5 688.89,-48.5"/>
</g>
<!-- 2547395575104 -->
<g id="node7" class="node">
<title>2547395575104</title>
<polygon fill="none" stroke="black" points="893,-63 866,-45 893,-27 920,-45 893,-63"/>
<text text-anchor="middle" x="893" y="-39.98" font-family="Times New Roman,serif" font-size="12.00">+</text>
</g>
<!-- 2547395572848&#45;&gt;2547395575104 -->
<g id="edge6" class="edge">
<title>2547395572848&#45;&gt;2547395575104</title>
<path fill="none" stroke="black" d="M830.29,-45C838.41,-45 846.5,-45 854.02,-45"/>
<polygon fill="black" stroke="black" points="853.78,-48.5 863.78,-45 853.78,-41.5 853.78,-48.5"/>
</g>
<!-- 2547395575632 -->
<g id="node8" class="node">
<title>2547395575632</title>
<polygon fill="none" stroke="black" points="1043.25,-88 956,-88 956,-52 1043.25,-52 1043.25,-88"/>
<text text-anchor="middle" x="999.62" y="-64.97" font-family="Times New Roman,serif" font-size="12.00">Generate ticket</text>
</g>
<!-- 2547395575104&#45;&gt;2547395575632 -->
<g id="edge8" class="edge">
<title>2547395575104&#45;&gt;2547395575632</title>
<path fill="none" stroke="black" d="M913.68,-49.7C922.56,-51.82 933.53,-54.44 944.6,-57.09"/>
<polygon fill="black" stroke="black" points="943.61,-60.45 954.15,-59.37 945.24,-53.65 943.61,-60.45"/>
</g>
<!-- 2547395572656 -->
<g id="node9" class="node">
<title>2547395572656</title>
<polygon fill="none" stroke="black" points="1198.75,-36 1079.25,-36 1079.25,0 1198.75,0 1198.75,-36"/>
<text text-anchor="middle" x="1139" y="-12.97" font-family="Times New Roman,serif" font-size="12.00">Update seat inventory</text>
</g>
<!-- 2547395575104&#45;&gt;2547395572656 -->
<g id="edge7" class="edge">
<title>2547395575104&#45;&gt;2547395572656</title>
<path fill="none" stroke="black" d="M916.95,-42.46C951.09,-38.68 1016.67,-31.43 1067.57,-25.79"/>
<polygon fill="black" stroke="black" points="1067.79,-29.29 1077.35,-24.71 1067.02,-22.33 1067.79,-29.29"/>
</g>
<!-- 2547395573136 -->
<g id="node10" class="node">
<title>2547395573136</title>
<polygon fill="none" stroke="black" points="1196.12,-90 1081.88,-90 1081.88,-54 1196.12,-54 1196.12,-90"/>
<text text-anchor="middle" x="1139" y="-66.97" font-family="Times New Roman,serif" font-size="12.00">Send ticket via email</text>
</g>
<!-- 2547395575632&#45;&gt;2547395573136 -->
<g id="edge9" class="edge">
<title>2547395575632&#45;&gt;2547395573136</title>
<path fill="none" stroke="black" d="M1043.71,-70.63C1052.12,-70.75 1061.13,-70.88 1070.12,-71.01"/>
<polygon fill="black" stroke="black" points="1069.89,-74.51 1079.94,-71.15 1069.99,-67.51 1069.89,-74.51"/>
</g>
<!-- 2547395575200 -->
<g id="node11" class="node">
<title>2547395575200</title>
<polygon fill="none" stroke="black" points="1410.5,-63 1383.5,-45 1410.5,-27 1437.5,-45 1410.5,-63"/>
<text text-anchor="middle" x="1410.5" y="-39.98" font-family="Times New Roman,serif" font-size="12.00">+</text>
</g>
<!-- 2547395572656&#45;&gt;2547395575200 -->
<g id="edge10" class="edge">
<title>2547395572656&#45;&gt;2547395575200</title>
<path fill="none" stroke="black" d="M1199.14,-23.93C1252.94,-29.31 1330.49,-37.08 1374.86,-41.53"/>
<polygon fill="black" stroke="black" points="1374.37,-45 1384.67,-42.51 1375.07,-38.03 1374.37,-45"/>
</g>
<!-- 2547395574720 -->
<g id="node13" class="node">
<title>2547395574720</title>
<polygon fill="none" stroke="black" points="1347.5,-88 1234.75,-88 1234.75,-52 1347.5,-52 1347.5,-88"/>
<text text-anchor="middle" x="1291.12" y="-64.97" font-family="Times New Roman,serif" font-size="12.00">Send ticket via SMS</text>
</g>
<!-- 2547395573136&#45;&gt;2547395574720 -->
<g id="edge11" class="edge">
<title>2547395573136&#45;&gt;2547395574720</title>
<path fill="none" stroke="black" d="M1196.33,-71.25C1205.1,-71.13 1214.24,-71.01 1223.23,-70.89"/>
<polygon fill="black" stroke="black" points="1223.01,-74.39 1232.97,-70.76 1222.92,-67.4 1223.01,-74.39"/>
</g>
<!-- 2547395573424 -->
<g id="node12" class="node">
<title>2547395573424</title>
<polygon fill="none" stroke="black" points="1558.5,-63 1473.5,-63 1473.5,-27 1558.5,-27 1558.5,-63"/>
<text text-anchor="middle" x="1516" y="-39.98" font-family="Times New Roman,serif" font-size="12.00">Send reminder</text>
</g>
<!-- 2547395575200&#45;&gt;2547395573424 -->
<g id="edge12" class="edge">
<title>2547395575200&#45;&gt;2547395573424</title>
<path fill="none" stroke="black" d="M1438.15,-45C1445.4,-45 1453.51,-45 1461.68,-45"/>
<polygon fill="black" stroke="black" points="1461.66,-48.5 1471.66,-45 1461.66,-41.5 1461.66,-48.5"/>
</g>
<!-- 2547395574240 -->
<g id="node14" class="node">
<title>2547395574240</title>
<polygon fill="none" stroke="black" points="1691.5,-63 1594.5,-63 1594.5,-27 1691.5,-27 1691.5,-63"/>
<text text-anchor="middle" x="1643" y="-39.98" font-family="Times New Roman,serif" font-size="12.00">Send instructions</text>
</g>
<!-- 2547395573424&#45;&gt;2547395574240 -->
<g id="edge14" class="edge">
<title>2547395573424&#45;&gt;2547395574240</title>
<path fill="none" stroke="black" d="M1558.97,-45C1566.68,-45 1574.87,-45 1582.97,-45"/>
<polygon fill="black" stroke="black" points="1582.81,-48.5 1592.81,-45 1582.81,-41.5 1582.81,-48.5"/>
</g>
<!-- 2547395574720&#45;&gt;2547395575200 -->
<g id="edge13" class="edge">
<title>2547395574720&#45;&gt;2547395575200</title>
<path fill="none" stroke="black" d="M1347.72,-58.16C1358.13,-55.94 1368.68,-53.69 1378.04,-51.7"/>
<polygon fill="black" stroke="black" points="1378.63,-55.15 1387.68,-49.65 1377.17,-48.31 1378.63,-55.15"/>
</g>
<!-- 2547395571264 -->
<g id="node15" class="node">
<title>2547395571264</title>
<polygon fill="none" stroke="black" points="1878.5,-63 1727.5,-63 1727.5,-27 1878.5,-27 1878.5,-63"/>
<text text-anchor="middle" x="1803" y="-39.98" font-family="Times New Roman,serif" font-size="12.00">Customer completes journey</text>
</g>
<!-- 2547395574240&#45;&gt;2547395571264 -->
<g id="edge15" class="edge">
<title>2547395574240&#45;&gt;2547395571264</title>
<path fill="none" stroke="black" d="M1691.83,-45C1699.51,-45 1707.66,-45 1715.92,-45"/>
<polygon fill="black" stroke="black" points="1715.69,-48.5 1725.69,-45 1715.69,-41.5 1715.69,-48.5"/>
</g>
<!-- 2547395890352 -->
<g id="node16" class="node">
<title>2547395890352</title>
<polygon fill="none" stroke="black" points="1941.5,-63 1914.5,-45 1941.5,-27 1968.5,-45 1941.5,-63"/>
<text text-anchor="middle" x="1941.5" y="-39.98" font-family="Times New Roman,serif" font-size="12.00">X</text>
</g>
<!-- 2547395571264&#45;&gt;2547395890352 -->
<g id="edge16" class="edge">
<title>2547395571264&#45;&gt;2547395890352</title>
<path fill="none" stroke="black" d="M1878.64,-45C1886.79,-45 1894.82,-45 1902.26,-45"/>
<polygon fill="black" stroke="black" points="1902.24,-48.5 1912.24,-45 1902.24,-41.5 1902.24,-48.5"/>
</g>
<!-- 2547395890400 -->
<g id="node17" class="node">
<title>2547395890400</title>
<polygon fill="none" stroke="black" points="2232.75,-63 2205.75,-45 2232.75,-27 2259.75,-45 2232.75,-63"/>
<text text-anchor="middle" x="2232.75" y="-39.98" font-family="Times New Roman,serif" font-size="12.00">X</text>
</g>
<!-- 2547395890352&#45;&gt;2547395890400 -->
<g id="edge18" class="edge">
<title>2547395890352&#45;&gt;2547395890400</title>
<path fill="none" stroke="black" d="M1966.33,-46.9C1977.85,-47.72 1991.89,-48.59 2004.5,-49 2077.91,-51.37 2096.34,-51.37 2169.75,-49 2178.42,-48.72 2187.77,-48.22 2196.5,-47.67"/>
<polygon fill="black" stroke="black" points="2196.67,-51.17 2206.41,-47 2196.2,-44.18 2196.67,-51.17"/>
</g>
<!-- 2547395574192 -->
<g id="node18" class="node">
<title>2547395574192</title>
<polygon fill="none" stroke="black" points="2169.75,-40 2004.5,-40 2004.5,-4 2169.75,-4 2169.75,-40"/>
<text text-anchor="middle" x="2087.12" y="-16.98" font-family="Times New Roman,serif" font-size="12.00">Post&#45;travel feedback or services</text>
</g>
<!-- 2547395890352&#45;&gt;2547395574192 -->
<g id="edge17" class="edge">
<title>2547395890352&#45;&gt;2547395574192</title>
<path fill="none" stroke="black" d="M1964,-41.56C1972.19,-40.25 1982.13,-38.65 1992.77,-36.95"/>
<polygon fill="black" stroke="black" points="1993.25,-40.42 2002.57,-35.38 1992.14,-33.51 1993.25,-40.42"/>
</g>
<!-- 2547395567952 -->
<g id="node19" class="node">
<title>2547395567952</title>
<ellipse fill="orange" stroke="black" cx="2313.75" cy="-45" rx="18" ry="18"/>
</g>
<!-- 2547395890400&#45;&gt;2547395567952 -->
<g id="edge20" class="edge">
<title>2547395890400&#45;&gt;2547395567952</title>
<path fill="none" stroke="black" d="M2260.5,-45C2268.13,-45 2276.48,-45 2284.22,-45"/>
<polygon fill="black" stroke="black" points="2284.18,-48.5 2294.18,-45 2284.18,-41.5 2284.18,-48.5"/>
</g>
<!-- 2547395574192&#45;&gt;2547395890400 -->
<g id="edge19" class="edge">
<title>2547395574192&#45;&gt;2547395890400</title>
<path fill="none" stroke="black" d="M2170.01,-35.11C2180.23,-36.75 2190.17,-38.34 2198.99,-39.75"/>
<polygon fill="black" stroke="black" points="2198.31,-43.19 2208.73,-41.31 2199.41,-36.28 2198.31,-43.19"/>
</g>
</g>
</svg>
