<?xml version="1.0" encoding="UTF-8" standalone="no"?>
<!DOCTYPE svg PUBLIC "-//W3C//DTD SVG 1.1//EN"
 "http://www.w3.org/Graphics/SVG/1.1/DTD/svg11.dtd">
<!-- Generated by graphviz version 11.0.0 (20240428.1522)
 -->
<!-- Pages: 1 -->
<svg width="2220pt" height="186pt"
 viewBox="0.00 0.00 2220.25 186.00" xmlns="http://www.w3.org/2000/svg" xmlns:xlink="http://www.w3.org/1999/xlink">
<g id="graph0" class="graph" transform="scale(1 1) rotate(0) translate(4 182)">
<polygon fill="white" stroke="none" points="-4,4 -4,-182 2216.25,-182 2216.25,4 -4,4"/>
<!-- 2547395426016 -->
<g id="node1" class="node">
<title>2547395426016</title>
<ellipse fill="green" stroke="black" cx="18" cy="-114" rx="18" ry="18"/>
</g>
<!-- 2547395488912 -->
<g id="node2" class="node">
<title>2547395488912</title>
<polygon fill="none" stroke="black" points="99,-132 72,-114 99,-96 126,-114 99,-132"/>
<text text-anchor="middle" x="99" y="-108.97" font-family="Times New Roman,serif" font-size="12.00">X</text>
</g>
<!-- 2547395426016&#45;&gt;2547395488912 -->
<g id="edge1" class="edge">
<title>2547395426016&#45;&gt;2547395488912</title>
<path fill="none" stroke="black" d="M36.14,-114C43.11,-114 51.47,-114 59.75,-114"/>
<polygon fill="black" stroke="black" points="59.75,-117.5 69.75,-114 59.75,-110.5 59.75,-117.5"/>
</g>
<!-- 2547395479072 -->
<g id="node3" class="node">
<title>2547395479072</title>
<polygon fill="none" stroke="black" points="390.25,-132 363.25,-114 390.25,-96 417.25,-114 390.25,-132"/>
<text text-anchor="middle" x="390.25" y="-108.97" font-family="Times New Roman,serif" font-size="12.00">X</text>
</g>
<!-- 2547395488912&#45;&gt;2547395479072 -->
<g id="edge2" class="edge">
<title>2547395488912&#45;&gt;2547395479072</title>
<path fill="none" stroke="black" d="M123.83,-115.9C135.35,-116.72 149.39,-117.59 162,-118 235.41,-120.37 253.84,-120.37 327.25,-118 335.92,-117.72 345.27,-117.22 354,-116.67"/>
<polygon fill="black" stroke="black" points="354.17,-120.17 363.91,-116 353.7,-113.18 354.17,-120.17"/>
</g>
<!-- 2547395492848 -->
<g id="node4" class="node">
<title>2547395492848</title>
<polygon fill="none" stroke="black" points="327.25,-109 162,-109 162,-73 327.25,-73 327.25,-109"/>
<text text-anchor="middle" x="244.62" y="-85.97" font-family="Times New Roman,serif" font-size="12.00">Post&#45;travel feedback or services</text>
</g>
<!-- 2547395488912&#45;&gt;2547395492848 -->
<g id="edge3" class="edge">
<title>2547395488912&#45;&gt;2547395492848</title>
<path fill="none" stroke="black" d="M121.5,-110.56C129.69,-109.25 139.63,-107.65 150.27,-105.95"/>
<polygon fill="black" stroke="black" points="150.75,-109.42 160.07,-104.38 149.64,-102.51 150.75,-109.42"/>
</g>
<!-- 2547395479120 -->
<g id="node5" class="node">
<title>2547395479120</title>
<polygon fill="none" stroke="black" points="602.75,-132 453.25,-132 453.25,-96 602.75,-96 602.75,-132"/>
<text text-anchor="middle" x="528" y="-108.97" font-family="Times New Roman,serif" font-size="12.00">Customer searches for ticket</text>
</g>
<!-- 2547395479072&#45;&gt;2547395479120 -->
<g id="edge5" class="edge">
<title>2547395479072&#45;&gt;2547395479120</title>
<path fill="none" stroke="black" d="M418.07,-114C425.16,-114 433.21,-114 441.65,-114"/>
<polygon fill="black" stroke="black" points="441.4,-117.5 451.4,-114 441.4,-110.5 441.4,-117.5"/>
</g>
<!-- 2547395492848&#45;&gt;2547395479072 -->
<g id="edge4" class="edge">
<title>2547395492848&#45;&gt;2547395479072</title>
<path fill="none" stroke="black" d="M327.51,-104.11C337.73,-105.75 347.67,-107.34 356.49,-108.75"/>
<polygon fill="black" stroke="black" points="355.81,-112.19 366.23,-110.31 356.91,-105.28 355.81,-112.19"/>
</g>
<!-- 2547395560848 -->
<g id="node6" class="node">
<title>2547395560848</title>
<polygon fill="none" stroke="black" points="749.25,-132 638.75,-132 638.75,-96 749.25,-96 749.25,-132"/>
<text text-anchor="middle" x="694" y="-108.97" font-family="Times New Roman,serif" font-size="12.00">Select date and time</text>
</g>
<!-- 2547395479120&#45;&gt;2547395560848 -->
<g id="edge6" class="edge">
<title>2547395479120&#45;&gt;2547395560848</title>
<path fill="none" stroke="black" d="M602.84,-114C611.05,-114 619.37,-114 627.46,-114"/>
<polygon fill="black" stroke="black" points="627.2,-117.5 637.2,-114 627.2,-110.5 627.2,-117.5"/>
</g>
<!-- 2547395568720 -->
<g id="node7" class="node">
<title>2547395568720</title>
<polygon fill="none" stroke="black" points="856.75,-132 785.25,-132 785.25,-96 856.75,-96 856.75,-132"/>
<text text-anchor="middle" x="821" y="-108.97" font-family="Times New Roman,serif" font-size="12.00">Select route</text>
</g>
<!-- 2547395560848&#45;&gt;2547395568720 -->
<g id="edge7" class="edge">
<title>2547395560848&#45;&gt;2547395568720</title>
<path fill="none" stroke="black" d="M749.46,-114C757.41,-114 765.54,-114 773.32,-114"/>
<polygon fill="black" stroke="black" points="773.27,-117.5 783.27,-114 773.27,-110.5 773.27,-117.5"/>
</g>
<!-- 2547395493520 -->
<g id="node8" class="node">
<title>2547395493520</title>
<polygon fill="none" stroke="black" points="1046,-132 892.75,-132 892.75,-96 1046,-96 1046,-132"/>
<text text-anchor="middle" x="969.38" y="-108.97" font-family="Times New Roman,serif" font-size="12.00">Provide personal information</text>
</g>
<!-- 2547395568720&#45;&gt;2547395493520 -->
<g id="edge8" class="edge">
<title>2547395568720&#45;&gt;2547395493520</title>
<path fill="none" stroke="black" d="M857.06,-114C864.53,-114 872.73,-114 881.2,-114"/>
<polygon fill="black" stroke="black" points="880.92,-117.5 890.92,-114 880.92,-110.5 880.92,-117.5"/>
</g>
<!-- 2547395485648 -->
<g id="node9" class="node">
<title>2547395485648</title>
<polygon fill="none" stroke="black" points="1211.25,-132 1082,-132 1082,-96 1211.25,-96 1211.25,-132"/>
<text text-anchor="middle" x="1146.62" y="-108.97" font-family="Times New Roman,serif" font-size="12.00">Provide payment details</text>
</g>
<!-- 2547395493520&#45;&gt;2547395485648 -->
<g id="edge9" class="edge">
<title>2547395493520&#45;&gt;2547395485648</title>
<path fill="none" stroke="black" d="M1046.48,-114C1054.36,-114 1062.37,-114 1070.24,-114"/>
<polygon fill="black" stroke="black" points="1070.14,-117.5 1080.14,-114 1070.14,-110.5 1070.14,-117.5"/>
</g>
<!-- 2547395574240 -->
<g id="node10" class="node">
<title>2547395574240</title>
<polygon fill="none" stroke="black" points="1334.5,-132 1247.25,-132 1247.25,-96 1334.5,-96 1334.5,-132"/>
<text text-anchor="middle" x="1290.88" y="-108.97" font-family="Times New Roman,serif" font-size="12.00">Generate ticket</text>
</g>
<!-- 2547395485648&#45;&gt;2547395574240 -->
<g id="edge10" class="edge">
<title>2547395485648&#45;&gt;2547395574240</title>
<path fill="none" stroke="black" d="M1211.68,-114C1219.7,-114 1227.85,-114 1235.71,-114"/>
<polygon fill="black" stroke="black" points="1235.44,-117.5 1245.44,-114 1235.44,-110.5 1235.44,-117.5"/>
</g>
<!-- 2547395566704 -->
<g id="node11" class="node">
<title>2547395566704</title>
<polygon fill="none" stroke="black" points="1397.5,-132 1370.5,-114 1397.5,-96 1424.5,-114 1397.5,-132"/>
<text text-anchor="middle" x="1397.5" y="-108.97" font-family="Times New Roman,serif" font-size="12.00">+</text>
</g>
<!-- 2547395574240&#45;&gt;2547395566704 -->
<g id="edge11" class="edge">
<title>2547395574240&#45;&gt;2547395566704</title>
<path fill="none" stroke="black" d="M1334.73,-114C1342.6,-114 1350.77,-114 1358.48,-114"/>
<polygon fill="black" stroke="black" points="1358.24,-117.5 1368.24,-114 1358.24,-110.5 1358.24,-117.5"/>
</g>
<!-- 2547395478640 -->
<g id="node12" class="node">
<title>2547395478640</title>
<polygon fill="none" stroke="black" points="1747.88,-178 1635.12,-178 1635.12,-142 1747.88,-142 1747.88,-178"/>
<text text-anchor="middle" x="1691.5" y="-154.97" font-family="Times New Roman,serif" font-size="12.00">Send ticket via SMS</text>
</g>
<!-- 2547395566704&#45;&gt;2547395478640 -->
<g id="edge12" class="edge">
<title>2547395566704&#45;&gt;2547395478640</title>
<path fill="none" stroke="black" d="M1417.96,-118.83C1430.13,-121.75 1446.17,-125.39 1460.5,-128 1515.16,-137.96 1577.63,-146.47 1623.66,-152.2"/>
<polygon fill="black" stroke="black" points="1623.13,-155.66 1633.49,-153.42 1623.99,-148.72 1623.13,-155.66"/>
</g>
<!-- 2547395569248 -->
<g id="node13" class="node">
<title>2547395569248</title>
<polygon fill="none" stroke="black" points="1917.25,-132 1803,-132 1803,-96 1917.25,-96 1917.25,-132"/>
<text text-anchor="middle" x="1860.12" y="-108.97" font-family="Times New Roman,serif" font-size="12.00">Send ticket via email</text>
</g>
<!-- 2547395566704&#45;&gt;2547395569248 -->
<g id="edge13" class="edge">
<title>2547395566704&#45;&gt;2547395569248</title>
<path fill="none" stroke="black" d="M1425.26,-114C1495.77,-114 1688.33,-114 1791.59,-114"/>
<polygon fill="black" stroke="black" points="1791.3,-117.5 1801.3,-114 1791.3,-110.5 1791.3,-117.5"/>
</g>
<!-- 2547395566560 -->
<g id="node14" class="node">
<title>2547395566560</title>
<polygon fill="none" stroke="black" points="1580,-82 1460.5,-82 1460.5,-46 1580,-46 1580,-82"/>
<text text-anchor="middle" x="1520.25" y="-58.98" font-family="Times New Roman,serif" font-size="12.00">Update seat inventory</text>
</g>
<!-- 2547395566704&#45;&gt;2547395566560 -->
<g id="edge14" class="edge">
<title>2547395566704&#45;&gt;2547395566560</title>
<path fill="none" stroke="black" d="M1414.78,-107.26C1427.59,-101.95 1446.22,-94.24 1464.21,-86.79"/>
<polygon fill="black" stroke="black" points="1465.38,-90.09 1473.28,-83.03 1462.7,-83.63 1465.38,-90.09"/>
</g>
<!-- 2547395489200 -->
<g id="node15" class="node">
<title>2547395489200</title>
<polygon fill="none" stroke="black" points="2113.25,-113 2086.25,-95 2113.25,-77 2140.25,-95 2113.25,-113"/>
<text text-anchor="middle" x="2113.25" y="-89.97" font-family="Times New Roman,serif" font-size="12.00">+</text>
</g>
<!-- 2547395478640&#45;&gt;2547395489200 -->
<g id="edge15" class="edge">
<title>2547395478640&#45;&gt;2547395489200</title>
<path fill="none" stroke="black" d="M1748.26,-158.12C1819.42,-154.63 1945.81,-144.76 2050.25,-117 2061.88,-113.91 2074.45,-109.63 2085.2,-105.67"/>
<polygon fill="black" stroke="black" points="2086.11,-109.07 2094.22,-102.26 2083.63,-102.53 2086.11,-109.07"/>
</g>
<!-- 2547395569248&#45;&gt;2547395489200 -->
<g id="edge16" class="edge">
<title>2547395569248&#45;&gt;2547395489200</title>
<path fill="none" stroke="black" d="M1917.48,-109.74C1966.31,-106.04 2035.45,-100.81 2076.87,-97.68"/>
<polygon fill="black" stroke="black" points="2077.06,-101.17 2086.77,-96.93 2076.53,-94.19 2077.06,-101.17"/>
</g>
<!-- 2547395493376 -->
<g id="node16" class="node">
<title>2547395493376</title>
<polygon fill="none" stroke="black" points="1767,-82 1616,-82 1616,-46 1767,-46 1767,-82"/>
<text text-anchor="middle" x="1691.5" y="-58.98" font-family="Times New Roman,serif" font-size="12.00">Customer completes journey</text>
</g>
<!-- 2547395566560&#45;&gt;2547395493376 -->
<g id="edge17" class="edge">
<title>2547395566560&#45;&gt;2547395493376</title>
<path fill="none" stroke="black" d="M1580.45,-64C1588.16,-64 1596.18,-64 1604.22,-64"/>
<polygon fill="black" stroke="black" points="1604.05,-67.5 1614.05,-64 1604.05,-60.5 1604.05,-67.5"/>
</g>
<!-- 2547395412672 -->
<g id="node20" class="node">
<title>2547395412672</title>
<ellipse fill="orange" stroke="black" cx="2194.25" cy="-95" rx="18" ry="18"/>
</g>
<!-- 2547395489200&#45;&gt;2547395412672 -->
<g id="edge19" class="edge">
<title>2547395489200&#45;&gt;2547395412672</title>
<path fill="none" stroke="black" d="M2141,-95C2148.63,-95 2156.98,-95 2164.72,-95"/>
<polygon fill="black" stroke="black" points="2164.68,-98.5 2174.68,-95 2164.68,-91.5 2164.68,-98.5"/>
</g>
<!-- 2547395478448 -->
<g id="node17" class="node">
<title>2547395478448</title>
<polygon fill="none" stroke="black" points="1860.12,-78 1833.12,-60 1860.12,-42 1887.12,-60 1860.12,-78"/>
<text text-anchor="middle" x="1860.12" y="-54.98" font-family="Times New Roman,serif" font-size="12.00">+</text>
</g>
<!-- 2547395493376&#45;&gt;2547395478448 -->
<g id="edge18" class="edge">
<title>2547395493376&#45;&gt;2547395478448</title>
<path fill="none" stroke="black" d="M1767.04,-62.21C1786.15,-61.75 1805.87,-61.28 1822.14,-60.89"/>
<polygon fill="black" stroke="black" points="1821.89,-64.39 1831.81,-60.66 1821.73,-57.4 1821.89,-64.39"/>
</g>
<!-- 2547395573136 -->
<g id="node18" class="node">
<title>2547395573136</title>
<polygon fill="none" stroke="black" points="2044.25,-90 1959.25,-90 1959.25,-54 2044.25,-54 2044.25,-90"/>
<text text-anchor="middle" x="2001.75" y="-66.97" font-family="Times New Roman,serif" font-size="12.00">Send reminder</text>
</g>
<!-- 2547395478448&#45;&gt;2547395573136 -->
<g id="edge21" class="edge">
<title>2547395478448&#45;&gt;2547395573136</title>
<path fill="none" stroke="black" d="M1884.81,-62.04C1901.96,-63.51 1925.83,-65.56 1947.45,-67.42"/>
<polygon fill="black" stroke="black" points="1947.07,-70.9 1957.33,-68.27 1947.67,-63.92 1947.07,-70.9"/>
</g>
<!-- 2547395560272 -->
<g id="node19" class="node">
<title>2547395560272</title>
<polygon fill="none" stroke="black" points="2050.25,-36 1953.25,-36 1953.25,0 2050.25,0 2050.25,-36"/>
<text text-anchor="middle" x="2001.75" y="-12.97" font-family="Times New Roman,serif" font-size="12.00">Send instructions</text>
</g>
<!-- 2547395478448&#45;&gt;2547395560272 -->
<g id="edge20" class="edge">
<title>2547395478448&#45;&gt;2547395560272</title>
<path fill="none" stroke="black" d="M1879.38,-54.51C1895.32,-49.71 1919.38,-42.48 1941.87,-35.71"/>
<polygon fill="black" stroke="black" points="1942.73,-39.11 1951.3,-32.87 1940.72,-32.4 1942.73,-39.11"/>
</g>
<!-- 2547395573136&#45;&gt;2547395489200 -->
<g id="edge22" class="edge">
<title>2547395573136&#45;&gt;2547395489200</title>
<path fill="none" stroke="black" d="M2044.46,-80.76C2056.57,-83.3 2069.59,-86.04 2080.94,-88.42"/>
<polygon fill="black" stroke="black" points="2080.08,-91.82 2090.59,-90.45 2081.52,-84.97 2080.08,-91.82"/>
</g>
<!-- 2547395560272&#45;&gt;2547395489200 -->
<g id="edge23" class="edge">
<title>2547395560272&#45;&gt;2547395489200</title>
<path fill="none" stroke="black" d="M2036.64,-36.37C2041.29,-39.14 2045.94,-42.06 2050.25,-45 2064.86,-54.95 2080.34,-67.43 2092.18,-77.43"/>
<polygon fill="black" stroke="black" points="2089.78,-79.99 2099.65,-83.84 2094.34,-74.67 2089.78,-79.99"/>
</g>
</g>
</svg>
