<?xml version="1.0" encoding="UTF-8" standalone="no"?>
<!DOCTYPE svg PUBLIC "-//W3C//DTD SVG 1.1//EN"
 "http://www.w3.org/Graphics/SVG/1.1/DTD/svg11.dtd">
<!-- Generated by graphviz version 11.0.0 (20240428.1522)
 -->
<!-- Pages: 1 -->
<svg width="2310pt" height="67pt"
 viewBox="0.00 0.00 2310.00 67.00" xmlns="http://www.w3.org/2000/svg" xmlns:xlink="http://www.w3.org/1999/xlink">
<g id="graph0" class="graph" transform="scale(1 1) rotate(0) translate(4 63)">
<polygon fill="white" stroke="none" points="-4,4 -4,-63 2306,-63 2306,4 -4,4"/>
<!-- 2547395572656 -->
<g id="node1" class="node">
<title>2547395572656</title>
<ellipse fill="green" stroke="black" cx="18" cy="-41" rx="18" ry="18"/>
</g>
<!-- 2547395572992 -->
<g id="node2" class="node">
<title>2547395572992</title>
<polygon fill="none" stroke="black" points="221.5,-59 72,-59 72,-23 221.5,-23 221.5,-59"/>
<text text-anchor="middle" x="146.75" y="-35.98" font-family="Times New Roman,serif" font-size="12.00">Customer searches for ticket</text>
</g>
<!-- 2547395572656&#45;&gt;2547395572992 -->
<g id="edge1" class="edge">
<title>2547395572656&#45;&gt;2547395572992</title>
<path fill="none" stroke="black" d="M36.36,-41C43.15,-41 51.48,-41 60.48,-41"/>
<polygon fill="black" stroke="black" points="60.22,-44.5 70.22,-41 60.22,-37.5 60.22,-44.5"/>
</g>
<!-- 2547395898176 -->
<g id="node3" class="node">
<title>2547395898176</title>
<polygon fill="none" stroke="black" points="368,-59 257.5,-59 257.5,-23 368,-23 368,-59"/>
<text text-anchor="middle" x="312.75" y="-35.98" font-family="Times New Roman,serif" font-size="12.00">Select date and time</text>
</g>
<!-- 2547395572992&#45;&gt;2547395898176 -->
<g id="edge2" class="edge">
<title>2547395572992&#45;&gt;2547395898176</title>
<path fill="none" stroke="black" d="M221.59,-41C229.8,-41 238.12,-41 246.21,-41"/>
<polygon fill="black" stroke="black" points="245.95,-44.5 255.95,-41 245.95,-37.5 245.95,-44.5"/>
</g>
<!-- 2547395567376 -->
<g id="node4" class="node">
<title>2547395567376</title>
<polygon fill="none" stroke="black" points="475.5,-59 404,-59 404,-23 475.5,-23 475.5,-59"/>
<text text-anchor="middle" x="439.75" y="-35.98" font-family="Times New Roman,serif" font-size="12.00">Select route</text>
</g>
<!-- 2547395898176&#45;&gt;2547395567376 -->
<g id="edge3" class="edge">
<title>2547395898176&#45;&gt;2547395567376</title>
<path fill="none" stroke="black" d="M368.21,-41C376.16,-41 384.29,-41 392.07,-41"/>
<polygon fill="black" stroke="black" points="392.02,-44.5 402.02,-41 392.02,-37.5 392.02,-44.5"/>
</g>
<!-- 2547395567424 -->
<g id="node5" class="node">
<title>2547395567424</title>
<polygon fill="none" stroke="black" points="664.75,-59 511.5,-59 511.5,-23 664.75,-23 664.75,-59"/>
<text text-anchor="middle" x="588.12" y="-35.98" font-family="Times New Roman,serif" font-size="12.00">Provide personal information</text>
</g>
<!-- 2547395567376&#45;&gt;2547395567424 -->
<g id="edge4" class="edge">
<title>2547395567376&#45;&gt;2547395567424</title>
<path fill="none" stroke="black" d="M475.81,-41C483.28,-41 491.48,-41 499.95,-41"/>
<polygon fill="black" stroke="black" points="499.67,-44.5 509.67,-41 499.67,-37.5 499.67,-44.5"/>
</g>
<!-- 2547395567472 -->
<g id="node6" class="node">
<title>2547395567472</title>
<polygon fill="none" stroke="black" points="830,-59 700.75,-59 700.75,-23 830,-23 830,-59"/>
<text text-anchor="middle" x="765.38" y="-35.98" font-family="Times New Roman,serif" font-size="12.00">Provide payment details</text>
</g>
<!-- 2547395567424&#45;&gt;2547395567472 -->
<g id="edge5" class="edge">
<title>2547395567424&#45;&gt;2547395567472</title>
<path fill="none" stroke="black" d="M665.23,-41C673.11,-41 681.12,-41 688.99,-41"/>
<polygon fill="black" stroke="black" points="688.89,-44.5 698.89,-41 688.89,-37.5 688.89,-44.5"/>
</g>
<!-- 2547395568912 -->
<g id="node7" class="node">
<title>2547395568912</title>
<polygon fill="none" stroke="black" points="953.25,-59 866,-59 866,-23 953.25,-23 953.25,-59"/>
<text text-anchor="middle" x="909.62" y="-35.98" font-family="Times New Roman,serif" font-size="12.00">Generate ticket</text>
</g>
<!-- 2547395567472&#45;&gt;2547395568912 -->
<g id="edge6" class="edge">
<title>2547395567472&#45;&gt;2547395568912</title>
<path fill="none" stroke="black" d="M830.43,-41C838.45,-41 846.6,-41 854.46,-41"/>
<polygon fill="black" stroke="black" points="854.19,-44.5 864.19,-41 854.19,-37.5 854.19,-44.5"/>
</g>
<!-- 2547395564832 -->
<g id="node8" class="node">
<title>2547395564832</title>
<polygon fill="none" stroke="black" points="1108.75,-59 989.25,-59 989.25,-23 1108.75,-23 1108.75,-59"/>
<text text-anchor="middle" x="1049" y="-35.98" font-family="Times New Roman,serif" font-size="12.00">Update seat inventory</text>
</g>
<!-- 2547395568912&#45;&gt;2547395564832 -->
<g id="edge7" class="edge">
<title>2547395568912&#45;&gt;2547395564832</title>
<path fill="none" stroke="black" d="M953.71,-41C961.31,-41 969.39,-41 977.51,-41"/>
<polygon fill="black" stroke="black" points="977.44,-44.5 987.44,-41 977.44,-37.5 977.44,-44.5"/>
</g>
<!-- 2547395564880 -->
<g id="node9" class="node">
<title>2547395564880</title>
<polygon fill="none" stroke="black" points="1257.5,-59 1144.75,-59 1144.75,-23 1257.5,-23 1257.5,-59"/>
<text text-anchor="middle" x="1201.12" y="-35.98" font-family="Times New Roman,serif" font-size="12.00">Send ticket via SMS</text>
</g>
<!-- 2547395564832&#45;&gt;2547395564880 -->
<g id="edge8" class="edge">
<title>2547395564832&#45;&gt;2547395564880</title>
<path fill="none" stroke="black" d="M1108.9,-41C1116.83,-41 1125.01,-41 1133.07,-41"/>
<polygon fill="black" stroke="black" points="1132.82,-44.5 1142.82,-41 1132.82,-37.5 1132.82,-44.5"/>
</g>
<!-- 2547395564496 -->
<g id="node10" class="node">
<title>2547395564496</title>
<polygon fill="none" stroke="black" points="1407.75,-59 1293.5,-59 1293.5,-23 1407.75,-23 1407.75,-59"/>
<text text-anchor="middle" x="1350.62" y="-35.98" font-family="Times New Roman,serif" font-size="12.00">Send ticket via email</text>
</g>
<!-- 2547395564880&#45;&gt;2547395564496 -->
<g id="edge9" class="edge">
<title>2547395564880&#45;&gt;2547395564496</title>
<path fill="none" stroke="black" d="M1257.89,-41C1265.76,-41 1273.93,-41 1281.99,-41"/>
<polygon fill="black" stroke="black" points="1281.78,-44.5 1291.78,-41 1281.78,-37.5 1281.78,-44.5"/>
</g>
<!-- 2547395570880 -->
<g id="node11" class="node">
<title>2547395570880</title>
<polygon fill="none" stroke="black" points="1528.75,-59 1443.75,-59 1443.75,-23 1528.75,-23 1528.75,-59"/>
<text text-anchor="middle" x="1486.25" y="-35.98" font-family="Times New Roman,serif" font-size="12.00">Send reminder</text>
</g>
<!-- 2547395564496&#45;&gt;2547395570880 -->
<g id="edge10" class="edge">
<title>2547395564496&#45;&gt;2547395570880</title>
<path fill="none" stroke="black" d="M1407.91,-41C1415.96,-41 1424.22,-41 1432.2,-41"/>
<polygon fill="black" stroke="black" points="1432.14,-44.5 1442.14,-41 1432.14,-37.5 1432.14,-44.5"/>
</g>
<!-- 2547395565072 -->
<g id="node12" class="node">
<title>2547395565072</title>
<polygon fill="none" stroke="black" points="1661.75,-59 1564.75,-59 1564.75,-23 1661.75,-23 1661.75,-59"/>
<text text-anchor="middle" x="1613.25" y="-35.98" font-family="Times New Roman,serif" font-size="12.00">Send instructions</text>
</g>
<!-- 2547395570880&#45;&gt;2547395565072 -->
<g id="edge11" class="edge">
<title>2547395570880&#45;&gt;2547395565072</title>
<path fill="none" stroke="black" d="M1529.22,-41C1536.93,-41 1545.12,-41 1553.22,-41"/>
<polygon fill="black" stroke="black" points="1553.06,-44.5 1563.06,-41 1553.06,-37.5 1553.06,-44.5"/>
</g>
<!-- 2547395564208 -->
<g id="node13" class="node">
<title>2547395564208</title>
<polygon fill="none" stroke="black" points="1848.75,-59 1697.75,-59 1697.75,-23 1848.75,-23 1848.75,-59"/>
<text text-anchor="middle" x="1773.25" y="-35.98" font-family="Times New Roman,serif" font-size="12.00">Customer completes journey</text>
</g>
<!-- 2547395565072&#45;&gt;2547395564208 -->
<g id="edge12" class="edge">
<title>2547395565072&#45;&gt;2547395564208</title>
<path fill="none" stroke="black" d="M1662.08,-41C1669.76,-41 1677.91,-41 1686.17,-41"/>
<polygon fill="black" stroke="black" points="1685.94,-44.5 1695.94,-41 1685.94,-37.5 1685.94,-44.5"/>
</g>
<!-- 2547396529760 -->
<g id="node14" class="node">
<title>2547396529760</title>
<polygon fill="none" stroke="black" points="1911.75,-59 1884.75,-41 1911.75,-23 1938.75,-41 1911.75,-59"/>
<text text-anchor="middle" x="1911.75" y="-35.98" font-family="Times New Roman,serif" font-size="12.00">X</text>
</g>
<!-- 2547395564208&#45;&gt;2547396529760 -->
<g id="edge13" class="edge">
<title>2547395564208&#45;&gt;2547396529760</title>
<path fill="none" stroke="black" d="M1848.89,-41C1857.04,-41 1865.07,-41 1872.51,-41"/>
<polygon fill="black" stroke="black" points="1872.49,-44.5 1882.49,-41 1872.49,-37.5 1872.49,-44.5"/>
</g>
<!-- 2547395897504 -->
<g id="node15" class="node">
<title>2547395897504</title>
<polygon fill="none" stroke="black" points="2203,-59 2176,-41 2203,-23 2230,-41 2203,-59"/>
<text text-anchor="middle" x="2203" y="-35.98" font-family="Times New Roman,serif" font-size="12.00">X</text>
</g>
<!-- 2547396529760&#45;&gt;2547395897504 -->
<g id="edge14" class="edge">
<title>2547396529760&#45;&gt;2547395897504</title>
<path fill="none" stroke="black" d="M1936.58,-42.9C1948.1,-43.72 1962.14,-44.59 1974.75,-45 2048.16,-47.37 2066.59,-47.37 2140,-45 2148.67,-44.72 2158.02,-44.22 2166.75,-43.67"/>
<polygon fill="black" stroke="black" points="2166.92,-47.17 2176.66,-43 2166.45,-40.18 2166.92,-47.17"/>
</g>
<!-- 2547395574864 -->
<g id="node16" class="node">
<title>2547395574864</title>
<polygon fill="none" stroke="black" points="2140,-36 1974.75,-36 1974.75,0 2140,0 2140,-36"/>
<text text-anchor="middle" x="2057.38" y="-12.97" font-family="Times New Roman,serif" font-size="12.00">Post&#45;travel feedback or services</text>
</g>
<!-- 2547396529760&#45;&gt;2547395574864 -->
<g id="edge15" class="edge">
<title>2547396529760&#45;&gt;2547395574864</title>
<path fill="none" stroke="black" d="M1934.25,-37.56C1942.44,-36.25 1952.38,-34.65 1963.02,-32.95"/>
<polygon fill="black" stroke="black" points="1963.5,-36.42 1972.82,-31.38 1962.39,-29.51 1963.5,-36.42"/>
</g>
<!-- 2547395575200 -->
<g id="node17" class="node">
<title>2547395575200</title>
<ellipse fill="orange" stroke="black" cx="2284" cy="-41" rx="18" ry="18"/>
</g>
<!-- 2547395897504&#45;&gt;2547395575200 -->
<g id="edge17" class="edge">
<title>2547395897504&#45;&gt;2547395575200</title>
<path fill="none" stroke="black" d="M2230.75,-41C2238.38,-41 2246.73,-41 2254.47,-41"/>
<polygon fill="black" stroke="black" points="2254.43,-44.5 2264.43,-41 2254.43,-37.5 2254.43,-44.5"/>
</g>
<!-- 2547395574864&#45;&gt;2547395897504 -->
<g id="edge16" class="edge">
<title>2547395574864&#45;&gt;2547395897504</title>
<path fill="none" stroke="black" d="M2140.26,-31.11C2150.48,-32.75 2160.42,-34.34 2169.24,-35.75"/>
<polygon fill="black" stroke="black" points="2168.56,-39.19 2178.98,-37.31 2169.66,-32.28 2168.56,-39.19"/>
</g>
</g>
</svg>
