<?xml version="1.0" encoding="UTF-8" standalone="no"?>
<!DOCTYPE svg PUBLIC "-//W3C//DTD SVG 1.1//EN"
 "http://www.w3.org/Graphics/SVG/1.1/DTD/svg11.dtd">
<!-- Generated by graphviz version 11.0.0 (20240428.1522)
 -->
<!-- Pages: 1 -->
<svg width="2675pt" height="223pt"
 viewBox="0.00 0.00 2675.25 223.00" xmlns="http://www.w3.org/2000/svg" xmlns:xlink="http://www.w3.org/1999/xlink">
<g id="graph0" class="graph" transform="scale(1 1) rotate(0) translate(4 219)">
<polygon fill="white" stroke="none" points="-4,4 -4,-219 2671.25,-219 2671.25,4 -4,4"/>
<!-- 2547394543104 -->
<g id="node1" class="node">
<title>2547394543104</title>
<ellipse fill="green" stroke="black" cx="18" cy="-45" rx="18" ry="18"/>
</g>
<!-- 2547394355776 -->
<g id="node2" class="node">
<title>2547394355776</title>
<polygon fill="none" stroke="black" points="223,-63 72,-63 72,-27 223,-27 223,-63"/>
<text text-anchor="middle" x="147.5" y="-39.98" font-family="Times New Roman,serif" font-size="12.00">Customer completes journey</text>
</g>
<!-- 2547394543104&#45;&gt;2547394355776 -->
<g id="edge1" class="edge">
<title>2547394543104&#45;&gt;2547394355776</title>
<path fill="none" stroke="black" d="M36.46,-45C43.25,-45 51.56,-45 60.54,-45"/>
<polygon fill="black" stroke="black" points="60.25,-48.5 70.25,-45 60.25,-41.5 60.25,-48.5"/>
</g>
<!-- 2547394620368 -->
<g id="node3" class="node">
<title>2547394620368</title>
<polygon fill="none" stroke="black" points="344,-63 259,-63 259,-27 344,-27 344,-63"/>
<text text-anchor="middle" x="301.5" y="-39.98" font-family="Times New Roman,serif" font-size="12.00">Send reminder</text>
</g>
<!-- 2547394355776&#45;&gt;2547394620368 -->
<g id="edge2" class="edge">
<title>2547394355776&#45;&gt;2547394620368</title>
<path fill="none" stroke="black" d="M223.16,-45C231.24,-45 239.34,-45 247.09,-45"/>
<polygon fill="black" stroke="black" points="247.03,-48.5 257.03,-45 247.03,-41.5 247.03,-48.5"/>
</g>
<!-- 2547394361200 -->
<g id="node4" class="node">
<title>2547394361200</title>
<polygon fill="none" stroke="black" points="529.5,-63 380,-63 380,-27 529.5,-27 529.5,-63"/>
<text text-anchor="middle" x="454.75" y="-39.98" font-family="Times New Roman,serif" font-size="12.00">Customer searches for ticket</text>
</g>
<!-- 2547394620368&#45;&gt;2547394361200 -->
<g id="edge3" class="edge">
<title>2547394620368&#45;&gt;2547394361200</title>
<path fill="none" stroke="black" d="M344.23,-45C351.8,-45 359.95,-45 368.26,-45"/>
<polygon fill="black" stroke="black" points="368.14,-48.5 378.14,-45 368.14,-41.5 368.14,-48.5"/>
</g>
<!-- 2547394352848 -->
<g id="node5" class="node">
<title>2547394352848</title>
<polygon fill="none" stroke="black" points="592.5,-63 565.5,-45 592.5,-27 619.5,-45 592.5,-63"/>
<text text-anchor="middle" x="592.5" y="-39.98" font-family="Times New Roman,serif" font-size="12.00">+</text>
</g>
<!-- 2547394361200&#45;&gt;2547394352848 -->
<g id="edge4" class="edge">
<title>2547394361200&#45;&gt;2547394352848</title>
<path fill="none" stroke="black" d="M529.98,-45C538.01,-45 545.92,-45 553.25,-45"/>
<polygon fill="black" stroke="black" points="553.09,-48.5 563.09,-45 553.09,-41.5 553.09,-48.5"/>
</g>
<!-- 2547394356544 -->
<g id="node6" class="node">
<title>2547394356544</title>
<polygon fill="none" stroke="black" points="742.75,-88 655.5,-88 655.5,-52 742.75,-52 742.75,-88"/>
<text text-anchor="middle" x="699.12" y="-64.97" font-family="Times New Roman,serif" font-size="12.00">Generate ticket</text>
</g>
<!-- 2547394352848&#45;&gt;2547394356544 -->
<g id="edge6" class="edge">
<title>2547394352848&#45;&gt;2547394356544</title>
<path fill="none" stroke="black" d="M613.18,-49.7C622.06,-51.82 633.03,-54.44 644.1,-57.09"/>
<polygon fill="black" stroke="black" points="643.11,-60.45 653.65,-59.37 644.74,-53.65 643.11,-60.45"/>
</g>
<!-- 2547394352560 -->
<g id="node7" class="node">
<title>2547394352560</title>
<polygon fill="none" stroke="black" points="898.25,-36 778.75,-36 778.75,0 898.25,0 898.25,-36"/>
<text text-anchor="middle" x="838.5" y="-12.97" font-family="Times New Roman,serif" font-size="12.00">Update seat inventory</text>
</g>
<!-- 2547394352848&#45;&gt;2547394352560 -->
<g id="edge5" class="edge">
<title>2547394352848&#45;&gt;2547394352560</title>
<path fill="none" stroke="black" d="M616.45,-42.46C650.59,-38.68 716.17,-31.43 767.07,-25.79"/>
<polygon fill="black" stroke="black" points="767.29,-29.29 776.85,-24.71 766.52,-22.33 767.29,-29.29"/>
</g>
<!-- 2547394622048 -->
<g id="node9" class="node">
<title>2547394622048</title>
<polygon fill="none" stroke="black" points="893.75,-90 783.25,-90 783.25,-54 893.75,-54 893.75,-90"/>
<text text-anchor="middle" x="838.5" y="-66.97" font-family="Times New Roman,serif" font-size="12.00">Select date and time</text>
</g>
<!-- 2547394356544&#45;&gt;2547394622048 -->
<g id="edge7" class="edge">
<title>2547394356544&#45;&gt;2547394622048</title>
<path fill="none" stroke="black" d="M743.21,-70.63C752.26,-70.76 762,-70.9 771.67,-71.04"/>
<polygon fill="black" stroke="black" points="771.37,-74.54 781.42,-71.18 771.47,-67.54 771.37,-74.54"/>
</g>
<!-- 2547394624544 -->
<g id="node8" class="node">
<title>2547394624544</title>
<polygon fill="none" stroke="black" points="2568.25,-59 2541.25,-41 2568.25,-23 2595.25,-41 2568.25,-59"/>
<text text-anchor="middle" x="2568.25" y="-35.98" font-family="Times New Roman,serif" font-size="12.00">+</text>
</g>
<!-- 2547394352560&#45;&gt;2547394624544 -->
<g id="edge8" class="edge">
<title>2547394352560&#45;&gt;2547394624544</title>
<path fill="none" stroke="black" d="M898.55,-18C940.8,-18 999.03,-18 1050.25,-18 1050.25,-18 1050.25,-18 2359.12,-18 2421.82,-18 2494.51,-28.44 2535.26,-35.25"/>
<polygon fill="black" stroke="black" points="2534.42,-38.66 2544.87,-36.9 2535.6,-31.76 2534.42,-38.66"/>
</g>
<!-- 2547394539456 -->
<g id="node28" class="node">
<title>2547394539456</title>
<ellipse fill="orange" stroke="black" cx="2649.25" cy="-41" rx="18" ry="18"/>
</g>
<!-- 2547394624544&#45;&gt;2547394539456 -->
<g id="edge10" class="edge">
<title>2547394624544&#45;&gt;2547394539456</title>
<path fill="none" stroke="black" d="M2596,-41C2603.63,-41 2611.98,-41 2619.72,-41"/>
<polygon fill="black" stroke="black" points="2619.68,-44.5 2629.68,-41 2619.68,-37.5 2619.68,-44.5"/>
</g>
<!-- 2547394622528 -->
<g id="node10" class="node">
<title>2547394622528</title>
<polygon fill="none" stroke="black" points="961.25,-90 934.25,-72 961.25,-54 988.25,-72 961.25,-90"/>
<text text-anchor="middle" x="961.25" y="-66.97" font-family="Times New Roman,serif" font-size="12.00">+</text>
</g>
<!-- 2547394622048&#45;&gt;2547394622528 -->
<g id="edge9" class="edge">
<title>2547394622048&#45;&gt;2547394622528</title>
<path fill="none" stroke="black" d="M894.22,-72C903.57,-72 913.11,-72 921.92,-72"/>
<polygon fill="black" stroke="black" points="921.88,-75.5 931.88,-72 921.88,-68.5 921.88,-75.5"/>
</g>
<!-- 2547394354240 -->
<g id="node11" class="node">
<title>2547394354240</title>
<polygon fill="none" stroke="black" points="1051.25,-140 1024.25,-122 1051.25,-104 1078.25,-122 1051.25,-140"/>
<text text-anchor="middle" x="1051.25" y="-116.97" font-family="Times New Roman,serif" font-size="12.00">X</text>
</g>
<!-- 2547394622528&#45;&gt;2547394354240 -->
<g id="edge11" class="edge">
<title>2547394622528&#45;&gt;2547394354240</title>
<path fill="none" stroke="black" d="M976.39,-80.03C989.78,-87.64 1010.16,-99.22 1026.12,-108.29"/>
<polygon fill="black" stroke="black" points="1024.11,-111.18 1034.54,-113.07 1027.57,-105.09 1024.11,-111.18"/>
</g>
<!-- 2547394362928 -->
<g id="node12" class="node">
<title>2547394362928</title>
<polygon fill="none" stroke="black" points="1261.5,-86 1132.25,-86 1132.25,-50 1261.5,-50 1261.5,-86"/>
<text text-anchor="middle" x="1196.88" y="-62.98" font-family="Times New Roman,serif" font-size="12.00">Provide payment details</text>
</g>
<!-- 2547394622528&#45;&gt;2547394362928 -->
<g id="edge12" class="edge">
<title>2547394622528&#45;&gt;2547394362928</title>
<path fill="none" stroke="black" d="M988.14,-71.56C1019.91,-71.01 1075.14,-70.07 1120.67,-69.29"/>
<polygon fill="black" stroke="black" points="1120.56,-72.79 1130.5,-69.12 1120.44,-65.79 1120.56,-72.79"/>
</g>
<!-- 2547394355152 -->
<g id="node13" class="node">
<title>2547394355152</title>
<polygon fill="none" stroke="black" points="1342.5,-140 1315.5,-122 1342.5,-104 1369.5,-122 1342.5,-140"/>
<text text-anchor="middle" x="1342.5" y="-116.97" font-family="Times New Roman,serif" font-size="12.00">X</text>
</g>
<!-- 2547394354240&#45;&gt;2547394355152 -->
<g id="edge14" class="edge">
<title>2547394354240&#45;&gt;2547394355152</title>
<path fill="none" stroke="black" d="M1066.47,-130.21C1078.69,-136.76 1097.01,-145.41 1114.25,-149 1186.15,-163.98 1207.6,-163.98 1279.5,-149 1292.43,-146.31 1305.97,-140.77 1317.09,-135.4"/>
<polygon fill="black" stroke="black" points="1318.61,-138.55 1325.93,-130.89 1315.43,-132.31 1318.61,-138.55"/>
</g>
<!-- 2547394359040 -->
<g id="node15" class="node">
<title>2547394359040</title>
<polygon fill="none" stroke="black" points="1279.5,-140 1114.25,-140 1114.25,-104 1279.5,-104 1279.5,-140"/>
<text text-anchor="middle" x="1196.88" y="-116.97" font-family="Times New Roman,serif" font-size="12.00">Post&#45;travel feedback or services</text>
</g>
<!-- 2547394354240&#45;&gt;2547394359040 -->
<g id="edge13" class="edge">
<title>2547394354240&#45;&gt;2547394359040</title>
<path fill="none" stroke="black" d="M1078.93,-122C1085.98,-122 1094.01,-122 1102.47,-122"/>
<polygon fill="black" stroke="black" points="1102.3,-125.5 1112.3,-122 1102.3,-118.5 1102.3,-125.5"/>
</g>
<!-- 2547394360096 -->
<g id="node14" class="node">
<title>2547394360096</title>
<polygon fill="none" stroke="black" points="1540,-128 1513,-110 1540,-92 1567,-110 1540,-128"/>
<text text-anchor="middle" x="1540" y="-104.97" font-family="Times New Roman,serif" font-size="12.00">+</text>
</g>
<!-- 2547394362928&#45;&gt;2547394360096 -->
<g id="edge15" class="edge">
<title>2547394362928&#45;&gt;2547394360096</title>
<path fill="none" stroke="black" d="M1261.87,-69.37C1318.79,-71.51 1404.06,-76.99 1477,-91 1488.37,-93.18 1500.6,-96.68 1511.18,-100.08"/>
<polygon fill="black" stroke="black" points="1509.85,-103.32 1520.45,-103.18 1512.08,-96.69 1509.85,-103.32"/>
</g>
<!-- 2547394351984 -->
<g id="node18" class="node">
<title>2547394351984</title>
<polygon fill="none" stroke="black" points="1477,-136 1405.5,-136 1405.5,-100 1477,-100 1477,-136"/>
<text text-anchor="middle" x="1441.25" y="-112.97" font-family="Times New Roman,serif" font-size="12.00">Select route</text>
</g>
<!-- 2547394355152&#45;&gt;2547394351984 -->
<g id="edge17" class="edge">
<title>2547394355152&#45;&gt;2547394351984</title>
<path fill="none" stroke="black" d="M1368.67,-120.96C1376.38,-120.64 1385.11,-120.28 1393.77,-119.92"/>
<polygon fill="black" stroke="black" points="1393.65,-123.43 1403.5,-119.52 1393.36,-116.44 1393.65,-123.43"/>
</g>
<!-- 2547394359808 -->
<g id="node16" class="node">
<title>2547394359808</title>
<polygon fill="none" stroke="black" points="1630,-172 1603,-154 1630,-136 1657,-154 1630,-172"/>
<text text-anchor="middle" x="1630" y="-148.97" font-family="Times New Roman,serif" font-size="12.00">X</text>
</g>
<!-- 2547394360096&#45;&gt;2547394359808 -->
<g id="edge18" class="edge">
<title>2547394360096&#45;&gt;2547394359808</title>
<path fill="none" stroke="black" d="M1556.33,-117.66C1569.45,-124.23 1588.6,-133.8 1603.95,-141.48"/>
<polygon fill="black" stroke="black" points="1601.98,-144.41 1612.49,-145.75 1605.11,-138.14 1601.98,-144.41"/>
</g>
<!-- 2547394347280 -->
<g id="node17" class="node">
<title>2547394347280</title>
<polygon fill="none" stroke="black" points="1630,-118 1603,-100 1630,-82 1657,-100 1630,-118"/>
<text text-anchor="middle" x="1630" y="-94.97" font-family="Times New Roman,serif" font-size="12.00">X</text>
</g>
<!-- 2547394360096&#45;&gt;2547394347280 -->
<g id="edge19" class="edge">
<title>2547394360096&#45;&gt;2547394347280</title>
<path fill="none" stroke="black" d="M1563.66,-107.42C1573.13,-106.35 1584.35,-105.07 1594.79,-103.89"/>
<polygon fill="black" stroke="black" points="1595.06,-107.38 1604.6,-102.77 1594.27,-100.42 1595.06,-107.38"/>
</g>
<!-- 2547394359040&#45;&gt;2547394355152 -->
<g id="edge16" class="edge">
<title>2547394359040&#45;&gt;2547394355152</title>
<path fill="none" stroke="black" d="M1279.76,-122C1287.93,-122 1295.92,-122 1303.3,-122"/>
<polygon fill="black" stroke="black" points="1303.18,-125.5 1313.18,-122 1303.18,-118.5 1303.18,-125.5"/>
</g>
<!-- 2547394350304 -->
<g id="node20" class="node">
<title>2547394350304</title>
<polygon fill="none" stroke="black" points="1805.75,-215 1693,-215 1693,-179 1805.75,-179 1805.75,-215"/>
<text text-anchor="middle" x="1749.38" y="-191.97" font-family="Times New Roman,serif" font-size="12.00">Send ticket via SMS</text>
</g>
<!-- 2547394359808&#45;&gt;2547394350304 -->
<g id="edge21" class="edge">
<title>2547394359808&#45;&gt;2547394350304</title>
<path fill="none" stroke="black" d="M1648.32,-160.34C1658.89,-164.22 1673.1,-169.42 1687.49,-174.7"/>
<polygon fill="black" stroke="black" points="1685.94,-177.85 1696.53,-178.01 1688.35,-171.28 1685.94,-177.85"/>
</g>
<!-- 2547394357120 -->
<g id="node19" class="node">
<title>2547394357120</title>
<polygon fill="none" stroke="black" points="1797.88,-122 1700.88,-122 1700.88,-86 1797.88,-86 1797.88,-122"/>
<text text-anchor="middle" x="1749.38" y="-98.97" font-family="Times New Roman,serif" font-size="12.00">Send instructions</text>
</g>
<!-- 2547394347280&#45;&gt;2547394357120 -->
<g id="edge22" class="edge">
<title>2547394347280&#45;&gt;2547394357120</title>
<path fill="none" stroke="black" d="M1656.47,-100.87C1666.18,-101.2 1677.7,-101.59 1689.24,-101.98"/>
<polygon fill="black" stroke="black" points="1689.09,-105.48 1699.21,-102.32 1689.33,-98.49 1689.09,-105.48"/>
</g>
<!-- 2547394351984&#45;&gt;2547394360096 -->
<g id="edge20" class="edge">
<title>2547394351984&#45;&gt;2547394360096</title>
<path fill="none" stroke="black" d="M1477.45,-115.09C1486.07,-114.38 1495.29,-113.61 1503.9,-112.9"/>
<polygon fill="black" stroke="black" points="1503.97,-116.41 1513.65,-112.1 1503.4,-109.43 1503.97,-116.41"/>
</g>
<!-- 2547394363072 -->
<g id="node21" class="node">
<title>2547394363072</title>
<polygon fill="none" stroke="black" points="1868.75,-119 1841.75,-101 1868.75,-83 1895.75,-101 1868.75,-119"/>
<text text-anchor="middle" x="1868.75" y="-95.97" font-family="Times New Roman,serif" font-size="12.00">X</text>
</g>
<!-- 2547394357120&#45;&gt;2547394363072 -->
<g id="edge23" class="edge">
<title>2547394357120&#45;&gt;2547394363072</title>
<path fill="none" stroke="black" d="M1798.12,-102.78C1808.88,-102.5 1820.16,-102.22 1830.42,-101.95"/>
<polygon fill="black" stroke="black" points="1830.5,-105.45 1840.41,-101.7 1830.32,-98.46 1830.5,-105.45"/>
</g>
<!-- 2547394362784 -->
<g id="node22" class="node">
<title>2547394362784</title>
<polygon fill="none" stroke="black" points="1868.75,-173 1841.75,-155 1868.75,-137 1895.75,-155 1868.75,-173"/>
<text text-anchor="middle" x="1868.75" y="-149.97" font-family="Times New Roman,serif" font-size="12.00">X</text>
</g>
<!-- 2547394350304&#45;&gt;2547394362784 -->
<g id="edge24" class="edge">
<title>2547394350304&#45;&gt;2547394362784</title>
<path fill="none" stroke="black" d="M1801.86,-178.58C1814.88,-173.92 1828.39,-169.08 1839.76,-165.01"/>
<polygon fill="black" stroke="black" points="1840.66,-168.41 1848.9,-161.75 1838.3,-161.82 1840.66,-168.41"/>
</g>
<!-- 2547394363072&#45;&gt;2547394347280 -->
<g id="edge25" class="edge">
<title>2547394363072&#45;&gt;2547394347280</title>
<path fill="none" stroke="black" d="M1852.67,-93.35C1840.4,-87.57 1822.43,-80.12 1805.75,-77 1756.49,-67.8 1742.32,-68.15 1693,-77 1680.76,-79.2 1667.77,-83.66 1656.86,-88.07"/>
<polygon fill="black" stroke="black" points="1655.58,-84.81 1647.76,-91.96 1658.33,-91.25 1655.58,-84.81"/>
</g>
<!-- 2547394613408 -->
<g id="node23" class="node">
<title>2547394613408</title>
<polygon fill="none" stroke="black" points="1958.75,-127 1931.75,-109 1958.75,-91 1985.75,-109 1958.75,-127"/>
<text text-anchor="middle" x="1958.75" y="-103.97" font-family="Times New Roman,serif" font-size="12.00">+</text>
</g>
<!-- 2547394363072&#45;&gt;2547394613408 -->
<g id="edge27" class="edge">
<title>2547394363072&#45;&gt;2547394613408</title>
<path fill="none" stroke="black" d="M1893.33,-103.14C1902.41,-103.97 1912.97,-104.93 1922.89,-105.83"/>
<polygon fill="black" stroke="black" points="1922.32,-109.29 1932.6,-106.71 1922.95,-102.32 1922.32,-109.29"/>
</g>
<!-- 2547394362784&#45;&gt;2547394359808 -->
<g id="edge26" class="edge">
<title>2547394362784&#45;&gt;2547394359808</title>
<path fill="none" stroke="black" d="M1841.15,-154.89C1799.18,-154.71 1717.43,-154.37 1669.19,-154.16"/>
<polygon fill="black" stroke="black" points="1669.23,-150.66 1659.21,-154.12 1669.2,-157.66 1669.23,-150.66"/>
</g>
<!-- 2547394362784&#45;&gt;2547394613408 -->
<g id="edge28" class="edge">
<title>2547394362784&#45;&gt;2547394613408</title>
<path fill="none" stroke="black" d="M1884.68,-147.2C1897.83,-140.32 1917.24,-130.17 1932.76,-122.06"/>
<polygon fill="black" stroke="black" points="1934.17,-125.28 1941.41,-117.54 1930.92,-119.07 1934.17,-125.28"/>
</g>
<!-- 2547394624352 -->
<g id="node24" class="node">
<title>2547394624352</title>
<polygon fill="none" stroke="black" points="2175,-127 2021.75,-127 2021.75,-91 2175,-91 2175,-127"/>
<text text-anchor="middle" x="2098.38" y="-103.97" font-family="Times New Roman,serif" font-size="12.00">Provide personal information</text>
</g>
<!-- 2547394613408&#45;&gt;2547394624352 -->
<g id="edge29" class="edge">
<title>2547394613408&#45;&gt;2547394624352</title>
<path fill="none" stroke="black" d="M1986.61,-109C1993.68,-109 2001.71,-109 2010.13,-109"/>
<polygon fill="black" stroke="black" points="2009.88,-112.5 2019.88,-109 2009.88,-105.5 2009.88,-112.5"/>
</g>
<!-- 2547394363024 -->
<g id="node25" class="node">
<title>2547394363024</title>
<polygon fill="none" stroke="black" points="2238,-127 2211,-109 2238,-91 2265,-109 2238,-127"/>
<text text-anchor="middle" x="2238" y="-103.97" font-family="Times New Roman,serif" font-size="12.00">X</text>
</g>
<!-- 2547394624352&#45;&gt;2547394363024 -->
<g id="edge30" class="edge">
<title>2547394624352&#45;&gt;2547394363024</title>
<path fill="none" stroke="black" d="M2175.43,-109C2183.5,-109 2191.42,-109 2198.77,-109"/>
<polygon fill="black" stroke="black" points="2198.61,-112.5 2208.61,-109 2198.61,-105.5 2198.61,-112.5"/>
</g>
<!-- 2547394355968 -->
<g id="node26" class="node">
<title>2547394355968</title>
<polygon fill="none" stroke="black" points="2478.25,-82 2451.25,-64 2478.25,-46 2505.25,-64 2478.25,-82"/>
<text text-anchor="middle" x="2478.25" y="-58.98" font-family="Times New Roman,serif" font-size="12.00">X</text>
</g>
<!-- 2547394363024&#45;&gt;2547394355968 -->
<g id="edge32" class="edge">
<title>2547394363024&#45;&gt;2547394355968</title>
<path fill="none" stroke="black" d="M2265.43,-108.82C2300.3,-108.02 2363.33,-104.6 2415.25,-91 2427.86,-87.7 2441.19,-82.18 2452.24,-76.99"/>
<polygon fill="black" stroke="black" points="2453.63,-80.21 2461.07,-72.68 2450.55,-73.93 2453.63,-80.21"/>
</g>
<!-- 2547394613120 -->
<g id="node27" class="node">
<title>2547394613120</title>
<polygon fill="none" stroke="black" points="2415.25,-82 2301,-82 2301,-46 2415.25,-46 2415.25,-82"/>
<text text-anchor="middle" x="2358.12" y="-58.98" font-family="Times New Roman,serif" font-size="12.00">Send ticket via email</text>
</g>
<!-- 2547394363024&#45;&gt;2547394613120 -->
<g id="edge31" class="edge">
<title>2547394363024&#45;&gt;2547394613120</title>
<path fill="none" stroke="black" d="M2255.92,-102.55C2267.12,-98.29 2282.53,-92.42 2297.95,-86.54"/>
<polygon fill="black" stroke="black" points="2299.07,-89.86 2307.16,-83.03 2296.57,-83.32 2299.07,-89.86"/>
</g>
<!-- 2547394355968&#45;&gt;2547394624544 -->
<g id="edge33" class="edge">
<title>2547394355968&#45;&gt;2547394624544</title>
<path fill="none" stroke="black" d="M2498.34,-59.01C2509.76,-56.03 2524.51,-52.17 2537.44,-48.79"/>
<polygon fill="black" stroke="black" points="2537.94,-52.28 2546.73,-46.36 2536.17,-45.51 2537.94,-52.28"/>
</g>
<!-- 2547394613120&#45;&gt;2547394355968 -->
<g id="edge34" class="edge">
<title>2547394613120&#45;&gt;2547394355968</title>
<path fill="none" stroke="black" d="M2415.42,-64C2423.45,-64 2431.55,-64 2439.13,-64"/>
<polygon fill="black" stroke="black" points="2439,-67.5 2449,-64 2439,-60.5 2439,-67.5"/>
</g>
</g>
</svg>
