<?xml version="1.0" encoding="UTF-8" standalone="no"?>
<!DOCTYPE svg PUBLIC "-//W3C//DTD SVG 1.1//EN"
 "http://www.w3.org/Graphics/SVG/1.1/DTD/svg11.dtd">
<!-- Generated by graphviz version 11.0.0 (20240428.1522)
 -->
<!-- Pages: 1 -->
<svg width="2666pt" height="154pt"
 viewBox="0.00 0.00 2666.25 154.05" xmlns="http://www.w3.org/2000/svg" xmlns:xlink="http://www.w3.org/1999/xlink">
<g id="graph0" class="graph" transform="scale(1 1) rotate(0) translate(4 150.05)">
<polygon fill="white" stroke="none" points="-4,4 -4,-150.05 2662.25,-150.05 2662.25,4 -4,4"/>
<!-- 2547394712240 -->
<g id="node1" class="node">
<title>2547394712240</title>
<ellipse fill="green" stroke="black" cx="18" cy="-58.05" rx="18" ry="18"/>
</g>
<!-- 2547395271168 -->
<g id="node2" class="node">
<title>2547395271168</title>
<polygon fill="none" stroke="black" points="223,-76.05 72,-76.05 72,-40.05 223,-40.05 223,-76.05"/>
<text text-anchor="middle" x="147.5" y="-53.03" font-family="Times New Roman,serif" font-size="12.00">Customer completes journey</text>
</g>
<!-- 2547394712240&#45;&gt;2547395271168 -->
<g id="edge1" class="edge">
<title>2547394712240&#45;&gt;2547395271168</title>
<path fill="none" stroke="black" d="M36.46,-58.05C43.25,-58.05 51.56,-58.05 60.54,-58.05"/>
<polygon fill="black" stroke="black" points="60.25,-61.55 70.25,-58.05 60.25,-54.55 60.25,-61.55"/>
</g>
<!-- 2547395267424 -->
<g id="node3" class="node">
<title>2547395267424</title>
<polygon fill="none" stroke="black" points="344,-76.05 259,-76.05 259,-40.05 344,-40.05 344,-76.05"/>
<text text-anchor="middle" x="301.5" y="-53.03" font-family="Times New Roman,serif" font-size="12.00">Send reminder</text>
</g>
<!-- 2547395271168&#45;&gt;2547395267424 -->
<g id="edge2" class="edge">
<title>2547395271168&#45;&gt;2547395267424</title>
<path fill="none" stroke="black" d="M223.16,-58.05C231.24,-58.05 239.34,-58.05 247.09,-58.05"/>
<polygon fill="black" stroke="black" points="247.03,-61.55 257.03,-58.05 247.03,-54.55 247.03,-61.55"/>
</g>
<!-- 2547395270976 -->
<g id="node4" class="node">
<title>2547395270976</title>
<polygon fill="none" stroke="black" points="529.5,-76.05 380,-76.05 380,-40.05 529.5,-40.05 529.5,-76.05"/>
<text text-anchor="middle" x="454.75" y="-53.03" font-family="Times New Roman,serif" font-size="12.00">Customer searches for ticket</text>
</g>
<!-- 2547395267424&#45;&gt;2547395270976 -->
<g id="edge3" class="edge">
<title>2547395267424&#45;&gt;2547395270976</title>
<path fill="none" stroke="black" d="M344.23,-58.05C351.8,-58.05 359.95,-58.05 368.26,-58.05"/>
<polygon fill="black" stroke="black" points="368.14,-61.55 378.14,-58.05 368.14,-54.55 368.14,-61.55"/>
</g>
<!-- 2547395274432 -->
<g id="node5" class="node">
<title>2547395274432</title>
<polygon fill="none" stroke="black" points="592.5,-76.05 565.5,-58.05 592.5,-40.05 619.5,-58.05 592.5,-76.05"/>
<text text-anchor="middle" x="592.5" y="-53.03" font-family="Times New Roman,serif" font-size="12.00">+</text>
</g>
<!-- 2547395270976&#45;&gt;2547395274432 -->
<g id="edge4" class="edge">
<title>2547395270976&#45;&gt;2547395274432</title>
<path fill="none" stroke="black" d="M529.98,-58.05C538.01,-58.05 545.92,-58.05 553.25,-58.05"/>
<polygon fill="black" stroke="black" points="553.09,-61.55 563.09,-58.05 553.09,-54.55 553.09,-61.55"/>
</g>
<!-- 2547395269104 -->
<g id="node6" class="node">
<title>2547395269104</title>
<polygon fill="none" stroke="black" points="758.88,-103.05 671.62,-103.05 671.62,-67.05 758.88,-67.05 758.88,-103.05"/>
<text text-anchor="middle" x="715.25" y="-80.03" font-family="Times New Roman,serif" font-size="12.00">Generate ticket</text>
</g>
<!-- 2547395274432&#45;&gt;2547395269104 -->
<g id="edge6" class="edge">
<title>2547395274432&#45;&gt;2547395269104</title>
<path fill="none" stroke="black" d="M613.44,-62.51C626.3,-65.38 643.68,-69.27 660.4,-73.01"/>
<polygon fill="black" stroke="black" points="659.23,-76.33 669.75,-75.1 660.75,-69.5 659.23,-76.33"/>
</g>
<!-- 2547395275200 -->
<g id="node7" class="node">
<title>2547395275200</title>
<polygon fill="none" stroke="black" points="775,-49.05 655.5,-49.05 655.5,-13.05 775,-13.05 775,-49.05"/>
<text text-anchor="middle" x="715.25" y="-26.03" font-family="Times New Roman,serif" font-size="12.00">Update seat inventory</text>
</g>
<!-- 2547395274432&#45;&gt;2547395275200 -->
<g id="edge5" class="edge">
<title>2547395274432&#45;&gt;2547395275200</title>
<path fill="none" stroke="black" d="M613.44,-53.59C622.17,-51.64 632.99,-49.22 644.27,-46.7"/>
<polygon fill="black" stroke="black" points="644.7,-50.19 653.69,-44.59 643.17,-43.36 644.7,-50.19"/>
</g>
<!-- 2547395274864 -->
<g id="node8" class="node">
<title>2547395274864</title>
<polygon fill="none" stroke="black" points="838,-76.05 811,-58.05 838,-40.05 865,-58.05 838,-76.05"/>
<text text-anchor="middle" x="838" y="-53.03" font-family="Times New Roman,serif" font-size="12.00">+</text>
</g>
<!-- 2547395269104&#45;&gt;2547395274864 -->
<g id="edge7" class="edge">
<title>2547395269104&#45;&gt;2547395274864</title>
<path fill="none" stroke="black" d="M759.16,-75.46C774.52,-72.02 791.53,-68.22 805.72,-65.05"/>
<polygon fill="black" stroke="black" points="806.4,-68.48 815.4,-62.88 804.88,-61.65 806.4,-68.48"/>
</g>
<!-- 2547395275200&#45;&gt;2547395274864 -->
<g id="edge8" class="edge">
<title>2547395275200&#45;&gt;2547395274864</title>
<path fill="none" stroke="black" d="M775.21,-44.23C785.82,-46.61 796.48,-48.99 805.9,-51.1"/>
<polygon fill="black" stroke="black" points="805.05,-54.49 815.58,-53.26 806.58,-47.66 805.05,-54.49"/>
</g>
<!-- 2547395272704 -->
<g id="node9" class="node">
<title>2547395272704</title>
<polygon fill="none" stroke="black" points="1011.5,-76.05 901,-76.05 901,-40.05 1011.5,-40.05 1011.5,-76.05"/>
<text text-anchor="middle" x="956.25" y="-53.03" font-family="Times New Roman,serif" font-size="12.00">Select date and time</text>
</g>
<!-- 2547395274864&#45;&gt;2547395272704 -->
<g id="edge9" class="edge">
<title>2547395274864&#45;&gt;2547395272704</title>
<path fill="none" stroke="black" d="M865.67,-58.05C872.86,-58.05 880.97,-58.05 889.29,-58.05"/>
<polygon fill="black" stroke="black" points="889.2,-61.55 899.2,-58.05 889.2,-54.55 889.2,-61.55"/>
</g>
<!-- 2547395271120 -->
<g id="node10" class="node">
<title>2547395271120</title>
<polygon fill="none" stroke="black" points="1074.5,-76.05 1047.5,-58.05 1074.5,-40.05 1101.5,-58.05 1074.5,-76.05"/>
<text text-anchor="middle" x="1074.5" y="-53.03" font-family="Times New Roman,serif" font-size="12.00">+</text>
</g>
<!-- 2547395272704&#45;&gt;2547395271120 -->
<g id="edge10" class="edge">
<title>2547395272704&#45;&gt;2547395271120</title>
<path fill="none" stroke="black" d="M1011.97,-58.05C1019.93,-58.05 1027.98,-58.05 1035.51,-58.05"/>
<polygon fill="black" stroke="black" points="1035.32,-61.55 1045.32,-58.05 1035.32,-54.55 1035.32,-61.55"/>
</g>
<!-- 2547395278464 -->
<g id="node11" class="node">
<title>2547395278464</title>
<polygon fill="none" stroke="black" points="1266.75,-103.05 1137.5,-103.05 1137.5,-67.05 1266.75,-67.05 1266.75,-103.05"/>
<text text-anchor="middle" x="1202.12" y="-80.03" font-family="Times New Roman,serif" font-size="12.00">Provide payment details</text>
</g>
<!-- 2547395271120&#45;&gt;2547395278464 -->
<g id="edge12" class="edge">
<title>2547395271120&#45;&gt;2547395278464</title>
<path fill="none" stroke="black" d="M1095.68,-62.39C1104.27,-64.23 1114.86,-66.51 1125.99,-68.9"/>
<polygon fill="black" stroke="black" points="1125.26,-72.32 1135.77,-71 1126.73,-65.48 1125.26,-72.32"/>
</g>
<!-- 2547395413536 -->
<g id="node12" class="node">
<title>2547395413536</title>
<polygon fill="none" stroke="black" points="1237.88,-49.05 1166.38,-49.05 1166.38,-13.05 1237.88,-13.05 1237.88,-49.05"/>
<text text-anchor="middle" x="1202.12" y="-26.03" font-family="Times New Roman,serif" font-size="12.00">Select route</text>
</g>
<!-- 2547395271120&#45;&gt;2547395413536 -->
<g id="edge11" class="edge">
<title>2547395271120&#45;&gt;2547395413536</title>
<path fill="none" stroke="black" d="M1095.68,-53.71C1111.72,-50.27 1134.77,-45.31 1155.23,-40.91"/>
<polygon fill="black" stroke="black" points="1155.75,-44.38 1164.8,-38.86 1154.28,-37.54 1155.75,-44.38"/>
</g>
<!-- 2547395274192 -->
<g id="node13" class="node">
<title>2547395274192</title>
<polygon fill="none" stroke="black" points="1329.75,-76.05 1302.75,-58.05 1329.75,-40.05 1356.75,-58.05 1329.75,-76.05"/>
<text text-anchor="middle" x="1329.75" y="-53.03" font-family="Times New Roman,serif" font-size="12.00">+</text>
</g>
<!-- 2547395278464&#45;&gt;2547395274192 -->
<g id="edge13" class="edge">
<title>2547395278464&#45;&gt;2547395274192</title>
<path fill="none" stroke="black" d="M1267.04,-71.31C1277.61,-69.04 1288.14,-66.78 1297.43,-64.78"/>
<polygon fill="black" stroke="black" points="1297.92,-68.26 1306.96,-62.73 1296.45,-61.41 1297.92,-68.26"/>
</g>
<!-- 2547395413536&#45;&gt;2547395274192 -->
<g id="edge14" class="edge">
<title>2547395413536&#45;&gt;2547395274192</title>
<path fill="none" stroke="black" d="M1238.12,-38.57C1256.7,-42.57 1279.35,-47.43 1297.36,-51.3"/>
<polygon fill="black" stroke="black" points="1296.44,-54.69 1306.96,-53.37 1297.91,-47.84 1296.44,-54.69"/>
</g>
<!-- 2547394348192 -->
<g id="node14" class="node">
<title>2547394348192</title>
<polygon fill="none" stroke="black" points="1419.75,-76.05 1392.75,-58.05 1419.75,-40.05 1446.75,-58.05 1419.75,-76.05"/>
<text text-anchor="middle" x="1419.75" y="-53.03" font-family="Times New Roman,serif" font-size="12.00">X</text>
</g>
<!-- 2547395274192&#45;&gt;2547394348192 -->
<g id="edge15" class="edge">
<title>2547395274192&#45;&gt;2547394348192</title>
<path fill="none" stroke="black" d="M1357.63,-58.05C1364.88,-58.05 1372.87,-58.05 1380.6,-58.05"/>
<polygon fill="black" stroke="black" points="1380.52,-61.55 1390.52,-58.05 1380.52,-54.55 1380.52,-61.55"/>
</g>
<!-- 2547394362592 -->
<g id="node15" class="node">
<title>2547394362592</title>
<polygon fill="none" stroke="black" points="1711,-76.05 1684,-58.05 1711,-40.05 1738,-58.05 1711,-76.05"/>
<text text-anchor="middle" x="1711" y="-53.03" font-family="Times New Roman,serif" font-size="12.00">X</text>
</g>
<!-- 2547394348192&#45;&gt;2547394362592 -->
<g id="edge17" class="edge">
<title>2547394348192&#45;&gt;2547394362592</title>
<path fill="none" stroke="black" d="M1444.58,-59.95C1456.1,-60.77 1470.14,-61.64 1482.75,-62.05 1556.16,-64.42 1574.59,-64.42 1648,-62.05 1656.67,-61.77 1666.02,-61.27 1674.75,-60.72"/>
<polygon fill="black" stroke="black" points="1674.92,-64.22 1684.66,-60.05 1674.45,-57.23 1674.92,-64.22"/>
</g>
<!-- 2547395425632 -->
<g id="node16" class="node">
<title>2547395425632</title>
<polygon fill="none" stroke="black" points="1648,-53.05 1482.75,-53.05 1482.75,-17.05 1648,-17.05 1648,-53.05"/>
<text text-anchor="middle" x="1565.38" y="-30.03" font-family="Times New Roman,serif" font-size="12.00">Post&#45;travel feedback or services</text>
</g>
<!-- 2547394348192&#45;&gt;2547395425632 -->
<g id="edge16" class="edge">
<title>2547394348192&#45;&gt;2547395425632</title>
<path fill="none" stroke="black" d="M1442.25,-54.61C1450.44,-53.3 1460.38,-51.7 1471.02,-50"/>
<polygon fill="black" stroke="black" points="1471.5,-53.47 1480.82,-48.43 1470.39,-46.56 1471.5,-53.47"/>
</g>
<!-- 2547395273952 -->
<g id="node17" class="node">
<title>2547395273952</title>
<polygon fill="none" stroke="black" points="1801,-76.05 1774,-58.05 1801,-40.05 1828,-58.05 1801,-76.05"/>
<text text-anchor="middle" x="1801" y="-53.03" font-family="Times New Roman,serif" font-size="12.00">+</text>
</g>
<!-- 2547394362592&#45;&gt;2547395273952 -->
<g id="edge19" class="edge">
<title>2547394362592&#45;&gt;2547395273952</title>
<path fill="none" stroke="black" d="M1738.88,-58.05C1746.13,-58.05 1754.12,-58.05 1761.85,-58.05"/>
<polygon fill="black" stroke="black" points="1761.77,-61.55 1771.77,-58.05 1761.77,-54.55 1761.77,-61.55"/>
</g>
<!-- 2547395425632&#45;&gt;2547394362592 -->
<g id="edge18" class="edge">
<title>2547395425632&#45;&gt;2547394362592</title>
<path fill="none" stroke="black" d="M1648.26,-48.16C1658.48,-49.8 1668.42,-51.39 1677.24,-52.8"/>
<polygon fill="black" stroke="black" points="1676.56,-56.24 1686.98,-54.37 1677.66,-49.33 1676.56,-56.24"/>
</g>
<!-- 2547394349248 -->
<g id="node18" class="node">
<title>2547394349248</title>
<polygon fill="none" stroke="black" points="1891,-103.05 1864,-85.05 1891,-67.05 1918,-85.05 1891,-103.05"/>
<text text-anchor="middle" x="1891" y="-80.03" font-family="Times New Roman,serif" font-size="12.00">X</text>
</g>
<!-- 2547395273952&#45;&gt;2547394349248 -->
<g id="edge20" class="edge">
<title>2547395273952&#45;&gt;2547394349248</title>
<path fill="none" stroke="black" d="M1820.23,-63.65C1832.03,-67.27 1847.65,-72.06 1861.11,-76.19"/>
<polygon fill="black" stroke="black" points="1859.76,-79.43 1870.34,-79.02 1861.81,-72.74 1859.76,-79.43"/>
</g>
<!-- 2547394362976 -->
<g id="node19" class="node">
<title>2547394362976</title>
<polygon fill="none" stroke="black" points="1891,-49.05 1864,-31.05 1891,-13.05 1918,-31.05 1891,-49.05"/>
<text text-anchor="middle" x="1891" y="-26.03" font-family="Times New Roman,serif" font-size="12.00">X</text>
</g>
<!-- 2547395273952&#45;&gt;2547394362976 -->
<g id="edge21" class="edge">
<title>2547395273952&#45;&gt;2547394362976</title>
<path fill="none" stroke="black" d="M1820.23,-52.46C1832.03,-48.84 1847.65,-44.05 1861.11,-39.91"/>
<polygon fill="black" stroke="black" points="1861.81,-43.36 1870.34,-37.08 1859.76,-36.67 1861.81,-43.36"/>
</g>
<!-- 2547395270160 -->
<g id="node20" class="node">
<title>2547395270160</title>
<polygon fill="none" stroke="black" points="2058.88,-146.05 1961.88,-146.05 1961.88,-110.05 2058.88,-110.05 2058.88,-146.05"/>
<text text-anchor="middle" x="2010.38" y="-123.03" font-family="Times New Roman,serif" font-size="12.00">Send instructions</text>
</g>
<!-- 2547394349248&#45;&gt;2547395270160 -->
<g id="edge22" class="edge">
<title>2547394349248&#45;&gt;2547395270160</title>
<path fill="none" stroke="black" d="M1909.32,-91.4C1920.51,-95.5 1935.79,-101.09 1951.03,-106.68"/>
<polygon fill="black" stroke="black" points="1949.51,-109.85 1960.11,-110 1951.92,-103.28 1949.51,-109.85"/>
</g>
<!-- 2547395269440 -->
<g id="node21" class="node">
<title>2547395269440</title>
<polygon fill="none" stroke="black" points="2066.75,-52.05 1954,-52.05 1954,-16.05 2066.75,-16.05 2066.75,-52.05"/>
<text text-anchor="middle" x="2010.38" y="-29.03" font-family="Times New Roman,serif" font-size="12.00">Send ticket via SMS</text>
</g>
<!-- 2547394362976&#45;&gt;2547395269440 -->
<g id="edge23" class="edge">
<title>2547394362976&#45;&gt;2547395269440</title>
<path fill="none" stroke="black" d="M1917.76,-31.71C1925.26,-31.9 1933.81,-32.12 1942.62,-32.34"/>
<polygon fill="black" stroke="black" points="1942.24,-35.84 1952.33,-32.59 1942.42,-28.84 1942.24,-35.84"/>
</g>
<!-- 2547394357456 -->
<g id="node23" class="node">
<title>2547394357456</title>
<polygon fill="none" stroke="black" points="2129.75,-104.05 2102.75,-86.05 2129.75,-68.05 2156.75,-86.05 2129.75,-104.05"/>
<text text-anchor="middle" x="2129.75" y="-81.03" font-family="Times New Roman,serif" font-size="12.00">X</text>
</g>
<!-- 2547395270160&#45;&gt;2547394357456 -->
<g id="edge24" class="edge">
<title>2547395270160&#45;&gt;2547394357456</title>
<path fill="none" stroke="black" d="M2059.12,-110.97C2073.31,-105.89 2088.38,-100.5 2100.86,-96.03"/>
<polygon fill="black" stroke="black" points="2101.83,-99.4 2110.07,-92.74 2099.47,-92.81 2101.83,-99.4"/>
</g>
<!-- 2547394360144 -->
<g id="node22" class="node">
<title>2547394360144</title>
<polygon fill="none" stroke="black" points="2129.75,-50.05 2102.75,-32.05 2129.75,-14.05 2156.75,-32.05 2129.75,-50.05"/>
<text text-anchor="middle" x="2129.75" y="-27.03" font-family="Times New Roman,serif" font-size="12.00">X</text>
</g>
<!-- 2547395269440&#45;&gt;2547394360144 -->
<g id="edge25" class="edge">
<title>2547395269440&#45;&gt;2547394360144</title>
<path fill="none" stroke="black" d="M2066.97,-33.1C2075.23,-32.96 2083.58,-32.82 2091.35,-32.69"/>
<polygon fill="black" stroke="black" points="2091.16,-36.19 2101.1,-32.52 2091.04,-29.19 2091.16,-36.19"/>
</g>
<!-- 2547394360144&#45;&gt;2547394362976 -->
<g id="edge26" class="edge">
<title>2547394360144&#45;&gt;2547394362976</title>
<path fill="none" stroke="black" d="M2113.96,-24.2C2101.7,-18.17 2083.61,-10.32 2066.75,-7.05 2017.56,2.49 2003.26,2.15 1954,-7.05 1941.49,-9.39 1928.26,-14.16 1917.24,-18.84"/>
<polygon fill="black" stroke="black" points="1916.15,-15.5 1908.46,-22.78 1919.02,-21.88 1916.15,-15.5"/>
</g>
<!-- 2547395271792 -->
<g id="node24" class="node">
<title>2547395271792</title>
<polygon fill="none" stroke="black" points="2219.75,-77.05 2192.75,-59.05 2219.75,-41.05 2246.75,-59.05 2219.75,-77.05"/>
<text text-anchor="middle" x="2219.75" y="-54.03" font-family="Times New Roman,serif" font-size="12.00">+</text>
</g>
<!-- 2547394360144&#45;&gt;2547395271792 -->
<g id="edge28" class="edge">
<title>2547394360144&#45;&gt;2547395271792</title>
<path fill="none" stroke="black" d="M2148.98,-37.65C2160.78,-41.27 2176.4,-46.06 2189.86,-50.19"/>
<polygon fill="black" stroke="black" points="2188.51,-53.43 2199.09,-53.02 2190.56,-46.74 2188.51,-53.43"/>
</g>
<!-- 2547394357456&#45;&gt;2547394349248 -->
<g id="edge27" class="edge">
<title>2547394357456&#45;&gt;2547394349248</title>
<path fill="none" stroke="black" d="M2102.15,-85.94C2060.18,-85.76 1978.43,-85.42 1930.19,-85.21"/>
<polygon fill="black" stroke="black" points="1930.23,-81.71 1920.21,-85.17 1930.2,-88.71 1930.23,-81.71"/>
</g>
<!-- 2547394357456&#45;&gt;2547395271792 -->
<g id="edge29" class="edge">
<title>2547394357456&#45;&gt;2547395271792</title>
<path fill="none" stroke="black" d="M2148.98,-80.46C2160.78,-76.84 2176.4,-72.05 2189.86,-67.91"/>
<polygon fill="black" stroke="black" points="2190.56,-71.36 2199.09,-65.08 2188.51,-64.67 2190.56,-71.36"/>
</g>
<!-- 2547395274000 -->
<g id="node25" class="node">
<title>2547395274000</title>
<polygon fill="none" stroke="black" points="2436,-77.05 2282.75,-77.05 2282.75,-41.05 2436,-41.05 2436,-77.05"/>
<text text-anchor="middle" x="2359.38" y="-54.03" font-family="Times New Roman,serif" font-size="12.00">Provide personal information</text>
</g>
<!-- 2547395271792&#45;&gt;2547395274000 -->
<g id="edge30" class="edge">
<title>2547395271792&#45;&gt;2547395274000</title>
<path fill="none" stroke="black" d="M2247.61,-59.05C2254.68,-59.05 2262.71,-59.05 2271.13,-59.05"/>
<polygon fill="black" stroke="black" points="2270.88,-62.55 2280.88,-59.05 2270.88,-55.55 2270.88,-62.55"/>
</g>
<!-- 2547395275056 -->
<g id="node26" class="node">
<title>2547395275056</title>
<polygon fill="none" stroke="black" points="2586.25,-77.05 2472,-77.05 2472,-41.05 2586.25,-41.05 2586.25,-77.05"/>
<text text-anchor="middle" x="2529.12" y="-54.03" font-family="Times New Roman,serif" font-size="12.00">Send ticket via email</text>
</g>
<!-- 2547395274000&#45;&gt;2547395275056 -->
<g id="edge31" class="edge">
<title>2547395274000&#45;&gt;2547395275056</title>
<path fill="none" stroke="black" d="M2436.4,-59.05C2444.43,-59.05 2452.57,-59.05 2460.5,-59.05"/>
<polygon fill="black" stroke="black" points="2460.43,-62.55 2470.43,-59.05 2460.43,-55.55 2460.43,-62.55"/>
</g>
<!-- 2547394710464 -->
<g id="node27" class="node">
<title>2547394710464</title>
<ellipse fill="orange" stroke="black" cx="2640.25" cy="-59.05" rx="18" ry="18"/>
</g>
<!-- 2547395275056&#45;&gt;2547394710464 -->
<g id="edge32" class="edge">
<title>2547395275056&#45;&gt;2547394710464</title>
<path fill="none" stroke="black" d="M2586.61,-59.05C2594.97,-59.05 2603.27,-59.05 2610.73,-59.05"/>
<polygon fill="black" stroke="black" points="2610.47,-62.55 2620.47,-59.05 2610.47,-55.55 2610.47,-62.55"/>
</g>
</g>
</svg>
