<?xml version="1.0" encoding="UTF-8" standalone="no"?>
<!DOCTYPE svg PUBLIC "-//W3C//DTD SVG 1.1//EN"
 "http://www.w3.org/Graphics/SVG/1.1/DTD/svg11.dtd">
<!-- Generated by graphviz version 6.0.1 (20220911.1526)
 -->
<!-- Pages: 1 -->
<svg width="1903pt" height="206pt"
 viewBox="0.00 0.00 1903.00 206.00" xmlns="http://www.w3.org/2000/svg" xmlns:xlink="http://www.w3.org/1999/xlink">
<g id="graph0" class="graph" transform="scale(1 1) rotate(0) translate(4 202)">
<polygon fill="white" stroke="none" points="-4,4 -4,-202 1899,-202 1899,4 -4,4"/>
<!-- 2057961399024 -->
<g id="node1" class="node">
<title>2057961399024</title>
<ellipse fill="green" stroke="black" cx="18" cy="-99" rx="18" ry="18"/>
</g>
<!-- 2057961395088 -->
<g id="node2" class="node">
<title>2057961395088</title>
<polygon fill="none" stroke="black" points="99,-117 72,-99 99,-81 126,-99 99,-117"/>
<text text-anchor="middle" x="99" y="-95.9" font-family="Times New Roman,serif" font-size="12.00">X</text>
</g>
<!-- 2057961399024&#45;&gt;2057961395088 -->
<g id="edge1" class="edge">
<title>2057961399024&#45;&gt;2057961395088</title>
<path fill="none" stroke="black" d="M36.14,-99C43.64,-99 52.75,-99 61.64,-99"/>
<polygon fill="black" stroke="black" points="61.87,-102.5 71.87,-99 61.87,-95.5 61.87,-102.5"/>
</g>
<!-- 2057961258624 -->
<g id="node3" class="node">
<title>2057961258624</title>
<polygon fill="none" stroke="black" points="292,-144 162,-144 162,-108 292,-108 292,-144"/>
<text text-anchor="middle" x="227" y="-122.9" font-family="Times New Roman,serif" font-size="12.00">Receive customer inquiry</text>
</g>
<!-- 2057961395088&#45;&gt;2057961258624 -->
<g id="edge3" class="edge">
<title>2057961395088&#45;&gt;2057961258624</title>
<path fill="none" stroke="black" d="M119.69,-103.22C128.72,-105.15 140.05,-107.58 151.92,-110.13"/>
<polygon fill="black" stroke="black" points="151.47,-113.61 161.98,-112.28 152.94,-106.76 151.47,-113.61"/>
</g>
<!-- 2057961250416 -->
<g id="node4" class="node">
<title>2057961250416</title>
<polygon fill="none" stroke="black" points="292,-90 162,-90 162,-54 292,-54 292,-90"/>
<text text-anchor="middle" x="227" y="-68.9" font-family="Times New Roman,serif" font-size="12.00">Receive customer inquiry</text>
</g>
<!-- 2057961395088&#45;&gt;2057961250416 -->
<g id="edge2" class="edge">
<title>2057961395088&#45;&gt;2057961250416</title>
<path fill="none" stroke="black" d="M119.69,-94.78C128.72,-92.85 140.05,-90.42 151.92,-87.87"/>
<polygon fill="black" stroke="black" points="152.94,-91.24 161.98,-85.72 151.47,-84.39 152.94,-91.24"/>
</g>
<!-- 2057961258528 -->
<g id="node5" class="node">
<title>2057961258528</title>
<polygon fill="none" stroke="black" points="355,-144 328,-126 355,-108 382,-126 355,-144"/>
<text text-anchor="middle" x="355" y="-122.9" font-family="Times New Roman,serif" font-size="12.00">+</text>
</g>
<!-- 2057961258624&#45;&gt;2057961258528 -->
<g id="edge4" class="edge">
<title>2057961258624&#45;&gt;2057961258528</title>
<path fill="none" stroke="black" d="M292.11,-126C300.9,-126 309.66,-126 317.71,-126"/>
<polygon fill="black" stroke="black" points="317.83,-129.5 327.83,-126 317.83,-122.5 317.83,-129.5"/>
</g>
<!-- 2057961243552 -->
<g id="node6" class="node">
<title>2057961243552</title>
<polygon fill="none" stroke="black" points="355,-90 328,-72 355,-54 382,-72 355,-90"/>
<text text-anchor="middle" x="355" y="-68.9" font-family="Times New Roman,serif" font-size="12.00">+</text>
</g>
<!-- 2057961250416&#45;&gt;2057961243552 -->
<g id="edge5" class="edge">
<title>2057961250416&#45;&gt;2057961243552</title>
<path fill="none" stroke="black" d="M292.11,-72C300.9,-72 309.66,-72 317.71,-72"/>
<polygon fill="black" stroke="black" points="317.83,-75.5 327.83,-72 317.83,-68.5 317.83,-75.5"/>
</g>
<!-- 2057961395664 -->
<g id="node7" class="node">
<title>2057961395664</title>
<polygon fill="none" stroke="black" points="591,-198 445,-198 445,-162 591,-162 591,-198"/>
<text text-anchor="middle" x="518" y="-176.9" font-family="Times New Roman,serif" font-size="12.00">Collect customer information</text>
</g>
<!-- 2057961258528&#45;&gt;2057961395664 -->
<g id="edge6" class="edge">
<title>2057961258528&#45;&gt;2057961395664</title>
<path fill="none" stroke="black" d="M371.29,-133.4C383.69,-139.22 401.72,-147.27 418,-153 423.9,-155.08 430.04,-157.09 436.25,-159.02"/>
<polygon fill="black" stroke="black" points="435.45,-162.44 446.04,-161.99 437.48,-155.74 435.45,-162.44"/>
</g>
<!-- 2057961251952 -->
<g id="node10" class="node">
<title>2057961251952</title>
<polygon fill="none" stroke="black" points="618,-144 418,-144 418,-108 618,-108 618,-144"/>
<text text-anchor="middle" x="518" y="-122.9" font-family="Times New Roman,serif" font-size="12.00">Address customer concerns or questions</text>
</g>
<!-- 2057961258528&#45;&gt;2057961251952 -->
<g id="edge7" class="edge">
<title>2057961258528&#45;&gt;2057961251952</title>
<path fill="none" stroke="black" d="M382.23,-126C389.69,-126 398.31,-126 407.52,-126"/>
<polygon fill="black" stroke="black" points="407.71,-129.5 417.71,-126 407.71,-122.5 407.71,-129.5"/>
</g>
<!-- 2057961396000 -->
<g id="node8" class="node">
<title>2057961396000</title>
<polygon fill="none" stroke="black" points="591,-90 445,-90 445,-54 591,-54 591,-90"/>
<text text-anchor="middle" x="518" y="-68.9" font-family="Times New Roman,serif" font-size="12.00">Collect customer information</text>
</g>
<!-- 2057961243552&#45;&gt;2057961396000 -->
<g id="edge9" class="edge">
<title>2057961243552&#45;&gt;2057961396000</title>
<path fill="none" stroke="black" d="M382.23,-72C396.73,-72 415.63,-72 434.66,-72"/>
<polygon fill="black" stroke="black" points="434.92,-75.5 444.92,-72 434.92,-68.5 434.92,-75.5"/>
</g>
<!-- 2057961258144 -->
<g id="node9" class="node">
<title>2057961258144</title>
<polygon fill="none" stroke="black" points="618,-36 418,-36 418,0 618,0 618,-36"/>
<text text-anchor="middle" x="518" y="-14.9" font-family="Times New Roman,serif" font-size="12.00">Address customer concerns or questions</text>
</g>
<!-- 2057961243552&#45;&gt;2057961258144 -->
<g id="edge8" class="edge">
<title>2057961243552&#45;&gt;2057961258144</title>
<path fill="none" stroke="black" d="M371.29,-64.6C383.69,-58.78 401.72,-50.73 418,-45 423.9,-42.92 430.04,-40.91 436.25,-38.98"/>
<polygon fill="black" stroke="black" points="437.48,-42.26 446.04,-36.01 435.45,-35.56 437.48,-42.26"/>
</g>
<!-- 2057961252432 -->
<g id="node11" class="node">
<title>2057961252432</title>
<polygon fill="none" stroke="black" points="681,-163 654,-145 681,-127 708,-145 681,-163"/>
<text text-anchor="middle" x="681" y="-141.9" font-family="Times New Roman,serif" font-size="12.00">+</text>
</g>
<!-- 2057961395664&#45;&gt;2057961252432 -->
<g id="edge10" class="edge">
<title>2057961395664&#45;&gt;2057961252432</title>
<path fill="none" stroke="black" d="M591.02,-164.34C611.77,-159.83 633.27,-155.16 649.93,-151.54"/>
<polygon fill="black" stroke="black" points="651.11,-154.86 660.13,-149.32 649.62,-148.02 651.11,-154.86"/>
</g>
<!-- 2057961245664 -->
<g id="node12" class="node">
<title>2057961245664</title>
<polygon fill="none" stroke="black" points="681,-84 654,-66 681,-48 708,-66 681,-84"/>
<text text-anchor="middle" x="681" y="-62.9" font-family="Times New Roman,serif" font-size="12.00">+</text>
</g>
<!-- 2057961396000&#45;&gt;2057961245664 -->
<g id="edge11" class="edge">
<title>2057961396000&#45;&gt;2057961245664</title>
<path fill="none" stroke="black" d="M591.02,-69.32C609.66,-68.62 628.92,-67.9 644.72,-67.31"/>
<polygon fill="black" stroke="black" points="645.2,-70.8 655.07,-66.93 644.94,-63.8 645.2,-70.8"/>
</g>
<!-- 2057961258144&#45;&gt;2057961245664 -->
<g id="edge12" class="edge">
<title>2057961258144&#45;&gt;2057961245664</title>
<path fill="none" stroke="black" d="M587.32,-36.05C597.63,-38.95 608.12,-41.98 618,-45 629.61,-48.55 642.33,-52.79 653.21,-56.53"/>
<polygon fill="black" stroke="black" points="652.39,-59.95 662.98,-59.93 654.69,-53.34 652.39,-59.95"/>
</g>
<!-- 2057961251952&#45;&gt;2057961252432 -->
<g id="edge13" class="edge">
<title>2057961251952&#45;&gt;2057961252432</title>
<path fill="none" stroke="black" d="M618.21,-137.71C628.7,-138.95 638.74,-140.13 647.57,-141.17"/>
<polygon fill="black" stroke="black" points="647.34,-144.67 657.68,-142.37 648.16,-137.72 647.34,-144.67"/>
</g>
<!-- 2057961394656 -->
<g id="node13" class="node">
<title>2057961394656</title>
<polygon fill="none" stroke="black" points="1796,-140 1769,-122 1796,-104 1823,-122 1796,-140"/>
<text text-anchor="middle" x="1796" y="-118.9" font-family="Times New Roman,serif" font-size="12.00">X</text>
</g>
<!-- 2057961252432&#45;&gt;2057961394656 -->
<g id="edge14" class="edge">
<title>2057961252432&#45;&gt;2057961394656</title>
<path fill="none" stroke="black" d="M708.27,-145C766.42,-145 910.43,-145 1031,-145 1031,-145 1031,-145 1553,-145 1628.96,-145 1717.73,-133.63 1763.75,-126.88"/>
<polygon fill="black" stroke="black" points="1764.33,-130.33 1773.7,-125.39 1763.29,-123.41 1764.33,-130.33"/>
</g>
<!-- 2057961252336 -->
<g id="node14" class="node">
<title>2057961252336</title>
<polygon fill="none" stroke="black" points="956,-84 744,-84 744,-48 956,-48 956,-84"/>
<text text-anchor="middle" x="850" y="-62.9" font-family="Times New Roman,serif" font-size="12.00">Guide customer in selecting product/service</text>
</g>
<!-- 2057961245664&#45;&gt;2057961252336 -->
<g id="edge15" class="edge">
<title>2057961245664&#45;&gt;2057961252336</title>
<path fill="none" stroke="black" d="M708.09,-66C715.65,-66 724.42,-66 733.83,-66"/>
<polygon fill="black" stroke="black" points="733.83,-69.5 743.83,-66 733.83,-62.5 733.83,-69.5"/>
</g>
<!-- 2057961392832 -->
<g id="node21" class="node">
<title>2057961392832</title>
<ellipse fill="orange" stroke="black" cx="1877" cy="-122" rx="18" ry="18"/>
</g>
<!-- 2057961394656&#45;&gt;2057961392832 -->
<g id="edge17" class="edge">
<title>2057961394656&#45;&gt;2057961392832</title>
<path fill="none" stroke="black" d="M1823.31,-122C1831.42,-122 1840.37,-122 1848.56,-122"/>
<polygon fill="black" stroke="black" points="1848.75,-125.5 1858.75,-122 1848.75,-118.5 1848.75,-125.5"/>
</g>
<!-- 2057961396336 -->
<g id="node15" class="node">
<title>2057961396336</title>
<polygon fill="none" stroke="black" points="1072,-84 992,-84 992,-48 1072,-48 1072,-84"/>
<text text-anchor="middle" x="1032" y="-62.9" font-family="Times New Roman,serif" font-size="12.00">Provide quote</text>
</g>
<!-- 2057961252336&#45;&gt;2057961396336 -->
<g id="edge16" class="edge">
<title>2057961252336&#45;&gt;2057961396336</title>
<path fill="none" stroke="black" d="M956.23,-66C965,-66 973.57,-66 981.6,-66"/>
<polygon fill="black" stroke="black" points="981.81,-69.5 991.81,-66 981.81,-62.5 981.81,-69.5"/>
</g>
<!-- 2057961394896 -->
<g id="node16" class="node">
<title>2057961394896</title>
<polygon fill="none" stroke="black" points="1135,-84 1108,-66 1135,-48 1162,-66 1135,-84"/>
<text text-anchor="middle" x="1135" y="-62.9" font-family="Times New Roman,serif" font-size="12.00">X</text>
</g>
<!-- 2057961396336&#45;&gt;2057961394896 -->
<g id="edge18" class="edge">
<title>2057961396336&#45;&gt;2057961394896</title>
<path fill="none" stroke="black" d="M1072.05,-66C1080.48,-66 1089.36,-66 1097.68,-66"/>
<polygon fill="black" stroke="black" points="1097.85,-69.5 1107.85,-66 1097.85,-62.5 1097.85,-69.5"/>
</g>
<!-- 2057961395184 -->
<g id="node17" class="node">
<title>2057961395184</title>
<polygon fill="none" stroke="black" points="1706,-117 1679,-99 1706,-81 1733,-99 1706,-117"/>
<text text-anchor="middle" x="1706" y="-95.9" font-family="Times New Roman,serif" font-size="12.00">X</text>
</g>
<!-- 2057961394896&#45;&gt;2057961395184 -->
<g id="edge20" class="edge">
<title>2057961394896&#45;&gt;2057961395184</title>
<path fill="none" stroke="black" d="M1152.84,-72.15C1165.17,-76.33 1182.39,-81.54 1198,-84 1374.26,-111.73 1589.11,-104.96 1671.05,-100.93"/>
<polygon fill="black" stroke="black" points="1671.24,-104.43 1681.04,-100.42 1670.88,-97.44 1671.24,-104.43"/>
</g>
<!-- 2057961396672 -->
<g id="node18" class="node">
<title>2057961396672</title>
<polygon fill="none" stroke="black" points="1267,-75 1198,-75 1198,-39 1267,-39 1267,-75"/>
<text text-anchor="middle" x="1232.5" y="-53.9" font-family="Times New Roman,serif" font-size="12.00">Place order</text>
</g>
<!-- 2057961394896&#45;&gt;2057961396672 -->
<g id="edge19" class="edge">
<title>2057961394896&#45;&gt;2057961396672</title>
<path fill="none" stroke="black" d="M1159.12,-63.82C1167.72,-63.01 1177.79,-62.06 1187.65,-61.13"/>
<polygon fill="black" stroke="black" points="1188.13,-64.6 1197.76,-60.18 1187.47,-57.63 1188.13,-64.6"/>
</g>
<!-- 2057961395184&#45;&gt;2057961394656 -->
<g id="edge21" class="edge">
<title>2057961395184&#45;&gt;2057961394656</title>
<path fill="none" stroke="black" d="M1726.09,-103.99C1737.82,-107.06 1753.07,-111.04 1766.24,-114.48"/>
<polygon fill="black" stroke="black" points="1765.68,-117.96 1776.24,-117.1 1767.45,-111.18 1765.68,-117.96"/>
</g>
<!-- 2057961397008 -->
<g id="node19" class="node">
<title>2057961397008</title>
<polygon fill="none" stroke="black" points="1425,-75 1303,-75 1303,-39 1425,-39 1425,-75"/>
<text text-anchor="middle" x="1364" y="-53.9" font-family="Times New Roman,serif" font-size="12.00">Record order in system</text>
</g>
<!-- 2057961396672&#45;&gt;2057961397008 -->
<g id="edge22" class="edge">
<title>2057961396672&#45;&gt;2057961397008</title>
<path fill="none" stroke="black" d="M1267.19,-57C1275.14,-57 1283.9,-57 1292.81,-57"/>
<polygon fill="black" stroke="black" points="1292.89,-60.5 1302.89,-57 1292.89,-53.5 1292.89,-60.5"/>
</g>
<!-- 2057961397344 -->
<g id="node20" class="node">
<title>2057961397344</title>
<polygon fill="none" stroke="black" points="1643,-75 1461,-75 1461,-39 1643,-39 1643,-75"/>
<text text-anchor="middle" x="1552" y="-53.9" font-family="Times New Roman,serif" font-size="12.00">Send order confirmation to customer</text>
</g>
<!-- 2057961397008&#45;&gt;2057961397344 -->
<g id="edge23" class="edge">
<title>2057961397008&#45;&gt;2057961397344</title>
<path fill="none" stroke="black" d="M1425.13,-57C1433.37,-57 1442,-57 1450.72,-57"/>
<polygon fill="black" stroke="black" points="1450.98,-60.5 1460.98,-57 1450.98,-53.5 1450.98,-60.5"/>
</g>
<!-- 2057961397344&#45;&gt;2057961395184 -->
<g id="edge24" class="edge">
<title>2057961397344&#45;&gt;2057961395184</title>
<path fill="none" stroke="black" d="M1618.34,-75.06C1638.67,-80.67 1660.04,-86.58 1676.47,-91.12"/>
<polygon fill="black" stroke="black" points="1675.92,-94.6 1686.49,-93.89 1677.79,-87.85 1675.92,-94.6"/>
</g>
</g>
</svg>
