<?xml version="1.0" encoding="UTF-8" standalone="no"?>
<!DOCTYPE svg PUBLIC "-//W3C//DTD SVG 1.1//EN"
 "http://www.w3.org/Graphics/SVG/1.1/DTD/svg11.dtd">
<!-- Generated by graphviz version 6.0.1 (20220911.1526)
 -->
<!-- Pages: 1 -->
<svg width="1903pt" height="136pt"
 viewBox="0.00 0.00 1903.00 136.00" xmlns="http://www.w3.org/2000/svg" xmlns:xlink="http://www.w3.org/1999/xlink">
<g id="graph0" class="graph" transform="scale(1 1) rotate(0) translate(4 132)">
<polygon fill="white" stroke="none" points="-4,4 -4,-132 1899,-132 1899,4 -4,4"/>
<!-- 2057961400992 -->
<g id="node1" class="node">
<title>2057961400992</title>
<ellipse fill="green" stroke="black" cx="18" cy="-83" rx="18" ry="18"/>
</g>
<!-- 2057960894048 -->
<g id="node2" class="node">
<title>2057960894048</title>
<polygon fill="none" stroke="black" points="202,-101 72,-101 72,-65 202,-65 202,-101"/>
<text text-anchor="middle" x="137" y="-79.9" font-family="Times New Roman,serif" font-size="12.00">Receive customer inquiry</text>
</g>
<!-- 2057961400992&#45;&gt;2057960894048 -->
<g id="edge1" class="edge">
<title>2057961400992&#45;&gt;2057960894048</title>
<path fill="none" stroke="black" d="M36.01,-83C43.21,-83 52.13,-83 61.66,-83"/>
<polygon fill="black" stroke="black" points="61.76,-86.5 71.76,-83 61.76,-79.5 61.76,-86.5"/>
</g>
<!-- 2057960883536 -->
<g id="node3" class="node">
<title>2057960883536</title>
<polygon fill="none" stroke="black" points="265,-101 238,-83 265,-65 292,-83 265,-101"/>
<text text-anchor="middle" x="265" y="-79.9" font-family="Times New Roman,serif" font-size="12.00">+</text>
</g>
<!-- 2057960894048&#45;&gt;2057960883536 -->
<g id="edge2" class="edge">
<title>2057960894048&#45;&gt;2057960883536</title>
<path fill="none" stroke="black" d="M202.11,-83C210.9,-83 219.66,-83 227.71,-83"/>
<polygon fill="black" stroke="black" points="227.83,-86.5 237.83,-83 227.83,-79.5 227.83,-86.5"/>
</g>
<!-- 2057960895296 -->
<g id="node4" class="node">
<title>2057960895296</title>
<polygon fill="none" stroke="black" points="501,-128 355,-128 355,-92 501,-92 501,-128"/>
<text text-anchor="middle" x="428" y="-106.9" font-family="Times New Roman,serif" font-size="12.00">Collect customer information</text>
</g>
<!-- 2057960883536&#45;&gt;2057960895296 -->
<g id="edge4" class="edge">
<title>2057960883536&#45;&gt;2057960895296</title>
<path fill="none" stroke="black" d="M287.05,-86.53C302.13,-89.06 323.49,-92.64 345,-96.25"/>
<polygon fill="black" stroke="black" points="344.43,-99.7 354.87,-97.9 345.59,-92.8 344.43,-99.7"/>
</g>
<!-- 2057960897360 -->
<g id="node5" class="node">
<title>2057960897360</title>
<polygon fill="none" stroke="black" points="528,-74 328,-74 328,-38 528,-38 528,-74"/>
<text text-anchor="middle" x="428" y="-52.9" font-family="Times New Roman,serif" font-size="12.00">Address customer concerns or questions</text>
</g>
<!-- 2057960883536&#45;&gt;2057960897360 -->
<g id="edge3" class="edge">
<title>2057960883536&#45;&gt;2057960897360</title>
<path fill="none" stroke="black" d="M287.05,-79.47C295.64,-78.03 306.27,-76.25 317.8,-74.31"/>
<polygon fill="black" stroke="black" points="318.4,-77.76 327.68,-72.66 317.24,-70.86 318.4,-77.76"/>
</g>
<!-- 2057961399456 -->
<g id="node6" class="node">
<title>2057961399456</title>
<polygon fill="none" stroke="black" points="591,-101 564,-83 591,-65 618,-83 591,-101"/>
<text text-anchor="middle" x="591" y="-79.9" font-family="Times New Roman,serif" font-size="12.00">+</text>
</g>
<!-- 2057960895296&#45;&gt;2057961399456 -->
<g id="edge5" class="edge">
<title>2057960895296&#45;&gt;2057961399456</title>
<path fill="none" stroke="black" d="M501.02,-97.92C521.35,-94.51 542.41,-90.98 558.94,-88.21"/>
<polygon fill="black" stroke="black" points="559.8,-91.61 569.09,-86.51 558.65,-84.71 559.8,-91.61"/>
</g>
<!-- 2057960897360&#45;&gt;2057961399456 -->
<g id="edge6" class="edge">
<title>2057960897360&#45;&gt;2057961399456</title>
<path fill="none" stroke="black" d="M528.21,-72.64C539.28,-74.49 549.85,-76.27 559.02,-77.8"/>
<polygon fill="black" stroke="black" points="558.65,-81.29 569.09,-79.49 559.8,-74.39 558.65,-81.29"/>
</g>
<!-- 2057960895632 -->
<g id="node7" class="node">
<title>2057960895632</title>
<polygon fill="none" stroke="black" points="681,-101 654,-83 681,-65 708,-83 681,-101"/>
<text text-anchor="middle" x="681" y="-79.9" font-family="Times New Roman,serif" font-size="12.00">X</text>
</g>
<!-- 2057961399456&#45;&gt;2057960895632 -->
<g id="edge7" class="edge">
<title>2057961399456&#45;&gt;2057960895632</title>
<path fill="none" stroke="black" d="M618.4,-83C626.39,-83 635.31,-83 643.82,-83"/>
<polygon fill="black" stroke="black" points="643.92,-86.5 653.92,-83 643.92,-79.5 643.92,-86.5"/>
</g>
<!-- 2057960897216 -->
<g id="node8" class="node">
<title>2057960897216</title>
<polygon fill="none" stroke="black" points="1796,-101 1769,-83 1796,-65 1823,-83 1796,-101"/>
<text text-anchor="middle" x="1796" y="-79.9" font-family="Times New Roman,serif" font-size="12.00">X</text>
</g>
<!-- 2057960895632&#45;&gt;2057960897216 -->
<g id="edge9" class="edge">
<title>2057960895632&#45;&gt;2057960897216</title>
<path fill="none" stroke="black" d="M704.42,-85.51C759.78,-91.47 907.43,-106 1031,-106 1031,-106 1031,-106 1553,-106 1628.96,-106 1717.73,-94.63 1763.75,-87.88"/>
<polygon fill="black" stroke="black" points="1764.33,-91.33 1773.7,-86.39 1763.29,-84.41 1764.33,-91.33"/>
</g>
<!-- 2057961396624 -->
<g id="node9" class="node">
<title>2057961396624</title>
<polygon fill="none" stroke="black" points="956,-78 744,-78 744,-42 956,-42 956,-78"/>
<text text-anchor="middle" x="850" y="-56.9" font-family="Times New Roman,serif" font-size="12.00">Guide customer in selecting product/service</text>
</g>
<!-- 2057960895632&#45;&gt;2057961396624 -->
<g id="edge8" class="edge">
<title>2057960895632&#45;&gt;2057961396624</title>
<path fill="none" stroke="black" d="M703.83,-79.99C712.24,-78.83 722.54,-77.42 733.73,-75.88"/>
<polygon fill="black" stroke="black" points="734.34,-79.32 743.77,-74.49 733.39,-72.39 734.34,-79.32"/>
</g>
<!-- 2057961390384 -->
<g id="node16" class="node">
<title>2057961390384</title>
<ellipse fill="orange" stroke="black" cx="1877" cy="-83" rx="18" ry="18"/>
</g>
<!-- 2057960897216&#45;&gt;2057961390384 -->
<g id="edge11" class="edge">
<title>2057960897216&#45;&gt;2057961390384</title>
<path fill="none" stroke="black" d="M1823.31,-83C1831.42,-83 1840.37,-83 1848.56,-83"/>
<polygon fill="black" stroke="black" points="1848.75,-86.5 1858.75,-83 1848.75,-79.5 1848.75,-86.5"/>
</g>
<!-- 2057961397152 -->
<g id="node10" class="node">
<title>2057961397152</title>
<polygon fill="none" stroke="black" points="1072,-78 992,-78 992,-42 1072,-42 1072,-78"/>
<text text-anchor="middle" x="1032" y="-56.9" font-family="Times New Roman,serif" font-size="12.00">Provide quote</text>
</g>
<!-- 2057961396624&#45;&gt;2057961397152 -->
<g id="edge10" class="edge">
<title>2057961396624&#45;&gt;2057961397152</title>
<path fill="none" stroke="black" d="M956.23,-60C965,-60 973.57,-60 981.6,-60"/>
<polygon fill="black" stroke="black" points="981.81,-63.5 991.81,-60 981.81,-56.5 981.81,-63.5"/>
</g>
<!-- 2057960893904 -->
<g id="node11" class="node">
<title>2057960893904</title>
<polygon fill="none" stroke="black" points="1135,-78 1108,-60 1135,-42 1162,-60 1135,-78"/>
<text text-anchor="middle" x="1135" y="-56.9" font-family="Times New Roman,serif" font-size="12.00">X</text>
</g>
<!-- 2057961397152&#45;&gt;2057960893904 -->
<g id="edge12" class="edge">
<title>2057961397152&#45;&gt;2057960893904</title>
<path fill="none" stroke="black" d="M1072.05,-60C1080.48,-60 1089.36,-60 1097.68,-60"/>
<polygon fill="black" stroke="black" points="1097.85,-63.5 1107.85,-60 1097.85,-56.5 1097.85,-63.5"/>
</g>
<!-- 2057960412576 -->
<g id="node12" class="node">
<title>2057960412576</title>
<polygon fill="none" stroke="black" points="1706,-78 1679,-60 1706,-42 1733,-60 1706,-78"/>
<text text-anchor="middle" x="1706" y="-56.9" font-family="Times New Roman,serif" font-size="12.00">X</text>
</g>
<!-- 2057960893904&#45;&gt;2057960412576 -->
<g id="edge14" class="edge">
<title>2057960893904&#45;&gt;2057960412576</title>
<path fill="none" stroke="black" d="M1162.3,-60C1254.43,-60 1562.71,-60 1668.78,-60"/>
<polygon fill="black" stroke="black" points="1668.98,-63.5 1678.98,-60 1668.98,-56.5 1668.98,-63.5"/>
</g>
<!-- 2057961390336 -->
<g id="node13" class="node">
<title>2057961390336</title>
<polygon fill="none" stroke="black" points="1267,-36 1198,-36 1198,0 1267,0 1267,-36"/>
<text text-anchor="middle" x="1232.5" y="-14.9" font-family="Times New Roman,serif" font-size="12.00">Place order</text>
</g>
<!-- 2057960893904&#45;&gt;2057961390336 -->
<g id="edge13" class="edge">
<title>2057960893904&#45;&gt;2057961390336</title>
<path fill="none" stroke="black" d="M1151.77,-53.06C1161.83,-48.64 1175.4,-42.67 1188.48,-36.92"/>
<polygon fill="black" stroke="black" points="1190.13,-40.02 1197.87,-32.79 1187.31,-33.61 1190.13,-40.02"/>
</g>
<!-- 2057960412576&#45;&gt;2057960897216 -->
<g id="edge15" class="edge">
<title>2057960412576&#45;&gt;2057960897216</title>
<path fill="none" stroke="black" d="M1726.09,-64.99C1737.82,-68.06 1753.07,-72.04 1766.24,-75.48"/>
<polygon fill="black" stroke="black" points="1765.68,-78.96 1776.24,-78.1 1767.45,-72.18 1765.68,-78.96"/>
</g>
<!-- 2057961399600 -->
<g id="node14" class="node">
<title>2057961399600</title>
<polygon fill="none" stroke="black" points="1425,-36 1303,-36 1303,0 1425,0 1425,-36"/>
<text text-anchor="middle" x="1364" y="-14.9" font-family="Times New Roman,serif" font-size="12.00">Record order in system</text>
</g>
<!-- 2057961390336&#45;&gt;2057961399600 -->
<g id="edge16" class="edge">
<title>2057961390336&#45;&gt;2057961399600</title>
<path fill="none" stroke="black" d="M1267.19,-18C1275.14,-18 1283.9,-18 1292.81,-18"/>
<polygon fill="black" stroke="black" points="1292.89,-21.5 1302.89,-18 1292.89,-14.5 1292.89,-21.5"/>
</g>
<!-- 2057961399648 -->
<g id="node15" class="node">
<title>2057961399648</title>
<polygon fill="none" stroke="black" points="1643,-36 1461,-36 1461,0 1643,0 1643,-36"/>
<text text-anchor="middle" x="1552" y="-14.9" font-family="Times New Roman,serif" font-size="12.00">Send order confirmation to customer</text>
</g>
<!-- 2057961399600&#45;&gt;2057961399648 -->
<g id="edge17" class="edge">
<title>2057961399600&#45;&gt;2057961399648</title>
<path fill="none" stroke="black" d="M1425.13,-18C1433.37,-18 1442,-18 1450.72,-18"/>
<polygon fill="black" stroke="black" points="1450.98,-21.5 1460.98,-18 1450.98,-14.5 1450.98,-21.5"/>
</g>
<!-- 2057961399648&#45;&gt;2057960412576 -->
<g id="edge18" class="edge">
<title>2057961399648&#45;&gt;2057960412576</title>
<path fill="none" stroke="black" d="M1618.34,-36.06C1638.67,-41.67 1660.04,-47.58 1676.47,-52.12"/>
<polygon fill="black" stroke="black" points="1675.92,-55.6 1686.49,-54.89 1677.79,-48.85 1675.92,-55.6"/>
</g>
</g>
</svg>
