<?xml version="1.0" encoding="UTF-8" standalone="no"?>
<!DOCTYPE svg PUBLIC "-//W3C//DTD SVG 1.1//EN"
 "http://www.w3.org/Graphics/SVG/1.1/DTD/svg11.dtd">
<!-- Generated by graphviz version 6.0.1 (20220911.1526)
 -->
<!-- Pages: 1 -->
<svg width="1723pt" height="98pt"
 viewBox="0.00 0.00 1723.00 98.00" xmlns="http://www.w3.org/2000/svg" xmlns:xlink="http://www.w3.org/1999/xlink">
<g id="graph0" class="graph" transform="scale(1 1) rotate(0) translate(4 94)">
<polygon fill="white" stroke="none" points="-4,4 -4,-94 1719,-94 1719,4 -4,4"/>
<!-- 2057960884880 -->
<g id="node1" class="node">
<title>2057960884880</title>
<ellipse fill="green" stroke="black" cx="18" cy="-45" rx="18" ry="18"/>
</g>
<!-- 2057960884352 -->
<g id="node2" class="node">
<title>2057960884352</title>
<polygon fill="none" stroke="black" points="202,-63 72,-63 72,-27 202,-27 202,-63"/>
<text text-anchor="middle" x="137" y="-41.9" font-family="Times New Roman,serif" font-size="12.00">Receive customer inquiry</text>
</g>
<!-- 2057960884880&#45;&gt;2057960884352 -->
<g id="edge1" class="edge">
<title>2057960884880&#45;&gt;2057960884352</title>
<path fill="none" stroke="black" d="M36.01,-45C43.21,-45 52.13,-45 61.66,-45"/>
<polygon fill="black" stroke="black" points="61.76,-48.5 71.76,-45 61.76,-41.5 61.76,-48.5"/>
</g>
<!-- 2057960882624 -->
<g id="node3" class="node">
<title>2057960882624</title>
<polygon fill="none" stroke="black" points="265,-63 238,-45 265,-27 292,-45 265,-63"/>
<text text-anchor="middle" x="265" y="-41.9" font-family="Times New Roman,serif" font-size="12.00">+</text>
</g>
<!-- 2057960884352&#45;&gt;2057960882624 -->
<g id="edge2" class="edge">
<title>2057960884352&#45;&gt;2057960882624</title>
<path fill="none" stroke="black" d="M202.11,-45C210.9,-45 219.66,-45 227.71,-45"/>
<polygon fill="black" stroke="black" points="227.83,-48.5 237.83,-45 227.83,-41.5 227.83,-48.5"/>
</g>
<!-- 2057960898176 -->
<g id="node4" class="node">
<title>2057960898176</title>
<polygon fill="none" stroke="black" points="528,-90 328,-90 328,-54 528,-54 528,-90"/>
<text text-anchor="middle" x="428" y="-68.9" font-family="Times New Roman,serif" font-size="12.00">Address customer concerns or questions</text>
</g>
<!-- 2057960882624&#45;&gt;2057960898176 -->
<g id="edge4" class="edge">
<title>2057960882624&#45;&gt;2057960898176</title>
<path fill="none" stroke="black" d="M287.05,-48.53C295.64,-49.97 306.27,-51.75 317.8,-53.69"/>
<polygon fill="black" stroke="black" points="317.24,-57.14 327.68,-55.34 318.4,-50.24 317.24,-57.14"/>
</g>
<!-- 2057960885888 -->
<g id="node5" class="node">
<title>2057960885888</title>
<polygon fill="none" stroke="black" points="501,-36 355,-36 355,0 501,0 501,-36"/>
<text text-anchor="middle" x="428" y="-14.9" font-family="Times New Roman,serif" font-size="12.00">Collect customer information</text>
</g>
<!-- 2057960882624&#45;&gt;2057960885888 -->
<g id="edge3" class="edge">
<title>2057960882624&#45;&gt;2057960885888</title>
<path fill="none" stroke="black" d="M287.05,-41.47C302.13,-38.94 323.49,-35.36 345,-31.75"/>
<polygon fill="black" stroke="black" points="345.59,-35.2 354.87,-30.1 344.43,-28.3 345.59,-35.2"/>
</g>
<!-- 2057961252288 -->
<g id="node6" class="node">
<title>2057961252288</title>
<polygon fill="none" stroke="black" points="591,-63 564,-45 591,-27 618,-45 591,-63"/>
<text text-anchor="middle" x="591" y="-41.9" font-family="Times New Roman,serif" font-size="12.00">+</text>
</g>
<!-- 2057960898176&#45;&gt;2057961252288 -->
<g id="edge5" class="edge">
<title>2057960898176&#45;&gt;2057961252288</title>
<path fill="none" stroke="black" d="M528.21,-55.36C539.28,-53.51 549.85,-51.73 559.02,-50.2"/>
<polygon fill="black" stroke="black" points="559.8,-53.61 569.09,-48.51 558.65,-46.71 559.8,-53.61"/>
</g>
<!-- 2057960885888&#45;&gt;2057961252288 -->
<g id="edge6" class="edge">
<title>2057960885888&#45;&gt;2057961252288</title>
<path fill="none" stroke="black" d="M501.02,-30.08C521.35,-33.49 542.41,-37.02 558.94,-39.79"/>
<polygon fill="black" stroke="black" points="558.65,-43.29 569.09,-41.49 559.8,-36.39 558.65,-43.29"/>
</g>
<!-- 2057961251568 -->
<g id="node7" class="node">
<title>2057961251568</title>
<polygon fill="none" stroke="black" points="681,-63 654,-45 681,-27 708,-45 681,-63"/>
<text text-anchor="middle" x="681" y="-41.9" font-family="Times New Roman,serif" font-size="12.00">X</text>
</g>
<!-- 2057961252288&#45;&gt;2057961251568 -->
<g id="edge7" class="edge">
<title>2057961252288&#45;&gt;2057961251568</title>
<path fill="none" stroke="black" d="M618.4,-45C626.39,-45 635.31,-45 643.82,-45"/>
<polygon fill="black" stroke="black" points="643.92,-48.5 653.92,-45 643.92,-41.5 643.92,-48.5"/>
</g>
<!-- 2057961251760 -->
<g id="node8" class="node">
<title>2057961251760</title>
<polygon fill="none" stroke="black" points="1616,-63 1589,-45 1616,-27 1643,-45 1616,-63"/>
<text text-anchor="middle" x="1616" y="-41.9" font-family="Times New Roman,serif" font-size="12.00">X</text>
</g>
<!-- 2057961251568&#45;&gt;2057961251760 -->
<g id="edge8" class="edge">
<title>2057961251568&#45;&gt;2057961251760</title>
<path fill="none" stroke="black" d="M704.42,-47.51C759.78,-53.47 907.43,-68 1031,-68 1031,-68 1031,-68 1275,-68 1388.3,-68 1522.35,-55.13 1582.7,-48.64"/>
<polygon fill="black" stroke="black" points="1583.2,-52.11 1592.76,-47.55 1582.44,-45.15 1583.2,-52.11"/>
</g>
<!-- 2057960897840 -->
<g id="node9" class="node">
<title>2057960897840</title>
<polygon fill="none" stroke="black" points="956,-40 744,-40 744,-4 956,-4 956,-40"/>
<text text-anchor="middle" x="850" y="-18.9" font-family="Times New Roman,serif" font-size="12.00">Guide customer in selecting product/service</text>
</g>
<!-- 2057961251568&#45;&gt;2057960897840 -->
<g id="edge9" class="edge">
<title>2057961251568&#45;&gt;2057960897840</title>
<path fill="none" stroke="black" d="M703.83,-41.99C712.24,-40.83 722.54,-39.42 733.73,-37.88"/>
<polygon fill="black" stroke="black" points="734.34,-41.32 743.77,-36.49 733.39,-34.39 734.34,-41.32"/>
</g>
<!-- 2057960884304 -->
<g id="node14" class="node">
<title>2057960884304</title>
<ellipse fill="orange" stroke="black" cx="1697" cy="-45" rx="18" ry="18"/>
</g>
<!-- 2057961251760&#45;&gt;2057960884304 -->
<g id="edge11" class="edge">
<title>2057961251760&#45;&gt;2057960884304</title>
<path fill="none" stroke="black" d="M1643.31,-45C1651.42,-45 1660.37,-45 1668.56,-45"/>
<polygon fill="black" stroke="black" points="1668.75,-48.5 1678.75,-45 1668.75,-41.5 1668.75,-48.5"/>
</g>
<!-- 2057960897120 -->
<g id="node10" class="node">
<title>2057960897120</title>
<polygon fill="none" stroke="black" points="1072,-40 992,-40 992,-4 1072,-4 1072,-40"/>
<text text-anchor="middle" x="1032" y="-18.9" font-family="Times New Roman,serif" font-size="12.00">Provide quote</text>
</g>
<!-- 2057960897840&#45;&gt;2057960897120 -->
<g id="edge10" class="edge">
<title>2057960897840&#45;&gt;2057960897120</title>
<path fill="none" stroke="black" d="M956.23,-22C965,-22 973.57,-22 981.6,-22"/>
<polygon fill="black" stroke="black" points="981.81,-25.5 991.81,-22 981.81,-18.5 981.81,-25.5"/>
</g>
<!-- 2057960884976 -->
<g id="node11" class="node">
<title>2057960884976</title>
<polygon fill="none" stroke="black" points="1177,-40 1108,-40 1108,-4 1177,-4 1177,-40"/>
<text text-anchor="middle" x="1142.5" y="-18.9" font-family="Times New Roman,serif" font-size="12.00">Place order</text>
</g>
<!-- 2057960897120&#45;&gt;2057960884976 -->
<g id="edge12" class="edge">
<title>2057960897120&#45;&gt;2057960884976</title>
<path fill="none" stroke="black" d="M1072.17,-22C1080.46,-22 1089.25,-22 1097.7,-22"/>
<polygon fill="black" stroke="black" points="1097.76,-25.5 1107.76,-22 1097.76,-18.5 1097.76,-25.5"/>
</g>
<!-- 2057961252144 -->
<g id="node12" class="node">
<title>2057961252144</title>
<polygon fill="none" stroke="black" points="1335,-40 1213,-40 1213,-4 1335,-4 1335,-40"/>
<text text-anchor="middle" x="1274" y="-18.9" font-family="Times New Roman,serif" font-size="12.00">Record order in system</text>
</g>
<!-- 2057960884976&#45;&gt;2057961252144 -->
<g id="edge13" class="edge">
<title>2057960884976&#45;&gt;2057961252144</title>
<path fill="none" stroke="black" d="M1177.19,-22C1185.14,-22 1193.9,-22 1202.81,-22"/>
<polygon fill="black" stroke="black" points="1202.89,-25.5 1212.89,-22 1202.89,-18.5 1202.89,-25.5"/>
</g>
<!-- 2057961252480 -->
<g id="node13" class="node">
<title>2057961252480</title>
<polygon fill="none" stroke="black" points="1553,-40 1371,-40 1371,-4 1553,-4 1553,-40"/>
<text text-anchor="middle" x="1462" y="-18.9" font-family="Times New Roman,serif" font-size="12.00">Send order confirmation to customer</text>
</g>
<!-- 2057961252144&#45;&gt;2057961252480 -->
<g id="edge14" class="edge">
<title>2057961252144&#45;&gt;2057961252480</title>
<path fill="none" stroke="black" d="M1335.13,-22C1343.37,-22 1352,-22 1360.72,-22"/>
<polygon fill="black" stroke="black" points="1360.98,-25.5 1370.98,-22 1360.98,-18.5 1360.98,-25.5"/>
</g>
<!-- 2057961252480&#45;&gt;2057961251760 -->
<g id="edge15" class="edge">
<title>2057961252480&#45;&gt;2057961251760</title>
<path fill="none" stroke="black" d="M1553.18,-35.65C1564.02,-37.29 1574.46,-38.87 1583.58,-40.25"/>
<polygon fill="black" stroke="black" points="1583.21,-43.73 1593.62,-41.77 1584.26,-36.81 1583.21,-43.73"/>
</g>
</g>
</svg>
