<?xml version="1.0" encoding="UTF-8" standalone="no"?>
<!DOCTYPE svg PUBLIC "-//W3C//DTD SVG 1.1//EN"
 "http://www.w3.org/Graphics/SVG/1.1/DTD/svg11.dtd">
<!-- Generated by graphviz version 6.0.1 (20220911.1526)
 -->
<!-- Pages: 1 -->
<svg width="1903pt" height="98pt"
 viewBox="0.00 0.00 1903.00 98.00" xmlns="http://www.w3.org/2000/svg" xmlns:xlink="http://www.w3.org/1999/xlink">
<g id="graph0" class="graph" transform="scale(1 1) rotate(0) translate(4 94)">
<polygon fill="white" stroke="none" points="-4,4 -4,-94 1899,-94 1899,4 -4,4"/>
<!-- 2057961255600 -->
<g id="node1" class="node">
<title>2057961255600</title>
<ellipse fill="green" stroke="black" cx="18" cy="-45" rx="18" ry="18"/>
</g>
<!-- 2057961404736 -->
<g id="node2" class="node">
<title>2057961404736</title>
<polygon fill="none" stroke="black" points="99,-63 72,-45 99,-27 126,-45 99,-63"/>
<text text-anchor="middle" x="99" y="-41.9" font-family="Times New Roman,serif" font-size="12.00">X</text>
</g>
<!-- 2057961255600&#45;&gt;2057961404736 -->
<g id="edge1" class="edge">
<title>2057961255600&#45;&gt;2057961404736</title>
<path fill="none" stroke="black" d="M36.14,-45C43.64,-45 52.75,-45 61.64,-45"/>
<polygon fill="black" stroke="black" points="61.87,-48.5 71.87,-45 61.87,-41.5 61.87,-48.5"/>
</g>
<!-- 2057961403536 -->
<g id="node3" class="node">
<title>2057961403536</title>
<polygon fill="none" stroke="black" points="670,-63 643,-45 670,-27 697,-45 670,-63"/>
<text text-anchor="middle" x="670" y="-41.9" font-family="Times New Roman,serif" font-size="12.00">X</text>
</g>
<!-- 2057961404736&#45;&gt;2057961403536 -->
<g id="edge3" class="edge">
<title>2057961404736&#45;&gt;2057961403536</title>
<path fill="none" stroke="black" d="M123.24,-46.86C134.87,-47.69 149.17,-48.59 162,-49 359.68,-55.37 409.32,-55.37 607,-49 616.32,-48.7 626.42,-48.15 635.7,-47.54"/>
<polygon fill="black" stroke="black" points="636.02,-51.03 645.76,-46.86 635.54,-44.05 636.02,-51.03"/>
</g>
<!-- 2057961404976 -->
<g id="node4" class="node">
<title>2057961404976</title>
<polygon fill="none" stroke="black" points="344,-40 162,-40 162,-4 344,-4 344,-40"/>
<text text-anchor="middle" x="253" y="-18.9" font-family="Times New Roman,serif" font-size="12.00">Send order confirmation to customer</text>
</g>
<!-- 2057961404736&#45;&gt;2057961404976 -->
<g id="edge2" class="edge">
<title>2057961404736&#45;&gt;2057961404976</title>
<path fill="none" stroke="black" d="M121.46,-41.75C130,-40.46 140.49,-38.87 151.77,-37.17"/>
<polygon fill="black" stroke="black" points="152.5,-40.6 161.87,-35.64 151.46,-33.67 152.5,-40.6"/>
</g>
<!-- 2057961405552 -->
<g id="node5" class="node">
<title>2057961405552</title>
<polygon fill="none" stroke="black" points="760,-63 733,-45 760,-27 787,-45 760,-63"/>
<text text-anchor="middle" x="760" y="-41.9" font-family="Times New Roman,serif" font-size="12.00">X</text>
</g>
<!-- 2057961403536&#45;&gt;2057961405552 -->
<g id="edge4" class="edge">
<title>2057961403536&#45;&gt;2057961405552</title>
<path fill="none" stroke="black" d="M697.4,-45C705.39,-45 714.31,-45 722.82,-45"/>
<polygon fill="black" stroke="black" points="722.92,-48.5 732.92,-45 722.92,-41.5 722.92,-48.5"/>
</g>
<!-- 2057961401472 -->
<g id="node6" class="node">
<title>2057961401472</title>
<polygon fill="none" stroke="black" points="502,-40 380,-40 380,-4 502,-4 502,-40"/>
<text text-anchor="middle" x="441" y="-18.9" font-family="Times New Roman,serif" font-size="12.00">Record order in system</text>
</g>
<!-- 2057961404976&#45;&gt;2057961401472 -->
<g id="edge5" class="edge">
<title>2057961404976&#45;&gt;2057961401472</title>
<path fill="none" stroke="black" d="M344,-22C352.64,-22 361.31,-22 369.72,-22"/>
<polygon fill="black" stroke="black" points="369.82,-25.5 379.82,-22 369.82,-18.5 369.82,-25.5"/>
</g>
<!-- 2057961401520 -->
<g id="node7" class="node">
<title>2057961401520</title>
<polygon fill="none" stroke="black" points="1214,-63 1187,-45 1214,-27 1241,-45 1214,-63"/>
<text text-anchor="middle" x="1214" y="-41.9" font-family="Times New Roman,serif" font-size="12.00">X</text>
</g>
<!-- 2057961405552&#45;&gt;2057961401520 -->
<g id="edge7" class="edge">
<title>2057961405552&#45;&gt;2057961401520</title>
<path fill="none" stroke="black" d="M784.24,-46.86C795.87,-47.69 810.17,-48.59 823,-49 968.7,-53.7 1005.3,-53.7 1151,-49 1160.32,-48.7 1170.42,-48.15 1179.7,-47.54"/>
<polygon fill="black" stroke="black" points="1180.02,-51.03 1189.76,-46.86 1179.54,-44.05 1180.02,-51.03"/>
</g>
<!-- 2057961390576 -->
<g id="node8" class="node">
<title>2057961390576</title>
<polygon fill="none" stroke="black" points="903,-40 823,-40 823,-4 903,-4 903,-40"/>
<text text-anchor="middle" x="863" y="-18.9" font-family="Times New Roman,serif" font-size="12.00">Provide quote</text>
</g>
<!-- 2057961405552&#45;&gt;2057961390576 -->
<g id="edge6" class="edge">
<title>2057961405552&#45;&gt;2057961390576</title>
<path fill="none" stroke="black" d="M780.47,-40.57C789.78,-38.45 801.39,-35.8 812.9,-33.18"/>
<polygon fill="black" stroke="black" points="813.96,-36.53 822.93,-30.9 812.41,-29.7 813.96,-36.53"/>
</g>
<!-- 2057961390432 -->
<g id="node9" class="node">
<title>2057961390432</title>
<polygon fill="none" stroke="black" points="607,-40 538,-40 538,-4 607,-4 607,-40"/>
<text text-anchor="middle" x="572.5" y="-18.9" font-family="Times New Roman,serif" font-size="12.00">Place order</text>
</g>
<!-- 2057961401472&#45;&gt;2057961390432 -->
<g id="edge8" class="edge">
<title>2057961401472&#45;&gt;2057961390432</title>
<path fill="none" stroke="black" d="M502.2,-22C510.84,-22 519.59,-22 527.82,-22"/>
<polygon fill="black" stroke="black" points="527.93,-25.5 537.93,-22 527.93,-18.5 527.93,-25.5"/>
</g>
<!-- 2057961404688 -->
<g id="node11" class="node">
<title>2057961404688</title>
<polygon fill="none" stroke="black" points="1304,-63 1277,-45 1304,-27 1331,-45 1304,-63"/>
<text text-anchor="middle" x="1304" y="-41.9" font-family="Times New Roman,serif" font-size="12.00">+</text>
</g>
<!-- 2057961401520&#45;&gt;2057961404688 -->
<g id="edge10" class="edge">
<title>2057961401520&#45;&gt;2057961404688</title>
<path fill="none" stroke="black" d="M1241.4,-45C1249.39,-45 1258.31,-45 1266.82,-45"/>
<polygon fill="black" stroke="black" points="1266.92,-48.5 1276.92,-45 1266.92,-41.5 1266.92,-48.5"/>
</g>
<!-- 2057961391104 -->
<g id="node10" class="node">
<title>2057961391104</title>
<polygon fill="none" stroke="black" points="1151,-40 939,-40 939,-4 1151,-4 1151,-40"/>
<text text-anchor="middle" x="1045" y="-18.9" font-family="Times New Roman,serif" font-size="12.00">Guide customer in selecting product/service</text>
</g>
<!-- 2057961390576&#45;&gt;2057961391104 -->
<g id="edge11" class="edge">
<title>2057961390576&#45;&gt;2057961391104</title>
<path fill="none" stroke="black" d="M903.06,-22C911.03,-22 919.8,-22 928.94,-22"/>
<polygon fill="black" stroke="black" points="928.99,-25.5 938.99,-22 928.99,-18.5 928.99,-25.5"/>
</g>
<!-- 2057961390432&#45;&gt;2057961403536 -->
<g id="edge9" class="edge">
<title>2057961390432&#45;&gt;2057961403536</title>
<path fill="none" stroke="black" d="M607.17,-30.11C617.88,-32.69 629.64,-35.52 639.99,-38.01"/>
<polygon fill="black" stroke="black" points="639.25,-41.43 649.79,-40.37 640.89,-34.63 639.25,-41.43"/>
</g>
<!-- 2057961391104&#45;&gt;2057961401520 -->
<g id="edge12" class="edge">
<title>2057961391104&#45;&gt;2057961401520</title>
<path fill="none" stroke="black" d="M1151.29,-36.5C1162.03,-37.98 1172.26,-39.39 1181.18,-40.62"/>
<polygon fill="black" stroke="black" points="1180.99,-44.12 1191.38,-42.02 1181.95,-37.19 1180.99,-44.12"/>
</g>
<!-- 2057961390528 -->
<g id="node12" class="node">
<title>2057961390528</title>
<polygon fill="none" stroke="black" points="1567,-90 1367,-90 1367,-54 1567,-54 1567,-90"/>
<text text-anchor="middle" x="1467" y="-68.9" font-family="Times New Roman,serif" font-size="12.00">Address customer concerns or questions</text>
</g>
<!-- 2057961404688&#45;&gt;2057961390528 -->
<g id="edge13" class="edge">
<title>2057961404688&#45;&gt;2057961390528</title>
<path fill="none" stroke="black" d="M1326.05,-48.53C1334.64,-49.97 1345.27,-51.75 1356.8,-53.69"/>
<polygon fill="black" stroke="black" points="1356.24,-57.14 1366.68,-55.34 1357.4,-50.24 1356.24,-57.14"/>
</g>
<!-- 2058987452064 -->
<g id="node13" class="node">
<title>2058987452064</title>
<polygon fill="none" stroke="black" points="1540,-36 1394,-36 1394,0 1540,0 1540,-36"/>
<text text-anchor="middle" x="1467" y="-14.9" font-family="Times New Roman,serif" font-size="12.00">Collect customer information</text>
</g>
<!-- 2057961404688&#45;&gt;2058987452064 -->
<g id="edge14" class="edge">
<title>2057961404688&#45;&gt;2058987452064</title>
<path fill="none" stroke="black" d="M1326.05,-41.47C1341.13,-38.94 1362.49,-35.36 1384,-31.75"/>
<polygon fill="black" stroke="black" points="1384.59,-35.2 1393.87,-30.1 1383.43,-28.3 1384.59,-35.2"/>
</g>
<!-- 2057961401088 -->
<g id="node14" class="node">
<title>2057961401088</title>
<polygon fill="none" stroke="black" points="1630,-63 1603,-45 1630,-27 1657,-45 1630,-63"/>
<text text-anchor="middle" x="1630" y="-41.9" font-family="Times New Roman,serif" font-size="12.00">+</text>
</g>
<!-- 2057961390528&#45;&gt;2057961401088 -->
<g id="edge15" class="edge">
<title>2057961390528&#45;&gt;2057961401088</title>
<path fill="none" stroke="black" d="M1567.21,-55.36C1578.28,-53.51 1588.85,-51.73 1598.02,-50.2"/>
<polygon fill="black" stroke="black" points="1598.8,-53.61 1608.09,-48.51 1597.65,-46.71 1598.8,-53.61"/>
</g>
<!-- 2058987452064&#45;&gt;2057961401088 -->
<g id="edge16" class="edge">
<title>2058987452064&#45;&gt;2057961401088</title>
<path fill="none" stroke="black" d="M1540.02,-30.08C1560.35,-33.49 1581.41,-37.02 1597.94,-39.79"/>
<polygon fill="black" stroke="black" points="1597.65,-43.29 1608.09,-41.49 1598.8,-36.39 1597.65,-43.29"/>
</g>
<!-- 2057961400512 -->
<g id="node15" class="node">
<title>2057961400512</title>
<polygon fill="none" stroke="black" points="1823,-63 1693,-63 1693,-27 1823,-27 1823,-63"/>
<text text-anchor="middle" x="1758" y="-41.9" font-family="Times New Roman,serif" font-size="12.00">Receive customer inquiry</text>
</g>
<!-- 2057961401088&#45;&gt;2057961400512 -->
<g id="edge17" class="edge">
<title>2057961401088&#45;&gt;2057961400512</title>
<path fill="none" stroke="black" d="M1657.11,-45C1664.84,-45 1673.71,-45 1682.91,-45"/>
<polygon fill="black" stroke="black" points="1682.98,-48.5 1692.98,-45 1682.98,-41.5 1682.98,-48.5"/>
</g>
<!-- 2057961255456 -->
<g id="node16" class="node">
<title>2057961255456</title>
<ellipse fill="orange" stroke="black" cx="1877" cy="-45" rx="18" ry="18"/>
</g>
<!-- 2057961400512&#45;&gt;2057961255456 -->
<g id="edge18" class="edge">
<title>2057961400512&#45;&gt;2057961255456</title>
<path fill="none" stroke="black" d="M1823.32,-45C1832.27,-45 1841.04,-45 1848.77,-45"/>
<polygon fill="black" stroke="black" points="1848.93,-48.5 1858.93,-45 1848.93,-41.5 1848.93,-48.5"/>
</g>
</g>
</svg>
