<?xml version="1.0" encoding="UTF-8" standalone="no"?>
<!DOCTYPE svg PUBLIC "-//W3C//DTD SVG 1.1//EN"
 "http://www.w3.org/Graphics/SVG/1.1/DTD/svg11.dtd">
<!-- Generated by graphviz version 6.0.1 (20220911.1526)
 -->
<!-- Pages: 1 -->
<svg width="1866pt" height="129pt"
 viewBox="0.00 0.00 1866.00 128.80" xmlns="http://www.w3.org/2000/svg" xmlns:xlink="http://www.w3.org/1999/xlink">
<g id="graph0" class="graph" transform="scale(1 1) rotate(0) translate(4 124.8)">
<polygon fill="white" stroke="none" points="-4,4 -4,-124.8 1862,-124.8 1862,4 -4,4"/>
<!-- 2057962123808 -->
<g id="node1" class="node">
<title>2057962123808</title>
<ellipse fill="green" stroke="black" cx="18" cy="-72" rx="18" ry="18"/>
</g>
<!-- 2057962117568 -->
<g id="node2" class="node">
<title>2057962117568</title>
<polygon fill="none" stroke="black" points="99,-90 72,-72 99,-54 126,-72 99,-90"/>
<text text-anchor="middle" x="99" y="-68.9" font-family="Times New Roman,serif" font-size="12.00">X</text>
</g>
<!-- 2057962123808&#45;&gt;2057962117568 -->
<g id="edge1" class="edge">
<title>2057962123808&#45;&gt;2057962117568</title>
<path fill="none" stroke="black" d="M36.14,-72C43.64,-72 52.75,-72 61.64,-72"/>
<polygon fill="black" stroke="black" points="61.87,-75.5 71.87,-72 61.87,-68.5 61.87,-75.5"/>
</g>
<!-- 2057962117136 -->
<g id="node3" class="node">
<title>2057962117136</title>
<polygon fill="none" stroke="black" points="1177,-90 1150,-72 1177,-54 1204,-72 1177,-90"/>
<text text-anchor="middle" x="1177" y="-68.9" font-family="Times New Roman,serif" font-size="12.00">X</text>
</g>
<!-- 2057962117568&#45;&gt;2057962117136 -->
<g id="edge3" class="edge">
<title>2057962117568&#45;&gt;2057962117136</title>
<path fill="none" stroke="black" d="M114.29,-79.91C126.55,-86.27 144.89,-94.82 162,-99 282.31,-128.38 316.16,-118 440,-118 440,-118 440,-118 827,-118 954.83,-118 989.78,-129.19 1114,-99 1127.24,-95.78 1141.21,-89.94 1152.53,-84.51"/>
<polygon fill="black" stroke="black" points="1154.34,-87.52 1161.72,-79.91 1151.21,-81.25 1154.34,-87.52"/>
</g>
<!-- 2057962118192 -->
<g id="node4" class="node">
<title>2057962118192</title>
<polygon fill="none" stroke="black" points="344,-90 162,-90 162,-54 344,-54 344,-90"/>
<text text-anchor="middle" x="253" y="-68.9" font-family="Times New Roman,serif" font-size="12.00">Send order confirmation to customer</text>
</g>
<!-- 2057962117568&#45;&gt;2057962118192 -->
<g id="edge4" class="edge">
<title>2057962117568&#45;&gt;2057962118192</title>
<path fill="none" stroke="black" d="M126.13,-72C133.67,-72 142.39,-72 151.64,-72"/>
<polygon fill="black" stroke="black" points="151.87,-75.5 161.87,-72 151.87,-68.5 151.87,-75.5"/>
</g>
<!-- 2057962119200 -->
<g id="node5" class="node">
<title>2057962119200</title>
<polygon fill="none" stroke="black" points="293,-36 213,-36 213,0 293,0 293,-36"/>
<text text-anchor="middle" x="253" y="-14.9" font-family="Times New Roman,serif" font-size="12.00">Provide quote</text>
</g>
<!-- 2057962117568&#45;&gt;2057962119200 -->
<g id="edge2" class="edge">
<title>2057962117568&#45;&gt;2057962119200</title>
<path fill="none" stroke="black" d="M115.33,-64.71C127.76,-58.96 145.79,-50.94 162,-45 175.06,-40.22 189.41,-35.62 202.73,-31.63"/>
<polygon fill="black" stroke="black" points="204.08,-34.88 212.68,-28.69 202.1,-28.16 204.08,-34.88"/>
</g>
<!-- 2057962117712 -->
<g id="node6" class="node">
<title>2057962117712</title>
<polygon fill="none" stroke="black" points="1267,-90 1240,-72 1267,-54 1294,-72 1267,-90"/>
<text text-anchor="middle" x="1267" y="-68.9" font-family="Times New Roman,serif" font-size="12.00">+</text>
</g>
<!-- 2057962117136&#45;&gt;2057962117712 -->
<g id="edge5" class="edge">
<title>2057962117136&#45;&gt;2057962117712</title>
<path fill="none" stroke="black" d="M1204.4,-72C1212.39,-72 1221.31,-72 1229.82,-72"/>
<polygon fill="black" stroke="black" points="1229.92,-75.5 1239.92,-72 1229.92,-68.5 1229.92,-75.5"/>
</g>
<!-- 2057962120640 -->
<g id="node8" class="node">
<title>2057962120640</title>
<polygon fill="none" stroke="black" points="502,-90 380,-90 380,-54 502,-54 502,-90"/>
<text text-anchor="middle" x="441" y="-68.9" font-family="Times New Roman,serif" font-size="12.00">Record order in system</text>
</g>
<!-- 2057962118192&#45;&gt;2057962120640 -->
<g id="edge6" class="edge">
<title>2057962118192&#45;&gt;2057962120640</title>
<path fill="none" stroke="black" d="M344,-72C352.64,-72 361.31,-72 369.72,-72"/>
<polygon fill="black" stroke="black" points="369.82,-75.5 379.82,-72 369.82,-68.5 369.82,-75.5"/>
</g>
<!-- 2057962117856 -->
<g id="node7" class="node">
<title>2057962117856</title>
<polygon fill="none" stroke="black" points="750,-36 538,-36 538,0 750,0 750,-36"/>
<text text-anchor="middle" x="644" y="-14.9" font-family="Times New Roman,serif" font-size="12.00">Guide customer in selecting product/service</text>
</g>
<!-- 2057962119200&#45;&gt;2057962117856 -->
<g id="edge7" class="edge">
<title>2057962119200&#45;&gt;2057962117856</title>
<path fill="none" stroke="black" d="M293.08,-18C347.49,-18 448.35,-18 527.85,-18"/>
<polygon fill="black" stroke="black" points="527.93,-21.5 537.93,-18 527.93,-14.5 527.93,-21.5"/>
</g>
<!-- 2057962118528 -->
<g id="node9" class="node">
<title>2057962118528</title>
<polygon fill="none" stroke="black" points="1503,-117 1357,-117 1357,-81 1503,-81 1503,-117"/>
<text text-anchor="middle" x="1430" y="-95.9" font-family="Times New Roman,serif" font-size="12.00">Collect customer information</text>
</g>
<!-- 2057962117712&#45;&gt;2057962118528 -->
<g id="edge10" class="edge">
<title>2057962117712&#45;&gt;2057962118528</title>
<path fill="none" stroke="black" d="M1289.05,-75.53C1304.13,-78.06 1325.49,-81.64 1347,-85.25"/>
<polygon fill="black" stroke="black" points="1346.43,-88.7 1356.87,-86.9 1347.59,-81.8 1346.43,-88.7"/>
</g>
<!-- 2057962119536 -->
<g id="node10" class="node">
<title>2057962119536</title>
<polygon fill="none" stroke="black" points="1530,-63 1330,-63 1330,-27 1530,-27 1530,-63"/>
<text text-anchor="middle" x="1430" y="-41.9" font-family="Times New Roman,serif" font-size="12.00">Address customer concerns or questions</text>
</g>
<!-- 2057962117712&#45;&gt;2057962119536 -->
<g id="edge9" class="edge">
<title>2057962117712&#45;&gt;2057962119536</title>
<path fill="none" stroke="black" d="M1289.05,-68.47C1297.64,-67.03 1308.27,-65.25 1319.8,-63.31"/>
<polygon fill="black" stroke="black" points="1320.4,-66.76 1329.68,-61.66 1319.24,-59.86 1320.4,-66.76"/>
</g>
<!-- 2057962117856&#45;&gt;2057962117136 -->
<g id="edge8" class="edge">
<title>2057962117856&#45;&gt;2057962117136</title>
<path fill="none" stroke="black" d="M750.38,-13.57C846.45,-12 991.63,-15.82 1114,-45 1127.25,-48.16 1141.22,-54 1152.54,-59.44"/>
<polygon fill="black" stroke="black" points="1151.22,-62.69 1161.72,-64.05 1154.35,-56.44 1151.22,-62.69"/>
</g>
<!-- 2057962120976 -->
<g id="node11" class="node">
<title>2057962120976</title>
<polygon fill="none" stroke="black" points="678.5,-90 609.5,-90 609.5,-54 678.5,-54 678.5,-90"/>
<text text-anchor="middle" x="644" y="-68.9" font-family="Times New Roman,serif" font-size="12.00">Place order</text>
</g>
<!-- 2057962120640&#45;&gt;2057962120976 -->
<g id="edge11" class="edge">
<title>2057962120640&#45;&gt;2057962120976</title>
<path fill="none" stroke="black" d="M502.03,-72C533.25,-72 570.72,-72 599.18,-72"/>
<polygon fill="black" stroke="black" points="599.23,-75.5 609.23,-72 599.23,-68.5 599.23,-75.5"/>
</g>
<!-- 2057962119680 -->
<g id="node13" class="node">
<title>2057962119680</title>
<polygon fill="none" stroke="black" points="1593,-90 1566,-72 1593,-54 1620,-72 1593,-90"/>
<text text-anchor="middle" x="1593" y="-68.9" font-family="Times New Roman,serif" font-size="12.00">+</text>
</g>
<!-- 2057962118528&#45;&gt;2057962119680 -->
<g id="edge12" class="edge">
<title>2057962118528&#45;&gt;2057962119680</title>
<path fill="none" stroke="black" d="M1503.02,-86.92C1523.35,-83.51 1544.41,-79.98 1560.94,-77.21"/>
<polygon fill="black" stroke="black" points="1561.8,-80.61 1571.09,-75.51 1560.65,-73.71 1561.8,-80.61"/>
</g>
<!-- 2057962119536&#45;&gt;2057962119680 -->
<g id="edge13" class="edge">
<title>2057962119536&#45;&gt;2057962119680</title>
<path fill="none" stroke="black" d="M1530.21,-61.64C1541.28,-63.49 1551.85,-65.27 1561.02,-66.8"/>
<polygon fill="black" stroke="black" points="1560.65,-70.29 1571.09,-68.49 1561.8,-63.39 1560.65,-70.29"/>
</g>
<!-- 2057962119872 -->
<g id="node12" class="node">
<title>2057962119872</title>
<polygon fill="none" stroke="black" points="866,-90 786,-90 786,-54 866,-54 866,-90"/>
<text text-anchor="middle" x="826" y="-68.9" font-family="Times New Roman,serif" font-size="12.00">Provide quote</text>
</g>
<!-- 2057962120976&#45;&gt;2057962119872 -->
<g id="edge14" class="edge">
<title>2057962120976&#45;&gt;2057962119872</title>
<path fill="none" stroke="black" d="M678.86,-72C706.21,-72 745.09,-72 775.88,-72"/>
<polygon fill="black" stroke="black" points="775.98,-75.5 785.98,-72 775.98,-68.5 775.98,-75.5"/>
</g>
<!-- 2057962118864 -->
<g id="node14" class="node">
<title>2057962118864</title>
<polygon fill="none" stroke="black" points="1114,-90 902,-90 902,-54 1114,-54 1114,-90"/>
<text text-anchor="middle" x="1008" y="-68.9" font-family="Times New Roman,serif" font-size="12.00">Guide customer in selecting product/service</text>
</g>
<!-- 2057962119872&#45;&gt;2057962118864 -->
<g id="edge15" class="edge">
<title>2057962119872&#45;&gt;2057962118864</title>
<path fill="none" stroke="black" d="M866.06,-72C874.03,-72 882.8,-72 891.94,-72"/>
<polygon fill="black" stroke="black" points="891.99,-75.5 901.99,-72 891.99,-68.5 891.99,-75.5"/>
</g>
<!-- 2057962120256 -->
<g id="node15" class="node">
<title>2057962120256</title>
<polygon fill="none" stroke="black" points="1786,-90 1656,-90 1656,-54 1786,-54 1786,-90"/>
<text text-anchor="middle" x="1721" y="-68.9" font-family="Times New Roman,serif" font-size="12.00">Receive customer inquiry</text>
</g>
<!-- 2057962119680&#45;&gt;2057962120256 -->
<g id="edge16" class="edge">
<title>2057962119680&#45;&gt;2057962120256</title>
<path fill="none" stroke="black" d="M1620.11,-72C1627.84,-72 1636.71,-72 1645.91,-72"/>
<polygon fill="black" stroke="black" points="1645.98,-75.5 1655.98,-72 1645.98,-68.5 1645.98,-75.5"/>
</g>
<!-- 2057962118864&#45;&gt;2057962117136 -->
<g id="edge17" class="edge">
<title>2057962118864&#45;&gt;2057962117136</title>
<path fill="none" stroke="black" d="M1114.29,-72C1123.34,-72 1132.01,-72 1139.86,-72"/>
<polygon fill="black" stroke="black" points="1140,-75.5 1150,-72 1140,-68.5 1140,-75.5"/>
</g>
<!-- 2057962121024 -->
<g id="node16" class="node">
<title>2057962121024</title>
<ellipse fill="orange" stroke="black" cx="1840" cy="-72" rx="18" ry="18"/>
</g>
<!-- 2057962120256&#45;&gt;2057962121024 -->
<g id="edge18" class="edge">
<title>2057962120256&#45;&gt;2057962121024</title>
<path fill="none" stroke="black" d="M1786.32,-72C1795.27,-72 1804.04,-72 1811.77,-72"/>
<polygon fill="black" stroke="black" points="1811.93,-75.5 1821.93,-72 1811.93,-68.5 1811.93,-75.5"/>
</g>
</g>
</svg>
