<?xml version="1.0" encoding="UTF-8" standalone="no"?>
<!DOCTYPE svg PUBLIC "-//W3C//DTD SVG 1.1//EN"
 "http://www.w3.org/Graphics/SVG/1.1/DTD/svg11.dtd">
<!-- Generated by graphviz version 6.0.1 (20220911.1526)
 -->
<!-- Pages: 1 -->
<svg width="1815pt" height="110pt"
 viewBox="0.00 0.00 1815.00 109.58" xmlns="http://www.w3.org/2000/svg" xmlns:xlink="http://www.w3.org/1999/xlink">
<g id="graph0" class="graph" transform="scale(1 1) rotate(0) translate(4 105.58)">
<polygon fill="white" stroke="none" points="-4,4 -4,-105.58 1811,-105.58 1811,4 -4,4"/>
<!-- 2057960888288 -->
<g id="node1" class="node">
<title>2057960888288</title>
<ellipse fill="green" stroke="black" cx="18" cy="-45" rx="18" ry="18"/>
</g>
<!-- 2057960885216 -->
<g id="node2" class="node">
<title>2057960885216</title>
<polygon fill="none" stroke="black" points="218,-63 72,-63 72,-27 218,-27 218,-63"/>
<text text-anchor="middle" x="145" y="-41.9" font-family="Times New Roman,serif" font-size="12.00">Collect customer information</text>
</g>
<!-- 2057960888288&#45;&gt;2057960885216 -->
<g id="edge1" class="edge">
<title>2057960888288&#45;&gt;2057960885216</title>
<path fill="none" stroke="black" d="M36.12,-45C43.26,-45 52.13,-45 61.68,-45"/>
<polygon fill="black" stroke="black" points="61.84,-48.5 71.84,-45 61.84,-41.5 61.84,-48.5"/>
</g>
<!-- 2057960895488 -->
<g id="node3" class="node">
<title>2057960895488</title>
<polygon fill="none" stroke="black" points="281,-63 254,-45 281,-27 308,-45 281,-63"/>
<text text-anchor="middle" x="281" y="-41.9" font-family="Times New Roman,serif" font-size="12.00">+</text>
</g>
<!-- 2057960885216&#45;&gt;2057960895488 -->
<g id="edge2" class="edge">
<title>2057960885216&#45;&gt;2057960895488</title>
<path fill="none" stroke="black" d="M218.1,-45C226.97,-45 235.73,-45 243.73,-45"/>
<polygon fill="black" stroke="black" points="243.77,-48.5 253.77,-45 243.77,-41.5 243.77,-48.5"/>
</g>
<!-- 2058987103152 -->
<g id="node4" class="node">
<title>2058987103152</title>
<polygon fill="none" stroke="black" points="474,-88 344,-88 344,-52 474,-52 474,-88"/>
<text text-anchor="middle" x="409" y="-66.9" font-family="Times New Roman,serif" font-size="12.00">Receive customer inquiry</text>
</g>
<!-- 2057960895488&#45;&gt;2058987103152 -->
<g id="edge3" class="edge">
<title>2057960895488&#45;&gt;2058987103152</title>
<path fill="none" stroke="black" d="M302.24,-49.02C311.21,-50.8 322.37,-53.01 334.04,-55.33"/>
<polygon fill="black" stroke="black" points="333.44,-58.77 343.93,-57.29 334.8,-51.91 333.44,-58.77"/>
</g>
<!-- 2057960893040 -->
<g id="node5" class="node">
<title>2057960893040</title>
<polygon fill="none" stroke="black" points="579,-36 510,-36 510,0 579,0 579,-36"/>
<text text-anchor="middle" x="544.5" y="-14.9" font-family="Times New Roman,serif" font-size="12.00">Place order</text>
</g>
<!-- 2057960895488&#45;&gt;2057960893040 -->
<g id="edge4" class="edge">
<title>2057960895488&#45;&gt;2057960893040</title>
<path fill="none" stroke="black" d="M304.75,-42.65C348.15,-38.17 443.44,-28.33 499.63,-22.53"/>
<polygon fill="black" stroke="black" points="500.05,-26 509.64,-21.5 499.33,-19.04 500.05,-26"/>
</g>
<!-- 2058987095616 -->
<g id="node6" class="node">
<title>2058987095616</title>
<polygon fill="none" stroke="black" points="544.5,-90 517.5,-72 544.5,-54 571.5,-72 544.5,-90"/>
<text text-anchor="middle" x="544.5" y="-68.9" font-family="Times New Roman,serif" font-size="12.00">X</text>
</g>
<!-- 2058987103152&#45;&gt;2058987095616 -->
<g id="edge5" class="edge">
<title>2058987103152&#45;&gt;2058987095616</title>
<path fill="none" stroke="black" d="M474.01,-70.96C485.54,-71.13 497.17,-71.31 507.53,-71.46"/>
<polygon fill="black" stroke="black" points="507.76,-74.96 517.81,-71.62 507.87,-67.97 507.76,-74.96"/>
</g>
<!-- 2058987098592 -->
<g id="node7" class="node">
<title>2058987098592</title>
<polygon fill="none" stroke="black" points="950,-59 923,-41 950,-23 977,-41 950,-59"/>
<text text-anchor="middle" x="950" y="-37.9" font-family="Times New Roman,serif" font-size="12.00">+</text>
</g>
<!-- 2057960893040&#45;&gt;2058987098592 -->
<g id="edge6" class="edge">
<title>2057960893040&#45;&gt;2058987098592</title>
<path fill="none" stroke="black" d="M579.44,-19.79C640.82,-23.05 774.38,-30.23 887,-37 896.05,-37.54 905.85,-38.16 914.92,-38.75"/>
<polygon fill="black" stroke="black" points="914.95,-42.26 925.16,-39.41 915.4,-35.27 914.95,-42.26"/>
</g>
<!-- 2058987095712 -->
<g id="node8" class="node">
<title>2058987095712</title>
<polygon fill="none" stroke="black" points="860,-82 833,-64 860,-46 887,-64 860,-82"/>
<text text-anchor="middle" x="860" y="-60.9" font-family="Times New Roman,serif" font-size="12.00">X</text>
</g>
<!-- 2058987095616&#45;&gt;2058987095712 -->
<g id="edge8" class="edge">
<title>2058987095616&#45;&gt;2058987095712</title>
<path fill="none" stroke="black" d="M562.66,-78.07C576.56,-82.65 596.78,-88.55 615,-91 695.17,-101.76 717.81,-107.49 797,-91 810.33,-88.22 824.32,-82.42 835.62,-76.9"/>
<polygon fill="black" stroke="black" points="837.48,-79.88 844.78,-72.21 834.28,-73.65 837.48,-79.88"/>
</g>
<!-- 2057960882384 -->
<g id="node10" class="node">
<title>2057960882384</title>
<polygon fill="none" stroke="black" points="797,-82 615,-82 615,-46 797,-46 797,-82"/>
<text text-anchor="middle" x="706" y="-60.9" font-family="Times New Roman,serif" font-size="12.00">Send order confirmation to customer</text>
</g>
<!-- 2058987095616&#45;&gt;2057960882384 -->
<g id="edge7" class="edge">
<title>2058987095616&#45;&gt;2057960882384</title>
<path fill="none" stroke="black" d="M569.72,-70.78C579.66,-70.29 591.87,-69.67 604.85,-69.02"/>
<polygon fill="black" stroke="black" points="605.09,-72.52 614.91,-68.52 604.74,-65.52 605.09,-72.52"/>
</g>
<!-- 2058987098928 -->
<g id="node9" class="node">
<title>2058987098928</title>
<polygon fill="none" stroke="black" points="1213,-59 1013,-59 1013,-23 1213,-23 1213,-59"/>
<text text-anchor="middle" x="1113" y="-37.9" font-family="Times New Roman,serif" font-size="12.00">Address customer concerns or questions</text>
</g>
<!-- 2058987098592&#45;&gt;2058987098928 -->
<g id="edge9" class="edge">
<title>2058987098592&#45;&gt;2058987098928</title>
<path fill="none" stroke="black" d="M977.23,-41C984.69,-41 993.31,-41 1002.52,-41"/>
<polygon fill="black" stroke="black" points="1002.71,-44.5 1012.71,-41 1002.71,-37.5 1002.71,-44.5"/>
</g>
<!-- 2058987095712&#45;&gt;2058987098592 -->
<g id="edge10" class="edge">
<title>2058987095712&#45;&gt;2058987098592</title>
<path fill="none" stroke="black" d="M880.09,-59.01C891.82,-55.94 907.07,-51.96 920.24,-48.52"/>
<polygon fill="black" stroke="black" points="921.45,-51.82 930.24,-45.9 919.68,-45.04 921.45,-51.82"/>
</g>
<!-- 2057960893616 -->
<g id="node11" class="node">
<title>2057960893616</title>
<polygon fill="none" stroke="black" points="1329,-59 1249,-59 1249,-23 1329,-23 1329,-59"/>
<text text-anchor="middle" x="1289" y="-37.9" font-family="Times New Roman,serif" font-size="12.00">Provide quote</text>
</g>
<!-- 2058987098928&#45;&gt;2057960893616 -->
<g id="edge12" class="edge">
<title>2058987098928&#45;&gt;2057960893616</title>
<path fill="none" stroke="black" d="M1213.2,-41C1221.9,-41 1230.44,-41 1238.45,-41"/>
<polygon fill="black" stroke="black" points="1238.65,-44.5 1248.65,-41 1238.65,-37.5 1238.65,-44.5"/>
</g>
<!-- 2057960882384&#45;&gt;2058987095712 -->
<g id="edge11" class="edge">
<title>2057960882384&#45;&gt;2058987095712</title>
<path fill="none" stroke="black" d="M797.18,-64C806.14,-64 814.83,-64 822.73,-64"/>
<polygon fill="black" stroke="black" points="822.96,-67.5 832.96,-64 822.96,-60.5 822.96,-67.5"/>
</g>
<!-- 2057960882432 -->
<g id="node12" class="node">
<title>2057960882432</title>
<polygon fill="none" stroke="black" points="1577,-59 1365,-59 1365,-23 1577,-23 1577,-59"/>
<text text-anchor="middle" x="1471" y="-37.9" font-family="Times New Roman,serif" font-size="12.00">Guide customer in selecting product/service</text>
</g>
<!-- 2057960893616&#45;&gt;2057960882432 -->
<g id="edge13" class="edge">
<title>2057960893616&#45;&gt;2057960882432</title>
<path fill="none" stroke="black" d="M1329.06,-41C1337.03,-41 1345.8,-41 1354.94,-41"/>
<polygon fill="black" stroke="black" points="1354.99,-44.5 1364.99,-41 1354.99,-37.5 1354.99,-44.5"/>
</g>
<!-- 2057960885840 -->
<g id="node13" class="node">
<title>2057960885840</title>
<polygon fill="none" stroke="black" points="1735,-59 1613,-59 1613,-23 1735,-23 1735,-59"/>
<text text-anchor="middle" x="1674" y="-37.9" font-family="Times New Roman,serif" font-size="12.00">Record order in system</text>
</g>
<!-- 2057960882432&#45;&gt;2057960885840 -->
<g id="edge14" class="edge">
<title>2057960882432&#45;&gt;2057960885840</title>
<path fill="none" stroke="black" d="M1577.21,-41C1585.92,-41 1594.58,-41 1602.94,-41"/>
<polygon fill="black" stroke="black" points="1602.96,-44.5 1612.96,-41 1602.96,-37.5 1602.96,-44.5"/>
</g>
<!-- 2057960408688 -->
<g id="node14" class="node">
<title>2057960408688</title>
<ellipse fill="orange" stroke="black" cx="1789" cy="-41" rx="18" ry="18"/>
</g>
<!-- 2057960885840&#45;&gt;2057960408688 -->
<g id="edge15" class="edge">
<title>2057960885840&#45;&gt;2057960408688</title>
<path fill="none" stroke="black" d="M1735.14,-41C1744.02,-41 1752.79,-41 1760.55,-41"/>
<polygon fill="black" stroke="black" points="1760.76,-44.5 1770.76,-41 1760.76,-37.5 1760.76,-44.5"/>
</g>
</g>
</svg>
