<?xml version="1.0" encoding="UTF-8" standalone="no"?>
<!DOCTYPE svg PUBLIC "-//W3C//DTD SVG 1.1//EN"
 "http://www.w3.org/Graphics/SVG/1.1/DTD/svg11.dtd">
<!-- Generated by graphviz version 6.0.1 (20220911.1526)
 -->
<!-- Pages: 1 -->
<svg width="1815pt" height="132pt"
 viewBox="0.00 0.00 1815.00 132.00" xmlns="http://www.w3.org/2000/svg" xmlns:xlink="http://www.w3.org/1999/xlink">
<g id="graph0" class="graph" transform="scale(1 1) rotate(0) translate(4 128)">
<polygon fill="white" stroke="none" points="-4,4 -4,-128 1811,-128 1811,4 -4,4"/>
<!-- 2057960892320 -->
<g id="node1" class="node">
<title>2057960892320</title>
<ellipse fill="green" stroke="black" cx="18" cy="-79" rx="18" ry="18"/>
</g>
<!-- 2057960883872 -->
<g id="node2" class="node">
<title>2057960883872</title>
<polygon fill="none" stroke="black" points="218,-97 72,-97 72,-61 218,-61 218,-97"/>
<text text-anchor="middle" x="145" y="-75.9" font-family="Times New Roman,serif" font-size="12.00">Collect customer information</text>
</g>
<!-- 2057960892320&#45;&gt;2057960883872 -->
<g id="edge1" class="edge">
<title>2057960892320&#45;&gt;2057960883872</title>
<path fill="none" stroke="black" d="M36.12,-79C43.26,-79 52.13,-79 61.68,-79"/>
<polygon fill="black" stroke="black" points="61.84,-82.5 71.84,-79 61.84,-75.5 61.84,-82.5"/>
</g>
<!-- 2057960883680 -->
<g id="node3" class="node">
<title>2057960883680</title>
<polygon fill="none" stroke="black" points="281,-97 254,-79 281,-61 308,-79 281,-97"/>
<text text-anchor="middle" x="281" y="-75.9" font-family="Times New Roman,serif" font-size="12.00">+</text>
</g>
<!-- 2057960883872&#45;&gt;2057960883680 -->
<g id="edge2" class="edge">
<title>2057960883872&#45;&gt;2057960883680</title>
<path fill="none" stroke="black" d="M218.1,-79C226.97,-79 235.73,-79 243.73,-79"/>
<polygon fill="black" stroke="black" points="243.77,-82.5 253.77,-79 243.77,-75.5 243.77,-82.5"/>
</g>
<!-- 2057960887040 -->
<g id="node4" class="node">
<title>2057960887040</title>
<polygon fill="none" stroke="black" points="579,-124 510,-124 510,-88 579,-88 579,-124"/>
<text text-anchor="middle" x="544.5" y="-102.9" font-family="Times New Roman,serif" font-size="12.00">Place order</text>
</g>
<!-- 2057960883680&#45;&gt;2057960887040 -->
<g id="edge4" class="edge">
<title>2057960883680&#45;&gt;2057960887040</title>
<path fill="none" stroke="black" d="M304.75,-81.35C348.15,-85.83 443.44,-95.67 499.63,-101.47"/>
<polygon fill="black" stroke="black" points="499.33,-104.96 509.64,-102.5 500.05,-98 499.33,-104.96"/>
</g>
<!-- 2057960885552 -->
<g id="node5" class="node">
<title>2057960885552</title>
<polygon fill="none" stroke="black" points="474,-74 344,-74 344,-38 474,-38 474,-74"/>
<text text-anchor="middle" x="409" y="-52.9" font-family="Times New Roman,serif" font-size="12.00">Receive customer inquiry</text>
</g>
<!-- 2057960883680&#45;&gt;2057960885552 -->
<g id="edge3" class="edge">
<title>2057960883680&#45;&gt;2057960885552</title>
<path fill="none" stroke="black" d="M302.52,-75.25C311.37,-73.64 322.31,-71.64 333.75,-69.55"/>
<polygon fill="black" stroke="black" points="334.7,-72.94 343.91,-67.7 333.44,-66.05 334.7,-72.94"/>
</g>
<!-- 2057960898272 -->
<g id="node7" class="node">
<title>2057960898272</title>
<polygon fill="none" stroke="black" points="950,-101 923,-83 950,-65 977,-83 950,-101"/>
<text text-anchor="middle" x="950" y="-79.9" font-family="Times New Roman,serif" font-size="12.00">+</text>
</g>
<!-- 2057960887040&#45;&gt;2057960898272 -->
<g id="edge5" class="edge">
<title>2057960887040&#45;&gt;2057960898272</title>
<path fill="none" stroke="black" d="M579.44,-104.21C640.82,-100.95 774.38,-93.77 887,-87 896.05,-86.46 905.85,-85.84 914.92,-85.25"/>
<polygon fill="black" stroke="black" points="915.4,-88.73 925.16,-84.59 914.95,-81.74 915.4,-88.73"/>
</g>
<!-- 2057960893232 -->
<g id="node6" class="node">
<title>2057960893232</title>
<polygon fill="none" stroke="black" points="544.5,-70 517.5,-52 544.5,-34 571.5,-52 544.5,-70"/>
<text text-anchor="middle" x="544.5" y="-48.9" font-family="Times New Roman,serif" font-size="12.00">X</text>
</g>
<!-- 2057960885552&#45;&gt;2057960893232 -->
<g id="edge6" class="edge">
<title>2057960885552&#45;&gt;2057960893232</title>
<path fill="none" stroke="black" d="M474.01,-54.08C485.86,-53.73 497.82,-53.37 508.4,-53.05"/>
<polygon fill="black" stroke="black" points="508.57,-56.55 518.46,-52.75 508.36,-49.55 508.57,-56.55"/>
</g>
<!-- 2057960885072 -->
<g id="node8" class="node">
<title>2057960885072</title>
<polygon fill="none" stroke="black" points="860,-78 833,-60 860,-42 887,-60 860,-78"/>
<text text-anchor="middle" x="860" y="-56.9" font-family="Times New Roman,serif" font-size="12.00">X</text>
</g>
<!-- 2057960893232&#45;&gt;2057960885072 -->
<g id="edge7" class="edge">
<title>2057960893232&#45;&gt;2057960885072</title>
<path fill="none" stroke="black" d="M570.63,-52.64C626.23,-54.06 759.82,-57.47 823.75,-59.1"/>
<polygon fill="black" stroke="black" points="823.67,-62.6 833.76,-59.36 823.85,-55.6 823.67,-62.6"/>
</g>
<!-- 2057960884064 -->
<g id="node10" class="node">
<title>2057960884064</title>
<polygon fill="none" stroke="black" points="797,-36 615,-36 615,0 797,0 797,-36"/>
<text text-anchor="middle" x="706" y="-14.9" font-family="Times New Roman,serif" font-size="12.00">Send order confirmation to customer</text>
</g>
<!-- 2057960893232&#45;&gt;2057960884064 -->
<g id="edge8" class="edge">
<title>2057960893232&#45;&gt;2057960884064</title>
<path fill="none" stroke="black" d="M565.38,-47.76C577.25,-45.23 593.28,-41.81 610.26,-38.2"/>
<polygon fill="black" stroke="black" points="611.29,-41.56 620.34,-36.05 609.83,-34.71 611.29,-41.56"/>
</g>
<!-- 2057960892752 -->
<g id="node9" class="node">
<title>2057960892752</title>
<polygon fill="none" stroke="black" points="1213,-101 1013,-101 1013,-65 1213,-65 1213,-101"/>
<text text-anchor="middle" x="1113" y="-79.9" font-family="Times New Roman,serif" font-size="12.00">Address customer concerns or questions</text>
</g>
<!-- 2057960898272&#45;&gt;2057960892752 -->
<g id="edge9" class="edge">
<title>2057960898272&#45;&gt;2057960892752</title>
<path fill="none" stroke="black" d="M977.23,-83C984.69,-83 993.31,-83 1002.52,-83"/>
<polygon fill="black" stroke="black" points="1002.71,-86.5 1012.71,-83 1002.71,-79.5 1002.71,-86.5"/>
</g>
<!-- 2057960885072&#45;&gt;2057960898272 -->
<g id="edge10" class="edge">
<title>2057960885072&#45;&gt;2057960898272</title>
<path fill="none" stroke="black" d="M880.09,-64.99C891.82,-68.06 907.07,-72.04 920.24,-75.48"/>
<polygon fill="black" stroke="black" points="919.68,-78.96 930.24,-78.1 921.45,-72.18 919.68,-78.96"/>
</g>
<!-- 2057960884928 -->
<g id="node11" class="node">
<title>2057960884928</title>
<polygon fill="none" stroke="black" points="1329,-101 1249,-101 1249,-65 1329,-65 1329,-101"/>
<text text-anchor="middle" x="1289" y="-79.9" font-family="Times New Roman,serif" font-size="12.00">Provide quote</text>
</g>
<!-- 2057960892752&#45;&gt;2057960884928 -->
<g id="edge12" class="edge">
<title>2057960892752&#45;&gt;2057960884928</title>
<path fill="none" stroke="black" d="M1213.2,-83C1221.9,-83 1230.44,-83 1238.45,-83"/>
<polygon fill="black" stroke="black" points="1238.65,-86.5 1248.65,-83 1238.65,-79.5 1238.65,-86.5"/>
</g>
<!-- 2057960884064&#45;&gt;2057960885072 -->
<g id="edge11" class="edge">
<title>2057960884064&#45;&gt;2057960885072</title>
<path fill="none" stroke="black" d="M772.34,-36.06C792.67,-41.67 814.04,-47.58 830.47,-52.12"/>
<polygon fill="black" stroke="black" points="829.92,-55.6 840.49,-54.89 831.79,-48.85 829.92,-55.6"/>
</g>
<!-- 2057960883344 -->
<g id="node12" class="node">
<title>2057960883344</title>
<polygon fill="none" stroke="black" points="1577,-101 1365,-101 1365,-65 1577,-65 1577,-101"/>
<text text-anchor="middle" x="1471" y="-79.9" font-family="Times New Roman,serif" font-size="12.00">Guide customer in selecting product/service</text>
</g>
<!-- 2057960884928&#45;&gt;2057960883344 -->
<g id="edge13" class="edge">
<title>2057960884928&#45;&gt;2057960883344</title>
<path fill="none" stroke="black" d="M1329.06,-83C1337.03,-83 1345.8,-83 1354.94,-83"/>
<polygon fill="black" stroke="black" points="1354.99,-86.5 1364.99,-83 1354.99,-79.5 1354.99,-86.5"/>
</g>
<!-- 2057960882528 -->
<g id="node13" class="node">
<title>2057960882528</title>
<polygon fill="none" stroke="black" points="1735,-101 1613,-101 1613,-65 1735,-65 1735,-101"/>
<text text-anchor="middle" x="1674" y="-79.9" font-family="Times New Roman,serif" font-size="12.00">Record order in system</text>
</g>
<!-- 2057960883344&#45;&gt;2057960882528 -->
<g id="edge14" class="edge">
<title>2057960883344&#45;&gt;2057960882528</title>
<path fill="none" stroke="black" d="M1577.21,-83C1585.92,-83 1594.58,-83 1602.94,-83"/>
<polygon fill="black" stroke="black" points="1602.96,-86.5 1612.96,-83 1602.96,-79.5 1602.96,-86.5"/>
</g>
<!-- 2057960883392 -->
<g id="node14" class="node">
<title>2057960883392</title>
<ellipse fill="orange" stroke="black" cx="1789" cy="-83" rx="18" ry="18"/>
</g>
<!-- 2057960882528&#45;&gt;2057960883392 -->
<g id="edge15" class="edge">
<title>2057960882528&#45;&gt;2057960883392</title>
<path fill="none" stroke="black" d="M1735.14,-83C1744.02,-83 1752.79,-83 1760.55,-83"/>
<polygon fill="black" stroke="black" points="1760.76,-86.5 1770.76,-83 1760.76,-79.5 1760.76,-86.5"/>
</g>
</g>
</svg>
