<?xml version="1.0" encoding="UTF-8" standalone="no"?>
<!DOCTYPE svg PUBLIC "-//W3C//DTD SVG 1.1//EN"
 "http://www.w3.org/Graphics/SVG/1.1/DTD/svg11.dtd">
<!-- Generated by graphviz version 2.50.0 (0)
 -->
<!-- Pages: 1 -->
<svg width="4098pt" height="224pt"
 viewBox="0.00 0.00 4098.00 224.00" xmlns="http://www.w3.org/2000/svg" xmlns:xlink="http://www.w3.org/1999/xlink">
<g id="graph0" class="graph" transform="scale(1 1) rotate(0) translate(4 220)">
<polygon fill="white" stroke="transparent" points="-4,4 -4,-220 4094,-220 4094,4 -4,4"/>
<!-- 6033419536 -->
<g id="node1" class="node">
<title>6033419536</title>
<ellipse fill="green" stroke="black" cx="18" cy="-75" rx="18" ry="18"/>
</g>
<!-- 6059961488 -->
<g id="node2" class="node">
<title>6059961488</title>
<polygon fill="none" stroke="black" points="180,-93 72,-93 72,-57 180,-57 180,-93"/>
<text text-anchor="middle" x="126" y="-71.9" font-family="Times,serif" font-size="12.00">Close audit process</text>
</g>
<!-- 6033419536&#45;&gt;6059961488 -->
<g id="edge1" class="edge">
<title>6033419536&#45;&gt;6059961488</title>
<path fill="none" stroke="black" d="M36.03,-75C43.25,-75 52.16,-75 61.52,-75"/>
<polygon fill="black" stroke="black" points="61.8,-78.5 71.8,-75 61.8,-71.5 61.8,-78.5"/>
</g>
<!-- 6059764304 -->
<g id="node3" class="node">
<title>6059764304</title>
<polygon fill="none" stroke="black" points="302,-93 216,-93 216,-57 302,-57 302,-93"/>
<text text-anchor="middle" x="259" y="-71.9" font-family="Times,serif" font-size="12.00">Archive report</text>
</g>
<!-- 6059961488&#45;&gt;6059764304 -->
<g id="edge2" class="edge">
<title>6059961488&#45;&gt;6059764304</title>
<path fill="none" stroke="black" d="M180.28,-75C188.55,-75 197.09,-75 205.34,-75"/>
<polygon fill="black" stroke="black" points="205.6,-78.5 215.6,-75 205.6,-71.5 205.6,-78.5"/>
</g>
<!-- 6059952272 -->
<g id="node4" class="node">
<title>6059952272</title>
<polygon fill="none" stroke="black" points="456,-93 338,-93 338,-57 456,-57 456,-93"/>
<text text-anchor="middle" x="397" y="-71.9" font-family="Times,serif" font-size="12.00">Distribute final report</text>
</g>
<!-- 6059764304&#45;&gt;6059952272 -->
<g id="edge3" class="edge">
<title>6059764304&#45;&gt;6059952272</title>
<path fill="none" stroke="black" d="M302.29,-75C310.36,-75 318.99,-75 327.64,-75"/>
<polygon fill="black" stroke="black" points="327.76,-78.5 337.76,-75 327.76,-71.5 327.76,-78.5"/>
</g>
<!-- 6055181264 -->
<g id="node5" class="node">
<title>6055181264</title>
<polygon fill="none" stroke="black" points="581,-93 492,-93 492,-57 581,-57 581,-93"/>
<text text-anchor="middle" x="536.5" y="-71.9" font-family="Times,serif" font-size="12.00">Approve report</text>
</g>
<!-- 6059952272&#45;&gt;6055181264 -->
<g id="edge4" class="edge">
<title>6059952272&#45;&gt;6055181264</title>
<path fill="none" stroke="black" d="M456.31,-75C464.65,-75 473.2,-75 481.45,-75"/>
<polygon fill="black" stroke="black" points="481.7,-78.5 491.7,-75 481.7,-71.5 481.7,-78.5"/>
</g>
<!-- 6055130064 -->
<g id="node6" class="node">
<title>6055130064</title>
<polygon fill="none" stroke="black" points="644,-93 617,-75 644,-57 671,-75 644,-93"/>
<text text-anchor="middle" x="644" y="-71.9" font-family="Times,serif" font-size="12.00">X</text>
</g>
<!-- 6055181264&#45;&gt;6055130064 -->
<g id="edge5" class="edge">
<title>6055181264&#45;&gt;6055130064</title>
<path fill="none" stroke="black" d="M581.02,-75C589.56,-75 598.43,-75 606.71,-75"/>
<polygon fill="black" stroke="black" points="606.8,-78.5 616.8,-75 606.8,-71.5 606.8,-78.5"/>
</g>
<!-- 6055171664 -->
<g id="node7" class="node">
<title>6055171664</title>
<polygon fill="none" stroke="black" points="871,-116 707,-116 707,-80 871,-80 871,-116"/>
<text text-anchor="middle" x="789" y="-94.9" font-family="Times,serif" font-size="12.00">Review report by audit director</text>
</g>
<!-- 6055130064&#45;&gt;6055171664 -->
<g id="edge6" class="edge">
<title>6055130064&#45;&gt;6055171664</title>
<path fill="none" stroke="black" d="M666.1,-78.39C674.75,-79.79 685.41,-81.5 696.79,-83.33"/>
<polygon fill="black" stroke="black" points="696.51,-86.83 706.94,-84.96 697.62,-79.92 696.51,-86.83"/>
</g>
<!-- 6059754000 -->
<g id="node8" class="node">
<title>6059754000</title>
<polygon fill="none" stroke="black" points="934,-116 907,-98 934,-80 961,-98 934,-116"/>
<text text-anchor="middle" x="934" y="-94.9" font-family="Times,serif" font-size="12.00">X</text>
</g>
<!-- 6055171664&#45;&gt;6059754000 -->
<g id="edge7" class="edge">
<title>6055171664&#45;&gt;6059754000</title>
<path fill="none" stroke="black" d="M871.11,-98C879.95,-98 888.59,-98 896.48,-98"/>
<polygon fill="black" stroke="black" points="896.72,-101.5 906.72,-98 896.72,-94.5 896.72,-101.5"/>
</g>
<!-- 6059755280 -->
<g id="node9" class="node">
<title>6059755280</title>
<polygon fill="none" stroke="black" points="1143,-116 997,-116 997,-80 1143,-80 1143,-116"/>
<text text-anchor="middle" x="1070" y="-94.9" font-family="Times,serif" font-size="12.00">Update and resubmit report</text>
</g>
<!-- 6059754000&#45;&gt;6059755280 -->
<g id="edge9" class="edge">
<title>6059754000&#45;&gt;6059755280</title>
<path fill="none" stroke="black" d="M961.15,-98C968.82,-98 977.63,-98 986.85,-98"/>
<polygon fill="black" stroke="black" points="986.98,-101.5 996.98,-98 986.98,-94.5 986.98,-101.5"/>
</g>
<!-- 6055167504 -->
<g id="node10" class="node">
<title>6055167504</title>
<polygon fill="none" stroke="black" points="1127,-170 1013,-170 1013,-134 1127,-134 1127,-170"/>
<text text-anchor="middle" x="1070" y="-148.9" font-family="Times,serif" font-size="12.00">Compile audit report</text>
</g>
<!-- 6059754000&#45;&gt;6055167504 -->
<g id="edge8" class="edge">
<title>6059754000&#45;&gt;6055167504</title>
<path fill="none" stroke="black" d="M950.7,-105.11C963.18,-110.69 981.11,-118.57 997,-125 1001.22,-126.71 1005.59,-128.44 1010.01,-130.16"/>
<polygon fill="black" stroke="black" points="1009.09,-133.56 1019.68,-133.89 1011.61,-127.03 1009.09,-133.56"/>
</g>
<!-- 6059763088 -->
<g id="node11" class="node">
<title>6059763088</title>
<polygon fill="none" stroke="black" points="1337,-93 1209,-93 1209,-57 1337,-57 1337,-93"/>
<text text-anchor="middle" x="1273" y="-71.9" font-family="Times,serif" font-size="12.00">Send report for revision</text>
</g>
<!-- 6059755280&#45;&gt;6059763088 -->
<g id="edge10" class="edge">
<title>6059755280&#45;&gt;6059763088</title>
<path fill="none" stroke="black" d="M1143.28,-89.73C1161.24,-87.67 1180.51,-85.47 1198.52,-83.41"/>
<polygon fill="black" stroke="black" points="1199.14,-86.86 1208.68,-82.25 1198.34,-79.91 1199.14,-86.86"/>
</g>
<!-- 6055173072 -->
<g id="node12" class="node">
<title>6055173072</title>
<polygon fill="none" stroke="black" points="1367,-170 1179,-170 1179,-134 1367,-134 1367,-170"/>
<text text-anchor="middle" x="1273" y="-148.9" font-family="Times,serif" font-size="12.00">Complete risk assessment/mitigation</text>
</g>
<!-- 6055167504&#45;&gt;6055173072 -->
<g id="edge11" class="edge">
<title>6055167504&#45;&gt;6055173072</title>
<path fill="none" stroke="black" d="M1127.26,-152C1140.15,-152 1154.27,-152 1168.46,-152"/>
<polygon fill="black" stroke="black" points="1168.79,-155.5 1178.79,-152 1168.79,-148.5 1168.79,-155.5"/>
</g>
<!-- 6059763088&#45;&gt;6055130064 -->
<g id="edge12" class="edge">
<title>6059763088&#45;&gt;6055130064</title>
<path fill="none" stroke="black" d="M1208.69,-72.65C1187.78,-71.97 1164.4,-71.33 1143,-71 949.25,-68 900.68,-64.76 707,-71 697.68,-71.3 687.58,-71.85 678.3,-72.46"/>
<polygon fill="black" stroke="black" points="677.98,-68.97 668.24,-73.14 678.46,-75.95 677.98,-68.97"/>
</g>
<!-- 6033413584 -->
<g id="node13" class="node">
<title>6033413584</title>
<polygon fill="none" stroke="black" points="1430,-170 1403,-152 1430,-134 1457,-152 1430,-170"/>
<text text-anchor="middle" x="1430" y="-148.9" font-family="Times,serif" font-size="12.00">X</text>
</g>
<!-- 6055173072&#45;&gt;6033413584 -->
<g id="edge13" class="edge">
<title>6055173072&#45;&gt;6033413584</title>
<path fill="none" stroke="black" d="M1367.29,-152C1376.2,-152 1384.81,-152 1392.64,-152"/>
<polygon fill="black" stroke="black" points="1392.77,-155.5 1402.77,-152 1392.77,-148.5 1392.77,-155.5"/>
</g>
<!-- 6033409296 -->
<g id="node14" class="node">
<title>6033409296</title>
<polygon fill="none" stroke="black" points="2282,-162 2255,-144 2282,-126 2309,-144 2282,-162"/>
<text text-anchor="middle" x="2282" y="-140.9" font-family="Times,serif" font-size="12.00">X</text>
</g>
<!-- 6033413584&#45;&gt;6033409296 -->
<g id="edge15" class="edge">
<title>6033413584&#45;&gt;6033409296</title>
<path fill="none" stroke="black" d="M1449.8,-156.82C1494.55,-167.85 1611.05,-194 1710,-194 1710,-194 1710,-194 2075.5,-194 2141.9,-194 2217.04,-169.05 2255.43,-154.4"/>
<polygon fill="black" stroke="black" points="2256.77,-157.64 2264.81,-150.74 2254.22,-151.11 2256.77,-157.64"/>
</g>
<!-- 6059766928 -->
<g id="node15" class="node">
<title>6059766928</title>
<polygon fill="none" stroke="black" points="1648,-147 1493,-147 1493,-111 1648,-111 1648,-147"/>
<text text-anchor="middle" x="1570.5" y="-125.9" font-family="Times,serif" font-size="12.00">Launch detailed investigation</text>
</g>
<!-- 6033413584&#45;&gt;6059766928 -->
<g id="edge14" class="edge">
<title>6033413584&#45;&gt;6059766928</title>
<path fill="none" stroke="black" d="M1452.04,-148.51C1460.7,-147.07 1471.36,-145.3 1482.69,-143.42"/>
<polygon fill="black" stroke="black" points="1483.5,-146.83 1492.79,-141.74 1482.35,-139.92 1483.5,-146.83"/>
</g>
<!-- 6059952528 -->
<g id="node17" class="node">
<title>6059952528</title>
<polygon fill="none" stroke="black" points="2372,-162 2345,-144 2372,-126 2399,-144 2372,-162"/>
<text text-anchor="middle" x="2372" y="-140.9" font-family="Times,serif" font-size="12.00">+</text>
</g>
<!-- 6033409296&#45;&gt;6059952528 -->
<g id="edge16" class="edge">
<title>6033409296&#45;&gt;6059952528</title>
<path fill="none" stroke="black" d="M2309.4,-144C2317.39,-144 2326.31,-144 2334.82,-144"/>
<polygon fill="black" stroke="black" points="2334.92,-147.5 2344.92,-144 2334.92,-140.5 2334.92,-147.5"/>
</g>
<!-- 6059761936 -->
<g id="node16" class="node">
<title>6059761936</title>
<polygon fill="none" stroke="black" points="1711,-137 1684,-119 1711,-101 1738,-119 1711,-137"/>
<text text-anchor="middle" x="1711" y="-115.9" font-family="Times,serif" font-size="12.00">+</text>
</g>
<!-- 6059766928&#45;&gt;6059761936 -->
<g id="edge17" class="edge">
<title>6059766928&#45;&gt;6059761936</title>
<path fill="none" stroke="black" d="M1648.04,-123.47C1657.92,-122.76 1667.59,-122.06 1676.25,-121.44"/>
<polygon fill="black" stroke="black" points="1676.53,-124.93 1686.25,-120.71 1676.03,-117.94 1676.53,-124.93"/>
</g>
<!-- 6055124496 -->
<g id="node18" class="node">
<title>6055124496</title>
<polygon fill="none" stroke="black" points="1801,-128 1774,-110 1801,-92 1828,-110 1801,-128"/>
<text text-anchor="middle" x="1801" y="-106.9" font-family="Times,serif" font-size="12.00">X</text>
</g>
<!-- 6059761936&#45;&gt;6055124496 -->
<g id="edge18" class="edge">
<title>6059761936&#45;&gt;6055124496</title>
<path fill="none" stroke="black" d="M1734.66,-116.68C1744.62,-115.66 1756.5,-114.45 1767.38,-113.34"/>
<polygon fill="black" stroke="black" points="1767.82,-116.81 1777.41,-112.31 1767.11,-109.85 1767.82,-116.81"/>
</g>
<!-- 6055179472 -->
<g id="node21" class="node">
<title>6055179472</title>
<polygon fill="none" stroke="black" points="1984,-36 1864,-36 1864,0 1984,0 1984,-36"/>
<text text-anchor="middle" x="1924" y="-14.9" font-family="Times,serif" font-size="12.00">Conduct data analysis</text>
</g>
<!-- 6059761936&#45;&gt;6055179472 -->
<g id="edge20" class="edge">
<title>6059761936&#45;&gt;6055179472</title>
<path fill="none" stroke="black" d="M1725.54,-110.53C1737.94,-102.93 1756.9,-91.66 1774,-83 1804.77,-67.42 1840.11,-51.91 1868.65,-39.94"/>
<polygon fill="black" stroke="black" points="1870.16,-43.1 1878.05,-36.03 1867.47,-36.64 1870.16,-43.1"/>
</g>
<!-- 6059959824 -->
<g id="node23" class="node">
<title>6059959824</title>
<polygon fill="none" stroke="black" points="2129,-166 2020,-166 2020,-130 2129,-130 2129,-166"/>
<text text-anchor="middle" x="2074.5" y="-144.9" font-family="Times,serif" font-size="12.00">Conduct interviews</text>
</g>
<!-- 6059761936&#45;&gt;6059959824 -->
<g id="edge19" class="edge">
<title>6059761936&#45;&gt;6059959824</title>
<path fill="none" stroke="black" d="M1728.85,-125.11C1741.17,-129.28 1758.4,-134.49 1774,-137 1854.49,-149.96 1948.65,-151.18 2009.59,-150.17"/>
<polygon fill="black" stroke="black" points="2009.89,-153.66 2019.82,-149.97 2009.76,-146.67 2009.89,-153.66"/>
</g>
<!-- 6059760848 -->
<g id="node19" class="node">
<title>6059760848</title>
<polygon fill="none" stroke="black" points="2568,-216 2442,-216 2442,-180 2568,-180 2568,-216"/>
<text text-anchor="middle" x="2505" y="-194.9" font-family="Times,serif" font-size="12.00">Evaluate financial risks</text>
</g>
<!-- 6059952528&#45;&gt;6059760848 -->
<g id="edge21" class="edge">
<title>6059952528&#45;&gt;6059760848</title>
<path fill="none" stroke="black" d="M2388.73,-151.05C2401.22,-156.59 2419.16,-164.45 2435,-171 2439.12,-172.7 2443.4,-174.44 2447.7,-176.17"/>
<polygon fill="black" stroke="black" points="2446.55,-179.48 2457.14,-179.94 2449.15,-172.98 2446.55,-179.48"/>
</g>
<!-- 6059757840 -->
<g id="node20" class="node">
<title>6059757840</title>
<polygon fill="none" stroke="black" points="2574,-162 2436,-162 2436,-126 2574,-126 2574,-162"/>
<text text-anchor="middle" x="2505" y="-140.9" font-family="Times,serif" font-size="12.00">Evaluate operational risks</text>
</g>
<!-- 6059952528&#45;&gt;6059757840 -->
<g id="edge23" class="edge">
<title>6059952528&#45;&gt;6059757840</title>
<path fill="none" stroke="black" d="M2399.19,-144C2407.12,-144 2416.26,-144 2425.78,-144"/>
<polygon fill="black" stroke="black" points="2425.79,-147.5 2435.79,-144 2425.79,-140.5 2425.79,-147.5"/>
</g>
<!-- 6055169872 -->
<g id="node22" class="node">
<title>6055169872</title>
<polygon fill="none" stroke="black" points="2575,-108 2435,-108 2435,-72 2575,-72 2575,-108"/>
<text text-anchor="middle" x="2505" y="-86.9" font-family="Times,serif" font-size="12.00">Evaluate compliance risks</text>
</g>
<!-- 6059952528&#45;&gt;6055169872 -->
<g id="edge22" class="edge">
<title>6059952528&#45;&gt;6055169872</title>
<path fill="none" stroke="black" d="M2388.73,-136.95C2401.22,-131.41 2419.16,-123.55 2435,-117 2439.12,-115.3 2443.4,-113.56 2447.7,-111.83"/>
<polygon fill="black" stroke="black" points="2449.15,-115.02 2457.14,-108.06 2446.55,-108.52 2449.15,-115.02"/>
</g>
<!-- 6055127568 -->
<g id="node24" class="node">
<title>6055127568</title>
<polygon fill="none" stroke="black" points="2074.5,-112 2047.5,-94 2074.5,-76 2101.5,-94 2074.5,-112"/>
<text text-anchor="middle" x="2074.5" y="-90.9" font-family="Times,serif" font-size="12.00">X</text>
</g>
<!-- 6055124496&#45;&gt;6055127568 -->
<g id="edge24" class="edge">
<title>6055124496&#45;&gt;6055127568</title>
<path fill="none" stroke="black" d="M1826.09,-108.58C1874.5,-105.73 1983.66,-99.29 2039.38,-96.01"/>
<polygon fill="black" stroke="black" points="2039.68,-99.5 2049.46,-95.42 2039.27,-92.51 2039.68,-99.5"/>
</g>
<!-- 6059951312 -->
<g id="node27" class="node">
<title>6059951312</title>
<polygon fill="none" stroke="black" points="1974.5,-90 1873.5,-90 1873.5,-54 1974.5,-54 1974.5,-90"/>
<text text-anchor="middle" x="1924" y="-68.9" font-family="Times,serif" font-size="12.00">Perform site visits</text>
</g>
<!-- 6055124496&#45;&gt;6059951312 -->
<g id="edge25" class="edge">
<title>6055124496&#45;&gt;6059951312</title>
<path fill="none" stroke="black" d="M1819.85,-104.39C1831.56,-100.72 1847.6,-95.68 1863.54,-90.67"/>
<polygon fill="black" stroke="black" points="1864.92,-93.91 1873.41,-87.57 1862.82,-87.23 1864.92,-93.91"/>
</g>
<!-- 6055168720 -->
<g id="node26" class="node">
<title>6055168720</title>
<polygon fill="none" stroke="black" points="2638,-162 2611,-144 2638,-126 2665,-144 2638,-162"/>
<text text-anchor="middle" x="2638" y="-140.9" font-family="Times,serif" font-size="12.00">+</text>
</g>
<!-- 6059760848&#45;&gt;6055168720 -->
<g id="edge26" class="edge">
<title>6059760848&#45;&gt;6055168720</title>
<path fill="none" stroke="black" d="M2552.86,-179.94C2560.29,-177 2567.87,-173.95 2575,-171 2587.25,-165.94 2600.76,-160.09 2612.03,-155.13"/>
<polygon fill="black" stroke="black" points="2613.54,-158.29 2621.27,-151.05 2610.71,-151.89 2613.54,-158.29"/>
</g>
<!-- 6059757840&#45;&gt;6055168720 -->
<g id="edge27" class="edge">
<title>6059757840&#45;&gt;6055168720</title>
<path fill="none" stroke="black" d="M2574.19,-144C2583.37,-144 2592.47,-144 2600.79,-144"/>
<polygon fill="black" stroke="black" points="2600.85,-147.5 2610.85,-144 2600.85,-140.5 2600.85,-147.5"/>
</g>
<!-- 6059758224 -->
<g id="node25" class="node">
<title>6059758224</title>
<polygon fill="none" stroke="black" points="2192,-139 2165,-121 2192,-103 2219,-121 2192,-139"/>
<text text-anchor="middle" x="2192" y="-117.9" font-family="Times,serif" font-size="12.00">+</text>
</g>
<!-- 6055179472&#45;&gt;6059758224 -->
<g id="edge28" class="edge">
<title>6055179472&#45;&gt;6059758224</title>
<path fill="none" stroke="black" d="M1984.33,-24.6C2026.51,-31.07 2083.52,-43.54 2129,-67 2146.28,-75.91 2162.71,-90.62 2174.32,-102.44"/>
<polygon fill="black" stroke="black" points="2171.79,-104.85 2181.21,-109.7 2176.86,-100.03 2171.79,-104.85"/>
</g>
<!-- 6055169872&#45;&gt;6055168720 -->
<g id="edge29" class="edge">
<title>6055169872&#45;&gt;6055168720</title>
<path fill="none" stroke="black" d="M2552.86,-108.06C2560.29,-111 2567.87,-114.05 2575,-117 2587.25,-122.06 2600.76,-127.91 2612.03,-132.87"/>
<polygon fill="black" stroke="black" points="2610.71,-136.11 2621.27,-136.95 2613.54,-129.71 2610.71,-136.11"/>
</g>
<!-- 6059959824&#45;&gt;6059758224 -->
<g id="edge30" class="edge">
<title>6059959824&#45;&gt;6059758224</title>
<path fill="none" stroke="black" d="M2129.19,-135.45C2140.47,-132.81 2151.96,-130.13 2161.92,-127.8"/>
<polygon fill="black" stroke="black" points="2162.74,-131.2 2171.68,-125.52 2161.15,-124.38 2162.74,-131.2"/>
</g>
<!-- 6055127568&#45;&gt;6059758224 -->
<g id="edge32" class="edge">
<title>6055127568&#45;&gt;6059758224</title>
<path fill="none" stroke="black" d="M2094.83,-98.52C2113.07,-102.78 2140.67,-109.23 2161.63,-114.13"/>
<polygon fill="black" stroke="black" points="2161.07,-117.6 2171.6,-116.47 2162.66,-110.78 2161.07,-117.6"/>
</g>
<!-- 6059758224&#45;&gt;6033409296 -->
<g id="edge31" class="edge">
<title>6059758224&#45;&gt;6033409296</title>
<path fill="none" stroke="black" d="M2212.09,-125.99C2223.82,-129.06 2239.07,-133.04 2252.24,-136.48"/>
<polygon fill="black" stroke="black" points="2251.68,-139.96 2262.24,-139.1 2253.45,-133.18 2251.68,-139.96"/>
</g>
<!-- 6055128976 -->
<g id="node28" class="node">
<title>6055128976</title>
<polygon fill="none" stroke="black" points="2728,-162 2701,-144 2728,-126 2755,-144 2728,-162"/>
<text text-anchor="middle" x="2728" y="-140.9" font-family="Times,serif" font-size="12.00">X</text>
</g>
<!-- 6055168720&#45;&gt;6055128976 -->
<g id="edge34" class="edge">
<title>6055168720&#45;&gt;6055128976</title>
<path fill="none" stroke="black" d="M2665.4,-144C2673.39,-144 2682.31,-144 2690.82,-144"/>
<polygon fill="black" stroke="black" points="2690.92,-147.5 2700.92,-144 2690.92,-140.5 2690.92,-147.5"/>
</g>
<!-- 6059951312&#45;&gt;6055127568 -->
<g id="edge33" class="edge">
<title>6059951312&#45;&gt;6055127568</title>
<path fill="none" stroke="black" d="M1974.86,-79.39C1997.04,-82.67 2022.49,-86.44 2041.98,-89.33"/>
<polygon fill="black" stroke="black" points="2041.73,-92.83 2052.14,-90.84 2042.76,-85.91 2041.73,-92.83"/>
</g>
<!-- 6033424144 -->
<g id="node29" class="node">
<title>6033424144</title>
<polygon fill="none" stroke="black" points="3205,-162 3178,-144 3205,-126 3232,-144 3205,-162"/>
<text text-anchor="middle" x="3205" y="-140.9" font-family="Times,serif" font-size="12.00">X</text>
</g>
<!-- 6055128976&#45;&gt;6033424144 -->
<g id="edge35" class="edge">
<title>6055128976&#45;&gt;6033424144</title>
<path fill="none" stroke="black" d="M2752.24,-145.86C2763.87,-146.69 2778.17,-147.59 2791,-148 2946.92,-153.02 2986.08,-153.02 3142,-148 3151.32,-147.7 3161.42,-147.15 3170.7,-146.54"/>
<polygon fill="black" stroke="black" points="3171.02,-150.03 3180.76,-145.86 3170.54,-143.05 3171.02,-150.03"/>
</g>
<!-- 6055177552 -->
<g id="node30" class="node">
<title>6055177552</title>
<polygon fill="none" stroke="black" points="2909,-139 2791,-139 2791,-103 2909,-103 2909,-139"/>
<text text-anchor="middle" x="2850" y="-117.9" font-family="Times,serif" font-size="12.00">Receive clarifications</text>
</g>
<!-- 6055128976&#45;&gt;6055177552 -->
<g id="edge36" class="edge">
<title>6055128976&#45;&gt;6055177552</title>
<path fill="none" stroke="black" d="M2749.36,-140.1C2758.25,-138.39 2769.25,-136.29 2780.66,-134.1"/>
<polygon fill="black" stroke="black" points="2781.59,-137.48 2790.75,-132.16 2780.27,-130.61 2781.59,-137.48"/>
</g>
<!-- 6059757008 -->
<g id="node31" class="node">
<title>6059757008</title>
<polygon fill="none" stroke="black" points="3377,-162 3268,-162 3268,-126 3377,-126 3377,-162"/>
<text text-anchor="middle" x="3322.5" y="-140.9" font-family="Times,serif" font-size="12.00">Review submission</text>
</g>
<!-- 6033424144&#45;&gt;6059757008 -->
<g id="edge37" class="edge">
<title>6033424144&#45;&gt;6059757008</title>
<path fill="none" stroke="black" d="M3232.21,-144C3239.85,-144 3248.55,-144 3257.46,-144"/>
<polygon fill="black" stroke="black" points="3257.55,-147.5 3267.55,-144 3257.55,-140.5 3257.55,-147.5"/>
</g>
<!-- 6055173200 -->
<g id="node32" class="node">
<title>6055173200</title>
<polygon fill="none" stroke="black" points="3142,-139 2945,-139 2945,-103 3142,-103 3142,-139"/>
<text text-anchor="middle" x="3043.5" y="-117.9" font-family="Times,serif" font-size="12.00">Request clarifications of discrepancies</text>
</g>
<!-- 6055177552&#45;&gt;6055173200 -->
<g id="edge38" class="edge">
<title>6055177552&#45;&gt;6055173200</title>
<path fill="none" stroke="black" d="M2909.24,-121C2917.38,-121 2925.96,-121 2934.67,-121"/>
<polygon fill="black" stroke="black" points="2934.94,-124.5 2944.94,-121 2934.94,-117.5 2934.94,-124.5"/>
</g>
<!-- 6055175120 -->
<g id="node33" class="node">
<title>6055175120</title>
<polygon fill="none" stroke="black" points="3517,-162 3413,-162 3413,-126 3517,-126 3517,-162"/>
<text text-anchor="middle" x="3465" y="-140.9" font-family="Times,serif" font-size="12.00">Submit documents</text>
</g>
<!-- 6059757008&#45;&gt;6055175120 -->
<g id="edge40" class="edge">
<title>6059757008&#45;&gt;6055175120</title>
<path fill="none" stroke="black" d="M3377.02,-144C3385.49,-144 3394.31,-144 3402.94,-144"/>
<polygon fill="black" stroke="black" points="3402.95,-147.5 3412.95,-144 3402.95,-140.5 3402.95,-147.5"/>
</g>
<!-- 6055173200&#45;&gt;6033424144 -->
<g id="edge39" class="edge">
<title>6055173200&#45;&gt;6033424144</title>
<path fill="none" stroke="black" d="M3142.33,-135.11C3153.18,-136.67 3163.55,-138.17 3172.6,-139.47"/>
<polygon fill="black" stroke="black" points="3172.15,-142.94 3182.55,-140.91 3173.15,-136.02 3172.15,-142.94"/>
</g>
<!-- 6055166096 -->
<g id="node34" class="node">
<title>6055166096</title>
<polygon fill="none" stroke="black" points="3580,-162 3553,-144 3580,-126 3607,-144 3580,-162"/>
<text text-anchor="middle" x="3580" y="-140.9" font-family="Times,serif" font-size="12.00">+</text>
</g>
<!-- 6055175120&#45;&gt;6055166096 -->
<g id="edge41" class="edge">
<title>6055175120&#45;&gt;6055166096</title>
<path fill="none" stroke="black" d="M3517.21,-144C3525.82,-144 3534.59,-144 3542.72,-144"/>
<polygon fill="black" stroke="black" points="3542.97,-147.5 3552.97,-144 3542.97,-140.5 3542.97,-147.5"/>
</g>
<!-- 6059759568 -->
<g id="node35" class="node">
<title>6059759568</title>
<polygon fill="none" stroke="black" points="3793,-216 3645,-216 3645,-180 3793,-180 3793,-216"/>
<text text-anchor="middle" x="3719" y="-194.9" font-family="Times,serif" font-size="12.00">Prepare financial statements</text>
</g>
<!-- 6055166096&#45;&gt;6059759568 -->
<g id="edge43" class="edge">
<title>6055166096&#45;&gt;6059759568</title>
<path fill="none" stroke="black" d="M3596.43,-151.05C3608.9,-156.67 3626.96,-164.63 3643,-171 3647.51,-172.79 3652.18,-174.6 3656.9,-176.38"/>
<polygon fill="black" stroke="black" points="3656,-179.78 3666.6,-180 3658.45,-173.22 3656,-179.78"/>
</g>
<!-- 6059768784 -->
<g id="node36" class="node">
<title>6059768784</title>
<polygon fill="none" stroke="black" points="3787.5,-162 3650.5,-162 3650.5,-126 3787.5,-126 3787.5,-162"/>
<text text-anchor="middle" x="3719" y="-140.9" font-family="Times,serif" font-size="12.00">Check regulatory updates</text>
</g>
<!-- 6055166096&#45;&gt;6059768784 -->
<g id="edge44" class="edge">
<title>6055166096&#45;&gt;6059768784</title>
<path fill="none" stroke="black" d="M3607.09,-144C3616.8,-144 3628.37,-144 3640.33,-144"/>
<polygon fill="black" stroke="black" points="3640.43,-147.5 3650.43,-144 3640.43,-140.5 3640.43,-147.5"/>
</g>
<!-- 6059956048 -->
<g id="node37" class="node">
<title>6059956048</title>
<polygon fill="none" stroke="black" points="3795,-108 3643,-108 3643,-72 3795,-72 3795,-108"/>
<text text-anchor="middle" x="3719" y="-86.9" font-family="Times,serif" font-size="12.00">Gather necessary documents</text>
</g>
<!-- 6055166096&#45;&gt;6059956048 -->
<g id="edge42" class="edge">
<title>6055166096&#45;&gt;6059956048</title>
<path fill="none" stroke="black" d="M3596.43,-136.95C3608.9,-131.33 3626.96,-123.37 3643,-117 3647.51,-115.21 3652.18,-113.4 3656.9,-111.62"/>
<polygon fill="black" stroke="black" points="3658.45,-114.78 3666.6,-108 3656,-108.22 3658.45,-114.78"/>
</g>
<!-- 6059957200 -->
<g id="node38" class="node">
<title>6059957200</title>
<polygon fill="none" stroke="black" points="3858,-162 3831,-144 3858,-126 3885,-144 3858,-162"/>
<text text-anchor="middle" x="3858" y="-140.9" font-family="Times,serif" font-size="12.00">+</text>
</g>
<!-- 6059759568&#45;&gt;6059957200 -->
<g id="edge45" class="edge">
<title>6059759568&#45;&gt;6059957200</title>
<path fill="none" stroke="black" d="M3771.4,-180C3779.34,-177.07 3787.41,-174.01 3795,-171 3807.41,-166.07 3821.02,-160.2 3832.32,-155.19"/>
<polygon fill="black" stroke="black" points="3833.87,-158.33 3841.57,-151.05 3831.02,-151.94 3833.87,-158.33"/>
</g>
<!-- 6059768784&#45;&gt;6059957200 -->
<g id="edge46" class="edge">
<title>6059768784&#45;&gt;6059957200</title>
<path fill="none" stroke="black" d="M3787.7,-144C3799.1,-144 3810.54,-144 3820.74,-144"/>
<polygon fill="black" stroke="black" points="3820.87,-147.5 3830.87,-144 3820.87,-140.5 3820.87,-147.5"/>
</g>
<!-- 6059956048&#45;&gt;6059957200 -->
<g id="edge47" class="edge">
<title>6059956048&#45;&gt;6059957200</title>
<path fill="none" stroke="black" d="M3771.4,-108C3779.34,-110.93 3787.41,-113.99 3795,-117 3807.41,-121.93 3821.02,-127.8 3832.32,-132.81"/>
<polygon fill="black" stroke="black" points="3831.02,-136.06 3841.57,-136.95 3833.87,-129.67 3831.02,-136.06"/>
</g>
<!-- 6059958032 -->
<g id="node39" class="node">
<title>6059958032</title>
<polygon fill="none" stroke="black" points="4018,-162 3921,-162 3921,-126 4018,-126 4018,-162"/>
<text text-anchor="middle" x="3969.5" y="-140.9" font-family="Times,serif" font-size="12.00">Send notification</text>
</g>
<!-- 6059957200&#45;&gt;6059958032 -->
<g id="edge48" class="edge">
<title>6059957200&#45;&gt;6059958032</title>
<path fill="none" stroke="black" d="M3885.23,-144C3892.95,-144 3901.72,-144 3910.61,-144"/>
<polygon fill="black" stroke="black" points="3910.64,-147.5 3920.64,-144 3910.64,-140.5 3910.64,-147.5"/>
</g>
<!-- 6032509712 -->
<g id="node40" class="node">
<title>6032509712</title>
<ellipse fill="orange" stroke="black" cx="4072" cy="-144" rx="18" ry="18"/>
</g>
<!-- 6059958032&#45;&gt;6032509712 -->
<g id="edge49" class="edge">
<title>6059958032&#45;&gt;6032509712</title>
<path fill="none" stroke="black" d="M4018.1,-144C4026.89,-144 4035.79,-144 4043.72,-144"/>
<polygon fill="black" stroke="black" points="4043.82,-147.5 4053.82,-144 4043.82,-140.5 4043.82,-147.5"/>
</g>
</g>
</svg>
