<?xml version="1.0" encoding="UTF-8" standalone="no"?>
<!DOCTYPE svg PUBLIC "-//W3C//DTD SVG 1.1//EN"
 "http://www.w3.org/Graphics/SVG/1.1/DTD/svg11.dtd">
<!-- Generated by graphviz version 2.50.0 (0)
 -->
<!-- Pages: 1 -->
<svg width="4069pt" height="237pt"
 viewBox="0.00 0.00 4069.00 237.00" xmlns="http://www.w3.org/2000/svg" xmlns:xlink="http://www.w3.org/1999/xlink">
<g id="graph0" class="graph" transform="scale(1 1) rotate(0) translate(4 233)">
<polygon fill="white" stroke="transparent" points="-4,4 -4,-233 4065,-233 4065,4 -4,4"/>
<!-- 6038333072 -->
<g id="node1" class="node">
<title>6038333072</title>
<ellipse fill="green" stroke="black" cx="18" cy="-154" rx="18" ry="18"/>
</g>
<!-- 6037125136 -->
<g id="node2" class="node">
<title>6037125136</title>
<polygon fill="none" stroke="black" points="210,-172 72,-172 72,-136 210,-136 210,-172"/>
<text text-anchor="middle" x="141" y="-150.9" font-family="Times,serif" font-size="12.00">Evaluate operational risks</text>
</g>
<!-- 6038333072&#45;&gt;6037125136 -->
<g id="edge1" class="edge">
<title>6038333072&#45;&gt;6037125136</title>
<path fill="none" stroke="black" d="M36.08,-154C43.28,-154 52.22,-154 61.81,-154"/>
<polygon fill="black" stroke="black" points="62,-157.5 72,-154 62,-150.5 62,-157.5"/>
</g>
<!-- 6037117968 -->
<g id="node3" class="node">
<title>6037117968</title>
<polygon fill="none" stroke="black" points="273,-172 246,-154 273,-136 300,-154 273,-172"/>
<text text-anchor="middle" x="273" y="-150.9" font-family="Times,serif" font-size="12.00">+</text>
</g>
<!-- 6037125136&#45;&gt;6037117968 -->
<g id="edge2" class="edge">
<title>6037125136&#45;&gt;6037117968</title>
<path fill="none" stroke="black" d="M210.05,-154C218.93,-154 227.74,-154 235.81,-154"/>
<polygon fill="black" stroke="black" points="235.93,-157.5 245.93,-154 235.93,-150.5 235.93,-157.5"/>
</g>
<!-- 6054988368 -->
<g id="node4" class="node">
<title>6054988368</title>
<polygon fill="none" stroke="black" points="448.5,-226 351.5,-226 351.5,-190 448.5,-190 448.5,-226"/>
<text text-anchor="middle" x="400" y="-204.9" font-family="Times,serif" font-size="12.00">Send notification</text>
</g>
<!-- 6037117968&#45;&gt;6054988368 -->
<g id="edge3" class="edge">
<title>6037117968&#45;&gt;6054988368</title>
<path fill="none" stroke="black" d="M289.79,-160.91C302.31,-166.38 320.26,-174.2 336,-181 339.64,-182.57 343.41,-184.2 347.2,-185.83"/>
<polygon fill="black" stroke="black" points="346.06,-189.15 356.63,-189.88 348.82,-182.72 346.06,-189.15"/>
</g>
<!-- 6037119888 -->
<g id="node5" class="node">
<title>6037119888</title>
<polygon fill="none" stroke="black" points="464,-172 336,-172 336,-136 464,-136 464,-172"/>
<text text-anchor="middle" x="400" y="-150.9" font-family="Times,serif" font-size="12.00">Send report for revision</text>
</g>
<!-- 6037117968&#45;&gt;6037119888 -->
<g id="edge4" class="edge">
<title>6037117968&#45;&gt;6037119888</title>
<path fill="none" stroke="black" d="M300.2,-154C307.8,-154 316.49,-154 325.49,-154"/>
<polygon fill="black" stroke="black" points="325.75,-157.5 335.75,-154 325.75,-150.5 325.75,-157.5"/>
</g>
<!-- 6030274576 -->
<g id="node6" class="node">
<title>6030274576</title>
<polygon fill="none" stroke="black" points="444.5,-118 355.5,-118 355.5,-82 444.5,-82 444.5,-118"/>
<text text-anchor="middle" x="400" y="-96.9" font-family="Times,serif" font-size="12.00">Approve report</text>
</g>
<!-- 6037117968&#45;&gt;6030274576 -->
<g id="edge5" class="edge">
<title>6037117968&#45;&gt;6030274576</title>
<path fill="none" stroke="black" d="M289.79,-147.09C302.31,-141.62 320.26,-133.8 336,-127 339.64,-125.43 343.41,-123.8 347.2,-122.17"/>
<polygon fill="black" stroke="black" points="348.82,-125.28 356.63,-118.12 346.06,-118.85 348.82,-125.28"/>
</g>
<!-- 6036310096 -->
<g id="node7" class="node">
<title>6036310096</title>
<polygon fill="none" stroke="black" points="527,-172 500,-154 527,-136 554,-154 527,-172"/>
<text text-anchor="middle" x="527" y="-150.9" font-family="Times,serif" font-size="12.00">+</text>
</g>
<!-- 6054988368&#45;&gt;6036310096 -->
<g id="edge6" class="edge">
<title>6054988368&#45;&gt;6036310096</title>
<path fill="none" stroke="black" d="M443.37,-189.88C450.27,-186.92 457.34,-183.88 464,-181 476.17,-175.74 489.67,-169.87 500.95,-164.95"/>
<polygon fill="black" stroke="black" points="502.45,-168.11 510.21,-160.91 499.65,-161.7 502.45,-168.11"/>
</g>
<!-- 6037119888&#45;&gt;6036310096 -->
<g id="edge7" class="edge">
<title>6037119888&#45;&gt;6036310096</title>
<path fill="none" stroke="black" d="M464.23,-154C472.99,-154 481.73,-154 489.76,-154"/>
<polygon fill="black" stroke="black" points="489.85,-157.5 499.85,-154 489.85,-150.5 489.85,-157.5"/>
</g>
<!-- 6030274576&#45;&gt;6036310096 -->
<g id="edge8" class="edge">
<title>6030274576&#45;&gt;6036310096</title>
<path fill="none" stroke="black" d="M443.37,-118.12C450.27,-121.08 457.34,-124.12 464,-127 476.17,-132.26 489.67,-138.13 500.95,-143.05"/>
<polygon fill="black" stroke="black" points="499.65,-146.3 510.21,-147.09 502.45,-139.89 499.65,-146.3"/>
</g>
<!-- 6036324176 -->
<g id="node8" class="node">
<title>6036324176</title>
<polygon fill="none" stroke="black" points="710,-172 590,-172 590,-136 710,-136 710,-172"/>
<text text-anchor="middle" x="650" y="-150.9" font-family="Times,serif" font-size="12.00">Conduct data analysis</text>
</g>
<!-- 6036310096&#45;&gt;6036324176 -->
<g id="edge9" class="edge">
<title>6036310096&#45;&gt;6036324176</title>
<path fill="none" stroke="black" d="M554.26,-154C561.83,-154 570.47,-154 579.39,-154"/>
<polygon fill="black" stroke="black" points="579.52,-157.5 589.52,-154 579.52,-150.5 579.52,-157.5"/>
</g>
<!-- 6030269840 -->
<g id="node9" class="node">
<title>6030269840</title>
<polygon fill="none" stroke="black" points="886,-172 746,-172 746,-136 886,-136 886,-172"/>
<text text-anchor="middle" x="816" y="-150.9" font-family="Times,serif" font-size="12.00">Evaluate compliance risks</text>
</g>
<!-- 6036324176&#45;&gt;6030269840 -->
<g id="edge10" class="edge">
<title>6036324176&#45;&gt;6030269840</title>
<path fill="none" stroke="black" d="M710.21,-154C718.52,-154 727.17,-154 735.77,-154"/>
<polygon fill="black" stroke="black" points="735.84,-157.5 745.84,-154 735.84,-150.5 735.84,-157.5"/>
</g>
<!-- 6054994256 -->
<g id="node10" class="node">
<title>6054994256</title>
<polygon fill="none" stroke="black" points="949,-172 922,-154 949,-136 976,-154 949,-172"/>
<text text-anchor="middle" x="949" y="-150.9" font-family="Times,serif" font-size="12.00">X</text>
</g>
<!-- 6030269840&#45;&gt;6054994256 -->
<g id="edge11" class="edge">
<title>6030269840&#45;&gt;6054994256</title>
<path fill="none" stroke="black" d="M886.34,-154C895.13,-154 903.82,-154 911.79,-154"/>
<polygon fill="black" stroke="black" points="911.8,-157.5 921.8,-154 911.8,-150.5 911.8,-157.5"/>
</g>
<!-- 6054995984 -->
<g id="node11" class="node">
<title>6054995984</title>
<polygon fill="none" stroke="black" points="1384,-172 1357,-154 1384,-136 1411,-154 1384,-172"/>
<text text-anchor="middle" x="1384" y="-150.9" font-family="Times,serif" font-size="12.00">X</text>
</g>
<!-- 6054994256&#45;&gt;6054995984 -->
<g id="edge13" class="edge">
<title>6054994256&#45;&gt;6054995984</title>
<path fill="none" stroke="black" d="M973.24,-155.86C984.87,-156.69 999.17,-157.59 1012,-158 1149.26,-162.42 1183.74,-162.42 1321,-158 1330.32,-157.7 1340.42,-157.15 1349.7,-156.54"/>
<polygon fill="black" stroke="black" points="1350.02,-160.03 1359.76,-155.86 1349.54,-153.05 1350.02,-160.03"/>
</g>
<!-- 6037113040 -->
<g id="node12" class="node">
<title>6037113040</title>
<polygon fill="none" stroke="black" points="1167,-149 1012,-149 1012,-113 1167,-113 1167,-149"/>
<text text-anchor="middle" x="1089.5" y="-127.9" font-family="Times,serif" font-size="12.00">Launch detailed investigation</text>
</g>
<!-- 6054994256&#45;&gt;6037113040 -->
<g id="edge12" class="edge">
<title>6054994256&#45;&gt;6037113040</title>
<path fill="none" stroke="black" d="M971.04,-150.51C979.7,-149.07 990.36,-147.3 1001.69,-145.42"/>
<polygon fill="black" stroke="black" points="1002.5,-148.83 1011.79,-143.74 1001.35,-141.92 1002.5,-148.83"/>
</g>
<!-- 6037119440 -->
<g id="node14" class="node">
<title>6037119440</title>
<polygon fill="none" stroke="black" points="1474,-172 1447,-154 1474,-136 1501,-154 1474,-172"/>
<text text-anchor="middle" x="1474" y="-150.9" font-family="Times,serif" font-size="12.00">+</text>
</g>
<!-- 6054995984&#45;&gt;6037119440 -->
<g id="edge14" class="edge">
<title>6054995984&#45;&gt;6037119440</title>
<path fill="none" stroke="black" d="M1411.4,-154C1419.39,-154 1428.31,-154 1436.82,-154"/>
<polygon fill="black" stroke="black" points="1436.92,-157.5 1446.92,-154 1436.92,-150.5 1436.92,-157.5"/>
</g>
<!-- 6054994704 -->
<g id="node13" class="node">
<title>6054994704</title>
<polygon fill="none" stroke="black" points="1321,-149 1203,-149 1203,-113 1321,-113 1321,-149"/>
<text text-anchor="middle" x="1262" y="-127.9" font-family="Times,serif" font-size="12.00">Receive clarifications</text>
</g>
<!-- 6037113040&#45;&gt;6054994704 -->
<g id="edge15" class="edge">
<title>6037113040&#45;&gt;6054994704</title>
<path fill="none" stroke="black" d="M1167.27,-131C1175.75,-131 1184.35,-131 1192.72,-131"/>
<polygon fill="black" stroke="black" points="1192.79,-134.5 1202.79,-131 1192.79,-127.5 1192.79,-134.5"/>
</g>
<!-- 6054994704&#45;&gt;6054995984 -->
<g id="edge16" class="edge">
<title>6054994704&#45;&gt;6054995984</title>
<path fill="none" stroke="black" d="M1321.24,-142.16C1332.21,-144.26 1343.25,-146.38 1352.9,-148.23"/>
<polygon fill="black" stroke="black" points="1352.28,-151.68 1362.76,-150.12 1353.6,-144.8 1352.28,-151.68"/>
</g>
<!-- 6037112208 -->
<g id="node15" class="node">
<title>6037112208</title>
<polygon fill="none" stroke="black" points="1665.5,-226 1556.5,-226 1556.5,-190 1665.5,-190 1665.5,-226"/>
<text text-anchor="middle" x="1611" y="-204.9" font-family="Times,serif" font-size="12.00">Review submission</text>
</g>
<!-- 6037119440&#45;&gt;6037112208 -->
<g id="edge18" class="edge">
<title>6037119440&#45;&gt;6037112208</title>
<path fill="none" stroke="black" d="M1490.7,-161.13C1503.17,-166.72 1521.1,-174.6 1537,-181 1541.39,-182.77 1545.95,-184.56 1550.54,-186.33"/>
<polygon fill="black" stroke="black" points="1549.39,-189.64 1559.99,-189.93 1551.89,-183.09 1549.39,-189.64"/>
</g>
<!-- 6036321808 -->
<g id="node16" class="node">
<title>6036321808</title>
<polygon fill="none" stroke="black" points="1685,-172 1537,-172 1537,-136 1685,-136 1685,-172"/>
<text text-anchor="middle" x="1611" y="-150.9" font-family="Times,serif" font-size="12.00">Prepare financial statements</text>
</g>
<!-- 6037119440&#45;&gt;6036321808 -->
<g id="edge19" class="edge">
<title>6037119440&#45;&gt;6036321808</title>
<path fill="none" stroke="black" d="M1501.03,-154C1508.68,-154 1517.5,-154 1526.73,-154"/>
<polygon fill="black" stroke="black" points="1526.87,-157.5 1536.87,-154 1526.87,-150.5 1526.87,-157.5"/>
</g>
<!-- 6036317968 -->
<g id="node17" class="node">
<title>6036317968</title>
<polygon fill="none" stroke="black" points="1670,-118 1552,-118 1552,-82 1670,-82 1670,-118"/>
<text text-anchor="middle" x="1611" y="-96.9" font-family="Times,serif" font-size="12.00">Receive clarifications</text>
</g>
<!-- 6037119440&#45;&gt;6036317968 -->
<g id="edge17" class="edge">
<title>6037119440&#45;&gt;6036317968</title>
<path fill="none" stroke="black" d="M1490.7,-146.87C1503.17,-141.28 1521.1,-133.4 1537,-127 1541.39,-125.23 1545.95,-123.44 1550.54,-121.67"/>
<polygon fill="black" stroke="black" points="1551.89,-124.91 1559.99,-118.07 1549.39,-118.36 1551.89,-124.91"/>
</g>
<!-- 6054988304 -->
<g id="node18" class="node">
<title>6054988304</title>
<polygon fill="none" stroke="black" points="1748,-172 1721,-154 1748,-136 1775,-154 1748,-172"/>
<text text-anchor="middle" x="1748" y="-150.9" font-family="Times,serif" font-size="12.00">+</text>
</g>
<!-- 6037112208&#45;&gt;6054988304 -->
<g id="edge20" class="edge">
<title>6037112208&#45;&gt;6054988304</title>
<path fill="none" stroke="black" d="M1662.01,-189.93C1669.74,-187.01 1677.6,-183.98 1685,-181 1697.3,-176.05 1710.81,-170.22 1722.07,-165.24"/>
<polygon fill="black" stroke="black" points="1723.59,-168.39 1731.3,-161.13 1720.75,-162 1723.59,-168.39"/>
</g>
<!-- 6036321808&#45;&gt;6054988304 -->
<g id="edge21" class="edge">
<title>6036321808&#45;&gt;6054988304</title>
<path fill="none" stroke="black" d="M1685.03,-154C1693.93,-154 1702.7,-154 1710.72,-154"/>
<polygon fill="black" stroke="black" points="1710.77,-157.5 1720.77,-154 1710.77,-150.5 1710.77,-157.5"/>
</g>
<!-- 6036317968&#45;&gt;6054988304 -->
<g id="edge22" class="edge">
<title>6036317968&#45;&gt;6054988304</title>
<path fill="none" stroke="black" d="M1662.01,-118.07C1669.74,-120.99 1677.6,-124.02 1685,-127 1697.3,-131.95 1710.81,-137.78 1722.07,-142.76"/>
<polygon fill="black" stroke="black" points="1720.75,-146 1731.3,-146.87 1723.59,-139.61 1720.75,-146"/>
</g>
<!-- 6054996176 -->
<g id="node19" class="node">
<title>6054996176</title>
<polygon fill="none" stroke="black" points="1838,-172 1811,-154 1838,-136 1865,-154 1838,-172"/>
<text text-anchor="middle" x="1838" y="-150.9" font-family="Times,serif" font-size="12.00">X</text>
</g>
<!-- 6054988304&#45;&gt;6054996176 -->
<g id="edge23" class="edge">
<title>6054988304&#45;&gt;6054996176</title>
<path fill="none" stroke="black" d="M1775.4,-154C1783.39,-154 1792.31,-154 1800.82,-154"/>
<polygon fill="black" stroke="black" points="1800.92,-157.5 1810.92,-154 1800.92,-150.5 1800.92,-157.5"/>
</g>
<!-- 6055000272 -->
<g id="node20" class="node">
<title>6055000272</title>
<polygon fill="none" stroke="black" points="2731,-152 2704,-134 2731,-116 2758,-134 2731,-152"/>
<text text-anchor="middle" x="2731" y="-130.9" font-family="Times,serif" font-size="12.00">X</text>
</g>
<!-- 6054996176&#45;&gt;6055000272 -->
<g id="edge24" class="edge">
<title>6054996176&#45;&gt;6055000272</title>
<path fill="none" stroke="black" d="M1857.24,-159.19C1901.19,-171.22 2016.63,-200 2115,-200 2115,-200 2115,-200 2524.5,-200 2593.3,-200 2669.11,-166.05 2706.49,-146.85"/>
<polygon fill="black" stroke="black" points="2708.33,-149.84 2715.56,-142.09 2705.08,-143.64 2708.33,-149.84"/>
</g>
<!-- 6030274384 -->
<g id="node21" class="node">
<title>6030274384</title>
<polygon fill="none" stroke="black" points="2053,-130 1901,-130 1901,-94 2053,-94 2053,-130"/>
<text text-anchor="middle" x="1977" y="-108.9" font-family="Times,serif" font-size="12.00">Gather necessary documents</text>
</g>
<!-- 6054996176&#45;&gt;6030274384 -->
<g id="edge25" class="edge">
<title>6054996176&#45;&gt;6030274384</title>
<path fill="none" stroke="black" d="M1856.91,-148.51C1870,-144.5 1888.67,-138.77 1907.35,-133.05"/>
<polygon fill="black" stroke="black" points="1908.56,-136.34 1917.09,-130.06 1906.51,-129.64 1908.56,-136.34"/>
</g>
<!-- 6030265488 -->
<g id="node22" class="node">
<title>6030265488</title>
<polygon fill="none" stroke="black" points="2895,-152 2794,-152 2794,-116 2895,-116 2895,-152"/>
<text text-anchor="middle" x="2844.5" y="-130.9" font-family="Times,serif" font-size="12.00">Perform site visits</text>
</g>
<!-- 6055000272&#45;&gt;6030265488 -->
<g id="edge26" class="edge">
<title>6055000272&#45;&gt;6030265488</title>
<path fill="none" stroke="black" d="M2758.14,-134C2765.91,-134 2774.75,-134 2783.73,-134"/>
<polygon fill="black" stroke="black" points="2783.88,-137.5 2793.88,-134 2783.88,-130.5 2783.88,-137.5"/>
</g>
<!-- 6030264848 -->
<g id="node23" class="node">
<title>6030264848</title>
<polygon fill="none" stroke="black" points="2116,-111 2089,-93 2116,-75 2143,-93 2116,-111"/>
<text text-anchor="middle" x="2116" y="-89.9" font-family="Times,serif" font-size="12.00">+</text>
</g>
<!-- 6030274384&#45;&gt;6030264848 -->
<g id="edge27" class="edge">
<title>6030274384&#45;&gt;6030264848</title>
<path fill="none" stroke="black" d="M2053.31,-101.56C2063.86,-100.09 2074.19,-98.66 2083.29,-97.4"/>
<polygon fill="black" stroke="black" points="2083.92,-100.84 2093.34,-96 2082.96,-93.91 2083.92,-100.84"/>
</g>
<!-- 6036312400 -->
<g id="node27" class="node">
<title>6036312400</title>
<polygon fill="none" stroke="black" points="3035,-152 2931,-152 2931,-116 3035,-116 3035,-152"/>
<text text-anchor="middle" x="2983" y="-130.9" font-family="Times,serif" font-size="12.00">Submit documents</text>
</g>
<!-- 6030265488&#45;&gt;6036312400 -->
<g id="edge28" class="edge">
<title>6030265488&#45;&gt;6036312400</title>
<path fill="none" stroke="black" d="M2895.17,-134C2903.4,-134 2912.03,-134 2920.52,-134"/>
<polygon fill="black" stroke="black" points="2920.77,-137.5 2930.77,-134 2920.77,-130.5 2920.77,-137.5"/>
</g>
<!-- 6054986576 -->
<g id="node24" class="node">
<title>6054986576</title>
<polygon fill="none" stroke="black" points="2206,-134 2179,-116 2206,-98 2233,-116 2206,-134"/>
<text text-anchor="middle" x="2206" y="-112.9" font-family="Times,serif" font-size="12.00">X</text>
</g>
<!-- 6030264848&#45;&gt;6054986576 -->
<g id="edge29" class="edge">
<title>6030264848&#45;&gt;6054986576</title>
<path fill="none" stroke="black" d="M2136.09,-97.99C2147.82,-101.06 2163.07,-105.04 2176.24,-108.48"/>
<polygon fill="black" stroke="black" points="2175.68,-111.96 2186.24,-111.1 2177.45,-105.18 2175.68,-111.96"/>
</g>
<!-- 6037119376 -->
<g id="node25" class="node">
<title>6037119376</title>
<polygon fill="none" stroke="black" points="2433,-80 2269,-80 2269,-44 2433,-44 2433,-80"/>
<text text-anchor="middle" x="2351" y="-58.9" font-family="Times,serif" font-size="12.00">Review report by audit director</text>
</g>
<!-- 6030264848&#45;&gt;6037119376 -->
<g id="edge31" class="edge">
<title>6030264848&#45;&gt;6037119376</title>
<path fill="none" stroke="black" d="M2138.92,-90.08C2166.35,-86.43 2215.05,-79.96 2258.76,-74.14"/>
<polygon fill="black" stroke="black" points="2259.42,-77.58 2268.87,-72.79 2258.5,-70.64 2259.42,-77.58"/>
</g>
<!-- 6037115472 -->
<g id="node26" class="node">
<title>6037115472</title>
<polygon fill="none" stroke="black" points="2578,-36 2469,-36 2469,0 2578,0 2578,-36"/>
<text text-anchor="middle" x="2523.5" y="-14.9" font-family="Times,serif" font-size="12.00">Conduct interviews</text>
</g>
<!-- 6030264848&#45;&gt;6037115472 -->
<g id="edge30" class="edge">
<title>6030264848&#45;&gt;6037115472</title>
<path fill="none" stroke="black" d="M2132.07,-85.51C2158.86,-72.6 2216.85,-46.43 2269,-35 2332.62,-21.06 2407.18,-17.54 2458.9,-17.07"/>
<polygon fill="black" stroke="black" points="2458.95,-20.57 2468.93,-17.01 2458.91,-13.57 2458.95,-20.57"/>
</g>
<!-- 6054995792 -->
<g id="node28" class="node">
<title>6054995792</title>
<polygon fill="none" stroke="black" points="2523.5,-134 2496.5,-116 2523.5,-98 2550.5,-116 2523.5,-134"/>
<text text-anchor="middle" x="2523.5" y="-112.9" font-family="Times,serif" font-size="12.00">X</text>
</g>
<!-- 6054986576&#45;&gt;6054995792 -->
<g id="edge32" class="edge">
<title>6054986576&#45;&gt;6054995792</title>
<path fill="none" stroke="black" d="M2221.22,-124.21C2233.44,-130.76 2251.76,-139.41 2269,-143 2340.36,-157.86 2360.89,-153.64 2433,-143 2454.88,-139.77 2478.82,-132.33 2496.43,-126.08"/>
<polygon fill="black" stroke="black" points="2497.82,-129.3 2506.01,-122.57 2495.42,-122.72 2497.82,-129.3"/>
</g>
<!-- 6030265872 -->
<g id="node30" class="node">
<title>6030265872</title>
<polygon fill="none" stroke="black" points="2419.5,-134 2282.5,-134 2282.5,-98 2419.5,-98 2419.5,-134"/>
<text text-anchor="middle" x="2351" y="-112.9" font-family="Times,serif" font-size="12.00">Check regulatory updates</text>
</g>
<!-- 6054986576&#45;&gt;6030265872 -->
<g id="edge33" class="edge">
<title>6054986576&#45;&gt;6030265872</title>
<path fill="none" stroke="black" d="M2233.23,-116C2244.39,-116 2258.05,-116 2272.04,-116"/>
<polygon fill="black" stroke="black" points="2272.26,-119.5 2282.26,-116 2272.26,-112.5 2272.26,-119.5"/>
</g>
<!-- 6030277328 -->
<g id="node31" class="node">
<title>6030277328</title>
<polygon fill="none" stroke="black" points="2641,-110 2614,-92 2641,-74 2668,-92 2641,-110"/>
<text text-anchor="middle" x="2641" y="-88.9" font-family="Times,serif" font-size="12.00">+</text>
</g>
<!-- 6037119376&#45;&gt;6030277328 -->
<g id="edge34" class="edge">
<title>6037119376&#45;&gt;6030277328</title>
<path fill="none" stroke="black" d="M2433.37,-70.48C2490.91,-76.47 2565.01,-84.19 2607.03,-88.57"/>
<polygon fill="black" stroke="black" points="2606.94,-92.07 2617.25,-89.63 2607.66,-85.11 2606.94,-92.07"/>
</g>
<!-- 6037115472&#45;&gt;6030277328 -->
<g id="edge35" class="edge">
<title>6037115472&#45;&gt;6030277328</title>
<path fill="none" stroke="black" d="M2552.75,-36.1C2572.86,-48.99 2599.5,-66.05 2618.03,-77.92"/>
<polygon fill="black" stroke="black" points="2616.34,-81 2626.65,-83.45 2620.12,-75.11 2616.34,-81"/>
</g>
<!-- 6055000784 -->
<g id="node29" class="node">
<title>6055000784</title>
<polygon fill="none" stroke="black" points="3098,-152 3071,-134 3098,-116 3125,-134 3098,-152"/>
<text text-anchor="middle" x="3098" y="-130.9" font-family="Times,serif" font-size="12.00">X</text>
</g>
<!-- 6036312400&#45;&gt;6055000784 -->
<g id="edge36" class="edge">
<title>6036312400&#45;&gt;6055000784</title>
<path fill="none" stroke="black" d="M3035.21,-134C3043.82,-134 3052.59,-134 3060.72,-134"/>
<polygon fill="black" stroke="black" points="3060.97,-137.5 3070.97,-134 3060.97,-130.5 3060.97,-137.5"/>
</g>
<!-- 6054995792&#45;&gt;6030277328 -->
<g id="edge38" class="edge">
<title>6054995792&#45;&gt;6030277328</title>
<path fill="none" stroke="black" d="M2544.36,-111.87C2562.45,-108.11 2589.44,-102.51 2610.14,-98.2"/>
<polygon fill="black" stroke="black" points="2610.94,-101.61 2620.02,-96.15 2609.51,-94.76 2610.94,-101.61"/>
</g>
<!-- 6030268688 -->
<g id="node32" class="node">
<title>6030268688</title>
<polygon fill="none" stroke="black" points="3269,-175 3161,-175 3161,-139 3269,-139 3269,-175"/>
<text text-anchor="middle" x="3215" y="-153.9" font-family="Times,serif" font-size="12.00">Close audit process</text>
</g>
<!-- 6055000784&#45;&gt;6030268688 -->
<g id="edge40" class="edge">
<title>6055000784&#45;&gt;6030268688</title>
<path fill="none" stroke="black" d="M3119.03,-138.01C3127.99,-139.8 3139.1,-142.02 3150.53,-144.31"/>
<polygon fill="black" stroke="black" points="3150.11,-147.79 3160.6,-146.32 3151.48,-140.93 3150.11,-147.79"/>
</g>
<!-- 6030265872&#45;&gt;6054995792 -->
<g id="edge39" class="edge">
<title>6030265872&#45;&gt;6054995792</title>
<path fill="none" stroke="black" d="M2419.88,-116C2442.44,-116 2466.7,-116 2485.97,-116"/>
<polygon fill="black" stroke="black" points="2486.12,-119.5 2496.12,-116 2486.12,-112.5 2486.12,-119.5"/>
</g>
<!-- 6030277328&#45;&gt;6055000272 -->
<g id="edge37" class="edge">
<title>6030277328&#45;&gt;6055000272</title>
<path fill="none" stroke="black" d="M2657.33,-99.32C2670.58,-105.64 2689.97,-114.9 2705.39,-122.26"/>
<polygon fill="black" stroke="black" points="2704.31,-125.62 2714.85,-126.77 2707.33,-119.3 2704.31,-125.62"/>
</g>
<!-- 6054997968 -->
<g id="node33" class="node">
<title>6054997968</title>
<polygon fill="none" stroke="black" points="3332,-175 3305,-157 3332,-139 3359,-157 3332,-175"/>
<text text-anchor="middle" x="3332" y="-153.9" font-family="Times,serif" font-size="12.00">X</text>
</g>
<!-- 6030268688&#45;&gt;6054997968 -->
<g id="edge41" class="edge">
<title>6030268688&#45;&gt;6054997968</title>
<path fill="none" stroke="black" d="M3269.12,-157C3277.72,-157 3286.44,-157 3294.52,-157"/>
<polygon fill="black" stroke="black" points="3294.71,-160.5 3304.71,-157 3294.71,-153.5 3294.71,-160.5"/>
</g>
<!-- 6037122000 -->
<g id="node34" class="node">
<title>6037122000</title>
<polygon fill="none" stroke="black" points="3523,-229 3395,-229 3395,-193 3523,-193 3523,-229"/>
<text text-anchor="middle" x="3459" y="-207.9" font-family="Times,serif" font-size="12.00">Send report for revision</text>
</g>
<!-- 6054997968&#45;&gt;6037122000 -->
<g id="edge43" class="edge">
<title>6054997968&#45;&gt;6037122000</title>
<path fill="none" stroke="black" d="M3348.79,-163.91C3361.31,-169.38 3379.26,-177.2 3395,-184 3398.64,-185.57 3402.41,-187.2 3406.2,-188.83"/>
<polygon fill="black" stroke="black" points="3405.06,-192.15 3415.63,-192.88 3407.82,-185.72 3405.06,-192.15"/>
</g>
<!-- 6030269008 -->
<g id="node35" class="node">
<title>6030269008</title>
<polygon fill="none" stroke="black" points="3518,-175 3400,-175 3400,-139 3518,-139 3518,-175"/>
<text text-anchor="middle" x="3459" y="-153.9" font-family="Times,serif" font-size="12.00">Distribute final report</text>
</g>
<!-- 6054997968&#45;&gt;6030269008 -->
<g id="edge42" class="edge">
<title>6054997968&#45;&gt;6030269008</title>
<path fill="none" stroke="black" d="M3359.2,-157C3368.3,-157 3378.97,-157 3389.87,-157"/>
<polygon fill="black" stroke="black" points="3389.91,-160.5 3399.91,-157 3389.91,-153.5 3389.91,-160.5"/>
</g>
<!-- 6036310416 -->
<g id="node37" class="node">
<title>6036310416</title>
<polygon fill="none" stroke="black" points="3705,-229 3559,-229 3559,-193 3705,-193 3705,-229"/>
<text text-anchor="middle" x="3632" y="-207.9" font-family="Times,serif" font-size="12.00">Update and resubmit report</text>
</g>
<!-- 6037122000&#45;&gt;6036310416 -->
<g id="edge44" class="edge">
<title>6037122000&#45;&gt;6036310416</title>
<path fill="none" stroke="black" d="M3523.19,-211C3531.53,-211 3540.18,-211 3548.78,-211"/>
<polygon fill="black" stroke="black" points="3548.84,-214.5 3558.84,-211 3548.84,-207.5 3548.84,-214.5"/>
</g>
<!-- 6037120144 -->
<g id="node36" class="node">
<title>6037120144</title>
<polygon fill="none" stroke="black" points="3705,-152 3559,-152 3559,-116 3705,-116 3705,-152"/>
<text text-anchor="middle" x="3632" y="-130.9" font-family="Times,serif" font-size="12.00">Update and resubmit report</text>
</g>
<!-- 6030269008&#45;&gt;6037120144 -->
<g id="edge45" class="edge">
<title>6030269008&#45;&gt;6037120144</title>
<path fill="none" stroke="black" d="M3518.37,-149.15C3528.17,-147.83 3538.49,-146.44 3548.76,-145.06"/>
<polygon fill="black" stroke="black" points="3549.53,-148.49 3558.98,-143.69 3548.6,-141.55 3549.53,-148.49"/>
</g>
<!-- 6037120144&#45;&gt;6055000784 -->
<g id="edge46" class="edge">
<title>6037120144&#45;&gt;6055000784</title>
<path fill="none" stroke="black" d="M3558.97,-130.96C3546.96,-130.56 3534.63,-130.22 3523,-130 3362.14,-127.02 3321.81,-124.82 3161,-130 3151.68,-130.3 3141.58,-130.85 3132.3,-131.46"/>
<polygon fill="black" stroke="black" points="3131.98,-127.97 3122.24,-132.14 3132.46,-134.95 3131.98,-127.97"/>
</g>
<!-- 6036313680 -->
<g id="node38" class="node">
<title>6036313680</title>
<polygon fill="none" stroke="black" points="3827,-229 3741,-229 3741,-193 3827,-193 3827,-229"/>
<text text-anchor="middle" x="3784" y="-207.9" font-family="Times,serif" font-size="12.00">Archive report</text>
</g>
<!-- 6036310416&#45;&gt;6036313680 -->
<g id="edge47" class="edge">
<title>6036310416&#45;&gt;6036313680</title>
<path fill="none" stroke="black" d="M3705.36,-211C3713.9,-211 3722.48,-211 3730.66,-211"/>
<polygon fill="black" stroke="black" points="3730.78,-214.5 3740.78,-211 3730.78,-207.5 3730.78,-214.5"/>
</g>
<!-- 6037120464 -->
<g id="node39" class="node">
<title>6037120464</title>
<polygon fill="none" stroke="black" points="3989,-229 3863,-229 3863,-193 3989,-193 3989,-229"/>
<text text-anchor="middle" x="3926" y="-207.9" font-family="Times,serif" font-size="12.00">Evaluate financial risks</text>
</g>
<!-- 6036313680&#45;&gt;6037120464 -->
<g id="edge48" class="edge">
<title>6036313680&#45;&gt;6037120464</title>
<path fill="none" stroke="black" d="M3827,-211C3835.11,-211 3843.81,-211 3852.57,-211"/>
<polygon fill="black" stroke="black" points="3852.84,-214.5 3862.84,-211 3852.84,-207.5 3852.84,-214.5"/>
</g>
<!-- 6036157456 -->
<g id="node40" class="node">
<title>6036157456</title>
<ellipse fill="orange" stroke="black" cx="4043" cy="-211" rx="18" ry="18"/>
</g>
<!-- 6037120464&#45;&gt;6036157456 -->
<g id="edge49" class="edge">
<title>6037120464&#45;&gt;6036157456</title>
<path fill="none" stroke="black" d="M3989.21,-211C3998.13,-211 4006.9,-211 4014.65,-211"/>
<polygon fill="black" stroke="black" points="4014.84,-214.5 4024.84,-211 4014.84,-207.5 4014.84,-214.5"/>
</g>
</g>
</svg>
