<?xml version="1.0" encoding="UTF-8" standalone="no"?>
<!DOCTYPE svg PUBLIC "-//W3C//DTD SVG 1.1//EN"
 "http://www.w3.org/Graphics/SVG/1.1/DTD/svg11.dtd">
<!-- Generated by graphviz version 11.0.0 (20240428.1522)
 -->
<!-- Pages: 1 -->
<svg width="2400pt" height="153pt"
 viewBox="0.00 0.00 2400.25 153.08" xmlns="http://www.w3.org/2000/svg" xmlns:xlink="http://www.w3.org/1999/xlink">
<g id="graph0" class="graph" transform="scale(1 1) rotate(0) translate(4 149.08)">
<polygon fill="white" stroke="none" points="-4,4 -4,-149.08 2396.25,-149.08 2396.25,4 -4,4"/>
<!-- 2675058284960 -->
<g id="node1" class="node">
<title>2675058284960</title>
<ellipse fill="green" stroke="black" cx="18" cy="-57.08" rx="18" ry="18"/>
</g>
<!-- 2675058505056 -->
<g id="node2" class="node">
<title>2675058505056</title>
<polygon fill="none" stroke="black" points="221.5,-75.08 72,-75.08 72,-39.08 221.5,-39.08 221.5,-75.08"/>
<text text-anchor="middle" x="146.75" y="-52.06" font-family="Times New Roman,serif" font-size="12.00">Customer searches for ticket</text>
</g>
<!-- 2675058284960&#45;&gt;2675058505056 -->
<g id="edge1" class="edge">
<title>2675058284960&#45;&gt;2675058505056</title>
<path fill="none" stroke="black" d="M36.36,-57.08C43.15,-57.08 51.48,-57.08 60.48,-57.08"/>
<polygon fill="black" stroke="black" points="60.22,-60.58 70.22,-57.08 60.22,-53.58 60.22,-60.58"/>
</g>
<!-- 2675058283904 -->
<g id="node3" class="node">
<title>2675058283904</title>
<polygon fill="none" stroke="black" points="329,-75.08 257.5,-75.08 257.5,-39.08 329,-39.08 329,-75.08"/>
<text text-anchor="middle" x="293.25" y="-52.06" font-family="Times New Roman,serif" font-size="12.00">Select route</text>
</g>
<!-- 2675058505056&#45;&gt;2675058283904 -->
<g id="edge2" class="edge">
<title>2675058505056&#45;&gt;2675058283904</title>
<path fill="none" stroke="black" d="M221.69,-57.08C229.9,-57.08 238.08,-57.08 245.8,-57.08"/>
<polygon fill="black" stroke="black" points="245.61,-60.58 255.61,-57.08 245.61,-53.58 245.61,-60.58"/>
</g>
<!-- 2675058285440 -->
<g id="node4" class="node">
<title>2675058285440</title>
<polygon fill="none" stroke="black" points="475.5,-75.08 365,-75.08 365,-39.08 475.5,-39.08 475.5,-75.08"/>
<text text-anchor="middle" x="420.25" y="-52.06" font-family="Times New Roman,serif" font-size="12.00">Select date and time</text>
</g>
<!-- 2675058283904&#45;&gt;2675058285440 -->
<g id="edge3" class="edge">
<title>2675058283904&#45;&gt;2675058285440</title>
<path fill="none" stroke="black" d="M329.4,-57.08C336.95,-57.08 345.16,-57.08 353.44,-57.08"/>
<polygon fill="black" stroke="black" points="353.22,-60.58 363.22,-57.08 353.22,-53.58 353.22,-60.58"/>
</g>
<!-- 2675058505920 -->
<g id="node5" class="node">
<title>2675058505920</title>
<polygon fill="none" stroke="black" points="664.75,-75.08 511.5,-75.08 511.5,-39.08 664.75,-39.08 664.75,-75.08"/>
<text text-anchor="middle" x="588.12" y="-52.06" font-family="Times New Roman,serif" font-size="12.00">Provide personal information</text>
</g>
<!-- 2675058285440&#45;&gt;2675058505920 -->
<g id="edge4" class="edge">
<title>2675058285440&#45;&gt;2675058505920</title>
<path fill="none" stroke="black" d="M475.56,-57.08C483.36,-57.08 491.54,-57.08 499.78,-57.08"/>
<polygon fill="black" stroke="black" points="499.5,-60.58 509.5,-57.08 499.5,-53.58 499.5,-60.58"/>
</g>
<!-- 2675058291392 -->
<g id="node6" class="node">
<title>2675058291392</title>
<polygon fill="none" stroke="black" points="830,-75.08 700.75,-75.08 700.75,-39.08 830,-39.08 830,-75.08"/>
<text text-anchor="middle" x="765.38" y="-52.06" font-family="Times New Roman,serif" font-size="12.00">Provide payment details</text>
</g>
<!-- 2675058505920&#45;&gt;2675058291392 -->
<g id="edge5" class="edge">
<title>2675058505920&#45;&gt;2675058291392</title>
<path fill="none" stroke="black" d="M665.23,-57.08C673.11,-57.08 681.12,-57.08 688.99,-57.08"/>
<polygon fill="black" stroke="black" points="688.89,-60.58 698.89,-57.08 688.89,-53.58 688.89,-60.58"/>
</g>
<!-- 2675058505392 -->
<g id="node7" class="node">
<title>2675058505392</title>
<polygon fill="none" stroke="black" points="953.25,-75.08 866,-75.08 866,-39.08 953.25,-39.08 953.25,-75.08"/>
<text text-anchor="middle" x="909.62" y="-52.06" font-family="Times New Roman,serif" font-size="12.00">Generate ticket</text>
</g>
<!-- 2675058291392&#45;&gt;2675058505392 -->
<g id="edge6" class="edge">
<title>2675058291392&#45;&gt;2675058505392</title>
<path fill="none" stroke="black" d="M830.43,-57.08C838.45,-57.08 846.6,-57.08 854.46,-57.08"/>
<polygon fill="black" stroke="black" points="854.19,-60.58 864.19,-57.08 854.19,-53.58 854.19,-60.58"/>
</g>
<!-- 2675058504192 -->
<g id="node8" class="node">
<title>2675058504192</title>
<polygon fill="none" stroke="black" points="1016.25,-75.08 989.25,-57.08 1016.25,-39.08 1043.25,-57.08 1016.25,-75.08"/>
<text text-anchor="middle" x="1016.25" y="-52.06" font-family="Times New Roman,serif" font-size="12.00">X</text>
</g>
<!-- 2675058505392&#45;&gt;2675058504192 -->
<g id="edge7" class="edge">
<title>2675058505392&#45;&gt;2675058504192</title>
<path fill="none" stroke="black" d="M953.48,-57.08C961.35,-57.08 969.52,-57.08 977.23,-57.08"/>
<polygon fill="black" stroke="black" points="976.99,-60.58 986.99,-57.08 976.99,-53.58 976.99,-60.58"/>
</g>
<!-- 2675058506256 -->
<g id="node9" class="node">
<title>2675058506256</title>
<polygon fill="none" stroke="black" points="1192.75,-102.08 1080,-102.08 1080,-66.08 1192.75,-66.08 1192.75,-102.08"/>
<text text-anchor="middle" x="1136.38" y="-79.06" font-family="Times New Roman,serif" font-size="12.00">Send ticket via SMS</text>
</g>
<!-- 2675058504192&#45;&gt;2675058506256 -->
<g id="edge8" class="edge">
<title>2675058504192&#45;&gt;2675058506256</title>
<path fill="none" stroke="black" d="M1037.02,-61.6C1045.93,-63.64 1057.02,-66.18 1068.52,-68.8"/>
<polygon fill="black" stroke="black" points="1067.6,-72.18 1078.12,-71 1069.16,-65.36 1067.6,-72.18"/>
</g>
<!-- 2675058280112 -->
<g id="node10" class="node">
<title>2675058280112</title>
<polygon fill="none" stroke="black" points="1193.5,-48.08 1079.25,-48.08 1079.25,-12.08 1193.5,-12.08 1193.5,-48.08"/>
<text text-anchor="middle" x="1136.38" y="-25.06" font-family="Times New Roman,serif" font-size="12.00">Send ticket via email</text>
</g>
<!-- 2675058504192&#45;&gt;2675058280112 -->
<g id="edge9" class="edge">
<title>2675058504192&#45;&gt;2675058280112</title>
<path fill="none" stroke="black" d="M1037.02,-52.57C1045.78,-50.56 1056.65,-48.08 1067.94,-45.5"/>
<polygon fill="black" stroke="black" points="1068.39,-48.99 1077.36,-43.35 1066.83,-42.16 1068.39,-48.99"/>
</g>
<!-- 2675058171136 -->
<g id="node11" class="node">
<title>2675058171136</title>
<polygon fill="none" stroke="black" points="1256.5,-75.08 1229.5,-57.08 1256.5,-39.08 1283.5,-57.08 1256.5,-75.08"/>
<text text-anchor="middle" x="1256.5" y="-52.06" font-family="Times New Roman,serif" font-size="12.00">X</text>
</g>
<!-- 2675058506256&#45;&gt;2675058171136 -->
<g id="edge10" class="edge">
<title>2675058506256&#45;&gt;2675058171136</title>
<path fill="none" stroke="black" d="M1192.98,-71.38C1203.87,-68.89 1214.92,-66.36 1224.64,-64.14"/>
<polygon fill="black" stroke="black" points="1225.28,-67.58 1234.25,-61.94 1223.72,-60.76 1225.28,-67.58"/>
</g>
<!-- 2675058280112&#45;&gt;2675058171136 -->
<g id="edge11" class="edge">
<title>2675058280112&#45;&gt;2675058171136</title>
<path fill="none" stroke="black" d="M1193.67,-42.95C1204.4,-45.4 1215.25,-47.89 1224.81,-50.07"/>
<polygon fill="black" stroke="black" points="1223.72,-53.41 1234.24,-52.23 1225.28,-46.59 1223.72,-53.41"/>
</g>
<!-- 2675058505728 -->
<g id="node12" class="node">
<title>2675058505728</title>
<polygon fill="none" stroke="black" points="1439,-75.08 1319.5,-75.08 1319.5,-39.08 1439,-39.08 1439,-75.08"/>
<text text-anchor="middle" x="1379.25" y="-52.06" font-family="Times New Roman,serif" font-size="12.00">Update seat inventory</text>
</g>
<!-- 2675058171136&#45;&gt;2675058505728 -->
<g id="edge12" class="edge">
<title>2675058171136&#45;&gt;2675058505728</title>
<path fill="none" stroke="black" d="M1284.3,-57.08C1291.46,-57.08 1299.55,-57.08 1307.91,-57.08"/>
<polygon fill="black" stroke="black" points="1307.88,-60.58 1317.88,-57.08 1307.88,-53.58 1307.88,-60.58"/>
</g>
<!-- 2675058503808 -->
<g id="node13" class="node">
<title>2675058503808</title>
<polygon fill="none" stroke="black" points="1502,-75.08 1475,-57.08 1502,-39.08 1529,-57.08 1502,-75.08"/>
<text text-anchor="middle" x="1502" y="-52.06" font-family="Times New Roman,serif" font-size="12.00">+</text>
</g>
<!-- 2675058505728&#45;&gt;2675058503808 -->
<g id="edge13" class="edge">
<title>2675058505728&#45;&gt;2675058503808</title>
<path fill="none" stroke="black" d="M1439.21,-57.08C1447.3,-57.08 1455.43,-57.08 1463.01,-57.08"/>
<polygon fill="black" stroke="black" points="1462.87,-60.58 1472.87,-57.08 1462.87,-53.58 1462.87,-60.58"/>
</g>
<!-- 2675058503760 -->
<g id="node14" class="node">
<title>2675058503760</title>
<polygon fill="none" stroke="black" points="1592,-102.08 1565,-84.08 1592,-66.08 1619,-84.08 1592,-102.08"/>
<text text-anchor="middle" x="1592" y="-79.06" font-family="Times New Roman,serif" font-size="12.00">X</text>
</g>
<!-- 2675058503808&#45;&gt;2675058503760 -->
<g id="edge14" class="edge">
<title>2675058503808&#45;&gt;2675058503760</title>
<path fill="none" stroke="black" d="M1521.23,-62.68C1533.03,-66.3 1548.65,-71.09 1562.11,-75.22"/>
<polygon fill="black" stroke="black" points="1560.76,-78.47 1571.34,-78.05 1562.81,-71.77 1560.76,-78.47"/>
</g>
<!-- 2675058503184 -->
<g id="node15" class="node">
<title>2675058503184</title>
<polygon fill="none" stroke="black" points="1592,-48.08 1565,-30.08 1592,-12.08 1619,-30.08 1592,-48.08"/>
<text text-anchor="middle" x="1592" y="-25.06" font-family="Times New Roman,serif" font-size="12.00">X</text>
</g>
<!-- 2675058503808&#45;&gt;2675058503184 -->
<g id="edge15" class="edge">
<title>2675058503808&#45;&gt;2675058503184</title>
<path fill="none" stroke="black" d="M1521.23,-51.49C1533.03,-47.87 1548.65,-43.08 1562.11,-38.95"/>
<polygon fill="black" stroke="black" points="1562.81,-42.4 1571.34,-36.12 1560.76,-35.7 1562.81,-42.4"/>
</g>
<!-- 2675058291728 -->
<g id="node17" class="node">
<title>2675058291728</title>
<polygon fill="none" stroke="black" points="1746,-145.08 1661,-145.08 1661,-109.08 1746,-109.08 1746,-145.08"/>
<text text-anchor="middle" x="1703.5" y="-122.06" font-family="Times New Roman,serif" font-size="12.00">Send reminder</text>
</g>
<!-- 2675058503760&#45;&gt;2675058291728 -->
<g id="edge16" class="edge">
<title>2675058503760&#45;&gt;2675058291728</title>
<path fill="none" stroke="black" d="M1609.63,-90.62C1620.51,-94.89 1635.38,-100.73 1650.03,-106.48"/>
<polygon fill="black" stroke="black" points="1648.6,-109.68 1659.19,-110.08 1651.16,-103.16 1648.6,-109.68"/>
</g>
<!-- 2675058504720 -->
<g id="node16" class="node">
<title>2675058504720</title>
<polygon fill="none" stroke="black" points="1752,-51.08 1655,-51.08 1655,-15.08 1752,-15.08 1752,-51.08"/>
<text text-anchor="middle" x="1703.5" y="-28.06" font-family="Times New Roman,serif" font-size="12.00">Send instructions</text>
</g>
<!-- 2675058503184&#45;&gt;2675058504720 -->
<g id="edge17" class="edge">
<title>2675058503184&#45;&gt;2675058504720</title>
<path fill="none" stroke="black" d="M1618.67,-30.79C1626.14,-30.99 1634.63,-31.23 1643.27,-31.46"/>
<polygon fill="black" stroke="black" points="1643.04,-34.96 1653.13,-31.73 1643.23,-27.96 1643.04,-34.96"/>
</g>
<!-- 2675058503520 -->
<g id="node18" class="node">
<title>2675058503520</title>
<polygon fill="none" stroke="black" points="1815,-49.08 1788,-31.08 1815,-13.08 1842,-31.08 1815,-49.08"/>
<text text-anchor="middle" x="1815" y="-26.06" font-family="Times New Roman,serif" font-size="12.00">X</text>
</g>
<!-- 2675058504720&#45;&gt;2675058503520 -->
<g id="edge18" class="edge">
<title>2675058504720&#45;&gt;2675058503520</title>
<path fill="none" stroke="black" d="M1752.21,-32.21C1760.4,-32.06 1768.8,-31.91 1776.67,-31.77"/>
<polygon fill="black" stroke="black" points="1776.66,-35.27 1786.59,-31.59 1776.53,-28.27 1776.66,-35.27"/>
</g>
<!-- 2675058502416 -->
<g id="node19" class="node">
<title>2675058502416</title>
<polygon fill="none" stroke="black" points="1815,-103.08 1788,-85.08 1815,-67.08 1842,-85.08 1815,-103.08"/>
<text text-anchor="middle" x="1815" y="-80.06" font-family="Times New Roman,serif" font-size="12.00">X</text>
</g>
<!-- 2675058291728&#45;&gt;2675058502416 -->
<g id="edge19" class="edge">
<title>2675058291728&#45;&gt;2675058502416</title>
<path fill="none" stroke="black" d="M1746.21,-111.09C1759.72,-105.9 1774.36,-100.29 1786.56,-95.61"/>
<polygon fill="black" stroke="black" points="1787.49,-99 1795.57,-92.15 1784.98,-92.47 1787.49,-99"/>
</g>
<!-- 2675058503520&#45;&gt;2675058503184 -->
<g id="edge20" class="edge">
<title>2675058503520&#45;&gt;2675058503184</title>
<path fill="none" stroke="black" d="M1799.21,-23.24C1786.95,-17.2 1768.86,-9.36 1752,-6.08 1709.68,2.13 1697.38,1.83 1655,-6.08 1642.49,-8.42 1629.26,-13.2 1618.24,-17.88"/>
<polygon fill="black" stroke="black" points="1617.15,-14.53 1609.46,-21.81 1620.02,-20.92 1617.15,-14.53"/>
</g>
<!-- 2675058288992 -->
<g id="node20" class="node">
<title>2675058288992</title>
<polygon fill="none" stroke="black" points="1905,-76.08 1878,-58.08 1905,-40.08 1932,-58.08 1905,-76.08"/>
<text text-anchor="middle" x="1905" y="-53.06" font-family="Times New Roman,serif" font-size="12.00">+</text>
</g>
<!-- 2675058503520&#45;&gt;2675058288992 -->
<g id="edge22" class="edge">
<title>2675058503520&#45;&gt;2675058288992</title>
<path fill="none" stroke="black" d="M1834.23,-36.68C1846.03,-40.3 1861.65,-45.09 1875.11,-49.22"/>
<polygon fill="black" stroke="black" points="1873.76,-52.47 1884.34,-52.05 1875.81,-45.77 1873.76,-52.47"/>
</g>
<!-- 2675058502416&#45;&gt;2675058503760 -->
<g id="edge21" class="edge">
<title>2675058502416&#45;&gt;2675058503760</title>
<path fill="none" stroke="black" d="M1787.59,-84.97C1748.64,-84.79 1675.58,-84.46 1630.91,-84.26"/>
<polygon fill="black" stroke="black" points="1631.19,-80.76 1621.17,-84.21 1631.16,-87.76 1631.19,-80.76"/>
</g>
<!-- 2675058502416&#45;&gt;2675058288992 -->
<g id="edge23" class="edge">
<title>2675058502416&#45;&gt;2675058288992</title>
<path fill="none" stroke="black" d="M1834.23,-79.49C1846.03,-75.87 1861.65,-71.08 1875.11,-66.95"/>
<polygon fill="black" stroke="black" points="1875.81,-70.4 1884.34,-64.12 1873.76,-63.7 1875.81,-70.4"/>
</g>
<!-- 2675058281600 -->
<g id="node21" class="node">
<title>2675058281600</title>
<polygon fill="none" stroke="black" points="2119,-76.08 1968,-76.08 1968,-40.08 2119,-40.08 2119,-76.08"/>
<text text-anchor="middle" x="2043.5" y="-53.06" font-family="Times New Roman,serif" font-size="12.00">Customer completes journey</text>
</g>
<!-- 2675058288992&#45;&gt;2675058281600 -->
<g id="edge24" class="edge">
<title>2675058288992&#45;&gt;2675058281600</title>
<path fill="none" stroke="black" d="M1932.64,-58.08C1939.76,-58.08 1947.86,-58.08 1956.36,-58.08"/>
<polygon fill="black" stroke="black" points="1956.19,-61.58 1966.19,-58.08 1956.19,-54.58 1956.19,-61.58"/>
</g>
<!-- 2675058504336 -->
<g id="node22" class="node">
<title>2675058504336</title>
<polygon fill="none" stroke="black" points="2320.25,-76.08 2155,-76.08 2155,-40.08 2320.25,-40.08 2320.25,-76.08"/>
<text text-anchor="middle" x="2237.62" y="-53.06" font-family="Times New Roman,serif" font-size="12.00">Post&#45;travel feedback or services</text>
</g>
<!-- 2675058281600&#45;&gt;2675058504336 -->
<g id="edge25" class="edge">
<title>2675058281600&#45;&gt;2675058504336</title>
<path fill="none" stroke="black" d="M2119.33,-58.08C2127.21,-58.08 2135.29,-58.08 2143.34,-58.08"/>
<polygon fill="black" stroke="black" points="2143.17,-61.58 2153.17,-58.08 2143.17,-54.58 2143.17,-61.58"/>
</g>
<!-- 2675058284720 -->
<g id="node23" class="node">
<title>2675058284720</title>
<ellipse fill="orange" stroke="black" cx="2374.25" cy="-58.08" rx="18" ry="18"/>
</g>
<!-- 2675058504336&#45;&gt;2675058284720 -->
<g id="edge26" class="edge">
<title>2675058504336&#45;&gt;2675058284720</title>
<path fill="none" stroke="black" d="M2320.43,-58.08C2329.04,-58.08 2337.31,-58.08 2344.65,-58.08"/>
<polygon fill="black" stroke="black" points="2344.51,-61.58 2354.51,-58.08 2344.51,-54.58 2344.51,-61.58"/>
</g>
</g>
</svg>
