<?xml version="1.0" encoding="UTF-8" standalone="no"?>
<!DOCTYPE svg PUBLIC "-//W3C//DTD SVG 1.1//EN"
 "http://www.w3.org/Graphics/SVG/1.1/DTD/svg11.dtd">
<!-- Generated by graphviz version 11.0.0 (20240428.1522)
 -->
<!-- Pages: 1 -->
<svg width="2160pt" height="152pt"
 viewBox="0.00 0.00 2160.00 152.00" xmlns="http://www.w3.org/2000/svg" xmlns:xlink="http://www.w3.org/1999/xlink">
<g id="graph0" class="graph" transform="scale(1 1) rotate(0) translate(4 148)">
<polygon fill="white" stroke="none" points="-4,4 -4,-148 2156,-148 2156,4 -4,4"/>
<!-- 2675056125392 -->
<g id="node1" class="node">
<title>2675056125392</title>
<ellipse fill="green" stroke="black" cx="18" cy="-72" rx="18" ry="18"/>
</g>
<!-- 2675056126064 -->
<g id="node2" class="node">
<title>2675056126064</title>
<polygon fill="none" stroke="black" points="221.5,-90 72,-90 72,-54 221.5,-54 221.5,-90"/>
<text text-anchor="middle" x="146.75" y="-66.97" font-family="Times New Roman,serif" font-size="12.00">Customer searches for ticket</text>
</g>
<!-- 2675056125392&#45;&gt;2675056126064 -->
<g id="edge1" class="edge">
<title>2675056125392&#45;&gt;2675056126064</title>
<path fill="none" stroke="black" d="M36.36,-72C43.15,-72 51.48,-72 60.48,-72"/>
<polygon fill="black" stroke="black" points="60.22,-75.5 70.22,-72 60.22,-68.5 60.22,-75.5"/>
</g>
<!-- 2675056121648 -->
<g id="node3" class="node">
<title>2675056121648</title>
<polygon fill="none" stroke="black" points="329,-90 257.5,-90 257.5,-54 329,-54 329,-90"/>
<text text-anchor="middle" x="293.25" y="-66.97" font-family="Times New Roman,serif" font-size="12.00">Select route</text>
</g>
<!-- 2675056126064&#45;&gt;2675056121648 -->
<g id="edge2" class="edge">
<title>2675056126064&#45;&gt;2675056121648</title>
<path fill="none" stroke="black" d="M221.69,-72C229.9,-72 238.08,-72 245.8,-72"/>
<polygon fill="black" stroke="black" points="245.61,-75.5 255.61,-72 245.61,-68.5 245.61,-75.5"/>
</g>
<!-- 2675056125056 -->
<g id="node4" class="node">
<title>2675056125056</title>
<polygon fill="none" stroke="black" points="475.5,-90 365,-90 365,-54 475.5,-54 475.5,-90"/>
<text text-anchor="middle" x="420.25" y="-66.97" font-family="Times New Roman,serif" font-size="12.00">Select date and time</text>
</g>
<!-- 2675056121648&#45;&gt;2675056125056 -->
<g id="edge3" class="edge">
<title>2675056121648&#45;&gt;2675056125056</title>
<path fill="none" stroke="black" d="M329.4,-72C336.95,-72 345.16,-72 353.44,-72"/>
<polygon fill="black" stroke="black" points="353.22,-75.5 363.22,-72 353.22,-68.5 353.22,-75.5"/>
</g>
<!-- 2675057920192 -->
<g id="node5" class="node">
<title>2675057920192</title>
<polygon fill="none" stroke="black" points="664.75,-90 511.5,-90 511.5,-54 664.75,-54 664.75,-90"/>
<text text-anchor="middle" x="588.12" y="-66.97" font-family="Times New Roman,serif" font-size="12.00">Provide personal information</text>
</g>
<!-- 2675056125056&#45;&gt;2675057920192 -->
<g id="edge4" class="edge">
<title>2675056125056&#45;&gt;2675057920192</title>
<path fill="none" stroke="black" d="M475.56,-72C483.36,-72 491.54,-72 499.78,-72"/>
<polygon fill="black" stroke="black" points="499.5,-75.5 509.5,-72 499.5,-68.5 499.5,-75.5"/>
</g>
<!-- 2675058351696 -->
<g id="node6" class="node">
<title>2675058351696</title>
<polygon fill="none" stroke="black" points="830,-90 700.75,-90 700.75,-54 830,-54 830,-90"/>
<text text-anchor="middle" x="765.38" y="-66.97" font-family="Times New Roman,serif" font-size="12.00">Provide payment details</text>
</g>
<!-- 2675057920192&#45;&gt;2675058351696 -->
<g id="edge5" class="edge">
<title>2675057920192&#45;&gt;2675058351696</title>
<path fill="none" stroke="black" d="M665.23,-72C673.11,-72 681.12,-72 688.99,-72"/>
<polygon fill="black" stroke="black" points="688.89,-75.5 698.89,-72 688.89,-68.5 688.89,-75.5"/>
</g>
<!-- 2675058354912 -->
<g id="node7" class="node">
<title>2675058354912</title>
<polygon fill="none" stroke="black" points="953.25,-90 866,-90 866,-54 953.25,-54 953.25,-90"/>
<text text-anchor="middle" x="909.62" y="-66.97" font-family="Times New Roman,serif" font-size="12.00">Generate ticket</text>
</g>
<!-- 2675058351696&#45;&gt;2675058354912 -->
<g id="edge6" class="edge">
<title>2675058351696&#45;&gt;2675058354912</title>
<path fill="none" stroke="black" d="M830.43,-72C838.45,-72 846.6,-72 854.46,-72"/>
<polygon fill="black" stroke="black" points="854.19,-75.5 864.19,-72 854.19,-68.5 854.19,-75.5"/>
</g>
<!-- 2675058355344 -->
<g id="node8" class="node">
<title>2675058355344</title>
<polygon fill="none" stroke="black" points="1016.25,-90 989.25,-72 1016.25,-54 1043.25,-72 1016.25,-90"/>
<text text-anchor="middle" x="1016.25" y="-66.97" font-family="Times New Roman,serif" font-size="12.00">+</text>
</g>
<!-- 2675058354912&#45;&gt;2675058355344 -->
<g id="edge7" class="edge">
<title>2675058354912&#45;&gt;2675058355344</title>
<path fill="none" stroke="black" d="M953.48,-72C961.35,-72 969.52,-72 977.23,-72"/>
<polygon fill="black" stroke="black" points="976.99,-75.5 986.99,-72 976.99,-68.5 976.99,-75.5"/>
</g>
<!-- 2675058355968 -->
<g id="node9" class="node">
<title>2675058355968</title>
<polygon fill="none" stroke="black" points="1196.12,-144 1081.88,-144 1081.88,-108 1196.12,-108 1196.12,-144"/>
<text text-anchor="middle" x="1139" y="-120.97" font-family="Times New Roman,serif" font-size="12.00">Send ticket via email</text>
</g>
<!-- 2675058355344&#45;&gt;2675058355968 -->
<g id="edge10" class="edge">
<title>2675058355344&#45;&gt;2675058355968</title>
<path fill="none" stroke="black" d="M1033.04,-79.06C1046.63,-85.14 1067.03,-94.26 1086.25,-102.86"/>
<polygon fill="black" stroke="black" points="1084.81,-106.05 1095.37,-106.94 1087.67,-99.66 1084.81,-106.05"/>
</g>
<!-- 2675056129520 -->
<g id="node10" class="node">
<title>2675056129520</title>
<polygon fill="none" stroke="black" points="1195.38,-90 1082.62,-90 1082.62,-54 1195.38,-54 1195.38,-90"/>
<text text-anchor="middle" x="1139" y="-66.97" font-family="Times New Roman,serif" font-size="12.00">Send ticket via SMS</text>
</g>
<!-- 2675058355344&#45;&gt;2675056129520 -->
<g id="edge9" class="edge">
<title>2675058355344&#45;&gt;2675056129520</title>
<path fill="none" stroke="black" d="M1044.05,-72C1052.24,-72 1061.64,-72 1071.25,-72"/>
<polygon fill="black" stroke="black" points="1071.07,-75.5 1081.07,-72 1071.07,-68.5 1071.07,-75.5"/>
</g>
<!-- 2675056119392 -->
<g id="node11" class="node">
<title>2675056119392</title>
<polygon fill="none" stroke="black" points="1198.75,-36 1079.25,-36 1079.25,0 1198.75,0 1198.75,-36"/>
<text text-anchor="middle" x="1139" y="-12.97" font-family="Times New Roman,serif" font-size="12.00">Update seat inventory</text>
</g>
<!-- 2675058355344&#45;&gt;2675056119392 -->
<g id="edge8" class="edge">
<title>2675058355344&#45;&gt;2675056119392</title>
<path fill="none" stroke="black" d="M1033.04,-64.94C1046.63,-58.86 1067.03,-49.74 1086.25,-41.14"/>
<polygon fill="black" stroke="black" points="1087.67,-44.34 1095.37,-37.06 1084.81,-37.95 1087.67,-44.34"/>
</g>
<!-- 2675056120160 -->
<g id="node12" class="node">
<title>2675056120160</title>
<polygon fill="none" stroke="black" points="1261.75,-90 1234.75,-72 1261.75,-54 1288.75,-72 1261.75,-90"/>
<text text-anchor="middle" x="1261.75" y="-66.97" font-family="Times New Roman,serif" font-size="12.00">+</text>
</g>
<!-- 2675058355968&#45;&gt;2675056120160 -->
<g id="edge11" class="edge">
<title>2675058355968&#45;&gt;2675056120160</title>
<path fill="none" stroke="black" d="M1181.22,-107.57C1198.81,-99.7 1218.82,-90.75 1234.37,-83.8"/>
<polygon fill="black" stroke="black" points="1235.73,-87.02 1243.43,-79.75 1232.87,-80.63 1235.73,-87.02"/>
</g>
<!-- 2675056129520&#45;&gt;2675056120160 -->
<g id="edge12" class="edge">
<title>2675056129520&#45;&gt;2675056120160</title>
<path fill="none" stroke="black" d="M1195.78,-72C1204.85,-72 1214.06,-72 1222.59,-72"/>
<polygon fill="black" stroke="black" points="1222.58,-75.5 1232.58,-72 1222.58,-68.5 1222.58,-75.5"/>
</g>
<!-- 2675056119392&#45;&gt;2675056120160 -->
<g id="edge13" class="edge">
<title>2675056119392&#45;&gt;2675056120160</title>
<path fill="none" stroke="black" d="M1181.22,-36.43C1198.81,-44.3 1218.82,-53.25 1234.37,-60.2"/>
<polygon fill="black" stroke="black" points="1232.87,-63.37 1243.43,-64.25 1235.73,-56.98 1232.87,-63.37"/>
</g>
<!-- 2675056127072 -->
<g id="node13" class="node">
<title>2675056127072</title>
<polygon fill="none" stroke="black" points="1415.75,-117 1330.75,-117 1330.75,-81 1415.75,-81 1415.75,-117"/>
<text text-anchor="middle" x="1373.25" y="-93.97" font-family="Times New Roman,serif" font-size="12.00">Send reminder</text>
</g>
<!-- 2675056120160&#45;&gt;2675056127072 -->
<g id="edge14" class="edge">
<title>2675056120160&#45;&gt;2675056127072</title>
<path fill="none" stroke="black" d="M1282.33,-76.83C1292.8,-79.41 1306.26,-82.73 1319.56,-86.01"/>
<polygon fill="black" stroke="black" points="1318.6,-89.38 1329.15,-88.37 1320.28,-82.58 1318.6,-89.38"/>
</g>
<!-- 2675056126400 -->
<g id="node14" class="node">
<title>2675056126400</title>
<polygon fill="none" stroke="black" points="1421.75,-63 1324.75,-63 1324.75,-27 1421.75,-27 1421.75,-63"/>
<text text-anchor="middle" x="1373.25" y="-39.98" font-family="Times New Roman,serif" font-size="12.00">Send instructions</text>
</g>
<!-- 2675056120160&#45;&gt;2675056126400 -->
<g id="edge15" class="edge">
<title>2675056120160&#45;&gt;2675056126400</title>
<path fill="none" stroke="black" d="M1282.33,-67.17C1291.28,-64.97 1302.4,-62.22 1313.74,-59.43"/>
<polygon fill="black" stroke="black" points="1314.28,-62.9 1323.15,-57.11 1312.6,-56.1 1314.28,-62.9"/>
</g>
<!-- 2675056130528 -->
<g id="node15" class="node">
<title>2675056130528</title>
<polygon fill="none" stroke="black" points="1484.75,-90 1457.75,-72 1484.75,-54 1511.75,-72 1484.75,-90"/>
<text text-anchor="middle" x="1484.75" y="-66.97" font-family="Times New Roman,serif" font-size="12.00">+</text>
</g>
<!-- 2675056127072&#45;&gt;2675056130528 -->
<g id="edge16" class="edge">
<title>2675056127072&#45;&gt;2675056130528</title>
<path fill="none" stroke="black" d="M1415.96,-88.72C1428.38,-85.65 1441.75,-82.36 1453.31,-79.51"/>
<polygon fill="black" stroke="black" points="1453.82,-82.99 1462.69,-77.19 1452.14,-76.19 1453.82,-82.99"/>
</g>
<!-- 2675056126400&#45;&gt;2675056130528 -->
<g id="edge17" class="edge">
<title>2675056126400&#45;&gt;2675056130528</title>
<path fill="none" stroke="black" d="M1421.96,-56.76C1432.53,-59.37 1443.46,-62.06 1453.13,-64.45"/>
<polygon fill="black" stroke="black" points="1452.18,-67.82 1462.73,-66.82 1453.85,-61.02 1452.18,-67.82"/>
</g>
<!-- 2675056130384 -->
<g id="node16" class="node">
<title>2675056130384</title>
<polygon fill="none" stroke="black" points="1698.75,-90 1547.75,-90 1547.75,-54 1698.75,-54 1698.75,-90"/>
<text text-anchor="middle" x="1623.25" y="-66.97" font-family="Times New Roman,serif" font-size="12.00">Customer completes journey</text>
</g>
<!-- 2675056130528&#45;&gt;2675056130384 -->
<g id="edge18" class="edge">
<title>2675056130528&#45;&gt;2675056130384</title>
<path fill="none" stroke="black" d="M1512.39,-72C1519.51,-72 1527.61,-72 1536.11,-72"/>
<polygon fill="black" stroke="black" points="1535.94,-75.5 1545.94,-72 1535.94,-68.5 1535.94,-75.5"/>
</g>
<!-- 2675057933296 -->
<g id="node17" class="node">
<title>2675057933296</title>
<polygon fill="none" stroke="black" points="1761.75,-90 1734.75,-72 1761.75,-54 1788.75,-72 1761.75,-90"/>
<text text-anchor="middle" x="1761.75" y="-66.97" font-family="Times New Roman,serif" font-size="12.00">X</text>
</g>
<!-- 2675056130384&#45;&gt;2675057933296 -->
<g id="edge19" class="edge">
<title>2675056130384&#45;&gt;2675057933296</title>
<path fill="none" stroke="black" d="M1698.89,-72C1707.04,-72 1715.07,-72 1722.51,-72"/>
<polygon fill="black" stroke="black" points="1722.49,-75.5 1732.49,-72 1722.49,-68.5 1722.49,-75.5"/>
</g>
<!-- 2675057929072 -->
<g id="node18" class="node">
<title>2675057929072</title>
<polygon fill="none" stroke="black" points="2053,-90 2026,-72 2053,-54 2080,-72 2053,-90"/>
<text text-anchor="middle" x="2053" y="-66.97" font-family="Times New Roman,serif" font-size="12.00">X</text>
</g>
<!-- 2675057933296&#45;&gt;2675057929072 -->
<g id="edge20" class="edge">
<title>2675057933296&#45;&gt;2675057929072</title>
<path fill="none" stroke="black" d="M1786.58,-73.9C1798.1,-74.72 1812.14,-75.59 1824.75,-76 1898.16,-78.37 1916.59,-78.37 1990,-76 1998.67,-75.72 2008.02,-75.22 2016.75,-74.67"/>
<polygon fill="black" stroke="black" points="2016.92,-78.17 2026.66,-74 2016.45,-71.18 2016.92,-78.17"/>
</g>
<!-- 2675058353808 -->
<g id="node19" class="node">
<title>2675058353808</title>
<polygon fill="none" stroke="black" points="1990,-67 1824.75,-67 1824.75,-31 1990,-31 1990,-67"/>
<text text-anchor="middle" x="1907.38" y="-43.98" font-family="Times New Roman,serif" font-size="12.00">Post&#45;travel feedback or services</text>
</g>
<!-- 2675057933296&#45;&gt;2675058353808 -->
<g id="edge21" class="edge">
<title>2675057933296&#45;&gt;2675058353808</title>
<path fill="none" stroke="black" d="M1784.25,-68.56C1792.44,-67.25 1802.38,-65.65 1813.02,-63.95"/>
<polygon fill="black" stroke="black" points="1813.5,-67.42 1822.82,-62.38 1812.39,-60.51 1813.5,-67.42"/>
</g>
<!-- 2675057794160 -->
<g id="node20" class="node">
<title>2675057794160</title>
<ellipse fill="orange" stroke="black" cx="2134" cy="-72" rx="18" ry="18"/>
</g>
<!-- 2675057929072&#45;&gt;2675057794160 -->
<g id="edge23" class="edge">
<title>2675057929072&#45;&gt;2675057794160</title>
<path fill="none" stroke="black" d="M2080.75,-72C2088.38,-72 2096.73,-72 2104.47,-72"/>
<polygon fill="black" stroke="black" points="2104.43,-75.5 2114.43,-72 2104.43,-68.5 2104.43,-75.5"/>
</g>
<!-- 2675058353808&#45;&gt;2675057929072 -->
<g id="edge22" class="edge">
<title>2675058353808&#45;&gt;2675057929072</title>
<path fill="none" stroke="black" d="M1990.26,-62.11C2000.48,-63.75 2010.42,-65.34 2019.24,-66.75"/>
<polygon fill="black" stroke="black" points="2018.56,-70.19 2028.98,-68.31 2019.66,-63.28 2018.56,-70.19"/>
</g>
</g>
</svg>
