<?xml version="1.0" encoding="UTF-8" standalone="no"?>
<!DOCTYPE svg PUBLIC "-//W3C//DTD SVG 1.1//EN"
 "http://www.w3.org/Graphics/SVG/1.1/DTD/svg11.dtd">
<!-- Generated by graphviz version 11.0.0 (20240428.1522)
 -->
<!-- Pages: 1 -->
<svg width="2400pt" height="156pt"
 viewBox="0.00 0.00 2400.25 156.08" xmlns="http://www.w3.org/2000/svg" xmlns:xlink="http://www.w3.org/1999/xlink">
<g id="graph0" class="graph" transform="scale(1 1) rotate(0) translate(4 152.08)">
<polygon fill="white" stroke="none" points="-4,4 -4,-152.08 2396.25,-152.08 2396.25,4 -4,4"/>
<!-- 2675057672464 -->
<g id="node1" class="node">
<title>2675057672464</title>
<ellipse fill="green" stroke="black" cx="18" cy="-53.08" rx="18" ry="18"/>
</g>
<!-- 2675057843552 -->
<g id="node2" class="node">
<title>2675057843552</title>
<polygon fill="none" stroke="black" points="221.5,-71.08 72,-71.08 72,-35.08 221.5,-35.08 221.5,-71.08"/>
<text text-anchor="middle" x="146.75" y="-48.06" font-family="Times New Roman,serif" font-size="12.00">Customer searches for ticket</text>
</g>
<!-- 2675057672464&#45;&gt;2675057843552 -->
<g id="edge1" class="edge">
<title>2675057672464&#45;&gt;2675057843552</title>
<path fill="none" stroke="black" d="M36.36,-53.08C43.15,-53.08 51.48,-53.08 60.48,-53.08"/>
<polygon fill="black" stroke="black" points="60.22,-56.58 70.22,-53.08 60.22,-49.58 60.22,-56.58"/>
</g>
<!-- 2675057843360 -->
<g id="node3" class="node">
<title>2675057843360</title>
<polygon fill="none" stroke="black" points="329,-71.08 257.5,-71.08 257.5,-35.08 329,-35.08 329,-71.08"/>
<text text-anchor="middle" x="293.25" y="-48.06" font-family="Times New Roman,serif" font-size="12.00">Select route</text>
</g>
<!-- 2675057843552&#45;&gt;2675057843360 -->
<g id="edge2" class="edge">
<title>2675057843552&#45;&gt;2675057843360</title>
<path fill="none" stroke="black" d="M221.69,-53.08C229.9,-53.08 238.08,-53.08 245.8,-53.08"/>
<polygon fill="black" stroke="black" points="245.61,-56.58 255.61,-53.08 245.61,-49.58 245.61,-56.58"/>
</g>
<!-- 2675057842544 -->
<g id="node4" class="node">
<title>2675057842544</title>
<polygon fill="none" stroke="black" points="475.5,-71.08 365,-71.08 365,-35.08 475.5,-35.08 475.5,-71.08"/>
<text text-anchor="middle" x="420.25" y="-48.06" font-family="Times New Roman,serif" font-size="12.00">Select date and time</text>
</g>
<!-- 2675057843360&#45;&gt;2675057842544 -->
<g id="edge3" class="edge">
<title>2675057843360&#45;&gt;2675057842544</title>
<path fill="none" stroke="black" d="M329.4,-53.08C336.95,-53.08 345.16,-53.08 353.44,-53.08"/>
<polygon fill="black" stroke="black" points="353.22,-56.58 363.22,-53.08 353.22,-49.58 353.22,-56.58"/>
</g>
<!-- 2675057843168 -->
<g id="node5" class="node">
<title>2675057843168</title>
<polygon fill="none" stroke="black" points="664.75,-71.08 511.5,-71.08 511.5,-35.08 664.75,-35.08 664.75,-71.08"/>
<text text-anchor="middle" x="588.12" y="-48.06" font-family="Times New Roman,serif" font-size="12.00">Provide personal information</text>
</g>
<!-- 2675057842544&#45;&gt;2675057843168 -->
<g id="edge4" class="edge">
<title>2675057842544&#45;&gt;2675057843168</title>
<path fill="none" stroke="black" d="M475.56,-53.08C483.36,-53.08 491.54,-53.08 499.78,-53.08"/>
<polygon fill="black" stroke="black" points="499.5,-56.58 509.5,-53.08 499.5,-49.58 499.5,-56.58"/>
</g>
<!-- 2675057843840 -->
<g id="node6" class="node">
<title>2675057843840</title>
<polygon fill="none" stroke="black" points="830,-71.08 700.75,-71.08 700.75,-35.08 830,-35.08 830,-71.08"/>
<text text-anchor="middle" x="765.38" y="-48.06" font-family="Times New Roman,serif" font-size="12.00">Provide payment details</text>
</g>
<!-- 2675057843168&#45;&gt;2675057843840 -->
<g id="edge5" class="edge">
<title>2675057843168&#45;&gt;2675057843840</title>
<path fill="none" stroke="black" d="M665.23,-53.08C673.11,-53.08 681.12,-53.08 688.99,-53.08"/>
<polygon fill="black" stroke="black" points="688.89,-56.58 698.89,-53.08 688.89,-49.58 688.89,-56.58"/>
</g>
<!-- 2675057841776 -->
<g id="node7" class="node">
<title>2675057841776</title>
<polygon fill="none" stroke="black" points="953.25,-71.08 866,-71.08 866,-35.08 953.25,-35.08 953.25,-71.08"/>
<text text-anchor="middle" x="909.62" y="-48.06" font-family="Times New Roman,serif" font-size="12.00">Generate ticket</text>
</g>
<!-- 2675057843840&#45;&gt;2675057841776 -->
<g id="edge6" class="edge">
<title>2675057843840&#45;&gt;2675057841776</title>
<path fill="none" stroke="black" d="M830.43,-53.08C838.45,-53.08 846.6,-53.08 854.46,-53.08"/>
<polygon fill="black" stroke="black" points="854.19,-56.58 864.19,-53.08 854.19,-49.58 854.19,-56.58"/>
</g>
<!-- 2675057842160 -->
<g id="node8" class="node">
<title>2675057842160</title>
<polygon fill="none" stroke="black" points="1016.25,-71.08 989.25,-53.08 1016.25,-35.08 1043.25,-53.08 1016.25,-71.08"/>
<text text-anchor="middle" x="1016.25" y="-48.06" font-family="Times New Roman,serif" font-size="12.00">+</text>
</g>
<!-- 2675057841776&#45;&gt;2675057842160 -->
<g id="edge7" class="edge">
<title>2675057841776&#45;&gt;2675057842160</title>
<path fill="none" stroke="black" d="M953.48,-53.08C961.35,-53.08 969.52,-53.08 977.23,-53.08"/>
<polygon fill="black" stroke="black" points="976.99,-56.58 986.99,-53.08 976.99,-49.58 976.99,-56.58"/>
</g>
<!-- 2675057849216 -->
<g id="node9" class="node">
<title>2675057849216</title>
<polygon fill="none" stroke="black" points="1106.25,-94.08 1079.25,-76.08 1106.25,-58.08 1133.25,-76.08 1106.25,-94.08"/>
<text text-anchor="middle" x="1106.25" y="-71.06" font-family="Times New Roman,serif" font-size="12.00">X</text>
</g>
<!-- 2675057842160&#45;&gt;2675057849216 -->
<g id="edge8" class="edge">
<title>2675057842160&#45;&gt;2675057849216</title>
<path fill="none" stroke="black" d="M1036.34,-58.08C1047.76,-61.06 1062.51,-64.91 1075.44,-68.29"/>
<polygon fill="black" stroke="black" points="1074.17,-71.58 1084.73,-70.72 1075.94,-64.81 1074.17,-71.58"/>
</g>
<!-- 2675057841344 -->
<g id="node10" class="node">
<title>2675057841344</title>
<polygon fill="none" stroke="black" points="1439,-48.08 1319.5,-48.08 1319.5,-12.08 1439,-12.08 1439,-48.08"/>
<text text-anchor="middle" x="1379.25" y="-25.06" font-family="Times New Roman,serif" font-size="12.00">Update seat inventory</text>
</g>
<!-- 2675057842160&#45;&gt;2675057841344 -->
<g id="edge9" class="edge">
<title>2675057842160&#45;&gt;2675057841344</title>
<path fill="none" stroke="black" d="M1041.69,-51.5C1053.1,-50.77 1066.87,-49.88 1079.25,-49.08 1157.52,-44.07 1247.31,-38.37 1307.91,-34.54"/>
<polygon fill="black" stroke="black" points="1307.98,-38.04 1317.74,-33.91 1307.54,-31.05 1307.98,-38.04"/>
</g>
<!-- 2675057839952 -->
<g id="node11" class="node">
<title>2675057839952</title>
<polygon fill="none" stroke="black" points="1282.75,-148.08 1170,-148.08 1170,-112.08 1282.75,-112.08 1282.75,-148.08"/>
<text text-anchor="middle" x="1226.38" y="-125.06" font-family="Times New Roman,serif" font-size="12.00">Send ticket via SMS</text>
</g>
<!-- 2675057849216&#45;&gt;2675057839952 -->
<g id="edge11" class="edge">
<title>2675057849216&#45;&gt;2675057839952</title>
<path fill="none" stroke="black" d="M1123.18,-83.37C1136.46,-89.44 1156.12,-98.43 1174.67,-106.9"/>
<polygon fill="black" stroke="black" points="1173.18,-110.07 1183.73,-111.05 1176.09,-103.7 1173.18,-110.07"/>
</g>
<!-- 2675057842448 -->
<g id="node13" class="node">
<title>2675057842448</title>
<polygon fill="none" stroke="black" points="1283.5,-94.08 1169.25,-94.08 1169.25,-58.08 1283.5,-58.08 1283.5,-94.08"/>
<text text-anchor="middle" x="1226.38" y="-71.06" font-family="Times New Roman,serif" font-size="12.00">Send ticket via email</text>
</g>
<!-- 2675057849216&#45;&gt;2675057842448 -->
<g id="edge10" class="edge">
<title>2675057849216&#45;&gt;2675057842448</title>
<path fill="none" stroke="black" d="M1134.05,-76.08C1141.17,-76.08 1149.18,-76.08 1157.43,-76.08"/>
<polygon fill="black" stroke="black" points="1157.25,-79.58 1167.25,-76.08 1157.25,-72.58 1157.25,-79.58"/>
</g>
<!-- 2675057844224 -->
<g id="node12" class="node">
<title>2675057844224</title>
<polygon fill="none" stroke="black" points="1502,-75.08 1475,-57.08 1502,-39.08 1529,-57.08 1502,-75.08"/>
<text text-anchor="middle" x="1502" y="-52.06" font-family="Times New Roman,serif" font-size="12.00">+</text>
</g>
<!-- 2675057841344&#45;&gt;2675057844224 -->
<g id="edge12" class="edge">
<title>2675057841344&#45;&gt;2675057844224</title>
<path fill="none" stroke="black" d="M1439.21,-43.27C1449.82,-45.64 1460.48,-48.03 1469.9,-50.13"/>
<polygon fill="black" stroke="black" points="1469.05,-53.53 1479.58,-52.29 1470.58,-46.7 1469.05,-53.53"/>
</g>
<!-- 2675057845568 -->
<g id="node16" class="node">
<title>2675057845568</title>
<polygon fill="none" stroke="black" points="1379.25,-102.08 1352.25,-84.08 1379.25,-66.08 1406.25,-84.08 1379.25,-102.08"/>
<text text-anchor="middle" x="1379.25" y="-79.06" font-family="Times New Roman,serif" font-size="12.00">X</text>
</g>
<!-- 2675057839952&#45;&gt;2675057845568 -->
<g id="edge13" class="edge">
<title>2675057839952&#45;&gt;2675057845568</title>
<path fill="none" stroke="black" d="M1283.13,-113.09C1305.51,-106.26 1330.38,-98.68 1349.08,-92.98"/>
<polygon fill="black" stroke="black" points="1349.85,-96.4 1358.39,-90.14 1347.81,-89.71 1349.85,-96.4"/>
</g>
<!-- 2675057845280 -->
<g id="node14" class="node">
<title>2675057845280</title>
<polygon fill="none" stroke="black" points="1592,-102.08 1565,-84.08 1592,-66.08 1619,-84.08 1592,-102.08"/>
<text text-anchor="middle" x="1592" y="-79.06" font-family="Times New Roman,serif" font-size="12.00">X</text>
</g>
<!-- 2675057844224&#45;&gt;2675057845280 -->
<g id="edge14" class="edge">
<title>2675057844224&#45;&gt;2675057845280</title>
<path fill="none" stroke="black" d="M1521.23,-62.68C1533.03,-66.3 1548.65,-71.09 1562.11,-75.22"/>
<polygon fill="black" stroke="black" points="1560.76,-78.47 1571.34,-78.05 1562.81,-71.77 1560.76,-78.47"/>
</g>
<!-- 2675057845376 -->
<g id="node15" class="node">
<title>2675057845376</title>
<polygon fill="none" stroke="black" points="1592,-48.08 1565,-30.08 1592,-12.08 1619,-30.08 1592,-48.08"/>
<text text-anchor="middle" x="1592" y="-25.06" font-family="Times New Roman,serif" font-size="12.00">X</text>
</g>
<!-- 2675057844224&#45;&gt;2675057845376 -->
<g id="edge15" class="edge">
<title>2675057844224&#45;&gt;2675057845376</title>
<path fill="none" stroke="black" d="M1521.23,-51.49C1533.03,-47.87 1548.65,-43.08 1562.11,-38.95"/>
<polygon fill="black" stroke="black" points="1562.81,-42.4 1571.34,-36.12 1560.76,-35.7 1562.81,-42.4"/>
</g>
<!-- 2675057842448&#45;&gt;2675057845568 -->
<g id="edge16" class="edge">
<title>2675057842448&#45;&gt;2675057845568</title>
<path fill="none" stroke="black" d="M1283.98,-79.09C1303.41,-80.12 1324.63,-81.24 1342,-82.16"/>
<polygon fill="black" stroke="black" points="1341.66,-85.65 1351.83,-82.68 1342.03,-78.66 1341.66,-85.65"/>
</g>
<!-- 2675057841920 -->
<g id="node18" class="node">
<title>2675057841920</title>
<polygon fill="none" stroke="black" points="1752,-145.08 1655,-145.08 1655,-109.08 1752,-109.08 1752,-145.08"/>
<text text-anchor="middle" x="1703.5" y="-122.06" font-family="Times New Roman,serif" font-size="12.00">Send instructions</text>
</g>
<!-- 2675057845280&#45;&gt;2675057841920 -->
<g id="edge18" class="edge">
<title>2675057845280&#45;&gt;2675057841920</title>
<path fill="none" stroke="black" d="M1609.63,-90.62C1619.36,-94.43 1632.27,-99.5 1645.36,-104.65"/>
<polygon fill="black" stroke="black" points="1643.85,-107.81 1654.43,-108.21 1646.4,-101.3 1643.85,-107.81"/>
</g>
<!-- 2675057844704 -->
<g id="node17" class="node">
<title>2675057844704</title>
<polygon fill="none" stroke="black" points="1746,-51.08 1661,-51.08 1661,-15.08 1746,-15.08 1746,-51.08"/>
<text text-anchor="middle" x="1703.5" y="-28.06" font-family="Times New Roman,serif" font-size="12.00">Send reminder</text>
</g>
<!-- 2675057845376&#45;&gt;2675057844704 -->
<g id="edge19" class="edge">
<title>2675057845376&#45;&gt;2675057844704</title>
<path fill="none" stroke="black" d="M1618.67,-30.79C1627.86,-31.04 1638.6,-31.33 1649.25,-31.63"/>
<polygon fill="black" stroke="black" points="1649.1,-35.12 1659.2,-31.9 1649.3,-28.13 1649.1,-35.12"/>
</g>
<!-- 2675057845568&#45;&gt;2675057844224 -->
<g id="edge17" class="edge">
<title>2675057845568&#45;&gt;2675057844224</title>
<path fill="none" stroke="black" d="M1400.19,-79.63C1419.15,-75.39 1447.97,-68.94 1469.94,-64.03"/>
<polygon fill="black" stroke="black" points="1470.56,-67.48 1479.55,-61.88 1469.03,-60.65 1470.56,-67.48"/>
</g>
<!-- 2675057845424 -->
<g id="node19" class="node">
<title>2675057845424</title>
<polygon fill="none" stroke="black" points="1815,-49.08 1788,-31.08 1815,-13.08 1842,-31.08 1815,-49.08"/>
<text text-anchor="middle" x="1815" y="-26.06" font-family="Times New Roman,serif" font-size="12.00">X</text>
</g>
<!-- 2675057844704&#45;&gt;2675057845424 -->
<g id="edge20" class="edge">
<title>2675057844704&#45;&gt;2675057845424</title>
<path fill="none" stroke="black" d="M1746.21,-32.32C1756.18,-32.14 1766.76,-31.95 1776.52,-31.77"/>
<polygon fill="black" stroke="black" points="1776.49,-35.27 1786.42,-31.59 1776.36,-28.27 1776.49,-35.27"/>
</g>
<!-- 2675057846096 -->
<g id="node20" class="node">
<title>2675057846096</title>
<polygon fill="none" stroke="black" points="1815,-103.08 1788,-85.08 1815,-67.08 1842,-85.08 1815,-103.08"/>
<text text-anchor="middle" x="1815" y="-80.06" font-family="Times New Roman,serif" font-size="12.00">X</text>
</g>
<!-- 2675057841920&#45;&gt;2675057846096 -->
<g id="edge21" class="edge">
<title>2675057841920&#45;&gt;2675057846096</title>
<path fill="none" stroke="black" d="M1752.21,-108.79C1763.98,-104.27 1776.18,-99.59 1786.61,-95.59"/>
<polygon fill="black" stroke="black" points="1787.62,-98.95 1795.7,-92.1 1785.11,-92.42 1787.62,-98.95"/>
</g>
<!-- 2675057845424&#45;&gt;2675057845376 -->
<g id="edge22" class="edge">
<title>2675057845424&#45;&gt;2675057845376</title>
<path fill="none" stroke="black" d="M1799.21,-23.24C1786.95,-17.2 1768.86,-9.36 1752,-6.08 1709.68,2.13 1697.38,1.83 1655,-6.08 1642.49,-8.42 1629.26,-13.2 1618.24,-17.88"/>
<polygon fill="black" stroke="black" points="1617.15,-14.53 1609.46,-21.81 1620.02,-20.92 1617.15,-14.53"/>
</g>
<!-- 2675057844368 -->
<g id="node21" class="node">
<title>2675057844368</title>
<polygon fill="none" stroke="black" points="1905,-76.08 1878,-58.08 1905,-40.08 1932,-58.08 1905,-76.08"/>
<text text-anchor="middle" x="1905" y="-53.06" font-family="Times New Roman,serif" font-size="12.00">+</text>
</g>
<!-- 2675057845424&#45;&gt;2675057844368 -->
<g id="edge24" class="edge">
<title>2675057845424&#45;&gt;2675057844368</title>
<path fill="none" stroke="black" d="M1834.23,-36.68C1846.03,-40.3 1861.65,-45.09 1875.11,-49.22"/>
<polygon fill="black" stroke="black" points="1873.76,-52.47 1884.34,-52.05 1875.81,-45.77 1873.76,-52.47"/>
</g>
<!-- 2675057846096&#45;&gt;2675057845280 -->
<g id="edge23" class="edge">
<title>2675057846096&#45;&gt;2675057845280</title>
<path fill="none" stroke="black" d="M1787.59,-84.97C1748.64,-84.79 1675.58,-84.46 1630.91,-84.26"/>
<polygon fill="black" stroke="black" points="1631.19,-80.76 1621.17,-84.21 1631.16,-87.76 1631.19,-80.76"/>
</g>
<!-- 2675057846096&#45;&gt;2675057844368 -->
<g id="edge25" class="edge">
<title>2675057846096&#45;&gt;2675057844368</title>
<path fill="none" stroke="black" d="M1834.23,-79.49C1846.03,-75.87 1861.65,-71.08 1875.11,-66.95"/>
<polygon fill="black" stroke="black" points="1875.81,-70.4 1884.34,-64.12 1873.76,-63.7 1875.81,-70.4"/>
</g>
<!-- 2675057844032 -->
<g id="node22" class="node">
<title>2675057844032</title>
<polygon fill="none" stroke="black" points="2119,-76.08 1968,-76.08 1968,-40.08 2119,-40.08 2119,-76.08"/>
<text text-anchor="middle" x="2043.5" y="-53.06" font-family="Times New Roman,serif" font-size="12.00">Customer completes journey</text>
</g>
<!-- 2675057844368&#45;&gt;2675057844032 -->
<g id="edge26" class="edge">
<title>2675057844368&#45;&gt;2675057844032</title>
<path fill="none" stroke="black" d="M1932.64,-58.08C1939.76,-58.08 1947.86,-58.08 1956.36,-58.08"/>
<polygon fill="black" stroke="black" points="1956.19,-61.58 1966.19,-58.08 1956.19,-54.58 1956.19,-61.58"/>
</g>
<!-- 2675057839088 -->
<g id="node23" class="node">
<title>2675057839088</title>
<polygon fill="none" stroke="black" points="2320.25,-76.08 2155,-76.08 2155,-40.08 2320.25,-40.08 2320.25,-76.08"/>
<text text-anchor="middle" x="2237.62" y="-53.06" font-family="Times New Roman,serif" font-size="12.00">Post&#45;travel feedback or services</text>
</g>
<!-- 2675057844032&#45;&gt;2675057839088 -->
<g id="edge27" class="edge">
<title>2675057844032&#45;&gt;2675057839088</title>
<path fill="none" stroke="black" d="M2119.33,-58.08C2127.21,-58.08 2135.29,-58.08 2143.34,-58.08"/>
<polygon fill="black" stroke="black" points="2143.17,-61.58 2153.17,-58.08 2143.17,-54.58 2143.17,-61.58"/>
</g>
<!-- 2675057686288 -->
<g id="node24" class="node">
<title>2675057686288</title>
<ellipse fill="orange" stroke="black" cx="2374.25" cy="-58.08" rx="18" ry="18"/>
</g>
<!-- 2675057839088&#45;&gt;2675057686288 -->
<g id="edge28" class="edge">
<title>2675057839088&#45;&gt;2675057686288</title>
<path fill="none" stroke="black" d="M2320.43,-58.08C2329.04,-58.08 2337.31,-58.08 2344.65,-58.08"/>
<polygon fill="black" stroke="black" points="2344.51,-61.58 2354.51,-58.08 2344.51,-54.58 2344.51,-61.58"/>
</g>
</g>
</svg>
