<?xml version="1.0" encoding="UTF-8" standalone="no"?>
<!DOCTYPE svg PUBLIC "-//W3C//DTD SVG 1.1//EN"
 "http://www.w3.org/Graphics/SVG/1.1/DTD/svg11.dtd">
<!-- Generated by graphviz version 11.0.0 (20240428.1522)
 -->
<!-- Pages: 1 -->
<svg width="1994pt" height="198pt"
 viewBox="0.00 0.00 1993.50 198.00" xmlns="http://www.w3.org/2000/svg" xmlns:xlink="http://www.w3.org/1999/xlink">
<g id="graph0" class="graph" transform="scale(1 1) rotate(0) translate(4 194)">
<polygon fill="white" stroke="none" points="-4,4 -4,-194 1989.5,-194 1989.5,4 -4,4"/>
<!-- 2675059379088 -->
<g id="node1" class="node">
<title>2675059379088</title>
<ellipse fill="green" stroke="black" cx="18" cy="-99" rx="18" ry="18"/>
</g>
<!-- 2675058349152 -->
<g id="node2" class="node">
<title>2675058349152</title>
<polygon fill="none" stroke="black" points="99,-117 72,-99 99,-81 126,-99 99,-117"/>
<text text-anchor="middle" x="99" y="-93.97" font-family="Times New Roman,serif" font-size="12.00">+</text>
</g>
<!-- 2675059379088&#45;&gt;2675058349152 -->
<g id="edge1" class="edge">
<title>2675059379088&#45;&gt;2675058349152</title>
<path fill="none" stroke="black" d="M36.14,-99C43.11,-99 51.47,-99 59.75,-99"/>
<polygon fill="black" stroke="black" points="59.75,-102.5 69.75,-99 59.75,-95.5 59.75,-102.5"/>
</g>
<!-- 2675057794160 -->
<g id="node3" class="node">
<title>2675057794160</title>
<polygon fill="none" stroke="black" points="236.75,-144 209.75,-126 236.75,-108 263.75,-126 236.75,-144"/>
<text text-anchor="middle" x="236.75" y="-120.97" font-family="Times New Roman,serif" font-size="12.00">X</text>
</g>
<!-- 2675058349152&#45;&gt;2675057794160 -->
<g id="edge2" class="edge">
<title>2675058349152&#45;&gt;2675057794160</title>
<path fill="none" stroke="black" d="M120.62,-103.1C142.87,-107.53 178.58,-114.63 204.34,-119.75"/>
<polygon fill="black" stroke="black" points="203.41,-123.14 213.9,-121.65 204.77,-116.27 203.41,-123.14"/>
</g>
<!-- 2675058356016 -->
<g id="node4" class="node">
<title>2675058356016</title>
<polygon fill="none" stroke="black" points="311.5,-90 162,-90 162,-54 311.5,-54 311.5,-90"/>
<text text-anchor="middle" x="236.75" y="-66.97" font-family="Times New Roman,serif" font-size="12.00">Customer searches for ticket</text>
</g>
<!-- 2675058349152&#45;&gt;2675058356016 -->
<g id="edge3" class="edge">
<title>2675058349152&#45;&gt;2675058356016</title>
<path fill="none" stroke="black" d="M120.62,-94.9C129.07,-93.22 139.47,-91.15 150.53,-88.95"/>
<polygon fill="black" stroke="black" points="151.15,-92.4 160.27,-87.01 149.78,-85.53 151.15,-92.4"/>
</g>
<!-- 2675057788160 -->
<g id="node5" class="node">
<title>2675057788160</title>
<polygon fill="none" stroke="black" points="604,-190 577,-172 604,-154 631,-172 604,-190"/>
<text text-anchor="middle" x="604" y="-166.97" font-family="Times New Roman,serif" font-size="12.00">X</text>
</g>
<!-- 2675057794160&#45;&gt;2675057788160 -->
<g id="edge5" class="edge">
<title>2675057794160&#45;&gt;2675057788160</title>
<path fill="none" stroke="black" d="M256.2,-131.54C277.85,-137.81 314.94,-147.82 347.5,-153 424.4,-165.23 515.61,-169.62 565.59,-171.17"/>
<polygon fill="black" stroke="black" points="565.48,-174.67 575.57,-171.46 565.68,-167.67 565.48,-174.67"/>
</g>
<!-- 2675058355392 -->
<g id="node7" class="node">
<title>2675058355392</title>
<polygon fill="none" stroke="black" points="512.75,-144 347.5,-144 347.5,-108 512.75,-108 512.75,-144"/>
<text text-anchor="middle" x="430.12" y="-120.97" font-family="Times New Roman,serif" font-size="12.00">Post&#45;travel feedback or services</text>
</g>
<!-- 2675057794160&#45;&gt;2675058355392 -->
<g id="edge4" class="edge">
<title>2675057794160&#45;&gt;2675058355392</title>
<path fill="none" stroke="black" d="M264.36,-126C283.23,-126 309.78,-126 336.06,-126"/>
<polygon fill="black" stroke="black" points="335.77,-129.5 345.77,-126 335.77,-122.5 335.77,-129.5"/>
</g>
<!-- 2675058345696 -->
<g id="node6" class="node">
<title>2675058345696</title>
<polygon fill="none" stroke="black" points="465.88,-90 394.38,-90 394.38,-54 465.88,-54 465.88,-90"/>
<text text-anchor="middle" x="430.12" y="-66.97" font-family="Times New Roman,serif" font-size="12.00">Select route</text>
</g>
<!-- 2675058356016&#45;&gt;2675058345696 -->
<g id="edge6" class="edge">
<title>2675058356016&#45;&gt;2675058345696</title>
<path fill="none" stroke="black" d="M311.74,-72C335.61,-72 361.39,-72 382.69,-72"/>
<polygon fill="black" stroke="black" points="382.51,-75.5 392.51,-72 382.51,-68.5 382.51,-75.5"/>
</g>
<!-- 2675058354384 -->
<g id="node8" class="node">
<title>2675058354384</title>
<polygon fill="none" stroke="black" points="1445.5,-117 1418.5,-99 1445.5,-81 1472.5,-99 1445.5,-117"/>
<text text-anchor="middle" x="1445.5" y="-93.97" font-family="Times New Roman,serif" font-size="12.00">+</text>
</g>
<!-- 2675057788160&#45;&gt;2675058354384 -->
<g id="edge8" class="edge">
<title>2675057788160&#45;&gt;2675058354384</title>
<path fill="none" stroke="black" d="M631.69,-172C689.42,-172 830.18,-172 948.12,-172 948.12,-172 948.12,-172 1201,-172 1282.11,-172 1308.13,-185.36 1382.5,-153 1400.19,-145.3 1416.49,-130.67 1427.93,-118.58"/>
<polygon fill="black" stroke="black" points="1430.23,-121.25 1434.34,-111.49 1425.04,-116.56 1430.23,-121.25"/>
</g>
<!-- 2675056126688 -->
<g id="node9" class="node">
<title>2675056126688</title>
<polygon fill="none" stroke="black" points="659.25,-90 548.75,-90 548.75,-54 659.25,-54 659.25,-90"/>
<text text-anchor="middle" x="604" y="-66.97" font-family="Times New Roman,serif" font-size="12.00">Select date and time</text>
</g>
<!-- 2675058345696&#45;&gt;2675056126688 -->
<g id="edge9" class="edge">
<title>2675058345696&#45;&gt;2675056126688</title>
<path fill="none" stroke="black" d="M466.32,-72C486.75,-72 513.15,-72 537.29,-72"/>
<polygon fill="black" stroke="black" points="537.04,-75.5 547.04,-72 537.04,-68.5 537.04,-75.5"/>
</g>
<!-- 2675058355392&#45;&gt;2675057788160 -->
<g id="edge7" class="edge">
<title>2675058355392&#45;&gt;2675057788160</title>
<path fill="none" stroke="black" d="M500.04,-144.44C525.49,-151.26 553.02,-158.62 573.2,-164.02"/>
<polygon fill="black" stroke="black" points="572.14,-167.36 582.7,-166.57 573.95,-160.6 572.14,-167.36"/>
</g>
<!-- 2675058350352 -->
<g id="node10" class="node">
<title>2675058350352</title>
<polygon fill="none" stroke="black" points="1659.5,-117 1508.5,-117 1508.5,-81 1659.5,-81 1659.5,-117"/>
<text text-anchor="middle" x="1584" y="-93.97" font-family="Times New Roman,serif" font-size="12.00">Customer completes journey</text>
</g>
<!-- 2675058354384&#45;&gt;2675058350352 -->
<g id="edge10" class="edge">
<title>2675058354384&#45;&gt;2675058350352</title>
<path fill="none" stroke="black" d="M1473.14,-99C1480.26,-99 1488.36,-99 1496.86,-99"/>
<polygon fill="black" stroke="black" points="1496.69,-102.5 1506.69,-99 1496.69,-95.5 1496.69,-102.5"/>
</g>
<!-- 2675058351120 -->
<g id="node11" class="node">
<title>2675058351120</title>
<polygon fill="none" stroke="black" points="848.5,-90 695.25,-90 695.25,-54 848.5,-54 848.5,-90"/>
<text text-anchor="middle" x="771.88" y="-66.97" font-family="Times New Roman,serif" font-size="12.00">Provide personal information</text>
</g>
<!-- 2675056126688&#45;&gt;2675058351120 -->
<g id="edge11" class="edge">
<title>2675056126688&#45;&gt;2675058351120</title>
<path fill="none" stroke="black" d="M659.31,-72C667.11,-72 675.29,-72 683.53,-72"/>
<polygon fill="black" stroke="black" points="683.25,-75.5 693.25,-72 683.25,-68.5 683.25,-75.5"/>
</g>
<!-- 2675058355824 -->
<g id="node12" class="node">
<title>2675058355824</title>
<polygon fill="none" stroke="black" points="1780.5,-117 1695.5,-117 1695.5,-81 1780.5,-81 1780.5,-117"/>
<text text-anchor="middle" x="1738" y="-93.97" font-family="Times New Roman,serif" font-size="12.00">Send reminder</text>
</g>
<!-- 2675058350352&#45;&gt;2675058355824 -->
<g id="edge12" class="edge">
<title>2675058350352&#45;&gt;2675058355824</title>
<path fill="none" stroke="black" d="M1659.66,-99C1667.74,-99 1675.84,-99 1683.59,-99"/>
<polygon fill="black" stroke="black" points="1683.53,-102.5 1693.53,-99 1683.53,-95.5 1683.53,-102.5"/>
</g>
<!-- 2675056119200 -->
<g id="node13" class="node">
<title>2675056119200</title>
<polygon fill="none" stroke="black" points="1013.75,-90 884.5,-90 884.5,-54 1013.75,-54 1013.75,-90"/>
<text text-anchor="middle" x="949.12" y="-66.97" font-family="Times New Roman,serif" font-size="12.00">Provide payment details</text>
</g>
<!-- 2675058351120&#45;&gt;2675056119200 -->
<g id="edge13" class="edge">
<title>2675058351120&#45;&gt;2675056119200</title>
<path fill="none" stroke="black" d="M848.98,-72C856.86,-72 864.87,-72 872.74,-72"/>
<polygon fill="black" stroke="black" points="872.64,-75.5 882.64,-72 872.64,-68.5 872.64,-75.5"/>
</g>
<!-- 2675058351360 -->
<g id="node14" class="node">
<title>2675058351360</title>
<polygon fill="none" stroke="black" points="1913.5,-117 1816.5,-117 1816.5,-81 1913.5,-81 1913.5,-117"/>
<text text-anchor="middle" x="1865" y="-93.97" font-family="Times New Roman,serif" font-size="12.00">Send instructions</text>
</g>
<!-- 2675058355824&#45;&gt;2675058351360 -->
<g id="edge14" class="edge">
<title>2675058355824&#45;&gt;2675058351360</title>
<path fill="none" stroke="black" d="M1780.97,-99C1788.68,-99 1796.87,-99 1804.97,-99"/>
<polygon fill="black" stroke="black" points="1804.81,-102.5 1814.81,-99 1804.81,-95.5 1804.81,-102.5"/>
</g>
<!-- 2675056129232 -->
<g id="node15" class="node">
<title>2675056129232</title>
<polygon fill="none" stroke="black" points="1137,-90 1049.75,-90 1049.75,-54 1137,-54 1137,-90"/>
<text text-anchor="middle" x="1093.38" y="-66.97" font-family="Times New Roman,serif" font-size="12.00">Generate ticket</text>
</g>
<!-- 2675056119200&#45;&gt;2675056129232 -->
<g id="edge15" class="edge">
<title>2675056119200&#45;&gt;2675056129232</title>
<path fill="none" stroke="black" d="M1014.18,-72C1022.2,-72 1030.35,-72 1038.21,-72"/>
<polygon fill="black" stroke="black" points="1037.94,-75.5 1047.94,-72 1037.94,-68.5 1037.94,-75.5"/>
</g>
<!-- 2675059380288 -->
<g id="node20" class="node">
<title>2675059380288</title>
<ellipse fill="orange" stroke="black" cx="1967.5" cy="-99" rx="18" ry="18"/>
</g>
<!-- 2675058351360&#45;&gt;2675059380288 -->
<g id="edge17" class="edge">
<title>2675058351360&#45;&gt;2675059380288</title>
<path fill="none" stroke="black" d="M1913.9,-99C1922.16,-99 1930.5,-99 1938.04,-99"/>
<polygon fill="black" stroke="black" points="1937.92,-102.5 1947.92,-99 1937.92,-95.5 1937.92,-102.5"/>
</g>
<!-- 2675056124336 -->
<g id="node16" class="node">
<title>2675056124336</title>
<polygon fill="none" stroke="black" points="1200,-90 1173,-72 1200,-54 1227,-72 1200,-90"/>
<text text-anchor="middle" x="1200" y="-66.97" font-family="Times New Roman,serif" font-size="12.00">+</text>
</g>
<!-- 2675056129232&#45;&gt;2675056124336 -->
<g id="edge16" class="edge">
<title>2675056129232&#45;&gt;2675056124336</title>
<path fill="none" stroke="black" d="M1137.23,-72C1145.1,-72 1153.27,-72 1160.98,-72"/>
<polygon fill="black" stroke="black" points="1160.74,-75.5 1170.74,-72 1160.74,-68.5 1160.74,-75.5"/>
</g>
<!-- 2675058356688 -->
<g id="node17" class="node">
<title>2675058356688</title>
<polygon fill="none" stroke="black" points="1382.5,-144 1263,-144 1263,-108 1382.5,-108 1382.5,-144"/>
<text text-anchor="middle" x="1322.75" y="-120.97" font-family="Times New Roman,serif" font-size="12.00">Update seat inventory</text>
</g>
<!-- 2675056124336&#45;&gt;2675058356688 -->
<g id="edge19" class="edge">
<title>2675056124336&#45;&gt;2675058356688</title>
<path fill="none" stroke="black" d="M1216.79,-79.06C1230.38,-85.14 1250.78,-94.26 1270,-102.86"/>
<polygon fill="black" stroke="black" points="1268.56,-106.05 1279.12,-106.94 1271.42,-99.66 1268.56,-106.05"/>
</g>
<!-- 2675056119584 -->
<g id="node18" class="node">
<title>2675056119584</title>
<polygon fill="none" stroke="black" points="1379.88,-90 1265.62,-90 1265.62,-54 1379.88,-54 1379.88,-90"/>
<text text-anchor="middle" x="1322.75" y="-66.97" font-family="Times New Roman,serif" font-size="12.00">Send ticket via email</text>
</g>
<!-- 2675056124336&#45;&gt;2675056119584 -->
<g id="edge18" class="edge">
<title>2675056124336&#45;&gt;2675056119584</title>
<path fill="none" stroke="black" d="M1227.8,-72C1235.7,-72 1244.73,-72 1253.99,-72"/>
<polygon fill="black" stroke="black" points="1253.84,-75.5 1263.84,-72 1253.84,-68.5 1253.84,-75.5"/>
</g>
<!-- 2675056119056 -->
<g id="node19" class="node">
<title>2675056119056</title>
<polygon fill="none" stroke="black" points="1379.12,-36 1266.38,-36 1266.38,0 1379.12,0 1379.12,-36"/>
<text text-anchor="middle" x="1322.75" y="-12.97" font-family="Times New Roman,serif" font-size="12.00">Send ticket via SMS</text>
</g>
<!-- 2675056124336&#45;&gt;2675056119056 -->
<g id="edge20" class="edge">
<title>2675056124336&#45;&gt;2675056119056</title>
<path fill="none" stroke="black" d="M1216.79,-64.94C1230.38,-58.86 1250.78,-49.74 1270,-41.14"/>
<polygon fill="black" stroke="black" points="1271.42,-44.34 1279.12,-37.06 1268.56,-37.95 1271.42,-44.34"/>
</g>
<!-- 2675058356688&#45;&gt;2675058354384 -->
<g id="edge21" class="edge">
<title>2675058356688&#45;&gt;2675058354384</title>
<path fill="none" stroke="black" d="M1382.71,-112.82C1393.32,-110.44 1403.98,-108.06 1413.4,-105.95"/>
<polygon fill="black" stroke="black" points="1414.08,-109.39 1423.08,-103.79 1412.55,-102.56 1414.08,-109.39"/>
</g>
<!-- 2675056119584&#45;&gt;2675058354384 -->
<g id="edge22" class="edge">
<title>2675056119584&#45;&gt;2675058354384</title>
<path fill="none" stroke="black" d="M1380.24,-84.63C1391.62,-87.18 1403.19,-89.76 1413.31,-92.03"/>
<polygon fill="black" stroke="black" points="1412.44,-95.42 1422.96,-94.18 1413.96,-88.59 1412.44,-95.42"/>
</g>
<!-- 2675056119056&#45;&gt;2675058354384 -->
<g id="edge23" class="edge">
<title>2675056119056&#45;&gt;2675058354384</title>
<path fill="none" stroke="black" d="M1367.49,-36.4C1372.67,-39.07 1377.79,-41.95 1382.5,-45 1398.36,-55.25 1414.38,-69.32 1426.17,-80.53"/>
<polygon fill="black" stroke="black" points="1423.59,-82.91 1433.19,-87.38 1428.48,-77.9 1423.59,-82.91"/>
</g>
</g>
</svg>
