<?xml version="1.0" encoding="UTF-8" standalone="no"?>
<!DOCTYPE svg PUBLIC "-//W3C//DTD SVG 1.1//EN"
 "http://www.w3.org/Graphics/SVG/1.1/DTD/svg11.dtd">
<!-- Generated by graphviz version 11.0.0 (20240428.1522)
 -->
<!-- Pages: 1 -->
<svg width="2257pt" height="206pt"
 viewBox="0.00 0.00 2257.00 206.00" xmlns="http://www.w3.org/2000/svg" xmlns:xlink="http://www.w3.org/1999/xlink">
<g id="graph0" class="graph" transform="scale(1 1) rotate(0) translate(4 202)">
<polygon fill="white" stroke="none" points="-4,4 -4,-202 2253,-202 2253,4 -4,4"/>
<!-- 2675057633152 -->
<g id="node1" class="node">
<title>2675057633152</title>
<ellipse fill="green" stroke="black" cx="18" cy="-99" rx="18" ry="18"/>
</g>
<!-- 2675057638336 -->
<g id="node2" class="node">
<title>2675057638336</title>
<polygon fill="none" stroke="black" points="223,-117 72,-117 72,-81 223,-81 223,-117"/>
<text text-anchor="middle" x="147.5" y="-93.97" font-family="Times New Roman,serif" font-size="12.00">Customer completes journey</text>
</g>
<!-- 2675057633152&#45;&gt;2675057638336 -->
<g id="edge1" class="edge">
<title>2675057633152&#45;&gt;2675057638336</title>
<path fill="none" stroke="black" d="M36.46,-99C43.25,-99 51.56,-99 60.54,-99"/>
<polygon fill="black" stroke="black" points="60.25,-102.5 70.25,-99 60.25,-95.5 60.25,-102.5"/>
</g>
<!-- 2675057629312 -->
<g id="node3" class="node">
<title>2675057629312</title>
<polygon fill="none" stroke="black" points="344,-117 259,-117 259,-81 344,-81 344,-117"/>
<text text-anchor="middle" x="301.5" y="-93.97" font-family="Times New Roman,serif" font-size="12.00">Send reminder</text>
</g>
<!-- 2675057638336&#45;&gt;2675057629312 -->
<g id="edge2" class="edge">
<title>2675057638336&#45;&gt;2675057629312</title>
<path fill="none" stroke="black" d="M223.16,-99C231.24,-99 239.34,-99 247.09,-99"/>
<polygon fill="black" stroke="black" points="247.03,-102.5 257.03,-99 247.03,-95.5 247.03,-102.5"/>
</g>
<!-- 2675057347904 -->
<g id="node4" class="node">
<title>2675057347904</title>
<polygon fill="none" stroke="black" points="529.5,-117 380,-117 380,-81 529.5,-81 529.5,-117"/>
<text text-anchor="middle" x="454.75" y="-93.97" font-family="Times New Roman,serif" font-size="12.00">Customer searches for ticket</text>
</g>
<!-- 2675057629312&#45;&gt;2675057347904 -->
<g id="edge3" class="edge">
<title>2675057629312&#45;&gt;2675057347904</title>
<path fill="none" stroke="black" d="M344.23,-99C351.8,-99 359.95,-99 368.26,-99"/>
<polygon fill="black" stroke="black" points="368.14,-102.5 378.14,-99 368.14,-95.5 368.14,-102.5"/>
</g>
<!-- 2675057637760 -->
<g id="node5" class="node">
<title>2675057637760</title>
<polygon fill="none" stroke="black" points="685,-117 565.5,-117 565.5,-81 685,-81 685,-117"/>
<text text-anchor="middle" x="625.25" y="-93.97" font-family="Times New Roman,serif" font-size="12.00">Update seat inventory</text>
</g>
<!-- 2675057347904&#45;&gt;2675057637760 -->
<g id="edge4" class="edge">
<title>2675057347904&#45;&gt;2675057637760</title>
<path fill="none" stroke="black" d="M529.66,-99C537.62,-99 545.7,-99 553.62,-99"/>
<polygon fill="black" stroke="black" points="553.56,-102.5 563.56,-99 553.56,-95.5 553.56,-102.5"/>
</g>
<!-- 2675057629648 -->
<g id="node6" class="node">
<title>2675057629648</title>
<polygon fill="none" stroke="black" points="850.25,-117 721,-117 721,-81 850.25,-81 850.25,-117"/>
<text text-anchor="middle" x="785.62" y="-93.97" font-family="Times New Roman,serif" font-size="12.00">Provide payment details</text>
</g>
<!-- 2675057637760&#45;&gt;2675057629648 -->
<g id="edge5" class="edge">
<title>2675057637760&#45;&gt;2675057629648</title>
<path fill="none" stroke="black" d="M685.22,-99C693.05,-99 701.17,-99 709.23,-99"/>
<polygon fill="black" stroke="black" points="709.04,-102.5 719.04,-99 709.04,-95.5 709.04,-102.5"/>
</g>
<!-- 2675057636752 -->
<g id="node7" class="node">
<title>2675057636752</title>
<polygon fill="none" stroke="black" points="994.5,-117 886.25,-117 886.25,-81 994.5,-81 994.5,-117"/>
<text text-anchor="middle" x="940.38" y="-93.97" font-family="Times New Roman,serif" font-size="12.00">Booking confirmed</text>
</g>
<!-- 2675057629648&#45;&gt;2675057636752 -->
<g id="edge6" class="edge">
<title>2675057629648&#45;&gt;2675057636752</title>
<path fill="none" stroke="black" d="M850.52,-99C858.43,-99 866.52,-99 874.45,-99"/>
<polygon fill="black" stroke="black" points="874.38,-102.5 884.38,-99 874.38,-95.5 874.38,-102.5"/>
</g>
<!-- 2675057638096 -->
<g id="node8" class="node">
<title>2675057638096</title>
<polygon fill="none" stroke="black" points="1057.5,-117 1030.5,-99 1057.5,-81 1084.5,-99 1057.5,-117"/>
<text text-anchor="middle" x="1057.5" y="-93.97" font-family="Times New Roman,serif" font-size="12.00">+</text>
</g>
<!-- 2675057636752&#45;&gt;2675057638096 -->
<g id="edge7" class="edge">
<title>2675057636752&#45;&gt;2675057638096</title>
<path fill="none" stroke="black" d="M994.89,-99C1002.83,-99 1010.87,-99 1018.41,-99"/>
<polygon fill="black" stroke="black" points="1018.24,-102.5 1028.24,-99 1018.24,-95.5 1018.24,-102.5"/>
</g>
<!-- 2675057626624 -->
<g id="node9" class="node">
<title>2675057626624</title>
<polygon fill="none" stroke="black" points="1238.88,-198 1167.38,-198 1167.38,-162 1238.88,-162 1238.88,-198"/>
<text text-anchor="middle" x="1203.12" y="-174.97" font-family="Times New Roman,serif" font-size="12.00">Select route</text>
</g>
<!-- 2675057638096&#45;&gt;2675057626624 -->
<g id="edge9" class="edge">
<title>2675057638096&#45;&gt;2675057626624</title>
<path fill="none" stroke="black" d="M1068.47,-109.98C1079.96,-122.05 1099.91,-141.27 1120.5,-153 1131.52,-159.28 1144.22,-164.37 1156.27,-168.36"/>
<polygon fill="black" stroke="black" points="1155.05,-171.65 1165.64,-171.27 1157.13,-164.96 1155.05,-171.65"/>
</g>
<!-- 2675057633440 -->
<g id="node10" class="node">
<title>2675057633440</title>
<polygon fill="none" stroke="black" points="1285.75,-144 1120.5,-144 1120.5,-108 1285.75,-108 1285.75,-144"/>
<text text-anchor="middle" x="1203.12" y="-120.97" font-family="Times New Roman,serif" font-size="12.00">Post&#45;travel feedback or services</text>
</g>
<!-- 2675057638096&#45;&gt;2675057633440 -->
<g id="edge11" class="edge">
<title>2675057638096&#45;&gt;2675057633440</title>
<path fill="none" stroke="black" d="M1079.38,-102.93C1087.73,-104.49 1097.96,-106.42 1108.93,-108.48"/>
<polygon fill="black" stroke="black" points="1108.13,-111.89 1118.61,-110.3 1109.43,-105.01 1108.13,-111.89"/>
</g>
<!-- 2675057634064 -->
<g id="node11" class="node">
<title>2675057634064</title>
<polygon fill="none" stroke="black" points="1267.75,-90 1138.5,-90 1138.5,-54 1267.75,-54 1267.75,-90"/>
<text text-anchor="middle" x="1203.12" y="-66.97" font-family="Times New Roman,serif" font-size="12.00">Provide payment details</text>
</g>
<!-- 2675057638096&#45;&gt;2675057634064 -->
<g id="edge8" class="edge">
<title>2675057638096&#45;&gt;2675057634064</title>
<path fill="none" stroke="black" d="M1079.38,-95.07C1092.27,-92.65 1109.66,-89.38 1127.3,-86.07"/>
<polygon fill="black" stroke="black" points="1127.6,-89.57 1136.79,-84.28 1126.31,-82.69 1127.6,-89.57"/>
</g>
<!-- 2675057627248 -->
<g id="node12" class="node">
<title>2675057627248</title>
<polygon fill="none" stroke="black" points="1258.38,-36 1147.88,-36 1147.88,0 1258.38,0 1258.38,-36"/>
<text text-anchor="middle" x="1203.12" y="-12.97" font-family="Times New Roman,serif" font-size="12.00">Select date and time</text>
</g>
<!-- 2675057638096&#45;&gt;2675057627248 -->
<g id="edge10" class="edge">
<title>2675057638096&#45;&gt;2675057627248</title>
<path fill="none" stroke="black" d="M1068.47,-88.02C1079.96,-75.95 1099.91,-56.73 1120.5,-45 1125.77,-42 1131.42,-39.27 1137.2,-36.8"/>
<polygon fill="black" stroke="black" points="1138.28,-40.14 1146.28,-33.2 1135.7,-33.63 1138.28,-40.14"/>
</g>
<!-- 2675057736016 -->
<g id="node13" class="node">
<title>2675057736016</title>
<polygon fill="none" stroke="black" points="1348.75,-117 1321.75,-99 1348.75,-81 1375.75,-99 1348.75,-117"/>
<text text-anchor="middle" x="1348.75" y="-93.97" font-family="Times New Roman,serif" font-size="12.00">+</text>
</g>
<!-- 2675057626624&#45;&gt;2675057736016 -->
<g id="edge12" class="edge">
<title>2675057626624&#45;&gt;2675057736016</title>
<path fill="none" stroke="black" d="M1239.17,-171.72C1254.1,-167.37 1271.36,-161.2 1285.75,-153 1302.15,-143.65 1318.16,-129.55 1329.8,-118.1"/>
<polygon fill="black" stroke="black" points="1332.2,-120.64 1336.72,-111.06 1327.21,-115.73 1332.2,-120.64"/>
</g>
<!-- 2675057633440&#45;&gt;2675057736016 -->
<g id="edge13" class="edge">
<title>2675057633440&#45;&gt;2675057736016</title>
<path fill="none" stroke="black" d="M1286.01,-110.61C1296.52,-108.63 1306.74,-106.71 1315.74,-105.02"/>
<polygon fill="black" stroke="black" points="1316.12,-108.51 1325.3,-103.22 1314.83,-101.63 1316.12,-108.51"/>
</g>
<!-- 2675057634064&#45;&gt;2675057736016 -->
<g id="edge14" class="edge">
<title>2675057634064&#45;&gt;2675057736016</title>
<path fill="none" stroke="black" d="M1267.96,-84C1284.58,-87.12 1301.78,-90.36 1315.94,-93.02"/>
<polygon fill="black" stroke="black" points="1315.07,-96.42 1325.54,-94.83 1316.36,-89.54 1315.07,-96.42"/>
</g>
<!-- 2675057627248&#45;&gt;2675057736016 -->
<g id="edge15" class="edge">
<title>2675057627248&#45;&gt;2675057736016</title>
<path fill="none" stroke="black" d="M1258.56,-32.64C1267.91,-36.09 1277.32,-40.2 1285.75,-45 1302.15,-54.35 1318.16,-68.45 1329.8,-79.9"/>
<polygon fill="black" stroke="black" points="1327.21,-82.27 1336.72,-86.94 1332.2,-77.36 1327.21,-82.27"/>
</g>
<!-- 2675058030256 -->
<g id="node14" class="node">
<title>2675058030256</title>
<polygon fill="none" stroke="black" points="1524.5,-117 1411.75,-117 1411.75,-81 1524.5,-81 1524.5,-117"/>
<text text-anchor="middle" x="1468.12" y="-93.97" font-family="Times New Roman,serif" font-size="12.00">Send ticket via SMS</text>
</g>
<!-- 2675057736016&#45;&gt;2675058030256 -->
<g id="edge16" class="edge">
<title>2675057736016&#45;&gt;2675058030256</title>
<path fill="none" stroke="black" d="M1376.38,-99C1383.55,-99 1391.62,-99 1399.94,-99"/>
<polygon fill="black" stroke="black" points="1399.84,-102.5 1409.84,-99 1399.84,-95.5 1399.84,-102.5"/>
</g>
<!-- 2675057634208 -->
<g id="node15" class="node">
<title>2675057634208</title>
<polygon fill="none" stroke="black" points="1657.5,-117 1560.5,-117 1560.5,-81 1657.5,-81 1657.5,-117"/>
<text text-anchor="middle" x="1609" y="-93.97" font-family="Times New Roman,serif" font-size="12.00">Send instructions</text>
</g>
<!-- 2675058030256&#45;&gt;2675057634208 -->
<g id="edge17" class="edge">
<title>2675058030256&#45;&gt;2675057634208</title>
<path fill="none" stroke="black" d="M1524.81,-99C1532.72,-99 1540.88,-99 1548.85,-99"/>
<polygon fill="black" stroke="black" points="1548.83,-102.5 1558.83,-99 1548.83,-95.5 1548.83,-102.5"/>
</g>
<!-- 2675057627536 -->
<g id="node16" class="node">
<title>2675057627536</title>
<polygon fill="none" stroke="black" points="1846.75,-117 1693.5,-117 1693.5,-81 1846.75,-81 1846.75,-117"/>
<text text-anchor="middle" x="1770.12" y="-93.97" font-family="Times New Roman,serif" font-size="12.00">Provide personal information</text>
</g>
<!-- 2675057634208&#45;&gt;2675057627536 -->
<g id="edge18" class="edge">
<title>2675057634208&#45;&gt;2675057627536</title>
<path fill="none" stroke="black" d="M1657.74,-99C1665.42,-99 1673.57,-99 1681.84,-99"/>
<polygon fill="black" stroke="black" points="1681.63,-102.5 1691.63,-99 1681.63,-95.5 1681.63,-102.5"/>
</g>
<!-- 2675057632048 -->
<g id="node17" class="node">
<title>2675057632048</title>
<polygon fill="none" stroke="black" points="1909.75,-117 1882.75,-99 1909.75,-81 1936.75,-99 1909.75,-117"/>
<text text-anchor="middle" x="1909.75" y="-93.97" font-family="Times New Roman,serif" font-size="12.00">X</text>
</g>
<!-- 2675057627536&#45;&gt;2675057632048 -->
<g id="edge19" class="edge">
<title>2675057627536&#45;&gt;2675057632048</title>
<path fill="none" stroke="black" d="M1847.18,-99C1855.25,-99 1863.17,-99 1870.52,-99"/>
<polygon fill="black" stroke="black" points="1870.36,-102.5 1880.36,-99 1870.36,-95.5 1870.36,-102.5"/>
</g>
<!-- 2675057346464 -->
<g id="node18" class="node">
<title>2675057346464</title>
<polygon fill="none" stroke="black" points="2150,-117 2123,-99 2150,-81 2177,-99 2150,-117"/>
<text text-anchor="middle" x="2150" y="-93.97" font-family="Times New Roman,serif" font-size="12.00">X</text>
</g>
<!-- 2675057632048&#45;&gt;2675057346464 -->
<g id="edge20" class="edge">
<title>2675057632048&#45;&gt;2675057346464</title>
<path fill="none" stroke="black" d="M1934.58,-100.9C1946.1,-101.72 1960.14,-102.59 1972.75,-103 2023.5,-104.64 2036.25,-104.64 2087,-103 2095.67,-102.72 2105.02,-102.22 2113.75,-101.67"/>
<polygon fill="black" stroke="black" points="2113.92,-105.17 2123.66,-101 2113.45,-98.18 2113.92,-105.17"/>
</g>
<!-- 2675057350496 -->
<g id="node19" class="node">
<title>2675057350496</title>
<polygon fill="none" stroke="black" points="2087,-94 1972.75,-94 1972.75,-58 2087,-58 2087,-94"/>
<text text-anchor="middle" x="2029.88" y="-70.97" font-family="Times New Roman,serif" font-size="12.00">Send ticket via email</text>
</g>
<!-- 2675057632048&#45;&gt;2675057350496 -->
<g id="edge21" class="edge">
<title>2675057632048&#45;&gt;2675057350496</title>
<path fill="none" stroke="black" d="M1931.33,-94.99C1939.9,-93.32 1950.4,-91.28 1961.29,-89.16"/>
<polygon fill="black" stroke="black" points="1961.62,-92.66 1970.76,-87.31 1960.28,-85.79 1961.62,-92.66"/>
</g>
<!-- 2675057633824 -->
<g id="node20" class="node">
<title>2675057633824</title>
<ellipse fill="orange" stroke="black" cx="2231" cy="-99" rx="18" ry="18"/>
</g>
<!-- 2675057346464&#45;&gt;2675057633824 -->
<g id="edge23" class="edge">
<title>2675057346464&#45;&gt;2675057633824</title>
<path fill="none" stroke="black" d="M2177.75,-99C2185.38,-99 2193.73,-99 2201.47,-99"/>
<polygon fill="black" stroke="black" points="2201.43,-102.5 2211.43,-99 2201.43,-95.5 2201.43,-102.5"/>
</g>
<!-- 2675057350496&#45;&gt;2675057346464 -->
<g id="edge22" class="edge">
<title>2675057350496&#45;&gt;2675057346464</title>
<path fill="none" stroke="black" d="M2087.17,-86.96C2097.53,-88.98 2108.01,-91.02 2117.32,-92.83"/>
<polygon fill="black" stroke="black" points="2116.42,-96.22 2126.9,-94.7 2117.76,-89.35 2116.42,-96.22"/>
</g>
</g>
</svg>
