<?xml version="1.0" encoding="UTF-8" standalone="no"?>
<!DOCTYPE svg PUBLIC "-//W3C//DTD SVG 1.1//EN"
 "http://www.w3.org/Graphics/SVG/1.1/DTD/svg11.dtd">
<!-- Generated by graphviz version 11.0.0 (20240428.1522)
 -->
<!-- Pages: 1 -->
<svg width="4574pt" height="202pt"
 viewBox="0.00 0.00 4574.25 202.00" xmlns="http://www.w3.org/2000/svg" xmlns:xlink="http://www.w3.org/1999/xlink">
<g id="graph0" class="graph" transform="scale(1 1) rotate(0) translate(4 198)">
<polygon fill="white" stroke="none" points="-4,4 -4,-198 4570.25,-198 4570.25,4 -4,4"/>
<!-- 2272711231200 -->
<g id="node1" class="node">
<title>2272711231200</title>
<ellipse fill="green" stroke="black" cx="18" cy="-122" rx="18" ry="18"/>
</g>
<!-- 2272694574576 -->
<g id="node2" class="node">
<title>2272694574576</title>
<polygon fill="none" stroke="black" points="168.25,-140 72,-140 72,-104 168.25,-104 168.25,-140"/>
<text text-anchor="middle" x="120.12" y="-116.97" font-family="Times New Roman,serif" font-size="12.00">Send notification</text>
</g>
<!-- 2272711231200&#45;&gt;2272694574576 -->
<g id="edge1" class="edge">
<title>2272711231200&#45;&gt;2272694574576</title>
<path fill="none" stroke="black" d="M36.44,-122C43.3,-122 51.6,-122 60.26,-122"/>
<polygon fill="black" stroke="black" points="60.26,-125.5 70.26,-122 60.26,-118.5 60.26,-125.5"/>
</g>
<!-- 2272694573904 -->
<g id="node3" class="node">
<title>2272694573904</title>
<polygon fill="none" stroke="black" points="231.25,-140 204.25,-122 231.25,-104 258.25,-122 231.25,-140"/>
<text text-anchor="middle" x="231.25" y="-116.97" font-family="Times New Roman,serif" font-size="12.00">+</text>
</g>
<!-- 2272694574576&#45;&gt;2272694573904 -->
<g id="edge2" class="edge">
<title>2272694574576&#45;&gt;2272694573904</title>
<path fill="none" stroke="black" d="M168.67,-122C176.51,-122 184.55,-122 192.12,-122"/>
<polygon fill="black" stroke="black" points="192.02,-125.5 202.02,-122 192.02,-118.5 192.02,-125.5"/>
</g>
<!-- 2272694568672 -->
<g id="node4" class="node">
<title>2272694568672</title>
<polygon fill="none" stroke="black" points="438.12,-194 301.38,-194 301.38,-158 438.12,-158 438.12,-194"/>
<text text-anchor="middle" x="369.75" y="-170.97" font-family="Times New Roman,serif" font-size="12.00">Check regulatory updates</text>
</g>
<!-- 2272694573904&#45;&gt;2272694568672 -->
<g id="edge3" class="edge">
<title>2272694573904&#45;&gt;2272694568672</title>
<path fill="none" stroke="black" d="M248.19,-129.27C260.65,-134.87 278.44,-142.7 294.25,-149 298.05,-150.52 301.98,-152.04 305.94,-153.56"/>
<polygon fill="black" stroke="black" points="304.48,-156.75 315.07,-157 306.95,-150.2 304.48,-156.75"/>
</g>
<!-- 2272694569680 -->
<g id="node5" class="node">
<title>2272694569680</title>
<polygon fill="none" stroke="black" points="445.25,-140 294.25,-140 294.25,-104 445.25,-104 445.25,-140"/>
<text text-anchor="middle" x="369.75" y="-116.97" font-family="Times New Roman,serif" font-size="12.00">Gather necessary documents</text>
</g>
<!-- 2272694573904&#45;&gt;2272694569680 -->
<g id="edge4" class="edge">
<title>2272694573904&#45;&gt;2272694569680</title>
<path fill="none" stroke="black" d="M258.89,-122C266.01,-122 274.11,-122 282.61,-122"/>
<polygon fill="black" stroke="black" points="282.44,-125.5 292.44,-122 282.44,-118.5 282.44,-125.5"/>
</g>
<!-- 2272694570016 -->
<g id="node6" class="node">
<title>2272694570016</title>
<polygon fill="none" stroke="black" points="443.38,-86 296.12,-86 296.12,-50 443.38,-50 443.38,-86"/>
<text text-anchor="middle" x="369.75" y="-62.98" font-family="Times New Roman,serif" font-size="12.00">Prepare financial statements</text>
</g>
<!-- 2272694573904&#45;&gt;2272694570016 -->
<g id="edge5" class="edge">
<title>2272694573904&#45;&gt;2272694570016</title>
<path fill="none" stroke="black" d="M248.19,-114.73C260.65,-109.13 278.44,-101.3 294.25,-95 298.05,-93.48 301.98,-91.96 305.94,-90.44"/>
<polygon fill="black" stroke="black" points="306.95,-93.8 315.07,-87 304.48,-87.25 306.95,-93.8"/>
</g>
<!-- 2272694574864 -->
<g id="node7" class="node">
<title>2272694574864</title>
<polygon fill="none" stroke="black" points="508.25,-140 481.25,-122 508.25,-104 535.25,-122 508.25,-140"/>
<text text-anchor="middle" x="508.25" y="-116.97" font-family="Times New Roman,serif" font-size="12.00">+</text>
</g>
<!-- 2272694568672&#45;&gt;2272694574864 -->
<g id="edge6" class="edge">
<title>2272694568672&#45;&gt;2272694574864</title>
<path fill="none" stroke="black" d="M423.01,-157.53C430.5,-154.75 438.09,-151.85 445.25,-149 457.11,-144.27 470.08,-138.69 481.08,-133.83"/>
<polygon fill="black" stroke="black" points="482.22,-137.16 489.93,-129.89 479.37,-130.76 482.22,-137.16"/>
</g>
<!-- 2272694569680&#45;&gt;2272694574864 -->
<g id="edge7" class="edge">
<title>2272694569680&#45;&gt;2272694574864</title>
<path fill="none" stroke="black" d="M445.39,-122C453.54,-122 461.57,-122 469.01,-122"/>
<polygon fill="black" stroke="black" points="468.99,-125.5 478.99,-122 468.99,-118.5 468.99,-125.5"/>
</g>
<!-- 2272694570016&#45;&gt;2272694574864 -->
<g id="edge8" class="edge">
<title>2272694570016&#45;&gt;2272694574864</title>
<path fill="none" stroke="black" d="M423.01,-86.47C430.5,-89.25 438.09,-92.15 445.25,-95 457.11,-99.73 470.08,-105.31 481.08,-110.17"/>
<polygon fill="black" stroke="black" points="479.37,-113.24 489.93,-114.11 482.22,-106.84 479.37,-113.24"/>
</g>
<!-- 2272694574960 -->
<g id="node8" class="node">
<title>2272694574960</title>
<polygon fill="none" stroke="black" points="675,-140 571.25,-140 571.25,-104 675,-104 675,-140"/>
<text text-anchor="middle" x="623.12" y="-116.97" font-family="Times New Roman,serif" font-size="12.00">Submit documents</text>
</g>
<!-- 2272694574864&#45;&gt;2272694574960 -->
<g id="edge9" class="edge">
<title>2272694574864&#45;&gt;2272694574960</title>
<path fill="none" stroke="black" d="M536,-122C543.17,-122 551.24,-122 559.48,-122"/>
<polygon fill="black" stroke="black" points="559.25,-125.5 569.25,-122 559.25,-118.5 559.25,-125.5"/>
</g>
<!-- 2272694573472 -->
<g id="node9" class="node">
<title>2272694573472</title>
<polygon fill="none" stroke="black" points="819.25,-140 711,-140 711,-104 819.25,-104 819.25,-140"/>
<text text-anchor="middle" x="765.12" y="-116.97" font-family="Times New Roman,serif" font-size="12.00">Review submission</text>
</g>
<!-- 2272694574960&#45;&gt;2272694573472 -->
<g id="edge10" class="edge">
<title>2272694574960&#45;&gt;2272694573472</title>
<path fill="none" stroke="black" d="M675.46,-122C683.31,-122 691.5,-122 699.59,-122"/>
<polygon fill="black" stroke="black" points="699.4,-125.5 709.4,-122 699.4,-118.5 699.4,-125.5"/>
</g>
<!-- 2272694567712 -->
<g id="node10" class="node">
<title>2272694567712</title>
<polygon fill="none" stroke="black" points="882.25,-140 855.25,-122 882.25,-104 909.25,-122 882.25,-140"/>
<text text-anchor="middle" x="882.25" y="-116.97" font-family="Times New Roman,serif" font-size="12.00">X</text>
</g>
<!-- 2272694573472&#45;&gt;2272694567712 -->
<g id="edge11" class="edge">
<title>2272694573472&#45;&gt;2272694567712</title>
<path fill="none" stroke="black" d="M819.64,-122C827.58,-122 835.62,-122 843.16,-122"/>
<polygon fill="black" stroke="black" points="842.99,-125.5 852.99,-122 842.99,-118.5 842.99,-125.5"/>
</g>
<!-- 2272694568048 -->
<g id="node11" class="node">
<title>2272694568048</title>
<polygon fill="none" stroke="black" points="1357.5,-140 1330.5,-122 1357.5,-104 1384.5,-122 1357.5,-140"/>
<text text-anchor="middle" x="1357.5" y="-116.97" font-family="Times New Roman,serif" font-size="12.00">X</text>
</g>
<!-- 2272694567712&#45;&gt;2272694568048 -->
<g id="edge12" class="edge">
<title>2272694567712&#45;&gt;2272694568048</title>
<path fill="none" stroke="black" d="M907.08,-123.9C918.6,-124.72 932.64,-125.59 945.25,-126 1100.39,-131 1139.36,-131 1294.5,-126 1303.17,-125.72 1312.52,-125.22 1321.25,-124.67"/>
<polygon fill="black" stroke="black" points="1321.42,-128.17 1331.16,-124 1320.95,-121.18 1321.42,-128.17"/>
</g>
<!-- 2272694576016 -->
<g id="node12" class="node">
<title>2272694576016</title>
<polygon fill="none" stroke="black" points="1141.25,-117 945.25,-117 945.25,-81 1141.25,-81 1141.25,-117"/>
<text text-anchor="middle" x="1043.25" y="-93.97" font-family="Times New Roman,serif" font-size="12.00">Request clarifications of discrepancies</text>
</g>
<!-- 2272694567712&#45;&gt;2272694576016 -->
<g id="edge13" class="edge">
<title>2272694567712&#45;&gt;2272694576016</title>
<path fill="none" stroke="black" d="M905.02,-118.85C913.1,-117.68 922.91,-116.26 933.52,-114.73"/>
<polygon fill="black" stroke="black" points="933.94,-118.2 943.34,-113.31 932.94,-111.28 933.94,-118.2"/>
</g>
<!-- 2272694571360 -->
<g id="node14" class="node">
<title>2272694571360</title>
<polygon fill="none" stroke="black" points="1607.5,-140 1420.5,-140 1420.5,-104 1607.5,-104 1607.5,-140"/>
<text text-anchor="middle" x="1514" y="-116.97" font-family="Times New Roman,serif" font-size="12.00">Complete risk assessment/mitigation</text>
</g>
<!-- 2272694568048&#45;&gt;2272694571360 -->
<g id="edge14" class="edge">
<title>2272694568048&#45;&gt;2272694571360</title>
<path fill="none" stroke="black" d="M1385.06,-122C1392.08,-122 1400.1,-122 1408.62,-122"/>
<polygon fill="black" stroke="black" points="1408.56,-125.5 1418.56,-122 1408.56,-118.5 1408.56,-125.5"/>
</g>
<!-- 2272694571024 -->
<g id="node13" class="node">
<title>2272694571024</title>
<polygon fill="none" stroke="black" points="1294.5,-117 1177.25,-117 1177.25,-81 1294.5,-81 1294.5,-117"/>
<text text-anchor="middle" x="1235.88" y="-93.97" font-family="Times New Roman,serif" font-size="12.00">Receive clarifications</text>
</g>
<!-- 2272694576016&#45;&gt;2272694571024 -->
<g id="edge15" class="edge">
<title>2272694576016&#45;&gt;2272694571024</title>
<path fill="none" stroke="black" d="M1141.52,-99C1149.66,-99 1157.78,-99 1165.64,-99"/>
<polygon fill="black" stroke="black" points="1165.44,-102.5 1175.44,-99 1165.44,-95.5 1165.44,-102.5"/>
</g>
<!-- 2272694571024&#45;&gt;2272694568048 -->
<g id="edge16" class="edge">
<title>2272694571024&#45;&gt;2272694568048</title>
<path fill="none" stroke="black" d="M1294.94,-110.16C1305.12,-112.12 1315.37,-114.09 1324.5,-115.85"/>
<polygon fill="black" stroke="black" points="1323.81,-119.28 1334.29,-117.73 1325.13,-112.4 1323.81,-119.28"/>
</g>
<!-- 2272694570784 -->
<g id="node15" class="node">
<title>2272694570784</title>
<polygon fill="none" stroke="black" points="1670.5,-140 1643.5,-122 1670.5,-104 1697.5,-122 1670.5,-140"/>
<text text-anchor="middle" x="1670.5" y="-116.97" font-family="Times New Roman,serif" font-size="12.00">+</text>
</g>
<!-- 2272694571360&#45;&gt;2272694570784 -->
<g id="edge17" class="edge">
<title>2272694571360&#45;&gt;2272694570784</title>
<path fill="none" stroke="black" d="M1607.99,-122C1616.2,-122 1624.16,-122 1631.47,-122"/>
<polygon fill="black" stroke="black" points="1631.24,-125.5 1641.24,-122 1631.24,-118.5 1631.24,-125.5"/>
</g>
<!-- 2272694572800 -->
<g id="node16" class="node">
<title>2272694572800</title>
<polygon fill="none" stroke="black" points="1871.75,-194 1734.25,-194 1734.25,-158 1871.75,-158 1871.75,-194"/>
<text text-anchor="middle" x="1803" y="-170.97" font-family="Times New Roman,serif" font-size="12.00">Evaluate operational risks</text>
</g>
<!-- 2272694570784&#45;&gt;2272694572800 -->
<g id="edge19" class="edge">
<title>2272694570784&#45;&gt;2272694572800</title>
<path fill="none" stroke="black" d="M1687.49,-129.15C1699.97,-134.68 1717.77,-142.48 1733.5,-149 1737.03,-150.46 1740.67,-151.95 1744.35,-153.45"/>
<polygon fill="black" stroke="black" points="1742.76,-156.58 1753.34,-157.06 1745.37,-150.08 1742.76,-156.58"/>
</g>
<!-- 2272694575344 -->
<g id="node17" class="node">
<title>2272694575344</title>
<polygon fill="none" stroke="black" points="1865.75,-140 1740.25,-140 1740.25,-104 1865.75,-104 1865.75,-140"/>
<text text-anchor="middle" x="1803" y="-116.97" font-family="Times New Roman,serif" font-size="12.00">Evaluate financial risks</text>
</g>
<!-- 2272694570784&#45;&gt;2272694575344 -->
<g id="edge18" class="edge">
<title>2272694570784&#45;&gt;2272694575344</title>
<path fill="none" stroke="black" d="M1698.22,-122C1707.19,-122 1717.67,-122 1728.45,-122"/>
<polygon fill="black" stroke="black" points="1728.24,-125.5 1738.24,-122 1728.24,-118.5 1728.24,-125.5"/>
</g>
<!-- 2272694576688 -->
<g id="node18" class="node">
<title>2272694576688</title>
<polygon fill="none" stroke="black" points="1872.5,-86 1733.5,-86 1733.5,-50 1872.5,-50 1872.5,-86"/>
<text text-anchor="middle" x="1803" y="-62.98" font-family="Times New Roman,serif" font-size="12.00">Evaluate compliance risks</text>
</g>
<!-- 2272694570784&#45;&gt;2272694576688 -->
<g id="edge20" class="edge">
<title>2272694570784&#45;&gt;2272694576688</title>
<path fill="none" stroke="black" d="M1687.49,-114.85C1699.97,-109.32 1717.77,-101.52 1733.5,-95 1737.03,-93.54 1740.67,-92.05 1744.35,-90.55"/>
<polygon fill="black" stroke="black" points="1745.37,-93.92 1753.34,-86.94 1742.76,-87.42 1745.37,-93.92"/>
</g>
<!-- 2272694575008 -->
<g id="node19" class="node">
<title>2272694575008</title>
<polygon fill="none" stroke="black" points="1935.5,-140 1908.5,-122 1935.5,-104 1962.5,-122 1935.5,-140"/>
<text text-anchor="middle" x="1935.5" y="-116.97" font-family="Times New Roman,serif" font-size="12.00">+</text>
</g>
<!-- 2272694572800&#45;&gt;2272694575008 -->
<g id="edge21" class="edge">
<title>2272694572800&#45;&gt;2272694575008</title>
<path fill="none" stroke="black" d="M1851.25,-157.63C1858.39,-154.78 1865.65,-151.84 1872.5,-149 1884.29,-144.11 1897.26,-138.5 1908.27,-133.67"/>
<polygon fill="black" stroke="black" points="1909.39,-137 1917.12,-129.76 1906.56,-130.59 1909.39,-137"/>
</g>
<!-- 2272694575344&#45;&gt;2272694575008 -->
<g id="edge22" class="edge">
<title>2272694575344&#45;&gt;2272694575008</title>
<path fill="none" stroke="black" d="M1866.19,-122C1876.44,-122 1886.79,-122 1896.22,-122"/>
<polygon fill="black" stroke="black" points="1896.1,-125.5 1906.1,-122 1896.1,-118.5 1896.1,-125.5"/>
</g>
<!-- 2272694576688&#45;&gt;2272694575008 -->
<g id="edge23" class="edge">
<title>2272694576688&#45;&gt;2272694575008</title>
<path fill="none" stroke="black" d="M1851.25,-86.37C1858.39,-89.22 1865.65,-92.16 1872.5,-95 1884.29,-99.89 1897.26,-105.5 1908.27,-110.33"/>
<polygon fill="black" stroke="black" points="1906.56,-113.41 1917.12,-114.24 1909.39,-107 1906.56,-113.41"/>
</g>
<!-- 2272694320640 -->
<g id="node20" class="node">
<title>2272694320640</title>
<polygon fill="none" stroke="black" points="2025.5,-140 1998.5,-122 2025.5,-104 2052.5,-122 2025.5,-140"/>
<text text-anchor="middle" x="2025.5" y="-116.97" font-family="Times New Roman,serif" font-size="12.00">X</text>
</g>
<!-- 2272694575008&#45;&gt;2272694320640 -->
<g id="edge24" class="edge">
<title>2272694575008&#45;&gt;2272694320640</title>
<path fill="none" stroke="black" d="M1963.38,-122C1970.63,-122 1978.62,-122 1986.35,-122"/>
<polygon fill="black" stroke="black" points="1986.27,-125.5 1996.27,-122 1986.27,-118.5 1986.27,-125.5"/>
</g>
<!-- 2272694567472 -->
<g id="node21" class="node">
<title>2272694567472</title>
<polygon fill="none" stroke="black" points="2451,-140 2424,-122 2451,-104 2478,-122 2451,-140"/>
<text text-anchor="middle" x="2451" y="-116.97" font-family="Times New Roman,serif" font-size="12.00">X</text>
</g>
<!-- 2272694320640&#45;&gt;2272694567472 -->
<g id="edge26" class="edge">
<title>2272694320640&#45;&gt;2272694567472</title>
<path fill="none" stroke="black" d="M2045.51,-127.16C2074.1,-134.63 2130,-148.1 2178.5,-153 2231.34,-158.33 2245.16,-158.33 2298,-153 2340.82,-148.68 2389.4,-137.67 2419.87,-130.01"/>
<polygon fill="black" stroke="black" points="2420.71,-133.41 2429.53,-127.54 2418.97,-126.63 2420.71,-133.41"/>
</g>
<!-- 2272694571408 -->
<g id="node22" class="node">
<title>2272694571408</title>
<polygon fill="none" stroke="black" points="2115.5,-117 2088.5,-99 2115.5,-81 2142.5,-99 2115.5,-117"/>
<text text-anchor="middle" x="2115.5" y="-93.97" font-family="Times New Roman,serif" font-size="12.00">+</text>
</g>
<!-- 2272694320640&#45;&gt;2272694571408 -->
<g id="edge25" class="edge">
<title>2272694320640&#45;&gt;2272694571408</title>
<path fill="none" stroke="black" d="M2045.59,-117.01C2057.01,-114.03 2071.76,-110.17 2084.69,-106.79"/>
<polygon fill="black" stroke="black" points="2085.19,-110.28 2093.98,-104.36 2083.42,-103.51 2085.19,-110.28"/>
</g>
<!-- 2272694569008 -->
<g id="node23" class="node">
<title>2272694569008</title>
<polygon fill="none" stroke="black" points="2627.5,-140 2514,-140 2514,-104 2627.5,-104 2627.5,-140"/>
<text text-anchor="middle" x="2570.75" y="-116.97" font-family="Times New Roman,serif" font-size="12.00">Compile audit report</text>
</g>
<!-- 2272694567472&#45;&gt;2272694569008 -->
<g id="edge27" class="edge">
<title>2272694567472&#45;&gt;2272694569008</title>
<path fill="none" stroke="black" d="M2478.72,-122C2485.9,-122 2494.01,-122 2502.35,-122"/>
<polygon fill="black" stroke="black" points="2502.28,-125.5 2512.28,-122 2502.28,-118.5 2502.28,-125.5"/>
</g>
<!-- 2272694573136 -->
<g id="node24" class="node">
<title>2272694573136</title>
<polygon fill="none" stroke="black" points="2288.25,-144 2188.25,-144 2188.25,-108 2288.25,-108 2288.25,-144"/>
<text text-anchor="middle" x="2238.25" y="-120.97" font-family="Times New Roman,serif" font-size="12.00">Perform site visits</text>
</g>
<!-- 2272694571408&#45;&gt;2272694573136 -->
<g id="edge28" class="edge">
<title>2272694571408&#45;&gt;2272694573136</title>
<path fill="none" stroke="black" d="M2136.44,-103.46C2147.6,-105.95 2162.16,-109.21 2176.74,-112.47"/>
<polygon fill="black" stroke="black" points="2175.83,-115.85 2186.35,-114.62 2177.36,-109.02 2175.83,-115.85"/>
</g>
<!-- 2272694574144 -->
<g id="node25" class="node">
<title>2272694574144</title>
<polygon fill="none" stroke="black" points="2298,-90 2178.5,-90 2178.5,-54 2298,-54 2298,-90"/>
<text text-anchor="middle" x="2238.25" y="-66.97" font-family="Times New Roman,serif" font-size="12.00">Conduct data analysis</text>
</g>
<!-- 2272694571408&#45;&gt;2272694574144 -->
<g id="edge30" class="edge">
<title>2272694571408&#45;&gt;2272694574144</title>
<path fill="none" stroke="black" d="M2136.44,-94.54C2145.17,-92.59 2155.99,-90.17 2167.27,-87.65"/>
<polygon fill="black" stroke="black" points="2167.7,-91.14 2176.69,-85.54 2166.17,-84.31 2167.7,-91.14"/>
</g>
<!-- 2272694576352 -->
<g id="node26" class="node">
<title>2272694576352</title>
<polygon fill="none" stroke="black" points="2292.38,-36 2184.12,-36 2184.12,0 2292.38,0 2292.38,-36"/>
<text text-anchor="middle" x="2238.25" y="-12.97" font-family="Times New Roman,serif" font-size="12.00">Conduct interviews</text>
</g>
<!-- 2272694571408&#45;&gt;2272694576352 -->
<g id="edge29" class="edge">
<title>2272694571408&#45;&gt;2272694576352</title>
<path fill="none" stroke="black" d="M2126.72,-88.44C2138.44,-76.75 2158.6,-57.86 2178.5,-45 2180.12,-43.95 2181.79,-42.92 2183.49,-41.92"/>
<polygon fill="black" stroke="black" points="2185.11,-45.02 2192.18,-37.13 2181.73,-38.89 2185.11,-45.02"/>
</g>
<!-- 2272694570352 -->
<g id="node27" class="node">
<title>2272694570352</title>
<polygon fill="none" stroke="black" points="2827.25,-140 2663.5,-140 2663.5,-104 2827.25,-104 2827.25,-140"/>
<text text-anchor="middle" x="2745.38" y="-116.97" font-family="Times New Roman,serif" font-size="12.00">Review report by audit director</text>
</g>
<!-- 2272694569008&#45;&gt;2272694570352 -->
<g id="edge31" class="edge">
<title>2272694569008&#45;&gt;2272694570352</title>
<path fill="none" stroke="black" d="M2627.8,-122C2635.58,-122 2643.74,-122 2651.97,-122"/>
<polygon fill="black" stroke="black" points="2651.71,-125.5 2661.71,-122 2651.71,-118.5 2651.71,-125.5"/>
</g>
<!-- 2272694574192 -->
<g id="node28" class="node">
<title>2272694574192</title>
<polygon fill="none" stroke="black" points="2361,-117 2334,-99 2361,-81 2388,-99 2361,-117"/>
<text text-anchor="middle" x="2361" y="-93.97" font-family="Times New Roman,serif" font-size="12.00">+</text>
</g>
<!-- 2272694573136&#45;&gt;2272694574192 -->
<g id="edge32" class="edge">
<title>2272694573136&#45;&gt;2272694574192</title>
<path fill="none" stroke="black" d="M2288.71,-114.94C2302.33,-111.89 2316.72,-108.68 2328.98,-105.94"/>
<polygon fill="black" stroke="black" points="2329.51,-109.4 2338.51,-103.81 2327.98,-102.57 2329.51,-109.4"/>
</g>
<!-- 2272694574144&#45;&gt;2272694574192 -->
<g id="edge33" class="edge">
<title>2272694574144&#45;&gt;2272694574192</title>
<path fill="none" stroke="black" d="M2298.21,-85.18C2308.82,-87.56 2319.48,-89.94 2328.9,-92.05"/>
<polygon fill="black" stroke="black" points="2328.05,-95.44 2338.58,-94.21 2329.58,-88.61 2328.05,-95.44"/>
</g>
<!-- 2272694576352&#45;&gt;2272694574192 -->
<g id="edge34" class="edge">
<title>2272694576352&#45;&gt;2272694574192</title>
<path fill="none" stroke="black" d="M2282.99,-36.4C2288.17,-39.07 2293.29,-41.95 2298,-45 2313.86,-55.25 2329.88,-69.32 2341.67,-80.53"/>
<polygon fill="black" stroke="black" points="2339.09,-82.91 2348.69,-87.38 2343.98,-77.9 2339.09,-82.91"/>
</g>
<!-- 2272694567184 -->
<g id="node29" class="node">
<title>2272694567184</title>
<polygon fill="none" stroke="black" points="2890.25,-140 2863.25,-122 2890.25,-104 2917.25,-122 2890.25,-140"/>
<text text-anchor="middle" x="2890.25" y="-116.97" font-family="Times New Roman,serif" font-size="12.00">X</text>
</g>
<!-- 2272694570352&#45;&gt;2272694567184 -->
<g id="edge36" class="edge">
<title>2272694570352&#45;&gt;2272694567184</title>
<path fill="none" stroke="black" d="M2827.41,-122C2835.58,-122 2843.58,-122 2850.97,-122"/>
<polygon fill="black" stroke="black" points="2850.87,-125.5 2860.87,-122 2850.87,-118.5 2850.87,-125.5"/>
</g>
<!-- 2272694574192&#45;&gt;2272694567472 -->
<g id="edge35" class="edge">
<title>2272694574192&#45;&gt;2272694567472</title>
<path fill="none" stroke="black" d="M2381.09,-103.99C2392.51,-106.97 2407.26,-110.83 2420.19,-114.21"/>
<polygon fill="black" stroke="black" points="2418.92,-117.49 2429.48,-116.64 2420.69,-110.72 2418.92,-117.49"/>
</g>
<!-- 2272694572416 -->
<g id="node30" class="node">
<title>2272694572416</title>
<polygon fill="none" stroke="black" points="3061.5,-167 2972.75,-167 2972.75,-131 3061.5,-131 3061.5,-167"/>
<text text-anchor="middle" x="3017.12" y="-143.97" font-family="Times New Roman,serif" font-size="12.00">Approve report</text>
</g>
<!-- 2272694567184&#45;&gt;2272694572416 -->
<g id="edge38" class="edge">
<title>2272694567184&#45;&gt;2272694572416</title>
<path fill="none" stroke="black" d="M2911.31,-126.34C2924.84,-129.26 2943.38,-133.27 2961.12,-137.11"/>
<polygon fill="black" stroke="black" points="2960.31,-140.51 2970.82,-139.2 2961.79,-133.67 2960.31,-140.51"/>
</g>
<!-- 2272694575680 -->
<g id="node31" class="node">
<title>2272694575680</title>
<polygon fill="none" stroke="black" points="3081,-113 2953.25,-113 2953.25,-77 3081,-77 3081,-113"/>
<text text-anchor="middle" x="3017.12" y="-89.97" font-family="Times New Roman,serif" font-size="12.00">Send report for revision</text>
</g>
<!-- 2272694567184&#45;&gt;2272694575680 -->
<g id="edge37" class="edge">
<title>2272694567184&#45;&gt;2272694575680</title>
<path fill="none" stroke="black" d="M2911.31,-117.66C2919.99,-115.79 2930.72,-113.46 2941.99,-111.03"/>
<polygon fill="black" stroke="black" points="2942.39,-114.52 2951.42,-108.99 2940.91,-107.68 2942.39,-114.52"/>
</g>
<!-- 2272694568192 -->
<g id="node32" class="node">
<title>2272694568192</title>
<polygon fill="none" stroke="black" points="3144,-140 3117,-122 3144,-104 3171,-122 3144,-140"/>
<text text-anchor="middle" x="3144" y="-116.97" font-family="Times New Roman,serif" font-size="12.00">X</text>
</g>
<!-- 2272694572416&#45;&gt;2272694568192 -->
<g id="edge39" class="edge">
<title>2272694572416&#45;&gt;2272694568192</title>
<path fill="none" stroke="black" d="M3061.8,-139.56C3078.39,-135.97 3096.93,-131.96 3112.1,-128.68"/>
<polygon fill="black" stroke="black" points="3112.44,-132.19 3121.47,-126.65 3110.96,-125.35 3112.44,-132.19"/>
</g>
<!-- 2272694575680&#45;&gt;2272694568192 -->
<g id="edge40" class="edge">
<title>2272694575680&#45;&gt;2272694568192</title>
<path fill="none" stroke="black" d="M3081.29,-108.66C3091.93,-110.96 3102.53,-113.25 3111.88,-115.27"/>
<polygon fill="black" stroke="black" points="3110.95,-118.65 3121.46,-117.34 3112.43,-111.81 3110.95,-118.65"/>
</g>
<!-- 2272694573808 -->
<g id="node33" class="node">
<title>2272694573808</title>
<polygon fill="none" stroke="black" points="3352,-140 3207,-140 3207,-104 3352,-104 3352,-140"/>
<text text-anchor="middle" x="3279.5" y="-116.97" font-family="Times New Roman,serif" font-size="12.00">Update and resubmit report</text>
</g>
<!-- 2272694568192&#45;&gt;2272694573808 -->
<g id="edge41" class="edge">
<title>2272694568192&#45;&gt;2272694573808</title>
<path fill="none" stroke="black" d="M3171.69,-122C3178.84,-122 3186.95,-122 3195.44,-122"/>
<polygon fill="black" stroke="black" points="3195.25,-125.5 3205.25,-122 3195.25,-118.5 3195.25,-125.5"/>
</g>
<!-- 2272694567280 -->
<g id="node34" class="node">
<title>2272694567280</title>
<polygon fill="none" stroke="black" points="3415,-140 3388,-122 3415,-104 3442,-122 3415,-140"/>
<text text-anchor="middle" x="3415" y="-116.97" font-family="Times New Roman,serif" font-size="12.00">X</text>
</g>
<!-- 2272694573808&#45;&gt;2272694567280 -->
<g id="edge42" class="edge">
<title>2272694573808&#45;&gt;2272694567280</title>
<path fill="none" stroke="black" d="M3352.33,-122C3360.41,-122 3368.4,-122 3375.8,-122"/>
<polygon fill="black" stroke="black" points="3375.75,-125.5 3385.75,-122 3375.75,-118.5 3375.75,-125.5"/>
</g>
<!-- 2272694568336 -->
<g id="node35" class="node">
<title>2272694568336</title>
<polygon fill="none" stroke="black" points="3758.62,-194 3669.88,-194 3669.88,-158 3758.62,-158 3758.62,-194"/>
<text text-anchor="middle" x="3714.25" y="-170.97" font-family="Times New Roman,serif" font-size="12.00">Approve report</text>
</g>
<!-- 2272694567280&#45;&gt;2272694568336 -->
<g id="edge43" class="edge">
<title>2272694567280&#45;&gt;2272694568336</title>
<path fill="none" stroke="black" d="M3430.83,-129.95C3443.12,-136.17 3461.22,-144.49 3478,-149 3538.33,-165.21 3609.94,-171.69 3658.17,-174.28"/>
<polygon fill="black" stroke="black" points="3657.93,-177.77 3668.09,-174.77 3658.28,-170.78 3657.93,-177.77"/>
</g>
<!-- 2272694571744 -->
<g id="node36" class="node">
<title>2272694571744</title>
<polygon fill="none" stroke="black" points="3605.75,-140 3478,-140 3478,-104 3605.75,-104 3605.75,-140"/>
<text text-anchor="middle" x="3541.88" y="-116.97" font-family="Times New Roman,serif" font-size="12.00">Send report for revision</text>
</g>
<!-- 2272694567280&#45;&gt;2272694571744 -->
<g id="edge44" class="edge">
<title>2272694567280&#45;&gt;2272694571744</title>
<path fill="none" stroke="black" d="M3442.79,-122C3449.88,-122 3457.9,-122 3466.22,-122"/>
<polygon fill="black" stroke="black" points="3466.18,-125.5 3476.18,-122 3466.18,-118.5 3466.18,-125.5"/>
</g>
<!-- 2272694567760 -->
<g id="node37" class="node">
<title>2272694567760</title>
<polygon fill="none" stroke="black" points="4049.5,-140 4022.5,-122 4049.5,-104 4076.5,-122 4049.5,-140"/>
<text text-anchor="middle" x="4049.5" y="-116.97" font-family="Times New Roman,serif" font-size="12.00">X</text>
</g>
<!-- 2272694568336&#45;&gt;2272694567760 -->
<g id="edge45" class="edge">
<title>2272694568336&#45;&gt;2272694567760</title>
<path fill="none" stroke="black" d="M3758.73,-175.81C3812.92,-174.63 3907.96,-169.47 3986.5,-149 3999.11,-145.71 4012.44,-140.2 4023.5,-135.01"/>
<polygon fill="black" stroke="black" points="4024.88,-138.23 4032.32,-130.69 4021.8,-131.94 4024.88,-138.23"/>
</g>
<!-- 2272694577360 -->
<g id="node38" class="node">
<title>2272694577360</title>
<polygon fill="none" stroke="black" points="3786.75,-140 3641.75,-140 3641.75,-104 3786.75,-104 3786.75,-140"/>
<text text-anchor="middle" x="3714.25" y="-116.97" font-family="Times New Roman,serif" font-size="12.00">Update and resubmit report</text>
</g>
<!-- 2272694571744&#45;&gt;2272694577360 -->
<g id="edge46" class="edge">
<title>2272694571744&#45;&gt;2272694577360</title>
<path fill="none" stroke="black" d="M3605.83,-122C3613.69,-122 3621.82,-122 3629.93,-122"/>
<polygon fill="black" stroke="black" points="3629.84,-125.5 3639.84,-122 3629.84,-118.5 3629.84,-125.5"/>
</g>
<!-- 2272694567760&#45;&gt;2272694567280 -->
<g id="edge47" class="edge">
<title>2272694567760&#45;&gt;2272694567280</title>
<path fill="none" stroke="black" d="M4034.28,-113.79C4022.06,-107.24 4003.74,-98.59 3986.5,-95 3765.25,-48.91 3699.25,-48.91 3478,-95 3465.07,-97.69 3451.53,-103.23 3440.41,-108.6"/>
<polygon fill="black" stroke="black" points="3438.89,-105.45 3431.57,-113.11 3442.07,-111.69 3438.89,-105.45"/>
</g>
<!-- 2272694577024 -->
<g id="node40" class="node">
<title>2272694577024</title>
<polygon fill="none" stroke="black" points="4229.75,-140 4112.5,-140 4112.5,-104 4229.75,-104 4229.75,-140"/>
<text text-anchor="middle" x="4171.12" y="-116.97" font-family="Times New Roman,serif" font-size="12.00">Distribute final report</text>
</g>
<!-- 2272694567760&#45;&gt;2272694577024 -->
<g id="edge48" class="edge">
<title>2272694567760&#45;&gt;2272694577024</title>
<path fill="none" stroke="black" d="M4077.35,-122C4084.45,-122 4092.46,-122 4100.71,-122"/>
<polygon fill="black" stroke="black" points="4100.55,-125.5 4110.55,-122 4100.55,-118.5 4100.55,-125.5"/>
</g>
<!-- 2272694569344 -->
<g id="node39" class="node">
<title>2272694569344</title>
<polygon fill="none" stroke="black" points="3986.5,-140 3822.75,-140 3822.75,-104 3986.5,-104 3986.5,-140"/>
<text text-anchor="middle" x="3904.62" y="-116.97" font-family="Times New Roman,serif" font-size="12.00">Review report by audit director</text>
</g>
<!-- 2272694577360&#45;&gt;2272694569344 -->
<g id="edge49" class="edge">
<title>2272694577360&#45;&gt;2272694569344</title>
<path fill="none" stroke="black" d="M3787,-122C3794.85,-122 3802.91,-122 3810.96,-122"/>
<polygon fill="black" stroke="black" points="3810.8,-125.5 3820.8,-122 3810.8,-118.5 3810.8,-125.5"/>
</g>
<!-- 2272694569344&#45;&gt;2272694567760 -->
<g id="edge50" class="edge">
<title>2272694569344&#45;&gt;2272694567760</title>
<path fill="none" stroke="black" d="M3986.66,-122C3994.83,-122 4002.83,-122 4010.22,-122"/>
<polygon fill="black" stroke="black" points="4010.12,-125.5 4020.12,-122 4010.12,-118.5 4010.12,-125.5"/>
</g>
<!-- 2272694572080 -->
<g id="node41" class="node">
<title>2272694572080</title>
<polygon fill="none" stroke="black" points="4350.75,-140 4265.75,-140 4265.75,-104 4350.75,-104 4350.75,-140"/>
<text text-anchor="middle" x="4308.25" y="-116.97" font-family="Times New Roman,serif" font-size="12.00">Archive report</text>
</g>
<!-- 2272694577024&#45;&gt;2272694572080 -->
<g id="edge51" class="edge">
<title>2272694577024&#45;&gt;2272694572080</title>
<path fill="none" stroke="black" d="M4230.21,-122C4238.19,-122 4246.35,-122 4254.23,-122"/>
<polygon fill="black" stroke="black" points="4254.01,-125.5 4264.01,-122 4254.01,-118.5 4254.01,-125.5"/>
</g>
<!-- 2272694570688 -->
<g id="node42" class="node">
<title>2272694570688</title>
<polygon fill="none" stroke="black" points="4494.25,-140 4386.75,-140 4386.75,-104 4494.25,-104 4494.25,-140"/>
<text text-anchor="middle" x="4440.5" y="-116.97" font-family="Times New Roman,serif" font-size="12.00">Close audit process</text>
</g>
<!-- 2272694572080&#45;&gt;2272694570688 -->
<g id="edge52" class="edge">
<title>2272694572080&#45;&gt;2272694570688</title>
<path fill="none" stroke="black" d="M4351.18,-122C4358.86,-122 4367.04,-122 4375.2,-122"/>
<polygon fill="black" stroke="black" points="4375.16,-125.5 4385.16,-122 4375.16,-118.5 4375.16,-125.5"/>
</g>
<!-- 2272711231296 -->
<g id="node43" class="node">
<title>2272711231296</title>
<ellipse fill="orange" stroke="black" cx="4548.25" cy="-122" rx="18" ry="18"/>
</g>
<!-- 2272694570688&#45;&gt;2272711231296 -->
<g id="edge53" class="edge">
<title>2272694570688&#45;&gt;2272711231296</title>
<path fill="none" stroke="black" d="M4494.68,-122C4502.96,-122 4511.22,-122 4518.66,-122"/>
<polygon fill="black" stroke="black" points="4518.4,-125.5 4528.4,-122 4518.4,-118.5 4518.4,-125.5"/>
</g>
</g>
</svg>
