<?xml version="1.0" encoding="UTF-8" standalone="no"?>
<!DOCTYPE svg PUBLIC "-//W3C//DTD SVG 1.1//EN"
 "http://www.w3.org/Graphics/SVG/1.1/DTD/svg11.dtd">
<!-- Generated by graphviz version 11.0.0 (20240428.1522)
 -->
<!-- Pages: 1 -->
<svg width="4050pt" height="202pt"
 viewBox="0.00 0.00 4049.50 202.00" xmlns="http://www.w3.org/2000/svg" xmlns:xlink="http://www.w3.org/1999/xlink">
<g id="graph0" class="graph" transform="scale(1 1) rotate(0) translate(4 198)">
<polygon fill="white" stroke="none" points="-4,4 -4,-198 4045.5,-198 4045.5,4 -4,4"/>
<!-- 2272693771616 -->
<g id="node1" class="node">
<title>2272693771616</title>
<ellipse fill="green" stroke="black" cx="18" cy="-122" rx="18" ry="18"/>
</g>
<!-- 2272693635024 -->
<g id="node2" class="node">
<title>2272693635024</title>
<polygon fill="none" stroke="black" points="168.25,-140 72,-140 72,-104 168.25,-104 168.25,-140"/>
<text text-anchor="middle" x="120.12" y="-116.97" font-family="Times New Roman,serif" font-size="12.00">Send notification</text>
</g>
<!-- 2272693771616&#45;&gt;2272693635024 -->
<g id="edge1" class="edge">
<title>2272693771616&#45;&gt;2272693635024</title>
<path fill="none" stroke="black" d="M36.44,-122C43.3,-122 51.6,-122 60.26,-122"/>
<polygon fill="black" stroke="black" points="60.26,-125.5 70.26,-122 60.26,-118.5 60.26,-125.5"/>
</g>
<!-- 2272693644432 -->
<g id="node3" class="node">
<title>2272693644432</title>
<polygon fill="none" stroke="black" points="231.25,-140 204.25,-122 231.25,-104 258.25,-122 231.25,-140"/>
<text text-anchor="middle" x="231.25" y="-116.97" font-family="Times New Roman,serif" font-size="12.00">+</text>
</g>
<!-- 2272693635024&#45;&gt;2272693644432 -->
<g id="edge2" class="edge">
<title>2272693635024&#45;&gt;2272693644432</title>
<path fill="none" stroke="black" d="M168.67,-122C176.51,-122 184.55,-122 192.12,-122"/>
<polygon fill="black" stroke="black" points="192.02,-125.5 202.02,-122 192.02,-118.5 192.02,-125.5"/>
</g>
<!-- 2272693217056 -->
<g id="node4" class="node">
<title>2272693217056</title>
<polygon fill="none" stroke="black" points="445.25,-194 294.25,-194 294.25,-158 445.25,-158 445.25,-194"/>
<text text-anchor="middle" x="369.75" y="-170.97" font-family="Times New Roman,serif" font-size="12.00">Gather necessary documents</text>
</g>
<!-- 2272693644432&#45;&gt;2272693217056 -->
<g id="edge5" class="edge">
<title>2272693644432&#45;&gt;2272693217056</title>
<path fill="none" stroke="black" d="M248.19,-129.27C260.65,-134.87 278.44,-142.7 294.25,-149 298.05,-150.52 301.98,-152.04 305.94,-153.56"/>
<polygon fill="black" stroke="black" points="304.48,-156.75 315.07,-157 306.95,-150.2 304.48,-156.75"/>
</g>
<!-- 2272693646352 -->
<g id="node5" class="node">
<title>2272693646352</title>
<polygon fill="none" stroke="black" points="443.38,-140 296.12,-140 296.12,-104 443.38,-104 443.38,-140"/>
<text text-anchor="middle" x="369.75" y="-116.97" font-family="Times New Roman,serif" font-size="12.00">Prepare financial statements</text>
</g>
<!-- 2272693644432&#45;&gt;2272693646352 -->
<g id="edge3" class="edge">
<title>2272693644432&#45;&gt;2272693646352</title>
<path fill="none" stroke="black" d="M258.89,-122C266.5,-122 275.23,-122 284.37,-122"/>
<polygon fill="black" stroke="black" points="284.16,-125.5 294.16,-122 284.16,-118.5 284.16,-125.5"/>
</g>
<!-- 2272693645296 -->
<g id="node6" class="node">
<title>2272693645296</title>
<polygon fill="none" stroke="black" points="438.12,-86 301.38,-86 301.38,-50 438.12,-50 438.12,-86"/>
<text text-anchor="middle" x="369.75" y="-62.98" font-family="Times New Roman,serif" font-size="12.00">Check regulatory updates</text>
</g>
<!-- 2272693644432&#45;&gt;2272693645296 -->
<g id="edge4" class="edge">
<title>2272693644432&#45;&gt;2272693645296</title>
<path fill="none" stroke="black" d="M248.19,-114.73C260.65,-109.13 278.44,-101.3 294.25,-95 298.05,-93.48 301.98,-91.96 305.94,-90.44"/>
<polygon fill="black" stroke="black" points="306.95,-93.8 315.07,-87 304.48,-87.25 306.95,-93.8"/>
</g>
<!-- 2272693647264 -->
<g id="node7" class="node">
<title>2272693647264</title>
<polygon fill="none" stroke="black" points="508.25,-140 481.25,-122 508.25,-104 535.25,-122 508.25,-140"/>
<text text-anchor="middle" x="508.25" y="-116.97" font-family="Times New Roman,serif" font-size="12.00">+</text>
</g>
<!-- 2272693217056&#45;&gt;2272693647264 -->
<g id="edge6" class="edge">
<title>2272693217056&#45;&gt;2272693647264</title>
<path fill="none" stroke="black" d="M423.01,-157.53C430.5,-154.75 438.09,-151.85 445.25,-149 457.11,-144.27 470.08,-138.69 481.08,-133.83"/>
<polygon fill="black" stroke="black" points="482.22,-137.16 489.93,-129.89 479.37,-130.76 482.22,-137.16"/>
</g>
<!-- 2272693646352&#45;&gt;2272693647264 -->
<g id="edge7" class="edge">
<title>2272693646352&#45;&gt;2272693647264</title>
<path fill="none" stroke="black" d="M443.8,-122C452.55,-122 461.2,-122 469.16,-122"/>
<polygon fill="black" stroke="black" points="469.13,-125.5 479.13,-122 469.13,-118.5 469.13,-125.5"/>
</g>
<!-- 2272693645296&#45;&gt;2272693647264 -->
<g id="edge8" class="edge">
<title>2272693645296&#45;&gt;2272693647264</title>
<path fill="none" stroke="black" d="M423.01,-86.47C430.5,-89.25 438.09,-92.15 445.25,-95 457.11,-99.73 470.08,-105.31 481.08,-110.17"/>
<polygon fill="black" stroke="black" points="479.37,-113.24 489.93,-114.11 482.22,-106.84 479.37,-113.24"/>
</g>
<!-- 2272693637712 -->
<g id="node8" class="node">
<title>2272693637712</title>
<polygon fill="none" stroke="black" points="675,-140 571.25,-140 571.25,-104 675,-104 675,-140"/>
<text text-anchor="middle" x="623.12" y="-116.97" font-family="Times New Roman,serif" font-size="12.00">Submit documents</text>
</g>
<!-- 2272693647264&#45;&gt;2272693637712 -->
<g id="edge9" class="edge">
<title>2272693647264&#45;&gt;2272693637712</title>
<path fill="none" stroke="black" d="M536,-122C543.17,-122 551.24,-122 559.48,-122"/>
<polygon fill="black" stroke="black" points="559.25,-125.5 569.25,-122 559.25,-118.5 559.25,-125.5"/>
</g>
<!-- 2272693641984 -->
<g id="node9" class="node">
<title>2272693641984</title>
<polygon fill="none" stroke="black" points="819.25,-140 711,-140 711,-104 819.25,-104 819.25,-140"/>
<text text-anchor="middle" x="765.12" y="-116.97" font-family="Times New Roman,serif" font-size="12.00">Review submission</text>
</g>
<!-- 2272693637712&#45;&gt;2272693641984 -->
<g id="edge10" class="edge">
<title>2272693637712&#45;&gt;2272693641984</title>
<path fill="none" stroke="black" d="M675.46,-122C683.31,-122 691.5,-122 699.59,-122"/>
<polygon fill="black" stroke="black" points="699.4,-125.5 709.4,-122 699.4,-118.5 699.4,-125.5"/>
</g>
<!-- 2272693212304 -->
<g id="node10" class="node">
<title>2272693212304</title>
<polygon fill="none" stroke="black" points="882.25,-140 855.25,-122 882.25,-104 909.25,-122 882.25,-140"/>
<text text-anchor="middle" x="882.25" y="-116.97" font-family="Times New Roman,serif" font-size="12.00">X</text>
</g>
<!-- 2272693641984&#45;&gt;2272693212304 -->
<g id="edge11" class="edge">
<title>2272693641984&#45;&gt;2272693212304</title>
<path fill="none" stroke="black" d="M819.64,-122C827.58,-122 835.62,-122 843.16,-122"/>
<polygon fill="black" stroke="black" points="842.99,-125.5 852.99,-122 842.99,-118.5 842.99,-125.5"/>
</g>
<!-- 2272693217248 -->
<g id="node11" class="node">
<title>2272693217248</title>
<polygon fill="none" stroke="black" points="1357.5,-140 1330.5,-122 1357.5,-104 1384.5,-122 1357.5,-140"/>
<text text-anchor="middle" x="1357.5" y="-116.97" font-family="Times New Roman,serif" font-size="12.00">X</text>
</g>
<!-- 2272693212304&#45;&gt;2272693217248 -->
<g id="edge13" class="edge">
<title>2272693212304&#45;&gt;2272693217248</title>
<path fill="none" stroke="black" d="M907.08,-123.9C918.6,-124.72 932.64,-125.59 945.25,-126 1100.39,-131 1139.36,-131 1294.5,-126 1303.17,-125.72 1312.52,-125.22 1321.25,-124.67"/>
<polygon fill="black" stroke="black" points="1321.42,-128.17 1331.16,-124 1320.95,-121.18 1321.42,-128.17"/>
</g>
<!-- 2272693637376 -->
<g id="node12" class="node">
<title>2272693637376</title>
<polygon fill="none" stroke="black" points="1141.25,-117 945.25,-117 945.25,-81 1141.25,-81 1141.25,-117"/>
<text text-anchor="middle" x="1043.25" y="-93.97" font-family="Times New Roman,serif" font-size="12.00">Request clarifications of discrepancies</text>
</g>
<!-- 2272693212304&#45;&gt;2272693637376 -->
<g id="edge12" class="edge">
<title>2272693212304&#45;&gt;2272693637376</title>
<path fill="none" stroke="black" d="M905.02,-118.85C913.1,-117.68 922.91,-116.26 933.52,-114.73"/>
<polygon fill="black" stroke="black" points="933.94,-118.2 943.34,-113.31 932.94,-111.28 933.94,-118.2"/>
</g>
<!-- 2272693639968 -->
<g id="node13" class="node">
<title>2272693639968</title>
<polygon fill="none" stroke="black" points="1607.5,-140 1420.5,-140 1420.5,-104 1607.5,-104 1607.5,-140"/>
<text text-anchor="middle" x="1514" y="-116.97" font-family="Times New Roman,serif" font-size="12.00">Complete risk assessment/mitigation</text>
</g>
<!-- 2272693217248&#45;&gt;2272693639968 -->
<g id="edge14" class="edge">
<title>2272693217248&#45;&gt;2272693639968</title>
<path fill="none" stroke="black" d="M1385.06,-122C1392.08,-122 1400.1,-122 1408.62,-122"/>
<polygon fill="black" stroke="black" points="1408.56,-125.5 1418.56,-122 1408.56,-118.5 1408.56,-125.5"/>
</g>
<!-- 2272693638096 -->
<g id="node14" class="node">
<title>2272693638096</title>
<polygon fill="none" stroke="black" points="1294.5,-117 1177.25,-117 1177.25,-81 1294.5,-81 1294.5,-117"/>
<text text-anchor="middle" x="1235.88" y="-93.97" font-family="Times New Roman,serif" font-size="12.00">Receive clarifications</text>
</g>
<!-- 2272693637376&#45;&gt;2272693638096 -->
<g id="edge15" class="edge">
<title>2272693637376&#45;&gt;2272693638096</title>
<path fill="none" stroke="black" d="M1141.52,-99C1149.66,-99 1157.78,-99 1165.64,-99"/>
<polygon fill="black" stroke="black" points="1165.44,-102.5 1175.44,-99 1165.44,-95.5 1165.44,-102.5"/>
</g>
<!-- 2272693649040 -->
<g id="node15" class="node">
<title>2272693649040</title>
<polygon fill="none" stroke="black" points="1670.5,-140 1643.5,-122 1670.5,-104 1697.5,-122 1670.5,-140"/>
<text text-anchor="middle" x="1670.5" y="-116.97" font-family="Times New Roman,serif" font-size="12.00">+</text>
</g>
<!-- 2272693639968&#45;&gt;2272693649040 -->
<g id="edge17" class="edge">
<title>2272693639968&#45;&gt;2272693649040</title>
<path fill="none" stroke="black" d="M1607.99,-122C1616.2,-122 1624.16,-122 1631.47,-122"/>
<polygon fill="black" stroke="black" points="1631.24,-125.5 1641.24,-122 1631.24,-118.5 1631.24,-125.5"/>
</g>
<!-- 2272693638096&#45;&gt;2272693217248 -->
<g id="edge16" class="edge">
<title>2272693638096&#45;&gt;2272693217248</title>
<path fill="none" stroke="black" d="M1294.94,-110.16C1305.12,-112.12 1315.37,-114.09 1324.5,-115.85"/>
<polygon fill="black" stroke="black" points="1323.81,-119.28 1334.29,-117.73 1325.13,-112.4 1323.81,-119.28"/>
</g>
<!-- 2272693213552 -->
<g id="node16" class="node">
<title>2272693213552</title>
<polygon fill="none" stroke="black" points="1865.75,-194 1740.25,-194 1740.25,-158 1865.75,-158 1865.75,-194"/>
<text text-anchor="middle" x="1803" y="-170.97" font-family="Times New Roman,serif" font-size="12.00">Evaluate financial risks</text>
</g>
<!-- 2272693649040&#45;&gt;2272693213552 -->
<g id="edge20" class="edge">
<title>2272693649040&#45;&gt;2272693213552</title>
<path fill="none" stroke="black" d="M1687.49,-129.15C1699.97,-134.68 1717.77,-142.48 1733.5,-149 1737.03,-150.46 1740.67,-151.95 1744.35,-153.45"/>
<polygon fill="black" stroke="black" points="1742.76,-156.58 1753.34,-157.06 1745.37,-150.08 1742.76,-156.58"/>
</g>
<!-- 2272693643712 -->
<g id="node17" class="node">
<title>2272693643712</title>
<polygon fill="none" stroke="black" points="1872.5,-140 1733.5,-140 1733.5,-104 1872.5,-104 1872.5,-140"/>
<text text-anchor="middle" x="1803" y="-116.97" font-family="Times New Roman,serif" font-size="12.00">Evaluate compliance risks</text>
</g>
<!-- 2272693649040&#45;&gt;2272693643712 -->
<g id="edge18" class="edge">
<title>2272693649040&#45;&gt;2272693643712</title>
<path fill="none" stroke="black" d="M1698.22,-122C1705.38,-122 1713.5,-122 1721.97,-122"/>
<polygon fill="black" stroke="black" points="1721.74,-125.5 1731.74,-122 1721.74,-118.5 1721.74,-125.5"/>
</g>
<!-- 2272693638480 -->
<g id="node18" class="node">
<title>2272693638480</title>
<polygon fill="none" stroke="black" points="1871.75,-86 1734.25,-86 1734.25,-50 1871.75,-50 1871.75,-86"/>
<text text-anchor="middle" x="1803" y="-62.98" font-family="Times New Roman,serif" font-size="12.00">Evaluate operational risks</text>
</g>
<!-- 2272693649040&#45;&gt;2272693638480 -->
<g id="edge19" class="edge">
<title>2272693649040&#45;&gt;2272693638480</title>
<path fill="none" stroke="black" d="M1687.49,-114.85C1699.97,-109.32 1717.77,-101.52 1733.5,-95 1737.03,-93.54 1740.67,-92.05 1744.35,-90.55"/>
<polygon fill="black" stroke="black" points="1745.37,-93.92 1753.34,-86.94 1742.76,-87.42 1745.37,-93.92"/>
</g>
<!-- 2272693642512 -->
<g id="node19" class="node">
<title>2272693642512</title>
<polygon fill="none" stroke="black" points="1935.5,-140 1908.5,-122 1935.5,-104 1962.5,-122 1935.5,-140"/>
<text text-anchor="middle" x="1935.5" y="-116.97" font-family="Times New Roman,serif" font-size="12.00">+</text>
</g>
<!-- 2272693213552&#45;&gt;2272693642512 -->
<g id="edge21" class="edge">
<title>2272693213552&#45;&gt;2272693642512</title>
<path fill="none" stroke="black" d="M1851.25,-157.63C1858.39,-154.78 1865.65,-151.84 1872.5,-149 1884.29,-144.11 1897.26,-138.5 1908.27,-133.67"/>
<polygon fill="black" stroke="black" points="1909.39,-137 1917.12,-129.76 1906.56,-130.59 1909.39,-137"/>
</g>
<!-- 2272693643712&#45;&gt;2272693642512 -->
<g id="edge22" class="edge">
<title>2272693643712&#45;&gt;2272693642512</title>
<path fill="none" stroke="black" d="M1872.69,-122C1880.73,-122 1888.71,-122 1896.12,-122"/>
<polygon fill="black" stroke="black" points="1896.09,-125.5 1906.09,-122 1896.09,-118.5 1896.09,-125.5"/>
</g>
<!-- 2272693638480&#45;&gt;2272693642512 -->
<g id="edge23" class="edge">
<title>2272693638480&#45;&gt;2272693642512</title>
<path fill="none" stroke="black" d="M1851.25,-86.37C1858.39,-89.22 1865.65,-92.16 1872.5,-95 1884.29,-99.89 1897.26,-105.5 1908.27,-110.33"/>
<polygon fill="black" stroke="black" points="1906.56,-113.41 1917.12,-114.24 1909.39,-107 1906.56,-113.41"/>
</g>
<!-- 2272693215280 -->
<g id="node20" class="node">
<title>2272693215280</title>
<polygon fill="none" stroke="black" points="2025.5,-140 1998.5,-122 2025.5,-104 2052.5,-122 2025.5,-140"/>
<text text-anchor="middle" x="2025.5" y="-116.97" font-family="Times New Roman,serif" font-size="12.00">X</text>
</g>
<!-- 2272693642512&#45;&gt;2272693215280 -->
<g id="edge24" class="edge">
<title>2272693642512&#45;&gt;2272693215280</title>
<path fill="none" stroke="black" d="M1963.38,-122C1970.63,-122 1978.62,-122 1986.35,-122"/>
<polygon fill="black" stroke="black" points="1986.27,-125.5 1996.27,-122 1986.27,-118.5 1986.27,-125.5"/>
</g>
<!-- 2272693217968 -->
<g id="node21" class="node">
<title>2272693217968</title>
<polygon fill="none" stroke="black" points="2451,-140 2424,-122 2451,-104 2478,-122 2451,-140"/>
<text text-anchor="middle" x="2451" y="-116.97" font-family="Times New Roman,serif" font-size="12.00">X</text>
</g>
<!-- 2272693215280&#45;&gt;2272693217968 -->
<g id="edge26" class="edge">
<title>2272693215280&#45;&gt;2272693217968</title>
<path fill="none" stroke="black" d="M2045.51,-127.16C2074.1,-134.63 2130,-148.1 2178.5,-153 2231.34,-158.33 2245.16,-158.33 2298,-153 2340.82,-148.68 2389.4,-137.67 2419.87,-130.01"/>
<polygon fill="black" stroke="black" points="2420.71,-133.41 2429.53,-127.54 2418.97,-126.63 2420.71,-133.41"/>
</g>
<!-- 2272693645872 -->
<g id="node22" class="node">
<title>2272693645872</title>
<polygon fill="none" stroke="black" points="2115.5,-117 2088.5,-99 2115.5,-81 2142.5,-99 2115.5,-117"/>
<text text-anchor="middle" x="2115.5" y="-93.97" font-family="Times New Roman,serif" font-size="12.00">+</text>
</g>
<!-- 2272693215280&#45;&gt;2272693645872 -->
<g id="edge25" class="edge">
<title>2272693215280&#45;&gt;2272693645872</title>
<path fill="none" stroke="black" d="M2045.59,-117.01C2057.01,-114.03 2071.76,-110.17 2084.69,-106.79"/>
<polygon fill="black" stroke="black" points="2085.19,-110.28 2093.98,-104.36 2083.42,-103.51 2085.19,-110.28"/>
</g>
<!-- 2272693214320 -->
<g id="node23" class="node">
<title>2272693214320</title>
<polygon fill="none" stroke="black" points="2627.5,-140 2514,-140 2514,-104 2627.5,-104 2627.5,-140"/>
<text text-anchor="middle" x="2570.75" y="-116.97" font-family="Times New Roman,serif" font-size="12.00">Compile audit report</text>
</g>
<!-- 2272693217968&#45;&gt;2272693214320 -->
<g id="edge27" class="edge">
<title>2272693217968&#45;&gt;2272693214320</title>
<path fill="none" stroke="black" d="M2478.72,-122C2485.9,-122 2494.01,-122 2502.35,-122"/>
<polygon fill="black" stroke="black" points="2502.28,-125.5 2512.28,-122 2502.28,-118.5 2502.28,-125.5"/>
</g>
<!-- 2272693640544 -->
<g id="node24" class="node">
<title>2272693640544</title>
<polygon fill="none" stroke="black" points="2298,-144 2178.5,-144 2178.5,-108 2298,-108 2298,-144"/>
<text text-anchor="middle" x="2238.25" y="-120.97" font-family="Times New Roman,serif" font-size="12.00">Conduct data analysis</text>
</g>
<!-- 2272693645872&#45;&gt;2272693640544 -->
<g id="edge28" class="edge">
<title>2272693645872&#45;&gt;2272693640544</title>
<path fill="none" stroke="black" d="M2136.44,-103.46C2145.17,-105.41 2155.99,-107.83 2167.27,-110.35"/>
<polygon fill="black" stroke="black" points="2166.17,-113.69 2176.69,-112.46 2167.7,-106.86 2166.17,-113.69"/>
</g>
<!-- 2272693642176 -->
<g id="node25" class="node">
<title>2272693642176</title>
<polygon fill="none" stroke="black" points="2292.38,-90 2184.12,-90 2184.12,-54 2292.38,-54 2292.38,-90"/>
<text text-anchor="middle" x="2238.25" y="-66.97" font-family="Times New Roman,serif" font-size="12.00">Conduct interviews</text>
</g>
<!-- 2272693645872&#45;&gt;2272693642176 -->
<g id="edge30" class="edge">
<title>2272693645872&#45;&gt;2272693642176</title>
<path fill="none" stroke="black" d="M2136.44,-94.54C2146.54,-92.28 2159.43,-89.4 2172.6,-86.46"/>
<polygon fill="black" stroke="black" points="2173.2,-89.91 2182.19,-84.31 2171.67,-83.08 2173.2,-89.91"/>
</g>
<!-- 2272693639632 -->
<g id="node26" class="node">
<title>2272693639632</title>
<polygon fill="none" stroke="black" points="2288.25,-36 2188.25,-36 2188.25,0 2288.25,0 2288.25,-36"/>
<text text-anchor="middle" x="2238.25" y="-12.97" font-family="Times New Roman,serif" font-size="12.00">Perform site visits</text>
</g>
<!-- 2272693645872&#45;&gt;2272693639632 -->
<g id="edge29" class="edge">
<title>2272693645872&#45;&gt;2272693639632</title>
<path fill="none" stroke="black" d="M2126.72,-88.44C2138.44,-76.75 2158.6,-57.86 2178.5,-45 2180.12,-43.95 2181.79,-42.92 2183.49,-41.92"/>
<polygon fill="black" stroke="black" points="2185.11,-45.02 2192.18,-37.13 2181.73,-38.89 2185.11,-45.02"/>
</g>
<!-- 2272693637664 -->
<g id="node28" class="node">
<title>2272693637664</title>
<polygon fill="none" stroke="black" points="2827.25,-140 2663.5,-140 2663.5,-104 2827.25,-104 2827.25,-140"/>
<text text-anchor="middle" x="2745.38" y="-116.97" font-family="Times New Roman,serif" font-size="12.00">Review report by audit director</text>
</g>
<!-- 2272693214320&#45;&gt;2272693637664 -->
<g id="edge31" class="edge">
<title>2272693214320&#45;&gt;2272693637664</title>
<path fill="none" stroke="black" d="M2627.8,-122C2635.58,-122 2643.74,-122 2651.97,-122"/>
<polygon fill="black" stroke="black" points="2651.71,-125.5 2661.71,-122 2651.71,-118.5 2651.71,-125.5"/>
</g>
<!-- 2272693544304 -->
<g id="node27" class="node">
<title>2272693544304</title>
<polygon fill="none" stroke="black" points="2361,-117 2334,-99 2361,-81 2388,-99 2361,-117"/>
<text text-anchor="middle" x="2361" y="-93.97" font-family="Times New Roman,serif" font-size="12.00">+</text>
</g>
<!-- 2272693640544&#45;&gt;2272693544304 -->
<g id="edge32" class="edge">
<title>2272693640544&#45;&gt;2272693544304</title>
<path fill="none" stroke="black" d="M2298.21,-112.82C2308.82,-110.44 2319.48,-108.06 2328.9,-105.95"/>
<polygon fill="black" stroke="black" points="2329.58,-109.39 2338.58,-103.79 2328.05,-102.56 2329.58,-109.39"/>
</g>
<!-- 2272693642176&#45;&gt;2272693544304 -->
<g id="edge33" class="edge">
<title>2272693642176&#45;&gt;2272693544304</title>
<path fill="none" stroke="black" d="M2292.56,-83.92C2304.91,-86.68 2317.65,-89.53 2328.68,-92"/>
<polygon fill="black" stroke="black" points="2327.9,-95.41 2338.42,-94.17 2329.42,-88.58 2327.9,-95.41"/>
</g>
<!-- 2272693639632&#45;&gt;2272693544304 -->
<g id="edge34" class="edge">
<title>2272693639632&#45;&gt;2272693544304</title>
<path fill="none" stroke="black" d="M2282.99,-36.4C2288.17,-39.07 2293.29,-41.95 2298,-45 2313.86,-55.25 2329.88,-69.32 2341.67,-80.53"/>
<polygon fill="black" stroke="black" points="2339.09,-82.91 2348.69,-87.38 2343.98,-77.9 2339.09,-82.91"/>
</g>
<!-- 2272693544304&#45;&gt;2272693217968 -->
<g id="edge35" class="edge">
<title>2272693544304&#45;&gt;2272693217968</title>
<path fill="none" stroke="black" d="M2381.09,-103.99C2392.51,-106.97 2407.26,-110.83 2420.19,-114.21"/>
<polygon fill="black" stroke="black" points="2418.92,-117.49 2429.48,-116.64 2420.69,-110.72 2418.92,-117.49"/>
</g>
<!-- 2272693216816 -->
<g id="node29" class="node">
<title>2272693216816</title>
<polygon fill="none" stroke="black" points="2890.25,-140 2863.25,-122 2890.25,-104 2917.25,-122 2890.25,-140"/>
<text text-anchor="middle" x="2890.25" y="-116.97" font-family="Times New Roman,serif" font-size="12.00">X</text>
</g>
<!-- 2272693637664&#45;&gt;2272693216816 -->
<g id="edge36" class="edge">
<title>2272693637664&#45;&gt;2272693216816</title>
<path fill="none" stroke="black" d="M2827.41,-122C2835.58,-122 2843.58,-122 2850.97,-122"/>
<polygon fill="black" stroke="black" points="2850.87,-125.5 2860.87,-122 2850.87,-118.5 2850.87,-125.5"/>
</g>
<!-- 2272693638048 -->
<g id="node30" class="node">
<title>2272693638048</title>
<polygon fill="none" stroke="black" points="3081,-190 2953.25,-190 2953.25,-154 3081,-154 3081,-190"/>
<text text-anchor="middle" x="3017.12" y="-166.97" font-family="Times New Roman,serif" font-size="12.00">Send report for revision</text>
</g>
<!-- 2272693216816&#45;&gt;2272693638048 -->
<g id="edge37" class="edge">
<title>2272693216816&#45;&gt;2272693638048</title>
<path fill="none" stroke="black" d="M2907.83,-128.64C2921.15,-133.97 2940.67,-141.79 2959.48,-149.32"/>
<polygon fill="black" stroke="black" points="2958.13,-152.55 2968.71,-153.02 2960.73,-146.05 2958.13,-152.55"/>
</g>
<!-- 2272693640976 -->
<g id="node31" class="node">
<title>2272693640976</title>
<polygon fill="none" stroke="black" points="3233.88,-140 3145.12,-140 3145.12,-104 3233.88,-104 3233.88,-140"/>
<text text-anchor="middle" x="3189.5" y="-116.97" font-family="Times New Roman,serif" font-size="12.00">Approve report</text>
</g>
<!-- 2272693216816&#45;&gt;2272693640976 -->
<g id="edge38" class="edge">
<title>2272693216816&#45;&gt;2272693640976</title>
<path fill="none" stroke="black" d="M2917.89,-122C2966.18,-122 3069.11,-122 3133.18,-122"/>
<polygon fill="black" stroke="black" points="3133.16,-125.5 3143.16,-122 3133.16,-118.5 3133.16,-125.5"/>
</g>
<!-- 2272693646496 -->
<g id="node33" class="node">
<title>2272693646496</title>
<polygon fill="none" stroke="black" points="3262,-194 3117,-194 3117,-158 3262,-158 3262,-194"/>
<text text-anchor="middle" x="3189.5" y="-170.97" font-family="Times New Roman,serif" font-size="12.00">Update and resubmit report</text>
</g>
<!-- 2272693638048&#45;&gt;2272693646496 -->
<g id="edge39" class="edge">
<title>2272693638048&#45;&gt;2272693646496</title>
<path fill="none" stroke="black" d="M3081.08,-173.48C3088.94,-173.66 3097.07,-173.85 3105.18,-174.04"/>
<polygon fill="black" stroke="black" points="3105.01,-177.54 3115.09,-174.28 3105.17,-170.54 3105.01,-177.54"/>
</g>
<!-- 2272693216720 -->
<g id="node32" class="node">
<title>2272693216720</title>
<polygon fill="none" stroke="black" points="3524.75,-140 3497.75,-122 3524.75,-104 3551.75,-122 3524.75,-140"/>
<text text-anchor="middle" x="3524.75" y="-116.97" font-family="Times New Roman,serif" font-size="12.00">X</text>
</g>
<!-- 2272693640976&#45;&gt;2272693216720 -->
<g id="edge40" class="edge">
<title>2272693640976&#45;&gt;2272693216720</title>
<path fill="none" stroke="black" d="M3234.07,-122C3299.87,-122 3423.52,-122 3485.82,-122"/>
<polygon fill="black" stroke="black" points="3485.56,-125.5 3495.56,-122 3485.56,-118.5 3485.56,-125.5"/>
</g>
<!-- 2272693216720&#45;&gt;2272693216816 -->
<g id="edge41" class="edge">
<title>2272693216720&#45;&gt;2272693216816</title>
<path fill="none" stroke="black" d="M3502.15,-118.65C3441.47,-109.65 3264.3,-86.22 3117,-95 3048.03,-99.11 2967.83,-110.22 2924.01,-116.84"/>
<polygon fill="black" stroke="black" points="2923.5,-113.38 2914.15,-118.35 2924.56,-120.3 2923.5,-113.38"/>
</g>
<!-- 2272693644528 -->
<g id="node34" class="node">
<title>2272693644528</title>
<polygon fill="none" stroke="black" points="3705,-140 3587.75,-140 3587.75,-104 3705,-104 3705,-140"/>
<text text-anchor="middle" x="3646.38" y="-116.97" font-family="Times New Roman,serif" font-size="12.00">Distribute final report</text>
</g>
<!-- 2272693216720&#45;&gt;2272693644528 -->
<g id="edge42" class="edge">
<title>2272693216720&#45;&gt;2272693644528</title>
<path fill="none" stroke="black" d="M3552.6,-122C3559.7,-122 3567.71,-122 3575.96,-122"/>
<polygon fill="black" stroke="black" points="3575.8,-125.5 3585.8,-122 3575.8,-118.5 3575.8,-125.5"/>
</g>
<!-- 2272693635360 -->
<g id="node35" class="node">
<title>2272693635360</title>
<polygon fill="none" stroke="black" points="3461.75,-190 3298,-190 3298,-154 3461.75,-154 3461.75,-190"/>
<text text-anchor="middle" x="3379.88" y="-166.97" font-family="Times New Roman,serif" font-size="12.00">Review report by audit director</text>
</g>
<!-- 2272693646496&#45;&gt;2272693635360 -->
<g id="edge43" class="edge">
<title>2272693646496&#45;&gt;2272693635360</title>
<path fill="none" stroke="black" d="M3262.25,-174.48C3270.1,-174.31 3278.16,-174.14 3286.21,-173.97"/>
<polygon fill="black" stroke="black" points="3286.12,-177.47 3296.05,-173.76 3285.97,-170.47 3286.12,-177.47"/>
</g>
<!-- 2272693641600 -->
<g id="node36" class="node">
<title>2272693641600</title>
<polygon fill="none" stroke="black" points="3826,-140 3741,-140 3741,-104 3826,-104 3826,-140"/>
<text text-anchor="middle" x="3783.5" y="-116.97" font-family="Times New Roman,serif" font-size="12.00">Archive report</text>
</g>
<!-- 2272693644528&#45;&gt;2272693641600 -->
<g id="edge45" class="edge">
<title>2272693644528&#45;&gt;2272693641600</title>
<path fill="none" stroke="black" d="M3705.46,-122C3713.44,-122 3721.6,-122 3729.48,-122"/>
<polygon fill="black" stroke="black" points="3729.26,-125.5 3739.26,-122 3729.26,-118.5 3729.26,-125.5"/>
</g>
<!-- 2272693635360&#45;&gt;2272693216720 -->
<g id="edge44" class="edge">
<title>2272693635360&#45;&gt;2272693216720</title>
<path fill="none" stroke="black" d="M3433.67,-153.52C3454.67,-146.18 3477.97,-138.02 3495.62,-131.84"/>
<polygon fill="black" stroke="black" points="3496.61,-135.21 3504.89,-128.6 3494.29,-128.6 3496.61,-135.21"/>
</g>
<!-- 2272693638864 -->
<g id="node37" class="node">
<title>2272693638864</title>
<polygon fill="none" stroke="black" points="3969.5,-140 3862,-140 3862,-104 3969.5,-104 3969.5,-140"/>
<text text-anchor="middle" x="3915.75" y="-116.97" font-family="Times New Roman,serif" font-size="12.00">Close audit process</text>
</g>
<!-- 2272693641600&#45;&gt;2272693638864 -->
<g id="edge46" class="edge">
<title>2272693641600&#45;&gt;2272693638864</title>
<path fill="none" stroke="black" d="M3826.43,-122C3834.11,-122 3842.29,-122 3850.45,-122"/>
<polygon fill="black" stroke="black" points="3850.41,-125.5 3860.41,-122 3850.41,-118.5 3850.41,-125.5"/>
</g>
<!-- 2272693771712 -->
<g id="node38" class="node">
<title>2272693771712</title>
<ellipse fill="orange" stroke="black" cx="4023.5" cy="-122" rx="18" ry="18"/>
</g>
<!-- 2272693638864&#45;&gt;2272693771712 -->
<g id="edge47" class="edge">
<title>2272693638864&#45;&gt;2272693771712</title>
<path fill="none" stroke="black" d="M3969.93,-122C3978.21,-122 3986.47,-122 3993.91,-122"/>
<polygon fill="black" stroke="black" points="3993.65,-125.5 4003.65,-122 3993.65,-118.5 3993.65,-125.5"/>
</g>
</g>
</svg>
