<?xml version="1.0" encoding="UTF-8" standalone="no"?>
<!DOCTYPE svg PUBLIC "-//W3C//DTD SVG 1.1//EN"
 "http://www.w3.org/Graphics/SVG/1.1/DTD/svg11.dtd">
<!-- Generated by graphviz version 11.0.0 (20240428.1522)
 -->
<!-- Pages: 1 -->
<svg width="3260pt" height="360pt"
 viewBox="0.00 0.00 3260.25 360.00" xmlns="http://www.w3.org/2000/svg" xmlns:xlink="http://www.w3.org/1999/xlink">
<g id="graph0" class="graph" transform="scale(1 1) rotate(0) translate(4 356)">
<polygon fill="white" stroke="none" points="-4,4 -4,-356 3256.25,-356 3256.25,4 -4,4"/>
<!-- 2272692719200 -->
<g id="node1" class="node">
<title>2272692719200</title>
<ellipse fill="green" stroke="black" cx="18" cy="-283" rx="18" ry="18"/>
</g>
<!-- 2272694576736 -->
<g id="node2" class="node">
<title>2272694576736</title>
<polygon fill="none" stroke="black" points="99,-301 72,-283 99,-265 126,-283 99,-301"/>
<text text-anchor="middle" x="99" y="-277.98" font-family="Times New Roman,serif" font-size="12.00">+</text>
</g>
<!-- 2272692719200&#45;&gt;2272694576736 -->
<g id="edge1" class="edge">
<title>2272692719200&#45;&gt;2272694576736</title>
<path fill="none" stroke="black" d="M36.14,-283C43.11,-283 51.47,-283 59.75,-283"/>
<polygon fill="black" stroke="black" points="59.75,-286.5 69.75,-283 59.75,-279.5 59.75,-286.5"/>
</g>
<!-- 2272694573040 -->
<g id="node3" class="node">
<title>2272694573040</title>
<polygon fill="none" stroke="black" points="325.75,-341 162,-341 162,-305 325.75,-305 325.75,-341"/>
<text text-anchor="middle" x="243.88" y="-317.98" font-family="Times New Roman,serif" font-size="12.00">Review report by audit director</text>
</g>
<!-- 2272694576736&#45;&gt;2272694573040 -->
<g id="edge2" class="edge">
<title>2272694576736&#45;&gt;2272694573040</title>
<path fill="none" stroke="black" d="M118.68,-288.23C131.08,-291.7 148.28,-296.52 165.93,-301.46"/>
<polygon fill="black" stroke="black" points="164.9,-304.8 175.48,-304.13 166.79,-298.06 164.9,-304.8"/>
</g>
<!-- 2272690301568 -->
<g id="node4" class="node">
<title>2272690301568</title>
<polygon fill="none" stroke="black" points="292,-274 195.75,-274 195.75,-238 292,-238 292,-274"/>
<text text-anchor="middle" x="243.88" y="-250.97" font-family="Times New Roman,serif" font-size="12.00">Send notification</text>
</g>
<!-- 2272694576736&#45;&gt;2272690301568 -->
<g id="edge3" class="edge">
<title>2272694576736&#45;&gt;2272690301568</title>
<path fill="none" stroke="black" d="M120.78,-279.07C137.46,-275.92 161.74,-271.33 184.26,-267.08"/>
<polygon fill="black" stroke="black" points="184.82,-270.53 194,-265.24 183.52,-263.65 184.82,-270.53"/>
</g>
<!-- 2272693191168 -->
<g id="node6" class="node">
<title>2272693191168</title>
<polygon fill="none" stroke="black" points="450.5,-348 361.75,-348 361.75,-312 450.5,-312 450.5,-348"/>
<text text-anchor="middle" x="406.12" y="-324.98" font-family="Times New Roman,serif" font-size="12.00">Approve report</text>
</g>
<!-- 2272694573040&#45;&gt;2272693191168 -->
<g id="edge4" class="edge">
<title>2272694573040&#45;&gt;2272693191168</title>
<path fill="none" stroke="black" d="M325.94,-326.54C334.08,-326.9 342.22,-327.25 350,-327.59"/>
<polygon fill="black" stroke="black" points="349.84,-331.09 359.99,-328.03 350.15,-324.1 349.84,-331.09"/>
</g>
<!-- 2272690302000 -->
<g id="node5" class="node">
<title>2272690302000</title>
<polygon fill="none" stroke="black" points="406.12,-247 379.12,-229 406.12,-211 433.12,-229 406.12,-247"/>
<text text-anchor="middle" x="406.12" y="-223.97" font-family="Times New Roman,serif" font-size="12.00">+</text>
</g>
<!-- 2272690301568&#45;&gt;2272690302000 -->
<g id="edge5" class="edge">
<title>2272690301568&#45;&gt;2272690302000</title>
<path fill="none" stroke="black" d="M292.09,-248.05C318.03,-243.67 349.55,-238.36 372.71,-234.46"/>
<polygon fill="black" stroke="black" points="373.21,-237.93 382.49,-232.81 372.04,-231.02 373.21,-237.93"/>
</g>
<!-- 2272690886064 -->
<g id="node8" class="node">
<title>2272690886064</title>
<polygon fill="none" stroke="black" points="630.38,-298 493.62,-298 493.62,-262 630.38,-262 630.38,-298"/>
<text text-anchor="middle" x="562" y="-274.98" font-family="Times New Roman,serif" font-size="12.00">Check regulatory updates</text>
</g>
<!-- 2272690302000&#45;&gt;2272690886064 -->
<g id="edge6" class="edge">
<title>2272690302000&#45;&gt;2272690886064</title>
<path fill="none" stroke="black" d="M425.08,-234.95C442.21,-240.63 469.1,-249.54 494.45,-257.94"/>
<polygon fill="black" stroke="black" points="493.16,-261.2 503.76,-261.03 495.37,-254.56 493.16,-261.2"/>
</g>
<!-- 2272690295568 -->
<g id="node9" class="node">
<title>2272690295568</title>
<polygon fill="none" stroke="black" points="637.5,-244 486.5,-244 486.5,-208 637.5,-208 637.5,-244"/>
<text text-anchor="middle" x="562" y="-220.97" font-family="Times New Roman,serif" font-size="12.00">Gather necessary documents</text>
</g>
<!-- 2272690302000&#45;&gt;2272690295568 -->
<g id="edge8" class="edge">
<title>2272690302000&#45;&gt;2272690295568</title>
<path fill="none" stroke="black" d="M433.23,-228.49C445.1,-228.26 459.88,-227.97 475.15,-227.67"/>
<polygon fill="black" stroke="black" points="474.87,-231.18 484.8,-227.49 474.73,-224.18 474.87,-231.18"/>
</g>
<!-- 2272690295184 -->
<g id="node10" class="node">
<title>2272690295184</title>
<polygon fill="none" stroke="black" points="635.62,-190 488.38,-190 488.38,-154 635.62,-154 635.62,-190"/>
<text text-anchor="middle" x="562" y="-166.97" font-family="Times New Roman,serif" font-size="12.00">Prepare financial statements</text>
</g>
<!-- 2272690302000&#45;&gt;2272690295184 -->
<g id="edge7" class="edge">
<title>2272690302000&#45;&gt;2272690295184</title>
<path fill="none" stroke="black" d="M424.13,-222.5C440.19,-216.37 464.95,-206.98 486.5,-199 490.59,-197.49 494.81,-195.93 499.07,-194.37"/>
<polygon fill="black" stroke="black" points="500.06,-197.74 508.25,-191.02 497.65,-191.16 500.06,-197.74"/>
</g>
<!-- 2272690887072 -->
<g id="node7" class="node">
<title>2272690887072</title>
<polygon fill="none" stroke="black" points="620.62,-352 503.38,-352 503.38,-316 620.62,-316 620.62,-352"/>
<text text-anchor="middle" x="562" y="-328.98" font-family="Times New Roman,serif" font-size="12.00">Distribute final report</text>
</g>
<!-- 2272693191168&#45;&gt;2272690887072 -->
<g id="edge9" class="edge">
<title>2272693191168&#45;&gt;2272690887072</title>
<path fill="none" stroke="black" d="M450.81,-331.14C463.64,-331.47 478,-331.84 492,-332.21"/>
<polygon fill="black" stroke="black" points="491.52,-335.69 501.6,-332.46 491.7,-328.7 491.52,-335.69"/>
</g>
<!-- 2272691218880 -->
<g id="node12" class="node">
<title>2272691218880</title>
<polygon fill="none" stroke="black" points="758.5,-352 673.5,-352 673.5,-316 758.5,-316 758.5,-352"/>
<text text-anchor="middle" x="716" y="-328.98" font-family="Times New Roman,serif" font-size="12.00">Archive report</text>
</g>
<!-- 2272690887072&#45;&gt;2272691218880 -->
<g id="edge10" class="edge">
<title>2272690887072&#45;&gt;2272691218880</title>
<path fill="none" stroke="black" d="M620.9,-334C634.4,-334 648.7,-334 661.97,-334"/>
<polygon fill="black" stroke="black" points="661.81,-337.5 671.81,-334 661.81,-330.5 661.81,-337.5"/>
</g>
<!-- 2272690305984 -->
<g id="node11" class="node">
<title>2272690305984</title>
<polygon fill="none" stroke="black" points="716,-221 689,-203 716,-185 743,-203 716,-221"/>
<text text-anchor="middle" x="716" y="-197.97" font-family="Times New Roman,serif" font-size="12.00">+</text>
</g>
<!-- 2272690886064&#45;&gt;2272690305984 -->
<g id="edge11" class="edge">
<title>2272690886064&#45;&gt;2272690305984</title>
<path fill="none" stroke="black" d="M618.11,-261.62C624.74,-258.95 631.34,-256.06 637.5,-253 657.27,-243.2 678.21,-229.46 693.34,-218.86"/>
<polygon fill="black" stroke="black" points="695.02,-221.96 701.13,-213.31 690.96,-216.26 695.02,-221.96"/>
</g>
<!-- 2272690295568&#45;&gt;2272690305984 -->
<g id="edge12" class="edge">
<title>2272690295568&#45;&gt;2272690305984</title>
<path fill="none" stroke="black" d="M637.66,-214.7C653.18,-212.35 668.78,-209.99 681.86,-208.02"/>
<polygon fill="black" stroke="black" points="682.23,-211.5 691.59,-206.54 681.18,-204.58 682.23,-211.5"/>
</g>
<!-- 2272690295184&#45;&gt;2272690305984 -->
<g id="edge13" class="edge">
<title>2272690295184&#45;&gt;2272690305984</title>
<path fill="none" stroke="black" d="M635.88,-186.86C652.67,-190.29 669.66,-193.75 683.57,-196.59"/>
<polygon fill="black" stroke="black" points="682.47,-199.94 692.97,-198.51 683.87,-193.08 682.47,-199.94"/>
</g>
<!-- 2272690299072 -->
<g id="node14" class="node">
<title>2272690299072</title>
<polygon fill="none" stroke="black" points="898.25,-210 794.5,-210 794.5,-174 898.25,-174 898.25,-210"/>
<text text-anchor="middle" x="846.38" y="-186.97" font-family="Times New Roman,serif" font-size="12.00">Submit documents</text>
</g>
<!-- 2272690305984&#45;&gt;2272690299072 -->
<g id="edge14" class="edge">
<title>2272690305984&#45;&gt;2272690299072</title>
<path fill="none" stroke="black" d="M740.55,-200.98C752.49,-199.96 767.61,-198.66 782.63,-197.38"/>
<polygon fill="black" stroke="black" points="782.87,-200.87 792.54,-196.53 782.28,-193.89 782.87,-200.87"/>
</g>
<!-- 2272690884672 -->
<g id="node13" class="node">
<title>2272690884672</title>
<polygon fill="none" stroke="black" points="1042.12,-352 934.62,-352 934.62,-316 1042.12,-316 1042.12,-352"/>
<text text-anchor="middle" x="988.38" y="-328.98" font-family="Times New Roman,serif" font-size="12.00">Close audit process</text>
</g>
<!-- 2272691218880&#45;&gt;2272690884672 -->
<g id="edge15" class="edge">
<title>2272691218880&#45;&gt;2272690884672</title>
<path fill="none" stroke="black" d="M758.95,-334C802.71,-334 871.88,-334 922.65,-334"/>
<polygon fill="black" stroke="black" points="922.64,-337.5 932.64,-334 922.64,-330.5 922.64,-337.5"/>
</g>
<!-- 2272691510144 -->
<g id="node15" class="node">
<title>2272691510144</title>
<polygon fill="none" stroke="black" points="3153.25,-327 3126.25,-309 3153.25,-291 3180.25,-309 3153.25,-327"/>
<text text-anchor="middle" x="3153.25" y="-303.98" font-family="Times New Roman,serif" font-size="12.00">+</text>
</g>
<!-- 2272690884672&#45;&gt;2272691510144 -->
<g id="edge16" class="edge">
<title>2272690884672&#45;&gt;2272691510144</title>
<path fill="none" stroke="black" d="M1042.38,-334C1115.62,-334 1251.9,-334 1368.12,-334 1368.12,-334 1368.12,-334 2819,-334 2928.87,-334 3058.55,-320.32 3118.61,-313.2"/>
<polygon fill="black" stroke="black" points="3118.65,-316.72 3128.16,-312.05 3117.82,-309.77 3118.65,-316.72"/>
</g>
<!-- 2272693787280 -->
<g id="node16" class="node">
<title>2272693787280</title>
<polygon fill="none" stroke="black" points="1042.5,-204 934.25,-204 934.25,-168 1042.5,-168 1042.5,-204"/>
<text text-anchor="middle" x="988.38" y="-180.97" font-family="Times New Roman,serif" font-size="12.00">Review submission</text>
</g>
<!-- 2272690299072&#45;&gt;2272693787280 -->
<g id="edge17" class="edge">
<title>2272690299072&#45;&gt;2272693787280</title>
<path fill="none" stroke="black" d="M898.71,-189.8C906.56,-189.46 914.75,-189.11 922.84,-188.77"/>
<polygon fill="black" stroke="black" points="922.81,-192.27 932.65,-188.35 922.51,-185.28 922.81,-192.27"/>
</g>
<!-- 2272692721312 -->
<g id="node34" class="node">
<title>2272692721312</title>
<ellipse fill="orange" stroke="black" cx="3234.25" cy="-309" rx="18" ry="18"/>
</g>
<!-- 2272691510144&#45;&gt;2272692721312 -->
<g id="edge19" class="edge">
<title>2272691510144&#45;&gt;2272692721312</title>
<path fill="none" stroke="black" d="M3181,-309C3188.63,-309 3196.98,-309 3204.72,-309"/>
<polygon fill="black" stroke="black" points="3204.68,-312.5 3214.68,-309 3204.68,-305.5 3204.68,-312.5"/>
</g>
<!-- 2272693199520 -->
<g id="node17" class="node">
<title>2272693199520</title>
<polygon fill="none" stroke="black" points="1274.5,-203 1078.5,-203 1078.5,-167 1274.5,-167 1274.5,-203"/>
<text text-anchor="middle" x="1176.5" y="-179.97" font-family="Times New Roman,serif" font-size="12.00">Request clarifications of discrepancies</text>
</g>
<!-- 2272693787280&#45;&gt;2272693199520 -->
<g id="edge18" class="edge">
<title>2272693787280&#45;&gt;2272693199520</title>
<path fill="none" stroke="black" d="M1042.71,-185.71C1050.39,-185.67 1058.52,-185.63 1066.81,-185.58"/>
<polygon fill="black" stroke="black" points="1066.71,-189.08 1076.69,-185.53 1066.67,-182.08 1066.71,-189.08"/>
</g>
<!-- 2272693490928 -->
<g id="node18" class="node">
<title>2272693490928</title>
<polygon fill="none" stroke="black" points="1427.75,-200 1310.5,-200 1310.5,-164 1427.75,-164 1427.75,-200"/>
<text text-anchor="middle" x="1369.12" y="-176.97" font-family="Times New Roman,serif" font-size="12.00">Receive clarifications</text>
</g>
<!-- 2272693199520&#45;&gt;2272693490928 -->
<g id="edge20" class="edge">
<title>2272693199520&#45;&gt;2272693490928</title>
<path fill="none" stroke="black" d="M1274.77,-183.47C1282.91,-183.34 1291.03,-183.21 1298.89,-183.09"/>
<polygon fill="black" stroke="black" points="1298.75,-186.59 1308.69,-182.94 1298.64,-179.59 1298.75,-186.59"/>
</g>
<!-- 2272691512016 -->
<g id="node19" class="node">
<title>2272691512016</title>
<polygon fill="none" stroke="black" points="1618.5,-199 1463.75,-199 1463.75,-163 1618.5,-163 1618.5,-199"/>
<text text-anchor="middle" x="1541.12" y="-175.97" font-family="Times New Roman,serif" font-size="12.00">Launch detailed investigation</text>
</g>
<!-- 2272693490928&#45;&gt;2272691512016 -->
<g id="edge21" class="edge">
<title>2272693490928&#45;&gt;2272691512016</title>
<path fill="none" stroke="black" d="M1428.15,-181.66C1435.87,-181.61 1443.91,-181.57 1452,-181.52"/>
<polygon fill="black" stroke="black" points="1451.93,-185.02 1461.91,-181.46 1451.88,-178.02 1451.93,-185.02"/>
</g>
<!-- 2272691516432 -->
<g id="node20" class="node">
<title>2272691516432</title>
<polygon fill="none" stroke="black" points="1681.5,-198 1654.5,-180 1681.5,-162 1708.5,-180 1681.5,-198"/>
<text text-anchor="middle" x="1681.5" y="-174.97" font-family="Times New Roman,serif" font-size="12.00">+</text>
</g>
<!-- 2272691512016&#45;&gt;2272691516432 -->
<g id="edge22" class="edge">
<title>2272691512016&#45;&gt;2272691516432</title>
<path fill="none" stroke="black" d="M1618.6,-180.45C1626.97,-180.39 1635.19,-180.33 1642.77,-180.27"/>
<polygon fill="black" stroke="black" points="1642.6,-183.77 1652.58,-180.2 1642.55,-176.77 1642.6,-183.77"/>
</g>
<!-- 2272694569056 -->
<g id="node21" class="node">
<title>2272694569056</title>
<polygon fill="none" stroke="black" points="1864,-306 1764,-306 1764,-270 1864,-270 1864,-306"/>
<text text-anchor="middle" x="1814" y="-282.98" font-family="Times New Roman,serif" font-size="12.00">Perform site visits</text>
</g>
<!-- 2272691516432&#45;&gt;2272694569056 -->
<g id="edge28" class="edge">
<title>2272691516432&#45;&gt;2272694569056</title>
<path fill="none" stroke="black" d="M1689.42,-192.99C1699.42,-210.63 1719.48,-242.12 1744.5,-261 1747.41,-263.19 1750.52,-265.24 1753.75,-267.13"/>
<polygon fill="black" stroke="black" points="1751.9,-270.11 1762.38,-271.67 1755.16,-263.92 1751.9,-270.11"/>
</g>
<!-- 2272690883520 -->
<g id="node22" class="node">
<title>2272690883520</title>
<polygon fill="none" stroke="black" points="1873.75,-252 1754.25,-252 1754.25,-216 1873.75,-216 1873.75,-252"/>
<text text-anchor="middle" x="1814" y="-228.97" font-family="Times New Roman,serif" font-size="12.00">Conduct data analysis</text>
</g>
<!-- 2272691516432&#45;&gt;2272690883520 -->
<g id="edge24" class="edge">
<title>2272691516432&#45;&gt;2272690883520</title>
<path fill="none" stroke="black" d="M1698.49,-187.15C1710.97,-192.68 1728.77,-200.48 1744.5,-207 1748.03,-208.46 1751.67,-209.95 1755.35,-211.45"/>
<polygon fill="black" stroke="black" points="1753.76,-214.58 1764.34,-215.06 1756.37,-208.08 1753.76,-214.58"/>
</g>
<!-- 2272690890960 -->
<g id="node23" class="node">
<title>2272690890960</title>
<polygon fill="none" stroke="black" points="1876.75,-198 1751.25,-198 1751.25,-162 1876.75,-162 1876.75,-198"/>
<text text-anchor="middle" x="1814" y="-174.97" font-family="Times New Roman,serif" font-size="12.00">Evaluate financial risks</text>
</g>
<!-- 2272691516432&#45;&gt;2272690890960 -->
<g id="edge23" class="edge">
<title>2272691516432&#45;&gt;2272690890960</title>
<path fill="none" stroke="black" d="M1709.22,-180C1718.19,-180 1728.67,-180 1739.45,-180"/>
<polygon fill="black" stroke="black" points="1739.24,-183.5 1749.24,-180 1739.24,-176.5 1739.24,-183.5"/>
</g>
<!-- 2272693206960 -->
<g id="node24" class="node">
<title>2272693206960</title>
<polygon fill="none" stroke="black" points="1883.5,-144 1744.5,-144 1744.5,-108 1883.5,-108 1883.5,-144"/>
<text text-anchor="middle" x="1814" y="-120.97" font-family="Times New Roman,serif" font-size="12.00">Evaluate compliance risks</text>
</g>
<!-- 2272691516432&#45;&gt;2272693206960 -->
<g id="edge25" class="edge">
<title>2272691516432&#45;&gt;2272693206960</title>
<path fill="none" stroke="black" d="M1698.49,-172.85C1710.97,-167.32 1728.77,-159.52 1744.5,-153 1748.03,-151.54 1751.67,-150.05 1755.35,-148.55"/>
<polygon fill="black" stroke="black" points="1756.37,-151.92 1764.34,-144.94 1753.76,-145.42 1756.37,-151.92"/>
</g>
<!-- 2272693205184 -->
<g id="node25" class="node">
<title>2272693205184</title>
<polygon fill="none" stroke="black" points="1868.12,-90 1759.88,-90 1759.88,-54 1868.12,-54 1868.12,-90"/>
<text text-anchor="middle" x="1814" y="-66.97" font-family="Times New Roman,serif" font-size="12.00">Conduct interviews</text>
</g>
<!-- 2272691516432&#45;&gt;2272693205184 -->
<g id="edge27" class="edge">
<title>2272691516432&#45;&gt;2272693205184</title>
<path fill="none" stroke="black" d="M1689.42,-167.01C1699.42,-149.37 1719.48,-117.88 1744.5,-99 1746.22,-97.7 1748.01,-96.46 1749.86,-95.26"/>
<polygon fill="black" stroke="black" points="1751.24,-98.51 1758.15,-90.48 1747.74,-92.44 1751.24,-98.51"/>
</g>
<!-- 2272691219888 -->
<g id="node26" class="node">
<title>2272691219888</title>
<polygon fill="none" stroke="black" points="1882.75,-36 1745.25,-36 1745.25,0 1882.75,0 1882.75,-36"/>
<text text-anchor="middle" x="1814" y="-12.97" font-family="Times New Roman,serif" font-size="12.00">Evaluate operational risks</text>
</g>
<!-- 2272691516432&#45;&gt;2272691219888 -->
<g id="edge26" class="edge">
<title>2272691516432&#45;&gt;2272691219888</title>
<path fill="none" stroke="black" d="M1685.64,-164.42C1692,-136.73 1708.91,-78.68 1744.5,-45 1745.25,-44.29 1746.02,-43.6 1746.82,-42.92"/>
<polygon fill="black" stroke="black" points="1748.64,-45.92 1754.69,-37.22 1744.54,-40.25 1748.64,-45.92"/>
</g>
<!-- 2272693496496 -->
<g id="node27" class="node">
<title>2272693496496</title>
<polygon fill="none" stroke="black" points="1946.5,-198 1919.5,-180 1946.5,-162 1973.5,-180 1946.5,-198"/>
<text text-anchor="middle" x="1946.5" y="-174.97" font-family="Times New Roman,serif" font-size="12.00">+</text>
</g>
<!-- 2272694569056&#45;&gt;2272693496496 -->
<g id="edge29" class="edge">
<title>2272694569056&#45;&gt;2272693496496</title>
<path fill="none" stroke="black" d="M1864.28,-272.38C1871.06,-269.16 1877.68,-265.39 1883.5,-261 1904.42,-245.22 1921.86,-220.62 1932.87,-202.67"/>
<polygon fill="black" stroke="black" points="1935.75,-204.68 1937.81,-194.29 1929.72,-201.13 1935.75,-204.68"/>
</g>
<!-- 2272690883520&#45;&gt;2272693496496 -->
<g id="edge30" class="edge">
<title>2272690883520&#45;&gt;2272693496496</title>
<path fill="none" stroke="black" d="M1862.25,-215.63C1869.39,-212.78 1876.65,-209.84 1883.5,-207 1895.29,-202.11 1908.26,-196.5 1919.27,-191.67"/>
<polygon fill="black" stroke="black" points="1920.39,-195 1928.12,-187.76 1917.56,-188.59 1920.39,-195"/>
</g>
<!-- 2272690890960&#45;&gt;2272693496496 -->
<g id="edge31" class="edge">
<title>2272690890960&#45;&gt;2272693496496</title>
<path fill="none" stroke="black" d="M1877.19,-180C1887.44,-180 1897.79,-180 1907.22,-180"/>
<polygon fill="black" stroke="black" points="1907.1,-183.5 1917.1,-180 1907.1,-176.5 1907.1,-183.5"/>
</g>
<!-- 2272693206960&#45;&gt;2272693496496 -->
<g id="edge32" class="edge">
<title>2272693206960&#45;&gt;2272693496496</title>
<path fill="none" stroke="black" d="M1862.25,-144.37C1869.39,-147.22 1876.65,-150.16 1883.5,-153 1895.29,-157.89 1908.26,-163.5 1919.27,-168.33"/>
<polygon fill="black" stroke="black" points="1917.56,-171.41 1928.12,-172.24 1920.39,-165 1917.56,-171.41"/>
</g>
<!-- 2272693205184&#45;&gt;2272693496496 -->
<g id="edge33" class="edge">
<title>2272693205184&#45;&gt;2272693496496</title>
<path fill="none" stroke="black" d="M1868.54,-89.73C1873.81,-92.45 1878.91,-95.53 1883.5,-99 1904.42,-114.78 1921.86,-139.38 1932.87,-157.33"/>
<polygon fill="black" stroke="black" points="1929.72,-158.87 1937.81,-165.71 1935.75,-155.32 1929.72,-158.87"/>
</g>
<!-- 2272691219888&#45;&gt;2272693496496 -->
<g id="edge34" class="edge">
<title>2272691219888&#45;&gt;2272693496496</title>
<path fill="none" stroke="black" d="M1872.08,-36.33C1876.19,-38.87 1880.06,-41.75 1883.5,-45 1914.92,-74.74 1931.78,-123.46 1939.68,-153.53"/>
<polygon fill="black" stroke="black" points="1936.21,-154.08 1942,-162.95 1943.01,-152.41 1936.21,-154.08"/>
</g>
<!-- 2272693206336 -->
<g id="node28" class="node">
<title>2272693206336</title>
<polygon fill="none" stroke="black" points="2196.5,-200 2009.5,-200 2009.5,-164 2196.5,-164 2196.5,-200"/>
<text text-anchor="middle" x="2103" y="-176.97" font-family="Times New Roman,serif" font-size="12.00">Complete risk assessment/mitigation</text>
</g>
<!-- 2272693496496&#45;&gt;2272693206336 -->
<g id="edge35" class="edge">
<title>2272693496496&#45;&gt;2272693206336</title>
<path fill="none" stroke="black" d="M1973.71,-180.34C1980.85,-180.43 1989.05,-180.54 1997.77,-180.65"/>
<polygon fill="black" stroke="black" points="1997.5,-184.15 2007.55,-180.78 1997.59,-177.15 1997.5,-184.15"/>
</g>
<!-- 2272690302624 -->
<g id="node29" class="node">
<title>2272690302624</title>
<polygon fill="none" stroke="black" points="2346,-254 2232.5,-254 2232.5,-218 2346,-218 2346,-254"/>
<text text-anchor="middle" x="2289.25" y="-230.97" font-family="Times New Roman,serif" font-size="12.00">Compile audit report</text>
</g>
<!-- 2272693206336&#45;&gt;2272690302624 -->
<g id="edge36" class="edge">
<title>2272693206336&#45;&gt;2272690302624</title>
<path fill="none" stroke="black" d="M2166.89,-200.43C2184.42,-205.57 2203.52,-211.17 2221.27,-216.37"/>
<polygon fill="black" stroke="black" points="2220.09,-219.67 2230.67,-219.12 2222.06,-212.95 2220.09,-219.67"/>
</g>
<!-- 2272690297296 -->
<g id="node30" class="node">
<title>2272690297296</title>
<polygon fill="none" stroke="black" points="2545.75,-281 2382,-281 2382,-245 2545.75,-245 2545.75,-281"/>
<text text-anchor="middle" x="2463.88" y="-257.98" font-family="Times New Roman,serif" font-size="12.00">Review report by audit director</text>
</g>
<!-- 2272690302624&#45;&gt;2272690297296 -->
<g id="edge37" class="edge">
<title>2272690302624&#45;&gt;2272690297296</title>
<path fill="none" stroke="black" d="M2346.3,-244.77C2354.08,-245.98 2362.24,-247.26 2370.47,-248.55"/>
<polygon fill="black" stroke="black" points="2369.8,-251.99 2380.22,-250.07 2370.88,-245.07 2369.8,-251.99"/>
</g>
<!-- 2272690885344 -->
<g id="node31" class="node">
<title>2272690885344</title>
<polygon fill="none" stroke="black" points="2709.5,-294 2581.75,-294 2581.75,-258 2709.5,-258 2709.5,-294"/>
<text text-anchor="middle" x="2645.62" y="-270.98" font-family="Times New Roman,serif" font-size="12.00">Send report for revision</text>
</g>
<!-- 2272690297296&#45;&gt;2272690885344 -->
<g id="edge38" class="edge">
<title>2272690297296&#45;&gt;2272690885344</title>
<path fill="none" stroke="black" d="M2546.07,-268.87C2554.01,-269.45 2562.04,-270.03 2569.91,-270.6"/>
<polygon fill="black" stroke="black" points="2569.56,-274.08 2579.79,-271.31 2570.07,-267.1 2569.56,-274.08"/>
</g>
<!-- 2272690301952 -->
<g id="node32" class="node">
<title>2272690301952</title>
<polygon fill="none" stroke="black" points="2890.5,-301 2745.5,-301 2745.5,-265 2890.5,-265 2890.5,-301"/>
<text text-anchor="middle" x="2818" y="-277.98" font-family="Times New Roman,serif" font-size="12.00">Update and resubmit report</text>
</g>
<!-- 2272690885344&#45;&gt;2272690301952 -->
<g id="edge39" class="edge">
<title>2272690885344&#45;&gt;2272690301952</title>
<path fill="none" stroke="black" d="M2709.58,-278.59C2717.44,-278.91 2725.57,-279.24 2733.68,-279.58"/>
<polygon fill="black" stroke="black" points="2733.46,-283.07 2743.59,-279.98 2733.74,-276.08 2733.46,-283.07"/>
</g>
<!-- 2272691223488 -->
<g id="node33" class="node">
<title>2272691223488</title>
<polygon fill="none" stroke="black" points="3090.25,-304 2926.5,-304 2926.5,-268 3090.25,-268 3090.25,-304"/>
<text text-anchor="middle" x="3008.38" y="-280.98" font-family="Times New Roman,serif" font-size="12.00">Review report by audit director</text>
</g>
<!-- 2272690301952&#45;&gt;2272691223488 -->
<g id="edge40" class="edge">
<title>2272690301952&#45;&gt;2272691223488</title>
<path fill="none" stroke="black" d="M2890.75,-284.14C2898.6,-284.27 2906.66,-284.4 2914.71,-284.52"/>
<polygon fill="black" stroke="black" points="2914.49,-288.02 2924.55,-284.68 2914.6,-281.02 2914.49,-288.02"/>
</g>
<!-- 2272691223488&#45;&gt;2272691510144 -->
<g id="edge41" class="edge">
<title>2272691223488&#45;&gt;2272691510144</title>
<path fill="none" stroke="black" d="M3090.41,-299.05C3100.63,-300.69 3110.58,-302.29 3119.41,-303.71"/>
<polygon fill="black" stroke="black" points="3118.75,-307.15 3129.18,-305.29 3119.86,-300.24 3118.75,-307.15"/>
</g>
</g>
</svg>
