<?xml version="1.0" encoding="UTF-8" standalone="no"?>
<!DOCTYPE svg PUBLIC "-//W3C//DTD SVG 1.1//EN"
 "http://www.w3.org/Graphics/SVG/1.1/DTD/svg11.dtd">
<!-- Generated by graphviz version 11.0.0 (20240428.1522)
 -->
<!-- Pages: 1 -->
<svg width="3776pt" height="209pt"
 viewBox="0.00 0.00 3775.50 209.00" xmlns="http://www.w3.org/2000/svg" xmlns:xlink="http://www.w3.org/1999/xlink">
<g id="graph0" class="graph" transform="scale(1 1) rotate(0) translate(4 205)">
<polygon fill="white" stroke="none" points="-4,4 -4,-205 3771.5,-205 3771.5,4 -4,4"/>
<!-- 2272690886016 -->
<g id="node1" class="node">
<title>2272690886016</title>
<ellipse fill="green" stroke="black" cx="18" cy="-129" rx="18" ry="18"/>
</g>
<!-- 2272691215856 -->
<g id="node2" class="node">
<title>2272691215856</title>
<polygon fill="none" stroke="black" points="179.5,-147 72,-147 72,-111 179.5,-111 179.5,-147"/>
<text text-anchor="middle" x="125.75" y="-123.97" font-family="Times New Roman,serif" font-size="12.00">Close audit process</text>
</g>
<!-- 2272690886016&#45;&gt;2272691215856 -->
<g id="edge1" class="edge">
<title>2272690886016&#45;&gt;2272691215856</title>
<path fill="none" stroke="black" d="M36.46,-129C43.31,-129 51.62,-129 60.38,-129"/>
<polygon fill="black" stroke="black" points="60.11,-132.5 70.11,-129 60.11,-125.5 60.11,-132.5"/>
</g>
<!-- 2272693786656 -->
<g id="node3" class="node">
<title>2272693786656</title>
<polygon fill="none" stroke="black" points="300.5,-147 215.5,-147 215.5,-111 300.5,-111 300.5,-147"/>
<text text-anchor="middle" x="258" y="-123.97" font-family="Times New Roman,serif" font-size="12.00">Archive report</text>
</g>
<!-- 2272691215856&#45;&gt;2272693786656 -->
<g id="edge2" class="edge">
<title>2272691215856&#45;&gt;2272693786656</title>
<path fill="none" stroke="black" d="M179.73,-129C187.68,-129 195.88,-129 203.83,-129"/>
<polygon fill="black" stroke="black" points="203.74,-132.5 213.74,-129 203.74,-125.5 203.74,-132.5"/>
</g>
<!-- 2272693302576 -->
<g id="node4" class="node">
<title>2272693302576</title>
<polygon fill="none" stroke="black" points="453.75,-147 336.5,-147 336.5,-111 453.75,-111 453.75,-147"/>
<text text-anchor="middle" x="395.12" y="-123.97" font-family="Times New Roman,serif" font-size="12.00">Distribute final report</text>
</g>
<!-- 2272693786656&#45;&gt;2272693302576 -->
<g id="edge3" class="edge">
<title>2272693786656&#45;&gt;2272693302576</title>
<path fill="none" stroke="black" d="M300.64,-129C308.43,-129 316.75,-129 325.11,-129"/>
<polygon fill="black" stroke="black" points="324.96,-132.5 334.96,-129 324.96,-125.5 324.96,-132.5"/>
</g>
<!-- 2272693343424 -->
<g id="node5" class="node">
<title>2272693343424</title>
<polygon fill="none" stroke="black" points="653.5,-147 489.75,-147 489.75,-111 653.5,-111 653.5,-147"/>
<text text-anchor="middle" x="571.62" y="-123.97" font-family="Times New Roman,serif" font-size="12.00">Review report by audit director</text>
</g>
<!-- 2272693302576&#45;&gt;2272693343424 -->
<g id="edge4" class="edge">
<title>2272693302576&#45;&gt;2272693343424</title>
<path fill="none" stroke="black" d="M454.23,-129C461.91,-129 469.94,-129 478.02,-129"/>
<polygon fill="black" stroke="black" points="477.95,-132.5 487.95,-129 477.95,-125.5 477.95,-132.5"/>
</g>
<!-- 2272691212880 -->
<g id="node6" class="node">
<title>2272691212880</title>
<polygon fill="none" stroke="black" points="716.5,-147 689.5,-129 716.5,-111 743.5,-129 716.5,-147"/>
<text text-anchor="middle" x="716.5" y="-123.97" font-family="Times New Roman,serif" font-size="12.00">X</text>
</g>
<!-- 2272693343424&#45;&gt;2272691212880 -->
<g id="edge5" class="edge">
<title>2272693343424&#45;&gt;2272691212880</title>
<path fill="none" stroke="black" d="M653.66,-129C661.83,-129 669.83,-129 677.22,-129"/>
<polygon fill="black" stroke="black" points="677.12,-132.5 687.12,-129 677.12,-125.5 677.12,-132.5"/>
</g>
<!-- 2272691212400 -->
<g id="node7" class="node">
<title>2272691212400</title>
<polygon fill="none" stroke="black" points="1151.25,-147 1124.25,-129 1151.25,-111 1178.25,-129 1151.25,-147"/>
<text text-anchor="middle" x="1151.25" y="-123.97" font-family="Times New Roman,serif" font-size="12.00">X</text>
</g>
<!-- 2272691212880&#45;&gt;2272691212400 -->
<g id="edge6" class="edge">
<title>2272691212880&#45;&gt;2272691212400</title>
<path fill="none" stroke="black" d="M741.33,-130.9C752.85,-131.72 766.89,-132.59 779.5,-133 916.65,-137.42 951.1,-137.42 1088.25,-133 1096.92,-132.72 1106.27,-132.22 1115,-131.67"/>
<polygon fill="black" stroke="black" points="1115.17,-135.17 1124.91,-131 1114.7,-128.18 1115.17,-135.17"/>
</g>
<!-- 2272693786800 -->
<g id="node8" class="node">
<title>2272693786800</title>
<polygon fill="none" stroke="black" points="907.25,-124 779.5,-124 779.5,-88 907.25,-88 907.25,-124"/>
<text text-anchor="middle" x="843.38" y="-100.97" font-family="Times New Roman,serif" font-size="12.00">Send report for revision</text>
</g>
<!-- 2272691212880&#45;&gt;2272693786800 -->
<g id="edge7" class="edge">
<title>2272691212880&#45;&gt;2272693786800</title>
<path fill="none" stroke="black" d="M738.4,-125.15C746.8,-123.6 757.04,-121.72 767.77,-119.74"/>
<polygon fill="black" stroke="black" points="768.39,-123.19 777.59,-117.93 767.12,-116.3 768.39,-123.19"/>
</g>
<!-- 2272691210912 -->
<g id="node9" class="node">
<title>2272691210912</title>
<polygon fill="none" stroke="black" points="1327.75,-147 1214.25,-147 1214.25,-111 1327.75,-111 1327.75,-147"/>
<text text-anchor="middle" x="1271" y="-123.97" font-family="Times New Roman,serif" font-size="12.00">Compile audit report</text>
</g>
<!-- 2272691212400&#45;&gt;2272691210912 -->
<g id="edge8" class="edge">
<title>2272691212400&#45;&gt;2272691210912</title>
<path fill="none" stroke="black" d="M1178.97,-129C1186.15,-129 1194.26,-129 1202.6,-129"/>
<polygon fill="black" stroke="black" points="1202.53,-132.5 1212.53,-129 1202.53,-125.5 1202.53,-132.5"/>
</g>
<!-- 2272693795872 -->
<g id="node10" class="node">
<title>2272693795872</title>
<polygon fill="none" stroke="black" points="1088.25,-124 943.25,-124 943.25,-88 1088.25,-88 1088.25,-124"/>
<text text-anchor="middle" x="1015.75" y="-100.97" font-family="Times New Roman,serif" font-size="12.00">Update and resubmit report</text>
</g>
<!-- 2272693786800&#45;&gt;2272693795872 -->
<g id="edge9" class="edge">
<title>2272693786800&#45;&gt;2272693795872</title>
<path fill="none" stroke="black" d="M907.33,-106C915.19,-106 923.32,-106 931.43,-106"/>
<polygon fill="black" stroke="black" points="931.34,-109.5 941.34,-106 931.34,-102.5 931.34,-109.5"/>
</g>
<!-- 2272693787376 -->
<g id="node11" class="node">
<title>2272693787376</title>
<polygon fill="none" stroke="black" points="1550.75,-147 1363.75,-147 1363.75,-111 1550.75,-111 1550.75,-147"/>
<text text-anchor="middle" x="1457.25" y="-123.97" font-family="Times New Roman,serif" font-size="12.00">Complete risk assessment/mitigation</text>
</g>
<!-- 2272691210912&#45;&gt;2272693787376 -->
<g id="edge11" class="edge">
<title>2272691210912&#45;&gt;2272693787376</title>
<path fill="none" stroke="black" d="M1328.03,-129C1335.75,-129 1343.86,-129 1352.11,-129"/>
<polygon fill="black" stroke="black" points="1351.9,-132.5 1361.9,-129 1351.9,-125.5 1351.9,-132.5"/>
</g>
<!-- 2272693795872&#45;&gt;2272691212400 -->
<g id="edge10" class="edge">
<title>2272693795872&#45;&gt;2272691212400</title>
<path fill="none" stroke="black" d="M1088.58,-118.38C1098.88,-120.15 1109.02,-121.9 1118,-123.44"/>
<polygon fill="black" stroke="black" points="1117.13,-126.85 1127.58,-125.09 1118.32,-119.95 1117.13,-126.85"/>
</g>
<!-- 2272691209760 -->
<g id="node12" class="node">
<title>2272691209760</title>
<polygon fill="none" stroke="black" points="1613.75,-147 1586.75,-129 1613.75,-111 1640.75,-129 1613.75,-147"/>
<text text-anchor="middle" x="1613.75" y="-123.97" font-family="Times New Roman,serif" font-size="12.00">X</text>
</g>
<!-- 2272693787376&#45;&gt;2272691209760 -->
<g id="edge12" class="edge">
<title>2272693787376&#45;&gt;2272691209760</title>
<path fill="none" stroke="black" d="M1551.24,-129C1559.45,-129 1567.41,-129 1574.72,-129"/>
<polygon fill="black" stroke="black" points="1574.49,-132.5 1584.49,-129 1574.49,-125.5 1574.49,-132.5"/>
</g>
<!-- 2272691223728 -->
<g id="node13" class="node">
<title>2272691223728</title>
<polygon fill="none" stroke="black" points="2464.25,-147 2437.25,-129 2464.25,-111 2491.25,-129 2464.25,-147"/>
<text text-anchor="middle" x="2464.25" y="-123.97" font-family="Times New Roman,serif" font-size="12.00">X</text>
</g>
<!-- 2272691209760&#45;&gt;2272691223728 -->
<g id="edge14" class="edge">
<title>2272691209760&#45;&gt;2272691223728</title>
<path fill="none" stroke="black" d="M1628.43,-137.77C1657.47,-155.51 1727.94,-194 1792.75,-194 1792.75,-194 1792.75,-194 2184.5,-194 2278.81,-194 2386.49,-158.28 2435.88,-139.8"/>
<polygon fill="black" stroke="black" points="2437.09,-143.08 2445.18,-136.25 2434.59,-136.54 2437.09,-143.08"/>
</g>
<!-- 2272693788624 -->
<g id="node14" class="node">
<title>2272693788624</title>
<polygon fill="none" stroke="black" points="1703.75,-105 1676.75,-87 1703.75,-69 1730.75,-87 1703.75,-105"/>
<text text-anchor="middle" x="1703.75" y="-81.97" font-family="Times New Roman,serif" font-size="12.00">+</text>
</g>
<!-- 2272691209760&#45;&gt;2272693788624 -->
<g id="edge13" class="edge">
<title>2272691209760&#45;&gt;2272693788624</title>
<path fill="none" stroke="black" d="M1630.08,-121.68C1643,-115.52 1661.75,-106.57 1676.98,-99.3"/>
<polygon fill="black" stroke="black" points="1678.42,-102.49 1685.94,-95.02 1675.4,-96.17 1678.42,-102.49"/>
</g>
<!-- 2272693352976 -->
<g id="node17" class="node">
<title>2272693352976</title>
<polygon fill="none" stroke="black" points="2554.25,-147 2527.25,-129 2554.25,-111 2581.25,-129 2554.25,-147"/>
<text text-anchor="middle" x="2554.25" y="-123.97" font-family="Times New Roman,serif" font-size="12.00">+</text>
</g>
<!-- 2272691223728&#45;&gt;2272693352976 -->
<g id="edge15" class="edge">
<title>2272691223728&#45;&gt;2272693352976</title>
<path fill="none" stroke="black" d="M2492.13,-129C2499.38,-129 2507.37,-129 2515.1,-129"/>
<polygon fill="black" stroke="black" points="2515.02,-132.5 2525.02,-129 2515.02,-125.5 2515.02,-132.5"/>
</g>
<!-- 2272691215712 -->
<g id="node15" class="node">
<title>2272691215712</title>
<polygon fill="none" stroke="black" points="1793.75,-128 1766.75,-110 1793.75,-92 1820.75,-110 1793.75,-128"/>
<text text-anchor="middle" x="1793.75" y="-104.97" font-family="Times New Roman,serif" font-size="12.00">X</text>
</g>
<!-- 2272693788624&#45;&gt;2272691215712 -->
<g id="edge16" class="edge">
<title>2272693788624&#45;&gt;2272691215712</title>
<path fill="none" stroke="black" d="M1723.84,-91.99C1735.26,-94.97 1750.01,-98.83 1762.94,-102.21"/>
<polygon fill="black" stroke="black" points="1761.67,-105.49 1772.23,-104.64 1763.44,-98.72 1761.67,-105.49"/>
</g>
<!-- 2272691210192 -->
<g id="node16" class="node">
<title>2272691210192</title>
<polygon fill="none" stroke="black" points="2120.5,-82 2001,-82 2001,-46 2120.5,-46 2120.5,-82"/>
<text text-anchor="middle" x="2060.75" y="-58.98" font-family="Times New Roman,serif" font-size="12.00">Conduct data analysis</text>
</g>
<!-- 2272693788624&#45;&gt;2272691210192 -->
<g id="edge18" class="edge">
<title>2272693788624&#45;&gt;2272691210192</title>
<path fill="none" stroke="black" d="M1729.15,-85.42C1782.11,-81.99 1909.29,-73.75 1989.57,-68.55"/>
<polygon fill="black" stroke="black" points="1989.31,-72.07 1999.06,-67.93 1988.86,-65.09 1989.31,-72.07"/>
</g>
<!-- 2272693490016 -->
<g id="node18" class="node">
<title>2272693490016</title>
<polygon fill="none" stroke="black" points="1965,-36 1856.75,-36 1856.75,0 1965,0 1965,-36"/>
<text text-anchor="middle" x="1910.88" y="-12.97" font-family="Times New Roman,serif" font-size="12.00">Conduct interviews</text>
</g>
<!-- 2272693788624&#45;&gt;2272693490016 -->
<g id="edge17" class="edge">
<title>2272693788624&#45;&gt;2272693490016</title>
<path fill="none" stroke="black" d="M1717.42,-77.79C1729.53,-69.39 1748.58,-57.24 1766.75,-50 1791.57,-40.11 1820.09,-32.96 1845.11,-27.95"/>
<polygon fill="black" stroke="black" points="1845.68,-31.41 1854.84,-26.09 1844.36,-24.53 1845.68,-31.41"/>
</g>
<!-- 2272691217584 -->
<g id="node19" class="node">
<title>2272691217584</title>
<polygon fill="none" stroke="black" points="2060.75,-136 2033.75,-118 2060.75,-100 2087.75,-118 2060.75,-136"/>
<text text-anchor="middle" x="2060.75" y="-112.97" font-family="Times New Roman,serif" font-size="12.00">X</text>
</g>
<!-- 2272691215712&#45;&gt;2272691217584 -->
<g id="edge20" class="edge">
<title>2272691215712&#45;&gt;2272691217584</title>
<path fill="none" stroke="black" d="M1808.97,-118.21C1821.19,-124.76 1839.51,-133.41 1856.75,-137 1917.49,-149.65 1990.22,-136.07 2030.05,-126.25"/>
<polygon fill="black" stroke="black" points="2030.79,-129.67 2039.6,-123.79 2029.05,-122.89 2030.79,-129.67"/>
</g>
<!-- 2272693791312 -->
<g id="node22" class="node">
<title>2272693791312</title>
<polygon fill="none" stroke="black" points="1960.88,-128 1860.88,-128 1860.88,-92 1960.88,-92 1960.88,-128"/>
<text text-anchor="middle" x="1910.88" y="-104.97" font-family="Times New Roman,serif" font-size="12.00">Perform site visits</text>
</g>
<!-- 2272691215712&#45;&gt;2272693791312 -->
<g id="edge19" class="edge">
<title>2272691215712&#45;&gt;2272693791312</title>
<path fill="none" stroke="black" d="M1821.45,-110C1829.85,-110 1839.5,-110 1849.27,-110"/>
<polygon fill="black" stroke="black" points="1849.2,-113.5 1859.2,-110 1849.2,-106.5 1849.2,-113.5"/>
</g>
<!-- 2272693297392 -->
<g id="node23" class="node">
<title>2272693297392</title>
<polygon fill="none" stroke="black" points="2183.5,-103 2156.5,-85 2183.5,-67 2210.5,-85 2183.5,-103"/>
<text text-anchor="middle" x="2183.5" y="-79.97" font-family="Times New Roman,serif" font-size="12.00">+</text>
</g>
<!-- 2272691210192&#45;&gt;2272693297392 -->
<g id="edge21" class="edge">
<title>2272691210192&#45;&gt;2272693297392</title>
<path fill="none" stroke="black" d="M2120.71,-74.25C2130.87,-76.02 2141.08,-77.8 2150.19,-79.38"/>
<polygon fill="black" stroke="black" points="2149.5,-82.81 2159.95,-81.08 2150.7,-75.92 2149.5,-82.81"/>
</g>
<!-- 2272693390560 -->
<g id="node20" class="node">
<title>2272693390560</title>
<polygon fill="none" stroke="black" points="2756.25,-201 2617.25,-201 2617.25,-165 2756.25,-165 2756.25,-201"/>
<text text-anchor="middle" x="2686.75" y="-177.97" font-family="Times New Roman,serif" font-size="12.00">Evaluate compliance risks</text>
</g>
<!-- 2272693352976&#45;&gt;2272693390560 -->
<g id="edge22" class="edge">
<title>2272693352976&#45;&gt;2272693390560</title>
<path fill="none" stroke="black" d="M2571.24,-136.15C2583.72,-141.68 2601.52,-149.48 2617.25,-156 2620.78,-157.46 2624.42,-158.95 2628.1,-160.45"/>
<polygon fill="black" stroke="black" points="2626.51,-163.58 2637.09,-164.06 2629.12,-157.08 2626.51,-163.58"/>
</g>
<!-- 2272693792128 -->
<g id="node21" class="node">
<title>2272693792128</title>
<polygon fill="none" stroke="black" points="2755.5,-147 2618,-147 2618,-111 2755.5,-111 2755.5,-147"/>
<text text-anchor="middle" x="2686.75" y="-123.97" font-family="Times New Roman,serif" font-size="12.00">Evaluate operational risks</text>
</g>
<!-- 2272693352976&#45;&gt;2272693792128 -->
<g id="edge23" class="edge">
<title>2272693352976&#45;&gt;2272693792128</title>
<path fill="none" stroke="black" d="M2581.97,-129C2589.23,-129 2597.48,-129 2606.08,-129"/>
<polygon fill="black" stroke="black" points="2606.03,-132.5 2616.03,-129 2606.03,-125.5 2606.03,-132.5"/>
</g>
<!-- 2272691212448 -->
<g id="node24" class="node">
<title>2272691212448</title>
<polygon fill="none" stroke="black" points="2749.5,-93 2624,-93 2624,-57 2749.5,-57 2749.5,-93"/>
<text text-anchor="middle" x="2686.75" y="-69.97" font-family="Times New Roman,serif" font-size="12.00">Evaluate financial risks</text>
</g>
<!-- 2272693352976&#45;&gt;2272691212448 -->
<g id="edge24" class="edge">
<title>2272693352976&#45;&gt;2272691212448</title>
<path fill="none" stroke="black" d="M2571.24,-121.85C2583.72,-116.32 2601.52,-108.52 2617.25,-102 2620.78,-100.54 2624.42,-99.05 2628.1,-97.55"/>
<polygon fill="black" stroke="black" points="2629.12,-100.92 2637.09,-93.94 2626.51,-94.42 2629.12,-100.92"/>
</g>
<!-- 2272693490016&#45;&gt;2272693297392 -->
<g id="edge25" class="edge">
<title>2272693490016&#45;&gt;2272693297392</title>
<path fill="none" stroke="black" d="M1965.19,-14.77C2008.51,-14.02 2070.41,-17.29 2120.5,-37 2136.89,-43.45 2152.56,-55.64 2164.04,-66.13"/>
<polygon fill="black" stroke="black" points="2161.55,-68.59 2171.19,-72.98 2166.39,-63.53 2161.55,-68.59"/>
</g>
<!-- 2272691217584&#45;&gt;2272693297392 -->
<g id="edge26" class="edge">
<title>2272691217584&#45;&gt;2272693297392</title>
<path fill="none" stroke="black" d="M2080.62,-112.84C2099.93,-107.56 2130.24,-99.28 2152.78,-93.12"/>
<polygon fill="black" stroke="black" points="2153.58,-96.53 2162.31,-90.52 2151.74,-89.78 2153.58,-96.53"/>
</g>
<!-- 2272693388112 -->
<g id="node25" class="node">
<title>2272693388112</title>
<polygon fill="none" stroke="black" points="2819.25,-147 2792.25,-129 2819.25,-111 2846.25,-129 2819.25,-147"/>
<text text-anchor="middle" x="2819.25" y="-123.97" font-family="Times New Roman,serif" font-size="12.00">+</text>
</g>
<!-- 2272693390560&#45;&gt;2272693388112 -->
<g id="edge28" class="edge">
<title>2272693390560&#45;&gt;2272693388112</title>
<path fill="none" stroke="black" d="M2735,-164.63C2742.14,-161.78 2749.4,-158.84 2756.25,-156 2768.04,-151.11 2781.01,-145.5 2792.02,-140.67"/>
<polygon fill="black" stroke="black" points="2793.14,-144 2800.87,-136.76 2790.31,-137.59 2793.14,-144"/>
</g>
<!-- 2272693792128&#45;&gt;2272693388112 -->
<g id="edge29" class="edge">
<title>2272693792128&#45;&gt;2272693388112</title>
<path fill="none" stroke="black" d="M2755.68,-129C2764.15,-129 2772.56,-129 2780.34,-129"/>
<polygon fill="black" stroke="black" points="2780.07,-132.5 2790.07,-129 2780.07,-125.5 2780.07,-132.5"/>
</g>
<!-- 2272693791312&#45;&gt;2272691217584 -->
<g id="edge27" class="edge">
<title>2272693791312&#45;&gt;2272691217584</title>
<path fill="none" stroke="black" d="M1961.12,-112.66C1981.61,-113.77 2004.97,-115.04 2023.81,-116.06"/>
<polygon fill="black" stroke="black" points="2023.49,-119.54 2033.66,-116.59 2023.87,-112.55 2023.49,-119.54"/>
</g>
<!-- 2272693290288 -->
<g id="node26" class="node">
<title>2272693290288</title>
<polygon fill="none" stroke="black" points="2401.25,-124 2246.5,-124 2246.5,-88 2401.25,-88 2401.25,-124"/>
<text text-anchor="middle" x="2323.88" y="-100.97" font-family="Times New Roman,serif" font-size="12.00">Launch detailed investigation</text>
</g>
<!-- 2272693297392&#45;&gt;2272693290288 -->
<g id="edge30" class="edge">
<title>2272693297392&#45;&gt;2272693290288</title>
<path fill="none" stroke="black" d="M2206.12,-88.28C2214.36,-89.53 2224.34,-91.05 2234.95,-92.66"/>
<polygon fill="black" stroke="black" points="2234.29,-96.1 2244.7,-94.14 2235.34,-89.18 2234.29,-96.1"/>
</g>
<!-- 2272691212448&#45;&gt;2272693388112 -->
<g id="edge31" class="edge">
<title>2272691212448&#45;&gt;2272693388112</title>
<path fill="none" stroke="black" d="M2735,-93.37C2742.14,-96.22 2749.4,-99.16 2756.25,-102 2768.04,-106.89 2781.01,-112.5 2792.02,-117.33"/>
<polygon fill="black" stroke="black" points="2790.31,-120.41 2800.87,-121.24 2793.14,-114 2790.31,-120.41"/>
</g>
<!-- 2272691222384 -->
<g id="node27" class="node">
<title>2272691222384</title>
<polygon fill="none" stroke="black" points="2909.25,-147 2882.25,-129 2909.25,-111 2936.25,-129 2909.25,-147"/>
<text text-anchor="middle" x="2909.25" y="-123.97" font-family="Times New Roman,serif" font-size="12.00">X</text>
</g>
<!-- 2272693388112&#45;&gt;2272691222384 -->
<g id="edge33" class="edge">
<title>2272693388112&#45;&gt;2272691222384</title>
<path fill="none" stroke="black" d="M2847.13,-129C2854.38,-129 2862.37,-129 2870.1,-129"/>
<polygon fill="black" stroke="black" points="2870.02,-132.5 2880.02,-129 2870.02,-125.5 2870.02,-132.5"/>
</g>
<!-- 2272693290288&#45;&gt;2272691223728 -->
<g id="edge32" class="edge">
<title>2272693290288&#45;&gt;2272691223728</title>
<path fill="none" stroke="black" d="M2401.35,-118.71C2411.57,-120.41 2421.59,-122.08 2430.48,-123.55"/>
<polygon fill="black" stroke="black" points="2429.89,-127 2440.33,-125.19 2431.04,-120.1 2429.89,-127"/>
</g>
<!-- 2272691218640 -->
<g id="node28" class="node">
<title>2272691218640</title>
<polygon fill="none" stroke="black" points="3384.5,-147 3357.5,-129 3384.5,-111 3411.5,-129 3384.5,-147"/>
<text text-anchor="middle" x="3384.5" y="-123.97" font-family="Times New Roman,serif" font-size="12.00">X</text>
</g>
<!-- 2272691222384&#45;&gt;2272691218640 -->
<g id="edge34" class="edge">
<title>2272691222384&#45;&gt;2272691218640</title>
<path fill="none" stroke="black" d="M2934.08,-130.9C2945.6,-131.72 2959.64,-132.59 2972.25,-133 3127.39,-138 3166.36,-138 3321.5,-133 3330.17,-132.72 3339.52,-132.22 3348.25,-131.67"/>
<polygon fill="black" stroke="black" points="3348.42,-135.17 3358.16,-131 3347.95,-128.18 3348.42,-135.17"/>
</g>
<!-- 2272693789440 -->
<g id="node29" class="node">
<title>2272693789440</title>
<polygon fill="none" stroke="black" points="3089.5,-124 2972.25,-124 2972.25,-88 3089.5,-88 3089.5,-124"/>
<text text-anchor="middle" x="3030.88" y="-100.97" font-family="Times New Roman,serif" font-size="12.00">Receive clarifications</text>
</g>
<!-- 2272691222384&#45;&gt;2272693789440 -->
<g id="edge35" class="edge">
<title>2272691222384&#45;&gt;2272693789440</title>
<path fill="none" stroke="black" d="M2931.09,-124.99C2939.53,-123.37 2949.82,-121.39 2960.52,-119.34"/>
<polygon fill="black" stroke="black" points="2961.11,-122.78 2970.27,-117.46 2959.79,-115.91 2961.11,-122.78"/>
</g>
<!-- 2272693796208 -->
<g id="node30" class="node">
<title>2272693796208</title>
<polygon fill="none" stroke="black" points="3555.75,-147 3447.5,-147 3447.5,-111 3555.75,-111 3555.75,-147"/>
<text text-anchor="middle" x="3501.62" y="-123.97" font-family="Times New Roman,serif" font-size="12.00">Review submission</text>
</g>
<!-- 2272691218640&#45;&gt;2272693796208 -->
<g id="edge36" class="edge">
<title>2272691218640&#45;&gt;2272693796208</title>
<path fill="none" stroke="black" d="M3412.2,-129C3419.42,-129 3427.55,-129 3435.89,-129"/>
<polygon fill="black" stroke="black" points="3435.8,-132.5 3445.8,-129 3435.8,-125.5 3435.8,-132.5"/>
</g>
<!-- 2272693791168 -->
<g id="node31" class="node">
<title>2272693791168</title>
<polygon fill="none" stroke="black" points="3321.5,-124 3125.5,-124 3125.5,-88 3321.5,-88 3321.5,-124"/>
<text text-anchor="middle" x="3223.5" y="-100.97" font-family="Times New Roman,serif" font-size="12.00">Request clarifications of discrepancies</text>
</g>
<!-- 2272693789440&#45;&gt;2272693791168 -->
<g id="edge37" class="edge">
<title>2272693789440&#45;&gt;2272693791168</title>
<path fill="none" stroke="black" d="M3089.85,-106C3097.53,-106 3105.59,-106 3113.79,-106"/>
<polygon fill="black" stroke="black" points="3113.52,-109.5 3123.52,-106 3113.52,-102.5 3113.52,-109.5"/>
</g>
<!-- 2272693395168 -->
<g id="node32" class="node">
<title>2272693395168</title>
<polygon fill="none" stroke="black" points="3695.5,-147 3591.75,-147 3591.75,-111 3695.5,-111 3695.5,-147"/>
<text text-anchor="middle" x="3643.62" y="-123.97" font-family="Times New Roman,serif" font-size="12.00">Submit documents</text>
</g>
<!-- 2272693796208&#45;&gt;2272693395168 -->
<g id="edge39" class="edge">
<title>2272693796208&#45;&gt;2272693395168</title>
<path fill="none" stroke="black" d="M3555.95,-129C3563.83,-129 3572.01,-129 3580.05,-129"/>
<polygon fill="black" stroke="black" points="3579.78,-132.5 3589.78,-129 3579.78,-125.5 3579.78,-132.5"/>
</g>
<!-- 2272693791168&#45;&gt;2272691218640 -->
<g id="edge38" class="edge">
<title>2272693791168&#45;&gt;2272691218640</title>
<path fill="none" stroke="black" d="M3321.57,-120.04C3331.88,-121.53 3341.78,-122.97 3350.52,-124.23"/>
<polygon fill="black" stroke="black" points="3349.76,-127.66 3360.15,-125.62 3350.76,-120.73 3349.76,-127.66"/>
</g>
<!-- 2272690889376 -->
<g id="node33" class="node">
<title>2272690889376</title>
<ellipse fill="orange" stroke="black" cx="3749.5" cy="-129" rx="18" ry="18"/>
</g>
<!-- 2272693395168&#45;&gt;2272690889376 -->
<g id="edge40" class="edge">
<title>2272693395168&#45;&gt;2272690889376</title>
<path fill="none" stroke="black" d="M3695.95,-129C3704.17,-129 3712.41,-129 3719.85,-129"/>
<polygon fill="black" stroke="black" points="3719.59,-132.5 3729.59,-129 3719.59,-125.5 3719.59,-132.5"/>
</g>
</g>
</svg>
