<?xml version="1.0" encoding="UTF-8" standalone="no"?>
<!DOCTYPE svg PUBLIC "-//W3C//DTD SVG 1.1//EN"
 "http://www.w3.org/Graphics/SVG/1.1/DTD/svg11.dtd">
<!-- Generated by graphviz version 11.0.0 (20240428.1522)
 -->
<!-- Pages: 1 -->
<svg width="4382pt" height="186pt"
 viewBox="0.00 0.00 4381.75 186.00" xmlns="http://www.w3.org/2000/svg" xmlns:xlink="http://www.w3.org/1999/xlink">
<g id="graph0" class="graph" transform="scale(1 1) rotate(0) translate(4 182)">
<polygon fill="white" stroke="none" points="-4,4 -4,-182 4377.75,-182 4377.75,4 -4,4"/>
<!-- 2272685264096 -->
<g id="node1" class="node">
<title>2272685264096</title>
<ellipse fill="green" stroke="black" cx="18" cy="-106" rx="18" ry="18"/>
</g>
<!-- 2272684609552 -->
<g id="node2" class="node">
<title>2272684609552</title>
<polygon fill="none" stroke="black" points="209.5,-124 72,-124 72,-88 209.5,-88 209.5,-124"/>
<text text-anchor="middle" x="140.75" y="-100.97" font-family="Times New Roman,serif" font-size="12.00">Evaluate operational risks</text>
</g>
<!-- 2272685264096&#45;&gt;2272684609552 -->
<g id="edge1" class="edge">
<title>2272685264096&#45;&gt;2272684609552</title>
<path fill="none" stroke="black" d="M36.3,-106C43.04,-106 51.28,-106 60.13,-106"/>
<polygon fill="black" stroke="black" points="60.09,-109.5 70.09,-106 60.09,-102.5 60.09,-109.5"/>
</g>
<!-- 2272684611280 -->
<g id="node3" class="node">
<title>2272684611280</title>
<polygon fill="none" stroke="black" points="272.5,-124 245.5,-106 272.5,-88 299.5,-106 272.5,-124"/>
<text text-anchor="middle" x="272.5" y="-100.97" font-family="Times New Roman,serif" font-size="12.00">+</text>
</g>
<!-- 2272684609552&#45;&gt;2272684611280 -->
<g id="edge2" class="edge">
<title>2272684609552&#45;&gt;2272684611280</title>
<path fill="none" stroke="black" d="M209.67,-106C217.87,-106 226.02,-106 233.57,-106"/>
<polygon fill="black" stroke="black" points="233.36,-109.5 243.36,-106 233.36,-102.5 233.36,-109.5"/>
</g>
<!-- 2272684618048 -->
<g id="node4" class="node">
<title>2272684618048</title>
<polygon fill="none" stroke="black" points="463.25,-178 335.5,-178 335.5,-142 463.25,-142 463.25,-178"/>
<text text-anchor="middle" x="399.38" y="-154.97" font-family="Times New Roman,serif" font-size="12.00">Send report for revision</text>
</g>
<!-- 2272684611280&#45;&gt;2272684618048 -->
<g id="edge3" class="edge">
<title>2272684611280&#45;&gt;2272684618048</title>
<path fill="none" stroke="black" d="M289.55,-113.02C302.06,-118.48 319.88,-126.24 335.5,-133 338.62,-134.35 341.82,-135.73 345.05,-137.12"/>
<polygon fill="black" stroke="black" points="343.45,-140.24 354.02,-140.99 346.22,-133.82 343.45,-140.24"/>
</g>
<!-- 2272684607248 -->
<g id="node5" class="node">
<title>2272684607248</title>
<polygon fill="none" stroke="black" points="447.5,-124 351.25,-124 351.25,-88 447.5,-88 447.5,-124"/>
<text text-anchor="middle" x="399.38" y="-100.97" font-family="Times New Roman,serif" font-size="12.00">Send notification</text>
</g>
<!-- 2272684611280&#45;&gt;2272684607248 -->
<g id="edge5" class="edge">
<title>2272684611280&#45;&gt;2272684607248</title>
<path fill="none" stroke="black" d="M300.29,-106C311.82,-106 325.8,-106 339.54,-106"/>
<polygon fill="black" stroke="black" points="339.45,-109.5 349.45,-106 339.45,-102.5 339.45,-109.5"/>
</g>
<!-- 2272693787040 -->
<g id="node6" class="node">
<title>2272693787040</title>
<polygon fill="none" stroke="black" points="443.75,-70 355,-70 355,-34 443.75,-34 443.75,-70"/>
<text text-anchor="middle" x="399.38" y="-46.98" font-family="Times New Roman,serif" font-size="12.00">Approve report</text>
</g>
<!-- 2272684611280&#45;&gt;2272693787040 -->
<g id="edge4" class="edge">
<title>2272684611280&#45;&gt;2272693787040</title>
<path fill="none" stroke="black" d="M289.55,-98.98C302.06,-93.52 319.88,-85.76 335.5,-79 338.62,-77.65 341.82,-76.27 345.05,-74.88"/>
<polygon fill="black" stroke="black" points="346.22,-78.18 354.02,-71.01 343.45,-71.76 346.22,-78.18"/>
</g>
<!-- 2272690506544 -->
<g id="node7" class="node">
<title>2272690506544</title>
<polygon fill="none" stroke="black" points="526.25,-124 499.25,-106 526.25,-88 553.25,-106 526.25,-124"/>
<text text-anchor="middle" x="526.25" y="-100.97" font-family="Times New Roman,serif" font-size="12.00">+</text>
</g>
<!-- 2272684618048&#45;&gt;2272690506544 -->
<g id="edge6" class="edge">
<title>2272684618048&#45;&gt;2272690506544</title>
<path fill="none" stroke="black" d="M443.34,-141.58C450.01,-138.72 456.82,-135.78 463.25,-133 474.97,-127.93 487.92,-122.3 498.94,-117.49"/>
<polygon fill="black" stroke="black" points="500.05,-120.83 507.81,-113.62 497.25,-114.41 500.05,-120.83"/>
</g>
<!-- 2272684607248&#45;&gt;2272690506544 -->
<g id="edge7" class="edge">
<title>2272684607248&#45;&gt;2272690506544</title>
<path fill="none" stroke="black" d="M447.94,-106C460.89,-106 474.76,-106 487.11,-106"/>
<polygon fill="black" stroke="black" points="486.9,-109.5 496.9,-106 486.9,-102.5 486.9,-109.5"/>
</g>
<!-- 2272693787040&#45;&gt;2272690506544 -->
<g id="edge8" class="edge">
<title>2272693787040&#45;&gt;2272690506544</title>
<path fill="none" stroke="black" d="M443.34,-70.42C450.01,-73.28 456.82,-76.22 463.25,-79 474.97,-84.07 487.92,-89.7 498.94,-94.51"/>
<polygon fill="black" stroke="black" points="497.25,-97.59 507.81,-98.38 500.05,-91.17 497.25,-97.59"/>
</g>
<!-- 2272690514944 -->
<g id="node8" class="node">
<title>2272690514944</title>
<polygon fill="none" stroke="black" points="708.75,-124 589.25,-124 589.25,-88 708.75,-88 708.75,-124"/>
<text text-anchor="middle" x="649" y="-100.97" font-family="Times New Roman,serif" font-size="12.00">Conduct data analysis</text>
</g>
<!-- 2272690506544&#45;&gt;2272690514944 -->
<g id="edge9" class="edge">
<title>2272690506544&#45;&gt;2272690514944</title>
<path fill="none" stroke="black" d="M554.05,-106C561.21,-106 569.3,-106 577.66,-106"/>
<polygon fill="black" stroke="black" points="577.63,-109.5 587.63,-106 577.63,-102.5 577.63,-109.5"/>
</g>
<!-- 2272684615120 -->
<g id="node9" class="node">
<title>2272684615120</title>
<polygon fill="none" stroke="black" points="883.75,-124 744.75,-124 744.75,-88 883.75,-88 883.75,-124"/>
<text text-anchor="middle" x="814.25" y="-100.97" font-family="Times New Roman,serif" font-size="12.00">Evaluate compliance risks</text>
</g>
<!-- 2272690514944&#45;&gt;2272684615120 -->
<g id="edge10" class="edge">
<title>2272690514944&#45;&gt;2272684615120</title>
<path fill="none" stroke="black" d="M708.94,-106C716.76,-106 724.88,-106 732.99,-106"/>
<polygon fill="black" stroke="black" points="732.89,-109.5 742.89,-106 732.89,-102.5 732.89,-109.5"/>
</g>
<!-- 2272684613248 -->
<g id="node10" class="node">
<title>2272684613248</title>
<polygon fill="none" stroke="black" points="946.75,-124 919.75,-106 946.75,-88 973.75,-106 946.75,-124"/>
<text text-anchor="middle" x="946.75" y="-100.97" font-family="Times New Roman,serif" font-size="12.00">X</text>
</g>
<!-- 2272684615120&#45;&gt;2272684613248 -->
<g id="edge11" class="edge">
<title>2272684615120&#45;&gt;2272684613248</title>
<path fill="none" stroke="black" d="M883.94,-106C891.98,-106 899.96,-106 907.37,-106"/>
<polygon fill="black" stroke="black" points="907.34,-109.5 917.34,-106 907.34,-102.5 907.34,-109.5"/>
</g>
<!-- 2272684613536 -->
<g id="node11" class="node">
<title>2272684613536</title>
<polygon fill="none" stroke="black" points="1377,-124 1350,-106 1377,-88 1404,-106 1377,-124"/>
<text text-anchor="middle" x="1377" y="-100.97" font-family="Times New Roman,serif" font-size="12.00">X</text>
</g>
<!-- 2272684613248&#45;&gt;2272684613536 -->
<g id="edge12" class="edge">
<title>2272684613248&#45;&gt;2272684613536</title>
<path fill="none" stroke="black" d="M971.58,-107.9C983.1,-108.72 997.14,-109.59 1009.75,-110 1144.9,-114.36 1178.85,-114.36 1314,-110 1322.67,-109.72 1332.02,-109.22 1340.75,-108.67"/>
<polygon fill="black" stroke="black" points="1340.92,-112.17 1350.66,-108 1340.45,-105.18 1340.92,-112.17"/>
</g>
<!-- 2272693201200 -->
<g id="node12" class="node">
<title>2272693201200</title>
<polygon fill="none" stroke="black" points="1164.5,-101 1009.75,-101 1009.75,-65 1164.5,-65 1164.5,-101"/>
<text text-anchor="middle" x="1087.12" y="-77.97" font-family="Times New Roman,serif" font-size="12.00">Launch detailed investigation</text>
</g>
<!-- 2272684613248&#45;&gt;2272693201200 -->
<g id="edge13" class="edge">
<title>2272684613248&#45;&gt;2272693201200</title>
<path fill="none" stroke="black" d="M969.07,-102.46C977.34,-101.08 987.4,-99.41 998.11,-97.63"/>
<polygon fill="black" stroke="black" points="998.68,-101.08 1007.97,-95.99 997.53,-94.18 998.68,-101.08"/>
</g>
<!-- 2272684615744 -->
<g id="node13" class="node">
<title>2272684615744</title>
<polygon fill="none" stroke="black" points="1540,-124 1440,-124 1440,-88 1540,-88 1540,-124"/>
<text text-anchor="middle" x="1490" y="-100.97" font-family="Times New Roman,serif" font-size="12.00">Perform site visits</text>
</g>
<!-- 2272684613536&#45;&gt;2272684615744 -->
<g id="edge14" class="edge">
<title>2272684613536&#45;&gt;2272684615744</title>
<path fill="none" stroke="black" d="M1404.87,-106C1412.1,-106 1420.23,-106 1428.51,-106"/>
<polygon fill="black" stroke="black" points="1428.31,-109.5 1438.31,-106 1428.31,-102.5 1428.31,-109.5"/>
</g>
<!-- 2272684610656 -->
<g id="node14" class="node">
<title>2272684610656</title>
<polygon fill="none" stroke="black" points="1314,-101 1200.5,-101 1200.5,-65 1314,-65 1314,-101"/>
<text text-anchor="middle" x="1257.25" y="-77.97" font-family="Times New Roman,serif" font-size="12.00">Compile audit report</text>
</g>
<!-- 2272693201200&#45;&gt;2272684610656 -->
<g id="edge15" class="edge">
<title>2272693201200&#45;&gt;2272684610656</title>
<path fill="none" stroke="black" d="M1164.81,-83C1172.84,-83 1180.96,-83 1188.87,-83"/>
<polygon fill="black" stroke="black" points="1188.77,-86.5 1198.77,-83 1188.77,-79.5 1188.77,-86.5"/>
</g>
<!-- 2272684610560 -->
<g id="node15" class="node">
<title>2272684610560</title>
<polygon fill="none" stroke="black" points="1603,-124 1576,-106 1603,-88 1630,-106 1603,-124"/>
<text text-anchor="middle" x="1603" y="-100.97" font-family="Times New Roman,serif" font-size="12.00">+</text>
</g>
<!-- 2272684615744&#45;&gt;2272684610560 -->
<g id="edge17" class="edge">
<title>2272684615744&#45;&gt;2272684610560</title>
<path fill="none" stroke="black" d="M1540.33,-106C1548.24,-106 1556.31,-106 1563.9,-106"/>
<polygon fill="black" stroke="black" points="1563.82,-109.5 1573.82,-106 1563.82,-102.5 1563.82,-109.5"/>
</g>
<!-- 2272684610656&#45;&gt;2272684613536 -->
<g id="edge16" class="edge">
<title>2272684610656&#45;&gt;2272684613536</title>
<path fill="none" stroke="black" d="M1314.37,-93.96C1324.7,-95.98 1335.14,-98.02 1344.42,-99.83"/>
<polygon fill="black" stroke="black" points="1343.48,-103.21 1353.97,-101.7 1344.83,-96.34 1343.48,-103.21"/>
</g>
<!-- 2272684289408 -->
<g id="node16" class="node">
<title>2272684289408</title>
<polygon fill="none" stroke="black" points="1862,-178 1666,-178 1666,-142 1862,-142 1862,-178"/>
<text text-anchor="middle" x="1764" y="-154.97" font-family="Times New Roman,serif" font-size="12.00">Request clarifications of discrepancies</text>
</g>
<!-- 2272684610560&#45;&gt;2272684289408 -->
<g id="edge18" class="edge">
<title>2272684610560&#45;&gt;2272684289408</title>
<path fill="none" stroke="black" d="M1619.56,-113.5C1631.95,-119.29 1649.85,-127.27 1666,-133 1670.99,-134.77 1676.15,-136.5 1681.38,-138.17"/>
<polygon fill="black" stroke="black" points="1680.14,-141.45 1690.73,-141.08 1682.22,-134.77 1680.14,-141.45"/>
</g>
<!-- 2272684614544 -->
<g id="node17" class="node">
<title>2272684614544</title>
<polygon fill="none" stroke="black" points="1837.62,-124 1690.38,-124 1690.38,-88 1837.62,-88 1837.62,-124"/>
<text text-anchor="middle" x="1764" y="-100.97" font-family="Times New Roman,serif" font-size="12.00">Prepare financial statements</text>
</g>
<!-- 2272684610560&#45;&gt;2272684614544 -->
<g id="edge20" class="edge">
<title>2272684610560&#45;&gt;2272684614544</title>
<path fill="none" stroke="black" d="M1630.61,-106C1644.03,-106 1661.12,-106 1678.54,-106"/>
<polygon fill="black" stroke="black" points="1678.48,-109.5 1688.48,-106 1678.48,-102.5 1678.48,-109.5"/>
</g>
<!-- 2272690511584 -->
<g id="node18" class="node">
<title>2272690511584</title>
<polygon fill="none" stroke="black" points="2010.75,-78 1902.5,-78 1902.5,-42 2010.75,-42 2010.75,-78"/>
<text text-anchor="middle" x="1956.62" y="-54.98" font-family="Times New Roman,serif" font-size="12.00">Review submission</text>
</g>
<!-- 2272684610560&#45;&gt;2272690511584 -->
<g id="edge19" class="edge">
<title>2272684610560&#45;&gt;2272690511584</title>
<path fill="none" stroke="black" d="M1618.28,-98.08C1630.54,-91.71 1648.89,-83.15 1666,-79 1741.63,-60.64 1831.43,-57.52 1890.77,-57.93"/>
<polygon fill="black" stroke="black" points="1890.66,-61.43 1900.7,-58.04 1890.74,-54.43 1890.66,-61.43"/>
</g>
<!-- 2272684606048 -->
<g id="node19" class="node">
<title>2272684606048</title>
<polygon fill="none" stroke="black" points="2015.25,-174 1898,-174 1898,-138 2015.25,-138 2015.25,-174"/>
<text text-anchor="middle" x="1956.62" y="-150.97" font-family="Times New Roman,serif" font-size="12.00">Receive clarifications</text>
</g>
<!-- 2272684289408&#45;&gt;2272684606048 -->
<g id="edge21" class="edge">
<title>2272684289408&#45;&gt;2272684606048</title>
<path fill="none" stroke="black" d="M1862.27,-157.96C1870.41,-157.79 1878.53,-157.62 1886.39,-157.45"/>
<polygon fill="black" stroke="black" points="1886.27,-160.96 1896.19,-157.25 1886.12,-153.96 1886.27,-160.96"/>
</g>
<!-- 2272693191504 -->
<g id="node20" class="node">
<title>2272693191504</title>
<polygon fill="none" stroke="black" points="2078.25,-124 2051.25,-106 2078.25,-88 2105.25,-106 2078.25,-124"/>
<text text-anchor="middle" x="2078.25" y="-100.97" font-family="Times New Roman,serif" font-size="12.00">+</text>
</g>
<!-- 2272684614544&#45;&gt;2272693191504 -->
<g id="edge22" class="edge">
<title>2272684614544&#45;&gt;2272693191504</title>
<path fill="none" stroke="black" d="M1837.81,-106C1900.88,-106 1989.59,-106 2039.43,-106"/>
<polygon fill="black" stroke="black" points="2039.12,-109.5 2049.12,-106 2039.12,-102.5 2039.12,-109.5"/>
</g>
<!-- 2272690511584&#45;&gt;2272693191504 -->
<g id="edge23" class="edge">
<title>2272690511584&#45;&gt;2272693191504</title>
<path fill="none" stroke="black" d="M2005.59,-78.44C2020.57,-84.21 2036.59,-90.36 2049.67,-95.39"/>
<polygon fill="black" stroke="black" points="2048.31,-98.62 2058.9,-98.94 2050.82,-92.09 2048.31,-98.62"/>
</g>
<!-- 2272684606048&#45;&gt;2272693191504 -->
<g id="edge24" class="edge">
<title>2272684606048&#45;&gt;2272693191504</title>
<path fill="none" stroke="black" d="M2001.83,-137.52C2018.11,-130.72 2036.05,-123.22 2050.35,-117.25"/>
<polygon fill="black" stroke="black" points="2051.66,-120.49 2059.53,-113.41 2048.96,-114.03 2051.66,-120.49"/>
</g>
<!-- 2272684283024 -->
<g id="node21" class="node">
<title>2272684283024</title>
<polygon fill="none" stroke="black" points="2664.75,-170 2501,-170 2501,-134 2664.75,-134 2664.75,-170"/>
<text text-anchor="middle" x="2582.88" y="-146.97" font-family="Times New Roman,serif" font-size="12.00">Review report by audit director</text>
</g>
<!-- 2272693191504&#45;&gt;2272684283024 -->
<g id="edge26" class="edge">
<title>2272693191504&#45;&gt;2272684283024</title>
<path fill="none" stroke="black" d="M2098.38,-111.1C2110.56,-114.15 2126.73,-117.85 2141.25,-120 2260.63,-137.71 2399.73,-145.74 2489.2,-149.3"/>
<polygon fill="black" stroke="black" points="2489.03,-152.79 2499.16,-149.68 2489.3,-145.8 2489.03,-152.79"/>
</g>
<!-- 2272684607920 -->
<g id="node22" class="node">
<title>2272684607920</title>
<polygon fill="none" stroke="black" points="2465,-124 2328.25,-124 2328.25,-88 2465,-88 2465,-124"/>
<text text-anchor="middle" x="2396.62" y="-100.97" font-family="Times New Roman,serif" font-size="12.00">Check regulatory updates</text>
</g>
<!-- 2272693191504&#45;&gt;2272684607920 -->
<g id="edge25" class="edge">
<title>2272693191504&#45;&gt;2272684607920</title>
<path fill="none" stroke="black" d="M2105.95,-106C2151.96,-106 2247.84,-106 2316.71,-106"/>
<polygon fill="black" stroke="black" points="2316.43,-109.5 2326.43,-106 2316.43,-102.5 2316.43,-109.5"/>
</g>
<!-- 2272693402128 -->
<g id="node23" class="node">
<title>2272693402128</title>
<polygon fill="none" stroke="black" points="2292.25,-74 2141.25,-74 2141.25,-38 2292.25,-38 2292.25,-74"/>
<text text-anchor="middle" x="2216.75" y="-50.98" font-family="Times New Roman,serif" font-size="12.00">Gather necessary documents</text>
</g>
<!-- 2272693191504&#45;&gt;2272693402128 -->
<g id="edge27" class="edge">
<title>2272693191504&#45;&gt;2272693402128</title>
<path fill="none" stroke="black" d="M2096.54,-99.67C2111.33,-94.25 2133.54,-86.11 2154.79,-78.33"/>
<polygon fill="black" stroke="black" points="2155.83,-81.67 2164.02,-74.95 2153.43,-75.1 2155.83,-81.67"/>
</g>
<!-- 2272690512688 -->
<g id="node25" class="node">
<title>2272690512688</title>
<polygon fill="none" stroke="black" points="2817.75,-124 2790.75,-106 2817.75,-88 2844.75,-106 2817.75,-124"/>
<text text-anchor="middle" x="2817.75" y="-100.97" font-family="Times New Roman,serif" font-size="12.00">+</text>
</g>
<!-- 2272684283024&#45;&gt;2272690512688 -->
<g id="edge28" class="edge">
<title>2272684283024&#45;&gt;2272690512688</title>
<path fill="none" stroke="black" d="M2664.83,-137.47C2693.3,-132.2 2725.49,-126.04 2754.75,-120 2764.93,-117.9 2776,-115.45 2785.94,-113.19"/>
<polygon fill="black" stroke="black" points="2786.53,-116.65 2795.49,-111 2784.96,-109.83 2786.53,-116.65"/>
</g>
<!-- 2272684607920&#45;&gt;2272690512688 -->
<g id="edge29" class="edge">
<title>2272684607920&#45;&gt;2272690512688</title>
<path fill="none" stroke="black" d="M2465.43,-106C2554.35,-106 2707.37,-106 2778.42,-106"/>
<polygon fill="black" stroke="black" points="2778.39,-109.5 2788.39,-106 2778.39,-102.5 2778.39,-109.5"/>
</g>
<!-- 2272684617712 -->
<g id="node24" class="node">
<title>2272684617712</title>
<polygon fill="none" stroke="black" points="2396.62,-70 2369.62,-52 2396.62,-34 2423.62,-52 2396.62,-70"/>
<text text-anchor="middle" x="2396.62" y="-46.98" font-family="Times New Roman,serif" font-size="12.00">X</text>
</g>
<!-- 2272693402128&#45;&gt;2272684617712 -->
<g id="edge30" class="edge">
<title>2272693402128&#45;&gt;2272684617712</title>
<path fill="none" stroke="black" d="M2292.67,-54.32C2315.36,-53.8 2339.31,-53.27 2358.39,-52.84"/>
<polygon fill="black" stroke="black" points="2358.44,-56.34 2368.36,-52.61 2358.28,-49.34 2358.44,-56.34"/>
</g>
<!-- 2272684611184 -->
<g id="node26" class="node">
<title>2272684611184</title>
<polygon fill="none" stroke="black" points="2727.75,-78 2700.75,-60 2727.75,-42 2754.75,-60 2727.75,-78"/>
<text text-anchor="middle" x="2727.75" y="-54.98" font-family="Times New Roman,serif" font-size="12.00">X</text>
</g>
<!-- 2272684617712&#45;&gt;2272684611184 -->
<g id="edge32" class="edge">
<title>2272684617712&#45;&gt;2272684611184</title>
<path fill="none" stroke="black" d="M2423.45,-52.63C2481.49,-54.04 2622.42,-57.46 2689.75,-59.1"/>
<polygon fill="black" stroke="black" points="2689.45,-62.59 2699.53,-59.34 2689.62,-55.6 2689.45,-62.59"/>
</g>
<!-- 2272684613392 -->
<g id="node27" class="node">
<title>2272684613392</title>
<polygon fill="none" stroke="black" points="2637,-36 2528.75,-36 2528.75,0 2637,0 2637,-36"/>
<text text-anchor="middle" x="2582.88" y="-12.97" font-family="Times New Roman,serif" font-size="12.00">Conduct interviews</text>
</g>
<!-- 2272684617712&#45;&gt;2272684613392 -->
<g id="edge31" class="edge">
<title>2272684617712&#45;&gt;2272684613392</title>
<path fill="none" stroke="black" d="M2418.4,-48.17C2442.35,-43.75 2482.87,-36.27 2517.58,-29.86"/>
<polygon fill="black" stroke="black" points="2517.93,-33.36 2527.13,-28.1 2516.66,-26.48 2517.93,-33.36"/>
</g>
<!-- 2272690513120 -->
<g id="node28" class="node">
<title>2272690513120</title>
<polygon fill="none" stroke="black" points="2984.5,-124 2880.75,-124 2880.75,-88 2984.5,-88 2984.5,-124"/>
<text text-anchor="middle" x="2932.62" y="-100.97" font-family="Times New Roman,serif" font-size="12.00">Submit documents</text>
</g>
<!-- 2272690512688&#45;&gt;2272690513120 -->
<g id="edge33" class="edge">
<title>2272690512688&#45;&gt;2272690513120</title>
<path fill="none" stroke="black" d="M2845.5,-106C2852.67,-106 2860.74,-106 2868.98,-106"/>
<polygon fill="black" stroke="black" points="2868.75,-109.5 2878.75,-106 2868.75,-102.5 2868.75,-109.5"/>
</g>
<!-- 2272684611184&#45;&gt;2272690512688 -->
<g id="edge34" class="edge">
<title>2272684611184&#45;&gt;2272690512688</title>
<path fill="none" stroke="black" d="M2743.68,-67.8C2756.83,-74.68 2776.24,-84.83 2791.76,-92.94"/>
<polygon fill="black" stroke="black" points="2789.92,-95.93 2800.41,-97.46 2793.17,-89.72 2789.92,-95.93"/>
</g>
<!-- 2272684613392&#45;&gt;2272684611184 -->
<g id="edge35" class="edge">
<title>2272684613392&#45;&gt;2272684611184</title>
<path fill="none" stroke="black" d="M2637.48,-33.76C2657.68,-39.7 2679.92,-46.23 2697.14,-51.3"/>
<polygon fill="black" stroke="black" points="2696.15,-54.65 2706.73,-54.11 2698.12,-47.94 2696.15,-54.65"/>
</g>
<!-- 2272684291808 -->
<g id="node29" class="node">
<title>2272684291808</title>
<polygon fill="none" stroke="black" points="3128,-124 3020.5,-124 3020.5,-88 3128,-88 3128,-124"/>
<text text-anchor="middle" x="3074.25" y="-100.97" font-family="Times New Roman,serif" font-size="12.00">Close audit process</text>
</g>
<!-- 2272690513120&#45;&gt;2272684291808 -->
<g id="edge36" class="edge">
<title>2272690513120&#45;&gt;2272684291808</title>
<path fill="none" stroke="black" d="M2984.82,-106C2992.65,-106 3000.82,-106 3008.89,-106"/>
<polygon fill="black" stroke="black" points="3008.67,-109.5 3018.67,-106 3008.67,-102.5 3008.67,-109.5"/>
</g>
<!-- 2272684612384 -->
<g id="node30" class="node">
<title>2272684612384</title>
<polygon fill="none" stroke="black" points="3191,-124 3164,-106 3191,-88 3218,-106 3191,-124"/>
<text text-anchor="middle" x="3191" y="-100.97" font-family="Times New Roman,serif" font-size="12.00">X</text>
</g>
<!-- 2272684291808&#45;&gt;2272684612384 -->
<g id="edge37" class="edge">
<title>2272684291808&#45;&gt;2272684612384</title>
<path fill="none" stroke="black" d="M3128.26,-106C3136.2,-106 3144.25,-106 3151.8,-106"/>
<polygon fill="black" stroke="black" points="3151.65,-109.5 3161.65,-106 3151.65,-102.5 3151.65,-109.5"/>
</g>
<!-- 2272684611232 -->
<g id="node31" class="node">
<title>2272684611232</title>
<polygon fill="none" stroke="black" points="3381.75,-149 3254,-149 3254,-113 3381.75,-113 3381.75,-149"/>
<text text-anchor="middle" x="3317.88" y="-125.97" font-family="Times New Roman,serif" font-size="12.00">Send report for revision</text>
</g>
<!-- 2272684612384&#45;&gt;2272684611232 -->
<g id="edge39" class="edge">
<title>2272684612384&#45;&gt;2272684611232</title>
<path fill="none" stroke="black" d="M3212.62,-110.13C3221.14,-111.83 3231.58,-113.92 3242.54,-116.12"/>
<polygon fill="black" stroke="black" points="3241.63,-119.5 3252.12,-118.04 3243,-112.64 3241.63,-119.5"/>
</g>
<!-- 2272690516048 -->
<g id="node32" class="node">
<title>2272690516048</title>
<polygon fill="none" stroke="black" points="3569.88,-97 3452.62,-97 3452.62,-61 3569.88,-61 3569.88,-97"/>
<text text-anchor="middle" x="3511.25" y="-73.97" font-family="Times New Roman,serif" font-size="12.00">Distribute final report</text>
</g>
<!-- 2272684612384&#45;&gt;2272690516048 -->
<g id="edge38" class="edge">
<title>2272684612384&#45;&gt;2272690516048</title>
<path fill="none" stroke="black" d="M3215.66,-103.99C3262.77,-100 3369.87,-90.91 3441.11,-84.87"/>
<polygon fill="black" stroke="black" points="3441.05,-88.38 3450.72,-84.05 3440.46,-81.41 3441.05,-88.38"/>
</g>
<!-- 2272684612720 -->
<g id="node34" class="node">
<title>2272684612720</title>
<polygon fill="none" stroke="black" points="3604.75,-151 3417.75,-151 3417.75,-115 3604.75,-115 3604.75,-151"/>
<text text-anchor="middle" x="3511.25" y="-127.97" font-family="Times New Roman,serif" font-size="12.00">Complete risk assessment/mitigation</text>
</g>
<!-- 2272684611232&#45;&gt;2272684612720 -->
<g id="edge40" class="edge">
<title>2272684611232&#45;&gt;2272684612720</title>
<path fill="none" stroke="black" d="M3382.07,-131.66C3389.76,-131.74 3397.78,-131.82 3405.88,-131.91"/>
<polygon fill="black" stroke="black" points="3405.81,-135.41 3415.84,-132.01 3405.88,-128.41 3405.81,-135.41"/>
</g>
<!-- 2272684618768 -->
<g id="node33" class="node">
<title>2272684618768</title>
<polygon fill="none" stroke="black" points="3811.25,-124 3784.25,-106 3811.25,-88 3838.25,-106 3811.25,-124"/>
<text text-anchor="middle" x="3811.25" y="-100.97" font-family="Times New Roman,serif" font-size="12.00">X</text>
</g>
<!-- 2272690516048&#45;&gt;2272684618768 -->
<g id="edge41" class="edge">
<title>2272690516048&#45;&gt;2272684618768</title>
<path fill="none" stroke="black" d="M3570.06,-84.24C3631.02,-89.76 3725.05,-98.28 3775.48,-102.85"/>
<polygon fill="black" stroke="black" points="3774.94,-106.32 3785.22,-103.73 3775.57,-99.34 3774.94,-106.32"/>
</g>
<!-- 2272690516960 -->
<g id="node36" class="node">
<title>2272690516960</title>
<polygon fill="none" stroke="black" points="4019.25,-124 3874.25,-124 3874.25,-88 4019.25,-88 4019.25,-124"/>
<text text-anchor="middle" x="3946.75" y="-100.97" font-family="Times New Roman,serif" font-size="12.00">Update and resubmit report</text>
</g>
<!-- 2272684618768&#45;&gt;2272690516960 -->
<g id="edge42" class="edge">
<title>2272684618768&#45;&gt;2272690516960</title>
<path fill="none" stroke="black" d="M3838.94,-106C3846.09,-106 3854.2,-106 3862.69,-106"/>
<polygon fill="black" stroke="black" points="3862.5,-109.5 3872.5,-106 3862.5,-102.5 3862.5,-109.5"/>
</g>
<!-- 2272684288688 -->
<g id="node35" class="node">
<title>2272684288688</title>
<polygon fill="none" stroke="black" points="3748.25,-149 3640.75,-149 3640.75,-113 3748.25,-113 3748.25,-149"/>
<text text-anchor="middle" x="3694.5" y="-125.97" font-family="Times New Roman,serif" font-size="12.00">Close audit process</text>
</g>
<!-- 2272684612720&#45;&gt;2272684288688 -->
<g id="edge43" class="edge">
<title>2272684612720&#45;&gt;2272684288688</title>
<path fill="none" stroke="black" d="M3605,-131.98C3613.19,-131.89 3621.36,-131.8 3629.24,-131.71"/>
<polygon fill="black" stroke="black" points="3629.07,-135.21 3639.03,-131.6 3628.99,-128.21 3629.07,-135.21"/>
</g>
<!-- 2272684288688&#45;&gt;2272684618768 -->
<g id="edge44" class="edge">
<title>2272684288688&#45;&gt;2272684618768</title>
<path fill="none" stroke="black" d="M3748.51,-119.45C3758.91,-117.18 3769.51,-114.88 3778.92,-112.83"/>
<polygon fill="black" stroke="black" points="3779.6,-116.26 3788.63,-110.71 3778.11,-109.42 3779.6,-116.26"/>
</g>
<!-- 2272693192992 -->
<g id="node37" class="node">
<title>2272693192992</title>
<polygon fill="none" stroke="black" points="4140.25,-124 4055.25,-124 4055.25,-88 4140.25,-88 4140.25,-124"/>
<text text-anchor="middle" x="4097.75" y="-100.97" font-family="Times New Roman,serif" font-size="12.00">Archive report</text>
</g>
<!-- 2272690516960&#45;&gt;2272693192992 -->
<g id="edge45" class="edge">
<title>2272690516960&#45;&gt;2272693192992</title>
<path fill="none" stroke="black" d="M4019.63,-106C4027.64,-106 4035.68,-106 4043.4,-106"/>
<polygon fill="black" stroke="black" points="4043.29,-109.5 4053.29,-106 4043.29,-102.5 4043.29,-109.5"/>
</g>
<!-- 2272690513648 -->
<g id="node38" class="node">
<title>2272690513648</title>
<polygon fill="none" stroke="black" points="4301.75,-124 4176.25,-124 4176.25,-88 4301.75,-88 4301.75,-124"/>
<text text-anchor="middle" x="4239" y="-100.97" font-family="Times New Roman,serif" font-size="12.00">Evaluate financial risks</text>
</g>
<!-- 2272693192992&#45;&gt;2272690513648 -->
<g id="edge46" class="edge">
<title>2272693192992&#45;&gt;2272690513648</title>
<path fill="none" stroke="black" d="M4140.53,-106C4148.19,-106 4156.38,-106 4164.64,-106"/>
<polygon fill="black" stroke="black" points="4164.4,-109.5 4174.4,-106 4164.4,-102.5 4164.4,-109.5"/>
</g>
<!-- 2272685276624 -->
<g id="node39" class="node">
<title>2272685276624</title>
<ellipse fill="orange" stroke="black" cx="4355.75" cy="-106" rx="18" ry="18"/>
</g>
<!-- 2272690513648&#45;&gt;2272685276624 -->
<g id="edge47" class="edge">
<title>2272690513648&#45;&gt;2272685276624</title>
<path fill="none" stroke="black" d="M4302.08,-106C4310.47,-106 4318.72,-106 4326.12,-106"/>
<polygon fill="black" stroke="black" points="4326.11,-109.5 4336.11,-106 4326.11,-102.5 4326.11,-109.5"/>
</g>
</g>
</svg>
