<?xml version="1.0" encoding="UTF-8" standalone="no"?>
<!DOCTYPE svg PUBLIC "-//W3C//DTD SVG 1.1//EN"
 "http://www.w3.org/Graphics/SVG/1.1/DTD/svg11.dtd">
<!-- Generated by graphviz version 11.0.0 (20240428.1522)
 -->
<!-- Pages: 1 -->
<svg width="4476pt" height="283pt"
 viewBox="0.00 0.00 4476.25 283.00" xmlns="http://www.w3.org/2000/svg" xmlns:xlink="http://www.w3.org/1999/xlink">
<g id="graph0" class="graph" transform="scale(1 1) rotate(0) translate(4 279)">
<polygon fill="white" stroke="none" points="-4,4 -4,-279 4472.25,-279 4472.25,4 -4,4"/>
<!-- 2272686003008 -->
<g id="node1" class="node">
<title>2272686003008</title>
<ellipse fill="green" stroke="black" cx="18" cy="-72" rx="18" ry="18"/>
</g>
<!-- 2272686142576 -->
<g id="node2" class="node">
<title>2272686142576</title>
<polygon fill="none" stroke="black" points="209.5,-90 72,-90 72,-54 209.5,-54 209.5,-90"/>
<text text-anchor="middle" x="140.75" y="-66.97" font-family="Times New Roman,serif" font-size="12.00">Evaluate operational risks</text>
</g>
<!-- 2272686003008&#45;&gt;2272686142576 -->
<g id="edge1" class="edge">
<title>2272686003008&#45;&gt;2272686142576</title>
<path fill="none" stroke="black" d="M36.3,-72C43.04,-72 51.28,-72 60.13,-72"/>
<polygon fill="black" stroke="black" points="60.09,-75.5 70.09,-72 60.09,-68.5 60.09,-75.5"/>
</g>
<!-- 2272686142048 -->
<g id="node3" class="node">
<title>2272686142048</title>
<polygon fill="none" stroke="black" points="272.5,-90 245.5,-72 272.5,-54 299.5,-72 272.5,-90"/>
<text text-anchor="middle" x="272.5" y="-66.97" font-family="Times New Roman,serif" font-size="12.00">+</text>
</g>
<!-- 2272686142576&#45;&gt;2272686142048 -->
<g id="edge2" class="edge">
<title>2272686142576&#45;&gt;2272686142048</title>
<path fill="none" stroke="black" d="M209.67,-72C217.87,-72 226.02,-72 233.57,-72"/>
<polygon fill="black" stroke="black" points="233.36,-75.5 243.36,-72 233.36,-68.5 233.36,-75.5"/>
</g>
<!-- 2272689809136 -->
<g id="node4" class="node">
<title>2272689809136</title>
<polygon fill="none" stroke="black" points="463.25,-144 335.5,-144 335.5,-108 463.25,-108 463.25,-144"/>
<text text-anchor="middle" x="399.38" y="-120.97" font-family="Times New Roman,serif" font-size="12.00">Send report for revision</text>
</g>
<!-- 2272686142048&#45;&gt;2272689809136 -->
<g id="edge3" class="edge">
<title>2272686142048&#45;&gt;2272689809136</title>
<path fill="none" stroke="black" d="M289.55,-79.02C302.06,-84.48 319.88,-92.24 335.5,-99 338.62,-100.35 341.82,-101.73 345.05,-103.12"/>
<polygon fill="black" stroke="black" points="343.45,-106.24 354.02,-106.99 346.22,-99.82 343.45,-106.24"/>
</g>
<!-- 2272689814704 -->
<g id="node5" class="node">
<title>2272689814704</title>
<polygon fill="none" stroke="black" points="443.75,-90 355,-90 355,-54 443.75,-54 443.75,-90"/>
<text text-anchor="middle" x="399.38" y="-66.97" font-family="Times New Roman,serif" font-size="12.00">Approve report</text>
</g>
<!-- 2272686142048&#45;&gt;2272689814704 -->
<g id="edge4" class="edge">
<title>2272686142048&#45;&gt;2272689814704</title>
<path fill="none" stroke="black" d="M300.29,-72C312.97,-72 328.59,-72 343.62,-72"/>
<polygon fill="black" stroke="black" points="343.42,-75.5 353.42,-72 343.42,-68.5 343.42,-75.5"/>
</g>
<!-- 2272686133072 -->
<g id="node6" class="node">
<title>2272686133072</title>
<polygon fill="none" stroke="black" points="447.5,-36 351.25,-36 351.25,0 447.5,0 447.5,-36"/>
<text text-anchor="middle" x="399.38" y="-12.97" font-family="Times New Roman,serif" font-size="12.00">Send notification</text>
</g>
<!-- 2272686142048&#45;&gt;2272686133072 -->
<g id="edge5" class="edge">
<title>2272686142048&#45;&gt;2272686133072</title>
<path fill="none" stroke="black" d="M289.55,-64.98C302.06,-59.52 319.88,-51.76 335.5,-45 338.62,-43.65 341.82,-42.27 345.05,-40.88"/>
<polygon fill="black" stroke="black" points="346.22,-44.18 354.02,-37.01 343.45,-37.76 346.22,-44.18"/>
</g>
<!-- 2272686133840 -->
<g id="node7" class="node">
<title>2272686133840</title>
<polygon fill="none" stroke="black" points="526.25,-90 499.25,-72 526.25,-54 553.25,-72 526.25,-90"/>
<text text-anchor="middle" x="526.25" y="-66.97" font-family="Times New Roman,serif" font-size="12.00">+</text>
</g>
<!-- 2272689809136&#45;&gt;2272686133840 -->
<g id="edge6" class="edge">
<title>2272689809136&#45;&gt;2272686133840</title>
<path fill="none" stroke="black" d="M443.34,-107.58C450.01,-104.72 456.82,-101.78 463.25,-99 474.97,-93.93 487.92,-88.3 498.94,-83.49"/>
<polygon fill="black" stroke="black" points="500.05,-86.83 507.81,-79.62 497.25,-80.41 500.05,-86.83"/>
</g>
<!-- 2272689814704&#45;&gt;2272686133840 -->
<g id="edge7" class="edge">
<title>2272689814704&#45;&gt;2272686133840</title>
<path fill="none" stroke="black" d="M444.05,-72C458.08,-72 473.51,-72 487.12,-72"/>
<polygon fill="black" stroke="black" points="487.01,-75.5 497.01,-72 487.01,-68.5 487.01,-75.5"/>
</g>
<!-- 2272686133072&#45;&gt;2272686133840 -->
<g id="edge8" class="edge">
<title>2272686133072&#45;&gt;2272686133840</title>
<path fill="none" stroke="black" d="M443.34,-36.42C450.01,-39.28 456.82,-42.22 463.25,-45 474.97,-50.07 487.92,-55.7 498.94,-60.51"/>
<polygon fill="black" stroke="black" points="497.25,-63.59 507.81,-64.38 500.05,-57.17 497.25,-63.59"/>
</g>
<!-- 2272686130000 -->
<g id="node8" class="node">
<title>2272686130000</title>
<polygon fill="none" stroke="black" points="708.75,-90 589.25,-90 589.25,-54 708.75,-54 708.75,-90"/>
<text text-anchor="middle" x="649" y="-66.97" font-family="Times New Roman,serif" font-size="12.00">Conduct data analysis</text>
</g>
<!-- 2272686133840&#45;&gt;2272686130000 -->
<g id="edge9" class="edge">
<title>2272686133840&#45;&gt;2272686130000</title>
<path fill="none" stroke="black" d="M554.05,-72C561.21,-72 569.3,-72 577.66,-72"/>
<polygon fill="black" stroke="black" points="577.63,-75.5 587.63,-72 577.63,-68.5 577.63,-75.5"/>
</g>
<!-- 2272686009824 -->
<g id="node9" class="node">
<title>2272686009824</title>
<polygon fill="none" stroke="black" points="883.75,-90 744.75,-90 744.75,-54 883.75,-54 883.75,-90"/>
<text text-anchor="middle" x="814.25" y="-66.97" font-family="Times New Roman,serif" font-size="12.00">Evaluate compliance risks</text>
</g>
<!-- 2272686130000&#45;&gt;2272686009824 -->
<g id="edge10" class="edge">
<title>2272686130000&#45;&gt;2272686009824</title>
<path fill="none" stroke="black" d="M708.94,-72C716.76,-72 724.88,-72 732.99,-72"/>
<polygon fill="black" stroke="black" points="732.89,-75.5 742.89,-72 732.89,-68.5 732.89,-75.5"/>
</g>
<!-- 2272689527008 -->
<g id="node10" class="node">
<title>2272689527008</title>
<polygon fill="none" stroke="black" points="946.75,-90 919.75,-72 946.75,-54 973.75,-72 946.75,-90"/>
<text text-anchor="middle" x="946.75" y="-66.97" font-family="Times New Roman,serif" font-size="12.00">X</text>
</g>
<!-- 2272686009824&#45;&gt;2272689527008 -->
<g id="edge11" class="edge">
<title>2272686009824&#45;&gt;2272689527008</title>
<path fill="none" stroke="black" d="M883.94,-72C891.98,-72 899.96,-72 907.37,-72"/>
<polygon fill="black" stroke="black" points="907.34,-75.5 917.34,-72 907.34,-68.5 907.34,-75.5"/>
</g>
<!-- 2272689806544 -->
<g id="node11" class="node">
<title>2272689806544</title>
<polygon fill="none" stroke="black" points="1164.5,-115 1009.75,-115 1009.75,-79 1164.5,-79 1164.5,-115"/>
<text text-anchor="middle" x="1087.12" y="-91.97" font-family="Times New Roman,serif" font-size="12.00">Launch detailed investigation</text>
</g>
<!-- 2272689527008&#45;&gt;2272689806544 -->
<g id="edge12" class="edge">
<title>2272689527008&#45;&gt;2272689806544</title>
<path fill="none" stroke="black" d="M968.77,-75.8C977.16,-77.31 987.43,-79.17 998.37,-81.14"/>
<polygon fill="black" stroke="black" points="997.53,-84.55 1007.99,-82.88 998.77,-77.66 997.53,-84.55"/>
</g>
<!-- 2272686132208 -->
<g id="node12" class="node">
<title>2272686132208</title>
<polygon fill="none" stroke="black" points="1314,-63 1200.5,-63 1200.5,-27 1314,-27 1314,-63"/>
<text text-anchor="middle" x="1257.25" y="-39.98" font-family="Times New Roman,serif" font-size="12.00">Compile audit report</text>
</g>
<!-- 2272689527008&#45;&gt;2272686132208 -->
<g id="edge13" class="edge">
<title>2272689527008&#45;&gt;2272686132208</title>
<path fill="none" stroke="black" d="M971.45,-69.93C1017.42,-65.9 1120.24,-56.9 1188.92,-50.89"/>
<polygon fill="black" stroke="black" points="1188.89,-54.41 1198.55,-50.05 1188.28,-47.44 1188.89,-54.41"/>
</g>
<!-- 2272689812112 -->
<g id="node14" class="node">
<title>2272689812112</title>
<polygon fill="none" stroke="black" points="1314,-117 1200.5,-117 1200.5,-81 1314,-81 1314,-117"/>
<text text-anchor="middle" x="1257.25" y="-93.97" font-family="Times New Roman,serif" font-size="12.00">Compile audit report</text>
</g>
<!-- 2272689806544&#45;&gt;2272689812112 -->
<g id="edge14" class="edge">
<title>2272689806544&#45;&gt;2272689812112</title>
<path fill="none" stroke="black" d="M1164.81,-97.91C1172.84,-98.01 1180.96,-98.1 1188.87,-98.2"/>
<polygon fill="black" stroke="black" points="1188.73,-101.7 1198.77,-98.32 1188.82,-94.7 1188.73,-101.7"/>
</g>
<!-- 2272689815040 -->
<g id="node13" class="node">
<title>2272689815040</title>
<polygon fill="none" stroke="black" points="1377,-90 1350,-72 1377,-54 1404,-72 1377,-90"/>
<text text-anchor="middle" x="1377" y="-66.97" font-family="Times New Roman,serif" font-size="12.00">X</text>
</g>
<!-- 2272686132208&#45;&gt;2272689815040 -->
<g id="edge15" class="edge">
<title>2272686132208&#45;&gt;2272689815040</title>
<path fill="none" stroke="black" d="M1314.37,-57.87C1324.86,-60.27 1335.47,-62.71 1344.87,-64.86"/>
<polygon fill="black" stroke="black" points="1344,-68.25 1354.53,-67.08 1345.57,-61.43 1344,-68.25"/>
</g>
<!-- 2272686135328 -->
<g id="node15" class="node">
<title>2272686135328</title>
<polygon fill="none" stroke="black" points="1540,-90 1440,-90 1440,-54 1540,-54 1540,-90"/>
<text text-anchor="middle" x="1490" y="-66.97" font-family="Times New Roman,serif" font-size="12.00">Perform site visits</text>
</g>
<!-- 2272689815040&#45;&gt;2272686135328 -->
<g id="edge17" class="edge">
<title>2272689815040&#45;&gt;2272686135328</title>
<path fill="none" stroke="black" d="M1404.87,-72C1412.1,-72 1420.23,-72 1428.51,-72"/>
<polygon fill="black" stroke="black" points="1428.31,-75.5 1438.31,-72 1428.31,-68.5 1428.31,-75.5"/>
</g>
<!-- 2272689812112&#45;&gt;2272689815040 -->
<g id="edge16" class="edge">
<title>2272689812112&#45;&gt;2272689815040</title>
<path fill="none" stroke="black" d="M1314.37,-86.13C1324.86,-83.73 1335.47,-81.29 1344.87,-79.14"/>
<polygon fill="black" stroke="black" points="1345.57,-82.57 1354.53,-76.92 1344,-75.75 1345.57,-82.57"/>
</g>
<!-- 2272686139360 -->
<g id="node16" class="node">
<title>2272686139360</title>
<polygon fill="none" stroke="black" points="1603,-90 1576,-72 1603,-54 1630,-72 1603,-90"/>
<text text-anchor="middle" x="1603" y="-66.97" font-family="Times New Roman,serif" font-size="12.00">+</text>
</g>
<!-- 2272686135328&#45;&gt;2272686139360 -->
<g id="edge18" class="edge">
<title>2272686135328&#45;&gt;2272686139360</title>
<path fill="none" stroke="black" d="M1540.33,-72C1548.24,-72 1556.31,-72 1563.9,-72"/>
<polygon fill="black" stroke="black" points="1563.82,-75.5 1573.82,-72 1563.82,-68.5 1563.82,-75.5"/>
</g>
<!-- 2272689810192 -->
<g id="node17" class="node">
<title>2272689810192</title>
<polygon fill="none" stroke="black" points="1813.25,-144 1666,-144 1666,-108 1813.25,-108 1813.25,-144"/>
<text text-anchor="middle" x="1739.62" y="-120.97" font-family="Times New Roman,serif" font-size="12.00">Prepare financial statements</text>
</g>
<!-- 2272686139360&#45;&gt;2272689810192 -->
<g id="edge19" class="edge">
<title>2272686139360&#45;&gt;2272689810192</title>
<path fill="none" stroke="black" d="M1619.96,-79.24C1632.42,-84.82 1650.21,-92.63 1666,-99 1669.78,-100.52 1673.68,-102.06 1677.62,-103.6"/>
<polygon fill="black" stroke="black" points="1676.09,-106.76 1686.68,-107.08 1678.6,-100.22 1676.09,-106.76"/>
</g>
<!-- 2272689815280 -->
<g id="node18" class="node">
<title>2272689815280</title>
<polygon fill="none" stroke="black" points="1798.25,-90 1681,-90 1681,-54 1798.25,-54 1798.25,-90"/>
<text text-anchor="middle" x="1739.62" y="-66.97" font-family="Times New Roman,serif" font-size="12.00">Receive clarifications</text>
</g>
<!-- 2272686139360&#45;&gt;2272689815280 -->
<g id="edge20" class="edge">
<title>2272686139360&#45;&gt;2272689815280</title>
<path fill="none" stroke="black" d="M1630.6,-72C1641.79,-72 1655.39,-72 1669.12,-72"/>
<polygon fill="black" stroke="black" points="1669.11,-75.5 1679.11,-72 1669.11,-68.5 1669.11,-75.5"/>
</g>
<!-- 2272686129952 -->
<g id="node19" class="node">
<title>2272686129952</title>
<polygon fill="none" stroke="black" points="1793.75,-36 1685.5,-36 1685.5,0 1793.75,0 1793.75,-36"/>
<text text-anchor="middle" x="1739.62" y="-12.97" font-family="Times New Roman,serif" font-size="12.00">Review submission</text>
</g>
<!-- 2272686139360&#45;&gt;2272686129952 -->
<g id="edge21" class="edge">
<title>2272686139360&#45;&gt;2272686129952</title>
<path fill="none" stroke="black" d="M1619.96,-64.76C1632.42,-59.18 1650.21,-51.37 1666,-45 1669.78,-43.48 1673.68,-41.94 1677.62,-40.4"/>
<polygon fill="black" stroke="black" points="1678.6,-43.78 1686.68,-36.92 1676.09,-37.24 1678.6,-43.78"/>
</g>
<!-- 2272689808704 -->
<g id="node20" class="node">
<title>2272689808704</title>
<polygon fill="none" stroke="black" points="1876.25,-90 1849.25,-72 1876.25,-54 1903.25,-72 1876.25,-90"/>
<text text-anchor="middle" x="1876.25" y="-66.97" font-family="Times New Roman,serif" font-size="12.00">+</text>
</g>
<!-- 2272689810192&#45;&gt;2272689808704 -->
<g id="edge22" class="edge">
<title>2272689810192&#45;&gt;2272689808704</title>
<path fill="none" stroke="black" d="M1791.16,-107.62C1798.59,-104.8 1806.14,-101.87 1813.25,-99 1825.09,-94.22 1838.06,-88.63 1849.06,-83.78"/>
<polygon fill="black" stroke="black" points="1850.19,-87.11 1857.91,-79.85 1847.35,-80.71 1850.19,-87.11"/>
</g>
<!-- 2272689815280&#45;&gt;2272689808704 -->
<g id="edge23" class="edge">
<title>2272689815280&#45;&gt;2272689808704</title>
<path fill="none" stroke="black" d="M1798.5,-72C1811.54,-72 1825.06,-72 1837.06,-72"/>
<polygon fill="black" stroke="black" points="1836.96,-75.5 1846.96,-72 1836.96,-68.5 1836.96,-75.5"/>
</g>
<!-- 2272686129952&#45;&gt;2272689808704 -->
<g id="edge24" class="edge">
<title>2272686129952&#45;&gt;2272689808704</title>
<path fill="none" stroke="black" d="M1791.16,-36.38C1798.59,-39.2 1806.14,-42.13 1813.25,-45 1825.09,-49.78 1838.06,-55.37 1849.06,-60.22"/>
<polygon fill="black" stroke="black" points="1847.35,-63.29 1857.91,-64.15 1850.19,-56.89 1847.35,-63.29"/>
</g>
<!-- 2272689812448 -->
<g id="node21" class="node">
<title>2272689812448</title>
<polygon fill="none" stroke="black" points="1966.25,-90 1939.25,-72 1966.25,-54 1993.25,-72 1966.25,-90"/>
<text text-anchor="middle" x="1966.25" y="-66.97" font-family="Times New Roman,serif" font-size="12.00">X</text>
</g>
<!-- 2272689808704&#45;&gt;2272689812448 -->
<g id="edge25" class="edge">
<title>2272689808704&#45;&gt;2272689812448</title>
<path fill="none" stroke="black" d="M1904.13,-72C1911.38,-72 1919.37,-72 1927.1,-72"/>
<polygon fill="black" stroke="black" points="1927.02,-75.5 1937.02,-72 1927.02,-68.5 1927.02,-75.5"/>
</g>
<!-- 2272689813216 -->
<g id="node22" class="node">
<title>2272689813216</title>
<polygon fill="none" stroke="black" points="2056.25,-140 2029.25,-122 2056.25,-104 2083.25,-122 2056.25,-140"/>
<text text-anchor="middle" x="2056.25" y="-116.97" font-family="Times New Roman,serif" font-size="12.00">+</text>
</g>
<!-- 2272689812448&#45;&gt;2272689813216 -->
<g id="edge26" class="edge">
<title>2272689812448&#45;&gt;2272689813216</title>
<path fill="none" stroke="black" d="M1981.39,-80.03C1994.78,-87.64 2015.16,-99.22 2031.12,-108.29"/>
<polygon fill="black" stroke="black" points="2029.11,-111.18 2039.54,-113.07 2032.57,-105.09 2029.11,-111.18"/>
</g>
<!-- 2272686013280 -->
<g id="node23" class="node">
<title>2272686013280</title>
<polygon fill="none" stroke="black" points="2406.25,-67 2302.5,-67 2302.5,-31 2406.25,-31 2406.25,-67"/>
<text text-anchor="middle" x="2354.38" y="-43.98" font-family="Times New Roman,serif" font-size="12.00">Submit documents</text>
</g>
<!-- 2272689812448&#45;&gt;2272686013280 -->
<g id="edge27" class="edge">
<title>2272689812448&#45;&gt;2272686013280</title>
<path fill="none" stroke="black" d="M1991.7,-70.54C2051.03,-67.01 2204.17,-57.89 2290.95,-52.72"/>
<polygon fill="black" stroke="black" points="2290.94,-56.23 2300.72,-52.14 2290.53,-49.24 2290.94,-56.23"/>
</g>
<!-- 2272686145456 -->
<g id="node25" class="node">
<title>2272686145456</title>
<polygon fill="none" stroke="black" points="2266.5,-221 2119.25,-221 2119.25,-185 2266.5,-185 2266.5,-221"/>
<text text-anchor="middle" x="2192.88" y="-197.97" font-family="Times New Roman,serif" font-size="12.00">Prepare financial statements</text>
</g>
<!-- 2272689813216&#45;&gt;2272686145456 -->
<g id="edge28" class="edge">
<title>2272689813216&#45;&gt;2272686145456</title>
<path fill="none" stroke="black" d="M2067.3,-132.84C2078.86,-144.78 2098.88,-163.89 2119.25,-176 2121.28,-177.21 2123.38,-178.38 2125.52,-179.51"/>
<polygon fill="black" stroke="black" points="2123.91,-182.62 2134.44,-183.85 2126.98,-176.33 2123.91,-182.62"/>
</g>
<!-- 2272686144208 -->
<g id="node26" class="node">
<title>2272686144208</title>
<polygon fill="none" stroke="black" points="2247,-167 2138.75,-167 2138.75,-131 2247,-131 2247,-167"/>
<text text-anchor="middle" x="2192.88" y="-143.97" font-family="Times New Roman,serif" font-size="12.00">Review submission</text>
</g>
<!-- 2272689813216&#45;&gt;2272686144208 -->
<g id="edge30" class="edge">
<title>2272689813216&#45;&gt;2272686144208</title>
<path fill="none" stroke="black" d="M2077.7,-126.1C2091.04,-128.78 2109.25,-132.43 2127.22,-136.03"/>
<polygon fill="black" stroke="black" points="2126.34,-139.43 2136.84,-137.96 2127.72,-132.56 2126.34,-139.43"/>
</g>
<!-- 2272686013520 -->
<g id="node27" class="node">
<title>2272686013520</title>
<polygon fill="none" stroke="black" points="2251.5,-113 2134.25,-113 2134.25,-77 2251.5,-77 2251.5,-113"/>
<text text-anchor="middle" x="2192.88" y="-89.97" font-family="Times New Roman,serif" font-size="12.00">Receive clarifications</text>
</g>
<!-- 2272689813216&#45;&gt;2272686013520 -->
<g id="edge29" class="edge">
<title>2272689813216&#45;&gt;2272686013520</title>
<path fill="none" stroke="black" d="M2077.7,-117.9C2090.01,-115.43 2106.47,-112.13 2123.05,-108.8"/>
<polygon fill="black" stroke="black" points="2123.32,-112.32 2132.44,-106.92 2121.94,-105.46 2123.32,-112.32"/>
</g>
<!-- 2272689810288 -->
<g id="node24" class="node">
<title>2272689810288</title>
<polygon fill="none" stroke="black" points="2898.75,-117 2871.75,-99 2898.75,-81 2925.75,-99 2898.75,-117"/>
<text text-anchor="middle" x="2898.75" y="-93.97" font-family="Times New Roman,serif" font-size="12.00">X</text>
</g>
<!-- 2272686013280&#45;&gt;2272689810288 -->
<g id="edge31" class="edge">
<title>2272686013280&#45;&gt;2272689810288</title>
<path fill="none" stroke="black" d="M2406.29,-52.41C2456.96,-55.91 2536.9,-61.71 2606,-68 2699.38,-76.5 2809.31,-88.8 2863.72,-95.05"/>
<polygon fill="black" stroke="black" points="2863.24,-98.51 2873.57,-96.18 2864.04,-91.56 2863.24,-98.51"/>
</g>
<!-- 2272686144496 -->
<g id="node28" class="node">
<title>2272686144496</title>
<polygon fill="none" stroke="black" points="3069.25,-117 2961.75,-117 2961.75,-81 3069.25,-81 3069.25,-117"/>
<text text-anchor="middle" x="3015.5" y="-93.97" font-family="Times New Roman,serif" font-size="12.00">Close audit process</text>
</g>
<!-- 2272689810288&#45;&gt;2272686144496 -->
<g id="edge32" class="edge">
<title>2272689810288&#45;&gt;2272686144496</title>
<path fill="none" stroke="black" d="M2926.36,-99C2933.56,-99 2941.66,-99 2949.97,-99"/>
<polygon fill="black" stroke="black" points="2949.85,-102.5 2959.85,-99 2949.85,-95.5 2949.85,-102.5"/>
</g>
<!-- 2272686141664 -->
<g id="node29" class="node">
<title>2272686141664</title>
<polygon fill="none" stroke="black" points="2354.38,-167 2327.38,-149 2354.38,-131 2381.38,-149 2354.38,-167"/>
<text text-anchor="middle" x="2354.38" y="-143.97" font-family="Times New Roman,serif" font-size="12.00">+</text>
</g>
<!-- 2272686145456&#45;&gt;2272686141664 -->
<g id="edge33" class="edge">
<title>2272686145456&#45;&gt;2272686141664</title>
<path fill="none" stroke="black" d="M2248.32,-184.57C2274.06,-175.85 2303.72,-165.81 2324.94,-158.63"/>
<polygon fill="black" stroke="black" points="2326.01,-161.96 2334.36,-155.44 2323.76,-155.33 2326.01,-161.96"/>
</g>
<!-- 2272686144208&#45;&gt;2272686141664 -->
<g id="edge34" class="edge">
<title>2272686144208&#45;&gt;2272686141664</title>
<path fill="none" stroke="black" d="M2247.43,-149C2269.67,-149 2294.97,-149 2315.27,-149"/>
<polygon fill="black" stroke="black" points="2315.07,-152.5 2325.07,-149 2315.07,-145.5 2315.07,-152.5"/>
</g>
<!-- 2272686013520&#45;&gt;2272686141664 -->
<g id="edge35" class="edge">
<title>2272686013520&#45;&gt;2272686141664</title>
<path fill="none" stroke="black" d="M2248.32,-113.43C2274.06,-122.15 2303.72,-132.19 2324.94,-139.37"/>
<polygon fill="black" stroke="black" points="2323.76,-142.67 2334.36,-142.56 2326.01,-136.04 2323.76,-142.67"/>
</g>
<!-- 2272689813648 -->
<g id="node30" class="node">
<title>2272689813648</title>
<polygon fill="none" stroke="black" points="3132.25,-117 3105.25,-99 3132.25,-81 3159.25,-99 3132.25,-117"/>
<text text-anchor="middle" x="3132.25" y="-93.97" font-family="Times New Roman,serif" font-size="12.00">X</text>
</g>
<!-- 2272686144496&#45;&gt;2272689813648 -->
<g id="edge36" class="edge">
<title>2272686144496&#45;&gt;2272689813648</title>
<path fill="none" stroke="black" d="M3069.51,-99C3077.45,-99 3085.5,-99 3093.05,-99"/>
<polygon fill="black" stroke="black" points="3092.9,-102.5 3102.9,-99 3092.9,-95.5 3092.9,-102.5"/>
</g>
<!-- 2272686135232 -->
<g id="node31" class="node">
<title>2272686135232</title>
<polygon fill="none" stroke="black" points="2599.62,-275 2448.62,-275 2448.62,-239 2599.62,-239 2599.62,-275"/>
<text text-anchor="middle" x="2524.12" y="-251.97" font-family="Times New Roman,serif" font-size="12.00">Gather necessary documents</text>
</g>
<!-- 2272686141664&#45;&gt;2272686135232 -->
<g id="edge40" class="edge">
<title>2272686141664&#45;&gt;2272686135232</title>
<path fill="none" stroke="black" d="M2364.87,-160.58C2379.69,-177.97 2409.99,-210.82 2442.25,-230 2444.42,-231.29 2446.66,-232.53 2448.95,-233.72"/>
<polygon fill="black" stroke="black" points="2447.37,-236.84 2457.9,-237.95 2450.36,-230.51 2447.37,-236.84"/>
</g>
<!-- 2272686144160 -->
<g id="node32" class="node">
<title>2272686144160</title>
<polygon fill="none" stroke="black" points="2592.5,-221 2455.75,-221 2455.75,-185 2592.5,-185 2592.5,-221"/>
<text text-anchor="middle" x="2524.12" y="-197.97" font-family="Times New Roman,serif" font-size="12.00">Check regulatory updates</text>
</g>
<!-- 2272686141664&#45;&gt;2272686144160 -->
<g id="edge39" class="edge">
<title>2272686141664&#45;&gt;2272686144160</title>
<path fill="none" stroke="black" d="M2373.33,-154.78C2392.9,-161.08 2425.41,-171.54 2455.15,-181.12"/>
<polygon fill="black" stroke="black" points="2453.92,-184.4 2464.51,-184.13 2456.06,-177.74 2453.92,-184.4"/>
</g>
<!-- 2272686008048 -->
<g id="node33" class="node">
<title>2272686008048</title>
<polygon fill="none" stroke="black" points="2578.25,-167 2470,-167 2470,-131 2578.25,-131 2578.25,-167"/>
<text text-anchor="middle" x="2524.12" y="-143.97" font-family="Times New Roman,serif" font-size="12.00">Conduct interviews</text>
</g>
<!-- 2272686141664&#45;&gt;2272686008048 -->
<g id="edge37" class="edge">
<title>2272686141664&#45;&gt;2272686008048</title>
<path fill="none" stroke="black" d="M2381.96,-149C2402.49,-149 2431.8,-149 2458.39,-149"/>
<polygon fill="black" stroke="black" points="2458.07,-152.5 2468.07,-149 2458.07,-145.5 2458.07,-152.5"/>
</g>
<!-- 2272686013376 -->
<g id="node34" class="node">
<title>2272686013376</title>
<polygon fill="none" stroke="black" points="2606,-113 2442.25,-113 2442.25,-77 2606,-77 2606,-113"/>
<text text-anchor="middle" x="2524.12" y="-89.97" font-family="Times New Roman,serif" font-size="12.00">Review report by audit director</text>
</g>
<!-- 2272686141664&#45;&gt;2272686013376 -->
<g id="edge38" class="edge">
<title>2272686141664&#45;&gt;2272686013376</title>
<path fill="none" stroke="black" d="M2373.33,-143.22C2392.9,-136.92 2425.41,-126.46 2455.15,-116.88"/>
<polygon fill="black" stroke="black" points="2456.06,-120.26 2464.51,-113.87 2453.92,-113.6 2456.06,-120.26"/>
</g>
<!-- 2272689811536 -->
<g id="node35" class="node">
<title>2272689811536</title>
<polygon fill="none" stroke="black" points="3323,-142 3195.25,-142 3195.25,-106 3323,-106 3323,-142"/>
<text text-anchor="middle" x="3259.12" y="-118.97" font-family="Times New Roman,serif" font-size="12.00">Send report for revision</text>
</g>
<!-- 2272689813648&#45;&gt;2272689811536 -->
<g id="edge42" class="edge">
<title>2272689813648&#45;&gt;2272689811536</title>
<path fill="none" stroke="black" d="M3153.87,-103.13C3162.39,-104.83 3172.83,-106.92 3183.79,-109.12"/>
<polygon fill="black" stroke="black" points="3182.88,-112.5 3193.37,-111.04 3184.25,-105.64 3182.88,-112.5"/>
</g>
<!-- 2272686009872 -->
<g id="node37" class="node">
<title>2272686009872</title>
<polygon fill="none" stroke="black" points="3511.12,-90 3393.88,-90 3393.88,-54 3511.12,-54 3511.12,-90"/>
<text text-anchor="middle" x="3452.5" y="-66.97" font-family="Times New Roman,serif" font-size="12.00">Distribute final report</text>
</g>
<!-- 2272689813648&#45;&gt;2272686009872 -->
<g id="edge41" class="edge">
<title>2272689813648&#45;&gt;2272686009872</title>
<path fill="none" stroke="black" d="M3156.91,-96.99C3204.02,-93 3311.12,-83.91 3382.36,-77.87"/>
<polygon fill="black" stroke="black" points="3382.3,-81.38 3391.97,-77.05 3381.71,-74.41 3382.3,-81.38"/>
</g>
<!-- 2272689808800 -->
<g id="node36" class="node">
<title>2272689808800</title>
<polygon fill="none" stroke="black" points="2669,-167 2642,-149 2669,-131 2696,-149 2669,-167"/>
<text text-anchor="middle" x="2669" y="-143.97" font-family="Times New Roman,serif" font-size="12.00">+</text>
</g>
<!-- 2272686135232&#45;&gt;2272689808800 -->
<g id="edge43" class="edge">
<title>2272686135232&#45;&gt;2272689808800</title>
<path fill="none" stroke="black" d="M2591.63,-238.51C2596.68,-236.01 2601.54,-233.18 2606,-230 2627.33,-214.78 2644.71,-190.09 2655.59,-171.97"/>
<polygon fill="black" stroke="black" points="2658.51,-173.9 2660.47,-163.49 2652.45,-170.41 2658.51,-173.9"/>
</g>
<!-- 2272686144160&#45;&gt;2272689808800 -->
<g id="edge44" class="edge">
<title>2272686144160&#45;&gt;2272689808800</title>
<path fill="none" stroke="black" d="M2582.35,-184.6C2590.33,-181.83 2598.4,-178.92 2606,-176 2618,-171.39 2631.08,-165.79 2642.12,-160.88"/>
<polygon fill="black" stroke="black" points="2643.3,-164.19 2650.98,-156.89 2640.42,-157.8 2643.3,-164.19"/>
</g>
<!-- 2272686008048&#45;&gt;2272689808800 -->
<g id="edge45" class="edge">
<title>2272686008048&#45;&gt;2272689808800</title>
<path fill="none" stroke="black" d="M2578.73,-149C2595.77,-149 2614.25,-149 2629.96,-149"/>
<polygon fill="black" stroke="black" points="2629.84,-152.5 2639.84,-149 2629.84,-145.5 2629.84,-152.5"/>
</g>
<!-- 2272686013376&#45;&gt;2272689808800 -->
<g id="edge46" class="edge">
<title>2272686013376&#45;&gt;2272689808800</title>
<path fill="none" stroke="black" d="M2582.35,-113.4C2590.33,-116.17 2598.4,-119.08 2606,-122 2618,-126.61 2631.08,-132.21 2642.12,-137.12"/>
<polygon fill="black" stroke="black" points="2640.42,-140.2 2650.98,-141.11 2643.3,-133.81 2640.42,-140.2"/>
</g>
<!-- 2272686007472 -->
<g id="node40" class="node">
<title>2272686007472</title>
<polygon fill="none" stroke="black" points="3546,-144 3359,-144 3359,-108 3546,-108 3546,-144"/>
<text text-anchor="middle" x="3452.5" y="-120.97" font-family="Times New Roman,serif" font-size="12.00">Complete risk assessment/mitigation</text>
</g>
<!-- 2272689811536&#45;&gt;2272686007472 -->
<g id="edge47" class="edge">
<title>2272689811536&#45;&gt;2272686007472</title>
<path fill="none" stroke="black" d="M3323.32,-124.66C3331.01,-124.74 3339.03,-124.82 3347.13,-124.91"/>
<polygon fill="black" stroke="black" points="3347.06,-128.41 3357.09,-125.01 3347.13,-121.41 3347.06,-128.41"/>
</g>
<!-- 2272689814992 -->
<g id="node39" class="node">
<title>2272689814992</title>
<polygon fill="none" stroke="black" points="2835.75,-142 2732,-142 2732,-106 2835.75,-106 2835.75,-142"/>
<text text-anchor="middle" x="2783.88" y="-118.97" font-family="Times New Roman,serif" font-size="12.00">Submit documents</text>
</g>
<!-- 2272689808800&#45;&gt;2272689814992 -->
<g id="edge48" class="edge">
<title>2272689808800&#45;&gt;2272689814992</title>
<path fill="none" stroke="black" d="M2690.18,-144.53C2698.93,-142.59 2709.7,-140.21 2720.76,-137.76"/>
<polygon fill="black" stroke="black" points="2721.37,-141.21 2730.38,-135.63 2719.86,-134.37 2721.37,-141.21"/>
</g>
<!-- 2272689808896 -->
<g id="node38" class="node">
<title>2272689808896</title>
<polygon fill="none" stroke="black" points="3752.5,-117 3725.5,-99 3752.5,-81 3779.5,-99 3752.5,-117"/>
<text text-anchor="middle" x="3752.5" y="-93.97" font-family="Times New Roman,serif" font-size="12.00">X</text>
</g>
<!-- 2272686009872&#45;&gt;2272689808896 -->
<g id="edge49" class="edge">
<title>2272686009872&#45;&gt;2272689808896</title>
<path fill="none" stroke="black" d="M3511.31,-77.24C3572.27,-82.76 3666.3,-91.28 3716.73,-95.85"/>
<polygon fill="black" stroke="black" points="3716.19,-99.32 3726.47,-96.73 3716.82,-92.34 3716.19,-99.32"/>
</g>
<!-- 2272686129424 -->
<g id="node42" class="node">
<title>2272686129424</title>
<polygon fill="none" stroke="black" points="3932.75,-117 3815.5,-117 3815.5,-81 3932.75,-81 3932.75,-117"/>
<text text-anchor="middle" x="3874.12" y="-93.97" font-family="Times New Roman,serif" font-size="12.00">Distribute final report</text>
</g>
<!-- 2272689808896&#45;&gt;2272686129424 -->
<g id="edge51" class="edge">
<title>2272689808896&#45;&gt;2272686129424</title>
<path fill="none" stroke="black" d="M3780.35,-99C3787.45,-99 3795.46,-99 3803.71,-99"/>
<polygon fill="black" stroke="black" points="3803.55,-102.5 3813.55,-99 3803.55,-95.5 3803.55,-102.5"/>
</g>
<!-- 2272689814992&#45;&gt;2272689810288 -->
<g id="edge50" class="edge">
<title>2272689814992&#45;&gt;2272689810288</title>
<path fill="none" stroke="black" d="M2836.03,-112.67C2846.56,-110.34 2857.34,-107.95 2866.89,-105.84"/>
<polygon fill="black" stroke="black" points="2867.33,-109.32 2876.34,-103.74 2865.82,-102.49 2867.33,-109.32"/>
</g>
<!-- 2272686139840 -->
<g id="node41" class="node">
<title>2272686139840</title>
<polygon fill="none" stroke="black" points="3689.5,-142 3582,-142 3582,-106 3689.5,-106 3689.5,-142"/>
<text text-anchor="middle" x="3635.75" y="-118.97" font-family="Times New Roman,serif" font-size="12.00">Close audit process</text>
</g>
<!-- 2272686007472&#45;&gt;2272686139840 -->
<g id="edge52" class="edge">
<title>2272686007472&#45;&gt;2272686139840</title>
<path fill="none" stroke="black" d="M3546.25,-124.98C3554.44,-124.89 3562.61,-124.8 3570.49,-124.71"/>
<polygon fill="black" stroke="black" points="3570.32,-128.21 3580.28,-124.6 3570.24,-121.21 3570.32,-128.21"/>
</g>
<!-- 2272686139840&#45;&gt;2272689808896 -->
<g id="edge53" class="edge">
<title>2272686139840&#45;&gt;2272689808896</title>
<path fill="none" stroke="black" d="M3689.76,-112.45C3700.16,-110.18 3710.76,-107.88 3720.17,-105.83"/>
<polygon fill="black" stroke="black" points="3720.85,-109.26 3729.88,-103.71 3719.36,-102.42 3720.85,-109.26"/>
</g>
<!-- 2272686141184 -->
<g id="node43" class="node">
<title>2272686141184</title>
<polygon fill="none" stroke="black" points="4113.75,-117 3968.75,-117 3968.75,-81 4113.75,-81 4113.75,-117"/>
<text text-anchor="middle" x="4041.25" y="-93.97" font-family="Times New Roman,serif" font-size="12.00">Update and resubmit report</text>
</g>
<!-- 2272686129424&#45;&gt;2272686141184 -->
<g id="edge54" class="edge">
<title>2272686129424&#45;&gt;2272686141184</title>
<path fill="none" stroke="black" d="M3932.88,-99C3940.65,-99 3948.75,-99 3956.86,-99"/>
<polygon fill="black" stroke="black" points="3956.79,-102.5 3966.79,-99 3956.79,-95.5 3956.79,-102.5"/>
</g>
<!-- 2272686142672 -->
<g id="node44" class="node">
<title>2272686142672</title>
<polygon fill="none" stroke="black" points="4234.75,-117 4149.75,-117 4149.75,-81 4234.75,-81 4234.75,-117"/>
<text text-anchor="middle" x="4192.25" y="-93.97" font-family="Times New Roman,serif" font-size="12.00">Archive report</text>
</g>
<!-- 2272686141184&#45;&gt;2272686142672 -->
<g id="edge55" class="edge">
<title>2272686141184&#45;&gt;2272686142672</title>
<path fill="none" stroke="black" d="M4114.13,-99C4122.14,-99 4130.18,-99 4137.9,-99"/>
<polygon fill="black" stroke="black" points="4137.79,-102.5 4147.79,-99 4137.79,-95.5 4137.79,-102.5"/>
</g>
<!-- 2272686133936 -->
<g id="node45" class="node">
<title>2272686133936</title>
<polygon fill="none" stroke="black" points="4396.25,-117 4270.75,-117 4270.75,-81 4396.25,-81 4396.25,-117"/>
<text text-anchor="middle" x="4333.5" y="-93.97" font-family="Times New Roman,serif" font-size="12.00">Evaluate financial risks</text>
</g>
<!-- 2272686142672&#45;&gt;2272686133936 -->
<g id="edge56" class="edge">
<title>2272686142672&#45;&gt;2272686133936</title>
<path fill="none" stroke="black" d="M4235.03,-99C4242.69,-99 4250.88,-99 4259.14,-99"/>
<polygon fill="black" stroke="black" points="4258.9,-102.5 4268.9,-99 4258.9,-95.5 4258.9,-102.5"/>
</g>
<!-- 2272685999744 -->
<g id="node46" class="node">
<title>2272685999744</title>
<ellipse fill="orange" stroke="black" cx="4450.25" cy="-99" rx="18" ry="18"/>
</g>
<!-- 2272686133936&#45;&gt;2272685999744 -->
<g id="edge57" class="edge">
<title>2272686133936&#45;&gt;2272685999744</title>
<path fill="none" stroke="black" d="M4396.58,-99C4404.97,-99 4413.22,-99 4420.62,-99"/>
<polygon fill="black" stroke="black" points="4420.61,-102.5 4430.61,-99 4420.61,-95.5 4420.61,-102.5"/>
</g>
</g>
</svg>
