<?xml version="1.0" encoding="UTF-8" standalone="no"?>
<!DOCTYPE svg PUBLIC "-//W3C//DTD SVG 1.1//EN"
 "http://www.w3.org/Graphics/SVG/1.1/DTD/svg11.dtd">
<!-- Generated by graphviz version 11.0.0 (20240428.1522)
 -->
<!-- Pages: 1 -->
<svg width="3276pt" height="312pt"
 viewBox="0.00 0.00 3275.75 312.00" xmlns="http://www.w3.org/2000/svg" xmlns:xlink="http://www.w3.org/1999/xlink">
<g id="graph0" class="graph" transform="scale(1 1) rotate(0) translate(4 308)">
<polygon fill="white" stroke="none" points="-4,4 -4,-308 3271.75,-308 3271.75,4 -4,4"/>
<!-- 2592523778864 -->
<g id="node1" class="node">
<title>2592523778864</title>
<ellipse fill="green" stroke="black" cx="18" cy="-64" rx="18" ry="18"/>
</g>
<!-- 2592523040576 -->
<g id="node2" class="node">
<title>2592523040576</title>
<polygon fill="none" stroke="black" points="168.25,-82 72,-82 72,-46 168.25,-46 168.25,-82"/>
<text text-anchor="middle" x="120.12" y="-58.98" font-family="Times New Roman,serif" font-size="12.00">Send notification</text>
</g>
<!-- 2592523778864&#45;&gt;2592523040576 -->
<g id="edge1" class="edge">
<title>2592523778864&#45;&gt;2592523040576</title>
<path fill="none" stroke="black" d="M36.44,-64C43.3,-64 51.6,-64 60.26,-64"/>
<polygon fill="black" stroke="black" points="60.26,-67.5 70.26,-64 60.26,-60.5 60.26,-67.5"/>
</g>
<!-- 2592523033232 -->
<g id="node3" class="node">
<title>2592523033232</title>
<polygon fill="none" stroke="black" points="231.25,-82 204.25,-64 231.25,-46 258.25,-64 231.25,-82"/>
<text text-anchor="middle" x="231.25" y="-58.98" font-family="Times New Roman,serif" font-size="12.00">+</text>
</g>
<!-- 2592523040576&#45;&gt;2592523033232 -->
<g id="edge2" class="edge">
<title>2592523040576&#45;&gt;2592523033232</title>
<path fill="none" stroke="black" d="M168.67,-64C176.51,-64 184.55,-64 192.12,-64"/>
<polygon fill="black" stroke="black" points="192.02,-67.5 202.02,-64 192.02,-60.5 192.02,-67.5"/>
</g>
<!-- 2592518966640 -->
<g id="node4" class="node">
<title>2592518966640</title>
<polygon fill="none" stroke="black" points="443.38,-136 296.12,-136 296.12,-100 443.38,-100 443.38,-136"/>
<text text-anchor="middle" x="369.75" y="-112.97" font-family="Times New Roman,serif" font-size="12.00">Prepare financial statements</text>
</g>
<!-- 2592523033232&#45;&gt;2592518966640 -->
<g id="edge4" class="edge">
<title>2592523033232&#45;&gt;2592518966640</title>
<path fill="none" stroke="black" d="M248.19,-71.27C260.65,-76.87 278.44,-84.7 294.25,-91 298.05,-92.52 301.98,-94.04 305.94,-95.56"/>
<polygon fill="black" stroke="black" points="304.48,-98.75 315.07,-99 306.95,-92.2 304.48,-98.75"/>
</g>
<!-- 2592520497552 -->
<g id="node5" class="node">
<title>2592520497552</title>
<polygon fill="none" stroke="black" points="445.25,-82 294.25,-82 294.25,-46 445.25,-46 445.25,-82"/>
<text text-anchor="middle" x="369.75" y="-58.98" font-family="Times New Roman,serif" font-size="12.00">Gather necessary documents</text>
</g>
<!-- 2592523033232&#45;&gt;2592520497552 -->
<g id="edge5" class="edge">
<title>2592523033232&#45;&gt;2592520497552</title>
<path fill="none" stroke="black" d="M258.89,-64C266.01,-64 274.11,-64 282.61,-64"/>
<polygon fill="black" stroke="black" points="282.44,-67.5 292.44,-64 282.44,-60.5 282.44,-67.5"/>
</g>
<!-- 2592520500336 -->
<g id="node6" class="node">
<title>2592520500336</title>
<polygon fill="none" stroke="black" points="618,-36 481.25,-36 481.25,0 618,0 618,-36"/>
<text text-anchor="middle" x="549.62" y="-12.97" font-family="Times New Roman,serif" font-size="12.00">Check regulatory updates</text>
</g>
<!-- 2592523033232&#45;&gt;2592520500336 -->
<g id="edge3" class="edge">
<title>2592523033232&#45;&gt;2592520500336</title>
<path fill="none" stroke="black" d="M246.54,-56.12C258.81,-49.77 277.16,-41.23 294.25,-37 351.9,-22.73 418.96,-18.2 469.74,-17.12"/>
<polygon fill="black" stroke="black" points="469.52,-20.62 479.46,-16.95 469.41,-13.62 469.52,-20.62"/>
</g>
<!-- 2592514325152 -->
<g id="node7" class="node">
<title>2592514325152</title>
<polygon fill="none" stroke="black" points="549.62,-105 522.62,-87 549.62,-69 576.62,-87 549.62,-105"/>
<text text-anchor="middle" x="549.62" y="-81.97" font-family="Times New Roman,serif" font-size="12.00">+</text>
</g>
<!-- 2592518966640&#45;&gt;2592514325152 -->
<g id="edge6" class="edge">
<title>2592518966640&#45;&gt;2592514325152</title>
<path fill="none" stroke="black" d="M443.87,-105.26C469.18,-100.85 496.26,-96.13 516.54,-92.59"/>
<polygon fill="black" stroke="black" points="516.89,-96.08 526.14,-90.92 515.69,-89.19 516.89,-96.08"/>
</g>
<!-- 2592520497552&#45;&gt;2592514325152 -->
<g id="edge7" class="edge">
<title>2592520497552&#45;&gt;2592514325152</title>
<path fill="none" stroke="black" d="M445.67,-73.69C469.73,-76.8 495.19,-80.09 514.78,-82.62"/>
<polygon fill="black" stroke="black" points="514.28,-86.09 524.65,-83.9 515.18,-79.15 514.28,-86.09"/>
</g>
<!-- 2592520499712 -->
<g id="node8" class="node">
<title>2592520499712</title>
<polygon fill="none" stroke="black" points="3168.75,-128 3141.75,-110 3168.75,-92 3195.75,-110 3168.75,-128"/>
<text text-anchor="middle" x="3168.75" y="-104.97" font-family="Times New Roman,serif" font-size="12.00">+</text>
</g>
<!-- 2592520500336&#45;&gt;2592520499712 -->
<g id="edge8" class="edge">
<title>2592520500336&#45;&gt;2592520499712</title>
<path fill="none" stroke="black" d="M618.37,-18C672.79,-18 751.18,-18 819.75,-18 819.75,-18 819.75,-18 2881,-18 2982.31,-18 3014.18,-12.66 3105.75,-56 3123.02,-64.17 3139.19,-78.57 3150.68,-90.44"/>
<polygon fill="black" stroke="black" points="3148.1,-92.81 3157.46,-97.77 3153.24,-88.05 3148.1,-92.81"/>
</g>
<!-- 2592514315168 -->
<g id="node9" class="node">
<title>2592514315168</title>
<polygon fill="none" stroke="black" points="757.75,-105 654,-105 654,-69 757.75,-69 757.75,-105"/>
<text text-anchor="middle" x="705.88" y="-81.97" font-family="Times New Roman,serif" font-size="12.00">Submit documents</text>
</g>
<!-- 2592514325152&#45;&gt;2592514315168 -->
<g id="edge9" class="edge">
<title>2592514325152&#45;&gt;2592514315168</title>
<path fill="none" stroke="black" d="M577.49,-87C595.44,-87 619.81,-87 642.43,-87"/>
<polygon fill="black" stroke="black" points="642.19,-90.5 652.19,-87 642.19,-83.5 642.19,-90.5"/>
</g>
<!-- 2592523778768 -->
<g id="node37" class="node">
<title>2592523778768</title>
<ellipse fill="orange" stroke="black" cx="3249.75" cy="-110" rx="18" ry="18"/>
</g>
<!-- 2592520499712&#45;&gt;2592523778768 -->
<g id="edge10" class="edge">
<title>2592520499712&#45;&gt;2592523778768</title>
<path fill="none" stroke="black" d="M3196.5,-110C3204.13,-110 3212.48,-110 3220.22,-110"/>
<polygon fill="black" stroke="black" points="3220.18,-113.5 3230.18,-110 3220.18,-106.5 3220.18,-113.5"/>
</g>
<!-- 2592520496448 -->
<g id="node10" class="node">
<title>2592520496448</title>
<polygon fill="none" stroke="black" points="820.75,-105 793.75,-87 820.75,-69 847.75,-87 820.75,-105"/>
<text text-anchor="middle" x="820.75" y="-81.97" font-family="Times New Roman,serif" font-size="12.00">X</text>
</g>
<!-- 2592514315168&#45;&gt;2592520496448 -->
<g id="edge11" class="edge">
<title>2592514315168&#45;&gt;2592520496448</title>
<path fill="none" stroke="black" d="M758.03,-87C765.99,-87 774.09,-87 781.7,-87"/>
<polygon fill="black" stroke="black" points="781.63,-90.5 791.63,-87 781.63,-83.5 781.63,-90.5"/>
</g>
<!-- 2592520757104 -->
<g id="node11" class="node">
<title>2592520757104</title>
<polygon fill="none" stroke="black" points="992,-120 883.75,-120 883.75,-84 992,-84 992,-120"/>
<text text-anchor="middle" x="937.88" y="-96.97" font-family="Times New Roman,serif" font-size="12.00">Review submission</text>
</g>
<!-- 2592520496448&#45;&gt;2592520757104 -->
<g id="edge12" class="edge">
<title>2592520496448&#45;&gt;2592520757104</title>
<path fill="none" stroke="black" d="M844.22,-89.93C852.4,-90.99 862.1,-92.26 872.1,-93.56"/>
<polygon fill="black" stroke="black" points="871.58,-97.02 881.95,-94.84 872.49,-90.08 871.58,-97.02"/>
</g>
<!-- 2592516449744 -->
<g id="node12" class="node">
<title>2592516449744</title>
<polygon fill="none" stroke="black" points="1055,-120 1028,-102 1055,-84 1082,-102 1055,-120"/>
<text text-anchor="middle" x="1055" y="-96.97" font-family="Times New Roman,serif" font-size="12.00">X</text>
</g>
<!-- 2592520757104&#45;&gt;2592516449744 -->
<g id="edge13" class="edge">
<title>2592520757104&#45;&gt;2592516449744</title>
<path fill="none" stroke="black" d="M992.39,-102C1000.33,-102 1008.37,-102 1015.91,-102"/>
<polygon fill="black" stroke="black" points="1015.74,-105.5 1025.74,-102 1015.74,-98.5 1015.74,-105.5"/>
</g>
<!-- 2592518964240 -->
<g id="node13" class="node">
<title>2592518964240</title>
<polygon fill="none" stroke="black" points="1309.5,-174 1122.5,-174 1122.5,-138 1309.5,-138 1309.5,-174"/>
<text text-anchor="middle" x="1216" y="-150.97" font-family="Times New Roman,serif" font-size="12.00">Complete risk assessment/mitigation</text>
</g>
<!-- 2592516449744&#45;&gt;2592518964240 -->
<g id="edge15" class="edge">
<title>2592516449744&#45;&gt;2592518964240</title>
<path fill="none" stroke="black" d="M1071.56,-109.5C1083.95,-115.29 1101.85,-123.27 1118,-129 1122.99,-130.77 1128.15,-132.5 1133.38,-134.17"/>
<polygon fill="black" stroke="black" points="1132.14,-137.45 1142.73,-137.08 1134.22,-130.77 1132.14,-137.45"/>
</g>
<!-- 2592514310944 -->
<g id="node14" class="node">
<title>2592514310944</title>
<polygon fill="none" stroke="black" points="1314,-120 1118,-120 1118,-84 1314,-84 1314,-120"/>
<text text-anchor="middle" x="1216" y="-96.97" font-family="Times New Roman,serif" font-size="12.00">Request clarifications of discrepancies</text>
</g>
<!-- 2592516449744&#45;&gt;2592514310944 -->
<g id="edge14" class="edge">
<title>2592516449744&#45;&gt;2592514310944</title>
<path fill="none" stroke="black" d="M1082.61,-102C1089.62,-102 1097.63,-102 1106.17,-102"/>
<polygon fill="black" stroke="black" points="1106.14,-105.5 1116.14,-102 1106.14,-98.5 1106.14,-105.5"/>
</g>
<!-- 2592518974224 -->
<g id="node16" class="node">
<title>2592518974224</title>
<polygon fill="none" stroke="black" points="1408.62,-174 1381.62,-156 1408.62,-138 1435.62,-156 1408.62,-174"/>
<text text-anchor="middle" x="1408.62" y="-150.97" font-family="Times New Roman,serif" font-size="12.00">+</text>
</g>
<!-- 2592518964240&#45;&gt;2592518974224 -->
<g id="edge16" class="edge">
<title>2592518964240&#45;&gt;2592518974224</title>
<path fill="none" stroke="black" d="M1309.8,-156C1331.03,-156 1352.43,-156 1369.78,-156"/>
<polygon fill="black" stroke="black" points="1369.58,-159.5 1379.58,-156 1369.58,-152.5 1369.58,-159.5"/>
</g>
<!-- 2592523033088 -->
<g id="node15" class="node">
<title>2592523033088</title>
<polygon fill="none" stroke="black" points="1467.25,-101 1350,-101 1350,-65 1467.25,-65 1467.25,-101"/>
<text text-anchor="middle" x="1408.62" y="-77.97" font-family="Times New Roman,serif" font-size="12.00">Receive clarifications</text>
</g>
<!-- 2592514310944&#45;&gt;2592523033088 -->
<g id="edge17" class="edge">
<title>2592514310944&#45;&gt;2592523033088</title>
<path fill="none" stroke="black" d="M1314.27,-92.31C1322.41,-91.49 1330.53,-90.68 1338.39,-89.9"/>
<polygon fill="black" stroke="black" points="1338.6,-93.4 1348.2,-88.92 1337.9,-86.43 1338.6,-93.4"/>
</g>
<!-- 2592523033088&#45;&gt;2592520496448 -->
<g id="edge18" class="edge">
<title>2592523033088&#45;&gt;2592520496448</title>
<path fill="none" stroke="black" d="M1349.74,-77.28C1337.93,-76.33 1325.57,-75.49 1314,-75 1122.95,-66.85 1074.1,-56.75 883.75,-75 873.47,-75.99 862.37,-77.87 852.44,-79.86"/>
<polygon fill="black" stroke="black" points="851.97,-76.38 842.92,-81.88 853.42,-83.23 851.97,-76.38"/>
</g>
<!-- 2592517885200 -->
<g id="node17" class="node">
<title>2592517885200</title>
<polygon fill="none" stroke="black" points="1658,-229 1503.25,-229 1503.25,-193 1658,-193 1658,-229"/>
<text text-anchor="middle" x="1580.62" y="-205.97" font-family="Times New Roman,serif" font-size="12.00">Launch detailed investigation</text>
</g>
<!-- 2592518974224&#45;&gt;2592517885200 -->
<g id="edge20" class="edge">
<title>2592518974224&#45;&gt;2592517885200</title>
<path fill="none" stroke="black" d="M1427.5,-161.78C1447.55,-168.27 1481.3,-179.19 1511.92,-189.09"/>
<polygon fill="black" stroke="black" points="1510.56,-192.33 1521.15,-192.08 1512.71,-185.67 1510.56,-192.33"/>
</g>
<!-- 2592514312720 -->
<g id="node18" class="node">
<title>2592514312720</title>
<polygon fill="none" stroke="black" points="1832.25,-174 1694.75,-174 1694.75,-138 1832.25,-138 1832.25,-174"/>
<text text-anchor="middle" x="1763.5" y="-150.97" font-family="Times New Roman,serif" font-size="12.00">Evaluate operational risks</text>
</g>
<!-- 2592518974224&#45;&gt;2592514312720 -->
<g id="edge22" class="edge">
<title>2592518974224&#45;&gt;2592514312720</title>
<path fill="none" stroke="black" d="M1436.44,-156C1488.33,-156 1604.3,-156 1682.98,-156"/>
<polygon fill="black" stroke="black" points="1682.79,-159.5 1692.79,-156 1682.79,-152.5 1682.79,-159.5"/>
</g>
<!-- 2592520497744 -->
<g id="node19" class="node">
<title>2592520497744</title>
<polygon fill="none" stroke="black" points="1833,-120 1694,-120 1694,-84 1833,-84 1833,-120"/>
<text text-anchor="middle" x="1763.5" y="-96.97" font-family="Times New Roman,serif" font-size="12.00">Evaluate compliance risks</text>
</g>
<!-- 2592518974224&#45;&gt;2592520497744 -->
<g id="edge21" class="edge">
<title>2592518974224&#45;&gt;2592520497744</title>
<path fill="none" stroke="black" d="M1431.43,-152.66C1480.37,-145.17 1601.01,-126.71 1682.32,-114.27"/>
<polygon fill="black" stroke="black" points="1682.68,-117.76 1692.03,-112.78 1681.62,-110.84 1682.68,-117.76"/>
</g>
<!-- 2592520500768 -->
<g id="node20" class="node">
<title>2592520500768</title>
<polygon fill="none" stroke="black" points="1643.38,-84 1517.88,-84 1517.88,-48 1643.38,-48 1643.38,-84"/>
<text text-anchor="middle" x="1580.62" y="-60.98" font-family="Times New Roman,serif" font-size="12.00">Evaluate financial risks</text>
</g>
<!-- 2592518974224&#45;&gt;2592520500768 -->
<g id="edge19" class="edge">
<title>2592518974224&#45;&gt;2592520500768</title>
<path fill="none" stroke="black" d="M1423.38,-147.58C1441.46,-136.64 1474.32,-117.13 1503.25,-102 1511.38,-97.75 1520.09,-93.43 1528.62,-89.32"/>
<polygon fill="black" stroke="black" points="1529.99,-92.55 1537.52,-85.09 1526.99,-86.22 1529.99,-92.55"/>
</g>
<!-- 2592517890720 -->
<g id="node21" class="node">
<title>2592517890720</title>
<polygon fill="none" stroke="black" points="1763.5,-239 1736.5,-221 1763.5,-203 1790.5,-221 1763.5,-239"/>
<text text-anchor="middle" x="1763.5" y="-215.97" font-family="Times New Roman,serif" font-size="12.00">+</text>
</g>
<!-- 2592517885200&#45;&gt;2592517890720 -->
<g id="edge23" class="edge">
<title>2592517885200&#45;&gt;2592517890720</title>
<path fill="none" stroke="black" d="M1658.33,-215.24C1681.93,-216.55 1706.81,-217.92 1726.34,-219"/>
<polygon fill="black" stroke="black" points="1726.05,-222.49 1736.23,-219.55 1726.44,-215.5 1726.05,-222.49"/>
</g>
<!-- 2592518972736 -->
<g id="node22" class="node">
<title>2592518972736</title>
<polygon fill="none" stroke="black" points="2051.5,-150 2024.5,-132 2051.5,-114 2078.5,-132 2051.5,-150"/>
<text text-anchor="middle" x="2051.5" y="-126.97" font-family="Times New Roman,serif" font-size="12.00">+</text>
</g>
<!-- 2592514312720&#45;&gt;2592518972736 -->
<g id="edge24" class="edge">
<title>2592514312720&#45;&gt;2592518972736</title>
<path fill="none" stroke="black" d="M1832.64,-150.28C1890.12,-145.46 1970.08,-138.75 2015.42,-134.94"/>
<polygon fill="black" stroke="black" points="2015.53,-138.45 2025.2,-134.12 2014.95,-131.47 2015.53,-138.45"/>
</g>
<!-- 2592520497744&#45;&gt;2592518972736 -->
<g id="edge25" class="edge">
<title>2592520497744&#45;&gt;2592518972736</title>
<path fill="none" stroke="black" d="M1833.37,-109.22C1891.18,-115.29 1971.33,-123.7 2016.32,-128.41"/>
<polygon fill="black" stroke="black" points="2015.68,-131.87 2025.99,-129.43 2016.41,-124.91 2015.68,-131.87"/>
</g>
<!-- 2592520500768&#45;&gt;2592518972736 -->
<g id="edge26" class="edge">
<title>2592520500768&#45;&gt;2592518972736</title>
<path fill="none" stroke="black" d="M1643.86,-65.13C1694.88,-65.16 1768.88,-66.91 1833,-75 1903.19,-83.86 1920.61,-89.09 1988.5,-109 2000.19,-112.43 2012.85,-116.97 2023.65,-121.11"/>
<polygon fill="black" stroke="black" points="2022.14,-124.27 2032.72,-124.66 2024.69,-117.75 2022.14,-124.27"/>
</g>
<!-- 2592523032176 -->
<g id="node23" class="node">
<title>2592523032176</title>
<polygon fill="none" stroke="black" points="1978.75,-304 1878.75,-304 1878.75,-268 1978.75,-268 1978.75,-304"/>
<text text-anchor="middle" x="1928.75" y="-280.98" font-family="Times New Roman,serif" font-size="12.00">Perform site visits</text>
</g>
<!-- 2592517890720&#45;&gt;2592523032176 -->
<g id="edge27" class="edge">
<title>2592517890720&#45;&gt;2592523032176</title>
<path fill="none" stroke="black" d="M1781.05,-227.59C1802.03,-235.94 1839.27,-250.77 1870.98,-263.4"/>
<polygon fill="black" stroke="black" points="1869.5,-266.57 1880.08,-267.02 1872.09,-260.07 1869.5,-266.57"/>
</g>
<!-- 2592514316416 -->
<g id="node25" class="node">
<title>2592514316416</title>
<polygon fill="none" stroke="black" points="1982.88,-250 1874.62,-250 1874.62,-214 1982.88,-214 1982.88,-250"/>
<text text-anchor="middle" x="1928.75" y="-226.97" font-family="Times New Roman,serif" font-size="12.00">Conduct interviews</text>
</g>
<!-- 2592517890720&#45;&gt;2592514316416 -->
<g id="edge28" class="edge">
<title>2592517890720&#45;&gt;2592514316416</title>
<path fill="none" stroke="black" d="M1788.59,-222.62C1808.13,-223.94 1836.64,-225.86 1862.77,-227.62"/>
<polygon fill="black" stroke="black" points="1862.45,-231.11 1872.66,-228.29 1862.92,-224.12 1862.45,-231.11"/>
</g>
<!-- 2592520754704 -->
<g id="node26" class="node">
<title>2592520754704</title>
<polygon fill="none" stroke="black" points="1988.5,-196 1869,-196 1869,-160 1988.5,-160 1988.5,-196"/>
<text text-anchor="middle" x="1928.75" y="-172.97" font-family="Times New Roman,serif" font-size="12.00">Conduct data analysis</text>
</g>
<!-- 2592517890720&#45;&gt;2592520754704 -->
<g id="edge29" class="edge">
<title>2592517890720&#45;&gt;2592520754704</title>
<path fill="none" stroke="black" d="M1783.55,-215.98C1801.81,-211.17 1830.51,-203.61 1857.51,-196.5"/>
<polygon fill="black" stroke="black" points="1858.3,-199.91 1867.08,-193.98 1856.52,-193.14 1858.3,-199.91"/>
</g>
<!-- 2592518976096 -->
<g id="node24" class="node">
<title>2592518976096</title>
<polygon fill="none" stroke="black" points="2228,-146 2114.5,-146 2114.5,-110 2228,-110 2228,-146"/>
<text text-anchor="middle" x="2171.25" y="-122.97" font-family="Times New Roman,serif" font-size="12.00">Compile audit report</text>
</g>
<!-- 2592518972736&#45;&gt;2592518976096 -->
<g id="edge30" class="edge">
<title>2592518972736&#45;&gt;2592518976096</title>
<path fill="none" stroke="black" d="M2078.05,-131.13C2085.56,-130.88 2094.16,-130.58 2103.01,-130.28"/>
<polygon fill="black" stroke="black" points="2102.91,-133.79 2112.79,-129.95 2102.67,-126.79 2102.91,-133.79"/>
</g>
<!-- 2592523032176&#45;&gt;2592518972736 -->
<g id="edge31" class="edge">
<title>2592523032176&#45;&gt;2592518972736</title>
<path fill="none" stroke="black" d="M1977.5,-267.66C1981.46,-265.09 1985.21,-262.22 1988.5,-259 2017.37,-230.8 2034.74,-186.4 2043.47,-158.27"/>
<polygon fill="black" stroke="black" points="2046.8,-159.33 2046.26,-148.75 2040.08,-157.36 2046.8,-159.33"/>
</g>
<!-- 2592516444272 -->
<g id="node27" class="node">
<title>2592516444272</title>
<polygon fill="none" stroke="black" points="2291,-139 2264,-121 2291,-103 2318,-121 2291,-139"/>
<text text-anchor="middle" x="2291" y="-115.97" font-family="Times New Roman,serif" font-size="12.00">X</text>
</g>
<!-- 2592518976096&#45;&gt;2592516444272 -->
<g id="edge34" class="edge">
<title>2592518976096&#45;&gt;2592516444272</title>
<path fill="none" stroke="black" d="M2228.37,-124.66C2237.12,-124.14 2245.96,-123.62 2254.1,-123.13"/>
<polygon fill="black" stroke="black" points="2254.16,-126.64 2263.93,-122.55 2253.74,-119.65 2254.16,-126.64"/>
</g>
<!-- 2592514316416&#45;&gt;2592518972736 -->
<g id="edge32" class="edge">
<title>2592514316416&#45;&gt;2592518972736</title>
<path fill="none" stroke="black" d="M1975.18,-213.6C1979.85,-210.99 1984.39,-208.12 1988.5,-205 2007.59,-190.52 2024.83,-169.22 2036.26,-153.35"/>
<polygon fill="black" stroke="black" points="2038.87,-155.73 2041.72,-145.53 2033.13,-151.73 2038.87,-155.73"/>
</g>
<!-- 2592520754704&#45;&gt;2592518972736 -->
<g id="edge33" class="edge">
<title>2592520754704&#45;&gt;2592518972736</title>
<path fill="none" stroke="black" d="M1978.17,-159.56C1993.29,-153.79 2009.46,-147.64 2022.66,-142.61"/>
<polygon fill="black" stroke="black" points="2023.89,-145.88 2031.99,-139.05 2021.4,-139.34 2023.89,-145.88"/>
</g>
<!-- 2592520762000 -->
<g id="node28" class="node">
<title>2592520762000</title>
<polygon fill="none" stroke="black" points="2517.75,-139 2354,-139 2354,-103 2517.75,-103 2517.75,-139"/>
<text text-anchor="middle" x="2435.88" y="-115.97" font-family="Times New Roman,serif" font-size="12.00">Review report by audit director</text>
</g>
<!-- 2592516444272&#45;&gt;2592520762000 -->
<g id="edge35" class="edge">
<title>2592516444272&#45;&gt;2592520762000</title>
<path fill="none" stroke="black" d="M2318.87,-121C2325.9,-121 2333.88,-121 2342.3,-121"/>
<polygon fill="black" stroke="black" points="2342.05,-124.5 2352.05,-121 2342.05,-117.5 2342.05,-124.5"/>
</g>
<!-- 2592520501392 -->
<g id="node29" class="node">
<title>2592520501392</title>
<polygon fill="none" stroke="black" points="2580.75,-139 2553.75,-121 2580.75,-103 2607.75,-121 2580.75,-139"/>
<text text-anchor="middle" x="2580.75" y="-115.97" font-family="Times New Roman,serif" font-size="12.00">X</text>
</g>
<!-- 2592520762000&#45;&gt;2592520501392 -->
<g id="edge36" class="edge">
<title>2592520762000&#45;&gt;2592520501392</title>
<path fill="none" stroke="black" d="M2517.91,-121C2526.08,-121 2534.08,-121 2541.47,-121"/>
<polygon fill="black" stroke="black" points="2541.37,-124.5 2551.37,-121 2541.37,-117.5 2541.37,-124.5"/>
</g>
<!-- 2592514325776 -->
<g id="node30" class="node">
<title>2592514325776</title>
<polygon fill="none" stroke="black" points="2752,-178 2663.25,-178 2663.25,-142 2752,-142 2752,-178"/>
<text text-anchor="middle" x="2707.62" y="-154.97" font-family="Times New Roman,serif" font-size="12.00">Approve report</text>
</g>
<!-- 2592520501392&#45;&gt;2592514325776 -->
<g id="edge37" class="edge">
<title>2592520501392&#45;&gt;2592514325776</title>
<path fill="none" stroke="black" d="M2599.91,-126.67C2613.65,-130.96 2633.28,-137.09 2651.97,-142.93"/>
<polygon fill="black" stroke="black" points="2650.78,-146.23 2661.37,-145.87 2652.87,-139.55 2650.78,-146.23"/>
</g>
<!-- 2592520498656 -->
<g id="node31" class="node">
<title>2592520498656</title>
<polygon fill="none" stroke="black" points="2771.5,-124 2643.75,-124 2643.75,-88 2771.5,-88 2771.5,-124"/>
<text text-anchor="middle" x="2707.62" y="-100.97" font-family="Times New Roman,serif" font-size="12.00">Send report for revision</text>
</g>
<!-- 2592520501392&#45;&gt;2592520498656 -->
<g id="edge38" class="edge">
<title>2592520501392&#45;&gt;2592520498656</title>
<path fill="none" stroke="black" d="M2604.36,-118.28C2612.52,-117.3 2622.23,-116.14 2632.37,-114.92"/>
<polygon fill="black" stroke="black" points="2632.48,-118.43 2641.99,-113.76 2631.65,-111.48 2632.48,-118.43"/>
</g>
<!-- 2592514311520 -->
<g id="node33" class="node">
<title>2592514311520</title>
<polygon fill="none" stroke="black" points="2880,-166 2853,-148 2880,-130 2907,-148 2880,-166"/>
<text text-anchor="middle" x="2880" y="-142.97" font-family="Times New Roman,serif" font-size="12.00">+</text>
</g>
<!-- 2592514325776&#45;&gt;2592514311520 -->
<g id="edge39" class="edge">
<title>2592514325776&#45;&gt;2592514311520</title>
<path fill="none" stroke="black" d="M2752.06,-156.94C2780.44,-154.94 2817.04,-152.36 2843.65,-150.49"/>
<polygon fill="black" stroke="black" points="2843.86,-153.98 2853.59,-149.79 2843.37,-147 2843.86,-153.98"/>
</g>
<!-- 2592518965296 -->
<g id="node32" class="node">
<title>2592518965296</title>
<polygon fill="none" stroke="black" points="2952.5,-89 2807.5,-89 2807.5,-53 2952.5,-53 2952.5,-89"/>
<text text-anchor="middle" x="2880" y="-65.97" font-family="Times New Roman,serif" font-size="12.00">Update and resubmit report</text>
</g>
<!-- 2592520498656&#45;&gt;2592518965296 -->
<g id="edge40" class="edge">
<title>2592520498656&#45;&gt;2592518965296</title>
<path fill="none" stroke="black" d="M2771.58,-93.07C2779.53,-91.43 2787.76,-89.74 2795.96,-88.06"/>
<polygon fill="black" stroke="black" points="2796.53,-91.52 2805.62,-86.07 2795.12,-84.66 2796.53,-91.52"/>
</g>
<!-- 2592518965296&#45;&gt;2592516444272 -->
<g id="edge41" class="edge">
<title>2592518965296&#45;&gt;2592516444272</title>
<path fill="none" stroke="black" d="M2807.37,-65.79C2705.22,-60.22 2512.52,-56.68 2354,-94 2341.14,-97.03 2327.61,-102.61 2316.48,-107.91"/>
<polygon fill="black" stroke="black" points="2315,-104.74 2307.62,-112.34 2318.13,-111 2315,-104.74"/>
</g>
<!-- 2592518975040 -->
<g id="node34" class="node">
<title>2592518975040</title>
<polygon fill="none" stroke="black" points="3105.75,-209 2988.5,-209 2988.5,-173 3105.75,-173 3105.75,-209"/>
<text text-anchor="middle" x="3047.12" y="-185.97" font-family="Times New Roman,serif" font-size="12.00">Distribute final report</text>
</g>
<!-- 2592514311520&#45;&gt;2592518975040 -->
<g id="edge43" class="edge">
<title>2592514311520&#45;&gt;2592518975040</title>
<path fill="none" stroke="black" d="M2900.27,-153.02C2919.19,-157.95 2949.21,-165.76 2977.11,-173.03"/>
<polygon fill="black" stroke="black" points="2976.05,-176.37 2986.61,-175.5 2977.81,-169.59 2976.05,-176.37"/>
</g>
<!-- 2592518968896 -->
<g id="node35" class="node">
<title>2592518968896</title>
<polygon fill="none" stroke="black" points="3089.62,-155 3004.62,-155 3004.62,-119 3089.62,-119 3089.62,-155"/>
<text text-anchor="middle" x="3047.12" y="-131.97" font-family="Times New Roman,serif" font-size="12.00">Archive report</text>
</g>
<!-- 2592514311520&#45;&gt;2592518968896 -->
<g id="edge42" class="edge">
<title>2592514311520&#45;&gt;2592518968896</title>
<path fill="none" stroke="black" d="M2905.36,-146.38C2928.33,-144.85 2963.53,-142.5 2992.97,-140.54"/>
<polygon fill="black" stroke="black" points="2993.1,-144.04 3002.85,-139.88 2992.64,-137.06 2993.1,-144.04"/>
</g>
<!-- 2592523332944 -->
<g id="node36" class="node">
<title>2592523332944</title>
<polygon fill="none" stroke="black" points="3100.88,-101 2993.38,-101 2993.38,-65 3100.88,-65 3100.88,-101"/>
<text text-anchor="middle" x="3047.12" y="-77.97" font-family="Times New Roman,serif" font-size="12.00">Close audit process</text>
</g>
<!-- 2592514311520&#45;&gt;2592523332944 -->
<g id="edge44" class="edge">
<title>2592514311520&#45;&gt;2592523332944</title>
<path fill="none" stroke="black" d="M2897.74,-141.41C2918.96,-133.06 2956.63,-118.23 2988.7,-105.6"/>
<polygon fill="black" stroke="black" points="2989.9,-108.89 2997.92,-101.97 2987.34,-102.38 2989.9,-108.89"/>
</g>
<!-- 2592518975040&#45;&gt;2592520499712 -->
<g id="edge45" class="edge">
<title>2592518975040&#45;&gt;2592520499712</title>
<path fill="none" stroke="black" d="M3091.02,-172.54C3096.1,-169.88 3101.12,-167.02 3105.75,-164 3121.57,-153.69 3137.6,-139.62 3149.39,-128.42"/>
<polygon fill="black" stroke="black" points="3151.69,-131.07 3156.43,-121.59 3146.81,-126.05 3151.69,-131.07"/>
</g>
<!-- 2592518968896&#45;&gt;2592520499712 -->
<g id="edge46" class="edge">
<title>2592518968896&#45;&gt;2592520499712</title>
<path fill="none" stroke="black" d="M3089.96,-127.56C3105.33,-124.09 3122.45,-120.22 3136.7,-117.01"/>
<polygon fill="black" stroke="black" points="3137.44,-120.43 3146.43,-114.81 3135.9,-113.6 3137.44,-120.43"/>
</g>
<!-- 2592523332944&#45;&gt;2592520499712 -->
<g id="edge47" class="edge">
<title>2592523332944&#45;&gt;2592520499712</title>
<path fill="none" stroke="black" d="M3101.29,-95C3113.39,-97.73 3125.85,-100.54 3136.67,-102.99"/>
<polygon fill="black" stroke="black" points="3135.67,-106.35 3146.2,-105.14 3137.21,-99.52 3135.67,-106.35"/>
</g>
</g>
</svg>
