<?xml version="1.0" encoding="UTF-8" standalone="no"?>
<!DOCTYPE svg PUBLIC "-//W3C//DTD SVG 1.1//EN"
 "http://www.w3.org/Graphics/SVG/1.1/DTD/svg11.dtd">
<!-- Generated by graphviz version 11.0.0 (20240428.1522)
 -->
<!-- Pages: 1 -->
<svg width="3487pt" height="255pt"
 viewBox="0.00 0.00 3487.25 255.00" xmlns="http://www.w3.org/2000/svg" xmlns:xlink="http://www.w3.org/1999/xlink">
<g id="graph0" class="graph" transform="scale(1 1) rotate(0) translate(4 251)">
<polygon fill="white" stroke="none" points="-4,4 -4,-251 3483.25,-251 3483.25,4 -4,4"/>
<!-- 2592523715360 -->
<g id="node1" class="node">
<title>2592523715360</title>
<ellipse fill="green" stroke="black" cx="18" cy="-98" rx="18" ry="18"/>
</g>
<!-- 2592523108176 -->
<g id="node2" class="node">
<title>2592523108176</title>
<polygon fill="none" stroke="black" points="179.5,-116 72,-116 72,-80 179.5,-80 179.5,-116"/>
<text text-anchor="middle" x="125.75" y="-92.97" font-family="Times New Roman,serif" font-size="12.00">Close audit process</text>
</g>
<!-- 2592523715360&#45;&gt;2592523108176 -->
<g id="edge1" class="edge">
<title>2592523715360&#45;&gt;2592523108176</title>
<path fill="none" stroke="black" d="M36.46,-98C43.31,-98 51.62,-98 60.38,-98"/>
<polygon fill="black" stroke="black" points="60.11,-101.5 70.11,-98 60.11,-94.5 60.11,-101.5"/>
</g>
<!-- 2592521442496 -->
<g id="node3" class="node">
<title>2592521442496</title>
<polygon fill="none" stroke="black" points="300.5,-116 215.5,-116 215.5,-80 300.5,-80 300.5,-116"/>
<text text-anchor="middle" x="258" y="-92.97" font-family="Times New Roman,serif" font-size="12.00">Archive report</text>
</g>
<!-- 2592523108176&#45;&gt;2592521442496 -->
<g id="edge2" class="edge">
<title>2592523108176&#45;&gt;2592521442496</title>
<path fill="none" stroke="black" d="M179.73,-98C187.68,-98 195.88,-98 203.83,-98"/>
<polygon fill="black" stroke="black" points="203.74,-101.5 213.74,-98 203.74,-94.5 203.74,-101.5"/>
</g>
<!-- 2592523096944 -->
<g id="node4" class="node">
<title>2592523096944</title>
<polygon fill="none" stroke="black" points="453.75,-116 336.5,-116 336.5,-80 453.75,-80 453.75,-116"/>
<text text-anchor="middle" x="395.12" y="-92.97" font-family="Times New Roman,serif" font-size="12.00">Distribute final report</text>
</g>
<!-- 2592521442496&#45;&gt;2592523096944 -->
<g id="edge3" class="edge">
<title>2592521442496&#45;&gt;2592523096944</title>
<path fill="none" stroke="black" d="M300.64,-98C308.43,-98 316.75,-98 325.11,-98"/>
<polygon fill="black" stroke="black" points="324.96,-101.5 334.96,-98 324.96,-94.5 324.96,-101.5"/>
</g>
<!-- 2592523104192 -->
<g id="node5" class="node">
<title>2592523104192</title>
<polygon fill="none" stroke="black" points="586,-116 489.75,-116 489.75,-80 586,-80 586,-116"/>
<text text-anchor="middle" x="537.88" y="-92.97" font-family="Times New Roman,serif" font-size="12.00">Send notification</text>
</g>
<!-- 2592523096944&#45;&gt;2592523104192 -->
<g id="edge4" class="edge">
<title>2592523096944&#45;&gt;2592523104192</title>
<path fill="none" stroke="black" d="M454.19,-98C462.12,-98 470.28,-98 478.22,-98"/>
<polygon fill="black" stroke="black" points="478.16,-101.5 488.16,-98 478.16,-94.5 478.16,-101.5"/>
</g>
<!-- 2592521440816 -->
<g id="node6" class="node">
<title>2592521440816</title>
<polygon fill="none" stroke="black" points="649,-116 622,-98 649,-80 676,-98 649,-116"/>
<text text-anchor="middle" x="649" y="-92.97" font-family="Times New Roman,serif" font-size="12.00">X</text>
</g>
<!-- 2592523104192&#45;&gt;2592521440816 -->
<g id="edge5" class="edge">
<title>2592523104192&#45;&gt;2592521440816</title>
<path fill="none" stroke="black" d="M586.42,-98C594.26,-98 602.3,-98 609.87,-98"/>
<polygon fill="black" stroke="black" points="609.77,-101.5 619.77,-98 609.77,-94.5 609.77,-101.5"/>
</g>
<!-- 2592521441776 -->
<g id="node7" class="node">
<title>2592521441776</title>
<polygon fill="none" stroke="black" points="875.75,-139 712,-139 712,-103 875.75,-103 875.75,-139"/>
<text text-anchor="middle" x="793.88" y="-115.97" font-family="Times New Roman,serif" font-size="12.00">Review report by audit director</text>
</g>
<!-- 2592521440816&#45;&gt;2592521441776 -->
<g id="edge6" class="edge">
<title>2592521440816&#45;&gt;2592521441776</title>
<path fill="none" stroke="black" d="M671.39,-101.44C679.59,-102.76 689.57,-104.37 700.24,-106.09"/>
<polygon fill="black" stroke="black" points="699.64,-109.54 710.06,-107.67 700.75,-102.62 699.64,-109.54"/>
</g>
<!-- 2592521445088 -->
<g id="node8" class="node">
<title>2592521445088</title>
<polygon fill="none" stroke="black" points="938.75,-139 911.75,-121 938.75,-103 965.75,-121 938.75,-139"/>
<text text-anchor="middle" x="938.75" y="-115.97" font-family="Times New Roman,serif" font-size="12.00">X</text>
</g>
<!-- 2592521441776&#45;&gt;2592521445088 -->
<g id="edge7" class="edge">
<title>2592521441776&#45;&gt;2592521445088</title>
<path fill="none" stroke="black" d="M875.91,-121C884.08,-121 892.08,-121 899.47,-121"/>
<polygon fill="black" stroke="black" points="899.37,-124.5 909.37,-121 899.37,-117.5 899.37,-124.5"/>
</g>
<!-- 2592523105968 -->
<g id="node9" class="node">
<title>2592523105968</title>
<polygon fill="none" stroke="black" points="1122.38,-193 1008.88,-193 1008.88,-157 1122.38,-157 1122.38,-193"/>
<text text-anchor="middle" x="1065.62" y="-169.97" font-family="Times New Roman,serif" font-size="12.00">Compile audit report</text>
</g>
<!-- 2592521445088&#45;&gt;2592523105968 -->
<g id="edge9" class="edge">
<title>2592521445088&#45;&gt;2592523105968</title>
<path fill="none" stroke="black" d="M955.8,-128.02C968.31,-133.48 986.13,-141.24 1001.75,-148 1004.87,-149.35 1008.07,-150.73 1011.3,-152.12"/>
<polygon fill="black" stroke="black" points="1009.7,-155.24 1020.27,-155.99 1012.47,-148.82 1009.7,-155.24"/>
</g>
<!-- 2592523107792 -->
<g id="node10" class="node">
<title>2592523107792</title>
<polygon fill="none" stroke="black" points="1129.5,-139 1001.75,-139 1001.75,-103 1129.5,-103 1129.5,-139"/>
<text text-anchor="middle" x="1065.62" y="-115.97" font-family="Times New Roman,serif" font-size="12.00">Send report for revision</text>
</g>
<!-- 2592521445088&#45;&gt;2592523107792 -->
<g id="edge8" class="edge">
<title>2592521445088&#45;&gt;2592523107792</title>
<path fill="none" stroke="black" d="M966.54,-121C973.63,-121 981.65,-121 989.97,-121"/>
<polygon fill="black" stroke="black" points="989.93,-124.5 999.93,-121 989.93,-117.5 989.93,-124.5"/>
</g>
<!-- 2592523099344 -->
<g id="node11" class="node">
<title>2592523099344</title>
<polygon fill="none" stroke="black" points="1352.5,-193 1165.5,-193 1165.5,-157 1352.5,-157 1352.5,-193"/>
<text text-anchor="middle" x="1259" y="-169.97" font-family="Times New Roman,serif" font-size="12.00">Complete risk assessment/mitigation</text>
</g>
<!-- 2592523105968&#45;&gt;2592523099344 -->
<g id="edge10" class="edge">
<title>2592523105968&#45;&gt;2592523099344</title>
<path fill="none" stroke="black" d="M1122.75,-175C1132.66,-175 1143.25,-175 1153.98,-175"/>
<polygon fill="black" stroke="black" points="1153.68,-178.5 1163.68,-175 1153.68,-171.5 1153.68,-178.5"/>
</g>
<!-- 2592523097472 -->
<g id="node12" class="node">
<title>2592523097472</title>
<polygon fill="none" stroke="black" points="1331.5,-116 1186.5,-116 1186.5,-80 1331.5,-80 1331.5,-116"/>
<text text-anchor="middle" x="1259" y="-92.97" font-family="Times New Roman,serif" font-size="12.00">Update and resubmit report</text>
</g>
<!-- 2592523107792&#45;&gt;2592523097472 -->
<g id="edge11" class="edge">
<title>2592523107792&#45;&gt;2592523097472</title>
<path fill="none" stroke="black" d="M1129.82,-113.41C1144.36,-111.66 1160.04,-109.77 1175.27,-107.94"/>
<polygon fill="black" stroke="black" points="1175.25,-111.47 1184.76,-106.8 1174.42,-104.52 1175.25,-111.47"/>
</g>
<!-- 2592521444608 -->
<g id="node13" class="node">
<title>2592521444608</title>
<polygon fill="none" stroke="black" points="1415.5,-193 1388.5,-175 1415.5,-157 1442.5,-175 1415.5,-193"/>
<text text-anchor="middle" x="1415.5" y="-169.97" font-family="Times New Roman,serif" font-size="12.00">X</text>
</g>
<!-- 2592523099344&#45;&gt;2592521444608 -->
<g id="edge13" class="edge">
<title>2592523099344&#45;&gt;2592521444608</title>
<path fill="none" stroke="black" d="M1352.99,-175C1361.2,-175 1369.16,-175 1376.47,-175"/>
<polygon fill="black" stroke="black" points="1376.24,-178.5 1386.24,-175 1376.24,-171.5 1376.24,-178.5"/>
</g>
<!-- 2592523097472&#45;&gt;2592521440816 -->
<g id="edge12" class="edge">
<title>2592523097472&#45;&gt;2592521440816</title>
<path fill="none" stroke="black" d="M1186.31,-95.37C1167.8,-94.8 1147.91,-94.29 1129.5,-94 943.97,-91.11 897.46,-88.02 712,-94 703.33,-94.28 693.98,-94.78 685.25,-95.33"/>
<polygon fill="black" stroke="black" points="685.08,-91.83 675.34,-96 685.55,-98.82 685.08,-91.83"/>
</g>
<!-- 2592521440960 -->
<g id="node14" class="node">
<title>2592521440960</title>
<polygon fill="none" stroke="black" points="2176,-193 2149,-175 2176,-157 2203,-175 2176,-193"/>
<text text-anchor="middle" x="2176" y="-169.97" font-family="Times New Roman,serif" font-size="12.00">X</text>
</g>
<!-- 2592521444608&#45;&gt;2592521440960 -->
<g id="edge15" class="edge">
<title>2592521444608&#45;&gt;2592521440960</title>
<path fill="none" stroke="black" d="M1431.35,-182.97C1465.12,-200.33 1550.67,-240 1627.25,-240 1627.25,-240 1627.25,-240 1969.88,-240 2037.71,-240 2112.51,-207.3 2150.27,-188.29"/>
<polygon fill="black" stroke="black" points="2151.7,-191.49 2158.98,-183.79 2148.49,-185.27 2151.7,-191.49"/>
</g>
<!-- 2592521443312 -->
<g id="node15" class="node">
<title>2592521443312</title>
<polygon fill="none" stroke="black" points="1505.5,-128 1478.5,-110 1505.5,-92 1532.5,-110 1505.5,-128"/>
<text text-anchor="middle" x="1505.5" y="-104.97" font-family="Times New Roman,serif" font-size="12.00">+</text>
</g>
<!-- 2592521444608&#45;&gt;2592521443312 -->
<g id="edge14" class="edge">
<title>2592521444608&#45;&gt;2592521443312</title>
<path fill="none" stroke="black" d="M1429.11,-165.69C1443.09,-155.36 1465.9,-138.51 1482.78,-126.04"/>
<polygon fill="black" stroke="black" points="1484.73,-128.95 1490.7,-120.19 1480.57,-123.32 1484.73,-128.95"/>
</g>
<!-- 2592521437360 -->
<g id="node18" class="node">
<title>2592521437360</title>
<polygon fill="none" stroke="black" points="2266,-193 2239,-175 2266,-157 2293,-175 2266,-193"/>
<text text-anchor="middle" x="2266" y="-169.97" font-family="Times New Roman,serif" font-size="12.00">+</text>
</g>
<!-- 2592521440960&#45;&gt;2592521437360 -->
<g id="edge16" class="edge">
<title>2592521440960&#45;&gt;2592521437360</title>
<path fill="none" stroke="black" d="M2203.88,-175C2211.13,-175 2219.12,-175 2226.85,-175"/>
<polygon fill="black" stroke="black" points="2226.77,-178.5 2236.77,-175 2226.77,-171.5 2226.77,-178.5"/>
</g>
<!-- 2592521443744 -->
<g id="node16" class="node">
<title>2592521443744</title>
<polygon fill="none" stroke="black" points="1628.25,-182 1601.25,-164 1628.25,-146 1655.25,-164 1628.25,-182"/>
<text text-anchor="middle" x="1628.25" y="-158.97" font-family="Times New Roman,serif" font-size="12.00">X</text>
</g>
<!-- 2592521443312&#45;&gt;2592521443744 -->
<g id="edge17" class="edge">
<title>2592521443312&#45;&gt;2592521443744</title>
<path fill="none" stroke="black" d="M1522.29,-117.06C1542.26,-125.99 1576.96,-141.51 1600.96,-152.24"/>
<polygon fill="black" stroke="black" points="1599.52,-155.43 1610.08,-156.32 1602.38,-149.04 1599.52,-155.43"/>
</g>
<!-- 2592521442256 -->
<g id="node17" class="node">
<title>2592521442256</title>
<polygon fill="none" stroke="black" points="1688,-128 1568.5,-128 1568.5,-92 1688,-92 1688,-128"/>
<text text-anchor="middle" x="1628.25" y="-104.97" font-family="Times New Roman,serif" font-size="12.00">Conduct data analysis</text>
</g>
<!-- 2592521443312&#45;&gt;2592521442256 -->
<g id="edge18" class="edge">
<title>2592521443312&#45;&gt;2592521442256</title>
<path fill="none" stroke="black" d="M1533.3,-110C1540.46,-110 1548.55,-110 1556.91,-110"/>
<polygon fill="black" stroke="black" points="1556.88,-113.5 1566.88,-110 1556.88,-106.5 1556.88,-113.5"/>
</g>
<!-- 2592523092576 -->
<g id="node19" class="node">
<title>2592523092576</title>
<polygon fill="none" stroke="black" points="2023,-82 1914.75,-82 1914.75,-46 2023,-46 2023,-82"/>
<text text-anchor="middle" x="1968.88" y="-58.98" font-family="Times New Roman,serif" font-size="12.00">Conduct interviews</text>
</g>
<!-- 2592521443312&#45;&gt;2592523092576 -->
<g id="edge20" class="edge">
<title>2592521443312&#45;&gt;2592523092576</title>
<path fill="none" stroke="black" d="M1520.77,-102C1533.01,-95.58 1551.35,-87 1568.5,-83 1683.99,-56.06 1823.21,-56.62 1903.04,-59.97"/>
<polygon fill="black" stroke="black" points="1902.72,-63.46 1912.87,-60.41 1903.04,-56.46 1902.72,-63.46"/>
</g>
<!-- 2592523106688 -->
<g id="node20" class="node">
<title>2592523106688</title>
<polygon fill="none" stroke="black" points="1878.75,-36 1724,-36 1724,0 1878.75,0 1878.75,-36"/>
<text text-anchor="middle" x="1801.38" y="-12.97" font-family="Times New Roman,serif" font-size="12.00">Launch detailed investigation</text>
</g>
<!-- 2592521443312&#45;&gt;2592523106688 -->
<g id="edge19" class="edge">
<title>2592521443312&#45;&gt;2592523106688</title>
<path fill="none" stroke="black" d="M1515.04,-98.01C1525.78,-83.95 1545.6,-61.15 1568.5,-50 1612.88,-28.39 1667.34,-20.09 1712.33,-17.32"/>
<polygon fill="black" stroke="black" points="1712.24,-20.83 1722.04,-16.81 1711.87,-13.84 1712.24,-20.83"/>
</g>
<!-- 2592521452288 -->
<g id="node21" class="node">
<title>2592521452288</title>
<polygon fill="none" stroke="black" points="1968.88,-174 1941.88,-156 1968.88,-138 1995.88,-156 1968.88,-174"/>
<text text-anchor="middle" x="1968.88" y="-150.97" font-family="Times New Roman,serif" font-size="12.00">X</text>
</g>
<!-- 2592521443744&#45;&gt;2592521452288 -->
<g id="edge21" class="edge">
<title>2592521443744&#45;&gt;2592521452288</title>
<path fill="none" stroke="black" d="M1648.32,-168.98C1667.33,-173.67 1697.45,-180.36 1724,-183 1792.44,-189.79 1810.71,-193.08 1878.75,-183 1900,-179.85 1923.21,-172.7 1940.61,-166.54"/>
<polygon fill="black" stroke="black" points="1941.52,-169.94 1949.71,-163.21 1939.11,-163.36 1941.52,-169.94"/>
</g>
<!-- 2592521442352 -->
<g id="node23" class="node">
<title>2592521442352</title>
<polygon fill="none" stroke="black" points="1851.38,-174 1751.38,-174 1751.38,-138 1851.38,-138 1851.38,-174"/>
<text text-anchor="middle" x="1801.38" y="-150.97" font-family="Times New Roman,serif" font-size="12.00">Perform site visits</text>
</g>
<!-- 2592521443744&#45;&gt;2592521442352 -->
<g id="edge22" class="edge">
<title>2592521443744&#45;&gt;2592521442352</title>
<path fill="none" stroke="black" d="M1654.13,-162.84C1676.47,-161.79 1710.19,-160.22 1739.61,-158.84"/>
<polygon fill="black" stroke="black" points="1739.73,-162.34 1749.56,-158.38 1739.41,-155.35 1739.73,-162.34"/>
</g>
<!-- 2592523101936 -->
<g id="node25" class="node">
<title>2592523101936</title>
<polygon fill="none" stroke="black" points="2086,-128 2059,-110 2086,-92 2113,-110 2086,-128"/>
<text text-anchor="middle" x="2086" y="-104.97" font-family="Times New Roman,serif" font-size="12.00">+</text>
</g>
<!-- 2592521442256&#45;&gt;2592523101936 -->
<g id="edge23" class="edge">
<title>2592521442256&#45;&gt;2592523101936</title>
<path fill="none" stroke="black" d="M1688.36,-110C1783.32,-110 1967.23,-110 2046.79,-110"/>
<polygon fill="black" stroke="black" points="2046.68,-113.5 2056.68,-110 2046.68,-106.5 2046.68,-113.5"/>
</g>
<!-- 2592521441344 -->
<g id="node22" class="node">
<title>2592521441344</title>
<polygon fill="none" stroke="black" points="2461.25,-247 2335.75,-247 2335.75,-211 2461.25,-211 2461.25,-247"/>
<text text-anchor="middle" x="2398.5" y="-223.97" font-family="Times New Roman,serif" font-size="12.00">Evaluate financial risks</text>
</g>
<!-- 2592521437360&#45;&gt;2592521441344 -->
<g id="edge24" class="edge">
<title>2592521437360&#45;&gt;2592521441344</title>
<path fill="none" stroke="black" d="M2282.99,-182.15C2295.47,-187.68 2313.27,-195.48 2329,-202 2332.53,-203.46 2336.17,-204.95 2339.85,-206.45"/>
<polygon fill="black" stroke="black" points="2338.26,-209.58 2348.84,-210.06 2340.87,-203.08 2338.26,-209.58"/>
</g>
<!-- 2592523106208 -->
<g id="node24" class="node">
<title>2592523106208</title>
<polygon fill="none" stroke="black" points="2467.25,-193 2329.75,-193 2329.75,-157 2467.25,-157 2467.25,-193"/>
<text text-anchor="middle" x="2398.5" y="-169.97" font-family="Times New Roman,serif" font-size="12.00">Evaluate operational risks</text>
</g>
<!-- 2592521437360&#45;&gt;2592523106208 -->
<g id="edge25" class="edge">
<title>2592521437360&#45;&gt;2592523106208</title>
<path fill="none" stroke="black" d="M2293.72,-175C2300.98,-175 2309.23,-175 2317.83,-175"/>
<polygon fill="black" stroke="black" points="2317.78,-178.5 2327.78,-175 2317.78,-171.5 2317.78,-178.5"/>
</g>
<!-- 2592523103568 -->
<g id="node26" class="node">
<title>2592523103568</title>
<polygon fill="none" stroke="black" points="2468,-139 2329,-139 2329,-103 2468,-103 2468,-139"/>
<text text-anchor="middle" x="2398.5" y="-115.97" font-family="Times New Roman,serif" font-size="12.00">Evaluate compliance risks</text>
</g>
<!-- 2592521437360&#45;&gt;2592523103568 -->
<g id="edge26" class="edge">
<title>2592521437360&#45;&gt;2592523103568</title>
<path fill="none" stroke="black" d="M2282.99,-167.85C2295.47,-162.32 2313.27,-154.52 2329,-148 2332.53,-146.54 2336.17,-145.05 2339.85,-143.55"/>
<polygon fill="black" stroke="black" points="2340.87,-146.92 2348.84,-139.94 2338.26,-140.42 2340.87,-146.92"/>
</g>
<!-- 2592523092576&#45;&gt;2592523101936 -->
<g id="edge27" class="edge">
<title>2592523092576&#45;&gt;2592523101936</title>
<path fill="none" stroke="black" d="M2016.04,-82.44C2030.21,-88.11 2045.35,-94.16 2057.82,-99.14"/>
<polygon fill="black" stroke="black" points="2056.43,-102.35 2067.02,-102.81 2059.03,-95.85 2056.43,-102.35"/>
</g>
<!-- 2592523106688&#45;&gt;2592523101936 -->
<g id="edge28" class="edge">
<title>2592523106688&#45;&gt;2592523101936</title>
<path fill="none" stroke="black" d="M1879.11,-10.59C1923.46,-9.63 1979.01,-14.31 2023,-37 2044.42,-48.05 2061.45,-69.98 2072.21,-86.94"/>
<polygon fill="black" stroke="black" points="2069.15,-88.64 2077.29,-95.41 2075.15,-85.03 2069.15,-88.64"/>
</g>
<!-- 2592521452288&#45;&gt;2592523101936 -->
<g id="edge30" class="edge">
<title>2592521452288&#45;&gt;2592523101936</title>
<path fill="none" stroke="black" d="M1986.37,-149.41C2005.09,-141.93 2035.91,-129.62 2058.12,-120.74"/>
<polygon fill="black" stroke="black" points="2059.14,-124.1 2067.13,-117.14 2056.55,-117.6 2059.14,-124.1"/>
</g>
<!-- 2592523108128 -->
<g id="node27" class="node">
<title>2592523108128</title>
<polygon fill="none" stroke="black" points="2531,-193 2504,-175 2531,-157 2558,-175 2531,-193"/>
<text text-anchor="middle" x="2531" y="-169.97" font-family="Times New Roman,serif" font-size="12.00">+</text>
</g>
<!-- 2592521441344&#45;&gt;2592523108128 -->
<g id="edge32" class="edge">
<title>2592521441344&#45;&gt;2592523108128</title>
<path fill="none" stroke="black" d="M2446.75,-210.63C2453.89,-207.78 2461.15,-204.84 2468,-202 2479.79,-197.11 2492.76,-191.5 2503.77,-186.67"/>
<polygon fill="black" stroke="black" points="2504.89,-190 2512.62,-182.76 2502.06,-183.59 2504.89,-190"/>
</g>
<!-- 2592521442352&#45;&gt;2592521452288 -->
<g id="edge31" class="edge">
<title>2592521442352&#45;&gt;2592521452288</title>
<path fill="none" stroke="black" d="M1851.58,-156C1876.57,-156 1906.48,-156 1929.7,-156"/>
<polygon fill="black" stroke="black" points="1929.66,-159.5 1939.66,-156 1929.66,-152.5 1929.66,-159.5"/>
</g>
<!-- 2592523106208&#45;&gt;2592523108128 -->
<g id="edge33" class="edge">
<title>2592523106208&#45;&gt;2592523108128</title>
<path fill="none" stroke="black" d="M2467.43,-175C2475.9,-175 2484.31,-175 2492.09,-175"/>
<polygon fill="black" stroke="black" points="2491.82,-178.5 2501.82,-175 2491.82,-171.5 2491.82,-178.5"/>
</g>
<!-- 2592523101936&#45;&gt;2592521440960 -->
<g id="edge29" class="edge">
<title>2592523101936&#45;&gt;2592521440960</title>
<path fill="none" stroke="black" d="M2099.61,-119.31C2113.59,-129.64 2136.4,-146.49 2153.28,-158.96"/>
<polygon fill="black" stroke="black" points="2151.07,-161.68 2161.2,-164.81 2155.23,-156.05 2151.07,-161.68"/>
</g>
<!-- 2592523103568&#45;&gt;2592523108128 -->
<g id="edge34" class="edge">
<title>2592523103568&#45;&gt;2592523108128</title>
<path fill="none" stroke="black" d="M2446.75,-139.37C2453.89,-142.22 2461.15,-145.16 2468,-148 2479.79,-152.89 2492.76,-158.5 2503.77,-163.33"/>
<polygon fill="black" stroke="black" points="2502.06,-166.41 2512.62,-167.24 2504.89,-160 2502.06,-166.41"/>
</g>
<!-- 2592521446912 -->
<g id="node28" class="node">
<title>2592521446912</title>
<polygon fill="none" stroke="black" points="2621,-193 2594,-175 2621,-157 2648,-175 2621,-193"/>
<text text-anchor="middle" x="2621" y="-169.97" font-family="Times New Roman,serif" font-size="12.00">X</text>
</g>
<!-- 2592523108128&#45;&gt;2592521446912 -->
<g id="edge35" class="edge">
<title>2592523108128&#45;&gt;2592521446912</title>
<path fill="none" stroke="black" d="M2558.88,-175C2566.13,-175 2574.12,-175 2581.85,-175"/>
<polygon fill="black" stroke="black" points="2581.77,-178.5 2591.77,-175 2581.77,-171.5 2581.77,-178.5"/>
</g>
<!-- 2592521444464 -->
<g id="node29" class="node">
<title>2592521444464</title>
<polygon fill="none" stroke="black" points="3096.25,-193 3069.25,-175 3096.25,-157 3123.25,-175 3096.25,-193"/>
<text text-anchor="middle" x="3096.25" y="-169.97" font-family="Times New Roman,serif" font-size="12.00">X</text>
</g>
<!-- 2592521446912&#45;&gt;2592521444464 -->
<g id="edge36" class="edge">
<title>2592521446912&#45;&gt;2592521444464</title>
<path fill="none" stroke="black" d="M2645.83,-176.9C2657.35,-177.72 2671.39,-178.59 2684,-179 2839.14,-184 2878.11,-184 3033.25,-179 3041.92,-178.72 3051.27,-178.22 3060,-177.67"/>
<polygon fill="black" stroke="black" points="3060.17,-181.17 3069.91,-177 3059.7,-174.18 3060.17,-181.17"/>
</g>
<!-- 2592523094448 -->
<g id="node30" class="node">
<title>2592523094448</title>
<polygon fill="none" stroke="black" points="2801.25,-170 2684,-170 2684,-134 2801.25,-134 2801.25,-170"/>
<text text-anchor="middle" x="2742.62" y="-146.97" font-family="Times New Roman,serif" font-size="12.00">Receive clarifications</text>
</g>
<!-- 2592521446912&#45;&gt;2592523094448 -->
<g id="edge37" class="edge">
<title>2592521446912&#45;&gt;2592523094448</title>
<path fill="none" stroke="black" d="M2642.84,-170.99C2651.28,-169.37 2661.57,-167.39 2672.27,-165.34"/>
<polygon fill="black" stroke="black" points="2672.86,-168.78 2682.02,-163.46 2671.54,-161.91 2672.86,-168.78"/>
</g>
<!-- 2592523106832 -->
<g id="node32" class="node">
<title>2592523106832</title>
<polygon fill="none" stroke="black" points="3267.5,-193 3159.25,-193 3159.25,-157 3267.5,-157 3267.5,-193"/>
<text text-anchor="middle" x="3213.38" y="-169.97" font-family="Times New Roman,serif" font-size="12.00">Review submission</text>
</g>
<!-- 2592521444464&#45;&gt;2592523106832 -->
<g id="edge38" class="edge">
<title>2592521444464&#45;&gt;2592523106832</title>
<path fill="none" stroke="black" d="M3123.95,-175C3131.17,-175 3139.3,-175 3147.64,-175"/>
<polygon fill="black" stroke="black" points="3147.55,-178.5 3157.55,-175 3147.55,-171.5 3147.55,-178.5"/>
</g>
<!-- 2592521443792 -->
<g id="node31" class="node">
<title>2592521443792</title>
<polygon fill="none" stroke="black" points="3033.25,-170 2837.25,-170 2837.25,-134 3033.25,-134 3033.25,-170"/>
<text text-anchor="middle" x="2935.25" y="-146.97" font-family="Times New Roman,serif" font-size="12.00">Request clarifications of discrepancies</text>
</g>
<!-- 2592523094448&#45;&gt;2592521443792 -->
<g id="edge39" class="edge">
<title>2592523094448&#45;&gt;2592521443792</title>
<path fill="none" stroke="black" d="M2801.6,-152C2809.28,-152 2817.34,-152 2825.54,-152"/>
<polygon fill="black" stroke="black" points="2825.27,-155.5 2835.27,-152 2825.27,-148.5 2825.27,-155.5"/>
</g>
<!-- 2592521443792&#45;&gt;2592521444464 -->
<g id="edge40" class="edge">
<title>2592521443792&#45;&gt;2592521444464</title>
<path fill="none" stroke="black" d="M3033.32,-166.04C3043.63,-167.53 3053.53,-168.97 3062.27,-170.23"/>
<polygon fill="black" stroke="black" points="3061.51,-173.66 3071.9,-171.62 3062.51,-166.73 3061.51,-173.66"/>
</g>
<!-- 2592521441248 -->
<g id="node33" class="node">
<title>2592521441248</title>
<polygon fill="none" stroke="black" points="3407.25,-193 3303.5,-193 3303.5,-157 3407.25,-157 3407.25,-193"/>
<text text-anchor="middle" x="3355.38" y="-169.97" font-family="Times New Roman,serif" font-size="12.00">Submit documents</text>
</g>
<!-- 2592523106832&#45;&gt;2592521441248 -->
<g id="edge41" class="edge">
<title>2592523106832&#45;&gt;2592521441248</title>
<path fill="none" stroke="black" d="M3267.7,-175C3275.58,-175 3283.76,-175 3291.8,-175"/>
<polygon fill="black" stroke="black" points="3291.53,-178.5 3301.53,-175 3291.53,-171.5 3291.53,-178.5"/>
</g>
<!-- 2592523722608 -->
<g id="node34" class="node">
<title>2592523722608</title>
<ellipse fill="orange" stroke="black" cx="3461.25" cy="-175" rx="18" ry="18"/>
</g>
<!-- 2592521441248&#45;&gt;2592523722608 -->
<g id="edge42" class="edge">
<title>2592521441248&#45;&gt;2592523722608</title>
<path fill="none" stroke="black" d="M3407.7,-175C3415.92,-175 3424.16,-175 3431.6,-175"/>
<polygon fill="black" stroke="black" points="3431.34,-178.5 3441.34,-175 3431.34,-171.5 3431.34,-178.5"/>
</g>
</g>
</svg>
