<?xml version="1.0" encoding="UTF-8" standalone="no"?>
<!DOCTYPE svg PUBLIC "-//W3C//DTD SVG 1.1//EN"
 "http://www.w3.org/Graphics/SVG/1.1/DTD/svg11.dtd">
<!-- Generated by graphviz version 11.0.0 (20240428.1522)
 -->
<!-- Pages: 1 -->
<svg width="4545pt" height="144pt"
 viewBox="0.00 0.00 4544.75 144.00" xmlns="http://www.w3.org/2000/svg" xmlns:xlink="http://www.w3.org/1999/xlink">
<g id="graph0" class="graph" transform="scale(1 1) rotate(0) translate(4 140)">
<polygon fill="white" stroke="none" points="-4,4 -4,-140 4540.75,-140 4540.75,4 -4,4"/>
<!-- 2592514709536 -->
<g id="node1" class="node">
<title>2592514709536</title>
<ellipse fill="green" stroke="black" cx="18" cy="-64" rx="18" ry="18"/>
</g>
<!-- 2592518768304 -->
<g id="node2" class="node">
<title>2592518768304</title>
<polygon fill="none" stroke="black" points="209.5,-82 72,-82 72,-46 209.5,-46 209.5,-82"/>
<text text-anchor="middle" x="140.75" y="-58.98" font-family="Times New Roman,serif" font-size="12.00">Evaluate operational risks</text>
</g>
<!-- 2592514709536&#45;&gt;2592518768304 -->
<g id="edge1" class="edge">
<title>2592514709536&#45;&gt;2592518768304</title>
<path fill="none" stroke="black" d="M36.3,-64C43.04,-64 51.28,-64 60.13,-64"/>
<polygon fill="black" stroke="black" points="60.09,-67.5 70.09,-64 60.09,-60.5 60.09,-67.5"/>
</g>
<!-- 2592514718128 -->
<g id="node3" class="node">
<title>2592514718128</title>
<polygon fill="none" stroke="black" points="272.5,-82 245.5,-64 272.5,-46 299.5,-64 272.5,-82"/>
<text text-anchor="middle" x="272.5" y="-58.98" font-family="Times New Roman,serif" font-size="12.00">X</text>
</g>
<!-- 2592518768304&#45;&gt;2592514718128 -->
<g id="edge2" class="edge">
<title>2592518768304&#45;&gt;2592514718128</title>
<path fill="none" stroke="black" d="M209.67,-64C217.87,-64 226.02,-64 233.57,-64"/>
<polygon fill="black" stroke="black" points="233.36,-67.5 243.36,-64 233.36,-60.5 233.36,-67.5"/>
</g>
<!-- 2592518769072 -->
<g id="node4" class="node">
<title>2592518769072</title>
<polygon fill="none" stroke="black" points="588,-109 460.25,-109 460.25,-73 588,-73 588,-109"/>
<text text-anchor="middle" x="524.12" y="-85.97" font-family="Times New Roman,serif" font-size="12.00">Send report for revision</text>
</g>
<!-- 2592514718128&#45;&gt;2592518769072 -->
<g id="edge3" class="edge">
<title>2592514718128&#45;&gt;2592518769072</title>
<path fill="none" stroke="black" d="M296.54,-66.49C330.78,-70.2 396.64,-77.32 448.56,-82.94"/>
<polygon fill="black" stroke="black" points="447.93,-86.39 458.25,-83.98 448.68,-79.43 447.93,-86.39"/>
</g>
<!-- 2592514719616 -->
<g id="node5" class="node">
<title>2592514719616</title>
<polygon fill="none" stroke="black" points="424.25,-59 335.5,-59 335.5,-23 424.25,-23 424.25,-59"/>
<text text-anchor="middle" x="379.88" y="-35.98" font-family="Times New Roman,serif" font-size="12.00">Approve report</text>
</g>
<!-- 2592514718128&#45;&gt;2592514719616 -->
<g id="edge4" class="edge">
<title>2592514718128&#45;&gt;2592514719616</title>
<path fill="none" stroke="black" d="M293.32,-59.67C302.17,-57.74 313.09,-55.36 324.12,-52.95"/>
<polygon fill="black" stroke="black" points="324.63,-56.42 333.65,-50.87 323.13,-49.58 324.63,-56.42"/>
</g>
<!-- 2592514716160 -->
<g id="node6" class="node">
<title>2592514716160</title>
<polygon fill="none" stroke="black" points="651,-82 624,-64 651,-46 678,-64 651,-82"/>
<text text-anchor="middle" x="651" y="-58.98" font-family="Times New Roman,serif" font-size="12.00">X</text>
</g>
<!-- 2592518769072&#45;&gt;2592514716160 -->
<g id="edge5" class="edge">
<title>2592518769072&#45;&gt;2592514716160</title>
<path fill="none" stroke="black" d="M588.29,-77.34C598.93,-75.04 609.53,-72.75 618.88,-70.73"/>
<polygon fill="black" stroke="black" points="619.43,-74.19 628.46,-68.66 617.95,-67.35 619.43,-74.19"/>
</g>
<!-- 2592514717648 -->
<g id="node7" class="node">
<title>2592514717648</title>
<polygon fill="none" stroke="black" points="572.25,-55 476,-55 476,-19 572.25,-19 572.25,-55"/>
<text text-anchor="middle" x="524.12" y="-31.98" font-family="Times New Roman,serif" font-size="12.00">Send notification</text>
</g>
<!-- 2592514719616&#45;&gt;2592514717648 -->
<g id="edge6" class="edge">
<title>2592514719616&#45;&gt;2592514717648</title>
<path fill="none" stroke="black" d="M424.72,-39.77C437.22,-39.42 451.04,-39.03 464.28,-38.65"/>
<polygon fill="black" stroke="black" points="464.31,-42.16 474.21,-38.38 464.11,-35.16 464.31,-42.16"/>
</g>
<!-- 2592518777328 -->
<g id="node8" class="node">
<title>2592518777328</title>
<polygon fill="none" stroke="black" points="833.5,-82 714,-82 714,-46 833.5,-46 833.5,-82"/>
<text text-anchor="middle" x="773.75" y="-58.98" font-family="Times New Roman,serif" font-size="12.00">Conduct data analysis</text>
</g>
<!-- 2592514716160&#45;&gt;2592518777328 -->
<g id="edge8" class="edge">
<title>2592514716160&#45;&gt;2592518777328</title>
<path fill="none" stroke="black" d="M678.8,-64C685.96,-64 694.05,-64 702.41,-64"/>
<polygon fill="black" stroke="black" points="702.38,-67.5 712.38,-64 702.38,-60.5 702.38,-67.5"/>
</g>
<!-- 2592514717648&#45;&gt;2592514716160 -->
<g id="edge7" class="edge">
<title>2592514717648&#45;&gt;2592514716160</title>
<path fill="none" stroke="black" d="M572.69,-47.28C588.2,-50.64 605.01,-54.27 618.98,-57.29"/>
<polygon fill="black" stroke="black" points="617.96,-60.65 628.47,-59.35 619.44,-53.81 617.96,-60.65"/>
</g>
<!-- 2592514703632 -->
<g id="node9" class="node">
<title>2592514703632</title>
<polygon fill="none" stroke="black" points="1008.5,-82 869.5,-82 869.5,-46 1008.5,-46 1008.5,-82"/>
<text text-anchor="middle" x="939" y="-58.98" font-family="Times New Roman,serif" font-size="12.00">Evaluate compliance risks</text>
</g>
<!-- 2592518777328&#45;&gt;2592514703632 -->
<g id="edge9" class="edge">
<title>2592518777328&#45;&gt;2592514703632</title>
<path fill="none" stroke="black" d="M833.69,-64C841.51,-64 849.63,-64 857.74,-64"/>
<polygon fill="black" stroke="black" points="857.64,-67.5 867.64,-64 857.64,-60.5 857.64,-67.5"/>
</g>
<!-- 2592514718368 -->
<g id="node10" class="node">
<title>2592514718368</title>
<polygon fill="none" stroke="black" points="1071.5,-82 1044.5,-64 1071.5,-46 1098.5,-64 1071.5,-82"/>
<text text-anchor="middle" x="1071.5" y="-58.98" font-family="Times New Roman,serif" font-size="12.00">X</text>
</g>
<!-- 2592514703632&#45;&gt;2592514718368 -->
<g id="edge10" class="edge">
<title>2592514703632&#45;&gt;2592514718368</title>
<path fill="none" stroke="black" d="M1008.69,-64C1016.73,-64 1024.71,-64 1032.12,-64"/>
<polygon fill="black" stroke="black" points="1032.09,-67.5 1042.09,-64 1032.09,-60.5 1032.09,-67.5"/>
</g>
<!-- 2592514718656 -->
<g id="node11" class="node">
<title>2592514718656</title>
<polygon fill="none" stroke="black" points="1501.75,-82 1474.75,-64 1501.75,-46 1528.75,-64 1501.75,-82"/>
<text text-anchor="middle" x="1501.75" y="-58.98" font-family="Times New Roman,serif" font-size="12.00">X</text>
</g>
<!-- 2592514718368&#45;&gt;2592514718656 -->
<g id="edge12" class="edge">
<title>2592514718368&#45;&gt;2592514718656</title>
<path fill="none" stroke="black" d="M1096.33,-65.9C1107.85,-66.72 1121.89,-67.59 1134.5,-68 1269.65,-72.36 1303.6,-72.36 1438.75,-68 1447.42,-67.72 1456.77,-67.22 1465.5,-66.67"/>
<polygon fill="black" stroke="black" points="1465.67,-70.17 1475.41,-66 1465.2,-63.18 1465.67,-70.17"/>
</g>
<!-- 2592518774976 -->
<g id="node12" class="node">
<title>2592518774976</title>
<polygon fill="none" stroke="black" points="1289.25,-59 1134.5,-59 1134.5,-23 1289.25,-23 1289.25,-59"/>
<text text-anchor="middle" x="1211.88" y="-35.98" font-family="Times New Roman,serif" font-size="12.00">Launch detailed investigation</text>
</g>
<!-- 2592514718368&#45;&gt;2592518774976 -->
<g id="edge11" class="edge">
<title>2592514718368&#45;&gt;2592518774976</title>
<path fill="none" stroke="black" d="M1093.82,-60.46C1102.09,-59.08 1112.15,-57.41 1122.86,-55.63"/>
<polygon fill="black" stroke="black" points="1123.43,-59.08 1132.72,-53.99 1122.28,-52.18 1123.43,-59.08"/>
</g>
<!-- 2592514707520 -->
<g id="node14" class="node">
<title>2592514707520</title>
<polygon fill="none" stroke="black" points="1591.75,-82 1564.75,-64 1591.75,-46 1618.75,-64 1591.75,-82"/>
<text text-anchor="middle" x="1591.75" y="-58.98" font-family="Times New Roman,serif" font-size="12.00">+</text>
</g>
<!-- 2592514718656&#45;&gt;2592514707520 -->
<g id="edge13" class="edge">
<title>2592514718656&#45;&gt;2592514707520</title>
<path fill="none" stroke="black" d="M1529.63,-64C1536.88,-64 1544.87,-64 1552.6,-64"/>
<polygon fill="black" stroke="black" points="1552.52,-67.5 1562.52,-64 1552.52,-60.5 1552.52,-67.5"/>
</g>
<!-- 2592518771280 -->
<g id="node13" class="node">
<title>2592518771280</title>
<polygon fill="none" stroke="black" points="1438.75,-59 1325.25,-59 1325.25,-23 1438.75,-23 1438.75,-59"/>
<text text-anchor="middle" x="1382" y="-35.98" font-family="Times New Roman,serif" font-size="12.00">Compile audit report</text>
</g>
<!-- 2592518774976&#45;&gt;2592518771280 -->
<g id="edge14" class="edge">
<title>2592518774976&#45;&gt;2592518771280</title>
<path fill="none" stroke="black" d="M1289.56,-41C1297.59,-41 1305.71,-41 1313.62,-41"/>
<polygon fill="black" stroke="black" points="1313.52,-44.5 1323.52,-41 1313.52,-37.5 1313.52,-44.5"/>
</g>
<!-- 2592518771280&#45;&gt;2592514718656 -->
<g id="edge15" class="edge">
<title>2592518771280&#45;&gt;2592514718656</title>
<path fill="none" stroke="black" d="M1439.12,-51.96C1449.45,-53.98 1459.89,-56.02 1469.17,-57.83"/>
<polygon fill="black" stroke="black" points="1468.23,-61.21 1478.72,-59.7 1469.58,-54.34 1468.23,-61.21"/>
</g>
<!-- 2592514717936 -->
<g id="node15" class="node">
<title>2592514717936</title>
<polygon fill="none" stroke="black" points="1806.88,-136 1698.62,-136 1698.62,-100 1806.88,-100 1806.88,-136"/>
<text text-anchor="middle" x="1752.75" y="-112.97" font-family="Times New Roman,serif" font-size="12.00">Review submission</text>
</g>
<!-- 2592514707520&#45;&gt;2592514717936 -->
<g id="edge16" class="edge">
<title>2592514707520&#45;&gt;2592514717936</title>
<path fill="none" stroke="black" d="M1608.31,-71.5C1620.7,-77.29 1638.6,-85.27 1654.75,-91 1665.19,-94.71 1676.41,-98.23 1687.37,-101.44"/>
<polygon fill="black" stroke="black" points="1686.19,-104.74 1696.76,-104.12 1688.11,-98.01 1686.19,-104.74"/>
</g>
<!-- 2592514716544 -->
<g id="node16" class="node">
<title>2592514716544</title>
<polygon fill="none" stroke="black" points="1850.75,-82 1654.75,-82 1654.75,-46 1850.75,-46 1850.75,-82"/>
<text text-anchor="middle" x="1752.75" y="-58.98" font-family="Times New Roman,serif" font-size="12.00">Request clarifications of discrepancies</text>
</g>
<!-- 2592514707520&#45;&gt;2592514716544 -->
<g id="edge17" class="edge">
<title>2592514707520&#45;&gt;2592514716544</title>
<path fill="none" stroke="black" d="M1619.36,-64C1626.37,-64 1634.38,-64 1642.92,-64"/>
<polygon fill="black" stroke="black" points="1642.89,-67.5 1652.89,-64 1642.89,-60.5 1642.89,-67.5"/>
</g>
<!-- 2592514706080 -->
<g id="node17" class="node">
<title>2592514706080</title>
<polygon fill="none" stroke="black" points="2034,-36 1886.75,-36 1886.75,0 2034,0 2034,-36"/>
<text text-anchor="middle" x="1960.38" y="-12.97" font-family="Times New Roman,serif" font-size="12.00">Prepare financial statements</text>
</g>
<!-- 2592514707520&#45;&gt;2592514706080 -->
<g id="edge18" class="edge">
<title>2592514707520&#45;&gt;2592514706080</title>
<path fill="none" stroke="black" d="M1607.03,-56.07C1619.29,-49.69 1637.63,-41.13 1654.75,-37 1727.74,-19.41 1813.24,-15.47 1875.05,-15.46"/>
<polygon fill="black" stroke="black" points="1874.78,-18.96 1884.8,-15.5 1874.81,-11.96 1874.78,-18.96"/>
</g>
<!-- 2592514703968 -->
<g id="node19" class="node">
<title>2592514703968</title>
<polygon fill="none" stroke="black" points="2097,-90 2070,-72 2097,-54 2124,-72 2097,-90"/>
<text text-anchor="middle" x="2097" y="-66.97" font-family="Times New Roman,serif" font-size="12.00">+</text>
</g>
<!-- 2592514717936&#45;&gt;2592514703968 -->
<g id="edge19" class="edge">
<title>2592514717936&#45;&gt;2592514703968</title>
<path fill="none" stroke="black" d="M1807.26,-119.76C1864.27,-120.39 1956.77,-117.83 2034,-99 2046.83,-95.87 2060.36,-90.28 2071.49,-84.99"/>
<polygon fill="black" stroke="black" points="2072.96,-88.17 2080.36,-80.58 2069.85,-81.9 2072.96,-88.17"/>
</g>
<!-- 2592514705552 -->
<g id="node18" class="node">
<title>2592514705552</title>
<polygon fill="none" stroke="black" points="2019,-90 1901.75,-90 1901.75,-54 2019,-54 2019,-90"/>
<text text-anchor="middle" x="1960.38" y="-66.97" font-family="Times New Roman,serif" font-size="12.00">Receive clarifications</text>
</g>
<!-- 2592514716544&#45;&gt;2592514705552 -->
<g id="edge20" class="edge">
<title>2592514716544&#45;&gt;2592514705552</title>
<path fill="none" stroke="black" d="M1851.14,-67.79C1864.34,-68.3 1877.65,-68.82 1890.21,-69.31"/>
<polygon fill="black" stroke="black" points="1889.86,-72.8 1899.99,-69.69 1890.14,-65.8 1889.86,-72.8"/>
</g>
<!-- 2592514706080&#45;&gt;2592514703968 -->
<g id="edge21" class="edge">
<title>2592514706080&#45;&gt;2592514703968</title>
<path fill="none" stroke="black" d="M2011.91,-36.38C2019.34,-39.2 2026.89,-42.13 2034,-45 2045.84,-49.78 2058.81,-55.37 2069.81,-60.22"/>
<polygon fill="black" stroke="black" points="2068.1,-63.29 2078.66,-64.15 2070.94,-56.89 2068.1,-63.29"/>
</g>
<!-- 2592514705552&#45;&gt;2592514703968 -->
<g id="edge22" class="edge">
<title>2592514705552&#45;&gt;2592514703968</title>
<path fill="none" stroke="black" d="M2019.25,-72C2032.29,-72 2045.81,-72 2057.81,-72"/>
<polygon fill="black" stroke="black" points="2057.71,-75.5 2067.71,-72 2057.71,-68.5 2057.71,-75.5"/>
</g>
<!-- 2592514705456 -->
<g id="node20" class="node">
<title>2592514705456</title>
<polygon fill="none" stroke="black" points="2311,-90 2160,-90 2160,-54 2311,-54 2311,-90"/>
<text text-anchor="middle" x="2235.5" y="-66.97" font-family="Times New Roman,serif" font-size="12.00">Gather necessary documents</text>
</g>
<!-- 2592514703968&#45;&gt;2592514705456 -->
<g id="edge23" class="edge">
<title>2592514703968&#45;&gt;2592514705456</title>
<path fill="none" stroke="black" d="M2124.64,-72C2131.76,-72 2139.86,-72 2148.36,-72"/>
<polygon fill="black" stroke="black" points="2148.19,-75.5 2158.19,-72 2148.19,-68.5 2148.19,-75.5"/>
</g>
<!-- 2592514718320 -->
<g id="node21" class="node">
<title>2592514718320</title>
<polygon fill="none" stroke="black" points="2374,-90 2347,-72 2374,-54 2401,-72 2374,-90"/>
<text text-anchor="middle" x="2374" y="-66.97" font-family="Times New Roman,serif" font-size="12.00">X</text>
</g>
<!-- 2592514705456&#45;&gt;2592514718320 -->
<g id="edge24" class="edge">
<title>2592514705456&#45;&gt;2592514718320</title>
<path fill="none" stroke="black" d="M2311.14,-72C2319.29,-72 2327.32,-72 2334.76,-72"/>
<polygon fill="black" stroke="black" points="2334.74,-75.5 2344.74,-72 2334.74,-68.5 2334.74,-75.5"/>
</g>
<!-- 2592514718800 -->
<g id="node22" class="node">
<title>2592514718800</title>
<polygon fill="none" stroke="black" points="2608.25,-90 2581.25,-72 2608.25,-54 2635.25,-72 2608.25,-90"/>
<text text-anchor="middle" x="2608.25" y="-66.97" font-family="Times New Roman,serif" font-size="12.00">X</text>
</g>
<!-- 2592514718320&#45;&gt;2592514718800 -->
<g id="edge26" class="edge">
<title>2592514718320&#45;&gt;2592514718800</title>
<path fill="none" stroke="black" d="M2398.83,-73.9C2410.35,-74.72 2424.39,-75.59 2437,-76 2485.09,-77.55 2497.16,-77.55 2545.25,-76 2553.92,-75.72 2563.27,-75.22 2572,-74.67"/>
<polygon fill="black" stroke="black" points="2572.17,-78.17 2581.91,-74 2571.7,-71.18 2572.17,-78.17"/>
</g>
<!-- 2592514715728 -->
<g id="node23" class="node">
<title>2592514715728</title>
<polygon fill="none" stroke="black" points="2545.25,-67 2437,-67 2437,-31 2545.25,-31 2545.25,-67"/>
<text text-anchor="middle" x="2491.12" y="-43.98" font-family="Times New Roman,serif" font-size="12.00">Conduct interviews</text>
</g>
<!-- 2592514718320&#45;&gt;2592514715728 -->
<g id="edge25" class="edge">
<title>2592514718320&#45;&gt;2592514715728</title>
<path fill="none" stroke="black" d="M2395.58,-67.89C2404.13,-66.18 2414.56,-64.1 2425.33,-61.95"/>
<polygon fill="black" stroke="black" points="2426.01,-65.38 2435.13,-59.99 2424.64,-58.51 2426.01,-65.38"/>
</g>
<!-- 2592518767680 -->
<g id="node24" class="node">
<title>2592518767680</title>
<polygon fill="none" stroke="black" points="2835,-90 2671.25,-90 2671.25,-54 2835,-54 2835,-90"/>
<text text-anchor="middle" x="2753.12" y="-66.97" font-family="Times New Roman,serif" font-size="12.00">Review report by audit director</text>
</g>
<!-- 2592514718800&#45;&gt;2592518767680 -->
<g id="edge28" class="edge">
<title>2592514718800&#45;&gt;2592518767680</title>
<path fill="none" stroke="black" d="M2636.12,-72C2643.15,-72 2651.13,-72 2659.55,-72"/>
<polygon fill="black" stroke="black" points="2659.3,-75.5 2669.3,-72 2659.3,-68.5 2659.3,-75.5"/>
</g>
<!-- 2592514715728&#45;&gt;2592514718800 -->
<g id="edge27" class="edge">
<title>2592514715728&#45;&gt;2592514718800</title>
<path fill="none" stroke="black" d="M2545.64,-59.69C2555.88,-61.74 2566.29,-63.82 2575.57,-65.67"/>
<polygon fill="black" stroke="black" points="2574.64,-69.05 2585.13,-67.58 2576.01,-62.19 2574.64,-69.05"/>
</g>
<!-- 2592518768448 -->
<g id="node25" class="node">
<title>2592518768448</title>
<polygon fill="none" stroke="black" points="3007.75,-90 2871,-90 2871,-54 3007.75,-54 3007.75,-90"/>
<text text-anchor="middle" x="2939.38" y="-66.97" font-family="Times New Roman,serif" font-size="12.00">Check regulatory updates</text>
</g>
<!-- 2592518767680&#45;&gt;2592518768448 -->
<g id="edge29" class="edge">
<title>2592518767680&#45;&gt;2592518768448</title>
<path fill="none" stroke="black" d="M2835.48,-72C2843.38,-72 2851.39,-72 2859.27,-72"/>
<polygon fill="black" stroke="black" points="2859.18,-75.5 2869.18,-72 2859.18,-68.5 2859.18,-75.5"/>
</g>
<!-- 2592518772864 -->
<g id="node26" class="node">
<title>2592518772864</title>
<polygon fill="none" stroke="black" points="3147.5,-90 3043.75,-90 3043.75,-54 3147.5,-54 3147.5,-90"/>
<text text-anchor="middle" x="3095.62" y="-66.97" font-family="Times New Roman,serif" font-size="12.00">Submit documents</text>
</g>
<!-- 2592518768448&#45;&gt;2592518772864 -->
<g id="edge30" class="edge">
<title>2592518768448&#45;&gt;2592518772864</title>
<path fill="none" stroke="black" d="M3008.03,-72C3015.97,-72 3024.05,-72 3031.92,-72"/>
<polygon fill="black" stroke="black" points="3031.74,-75.5 3041.74,-72 3031.74,-68.5 3031.74,-75.5"/>
</g>
<!-- 2592518778912 -->
<g id="node27" class="node">
<title>2592518778912</title>
<polygon fill="none" stroke="black" points="3291,-90 3183.5,-90 3183.5,-54 3291,-54 3291,-90"/>
<text text-anchor="middle" x="3237.25" y="-66.97" font-family="Times New Roman,serif" font-size="12.00">Close audit process</text>
</g>
<!-- 2592518772864&#45;&gt;2592518778912 -->
<g id="edge31" class="edge">
<title>2592518772864&#45;&gt;2592518778912</title>
<path fill="none" stroke="black" d="M3147.82,-72C3155.65,-72 3163.82,-72 3171.89,-72"/>
<polygon fill="black" stroke="black" points="3171.67,-75.5 3181.67,-72 3171.67,-68.5 3171.67,-75.5"/>
</g>
<!-- 2592514717696 -->
<g id="node28" class="node">
<title>2592514717696</title>
<polygon fill="none" stroke="black" points="3354,-90 3327,-72 3354,-54 3381,-72 3354,-90"/>
<text text-anchor="middle" x="3354" y="-66.97" font-family="Times New Roman,serif" font-size="12.00">X</text>
</g>
<!-- 2592518778912&#45;&gt;2592514717696 -->
<g id="edge32" class="edge">
<title>2592518778912&#45;&gt;2592514717696</title>
<path fill="none" stroke="black" d="M3291.26,-72C3299.2,-72 3307.25,-72 3314.8,-72"/>
<polygon fill="black" stroke="black" points="3314.65,-75.5 3324.65,-72 3314.65,-68.5 3314.65,-75.5"/>
</g>
<!-- 2592514716304 -->
<g id="node29" class="node">
<title>2592514716304</title>
<polygon fill="none" stroke="black" points="3544.75,-115 3417,-115 3417,-79 3544.75,-79 3544.75,-115"/>
<text text-anchor="middle" x="3480.88" y="-91.97" font-family="Times New Roman,serif" font-size="12.00">Send report for revision</text>
</g>
<!-- 2592514717696&#45;&gt;2592514716304 -->
<g id="edge33" class="edge">
<title>2592514717696&#45;&gt;2592514716304</title>
<path fill="none" stroke="black" d="M3375.62,-76.13C3384.14,-77.83 3394.58,-79.92 3405.54,-82.12"/>
<polygon fill="black" stroke="black" points="3404.63,-85.5 3415.12,-84.04 3406,-78.64 3404.63,-85.5"/>
</g>
<!-- 2592514719280 -->
<g id="node30" class="node">
<title>2592514719280</title>
<polygon fill="none" stroke="black" points="3732.88,-63 3615.62,-63 3615.62,-27 3732.88,-27 3732.88,-63"/>
<text text-anchor="middle" x="3674.25" y="-39.98" font-family="Times New Roman,serif" font-size="12.00">Distribute final report</text>
</g>
<!-- 2592514717696&#45;&gt;2592514719280 -->
<g id="edge34" class="edge">
<title>2592514717696&#45;&gt;2592514719280</title>
<path fill="none" stroke="black" d="M3378.66,-69.99C3425.77,-66 3532.87,-56.91 3604.11,-50.87"/>
<polygon fill="black" stroke="black" points="3604.05,-54.38 3613.72,-50.05 3603.46,-47.41 3604.05,-54.38"/>
</g>
<!-- 2592514717312 -->
<g id="node32" class="node">
<title>2592514717312</title>
<polygon fill="none" stroke="black" points="3767.75,-117 3580.75,-117 3580.75,-81 3767.75,-81 3767.75,-117"/>
<text text-anchor="middle" x="3674.25" y="-93.97" font-family="Times New Roman,serif" font-size="12.00">Complete risk assessment/mitigation</text>
</g>
<!-- 2592514716304&#45;&gt;2592514717312 -->
<g id="edge35" class="edge">
<title>2592514716304&#45;&gt;2592514717312</title>
<path fill="none" stroke="black" d="M3545.07,-97.66C3552.76,-97.74 3560.78,-97.82 3568.88,-97.91"/>
<polygon fill="black" stroke="black" points="3568.81,-101.41 3578.84,-98.01 3568.88,-94.41 3568.81,-101.41"/>
</g>
<!-- 2592514704880 -->
<g id="node31" class="node">
<title>2592514704880</title>
<polygon fill="none" stroke="black" points="3974.25,-90 3947.25,-72 3974.25,-54 4001.25,-72 3974.25,-90"/>
<text text-anchor="middle" x="3974.25" y="-66.97" font-family="Times New Roman,serif" font-size="12.00">X</text>
</g>
<!-- 2592514719280&#45;&gt;2592514704880 -->
<g id="edge36" class="edge">
<title>2592514719280&#45;&gt;2592514704880</title>
<path fill="none" stroke="black" d="M3733.06,-50.24C3794.02,-55.76 3888.05,-64.28 3938.48,-68.85"/>
<polygon fill="black" stroke="black" points="3937.94,-72.32 3948.22,-69.73 3938.57,-65.34 3937.94,-72.32"/>
</g>
<!-- 2592518779728 -->
<g id="node34" class="node">
<title>2592518779728</title>
<polygon fill="none" stroke="black" points="4182.25,-90 4037.25,-90 4037.25,-54 4182.25,-54 4182.25,-90"/>
<text text-anchor="middle" x="4109.75" y="-66.97" font-family="Times New Roman,serif" font-size="12.00">Update and resubmit report</text>
</g>
<!-- 2592514704880&#45;&gt;2592518779728 -->
<g id="edge37" class="edge">
<title>2592514704880&#45;&gt;2592518779728</title>
<path fill="none" stroke="black" d="M4001.94,-72C4009.09,-72 4017.2,-72 4025.69,-72"/>
<polygon fill="black" stroke="black" points="4025.5,-75.5 4035.5,-72 4025.5,-68.5 4025.5,-75.5"/>
</g>
<!-- 2592518769888 -->
<g id="node33" class="node">
<title>2592518769888</title>
<polygon fill="none" stroke="black" points="3911.25,-115 3803.75,-115 3803.75,-79 3911.25,-79 3911.25,-115"/>
<text text-anchor="middle" x="3857.5" y="-91.97" font-family="Times New Roman,serif" font-size="12.00">Close audit process</text>
</g>
<!-- 2592514717312&#45;&gt;2592518769888 -->
<g id="edge38" class="edge">
<title>2592514717312&#45;&gt;2592518769888</title>
<path fill="none" stroke="black" d="M3768,-97.98C3776.19,-97.89 3784.36,-97.8 3792.24,-97.71"/>
<polygon fill="black" stroke="black" points="3792.07,-101.21 3802.03,-97.6 3791.99,-94.21 3792.07,-101.21"/>
</g>
<!-- 2592518769888&#45;&gt;2592514704880 -->
<g id="edge39" class="edge">
<title>2592518769888&#45;&gt;2592514704880</title>
<path fill="none" stroke="black" d="M3911.51,-85.45C3921.91,-83.18 3932.51,-80.88 3941.92,-78.83"/>
<polygon fill="black" stroke="black" points="3942.6,-82.26 3951.63,-76.71 3941.11,-75.42 3942.6,-82.26"/>
</g>
<!-- 2592514716784 -->
<g id="node35" class="node">
<title>2592514716784</title>
<polygon fill="none" stroke="black" points="4303.25,-90 4218.25,-90 4218.25,-54 4303.25,-54 4303.25,-90"/>
<text text-anchor="middle" x="4260.75" y="-66.97" font-family="Times New Roman,serif" font-size="12.00">Archive report</text>
</g>
<!-- 2592518779728&#45;&gt;2592514716784 -->
<g id="edge40" class="edge">
<title>2592518779728&#45;&gt;2592514716784</title>
<path fill="none" stroke="black" d="M4182.63,-72C4190.64,-72 4198.68,-72 4206.4,-72"/>
<polygon fill="black" stroke="black" points="4206.29,-75.5 4216.29,-72 4206.29,-68.5 4206.29,-75.5"/>
</g>
<!-- 2592518770752 -->
<g id="node36" class="node">
<title>2592518770752</title>
<polygon fill="none" stroke="black" points="4464.75,-90 4339.25,-90 4339.25,-54 4464.75,-54 4464.75,-90"/>
<text text-anchor="middle" x="4402" y="-66.97" font-family="Times New Roman,serif" font-size="12.00">Evaluate financial risks</text>
</g>
<!-- 2592514716784&#45;&gt;2592518770752 -->
<g id="edge41" class="edge">
<title>2592514716784&#45;&gt;2592518770752</title>
<path fill="none" stroke="black" d="M4303.53,-72C4311.19,-72 4319.38,-72 4327.64,-72"/>
<polygon fill="black" stroke="black" points="4327.4,-75.5 4337.4,-72 4327.4,-68.5 4327.4,-75.5"/>
</g>
<!-- 2592514706128 -->
<g id="node37" class="node">
<title>2592514706128</title>
<ellipse fill="orange" stroke="black" cx="4518.75" cy="-72" rx="18" ry="18"/>
</g>
<!-- 2592518770752&#45;&gt;2592514706128 -->
<g id="edge42" class="edge">
<title>2592518770752&#45;&gt;2592514706128</title>
<path fill="none" stroke="black" d="M4465.08,-72C4473.47,-72 4481.72,-72 4489.12,-72"/>
<polygon fill="black" stroke="black" points="4489.11,-75.5 4499.11,-72 4489.11,-68.5 4489.11,-75.5"/>
</g>
</g>
</svg>
