<?xml version="1.0" encoding="UTF-8" standalone="no"?>
<!DOCTYPE svg PUBLIC "-//W3C//DTD SVG 1.1//EN"
 "http://www.w3.org/Graphics/SVG/1.1/DTD/svg11.dtd">
<!-- Generated by graphviz version 11.0.0 (20240428.1522)
 -->
<!-- Pages: 1 -->
<svg width="5058pt" height="159pt"
 viewBox="0.00 0.00 5057.75 159.00" xmlns="http://www.w3.org/2000/svg" xmlns:xlink="http://www.w3.org/1999/xlink">
<g id="graph0" class="graph" transform="scale(1 1) rotate(0) translate(4 155)">
<polygon fill="white" stroke="none" points="-4,4 -4,-155 5053.75,-155 5053.75,4 -4,4"/>
<!-- 2592519529216 -->
<g id="node1" class="node">
<title>2592519529216</title>
<ellipse fill="green" stroke="black" cx="18" cy="-87" rx="18" ry="18"/>
</g>
<!-- 2592519774112 -->
<g id="node2" class="node">
<title>2592519774112</title>
<polygon fill="none" stroke="black" points="209.5,-105 72,-105 72,-69 209.5,-69 209.5,-105"/>
<text text-anchor="middle" x="140.75" y="-81.97" font-family="Times New Roman,serif" font-size="12.00">Evaluate operational risks</text>
</g>
<!-- 2592519529216&#45;&gt;2592519774112 -->
<g id="edge1" class="edge">
<title>2592519529216&#45;&gt;2592519774112</title>
<path fill="none" stroke="black" d="M36.3,-87C43.04,-87 51.28,-87 60.13,-87"/>
<polygon fill="black" stroke="black" points="60.09,-90.5 70.09,-87 60.09,-83.5 60.09,-90.5"/>
</g>
<!-- 2592519774016 -->
<g id="node3" class="node">
<title>2592519774016</title>
<polygon fill="none" stroke="black" points="272.5,-105 245.5,-87 272.5,-69 299.5,-87 272.5,-105"/>
<text text-anchor="middle" x="272.5" y="-81.97" font-family="Times New Roman,serif" font-size="12.00">+</text>
</g>
<!-- 2592519774112&#45;&gt;2592519774016 -->
<g id="edge2" class="edge">
<title>2592519774112&#45;&gt;2592519774016</title>
<path fill="none" stroke="black" d="M209.67,-87C217.87,-87 226.02,-87 233.57,-87"/>
<polygon fill="black" stroke="black" points="233.36,-90.5 243.36,-87 233.36,-83.5 233.36,-90.5"/>
</g>
<!-- 2592519768832 -->
<g id="node4" class="node">
<title>2592519768832</title>
<polygon fill="none" stroke="black" points="362.5,-132 335.5,-114 362.5,-96 389.5,-114 362.5,-132"/>
<text text-anchor="middle" x="362.5" y="-108.97" font-family="Times New Roman,serif" font-size="12.00">X</text>
</g>
<!-- 2592519774016&#45;&gt;2592519768832 -->
<g id="edge4" class="edge">
<title>2592519774016&#45;&gt;2592519768832</title>
<path fill="none" stroke="black" d="M291.73,-92.59C303.53,-96.21 319.15,-101.01 332.61,-105.14"/>
<polygon fill="black" stroke="black" points="331.26,-108.38 341.84,-107.97 333.31,-101.69 331.26,-108.38"/>
</g>
<!-- 2592519771328 -->
<g id="node5" class="node">
<title>2592519771328</title>
<polygon fill="none" stroke="black" points="362.5,-78 335.5,-60 362.5,-42 389.5,-60 362.5,-78"/>
<text text-anchor="middle" x="362.5" y="-54.98" font-family="Times New Roman,serif" font-size="12.00">X</text>
</g>
<!-- 2592519774016&#45;&gt;2592519771328 -->
<g id="edge3" class="edge">
<title>2592519774016&#45;&gt;2592519771328</title>
<path fill="none" stroke="black" d="M291.73,-81.41C303.53,-77.79 319.15,-72.99 332.61,-68.86"/>
<polygon fill="black" stroke="black" points="333.31,-72.31 341.84,-66.03 331.26,-65.62 333.31,-72.31"/>
</g>
<!-- 2592519769264 -->
<g id="node6" class="node">
<title>2592519769264</title>
<polygon fill="none" stroke="black" points="637.38,-128 610.38,-110 637.38,-92 664.38,-110 637.38,-128"/>
<text text-anchor="middle" x="637.38" y="-104.97" font-family="Times New Roman,serif" font-size="12.00">X</text>
</g>
<!-- 2592519768832&#45;&gt;2592519769264 -->
<g id="edge6" class="edge">
<title>2592519768832&#45;&gt;2592519769264</title>
<path fill="none" stroke="black" d="M378.87,-121.45C391.16,-126.97 409,-134.04 425.5,-137 481.38,-147.03 497.17,-145.88 553.25,-137 572.55,-133.94 593.46,-127.13 609.48,-121.12"/>
<polygon fill="black" stroke="black" points="610.73,-124.38 618.78,-117.49 608.19,-117.86 610.73,-124.38"/>
</g>
<!-- 2592519773152 -->
<g id="node9" class="node">
<title>2592519773152</title>
<polygon fill="none" stroke="black" points="553.25,-128 425.5,-128 425.5,-92 553.25,-92 553.25,-128"/>
<text text-anchor="middle" x="489.38" y="-104.97" font-family="Times New Roman,serif" font-size="12.00">Send report for revision</text>
</g>
<!-- 2592519768832&#45;&gt;2592519773152 -->
<g id="edge5" class="edge">
<title>2592519768832&#45;&gt;2592519773152</title>
<path fill="none" stroke="black" d="M389.07,-113.18C396.5,-112.94 405.01,-112.67 413.85,-112.39"/>
<polygon fill="black" stroke="black" points="413.78,-115.89 423.67,-112.07 413.56,-108.89 413.78,-115.89"/>
</g>
<!-- 2592519769744 -->
<g id="node7" class="node">
<title>2592519769744</title>
<polygon fill="none" stroke="black" points="748.5,-82 721.5,-64 748.5,-46 775.5,-64 748.5,-82"/>
<text text-anchor="middle" x="748.5" y="-58.98" font-family="Times New Roman,serif" font-size="12.00">X</text>
</g>
<!-- 2592519771328&#45;&gt;2592519769744 -->
<g id="edge8" class="edge">
<title>2592519771328&#45;&gt;2592519769744</title>
<path fill="none" stroke="black" d="M389.89,-60.27C456.7,-60.97 632.67,-62.8 710.06,-63.61"/>
<polygon fill="black" stroke="black" points="709.63,-67.11 719.66,-63.71 709.7,-60.11 709.63,-67.11"/>
</g>
<!-- 2592519778432 -->
<g id="node8" class="node">
<title>2592519778432</title>
<polygon fill="none" stroke="black" points="533.75,-36 445,-36 445,0 533.75,0 533.75,-36"/>
<text text-anchor="middle" x="489.38" y="-12.97" font-family="Times New Roman,serif" font-size="12.00">Approve report</text>
</g>
<!-- 2592519771328&#45;&gt;2592519778432 -->
<g id="edge7" class="edge">
<title>2592519771328&#45;&gt;2592519778432</title>
<path fill="none" stroke="black" d="M381.13,-54.07C394.96,-49.42 415,-42.68 434.02,-36.28"/>
<polygon fill="black" stroke="black" points="434.94,-39.67 443.3,-33.16 432.71,-33.03 434.94,-39.67"/>
</g>
<!-- 2592519777088 -->
<g id="node11" class="node">
<title>2592519777088</title>
<polygon fill="none" stroke="black" points="838.5,-105 811.5,-87 838.5,-69 865.5,-87 838.5,-105"/>
<text text-anchor="middle" x="838.5" y="-81.97" font-family="Times New Roman,serif" font-size="12.00">+</text>
</g>
<!-- 2592519769264&#45;&gt;2592519777088 -->
<g id="edge10" class="edge">
<title>2592519769264&#45;&gt;2592519777088</title>
<path fill="none" stroke="black" d="M661.22,-107.36C696.08,-103.33 762.8,-95.63 803.41,-90.94"/>
<polygon fill="black" stroke="black" points="803.58,-94.44 813.11,-89.82 802.78,-87.49 803.58,-94.44"/>
</g>
<!-- 2592519769744&#45;&gt;2592519777088 -->
<g id="edge11" class="edge">
<title>2592519769744&#45;&gt;2592519777088</title>
<path fill="none" stroke="black" d="M768.59,-68.99C780.01,-71.97 794.76,-75.83 807.69,-79.21"/>
<polygon fill="black" stroke="black" points="806.42,-82.49 816.98,-81.64 808.19,-75.72 806.42,-82.49"/>
</g>
<!-- 2592519772384 -->
<g id="node10" class="node">
<title>2592519772384</title>
<polygon fill="none" stroke="black" points="685.5,-36 589.25,-36 589.25,0 685.5,0 685.5,-36"/>
<text text-anchor="middle" x="637.38" y="-12.97" font-family="Times New Roman,serif" font-size="12.00">Send notification</text>
</g>
<!-- 2592519778432&#45;&gt;2592519772384 -->
<g id="edge12" class="edge">
<title>2592519778432&#45;&gt;2592519772384</title>
<path fill="none" stroke="black" d="M534.18,-18C547.77,-18 562.97,-18 577.41,-18"/>
<polygon fill="black" stroke="black" points="577.27,-21.5 587.27,-18 577.27,-14.5 577.27,-21.5"/>
</g>
<!-- 2592519773152&#45;&gt;2592519769264 -->
<g id="edge9" class="edge">
<title>2592519773152&#45;&gt;2592519769264</title>
<path fill="none" stroke="black" d="M553.56,-110C568.82,-110 584.66,-110 598.36,-110"/>
<polygon fill="black" stroke="black" points="598.25,-113.5 608.25,-110 598.25,-106.5 598.25,-113.5"/>
</g>
<!-- 2592519772384&#45;&gt;2592519769744 -->
<g id="edge13" class="edge">
<title>2592519772384&#45;&gt;2592519769744</title>
<path fill="none" stroke="black" d="M682.13,-36.44C695.25,-41.98 709.24,-47.87 720.9,-52.79"/>
<polygon fill="black" stroke="black" points="719.29,-55.91 729.86,-56.56 722.01,-49.45 719.29,-55.91"/>
</g>
<!-- 2592519775120 -->
<g id="node12" class="node">
<title>2592519775120</title>
<polygon fill="none" stroke="black" points="1021,-105 901.5,-105 901.5,-69 1021,-69 1021,-105"/>
<text text-anchor="middle" x="961.25" y="-81.97" font-family="Times New Roman,serif" font-size="12.00">Conduct data analysis</text>
</g>
<!-- 2592519777088&#45;&gt;2592519775120 -->
<g id="edge14" class="edge">
<title>2592519777088&#45;&gt;2592519775120</title>
<path fill="none" stroke="black" d="M866.3,-87C873.46,-87 881.55,-87 889.91,-87"/>
<polygon fill="black" stroke="black" points="889.88,-90.5 899.88,-87 889.88,-83.5 889.88,-90.5"/>
</g>
<!-- 2592519777376 -->
<g id="node13" class="node">
<title>2592519777376</title>
<polygon fill="none" stroke="black" points="1196,-105 1057,-105 1057,-69 1196,-69 1196,-105"/>
<text text-anchor="middle" x="1126.5" y="-81.97" font-family="Times New Roman,serif" font-size="12.00">Evaluate compliance risks</text>
</g>
<!-- 2592519775120&#45;&gt;2592519777376 -->
<g id="edge15" class="edge">
<title>2592519775120&#45;&gt;2592519777376</title>
<path fill="none" stroke="black" d="M1021.19,-87C1029.01,-87 1037.13,-87 1045.24,-87"/>
<polygon fill="black" stroke="black" points="1045.14,-90.5 1055.14,-87 1045.14,-83.5 1045.14,-90.5"/>
</g>
<!-- 2592519769840 -->
<g id="node14" class="node">
<title>2592519769840</title>
<polygon fill="none" stroke="black" points="1259,-105 1232,-87 1259,-69 1286,-87 1259,-105"/>
<text text-anchor="middle" x="1259" y="-81.97" font-family="Times New Roman,serif" font-size="12.00">X</text>
</g>
<!-- 2592519777376&#45;&gt;2592519769840 -->
<g id="edge16" class="edge">
<title>2592519777376&#45;&gt;2592519769840</title>
<path fill="none" stroke="black" d="M1196.19,-87C1204.23,-87 1212.21,-87 1219.62,-87"/>
<polygon fill="black" stroke="black" points="1219.59,-90.5 1229.59,-87 1219.59,-83.5 1219.59,-90.5"/>
</g>
<!-- 2592519771376 -->
<g id="node15" class="node">
<title>2592519771376</title>
<polygon fill="none" stroke="black" points="1539.75,-105 1512.75,-87 1539.75,-69 1566.75,-87 1539.75,-105"/>
<text text-anchor="middle" x="1539.75" y="-81.97" font-family="Times New Roman,serif" font-size="12.00">X</text>
</g>
<!-- 2592519769840&#45;&gt;2592519771376 -->
<g id="edge18" class="edge">
<title>2592519769840&#45;&gt;2592519771376</title>
<path fill="none" stroke="black" d="M1283.83,-88.9C1295.35,-89.72 1309.39,-90.59 1322,-91 1390.74,-93.22 1408.01,-93.22 1476.75,-91 1485.42,-90.72 1494.77,-90.22 1503.5,-89.67"/>
<polygon fill="black" stroke="black" points="1503.67,-93.17 1513.41,-89 1503.2,-86.18 1503.67,-93.17"/>
</g>
<!-- 2592519771760 -->
<g id="node16" class="node">
<title>2592519771760</title>
<polygon fill="none" stroke="black" points="1476.75,-82 1322,-82 1322,-46 1476.75,-46 1476.75,-82"/>
<text text-anchor="middle" x="1399.38" y="-58.98" font-family="Times New Roman,serif" font-size="12.00">Launch detailed investigation</text>
</g>
<!-- 2592519769840&#45;&gt;2592519771760 -->
<g id="edge17" class="edge">
<title>2592519769840&#45;&gt;2592519771760</title>
<path fill="none" stroke="black" d="M1281.32,-83.46C1289.59,-82.08 1299.65,-80.41 1310.36,-78.63"/>
<polygon fill="black" stroke="black" points="1310.93,-82.08 1320.22,-76.99 1309.78,-75.18 1310.93,-82.08"/>
</g>
<!-- 2592519773392 -->
<g id="node17" class="node">
<title>2592519773392</title>
<polygon fill="none" stroke="black" points="1716.25,-105 1602.75,-105 1602.75,-69 1716.25,-69 1716.25,-105"/>
<text text-anchor="middle" x="1659.5" y="-81.97" font-family="Times New Roman,serif" font-size="12.00">Compile audit report</text>
</g>
<!-- 2592519771376&#45;&gt;2592519773392 -->
<g id="edge20" class="edge">
<title>2592519771376&#45;&gt;2592519773392</title>
<path fill="none" stroke="black" d="M1567.47,-87C1574.65,-87 1582.76,-87 1591.1,-87"/>
<polygon fill="black" stroke="black" points="1591.03,-90.5 1601.03,-87 1591.03,-83.5 1591.03,-90.5"/>
</g>
<!-- 2592519771760&#45;&gt;2592519771376 -->
<g id="edge19" class="edge">
<title>2592519771760&#45;&gt;2592519771376</title>
<path fill="none" stroke="black" d="M1476.85,-76.71C1487.07,-78.41 1497.09,-80.08 1505.98,-81.55"/>
<polygon fill="black" stroke="black" points="1505.39,-85 1515.83,-83.19 1506.54,-78.1 1505.39,-85"/>
</g>
<!-- 2592519779680 -->
<g id="node18" class="node">
<title>2592519779680</title>
<polygon fill="none" stroke="black" points="1852.25,-105 1752.25,-105 1752.25,-69 1852.25,-69 1852.25,-105"/>
<text text-anchor="middle" x="1802.25" y="-81.97" font-family="Times New Roman,serif" font-size="12.00">Perform site visits</text>
</g>
<!-- 2592519773392&#45;&gt;2592519779680 -->
<g id="edge21" class="edge">
<title>2592519773392&#45;&gt;2592519779680</title>
<path fill="none" stroke="black" d="M1716.53,-87C1724.36,-87 1732.44,-87 1740.35,-87"/>
<polygon fill="black" stroke="black" points="1740.27,-90.5 1750.27,-87 1740.27,-83.5 1740.27,-90.5"/>
</g>
<!-- 2592519779536 -->
<g id="node19" class="node">
<title>2592519779536</title>
<polygon fill="none" stroke="black" points="1915.25,-105 1888.25,-87 1915.25,-69 1942.25,-87 1915.25,-105"/>
<text text-anchor="middle" x="1915.25" y="-81.97" font-family="Times New Roman,serif" font-size="12.00">+</text>
</g>
<!-- 2592519779680&#45;&gt;2592519779536 -->
<g id="edge22" class="edge">
<title>2592519779680&#45;&gt;2592519779536</title>
<path fill="none" stroke="black" d="M1852.58,-87C1860.49,-87 1868.56,-87 1876.15,-87"/>
<polygon fill="black" stroke="black" points="1876.07,-90.5 1886.07,-87 1876.07,-83.5 1876.07,-90.5"/>
</g>
<!-- 2592519772288 -->
<g id="node20" class="node">
<title>2592519772288</title>
<polygon fill="none" stroke="black" points="2323,-151 2214.75,-151 2214.75,-115 2323,-115 2323,-151"/>
<text text-anchor="middle" x="2268.88" y="-127.97" font-family="Times New Roman,serif" font-size="12.00">Review submission</text>
</g>
<!-- 2592519779536&#45;&gt;2592519772288 -->
<g id="edge24" class="edge">
<title>2592519779536&#45;&gt;2592519772288</title>
<path fill="none" stroke="black" d="M1930.53,-94.92C1942.79,-101.29 1961.14,-109.85 1978.25,-114 2053.88,-132.36 2143.68,-135.48 2203.02,-135.07"/>
<polygon fill="black" stroke="black" points="2202.99,-138.57 2212.95,-134.96 2202.91,-131.57 2202.99,-138.57"/>
</g>
<!-- 2592519766432 -->
<g id="node21" class="node">
<title>2592519766432</title>
<polygon fill="none" stroke="black" points="2149.88,-105 2002.62,-105 2002.62,-69 2149.88,-69 2149.88,-105"/>
<text text-anchor="middle" x="2076.25" y="-81.97" font-family="Times New Roman,serif" font-size="12.00">Prepare financial statements</text>
</g>
<!-- 2592519779536&#45;&gt;2592519766432 -->
<g id="edge25" class="edge">
<title>2592519779536&#45;&gt;2592519766432</title>
<path fill="none" stroke="black" d="M1942.86,-87C1956.28,-87 1973.37,-87 1990.79,-87"/>
<polygon fill="black" stroke="black" points="1990.73,-90.5 2000.73,-87 1990.73,-83.5 1990.73,-90.5"/>
</g>
<!-- 2592519782320 -->
<g id="node22" class="node">
<title>2592519782320</title>
<polygon fill="none" stroke="black" points="2174.25,-51 1978.25,-51 1978.25,-15 2174.25,-15 2174.25,-51"/>
<text text-anchor="middle" x="2076.25" y="-27.98" font-family="Times New Roman,serif" font-size="12.00">Request clarifications of discrepancies</text>
</g>
<!-- 2592519779536&#45;&gt;2592519782320 -->
<g id="edge23" class="edge">
<title>2592519779536&#45;&gt;2592519782320</title>
<path fill="none" stroke="black" d="M1931.81,-79.5C1944.2,-73.71 1962.1,-65.73 1978.25,-60 1983.24,-58.23 1988.4,-56.5 1993.63,-54.83"/>
<polygon fill="black" stroke="black" points="1994.47,-58.23 2002.98,-51.92 1992.39,-51.55 1994.47,-58.23"/>
</g>
<!-- 2592519781312 -->
<g id="node24" class="node">
<title>2592519781312</title>
<polygon fill="none" stroke="black" points="2390.5,-105 2363.5,-87 2390.5,-69 2417.5,-87 2390.5,-105"/>
<text text-anchor="middle" x="2390.5" y="-81.97" font-family="Times New Roman,serif" font-size="12.00">+</text>
</g>
<!-- 2592519772288&#45;&gt;2592519781312 -->
<g id="edge26" class="edge">
<title>2592519772288&#45;&gt;2592519781312</title>
<path fill="none" stroke="black" d="M2317.84,-114.56C2332.82,-108.79 2348.84,-102.64 2361.92,-97.61"/>
<polygon fill="black" stroke="black" points="2363.07,-100.91 2371.15,-94.06 2360.56,-94.38 2363.07,-100.91"/>
</g>
<!-- 2592519766432&#45;&gt;2592519781312 -->
<g id="edge27" class="edge">
<title>2592519766432&#45;&gt;2592519781312</title>
<path fill="none" stroke="black" d="M2150.06,-87C2213.13,-87 2301.84,-87 2351.68,-87"/>
<polygon fill="black" stroke="black" points="2351.37,-90.5 2361.37,-87 2351.37,-83.5 2351.37,-90.5"/>
</g>
<!-- 2592519771040 -->
<g id="node23" class="node">
<title>2592519771040</title>
<polygon fill="none" stroke="black" points="2327.5,-55 2210.25,-55 2210.25,-19 2327.5,-19 2327.5,-55"/>
<text text-anchor="middle" x="2268.88" y="-31.98" font-family="Times New Roman,serif" font-size="12.00">Receive clarifications</text>
</g>
<!-- 2592519782320&#45;&gt;2592519771040 -->
<g id="edge28" class="edge">
<title>2592519782320&#45;&gt;2592519771040</title>
<path fill="none" stroke="black" d="M2174.52,-35.04C2182.66,-35.21 2190.78,-35.38 2198.64,-35.55"/>
<polygon fill="black" stroke="black" points="2198.37,-39.04 2208.44,-35.75 2198.52,-32.04 2198.37,-39.04"/>
</g>
<!-- 2592519771040&#45;&gt;2592519781312 -->
<g id="edge29" class="edge">
<title>2592519771040&#45;&gt;2592519781312</title>
<path fill="none" stroke="black" d="M2314.08,-55.48C2330.36,-62.28 2348.3,-69.78 2362.6,-75.75"/>
<polygon fill="black" stroke="black" points="2361.21,-78.97 2371.78,-79.59 2363.91,-72.51 2361.21,-78.97"/>
</g>
<!-- 2592519770752 -->
<g id="node25" class="node">
<title>2592519770752</title>
<polygon fill="none" stroke="black" points="2480.5,-105 2453.5,-87 2480.5,-69 2507.5,-87 2480.5,-105"/>
<text text-anchor="middle" x="2480.5" y="-81.97" font-family="Times New Roman,serif" font-size="12.00">X</text>
</g>
<!-- 2592519781312&#45;&gt;2592519770752 -->
<g id="edge30" class="edge">
<title>2592519781312&#45;&gt;2592519770752</title>
<path fill="none" stroke="black" d="M2418.38,-87C2425.63,-87 2433.62,-87 2441.35,-87"/>
<polygon fill="black" stroke="black" points="2441.27,-90.5 2451.27,-87 2441.27,-83.5 2441.27,-90.5"/>
</g>
<!-- 2592519768880 -->
<g id="node26" class="node">
<title>2592519768880</title>
<polygon fill="none" stroke="black" points="3081.75,-105 3054.75,-87 3081.75,-69 3108.75,-87 3081.75,-105"/>
<text text-anchor="middle" x="3081.75" y="-81.97" font-family="Times New Roman,serif" font-size="12.00">X</text>
</g>
<!-- 2592519770752&#45;&gt;2592519768880 -->
<g id="edge31" class="edge">
<title>2592519770752&#45;&gt;2592519768880</title>
<path fill="none" stroke="black" d="M2503.55,-90.1C2550.15,-96.38 2662.12,-110 2756.5,-110 2756.5,-110 2756.5,-110 2875.62,-110 2937.14,-110 3008.38,-99.66 3048.65,-92.85"/>
<polygon fill="black" stroke="black" points="3049.12,-96.32 3058.38,-91.16 3047.93,-89.42 3049.12,-96.32"/>
</g>
<!-- 2592519772912 -->
<g id="node27" class="node">
<title>2592519772912</title>
<polygon fill="none" stroke="black" points="2694.5,-82 2543.5,-82 2543.5,-46 2694.5,-46 2694.5,-82"/>
<text text-anchor="middle" x="2619" y="-58.98" font-family="Times New Roman,serif" font-size="12.00">Gather necessary documents</text>
</g>
<!-- 2592519770752&#45;&gt;2592519772912 -->
<g id="edge32" class="edge">
<title>2592519770752&#45;&gt;2592519772912</title>
<path fill="none" stroke="black" d="M2502.83,-83.41C2511.12,-82.01 2521.2,-80.31 2531.92,-78.5"/>
<polygon fill="black" stroke="black" points="2532.49,-81.96 2541.77,-76.84 2531.33,-75.06 2532.49,-81.96"/>
</g>
<!-- 2592519776848 -->
<g id="node29" class="node">
<title>2592519776848</title>
<polygon fill="none" stroke="black" points="3171.75,-105 3144.75,-87 3171.75,-69 3198.75,-87 3171.75,-105"/>
<text text-anchor="middle" x="3171.75" y="-81.97" font-family="Times New Roman,serif" font-size="12.00">+</text>
</g>
<!-- 2592519768880&#45;&gt;2592519776848 -->
<g id="edge33" class="edge">
<title>2592519768880&#45;&gt;2592519776848</title>
<path fill="none" stroke="black" d="M3109.63,-87C3116.88,-87 3124.87,-87 3132.6,-87"/>
<polygon fill="black" stroke="black" points="3132.52,-90.5 3142.52,-87 3132.52,-83.5 3132.52,-90.5"/>
</g>
<!-- 2592519770368 -->
<g id="node28" class="node">
<title>2592519770368</title>
<polygon fill="none" stroke="black" points="2757.5,-82 2730.5,-64 2757.5,-46 2784.5,-64 2757.5,-82"/>
<text text-anchor="middle" x="2757.5" y="-58.98" font-family="Times New Roman,serif" font-size="12.00">X</text>
</g>
<!-- 2592519772912&#45;&gt;2592519770368 -->
<g id="edge34" class="edge">
<title>2592519772912&#45;&gt;2592519770368</title>
<path fill="none" stroke="black" d="M2694.64,-64C2702.79,-64 2710.82,-64 2718.26,-64"/>
<polygon fill="black" stroke="black" points="2718.24,-67.5 2728.24,-64 2718.24,-60.5 2718.24,-67.5"/>
</g>
<!-- 2592519781552 -->
<g id="node30" class="node">
<title>2592519781552</title>
<polygon fill="none" stroke="black" points="2928.75,-82 2820.5,-82 2820.5,-46 2928.75,-46 2928.75,-82"/>
<text text-anchor="middle" x="2874.62" y="-58.98" font-family="Times New Roman,serif" font-size="12.00">Conduct interviews</text>
</g>
<!-- 2592519770368&#45;&gt;2592519781552 -->
<g id="edge35" class="edge">
<title>2592519770368&#45;&gt;2592519781552</title>
<path fill="none" stroke="black" d="M2785.2,-64C2792.42,-64 2800.55,-64 2808.89,-64"/>
<polygon fill="black" stroke="black" points="2808.8,-67.5 2818.8,-64 2808.8,-60.5 2808.8,-67.5"/>
</g>
<!-- 2592519772960 -->
<g id="node31" class="node">
<title>2592519772960</title>
<polygon fill="none" stroke="black" points="3398.5,-132 3234.75,-132 3234.75,-96 3398.5,-96 3398.5,-132"/>
<text text-anchor="middle" x="3316.62" y="-108.97" font-family="Times New Roman,serif" font-size="12.00">Review report by audit director</text>
</g>
<!-- 2592519776848&#45;&gt;2592519772960 -->
<g id="edge36" class="edge">
<title>2592519776848&#45;&gt;2592519772960</title>
<path fill="none" stroke="black" d="M3193.53,-90.93C3201.88,-92.51 3212.15,-94.45 3223.14,-96.52"/>
<polygon fill="black" stroke="black" points="3222.38,-99.94 3232.85,-98.36 3223.68,-93.06 3222.38,-99.94"/>
</g>
<!-- 2592519776944 -->
<g id="node32" class="node">
<title>2592519776944</title>
<polygon fill="none" stroke="black" points="3385,-78 3248.25,-78 3248.25,-42 3385,-42 3385,-78"/>
<text text-anchor="middle" x="3316.62" y="-54.98" font-family="Times New Roman,serif" font-size="12.00">Check regulatory updates</text>
</g>
<!-- 2592519776848&#45;&gt;2592519776944 -->
<g id="edge37" class="edge">
<title>2592519776848&#45;&gt;2592519776944</title>
<path fill="none" stroke="black" d="M3193.53,-83.07C3205.28,-80.85 3220.82,-77.92 3236.85,-74.89"/>
<polygon fill="black" stroke="black" points="3237.32,-78.36 3246.5,-73.06 3236.02,-71.48 3237.32,-78.36"/>
</g>
<!-- 2592519769984 -->
<g id="node33" class="node">
<title>2592519769984</title>
<polygon fill="none" stroke="black" points="2991.75,-82 2964.75,-64 2991.75,-46 3018.75,-64 2991.75,-82"/>
<text text-anchor="middle" x="2991.75" y="-58.98" font-family="Times New Roman,serif" font-size="12.00">X</text>
</g>
<!-- 2592519781552&#45;&gt;2592519769984 -->
<g id="edge38" class="edge">
<title>2592519781552&#45;&gt;2592519769984</title>
<path fill="none" stroke="black" d="M2929.14,-64C2937.08,-64 2945.12,-64 2952.66,-64"/>
<polygon fill="black" stroke="black" points="2952.49,-67.5 2962.49,-64 2952.49,-60.5 2952.49,-67.5"/>
</g>
<!-- 2592519772720 -->
<g id="node34" class="node">
<title>2592519772720</title>
<polygon fill="none" stroke="black" points="3461.5,-105 3434.5,-87 3461.5,-69 3488.5,-87 3461.5,-105"/>
<text text-anchor="middle" x="3461.5" y="-81.97" font-family="Times New Roman,serif" font-size="12.00">+</text>
</g>
<!-- 2592519772960&#45;&gt;2592519772720 -->
<g id="edge39" class="edge">
<title>2592519772960&#45;&gt;2592519772720</title>
<path fill="none" stroke="black" d="M3398.66,-98.69C3409.26,-96.68 3419.57,-94.73 3428.64,-93.02"/>
<polygon fill="black" stroke="black" points="3429.1,-96.5 3438.28,-91.2 3427.8,-89.62 3429.1,-96.5"/>
</g>
<!-- 2592519776944&#45;&gt;2592519772720 -->
<g id="edge40" class="edge">
<title>2592519776944&#45;&gt;2592519772720</title>
<path fill="none" stroke="black" d="M3385.3,-72.79C3400.43,-75.65 3415.78,-78.55 3428.64,-80.98"/>
<polygon fill="black" stroke="black" points="3427.71,-84.36 3438.18,-82.78 3429.01,-77.49 3427.71,-84.36"/>
</g>
<!-- 2592519769984&#45;&gt;2592519768880 -->
<g id="edge41" class="edge">
<title>2592519769984&#45;&gt;2592519768880</title>
<path fill="none" stroke="black" d="M3011.84,-68.99C3023.26,-71.97 3038.01,-75.83 3050.94,-79.21"/>
<polygon fill="black" stroke="black" points="3049.67,-82.49 3060.23,-81.64 3051.44,-75.72 3049.67,-82.49"/>
</g>
<!-- 2592519769984&#45;&gt;2592519770368 -->
<g id="edge42" class="edge">
<title>2592519769984&#45;&gt;2592519770368</title>
<path fill="none" stroke="black" d="M2976.53,-55.79C2964.31,-49.24 2945.99,-40.59 2928.75,-37 2881.65,-27.19 2867.6,-27.19 2820.5,-37 2807.57,-39.69 2794.03,-45.23 2782.91,-50.6"/>
<polygon fill="black" stroke="black" points="2781.39,-47.45 2774.07,-55.11 2784.57,-53.69 2781.39,-47.45"/>
</g>
<!-- 2592519772576 -->
<g id="node35" class="node">
<title>2592519772576</title>
<polygon fill="none" stroke="black" points="3628.25,-105 3524.5,-105 3524.5,-69 3628.25,-69 3628.25,-105"/>
<text text-anchor="middle" x="3576.38" y="-81.97" font-family="Times New Roman,serif" font-size="12.00">Submit documents</text>
</g>
<!-- 2592519772720&#45;&gt;2592519772576 -->
<g id="edge43" class="edge">
<title>2592519772720&#45;&gt;2592519772576</title>
<path fill="none" stroke="black" d="M3489.25,-87C3496.42,-87 3504.49,-87 3512.73,-87"/>
<polygon fill="black" stroke="black" points="3512.5,-90.5 3522.5,-87 3512.5,-83.5 3512.5,-90.5"/>
</g>
<!-- 2592519770944 -->
<g id="node36" class="node">
<title>2592519770944</title>
<polygon fill="none" stroke="black" points="3691.25,-105 3664.25,-87 3691.25,-69 3718.25,-87 3691.25,-105"/>
<text text-anchor="middle" x="3691.25" y="-81.97" font-family="Times New Roman,serif" font-size="12.00">X</text>
</g>
<!-- 2592519772576&#45;&gt;2592519770944 -->
<g id="edge44" class="edge">
<title>2592519772576&#45;&gt;2592519770944</title>
<path fill="none" stroke="black" d="M3628.53,-87C3636.49,-87 3644.59,-87 3652.2,-87"/>
<polygon fill="black" stroke="black" points="3652.13,-90.5 3662.13,-87 3652.13,-83.5 3652.13,-90.5"/>
</g>
<!-- 2592519777616 -->
<g id="node37" class="node">
<title>2592519777616</title>
<polygon fill="none" stroke="black" points="3882,-132 3754.25,-132 3754.25,-96 3882,-96 3882,-132"/>
<text text-anchor="middle" x="3818.12" y="-108.97" font-family="Times New Roman,serif" font-size="12.00">Send report for revision</text>
</g>
<!-- 2592519770944&#45;&gt;2592519777616 -->
<g id="edge45" class="edge">
<title>2592519770944&#45;&gt;2592519777616</title>
<path fill="none" stroke="black" d="M3712.31,-91.34C3720.99,-93.21 3731.72,-95.54 3742.99,-97.97"/>
<polygon fill="black" stroke="black" points="3741.91,-101.32 3752.42,-100.01 3743.39,-94.48 3741.91,-101.32"/>
</g>
<!-- 2592519776752 -->
<g id="node38" class="node">
<title>2592519776752</title>
<polygon fill="none" stroke="black" points="3876.75,-78 3759.5,-78 3759.5,-42 3876.75,-42 3876.75,-78"/>
<text text-anchor="middle" x="3818.12" y="-54.98" font-family="Times New Roman,serif" font-size="12.00">Distribute final report</text>
</g>
<!-- 2592519770944&#45;&gt;2592519776752 -->
<g id="edge46" class="edge">
<title>2592519770944&#45;&gt;2592519776752</title>
<path fill="none" stroke="black" d="M3712.31,-82.66C3722.28,-80.51 3734.97,-77.76 3748.05,-74.93"/>
<polygon fill="black" stroke="black" points="3748.57,-78.4 3757.61,-72.87 3747.09,-71.56 3748.57,-78.4"/>
</g>
<!-- 2592519780736 -->
<g id="node39" class="node">
<title>2592519780736</title>
<polygon fill="none" stroke="black" points="4105,-132 3918,-132 3918,-96 4105,-96 4105,-132"/>
<text text-anchor="middle" x="4011.5" y="-108.97" font-family="Times New Roman,serif" font-size="12.00">Complete risk assessment/mitigation</text>
</g>
<!-- 2592519777616&#45;&gt;2592519780736 -->
<g id="edge47" class="edge">
<title>2592519777616&#45;&gt;2592519780736</title>
<path fill="none" stroke="black" d="M3882.32,-114C3890.01,-114 3898.03,-114 3906.13,-114"/>
<polygon fill="black" stroke="black" points="3906.09,-117.5 3916.09,-114 3906.09,-110.5 3906.09,-117.5"/>
</g>
<!-- 2592519781120 -->
<g id="node40" class="node">
<title>2592519781120</title>
<polygon fill="none" stroke="black" points="4054,-78 3969,-78 3969,-42 4054,-42 4054,-78"/>
<text text-anchor="middle" x="4011.5" y="-54.98" font-family="Times New Roman,serif" font-size="12.00">Archive report</text>
</g>
<!-- 2592519776752&#45;&gt;2592519781120 -->
<g id="edge48" class="edge">
<title>2592519776752&#45;&gt;2592519781120</title>
<path fill="none" stroke="black" d="M3877.06,-60C3902.52,-60 3932.21,-60 3957.12,-60"/>
<polygon fill="black" stroke="black" points="3957.04,-63.5 3967.04,-60 3957.04,-56.5 3957.04,-63.5"/>
</g>
<!-- 2592519776128 -->
<g id="node42" class="node">
<title>2592519776128</title>
<polygon fill="none" stroke="black" points="4286,-132 4141,-132 4141,-96 4286,-96 4286,-132"/>
<text text-anchor="middle" x="4213.5" y="-108.97" font-family="Times New Roman,serif" font-size="12.00">Update and resubmit report</text>
</g>
<!-- 2592519780736&#45;&gt;2592519776128 -->
<g id="edge49" class="edge">
<title>2592519780736&#45;&gt;2592519776128</title>
<path fill="none" stroke="black" d="M4105.47,-114C4113.42,-114 4121.43,-114 4129.3,-114"/>
<polygon fill="black" stroke="black" points="4129.19,-117.5 4139.19,-114 4129.19,-110.5 4129.19,-117.5"/>
</g>
<!-- 2592519781744 -->
<g id="node41" class="node">
<title>2592519781744</title>
<polygon fill="none" stroke="black" points="4276.25,-78 4150.75,-78 4150.75,-42 4276.25,-42 4276.25,-78"/>
<text text-anchor="middle" x="4213.5" y="-54.98" font-family="Times New Roman,serif" font-size="12.00">Evaluate financial risks</text>
</g>
<!-- 2592519781120&#45;&gt;2592519781744 -->
<g id="edge50" class="edge">
<title>2592519781120&#45;&gt;2592519781744</title>
<path fill="none" stroke="black" d="M4054.43,-60C4079,-60 4110.73,-60 4139.31,-60"/>
<polygon fill="black" stroke="black" points="4138.98,-63.5 4148.98,-60 4138.98,-56.5 4138.98,-63.5"/>
</g>
<!-- 2592519782080 -->
<g id="node43" class="node">
<title>2592519782080</title>
<polygon fill="none" stroke="black" points="4582.75,-78 4475.25,-78 4475.25,-42 4582.75,-42 4582.75,-78"/>
<text text-anchor="middle" x="4529" y="-54.98" font-family="Times New Roman,serif" font-size="12.00">Close audit process</text>
</g>
<!-- 2592519781744&#45;&gt;2592519782080 -->
<g id="edge51" class="edge">
<title>2592519781744&#45;&gt;2592519782080</title>
<path fill="none" stroke="black" d="M4276.44,-60C4330.5,-60 4408.66,-60 4463.47,-60"/>
<polygon fill="black" stroke="black" points="4463.28,-63.5 4473.28,-60 4463.28,-56.5 4463.28,-63.5"/>
</g>
<!-- 2592519774208 -->
<g id="node44" class="node">
<title>2592519774208</title>
<polygon fill="none" stroke="black" points="4439.25,-132 4322,-132 4322,-96 4439.25,-96 4439.25,-132"/>
<text text-anchor="middle" x="4380.62" y="-108.97" font-family="Times New Roman,serif" font-size="12.00">Distribute final report</text>
</g>
<!-- 2592519776128&#45;&gt;2592519774208 -->
<g id="edge52" class="edge">
<title>2592519776128&#45;&gt;2592519774208</title>
<path fill="none" stroke="black" d="M4286.45,-114C4294.33,-114 4302.34,-114 4310.19,-114"/>
<polygon fill="black" stroke="black" points="4310.03,-117.5 4320.03,-114 4310.03,-110.5 4310.03,-117.5"/>
</g>
<!-- 2592519769600 -->
<g id="node45" class="node">
<title>2592519769600</title>
<polygon fill="none" stroke="black" points="4950.75,-105 4923.75,-87 4950.75,-69 4977.75,-87 4950.75,-105"/>
<text text-anchor="middle" x="4950.75" y="-81.97" font-family="Times New Roman,serif" font-size="12.00">X</text>
</g>
<!-- 2592519782080&#45;&gt;2592519769600 -->
<g id="edge53" class="edge">
<title>2592519782080&#45;&gt;2592519769600</title>
<path fill="none" stroke="black" d="M4583.16,-63.42C4670.09,-69.01 4840.36,-79.96 4914.2,-84.71"/>
<polygon fill="black" stroke="black" points="4913.88,-88.2 4924.09,-85.35 4914.33,-81.21 4913.88,-88.2"/>
</g>
<!-- 2592519776176 -->
<g id="node46" class="node">
<title>2592519776176</title>
<polygon fill="none" stroke="black" points="4571.5,-132 4486.5,-132 4486.5,-96 4571.5,-96 4571.5,-132"/>
<text text-anchor="middle" x="4529" y="-108.97" font-family="Times New Roman,serif" font-size="12.00">Archive report</text>
</g>
<!-- 2592519774208&#45;&gt;2592519776176 -->
<g id="edge54" class="edge">
<title>2592519774208&#45;&gt;2592519776176</title>
<path fill="none" stroke="black" d="M4439.48,-114C4451.22,-114 4463.52,-114 4475.09,-114"/>
<polygon fill="black" stroke="black" points="4474.85,-117.5 4484.85,-114 4474.85,-110.5 4474.85,-117.5"/>
</g>
<!-- 2592519535216 -->
<g id="node49" class="node">
<title>2592519535216</title>
<ellipse fill="orange" stroke="black" cx="5031.75" cy="-87" rx="18" ry="18"/>
</g>
<!-- 2592519769600&#45;&gt;2592519535216 -->
<g id="edge56" class="edge">
<title>2592519769600&#45;&gt;2592519535216</title>
<path fill="none" stroke="black" d="M4978.5,-87C4986.13,-87 4994.48,-87 5002.22,-87"/>
<polygon fill="black" stroke="black" points="5002.18,-90.5 5012.18,-87 5002.18,-83.5 5002.18,-90.5"/>
</g>
<!-- 2592519778864 -->
<g id="node47" class="node">
<title>2592519778864</title>
<polygon fill="none" stroke="black" points="4744.25,-131 4618.75,-131 4618.75,-95 4744.25,-95 4744.25,-131"/>
<text text-anchor="middle" x="4681.5" y="-107.97" font-family="Times New Roman,serif" font-size="12.00">Evaluate financial risks</text>
</g>
<!-- 2592519776176&#45;&gt;2592519778864 -->
<g id="edge55" class="edge">
<title>2592519776176&#45;&gt;2592519778864</title>
<path fill="none" stroke="black" d="M4571.92,-113.72C4582.8,-113.65 4594.84,-113.57 4606.82,-113.49"/>
<polygon fill="black" stroke="black" points="4606.77,-116.99 4616.75,-113.42 4606.72,-109.99 4606.77,-116.99"/>
</g>
<!-- 2592519775504 -->
<g id="node48" class="node">
<title>2592519775504</title>
<polygon fill="none" stroke="black" points="4887.75,-130 4780.25,-130 4780.25,-94 4887.75,-94 4887.75,-130"/>
<text text-anchor="middle" x="4834" y="-106.97" font-family="Times New Roman,serif" font-size="12.00">Close audit process</text>
</g>
<!-- 2592519778864&#45;&gt;2592519775504 -->
<g id="edge57" class="edge">
<title>2592519778864&#45;&gt;2592519775504</title>
<path fill="none" stroke="black" d="M4744.58,-112.59C4752.62,-112.53 4760.86,-112.48 4768.93,-112.43"/>
<polygon fill="black" stroke="black" points="4768.68,-115.93 4778.66,-112.36 4768.64,-108.93 4768.68,-115.93"/>
</g>
<!-- 2592519775504&#45;&gt;2592519769600 -->
<g id="edge58" class="edge">
<title>2592519775504&#45;&gt;2592519769600</title>
<path fill="none" stroke="black" d="M4888.01,-100.45C4898.41,-98.18 4909.01,-95.88 4918.42,-93.83"/>
<polygon fill="black" stroke="black" points="4919.1,-97.26 4928.13,-91.71 4917.61,-90.42 4919.1,-97.26"/>
</g>
</g>
</svg>
