<?xml version="1.0" encoding="UTF-8" standalone="no"?>
<!DOCTYPE svg PUBLIC "-//W3C//DTD SVG 1.1//EN"
 "http://www.w3.org/Graphics/SVG/1.1/DTD/svg11.dtd">
<!-- Generated by graphviz version 11.0.0 (20240428.1522)
 -->
<!-- Pages: 1 -->
<svg width="4964pt" height="249pt"
 viewBox="0.00 0.00 4964.00 249.00" xmlns="http://www.w3.org/2000/svg" xmlns:xlink="http://www.w3.org/1999/xlink">
<g id="graph0" class="graph" transform="scale(1 1) rotate(0) translate(4 245)">
<polygon fill="white" stroke="none" points="-4,4 -4,-245 4960,-245 4960,4 -4,4"/>
<!-- 2592517963120 -->
<g id="node1" class="node">
<title>2592517963120</title>
<ellipse fill="green" stroke="black" cx="18" cy="-90" rx="18" ry="18"/>
</g>
<!-- 2592520357936 -->
<g id="node2" class="node">
<title>2592520357936</title>
<polygon fill="none" stroke="black" points="209.5,-108 72,-108 72,-72 209.5,-72 209.5,-108"/>
<text text-anchor="middle" x="140.75" y="-84.97" font-family="Times New Roman,serif" font-size="12.00">Evaluate operational risks</text>
</g>
<!-- 2592517963120&#45;&gt;2592520357936 -->
<g id="edge1" class="edge">
<title>2592517963120&#45;&gt;2592520357936</title>
<path fill="none" stroke="black" d="M36.3,-90C43.04,-90 51.28,-90 60.13,-90"/>
<polygon fill="black" stroke="black" points="60.09,-93.5 70.09,-90 60.09,-86.5 60.09,-93.5"/>
</g>
<!-- 2592520359856 -->
<g id="node3" class="node">
<title>2592520359856</title>
<polygon fill="none" stroke="black" points="272.5,-108 245.5,-90 272.5,-72 299.5,-90 272.5,-108"/>
<text text-anchor="middle" x="272.5" y="-84.97" font-family="Times New Roman,serif" font-size="12.00">+</text>
</g>
<!-- 2592520357936&#45;&gt;2592520359856 -->
<g id="edge2" class="edge">
<title>2592520357936&#45;&gt;2592520359856</title>
<path fill="none" stroke="black" d="M209.67,-90C217.87,-90 226.02,-90 233.57,-90"/>
<polygon fill="black" stroke="black" points="233.36,-93.5 243.36,-90 233.36,-86.5 233.36,-93.5"/>
</g>
<!-- 2592520356208 -->
<g id="node4" class="node">
<title>2592520356208</title>
<polygon fill="none" stroke="black" points="362.5,-135 335.5,-117 362.5,-99 389.5,-117 362.5,-135"/>
<text text-anchor="middle" x="362.5" y="-111.97" font-family="Times New Roman,serif" font-size="12.00">X</text>
</g>
<!-- 2592520359856&#45;&gt;2592520356208 -->
<g id="edge3" class="edge">
<title>2592520359856&#45;&gt;2592520356208</title>
<path fill="none" stroke="black" d="M291.73,-95.59C303.53,-99.21 319.15,-104.01 332.61,-108.14"/>
<polygon fill="black" stroke="black" points="331.26,-111.38 341.84,-110.97 333.31,-104.69 331.26,-111.38"/>
</g>
<!-- 2592520361104 -->
<g id="node5" class="node">
<title>2592520361104</title>
<polygon fill="none" stroke="black" points="362.5,-81 335.5,-63 362.5,-45 389.5,-63 362.5,-81"/>
<text text-anchor="middle" x="362.5" y="-57.98" font-family="Times New Roman,serif" font-size="12.00">X</text>
</g>
<!-- 2592520359856&#45;&gt;2592520361104 -->
<g id="edge4" class="edge">
<title>2592520359856&#45;&gt;2592520361104</title>
<path fill="none" stroke="black" d="M291.73,-84.41C303.53,-80.79 319.15,-75.99 332.61,-71.86"/>
<polygon fill="black" stroke="black" points="333.31,-75.31 341.84,-69.03 331.26,-68.62 333.31,-75.31"/>
</g>
<!-- 2592520369120 -->
<g id="node7" class="node">
<title>2592520369120</title>
<polygon fill="none" stroke="black" points="637.38,-131 610.38,-113 637.38,-95 664.38,-113 637.38,-131"/>
<text text-anchor="middle" x="637.38" y="-107.97" font-family="Times New Roman,serif" font-size="12.00">X</text>
</g>
<!-- 2592520356208&#45;&gt;2592520369120 -->
<g id="edge5" class="edge">
<title>2592520356208&#45;&gt;2592520369120</title>
<path fill="none" stroke="black" d="M378.87,-124.45C391.16,-129.97 409,-137.04 425.5,-140 481.38,-150.03 497.17,-148.88 553.25,-140 572.55,-136.94 593.46,-130.13 609.48,-124.12"/>
<polygon fill="black" stroke="black" points="610.73,-127.38 618.78,-120.49 608.19,-120.86 610.73,-127.38"/>
</g>
<!-- 2592520601728 -->
<g id="node8" class="node">
<title>2592520601728</title>
<polygon fill="none" stroke="black" points="553.25,-131 425.5,-131 425.5,-95 553.25,-95 553.25,-131"/>
<text text-anchor="middle" x="489.38" y="-107.97" font-family="Times New Roman,serif" font-size="12.00">Send report for revision</text>
</g>
<!-- 2592520356208&#45;&gt;2592520601728 -->
<g id="edge6" class="edge">
<title>2592520356208&#45;&gt;2592520601728</title>
<path fill="none" stroke="black" d="M389.07,-116.18C396.5,-115.94 405.01,-115.67 413.85,-115.39"/>
<polygon fill="black" stroke="black" points="413.78,-118.89 423.67,-115.07 413.56,-111.89 413.78,-118.89"/>
</g>
<!-- 2592520368112 -->
<g id="node6" class="node">
<title>2592520368112</title>
<polygon fill="none" stroke="black" points="748.5,-85 721.5,-67 748.5,-49 775.5,-67 748.5,-85"/>
<text text-anchor="middle" x="748.5" y="-61.98" font-family="Times New Roman,serif" font-size="12.00">X</text>
</g>
<!-- 2592520361104&#45;&gt;2592520368112 -->
<g id="edge8" class="edge">
<title>2592520361104&#45;&gt;2592520368112</title>
<path fill="none" stroke="black" d="M389.89,-63.27C456.7,-63.97 632.67,-65.8 710.06,-66.61"/>
<polygon fill="black" stroke="black" points="709.63,-70.11 719.66,-66.71 709.7,-63.11 709.63,-70.11"/>
</g>
<!-- 2592520360192 -->
<g id="node9" class="node">
<title>2592520360192</title>
<polygon fill="none" stroke="black" points="533.75,-39 445,-39 445,-3 533.75,-3 533.75,-39"/>
<text text-anchor="middle" x="489.38" y="-15.97" font-family="Times New Roman,serif" font-size="12.00">Approve report</text>
</g>
<!-- 2592520361104&#45;&gt;2592520360192 -->
<g id="edge7" class="edge">
<title>2592520361104&#45;&gt;2592520360192</title>
<path fill="none" stroke="black" d="M381.13,-57.07C394.96,-52.42 415,-45.68 434.02,-39.28"/>
<polygon fill="black" stroke="black" points="434.94,-42.67 443.3,-36.16 432.71,-36.03 434.94,-42.67"/>
</g>
<!-- 2592520366048 -->
<g id="node11" class="node">
<title>2592520366048</title>
<polygon fill="none" stroke="black" points="838.5,-108 811.5,-90 838.5,-72 865.5,-90 838.5,-108"/>
<text text-anchor="middle" x="838.5" y="-84.97" font-family="Times New Roman,serif" font-size="12.00">+</text>
</g>
<!-- 2592520368112&#45;&gt;2592520366048 -->
<g id="edge10" class="edge">
<title>2592520368112&#45;&gt;2592520366048</title>
<path fill="none" stroke="black" d="M768.59,-71.99C780.01,-74.97 794.76,-78.83 807.69,-82.21"/>
<polygon fill="black" stroke="black" points="806.42,-85.49 816.98,-84.64 808.19,-78.72 806.42,-85.49"/>
</g>
<!-- 2592520369120&#45;&gt;2592520366048 -->
<g id="edge11" class="edge">
<title>2592520369120&#45;&gt;2592520366048</title>
<path fill="none" stroke="black" d="M661.22,-110.36C696.08,-106.33 762.8,-98.63 803.41,-93.94"/>
<polygon fill="black" stroke="black" points="803.58,-97.44 813.11,-92.82 802.78,-90.49 803.58,-97.44"/>
</g>
<!-- 2592520601728&#45;&gt;2592520369120 -->
<g id="edge9" class="edge">
<title>2592520601728&#45;&gt;2592520369120</title>
<path fill="none" stroke="black" d="M553.56,-113C568.82,-113 584.66,-113 598.36,-113"/>
<polygon fill="black" stroke="black" points="598.25,-116.5 608.25,-113 598.25,-109.5 598.25,-116.5"/>
</g>
<!-- 2592520366192 -->
<g id="node10" class="node">
<title>2592520366192</title>
<polygon fill="none" stroke="black" points="685.5,-39 589.25,-39 589.25,-3 685.5,-3 685.5,-39"/>
<text text-anchor="middle" x="637.38" y="-15.97" font-family="Times New Roman,serif" font-size="12.00">Send notification</text>
</g>
<!-- 2592520360192&#45;&gt;2592520366192 -->
<g id="edge12" class="edge">
<title>2592520360192&#45;&gt;2592520366192</title>
<path fill="none" stroke="black" d="M534.18,-21C547.77,-21 562.97,-21 577.41,-21"/>
<polygon fill="black" stroke="black" points="577.27,-24.5 587.27,-21 577.27,-17.5 577.27,-24.5"/>
</g>
<!-- 2592520366192&#45;&gt;2592520368112 -->
<g id="edge13" class="edge">
<title>2592520366192&#45;&gt;2592520368112</title>
<path fill="none" stroke="black" d="M682.13,-39.44C695.25,-44.98 709.24,-50.87 720.9,-55.79"/>
<polygon fill="black" stroke="black" points="719.29,-58.91 729.86,-59.56 722.01,-52.45 719.29,-58.91"/>
</g>
<!-- 2592520365472 -->
<g id="node12" class="node">
<title>2592520365472</title>
<polygon fill="none" stroke="black" points="1021,-108 901.5,-108 901.5,-72 1021,-72 1021,-108"/>
<text text-anchor="middle" x="961.25" y="-84.97" font-family="Times New Roman,serif" font-size="12.00">Conduct data analysis</text>
</g>
<!-- 2592520366048&#45;&gt;2592520365472 -->
<g id="edge14" class="edge">
<title>2592520366048&#45;&gt;2592520365472</title>
<path fill="none" stroke="black" d="M866.3,-90C873.46,-90 881.55,-90 889.91,-90"/>
<polygon fill="black" stroke="black" points="889.88,-93.5 899.88,-90 889.88,-86.5 889.88,-93.5"/>
</g>
<!-- 2592521565344 -->
<g id="node13" class="node">
<title>2592521565344</title>
<polygon fill="none" stroke="black" points="1196,-108 1057,-108 1057,-72 1196,-72 1196,-108"/>
<text text-anchor="middle" x="1126.5" y="-84.97" font-family="Times New Roman,serif" font-size="12.00">Evaluate compliance risks</text>
</g>
<!-- 2592520365472&#45;&gt;2592521565344 -->
<g id="edge15" class="edge">
<title>2592520365472&#45;&gt;2592521565344</title>
<path fill="none" stroke="black" d="M1021.19,-90C1029.01,-90 1037.13,-90 1045.24,-90"/>
<polygon fill="black" stroke="black" points="1045.14,-93.5 1055.14,-90 1045.14,-86.5 1045.14,-93.5"/>
</g>
<!-- 2592520367440 -->
<g id="node14" class="node">
<title>2592520367440</title>
<polygon fill="none" stroke="black" points="1259,-108 1232,-90 1259,-72 1286,-90 1259,-108"/>
<text text-anchor="middle" x="1259" y="-84.97" font-family="Times New Roman,serif" font-size="12.00">X</text>
</g>
<!-- 2592521565344&#45;&gt;2592520367440 -->
<g id="edge16" class="edge">
<title>2592521565344&#45;&gt;2592520367440</title>
<path fill="none" stroke="black" d="M1196.19,-90C1204.23,-90 1212.21,-90 1219.62,-90"/>
<polygon fill="black" stroke="black" points="1219.59,-93.5 1229.59,-90 1219.59,-86.5 1219.59,-93.5"/>
</g>
<!-- 2592520367488 -->
<g id="node15" class="node">
<title>2592520367488</title>
<polygon fill="none" stroke="black" points="1539.75,-108 1512.75,-90 1539.75,-72 1566.75,-90 1539.75,-108"/>
<text text-anchor="middle" x="1539.75" y="-84.97" font-family="Times New Roman,serif" font-size="12.00">X</text>
</g>
<!-- 2592520367440&#45;&gt;2592520367488 -->
<g id="edge18" class="edge">
<title>2592520367440&#45;&gt;2592520367488</title>
<path fill="none" stroke="black" d="M1283.83,-91.9C1295.35,-92.72 1309.39,-93.59 1322,-94 1390.74,-96.22 1408.01,-96.22 1476.75,-94 1485.42,-93.72 1494.77,-93.22 1503.5,-92.67"/>
<polygon fill="black" stroke="black" points="1503.67,-96.17 1513.41,-92 1503.2,-89.18 1503.67,-96.17"/>
</g>
<!-- 2592521673456 -->
<g id="node16" class="node">
<title>2592521673456</title>
<polygon fill="none" stroke="black" points="1476.75,-85 1322,-85 1322,-49 1476.75,-49 1476.75,-85"/>
<text text-anchor="middle" x="1399.38" y="-61.98" font-family="Times New Roman,serif" font-size="12.00">Launch detailed investigation</text>
</g>
<!-- 2592520367440&#45;&gt;2592521673456 -->
<g id="edge17" class="edge">
<title>2592520367440&#45;&gt;2592521673456</title>
<path fill="none" stroke="black" d="M1281.32,-86.46C1289.59,-85.08 1299.65,-83.41 1310.36,-81.63"/>
<polygon fill="black" stroke="black" points="1310.93,-85.08 1320.22,-79.99 1309.78,-78.18 1310.93,-85.08"/>
</g>
<!-- 2592520370512 -->
<g id="node17" class="node">
<title>2592520370512</title>
<polygon fill="none" stroke="black" points="1716.25,-108 1602.75,-108 1602.75,-72 1716.25,-72 1716.25,-108"/>
<text text-anchor="middle" x="1659.5" y="-84.97" font-family="Times New Roman,serif" font-size="12.00">Compile audit report</text>
</g>
<!-- 2592520367488&#45;&gt;2592520370512 -->
<g id="edge20" class="edge">
<title>2592520367488&#45;&gt;2592520370512</title>
<path fill="none" stroke="black" d="M1567.47,-90C1574.65,-90 1582.76,-90 1591.1,-90"/>
<polygon fill="black" stroke="black" points="1591.03,-93.5 1601.03,-90 1591.03,-86.5 1591.03,-93.5"/>
</g>
<!-- 2592521673456&#45;&gt;2592520367488 -->
<g id="edge19" class="edge">
<title>2592521673456&#45;&gt;2592520367488</title>
<path fill="none" stroke="black" d="M1476.85,-79.71C1487.07,-81.41 1497.09,-83.08 1505.98,-84.55"/>
<polygon fill="black" stroke="black" points="1505.39,-88 1515.83,-86.19 1506.54,-81.1 1505.39,-88"/>
</g>
<!-- 2592520615312 -->
<g id="node18" class="node">
<title>2592520615312</title>
<polygon fill="none" stroke="black" points="1852.25,-108 1752.25,-108 1752.25,-72 1852.25,-72 1852.25,-108"/>
<text text-anchor="middle" x="1802.25" y="-84.97" font-family="Times New Roman,serif" font-size="12.00">Perform site visits</text>
</g>
<!-- 2592520370512&#45;&gt;2592520615312 -->
<g id="edge21" class="edge">
<title>2592520370512&#45;&gt;2592520615312</title>
<path fill="none" stroke="black" d="M1716.53,-90C1724.36,-90 1732.44,-90 1740.35,-90"/>
<polygon fill="black" stroke="black" points="1740.27,-93.5 1750.27,-90 1740.27,-86.5 1740.27,-93.5"/>
</g>
<!-- 2592520615744 -->
<g id="node19" class="node">
<title>2592520615744</title>
<polygon fill="none" stroke="black" points="1915.25,-108 1888.25,-90 1915.25,-72 1942.25,-90 1915.25,-108"/>
<text text-anchor="middle" x="1915.25" y="-84.97" font-family="Times New Roman,serif" font-size="12.00">+</text>
</g>
<!-- 2592520615312&#45;&gt;2592520615744 -->
<g id="edge22" class="edge">
<title>2592520615312&#45;&gt;2592520615744</title>
<path fill="none" stroke="black" d="M1852.58,-90C1860.49,-90 1868.56,-90 1876.15,-90"/>
<polygon fill="black" stroke="black" points="1876.07,-93.5 1886.07,-90 1876.07,-86.5 1876.07,-93.5"/>
</g>
<!-- 2592520617856 -->
<g id="node20" class="node">
<title>2592520617856</title>
<polygon fill="none" stroke="black" points="2130.38,-162 2022.12,-162 2022.12,-126 2130.38,-126 2130.38,-162"/>
<text text-anchor="middle" x="2076.25" y="-138.97" font-family="Times New Roman,serif" font-size="12.00">Review submission</text>
</g>
<!-- 2592520615744&#45;&gt;2592520617856 -->
<g id="edge25" class="edge">
<title>2592520615744&#45;&gt;2592520617856</title>
<path fill="none" stroke="black" d="M1931.81,-97.5C1944.2,-103.29 1962.1,-111.27 1978.25,-117 1988.69,-120.71 1999.91,-124.23 2010.87,-127.44"/>
<polygon fill="black" stroke="black" points="2009.69,-130.74 2020.26,-130.12 2011.61,-124.01 2009.69,-130.74"/>
</g>
<!-- 2592520367008 -->
<g id="node21" class="node">
<title>2592520367008</title>
<polygon fill="none" stroke="black" points="2149.88,-108 2002.62,-108 2002.62,-72 2149.88,-72 2149.88,-108"/>
<text text-anchor="middle" x="2076.25" y="-84.97" font-family="Times New Roman,serif" font-size="12.00">Prepare financial statements</text>
</g>
<!-- 2592520615744&#45;&gt;2592520367008 -->
<g id="edge23" class="edge">
<title>2592520615744&#45;&gt;2592520367008</title>
<path fill="none" stroke="black" d="M1942.86,-90C1956.28,-90 1973.37,-90 1990.79,-90"/>
<polygon fill="black" stroke="black" points="1990.73,-93.5 2000.73,-90 1990.73,-86.5 1990.73,-93.5"/>
</g>
<!-- 2592520360576 -->
<g id="node22" class="node">
<title>2592520360576</title>
<polygon fill="none" stroke="black" points="2174.25,-52 1978.25,-52 1978.25,-16 2174.25,-16 2174.25,-52"/>
<text text-anchor="middle" x="2076.25" y="-28.98" font-family="Times New Roman,serif" font-size="12.00">Request clarifications of discrepancies</text>
</g>
<!-- 2592520615744&#45;&gt;2592520360576 -->
<g id="edge24" class="edge">
<title>2592520615744&#45;&gt;2592520360576</title>
<path fill="none" stroke="black" d="M1931.84,-82.59C1944.25,-76.84 1962.15,-68.89 1978.25,-63 1984.86,-60.58 1991.77,-58.21 1998.73,-55.93"/>
<polygon fill="black" stroke="black" points="1999.78,-59.28 2008.23,-52.9 1997.64,-52.61 1999.78,-59.28"/>
</g>
<!-- 2592520365424 -->
<g id="node24" class="node">
<title>2592520365424</title>
<polygon fill="none" stroke="black" points="2237.25,-162 2210.25,-144 2237.25,-126 2264.25,-144 2237.25,-162"/>
<text text-anchor="middle" x="2237.25" y="-138.97" font-family="Times New Roman,serif" font-size="12.00">+</text>
</g>
<!-- 2592520617856&#45;&gt;2592520365424 -->
<g id="edge26" class="edge">
<title>2592520617856&#45;&gt;2592520365424</title>
<path fill="none" stroke="black" d="M2130.64,-144C2152.81,-144 2178.03,-144 2198.26,-144"/>
<polygon fill="black" stroke="black" points="2198.03,-147.5 2208.03,-144 2198.03,-140.5 2198.03,-147.5"/>
</g>
<!-- 2592520367008&#45;&gt;2592520365424 -->
<g id="edge27" class="edge">
<title>2592520367008&#45;&gt;2592520365424</title>
<path fill="none" stroke="black" d="M2148.07,-108.48C2156.94,-111.15 2165.85,-114.02 2174.25,-117 2186.36,-121.3 2199.46,-126.86 2210.48,-131.82"/>
<polygon fill="black" stroke="black" points="2208.77,-134.89 2219.32,-135.87 2211.69,-128.52 2208.77,-134.89"/>
</g>
<!-- 2592520604944 -->
<g id="node23" class="node">
<title>2592520604944</title>
<polygon fill="none" stroke="black" points="2417.5,-36 2300.25,-36 2300.25,0 2417.5,0 2417.5,-36"/>
<text text-anchor="middle" x="2358.88" y="-12.97" font-family="Times New Roman,serif" font-size="12.00">Receive clarifications</text>
</g>
<!-- 2592520360576&#45;&gt;2592520604944 -->
<g id="edge28" class="edge">
<title>2592520360576&#45;&gt;2592520604944</title>
<path fill="none" stroke="black" d="M2174.61,-28.45C2212.16,-26.31 2254.25,-23.91 2288.61,-21.95"/>
<polygon fill="black" stroke="black" points="2288.66,-25.45 2298.44,-21.39 2288.26,-18.46 2288.66,-25.45"/>
</g>
<!-- 2592520615552 -->
<g id="node26" class="node">
<title>2592520615552</title>
<polygon fill="none" stroke="black" points="3400,-102 3373,-84 3400,-66 3427,-84 3400,-102"/>
<text text-anchor="middle" x="3400" y="-78.97" font-family="Times New Roman,serif" font-size="12.00">+</text>
</g>
<!-- 2592520604944&#45;&gt;2592520615552 -->
<g id="edge29" class="edge">
<title>2592520604944&#45;&gt;2592520615552</title>
<path fill="none" stroke="black" d="M2417.79,-16.94C2470.11,-16.08 2549.21,-15 2618,-15 2618,-15 2618,-15 3221,-15 3280.22,-15 3343.48,-48.61 3376.29,-68.91"/>
<polygon fill="black" stroke="black" points="3374.24,-71.76 3384.56,-74.17 3378,-65.85 3374.24,-71.76"/>
</g>
<!-- 2592520363216 -->
<g id="node25" class="node">
<title>2592520363216</title>
<polygon fill="none" stroke="black" points="2358.88,-167 2331.88,-149 2358.88,-131 2385.88,-149 2358.88,-167"/>
<text text-anchor="middle" x="2358.88" y="-143.97" font-family="Times New Roman,serif" font-size="12.00">X</text>
</g>
<!-- 2592520365424&#45;&gt;2592520363216 -->
<g id="edge30" class="edge">
<title>2592520365424&#45;&gt;2592520363216</title>
<path fill="none" stroke="black" d="M2263.33,-145.05C2280.15,-145.75 2302.6,-146.69 2321.39,-147.48"/>
<polygon fill="black" stroke="black" points="2321.18,-150.97 2331.32,-147.89 2321.47,-143.98 2321.18,-150.97"/>
</g>
<!-- 2592520361968 -->
<g id="node27" class="node">
<title>2592520361968</title>
<polygon fill="none" stroke="black" points="3310,-171 3283,-153 3310,-135 3337,-153 3310,-171"/>
<text text-anchor="middle" x="3310" y="-147.97" font-family="Times New Roman,serif" font-size="12.00">X</text>
</g>
<!-- 2592520363216&#45;&gt;2592520361968 -->
<g id="edge32" class="edge">
<title>2592520363216&#45;&gt;2592520361968</title>
<path fill="none" stroke="black" d="M2373.53,-157.66C2411.01,-180.56 2519.28,-241 2618,-241 2618,-241 2618,-241 3131,-241 3194.11,-241 3257.98,-196 3289.25,-170.36"/>
<polygon fill="black" stroke="black" points="3291.33,-173.19 3296.72,-164.07 3286.82,-167.84 3291.33,-173.19"/>
</g>
<!-- 2592520605424 -->
<g id="node28" class="node">
<title>2592520605424</title>
<polygon fill="none" stroke="black" points="2480.5,-167 2453.5,-149 2480.5,-131 2507.5,-149 2480.5,-167"/>
<text text-anchor="middle" x="2480.5" y="-143.97" font-family="Times New Roman,serif" font-size="12.00">+</text>
</g>
<!-- 2592520363216&#45;&gt;2592520605424 -->
<g id="edge31" class="edge">
<title>2592520363216&#45;&gt;2592520605424</title>
<path fill="none" stroke="black" d="M2386.72,-149C2402.81,-149 2423.51,-149 2441.29,-149"/>
<polygon fill="black" stroke="black" points="2441.23,-152.5 2451.23,-149 2441.23,-145.5 2441.23,-152.5"/>
</g>
<!-- 2592520604608 -->
<g id="node29" class="node">
<title>2592520604608</title>
<polygon fill="none" stroke="black" points="3566.75,-102 3463,-102 3463,-66 3566.75,-66 3566.75,-102"/>
<text text-anchor="middle" x="3514.88" y="-78.97" font-family="Times New Roman,serif" font-size="12.00">Submit documents</text>
</g>
<!-- 2592520615552&#45;&gt;2592520604608 -->
<g id="edge33" class="edge">
<title>2592520615552&#45;&gt;2592520604608</title>
<path fill="none" stroke="black" d="M3427.75,-84C3434.92,-84 3442.99,-84 3451.23,-84"/>
<polygon fill="black" stroke="black" points="3451,-87.5 3461,-84 3451,-80.5 3451,-87.5"/>
</g>
<!-- 2592520361968&#45;&gt;2592520615552 -->
<g id="edge34" class="edge">
<title>2592520361968&#45;&gt;2592520615552</title>
<path fill="none" stroke="black" d="M3323.24,-143.41C3337.42,-132.28 3361.04,-113.76 3378.14,-100.36"/>
<polygon fill="black" stroke="black" points="3379.97,-103.37 3385.68,-94.45 3375.65,-97.86 3379.97,-103.37"/>
</g>
<!-- 2592521673120 -->
<g id="node30" class="node">
<title>2592521673120</title>
<polygon fill="none" stroke="black" points="2894.25,-213 2730.5,-213 2730.5,-177 2894.25,-177 2894.25,-213"/>
<text text-anchor="middle" x="2812.38" y="-189.97" font-family="Times New Roman,serif" font-size="12.00">Review report by audit director</text>
</g>
<!-- 2592520605424&#45;&gt;2592521673120 -->
<g id="edge35" class="edge">
<title>2592520605424&#45;&gt;2592521673120</title>
<path fill="none" stroke="black" d="M2500.94,-153.93C2513.11,-156.88 2529.15,-160.53 2543.5,-163 2601.55,-172.99 2667.22,-180.89 2719.01,-186.34"/>
<polygon fill="black" stroke="black" points="2718.36,-189.79 2728.67,-187.34 2719.09,-182.83 2718.36,-189.79"/>
</g>
<!-- 2592520364752 -->
<g id="node31" class="node">
<title>2592520364752</title>
<polygon fill="none" stroke="black" points="3067,-171 2930.25,-171 2930.25,-135 3067,-135 3067,-171"/>
<text text-anchor="middle" x="2998.62" y="-147.97" font-family="Times New Roman,serif" font-size="12.00">Check regulatory updates</text>
</g>
<!-- 2592520605424&#45;&gt;2592520364752 -->
<g id="edge36" class="edge">
<title>2592520605424&#45;&gt;2592520364752</title>
<path fill="none" stroke="black" d="M2507.8,-149.2C2582.85,-149.79 2800.19,-151.47 2918.55,-152.39"/>
<polygon fill="black" stroke="black" points="2918.49,-155.89 2928.52,-152.46 2918.55,-148.89 2918.49,-155.89"/>
</g>
<!-- 2592520364800 -->
<g id="node33" class="node">
<title>2592520364800</title>
<polygon fill="none" stroke="black" points="2694.5,-121 2543.5,-121 2543.5,-85 2694.5,-85 2694.5,-121"/>
<text text-anchor="middle" x="2619" y="-97.97" font-family="Times New Roman,serif" font-size="12.00">Gather necessary documents</text>
</g>
<!-- 2592520605424&#45;&gt;2592520364800 -->
<g id="edge37" class="edge">
<title>2592520605424&#45;&gt;2592520364800</title>
<path fill="none" stroke="black" d="M2499.34,-142.99C2513.06,-138.36 2532.92,-131.67 2552.48,-125.08"/>
<polygon fill="black" stroke="black" points="2553.48,-128.44 2561.84,-121.93 2551.25,-121.8 2553.48,-128.44"/>
</g>
<!-- 2592520366576 -->
<g id="node32" class="node">
<title>2592520366576</title>
<polygon fill="none" stroke="black" points="3710.25,-102 3602.75,-102 3602.75,-66 3710.25,-66 3710.25,-102"/>
<text text-anchor="middle" x="3656.5" y="-78.97" font-family="Times New Roman,serif" font-size="12.00">Close audit process</text>
</g>
<!-- 2592520604608&#45;&gt;2592520366576 -->
<g id="edge38" class="edge">
<title>2592520604608&#45;&gt;2592520366576</title>
<path fill="none" stroke="black" d="M3567.07,-84C3574.9,-84 3583.07,-84 3591.14,-84"/>
<polygon fill="black" stroke="black" points="3590.92,-87.5 3600.92,-84 3590.92,-80.5 3590.92,-87.5"/>
</g>
<!-- 2592520366528 -->
<g id="node36" class="node">
<title>2592520366528</title>
<polygon fill="none" stroke="black" points="3220,-171 3193,-153 3220,-135 3247,-153 3220,-171"/>
<text text-anchor="middle" x="3220" y="-147.97" font-family="Times New Roman,serif" font-size="12.00">+</text>
</g>
<!-- 2592521673120&#45;&gt;2592520366528 -->
<g id="edge39" class="edge">
<title>2592521673120&#45;&gt;2592520366528</title>
<path fill="none" stroke="black" d="M2894.52,-193.02C2964.54,-190.22 3068.12,-183.43 3157,-167 3167.29,-165.1 3178.47,-162.68 3188.47,-160.4"/>
<polygon fill="black" stroke="black" points="3189.12,-163.84 3198.06,-158.15 3187.53,-157.02 3189.12,-163.84"/>
</g>
<!-- 2592520364752&#45;&gt;2592520366528 -->
<g id="edge40" class="edge">
<title>2592520364752&#45;&gt;2592520366528</title>
<path fill="none" stroke="black" d="M3067.23,-153C3104.63,-153 3149.72,-153 3180.99,-153"/>
<polygon fill="black" stroke="black" points="3180.74,-156.5 3190.74,-153 3180.74,-149.5 3180.74,-156.5"/>
</g>
<!-- 2592520366912 -->
<g id="node35" class="node">
<title>2592520366912</title>
<polygon fill="none" stroke="black" points="3773.25,-102 3746.25,-84 3773.25,-66 3800.25,-84 3773.25,-102"/>
<text text-anchor="middle" x="3773.25" y="-78.97" font-family="Times New Roman,serif" font-size="12.00">+</text>
</g>
<!-- 2592520366576&#45;&gt;2592520366912 -->
<g id="edge41" class="edge">
<title>2592520366576&#45;&gt;2592520366912</title>
<path fill="none" stroke="black" d="M3710.51,-84C3718.45,-84 3726.5,-84 3734.05,-84"/>
<polygon fill="black" stroke="black" points="3733.9,-87.5 3743.9,-84 3733.9,-80.5 3733.9,-87.5"/>
</g>
<!-- 2592520369216 -->
<g id="node34" class="node">
<title>2592520369216</title>
<polygon fill="none" stroke="black" points="2812.38,-121 2785.38,-103 2812.38,-85 2839.38,-103 2812.38,-121"/>
<text text-anchor="middle" x="2812.38" y="-97.97" font-family="Times New Roman,serif" font-size="12.00">X</text>
</g>
<!-- 2592520364800&#45;&gt;2592520369216 -->
<g id="edge42" class="edge">
<title>2592520364800&#45;&gt;2592520369216</title>
<path fill="none" stroke="black" d="M2694.81,-103C2721.65,-103 2750.79,-103 2773.22,-103"/>
<polygon fill="black" stroke="black" points="2773.1,-106.5 2783.1,-103 2773.1,-99.5 2773.1,-106.5"/>
</g>
<!-- 2592520368208 -->
<g id="node37" class="node">
<title>2592520368208</title>
<polygon fill="none" stroke="black" points="3130,-125 3103,-107 3130,-89 3157,-107 3130,-125"/>
<text text-anchor="middle" x="3130" y="-101.97" font-family="Times New Roman,serif" font-size="12.00">X</text>
</g>
<!-- 2592520369216&#45;&gt;2592520368208 -->
<g id="edge45" class="edge">
<title>2592520369216&#45;&gt;2592520368208</title>
<path fill="none" stroke="black" d="M2839.74,-103.33C2895.81,-104.04 3027.03,-105.71 3091.67,-106.53"/>
<polygon fill="black" stroke="black" points="3091.37,-110.02 3101.42,-106.65 3091.46,-103.02 3091.37,-110.02"/>
</g>
<!-- 2592520365712 -->
<g id="node40" class="node">
<title>2592520365712</title>
<polygon fill="none" stroke="black" points="3052.75,-79 2944.5,-79 2944.5,-43 3052.75,-43 3052.75,-79"/>
<text text-anchor="middle" x="2998.62" y="-55.98" font-family="Times New Roman,serif" font-size="12.00">Conduct interviews</text>
</g>
<!-- 2592520369216&#45;&gt;2592520365712 -->
<g id="edge44" class="edge">
<title>2592520369216&#45;&gt;2592520365712</title>
<path fill="none" stroke="black" d="M2833.09,-98.51C2856.8,-93.1 2897.79,-83.76 2932.92,-75.75"/>
<polygon fill="black" stroke="black" points="2933.64,-79.17 2942.62,-73.54 2932.09,-72.35 2933.64,-79.17"/>
</g>
<!-- 2592521565056 -->
<g id="node38" class="node">
<title>2592521565056</title>
<polygon fill="none" stroke="black" points="4152.12,-129 4034.88,-129 4034.88,-93 4152.12,-93 4152.12,-129"/>
<text text-anchor="middle" x="4093.5" y="-105.97" font-family="Times New Roman,serif" font-size="12.00">Distribute final report</text>
</g>
<!-- 2592520366912&#45;&gt;2592521565056 -->
<g id="edge47" class="edge">
<title>2592520366912&#45;&gt;2592521565056</title>
<path fill="none" stroke="black" d="M3797.91,-86.01C3845.02,-90 3952.12,-99.09 4023.36,-105.13"/>
<polygon fill="black" stroke="black" points="4022.71,-108.59 4032.97,-105.95 4023.3,-101.62 4022.71,-108.59"/>
</g>
<!-- 2592520359808 -->
<g id="node39" class="node">
<title>2592520359808</title>
<polygon fill="none" stroke="black" points="3964,-79 3836.25,-79 3836.25,-43 3964,-43 3964,-79"/>
<text text-anchor="middle" x="3900.12" y="-55.98" font-family="Times New Roman,serif" font-size="12.00">Send report for revision</text>
</g>
<!-- 2592520366912&#45;&gt;2592520359808 -->
<g id="edge46" class="edge">
<title>2592520366912&#45;&gt;2592520359808</title>
<path fill="none" stroke="black" d="M3795.15,-80.15C3803.55,-78.6 3813.79,-76.72 3824.52,-74.74"/>
<polygon fill="black" stroke="black" points="3825.14,-78.19 3834.34,-72.93 3823.87,-71.3 3825.14,-78.19"/>
</g>
<!-- 2592520366528&#45;&gt;2592520361968 -->
<g id="edge43" class="edge">
<title>2592520366528&#45;&gt;2592520361968</title>
<path fill="none" stroke="black" d="M3247.88,-153C3255.13,-153 3263.12,-153 3270.85,-153"/>
<polygon fill="black" stroke="black" points="3270.77,-156.5 3280.77,-153 3270.77,-149.5 3270.77,-156.5"/>
</g>
<!-- 2592520368208&#45;&gt;2592520366528 -->
<g id="edge48" class="edge">
<title>2592520368208&#45;&gt;2592520366528</title>
<path fill="none" stroke="black" d="M3145.93,-114.8C3159.08,-121.68 3178.49,-131.83 3194.01,-139.94"/>
<polygon fill="black" stroke="black" points="3192.17,-142.93 3202.66,-144.46 3195.42,-136.72 3192.17,-142.93"/>
</g>
<!-- 2592520611376 -->
<g id="node41" class="node">
<title>2592520611376</title>
<polygon fill="none" stroke="black" points="4393.5,-102 4366.5,-84 4393.5,-66 4420.5,-84 4393.5,-102"/>
<text text-anchor="middle" x="4393.5" y="-78.97" font-family="Times New Roman,serif" font-size="12.00">+</text>
</g>
<!-- 2592521565056&#45;&gt;2592520611376 -->
<g id="edge50" class="edge">
<title>2592521565056&#45;&gt;2592520611376</title>
<path fill="none" stroke="black" d="M4152.31,-105.76C4213.27,-100.24 4307.3,-91.72 4357.73,-87.15"/>
<polygon fill="black" stroke="black" points="4357.82,-90.66 4367.47,-86.27 4357.19,-83.68 4357.82,-90.66"/>
</g>
<!-- 2592520604032 -->
<g id="node42" class="node">
<title>2592520604032</title>
<polygon fill="none" stroke="black" points="4187,-75 4000,-75 4000,-39 4187,-39 4187,-75"/>
<text text-anchor="middle" x="4093.5" y="-51.98" font-family="Times New Roman,serif" font-size="12.00">Complete risk assessment/mitigation</text>
</g>
<!-- 2592520359808&#45;&gt;2592520604032 -->
<g id="edge51" class="edge">
<title>2592520359808&#45;&gt;2592520604032</title>
<path fill="none" stroke="black" d="M3964.32,-59.68C3972.01,-59.52 3980.03,-59.35 3988.13,-59.18"/>
<polygon fill="black" stroke="black" points="3988.17,-62.68 3998.09,-58.97 3988.02,-55.68 3988.17,-62.68"/>
</g>
<!-- 2592520365712&#45;&gt;2592520368208 -->
<g id="edge49" class="edge">
<title>2592520365712&#45;&gt;2592520368208</title>
<path fill="none" stroke="black" d="M3051.5,-79.44C3068.36,-85.44 3086.44,-91.87 3100.89,-97"/>
<polygon fill="black" stroke="black" points="3099.58,-100.25 3110.18,-100.31 3101.93,-93.66 3099.58,-100.25"/>
</g>
<!-- 2592520606240 -->
<g id="node43" class="node">
<title>2592520606240</title>
<polygon fill="none" stroke="black" points="4601.5,-102 4456.5,-102 4456.5,-66 4601.5,-66 4601.5,-102"/>
<text text-anchor="middle" x="4529" y="-78.97" font-family="Times New Roman,serif" font-size="12.00">Update and resubmit report</text>
</g>
<!-- 2592520611376&#45;&gt;2592520606240 -->
<g id="edge52" class="edge">
<title>2592520611376&#45;&gt;2592520606240</title>
<path fill="none" stroke="black" d="M4421.19,-84C4428.34,-84 4436.45,-84 4444.94,-84"/>
<polygon fill="black" stroke="black" points="4444.75,-87.5 4454.75,-84 4444.75,-80.5 4444.75,-87.5"/>
</g>
<!-- 2592520612576 -->
<g id="node44" class="node">
<title>2592520612576</title>
<polygon fill="none" stroke="black" points="4330.5,-79 4223,-79 4223,-43 4330.5,-43 4330.5,-79"/>
<text text-anchor="middle" x="4276.75" y="-55.98" font-family="Times New Roman,serif" font-size="12.00">Close audit process</text>
</g>
<!-- 2592520604032&#45;&gt;2592520612576 -->
<g id="edge53" class="edge">
<title>2592520604032&#45;&gt;2592520612576</title>
<path fill="none" stroke="black" d="M4187.25,-59.05C4195.44,-59.23 4203.61,-59.41 4211.49,-59.58"/>
<polygon fill="black" stroke="black" points="4211.2,-63.08 4221.28,-59.8 4211.36,-56.08 4211.2,-63.08"/>
</g>
<!-- 2592520359088 -->
<g id="node45" class="node">
<title>2592520359088</title>
<polygon fill="none" stroke="black" points="4722.5,-102 4637.5,-102 4637.5,-66 4722.5,-66 4722.5,-102"/>
<text text-anchor="middle" x="4680" y="-78.97" font-family="Times New Roman,serif" font-size="12.00">Archive report</text>
</g>
<!-- 2592520606240&#45;&gt;2592520359088 -->
<g id="edge55" class="edge">
<title>2592520606240&#45;&gt;2592520359088</title>
<path fill="none" stroke="black" d="M4601.88,-84C4609.89,-84 4617.93,-84 4625.65,-84"/>
<polygon fill="black" stroke="black" points="4625.54,-87.5 4635.54,-84 4625.54,-80.5 4625.54,-87.5"/>
</g>
<!-- 2592520612576&#45;&gt;2592520611376 -->
<g id="edge54" class="edge">
<title>2592520612576&#45;&gt;2592520611376</title>
<path fill="none" stroke="black" d="M4330.76,-71.62C4341.08,-73.69 4351.59,-75.8 4360.95,-77.68"/>
<polygon fill="black" stroke="black" points="4360.1,-81.08 4370.59,-79.61 4361.48,-74.21 4360.1,-81.08"/>
</g>
<!-- 2592520366144 -->
<g id="node46" class="node">
<title>2592520366144</title>
<polygon fill="none" stroke="black" points="4884,-102 4758.5,-102 4758.5,-66 4884,-66 4884,-102"/>
<text text-anchor="middle" x="4821.25" y="-78.97" font-family="Times New Roman,serif" font-size="12.00">Evaluate financial risks</text>
</g>
<!-- 2592520359088&#45;&gt;2592520366144 -->
<g id="edge56" class="edge">
<title>2592520359088&#45;&gt;2592520366144</title>
<path fill="none" stroke="black" d="M4722.78,-84C4730.44,-84 4738.63,-84 4746.89,-84"/>
<polygon fill="black" stroke="black" points="4746.65,-87.5 4756.65,-84 4746.65,-80.5 4746.65,-87.5"/>
</g>
<!-- 2592517948912 -->
<g id="node47" class="node">
<title>2592517948912</title>
<ellipse fill="orange" stroke="black" cx="4938" cy="-84" rx="18" ry="18"/>
</g>
<!-- 2592520366144&#45;&gt;2592517948912 -->
<g id="edge57" class="edge">
<title>2592520366144&#45;&gt;2592517948912</title>
<path fill="none" stroke="black" d="M4884.33,-84C4892.72,-84 4900.97,-84 4908.37,-84"/>
<polygon fill="black" stroke="black" points="4908.36,-87.5 4918.36,-84 4908.36,-80.5 4908.36,-87.5"/>
</g>
</g>
</svg>
