<?xml version="1.0" encoding="UTF-8" standalone="no"?>
<!DOCTYPE svg PUBLIC "-//W3C//DTD SVG 1.1//EN"
 "http://www.w3.org/Graphics/SVG/1.1/DTD/svg11.dtd">
<!-- Generated by graphviz version 11.0.0 (20240428.1522)
 -->
<!-- Pages: 1 -->
<svg width="1774pt" height="98pt"
 viewBox="0.00 0.00 1774.00 98.00" xmlns="http://www.w3.org/2000/svg" xmlns:xlink="http://www.w3.org/1999/xlink">
<g id="graph0" class="graph" transform="scale(1 1) rotate(0) translate(4 94)">
<polygon fill="white" stroke="none" points="-4,4 -4,-94 1770,-94 1770,4 -4,4"/>
<!-- 2272689251600 -->
<g id="node1" class="node">
<title>2272689251600</title>
<ellipse fill="green" stroke="black" cx="18" cy="-45" rx="18" ry="18"/>
</g>
<!-- 2272689727888 -->
<g id="node2" class="node">
<title>2272689727888</title>
<polygon fill="none" stroke="black" points="155.5,-63 72,-63 72,-27 155.5,-27 155.5,-63"/>
<text text-anchor="middle" x="113.75" y="-39.98" font-family="Times New Roman,serif" font-size="12.00">File complaint</text>
</g>
<!-- 2272689251600&#45;&gt;2272689727888 -->
<g id="edge1" class="edge">
<title>2272689251600&#45;&gt;2272689727888</title>
<path fill="none" stroke="black" d="M36.2,-45C43.11,-45 51.48,-45 60.11,-45"/>
<polygon fill="black" stroke="black" points="60.01,-48.5 70.01,-45 60.01,-41.5 60.01,-48.5"/>
</g>
<!-- 2272679980800 -->
<g id="node3" class="node">
<title>2272679980800</title>
<polygon fill="none" stroke="black" points="276.5,-63 191.5,-63 191.5,-27 276.5,-27 276.5,-63"/>
<text text-anchor="middle" x="234" y="-39.98" font-family="Times New Roman,serif" font-size="12.00">Log complaint</text>
</g>
<!-- 2272689727888&#45;&gt;2272679980800 -->
<g id="edge2" class="edge">
<title>2272689727888&#45;&gt;2272679980800</title>
<path fill="none" stroke="black" d="M155.78,-45C163.57,-45 171.84,-45 179.95,-45"/>
<polygon fill="black" stroke="black" points="179.73,-48.5 189.73,-45 179.73,-41.5 179.73,-48.5"/>
</g>
<!-- 2272689860208 -->
<g id="node4" class="node">
<title>2272689860208</title>
<polygon fill="none" stroke="black" points="519,-63 312.5,-63 312.5,-27 519,-27 519,-63"/>
<text text-anchor="middle" x="415.75" y="-39.98" font-family="Times New Roman,serif" font-size="12.00">Assign complaint to relevant department</text>
</g>
<!-- 2272679980800&#45;&gt;2272689860208 -->
<g id="edge3" class="edge">
<title>2272679980800&#45;&gt;2272689860208</title>
<path fill="none" stroke="black" d="M276.69,-45C284.19,-45 292.32,-45 300.77,-45"/>
<polygon fill="black" stroke="black" points="300.5,-48.5 310.5,-45 300.5,-41.5 300.5,-48.5"/>
</g>
<!-- 2272689721792 -->
<g id="node5" class="node">
<title>2272689721792</title>
<polygon fill="none" stroke="black" points="690.25,-63 555,-63 555,-27 690.25,-27 690.25,-63"/>
<text text-anchor="middle" x="622.62" y="-39.98" font-family="Times New Roman,serif" font-size="12.00">Review complaint details</text>
</g>
<!-- 2272689860208&#45;&gt;2272689721792 -->
<g id="edge4" class="edge">
<title>2272689860208&#45;&gt;2272689721792</title>
<path fill="none" stroke="black" d="M519.49,-45C527.54,-45 535.58,-45 543.43,-45"/>
<polygon fill="black" stroke="black" points="543.24,-48.5 553.24,-45 543.24,-41.5 543.24,-48.5"/>
</g>
<!-- 2272679975184 -->
<g id="node6" class="node">
<title>2272679975184</title>
<polygon fill="none" stroke="black" points="753.25,-63 726.25,-45 753.25,-27 780.25,-45 753.25,-63"/>
<text text-anchor="middle" x="753.25" y="-39.98" font-family="Times New Roman,serif" font-size="12.00">X</text>
</g>
<!-- 2272689721792&#45;&gt;2272679975184 -->
<g id="edge5" class="edge">
<title>2272689721792&#45;&gt;2272679975184</title>
<path fill="none" stroke="black" d="M690.57,-45C698.57,-45 706.51,-45 713.9,-45"/>
<polygon fill="black" stroke="black" points="713.85,-48.5 723.85,-45 713.85,-41.5 713.85,-48.5"/>
</g>
<!-- 2272689863232 -->
<g id="node7" class="node">
<title>2272689863232</title>
<polygon fill="none" stroke="black" points="971,-88 816.25,-88 816.25,-52 971,-52 971,-88"/>
<text text-anchor="middle" x="893.62" y="-64.97" font-family="Times New Roman,serif" font-size="12.00">Approve and notify customer</text>
</g>
<!-- 2272679975184&#45;&gt;2272689863232 -->
<g id="edge6" class="edge">
<title>2272679975184&#45;&gt;2272689863232</title>
<path fill="none" stroke="black" d="M775.27,-48.8C783.66,-50.31 793.93,-52.17 804.87,-54.14"/>
<polygon fill="black" stroke="black" points="804.03,-57.55 814.49,-55.88 805.27,-50.66 804.03,-57.55"/>
</g>
<!-- 2272689728176 -->
<g id="node8" class="node">
<title>2272689728176</title>
<polygon fill="none" stroke="black" points="1149.75,-36 1007,-36 1007,0 1149.75,0 1149.75,-36"/>
<text text-anchor="middle" x="1078.38" y="-12.97" font-family="Times New Roman,serif" font-size="12.00">Reject and notify customer</text>
</g>
<!-- 2272679975184&#45;&gt;2272689728176 -->
<g id="edge7" class="edge">
<title>2272679975184&#45;&gt;2272689728176</title>
<path fill="none" stroke="black" d="M778.01,-43.01C823.18,-39.24 923.35,-30.87 995.39,-24.85"/>
<polygon fill="black" stroke="black" points="995.52,-28.35 1005.19,-24.03 994.94,-21.38 995.52,-28.35"/>
</g>
<!-- 2272689720640 -->
<g id="node10" class="node">
<title>2272689720640</title>
<polygon fill="none" stroke="black" points="1140.75,-90 1016,-90 1016,-54 1140.75,-54 1140.75,-90"/>
<text text-anchor="middle" x="1078.38" y="-66.97" font-family="Times New Roman,serif" font-size="12.00">Process reimbursement</text>
</g>
<!-- 2272689863232&#45;&gt;2272689720640 -->
<g id="edge8" class="edge">
<title>2272689863232&#45;&gt;2272689720640</title>
<path fill="none" stroke="black" d="M971.33,-70.84C982.28,-70.96 993.52,-71.08 1004.39,-71.2"/>
<polygon fill="black" stroke="black" points="1004.01,-74.7 1014.05,-71.31 1004.09,-67.7 1004.01,-74.7"/>
</g>
<!-- 2272679981808 -->
<g id="node9" class="node">
<title>2272679981808</title>
<polygon fill="none" stroke="black" points="1212.75,-63 1185.75,-45 1212.75,-27 1239.75,-45 1212.75,-63"/>
<text text-anchor="middle" x="1212.75" y="-39.98" font-family="Times New Roman,serif" font-size="12.00">X</text>
</g>
<!-- 2272689728176&#45;&gt;2272679981808 -->
<g id="edge9" class="edge">
<title>2272689728176&#45;&gt;2272679981808</title>
<path fill="none" stroke="black" d="M1150.21,-32.45C1160.73,-34.59 1171.08,-36.71 1180.22,-38.57"/>
<polygon fill="black" stroke="black" points="1179.44,-41.98 1189.94,-40.55 1180.84,-35.12 1179.44,-41.98"/>
</g>
<!-- 2272679974704 -->
<g id="node11" class="node">
<title>2272679974704</title>
<polygon fill="none" stroke="black" points="1379.5,-63 1275.75,-63 1275.75,-27 1379.5,-27 1379.5,-63"/>
<text text-anchor="middle" x="1327.62" y="-39.98" font-family="Times New Roman,serif" font-size="12.00">Resolve complaint</text>
</g>
<!-- 2272679981808&#45;&gt;2272679974704 -->
<g id="edge11" class="edge">
<title>2272679981808&#45;&gt;2272679974704</title>
<path fill="none" stroke="black" d="M1240.5,-45C1247.67,-45 1255.74,-45 1263.98,-45"/>
<polygon fill="black" stroke="black" points="1263.75,-48.5 1273.75,-45 1263.75,-41.5 1263.75,-48.5"/>
</g>
<!-- 2272689720640&#45;&gt;2272679981808 -->
<g id="edge10" class="edge">
<title>2272689720640&#45;&gt;2272679981808</title>
<path fill="none" stroke="black" d="M1140.91,-59.45C1154.58,-56.66 1168.52,-53.82 1180.38,-51.4"/>
<polygon fill="black" stroke="black" points="1180.87,-54.87 1189.97,-49.44 1179.47,-48.01 1180.87,-54.87"/>
</g>
<!-- 2272679975088 -->
<g id="node12" class="node">
<title>2272679975088</title>
<polygon fill="none" stroke="black" points="1442.5,-63 1415.5,-45 1442.5,-27 1469.5,-45 1442.5,-63"/>
<text text-anchor="middle" x="1442.5" y="-39.98" font-family="Times New Roman,serif" font-size="12.00">X</text>
</g>
<!-- 2272679974704&#45;&gt;2272679975088 -->
<g id="edge12" class="edge">
<title>2272679974704&#45;&gt;2272679975088</title>
<path fill="none" stroke="black" d="M1379.78,-45C1387.74,-45 1395.84,-45 1403.45,-45"/>
<polygon fill="black" stroke="black" points="1403.38,-48.5 1413.38,-45 1403.38,-41.5 1403.38,-48.5"/>
</g>
<!-- 2272679977488 -->
<g id="node13" class="node">
<title>2272679977488</title>
<polygon fill="none" stroke="black" points="1667,-63 1640,-45 1667,-27 1694,-45 1667,-63"/>
<text text-anchor="middle" x="1667" y="-39.98" font-family="Times New Roman,serif" font-size="12.00">X</text>
</g>
<!-- 2272679975088&#45;&gt;2272679977488 -->
<g id="edge14" class="edge">
<title>2272679975088&#45;&gt;2272679977488</title>
<path fill="none" stroke="black" d="M1467.33,-46.9C1478.85,-47.72 1492.89,-48.59 1505.5,-49 1549.26,-50.41 1560.24,-50.41 1604,-49 1612.67,-48.72 1622.02,-48.22 1630.75,-47.67"/>
<polygon fill="black" stroke="black" points="1630.92,-51.17 1640.66,-47 1630.45,-44.18 1630.92,-51.17"/>
</g>
<!-- 2272679681424 -->
<g id="node14" class="node">
<title>2272679681424</title>
<polygon fill="none" stroke="black" points="1604,-40 1505.5,-40 1505.5,-4 1604,-4 1604,-40"/>
<text text-anchor="middle" x="1554.75" y="-16.98" font-family="Times New Roman,serif" font-size="12.00">Provide feedback</text>
</g>
<!-- 2272679975088&#45;&gt;2272679681424 -->
<g id="edge13" class="edge">
<title>2272679975088&#45;&gt;2272679681424</title>
<path fill="none" stroke="black" d="M1463.98,-40.73C1472.58,-38.93 1483.06,-36.75 1493.8,-34.51"/>
<polygon fill="black" stroke="black" points="1494.44,-37.95 1503.52,-32.48 1493.01,-31.1 1494.44,-37.95"/>
</g>
<!-- 2272689253184 -->
<g id="node15" class="node">
<title>2272689253184</title>
<ellipse fill="orange" stroke="black" cx="1748" cy="-45" rx="18" ry="18"/>
</g>
<!-- 2272679977488&#45;&gt;2272689253184 -->
<g id="edge16" class="edge">
<title>2272679977488&#45;&gt;2272689253184</title>
<path fill="none" stroke="black" d="M1694.75,-45C1702.38,-45 1710.73,-45 1718.47,-45"/>
<polygon fill="black" stroke="black" points="1718.43,-48.5 1728.43,-45 1718.43,-41.5 1718.43,-48.5"/>
</g>
<!-- 2272679681424&#45;&gt;2272679977488 -->
<g id="edge15" class="edge">
<title>2272679681424&#45;&gt;2272679977488</title>
<path fill="none" stroke="black" d="M1604.43,-32.16C1614.65,-34.29 1625.17,-36.48 1634.56,-38.44"/>
<polygon fill="black" stroke="black" points="1633.75,-41.85 1644.26,-40.46 1635.18,-35 1633.75,-41.85"/>
</g>
</g>
</svg>
