<?xml version="1.0" encoding="UTF-8" standalone="no"?>
<!DOCTYPE svg PUBLIC "-//W3C//DTD SVG 1.1//EN"
 "http://www.w3.org/Graphics/SVG/1.1/DTD/svg11.dtd">
<!-- Generated by graphviz version 11.0.0 (20240428.1522)
 -->
<!-- Pages: 1 -->
<svg width="1774pt" height="98pt"
 viewBox="0.00 0.00 1774.00 98.00" xmlns="http://www.w3.org/2000/svg" xmlns:xlink="http://www.w3.org/1999/xlink">
<g id="graph0" class="graph" transform="scale(1 1) rotate(0) translate(4 94)">
<polygon fill="white" stroke="none" points="-4,4 -4,-94 1770,-94 1770,4 -4,4"/>
<!-- 2272680292288 -->
<g id="node1" class="node">
<title>2272680292288</title>
<ellipse fill="green" stroke="black" cx="18" cy="-45" rx="18" ry="18"/>
</g>
<!-- 2272662847120 -->
<g id="node2" class="node">
<title>2272662847120</title>
<polygon fill="none" stroke="black" points="155.5,-63 72,-63 72,-27 155.5,-27 155.5,-63"/>
<text text-anchor="middle" x="113.75" y="-39.98" font-family="Times New Roman,serif" font-size="12.00">File complaint</text>
</g>
<!-- 2272680292288&#45;&gt;2272662847120 -->
<g id="edge1" class="edge">
<title>2272680292288&#45;&gt;2272662847120</title>
<path fill="none" stroke="black" d="M36.2,-45C43.11,-45 51.48,-45 60.11,-45"/>
<polygon fill="black" stroke="black" points="60.01,-48.5 70.01,-45 60.01,-41.5 60.01,-48.5"/>
</g>
<!-- 2272680283744 -->
<g id="node3" class="node">
<title>2272680283744</title>
<polygon fill="none" stroke="black" points="276.5,-63 191.5,-63 191.5,-27 276.5,-27 276.5,-63"/>
<text text-anchor="middle" x="234" y="-39.98" font-family="Times New Roman,serif" font-size="12.00">Log complaint</text>
</g>
<!-- 2272662847120&#45;&gt;2272680283744 -->
<g id="edge2" class="edge">
<title>2272662847120&#45;&gt;2272680283744</title>
<path fill="none" stroke="black" d="M155.78,-45C163.57,-45 171.84,-45 179.95,-45"/>
<polygon fill="black" stroke="black" points="179.73,-48.5 189.73,-45 179.73,-41.5 179.73,-48.5"/>
</g>
<!-- 2272662844528 -->
<g id="node4" class="node">
<title>2272662844528</title>
<polygon fill="none" stroke="black" points="519,-63 312.5,-63 312.5,-27 519,-27 519,-63"/>
<text text-anchor="middle" x="415.75" y="-39.98" font-family="Times New Roman,serif" font-size="12.00">Assign complaint to relevant department</text>
</g>
<!-- 2272680283744&#45;&gt;2272662844528 -->
<g id="edge3" class="edge">
<title>2272680283744&#45;&gt;2272662844528</title>
<path fill="none" stroke="black" d="M276.69,-45C284.19,-45 292.32,-45 300.77,-45"/>
<polygon fill="black" stroke="black" points="300.5,-48.5 310.5,-45 300.5,-41.5 300.5,-48.5"/>
</g>
<!-- 2272680289984 -->
<g id="node5" class="node">
<title>2272680289984</title>
<polygon fill="none" stroke="black" points="690.25,-63 555,-63 555,-27 690.25,-27 690.25,-63"/>
<text text-anchor="middle" x="622.62" y="-39.98" font-family="Times New Roman,serif" font-size="12.00">Review complaint details</text>
</g>
<!-- 2272662844528&#45;&gt;2272680289984 -->
<g id="edge4" class="edge">
<title>2272662844528&#45;&gt;2272680289984</title>
<path fill="none" stroke="black" d="M519.49,-45C527.54,-45 535.58,-45 543.43,-45"/>
<polygon fill="black" stroke="black" points="543.24,-48.5 553.24,-45 543.24,-41.5 543.24,-48.5"/>
</g>
<!-- 2272662837280 -->
<g id="node6" class="node">
<title>2272662837280</title>
<polygon fill="none" stroke="black" points="753.25,-63 726.25,-45 753.25,-27 780.25,-45 753.25,-63"/>
<text text-anchor="middle" x="753.25" y="-39.98" font-family="Times New Roman,serif" font-size="12.00">X</text>
</g>
<!-- 2272680289984&#45;&gt;2272662837280 -->
<g id="edge5" class="edge">
<title>2272680289984&#45;&gt;2272662837280</title>
<path fill="none" stroke="black" d="M690.57,-45C698.57,-45 706.51,-45 713.9,-45"/>
<polygon fill="black" stroke="black" points="713.85,-48.5 723.85,-45 713.85,-41.5 713.85,-48.5"/>
</g>
<!-- 2272680285088 -->
<g id="node7" class="node">
<title>2272680285088</title>
<polygon fill="none" stroke="black" points="1149.75,-90 1007,-90 1007,-54 1149.75,-54 1149.75,-90"/>
<text text-anchor="middle" x="1078.38" y="-66.97" font-family="Times New Roman,serif" font-size="12.00">Reject and notify customer</text>
</g>
<!-- 2272662837280&#45;&gt;2272680285088 -->
<g id="edge6" class="edge">
<title>2272662837280&#45;&gt;2272680285088</title>
<path fill="none" stroke="black" d="M778.01,-46.99C823.18,-50.76 923.35,-59.13 995.39,-65.15"/>
<polygon fill="black" stroke="black" points="994.94,-68.62 1005.19,-65.97 995.52,-61.65 994.94,-68.62"/>
</g>
<!-- 2272680293872 -->
<g id="node8" class="node">
<title>2272680293872</title>
<polygon fill="none" stroke="black" points="971,-40 816.25,-40 816.25,-4 971,-4 971,-40"/>
<text text-anchor="middle" x="893.62" y="-16.98" font-family="Times New Roman,serif" font-size="12.00">Approve and notify customer</text>
</g>
<!-- 2272662837280&#45;&gt;2272680293872 -->
<g id="edge7" class="edge">
<title>2272662837280&#45;&gt;2272680293872</title>
<path fill="none" stroke="black" d="M775.57,-41.46C783.84,-40.08 793.9,-38.41 804.61,-36.63"/>
<polygon fill="black" stroke="black" points="805.18,-40.08 814.47,-34.99 804.03,-33.18 805.18,-40.08"/>
</g>
<!-- 2272662837760 -->
<g id="node9" class="node">
<title>2272662837760</title>
<polygon fill="none" stroke="black" points="1212.75,-63 1185.75,-45 1212.75,-27 1239.75,-45 1212.75,-63"/>
<text text-anchor="middle" x="1212.75" y="-39.98" font-family="Times New Roman,serif" font-size="12.00">X</text>
</g>
<!-- 2272680285088&#45;&gt;2272662837760 -->
<g id="edge8" class="edge">
<title>2272680285088&#45;&gt;2272662837760</title>
<path fill="none" stroke="black" d="M1150.21,-57.55C1160.73,-55.41 1171.08,-53.29 1180.22,-51.43"/>
<polygon fill="black" stroke="black" points="1180.84,-54.88 1189.94,-49.45 1179.44,-48.02 1180.84,-54.88"/>
</g>
<!-- 2272680282784 -->
<g id="node10" class="node">
<title>2272680282784</title>
<polygon fill="none" stroke="black" points="1140.75,-36 1016,-36 1016,0 1140.75,0 1140.75,-36"/>
<text text-anchor="middle" x="1078.38" y="-12.97" font-family="Times New Roman,serif" font-size="12.00">Process reimbursement</text>
</g>
<!-- 2272680293872&#45;&gt;2272680282784 -->
<g id="edge9" class="edge">
<title>2272680293872&#45;&gt;2272680282784</title>
<path fill="none" stroke="black" d="M971.33,-20.32C982.28,-20.08 993.52,-19.84 1004.39,-19.6"/>
<polygon fill="black" stroke="black" points="1004.13,-23.1 1014.05,-19.39 1003.97,-16.11 1004.13,-23.1"/>
</g>
<!-- 2272680286192 -->
<g id="node11" class="node">
<title>2272680286192</title>
<polygon fill="none" stroke="black" points="1379.5,-63 1275.75,-63 1275.75,-27 1379.5,-27 1379.5,-63"/>
<text text-anchor="middle" x="1327.62" y="-39.98" font-family="Times New Roman,serif" font-size="12.00">Resolve complaint</text>
</g>
<!-- 2272662837760&#45;&gt;2272680286192 -->
<g id="edge11" class="edge">
<title>2272662837760&#45;&gt;2272680286192</title>
<path fill="none" stroke="black" d="M1240.5,-45C1247.67,-45 1255.74,-45 1263.98,-45"/>
<polygon fill="black" stroke="black" points="1263.75,-48.5 1273.75,-45 1263.75,-41.5 1263.75,-48.5"/>
</g>
<!-- 2272680282784&#45;&gt;2272662837760 -->
<g id="edge10" class="edge">
<title>2272680282784&#45;&gt;2272662837760</title>
<path fill="none" stroke="black" d="M1140.91,-30.55C1154.58,-33.34 1168.52,-36.18 1180.38,-38.6"/>
<polygon fill="black" stroke="black" points="1179.47,-41.99 1189.97,-40.56 1180.87,-35.13 1179.47,-41.99"/>
</g>
<!-- 2272662846976 -->
<g id="node12" class="node">
<title>2272662846976</title>
<polygon fill="none" stroke="black" points="1442.5,-63 1415.5,-45 1442.5,-27 1469.5,-45 1442.5,-63"/>
<text text-anchor="middle" x="1442.5" y="-39.98" font-family="Times New Roman,serif" font-size="12.00">X</text>
</g>
<!-- 2272680286192&#45;&gt;2272662846976 -->
<g id="edge12" class="edge">
<title>2272680286192&#45;&gt;2272662846976</title>
<path fill="none" stroke="black" d="M1379.78,-45C1387.74,-45 1395.84,-45 1403.45,-45"/>
<polygon fill="black" stroke="black" points="1403.38,-48.5 1413.38,-45 1403.38,-41.5 1403.38,-48.5"/>
</g>
<!-- 2272662843952 -->
<g id="node13" class="node">
<title>2272662843952</title>
<polygon fill="none" stroke="black" points="1667,-63 1640,-45 1667,-27 1694,-45 1667,-63"/>
<text text-anchor="middle" x="1667" y="-39.98" font-family="Times New Roman,serif" font-size="12.00">X</text>
</g>
<!-- 2272662846976&#45;&gt;2272662843952 -->
<g id="edge14" class="edge">
<title>2272662846976&#45;&gt;2272662843952</title>
<path fill="none" stroke="black" d="M1467.33,-46.9C1478.85,-47.72 1492.89,-48.59 1505.5,-49 1549.26,-50.41 1560.24,-50.41 1604,-49 1612.67,-48.72 1622.02,-48.22 1630.75,-47.67"/>
<polygon fill="black" stroke="black" points="1630.92,-51.17 1640.66,-47 1630.45,-44.18 1630.92,-51.17"/>
</g>
<!-- 2272680281680 -->
<g id="node14" class="node">
<title>2272680281680</title>
<polygon fill="none" stroke="black" points="1604,-40 1505.5,-40 1505.5,-4 1604,-4 1604,-40"/>
<text text-anchor="middle" x="1554.75" y="-16.98" font-family="Times New Roman,serif" font-size="12.00">Provide feedback</text>
</g>
<!-- 2272662846976&#45;&gt;2272680281680 -->
<g id="edge13" class="edge">
<title>2272662846976&#45;&gt;2272680281680</title>
<path fill="none" stroke="black" d="M1463.98,-40.73C1472.58,-38.93 1483.06,-36.75 1493.8,-34.51"/>
<polygon fill="black" stroke="black" points="1494.44,-37.95 1503.52,-32.48 1493.01,-31.1 1494.44,-37.95"/>
</g>
<!-- 2272680286432 -->
<g id="node15" class="node">
<title>2272680286432</title>
<ellipse fill="orange" stroke="black" cx="1748" cy="-45" rx="18" ry="18"/>
</g>
<!-- 2272662843952&#45;&gt;2272680286432 -->
<g id="edge16" class="edge">
<title>2272662843952&#45;&gt;2272680286432</title>
<path fill="none" stroke="black" d="M1694.75,-45C1702.38,-45 1710.73,-45 1718.47,-45"/>
<polygon fill="black" stroke="black" points="1718.43,-48.5 1728.43,-45 1718.43,-41.5 1718.43,-48.5"/>
</g>
<!-- 2272680281680&#45;&gt;2272662843952 -->
<g id="edge15" class="edge">
<title>2272680281680&#45;&gt;2272662843952</title>
<path fill="none" stroke="black" d="M1604.43,-32.16C1614.65,-34.29 1625.17,-36.48 1634.56,-38.44"/>
<polygon fill="black" stroke="black" points="1633.75,-41.85 1644.26,-40.46 1635.18,-35 1633.75,-41.85"/>
</g>
</g>
</svg>
