<?xml version="1.0" encoding="UTF-8" standalone="no"?>
<!DOCTYPE svg PUBLIC "-//W3C//DTD SVG 1.1//EN"
 "http://www.w3.org/Graphics/SVG/1.1/DTD/svg11.dtd">
<!-- Generated by graphviz version 11.0.0 (20240428.1522)
 -->
<!-- Pages: 1 -->
<svg width="1756pt" height="98pt"
 viewBox="0.00 0.00 1756.00 98.00" xmlns="http://www.w3.org/2000/svg" xmlns:xlink="http://www.w3.org/1999/xlink">
<g id="graph0" class="graph" transform="scale(1 1) rotate(0) translate(4 94)">
<polygon fill="white" stroke="none" points="-4,4 -4,-94 1752,-94 1752,4 -4,4"/>
<!-- 2272689530896 -->
<g id="node1" class="node">
<title>2272689530896</title>
<ellipse fill="green" stroke="black" cx="18" cy="-45" rx="18" ry="18"/>
</g>
<!-- 2272685939776 -->
<g id="node2" class="node">
<title>2272685939776</title>
<polygon fill="none" stroke="black" points="155.5,-63 72,-63 72,-27 155.5,-27 155.5,-63"/>
<text text-anchor="middle" x="113.75" y="-39.98" font-family="Times New Roman,serif" font-size="12.00">File complaint</text>
</g>
<!-- 2272689530896&#45;&gt;2272685939776 -->
<g id="edge1" class="edge">
<title>2272689530896&#45;&gt;2272685939776</title>
<path fill="none" stroke="black" d="M36.2,-45C43.11,-45 51.48,-45 60.11,-45"/>
<polygon fill="black" stroke="black" points="60.01,-48.5 70.01,-45 60.01,-41.5 60.01,-48.5"/>
</g>
<!-- 2272685940928 -->
<g id="node3" class="node">
<title>2272685940928</title>
<polygon fill="none" stroke="black" points="276.5,-63 191.5,-63 191.5,-27 276.5,-27 276.5,-63"/>
<text text-anchor="middle" x="234" y="-39.98" font-family="Times New Roman,serif" font-size="12.00">Log complaint</text>
</g>
<!-- 2272685939776&#45;&gt;2272685940928 -->
<g id="edge2" class="edge">
<title>2272685939776&#45;&gt;2272685940928</title>
<path fill="none" stroke="black" d="M155.78,-45C163.57,-45 171.84,-45 179.95,-45"/>
<polygon fill="black" stroke="black" points="179.73,-48.5 189.73,-45 179.73,-41.5 179.73,-48.5"/>
</g>
<!-- 2272685939056 -->
<g id="node4" class="node">
<title>2272685939056</title>
<polygon fill="none" stroke="black" points="519,-63 312.5,-63 312.5,-27 519,-27 519,-63"/>
<text text-anchor="middle" x="415.75" y="-39.98" font-family="Times New Roman,serif" font-size="12.00">Assign complaint to relevant department</text>
</g>
<!-- 2272685940928&#45;&gt;2272685939056 -->
<g id="edge3" class="edge">
<title>2272685940928&#45;&gt;2272685939056</title>
<path fill="none" stroke="black" d="M276.69,-45C284.19,-45 292.32,-45 300.77,-45"/>
<polygon fill="black" stroke="black" points="300.5,-48.5 310.5,-45 300.5,-41.5 300.5,-48.5"/>
</g>
<!-- 2272685937232 -->
<g id="node5" class="node">
<title>2272685937232</title>
<polygon fill="none" stroke="black" points="690.25,-63 555,-63 555,-27 690.25,-27 690.25,-63"/>
<text text-anchor="middle" x="622.62" y="-39.98" font-family="Times New Roman,serif" font-size="12.00">Review complaint details</text>
</g>
<!-- 2272685939056&#45;&gt;2272685937232 -->
<g id="edge4" class="edge">
<title>2272685939056&#45;&gt;2272685937232</title>
<path fill="none" stroke="black" d="M519.49,-45C527.54,-45 535.58,-45 543.43,-45"/>
<polygon fill="black" stroke="black" points="543.24,-48.5 553.24,-45 543.24,-41.5 543.24,-48.5"/>
</g>
<!-- 2272685939152 -->
<g id="node6" class="node">
<title>2272685939152</title>
<polygon fill="none" stroke="black" points="753.25,-63 726.25,-45 753.25,-27 780.25,-45 753.25,-63"/>
<text text-anchor="middle" x="753.25" y="-39.98" font-family="Times New Roman,serif" font-size="12.00">X</text>
</g>
<!-- 2272685937232&#45;&gt;2272685939152 -->
<g id="edge5" class="edge">
<title>2272685937232&#45;&gt;2272685939152</title>
<path fill="none" stroke="black" d="M690.57,-45C698.57,-45 706.51,-45 713.9,-45"/>
<polygon fill="black" stroke="black" points="713.85,-48.5 723.85,-45 713.85,-41.5 713.85,-48.5"/>
</g>
<!-- 2272685936800 -->
<g id="node7" class="node">
<title>2272685936800</title>
<polygon fill="none" stroke="black" points="977.75,-63 950.75,-45 977.75,-27 1004.75,-45 977.75,-63"/>
<text text-anchor="middle" x="977.75" y="-39.98" font-family="Times New Roman,serif" font-size="12.00">X</text>
</g>
<!-- 2272685939152&#45;&gt;2272685936800 -->
<g id="edge6" class="edge">
<title>2272685939152&#45;&gt;2272685936800</title>
<path fill="none" stroke="black" d="M778.08,-46.9C789.6,-47.72 803.64,-48.59 816.25,-49 860.01,-50.41 870.99,-50.41 914.75,-49 923.42,-48.72 932.77,-48.22 941.5,-47.67"/>
<polygon fill="black" stroke="black" points="941.67,-51.17 951.41,-47 941.2,-44.18 941.67,-51.17"/>
</g>
<!-- 2272685933248 -->
<g id="node8" class="node">
<title>2272685933248</title>
<polygon fill="none" stroke="black" points="914.75,-40 816.25,-40 816.25,-4 914.75,-4 914.75,-40"/>
<text text-anchor="middle" x="865.5" y="-16.98" font-family="Times New Roman,serif" font-size="12.00">Provide feedback</text>
</g>
<!-- 2272685939152&#45;&gt;2272685933248 -->
<g id="edge7" class="edge">
<title>2272685939152&#45;&gt;2272685933248</title>
<path fill="none" stroke="black" d="M774.73,-40.73C783.33,-38.93 793.81,-36.75 804.55,-34.51"/>
<polygon fill="black" stroke="black" points="805.19,-37.95 814.27,-32.48 803.76,-31.1 805.19,-37.95"/>
</g>
<!-- 2272685941216 -->
<g id="node9" class="node">
<title>2272685941216</title>
<polygon fill="none" stroke="black" points="1144.5,-63 1040.75,-63 1040.75,-27 1144.5,-27 1144.5,-63"/>
<text text-anchor="middle" x="1092.62" y="-39.98" font-family="Times New Roman,serif" font-size="12.00">Resolve complaint</text>
</g>
<!-- 2272685936800&#45;&gt;2272685941216 -->
<g id="edge9" class="edge">
<title>2272685936800&#45;&gt;2272685941216</title>
<path fill="none" stroke="black" d="M1005.5,-45C1012.67,-45 1020.74,-45 1028.98,-45"/>
<polygon fill="black" stroke="black" points="1028.75,-48.5 1038.75,-45 1028.75,-41.5 1028.75,-48.5"/>
</g>
<!-- 2272685933248&#45;&gt;2272685936800 -->
<g id="edge8" class="edge">
<title>2272685933248&#45;&gt;2272685936800</title>
<path fill="none" stroke="black" d="M915.18,-32.16C925.4,-34.29 935.92,-36.48 945.31,-38.44"/>
<polygon fill="black" stroke="black" points="944.5,-41.85 955.01,-40.46 945.93,-35 944.5,-41.85"/>
</g>
<!-- 2272685944480 -->
<g id="node10" class="node">
<title>2272685944480</title>
<polygon fill="none" stroke="black" points="1207.5,-63 1180.5,-45 1207.5,-27 1234.5,-45 1207.5,-63"/>
<text text-anchor="middle" x="1207.5" y="-39.98" font-family="Times New Roman,serif" font-size="12.00">X</text>
</g>
<!-- 2272685941216&#45;&gt;2272685944480 -->
<g id="edge10" class="edge">
<title>2272685941216&#45;&gt;2272685944480</title>
<path fill="none" stroke="black" d="M1144.78,-45C1152.74,-45 1160.84,-45 1168.45,-45"/>
<polygon fill="black" stroke="black" points="1168.38,-48.5 1178.38,-45 1168.38,-41.5 1168.38,-48.5"/>
</g>
<!-- 2272685934496 -->
<g id="node11" class="node">
<title>2272685934496</title>
<polygon fill="none" stroke="black" points="1395.25,-88 1270.5,-88 1270.5,-52 1395.25,-52 1395.25,-88"/>
<text text-anchor="middle" x="1332.88" y="-64.97" font-family="Times New Roman,serif" font-size="12.00">Process reimbursement</text>
</g>
<!-- 2272685944480&#45;&gt;2272685934496 -->
<g id="edge11" class="edge">
<title>2272685944480&#45;&gt;2272685934496</title>
<path fill="none" stroke="black" d="M1228.87,-49.13C1237.45,-50.87 1247.99,-53 1259.02,-55.24"/>
<polygon fill="black" stroke="black" points="1258.19,-58.64 1268.68,-57.2 1259.58,-51.78 1258.19,-58.64"/>
</g>
<!-- 2272686939872 -->
<g id="node12" class="node">
<title>2272686939872</title>
<polygon fill="none" stroke="black" points="1580,-36 1437.25,-36 1437.25,0 1580,0 1580,-36"/>
<text text-anchor="middle" x="1508.62" y="-12.97" font-family="Times New Roman,serif" font-size="12.00">Reject and notify customer</text>
</g>
<!-- 2272685944480&#45;&gt;2272686939872 -->
<g id="edge12" class="edge">
<title>2272685944480&#45;&gt;2272686939872</title>
<path fill="none" stroke="black" d="M1231.97,-42.88C1273.18,-39.16 1360.35,-31.29 1425.7,-25.39"/>
<polygon fill="black" stroke="black" points="1425.66,-28.91 1435.31,-24.53 1425.03,-21.94 1425.66,-28.91"/>
</g>
<!-- 2272686932624 -->
<g id="node14" class="node">
<title>2272686932624</title>
<polygon fill="none" stroke="black" points="1586,-90 1431.25,-90 1431.25,-54 1586,-54 1586,-90"/>
<text text-anchor="middle" x="1508.62" y="-66.97" font-family="Times New Roman,serif" font-size="12.00">Approve and notify customer</text>
</g>
<!-- 2272685934496&#45;&gt;2272686932624 -->
<g id="edge13" class="edge">
<title>2272685934496&#45;&gt;2272686932624</title>
<path fill="none" stroke="black" d="M1395.62,-70.71C1403.38,-70.8 1411.43,-70.89 1419.49,-70.99"/>
<polygon fill="black" stroke="black" points="1419.32,-74.48 1429.36,-71.1 1419.4,-67.48 1419.32,-74.48"/>
</g>
<!-- 2272685935648 -->
<g id="node13" class="node">
<title>2272685935648</title>
<polygon fill="none" stroke="black" points="1649,-63 1622,-45 1649,-27 1676,-45 1649,-63"/>
<text text-anchor="middle" x="1649" y="-39.98" font-family="Times New Roman,serif" font-size="12.00">X</text>
</g>
<!-- 2272686939872&#45;&gt;2272685935648 -->
<g id="edge14" class="edge">
<title>2272686939872&#45;&gt;2272685935648</title>
<path fill="none" stroke="black" d="M1580.43,-31.82C1592.9,-34.25 1605.29,-36.67 1616,-38.76"/>
<polygon fill="black" stroke="black" points="1615.31,-42.19 1625.79,-40.67 1616.65,-35.32 1615.31,-42.19"/>
</g>
<!-- 2272689532816 -->
<g id="node15" class="node">
<title>2272689532816</title>
<ellipse fill="orange" stroke="black" cx="1730" cy="-45" rx="18" ry="18"/>
</g>
<!-- 2272685935648&#45;&gt;2272689532816 -->
<g id="edge16" class="edge">
<title>2272685935648&#45;&gt;2272689532816</title>
<path fill="none" stroke="black" d="M1676.75,-45C1684.38,-45 1692.73,-45 1700.47,-45"/>
<polygon fill="black" stroke="black" points="1700.43,-48.5 1710.43,-45 1700.43,-41.5 1700.43,-48.5"/>
</g>
<!-- 2272686932624&#45;&gt;2272685935648 -->
<g id="edge15" class="edge">
<title>2272686932624&#45;&gt;2272685935648</title>
<path fill="none" stroke="black" d="M1586.1,-57.08C1596.7,-55.01 1607.08,-52.99 1616.21,-51.2"/>
<polygon fill="black" stroke="black" points="1616.78,-54.66 1625.92,-49.31 1615.44,-47.79 1616.78,-54.66"/>
</g>
</g>
</svg>
