<?xml version="1.0" encoding="UTF-8" standalone="no"?>
<!DOCTYPE svg PUBLIC "-//W3C//DTD SVG 1.1//EN"
 "http://www.w3.org/Graphics/SVG/1.1/DTD/svg11.dtd">
<!-- Generated by graphviz version 11.0.0 (20240428.1522)
 -->
<!-- Pages: 1 -->
<svg width="1756pt" height="98pt"
 viewBox="0.00 0.00 1756.00 98.00" xmlns="http://www.w3.org/2000/svg" xmlns:xlink="http://www.w3.org/1999/xlink">
<g id="graph0" class="graph" transform="scale(1 1) rotate(0) translate(4 94)">
<polygon fill="white" stroke="none" points="-4,4 -4,-94 1752,-94 1752,4 -4,4"/>
<!-- 2272690888368 -->
<g id="node1" class="node">
<title>2272690888368</title>
<ellipse fill="green" stroke="black" cx="18" cy="-45" rx="18" ry="18"/>
</g>
<!-- 2272686934688 -->
<g id="node2" class="node">
<title>2272686934688</title>
<polygon fill="none" stroke="black" points="155.5,-63 72,-63 72,-27 155.5,-27 155.5,-63"/>
<text text-anchor="middle" x="113.75" y="-39.98" font-family="Times New Roman,serif" font-size="12.00">File complaint</text>
</g>
<!-- 2272690888368&#45;&gt;2272686934688 -->
<g id="edge1" class="edge">
<title>2272690888368&#45;&gt;2272686934688</title>
<path fill="none" stroke="black" d="M36.2,-45C43.11,-45 51.48,-45 60.11,-45"/>
<polygon fill="black" stroke="black" points="60.01,-48.5 70.01,-45 60.01,-41.5 60.01,-48.5"/>
</g>
<!-- 2272690887264 -->
<g id="node3" class="node">
<title>2272690887264</title>
<polygon fill="none" stroke="black" points="276.5,-63 191.5,-63 191.5,-27 276.5,-27 276.5,-63"/>
<text text-anchor="middle" x="234" y="-39.98" font-family="Times New Roman,serif" font-size="12.00">Log complaint</text>
</g>
<!-- 2272686934688&#45;&gt;2272690887264 -->
<g id="edge2" class="edge">
<title>2272686934688&#45;&gt;2272690887264</title>
<path fill="none" stroke="black" d="M155.78,-45C163.57,-45 171.84,-45 179.95,-45"/>
<polygon fill="black" stroke="black" points="179.73,-48.5 189.73,-45 179.73,-41.5 179.73,-48.5"/>
</g>
<!-- 2272686932336 -->
<g id="node4" class="node">
<title>2272686932336</title>
<polygon fill="none" stroke="black" points="519,-63 312.5,-63 312.5,-27 519,-27 519,-63"/>
<text text-anchor="middle" x="415.75" y="-39.98" font-family="Times New Roman,serif" font-size="12.00">Assign complaint to relevant department</text>
</g>
<!-- 2272690887264&#45;&gt;2272686932336 -->
<g id="edge3" class="edge">
<title>2272690887264&#45;&gt;2272686932336</title>
<path fill="none" stroke="black" d="M276.69,-45C284.19,-45 292.32,-45 300.77,-45"/>
<polygon fill="black" stroke="black" points="300.5,-48.5 310.5,-45 300.5,-41.5 300.5,-48.5"/>
</g>
<!-- 2272686933920 -->
<g id="node5" class="node">
<title>2272686933920</title>
<polygon fill="none" stroke="black" points="690.25,-63 555,-63 555,-27 690.25,-27 690.25,-63"/>
<text text-anchor="middle" x="622.62" y="-39.98" font-family="Times New Roman,serif" font-size="12.00">Review complaint details</text>
</g>
<!-- 2272686932336&#45;&gt;2272686933920 -->
<g id="edge4" class="edge">
<title>2272686932336&#45;&gt;2272686933920</title>
<path fill="none" stroke="black" d="M519.49,-45C527.54,-45 535.58,-45 543.43,-45"/>
<polygon fill="black" stroke="black" points="543.24,-48.5 553.24,-45 543.24,-41.5 543.24,-48.5"/>
</g>
<!-- 2272686939440 -->
<g id="node6" class="node">
<title>2272686939440</title>
<polygon fill="none" stroke="black" points="753.25,-63 726.25,-45 753.25,-27 780.25,-45 753.25,-63"/>
<text text-anchor="middle" x="753.25" y="-39.98" font-family="Times New Roman,serif" font-size="12.00">X</text>
</g>
<!-- 2272686933920&#45;&gt;2272686939440 -->
<g id="edge5" class="edge">
<title>2272686933920&#45;&gt;2272686939440</title>
<path fill="none" stroke="black" d="M690.57,-45C698.57,-45 706.51,-45 713.9,-45"/>
<polygon fill="black" stroke="black" points="713.85,-48.5 723.85,-45 713.85,-41.5 713.85,-48.5"/>
</g>
<!-- 2272686948176 -->
<g id="node7" class="node">
<title>2272686948176</title>
<polygon fill="none" stroke="black" points="977.75,-63 950.75,-45 977.75,-27 1004.75,-45 977.75,-63"/>
<text text-anchor="middle" x="977.75" y="-39.98" font-family="Times New Roman,serif" font-size="12.00">X</text>
</g>
<!-- 2272686939440&#45;&gt;2272686948176 -->
<g id="edge6" class="edge">
<title>2272686939440&#45;&gt;2272686948176</title>
<path fill="none" stroke="black" d="M778.08,-46.9C789.6,-47.72 803.64,-48.59 816.25,-49 860.01,-50.41 870.99,-50.41 914.75,-49 923.42,-48.72 932.77,-48.22 941.5,-47.67"/>
<polygon fill="black" stroke="black" points="941.67,-51.17 951.41,-47 941.2,-44.18 941.67,-51.17"/>
</g>
<!-- 2272686938000 -->
<g id="node8" class="node">
<title>2272686938000</title>
<polygon fill="none" stroke="black" points="914.75,-40 816.25,-40 816.25,-4 914.75,-4 914.75,-40"/>
<text text-anchor="middle" x="865.5" y="-16.98" font-family="Times New Roman,serif" font-size="12.00">Provide feedback</text>
</g>
<!-- 2272686939440&#45;&gt;2272686938000 -->
<g id="edge7" class="edge">
<title>2272686939440&#45;&gt;2272686938000</title>
<path fill="none" stroke="black" d="M774.73,-40.73C783.33,-38.93 793.81,-36.75 804.55,-34.51"/>
<polygon fill="black" stroke="black" points="805.19,-37.95 814.27,-32.48 803.76,-31.1 805.19,-37.95"/>
</g>
<!-- 2272686934352 -->
<g id="node9" class="node">
<title>2272686934352</title>
<polygon fill="none" stroke="black" points="1067.75,-63 1040.75,-45 1067.75,-27 1094.75,-45 1067.75,-63"/>
<text text-anchor="middle" x="1067.75" y="-39.98" font-family="Times New Roman,serif" font-size="12.00">X</text>
</g>
<!-- 2272686948176&#45;&gt;2272686934352 -->
<g id="edge9" class="edge">
<title>2272686948176&#45;&gt;2272686934352</title>
<path fill="none" stroke="black" d="M1005.63,-45C1012.88,-45 1020.87,-45 1028.6,-45"/>
<polygon fill="black" stroke="black" points="1028.52,-48.5 1038.52,-45 1028.52,-41.5 1028.52,-48.5"/>
</g>
<!-- 2272686938000&#45;&gt;2272686948176 -->
<g id="edge8" class="edge">
<title>2272686938000&#45;&gt;2272686948176</title>
<path fill="none" stroke="black" d="M915.18,-32.16C925.4,-34.29 935.92,-36.48 945.31,-38.44"/>
<polygon fill="black" stroke="black" points="944.5,-41.85 955.01,-40.46 945.93,-35 944.5,-41.85"/>
</g>
<!-- 2272686937712 -->
<g id="node10" class="node">
<title>2272686937712</title>
<polygon fill="none" stroke="black" points="1234.5,-90 1130.75,-90 1130.75,-54 1234.5,-54 1234.5,-90"/>
<text text-anchor="middle" x="1182.62" y="-66.97" font-family="Times New Roman,serif" font-size="12.00">Resolve complaint</text>
</g>
<!-- 2272686934352&#45;&gt;2272686937712 -->
<g id="edge10" class="edge">
<title>2272686934352&#45;&gt;2272686937712</title>
<path fill="none" stroke="black" d="M1088.41,-49.7C1097.31,-51.83 1108.38,-54.48 1119.74,-57.2"/>
<polygon fill="black" stroke="black" points="1118.66,-60.54 1129.2,-59.46 1120.28,-53.73 1118.66,-60.54"/>
</g>
<!-- 2272686933968 -->
<g id="node11" class="node">
<title>2272686933968</title>
<polygon fill="none" stroke="black" points="1234.5,-36 1130.75,-36 1130.75,0 1234.5,0 1234.5,-36"/>
<text text-anchor="middle" x="1182.62" y="-12.97" font-family="Times New Roman,serif" font-size="12.00">Resolve complaint</text>
</g>
<!-- 2272686934352&#45;&gt;2272686933968 -->
<g id="edge11" class="edge">
<title>2272686934352&#45;&gt;2272686933968</title>
<path fill="none" stroke="black" d="M1088.41,-40.3C1097.31,-38.17 1108.38,-35.52 1119.74,-32.8"/>
<polygon fill="black" stroke="black" points="1120.28,-36.27 1129.2,-30.54 1118.66,-29.46 1120.28,-36.27"/>
</g>
<!-- 2272686936992 -->
<g id="node12" class="node">
<title>2272686936992</title>
<polygon fill="none" stroke="black" points="1580,-90 1437.25,-90 1437.25,-54 1580,-54 1580,-90"/>
<text text-anchor="middle" x="1508.62" y="-66.97" font-family="Times New Roman,serif" font-size="12.00">Reject and notify customer</text>
</g>
<!-- 2272686937712&#45;&gt;2272686936992 -->
<g id="edge12" class="edge">
<title>2272686937712&#45;&gt;2272686936992</title>
<path fill="none" stroke="black" d="M1234.96,-72C1286.18,-72 1365.65,-72 1425.61,-72"/>
<polygon fill="black" stroke="black" points="1425.43,-75.5 1435.43,-72 1425.43,-68.5 1425.43,-75.5"/>
</g>
<!-- 2272686936800 -->
<g id="node13" class="node">
<title>2272686936800</title>
<polygon fill="none" stroke="black" points="1395.25,-36 1270.5,-36 1270.5,0 1395.25,0 1395.25,-36"/>
<text text-anchor="middle" x="1332.88" y="-12.97" font-family="Times New Roman,serif" font-size="12.00">Process reimbursement</text>
</g>
<!-- 2272686933968&#45;&gt;2272686936800 -->
<g id="edge13" class="edge">
<title>2272686933968&#45;&gt;2272686936800</title>
<path fill="none" stroke="black" d="M1234.64,-18C1242.39,-18 1250.5,-18 1258.6,-18"/>
<polygon fill="black" stroke="black" points="1258.5,-21.5 1268.5,-18 1258.5,-14.5 1258.5,-21.5"/>
</g>
<!-- 2272686932720 -->
<g id="node14" class="node">
<title>2272686932720</title>
<polygon fill="none" stroke="black" points="1649,-63 1622,-45 1649,-27 1676,-45 1649,-63"/>
<text text-anchor="middle" x="1649" y="-39.98" font-family="Times New Roman,serif" font-size="12.00">X</text>
</g>
<!-- 2272686936992&#45;&gt;2272686932720 -->
<g id="edge14" class="edge">
<title>2272686936992&#45;&gt;2272686932720</title>
<path fill="none" stroke="black" d="M1580.43,-58.18C1592.9,-55.75 1605.29,-53.33 1616,-51.24"/>
<polygon fill="black" stroke="black" points="1616.65,-54.68 1625.79,-49.33 1615.31,-47.81 1616.65,-54.68"/>
</g>
<!-- 2272690893312 -->
<g id="node15" class="node">
<title>2272690893312</title>
<polygon fill="none" stroke="black" points="1586,-36 1431.25,-36 1431.25,0 1586,0 1586,-36"/>
<text text-anchor="middle" x="1508.62" y="-12.97" font-family="Times New Roman,serif" font-size="12.00">Approve and notify customer</text>
</g>
<!-- 2272686936800&#45;&gt;2272690893312 -->
<g id="edge15" class="edge">
<title>2272686936800&#45;&gt;2272690893312</title>
<path fill="none" stroke="black" d="M1395.62,-18C1403.38,-18 1411.43,-18 1419.49,-18"/>
<polygon fill="black" stroke="black" points="1419.36,-21.5 1429.36,-18 1419.36,-14.5 1419.36,-21.5"/>
</g>
<!-- 2272690895328 -->
<g id="node16" class="node">
<title>2272690895328</title>
<ellipse fill="orange" stroke="black" cx="1730" cy="-45" rx="18" ry="18"/>
</g>
<!-- 2272686932720&#45;&gt;2272690895328 -->
<g id="edge17" class="edge">
<title>2272686932720&#45;&gt;2272690895328</title>
<path fill="none" stroke="black" d="M1676.75,-45C1684.38,-45 1692.73,-45 1700.47,-45"/>
<polygon fill="black" stroke="black" points="1700.43,-48.5 1710.43,-45 1700.43,-41.5 1700.43,-48.5"/>
</g>
<!-- 2272690893312&#45;&gt;2272686932720 -->
<g id="edge16" class="edge">
<title>2272690893312&#45;&gt;2272686932720</title>
<path fill="none" stroke="black" d="M1586.1,-32.92C1596.7,-34.99 1607.08,-37.01 1616.21,-38.8"/>
<polygon fill="black" stroke="black" points="1615.44,-42.21 1625.92,-40.69 1616.78,-35.34 1615.44,-42.21"/>
</g>
</g>
</svg>
