<?xml version="1.0" encoding="UTF-8" standalone="no"?>
<!DOCTYPE svg PUBLIC "-//W3C//DTD SVG 1.1//EN"
 "http://www.w3.org/Graphics/SVG/1.1/DTD/svg11.dtd">
<!-- Generated by graphviz version 11.0.0 (20240428.1522)
 -->
<!-- Pages: 1 -->
<svg width="1845pt" height="132pt"
 viewBox="0.00 0.00 1844.75 132.00" xmlns="http://www.w3.org/2000/svg" xmlns:xlink="http://www.w3.org/1999/xlink">
<g id="graph0" class="graph" transform="scale(1 1) rotate(0) translate(4 128)">
<polygon fill="white" stroke="none" points="-4,4 -4,-128 1840.75,-128 1840.75,4 -4,4"/>
<!-- 2272685942176 -->
<g id="node1" class="node">
<title>2272685942176</title>
<ellipse fill="green" stroke="black" cx="18" cy="-79" rx="18" ry="18"/>
</g>
<!-- 2272679975424 -->
<g id="node2" class="node">
<title>2272679975424</title>
<polygon fill="none" stroke="black" points="175.75,-97 72,-97 72,-61 175.75,-61 175.75,-97"/>
<text text-anchor="middle" x="123.88" y="-73.97" font-family="Times New Roman,serif" font-size="12.00">Resolve complaint</text>
</g>
<!-- 2272685942176&#45;&gt;2272679975424 -->
<g id="edge1" class="edge">
<title>2272685942176&#45;&gt;2272679975424</title>
<path fill="none" stroke="black" d="M36.15,-79C43.04,-79 51.44,-79 60.27,-79"/>
<polygon fill="black" stroke="black" points="60.08,-82.5 70.08,-79 60.08,-75.5 60.08,-82.5"/>
</g>
<!-- 2272689529840 -->
<g id="node3" class="node">
<title>2272689529840</title>
<polygon fill="none" stroke="black" points="296.75,-97 211.75,-97 211.75,-61 296.75,-61 296.75,-97"/>
<text text-anchor="middle" x="254.25" y="-73.97" font-family="Times New Roman,serif" font-size="12.00">Log complaint</text>
</g>
<!-- 2272679975424&#45;&gt;2272689529840 -->
<g id="edge2" class="edge">
<title>2272679975424&#45;&gt;2272689529840</title>
<path fill="none" stroke="black" d="M175.98,-79C183.87,-79 192.04,-79 199.98,-79"/>
<polygon fill="black" stroke="black" points="199.87,-82.5 209.87,-79 199.87,-75.5 199.87,-82.5"/>
</g>
<!-- 2272689528064 -->
<g id="node4" class="node">
<title>2272689528064</title>
<polygon fill="none" stroke="black" points="475.5,-97 332.75,-97 332.75,-61 475.5,-61 475.5,-97"/>
<text text-anchor="middle" x="404.12" y="-73.97" font-family="Times New Roman,serif" font-size="12.00">Reject and notify customer</text>
</g>
<!-- 2272689529840&#45;&gt;2272689528064 -->
<g id="edge3" class="edge">
<title>2272689529840&#45;&gt;2272689528064</title>
<path fill="none" stroke="black" d="M297.23,-79C304.8,-79 312.93,-79 321.19,-79"/>
<polygon fill="black" stroke="black" points="320.99,-82.5 330.99,-79 320.99,-75.5 320.99,-82.5"/>
</g>
<!-- 2272679975088 -->
<g id="node5" class="node">
<title>2272679975088</title>
<polygon fill="none" stroke="black" points="595,-97 511.5,-97 511.5,-61 595,-61 595,-97"/>
<text text-anchor="middle" x="553.25" y="-73.97" font-family="Times New Roman,serif" font-size="12.00">File complaint</text>
</g>
<!-- 2272689528064&#45;&gt;2272679975088 -->
<g id="edge4" class="edge">
<title>2272689528064&#45;&gt;2272679975088</title>
<path fill="none" stroke="black" d="M475.67,-79C483.9,-79 492.17,-79 500.09,-79"/>
<polygon fill="black" stroke="black" points="499.86,-82.5 509.86,-79 499.86,-75.5 499.86,-82.5"/>
</g>
<!-- 2272679972976 -->
<g id="node6" class="node">
<title>2272679972976</title>
<polygon fill="none" stroke="black" points="658,-97 631,-79 658,-61 685,-79 658,-97"/>
<text text-anchor="middle" x="658" y="-73.97" font-family="Times New Roman,serif" font-size="12.00">X</text>
</g>
<!-- 2272679975088&#45;&gt;2272679972976 -->
<g id="edge5" class="edge">
<title>2272679975088&#45;&gt;2272679972976</title>
<path fill="none" stroke="black" d="M595.45,-79C603.14,-79 611.16,-79 618.76,-79"/>
<polygon fill="black" stroke="black" points="618.74,-82.5 628.74,-79 618.74,-75.5 618.74,-82.5"/>
</g>
<!-- 2272679982624 -->
<g id="node7" class="node">
<title>2272679982624</title>
<polygon fill="none" stroke="black" points="1062,-124 963.5,-124 963.5,-88 1062,-88 1062,-124"/>
<text text-anchor="middle" x="1012.75" y="-100.97" font-family="Times New Roman,serif" font-size="12.00">Provide feedback</text>
</g>
<!-- 2272679972976&#45;&gt;2272679982624 -->
<g id="edge6" class="edge">
<title>2272679972976&#45;&gt;2272679982624</title>
<path fill="none" stroke="black" d="M682.97,-80.83C737.65,-85.02 872.99,-95.38 951.93,-101.42"/>
<polygon fill="black" stroke="black" points="951.4,-104.89 961.64,-102.16 951.94,-97.91 951.4,-104.89"/>
</g>
<!-- 2272689536464 -->
<g id="node8" class="node">
<title>2272689536464</title>
<polygon fill="none" stroke="black" points="927.5,-74 721,-74 721,-38 927.5,-38 927.5,-74"/>
<text text-anchor="middle" x="824.25" y="-50.98" font-family="Times New Roman,serif" font-size="12.00">Assign complaint to relevant department</text>
</g>
<!-- 2272679972976&#45;&gt;2272689536464 -->
<g id="edge7" class="edge">
<title>2272679972976&#45;&gt;2272689536464</title>
<path fill="none" stroke="black" d="M681.15,-75.9C689.21,-74.77 698.96,-73.4 709.54,-71.92"/>
<polygon fill="black" stroke="black" points="709.91,-75.41 719.33,-70.55 708.94,-68.47 709.91,-75.41"/>
</g>
<!-- 2272679976576 -->
<g id="node10" class="node">
<title>2272679976576</title>
<polygon fill="none" stroke="black" points="1737.75,-101 1710.75,-83 1737.75,-65 1764.75,-83 1737.75,-101"/>
<text text-anchor="middle" x="1737.75" y="-77.97" font-family="Times New Roman,serif" font-size="12.00">X</text>
</g>
<!-- 2272679982624&#45;&gt;2272679976576 -->
<g id="edge8" class="edge">
<title>2272679982624&#45;&gt;2272679976576</title>
<path fill="none" stroke="black" d="M1062.49,-106C1122.02,-106 1225.78,-106 1314.75,-106 1314.75,-106 1314.75,-106 1447.38,-106 1540.38,-106 1649.67,-94.05 1703.44,-87.38"/>
<polygon fill="black" stroke="black" points="1703.67,-90.87 1713.15,-86.15 1702.79,-83.93 1703.67,-90.87"/>
</g>
<!-- 2272679982432 -->
<g id="node9" class="node">
<title>2272679982432</title>
<polygon fill="none" stroke="black" points="1012.75,-70 985.75,-52 1012.75,-34 1039.75,-52 1012.75,-70"/>
<text text-anchor="middle" x="1012.75" y="-46.98" font-family="Times New Roman,serif" font-size="12.00">X</text>
</g>
<!-- 2272689536464&#45;&gt;2272679982432 -->
<g id="edge9" class="edge">
<title>2272689536464&#45;&gt;2272679982432</title>
<path fill="none" stroke="black" d="M927.77,-53.8C944.53,-53.44 960.89,-53.09 974.65,-52.8"/>
<polygon fill="black" stroke="black" points="974.58,-56.3 984.5,-52.58 974.43,-49.3 974.58,-56.3"/>
</g>
<!-- 2272679977680 -->
<g id="node11" class="node">
<title>2272679977680</title>
<polygon fill="none" stroke="black" points="1315.75,-78 1288.75,-60 1315.75,-42 1342.75,-60 1315.75,-78"/>
<text text-anchor="middle" x="1315.75" y="-54.98" font-family="Times New Roman,serif" font-size="12.00">X</text>
</g>
<!-- 2272679982432&#45;&gt;2272679977680 -->
<g id="edge11" class="edge">
<title>2272679982432&#45;&gt;2272679977680</title>
<path fill="none" stroke="black" d="M1039.41,-52.68C1092.84,-54.1 1216.16,-57.38 1278,-59.02"/>
<polygon fill="black" stroke="black" points="1277.55,-62.51 1287.64,-59.28 1277.74,-55.51 1277.55,-62.51"/>
</g>
<!-- 2272679984304 -->
<g id="node12" class="node">
<title>2272679984304</title>
<polygon fill="none" stroke="black" points="1252.75,-36 1098,-36 1098,0 1252.75,0 1252.75,-36"/>
<text text-anchor="middle" x="1175.38" y="-12.97" font-family="Times New Roman,serif" font-size="12.00">Approve and notify customer</text>
</g>
<!-- 2272679982432&#45;&gt;2272679984304 -->
<g id="edge10" class="edge">
<title>2272679982432&#45;&gt;2272679984304</title>
<path fill="none" stroke="black" d="M1034.09,-47.69C1047.84,-44.78 1067.03,-40.72 1086.82,-36.53"/>
<polygon fill="black" stroke="black" points="1087.3,-40.01 1096.36,-34.51 1085.85,-33.16 1087.3,-40.01"/>
</g>
<!-- 2272685932960 -->
<g id="node15" class="node">
<title>2272685932960</title>
<ellipse fill="orange" stroke="black" cx="1818.75" cy="-83" rx="18" ry="18"/>
</g>
<!-- 2272679976576&#45;&gt;2272685932960 -->
<g id="edge12" class="edge">
<title>2272679976576&#45;&gt;2272685932960</title>
<path fill="none" stroke="black" d="M1765.5,-83C1773.13,-83 1781.48,-83 1789.22,-83"/>
<polygon fill="black" stroke="black" points="1789.18,-86.5 1799.18,-83 1789.18,-79.5 1789.18,-86.5"/>
</g>
<!-- 2272679976528 -->
<g id="node13" class="node">
<title>2272679976528</title>
<polygon fill="none" stroke="black" points="1514,-78 1378.75,-78 1378.75,-42 1514,-42 1514,-78"/>
<text text-anchor="middle" x="1446.38" y="-54.98" font-family="Times New Roman,serif" font-size="12.00">Review complaint details</text>
</g>
<!-- 2272679977680&#45;&gt;2272679976528 -->
<g id="edge14" class="edge">
<title>2272679977680&#45;&gt;2272679976528</title>
<path fill="none" stroke="black" d="M1343.4,-60C1350.56,-60 1358.69,-60 1367.15,-60"/>
<polygon fill="black" stroke="black" points="1366.91,-63.5 1376.91,-60 1366.91,-56.5 1366.91,-63.5"/>
</g>
<!-- 2272679984304&#45;&gt;2272679977680 -->
<g id="edge13" class="edge">
<title>2272679984304&#45;&gt;2272679977680</title>
<path fill="none" stroke="black" d="M1237.07,-36.42C1253.86,-41.52 1271.33,-46.82 1285.44,-51.1"/>
<polygon fill="black" stroke="black" points="1284.38,-54.44 1294.97,-54 1286.41,-47.74 1284.38,-54.44"/>
</g>
<!-- 2272689530704 -->
<g id="node14" class="node">
<title>2272689530704</title>
<polygon fill="none" stroke="black" points="1674.75,-78 1550,-78 1550,-42 1674.75,-42 1674.75,-78"/>
<text text-anchor="middle" x="1612.38" y="-54.98" font-family="Times New Roman,serif" font-size="12.00">Process reimbursement</text>
</g>
<!-- 2272679976528&#45;&gt;2272689530704 -->
<g id="edge15" class="edge">
<title>2272679976528&#45;&gt;2272689530704</title>
<path fill="none" stroke="black" d="M1514.08,-60C1522.1,-60 1530.32,-60 1538.42,-60"/>
<polygon fill="black" stroke="black" points="1538.24,-63.5 1548.24,-60 1538.24,-56.5 1538.24,-63.5"/>
</g>
<!-- 2272689530704&#45;&gt;2272679976576 -->
<g id="edge16" class="edge">
<title>2272689530704&#45;&gt;2272679976576</title>
<path fill="none" stroke="black" d="M1675.06,-71.5C1685.28,-73.41 1695.5,-75.31 1704.6,-77.01"/>
<polygon fill="black" stroke="black" points="1703.86,-80.43 1714.33,-78.82 1705.14,-73.55 1703.86,-80.43"/>
</g>
</g>
</svg>
