<?xml version="1.0" encoding="UTF-8" standalone="no"?>
<!DOCTYPE svg PUBLIC "-//W3C//DTD SVG 1.1//EN"
 "http://www.w3.org/Graphics/SVG/1.1/DTD/svg11.dtd">
<!-- Generated by graphviz version 11.0.0 (20240428.1522)
 -->
<!-- Pages: 1 -->
<svg width="1825pt" height="190pt"
 viewBox="0.00 0.00 1825.25 190.00" xmlns="http://www.w3.org/2000/svg" xmlns:xlink="http://www.w3.org/1999/xlink">
<g id="graph0" class="graph" transform="scale(1 1) rotate(0) translate(4 186)">
<polygon fill="white" stroke="none" points="-4,4 -4,-186 1821.25,-186 1821.25,4 -4,4"/>
<!-- 2272679984832 -->
<g id="node1" class="node">
<title>2272679984832</title>
<ellipse fill="green" stroke="black" cx="18" cy="-64" rx="18" ry="18"/>
</g>
<!-- 2272689252704 -->
<g id="node2" class="node">
<title>2272689252704</title>
<polygon fill="none" stroke="black" points="175.75,-82 72,-82 72,-46 175.75,-46 175.75,-82"/>
<text text-anchor="middle" x="123.88" y="-58.98" font-family="Times New Roman,serif" font-size="12.00">Resolve complaint</text>
</g>
<!-- 2272679984832&#45;&gt;2272689252704 -->
<g id="edge1" class="edge">
<title>2272679984832&#45;&gt;2272689252704</title>
<path fill="none" stroke="black" d="M36.15,-64C43.04,-64 51.44,-64 60.27,-64"/>
<polygon fill="black" stroke="black" points="60.08,-67.5 70.08,-64 60.08,-60.5 60.08,-67.5"/>
</g>
<!-- 2272689255968 -->
<g id="node3" class="node">
<title>2272689255968</title>
<polygon fill="none" stroke="black" points="296.75,-82 211.75,-82 211.75,-46 296.75,-46 296.75,-82"/>
<text text-anchor="middle" x="254.25" y="-58.98" font-family="Times New Roman,serif" font-size="12.00">Log complaint</text>
</g>
<!-- 2272689252704&#45;&gt;2272689255968 -->
<g id="edge2" class="edge">
<title>2272689252704&#45;&gt;2272689255968</title>
<path fill="none" stroke="black" d="M175.98,-64C183.87,-64 192.04,-64 199.98,-64"/>
<polygon fill="black" stroke="black" points="199.87,-67.5 209.87,-64 199.87,-60.5 199.87,-67.5"/>
</g>
<!-- 2272689691184 -->
<g id="node4" class="node">
<title>2272689691184</title>
<polygon fill="none" stroke="black" points="475.5,-82 332.75,-82 332.75,-46 475.5,-46 475.5,-82"/>
<text text-anchor="middle" x="404.12" y="-58.98" font-family="Times New Roman,serif" font-size="12.00">Reject and notify customer</text>
</g>
<!-- 2272689255968&#45;&gt;2272689691184 -->
<g id="edge3" class="edge">
<title>2272689255968&#45;&gt;2272689691184</title>
<path fill="none" stroke="black" d="M297.23,-64C304.8,-64 312.93,-64 321.19,-64"/>
<polygon fill="black" stroke="black" points="320.99,-67.5 330.99,-64 320.99,-60.5 320.99,-67.5"/>
</g>
<!-- 2272689696368 -->
<g id="node5" class="node">
<title>2272689696368</title>
<polygon fill="none" stroke="black" points="595,-82 511.5,-82 511.5,-46 595,-46 595,-82"/>
<text text-anchor="middle" x="553.25" y="-58.98" font-family="Times New Roman,serif" font-size="12.00">File complaint</text>
</g>
<!-- 2272689691184&#45;&gt;2272689696368 -->
<g id="edge4" class="edge">
<title>2272689691184&#45;&gt;2272689696368</title>
<path fill="none" stroke="black" d="M475.67,-64C483.9,-64 492.17,-64 500.09,-64"/>
<polygon fill="black" stroke="black" points="499.86,-67.5 509.86,-64 499.86,-60.5 499.86,-67.5"/>
</g>
<!-- 2272689253184 -->
<g id="node6" class="node">
<title>2272689253184</title>
<polygon fill="none" stroke="black" points="658,-82 631,-64 658,-46 685,-64 658,-82"/>
<text text-anchor="middle" x="658" y="-58.98" font-family="Times New Roman,serif" font-size="12.00">X</text>
</g>
<!-- 2272689696368&#45;&gt;2272689253184 -->
<g id="edge5" class="edge">
<title>2272689696368&#45;&gt;2272689253184</title>
<path fill="none" stroke="black" d="M595.45,-64C603.14,-64 611.16,-64 618.76,-64"/>
<polygon fill="black" stroke="black" points="618.74,-67.5 628.74,-64 618.74,-60.5 618.74,-67.5"/>
</g>
<!-- 2272679679504 -->
<g id="node7" class="node">
<title>2272679679504</title>
<polygon fill="none" stroke="black" points="770.25,-109 743.25,-91 770.25,-73 797.25,-91 770.25,-109"/>
<text text-anchor="middle" x="770.25" y="-85.97" font-family="Times New Roman,serif" font-size="12.00">+</text>
</g>
<!-- 2272689253184&#45;&gt;2272679679504 -->
<g id="edge6" class="edge">
<title>2272689253184&#45;&gt;2272679679504</title>
<path fill="none" stroke="black" d="M678.46,-68.76C695.12,-72.85 719.41,-78.79 738.67,-83.51"/>
<polygon fill="black" stroke="black" points="737.6,-86.85 748.15,-85.83 739.27,-80.05 737.6,-86.85"/>
</g>
<!-- 2272689722464 -->
<g id="node8" class="node">
<title>2272689722464</title>
<polygon fill="none" stroke="black" points="819.5,-55 721,-55 721,-19 819.5,-19 819.5,-55"/>
<text text-anchor="middle" x="770.25" y="-31.98" font-family="Times New Roman,serif" font-size="12.00">Provide feedback</text>
</g>
<!-- 2272689253184&#45;&gt;2272689722464 -->
<g id="edge7" class="edge">
<title>2272689253184&#45;&gt;2272689722464</title>
<path fill="none" stroke="black" d="M678.46,-59.24C687.36,-57.06 698.43,-54.34 709.75,-51.57"/>
<polygon fill="black" stroke="black" points="710.27,-55.05 719.15,-49.27 708.61,-48.25 710.27,-55.05"/>
</g>
<!-- 2272689250736 -->
<g id="node9" class="node">
<title>2272689250736</title>
<polygon fill="none" stroke="black" points="1062,-168 855.5,-168 855.5,-132 1062,-132 1062,-168"/>
<text text-anchor="middle" x="958.75" y="-144.97" font-family="Times New Roman,serif" font-size="12.00">Assign complaint to relevant department</text>
</g>
<!-- 2272679679504&#45;&gt;2272689250736 -->
<g id="edge8" class="edge">
<title>2272679679504&#45;&gt;2272689250736</title>
<path fill="none" stroke="black" d="M789.32,-96.83C806.37,-102.32 832.66,-110.77 855.5,-118 865.94,-121.31 876.99,-124.78 887.81,-128.18"/>
<polygon fill="black" stroke="black" points="886.49,-131.44 897.08,-131.09 888.58,-124.76 886.49,-131.44"/>
</g>
<!-- 2272689697040 -->
<g id="node10" class="node">
<title>2272689697040</title>
<polygon fill="none" stroke="black" points="1026.38,-109 891.12,-109 891.12,-73 1026.38,-73 1026.38,-109"/>
<text text-anchor="middle" x="958.75" y="-85.97" font-family="Times New Roman,serif" font-size="12.00">Review complaint details</text>
</g>
<!-- 2272679679504&#45;&gt;2272689697040 -->
<g id="edge9" class="edge">
<title>2272679679504&#45;&gt;2272689697040</title>
<path fill="none" stroke="black" d="M797.97,-91C819.31,-91 850.35,-91 879.41,-91"/>
<polygon fill="black" stroke="black" points="879.33,-94.5 889.33,-91 879.33,-87.5 879.33,-94.5"/>
</g>
<!-- 2272689719728 -->
<g id="node11" class="node">
<title>2272689719728</title>
<polygon fill="none" stroke="black" points="1036.12,-55 881.38,-55 881.38,-19 1036.12,-19 1036.12,-55"/>
<text text-anchor="middle" x="958.75" y="-31.98" font-family="Times New Roman,serif" font-size="12.00">Approve and notify customer</text>
</g>
<!-- 2272689722464&#45;&gt;2272689719728 -->
<g id="edge10" class="edge">
<title>2272689722464&#45;&gt;2272689719728</title>
<path fill="none" stroke="black" d="M819.76,-37C835.08,-37 852.51,-37 869.7,-37"/>
<polygon fill="black" stroke="black" points="869.42,-40.5 879.42,-37 869.42,-33.5 869.42,-40.5"/>
</g>
<!-- 2272689252656 -->
<g id="node14" class="node">
<title>2272689252656</title>
<polygon fill="none" stroke="black" points="1404.5,-182 1269.25,-182 1269.25,-146 1404.5,-146 1404.5,-182"/>
<text text-anchor="middle" x="1336.88" y="-158.97" font-family="Times New Roman,serif" font-size="12.00">Review complaint details</text>
</g>
<!-- 2272689250736&#45;&gt;2272689252656 -->
<g id="edge11" class="edge">
<title>2272689250736&#45;&gt;2272689252656</title>
<path fill="none" stroke="black" d="M1062.03,-153.81C1123.59,-156.1 1200.77,-158.97 1257.48,-161.08"/>
<polygon fill="black" stroke="black" points="1257.27,-164.58 1267.39,-161.45 1257.53,-157.58 1257.27,-164.58"/>
</g>
<!-- 2272689250688 -->
<g id="node12" class="node">
<title>2272689250688</title>
<polygon fill="none" stroke="black" points="1165.62,-109 1138.62,-91 1165.62,-73 1192.62,-91 1165.62,-109"/>
<text text-anchor="middle" x="1165.62" y="-85.97" font-family="Times New Roman,serif" font-size="12.00">X</text>
</g>
<!-- 2272689697040&#45;&gt;2272689250688 -->
<g id="edge12" class="edge">
<title>2272689697040&#45;&gt;2272689250688</title>
<path fill="none" stroke="black" d="M1026.83,-91C1059.92,-91 1098.61,-91 1126.56,-91"/>
<polygon fill="black" stroke="black" points="1126.31,-94.5 1136.31,-91 1126.31,-87.5 1126.31,-94.5"/>
</g>
<!-- 2272689257600 -->
<g id="node13" class="node">
<title>2272689257600</title>
<polygon fill="none" stroke="black" points="1233.25,-36 1098,-36 1098,0 1233.25,0 1233.25,-36"/>
<text text-anchor="middle" x="1165.62" y="-12.97" font-family="Times New Roman,serif" font-size="12.00">Review complaint details</text>
</g>
<!-- 2272689719728&#45;&gt;2272689257600 -->
<g id="edge13" class="edge">
<title>2272689719728&#45;&gt;2272689257600</title>
<path fill="none" stroke="black" d="M1036.62,-29.87C1052.95,-28.36 1070.2,-26.76 1086.58,-25.24"/>
<polygon fill="black" stroke="black" points="1086.61,-28.75 1096.24,-24.34 1085.96,-21.78 1086.61,-28.75"/>
</g>
<!-- 2272689244304 -->
<g id="node16" class="node">
<title>2272689244304</title>
<polygon fill="none" stroke="black" points="1502.88,-136 1475.88,-118 1502.88,-100 1529.88,-118 1502.88,-136"/>
<text text-anchor="middle" x="1502.88" y="-112.97" font-family="Times New Roman,serif" font-size="12.00">X</text>
</g>
<!-- 2272689250688&#45;&gt;2272689244304 -->
<g id="edge15" class="edge">
<title>2272689250688&#45;&gt;2272689244304</title>
<path fill="none" stroke="black" d="M1190.47,-92.92C1248.61,-97.6 1397.93,-109.63 1466.49,-115.15"/>
<polygon fill="black" stroke="black" points="1466.17,-118.64 1476.42,-115.95 1466.74,-111.66 1466.17,-118.64"/>
</g>
<!-- 2272689692096 -->
<g id="node18" class="node">
<title>2272689692096</title>
<polygon fill="none" stroke="black" points="1399.25,-90 1274.5,-90 1274.5,-54 1399.25,-54 1399.25,-90"/>
<text text-anchor="middle" x="1336.88" y="-66.97" font-family="Times New Roman,serif" font-size="12.00">Process reimbursement</text>
</g>
<!-- 2272689250688&#45;&gt;2272689692096 -->
<g id="edge14" class="edge">
<title>2272689250688&#45;&gt;2272689692096</title>
<path fill="none" stroke="black" d="M1189.45,-88.44C1208.4,-86.31 1236.44,-83.16 1262.92,-80.19"/>
<polygon fill="black" stroke="black" points="1263.09,-83.69 1272.64,-79.1 1262.31,-76.74 1263.09,-83.69"/>
</g>
<!-- 2272689246800 -->
<g id="node15" class="node">
<title>2272689246800</title>
<polygon fill="none" stroke="black" points="1336.88,-36 1309.88,-18 1336.88,0 1363.88,-18 1336.88,-36"/>
<text text-anchor="middle" x="1336.88" y="-12.97" font-family="Times New Roman,serif" font-size="12.00">X</text>
</g>
<!-- 2272689257600&#45;&gt;2272689246800 -->
<g id="edge16" class="edge">
<title>2272689257600&#45;&gt;2272689246800</title>
<path fill="none" stroke="black" d="M1233.52,-18C1255.3,-18 1278.72,-18 1297.65,-18"/>
<polygon fill="black" stroke="black" points="1297.58,-21.5 1307.58,-18 1297.58,-14.5 1297.58,-21.5"/>
</g>
<!-- 2272689685856 -->
<g id="node17" class="node">
<title>2272689685856</title>
<polygon fill="none" stroke="black" points="1628.25,-136 1601.25,-118 1628.25,-100 1655.25,-118 1628.25,-136"/>
<text text-anchor="middle" x="1628.25" y="-112.97" font-family="Times New Roman,serif" font-size="12.00">+</text>
</g>
<!-- 2272689252656&#45;&gt;2272689685856 -->
<g id="edge17" class="edge">
<title>2272689252656&#45;&gt;2272689685856</title>
<path fill="none" stroke="black" d="M1404.98,-164.12C1450.76,-162.81 1512.44,-158.32 1565.25,-145 1578.06,-141.77 1591.58,-136.16 1602.72,-130.9"/>
<polygon fill="black" stroke="black" points="1604.18,-134.08 1611.59,-126.51 1601.07,-127.8 1604.18,-134.08"/>
</g>
<!-- 2272689251744 -->
<g id="node20" class="node">
<title>2272689251744</title>
<polygon fill="none" stroke="black" points="1628.25,-82 1601.25,-64 1628.25,-46 1655.25,-64 1628.25,-82"/>
<text text-anchor="middle" x="1628.25" y="-58.98" font-family="Times New Roman,serif" font-size="12.00">X</text>
</g>
<!-- 2272689246800&#45;&gt;2272689251744 -->
<g id="edge21" class="edge">
<title>2272689246800&#45;&gt;2272689251744</title>
<path fill="none" stroke="black" d="M1355.85,-23.64C1376.19,-29.81 1410.41,-39.55 1440.5,-45 1492.29,-54.39 1553.07,-59.49 1590.88,-61.98"/>
<polygon fill="black" stroke="black" points="1590.6,-65.47 1600.8,-62.61 1591.04,-58.49 1590.6,-65.47"/>
</g>
<!-- 2272689249440 -->
<g id="node21" class="node">
<title>2272689249440</title>
<polygon fill="none" stroke="black" points="1565.25,-36 1440.5,-36 1440.5,0 1565.25,0 1565.25,-36"/>
<text text-anchor="middle" x="1502.88" y="-12.97" font-family="Times New Roman,serif" font-size="12.00">Process reimbursement</text>
</g>
<!-- 2272689246800&#45;&gt;2272689249440 -->
<g id="edge20" class="edge">
<title>2272689246800&#45;&gt;2272689249440</title>
<path fill="none" stroke="black" d="M1364.59,-18C1382.06,-18 1405.8,-18 1428.62,-18"/>
<polygon fill="black" stroke="black" points="1428.56,-21.5 1438.56,-18 1428.56,-14.5 1428.56,-21.5"/>
</g>
<!-- 2272689244304&#45;&gt;2272689685856 -->
<g id="edge18" class="edge">
<title>2272689244304&#45;&gt;2272689685856</title>
<path fill="none" stroke="black" d="M1530.65,-118C1547.78,-118 1570.28,-118 1589.25,-118"/>
<polygon fill="black" stroke="black" points="1589.02,-121.5 1599.02,-118 1589.02,-114.5 1589.02,-121.5"/>
</g>
<!-- 2272689247664 -->
<g id="node19" class="node">
<title>2272689247664</title>
<polygon fill="none" stroke="black" points="1718.25,-109 1691.25,-91 1718.25,-73 1745.25,-91 1718.25,-109"/>
<text text-anchor="middle" x="1718.25" y="-85.97" font-family="Times New Roman,serif" font-size="12.00">X</text>
</g>
<!-- 2272689685856&#45;&gt;2272689247664 -->
<g id="edge22" class="edge">
<title>2272689685856&#45;&gt;2272689247664</title>
<path fill="none" stroke="black" d="M1647.48,-112.41C1659.28,-108.79 1674.9,-103.99 1688.36,-99.86"/>
<polygon fill="black" stroke="black" points="1689.06,-103.31 1697.59,-97.03 1687.01,-96.62 1689.06,-103.31"/>
</g>
<!-- 2272689692096&#45;&gt;2272689244304 -->
<g id="edge19" class="edge">
<title>2272689692096&#45;&gt;2272689244304</title>
<path fill="none" stroke="black" d="M1399.41,-89.26C1424.33,-96.25 1451.95,-104 1472.22,-109.68"/>
<polygon fill="black" stroke="black" points="1471.21,-113.03 1481.78,-112.36 1473.1,-106.29 1471.21,-113.03"/>
</g>
<!-- 2272679973648 -->
<g id="node22" class="node">
<title>2272679973648</title>
<ellipse fill="orange" stroke="black" cx="1799.25" cy="-91" rx="18" ry="18"/>
</g>
<!-- 2272689247664&#45;&gt;2272679973648 -->
<g id="edge25" class="edge">
<title>2272689247664&#45;&gt;2272679973648</title>
<path fill="none" stroke="black" d="M1746,-91C1753.63,-91 1761.98,-91 1769.72,-91"/>
<polygon fill="black" stroke="black" points="1769.68,-94.5 1779.68,-91 1769.68,-87.5 1769.68,-94.5"/>
</g>
<!-- 2272689251744&#45;&gt;2272689247664 -->
<g id="edge23" class="edge">
<title>2272689251744&#45;&gt;2272689247664</title>
<path fill="none" stroke="black" d="M1647.48,-69.59C1659.28,-73.21 1674.9,-78.01 1688.36,-82.14"/>
<polygon fill="black" stroke="black" points="1687.01,-85.38 1697.59,-84.97 1689.06,-78.69 1687.01,-85.38"/>
</g>
<!-- 2272689249440&#45;&gt;2272689251744 -->
<g id="edge24" class="edge">
<title>2272689249440&#45;&gt;2272689251744</title>
<path fill="none" stroke="black" d="M1553.35,-36.44C1569.06,-42.3 1585.87,-48.57 1599.49,-53.65"/>
<polygon fill="black" stroke="black" points="1598.06,-56.85 1608.66,-57.07 1600.51,-50.29 1598.06,-56.85"/>
</g>
</g>
</svg>
