<?xml version="1.0" encoding="UTF-8" standalone="no"?>
<!DOCTYPE svg PUBLIC "-//W3C//DTD SVG 1.1//EN"
 "http://www.w3.org/Graphics/SVG/1.1/DTD/svg11.dtd">
<!-- Generated by graphviz version 11.0.0 (20240428.1522)
 -->
<!-- Pages: 1 -->
<svg width="1947pt" height="114pt"
 viewBox="0.00 0.00 1947.25 114.00" xmlns="http://www.w3.org/2000/svg" xmlns:xlink="http://www.w3.org/1999/xlink">
<g id="graph0" class="graph" transform="scale(1 1) rotate(0) translate(4 110)">
<polygon fill="white" stroke="none" points="-4,4 -4,-110 1943.25,-110 1943.25,4 -4,4"/>
<!-- 2479385851808 -->
<g id="node1" class="node">
<title>2479385851808</title>
<ellipse fill="green" stroke="black" cx="18" cy="-83" rx="18" ry="18"/>
</g>
<!-- 2479385850704 -->
<g id="node2" class="node">
<title>2479385850704</title>
<polygon fill="none" stroke="black" points="208.75,-101 72,-101 72,-65 208.75,-65 208.75,-101"/>
<text text-anchor="middle" x="140.38" y="-77.97" font-family="Times New Roman,serif" font-size="12.00">Receive customer inquiry</text>
</g>
<!-- 2479385851808&#45;&gt;2479385850704 -->
<g id="edge1" class="edge">
<title>2479385851808&#45;&gt;2479385850704</title>
<path fill="none" stroke="black" d="M36.25,-83C43.09,-83 51.47,-83 60.48,-83"/>
<polygon fill="black" stroke="black" points="60.19,-86.5 70.19,-83 60.19,-79.5 60.19,-86.5"/>
</g>
<!-- 2479385849264 -->
<g id="node3" class="node">
<title>2479385849264</title>
<polygon fill="none" stroke="black" points="398,-101 244.75,-101 244.75,-65 398,-65 398,-101"/>
<text text-anchor="middle" x="321.38" y="-77.97" font-family="Times New Roman,serif" font-size="12.00">Collect customer information</text>
</g>
<!-- 2479385850704&#45;&gt;2479385849264 -->
<g id="edge2" class="edge">
<title>2479385850704&#45;&gt;2479385849264</title>
<path fill="none" stroke="black" d="M209.05,-83C216.92,-83 225.03,-83 233.12,-83"/>
<polygon fill="black" stroke="black" points="233,-86.5 243,-83 233,-79.5 233,-86.5"/>
</g>
<!-- 2479385848928 -->
<g id="node4" class="node">
<title>2479385848928</title>
<polygon fill="none" stroke="black" points="639.75,-101 434,-101 434,-65 639.75,-65 639.75,-101"/>
<text text-anchor="middle" x="536.88" y="-77.97" font-family="Times New Roman,serif" font-size="12.00">Address customer concerns or questions</text>
</g>
<!-- 2479385849264&#45;&gt;2479385848928 -->
<g id="edge3" class="edge">
<title>2479385849264&#45;&gt;2479385848928</title>
<path fill="none" stroke="black" d="M398.25,-83C406.07,-83 414.13,-83 422.25,-83"/>
<polygon fill="black" stroke="black" points="422.22,-86.5 432.22,-83 422.22,-79.5 422.22,-86.5"/>
</g>
<!-- 2479385849120 -->
<g id="node5" class="node">
<title>2479385849120</title>
<polygon fill="none" stroke="black" points="702.75,-101 675.75,-83 702.75,-65 729.75,-83 702.75,-101"/>
<text text-anchor="middle" x="702.75" y="-77.97" font-family="Times New Roman,serif" font-size="12.00">X</text>
</g>
<!-- 2479385848928&#45;&gt;2479385849120 -->
<g id="edge4" class="edge">
<title>2479385848928&#45;&gt;2479385849120</title>
<path fill="none" stroke="black" d="M639.8,-83C648.15,-83 656.21,-83 663.6,-83"/>
<polygon fill="black" stroke="black" points="663.45,-86.5 673.45,-83 663.45,-79.5 663.45,-86.5"/>
</g>
<!-- 2479385846528 -->
<g id="node6" class="node">
<title>2479385846528</title>
<polygon fill="none" stroke="black" points="1840.25,-101 1813.25,-83 1840.25,-65 1867.25,-83 1840.25,-101"/>
<text text-anchor="middle" x="1840.25" y="-77.97" font-family="Times New Roman,serif" font-size="12.00">X</text>
</g>
<!-- 2479385849120&#45;&gt;2479385846528 -->
<g id="edge5" class="edge">
<title>2479385849120&#45;&gt;2479385846528</title>
<path fill="none" stroke="black" d="M725.44,-86.2C770.25,-92.52 876.34,-106 965.88,-106 965.88,-106 965.88,-106 1491,-106 1606.55,-106 1743.21,-93.24 1805.4,-86.73"/>
<polygon fill="black" stroke="black" points="1805.39,-90.25 1814.96,-85.71 1804.65,-83.28 1805.39,-90.25"/>
</g>
<!-- 2479385847488 -->
<g id="node7" class="node">
<title>2479385847488</title>
<polygon fill="none" stroke="black" points="792.75,-78 765.75,-60 792.75,-42 819.75,-60 792.75,-78"/>
<text text-anchor="middle" x="792.75" y="-54.98" font-family="Times New Roman,serif" font-size="12.00">X</text>
</g>
<!-- 2479385849120&#45;&gt;2479385847488 -->
<g id="edge6" class="edge">
<title>2479385849120&#45;&gt;2479385847488</title>
<path fill="none" stroke="black" d="M722.84,-78.01C734.26,-75.03 749.01,-71.17 761.94,-67.79"/>
<polygon fill="black" stroke="black" points="762.44,-71.28 771.23,-65.36 760.67,-64.51 762.44,-71.28"/>
</g>
<!-- 2479386034352 -->
<g id="node14" class="node">
<title>2479386034352</title>
<ellipse fill="orange" stroke="black" cx="1921.25" cy="-83" rx="18" ry="18"/>
</g>
<!-- 2479385846528&#45;&gt;2479386034352 -->
<g id="edge9" class="edge">
<title>2479385846528&#45;&gt;2479386034352</title>
<path fill="none" stroke="black" d="M1868,-83C1875.63,-83 1883.98,-83 1891.72,-83"/>
<polygon fill="black" stroke="black" points="1891.68,-86.5 1901.68,-83 1891.68,-79.5 1891.68,-86.5"/>
</g>
<!-- 2479385848736 -->
<g id="node8" class="node">
<title>2479385848736</title>
<polygon fill="none" stroke="black" points="1141,-78 1114,-60 1141,-42 1168,-60 1141,-78"/>
<text text-anchor="middle" x="1141" y="-54.98" font-family="Times New Roman,serif" font-size="12.00">X</text>
</g>
<!-- 2479385847488&#45;&gt;2479385848736 -->
<g id="edge7" class="edge">
<title>2479385847488&#45;&gt;2479385848736</title>
<path fill="none" stroke="black" d="M820.63,-60C881.76,-60 1031.36,-60 1101.95,-60"/>
<polygon fill="black" stroke="black" points="1101.86,-63.5 1111.86,-60 1101.86,-56.5 1101.86,-63.5"/>
</g>
<!-- 2479385850368 -->
<g id="node9" class="node">
<title>2479385850368</title>
<polygon fill="none" stroke="black" points="1078,-36 855.75,-36 855.75,0 1078,0 1078,-36"/>
<text text-anchor="middle" x="966.88" y="-12.97" font-family="Times New Roman,serif" font-size="12.00">Guide customer in selecting product/service</text>
</g>
<!-- 2479385847488&#45;&gt;2479385850368 -->
<g id="edge8" class="edge">
<title>2479385847488&#45;&gt;2479385850368</title>
<path fill="none" stroke="black" d="M813.16,-55.26C829.63,-51.25 854.48,-45.18 879.38,-39.11"/>
<polygon fill="black" stroke="black" points="880.06,-42.54 888.94,-36.77 878.4,-35.74 880.06,-42.54"/>
</g>
<!-- 2479385849984 -->
<g id="node10" class="node">
<title>2479385849984</title>
<polygon fill="none" stroke="black" points="1286,-78 1204,-78 1204,-42 1286,-42 1286,-78"/>
<text text-anchor="middle" x="1245" y="-54.98" font-family="Times New Roman,serif" font-size="12.00">Provide quote</text>
</g>
<!-- 2479385848736&#45;&gt;2479385849984 -->
<g id="edge11" class="edge">
<title>2479385848736&#45;&gt;2479385849984</title>
<path fill="none" stroke="black" d="M1168.8,-60C1176.02,-60 1184.08,-60 1192.18,-60"/>
<polygon fill="black" stroke="black" points="1192.04,-63.5 1202.04,-60 1192.04,-56.5 1192.04,-63.5"/>
</g>
<!-- 2479385850368&#45;&gt;2479385848736 -->
<g id="edge10" class="edge">
<title>2479385850368&#45;&gt;2479385848736</title>
<path fill="none" stroke="black" d="M1043.62,-36.48C1066.85,-42.15 1091.1,-48.07 1109.47,-52.55"/>
<polygon fill="black" stroke="black" points="1108.6,-55.94 1119.14,-54.91 1110.26,-49.14 1108.6,-55.94"/>
</g>
<!-- 2479385851040 -->
<g id="node11" class="node">
<title>2479385851040</title>
<polygon fill="none" stroke="black" points="1391.25,-78 1322,-78 1322,-42 1391.25,-42 1391.25,-78"/>
<text text-anchor="middle" x="1356.62" y="-54.98" font-family="Times New Roman,serif" font-size="12.00">Place order</text>
</g>
<!-- 2479385849984&#45;&gt;2479385851040 -->
<g id="edge12" class="edge">
<title>2479385849984&#45;&gt;2479385851040</title>
<path fill="none" stroke="black" d="M1286.2,-60C1294,-60 1302.23,-60 1310.18,-60"/>
<polygon fill="black" stroke="black" points="1310.05,-63.5 1320.05,-60 1310.05,-56.5 1310.05,-63.5"/>
</g>
<!-- 2479385851376 -->
<g id="node12" class="node">
<title>2479385851376</title>
<polygon fill="none" stroke="black" points="1552.75,-78 1427.25,-78 1427.25,-42 1552.75,-42 1552.75,-78"/>
<text text-anchor="middle" x="1490" y="-54.98" font-family="Times New Roman,serif" font-size="12.00">Record order in system</text>
</g>
<!-- 2479385851040&#45;&gt;2479385851376 -->
<g id="edge13" class="edge">
<title>2479385851040&#45;&gt;2479385851376</title>
<path fill="none" stroke="black" d="M1391.46,-60C1398.93,-60 1407.13,-60 1415.5,-60"/>
<polygon fill="black" stroke="black" points="1415.46,-63.5 1425.46,-60 1415.46,-56.5 1415.46,-63.5"/>
</g>
<!-- 2479385851712 -->
<g id="node13" class="node">
<title>2479385851712</title>
<polygon fill="none" stroke="black" points="1777.25,-78 1588.75,-78 1588.75,-42 1777.25,-42 1777.25,-78"/>
<text text-anchor="middle" x="1683" y="-54.98" font-family="Times New Roman,serif" font-size="12.00">Send order confirmation to customer</text>
</g>
<!-- 2479385851376&#45;&gt;2479385851712 -->
<g id="edge14" class="edge">
<title>2479385851376&#45;&gt;2479385851712</title>
<path fill="none" stroke="black" d="M1553.01,-60C1560.8,-60 1568.93,-60 1577.15,-60"/>
<polygon fill="black" stroke="black" points="1576.88,-63.5 1586.88,-60 1576.88,-56.5 1576.88,-63.5"/>
</g>
<!-- 2479385851712&#45;&gt;2479385846528 -->
<g id="edge15" class="edge">
<title>2479385851712&#45;&gt;2479385846528</title>
<path fill="none" stroke="black" d="M1777.45,-73.84C1787.69,-75.36 1797.55,-76.82 1806.27,-78.11"/>
<polygon fill="black" stroke="black" points="1805.48,-81.54 1815.88,-79.54 1806.51,-74.61 1805.48,-81.54"/>
</g>
</g>
</svg>
