<?xml version="1.0" encoding="UTF-8" standalone="no"?>
<!DOCTYPE svg PUBLIC "-//W3C//DTD SVG 1.1//EN"
 "http://www.w3.org/Graphics/SVG/1.1/DTD/svg11.dtd">
<!-- Generated by graphviz version 11.0.0 (20240428.1522)
 -->
<!-- Pages: 1 -->
<svg width="1758pt" height="98pt"
 viewBox="0.00 0.00 1758.00 98.00" xmlns="http://www.w3.org/2000/svg" xmlns:xlink="http://www.w3.org/1999/xlink">
<g id="graph0" class="graph" transform="scale(1 1) rotate(0) translate(4 94)">
<polygon fill="white" stroke="none" points="-4,4 -4,-94 1754,-94 1754,4 -4,4"/>
<!-- 2479385392048 -->
<g id="node1" class="node">
<title>2479385392048</title>
<ellipse fill="green" stroke="black" cx="18" cy="-45" rx="18" ry="18"/>
</g>
<!-- 2479385389168 -->
<g id="node2" class="node">
<title>2479385389168</title>
<polygon fill="none" stroke="black" points="208.75,-63 72,-63 72,-27 208.75,-27 208.75,-63"/>
<text text-anchor="middle" x="140.38" y="-39.98" font-family="Times New Roman,serif" font-size="12.00">Receive customer inquiry</text>
</g>
<!-- 2479385392048&#45;&gt;2479385389168 -->
<g id="edge1" class="edge">
<title>2479385392048&#45;&gt;2479385389168</title>
<path fill="none" stroke="black" d="M36.25,-45C43.09,-45 51.47,-45 60.48,-45"/>
<polygon fill="black" stroke="black" points="60.19,-48.5 70.19,-45 60.19,-41.5 60.19,-48.5"/>
</g>
<!-- 2479385388592 -->
<g id="node3" class="node">
<title>2479385388592</title>
<polygon fill="none" stroke="black" points="271.75,-63 244.75,-45 271.75,-27 298.75,-45 271.75,-63"/>
<text text-anchor="middle" x="271.75" y="-39.98" font-family="Times New Roman,serif" font-size="12.00">+</text>
</g>
<!-- 2479385389168&#45;&gt;2479385388592 -->
<g id="edge2" class="edge">
<title>2479385389168&#45;&gt;2479385388592</title>
<path fill="none" stroke="black" d="M209.09,-45C217.1,-45 225.05,-45 232.44,-45"/>
<polygon fill="black" stroke="black" points="232.38,-48.5 242.38,-45 232.38,-41.5 232.38,-48.5"/>
</g>
<!-- 2479385388160 -->
<g id="node4" class="node">
<title>2479385388160</title>
<polygon fill="none" stroke="black" points="540.5,-90 334.75,-90 334.75,-54 540.5,-54 540.5,-90"/>
<text text-anchor="middle" x="437.62" y="-66.97" font-family="Times New Roman,serif" font-size="12.00">Address customer concerns or questions</text>
</g>
<!-- 2479385388592&#45;&gt;2479385388160 -->
<g id="edge4" class="edge">
<title>2479385388592&#45;&gt;2479385388160</title>
<path fill="none" stroke="black" d="M294.17,-48.53C302.37,-49.88 312.4,-51.53 323.3,-53.33"/>
<polygon fill="black" stroke="black" points="322.52,-56.75 332.96,-54.92 323.66,-49.84 322.52,-56.75"/>
</g>
<!-- 2479385388496 -->
<g id="node5" class="node">
<title>2479385388496</title>
<polygon fill="none" stroke="black" points="514.25,-36 361,-36 361,0 514.25,0 514.25,-36"/>
<text text-anchor="middle" x="437.62" y="-12.97" font-family="Times New Roman,serif" font-size="12.00">Collect customer information</text>
</g>
<!-- 2479385388592&#45;&gt;2479385388496 -->
<g id="edge3" class="edge">
<title>2479385388592&#45;&gt;2479385388496</title>
<path fill="none" stroke="black" d="M294.17,-41.47C308.66,-39.08 328.85,-35.76 349.48,-32.36"/>
<polygon fill="black" stroke="black" points="349.83,-35.85 359.13,-30.77 348.69,-28.94 349.83,-35.85"/>
</g>
<!-- 2479385387200 -->
<g id="node6" class="node">
<title>2479385387200</title>
<polygon fill="none" stroke="black" points="603.5,-63 576.5,-45 603.5,-27 630.5,-45 603.5,-63"/>
<text text-anchor="middle" x="603.5" y="-39.98" font-family="Times New Roman,serif" font-size="12.00">+</text>
</g>
<!-- 2479385388160&#45;&gt;2479385387200 -->
<g id="edge5" class="edge">
<title>2479385388160&#45;&gt;2479385387200</title>
<path fill="none" stroke="black" d="M540.55,-55.21C551.02,-53.48 561.02,-51.83 569.83,-50.38"/>
<polygon fill="black" stroke="black" points="570.22,-53.87 579.52,-48.79 569.08,-46.96 570.22,-53.87"/>
</g>
<!-- 2479385388496&#45;&gt;2479385387200 -->
<g id="edge6" class="edge">
<title>2479385388496&#45;&gt;2479385387200</title>
<path fill="none" stroke="black" d="M514.33,-30.47C534.03,-33.72 554.22,-37.05 570.3,-39.69"/>
<polygon fill="black" stroke="black" points="569.29,-43.07 579.72,-41.25 570.42,-36.17 569.29,-43.07"/>
</g>
<!-- 2479385386720 -->
<g id="node7" class="node">
<title>2479385386720</title>
<polygon fill="none" stroke="black" points="693.5,-63 666.5,-45 693.5,-27 720.5,-45 693.5,-63"/>
<text text-anchor="middle" x="693.5" y="-39.98" font-family="Times New Roman,serif" font-size="12.00">X</text>
</g>
<!-- 2479385387200&#45;&gt;2479385386720 -->
<g id="edge7" class="edge">
<title>2479385387200&#45;&gt;2479385386720</title>
<path fill="none" stroke="black" d="M631.38,-45C638.63,-45 646.62,-45 654.35,-45"/>
<polygon fill="black" stroke="black" points="654.27,-48.5 664.27,-45 654.27,-41.5 654.27,-48.5"/>
</g>
<!-- 2479385386480 -->
<g id="node8" class="node">
<title>2479385386480</title>
<polygon fill="none" stroke="black" points="1651,-63 1624,-45 1651,-27 1678,-45 1651,-63"/>
<text text-anchor="middle" x="1651" y="-39.98" font-family="Times New Roman,serif" font-size="12.00">X</text>
</g>
<!-- 2479385386720&#45;&gt;2479385386480 -->
<g id="edge9" class="edge">
<title>2479385386720&#45;&gt;2479385386480</title>
<path fill="none" stroke="black" d="M717.23,-47.46C774.05,-53.39 926.9,-68 1054.75,-68 1054.75,-68 1054.75,-68 1301.75,-68 1417.3,-68 1553.96,-55.24 1616.15,-48.73"/>
<polygon fill="black" stroke="black" points="1616.14,-52.25 1625.71,-47.71 1615.4,-45.28 1616.14,-52.25"/>
</g>
<!-- 2479385387488 -->
<g id="node9" class="node">
<title>2479385387488</title>
<polygon fill="none" stroke="black" points="978.75,-40 756.5,-40 756.5,-4 978.75,-4 978.75,-40"/>
<text text-anchor="middle" x="867.62" y="-16.98" font-family="Times New Roman,serif" font-size="12.00">Guide customer in selecting product/service</text>
</g>
<!-- 2479385386720&#45;&gt;2479385387488 -->
<g id="edge8" class="edge">
<title>2479385386720&#45;&gt;2479385387488</title>
<path fill="none" stroke="black" d="M716.65,-42.04C724.67,-40.97 734.38,-39.67 744.97,-38.26"/>
<polygon fill="black" stroke="black" points="745.34,-41.74 754.79,-36.94 744.41,-34.8 745.34,-41.74"/>
</g>
<!-- 2479385392144 -->
<g id="node14" class="node">
<title>2479385392144</title>
<ellipse fill="orange" stroke="black" cx="1732" cy="-45" rx="18" ry="18"/>
</g>
<!-- 2479385386480&#45;&gt;2479385392144 -->
<g id="edge11" class="edge">
<title>2479385386480&#45;&gt;2479385392144</title>
<path fill="none" stroke="black" d="M1678.75,-45C1686.38,-45 1694.73,-45 1702.47,-45"/>
<polygon fill="black" stroke="black" points="1702.43,-48.5 1712.43,-45 1702.43,-41.5 1702.43,-48.5"/>
</g>
<!-- 2479385389600 -->
<g id="node10" class="node">
<title>2479385389600</title>
<polygon fill="none" stroke="black" points="1096.75,-40 1014.75,-40 1014.75,-4 1096.75,-4 1096.75,-40"/>
<text text-anchor="middle" x="1055.75" y="-16.98" font-family="Times New Roman,serif" font-size="12.00">Provide quote</text>
</g>
<!-- 2479385387488&#45;&gt;2479385389600 -->
<g id="edge10" class="edge">
<title>2479385387488&#45;&gt;2479385389600</title>
<path fill="none" stroke="black" d="M979.05,-22C987.27,-22 995.3,-22 1002.87,-22"/>
<polygon fill="black" stroke="black" points="1002.85,-25.5 1012.85,-22 1002.85,-18.5 1002.85,-25.5"/>
</g>
<!-- 2479385388832 -->
<g id="node11" class="node">
<title>2479385388832</title>
<polygon fill="none" stroke="black" points="1202,-40 1132.75,-40 1132.75,-4 1202,-4 1202,-40"/>
<text text-anchor="middle" x="1167.38" y="-16.98" font-family="Times New Roman,serif" font-size="12.00">Place order</text>
</g>
<!-- 2479385389600&#45;&gt;2479385388832 -->
<g id="edge12" class="edge">
<title>2479385389600&#45;&gt;2479385388832</title>
<path fill="none" stroke="black" d="M1096.95,-22C1104.75,-22 1112.98,-22 1120.93,-22"/>
<polygon fill="black" stroke="black" points="1120.8,-25.5 1130.8,-22 1120.8,-18.5 1120.8,-25.5"/>
</g>
<!-- 2479385387152 -->
<g id="node12" class="node">
<title>2479385387152</title>
<polygon fill="none" stroke="black" points="1363.5,-40 1238,-40 1238,-4 1363.5,-4 1363.5,-40"/>
<text text-anchor="middle" x="1300.75" y="-16.98" font-family="Times New Roman,serif" font-size="12.00">Record order in system</text>
</g>
<!-- 2479385388832&#45;&gt;2479385387152 -->
<g id="edge13" class="edge">
<title>2479385388832&#45;&gt;2479385387152</title>
<path fill="none" stroke="black" d="M1202.21,-22C1209.68,-22 1217.88,-22 1226.25,-22"/>
<polygon fill="black" stroke="black" points="1226.21,-25.5 1236.21,-22 1226.21,-18.5 1226.21,-25.5"/>
</g>
<!-- 2479385387824 -->
<g id="node13" class="node">
<title>2479385387824</title>
<polygon fill="none" stroke="black" points="1588,-40 1399.5,-40 1399.5,-4 1588,-4 1588,-40"/>
<text text-anchor="middle" x="1493.75" y="-16.98" font-family="Times New Roman,serif" font-size="12.00">Send order confirmation to customer</text>
</g>
<!-- 2479385387152&#45;&gt;2479385387824 -->
<g id="edge14" class="edge">
<title>2479385387152&#45;&gt;2479385387824</title>
<path fill="none" stroke="black" d="M1363.76,-22C1371.55,-22 1379.68,-22 1387.9,-22"/>
<polygon fill="black" stroke="black" points="1387.63,-25.5 1397.63,-22 1387.63,-18.5 1387.63,-25.5"/>
</g>
<!-- 2479385387824&#45;&gt;2479385386480 -->
<g id="edge15" class="edge">
<title>2479385387824&#45;&gt;2479385386480</title>
<path fill="none" stroke="black" d="M1588.2,-35.84C1598.44,-37.36 1608.3,-38.82 1617.02,-40.11"/>
<polygon fill="black" stroke="black" points="1616.23,-43.54 1626.63,-41.54 1617.26,-36.61 1616.23,-43.54"/>
</g>
</g>
</svg>
