<?xml version="1.0" encoding="UTF-8" standalone="no"?>
<!DOCTYPE svg PUBLIC "-//W3C//DTD SVG 1.1//EN"
 "http://www.w3.org/Graphics/SVG/1.1/DTD/svg11.dtd">
<!-- Generated by graphviz version 11.0.0 (20240428.1522)
 -->
<!-- Pages: 1 -->
<svg width="1938pt" height="98pt"
 viewBox="0.00 0.00 1938.00 98.00" xmlns="http://www.w3.org/2000/svg" xmlns:xlink="http://www.w3.org/1999/xlink">
<g id="graph0" class="graph" transform="scale(1 1) rotate(0) translate(4 94)">
<polygon fill="white" stroke="none" points="-4,4 -4,-94 1934,-94 1934,4 -4,4"/>
<!-- 2479385474352 -->
<g id="node1" class="node">
<title>2479385474352</title>
<ellipse fill="green" stroke="black" cx="18" cy="-45" rx="18" ry="18"/>
</g>
<!-- 2479385845232 -->
<g id="node2" class="node">
<title>2479385845232</title>
<polygon fill="none" stroke="black" points="99,-63 72,-45 99,-27 126,-45 99,-63"/>
<text text-anchor="middle" x="99" y="-39.98" font-family="Times New Roman,serif" font-size="12.00">X</text>
</g>
<!-- 2479385474352&#45;&gt;2479385845232 -->
<g id="edge1" class="edge">
<title>2479385474352&#45;&gt;2479385845232</title>
<path fill="none" stroke="black" d="M36.14,-45C43.11,-45 51.47,-45 59.75,-45"/>
<polygon fill="black" stroke="black" points="59.75,-48.5 69.75,-45 59.75,-41.5 59.75,-48.5"/>
</g>
<!-- 2479385842640 -->
<g id="node3" class="node">
<title>2479385842640</title>
<polygon fill="none" stroke="black" points="680.25,-63 653.25,-45 680.25,-27 707.25,-45 680.25,-63"/>
<text text-anchor="middle" x="680.25" y="-39.98" font-family="Times New Roman,serif" font-size="12.00">X</text>
</g>
<!-- 2479385845232&#45;&gt;2479385842640 -->
<g id="edge2" class="edge">
<title>2479385845232&#45;&gt;2479385842640</title>
<path fill="none" stroke="black" d="M123.83,-46.9C135.35,-47.72 149.39,-48.59 162,-49 364.23,-55.52 415.02,-55.52 617.25,-49 625.92,-48.72 635.27,-48.22 644,-47.67"/>
<polygon fill="black" stroke="black" points="644.17,-51.17 653.91,-47 643.7,-44.18 644.17,-51.17"/>
</g>
<!-- 2479385383552 -->
<g id="node4" class="node">
<title>2479385383552</title>
<polygon fill="none" stroke="black" points="350.5,-40 162,-40 162,-4 350.5,-4 350.5,-40"/>
<text text-anchor="middle" x="256.25" y="-16.98" font-family="Times New Roman,serif" font-size="12.00">Send order confirmation to customer</text>
</g>
<!-- 2479385845232&#45;&gt;2479385383552 -->
<g id="edge3" class="edge">
<title>2479385845232&#45;&gt;2479385383552</title>
<path fill="none" stroke="black" d="M121.91,-41.75C130.04,-40.55 139.89,-39.09 150.51,-37.52"/>
<polygon fill="black" stroke="black" points="150.95,-40.99 160.33,-36.06 149.92,-34.07 150.95,-40.99"/>
</g>
<!-- 2479385838800 -->
<g id="node5" class="node">
<title>2479385838800</title>
<polygon fill="none" stroke="black" points="770.25,-63 743.25,-45 770.25,-27 797.25,-45 770.25,-63"/>
<text text-anchor="middle" x="770.25" y="-39.98" font-family="Times New Roman,serif" font-size="12.00">X</text>
</g>
<!-- 2479385842640&#45;&gt;2479385838800 -->
<g id="edge4" class="edge">
<title>2479385842640&#45;&gt;2479385838800</title>
<path fill="none" stroke="black" d="M708.13,-45C715.38,-45 723.37,-45 731.1,-45"/>
<polygon fill="black" stroke="black" points="731.02,-48.5 741.02,-45 731.02,-41.5 731.02,-48.5"/>
</g>
<!-- 2479385380432 -->
<g id="node6" class="node">
<title>2479385380432</title>
<polygon fill="none" stroke="black" points="512,-40 386.5,-40 386.5,-4 512,-4 512,-40"/>
<text text-anchor="middle" x="449.25" y="-16.98" font-family="Times New Roman,serif" font-size="12.00">Record order in system</text>
</g>
<!-- 2479385383552&#45;&gt;2479385380432 -->
<g id="edge5" class="edge">
<title>2479385383552&#45;&gt;2479385380432</title>
<path fill="none" stroke="black" d="M350.79,-22C358.86,-22 366.94,-22 374.81,-22"/>
<polygon fill="black" stroke="black" points="374.65,-25.5 384.65,-22 374.65,-18.5 374.65,-25.5"/>
</g>
<!-- 2479385840240 -->
<g id="node7" class="node">
<title>2479385840240</title>
<polygon fill="none" stroke="black" points="1236.5,-63 1209.5,-45 1236.5,-27 1263.5,-45 1236.5,-63"/>
<text text-anchor="middle" x="1236.5" y="-39.98" font-family="Times New Roman,serif" font-size="12.00">X</text>
</g>
<!-- 2479385838800&#45;&gt;2479385840240 -->
<g id="edge6" class="edge">
<title>2479385838800&#45;&gt;2479385840240</title>
<path fill="none" stroke="black" d="M795.08,-46.9C806.6,-47.72 820.64,-48.59 833.25,-49 984.39,-53.87 1022.36,-53.87 1173.5,-49 1182.17,-48.72 1191.52,-48.22 1200.25,-47.67"/>
<polygon fill="black" stroke="black" points="1200.42,-51.17 1210.16,-47 1199.95,-44.18 1200.42,-51.17"/>
</g>
<!-- 2479385840000 -->
<g id="node8" class="node">
<title>2479385840000</title>
<polygon fill="none" stroke="black" points="915.25,-40 833.25,-40 833.25,-4 915.25,-4 915.25,-40"/>
<text text-anchor="middle" x="874.25" y="-16.98" font-family="Times New Roman,serif" font-size="12.00">Provide quote</text>
</g>
<!-- 2479385838800&#45;&gt;2479385840000 -->
<g id="edge7" class="edge">
<title>2479385838800&#45;&gt;2479385840000</title>
<path fill="none" stroke="black" d="M790.92,-40.57C799.86,-38.55 810.9,-36.06 821.97,-33.56"/>
<polygon fill="black" stroke="black" points="822.49,-37.03 831.48,-31.42 820.95,-30.2 822.49,-37.03"/>
</g>
<!-- 2479385384176 -->
<g id="node9" class="node">
<title>2479385384176</title>
<polygon fill="none" stroke="black" points="617.25,-40 548,-40 548,-4 617.25,-4 617.25,-40"/>
<text text-anchor="middle" x="582.62" y="-16.98" font-family="Times New Roman,serif" font-size="12.00">Place order</text>
</g>
<!-- 2479385380432&#45;&gt;2479385384176 -->
<g id="edge8" class="edge">
<title>2479385380432&#45;&gt;2479385384176</title>
<path fill="none" stroke="black" d="M512.47,-22C520.49,-22 528.57,-22 536.25,-22"/>
<polygon fill="black" stroke="black" points="536.01,-25.5 546.01,-22 536.01,-18.5 536.01,-25.5"/>
</g>
<!-- 2479385842400 -->
<g id="node10" class="node">
<title>2479385842400</title>
<polygon fill="none" stroke="black" points="1326.5,-63 1299.5,-45 1326.5,-27 1353.5,-45 1326.5,-63"/>
<text text-anchor="middle" x="1326.5" y="-39.98" font-family="Times New Roman,serif" font-size="12.00">+</text>
</g>
<!-- 2479385840240&#45;&gt;2479385842400 -->
<g id="edge10" class="edge">
<title>2479385840240&#45;&gt;2479385842400</title>
<path fill="none" stroke="black" d="M1264.38,-45C1271.63,-45 1279.62,-45 1287.35,-45"/>
<polygon fill="black" stroke="black" points="1287.27,-48.5 1297.27,-45 1287.27,-41.5 1287.27,-48.5"/>
</g>
<!-- 2479385382832 -->
<g id="node11" class="node">
<title>2479385382832</title>
<polygon fill="none" stroke="black" points="1173.5,-40 951.25,-40 951.25,-4 1173.5,-4 1173.5,-40"/>
<text text-anchor="middle" x="1062.38" y="-16.98" font-family="Times New Roman,serif" font-size="12.00">Guide customer in selecting product/service</text>
</g>
<!-- 2479385840000&#45;&gt;2479385382832 -->
<g id="edge11" class="edge">
<title>2479385840000&#45;&gt;2479385382832</title>
<path fill="none" stroke="black" d="M915.64,-22C923.07,-22 931.17,-22 939.63,-22"/>
<polygon fill="black" stroke="black" points="939.4,-25.5 949.4,-22 939.4,-18.5 939.4,-25.5"/>
</g>
<!-- 2479385384176&#45;&gt;2479385842640 -->
<g id="edge9" class="edge">
<title>2479385384176&#45;&gt;2479385842640</title>
<path fill="none" stroke="black" d="M617.61,-30.17C627.72,-32.61 638.73,-35.25 648.61,-37.63"/>
<polygon fill="black" stroke="black" points="647.56,-40.98 658.1,-39.91 649.2,-34.17 647.56,-40.98"/>
</g>
<!-- 2479385383216 -->
<g id="node12" class="node">
<title>2479385383216</title>
<polygon fill="none" stroke="black" points="1569,-90 1415.75,-90 1415.75,-54 1569,-54 1569,-90"/>
<text text-anchor="middle" x="1492.38" y="-66.97" font-family="Times New Roman,serif" font-size="12.00">Collect customer information</text>
</g>
<!-- 2479385842400&#45;&gt;2479385383216 -->
<g id="edge14" class="edge">
<title>2479385842400&#45;&gt;2479385383216</title>
<path fill="none" stroke="black" d="M1348.92,-48.53C1363.41,-50.92 1383.6,-54.24 1404.23,-57.64"/>
<polygon fill="black" stroke="black" points="1403.44,-61.06 1413.88,-59.23 1404.58,-54.15 1403.44,-61.06"/>
</g>
<!-- 2479385382208 -->
<g id="node13" class="node">
<title>2479385382208</title>
<polygon fill="none" stroke="black" points="1595.25,-36 1389.5,-36 1389.5,0 1595.25,0 1595.25,-36"/>
<text text-anchor="middle" x="1492.38" y="-12.97" font-family="Times New Roman,serif" font-size="12.00">Address customer concerns or questions</text>
</g>
<!-- 2479385842400&#45;&gt;2479385382208 -->
<g id="edge13" class="edge">
<title>2479385842400&#45;&gt;2479385382208</title>
<path fill="none" stroke="black" d="M1348.92,-41.47C1357.12,-40.12 1367.15,-38.47 1378.05,-36.67"/>
<polygon fill="black" stroke="black" points="1378.41,-40.16 1387.71,-35.08 1377.27,-33.25 1378.41,-40.16"/>
</g>
<!-- 2479385382832&#45;&gt;2479385840240 -->
<g id="edge12" class="edge">
<title>2479385382832&#45;&gt;2479385840240</title>
<path fill="none" stroke="black" d="M1173.85,-36.76C1183.9,-38.11 1193.47,-39.38 1201.95,-40.52"/>
<polygon fill="black" stroke="black" points="1201.25,-43.95 1211.63,-41.81 1202.18,-37.02 1201.25,-43.95"/>
</g>
<!-- 2479385388016 -->
<g id="node14" class="node">
<title>2479385388016</title>
<polygon fill="none" stroke="black" points="1658.25,-63 1631.25,-45 1658.25,-27 1685.25,-45 1658.25,-63"/>
<text text-anchor="middle" x="1658.25" y="-39.98" font-family="Times New Roman,serif" font-size="12.00">+</text>
</g>
<!-- 2479385383216&#45;&gt;2479385388016 -->
<g id="edge15" class="edge">
<title>2479385383216&#45;&gt;2479385388016</title>
<path fill="none" stroke="black" d="M1569.08,-59.53C1588.78,-56.28 1608.97,-52.95 1625.05,-50.31"/>
<polygon fill="black" stroke="black" points="1625.17,-53.83 1634.47,-48.75 1624.04,-46.93 1625.17,-53.83"/>
</g>
<!-- 2479385382208&#45;&gt;2479385388016 -->
<g id="edge16" class="edge">
<title>2479385382208&#45;&gt;2479385388016</title>
<path fill="none" stroke="black" d="M1595.3,-34.79C1605.77,-36.52 1615.77,-38.17 1624.58,-39.62"/>
<polygon fill="black" stroke="black" points="1623.83,-43.04 1634.27,-41.21 1624.97,-36.13 1623.83,-43.04"/>
</g>
<!-- 2479385393728 -->
<g id="node15" class="node">
<title>2479385393728</title>
<polygon fill="none" stroke="black" points="1858,-63 1721.25,-63 1721.25,-27 1858,-27 1858,-63"/>
<text text-anchor="middle" x="1789.62" y="-39.98" font-family="Times New Roman,serif" font-size="12.00">Receive customer inquiry</text>
</g>
<!-- 2479385388016&#45;&gt;2479385393728 -->
<g id="edge17" class="edge">
<title>2479385388016&#45;&gt;2479385393728</title>
<path fill="none" stroke="black" d="M1686.06,-45C1693.21,-45 1701.32,-45 1709.76,-45"/>
<polygon fill="black" stroke="black" points="1709.5,-48.5 1719.5,-45 1709.5,-41.5 1709.5,-48.5"/>
</g>
<!-- 2479385472816 -->
<g id="node16" class="node">
<title>2479385472816</title>
<ellipse fill="orange" stroke="black" cx="1912" cy="-45" rx="18" ry="18"/>
</g>
<!-- 2479385393728&#45;&gt;2479385472816 -->
<g id="edge18" class="edge">
<title>2479385393728&#45;&gt;2479385472816</title>
<path fill="none" stroke="black" d="M1858.2,-45C1866.82,-45 1875.23,-45 1882.72,-45"/>
<polygon fill="black" stroke="black" points="1882.45,-48.5 1892.45,-45 1882.45,-41.5 1882.45,-48.5"/>
</g>
</g>
</svg>
