<?xml version="1.0" encoding="UTF-8" standalone="no"?>
<!DOCTYPE svg PUBLIC "-//W3C//DTD SVG 1.1//EN"
 "http://www.w3.org/Graphics/SVG/1.1/DTD/svg11.dtd">
<!-- Generated by graphviz version 11.0.0 (20240428.1522)
 -->
<!-- Pages: 1 -->
<svg width="1758pt" height="98pt"
 viewBox="0.00 0.00 1758.00 98.00" xmlns="http://www.w3.org/2000/svg" xmlns:xlink="http://www.w3.org/1999/xlink">
<g id="graph0" class="graph" transform="scale(1 1) rotate(0) translate(4 94)">
<polygon fill="white" stroke="none" points="-4,4 -4,-94 1754,-94 1754,4 -4,4"/>
<!-- 2479386323776 -->
<g id="node1" class="node">
<title>2479386323776</title>
<ellipse fill="green" stroke="black" cx="18" cy="-45" rx="18" ry="18"/>
</g>
<!-- 2479385392720 -->
<g id="node2" class="node">
<title>2479385392720</title>
<polygon fill="none" stroke="black" points="208.75,-63 72,-63 72,-27 208.75,-27 208.75,-63"/>
<text text-anchor="middle" x="140.38" y="-39.98" font-family="Times New Roman,serif" font-size="12.00">Receive customer inquiry</text>
</g>
<!-- 2479386323776&#45;&gt;2479385392720 -->
<g id="edge1" class="edge">
<title>2479386323776&#45;&gt;2479385392720</title>
<path fill="none" stroke="black" d="M36.25,-45C43.09,-45 51.47,-45 60.48,-45"/>
<polygon fill="black" stroke="black" points="60.19,-48.5 70.19,-45 60.19,-41.5 60.19,-48.5"/>
</g>
<!-- 2479385384848 -->
<g id="node3" class="node">
<title>2479385384848</title>
<polygon fill="none" stroke="black" points="271.75,-63 244.75,-45 271.75,-27 298.75,-45 271.75,-63"/>
<text text-anchor="middle" x="271.75" y="-39.98" font-family="Times New Roman,serif" font-size="12.00">+</text>
</g>
<!-- 2479385392720&#45;&gt;2479385384848 -->
<g id="edge2" class="edge">
<title>2479385392720&#45;&gt;2479385384848</title>
<path fill="none" stroke="black" d="M209.09,-45C217.1,-45 225.05,-45 232.44,-45"/>
<polygon fill="black" stroke="black" points="232.38,-48.5 242.38,-45 232.38,-41.5 232.38,-48.5"/>
</g>
<!-- 2479385380048 -->
<g id="node4" class="node">
<title>2479385380048</title>
<polygon fill="none" stroke="black" points="540.5,-90 334.75,-90 334.75,-54 540.5,-54 540.5,-90"/>
<text text-anchor="middle" x="437.62" y="-66.97" font-family="Times New Roman,serif" font-size="12.00">Address customer concerns or questions</text>
</g>
<!-- 2479385384848&#45;&gt;2479385380048 -->
<g id="edge3" class="edge">
<title>2479385384848&#45;&gt;2479385380048</title>
<path fill="none" stroke="black" d="M294.17,-48.53C302.37,-49.88 312.4,-51.53 323.3,-53.33"/>
<polygon fill="black" stroke="black" points="322.52,-56.75 332.96,-54.92 323.66,-49.84 322.52,-56.75"/>
</g>
<!-- 2479385384656 -->
<g id="node5" class="node">
<title>2479385384656</title>
<polygon fill="none" stroke="black" points="514.25,-36 361,-36 361,0 514.25,0 514.25,-36"/>
<text text-anchor="middle" x="437.62" y="-12.97" font-family="Times New Roman,serif" font-size="12.00">Collect customer information</text>
</g>
<!-- 2479385384848&#45;&gt;2479385384656 -->
<g id="edge4" class="edge">
<title>2479385384848&#45;&gt;2479385384656</title>
<path fill="none" stroke="black" d="M294.17,-41.47C308.66,-39.08 328.85,-35.76 349.48,-32.36"/>
<polygon fill="black" stroke="black" points="349.83,-35.85 359.13,-30.77 348.69,-28.94 349.83,-35.85"/>
</g>
<!-- 2479385388448 -->
<g id="node6" class="node">
<title>2479385388448</title>
<polygon fill="none" stroke="black" points="603.5,-63 576.5,-45 603.5,-27 630.5,-45 603.5,-63"/>
<text text-anchor="middle" x="603.5" y="-39.98" font-family="Times New Roman,serif" font-size="12.00">+</text>
</g>
<!-- 2479385380048&#45;&gt;2479385388448 -->
<g id="edge5" class="edge">
<title>2479385380048&#45;&gt;2479385388448</title>
<path fill="none" stroke="black" d="M540.55,-55.21C551.02,-53.48 561.02,-51.83 569.83,-50.38"/>
<polygon fill="black" stroke="black" points="570.22,-53.87 579.52,-48.79 569.08,-46.96 570.22,-53.87"/>
</g>
<!-- 2479385384656&#45;&gt;2479385388448 -->
<g id="edge6" class="edge">
<title>2479385384656&#45;&gt;2479385388448</title>
<path fill="none" stroke="black" d="M514.33,-30.47C534.03,-33.72 554.22,-37.05 570.3,-39.69"/>
<polygon fill="black" stroke="black" points="569.29,-43.07 579.72,-41.25 570.42,-36.17 569.29,-43.07"/>
</g>
<!-- 2479386314320 -->
<g id="node7" class="node">
<title>2479386314320</title>
<polygon fill="none" stroke="black" points="693.5,-63 666.5,-45 693.5,-27 720.5,-45 693.5,-63"/>
<text text-anchor="middle" x="693.5" y="-39.98" font-family="Times New Roman,serif" font-size="12.00">X</text>
</g>
<!-- 2479385388448&#45;&gt;2479386314320 -->
<g id="edge7" class="edge">
<title>2479385388448&#45;&gt;2479386314320</title>
<path fill="none" stroke="black" d="M631.38,-45C638.63,-45 646.62,-45 654.35,-45"/>
<polygon fill="black" stroke="black" points="654.27,-48.5 664.27,-45 654.27,-41.5 654.27,-48.5"/>
</g>
<!-- 2479386315664 -->
<g id="node8" class="node">
<title>2479386315664</title>
<polygon fill="none" stroke="black" points="1651,-63 1624,-45 1651,-27 1678,-45 1651,-63"/>
<text text-anchor="middle" x="1651" y="-39.98" font-family="Times New Roman,serif" font-size="12.00">X</text>
</g>
<!-- 2479386314320&#45;&gt;2479386315664 -->
<g id="edge9" class="edge">
<title>2479386314320&#45;&gt;2479386315664</title>
<path fill="none" stroke="black" d="M716.66,-47.96C765.14,-54.17 884.33,-68 984.62,-68 984.62,-68 984.62,-68 1329.88,-68 1434.65,-68 1558.23,-55.59 1616.45,-49"/>
<polygon fill="black" stroke="black" points="1616.49,-52.52 1626.03,-47.9 1615.69,-45.57 1616.49,-52.52"/>
</g>
<!-- 2479385393392 -->
<g id="node9" class="node">
<title>2479385393392</title>
<polygon fill="none" stroke="black" points="838.5,-40 756.5,-40 756.5,-4 838.5,-4 838.5,-40"/>
<text text-anchor="middle" x="797.5" y="-16.98" font-family="Times New Roman,serif" font-size="12.00">Provide quote</text>
</g>
<!-- 2479386314320&#45;&gt;2479385393392 -->
<g id="edge8" class="edge">
<title>2479386314320&#45;&gt;2479385393392</title>
<path fill="none" stroke="black" d="M714.17,-40.57C723.11,-38.55 734.15,-36.06 745.22,-33.56"/>
<polygon fill="black" stroke="black" points="745.74,-37.03 754.73,-31.42 744.2,-30.2 745.74,-37.03"/>
</g>
<!-- 2479386328192 -->
<g id="node14" class="node">
<title>2479386328192</title>
<ellipse fill="orange" stroke="black" cx="1732" cy="-45" rx="18" ry="18"/>
</g>
<!-- 2479386315664&#45;&gt;2479386328192 -->
<g id="edge11" class="edge">
<title>2479386315664&#45;&gt;2479386328192</title>
<path fill="none" stroke="black" d="M1678.75,-45C1686.38,-45 1694.73,-45 1702.47,-45"/>
<polygon fill="black" stroke="black" points="1702.43,-48.5 1712.43,-45 1702.43,-41.5 1702.43,-48.5"/>
</g>
<!-- 2479385383360 -->
<g id="node10" class="node">
<title>2479385383360</title>
<polygon fill="none" stroke="black" points="1096.75,-40 874.5,-40 874.5,-4 1096.75,-4 1096.75,-40"/>
<text text-anchor="middle" x="985.62" y="-16.98" font-family="Times New Roman,serif" font-size="12.00">Guide customer in selecting product/service</text>
</g>
<!-- 2479385393392&#45;&gt;2479385383360 -->
<g id="edge10" class="edge">
<title>2479385393392&#45;&gt;2479385383360</title>
<path fill="none" stroke="black" d="M838.89,-22C846.32,-22 854.42,-22 862.88,-22"/>
<polygon fill="black" stroke="black" points="862.65,-25.5 872.65,-22 862.65,-18.5 862.65,-25.5"/>
</g>
<!-- 2479385379040 -->
<g id="node11" class="node">
<title>2479385379040</title>
<polygon fill="none" stroke="black" points="1258.25,-40 1132.75,-40 1132.75,-4 1258.25,-4 1258.25,-40"/>
<text text-anchor="middle" x="1195.5" y="-16.98" font-family="Times New Roman,serif" font-size="12.00">Record order in system</text>
</g>
<!-- 2479385383360&#45;&gt;2479385379040 -->
<g id="edge12" class="edge">
<title>2479385383360&#45;&gt;2479385379040</title>
<path fill="none" stroke="black" d="M1096.95,-22C1105.11,-22 1113.22,-22 1121.08,-22"/>
<polygon fill="black" stroke="black" points="1120.86,-25.5 1130.86,-22 1120.86,-18.5 1120.86,-25.5"/>
</g>
<!-- 2479387870176 -->
<g id="node12" class="node">
<title>2479387870176</title>
<polygon fill="none" stroke="black" points="1363.5,-40 1294.25,-40 1294.25,-4 1363.5,-4 1363.5,-40"/>
<text text-anchor="middle" x="1328.88" y="-16.98" font-family="Times New Roman,serif" font-size="12.00">Place order</text>
</g>
<!-- 2479385379040&#45;&gt;2479387870176 -->
<g id="edge13" class="edge">
<title>2479385379040&#45;&gt;2479387870176</title>
<path fill="none" stroke="black" d="M1258.72,-22C1266.74,-22 1274.82,-22 1282.5,-22"/>
<polygon fill="black" stroke="black" points="1282.26,-25.5 1292.26,-22 1282.26,-18.5 1282.26,-25.5"/>
</g>
<!-- 2479387876944 -->
<g id="node13" class="node">
<title>2479387876944</title>
<polygon fill="none" stroke="black" points="1588,-40 1399.5,-40 1399.5,-4 1588,-4 1588,-40"/>
<text text-anchor="middle" x="1493.75" y="-16.98" font-family="Times New Roman,serif" font-size="12.00">Send order confirmation to customer</text>
</g>
<!-- 2479387870176&#45;&gt;2479387876944 -->
<g id="edge14" class="edge">
<title>2479387870176&#45;&gt;2479387876944</title>
<path fill="none" stroke="black" d="M1363.62,-22C1371.01,-22 1379.2,-22 1387.78,-22"/>
<polygon fill="black" stroke="black" points="1387.72,-25.5 1397.72,-22 1387.72,-18.5 1387.72,-25.5"/>
</g>
<!-- 2479387876944&#45;&gt;2479386315664 -->
<g id="edge15" class="edge">
<title>2479387876944&#45;&gt;2479386315664</title>
<path fill="none" stroke="black" d="M1588.2,-35.84C1598.44,-37.36 1608.3,-38.82 1617.02,-40.11"/>
<polygon fill="black" stroke="black" points="1616.23,-43.54 1626.63,-41.54 1617.26,-36.61 1616.23,-43.54"/>
</g>
</g>
</svg>
