<?xml version="1.0" encoding="UTF-8" standalone="no"?>
<!DOCTYPE svg PUBLIC "-//W3C//DTD SVG 1.1//EN"
 "http://www.w3.org/Graphics/SVG/1.1/DTD/svg11.dtd">
<!-- Generated by graphviz version 11.0.0 (20240428.1522)
 -->
<!-- Pages: 1 -->
<svg width="2022pt" height="136pt"
 viewBox="0.00 0.00 2022.00 136.00" xmlns="http://www.w3.org/2000/svg" xmlns:xlink="http://www.w3.org/1999/xlink">
<g id="graph0" class="graph" transform="scale(1 1) rotate(0) translate(4 132)">
<polygon fill="white" stroke="none" points="-4,4 -4,-132 2018,-132 2018,4 -4,4"/>
<!-- 2479388734768 -->
<g id="node1" class="node">
<title>2479388734768</title>
<ellipse fill="green" stroke="black" cx="18" cy="-83" rx="18" ry="18"/>
</g>
<!-- 2479388730016 -->
<g id="node2" class="node">
<title>2479388730016</title>
<polygon fill="none" stroke="black" points="225.25,-101 72,-101 72,-65 225.25,-65 225.25,-101"/>
<text text-anchor="middle" x="148.62" y="-77.97" font-family="Times New Roman,serif" font-size="12.00">Collect customer information</text>
</g>
<!-- 2479388734768&#45;&gt;2479388730016 -->
<g id="edge1" class="edge">
<title>2479388734768&#45;&gt;2479388730016</title>
<path fill="none" stroke="black" d="M36.35,-83C43.12,-83 51.43,-83 60.42,-83"/>
<polygon fill="black" stroke="black" points="60.16,-86.5 70.16,-83 60.16,-79.5 60.16,-86.5"/>
</g>
<!-- 2479388729440 -->
<g id="node3" class="node">
<title>2479388729440</title>
<polygon fill="none" stroke="black" points="288.25,-101 261.25,-83 288.25,-65 315.25,-83 288.25,-101"/>
<text text-anchor="middle" x="288.25" y="-77.97" font-family="Times New Roman,serif" font-size="12.00">+</text>
</g>
<!-- 2479388730016&#45;&gt;2479388729440 -->
<g id="edge2" class="edge">
<title>2479388730016&#45;&gt;2479388729440</title>
<path fill="none" stroke="black" d="M225.68,-83C233.75,-83 241.67,-83 249.02,-83"/>
<polygon fill="black" stroke="black" points="248.86,-86.5 258.86,-83 248.86,-79.5 248.86,-86.5"/>
</g>
<!-- 2479388729344 -->
<g id="node4" class="node">
<title>2479388729344</title>
<polygon fill="none" stroke="black" points="488,-128 351.25,-128 351.25,-92 488,-92 488,-128"/>
<text text-anchor="middle" x="419.62" y="-104.97" font-family="Times New Roman,serif" font-size="12.00">Receive customer inquiry</text>
</g>
<!-- 2479388729440&#45;&gt;2479388729344 -->
<g id="edge3" class="edge">
<title>2479388729440&#45;&gt;2479388729344</title>
<path fill="none" stroke="black" d="M309.46,-87.22C317.99,-89 328.52,-91.2 339.64,-93.52"/>
<polygon fill="black" stroke="black" points="338.92,-96.94 349.42,-95.56 340.35,-90.09 338.92,-96.94"/>
</g>
<!-- 2479388729680 -->
<g id="node5" class="node">
<title>2479388729680</title>
<polygon fill="none" stroke="black" points="454.25,-74 385,-74 385,-38 454.25,-38 454.25,-74"/>
<text text-anchor="middle" x="419.62" y="-50.98" font-family="Times New Roman,serif" font-size="12.00">Place order</text>
</g>
<!-- 2479388729440&#45;&gt;2479388729680 -->
<g id="edge4" class="edge">
<title>2479388729440&#45;&gt;2479388729680</title>
<path fill="none" stroke="black" d="M309.46,-78.78C326.59,-75.21 351.78,-69.95 373.65,-65.39"/>
<polygon fill="black" stroke="black" points="374.16,-68.85 383.24,-63.39 372.73,-62 374.16,-68.85"/>
</g>
<!-- 2479388731120 -->
<g id="node6" class="node">
<title>2479388731120</title>
<polygon fill="none" stroke="black" points="551,-101 524,-83 551,-65 578,-83 551,-101"/>
<text text-anchor="middle" x="551" y="-77.97" font-family="Times New Roman,serif" font-size="12.00">+</text>
</g>
<!-- 2479388729344&#45;&gt;2479388731120 -->
<g id="edge5" class="edge">
<title>2479388729344&#45;&gt;2479388731120</title>
<path fill="none" stroke="black" d="M488.34,-95.87C498.8,-93.68 509.15,-91.52 518.3,-89.62"/>
<polygon fill="black" stroke="black" points="518.99,-93.05 528.06,-87.58 517.56,-86.19 518.99,-93.05"/>
</g>
<!-- 2479388729680&#45;&gt;2479388731120 -->
<g id="edge6" class="edge">
<title>2479388729680&#45;&gt;2479388731120</title>
<path fill="none" stroke="black" d="M454.62,-63.09C474.33,-67.21 499,-72.36 518.31,-76.39"/>
<polygon fill="black" stroke="black" points="517.56,-79.81 528.07,-78.42 518.99,-72.95 517.56,-79.81"/>
</g>
<!-- 2479388729152 -->
<g id="node7" class="node">
<title>2479388729152</title>
<polygon fill="none" stroke="black" points="641,-101 614,-83 641,-65 668,-83 641,-101"/>
<text text-anchor="middle" x="641" y="-77.97" font-family="Times New Roman,serif" font-size="12.00">X</text>
</g>
<!-- 2479388731120&#45;&gt;2479388729152 -->
<g id="edge7" class="edge">
<title>2479388731120&#45;&gt;2479388729152</title>
<path fill="none" stroke="black" d="M578.88,-83C586.13,-83 594.12,-83 601.85,-83"/>
<polygon fill="black" stroke="black" points="601.77,-86.5 611.77,-83 601.77,-79.5 601.77,-86.5"/>
</g>
<!-- 2479388727856 -->
<g id="node8" class="node">
<title>2479388727856</title>
<polygon fill="none" stroke="black" points="1915,-101 1888,-83 1915,-65 1942,-83 1915,-101"/>
<text text-anchor="middle" x="1915" y="-77.97" font-family="Times New Roman,serif" font-size="12.00">X</text>
</g>
<!-- 2479388729152&#45;&gt;2479388727856 -->
<g id="edge8" class="edge">
<title>2479388729152&#45;&gt;2479388727856</title>
<path fill="none" stroke="black" d="M665.17,-85.33C725.35,-91.18 891.57,-106 1030.38,-106 1030.38,-106 1030.38,-106 1700.25,-106 1764.93,-106 1840,-95.46 1881.74,-88.65"/>
<polygon fill="black" stroke="black" points="1882.06,-92.14 1891.35,-87.05 1880.91,-85.24 1882.06,-92.14"/>
</g>
<!-- 2479388731600 -->
<g id="node9" class="node">
<title>2479388731600</title>
<polygon fill="none" stroke="black" points="892.5,-78 704,-78 704,-42 892.5,-42 892.5,-78"/>
<text text-anchor="middle" x="798.25" y="-54.98" font-family="Times New Roman,serif" font-size="12.00">Send order confirmation to customer</text>
</g>
<!-- 2479388729152&#45;&gt;2479388731600 -->
<g id="edge9" class="edge">
<title>2479388729152&#45;&gt;2479388731600</title>
<path fill="none" stroke="black" d="M663.91,-79.75C672.04,-78.55 681.89,-77.09 692.51,-75.52"/>
<polygon fill="black" stroke="black" points="692.95,-78.99 702.33,-74.06 691.92,-72.07 692.95,-78.99"/>
</g>
<!-- 2479388734864 -->
<g id="node16" class="node">
<title>2479388734864</title>
<ellipse fill="orange" stroke="black" cx="1996" cy="-83" rx="18" ry="18"/>
</g>
<!-- 2479388727856&#45;&gt;2479388734864 -->
<g id="edge11" class="edge">
<title>2479388727856&#45;&gt;2479388734864</title>
<path fill="none" stroke="black" d="M1942.75,-83C1950.38,-83 1958.73,-83 1966.47,-83"/>
<polygon fill="black" stroke="black" points="1966.43,-86.5 1976.43,-83 1966.43,-79.5 1966.43,-86.5"/>
</g>
<!-- 2479388731936 -->
<g id="node10" class="node">
<title>2479388731936</title>
<polygon fill="none" stroke="black" points="1134.25,-78 928.5,-78 928.5,-42 1134.25,-42 1134.25,-78"/>
<text text-anchor="middle" x="1031.38" y="-54.98" font-family="Times New Roman,serif" font-size="12.00">Address customer concerns or questions</text>
</g>
<!-- 2479388731600&#45;&gt;2479388731936 -->
<g id="edge10" class="edge">
<title>2479388731600&#45;&gt;2479388731936</title>
<path fill="none" stroke="black" d="M892.92,-60C900.83,-60 908.89,-60 916.92,-60"/>
<polygon fill="black" stroke="black" points="916.75,-63.5 926.75,-60 916.75,-56.5 916.75,-63.5"/>
</g>
<!-- 2479388723008 -->
<g id="node11" class="node">
<title>2479388723008</title>
<polygon fill="none" stroke="black" points="1197.25,-78 1170.25,-60 1197.25,-42 1224.25,-60 1197.25,-78"/>
<text text-anchor="middle" x="1197.25" y="-54.98" font-family="Times New Roman,serif" font-size="12.00">X</text>
</g>
<!-- 2479388731936&#45;&gt;2479388723008 -->
<g id="edge12" class="edge">
<title>2479388731936&#45;&gt;2479388723008</title>
<path fill="none" stroke="black" d="M1134.3,-60C1142.65,-60 1150.71,-60 1158.1,-60"/>
<polygon fill="black" stroke="black" points="1157.95,-63.5 1167.95,-60 1157.95,-56.5 1157.95,-63.5"/>
</g>
<!-- 2479388728912 -->
<g id="node12" class="node">
<title>2479388728912</title>
<polygon fill="none" stroke="black" points="1825,-78 1798,-60 1825,-42 1852,-60 1825,-78"/>
<text text-anchor="middle" x="1825" y="-54.98" font-family="Times New Roman,serif" font-size="12.00">X</text>
</g>
<!-- 2479388723008&#45;&gt;2479388728912 -->
<g id="edge14" class="edge">
<title>2479388723008&#45;&gt;2479388728912</title>
<path fill="none" stroke="black" d="M1225.14,-60C1324.32,-60 1669.92,-60 1785.79,-60"/>
<polygon fill="black" stroke="black" points="1785.7,-63.5 1795.7,-60 1785.7,-56.5 1785.7,-63.5"/>
</g>
<!-- 2479388730400 -->
<g id="node13" class="node">
<title>2479388730400</title>
<polygon fill="none" stroke="black" points="1342.25,-36 1260.25,-36 1260.25,0 1342.25,0 1342.25,-36"/>
<text text-anchor="middle" x="1301.25" y="-12.97" font-family="Times New Roman,serif" font-size="12.00">Provide quote</text>
</g>
<!-- 2479388723008&#45;&gt;2479388730400 -->
<g id="edge13" class="edge">
<title>2479388723008&#45;&gt;2479388730400</title>
<path fill="none" stroke="black" d="M1214.64,-53.25C1224.23,-49.3 1236.91,-44.08 1249.57,-38.87"/>
<polygon fill="black" stroke="black" points="1250.81,-42.14 1258.73,-35.1 1248.15,-35.67 1250.81,-42.14"/>
</g>
<!-- 2479388728912&#45;&gt;2479388727856 -->
<g id="edge15" class="edge">
<title>2479388728912&#45;&gt;2479388727856</title>
<path fill="none" stroke="black" d="M1845.09,-64.99C1856.51,-67.97 1871.26,-71.83 1884.19,-75.21"/>
<polygon fill="black" stroke="black" points="1882.92,-78.49 1893.48,-77.64 1884.69,-71.72 1882.92,-78.49"/>
</g>
<!-- 2479388730784 -->
<g id="node14" class="node">
<title>2479388730784</title>
<polygon fill="none" stroke="black" points="1600.5,-36 1378.25,-36 1378.25,0 1600.5,0 1600.5,-36"/>
<text text-anchor="middle" x="1489.38" y="-12.97" font-family="Times New Roman,serif" font-size="12.00">Guide customer in selecting product/service</text>
</g>
<!-- 2479388730400&#45;&gt;2479388730784 -->
<g id="edge16" class="edge">
<title>2479388730400&#45;&gt;2479388730784</title>
<path fill="none" stroke="black" d="M1342.64,-18C1350.07,-18 1358.17,-18 1366.63,-18"/>
<polygon fill="black" stroke="black" points="1366.4,-21.5 1376.4,-18 1366.4,-14.5 1366.4,-21.5"/>
</g>
<!-- 2479388731264 -->
<g id="node15" class="node">
<title>2479388731264</title>
<polygon fill="none" stroke="black" points="1762,-36 1636.5,-36 1636.5,0 1762,0 1762,-36"/>
<text text-anchor="middle" x="1699.25" y="-12.97" font-family="Times New Roman,serif" font-size="12.00">Record order in system</text>
</g>
<!-- 2479388730784&#45;&gt;2479388731264 -->
<g id="edge17" class="edge">
<title>2479388730784&#45;&gt;2479388731264</title>
<path fill="none" stroke="black" d="M1600.7,-18C1608.86,-18 1616.97,-18 1624.83,-18"/>
<polygon fill="black" stroke="black" points="1624.61,-21.5 1634.61,-18 1624.61,-14.5 1624.61,-21.5"/>
</g>
<!-- 2479388731264&#45;&gt;2479388728912 -->
<g id="edge18" class="edge">
<title>2479388731264&#45;&gt;2479388728912</title>
<path fill="none" stroke="black" d="M1754.53,-36.42C1768.6,-41.2 1783.21,-46.16 1795.38,-50.29"/>
<polygon fill="black" stroke="black" points="1794.17,-53.57 1804.77,-53.47 1796.42,-46.94 1794.17,-53.57"/>
</g>
</g>
</svg>
