<?xml version="1.0" encoding="UTF-8" standalone="no"?>
<!DOCTYPE svg PUBLIC "-//W3C//DTD SVG 1.1//EN"
 "http://www.w3.org/Graphics/SVG/1.1/DTD/svg11.dtd">
<!-- Generated by graphviz version 2.50.0 (0)
 -->
<!-- Pages: 1 -->
<svg width="1757pt" height="206pt"
 viewBox="0.00 0.00 1757.00 206.00" xmlns="http://www.w3.org/2000/svg" xmlns:xlink="http://www.w3.org/1999/xlink">
<g id="graph0" class="graph" transform="scale(1 1) rotate(0) translate(4 202)">
<polygon fill="white" stroke="transparent" points="-4,4 -4,-202 1753,-202 1753,4 -4,4"/>
<!-- 6212486800 -->
<g id="node1" class="node">
<title>6212486800</title>
<ellipse fill="green" stroke="black" cx="18" cy="-99" rx="18" ry="18"/>
</g>
<!-- 6206594512 -->
<g id="node2" class="node">
<title>6206594512</title>
<polygon fill="none" stroke="black" points="156,-117 72,-117 72,-81 156,-81 156,-117"/>
<text text-anchor="middle" x="114" y="-95.9" font-family="Times,serif" font-size="12.00">File complaint</text>
</g>
<!-- 6212486800&#45;&gt;6206594512 -->
<g id="edge1" class="edge">
<title>6212486800&#45;&gt;6206594512</title>
<path fill="none" stroke="black" d="M36.24,-99C43.48,-99 52.32,-99 61.39,-99"/>
<polygon fill="black" stroke="black" points="61.66,-102.5 71.66,-99 61.66,-95.5 61.66,-102.5"/>
</g>
<!-- 6212069904 -->
<g id="node3" class="node">
<title>6212069904</title>
<polygon fill="none" stroke="black" points="278,-117 192,-117 192,-81 278,-81 278,-117"/>
<text text-anchor="middle" x="235" y="-95.9" font-family="Times,serif" font-size="12.00">Log complaint</text>
</g>
<!-- 6206594512&#45;&gt;6212069904 -->
<g id="edge2" class="edge">
<title>6206594512&#45;&gt;6212069904</title>
<path fill="none" stroke="black" d="M156.29,-99C164.5,-99 173.22,-99 181.74,-99"/>
<polygon fill="black" stroke="black" points="181.98,-102.5 191.98,-99 181.98,-95.5 181.98,-102.5"/>
</g>
<!-- 6210448016 -->
<g id="node4" class="node">
<title>6210448016</title>
<polygon fill="none" stroke="black" points="521,-117 314,-117 314,-81 521,-81 521,-117"/>
<text text-anchor="middle" x="417.5" y="-95.9" font-family="Times,serif" font-size="12.00">Assign complaint to relevant department</text>
</g>
<!-- 6212069904&#45;&gt;6210448016 -->
<g id="edge3" class="edge">
<title>6212069904&#45;&gt;6210448016</title>
<path fill="none" stroke="black" d="M278.32,-99C286.19,-99 294.75,-99 303.62,-99"/>
<polygon fill="black" stroke="black" points="303.75,-102.5 313.75,-99 303.75,-95.5 303.75,-102.5"/>
</g>
<!-- 6212918992 -->
<g id="node5" class="node">
<title>6212918992</title>
<polygon fill="none" stroke="black" points="693,-117 557,-117 557,-81 693,-81 693,-117"/>
<text text-anchor="middle" x="625" y="-95.9" font-family="Times,serif" font-size="12.00">Review complaint details</text>
</g>
<!-- 6210448016&#45;&gt;6212918992 -->
<g id="edge4" class="edge">
<title>6210448016&#45;&gt;6212918992</title>
<path fill="none" stroke="black" d="M521.25,-99C529.88,-99 538.51,-99 546.9,-99"/>
<polygon fill="black" stroke="black" points="547,-102.5 557,-99 547,-95.5 547,-102.5"/>
</g>
<!-- 6212490512 -->
<g id="node6" class="node">
<title>6212490512</title>
<polygon fill="none" stroke="black" points="756,-117 729,-99 756,-81 783,-99 756,-117"/>
<text text-anchor="middle" x="756" y="-95.9" font-family="Times,serif" font-size="12.00">X</text>
</g>
<!-- 6212918992&#45;&gt;6212490512 -->
<g id="edge5" class="edge">
<title>6212918992&#45;&gt;6212490512</title>
<path fill="none" stroke="black" d="M693.14,-99C702,-99 710.79,-99 718.84,-99"/>
<polygon fill="black" stroke="black" points="718.94,-102.5 728.94,-99 718.94,-95.5 718.94,-102.5"/>
</g>
<!-- 6213307216 -->
<g id="node7" class="node">
<title>6213307216</title>
<polygon fill="none" stroke="black" points="955,-198 819,-198 819,-162 955,-162 955,-198"/>
<text text-anchor="middle" x="887" y="-176.9" font-family="Times,serif" font-size="12.00">Review complaint details</text>
</g>
<!-- 6212490512&#45;&gt;6213307216 -->
<g id="edge7" class="edge">
<title>6212490512&#45;&gt;6213307216</title>
<path fill="none" stroke="black" d="M767.11,-109.74C778.73,-121.59 798.8,-140.62 819,-153 821.46,-154.51 824.01,-155.96 826.63,-157.35"/>
<polygon fill="black" stroke="black" points="825.19,-160.55 835.7,-161.89 828.32,-154.29 825.19,-160.55"/>
</g>
<!-- 6211300560 -->
<g id="node8" class="node">
<title>6211300560</title>
<polygon fill="none" stroke="black" points="955,-144 819,-144 819,-108 955,-108 955,-144"/>
<text text-anchor="middle" x="887" y="-122.9" font-family="Times,serif" font-size="12.00">Review complaint details</text>
</g>
<!-- 6212490512&#45;&gt;6211300560 -->
<g id="edge6" class="edge">
<title>6212490512&#45;&gt;6211300560</title>
<path fill="none" stroke="black" d="M776.87,-103.16C785.82,-105.03 797.01,-107.37 808.79,-109.84"/>
<polygon fill="black" stroke="black" points="808.28,-113.31 818.79,-111.93 809.71,-106.46 808.28,-113.31"/>
</g>
<!-- 6220632144 -->
<g id="node9" class="node">
<title>6220632144</title>
<polygon fill="none" stroke="black" points="955,-90 819,-90 819,-54 955,-54 955,-90"/>
<text text-anchor="middle" x="887" y="-68.9" font-family="Times,serif" font-size="12.00">Review complaint details</text>
</g>
<!-- 6212490512&#45;&gt;6220632144 -->
<g id="edge8" class="edge">
<title>6212490512&#45;&gt;6220632144</title>
<path fill="none" stroke="black" d="M776.87,-94.84C785.82,-92.97 797.01,-90.63 808.79,-88.16"/>
<polygon fill="black" stroke="black" points="809.71,-91.54 818.79,-86.07 808.28,-84.69 809.71,-91.54"/>
</g>
<!-- 6210446544 -->
<g id="node10" class="node">
<title>6210446544</title>
<polygon fill="none" stroke="black" points="955,-36 819,-36 819,0 955,0 955,-36"/>
<text text-anchor="middle" x="887" y="-14.9" font-family="Times,serif" font-size="12.00">Review complaint details</text>
</g>
<!-- 6212490512&#45;&gt;6210446544 -->
<g id="edge9" class="edge">
<title>6212490512&#45;&gt;6210446544</title>
<path fill="none" stroke="black" d="M767.11,-88.26C778.73,-76.41 798.8,-57.38 819,-45 821.46,-43.49 824.01,-42.04 826.63,-40.65"/>
<polygon fill="black" stroke="black" points="828.32,-43.71 835.7,-36.11 825.19,-37.45 828.32,-43.71"/>
</g>
<!-- 6206718928 -->
<g id="node11" class="node">
<title>6206718928</title>
<polygon fill="none" stroke="black" points="1140,-198 997,-198 997,-162 1140,-162 1140,-198"/>
<text text-anchor="middle" x="1068.5" y="-176.9" font-family="Times,serif" font-size="12.00">Reject and notify customer</text>
</g>
<!-- 6213307216&#45;&gt;6206718928 -->
<g id="edge10" class="edge">
<title>6213307216&#45;&gt;6206718928</title>
<path fill="none" stroke="black" d="M955.09,-180C965.43,-180 976.2,-180 986.8,-180"/>
<polygon fill="black" stroke="black" points="986.89,-183.5 996.89,-180 986.89,-176.5 986.89,-183.5"/>
</g>
<!-- 6210438864 -->
<g id="node14" class="node">
<title>6210438864</title>
<polygon fill="none" stroke="black" points="1140,-144 997,-144 997,-108 1140,-108 1140,-144"/>
<text text-anchor="middle" x="1068.5" y="-122.9" font-family="Times,serif" font-size="12.00">Reject and notify customer</text>
</g>
<!-- 6211300560&#45;&gt;6210438864 -->
<g id="edge11" class="edge">
<title>6211300560&#45;&gt;6210438864</title>
<path fill="none" stroke="black" d="M955.09,-126C965.43,-126 976.2,-126 986.8,-126"/>
<polygon fill="black" stroke="black" points="986.89,-129.5 996.89,-126 986.89,-122.5 986.89,-129.5"/>
</g>
<!-- 6209923664 -->
<g id="node13" class="node">
<title>6209923664</title>
<polygon fill="none" stroke="black" points="1146,-90 991,-90 991,-54 1146,-54 1146,-90"/>
<text text-anchor="middle" x="1068.5" y="-68.9" font-family="Times,serif" font-size="12.00">Approve and notify customer</text>
</g>
<!-- 6220632144&#45;&gt;6209923664 -->
<g id="edge12" class="edge">
<title>6220632144&#45;&gt;6209923664</title>
<path fill="none" stroke="black" d="M955.09,-72C963.47,-72 972.12,-72 980.74,-72"/>
<polygon fill="black" stroke="black" points="980.82,-75.5 990.82,-72 980.82,-68.5 980.82,-75.5"/>
</g>
<!-- 6211295248 -->
<g id="node12" class="node">
<title>6211295248</title>
<polygon fill="none" stroke="black" points="1146,-36 991,-36 991,0 1146,0 1146,-36"/>
<text text-anchor="middle" x="1068.5" y="-14.9" font-family="Times,serif" font-size="12.00">Approve and notify customer</text>
</g>
<!-- 6210446544&#45;&gt;6211295248 -->
<g id="edge13" class="edge">
<title>6210446544&#45;&gt;6211295248</title>
<path fill="none" stroke="black" d="M955.09,-18C963.47,-18 972.12,-18 980.74,-18"/>
<polygon fill="black" stroke="black" points="980.82,-21.5 990.82,-18 980.82,-14.5 980.82,-21.5"/>
</g>
<!-- 6211302224 -->
<g id="node16" class="node">
<title>6211302224</title>
<polygon fill="none" stroke="black" points="1296.5,-198 1192.5,-198 1192.5,-162 1296.5,-162 1296.5,-198"/>
<text text-anchor="middle" x="1244.5" y="-176.9" font-family="Times,serif" font-size="12.00">Resolve complaint</text>
</g>
<!-- 6206718928&#45;&gt;6211302224 -->
<g id="edge14" class="edge">
<title>6206718928&#45;&gt;6211302224</title>
<path fill="none" stroke="black" d="M1140.02,-180C1153.98,-180 1168.53,-180 1182.16,-180"/>
<polygon fill="black" stroke="black" points="1182.38,-183.5 1192.38,-180 1182.38,-176.5 1182.38,-183.5"/>
</g>
<!-- 6212907984 -->
<g id="node15" class="node">
<title>6212907984</title>
<polygon fill="none" stroke="black" points="1307,-36 1182,-36 1182,0 1307,0 1307,-36"/>
<text text-anchor="middle" x="1244.5" y="-14.9" font-family="Times,serif" font-size="12.00">Process reimbursement</text>
</g>
<!-- 6211295248&#45;&gt;6212907984 -->
<g id="edge15" class="edge">
<title>6211295248&#45;&gt;6212907984</title>
<path fill="none" stroke="black" d="M1146.07,-18C1154.56,-18 1163.19,-18 1171.62,-18"/>
<polygon fill="black" stroke="black" points="1171.78,-21.5 1181.78,-18 1171.78,-14.5 1171.78,-21.5"/>
</g>
<!-- 6213216464 -->
<g id="node17" class="node">
<title>6213216464</title>
<polygon fill="none" stroke="black" points="1307,-90 1182,-90 1182,-54 1307,-54 1307,-90"/>
<text text-anchor="middle" x="1244.5" y="-68.9" font-family="Times,serif" font-size="12.00">Process reimbursement</text>
</g>
<!-- 6209923664&#45;&gt;6213216464 -->
<g id="edge16" class="edge">
<title>6209923664&#45;&gt;6213216464</title>
<path fill="none" stroke="black" d="M1146.07,-72C1154.56,-72 1163.19,-72 1171.62,-72"/>
<polygon fill="black" stroke="black" points="1171.78,-75.5 1181.78,-72 1171.78,-68.5 1171.78,-75.5"/>
</g>
<!-- 6212486288 -->
<g id="node18" class="node">
<title>6212486288</title>
<polygon fill="none" stroke="black" points="1587,-144 1483,-144 1483,-108 1587,-108 1587,-144"/>
<text text-anchor="middle" x="1535" y="-122.9" font-family="Times,serif" font-size="12.00">Resolve complaint</text>
</g>
<!-- 6210438864&#45;&gt;6212486288 -->
<g id="edge17" class="edge">
<title>6210438864&#45;&gt;6212486288</title>
<path fill="none" stroke="black" d="M1140.05,-126C1230.77,-126 1386.85,-126 1472.8,-126"/>
<polygon fill="black" stroke="black" points="1472.92,-129.5 1482.92,-126 1472.92,-122.5 1472.92,-129.5"/>
</g>
<!-- 6220638416 -->
<g id="node22" class="node">
<title>6220638416</title>
<polygon fill="none" stroke="black" points="1447,-36 1343,-36 1343,0 1447,0 1447,-36"/>
<text text-anchor="middle" x="1395" y="-14.9" font-family="Times,serif" font-size="12.00">Resolve complaint</text>
</g>
<!-- 6212907984&#45;&gt;6220638416 -->
<g id="edge18" class="edge">
<title>6212907984&#45;&gt;6220638416</title>
<path fill="none" stroke="black" d="M1307.19,-18C1315.57,-18 1324.18,-18 1332.56,-18"/>
<polygon fill="black" stroke="black" points="1332.64,-21.5 1342.64,-18 1332.64,-14.5 1332.64,-21.5"/>
</g>
<!-- 6212908304 -->
<g id="node21" class="node">
<title>6212908304</title>
<polygon fill="none" stroke="black" points="1584.5,-198 1485.5,-198 1485.5,-162 1584.5,-162 1584.5,-198"/>
<text text-anchor="middle" x="1535" y="-176.9" font-family="Times,serif" font-size="12.00">Provide feedback</text>
</g>
<!-- 6211302224&#45;&gt;6212908304 -->
<g id="edge19" class="edge">
<title>6211302224&#45;&gt;6212908304</title>
<path fill="none" stroke="black" d="M1296.75,-180C1346.69,-180 1422.56,-180 1474.99,-180"/>
<polygon fill="black" stroke="black" points="1475.15,-183.5 1485.15,-180 1475.15,-176.5 1475.15,-183.5"/>
</g>
<!-- 6210923920 -->
<g id="node20" class="node">
<title>6210923920</title>
<polygon fill="none" stroke="black" points="1447,-90 1343,-90 1343,-54 1447,-54 1447,-90"/>
<text text-anchor="middle" x="1395" y="-68.9" font-family="Times,serif" font-size="12.00">Resolve complaint</text>
</g>
<!-- 6213216464&#45;&gt;6210923920 -->
<g id="edge20" class="edge">
<title>6213216464&#45;&gt;6210923920</title>
<path fill="none" stroke="black" d="M1307.19,-72C1315.57,-72 1324.18,-72 1332.56,-72"/>
<polygon fill="black" stroke="black" points="1332.64,-75.5 1342.64,-72 1332.64,-68.5 1332.64,-75.5"/>
</g>
<!-- 6212489424 -->
<g id="node19" class="node">
<title>6212489424</title>
<polygon fill="none" stroke="black" points="1650,-117 1623,-99 1650,-81 1677,-99 1650,-117"/>
<text text-anchor="middle" x="1650" y="-95.9" font-family="Times,serif" font-size="12.00">X</text>
</g>
<!-- 6212486288&#45;&gt;6212489424 -->
<g id="edge21" class="edge">
<title>6212486288&#45;&gt;6212489424</title>
<path fill="none" stroke="black" d="M1587.21,-113.76C1598.39,-111.09 1609.85,-108.35 1619.82,-105.97"/>
<polygon fill="black" stroke="black" points="1620.68,-109.37 1629.59,-103.64 1619.05,-102.56 1620.68,-109.37"/>
</g>
<!-- 6211233808 -->
<g id="node24" class="node">
<title>6211233808</title>
<ellipse fill="orange" stroke="black" cx="1731" cy="-99" rx="18" ry="18"/>
</g>
<!-- 6212489424&#45;&gt;6211233808 -->
<g id="edge25" class="edge">
<title>6212489424&#45;&gt;6211233808</title>
<path fill="none" stroke="black" d="M1677.31,-99C1685.42,-99 1694.37,-99 1702.56,-99"/>
<polygon fill="black" stroke="black" points="1702.75,-102.5 1712.75,-99 1702.75,-95.5 1702.75,-102.5"/>
</g>
<!-- 6212918800 -->
<g id="node23" class="node">
<title>6212918800</title>
<polygon fill="none" stroke="black" points="1584.5,-90 1485.5,-90 1485.5,-54 1584.5,-54 1584.5,-90"/>
<text text-anchor="middle" x="1535" y="-68.9" font-family="Times,serif" font-size="12.00">Provide feedback</text>
</g>
<!-- 6210923920&#45;&gt;6212918800 -->
<g id="edge24" class="edge">
<title>6210923920&#45;&gt;6212918800</title>
<path fill="none" stroke="black" d="M1447.39,-72C1456.41,-72 1465.86,-72 1475.06,-72"/>
<polygon fill="black" stroke="black" points="1475.32,-75.5 1485.32,-72 1475.32,-68.5 1475.32,-75.5"/>
</g>
<!-- 6212908304&#45;&gt;6212489424 -->
<g id="edge22" class="edge">
<title>6212908304&#45;&gt;6212489424</title>
<path fill="none" stroke="black" d="M1572.55,-161.97C1577.51,-159.14 1582.46,-156.12 1587,-153 1602.68,-142.23 1618.83,-128.04 1630.72,-116.91"/>
<polygon fill="black" stroke="black" points="1633.39,-119.21 1638.21,-109.78 1628.56,-114.14 1633.39,-119.21"/>
</g>
<!-- 6220638416&#45;&gt;6212489424 -->
<g id="edge23" class="edge">
<title>6220638416&#45;&gt;6212489424</title>
<path fill="none" stroke="black" d="M1447.26,-17.43C1487.04,-18.8 1542.68,-24.75 1587,-45 1604.89,-53.17 1621.49,-68.2 1633,-80.32"/>
<polygon fill="black" stroke="black" points="1630.47,-82.74 1639.79,-87.78 1635.64,-78.03 1630.47,-82.74"/>
</g>
<!-- 6212918800&#45;&gt;6212489424 -->
<g id="edge26" class="edge">
<title>6212918800&#45;&gt;6212489424</title>
<path fill="none" stroke="black" d="M1584.58,-83.61C1596.51,-86.46 1608.93,-89.42 1619.64,-91.98"/>
<polygon fill="black" stroke="black" points="1619.16,-95.47 1629.69,-94.39 1620.78,-88.66 1619.16,-95.47"/>
</g>
</g>
</svg>
