<?xml version="1.0" encoding="UTF-8" standalone="no"?>
<!DOCTYPE svg PUBLIC "-//W3C//DTD SVG 1.1//EN"
 "http://www.w3.org/Graphics/SVG/1.1/DTD/svg11.dtd">
<!-- Generated by graphviz version 2.50.0 (0)
 -->
<!-- Pages: 1 -->
<svg width="1636pt" height="279pt"
 viewBox="0.00 0.00 1636.00 278.52" xmlns="http://www.w3.org/2000/svg" xmlns:xlink="http://www.w3.org/1999/xlink">
<g id="graph0" class="graph" transform="scale(1 1) rotate(0) translate(4 274.52)">
<polygon fill="white" stroke="transparent" points="-4,4 -4,-274.52 1632,-274.52 1632,4 -4,4"/>
<!-- 6210514768 -->
<g id="node1" class="node">
<title>6210514768</title>
<ellipse fill="green" stroke="black" cx="18" cy="-151" rx="18" ry="18"/>
</g>
<!-- 6217178512 -->
<g id="node2" class="node">
<title>6217178512</title>
<polygon fill="none" stroke="black" points="99,-169 72,-151 99,-133 126,-151 99,-169"/>
<text text-anchor="middle" x="99" y="-147.9" font-family="Times,serif" font-size="12.00">+</text>
</g>
<!-- 6210514768&#45;&gt;6217178512 -->
<g id="edge1" class="edge">
<title>6210514768&#45;&gt;6217178512</title>
<path fill="none" stroke="black" d="M36.14,-151C43.64,-151 52.75,-151 61.64,-151"/>
<polygon fill="black" stroke="black" points="61.87,-154.5 71.87,-151 61.87,-147.5 61.87,-154.5"/>
</g>
<!-- 6218664720 -->
<g id="node3" class="node">
<title>6218664720</title>
<polygon fill="none" stroke="black" points="311,-250 168,-250 168,-214 311,-214 311,-250"/>
<text text-anchor="middle" x="239.5" y="-228.9" font-family="Times,serif" font-size="12.00">Reject and notify customer</text>
</g>
<!-- 6217178512&#45;&gt;6218664720 -->
<g id="edge2" class="edge">
<title>6217178512&#45;&gt;6218664720</title>
<path fill="none" stroke="black" d="M110.01,-161.9C121.54,-173.9 141.53,-193.06 162,-205 164.8,-206.63 167.71,-208.19 170.7,-209.67"/>
<polygon fill="black" stroke="black" points="169.28,-212.87 179.82,-213.89 172.21,-206.52 169.28,-212.87"/>
</g>
<!-- 6217803728 -->
<g id="node4" class="node">
<title>6217803728</title>
<polygon fill="none" stroke="black" points="317,-196 162,-196 162,-160 317,-160 317,-196"/>
<text text-anchor="middle" x="239.5" y="-174.9" font-family="Times,serif" font-size="12.00">Approve and notify customer</text>
</g>
<!-- 6217178512&#45;&gt;6217803728 -->
<g id="edge4" class="edge">
<title>6217178512&#45;&gt;6217803728</title>
<path fill="none" stroke="black" d="M120.14,-154.93C128.99,-156.65 140.05,-158.81 151.82,-161.1"/>
<polygon fill="black" stroke="black" points="151.36,-164.58 161.85,-163.06 152.7,-157.71 151.36,-164.58"/>
</g>
<!-- 6219371216 -->
<g id="node5" class="node">
<title>6219371216</title>
<polygon fill="none" stroke="black" points="281.5,-142 197.5,-142 197.5,-106 281.5,-106 281.5,-142"/>
<text text-anchor="middle" x="239.5" y="-120.9" font-family="Times,serif" font-size="12.00">File complaint</text>
</g>
<!-- 6217178512&#45;&gt;6219371216 -->
<g id="edge3" class="edge">
<title>6217178512&#45;&gt;6219371216</title>
<path fill="none" stroke="black" d="M120.14,-147.07C137.72,-143.65 164,-138.52 187.33,-133.97"/>
<polygon fill="black" stroke="black" points="188.32,-137.35 197.46,-132 186.98,-130.48 188.32,-137.35"/>
</g>
<!-- 6214022672 -->
<g id="node6" class="node">
<title>6214022672</title>
<polygon fill="none" stroke="black" points="317,-87 162,-87 162,-51 317,-51 317,-87"/>
<text text-anchor="middle" x="239.5" y="-65.9" font-family="Times,serif" font-size="12.00">Approve and notify customer</text>
</g>
<!-- 6217178512&#45;&gt;6214022672 -->
<g id="edge5" class="edge">
<title>6217178512&#45;&gt;6214022672</title>
<path fill="none" stroke="black" d="M110.04,-140.14C121.59,-128.18 141.6,-109.05 162,-97 165.4,-94.99 168.96,-93.09 172.62,-91.3"/>
<polygon fill="black" stroke="black" points="174.22,-94.41 181.84,-87.05 171.3,-88.05 174.22,-94.41"/>
</g>
<!-- 6217625744 -->
<g id="node7" class="node">
<title>6217625744</title>
<polygon fill="none" stroke="black" points="415.5,-250 388.5,-232 415.5,-214 442.5,-232 415.5,-250"/>
<text text-anchor="middle" x="415.5" y="-228.9" font-family="Times,serif" font-size="12.00">X</text>
</g>
<!-- 6218664720&#45;&gt;6217625744 -->
<g id="edge6" class="edge">
<title>6218664720&#45;&gt;6217625744</title>
<path fill="none" stroke="black" d="M311.02,-232C334.07,-232 358.72,-232 378.18,-232"/>
<polygon fill="black" stroke="black" points="378.42,-235.5 388.42,-232 378.42,-228.5 378.42,-235.5"/>
</g>
<!-- 6219864720 -->
<g id="node9" class="node">
<title>6219864720</title>
<polygon fill="none" stroke="black" points="465,-196 366,-196 366,-160 465,-160 465,-196"/>
<text text-anchor="middle" x="415.5" y="-174.9" font-family="Times,serif" font-size="12.00">Provide feedback</text>
</g>
<!-- 6217803728&#45;&gt;6219864720 -->
<g id="edge7" class="edge">
<title>6217803728&#45;&gt;6219864720</title>
<path fill="none" stroke="black" d="M317.07,-178C330.04,-178 343.31,-178 355.73,-178"/>
<polygon fill="black" stroke="black" points="355.93,-181.5 365.93,-178 355.93,-174.5 355.93,-181.5"/>
</g>
<!-- 6219860048 -->
<g id="node8" class="node">
<title>6219860048</title>
<polygon fill="none" stroke="black" points="458.5,-142 372.5,-142 372.5,-106 458.5,-106 458.5,-142"/>
<text text-anchor="middle" x="415.5" y="-120.9" font-family="Times,serif" font-size="12.00">Log complaint</text>
</g>
<!-- 6219371216&#45;&gt;6219860048 -->
<g id="edge8" class="edge">
<title>6219371216&#45;&gt;6219860048</title>
<path fill="none" stroke="black" d="M281.74,-124C305.76,-124 336.29,-124 362.02,-124"/>
<polygon fill="black" stroke="black" points="362.35,-127.5 372.35,-124 362.35,-120.5 362.35,-127.5"/>
</g>
<!-- 6219332816 -->
<g id="node10" class="node">
<title>6219332816</title>
<polygon fill="none" stroke="black" points="478,-85 353,-85 353,-49 478,-49 478,-85"/>
<text text-anchor="middle" x="415.5" y="-63.9" font-family="Times,serif" font-size="12.00">Process reimbursement</text>
</g>
<!-- 6214022672&#45;&gt;6219332816 -->
<g id="edge9" class="edge">
<title>6214022672&#45;&gt;6219332816</title>
<path fill="none" stroke="black" d="M317.07,-68.12C325.56,-68.02 334.19,-67.92 342.62,-67.83"/>
<polygon fill="black" stroke="black" points="342.83,-71.32 352.78,-67.71 342.74,-64.32 342.83,-71.32"/>
</g>
<!-- 6217629200 -->
<g id="node11" class="node">
<title>6217629200</title>
<polygon fill="none" stroke="black" points="825,-244 798,-226 825,-208 852,-226 825,-244"/>
<text text-anchor="middle" x="825" y="-222.9" font-family="Times,serif" font-size="12.00">X</text>
</g>
<!-- 6217625744&#45;&gt;6217629200 -->
<g id="edge10" class="edge">
<title>6217625744&#45;&gt;6217629200</title>
<path fill="none" stroke="black" d="M435.38,-237.06C454.89,-242 486.32,-249.19 514,-252 605.53,-261.29 629.7,-263.35 721,-252 747.15,-248.75 776.19,-241.03 796.75,-234.84"/>
<polygon fill="black" stroke="black" points="797.87,-238.16 806.39,-231.87 795.8,-231.47 797.87,-238.16"/>
</g>
<!-- 6214057488 -->
<g id="node15" class="node">
<title>6214057488</title>
<polygon fill="none" stroke="black" points="680,-243 555,-243 555,-207 680,-207 680,-243"/>
<text text-anchor="middle" x="617.5" y="-221.9" font-family="Times,serif" font-size="12.00">Process reimbursement</text>
</g>
<!-- 6217625744&#45;&gt;6214057488 -->
<g id="edge11" class="edge">
<title>6217625744&#45;&gt;6214057488</title>
<path fill="none" stroke="black" d="M441.43,-231.13C467.17,-230.23 508.57,-228.78 544.64,-227.51"/>
<polygon fill="black" stroke="black" points="544.79,-231.01 554.66,-227.16 544.54,-224.02 544.79,-231.01"/>
</g>
<!-- 6219866448 -->
<g id="node13" class="node">
<title>6219866448</title>
<polygon fill="none" stroke="black" points="721,-142 514,-142 514,-106 721,-106 721,-142"/>
<text text-anchor="middle" x="617.5" y="-120.9" font-family="Times,serif" font-size="12.00">Assign complaint to relevant department</text>
</g>
<!-- 6219860048&#45;&gt;6219866448 -->
<g id="edge12" class="edge">
<title>6219860048&#45;&gt;6219866448</title>
<path fill="none" stroke="black" d="M458.91,-124C472.18,-124 487.49,-124 503.25,-124"/>
<polygon fill="black" stroke="black" points="503.65,-127.5 513.65,-124 503.65,-120.5 503.65,-127.5"/>
</g>
<!-- 6219868560 -->
<g id="node14" class="node">
<title>6219868560</title>
<polygon fill="none" stroke="black" points="1197.5,-198 1170.5,-180 1197.5,-162 1224.5,-180 1197.5,-198"/>
<text text-anchor="middle" x="1197.5" y="-176.9" font-family="Times,serif" font-size="12.00">+</text>
</g>
<!-- 6219864720&#45;&gt;6219868560 -->
<g id="edge13" class="edge">
<title>6219864720&#45;&gt;6219868560</title>
<path fill="none" stroke="black" d="M465.29,-178.13C609.83,-178.5 1033.55,-179.58 1160.29,-179.91"/>
<polygon fill="black" stroke="black" points="1160.59,-183.41 1170.6,-179.93 1160.61,-176.41 1160.59,-183.41"/>
</g>
<!-- 6217621456 -->
<g id="node12" class="node">
<title>6217621456</title>
<polygon fill="none" stroke="black" points="669.5,-84 565.5,-84 565.5,-48 669.5,-48 669.5,-84"/>
<text text-anchor="middle" x="617.5" y="-62.9" font-family="Times,serif" font-size="12.00">Resolve complaint</text>
</g>
<!-- 6219332816&#45;&gt;6217621456 -->
<g id="edge14" class="edge">
<title>6219332816&#45;&gt;6217621456</title>
<path fill="none" stroke="black" d="M478.14,-66.69C502.64,-66.57 530.77,-66.43 555.24,-66.31"/>
<polygon fill="black" stroke="black" points="555.5,-69.81 565.48,-66.26 555.46,-62.81 555.5,-69.81"/>
</g>
<!-- 6219865808 -->
<g id="node18" class="node">
<title>6219865808</title>
<polygon fill="none" stroke="black" points="1529,-144 1502,-126 1529,-108 1556,-126 1529,-144"/>
<text text-anchor="middle" x="1529" y="-122.9" font-family="Times,serif" font-size="12.00">+</text>
</g>
<!-- 6217629200&#45;&gt;6219865808 -->
<g id="edge16" class="edge">
<title>6217629200&#45;&gt;6219865808</title>
<path fill="none" stroke="black" d="M844.7,-230.9C924.93,-250.88 1245.89,-319.8 1466,-207 1490.13,-194.63 1507.58,-168.08 1517.7,-148.74"/>
<polygon fill="black" stroke="black" points="1520.9,-150.17 1522.2,-139.65 1514.63,-147.06 1520.9,-150.17"/>
</g>
<!-- 6210517392 -->
<g id="node16" class="node">
<title>6210517392</title>
<polygon fill="none" stroke="black" points="825,-82 798,-64 825,-46 852,-64 825,-82"/>
<text text-anchor="middle" x="825" y="-60.9" font-family="Times,serif" font-size="12.00">X</text>
</g>
<!-- 6217621456&#45;&gt;6210517392 -->
<g id="edge17" class="edge">
<title>6217621456&#45;&gt;6210517392</title>
<path fill="none" stroke="black" d="M669.56,-65.5C706.46,-65.14 755.38,-64.67 788.19,-64.35"/>
<polygon fill="black" stroke="black" points="788.27,-67.85 798.24,-64.25 788.2,-60.85 788.27,-67.85"/>
</g>
<!-- 6219773392 -->
<g id="node20" class="node">
<title>6219773392</title>
<polygon fill="none" stroke="black" points="893,-142 757,-142 757,-106 893,-106 893,-142"/>
<text text-anchor="middle" x="825" y="-120.9" font-family="Times,serif" font-size="12.00">Review complaint details</text>
</g>
<!-- 6219866448&#45;&gt;6219773392 -->
<g id="edge18" class="edge">
<title>6219866448&#45;&gt;6219773392</title>
<path fill="none" stroke="black" d="M721.25,-124C729.88,-124 738.51,-124 746.9,-124"/>
<polygon fill="black" stroke="black" points="747,-127.5 757,-124 747,-120.5 747,-127.5"/>
</g>
<!-- 6218669648 -->
<g id="node17" class="node">
<title>6218669648</title>
<polygon fill="none" stroke="black" points="1466,-198 1311,-198 1311,-162 1466,-162 1466,-198"/>
<text text-anchor="middle" x="1388.5" y="-176.9" font-family="Times,serif" font-size="12.00">Approve and notify customer</text>
</g>
<!-- 6219868560&#45;&gt;6218669648 -->
<g id="edge20" class="edge">
<title>6219868560&#45;&gt;6218669648</title>
<path fill="none" stroke="black" d="M1224.78,-180C1244.65,-180 1273.15,-180 1300.75,-180"/>
<polygon fill="black" stroke="black" points="1300.86,-183.5 1310.86,-180 1300.86,-176.5 1300.86,-183.5"/>
</g>
<!-- 6219858256 -->
<g id="node19" class="node">
<title>6219858256</title>
<polygon fill="none" stroke="black" points="1451,-144 1326,-144 1326,-108 1451,-108 1451,-144"/>
<text text-anchor="middle" x="1388.5" y="-122.9" font-family="Times,serif" font-size="12.00">Process reimbursement</text>
</g>
<!-- 6219868560&#45;&gt;6219858256 -->
<g id="edge19" class="edge">
<title>6219868560&#45;&gt;6219858256</title>
<path fill="none" stroke="black" d="M1216.97,-174.72C1239.81,-168.2 1280.04,-156.7 1315.69,-146.52"/>
<polygon fill="black" stroke="black" points="1316.95,-149.8 1325.61,-143.68 1315.03,-143.07 1316.95,-149.8"/>
</g>
<!-- 6214057488&#45;&gt;6217629200 -->
<g id="edge15" class="edge">
<title>6214057488&#45;&gt;6217629200</title>
<path fill="none" stroke="black" d="M680.16,-225.3C715.22,-225.47 757.93,-225.68 787.66,-225.82"/>
<polygon fill="black" stroke="black" points="787.97,-229.32 797.98,-225.87 788,-222.32 787.97,-229.32"/>
</g>
<!-- 6217620752 -->
<g id="node22" class="node">
<title>6217620752</title>
<polygon fill="none" stroke="black" points="1197.5,-36 1170.5,-18 1197.5,0 1224.5,-18 1197.5,-36"/>
<text text-anchor="middle" x="1197.5" y="-14.9" font-family="Times,serif" font-size="12.00">X</text>
</g>
<!-- 6210517392&#45;&gt;6217620752 -->
<g id="edge23" class="edge">
<title>6210517392&#45;&gt;6217620752</title>
<path fill="none" stroke="black" d="M851.42,-63.49C897.87,-62.26 999.46,-58.17 1084,-45 1113.13,-40.46 1145.83,-32.25 1168.44,-26.08"/>
<polygon fill="black" stroke="black" points="1169.67,-29.37 1178.36,-23.31 1167.79,-22.62 1169.67,-29.37"/>
</g>
<!-- 6217353104 -->
<g id="node23" class="node">
<title>6217353104</title>
<polygon fill="none" stroke="black" points="1084,-36 929,-36 929,0 1084,0 1084,-36"/>
<text text-anchor="middle" x="1006.5" y="-14.9" font-family="Times,serif" font-size="12.00">Approve and notify customer</text>
</g>
<!-- 6210517392&#45;&gt;6217353104 -->
<g id="edge24" class="edge">
<title>6210517392&#45;&gt;6217353104</title>
<path fill="none" stroke="black" d="M844.87,-59.16C864.12,-54.23 895.3,-46.24 925.1,-38.6"/>
<polygon fill="black" stroke="black" points="926.32,-41.91 935.13,-36.03 924.58,-35.12 926.32,-41.91"/>
</g>
<!-- 6218669648&#45;&gt;6219865808 -->
<g id="edge21" class="edge">
<title>6218669648&#45;&gt;6219865808</title>
<path fill="none" stroke="black" d="M1442.36,-161.9C1450.32,-159.01 1458.4,-155.99 1466,-153 1478.42,-148.11 1492.04,-142.24 1503.34,-137.22"/>
<polygon fill="black" stroke="black" points="1504.89,-140.36 1512.59,-133.08 1502.03,-133.97 1504.89,-140.36"/>
</g>
<!-- 6210149968 -->
<g id="node27" class="node">
<title>6210149968</title>
<ellipse fill="orange" stroke="black" cx="1610" cy="-126" rx="18" ry="18"/>
</g>
<!-- 6219865808&#45;&gt;6210149968 -->
<g id="edge26" class="edge">
<title>6219865808&#45;&gt;6210149968</title>
<path fill="none" stroke="black" d="M1556.31,-126C1564.42,-126 1573.37,-126 1581.56,-126"/>
<polygon fill="black" stroke="black" points="1581.75,-129.5 1591.75,-126 1581.75,-122.5 1581.75,-129.5"/>
</g>
<!-- 6219858256&#45;&gt;6219865808 -->
<g id="edge22" class="edge">
<title>6219858256&#45;&gt;6219865808</title>
<path fill="none" stroke="black" d="M1451.05,-126C1464.8,-126 1478.96,-126 1491.32,-126"/>
<polygon fill="black" stroke="black" points="1491.67,-129.5 1501.67,-126 1491.67,-122.5 1491.67,-129.5"/>
</g>
<!-- 6217627728 -->
<g id="node21" class="node">
<title>6217627728</title>
<polygon fill="none" stroke="black" points="1006.5,-142 979.5,-124 1006.5,-106 1033.5,-124 1006.5,-142"/>
<text text-anchor="middle" x="1006.5" y="-120.9" font-family="Times,serif" font-size="12.00">X</text>
</g>
<!-- 6219773392&#45;&gt;6217627728 -->
<g id="edge25" class="edge">
<title>6219773392&#45;&gt;6217627728</title>
<path fill="none" stroke="black" d="M893.09,-124C918.94,-124 947.46,-124 969.31,-124"/>
<polygon fill="black" stroke="black" points="969.46,-127.5 979.46,-124 969.46,-120.5 969.46,-127.5"/>
</g>
<!-- 6219863312 -->
<g id="node24" class="node">
<title>6219863312</title>
<polygon fill="none" stroke="black" points="1275,-144 1120,-144 1120,-108 1275,-108 1275,-144"/>
<text text-anchor="middle" x="1197.5" y="-122.9" font-family="Times,serif" font-size="12.00">Approve and notify customer</text>
</g>
<!-- 6217627728&#45;&gt;6219863312 -->
<g id="edge30" class="edge">
<title>6217627728&#45;&gt;6219863312</title>
<path fill="none" stroke="black" d="M1033.38,-124.27C1053.28,-124.48 1081.99,-124.79 1109.79,-125.08"/>
<polygon fill="black" stroke="black" points="1109.94,-128.58 1119.97,-125.19 1110.01,-121.58 1109.94,-128.58"/>
</g>
<!-- 6219860304 -->
<g id="node25" class="node">
<title>6219860304</title>
<polygon fill="none" stroke="black" points="1269,-90 1126,-90 1126,-54 1269,-54 1269,-90"/>
<text text-anchor="middle" x="1197.5" y="-68.9" font-family="Times,serif" font-size="12.00">Reject and notify customer</text>
</g>
<!-- 6217627728&#45;&gt;6219860304 -->
<g id="edge29" class="edge">
<title>6217627728&#45;&gt;6219860304</title>
<path fill="none" stroke="black" d="M1025.97,-118.92C1048.04,-112.85 1086.37,-102.3 1121.1,-92.75"/>
<polygon fill="black" stroke="black" points="1122.07,-96.11 1130.78,-90.08 1120.21,-89.36 1122.07,-96.11"/>
</g>
<!-- 6217620752&#45;&gt;6219865808 -->
<g id="edge27" class="edge">
<title>6217620752&#45;&gt;6219865808</title>
<path fill="none" stroke="black" d="M1219.96,-14.73C1267.65,-8.57 1384.69,0.38 1466,-45 1489.68,-58.22 1507.21,-84.6 1517.48,-103.68"/>
<polygon fill="black" stroke="black" points="1514.39,-105.31 1522.06,-112.62 1520.62,-102.12 1514.39,-105.31"/>
</g>
<!-- 6217353104&#45;&gt;6217620752 -->
<g id="edge28" class="edge">
<title>6217353104&#45;&gt;6217620752</title>
<path fill="none" stroke="black" d="M1084.1,-18C1110.48,-18 1138.79,-18 1160.4,-18"/>
<polygon fill="black" stroke="black" points="1160.44,-21.5 1170.44,-18 1160.44,-14.5 1160.44,-21.5"/>
</g>
<!-- 6210515536 -->
<g id="node26" class="node">
<title>6210515536</title>
<polygon fill="none" stroke="black" points="1388.5,-90 1361.5,-72 1388.5,-54 1415.5,-72 1388.5,-90"/>
<text text-anchor="middle" x="1388.5" y="-68.9" font-family="Times,serif" font-size="12.00">X</text>
</g>
<!-- 6219863312&#45;&gt;6210515536 -->
<g id="edge31" class="edge">
<title>6219863312&#45;&gt;6210515536</title>
<path fill="none" stroke="black" d="M1261.7,-107.94C1294.71,-98.51 1333.46,-87.44 1359.15,-80.1"/>
<polygon fill="black" stroke="black" points="1360.31,-83.41 1368.97,-77.3 1358.39,-76.68 1360.31,-83.41"/>
</g>
<!-- 6219860304&#45;&gt;6210515536 -->
<g id="edge32" class="edge">
<title>6219860304&#45;&gt;6210515536</title>
<path fill="none" stroke="black" d="M1269.15,-72C1297.15,-72 1328.15,-72 1351.39,-72"/>
<polygon fill="black" stroke="black" points="1351.49,-75.5 1361.49,-72 1351.49,-68.5 1351.49,-75.5"/>
</g>
<!-- 6210515536&#45;&gt;6219865808 -->
<g id="edge33" class="edge">
<title>6210515536&#45;&gt;6219865808</title>
<path fill="none" stroke="black" d="M1406.95,-77.76C1422.54,-83 1445.95,-91.11 1466,-99 1478.42,-103.89 1492.04,-109.76 1503.34,-114.78"/>
<polygon fill="black" stroke="black" points="1502.03,-118.03 1512.59,-118.92 1504.89,-111.64 1502.03,-118.03"/>
</g>
</g>
</svg>
