<?xml version="1.0" encoding="UTF-8" standalone="no"?>
<!DOCTYPE svg PUBLIC "-//W3C//DTD SVG 1.1//EN"
 "http://www.w3.org/Graphics/SVG/1.1/DTD/svg11.dtd">
<!-- Generated by graphviz version 2.50.0 (0)
 -->
<!-- Pages: 1 -->
<svg width="1738pt" height="198pt"
 viewBox="0.00 0.00 1738.00 198.00" xmlns="http://www.w3.org/2000/svg" xmlns:xlink="http://www.w3.org/1999/xlink">
<g id="graph0" class="graph" transform="scale(1 1) rotate(0) translate(4 194)">
<polygon fill="white" stroke="transparent" points="-4,4 -4,-194 1734,-194 1734,4 -4,4"/>
<!-- 6215640464 -->
<g id="node1" class="node">
<title>6215640464</title>
<ellipse fill="green" stroke="black" cx="18" cy="-91" rx="18" ry="18"/>
</g>
<!-- 6211310608 -->
<g id="node2" class="node">
<title>6211310608</title>
<polygon fill="none" stroke="black" points="99,-109 72,-91 99,-73 126,-91 99,-109"/>
<text text-anchor="middle" x="99" y="-87.9" font-family="Times,serif" font-size="12.00">+</text>
</g>
<!-- 6215640464&#45;&gt;6211310608 -->
<g id="edge1" class="edge">
<title>6215640464&#45;&gt;6211310608</title>
<path fill="none" stroke="black" d="M36.14,-91C43.64,-91 52.75,-91 61.64,-91"/>
<polygon fill="black" stroke="black" points="61.87,-94.5 71.87,-91 61.87,-87.5 61.87,-94.5"/>
</g>
<!-- 6215640912 -->
<g id="node3" class="node">
<title>6215640912</title>
<polygon fill="none" stroke="black" points="317,-84 162,-84 162,-48 317,-48 317,-84"/>
<text text-anchor="middle" x="239.5" y="-62.9" font-family="Times,serif" font-size="12.00">Approve and notify customer</text>
</g>
<!-- 6211310608&#45;&gt;6215640912 -->
<g id="edge4" class="edge">
<title>6211310608&#45;&gt;6215640912</title>
<path fill="none" stroke="black" d="M120.73,-87.26C129.52,-85.67 140.4,-83.71 151.96,-81.62"/>
<polygon fill="black" stroke="black" points="152.59,-85.06 161.81,-79.84 151.34,-78.18 152.59,-85.06"/>
</g>
<!-- 6213546768 -->
<g id="node4" class="node">
<title>6213546768</title>
<polygon fill="none" stroke="black" points="281.5,-185 197.5,-185 197.5,-149 281.5,-149 281.5,-185"/>
<text text-anchor="middle" x="239.5" y="-163.9" font-family="Times,serif" font-size="12.00">File complaint</text>
</g>
<!-- 6211310608&#45;&gt;6213546768 -->
<g id="edge5" class="edge">
<title>6211310608&#45;&gt;6213546768</title>
<path fill="none" stroke="black" d="M113.05,-99.8C125.42,-108.01 144.65,-120.39 162,-130 170.81,-134.88 180.36,-139.79 189.62,-144.36"/>
<polygon fill="black" stroke="black" points="188.24,-147.58 198.76,-148.81 191.3,-141.29 188.24,-147.58"/>
</g>
<!-- 6213542608 -->
<g id="node5" class="node">
<title>6213542608</title>
<polygon fill="none" stroke="black" points="496,-136 353,-136 353,-100 496,-100 496,-136"/>
<text text-anchor="middle" x="424.5" y="-114.9" font-family="Times,serif" font-size="12.00">Reject and notify customer</text>
</g>
<!-- 6211310608&#45;&gt;6213542608 -->
<g id="edge2" class="edge">
<title>6211310608&#45;&gt;6213542608</title>
<path fill="none" stroke="black" d="M123.27,-92.94C168.51,-96.72 270.27,-105.21 342.76,-111.26"/>
<polygon fill="black" stroke="black" points="342.53,-114.75 352.79,-112.1 343.11,-107.78 342.53,-114.75"/>
</g>
<!-- 6213547408 -->
<g id="node6" class="node">
<title>6213547408</title>
<polygon fill="none" stroke="black" points="1102,-36 947,-36 947,0 1102,0 1102,-36"/>
<text text-anchor="middle" x="1024.5" y="-14.9" font-family="Times,serif" font-size="12.00">Approve and notify customer</text>
</g>
<!-- 6211310608&#45;&gt;6213547408 -->
<g id="edge3" class="edge">
<title>6211310608&#45;&gt;6213547408</title>
<path fill="none" stroke="black" d="M109.6,-79.52C120.76,-67.08 140.42,-47.85 162,-39 269.88,5.22 306.9,-18 423.5,-18 423.5,-18 423.5,-18 636.5,-18 739.54,-18 858.02,-18 936.45,-18"/>
<polygon fill="black" stroke="black" points="936.77,-21.5 946.77,-18 936.77,-14.5 936.77,-21.5"/>
</g>
<!-- 6209907024 -->
<g id="node7" class="node">
<title>6209907024</title>
<polygon fill="none" stroke="black" points="487,-82 362,-82 362,-46 487,-46 487,-82"/>
<text text-anchor="middle" x="424.5" y="-60.9" font-family="Times,serif" font-size="12.00">Process reimbursement</text>
</g>
<!-- 6215640912&#45;&gt;6209907024 -->
<g id="edge6" class="edge">
<title>6215640912&#45;&gt;6209907024</title>
<path fill="none" stroke="black" d="M317.05,-65.16C328.52,-65.04 340.32,-64.91 351.69,-64.78"/>
<polygon fill="black" stroke="black" points="352.03,-68.28 361.99,-64.67 351.95,-61.28 352.03,-68.28"/>
</g>
<!-- 6215638224 -->
<g id="node9" class="node">
<title>6215638224</title>
<polygon fill="none" stroke="black" points="467.5,-190 381.5,-190 381.5,-154 467.5,-154 467.5,-190"/>
<text text-anchor="middle" x="424.5" y="-168.9" font-family="Times,serif" font-size="12.00">Log complaint</text>
</g>
<!-- 6213546768&#45;&gt;6215638224 -->
<g id="edge7" class="edge">
<title>6213546768&#45;&gt;6215638224</title>
<path fill="none" stroke="black" d="M281.57,-168.12C308.04,-168.85 342.69,-169.79 371.13,-170.57"/>
<polygon fill="black" stroke="black" points="371.21,-174.07 381.3,-170.85 371.4,-167.08 371.21,-174.07"/>
</g>
<!-- 6209906640 -->
<g id="node8" class="node">
<title>6209906640</title>
<polygon fill="none" stroke="black" points="635.5,-82 608.5,-64 635.5,-46 662.5,-64 635.5,-82"/>
<text text-anchor="middle" x="635.5" y="-60.9" font-family="Times,serif" font-size="12.00">+</text>
</g>
<!-- 6213542608&#45;&gt;6209906640 -->
<g id="edge8" class="edge">
<title>6213542608&#45;&gt;6209906640</title>
<path fill="none" stroke="black" d="M495.38,-99.94C532.84,-90.27 576.99,-78.86 605.35,-71.53"/>
<polygon fill="black" stroke="black" points="606.58,-74.83 615.39,-68.94 604.83,-68.05 606.58,-74.83"/>
</g>
<!-- 6213544720 -->
<g id="node10" class="node">
<title>6213544720</title>
<polygon fill="none" stroke="black" points="1496,-82 1469,-64 1496,-46 1523,-64 1496,-82"/>
<text text-anchor="middle" x="1496" y="-60.9" font-family="Times,serif" font-size="12.00">+</text>
</g>
<!-- 6213547408&#45;&gt;6213544720 -->
<g id="edge9" class="edge">
<title>6213547408&#45;&gt;6213544720</title>
<path fill="none" stroke="black" d="M1102.11,-13.38C1184.86,-10.28 1320.05,-10.71 1433,-37 1446.27,-40.09 1460.24,-45.92 1471.56,-51.38"/>
<polygon fill="black" stroke="black" points="1470.23,-54.63 1480.74,-56 1473.38,-48.38 1470.23,-54.63"/>
</g>
<!-- 6209907024&#45;&gt;6209906640 -->
<g id="edge10" class="edge">
<title>6209907024&#45;&gt;6209906640</title>
<path fill="none" stroke="black" d="M487.08,-64C523.16,-64 567.51,-64 598.08,-64"/>
<polygon fill="black" stroke="black" points="598.29,-67.5 608.29,-64 598.29,-60.5 598.29,-67.5"/>
</g>
<!-- 6209911888 -->
<g id="node12" class="node">
<title>6209911888</title>
<polygon fill="none" stroke="black" points="1433,-82 1329,-82 1329,-46 1433,-46 1433,-82"/>
<text text-anchor="middle" x="1381" y="-60.9" font-family="Times,serif" font-size="12.00">Resolve complaint</text>
</g>
<!-- 6209906640&#45;&gt;6209911888 -->
<g id="edge11" class="edge">
<title>6209906640&#45;&gt;6209911888</title>
<path fill="none" stroke="black" d="M662.53,-64C767.92,-64 1164.74,-64 1318.55,-64"/>
<polygon fill="black" stroke="black" points="1318.77,-67.5 1328.77,-64 1318.77,-60.5 1318.77,-67.5"/>
</g>
<!-- 6211276496 -->
<g id="node11" class="node">
<title>6211276496</title>
<polygon fill="none" stroke="black" points="739,-190 532,-190 532,-154 739,-154 739,-190"/>
<text text-anchor="middle" x="635.5" y="-168.9" font-family="Times,serif" font-size="12.00">Assign complaint to relevant department</text>
</g>
<!-- 6215638224&#45;&gt;6211276496 -->
<g id="edge12" class="edge">
<title>6215638224&#45;&gt;6211276496</title>
<path fill="none" stroke="black" d="M467.54,-172C483.38,-172 502.24,-172 521.48,-172"/>
<polygon fill="black" stroke="black" points="521.57,-175.5 531.57,-172 521.57,-168.5 521.57,-175.5"/>
</g>
<!-- 6213534096 -->
<g id="node13" class="node">
<title>6213534096</title>
<polygon fill="none" stroke="black" points="1658,-82 1559,-82 1559,-46 1658,-46 1658,-82"/>
<text text-anchor="middle" x="1608.5" y="-60.9" font-family="Times,serif" font-size="12.00">Provide feedback</text>
</g>
<!-- 6213544720&#45;&gt;6213534096 -->
<g id="edge13" class="edge">
<title>6213544720&#45;&gt;6213534096</title>
<path fill="none" stroke="black" d="M1523.19,-64C1530.98,-64 1539.84,-64 1548.83,-64"/>
<polygon fill="black" stroke="black" points="1548.98,-67.5 1558.98,-64 1548.98,-60.5 1548.98,-67.5"/>
</g>
<!-- 6215632208 -->
<g id="node14" class="node">
<title>6215632208</title>
<polygon fill="none" stroke="black" points="911,-190 775,-190 775,-154 911,-154 911,-190"/>
<text text-anchor="middle" x="843" y="-168.9" font-family="Times,serif" font-size="12.00">Review complaint details</text>
</g>
<!-- 6211276496&#45;&gt;6215632208 -->
<g id="edge15" class="edge">
<title>6211276496&#45;&gt;6215632208</title>
<path fill="none" stroke="black" d="M739.25,-172C747.88,-172 756.51,-172 764.9,-172"/>
<polygon fill="black" stroke="black" points="765,-175.5 775,-172 765,-168.5 765,-175.5"/>
</g>
<!-- 6209911888&#45;&gt;6213544720 -->
<g id="edge14" class="edge">
<title>6209911888&#45;&gt;6213544720</title>
<path fill="none" stroke="black" d="M1433.21,-64C1441.82,-64 1450.59,-64 1458.72,-64"/>
<polygon fill="black" stroke="black" points="1458.97,-67.5 1468.97,-64 1458.97,-60.5 1458.97,-67.5"/>
</g>
<!-- 6211306960 -->
<g id="node19" class="node">
<title>6211306960</title>
<ellipse fill="orange" stroke="black" cx="1712" cy="-64" rx="18" ry="18"/>
</g>
<!-- 6213534096&#45;&gt;6211306960 -->
<g id="edge16" class="edge">
<title>6213534096&#45;&gt;6211306960</title>
<path fill="none" stroke="black" d="M1658.17,-64C1666.98,-64 1675.88,-64 1683.8,-64"/>
<polygon fill="black" stroke="black" points="1683.88,-67.5 1693.88,-64 1683.88,-60.5 1683.88,-67.5"/>
</g>
<!-- 6215644112 -->
<g id="node15" class="node">
<title>6215644112</title>
<polygon fill="none" stroke="black" points="1024.5,-190 997.5,-172 1024.5,-154 1051.5,-172 1024.5,-190"/>
<text text-anchor="middle" x="1024.5" y="-168.9" font-family="Times,serif" font-size="12.00">X</text>
</g>
<!-- 6215632208&#45;&gt;6215644112 -->
<g id="edge17" class="edge">
<title>6215632208&#45;&gt;6215644112</title>
<path fill="none" stroke="black" d="M911.09,-172C936.94,-172 965.46,-172 987.31,-172"/>
<polygon fill="black" stroke="black" points="987.46,-175.5 997.46,-172 987.46,-168.5 987.46,-175.5"/>
</g>
<!-- 6209899024 -->
<g id="node16" class="node">
<title>6209899024</title>
<polygon fill="none" stroke="black" points="1287,-190 1144,-190 1144,-154 1287,-154 1287,-190"/>
<text text-anchor="middle" x="1215.5" y="-168.9" font-family="Times,serif" font-size="12.00">Reject and notify customer</text>
</g>
<!-- 6215644112&#45;&gt;6209899024 -->
<g id="edge19" class="edge">
<title>6215644112&#45;&gt;6209899024</title>
<path fill="none" stroke="black" d="M1051.78,-172C1073.01,-172 1104.08,-172 1133.39,-172"/>
<polygon fill="black" stroke="black" points="1133.67,-175.5 1143.67,-172 1133.67,-168.5 1133.67,-175.5"/>
</g>
<!-- 6210649040 -->
<g id="node17" class="node">
<title>6210649040</title>
<polygon fill="none" stroke="black" points="1293,-136 1138,-136 1138,-100 1293,-100 1293,-136"/>
<text text-anchor="middle" x="1215.5" y="-114.9" font-family="Times,serif" font-size="12.00">Approve and notify customer</text>
</g>
<!-- 6215644112&#45;&gt;6210649040 -->
<g id="edge18" class="edge">
<title>6215644112&#45;&gt;6210649040</title>
<path fill="none" stroke="black" d="M1043.97,-166.72C1066.55,-160.27 1106.14,-148.96 1141.5,-138.86"/>
<polygon fill="black" stroke="black" points="1142.68,-142.16 1151.34,-136.05 1140.76,-135.43 1142.68,-142.16"/>
</g>
<!-- 6215635024 -->
<g id="node18" class="node">
<title>6215635024</title>
<polygon fill="none" stroke="black" points="1381,-136 1354,-118 1381,-100 1408,-118 1381,-136"/>
<text text-anchor="middle" x="1381" y="-114.9" font-family="Times,serif" font-size="12.00">X</text>
</g>
<!-- 6209899024&#45;&gt;6215635024 -->
<g id="edge20" class="edge">
<title>6209899024&#45;&gt;6215635024</title>
<path fill="none" stroke="black" d="M1271.4,-153.87C1298.79,-144.82 1330.7,-134.28 1352.81,-126.98"/>
<polygon fill="black" stroke="black" points="1354.13,-130.23 1362.53,-123.77 1351.93,-123.58 1354.13,-130.23"/>
</g>
<!-- 6210649040&#45;&gt;6215635024 -->
<g id="edge21" class="edge">
<title>6210649040&#45;&gt;6215635024</title>
<path fill="none" stroke="black" d="M1293.46,-118C1310.92,-118 1328.68,-118 1343.52,-118"/>
<polygon fill="black" stroke="black" points="1343.77,-121.5 1353.77,-118 1343.77,-114.5 1343.77,-121.5"/>
</g>
<!-- 6215635024&#45;&gt;6213544720 -->
<g id="edge22" class="edge">
<title>6215635024&#45;&gt;6213544720</title>
<path fill="none" stroke="black" d="M1397.24,-110.72C1416.03,-101.74 1448.2,-86.37 1470.47,-75.72"/>
<polygon fill="black" stroke="black" points="1472.13,-78.81 1479.64,-71.34 1469.11,-72.49 1472.13,-78.81"/>
</g>
</g>
</svg>
