<?xml version="1.0" encoding="UTF-8" standalone="no"?>
<!DOCTYPE svg PUBLIC "-//W3C//DTD SVG 1.1//EN"
 "http://www.w3.org/Graphics/SVG/1.1/DTD/svg11.dtd">
<!-- Generated by graphviz version 2.50.0 (0)
 -->
<!-- Pages: 1 -->
<svg width="1598pt" height="98pt"
 viewBox="0.00 0.00 1598.00 98.00" xmlns="http://www.w3.org/2000/svg" xmlns:xlink="http://www.w3.org/1999/xlink">
<g id="graph0" class="graph" transform="scale(1 1) rotate(0) translate(4 94)">
<polygon fill="white" stroke="transparent" points="-4,4 -4,-94 1594,-94 1594,4 -4,4"/>
<!-- 6210862480 -->
<g id="node1" class="node">
<title>6210862480</title>
<ellipse fill="green" stroke="black" cx="18" cy="-45" rx="18" ry="18"/>
</g>
<!-- 6209919504 -->
<g id="node2" class="node">
<title>6209919504</title>
<polygon fill="none" stroke="black" points="156,-63 72,-63 72,-27 156,-27 156,-63"/>
<text text-anchor="middle" x="114" y="-41.9" font-family="Times,serif" font-size="12.00">File complaint</text>
</g>
<!-- 6210862480&#45;&gt;6209919504 -->
<g id="edge1" class="edge">
<title>6210862480&#45;&gt;6209919504</title>
<path fill="none" stroke="black" d="M36.24,-45C43.48,-45 52.32,-45 61.39,-45"/>
<polygon fill="black" stroke="black" points="61.66,-48.5 71.66,-45 61.66,-41.5 61.66,-48.5"/>
</g>
<!-- 6209921872 -->
<g id="node3" class="node">
<title>6209921872</title>
<polygon fill="none" stroke="black" points="278,-63 192,-63 192,-27 278,-27 278,-63"/>
<text text-anchor="middle" x="235" y="-41.9" font-family="Times,serif" font-size="12.00">Log complaint</text>
</g>
<!-- 6209919504&#45;&gt;6209921872 -->
<g id="edge2" class="edge">
<title>6209919504&#45;&gt;6209921872</title>
<path fill="none" stroke="black" d="M156.29,-45C164.5,-45 173.22,-45 181.74,-45"/>
<polygon fill="black" stroke="black" points="181.98,-48.5 191.98,-45 181.98,-41.5 181.98,-48.5"/>
</g>
<!-- 6219817488 -->
<g id="node4" class="node">
<title>6219817488</title>
<polygon fill="none" stroke="black" points="521,-63 314,-63 314,-27 521,-27 521,-63"/>
<text text-anchor="middle" x="417.5" y="-41.9" font-family="Times,serif" font-size="12.00">Assign complaint to relevant department</text>
</g>
<!-- 6209921872&#45;&gt;6219817488 -->
<g id="edge3" class="edge">
<title>6209921872&#45;&gt;6219817488</title>
<path fill="none" stroke="black" d="M278.32,-45C286.19,-45 294.75,-45 303.62,-45"/>
<polygon fill="black" stroke="black" points="303.75,-48.5 313.75,-45 303.75,-41.5 303.75,-48.5"/>
</g>
<!-- 6218810704 -->
<g id="node5" class="node">
<title>6218810704</title>
<polygon fill="none" stroke="black" points="693,-63 557,-63 557,-27 693,-27 693,-63"/>
<text text-anchor="middle" x="625" y="-41.9" font-family="Times,serif" font-size="12.00">Review complaint details</text>
</g>
<!-- 6219817488&#45;&gt;6218810704 -->
<g id="edge4" class="edge">
<title>6219817488&#45;&gt;6218810704</title>
<path fill="none" stroke="black" d="M521.25,-45C529.88,-45 538.51,-45 546.9,-45"/>
<polygon fill="black" stroke="black" points="547,-48.5 557,-45 547,-41.5 547,-48.5"/>
</g>
<!-- 6217111248 -->
<g id="node6" class="node">
<title>6217111248</title>
<polygon fill="none" stroke="black" points="756,-63 729,-45 756,-27 783,-45 756,-63"/>
<text text-anchor="middle" x="756" y="-41.9" font-family="Times,serif" font-size="12.00">+</text>
</g>
<!-- 6218810704&#45;&gt;6217111248 -->
<g id="edge5" class="edge">
<title>6218810704&#45;&gt;6217111248</title>
<path fill="none" stroke="black" d="M693.14,-45C702,-45 710.79,-45 718.84,-45"/>
<polygon fill="black" stroke="black" points="718.94,-48.5 728.94,-45 718.94,-41.5 718.94,-48.5"/>
</g>
<!-- 6209926224 -->
<g id="node7" class="node">
<title>6209926224</title>
<polygon fill="none" stroke="black" points="974,-88 819,-88 819,-52 974,-52 974,-88"/>
<text text-anchor="middle" x="896.5" y="-66.9" font-family="Times,serif" font-size="12.00">Approve and notify customer</text>
</g>
<!-- 6217111248&#45;&gt;6209926224 -->
<g id="edge7" class="edge">
<title>6217111248&#45;&gt;6209926224</title>
<path fill="none" stroke="black" d="M777.73,-48.74C786.52,-50.33 797.4,-52.29 808.96,-54.38"/>
<polygon fill="black" stroke="black" points="808.34,-57.82 818.81,-56.16 809.59,-50.94 808.34,-57.82"/>
</g>
<!-- 6218816016 -->
<g id="node8" class="node">
<title>6218816016</title>
<polygon fill="none" stroke="black" points="1153,-36 1010,-36 1010,0 1153,0 1153,-36"/>
<text text-anchor="middle" x="1081.5" y="-14.9" font-family="Times,serif" font-size="12.00">Reject and notify customer</text>
</g>
<!-- 6217111248&#45;&gt;6218816016 -->
<g id="edge6" class="edge">
<title>6217111248&#45;&gt;6218816016</title>
<path fill="none" stroke="black" d="M780.27,-43.06C825.51,-39.28 927.27,-30.79 999.76,-24.74"/>
<polygon fill="black" stroke="black" points="1000.11,-28.22 1009.79,-23.9 999.53,-21.25 1000.11,-28.22"/>
</g>
<!-- 6211804048 -->
<g id="node10" class="node">
<title>6211804048</title>
<polygon fill="none" stroke="black" points="1144,-90 1019,-90 1019,-54 1144,-54 1144,-90"/>
<text text-anchor="middle" x="1081.5" y="-68.9" font-family="Times,serif" font-size="12.00">Process reimbursement</text>
</g>
<!-- 6209926224&#45;&gt;6211804048 -->
<g id="edge8" class="edge">
<title>6209926224&#45;&gt;6211804048</title>
<path fill="none" stroke="black" d="M974.05,-70.84C985.52,-70.96 997.32,-71.09 1008.69,-71.22"/>
<polygon fill="black" stroke="black" points="1008.95,-74.72 1018.99,-71.33 1009.03,-67.72 1008.95,-74.72"/>
</g>
<!-- 6217120464 -->
<g id="node9" class="node">
<title>6217120464</title>
<polygon fill="none" stroke="black" points="1216,-63 1189,-45 1216,-27 1243,-45 1216,-63"/>
<text text-anchor="middle" x="1216" y="-41.9" font-family="Times,serif" font-size="12.00">+</text>
</g>
<!-- 6218816016&#45;&gt;6217120464 -->
<g id="edge9" class="edge">
<title>6218816016&#45;&gt;6217120464</title>
<path fill="none" stroke="black" d="M1153.02,-32.37C1164.36,-34.68 1175.54,-36.96 1185.22,-38.93"/>
<polygon fill="black" stroke="black" points="1184.56,-42.37 1195.06,-40.94 1185.96,-35.51 1184.56,-42.37"/>
</g>
<!-- 6217109008 -->
<g id="node11" class="node">
<title>6217109008</title>
<polygon fill="none" stroke="black" points="1383,-63 1279,-63 1279,-27 1383,-27 1383,-63"/>
<text text-anchor="middle" x="1331" y="-41.9" font-family="Times,serif" font-size="12.00">Resolve complaint</text>
</g>
<!-- 6217120464&#45;&gt;6217109008 -->
<g id="edge11" class="edge">
<title>6217120464&#45;&gt;6217109008</title>
<path fill="none" stroke="black" d="M1243.21,-45C1250.88,-45 1259.62,-45 1268.51,-45"/>
<polygon fill="black" stroke="black" points="1268.58,-48.5 1278.58,-45 1268.58,-41.5 1268.58,-48.5"/>
</g>
<!-- 6211804048&#45;&gt;6217120464 -->
<g id="edge10" class="edge">
<title>6211804048&#45;&gt;6217120464</title>
<path fill="none" stroke="black" d="M1144.1,-59.45C1158.31,-56.55 1172.82,-53.6 1184.97,-51.12"/>
<polygon fill="black" stroke="black" points="1185.88,-54.51 1194.98,-49.08 1184.49,-47.65 1185.88,-54.51"/>
</g>
<!-- 6211811408 -->
<g id="node12" class="node">
<title>6211811408</title>
<polygon fill="none" stroke="black" points="1518,-63 1419,-63 1419,-27 1518,-27 1518,-63"/>
<text text-anchor="middle" x="1468.5" y="-41.9" font-family="Times,serif" font-size="12.00">Provide feedback</text>
</g>
<!-- 6217109008&#45;&gt;6211811408 -->
<g id="edge12" class="edge">
<title>6217109008&#45;&gt;6211811408</title>
<path fill="none" stroke="black" d="M1383.23,-45C1391.54,-45 1400.2,-45 1408.68,-45"/>
<polygon fill="black" stroke="black" points="1408.89,-48.5 1418.89,-45 1408.89,-41.5 1408.89,-48.5"/>
</g>
<!-- 6211799504 -->
<g id="node13" class="node">
<title>6211799504</title>
<ellipse fill="orange" stroke="black" cx="1572" cy="-45" rx="18" ry="18"/>
</g>
<!-- 6211811408&#45;&gt;6211799504 -->
<g id="edge13" class="edge">
<title>6211811408&#45;&gt;6211799504</title>
<path fill="none" stroke="black" d="M1518.17,-45C1526.98,-45 1535.88,-45 1543.8,-45"/>
<polygon fill="black" stroke="black" points="1543.88,-48.5 1553.88,-45 1543.88,-41.5 1543.88,-48.5"/>
</g>
</g>
</svg>
