<?xml version="1.0" encoding="UTF-8" standalone="no"?>
<!DOCTYPE svg PUBLIC "-//W3C//DTD SVG 1.1//EN"
 "http://www.w3.org/Graphics/SVG/1.1/DTD/svg11.dtd">
<!-- Generated by graphviz version 2.50.0 (0)
 -->
<!-- Pages: 1 -->
<svg width="1805pt" height="140pt"
 viewBox="0.00 0.00 1805.00 140.00" xmlns="http://www.w3.org/2000/svg" xmlns:xlink="http://www.w3.org/1999/xlink">
<g id="graph0" class="graph" transform="scale(1 1) rotate(0) translate(4 136)">
<polygon fill="white" stroke="transparent" points="-4,4 -4,-136 1801,-136 1801,4 -4,4"/>
<!-- 6210321808 -->
<g id="node1" class="node">
<title>6210321808</title>
<ellipse fill="green" stroke="black" cx="18" cy="-87" rx="18" ry="18"/>
</g>
<!-- 6219860816 -->
<g id="node2" class="node">
<title>6219860816</title>
<polygon fill="none" stroke="black" points="99,-105 72,-87 99,-69 126,-87 99,-105"/>
<text text-anchor="middle" x="99" y="-83.9" font-family="Times,serif" font-size="12.00">X</text>
</g>
<!-- 6210321808&#45;&gt;6219860816 -->
<g id="edge1" class="edge">
<title>6210321808&#45;&gt;6219860816</title>
<path fill="none" stroke="black" d="M36.14,-87C43.64,-87 52.75,-87 61.64,-87"/>
<polygon fill="black" stroke="black" points="61.87,-90.5 71.87,-87 61.87,-83.5 61.87,-90.5"/>
</g>
<!-- 6211486672 -->
<g id="node3" class="node">
<title>6211486672</title>
<polygon fill="none" stroke="black" points="246,-132 162,-132 162,-96 246,-96 246,-132"/>
<text text-anchor="middle" x="204" y="-110.9" font-family="Times,serif" font-size="12.00">File complaint</text>
</g>
<!-- 6219860816&#45;&gt;6211486672 -->
<g id="edge3" class="edge">
<title>6219860816&#45;&gt;6211486672</title>
<path fill="none" stroke="black" d="M118.89,-91.95C128.24,-94.4 140.02,-97.49 151.78,-100.57"/>
<polygon fill="black" stroke="black" points="151.04,-104 161.6,-103.15 152.82,-97.23 151.04,-104"/>
</g>
<!-- 6214835984 -->
<g id="node4" class="node">
<title>6214835984</title>
<polygon fill="none" stroke="black" points="246,-78 162,-78 162,-42 246,-42 246,-78"/>
<text text-anchor="middle" x="204" y="-56.9" font-family="Times,serif" font-size="12.00">File complaint</text>
</g>
<!-- 6219860816&#45;&gt;6214835984 -->
<g id="edge2" class="edge">
<title>6219860816&#45;&gt;6214835984</title>
<path fill="none" stroke="black" d="M118.89,-82.05C128.24,-79.6 140.02,-76.51 151.78,-73.43"/>
<polygon fill="black" stroke="black" points="152.82,-76.77 161.6,-70.85 151.04,-70 152.82,-76.77"/>
</g>
<!-- 6219154832 -->
<g id="node5" class="node">
<title>6219154832</title>
<polygon fill="none" stroke="black" points="368,-132 282,-132 282,-96 368,-96 368,-132"/>
<text text-anchor="middle" x="325" y="-110.9" font-family="Times,serif" font-size="12.00">Log complaint</text>
</g>
<!-- 6211486672&#45;&gt;6219154832 -->
<g id="edge4" class="edge">
<title>6211486672&#45;&gt;6219154832</title>
<path fill="none" stroke="black" d="M246.29,-114C254.5,-114 263.22,-114 271.74,-114"/>
<polygon fill="black" stroke="black" points="271.98,-117.5 281.98,-114 271.98,-110.5 271.98,-117.5"/>
</g>
<!-- 6210319696 -->
<g id="node6" class="node">
<title>6210319696</title>
<polygon fill="none" stroke="black" points="368,-78 282,-78 282,-42 368,-42 368,-78"/>
<text text-anchor="middle" x="325" y="-56.9" font-family="Times,serif" font-size="12.00">Log complaint</text>
</g>
<!-- 6214835984&#45;&gt;6210319696 -->
<g id="edge5" class="edge">
<title>6214835984&#45;&gt;6210319696</title>
<path fill="none" stroke="black" d="M246.29,-60C254.5,-60 263.22,-60 271.74,-60"/>
<polygon fill="black" stroke="black" points="271.98,-63.5 281.98,-60 271.98,-56.5 271.98,-63.5"/>
</g>
<!-- 6218564752 -->
<g id="node7" class="node">
<title>6218564752</title>
<polygon fill="none" stroke="black" points="611,-132 404,-132 404,-96 611,-96 611,-132"/>
<text text-anchor="middle" x="507.5" y="-110.9" font-family="Times,serif" font-size="12.00">Assign complaint to relevant department</text>
</g>
<!-- 6219154832&#45;&gt;6218564752 -->
<g id="edge6" class="edge">
<title>6219154832&#45;&gt;6218564752</title>
<path fill="none" stroke="black" d="M368.32,-114C376.19,-114 384.75,-114 393.62,-114"/>
<polygon fill="black" stroke="black" points="393.75,-117.5 403.75,-114 393.75,-110.5 393.75,-117.5"/>
</g>
<!-- 6206063952 -->
<g id="node8" class="node">
<title>6206063952</title>
<polygon fill="none" stroke="black" points="611,-78 404,-78 404,-42 611,-42 611,-78"/>
<text text-anchor="middle" x="507.5" y="-56.9" font-family="Times,serif" font-size="12.00">Assign complaint to relevant department</text>
</g>
<!-- 6210319696&#45;&gt;6206063952 -->
<g id="edge7" class="edge">
<title>6210319696&#45;&gt;6206063952</title>
<path fill="none" stroke="black" d="M368.32,-60C376.19,-60 384.75,-60 393.62,-60"/>
<polygon fill="black" stroke="black" points="393.75,-63.5 403.75,-60 393.75,-56.5 393.75,-63.5"/>
</g>
<!-- 6214831760 -->
<g id="node9" class="node">
<title>6214831760</title>
<polygon fill="none" stroke="black" points="783,-132 647,-132 647,-96 783,-96 783,-132"/>
<text text-anchor="middle" x="715" y="-110.9" font-family="Times,serif" font-size="12.00">Review complaint details</text>
</g>
<!-- 6218564752&#45;&gt;6214831760 -->
<g id="edge8" class="edge">
<title>6218564752&#45;&gt;6214831760</title>
<path fill="none" stroke="black" d="M611.25,-114C619.88,-114 628.51,-114 636.9,-114"/>
<polygon fill="black" stroke="black" points="637,-117.5 647,-114 637,-110.5 637,-117.5"/>
</g>
<!-- 6210835344 -->
<g id="node10" class="node">
<title>6210835344</title>
<polygon fill="none" stroke="black" points="783,-78 647,-78 647,-42 783,-42 783,-78"/>
<text text-anchor="middle" x="715" y="-56.9" font-family="Times,serif" font-size="12.00">Review complaint details</text>
</g>
<!-- 6206063952&#45;&gt;6210835344 -->
<g id="edge9" class="edge">
<title>6206063952&#45;&gt;6210835344</title>
<path fill="none" stroke="black" d="M611.25,-60C619.88,-60 628.51,-60 636.9,-60"/>
<polygon fill="black" stroke="black" points="637,-63.5 647,-60 637,-56.5 637,-63.5"/>
</g>
<!-- 6211421712 -->
<g id="node11" class="node">
<title>6211421712</title>
<polygon fill="none" stroke="black" points="974,-132 819,-132 819,-96 974,-96 974,-132"/>
<text text-anchor="middle" x="896.5" y="-110.9" font-family="Times,serif" font-size="12.00">Approve and notify customer</text>
</g>
<!-- 6214831760&#45;&gt;6211421712 -->
<g id="edge10" class="edge">
<title>6214831760&#45;&gt;6211421712</title>
<path fill="none" stroke="black" d="M783.09,-114C791.47,-114 800.12,-114 808.74,-114"/>
<polygon fill="black" stroke="black" points="808.82,-117.5 818.82,-114 808.82,-110.5 808.82,-117.5"/>
</g>
<!-- 6210147024 -->
<g id="node12" class="node">
<title>6210147024</title>
<polygon fill="none" stroke="black" points="968,-78 825,-78 825,-42 968,-42 968,-78"/>
<text text-anchor="middle" x="896.5" y="-56.9" font-family="Times,serif" font-size="12.00">Reject and notify customer</text>
</g>
<!-- 6210835344&#45;&gt;6210147024 -->
<g id="edge11" class="edge">
<title>6210835344&#45;&gt;6210147024</title>
<path fill="none" stroke="black" d="M783.09,-60C793.43,-60 804.2,-60 814.8,-60"/>
<polygon fill="black" stroke="black" points="814.89,-63.5 824.89,-60 814.89,-56.5 814.89,-63.5"/>
</g>
<!-- 6210562704 -->
<g id="node13" class="node">
<title>6210562704</title>
<polygon fill="none" stroke="black" points="1135,-132 1010,-132 1010,-96 1135,-96 1135,-132"/>
<text text-anchor="middle" x="1072.5" y="-110.9" font-family="Times,serif" font-size="12.00">Process reimbursement</text>
</g>
<!-- 6211421712&#45;&gt;6210562704 -->
<g id="edge12" class="edge">
<title>6211421712&#45;&gt;6210562704</title>
<path fill="none" stroke="black" d="M974.07,-114C982.56,-114 991.19,-114 999.62,-114"/>
<polygon fill="black" stroke="black" points="999.78,-117.5 1009.78,-114 999.78,-110.5 999.78,-117.5"/>
</g>
<!-- 6212490064 -->
<g id="node14" class="node">
<title>6212490064</title>
<polygon fill="none" stroke="black" points="1124.5,-78 1020.5,-78 1020.5,-42 1124.5,-42 1124.5,-78"/>
<text text-anchor="middle" x="1072.5" y="-56.9" font-family="Times,serif" font-size="12.00">Resolve complaint</text>
</g>
<!-- 6210147024&#45;&gt;6212490064 -->
<g id="edge13" class="edge">
<title>6210147024&#45;&gt;6212490064</title>
<path fill="none" stroke="black" d="M968.02,-60C981.98,-60 996.53,-60 1010.16,-60"/>
<polygon fill="black" stroke="black" points="1010.38,-63.5 1020.38,-60 1010.38,-56.5 1010.38,-63.5"/>
</g>
<!-- 6214881680 -->
<g id="node16" class="node">
<title>6214881680</title>
<polygon fill="none" stroke="black" points="1275,-132 1171,-132 1171,-96 1275,-96 1275,-132"/>
<text text-anchor="middle" x="1223" y="-110.9" font-family="Times,serif" font-size="12.00">Resolve complaint</text>
</g>
<!-- 6210562704&#45;&gt;6214881680 -->
<g id="edge14" class="edge">
<title>6210562704&#45;&gt;6214881680</title>
<path fill="none" stroke="black" d="M1135.19,-114C1143.57,-114 1152.18,-114 1160.56,-114"/>
<polygon fill="black" stroke="black" points="1160.64,-117.5 1170.64,-114 1160.64,-110.5 1160.64,-117.5"/>
</g>
<!-- 6211801936 -->
<g id="node15" class="node">
<title>6211801936</title>
<polygon fill="none" stroke="black" points="1223,-78 1196,-60 1223,-42 1250,-60 1223,-78"/>
<text text-anchor="middle" x="1223" y="-56.9" font-family="Times,serif" font-size="12.00">X</text>
</g>
<!-- 6212490064&#45;&gt;6211801936 -->
<g id="edge15" class="edge">
<title>6212490064&#45;&gt;6211801936</title>
<path fill="none" stroke="black" d="M1124.61,-60C1144.76,-60 1167.44,-60 1185.84,-60"/>
<polygon fill="black" stroke="black" points="1185.85,-63.5 1195.85,-60 1185.85,-56.5 1185.85,-63.5"/>
</g>
<!-- 6219866960 -->
<g id="node18" class="node">
<title>6219866960</title>
<polygon fill="none" stroke="black" points="1495.5,-55 1468.5,-37 1495.5,-19 1522.5,-37 1495.5,-55"/>
<text text-anchor="middle" x="1495.5" y="-33.9" font-family="Times,serif" font-size="12.00">X</text>
</g>
<!-- 6211801936&#45;&gt;6219866960 -->
<g id="edge16" class="edge">
<title>6211801936&#45;&gt;6219866960</title>
<path fill="none" stroke="black" d="M1247.5,-58.21C1282.79,-55.5 1351.59,-50.12 1410,-45 1426.94,-43.52 1445.77,-41.74 1461.35,-40.25"/>
<polygon fill="black" stroke="black" points="1461.94,-43.71 1471.55,-39.26 1461.26,-36.74 1461.94,-43.71"/>
</g>
<!-- 6213367888 -->
<g id="node19" class="node">
<title>6213367888</title>
<polygon fill="none" stroke="black" points="1410,-36 1311,-36 1311,0 1410,0 1410,-36"/>
<text text-anchor="middle" x="1360.5" y="-14.9" font-family="Times,serif" font-size="12.00">Provide feedback</text>
</g>
<!-- 6211801936&#45;&gt;6213367888 -->
<g id="edge17" class="edge">
<title>6211801936&#45;&gt;6213367888</title>
<path fill="none" stroke="black" d="M1241.99,-54.42C1257.16,-49.72 1279.75,-42.72 1301.08,-36.11"/>
<polygon fill="black" stroke="black" points="1302.25,-39.41 1310.76,-33.11 1300.17,-32.72 1302.25,-39.41"/>
</g>
<!-- 6214048080 -->
<g id="node17" class="node">
<title>6214048080</title>
<polygon fill="none" stroke="black" points="1360.5,-132 1333.5,-114 1360.5,-96 1387.5,-114 1360.5,-132"/>
<text text-anchor="middle" x="1360.5" y="-110.9" font-family="Times,serif" font-size="12.00">X</text>
</g>
<!-- 6214881680&#45;&gt;6214048080 -->
<g id="edge18" class="edge">
<title>6214881680&#45;&gt;6214048080</title>
<path fill="none" stroke="black" d="M1275.23,-114C1291.15,-114 1308.36,-114 1323.06,-114"/>
<polygon fill="black" stroke="black" points="1323.26,-117.5 1333.26,-114 1323.26,-110.5 1323.26,-117.5"/>
</g>
<!-- 6219872400 -->
<g id="node21" class="node">
<title>6219872400</title>
<polygon fill="none" stroke="black" points="1608,-109 1581,-91 1608,-73 1635,-91 1608,-109"/>
<text text-anchor="middle" x="1608" y="-87.9" font-family="Times,serif" font-size="12.00">X</text>
</g>
<!-- 6214048080&#45;&gt;6219872400 -->
<g id="edge20" class="edge">
<title>6214048080&#45;&gt;6219872400</title>
<path fill="none" stroke="black" d="M1382.42,-117.49C1416.78,-122.54 1487.13,-130.05 1545,-118 1558.33,-115.22 1572.32,-109.42 1583.62,-103.9"/>
<polygon fill="black" stroke="black" points="1585.48,-106.88 1592.78,-99.21 1582.28,-100.65 1585.48,-106.88"/>
</g>
<!-- 6212114960 -->
<g id="node22" class="node">
<title>6212114960</title>
<polygon fill="none" stroke="black" points="1545,-109 1446,-109 1446,-73 1545,-73 1545,-109"/>
<text text-anchor="middle" x="1495.5" y="-87.9" font-family="Times,serif" font-size="12.00">Provide feedback</text>
</g>
<!-- 6214048080&#45;&gt;6212114960 -->
<g id="edge21" class="edge">
<title>6214048080&#45;&gt;6212114960</title>
<path fill="none" stroke="black" d="M1382.28,-110.41C1396.71,-107.91 1416.72,-104.45 1435.84,-101.14"/>
<polygon fill="black" stroke="black" points="1436.47,-104.59 1445.73,-99.43 1435.28,-97.69 1436.47,-104.59"/>
</g>
<!-- 6210319824 -->
<g id="node20" class="node">
<title>6210319824</title>
<polygon fill="none" stroke="black" points="1698,-86 1671,-68 1698,-50 1725,-68 1698,-86"/>
<text text-anchor="middle" x="1698" y="-64.9" font-family="Times,serif" font-size="12.00">X</text>
</g>
<!-- 6219866960&#45;&gt;6210319824 -->
<g id="edge22" class="edge">
<title>6219866960&#45;&gt;6210319824</title>
<path fill="none" stroke="black" d="M1517.96,-40.32C1553.46,-45.81 1624.57,-56.8 1665.69,-63.16"/>
<polygon fill="black" stroke="black" points="1665.28,-66.64 1675.7,-64.71 1666.35,-59.72 1665.28,-66.64"/>
</g>
<!-- 6213367888&#45;&gt;6219866960 -->
<g id="edge19" class="edge">
<title>6213367888&#45;&gt;6219866960</title>
<path fill="none" stroke="black" d="M1410.27,-24.97C1427.74,-27.46 1446.97,-30.21 1462.64,-32.45"/>
<polygon fill="black" stroke="black" points="1462.46,-35.96 1472.85,-33.91 1463.45,-29.03 1462.46,-35.96"/>
</g>
<!-- 6212117456 -->
<g id="node23" class="node">
<title>6212117456</title>
<ellipse fill="orange" stroke="black" cx="1779" cy="-68" rx="18" ry="18"/>
</g>
<!-- 6210319824&#45;&gt;6212117456 -->
<g id="edge25" class="edge">
<title>6210319824&#45;&gt;6212117456</title>
<path fill="none" stroke="black" d="M1725.31,-68C1733.42,-68 1742.37,-68 1750.56,-68"/>
<polygon fill="black" stroke="black" points="1750.75,-71.5 1760.75,-68 1750.75,-64.5 1750.75,-71.5"/>
</g>
<!-- 6219872400&#45;&gt;6210319824 -->
<g id="edge23" class="edge">
<title>6219872400&#45;&gt;6210319824</title>
<path fill="none" stroke="black" d="M1628.09,-86.01C1639.82,-82.94 1655.07,-78.96 1668.24,-75.52"/>
<polygon fill="black" stroke="black" points="1669.45,-78.82 1678.24,-72.9 1667.68,-72.04 1669.45,-78.82"/>
</g>
<!-- 6212114960&#45;&gt;6219872400 -->
<g id="edge24" class="edge">
<title>6212114960&#45;&gt;6219872400</title>
<path fill="none" stroke="black" d="M1545.29,-91C1553.81,-91 1562.54,-91 1570.65,-91"/>
<polygon fill="black" stroke="black" points="1570.89,-94.5 1580.89,-91 1570.89,-87.5 1570.89,-94.5"/>
</g>
</g>
</svg>
