<?xml version="1.0" encoding="UTF-8" standalone="no"?>
<!DOCTYPE svg PUBLIC "-//W3C//DTD SVG 1.1//EN"
 "http://www.w3.org/Graphics/SVG/1.1/DTD/svg11.dtd">
<!-- Generated by graphviz version 2.50.0 (0)
 -->
<!-- Pages: 1 -->
<svg width="1556pt" height="476pt"
 viewBox="0.00 0.00 1556.00 476.00" xmlns="http://www.w3.org/2000/svg" xmlns:xlink="http://www.w3.org/1999/xlink">
<g id="graph0" class="graph" transform="scale(1 1) rotate(0) translate(4 472)">
<polygon fill="white" stroke="transparent" points="-4,4 -4,-472 1552,-472 1552,4 -4,4"/>
<!-- 6213366864 -->
<g id="node1" class="node">
<title>6213366864</title>
<ellipse fill="green" stroke="black" cx="18" cy="-363" rx="18" ry="18"/>
</g>
<!-- 6206493008 -->
<g id="node2" class="node">
<title>6206493008</title>
<polygon fill="none" stroke="black" points="99,-381 72,-363 99,-345 126,-363 99,-381"/>
<text text-anchor="middle" x="99" y="-359.9" font-family="Times,serif" font-size="12.00">+</text>
</g>
<!-- 6213366864&#45;&gt;6206493008 -->
<g id="edge1" class="edge">
<title>6213366864&#45;&gt;6206493008</title>
<path fill="none" stroke="black" d="M36.14,-363C43.64,-363 52.75,-363 61.64,-363"/>
<polygon fill="black" stroke="black" points="61.87,-366.5 71.87,-363 61.87,-359.5 61.87,-366.5"/>
</g>
<!-- 6219872336 -->
<g id="node3" class="node">
<title>6219872336</title>
<polygon fill="none" stroke="black" points="275.5,-411 191.5,-411 191.5,-375 275.5,-375 275.5,-411"/>
<text text-anchor="middle" x="233.5" y="-389.9" font-family="Times,serif" font-size="12.00">File complaint</text>
</g>
<!-- 6206493008&#45;&gt;6219872336 -->
<g id="edge2" class="edge">
<title>6206493008&#45;&gt;6219872336</title>
<path fill="none" stroke="black" d="M119.55,-367.43C135.84,-371.12 159.8,-376.54 181.47,-381.45"/>
<polygon fill="black" stroke="black" points="180.7,-384.86 191.23,-383.65 182.25,-378.03 180.7,-384.86"/>
</g>
<!-- 6220608080 -->
<g id="node4" class="node">
<title>6220608080</title>
<polygon fill="none" stroke="black" points="305,-354 162,-354 162,-318 305,-318 305,-354"/>
<text text-anchor="middle" x="233.5" y="-332.9" font-family="Times,serif" font-size="12.00">Reject and notify customer</text>
</g>
<!-- 6206493008&#45;&gt;6220608080 -->
<g id="edge3" class="edge">
<title>6206493008&#45;&gt;6220608080</title>
<path fill="none" stroke="black" d="M120.12,-358.9C129,-357.09 140.08,-354.83 151.79,-352.45"/>
<polygon fill="black" stroke="black" points="152.64,-355.85 161.74,-350.42 151.24,-348.99 152.64,-355.85"/>
</g>
<!-- 6211429904 -->
<g id="node6" class="node">
<title>6211429904</title>
<polygon fill="none" stroke="black" points="446.5,-413 360.5,-413 360.5,-377 446.5,-377 446.5,-413"/>
<text text-anchor="middle" x="403.5" y="-391.9" font-family="Times,serif" font-size="12.00">Log complaint</text>
</g>
<!-- 6219872336&#45;&gt;6211429904 -->
<g id="edge4" class="edge">
<title>6219872336&#45;&gt;6211429904</title>
<path fill="none" stroke="black" d="M275.6,-393.49C298.12,-393.76 326.27,-394.09 350.33,-394.38"/>
<polygon fill="black" stroke="black" points="350.33,-397.88 360.37,-394.5 350.41,-390.88 350.33,-397.88"/>
</g>
<!-- 6206500944 -->
<g id="node5" class="node">
<title>6206500944</title>
<polygon fill="none" stroke="black" points="466,-347 341,-347 341,-311 466,-311 466,-347"/>
<text text-anchor="middle" x="403.5" y="-325.9" font-family="Times,serif" font-size="12.00">Process reimbursement</text>
</g>
<!-- 6220608080&#45;&gt;6206500944 -->
<g id="edge5" class="edge">
<title>6220608080&#45;&gt;6206500944</title>
<path fill="none" stroke="black" d="M305.26,-333.05C313.68,-332.7 322.27,-332.34 330.7,-331.99"/>
<polygon fill="black" stroke="black" points="331.03,-335.48 340.88,-331.57 330.74,-328.49 331.03,-335.48"/>
</g>
<!-- 6211424656 -->
<g id="node8" class="node">
<title>6211424656</title>
<polygon fill="none" stroke="black" points="683,-334 528,-334 528,-298 683,-298 683,-334"/>
<text text-anchor="middle" x="605.5" y="-312.9" font-family="Times,serif" font-size="12.00">Approve and notify customer</text>
</g>
<!-- 6206500944&#45;&gt;6211424656 -->
<g id="edge6" class="edge">
<title>6206500944&#45;&gt;6211424656</title>
<path fill="none" stroke="black" d="M466.14,-324.99C482.45,-323.93 500.36,-322.77 517.74,-321.64"/>
<polygon fill="black" stroke="black" points="518.14,-325.12 527.89,-320.98 517.68,-318.14 518.14,-325.12"/>
</g>
<!-- 6210314576 -->
<g id="node7" class="node">
<title>6210314576</title>
<polygon fill="none" stroke="black" points="709,-414 502,-414 502,-378 709,-378 709,-414"/>
<text text-anchor="middle" x="605.5" y="-392.9" font-family="Times,serif" font-size="12.00">Assign complaint to relevant department</text>
</g>
<!-- 6211429904&#45;&gt;6210314576 -->
<g id="edge7" class="edge">
<title>6211429904&#45;&gt;6210314576</title>
<path fill="none" stroke="black" d="M446.91,-395.21C460.18,-395.28 475.49,-395.35 491.25,-395.43"/>
<polygon fill="black" stroke="black" points="491.64,-398.94 501.65,-395.49 491.67,-391.94 491.64,-398.94"/>
</g>
<!-- 6219858640 -->
<g id="node9" class="node">
<title>6219858640</title>
<polygon fill="none" stroke="black" points="881,-414 745,-414 745,-378 881,-378 881,-414"/>
<text text-anchor="middle" x="813" y="-392.9" font-family="Times,serif" font-size="12.00">Review complaint details</text>
</g>
<!-- 6210314576&#45;&gt;6219858640 -->
<g id="edge8" class="edge">
<title>6210314576&#45;&gt;6219858640</title>
<path fill="none" stroke="black" d="M709.25,-396C717.88,-396 726.51,-396 734.9,-396"/>
<polygon fill="black" stroke="black" points="735,-399.5 745,-396 735,-392.5 735,-399.5"/>
</g>
<!-- 6217301072 -->
<g id="node10" class="node">
<title>6217301072</title>
<polygon fill="none" stroke="black" points="865,-307 761,-307 761,-271 865,-271 865,-307"/>
<text text-anchor="middle" x="813" y="-285.9" font-family="Times,serif" font-size="12.00">Resolve complaint</text>
</g>
<!-- 6211424656&#45;&gt;6217301072 -->
<g id="edge9" class="edge">
<title>6211424656&#45;&gt;6217301072</title>
<path fill="none" stroke="black" d="M683.02,-305.95C705.38,-303.01 729.52,-299.84 750.79,-297.04"/>
<polygon fill="black" stroke="black" points="751.53,-300.48 760.99,-295.7 750.62,-293.53 751.53,-300.48"/>
</g>
<!-- 6210313552 -->
<g id="node11" class="node">
<title>6210313552</title>
<polygon fill="none" stroke="black" points="966.5,-414 939.5,-396 966.5,-378 993.5,-396 966.5,-414"/>
<text text-anchor="middle" x="966.5" y="-392.9" font-family="Times,serif" font-size="12.00">X</text>
</g>
<!-- 6219858640&#45;&gt;6210313552 -->
<g id="edge10" class="edge">
<title>6219858640&#45;&gt;6210313552</title>
<path fill="none" stroke="black" d="M881.33,-396C897.71,-396 914.61,-396 928.94,-396"/>
<polygon fill="black" stroke="black" points="929.33,-399.5 939.33,-396 929.33,-392.5 929.33,-399.5"/>
</g>
<!-- 6219683792 -->
<g id="node12" class="node">
<title>6219683792</title>
<polygon fill="none" stroke="black" points="1016,-253 917,-253 917,-217 1016,-217 1016,-253"/>
<text text-anchor="middle" x="966.5" y="-231.9" font-family="Times,serif" font-size="12.00">Provide feedback</text>
</g>
<!-- 6217301072&#45;&gt;6219683792 -->
<g id="edge11" class="edge">
<title>6217301072&#45;&gt;6219683792</title>
<path fill="none" stroke="black" d="M864.87,-270.87C878.49,-266.01 893.32,-260.73 907.3,-255.75"/>
<polygon fill="black" stroke="black" points="908.57,-259.01 916.82,-252.35 906.22,-252.41 908.57,-259.01"/>
</g>
<!-- 6219860240 -->
<g id="node14" class="node">
<title>6219860240</title>
<polygon fill="none" stroke="black" points="1207,-468 1052,-468 1052,-432 1207,-432 1207,-468"/>
<text text-anchor="middle" x="1129.5" y="-446.9" font-family="Times,serif" font-size="12.00">Approve and notify customer</text>
</g>
<!-- 6210313552&#45;&gt;6219860240 -->
<g id="edge12" class="edge">
<title>6210313552&#45;&gt;6219860240</title>
<path fill="none" stroke="black" d="M985.04,-401.88C1004.22,-408.32 1036.09,-419 1064.92,-428.68"/>
<polygon fill="black" stroke="black" points="1063.97,-432.05 1074.56,-431.91 1066.19,-425.41 1063.97,-432.05"/>
</g>
<!-- 6219868752 -->
<g id="node15" class="node">
<title>6219868752</title>
<polygon fill="none" stroke="black" points="1201,-414 1058,-414 1058,-378 1201,-378 1201,-414"/>
<text text-anchor="middle" x="1129.5" y="-392.9" font-family="Times,serif" font-size="12.00">Reject and notify customer</text>
</g>
<!-- 6210313552&#45;&gt;6219868752 -->
<g id="edge13" class="edge">
<title>6210313552&#45;&gt;6219868752</title>
<path fill="none" stroke="black" d="M993.73,-396C1008.6,-396 1028.1,-396 1047.62,-396"/>
<polygon fill="black" stroke="black" points="1047.81,-399.5 1057.81,-396 1047.81,-392.5 1047.81,-399.5"/>
</g>
<!-- 6219682512 -->
<g id="node13" class="node">
<title>6219682512</title>
<polygon fill="none" stroke="black" points="1129.5,-252 1102.5,-234 1129.5,-216 1156.5,-234 1129.5,-252"/>
<text text-anchor="middle" x="1129.5" y="-230.9" font-family="Times,serif" font-size="12.00">+</text>
</g>
<!-- 6219683792&#45;&gt;6219682512 -->
<g id="edge14" class="edge">
<title>6219683792&#45;&gt;6219682512</title>
<path fill="none" stroke="black" d="M1016.24,-234.7C1040.69,-234.55 1069.79,-234.36 1092.24,-234.23"/>
<polygon fill="black" stroke="black" points="1092.38,-237.72 1102.36,-234.16 1092.34,-230.72 1092.38,-237.72"/>
</g>
<!-- 6206501328 -->
<g id="node17" class="node">
<title>6206501328</title>
<polygon fill="none" stroke="black" points="1386,-414 1243,-414 1243,-378 1386,-378 1386,-414"/>
<text text-anchor="middle" x="1314.5" y="-392.9" font-family="Times,serif" font-size="12.00">Reject and notify customer</text>
</g>
<!-- 6219682512&#45;&gt;6206501328 -->
<g id="edge21" class="edge">
<title>6219682512&#45;&gt;6206501328</title>
<path fill="none" stroke="black" d="M1137.88,-246.64C1153.85,-272.94 1194.12,-334.03 1243,-369 1244.86,-370.33 1246.8,-371.61 1248.79,-372.83"/>
<polygon fill="black" stroke="black" points="1247.38,-376.05 1257.82,-377.84 1250.77,-369.93 1247.38,-376.05"/>
</g>
<!-- 6211435920 -->
<g id="node18" class="node">
<title>6211435920</title>
<polygon fill="none" stroke="black" points="1386,-360 1243,-360 1243,-324 1386,-324 1386,-360"/>
<text text-anchor="middle" x="1314.5" y="-338.9" font-family="Times,serif" font-size="12.00">Reject and notify customer</text>
</g>
<!-- 6219682512&#45;&gt;6211435920 -->
<g id="edge16" class="edge">
<title>6219682512&#45;&gt;6211435920</title>
<path fill="none" stroke="black" d="M1141.98,-243.82C1161.62,-260.26 1203.39,-293.63 1243,-315 1246.03,-316.64 1249.19,-318.22 1252.4,-319.75"/>
<polygon fill="black" stroke="black" points="1251.04,-322.97 1261.6,-323.89 1253.92,-316.59 1251.04,-322.97"/>
</g>
<!-- 6211424784 -->
<g id="node19" class="node">
<title>6211424784</title>
<polygon fill="none" stroke="black" points="1386,-306 1243,-306 1243,-270 1386,-270 1386,-306"/>
<text text-anchor="middle" x="1314.5" y="-284.9" font-family="Times,serif" font-size="12.00">Reject and notify customer</text>
</g>
<!-- 6219682512&#45;&gt;6211424784 -->
<g id="edge17" class="edge">
<title>6219682512&#45;&gt;6211424784</title>
<path fill="none" stroke="black" d="M1148.72,-239.38C1170.52,-245.81 1208.35,-256.97 1242.27,-266.98"/>
<polygon fill="black" stroke="black" points="1241.6,-270.43 1252.18,-269.9 1243.58,-263.72 1241.6,-270.43"/>
</g>
<!-- 6212629648 -->
<g id="node20" class="node">
<title>6212629648</title>
<polygon fill="none" stroke="black" points="1386,-252 1243,-252 1243,-216 1386,-216 1386,-252"/>
<text text-anchor="middle" x="1314.5" y="-230.9" font-family="Times,serif" font-size="12.00">Reject and notify customer</text>
</g>
<!-- 6219682512&#45;&gt;6212629648 -->
<g id="edge15" class="edge">
<title>6219682512&#45;&gt;6212629648</title>
<path fill="none" stroke="black" d="M1156.72,-234C1176.7,-234 1205.35,-234 1232.7,-234"/>
<polygon fill="black" stroke="black" points="1232.7,-237.5 1242.7,-234 1232.7,-230.5 1232.7,-237.5"/>
</g>
<!-- 6220152912 -->
<g id="node21" class="node">
<title>6220152912</title>
<polygon fill="none" stroke="black" points="1386,-198 1243,-198 1243,-162 1386,-162 1386,-198"/>
<text text-anchor="middle" x="1314.5" y="-176.9" font-family="Times,serif" font-size="12.00">Reject and notify customer</text>
</g>
<!-- 6219682512&#45;&gt;6220152912 -->
<g id="edge20" class="edge">
<title>6219682512&#45;&gt;6220152912</title>
<path fill="none" stroke="black" d="M1148.72,-228.62C1170.52,-222.19 1208.35,-211.03 1242.27,-201.02"/>
<polygon fill="black" stroke="black" points="1243.58,-204.28 1252.18,-198.1 1241.6,-197.57 1243.58,-204.28"/>
</g>
<!-- 6211461648 -->
<g id="node22" class="node">
<title>6211461648</title>
<polygon fill="none" stroke="black" points="1386,-144 1243,-144 1243,-108 1386,-108 1386,-144"/>
<text text-anchor="middle" x="1314.5" y="-122.9" font-family="Times,serif" font-size="12.00">Reject and notify customer</text>
</g>
<!-- 6219682512&#45;&gt;6211461648 -->
<g id="edge18" class="edge">
<title>6219682512&#45;&gt;6211461648</title>
<path fill="none" stroke="black" d="M1141.98,-224.18C1161.62,-207.74 1203.39,-174.37 1243,-153 1246.03,-151.36 1249.19,-149.78 1252.4,-148.25"/>
<polygon fill="black" stroke="black" points="1253.92,-151.41 1261.6,-144.11 1251.04,-145.03 1253.92,-151.41"/>
</g>
<!-- 6206094352 -->
<g id="node23" class="node">
<title>6206094352</title>
<polygon fill="none" stroke="black" points="1386,-90 1243,-90 1243,-54 1386,-54 1386,-90"/>
<text text-anchor="middle" x="1314.5" y="-68.9" font-family="Times,serif" font-size="12.00">Reject and notify customer</text>
</g>
<!-- 6219682512&#45;&gt;6206094352 -->
<g id="edge19" class="edge">
<title>6219682512&#45;&gt;6206094352</title>
<path fill="none" stroke="black" d="M1137.88,-221.36C1153.85,-195.06 1194.12,-133.97 1243,-99 1244.86,-97.67 1246.8,-96.39 1248.79,-95.17"/>
<polygon fill="black" stroke="black" points="1250.77,-98.07 1257.82,-90.16 1247.38,-91.95 1250.77,-98.07"/>
</g>
<!-- 6219867984 -->
<g id="node24" class="node">
<title>6219867984</title>
<polygon fill="none" stroke="black" points="1386,-36 1243,-36 1243,0 1386,0 1386,-36"/>
<text text-anchor="middle" x="1314.5" y="-14.9" font-family="Times,serif" font-size="12.00">Reject and notify customer</text>
</g>
<!-- 6219682512&#45;&gt;6219867984 -->
<g id="edge22" class="edge">
<title>6219682512&#45;&gt;6219867984</title>
<path fill="none" stroke="black" d="M1135.25,-219.73C1147.53,-184.96 1183.56,-95.05 1243,-45 1244.5,-43.73 1246.07,-42.52 1247.7,-41.37"/>
<polygon fill="black" stroke="black" points="1249.59,-44.31 1256.19,-36.02 1245.86,-38.38 1249.59,-44.31"/>
</g>
<!-- 6210311184 -->
<g id="node16" class="node">
<title>6210311184</title>
<polygon fill="none" stroke="black" points="1314.5,-468 1287.5,-450 1314.5,-432 1341.5,-450 1314.5,-468"/>
<text text-anchor="middle" x="1314.5" y="-446.9" font-family="Times,serif" font-size="12.00">X</text>
</g>
<!-- 6219860240&#45;&gt;6210311184 -->
<g id="edge23" class="edge">
<title>6219860240&#45;&gt;6210311184</title>
<path fill="none" stroke="black" d="M1207.05,-450C1231.29,-450 1256.97,-450 1277.04,-450"/>
<polygon fill="black" stroke="black" points="1277.27,-453.5 1287.27,-450 1277.27,-446.5 1277.27,-453.5"/>
</g>
<!-- 6219868752&#45;&gt;6210311184 -->
<g id="edge24" class="edge">
<title>6219868752&#45;&gt;6210311184</title>
<path fill="none" stroke="black" d="M1191.69,-414.06C1223.33,-423.39 1260.42,-434.34 1285.29,-441.67"/>
<polygon fill="black" stroke="black" points="1284.56,-445.11 1295.14,-444.58 1286.54,-438.4 1284.56,-445.11"/>
</g>
<!-- 6219859408 -->
<g id="node25" class="node">
<title>6219859408</title>
<polygon fill="none" stroke="black" points="1449,-252 1422,-234 1449,-216 1476,-234 1449,-252"/>
<text text-anchor="middle" x="1449" y="-230.9" font-family="Times,serif" font-size="12.00">+</text>
</g>
<!-- 6210311184&#45;&gt;6219859408 -->
<g id="edge25" class="edge">
<title>6210311184&#45;&gt;6219859408</title>
<path fill="none" stroke="black" d="M1337.03,-446.8C1352.59,-443.41 1373.07,-436.57 1386,-423 1429.3,-377.53 1442.37,-301.31 1446.31,-260.95"/>
<polygon fill="black" stroke="black" points="1449.81,-261.07 1447.18,-250.81 1442.84,-260.47 1449.81,-261.07"/>
</g>
<!-- 6206501328&#45;&gt;6219859408 -->
<g id="edge26" class="edge">
<title>6206501328&#45;&gt;6219859408</title>
<path fill="none" stroke="black" d="M1374.24,-377.81C1378.47,-375.24 1382.46,-372.32 1386,-369 1417.98,-339.02 1434.83,-289.35 1442.54,-259.34"/>
<polygon fill="black" stroke="black" points="1445.94,-260.15 1444.89,-249.61 1439.14,-258.51 1445.94,-260.15"/>
</g>
<!-- 6211435920&#45;&gt;6219859408 -->
<g id="edge27" class="edge">
<title>6211435920&#45;&gt;6219859408</title>
<path fill="none" stroke="black" d="M1371.68,-323.85C1376.73,-321.23 1381.59,-318.29 1386,-315 1407.38,-299.02 1425.08,-273.78 1436.02,-255.72"/>
<polygon fill="black" stroke="black" points="1439.08,-257.42 1441.11,-247.02 1433.04,-253.89 1439.08,-257.42"/>
</g>
<!-- 6211424784&#45;&gt;6219859408 -->
<g id="edge28" class="edge">
<title>6211424784&#45;&gt;6219859408</title>
<path fill="none" stroke="black" d="M1363.4,-269.99C1370.98,-267.04 1378.72,-263.98 1386,-261 1398.27,-255.98 1411.78,-250.14 1423.05,-245.17"/>
<polygon fill="black" stroke="black" points="1424.56,-248.33 1432.28,-241.08 1421.72,-241.93 1424.56,-248.33"/>
</g>
<!-- 6212629648&#45;&gt;6219859408 -->
<g id="edge29" class="edge">
<title>6212629648&#45;&gt;6219859408</title>
<path fill="none" stroke="black" d="M1386.02,-234C1394.96,-234 1403.79,-234 1411.87,-234"/>
<polygon fill="black" stroke="black" points="1411.99,-237.5 1421.99,-234 1411.99,-230.5 1411.99,-237.5"/>
</g>
<!-- 6220152912&#45;&gt;6219859408 -->
<g id="edge30" class="edge">
<title>6220152912&#45;&gt;6219859408</title>
<path fill="none" stroke="black" d="M1363.4,-198.01C1370.98,-200.96 1378.72,-204.02 1386,-207 1398.27,-212.02 1411.78,-217.86 1423.05,-222.83"/>
<polygon fill="black" stroke="black" points="1421.72,-226.07 1432.28,-226.92 1424.56,-219.67 1421.72,-226.07"/>
</g>
<!-- 6211461648&#45;&gt;6219859408 -->
<g id="edge31" class="edge">
<title>6211461648&#45;&gt;6219859408</title>
<path fill="none" stroke="black" d="M1371.68,-144.15C1376.73,-146.77 1381.59,-149.71 1386,-153 1407.38,-168.98 1425.08,-194.22 1436.02,-212.28"/>
<polygon fill="black" stroke="black" points="1433.04,-214.11 1441.11,-220.98 1439.08,-210.58 1433.04,-214.11"/>
</g>
<!-- 6206094352&#45;&gt;6219859408 -->
<g id="edge32" class="edge">
<title>6206094352&#45;&gt;6219859408</title>
<path fill="none" stroke="black" d="M1374.24,-90.19C1378.47,-92.76 1382.46,-95.68 1386,-99 1417.98,-128.98 1434.83,-178.65 1442.54,-208.66"/>
<polygon fill="black" stroke="black" points="1439.14,-209.49 1444.89,-218.39 1445.94,-207.85 1439.14,-209.49"/>
</g>
<!-- 6219867984&#45;&gt;6219859408 -->
<g id="edge33" class="edge">
<title>6219867984&#45;&gt;6219859408</title>
<path fill="none" stroke="black" d="M1375.33,-36.2C1379.22,-38.76 1382.84,-41.68 1386,-45 1429.3,-90.47 1442.37,-166.69 1446.31,-207.05"/>
<polygon fill="black" stroke="black" points="1442.84,-207.53 1447.18,-217.19 1449.81,-206.93 1442.84,-207.53"/>
</g>
<!-- 6211487696 -->
<g id="node26" class="node">
<title>6211487696</title>
<ellipse fill="orange" stroke="black" cx="1530" cy="-234" rx="18" ry="18"/>
</g>
<!-- 6219859408&#45;&gt;6211487696 -->
<g id="edge34" class="edge">
<title>6219859408&#45;&gt;6211487696</title>
<path fill="none" stroke="black" d="M1476.31,-234C1484.42,-234 1493.37,-234 1501.56,-234"/>
<polygon fill="black" stroke="black" points="1501.75,-237.5 1511.75,-234 1501.75,-230.5 1501.75,-237.5"/>
</g>
</g>
</svg>
