<?xml version="1.0" encoding="UTF-8" standalone="no"?>
<!DOCTYPE svg PUBLIC "-//W3C//DTD SVG 1.1//EN"
 "http://www.w3.org/Graphics/SVG/1.1/DTD/svg11.dtd">
<!-- Generated by graphviz version 2.50.0 (0)
 -->
<!-- Pages: 1 -->
<svg width="2250pt" height="98pt"
 viewBox="0.00 0.00 2250.00 98.00" xmlns="http://www.w3.org/2000/svg" xmlns:xlink="http://www.w3.org/1999/xlink">
<g id="graph0" class="graph" transform="scale(1 1) rotate(0) translate(4 94)">
<polygon fill="white" stroke="transparent" points="-4,4 -4,-94 2246,-94 2246,4 -4,4"/>
<!-- 6217877840 -->
<g id="node1" class="node">
<title>6217877840</title>
<ellipse fill="green" stroke="black" cx="18" cy="-45" rx="18" ry="18"/>
</g>
<!-- 6214892496 -->
<g id="node2" class="node">
<title>6214892496</title>
<polygon fill="none" stroke="black" points="156,-63 72,-63 72,-27 156,-27 156,-63"/>
<text text-anchor="middle" x="114" y="-41.9" font-family="Times,serif" font-size="12.00">File complaint</text>
</g>
<!-- 6217877840&#45;&gt;6214892496 -->
<g id="edge1" class="edge">
<title>6217877840&#45;&gt;6214892496</title>
<path fill="none" stroke="black" d="M36.24,-45C43.48,-45 52.32,-45 61.39,-45"/>
<polygon fill="black" stroke="black" points="61.66,-48.5 71.66,-45 61.66,-41.5 61.66,-48.5"/>
</g>
<!-- 6218662992 -->
<g id="node3" class="node">
<title>6218662992</title>
<polygon fill="none" stroke="black" points="278,-63 192,-63 192,-27 278,-27 278,-63"/>
<text text-anchor="middle" x="235" y="-41.9" font-family="Times,serif" font-size="12.00">Log complaint</text>
</g>
<!-- 6214892496&#45;&gt;6218662992 -->
<g id="edge2" class="edge">
<title>6214892496&#45;&gt;6218662992</title>
<path fill="none" stroke="black" d="M156.29,-45C164.5,-45 173.22,-45 181.74,-45"/>
<polygon fill="black" stroke="black" points="181.98,-48.5 191.98,-45 181.98,-41.5 181.98,-48.5"/>
</g>
<!-- 6220431120 -->
<g id="node4" class="node">
<title>6220431120</title>
<polygon fill="none" stroke="black" points="521,-63 314,-63 314,-27 521,-27 521,-63"/>
<text text-anchor="middle" x="417.5" y="-41.9" font-family="Times,serif" font-size="12.00">Assign complaint to relevant department</text>
</g>
<!-- 6218662992&#45;&gt;6220431120 -->
<g id="edge3" class="edge">
<title>6218662992&#45;&gt;6220431120</title>
<path fill="none" stroke="black" d="M278.32,-45C286.19,-45 294.75,-45 303.62,-45"/>
<polygon fill="black" stroke="black" points="303.75,-48.5 313.75,-45 303.75,-41.5 303.75,-48.5"/>
</g>
<!-- 6214831056 -->
<g id="node5" class="node">
<title>6214831056</title>
<polygon fill="none" stroke="black" points="693,-63 557,-63 557,-27 693,-27 693,-63"/>
<text text-anchor="middle" x="625" y="-41.9" font-family="Times,serif" font-size="12.00">Review complaint details</text>
</g>
<!-- 6220431120&#45;&gt;6214831056 -->
<g id="edge4" class="edge">
<title>6220431120&#45;&gt;6214831056</title>
<path fill="none" stroke="black" d="M521.25,-45C529.88,-45 538.51,-45 546.9,-45"/>
<polygon fill="black" stroke="black" points="547,-48.5 557,-45 547,-41.5 547,-48.5"/>
</g>
<!-- 6217803984 -->
<g id="node6" class="node">
<title>6217803984</title>
<polygon fill="none" stroke="black" points="756,-63 729,-45 756,-27 783,-45 756,-63"/>
<text text-anchor="middle" x="756" y="-41.9" font-family="Times,serif" font-size="12.00">X</text>
</g>
<!-- 6214831056&#45;&gt;6217803984 -->
<g id="edge5" class="edge">
<title>6214831056&#45;&gt;6217803984</title>
<path fill="none" stroke="black" d="M693.14,-45C702,-45 710.79,-45 718.84,-45"/>
<polygon fill="black" stroke="black" points="718.94,-48.5 728.94,-45 718.94,-41.5 718.94,-48.5"/>
</g>
<!-- 6211463760 -->
<g id="node7" class="node">
<title>6211463760</title>
<polygon fill="none" stroke="black" points="955,-90 819,-90 819,-54 955,-54 955,-90"/>
<text text-anchor="middle" x="887" y="-68.9" font-family="Times,serif" font-size="12.00">Review complaint details</text>
</g>
<!-- 6217803984&#45;&gt;6211463760 -->
<g id="edge6" class="edge">
<title>6217803984&#45;&gt;6211463760</title>
<path fill="none" stroke="black" d="M776.87,-49.16C785.82,-51.03 797.01,-53.37 808.79,-55.84"/>
<polygon fill="black" stroke="black" points="808.28,-59.31 818.79,-57.93 809.71,-52.46 808.28,-59.31"/>
</g>
<!-- 6219865616 -->
<g id="node8" class="node">
<title>6219865616</title>
<polygon fill="none" stroke="black" points="955,-36 819,-36 819,0 955,0 955,-36"/>
<text text-anchor="middle" x="887" y="-14.9" font-family="Times,serif" font-size="12.00">Review complaint details</text>
</g>
<!-- 6217803984&#45;&gt;6219865616 -->
<g id="edge7" class="edge">
<title>6217803984&#45;&gt;6219865616</title>
<path fill="none" stroke="black" d="M776.87,-40.84C785.82,-38.97 797.01,-36.63 808.79,-34.16"/>
<polygon fill="black" stroke="black" points="809.71,-37.54 818.79,-32.07 808.28,-30.69 809.71,-37.54"/>
</g>
<!-- 6211458512 -->
<g id="node9" class="node">
<title>6211458512</title>
<polygon fill="none" stroke="black" points="1134,-90 991,-90 991,-54 1134,-54 1134,-90"/>
<text text-anchor="middle" x="1062.5" y="-68.9" font-family="Times,serif" font-size="12.00">Reject and notify customer</text>
</g>
<!-- 6211463760&#45;&gt;6211458512 -->
<g id="edge8" class="edge">
<title>6211463760&#45;&gt;6211458512</title>
<path fill="none" stroke="black" d="M955.08,-72C963.51,-72 972.2,-72 980.81,-72"/>
<polygon fill="black" stroke="black" points="980.87,-75.5 990.87,-72 980.87,-68.5 980.87,-75.5"/>
</g>
<!-- 6210152976 -->
<g id="node10" class="node">
<title>6210152976</title>
<polygon fill="none" stroke="black" points="1125,-36 1000,-36 1000,0 1125,0 1125,-36"/>
<text text-anchor="middle" x="1062.5" y="-14.9" font-family="Times,serif" font-size="12.00">Process reimbursement</text>
</g>
<!-- 6219865616&#45;&gt;6210152976 -->
<g id="edge9" class="edge">
<title>6219865616&#45;&gt;6210152976</title>
<path fill="none" stroke="black" d="M955.08,-18C966.51,-18 978.42,-18 989.97,-18"/>
<polygon fill="black" stroke="black" points="989.99,-21.5 999.99,-18 989.99,-14.5 989.99,-21.5"/>
</g>
<!-- 6206417552 -->
<g id="node11" class="node">
<title>6206417552</title>
<polygon fill="none" stroke="black" points="1197,-63 1170,-45 1197,-27 1224,-45 1197,-63"/>
<text text-anchor="middle" x="1197" y="-41.9" font-family="Times,serif" font-size="12.00">X</text>
</g>
<!-- 6211458512&#45;&gt;6206417552 -->
<g id="edge10" class="edge">
<title>6211458512&#45;&gt;6206417552</title>
<path fill="none" stroke="black" d="M1134.02,-57.63C1145.36,-55.32 1156.54,-53.04 1166.22,-51.07"/>
<polygon fill="black" stroke="black" points="1166.96,-54.49 1176.06,-49.06 1165.56,-47.63 1166.96,-54.49"/>
</g>
<!-- 6210152976&#45;&gt;6206417552 -->
<g id="edge11" class="edge">
<title>6210152976&#45;&gt;6206417552</title>
<path fill="none" stroke="black" d="M1125.1,-30.55C1139.31,-33.45 1153.82,-36.4 1165.97,-38.88"/>
<polygon fill="black" stroke="black" points="1165.49,-42.35 1175.98,-40.92 1166.88,-35.49 1165.49,-42.35"/>
</g>
<!-- 6220424912 -->
<g id="node12" class="node">
<title>6220424912</title>
<polygon fill="none" stroke="black" points="1385,-63 1260,-63 1260,-27 1385,-27 1385,-63"/>
<text text-anchor="middle" x="1322.5" y="-41.9" font-family="Times,serif" font-size="12.00">Process reimbursement</text>
</g>
<!-- 6206417552&#45;&gt;6220424912 -->
<g id="edge12" class="edge">
<title>6206417552&#45;&gt;6220424912</title>
<path fill="none" stroke="black" d="M1224.19,-45C1231.8,-45 1240.51,-45 1249.52,-45"/>
<polygon fill="black" stroke="black" points="1249.77,-48.5 1259.77,-45 1249.77,-41.5 1249.77,-48.5"/>
</g>
<!-- 6210149776 -->
<g id="node13" class="node">
<title>6210149776</title>
<polygon fill="none" stroke="black" points="1576,-63 1421,-63 1421,-27 1576,-27 1576,-63"/>
<text text-anchor="middle" x="1498.5" y="-41.9" font-family="Times,serif" font-size="12.00">Approve and notify customer</text>
</g>
<!-- 6220424912&#45;&gt;6210149776 -->
<g id="edge13" class="edge">
<title>6220424912&#45;&gt;6210149776</title>
<path fill="none" stroke="black" d="M1385.34,-45C1393.62,-45 1402.24,-45 1410.85,-45"/>
<polygon fill="black" stroke="black" points="1410.94,-48.5 1420.94,-45 1410.94,-41.5 1410.94,-48.5"/>
</g>
<!-- 6220421136 -->
<g id="node14" class="node">
<title>6220421136</title>
<polygon fill="none" stroke="black" points="1716,-63 1612,-63 1612,-27 1716,-27 1716,-63"/>
<text text-anchor="middle" x="1664" y="-41.9" font-family="Times,serif" font-size="12.00">Resolve complaint</text>
</g>
<!-- 6210149776&#45;&gt;6220421136 -->
<g id="edge14" class="edge">
<title>6210149776&#45;&gt;6220421136</title>
<path fill="none" stroke="black" d="M1576.46,-45C1584.85,-45 1593.3,-45 1601.47,-45"/>
<polygon fill="black" stroke="black" points="1601.63,-48.5 1611.63,-45 1601.63,-41.5 1601.63,-48.5"/>
</g>
<!-- 6211455824 -->
<g id="node15" class="node">
<title>6211455824</title>
<polygon fill="none" stroke="black" points="1895,-63 1752,-63 1752,-27 1895,-27 1895,-63"/>
<text text-anchor="middle" x="1823.5" y="-41.9" font-family="Times,serif" font-size="12.00">Reject and notify customer</text>
</g>
<!-- 6220421136&#45;&gt;6211455824 -->
<g id="edge15" class="edge">
<title>6220421136&#45;&gt;6211455824</title>
<path fill="none" stroke="black" d="M1716.14,-45C1724.33,-45 1732.99,-45 1741.68,-45"/>
<polygon fill="black" stroke="black" points="1741.87,-48.5 1751.87,-45 1741.87,-41.5 1741.87,-48.5"/>
</g>
<!-- 6216775120 -->
<g id="node16" class="node">
<title>6216775120</title>
<polygon fill="none" stroke="black" points="2035,-63 1931,-63 1931,-27 2035,-27 2035,-63"/>
<text text-anchor="middle" x="1983" y="-41.9" font-family="Times,serif" font-size="12.00">Resolve complaint</text>
</g>
<!-- 6211455824&#45;&gt;6216775120 -->
<g id="edge16" class="edge">
<title>6211455824&#45;&gt;6216775120</title>
<path fill="none" stroke="black" d="M1895.42,-45C1903.8,-45 1912.3,-45 1920.54,-45"/>
<polygon fill="black" stroke="black" points="1920.8,-48.5 1930.8,-45 1920.8,-41.5 1920.8,-48.5"/>
</g>
<!-- 6212679376 -->
<g id="node17" class="node">
<title>6212679376</title>
<polygon fill="none" stroke="black" points="2170,-63 2071,-63 2071,-27 2170,-27 2170,-63"/>
<text text-anchor="middle" x="2120.5" y="-41.9" font-family="Times,serif" font-size="12.00">Provide feedback</text>
</g>
<!-- 6216775120&#45;&gt;6212679376 -->
<g id="edge17" class="edge">
<title>6216775120&#45;&gt;6212679376</title>
<path fill="none" stroke="black" d="M2035.23,-45C2043.54,-45 2052.2,-45 2060.68,-45"/>
<polygon fill="black" stroke="black" points="2060.89,-48.5 2070.89,-45 2060.89,-41.5 2060.89,-48.5"/>
</g>
<!-- 6214879312 -->
<g id="node18" class="node">
<title>6214879312</title>
<ellipse fill="orange" stroke="black" cx="2224" cy="-45" rx="18" ry="18"/>
</g>
<!-- 6212679376&#45;&gt;6214879312 -->
<g id="edge18" class="edge">
<title>6212679376&#45;&gt;6214879312</title>
<path fill="none" stroke="black" d="M2170.17,-45C2178.98,-45 2187.88,-45 2195.8,-45"/>
<polygon fill="black" stroke="black" points="2195.88,-48.5 2205.88,-45 2195.88,-41.5 2195.88,-48.5"/>
</g>
</g>
</svg>
