<?xml version="1.0" encoding="UTF-8" standalone="no"?>
<!DOCTYPE svg PUBLIC "-//W3C//DTD SVG 1.1//EN"
 "http://www.w3.org/Graphics/SVG/1.1/DTD/svg11.dtd">
<!-- Generated by graphviz version 2.50.0 (0)
 -->
<!-- Pages: 1 -->
<svg width="1643pt" height="98pt"
 viewBox="0.00 0.00 1643.00 98.00" xmlns="http://www.w3.org/2000/svg" xmlns:xlink="http://www.w3.org/1999/xlink">
<g id="graph0" class="graph" transform="scale(1 1) rotate(0) translate(4 94)">
<polygon fill="white" stroke="transparent" points="-4,4 -4,-94 1639,-94 1639,4 -4,4"/>
<!-- 6151343952 -->
<g id="node1" class="node">
<title>6151343952</title>
<ellipse fill="green" stroke="black" cx="18" cy="-45" rx="18" ry="18"/>
</g>
<!-- 6151349520 -->
<g id="node2" class="node">
<title>6151349520</title>
<polygon fill="none" stroke="black" points="176,-63 72,-63 72,-27 176,-27 176,-63"/>
<text text-anchor="middle" x="124" y="-41.9" font-family="Times,serif" font-size="12.00">Resolve complaint</text>
</g>
<!-- 6151343952&#45;&gt;6151349520 -->
<g id="edge1" class="edge">
<title>6151343952&#45;&gt;6151349520</title>
<path fill="none" stroke="black" d="M36.17,-45C43.38,-45 52.23,-45 61.5,-45"/>
<polygon fill="black" stroke="black" points="61.66,-48.5 71.66,-45 61.66,-41.5 61.66,-48.5"/>
</g>
<!-- 6151352272 -->
<g id="node3" class="node">
<title>6151352272</title>
<polygon fill="none" stroke="black" points="298,-63 212,-63 212,-27 298,-27 298,-63"/>
<text text-anchor="middle" x="255" y="-41.9" font-family="Times,serif" font-size="12.00">Log complaint</text>
</g>
<!-- 6151349520&#45;&gt;6151352272 -->
<g id="edge2" class="edge">
<title>6151349520&#45;&gt;6151352272</title>
<path fill="none" stroke="black" d="M176.35,-45C184.75,-45 193.45,-45 201.86,-45"/>
<polygon fill="black" stroke="black" points="201.93,-48.5 211.93,-45 201.93,-41.5 201.93,-48.5"/>
</g>
<!-- 6094546896 -->
<g id="node4" class="node">
<title>6094546896</title>
<polygon fill="none" stroke="black" points="477,-63 334,-63 334,-27 477,-27 477,-63"/>
<text text-anchor="middle" x="405.5" y="-41.9" font-family="Times,serif" font-size="12.00">Reject and notify customer</text>
</g>
<!-- 6151352272&#45;&gt;6094546896 -->
<g id="edge3" class="edge">
<title>6151352272&#45;&gt;6094546896</title>
<path fill="none" stroke="black" d="M298.16,-45C306.26,-45 314.99,-45 323.84,-45"/>
<polygon fill="black" stroke="black" points="323.86,-48.5 333.86,-45 323.86,-41.5 323.86,-48.5"/>
</g>
<!-- 6094964816 -->
<g id="node5" class="node">
<title>6094964816</title>
<polygon fill="none" stroke="black" points="597,-63 513,-63 513,-27 597,-27 597,-63"/>
<text text-anchor="middle" x="555" y="-41.9" font-family="Times,serif" font-size="12.00">File complaint</text>
</g>
<!-- 6094546896&#45;&gt;6094964816 -->
<g id="edge4" class="edge">
<title>6094546896&#45;&gt;6094964816</title>
<path fill="none" stroke="black" d="M477.23,-45C485.75,-45 494.33,-45 502.51,-45"/>
<polygon fill="black" stroke="black" points="502.62,-48.5 512.62,-45 502.62,-41.5 502.62,-48.5"/>
</g>
<!-- 6149833808 -->
<g id="node6" class="node">
<title>6149833808</title>
<polygon fill="none" stroke="black" points="660,-63 633,-45 660,-27 687,-45 660,-63"/>
<text text-anchor="middle" x="660" y="-41.9" font-family="Times,serif" font-size="12.00">X</text>
</g>
<!-- 6094964816&#45;&gt;6149833808 -->
<g id="edge5" class="edge">
<title>6094964816&#45;&gt;6149833808</title>
<path fill="none" stroke="black" d="M597,-45C605.52,-45 614.45,-45 622.78,-45"/>
<polygon fill="black" stroke="black" points="622.95,-48.5 632.95,-45 622.95,-41.5 622.95,-48.5"/>
</g>
<!-- 6149832848 -->
<g id="node7" class="node">
<title>6149832848</title>
<polygon fill="none" stroke="black" points="930,-90 723,-90 723,-54 930,-54 930,-90"/>
<text text-anchor="middle" x="826.5" y="-68.9" font-family="Times,serif" font-size="12.00">Assign complaint to relevant department</text>
</g>
<!-- 6149833808&#45;&gt;6149832848 -->
<g id="edge7" class="edge">
<title>6149833808&#45;&gt;6149832848</title>
<path fill="none" stroke="black" d="M682.17,-48.47C690.78,-49.89 701.43,-51.64 713.02,-53.54"/>
<polygon fill="black" stroke="black" points="712.51,-57 722.94,-55.17 713.64,-50.09 712.51,-57"/>
</g>
<!-- 6094964240 -->
<g id="node8" class="node">
<title>6094964240</title>
<polygon fill="none" stroke="black" points="876,-36 777,-36 777,0 876,0 876,-36"/>
<text text-anchor="middle" x="826.5" y="-14.9" font-family="Times,serif" font-size="12.00">Provide feedback</text>
</g>
<!-- 6149833808&#45;&gt;6094964240 -->
<g id="edge6" class="edge">
<title>6149833808&#45;&gt;6094964240</title>
<path fill="none" stroke="black" d="M682.17,-41.53C703.44,-38.03 737.19,-32.49 766.6,-27.67"/>
<polygon fill="black" stroke="black" points="767.49,-31.07 776.79,-25.99 766.36,-24.16 767.49,-31.07"/>
</g>
<!-- 6149843600 -->
<g id="node9" class="node">
<title>6149843600</title>
<polygon fill="none" stroke="black" points="993,-63 966,-45 993,-27 1020,-45 993,-63"/>
<text text-anchor="middle" x="993" y="-41.9" font-family="Times,serif" font-size="12.00">X</text>
</g>
<!-- 6149832848&#45;&gt;6149843600 -->
<g id="edge8" class="edge">
<title>6149832848&#45;&gt;6149843600</title>
<path fill="none" stroke="black" d="M930.28,-55.13C941.29,-53.32 951.79,-51.6 960.89,-50.11"/>
<polygon fill="black" stroke="black" points="961.59,-53.54 970.89,-48.46 960.46,-46.63 961.59,-53.54"/>
</g>
<!-- 6094964240&#45;&gt;6149843600 -->
<g id="edge9" class="edge">
<title>6094964240&#45;&gt;6149843600</title>
<path fill="none" stroke="black" d="M876.41,-26.03C903.8,-30.52 937.13,-35.99 960.95,-39.9"/>
<polygon fill="black" stroke="black" points="960.41,-43.36 970.84,-41.53 961.54,-36.45 960.41,-43.36"/>
</g>
<!-- 6149837520 -->
<g id="node10" class="node">
<title>6149837520</title>
<polygon fill="none" stroke="black" points="1083,-63 1056,-45 1083,-27 1110,-45 1083,-63"/>
<text text-anchor="middle" x="1083" y="-41.9" font-family="Times,serif" font-size="12.00">X</text>
</g>
<!-- 6149843600&#45;&gt;6149837520 -->
<g id="edge10" class="edge">
<title>6149843600&#45;&gt;6149837520</title>
<path fill="none" stroke="black" d="M1020.4,-45C1028.39,-45 1037.31,-45 1045.82,-45"/>
<polygon fill="black" stroke="black" points="1045.92,-48.5 1055.92,-45 1045.92,-41.5 1045.92,-48.5"/>
</g>
<!-- 6149840400 -->
<g id="node11" class="node">
<title>6149840400</title>
<polygon fill="none" stroke="black" points="1282,-88 1146,-88 1146,-52 1282,-52 1282,-88"/>
<text text-anchor="middle" x="1214" y="-66.9" font-family="Times,serif" font-size="12.00">Review complaint details</text>
</g>
<!-- 6149837520&#45;&gt;6149840400 -->
<g id="edge12" class="edge">
<title>6149837520&#45;&gt;6149840400</title>
<path fill="none" stroke="black" d="M1104.16,-48.91C1113.07,-50.63 1124.17,-52.79 1135.85,-55.05"/>
<polygon fill="black" stroke="black" points="1135.28,-58.5 1145.76,-56.97 1136.61,-51.63 1135.28,-58.5"/>
</g>
<!-- 6094971984 -->
<g id="node12" class="node">
<title>6094971984</title>
<polygon fill="none" stroke="black" points="1473,-36 1318,-36 1318,0 1473,0 1473,-36"/>
<text text-anchor="middle" x="1395.5" y="-14.9" font-family="Times,serif" font-size="12.00">Approve and notify customer</text>
</g>
<!-- 6149837520&#45;&gt;6094971984 -->
<g id="edge11" class="edge">
<title>6149837520&#45;&gt;6094971984</title>
<path fill="none" stroke="black" d="M1107.08,-42.99C1148.93,-39.35 1239.29,-31.5 1307.6,-25.56"/>
<polygon fill="black" stroke="black" points="1308.27,-29.01 1317.93,-24.66 1307.67,-22.04 1308.27,-29.01"/>
</g>
<!-- 6151352592 -->
<g id="node14" class="node">
<title>6151352592</title>
<polygon fill="none" stroke="black" points="1458,-90 1333,-90 1333,-54 1458,-54 1458,-90"/>
<text text-anchor="middle" x="1395.5" y="-68.9" font-family="Times,serif" font-size="12.00">Process reimbursement</text>
</g>
<!-- 6149840400&#45;&gt;6151352592 -->
<g id="edge13" class="edge">
<title>6149840400&#45;&gt;6151352592</title>
<path fill="none" stroke="black" d="M1282.09,-70.75C1295.35,-70.9 1309.3,-71.05 1322.7,-71.2"/>
<polygon fill="black" stroke="black" points="1322.78,-74.7 1332.82,-71.31 1322.86,-67.7 1322.78,-74.7"/>
</g>
<!-- 6149844560 -->
<g id="node13" class="node">
<title>6149844560</title>
<polygon fill="none" stroke="black" points="1536,-63 1509,-45 1536,-27 1563,-45 1536,-63"/>
<text text-anchor="middle" x="1536" y="-41.9" font-family="Times,serif" font-size="12.00">X</text>
</g>
<!-- 6094971984&#45;&gt;6149844560 -->
<g id="edge14" class="edge">
<title>6094971984&#45;&gt;6149844560</title>
<path fill="none" stroke="black" d="M1473.04,-32.92C1484.22,-35.1 1495.15,-37.23 1504.63,-39.08"/>
<polygon fill="black" stroke="black" points="1504.18,-42.56 1514.67,-41.04 1505.52,-35.69 1504.18,-42.56"/>
</g>
<!-- 6098225808 -->
<g id="node15" class="node">
<title>6098225808</title>
<ellipse fill="orange" stroke="black" cx="1617" cy="-45" rx="18" ry="18"/>
</g>
<!-- 6149844560&#45;&gt;6098225808 -->
<g id="edge16" class="edge">
<title>6149844560&#45;&gt;6098225808</title>
<path fill="none" stroke="black" d="M1563.31,-45C1571.42,-45 1580.37,-45 1588.56,-45"/>
<polygon fill="black" stroke="black" points="1588.75,-48.5 1598.75,-45 1588.75,-41.5 1588.75,-48.5"/>
</g>
<!-- 6151352592&#45;&gt;6149844560 -->
<g id="edge15" class="edge">
<title>6151352592&#45;&gt;6149844560</title>
<path fill="none" stroke="black" d="M1458.05,-60C1474.29,-56.84 1491.1,-53.56 1504.84,-50.88"/>
<polygon fill="black" stroke="black" points="1505.56,-54.31 1514.7,-48.96 1504.22,-47.44 1505.56,-54.31"/>
</g>
</g>
</svg>
