<?xml version="1.0" encoding="UTF-8" standalone="no"?>
<!DOCTYPE svg PUBLIC "-//W3C//DTD SVG 1.1//EN"
 "http://www.w3.org/Graphics/SVG/1.1/DTD/svg11.dtd">
<!-- Generated by graphviz version 2.50.0 (0)
 -->
<!-- Pages: 1 -->
<svg width="1556pt" height="98pt"
 viewBox="0.00 0.00 1556.00 98.00" xmlns="http://www.w3.org/2000/svg" xmlns:xlink="http://www.w3.org/1999/xlink">
<g id="graph0" class="graph" transform="scale(1 1) rotate(0) translate(4 94)">
<polygon fill="white" stroke="transparent" points="-4,4 -4,-94 1552,-94 1552,4 -4,4"/>
<!-- 6218171280 -->
<g id="node1" class="node">
<title>6218171280</title>
<ellipse fill="green" stroke="black" cx="18" cy="-45" rx="18" ry="18"/>
</g>
<!-- 6218532304 -->
<g id="node2" class="node">
<title>6218532304</title>
<polygon fill="none" stroke="black" points="156,-63 72,-63 72,-27 156,-27 156,-63"/>
<text text-anchor="middle" x="114" y="-41.9" font-family="Times,serif" font-size="12.00">File complaint</text>
</g>
<!-- 6218171280&#45;&gt;6218532304 -->
<g id="edge1" class="edge">
<title>6218171280&#45;&gt;6218532304</title>
<path fill="none" stroke="black" d="M36.24,-45C43.48,-45 52.32,-45 61.39,-45"/>
<polygon fill="black" stroke="black" points="61.66,-48.5 71.66,-45 61.66,-41.5 61.66,-48.5"/>
</g>
<!-- 6218783952 -->
<g id="node3" class="node">
<title>6218783952</title>
<polygon fill="none" stroke="black" points="278,-63 192,-63 192,-27 278,-27 278,-63"/>
<text text-anchor="middle" x="235" y="-41.9" font-family="Times,serif" font-size="12.00">Log complaint</text>
</g>
<!-- 6218532304&#45;&gt;6218783952 -->
<g id="edge2" class="edge">
<title>6218532304&#45;&gt;6218783952</title>
<path fill="none" stroke="black" d="M156.29,-45C164.5,-45 173.22,-45 181.74,-45"/>
<polygon fill="black" stroke="black" points="181.98,-48.5 191.98,-45 181.98,-41.5 181.98,-48.5"/>
</g>
<!-- 6218535632 -->
<g id="node4" class="node">
<title>6218535632</title>
<polygon fill="none" stroke="black" points="521,-63 314,-63 314,-27 521,-27 521,-63"/>
<text text-anchor="middle" x="417.5" y="-41.9" font-family="Times,serif" font-size="12.00">Assign complaint to relevant department</text>
</g>
<!-- 6218783952&#45;&gt;6218535632 -->
<g id="edge3" class="edge">
<title>6218783952&#45;&gt;6218535632</title>
<path fill="none" stroke="black" d="M278.32,-45C286.19,-45 294.75,-45 303.62,-45"/>
<polygon fill="black" stroke="black" points="303.75,-48.5 313.75,-45 303.75,-41.5 303.75,-48.5"/>
</g>
<!-- 6218786512 -->
<g id="node5" class="node">
<title>6218786512</title>
<polygon fill="none" stroke="black" points="693,-63 557,-63 557,-27 693,-27 693,-63"/>
<text text-anchor="middle" x="625" y="-41.9" font-family="Times,serif" font-size="12.00">Review complaint details</text>
</g>
<!-- 6218535632&#45;&gt;6218786512 -->
<g id="edge4" class="edge">
<title>6218535632&#45;&gt;6218786512</title>
<path fill="none" stroke="black" d="M521.25,-45C529.88,-45 538.51,-45 546.9,-45"/>
<polygon fill="black" stroke="black" points="547,-48.5 557,-45 547,-41.5 547,-48.5"/>
</g>
<!-- 6218786832 -->
<g id="node6" class="node">
<title>6218786832</title>
<polygon fill="none" stroke="black" points="756,-63 729,-45 756,-27 783,-45 756,-63"/>
<text text-anchor="middle" x="756" y="-41.9" font-family="Times,serif" font-size="12.00">+</text>
</g>
<!-- 6218786512&#45;&gt;6218786832 -->
<g id="edge5" class="edge">
<title>6218786512&#45;&gt;6218786832</title>
<path fill="none" stroke="black" d="M693.14,-45C702,-45 710.79,-45 718.84,-45"/>
<polygon fill="black" stroke="black" points="718.94,-48.5 728.94,-45 718.94,-41.5 718.94,-48.5"/>
</g>
<!-- 6218540304 -->
<g id="node7" class="node">
<title>6218540304</title>
<polygon fill="none" stroke="black" points="974,-90 819,-90 819,-54 974,-54 974,-90"/>
<text text-anchor="middle" x="896.5" y="-68.9" font-family="Times,serif" font-size="12.00">Approve and notify customer</text>
</g>
<!-- 6218786832&#45;&gt;6218540304 -->
<g id="edge7" class="edge">
<title>6218786832&#45;&gt;6218540304</title>
<path fill="none" stroke="black" d="M777.14,-48.93C785.99,-50.65 797.05,-52.81 808.82,-55.1"/>
<polygon fill="black" stroke="black" points="808.36,-58.58 818.85,-57.06 809.7,-51.71 808.36,-58.58"/>
</g>
<!-- 6218792848 -->
<g id="node8" class="node">
<title>6218792848</title>
<polygon fill="none" stroke="black" points="968,-36 825,-36 825,0 968,0 968,-36"/>
<text text-anchor="middle" x="896.5" y="-14.9" font-family="Times,serif" font-size="12.00">Reject and notify customer</text>
</g>
<!-- 6218786832&#45;&gt;6218792848 -->
<g id="edge6" class="edge">
<title>6218786832&#45;&gt;6218792848</title>
<path fill="none" stroke="black" d="M777.14,-41.07C787.4,-39.07 800.63,-36.49 814.51,-33.79"/>
<polygon fill="black" stroke="black" points="815.55,-37.15 824.69,-31.8 814.21,-30.28 815.55,-37.15"/>
</g>
<!-- 6218790864 -->
<g id="node10" class="node">
<title>6218790864</title>
<polygon fill="none" stroke="black" points="1135,-90 1010,-90 1010,-54 1135,-54 1135,-90"/>
<text text-anchor="middle" x="1072.5" y="-68.9" font-family="Times,serif" font-size="12.00">Process reimbursement</text>
</g>
<!-- 6218540304&#45;&gt;6218790864 -->
<g id="edge8" class="edge">
<title>6218540304&#45;&gt;6218790864</title>
<path fill="none" stroke="black" d="M974.07,-72C982.56,-72 991.19,-72 999.62,-72"/>
<polygon fill="black" stroke="black" points="999.78,-75.5 1009.78,-72 999.78,-68.5 999.78,-75.5"/>
</g>
<!-- 6218538128 -->
<g id="node9" class="node">
<title>6218538128</title>
<polygon fill="none" stroke="black" points="1122,-36 1023,-36 1023,0 1122,0 1122,-36"/>
<text text-anchor="middle" x="1072.5" y="-14.9" font-family="Times,serif" font-size="12.00">Provide feedback</text>
</g>
<!-- 6218792848&#45;&gt;6218538128 -->
<g id="edge9" class="edge">
<title>6218792848&#45;&gt;6218538128</title>
<path fill="none" stroke="black" d="M968.02,-18C982.8,-18 998.24,-18 1012.55,-18"/>
<polygon fill="black" stroke="black" points="1012.74,-21.5 1022.74,-18 1012.74,-14.5 1012.74,-21.5"/>
</g>
<!-- 6218533520 -->
<g id="node11" class="node">
<title>6218533520</title>
<polygon fill="none" stroke="black" points="1198,-63 1171,-45 1198,-27 1225,-45 1198,-63"/>
<text text-anchor="middle" x="1198" y="-41.9" font-family="Times,serif" font-size="12.00">+</text>
</g>
<!-- 6218538128&#45;&gt;6218533520 -->
<g id="edge10" class="edge">
<title>6218538128&#45;&gt;6218533520</title>
<path fill="none" stroke="black" d="M1122.31,-28.67C1137.42,-31.97 1153.61,-35.51 1167.04,-38.45"/>
<polygon fill="black" stroke="black" points="1166.63,-41.94 1177.15,-40.66 1168.13,-35.11 1166.63,-41.94"/>
</g>
<!-- 6218790864&#45;&gt;6218533520 -->
<g id="edge11" class="edge">
<title>6218790864&#45;&gt;6218533520</title>
<path fill="none" stroke="black" d="M1135.25,-58.5C1146.41,-56.06 1157.57,-53.62 1167.27,-51.5"/>
<polygon fill="black" stroke="black" points="1168.14,-54.89 1177.16,-49.34 1166.64,-48.05 1168.14,-54.89"/>
</g>
<!-- 6218788688 -->
<g id="node12" class="node">
<title>6218788688</title>
<polygon fill="none" stroke="black" points="1386,-90 1261,-90 1261,-54 1386,-54 1386,-90"/>
<text text-anchor="middle" x="1323.5" y="-68.9" font-family="Times,serif" font-size="12.00">Process reimbursement</text>
</g>
<!-- 6218533520&#45;&gt;6218788688 -->
<g id="edge12" class="edge">
<title>6218533520&#45;&gt;6218788688</title>
<path fill="none" stroke="black" d="M1218.84,-49.34C1227.84,-51.31 1239.1,-53.77 1250.84,-56.33"/>
<polygon fill="black" stroke="black" points="1250.27,-59.79 1260.78,-58.51 1251.76,-52.95 1250.27,-59.79"/>
</g>
<!-- 6218781712 -->
<g id="node13" class="node">
<title>6218781712</title>
<polygon fill="none" stroke="black" points="1375.5,-36 1271.5,-36 1271.5,0 1375.5,0 1375.5,-36"/>
<text text-anchor="middle" x="1323.5" y="-14.9" font-family="Times,serif" font-size="12.00">Resolve complaint</text>
</g>
<!-- 6218533520&#45;&gt;6218781712 -->
<g id="edge13" class="edge">
<title>6218533520&#45;&gt;6218781712</title>
<path fill="none" stroke="black" d="M1218.84,-40.66C1230.48,-38.12 1245.87,-34.75 1261.22,-31.4"/>
<polygon fill="black" stroke="black" points="1262.24,-34.76 1271.26,-29.2 1260.75,-27.92 1262.24,-34.76"/>
</g>
<!-- 6218534288 -->
<g id="node14" class="node">
<title>6218534288</title>
<polygon fill="none" stroke="black" points="1449,-63 1422,-45 1449,-27 1476,-45 1449,-63"/>
<text text-anchor="middle" x="1449" y="-41.9" font-family="Times,serif" font-size="12.00">+</text>
</g>
<!-- 6218788688&#45;&gt;6218534288 -->
<g id="edge14" class="edge">
<title>6218788688&#45;&gt;6218534288</title>
<path fill="none" stroke="black" d="M1386.25,-58.5C1397.41,-56.06 1408.57,-53.62 1418.27,-51.5"/>
<polygon fill="black" stroke="black" points="1419.14,-54.89 1428.16,-49.34 1417.64,-48.05 1419.14,-54.89"/>
</g>
<!-- 6218781712&#45;&gt;6218534288 -->
<g id="edge15" class="edge">
<title>6218781712&#45;&gt;6218534288</title>
<path fill="none" stroke="black" d="M1375.8,-29.22C1390.3,-32.39 1405.59,-35.73 1418.34,-38.52"/>
<polygon fill="black" stroke="black" points="1417.88,-42 1428.39,-40.71 1419.37,-35.16 1417.88,-42"/>
</g>
<!-- 6218303824 -->
<g id="node15" class="node">
<title>6218303824</title>
<ellipse fill="orange" stroke="black" cx="1530" cy="-45" rx="18" ry="18"/>
</g>
<!-- 6218534288&#45;&gt;6218303824 -->
<g id="edge16" class="edge">
<title>6218534288&#45;&gt;6218303824</title>
<path fill="none" stroke="black" d="M1476.31,-45C1484.42,-45 1493.37,-45 1501.56,-45"/>
<polygon fill="black" stroke="black" points="1501.75,-48.5 1511.75,-45 1501.75,-41.5 1501.75,-48.5"/>
</g>
</g>
</svg>
