<?xml version="1.0" encoding="UTF-8" standalone="no"?>
<!DOCTYPE svg PUBLIC "-//W3C//DTD SVG 1.1//EN"
 "http://www.w3.org/Graphics/SVG/1.1/DTD/svg11.dtd">
<!-- Generated by graphviz version 2.50.0 (0)
 -->
<!-- Pages: 1 -->
<svg width="1907pt" height="148pt"
 viewBox="0.00 0.00 1907.00 148.00" xmlns="http://www.w3.org/2000/svg" xmlns:xlink="http://www.w3.org/1999/xlink">
<g id="graph0" class="graph" transform="scale(1 1) rotate(0) translate(4 144)">
<polygon fill="white" stroke="transparent" points="-4,4 -4,-144 1903,-144 1903,4 -4,4"/>
<!-- 6094967376 -->
<g id="node1" class="node">
<title>6094967376</title>
<ellipse fill="green" stroke="black" cx="18" cy="-45" rx="18" ry="18"/>
</g>
<!-- 6096984976 -->
<g id="node2" class="node">
<title>6096984976</title>
<polygon fill="none" stroke="black" points="156,-63 72,-63 72,-27 156,-27 156,-63"/>
<text text-anchor="middle" x="114" y="-41.9" font-family="Times,serif" font-size="12.00">File complaint</text>
</g>
<!-- 6094967376&#45;&gt;6096984976 -->
<g id="edge1" class="edge">
<title>6094967376&#45;&gt;6096984976</title>
<path fill="none" stroke="black" d="M36.24,-45C43.48,-45 52.32,-45 61.39,-45"/>
<polygon fill="black" stroke="black" points="61.66,-48.5 71.66,-45 61.66,-41.5 61.66,-48.5"/>
</g>
<!-- 6096987664 -->
<g id="node3" class="node">
<title>6096987664</title>
<polygon fill="none" stroke="black" points="278,-63 192,-63 192,-27 278,-27 278,-63"/>
<text text-anchor="middle" x="235" y="-41.9" font-family="Times,serif" font-size="12.00">Log complaint</text>
</g>
<!-- 6096984976&#45;&gt;6096987664 -->
<g id="edge2" class="edge">
<title>6096984976&#45;&gt;6096987664</title>
<path fill="none" stroke="black" d="M156.29,-45C164.5,-45 173.22,-45 181.74,-45"/>
<polygon fill="black" stroke="black" points="181.98,-48.5 191.98,-45 181.98,-41.5 181.98,-48.5"/>
</g>
<!-- 6096990800 -->
<g id="node4" class="node">
<title>6096990800</title>
<polygon fill="none" stroke="black" points="457,-63 314,-63 314,-27 457,-27 457,-63"/>
<text text-anchor="middle" x="385.5" y="-41.9" font-family="Times,serif" font-size="12.00">Reject and notify customer</text>
</g>
<!-- 6096987664&#45;&gt;6096990800 -->
<g id="edge3" class="edge">
<title>6096987664&#45;&gt;6096990800</title>
<path fill="none" stroke="black" d="M278.16,-45C286.26,-45 294.99,-45 303.84,-45"/>
<polygon fill="black" stroke="black" points="303.86,-48.5 313.86,-45 303.86,-41.5 303.86,-48.5"/>
</g>
<!-- 6097072976 -->
<g id="node5" class="node">
<title>6097072976</title>
<polygon fill="none" stroke="black" points="520,-63 493,-45 520,-27 547,-45 520,-63"/>
<text text-anchor="middle" x="520" y="-41.9" font-family="Times,serif" font-size="12.00">+</text>
</g>
<!-- 6096990800&#45;&gt;6097072976 -->
<g id="edge4" class="edge">
<title>6096990800&#45;&gt;6097072976</title>
<path fill="none" stroke="black" d="M457.02,-45C465.96,-45 474.79,-45 482.87,-45"/>
<polygon fill="black" stroke="black" points="482.99,-48.5 492.99,-45 482.99,-41.5 482.99,-48.5"/>
</g>
<!-- 6149836560 -->
<g id="node6" class="node">
<title>6149836560</title>
<polygon fill="none" stroke="black" points="686.5,-90 659.5,-72 686.5,-54 713.5,-72 686.5,-90"/>
<text text-anchor="middle" x="686.5" y="-68.9" font-family="Times,serif" font-size="12.00">X</text>
</g>
<!-- 6097072976&#45;&gt;6149836560 -->
<g id="edge5" class="edge">
<title>6097072976&#45;&gt;6149836560</title>
<path fill="none" stroke="black" d="M542.17,-48.47C570.67,-53.15 621.59,-61.51 654.43,-66.9"/>
<polygon fill="black" stroke="black" points="653.98,-70.37 664.41,-68.54 655.11,-63.47 653.98,-70.37"/>
</g>
<!-- 6094494352 -->
<g id="node7" class="node">
<title>6094494352</title>
<polygon fill="none" stroke="black" points="790,-36 583,-36 583,0 790,0 790,-36"/>
<text text-anchor="middle" x="686.5" y="-14.9" font-family="Times,serif" font-size="12.00">Assign complaint to relevant department</text>
</g>
<!-- 6097072976&#45;&gt;6094494352 -->
<g id="edge6" class="edge">
<title>6097072976&#45;&gt;6094494352</title>
<path fill="none" stroke="black" d="M542.17,-41.53C550.78,-40.11 561.43,-38.36 573.02,-36.46"/>
<polygon fill="black" stroke="black" points="573.64,-39.91 582.94,-34.83 572.51,-33 573.64,-39.91"/>
</g>
<!-- 6096992336 -->
<g id="node8" class="node">
<title>6096992336</title>
<polygon fill="none" stroke="black" points="979,-140 880,-140 880,-104 979,-104 979,-140"/>
<text text-anchor="middle" x="929.5" y="-118.9" font-family="Times,serif" font-size="12.00">Provide feedback</text>
</g>
<!-- 6149836560&#45;&gt;6096992336 -->
<g id="edge7" class="edge">
<title>6149836560&#45;&gt;6096992336</title>
<path fill="none" stroke="black" d="M707.63,-76.18C742.92,-83.5 817.18,-98.9 869.83,-109.83"/>
<polygon fill="black" stroke="black" points="869.22,-113.28 879.73,-111.88 870.65,-106.42 869.22,-113.28"/>
</g>
<!-- 6094502480 -->
<g id="node10" class="node">
<title>6094502480</title>
<polygon fill="none" stroke="black" points="1033,-86 826,-86 826,-50 1033,-50 1033,-86"/>
<text text-anchor="middle" x="929.5" y="-64.9" font-family="Times,serif" font-size="12.00">Assign complaint to relevant department</text>
</g>
<!-- 6149836560&#45;&gt;6094502480 -->
<g id="edge8" class="edge">
<title>6149836560&#45;&gt;6094502480</title>
<path fill="none" stroke="black" d="M713.29,-71.57C738.09,-71.16 777.35,-70.51 815.59,-69.87"/>
<polygon fill="black" stroke="black" points="815.87,-73.37 825.81,-69.7 815.75,-66.37 815.87,-73.37"/>
</g>
<!-- 6096991376 -->
<g id="node9" class="node">
<title>6096991376</title>
<polygon fill="none" stroke="black" points="1205,-36 1069,-36 1069,0 1205,0 1205,-36"/>
<text text-anchor="middle" x="1137" y="-14.9" font-family="Times,serif" font-size="12.00">Review complaint details</text>
</g>
<!-- 6094494352&#45;&gt;6096991376 -->
<g id="edge9" class="edge">
<title>6094494352&#45;&gt;6096991376</title>
<path fill="none" stroke="black" d="M790.11,-18C871.86,-18 984.52,-18 1058.76,-18"/>
<polygon fill="black" stroke="black" points="1058.97,-21.5 1068.97,-18 1058.97,-14.5 1058.97,-21.5"/>
</g>
<!-- 6149834448 -->
<g id="node11" class="node">
<title>6149834448</title>
<polygon fill="none" stroke="black" points="1137,-90 1110,-72 1137,-54 1164,-72 1137,-90"/>
<text text-anchor="middle" x="1137" y="-68.9" font-family="Times,serif" font-size="12.00">X</text>
</g>
<!-- 6096992336&#45;&gt;6149834448 -->
<g id="edge10" class="edge">
<title>6096992336&#45;&gt;6149834448</title>
<path fill="none" stroke="black" d="M979.2,-110.15C1018.93,-100.48 1073.74,-87.15 1106.93,-79.07"/>
<polygon fill="black" stroke="black" points="1108,-82.41 1116.89,-76.65 1106.35,-75.61 1108,-82.41"/>
</g>
<!-- 6096991120 -->
<g id="node12" class="node">
<title>6096991120</title>
<polygon fill="none" stroke="black" points="1268,-63 1241,-45 1268,-27 1295,-45 1268,-63"/>
<text text-anchor="middle" x="1268" y="-41.9" font-family="Times,serif" font-size="12.00">+</text>
</g>
<!-- 6096991376&#45;&gt;6096991120 -->
<g id="edge11" class="edge">
<title>6096991376&#45;&gt;6096991120</title>
<path fill="none" stroke="black" d="M1205.14,-32.05C1216.38,-34.41 1227.52,-36.74 1237.17,-38.76"/>
<polygon fill="black" stroke="black" points="1236.5,-42.19 1247.01,-40.82 1237.94,-35.34 1236.5,-42.19"/>
</g>
<!-- 6094502480&#45;&gt;6149834448 -->
<g id="edge12" class="edge">
<title>6094502480&#45;&gt;6149834448</title>
<path fill="none" stroke="black" d="M1033.25,-70C1057.35,-70.47 1081.45,-70.94 1100.25,-71.3"/>
<polygon fill="black" stroke="black" points="1100.32,-74.81 1110.39,-71.5 1100.46,-67.81 1100.32,-74.81"/>
</g>
<!-- 6149834448&#45;&gt;6096991120 -->
<g id="edge13" class="edge">
<title>6149834448&#45;&gt;6096991120</title>
<path fill="none" stroke="black" d="M1157.87,-67.84C1179.02,-63.41 1212.73,-56.36 1237.09,-51.26"/>
<polygon fill="black" stroke="black" points="1237.82,-54.68 1246.89,-49.21 1236.39,-47.83 1237.82,-54.68"/>
</g>
<!-- 6096981392 -->
<g id="node13" class="node">
<title>6096981392</title>
<polygon fill="none" stroke="black" points="1486,-63 1331,-63 1331,-27 1486,-27 1486,-63"/>
<text text-anchor="middle" x="1408.5" y="-41.9" font-family="Times,serif" font-size="12.00">Approve and notify customer</text>
</g>
<!-- 6096991120&#45;&gt;6096981392 -->
<g id="edge14" class="edge">
<title>6096991120&#45;&gt;6096981392</title>
<path fill="none" stroke="black" d="M1295.05,-45C1302.65,-45 1311.4,-45 1320.59,-45"/>
<polygon fill="black" stroke="black" points="1320.71,-48.5 1330.71,-45 1320.71,-41.5 1320.71,-48.5"/>
</g>
<!-- 6149838864 -->
<g id="node14" class="node">
<title>6149838864</title>
<polygon fill="none" stroke="black" points="1549,-63 1522,-45 1549,-27 1576,-45 1549,-63"/>
<text text-anchor="middle" x="1549" y="-41.9" font-family="Times,serif" font-size="12.00">X</text>
</g>
<!-- 6096981392&#45;&gt;6149838864 -->
<g id="edge15" class="edge">
<title>6096981392&#45;&gt;6149838864</title>
<path fill="none" stroke="black" d="M1486.04,-45C1495,-45 1503.8,-45 1511.82,-45"/>
<polygon fill="black" stroke="black" points="1511.87,-48.5 1521.87,-45 1511.87,-41.5 1511.87,-48.5"/>
</g>
<!-- 6096987280 -->
<g id="node15" class="node">
<title>6096987280</title>
<polygon fill="none" stroke="black" points="1800,-63 1773,-45 1800,-27 1827,-45 1800,-63"/>
<text text-anchor="middle" x="1800" y="-41.9" font-family="Times,serif" font-size="12.00">X</text>
</g>
<!-- 6149838864&#45;&gt;6096987280 -->
<g id="edge16" class="edge">
<title>6149838864&#45;&gt;6096987280</title>
<path fill="none" stroke="black" d="M1573.24,-46.86C1584.87,-47.69 1599.17,-48.59 1612,-49 1667.53,-50.79 1681.47,-50.79 1737,-49 1746.32,-48.7 1756.42,-48.15 1765.7,-47.54"/>
<polygon fill="black" stroke="black" points="1766.02,-51.03 1775.76,-46.86 1765.54,-44.05 1766.02,-51.03"/>
</g>
<!-- 6096986128 -->
<g id="node16" class="node">
<title>6096986128</title>
<polygon fill="none" stroke="black" points="1737,-40 1612,-40 1612,-4 1737,-4 1737,-40"/>
<text text-anchor="middle" x="1674.5" y="-18.9" font-family="Times,serif" font-size="12.00">Process reimbursement</text>
</g>
<!-- 6149838864&#45;&gt;6096986128 -->
<g id="edge17" class="edge">
<title>6149838864&#45;&gt;6096986128</title>
<path fill="none" stroke="black" d="M1570.39,-41.2C1579.39,-39.53 1590.54,-37.45 1602.16,-35.29"/>
<polygon fill="black" stroke="black" points="1602.81,-38.73 1612,-33.45 1601.53,-31.84 1602.81,-38.73"/>
</g>
<!-- 6094971536 -->
<g id="node17" class="node">
<title>6094971536</title>
<ellipse fill="orange" stroke="black" cx="1881" cy="-45" rx="18" ry="18"/>
</g>
<!-- 6096987280&#45;&gt;6094971536 -->
<g id="edge19" class="edge">
<title>6096987280&#45;&gt;6094971536</title>
<path fill="none" stroke="black" d="M1827.31,-45C1835.42,-45 1844.37,-45 1852.56,-45"/>
<polygon fill="black" stroke="black" points="1852.75,-48.5 1862.75,-45 1852.75,-41.5 1852.75,-48.5"/>
</g>
<!-- 6096986128&#45;&gt;6096987280 -->
<g id="edge18" class="edge">
<title>6096986128&#45;&gt;6096987280</title>
<path fill="none" stroke="black" d="M1737.25,-33.5C1748.12,-35.52 1758.98,-37.55 1768.5,-39.32"/>
<polygon fill="black" stroke="black" points="1768.13,-42.81 1778.61,-41.2 1769.42,-35.93 1768.13,-42.81"/>
</g>
</g>
</svg>
