<?xml version="1.0" encoding="UTF-8" standalone="no"?>
<!DOCTYPE svg PUBLIC "-//W3C//DTD SVG 1.1//EN"
 "http://www.w3.org/Graphics/SVG/1.1/DTD/svg11.dtd">
<!-- Generated by graphviz version 6.0.1 (20220911.1526)
 -->
<!-- Pages: 1 -->
<svg width="1732pt" height="98pt"
 viewBox="0.00 0.00 1732.00 98.00" xmlns="http://www.w3.org/2000/svg" xmlns:xlink="http://www.w3.org/1999/xlink">
<g id="graph0" class="graph" transform="scale(1 1) rotate(0) translate(4 94)">
<polygon fill="white" stroke="none" points="-4,4 -4,-94 1728,-94 1728,4 -4,4"/>
<!-- 2058995448656 -->
<g id="node1" class="node">
<title>2058995448656</title>
<ellipse fill="green" stroke="black" cx="18" cy="-45" rx="18" ry="18"/>
</g>
<!-- 2058996190656 -->
<g id="node2" class="node">
<title>2058996190656</title>
<polygon fill="none" stroke="black" points="152,-63 72,-63 72,-27 152,-27 152,-63"/>
<text text-anchor="middle" x="112" y="-41.9" font-family="Times New Roman,serif" font-size="12.00">File complaint</text>
</g>
<!-- 2058995448656&#45;&gt;2058996190656 -->
<g id="edge1" class="edge">
<title>2058995448656&#45;&gt;2058996190656</title>
<path fill="none" stroke="black" d="M36.3,-45C43.57,-45 52.42,-45 61.45,-45"/>
<polygon fill="black" stroke="black" points="61.65,-48.5 71.65,-45 61.65,-41.5 61.65,-48.5"/>
</g>
<!-- 2058996194400 -->
<g id="node3" class="node">
<title>2058996194400</title>
<polygon fill="none" stroke="black" points="269,-63 188,-63 188,-27 269,-27 269,-63"/>
<text text-anchor="middle" x="228.5" y="-41.9" font-family="Times New Roman,serif" font-size="12.00">Log complaint</text>
</g>
<!-- 2058996190656&#45;&gt;2058996194400 -->
<g id="edge2" class="edge">
<title>2058996190656&#45;&gt;2058996194400</title>
<path fill="none" stroke="black" d="M152.08,-45C160.28,-45 169.04,-45 177.57,-45"/>
<polygon fill="black" stroke="black" points="177.81,-48.5 187.81,-45 177.81,-41.5 177.81,-48.5"/>
</g>
<!-- 2058996192528 -->
<g id="node4" class="node">
<title>2058996192528</title>
<polygon fill="none" stroke="black" points="502,-63 305,-63 305,-27 502,-27 502,-63"/>
<text text-anchor="middle" x="403.5" y="-41.9" font-family="Times New Roman,serif" font-size="12.00">Assign complaint to relevant department</text>
</g>
<!-- 2058996194400&#45;&gt;2058996192528 -->
<g id="edge3" class="edge">
<title>2058996194400&#45;&gt;2058996192528</title>
<path fill="none" stroke="black" d="M269.19,-45C277.09,-45 285.74,-45 294.71,-45"/>
<polygon fill="black" stroke="black" points="294.95,-48.5 304.95,-45 294.95,-41.5 294.95,-48.5"/>
</g>
<!-- 2058996189168 -->
<g id="node5" class="node">
<title>2058996189168</title>
<polygon fill="none" stroke="black" points="666,-63 538,-63 538,-27 666,-27 666,-63"/>
<text text-anchor="middle" x="602" y="-41.9" font-family="Times New Roman,serif" font-size="12.00">Review complaint details</text>
</g>
<!-- 2058996192528&#45;&gt;2058996189168 -->
<g id="edge4" class="edge">
<title>2058996192528&#45;&gt;2058996189168</title>
<path fill="none" stroke="black" d="M502.17,-45C510.8,-45 519.44,-45 527.81,-45"/>
<polygon fill="black" stroke="black" points="527.88,-48.5 537.88,-45 527.88,-41.5 527.88,-48.5"/>
</g>
<!-- 2058995196032 -->
<g id="node6" class="node">
<title>2058995196032</title>
<polygon fill="none" stroke="black" points="729,-63 702,-45 729,-27 756,-45 729,-63"/>
<text text-anchor="middle" x="729" y="-41.9" font-family="Times New Roman,serif" font-size="12.00">X</text>
</g>
<!-- 2058996189168&#45;&gt;2058995196032 -->
<g id="edge5" class="edge">
<title>2058996189168&#45;&gt;2058995196032</title>
<path fill="none" stroke="black" d="M666.23,-45C674.99,-45 683.73,-45 691.76,-45"/>
<polygon fill="black" stroke="black" points="691.85,-48.5 701.85,-45 691.85,-41.5 691.85,-48.5"/>
</g>
<!-- 2058996198000 -->
<g id="node7" class="node">
<title>2058996198000</title>
<polygon fill="none" stroke="black" points="941,-88 792,-88 792,-52 941,-52 941,-88"/>
<text text-anchor="middle" x="866.5" y="-66.9" font-family="Times New Roman,serif" font-size="12.00">Approve and notify customer</text>
</g>
<!-- 2058995196032&#45;&gt;2058996198000 -->
<g id="edge7" class="edge">
<title>2058995196032&#45;&gt;2058996198000</title>
<path fill="none" stroke="black" d="M750.58,-48.8C759.43,-50.43 770.41,-52.46 782.04,-54.6"/>
<polygon fill="black" stroke="black" points="781.47,-58.06 791.94,-56.43 782.74,-51.17 781.47,-58.06"/>
</g>
<!-- 2058996200256 -->
<g id="node8" class="node">
<title>2058996200256</title>
<polygon fill="none" stroke="black" points="1114,-36 977,-36 977,0 1114,0 1114,-36"/>
<text text-anchor="middle" x="1045.5" y="-14.9" font-family="Times New Roman,serif" font-size="12.00">Reject and notify customer</text>
</g>
<!-- 2058995196032&#45;&gt;2058996200256 -->
<g id="edge6" class="edge">
<title>2058995196032&#45;&gt;2058996200256</title>
<path fill="none" stroke="black" d="M753.13,-43.01C797.47,-39.21 896.3,-30.72 966.54,-24.69"/>
<polygon fill="black" stroke="black" points="967.02,-28.16 976.68,-23.82 966.42,-21.19 967.02,-28.16"/>
</g>
<!-- 2058996200016 -->
<g id="node10" class="node">
<title>2058996200016</title>
<polygon fill="none" stroke="black" points="1106.5,-90 984.5,-90 984.5,-54 1106.5,-54 1106.5,-90"/>
<text text-anchor="middle" x="1045.5" y="-68.9" font-family="Times New Roman,serif" font-size="12.00">Process reimbursement</text>
</g>
<!-- 2058996198000&#45;&gt;2058996200016 -->
<g id="edge8" class="edge">
<title>2058996198000&#45;&gt;2058996200016</title>
<path fill="none" stroke="black" d="M941.03,-70.83C951.97,-70.95 963.22,-71.08 974.1,-71.2"/>
<polygon fill="black" stroke="black" points="974.34,-74.71 984.38,-71.32 974.42,-67.71 974.34,-74.71"/>
</g>
<!-- 2058995190128 -->
<g id="node9" class="node">
<title>2058995190128</title>
<polygon fill="none" stroke="black" points="1177,-63 1150,-45 1177,-27 1204,-45 1177,-63"/>
<text text-anchor="middle" x="1177" y="-41.9" font-family="Times New Roman,serif" font-size="12.00">X</text>
</g>
<!-- 2058996200256&#45;&gt;2058995190128 -->
<g id="edge9" class="edge">
<title>2058996200256&#45;&gt;2058995190128</title>
<path fill="none" stroke="black" d="M1114.28,-32.13C1125.52,-34.48 1136.63,-36.79 1146.27,-38.8"/>
<polygon fill="black" stroke="black" points="1145.57,-42.23 1156.08,-40.85 1147,-35.38 1145.57,-42.23"/>
</g>
<!-- 2058996203376 -->
<g id="node11" class="node">
<title>2058996203376</title>
<polygon fill="none" stroke="black" points="1339,-63 1240,-63 1240,-27 1339,-27 1339,-63"/>
<text text-anchor="middle" x="1289.5" y="-41.9" font-family="Times New Roman,serif" font-size="12.00">Resolve complaint</text>
</g>
<!-- 2058995190128&#45;&gt;2058996203376 -->
<g id="edge11" class="edge">
<title>2058995190128&#45;&gt;2058996203376</title>
<path fill="none" stroke="black" d="M1204.19,-45C1211.98,-45 1220.84,-45 1229.83,-45"/>
<polygon fill="black" stroke="black" points="1229.98,-48.5 1239.98,-45 1229.98,-41.5 1229.98,-48.5"/>
</g>
<!-- 2058996200016&#45;&gt;2058995190128 -->
<g id="edge10" class="edge">
<title>2058996200016&#45;&gt;2058995190128</title>
<path fill="none" stroke="black" d="M1106.7,-59.45C1120.35,-56.6 1134.28,-53.7 1146.03,-51.25"/>
<polygon fill="black" stroke="black" points="1147.07,-54.61 1156.14,-49.14 1145.64,-47.76 1147.07,-54.61"/>
</g>
<!-- 2058995190080 -->
<g id="node12" class="node">
<title>2058995190080</title>
<polygon fill="none" stroke="black" points="1402,-63 1375,-45 1402,-27 1429,-45 1402,-63"/>
<text text-anchor="middle" x="1402" y="-41.9" font-family="Times New Roman,serif" font-size="12.00">X</text>
</g>
<!-- 2058996203376&#45;&gt;2058995190080 -->
<g id="edge12" class="edge">
<title>2058996203376&#45;&gt;2058995190080</title>
<path fill="none" stroke="black" d="M1339.29,-45C1347.81,-45 1356.54,-45 1364.65,-45"/>
<polygon fill="black" stroke="black" points="1364.89,-48.5 1374.89,-45 1364.89,-41.5 1364.89,-48.5"/>
</g>
<!-- 2058986567760 -->
<g id="node13" class="node">
<title>2058986567760</title>
<polygon fill="none" stroke="black" points="1625,-63 1598,-45 1625,-27 1652,-45 1625,-63"/>
<text text-anchor="middle" x="1625" y="-41.9" font-family="Times New Roman,serif" font-size="12.00">X</text>
</g>
<!-- 2058995190080&#45;&gt;2058986567760 -->
<g id="edge14" class="edge">
<title>2058995190080&#45;&gt;2058986567760</title>
<path fill="none" stroke="black" d="M1426.24,-46.86C1437.87,-47.69 1452.17,-48.59 1465,-49 1508.09,-50.39 1518.91,-50.39 1562,-49 1571.32,-48.7 1581.42,-48.15 1590.7,-47.54"/>
<polygon fill="black" stroke="black" points="1591.02,-51.03 1600.76,-46.86 1590.54,-44.05 1591.02,-51.03"/>
</g>
<!-- 2058996187776 -->
<g id="node14" class="node">
<title>2058996187776</title>
<polygon fill="none" stroke="black" points="1562,-40 1465,-40 1465,-4 1562,-4 1562,-40"/>
<text text-anchor="middle" x="1513.5" y="-18.9" font-family="Times New Roman,serif" font-size="12.00">Provide feedback</text>
</g>
<!-- 2058995190080&#45;&gt;2058996187776 -->
<g id="edge13" class="edge">
<title>2058995190080&#45;&gt;2058996187776</title>
<path fill="none" stroke="black" d="M1422.83,-40.83C1431.89,-38.93 1443.13,-36.57 1454.56,-34.17"/>
<polygon fill="black" stroke="black" points="1455.54,-37.54 1464.6,-32.06 1454.1,-30.69 1455.54,-37.54"/>
</g>
<!-- 2058995443520 -->
<g id="node15" class="node">
<title>2058995443520</title>
<ellipse fill="orange" stroke="black" cx="1706" cy="-45" rx="18" ry="18"/>
</g>
<!-- 2058986567760&#45;&gt;2058995443520 -->
<g id="edge16" class="edge">
<title>2058986567760&#45;&gt;2058995443520</title>
<path fill="none" stroke="black" d="M1652.31,-45C1660.42,-45 1669.37,-45 1677.56,-45"/>
<polygon fill="black" stroke="black" points="1677.75,-48.5 1687.75,-45 1677.75,-41.5 1677.75,-48.5"/>
</g>
<!-- 2058996187776&#45;&gt;2058986567760 -->
<g id="edge15" class="edge">
<title>2058996187776&#45;&gt;2058986567760</title>
<path fill="none" stroke="black" d="M1562.21,-32.02C1573.04,-34.3 1584.25,-36.65 1594.1,-38.72"/>
<polygon fill="black" stroke="black" points="1593.66,-42.2 1604.17,-40.83 1595.1,-35.35 1593.66,-42.2"/>
</g>
</g>
</svg>
