<?xml version="1.0" encoding="UTF-8" standalone="no"?>
<!DOCTYPE svg PUBLIC "-//W3C//DTD SVG 1.1//EN"
 "http://www.w3.org/Graphics/SVG/1.1/DTD/svg11.dtd">
<!-- Generated by graphviz version 6.0.1 (20220911.1526)
 -->
<!-- Pages: 1 -->
<svg width="1717pt" height="67pt"
 viewBox="0.00 0.00 1717.00 67.00" xmlns="http://www.w3.org/2000/svg" xmlns:xlink="http://www.w3.org/1999/xlink">
<g id="graph0" class="graph" transform="scale(1 1) rotate(0) translate(4 63)">
<polygon fill="white" stroke="none" points="-4,4 -4,-63 1713,-63 1713,4 -4,4"/>
<!-- 2058995440688 -->
<g id="node1" class="node">
<title>2058995440688</title>
<ellipse fill="green" stroke="black" cx="18" cy="-41" rx="18" ry="18"/>
</g>
<!-- 2058995443904 -->
<g id="node2" class="node">
<title>2058995443904</title>
<polygon fill="none" stroke="black" points="152,-59 72,-59 72,-23 152,-23 152,-59"/>
<text text-anchor="middle" x="112" y="-37.9" font-family="Times New Roman,serif" font-size="12.00">File complaint</text>
</g>
<!-- 2058995440688&#45;&gt;2058995443904 -->
<g id="edge1" class="edge">
<title>2058995440688&#45;&gt;2058995443904</title>
<path fill="none" stroke="black" d="M36.3,-41C43.57,-41 52.42,-41 61.45,-41"/>
<polygon fill="black" stroke="black" points="61.65,-44.5 71.65,-41 61.65,-37.5 61.65,-44.5"/>
</g>
<!-- 2058995444528 -->
<g id="node3" class="node">
<title>2058995444528</title>
<polygon fill="none" stroke="black" points="269,-59 188,-59 188,-23 269,-23 269,-59"/>
<text text-anchor="middle" x="228.5" y="-37.9" font-family="Times New Roman,serif" font-size="12.00">Log complaint</text>
</g>
<!-- 2058995443904&#45;&gt;2058995444528 -->
<g id="edge2" class="edge">
<title>2058995443904&#45;&gt;2058995444528</title>
<path fill="none" stroke="black" d="M152.08,-41C160.28,-41 169.04,-41 177.57,-41"/>
<polygon fill="black" stroke="black" points="177.81,-44.5 187.81,-41 177.81,-37.5 177.81,-44.5"/>
</g>
<!-- 2058996279536 -->
<g id="node4" class="node">
<title>2058996279536</title>
<polygon fill="none" stroke="black" points="502,-59 305,-59 305,-23 502,-23 502,-59"/>
<text text-anchor="middle" x="403.5" y="-37.9" font-family="Times New Roman,serif" font-size="12.00">Assign complaint to relevant department</text>
</g>
<!-- 2058995444528&#45;&gt;2058996279536 -->
<g id="edge3" class="edge">
<title>2058995444528&#45;&gt;2058996279536</title>
<path fill="none" stroke="black" d="M269.19,-41C277.09,-41 285.74,-41 294.71,-41"/>
<polygon fill="black" stroke="black" points="294.95,-44.5 304.95,-41 294.95,-37.5 294.95,-44.5"/>
</g>
<!-- 2058995439584 -->
<g id="node5" class="node">
<title>2058995439584</title>
<polygon fill="none" stroke="black" points="666,-59 538,-59 538,-23 666,-23 666,-59"/>
<text text-anchor="middle" x="602" y="-37.9" font-family="Times New Roman,serif" font-size="12.00">Review complaint details</text>
</g>
<!-- 2058996279536&#45;&gt;2058995439584 -->
<g id="edge4" class="edge">
<title>2058996279536&#45;&gt;2058995439584</title>
<path fill="none" stroke="black" d="M502.17,-41C510.8,-41 519.44,-41 527.81,-41"/>
<polygon fill="black" stroke="black" points="527.88,-44.5 537.88,-41 527.88,-37.5 527.88,-44.5"/>
</g>
<!-- 2058986748608 -->
<g id="node6" class="node">
<title>2058986748608</title>
<polygon fill="none" stroke="black" points="729,-59 702,-41 729,-23 756,-41 729,-59"/>
<text text-anchor="middle" x="729" y="-37.9" font-family="Times New Roman,serif" font-size="12.00">X</text>
</g>
<!-- 2058995439584&#45;&gt;2058986748608 -->
<g id="edge5" class="edge">
<title>2058995439584&#45;&gt;2058986748608</title>
<path fill="none" stroke="black" d="M666.23,-41C674.99,-41 683.73,-41 691.76,-41"/>
<polygon fill="black" stroke="black" points="691.85,-44.5 701.85,-41 691.85,-37.5 691.85,-44.5"/>
</g>
<!-- 2058986746880 -->
<g id="node7" class="node">
<title>2058986746880</title>
<polygon fill="none" stroke="black" points="1162,-59 1135,-41 1162,-23 1189,-41 1162,-59"/>
<text text-anchor="middle" x="1162" y="-37.9" font-family="Times New Roman,serif" font-size="12.00">X</text>
</g>
<!-- 2058986748608&#45;&gt;2058986746880 -->
<g id="edge6" class="edge">
<title>2058986748608&#45;&gt;2058986746880</title>
<path fill="none" stroke="black" d="M753.24,-42.86C764.87,-43.69 779.17,-44.59 792,-45 928.37,-49.39 962.63,-49.39 1099,-45 1108.32,-44.7 1118.42,-44.15 1127.7,-43.54"/>
<polygon fill="black" stroke="black" points="1128.02,-47.03 1137.76,-42.86 1127.54,-40.05 1128.02,-47.03"/>
</g>
<!-- 2058996281696 -->
<g id="node8" class="node">
<title>2058996281696</title>
<polygon fill="none" stroke="black" points="941,-36 792,-36 792,0 941,0 941,-36"/>
<text text-anchor="middle" x="866.5" y="-14.9" font-family="Times New Roman,serif" font-size="12.00">Approve and notify customer</text>
</g>
<!-- 2058986748608&#45;&gt;2058996281696 -->
<g id="edge7" class="edge">
<title>2058986748608&#45;&gt;2058996281696</title>
<path fill="none" stroke="black" d="M750.87,-37.46C759.6,-35.98 770.37,-34.15 781.77,-32.21"/>
<polygon fill="black" stroke="black" points="782.65,-35.61 791.92,-30.49 781.47,-28.71 782.65,-35.61"/>
</g>
<!-- 2058995446640 -->
<g id="node10" class="node">
<title>2058995446640</title>
<polygon fill="none" stroke="black" points="1324,-59 1225,-59 1225,-23 1324,-23 1324,-59"/>
<text text-anchor="middle" x="1274.5" y="-37.9" font-family="Times New Roman,serif" font-size="12.00">Resolve complaint</text>
</g>
<!-- 2058986746880&#45;&gt;2058995446640 -->
<g id="edge8" class="edge">
<title>2058986746880&#45;&gt;2058995446640</title>
<path fill="none" stroke="black" d="M1189.19,-41C1196.98,-41 1205.84,-41 1214.83,-41"/>
<polygon fill="black" stroke="black" points="1214.98,-44.5 1224.98,-41 1214.98,-37.5 1214.98,-44.5"/>
</g>
<!-- 2058995439680 -->
<g id="node9" class="node">
<title>2058995439680</title>
<polygon fill="none" stroke="black" points="1099,-36 977,-36 977,0 1099,0 1099,-36"/>
<text text-anchor="middle" x="1038" y="-14.9" font-family="Times New Roman,serif" font-size="12.00">Process reimbursement</text>
</g>
<!-- 2058996281696&#45;&gt;2058995439680 -->
<g id="edge9" class="edge">
<title>2058996281696&#45;&gt;2058995439680</title>
<path fill="none" stroke="black" d="M941.35,-18C949.79,-18 958.37,-18 966.76,-18"/>
<polygon fill="black" stroke="black" points="966.87,-21.5 976.87,-18 966.87,-14.5 966.87,-21.5"/>
</g>
<!-- 2058995439680&#45;&gt;2058986746880 -->
<g id="edge10" class="edge">
<title>2058995439680&#45;&gt;2058986746880</title>
<path fill="none" stroke="black" d="M1099.29,-29.37C1110.1,-31.4 1120.95,-33.45 1130.47,-35.24"/>
<polygon fill="black" stroke="black" points="1130.1,-38.74 1140.57,-37.15 1131.39,-31.86 1130.1,-38.74"/>
</g>
<!-- 2058986748848 -->
<g id="node11" class="node">
<title>2058986748848</title>
<polygon fill="none" stroke="black" points="1387,-59 1360,-41 1387,-23 1414,-41 1387,-59"/>
<text text-anchor="middle" x="1387" y="-37.9" font-family="Times New Roman,serif" font-size="12.00">X</text>
</g>
<!-- 2058995446640&#45;&gt;2058986748848 -->
<g id="edge11" class="edge">
<title>2058995446640&#45;&gt;2058986748848</title>
<path fill="none" stroke="black" d="M1324.29,-41C1332.81,-41 1341.54,-41 1349.65,-41"/>
<polygon fill="black" stroke="black" points="1349.89,-44.5 1359.89,-41 1349.89,-37.5 1349.89,-44.5"/>
</g>
<!-- 2058986747024 -->
<g id="node12" class="node">
<title>2058986747024</title>
<polygon fill="none" stroke="black" points="1610,-59 1583,-41 1610,-23 1637,-41 1610,-59"/>
<text text-anchor="middle" x="1610" y="-37.9" font-family="Times New Roman,serif" font-size="12.00">X</text>
</g>
<!-- 2058986748848&#45;&gt;2058986747024 -->
<g id="edge13" class="edge">
<title>2058986748848&#45;&gt;2058986747024</title>
<path fill="none" stroke="black" d="M1411.24,-42.86C1422.87,-43.69 1437.17,-44.59 1450,-45 1493.09,-46.39 1503.91,-46.39 1547,-45 1556.32,-44.7 1566.42,-44.15 1575.7,-43.54"/>
<polygon fill="black" stroke="black" points="1576.02,-47.03 1585.76,-42.86 1575.54,-40.05 1576.02,-47.03"/>
</g>
<!-- 2058995448896 -->
<g id="node13" class="node">
<title>2058995448896</title>
<polygon fill="none" stroke="black" points="1547,-36 1450,-36 1450,0 1547,0 1547,-36"/>
<text text-anchor="middle" x="1498.5" y="-14.9" font-family="Times New Roman,serif" font-size="12.00">Provide feedback</text>
</g>
<!-- 2058986748848&#45;&gt;2058995448896 -->
<g id="edge12" class="edge">
<title>2058986748848&#45;&gt;2058995448896</title>
<path fill="none" stroke="black" d="M1407.83,-36.83C1416.89,-34.93 1428.13,-32.57 1439.56,-30.17"/>
<polygon fill="black" stroke="black" points="1440.54,-33.54 1449.6,-28.06 1439.1,-26.69 1440.54,-33.54"/>
</g>
<!-- 2058995443280 -->
<g id="node14" class="node">
<title>2058995443280</title>
<ellipse fill="orange" stroke="black" cx="1691" cy="-41" rx="18" ry="18"/>
</g>
<!-- 2058986747024&#45;&gt;2058995443280 -->
<g id="edge15" class="edge">
<title>2058986747024&#45;&gt;2058995443280</title>
<path fill="none" stroke="black" d="M1637.31,-41C1645.42,-41 1654.37,-41 1662.56,-41"/>
<polygon fill="black" stroke="black" points="1662.75,-44.5 1672.75,-41 1662.75,-37.5 1662.75,-44.5"/>
</g>
<!-- 2058995448896&#45;&gt;2058986747024 -->
<g id="edge14" class="edge">
<title>2058995448896&#45;&gt;2058986747024</title>
<path fill="none" stroke="black" d="M1547.21,-28.02C1558.04,-30.3 1569.25,-32.65 1579.1,-34.72"/>
<polygon fill="black" stroke="black" points="1578.66,-38.2 1589.17,-36.83 1580.1,-31.35 1578.66,-38.2"/>
</g>
</g>
</svg>
