<?xml version="1.0" encoding="UTF-8" standalone="no"?>
<!DOCTYPE svg PUBLIC "-//W3C//DTD SVG 1.1//EN"
 "http://www.w3.org/Graphics/SVG/1.1/DTD/svg11.dtd">
<!-- Generated by graphviz version 6.0.1 (20220911.1526)
 -->
<!-- Pages: 1 -->
<svg width="1717pt" height="98pt"
 viewBox="0.00 0.00 1717.00 98.00" xmlns="http://www.w3.org/2000/svg" xmlns:xlink="http://www.w3.org/1999/xlink">
<g id="graph0" class="graph" transform="scale(1 1) rotate(0) translate(4 94)">
<polygon fill="white" stroke="none" points="-4,4 -4,-94 1713,-94 1713,4 -4,4"/>
<!-- 2058995447696 -->
<g id="node1" class="node">
<title>2058995447696</title>
<ellipse fill="green" stroke="black" cx="18" cy="-45" rx="18" ry="18"/>
</g>
<!-- 2058995438192 -->
<g id="node2" class="node">
<title>2058995438192</title>
<polygon fill="none" stroke="black" points="99,-63 72,-45 99,-27 126,-45 99,-63"/>
<text text-anchor="middle" x="99" y="-41.9" font-family="Times New Roman,serif" font-size="12.00">X</text>
</g>
<!-- 2058995447696&#45;&gt;2058995438192 -->
<g id="edge1" class="edge">
<title>2058995447696&#45;&gt;2058995438192</title>
<path fill="none" stroke="black" d="M36.14,-45C43.64,-45 52.75,-45 61.64,-45"/>
<polygon fill="black" stroke="black" points="61.87,-48.5 71.87,-45 61.87,-41.5 61.87,-48.5"/>
</g>
<!-- 2058995194352 -->
<g id="node3" class="node">
<title>2058995194352</title>
<polygon fill="none" stroke="black" points="259,-88 162,-88 162,-52 259,-52 259,-88"/>
<text text-anchor="middle" x="210.5" y="-66.9" font-family="Times New Roman,serif" font-size="12.00">Provide feedback</text>
</g>
<!-- 2058995438192&#45;&gt;2058995194352 -->
<g id="edge3" class="edge">
<title>2058995438192&#45;&gt;2058995194352</title>
<path fill="none" stroke="black" d="M119.58,-49.47C128.8,-51.58 140.34,-54.21 152.05,-56.88"/>
<polygon fill="black" stroke="black" points="151.34,-60.31 161.87,-59.13 152.9,-53.49 151.34,-60.31"/>
</g>
<!-- 2058995192864 -->
<g id="node4" class="node">
<title>2058995192864</title>
<polygon fill="none" stroke="black" points="394,-36 295,-36 295,0 394,0 394,-36"/>
<text text-anchor="middle" x="344.5" y="-14.9" font-family="Times New Roman,serif" font-size="12.00">Resolve complaint</text>
</g>
<!-- 2058995438192&#45;&gt;2058995192864 -->
<g id="edge2" class="edge">
<title>2058995438192&#45;&gt;2058995192864</title>
<path fill="none" stroke="black" d="M122.47,-42.51C159.01,-38.46 232.45,-30.31 284.64,-24.53"/>
<polygon fill="black" stroke="black" points="285.22,-27.98 294.77,-23.4 284.45,-21.03 285.22,-27.98"/>
</g>
<!-- 2058995194688 -->
<g id="node6" class="node">
<title>2058995194688</title>
<polygon fill="none" stroke="black" points="394,-90 295,-90 295,-54 394,-54 394,-90"/>
<text text-anchor="middle" x="344.5" y="-68.9" font-family="Times New Roman,serif" font-size="12.00">Resolve complaint</text>
</g>
<!-- 2058995194352&#45;&gt;2058995194688 -->
<g id="edge4" class="edge">
<title>2058995194352&#45;&gt;2058995194688</title>
<path fill="none" stroke="black" d="M259.16,-70.72C267.35,-70.85 275.94,-70.98 284.39,-71.1"/>
<polygon fill="black" stroke="black" points="284.53,-74.61 294.58,-71.26 284.64,-67.61 284.53,-74.61"/>
</g>
<!-- 2058995441840 -->
<g id="node5" class="node">
<title>2058995441840</title>
<polygon fill="none" stroke="black" points="457,-63 430,-45 457,-27 484,-45 457,-63"/>
<text text-anchor="middle" x="457" y="-41.9" font-family="Times New Roman,serif" font-size="12.00">X</text>
</g>
<!-- 2058995192864&#45;&gt;2058995441840 -->
<g id="edge5" class="edge">
<title>2058995192864&#45;&gt;2058995441840</title>
<path fill="none" stroke="black" d="M394.29,-29.92C405.45,-32.65 416.96,-35.46 426.97,-37.91"/>
<polygon fill="black" stroke="black" points="426.25,-41.33 436.79,-40.31 427.91,-34.53 426.25,-41.33"/>
</g>
<!-- 2058995444816 -->
<g id="node7" class="node">
<title>2058995444816</title>
<polygon fill="none" stroke="black" points="547,-63 520,-45 547,-27 574,-45 547,-63"/>
<text text-anchor="middle" x="547" y="-41.9" font-family="Times New Roman,serif" font-size="12.00">X</text>
</g>
<!-- 2058995441840&#45;&gt;2058995444816 -->
<g id="edge7" class="edge">
<title>2058995441840&#45;&gt;2058995444816</title>
<path fill="none" stroke="black" d="M484.4,-45C492.39,-45 501.31,-45 509.82,-45"/>
<polygon fill="black" stroke="black" points="509.92,-48.5 519.92,-45 509.92,-41.5 509.92,-48.5"/>
</g>
<!-- 2058995194688&#45;&gt;2058995441840 -->
<g id="edge6" class="edge">
<title>2058995194688&#45;&gt;2058995441840</title>
<path fill="none" stroke="black" d="M394.29,-60.08C405.45,-57.35 416.96,-54.54 426.97,-52.09"/>
<polygon fill="black" stroke="black" points="427.91,-55.47 436.79,-49.69 426.25,-48.67 427.91,-55.47"/>
</g>
<!-- 2058995192240 -->
<g id="node8" class="node">
<title>2058995192240</title>
<polygon fill="none" stroke="black" points="732,-88 610,-88 610,-52 732,-52 732,-88"/>
<text text-anchor="middle" x="671" y="-66.9" font-family="Times New Roman,serif" font-size="12.00">Process reimbursement</text>
</g>
<!-- 2058995444816&#45;&gt;2058995192240 -->
<g id="edge8" class="edge">
<title>2058995444816&#45;&gt;2058995192240</title>
<path fill="none" stroke="black" d="M568.15,-49.13C577.13,-50.97 588.31,-53.26 599.94,-55.64"/>
<polygon fill="black" stroke="black" points="599.28,-59.08 609.78,-57.66 600.68,-52.22 599.28,-59.08"/>
</g>
<!-- 2058995190224 -->
<g id="node9" class="node">
<title>2058995190224</title>
<polygon fill="none" stroke="black" points="911,-36 774,-36 774,0 911,0 911,-36"/>
<text text-anchor="middle" x="842.5" y="-14.9" font-family="Times New Roman,serif" font-size="12.00">Reject and notify customer</text>
</g>
<!-- 2058995444816&#45;&gt;2058995190224 -->
<g id="edge9" class="edge">
<title>2058995444816&#45;&gt;2058995190224</title>
<path fill="none" stroke="black" d="M571.03,-42.88C612.01,-39.11 699.34,-31.08 763.73,-25.15"/>
<polygon fill="black" stroke="black" points="764.22,-28.62 773.86,-24.22 763.58,-21.65 764.22,-28.62"/>
</g>
<!-- 2058995190416 -->
<g id="node11" class="node">
<title>2058995190416</title>
<polygon fill="none" stroke="black" points="917,-90 768,-90 768,-54 917,-54 917,-90"/>
<text text-anchor="middle" x="842.5" y="-68.9" font-family="Times New Roman,serif" font-size="12.00">Approve and notify customer</text>
</g>
<!-- 2058995192240&#45;&gt;2058995190416 -->
<g id="edge10" class="edge">
<title>2058995192240&#45;&gt;2058995190416</title>
<path fill="none" stroke="black" d="M732.24,-70.71C740.51,-70.81 749.13,-70.91 757.73,-71.01"/>
<polygon fill="black" stroke="black" points="757.76,-74.51 767.8,-71.13 757.85,-67.51 757.76,-74.51"/>
</g>
<!-- 2058995438864 -->
<g id="node10" class="node">
<title>2058995438864</title>
<polygon fill="none" stroke="black" points="980,-63 953,-45 980,-27 1007,-45 980,-63"/>
<text text-anchor="middle" x="980" y="-41.9" font-family="Times New Roman,serif" font-size="12.00">X</text>
</g>
<!-- 2058995190224&#45;&gt;2058995438864 -->
<g id="edge11" class="edge">
<title>2058995190224&#45;&gt;2058995438864</title>
<path fill="none" stroke="black" d="M911.25,-31.5C924.39,-34.12 937.52,-36.74 948.68,-38.96"/>
<polygon fill="black" stroke="black" points="948.22,-42.44 958.71,-40.96 949.59,-35.57 948.22,-42.44"/>
</g>
<!-- 2058995437232 -->
<g id="node12" class="node">
<title>2058995437232</title>
<polygon fill="none" stroke="black" points="1171,-63 1043,-63 1043,-27 1171,-27 1171,-63"/>
<text text-anchor="middle" x="1107" y="-41.9" font-family="Times New Roman,serif" font-size="12.00">Review complaint details</text>
</g>
<!-- 2058995438864&#45;&gt;2058995437232 -->
<g id="edge13" class="edge">
<title>2058995438864&#45;&gt;2058995437232</title>
<path fill="none" stroke="black" d="M1007.2,-45C1014.8,-45 1023.49,-45 1032.49,-45"/>
<polygon fill="black" stroke="black" points="1032.75,-48.5 1042.75,-45 1032.75,-41.5 1032.75,-48.5"/>
</g>
<!-- 2058995190416&#45;&gt;2058995438864 -->
<g id="edge12" class="edge">
<title>2058995190416&#45;&gt;2058995438864</title>
<path fill="none" stroke="black" d="M917.2,-57.31C928.38,-55.09 939.35,-52.9 948.87,-51"/>
<polygon fill="black" stroke="black" points="949.81,-54.39 958.93,-49 948.44,-47.52 949.81,-54.39"/>
</g>
<!-- 2058995201792 -->
<g id="node13" class="node">
<title>2058995201792</title>
<polygon fill="none" stroke="black" points="1404,-63 1207,-63 1207,-27 1404,-27 1404,-63"/>
<text text-anchor="middle" x="1305.5" y="-41.9" font-family="Times New Roman,serif" font-size="12.00">Assign complaint to relevant department</text>
</g>
<!-- 2058995437232&#45;&gt;2058995201792 -->
<g id="edge14" class="edge">
<title>2058995437232&#45;&gt;2058995201792</title>
<path fill="none" stroke="black" d="M1171.26,-45C1179.4,-45 1187.91,-45 1196.53,-45"/>
<polygon fill="black" stroke="black" points="1196.67,-48.5 1206.67,-45 1196.67,-41.5 1196.67,-48.5"/>
</g>
<!-- 2058995188592 -->
<g id="node14" class="node">
<title>2058995188592</title>
<polygon fill="none" stroke="black" points="1521,-63 1440,-63 1440,-27 1521,-27 1521,-63"/>
<text text-anchor="middle" x="1480.5" y="-41.9" font-family="Times New Roman,serif" font-size="12.00">Log complaint</text>
</g>
<!-- 2058995201792&#45;&gt;2058995188592 -->
<g id="edge15" class="edge">
<title>2058995201792&#45;&gt;2058995188592</title>
<path fill="none" stroke="black" d="M1404.12,-45C1412.96,-45 1421.64,-45 1429.79,-45"/>
<polygon fill="black" stroke="black" points="1429.79,-48.5 1439.79,-45 1429.79,-41.5 1429.79,-48.5"/>
</g>
<!-- 2058995194592 -->
<g id="node15" class="node">
<title>2058995194592</title>
<polygon fill="none" stroke="black" points="1637,-63 1557,-63 1557,-27 1637,-27 1637,-63"/>
<text text-anchor="middle" x="1597" y="-41.9" font-family="Times New Roman,serif" font-size="12.00">File complaint</text>
</g>
<!-- 2058995188592&#45;&gt;2058995194592 -->
<g id="edge16" class="edge">
<title>2058995188592&#45;&gt;2058995194592</title>
<path fill="none" stroke="black" d="M1521.23,-45C1529.4,-45 1538.1,-45 1546.57,-45"/>
<polygon fill="black" stroke="black" points="1546.73,-48.5 1556.73,-45 1546.73,-41.5 1546.73,-48.5"/>
</g>
<!-- 2058995449280 -->
<g id="node16" class="node">
<title>2058995449280</title>
<ellipse fill="orange" stroke="black" cx="1691" cy="-45" rx="18" ry="18"/>
</g>
<!-- 2058995194592&#45;&gt;2058995449280 -->
<g id="edge17" class="edge">
<title>2058995194592&#45;&gt;2058995449280</title>
<path fill="none" stroke="black" d="M1637.02,-45C1645.73,-45 1654.79,-45 1662.9,-45"/>
<polygon fill="black" stroke="black" points="1662.91,-48.5 1672.91,-45 1662.91,-41.5 1662.91,-48.5"/>
</g>
</g>
</svg>
