<?xml version="1.0" encoding="UTF-8" standalone="no"?>
<!DOCTYPE svg PUBLIC "-//W3C//DTD SVG 1.1//EN"
 "http://www.w3.org/Graphics/SVG/1.1/DTD/svg11.dtd">
<!-- Generated by graphviz version 6.0.1 (20220911.1526)
 -->
<!-- Pages: 1 -->
<svg width="1717pt" height="98pt"
 viewBox="0.00 0.00 1717.00 98.00" xmlns="http://www.w3.org/2000/svg" xmlns:xlink="http://www.w3.org/1999/xlink">
<g id="graph0" class="graph" transform="scale(1 1) rotate(0) translate(4 94)">
<polygon fill="white" stroke="none" points="-4,4 -4,-94 1713,-94 1713,4 -4,4"/>
<!-- 2057961808048 -->
<g id="node1" class="node">
<title>2057961808048</title>
<ellipse fill="green" stroke="black" cx="18" cy="-45" rx="18" ry="18"/>
</g>
<!-- 2058996277328 -->
<g id="node2" class="node">
<title>2058996277328</title>
<polygon fill="none" stroke="black" points="99,-63 72,-45 99,-27 126,-45 99,-63"/>
<text text-anchor="middle" x="99" y="-41.9" font-family="Times New Roman,serif" font-size="12.00">X</text>
</g>
<!-- 2057961808048&#45;&gt;2058996277328 -->
<g id="edge1" class="edge">
<title>2057961808048&#45;&gt;2058996277328</title>
<path fill="none" stroke="black" d="M36.14,-45C43.64,-45 52.75,-45 61.64,-45"/>
<polygon fill="black" stroke="black" points="61.87,-48.5 71.87,-45 61.87,-41.5 61.87,-48.5"/>
</g>
<!-- 2058996272048 -->
<g id="node3" class="node">
<title>2058996272048</title>
<polygon fill="none" stroke="black" points="322,-63 295,-45 322,-27 349,-45 322,-63"/>
<text text-anchor="middle" x="322" y="-41.9" font-family="Times New Roman,serif" font-size="12.00">X</text>
</g>
<!-- 2058996277328&#45;&gt;2058996272048 -->
<g id="edge2" class="edge">
<title>2058996277328&#45;&gt;2058996272048</title>
<path fill="none" stroke="black" d="M123.24,-46.86C134.87,-47.69 149.17,-48.59 162,-49 205.09,-50.39 215.91,-50.39 259,-49 268.32,-48.7 278.42,-48.15 287.7,-47.54"/>
<polygon fill="black" stroke="black" points="288.02,-51.03 297.76,-46.86 287.54,-44.05 288.02,-51.03"/>
</g>
<!-- 2058995188640 -->
<g id="node4" class="node">
<title>2058995188640</title>
<polygon fill="none" stroke="black" points="259,-40 162,-40 162,-4 259,-4 259,-40"/>
<text text-anchor="middle" x="210.5" y="-18.9" font-family="Times New Roman,serif" font-size="12.00">Provide feedback</text>
</g>
<!-- 2058996277328&#45;&gt;2058995188640 -->
<g id="edge3" class="edge">
<title>2058996277328&#45;&gt;2058995188640</title>
<path fill="none" stroke="black" d="M119.83,-40.83C128.89,-38.93 140.13,-36.57 151.56,-34.17"/>
<polygon fill="black" stroke="black" points="152.54,-37.54 161.6,-32.06 151.1,-30.69 152.54,-37.54"/>
</g>
<!-- 2058996279872 -->
<g id="node5" class="node">
<title>2058996279872</title>
<polygon fill="none" stroke="black" points="484,-63 385,-63 385,-27 484,-27 484,-63"/>
<text text-anchor="middle" x="434.5" y="-41.9" font-family="Times New Roman,serif" font-size="12.00">Resolve complaint</text>
</g>
<!-- 2058996272048&#45;&gt;2058996279872 -->
<g id="edge5" class="edge">
<title>2058996272048&#45;&gt;2058996279872</title>
<path fill="none" stroke="black" d="M349.19,-45C356.98,-45 365.84,-45 374.83,-45"/>
<polygon fill="black" stroke="black" points="374.98,-48.5 384.98,-45 374.98,-41.5 374.98,-48.5"/>
</g>
<!-- 2058995188640&#45;&gt;2058996272048 -->
<g id="edge4" class="edge">
<title>2058995188640&#45;&gt;2058996272048</title>
<path fill="none" stroke="black" d="M259.21,-32.02C270.04,-34.3 281.25,-36.65 291.1,-38.72"/>
<polygon fill="black" stroke="black" points="290.66,-42.2 301.17,-40.83 292.1,-35.35 290.66,-42.2"/>
</g>
<!-- 2058996283376 -->
<g id="node6" class="node">
<title>2058996283376</title>
<polygon fill="none" stroke="black" points="547,-63 520,-45 547,-27 574,-45 547,-63"/>
<text text-anchor="middle" x="547" y="-41.9" font-family="Times New Roman,serif" font-size="12.00">X</text>
</g>
<!-- 2058996279872&#45;&gt;2058996283376 -->
<g id="edge6" class="edge">
<title>2058996279872&#45;&gt;2058996283376</title>
<path fill="none" stroke="black" d="M484.29,-45C492.81,-45 501.54,-45 509.65,-45"/>
<polygon fill="black" stroke="black" points="509.89,-48.5 519.89,-45 509.89,-41.5 509.89,-48.5"/>
</g>
<!-- 2058995192480 -->
<g id="node7" class="node">
<title>2058995192480</title>
<polygon fill="none" stroke="black" points="911,-90 774,-90 774,-54 911,-54 911,-90"/>
<text text-anchor="middle" x="842.5" y="-68.9" font-family="Times New Roman,serif" font-size="12.00">Reject and notify customer</text>
</g>
<!-- 2058996283376&#45;&gt;2058995192480 -->
<g id="edge7" class="edge">
<title>2058996283376&#45;&gt;2058995192480</title>
<path fill="none" stroke="black" d="M571.03,-47.12C612.01,-50.89 699.34,-58.92 763.73,-64.85"/>
<polygon fill="black" stroke="black" points="763.58,-68.35 773.86,-65.78 764.22,-61.38 763.58,-68.35"/>
</g>
<!-- 2058995188496 -->
<g id="node8" class="node">
<title>2058995188496</title>
<polygon fill="none" stroke="black" points="732,-40 610,-40 610,-4 732,-4 732,-40"/>
<text text-anchor="middle" x="671" y="-18.9" font-family="Times New Roman,serif" font-size="12.00">Process reimbursement</text>
</g>
<!-- 2058996283376&#45;&gt;2058995188496 -->
<g id="edge8" class="edge">
<title>2058996283376&#45;&gt;2058995188496</title>
<path fill="none" stroke="black" d="M568.42,-41.15C577.29,-39.48 588.25,-37.41 599.65,-35.26"/>
<polygon fill="black" stroke="black" points="600.57,-38.65 609.75,-33.36 599.28,-31.77 600.57,-38.65"/>
</g>
<!-- 2058996271808 -->
<g id="node9" class="node">
<title>2058996271808</title>
<polygon fill="none" stroke="black" points="980,-63 953,-45 980,-27 1007,-45 980,-63"/>
<text text-anchor="middle" x="980" y="-41.9" font-family="Times New Roman,serif" font-size="12.00">X</text>
</g>
<!-- 2058995192480&#45;&gt;2058996271808 -->
<g id="edge9" class="edge">
<title>2058995192480&#45;&gt;2058996271808</title>
<path fill="none" stroke="black" d="M911.25,-58.5C924.39,-55.88 937.52,-53.26 948.68,-51.04"/>
<polygon fill="black" stroke="black" points="949.59,-54.43 958.71,-49.04 948.22,-47.56 949.59,-54.43"/>
</g>
<!-- 2058995203472 -->
<g id="node10" class="node">
<title>2058995203472</title>
<polygon fill="none" stroke="black" points="917,-36 768,-36 768,0 917,0 917,-36"/>
<text text-anchor="middle" x="842.5" y="-14.9" font-family="Times New Roman,serif" font-size="12.00">Approve and notify customer</text>
</g>
<!-- 2058995188496&#45;&gt;2058995203472 -->
<g id="edge10" class="edge">
<title>2058995188496&#45;&gt;2058995203472</title>
<path fill="none" stroke="black" d="M732.24,-20.58C740.51,-20.38 749.13,-20.18 757.73,-19.98"/>
<polygon fill="black" stroke="black" points="757.89,-23.47 767.8,-19.74 757.72,-16.48 757.89,-23.47"/>
</g>
<!-- 2058995190848 -->
<g id="node11" class="node">
<title>2058995190848</title>
<polygon fill="none" stroke="black" points="1171,-63 1043,-63 1043,-27 1171,-27 1171,-63"/>
<text text-anchor="middle" x="1107" y="-41.9" font-family="Times New Roman,serif" font-size="12.00">Review complaint details</text>
</g>
<!-- 2058996271808&#45;&gt;2058995190848 -->
<g id="edge12" class="edge">
<title>2058996271808&#45;&gt;2058995190848</title>
<path fill="none" stroke="black" d="M1007.2,-45C1014.8,-45 1023.49,-45 1032.49,-45"/>
<polygon fill="black" stroke="black" points="1032.75,-48.5 1042.75,-45 1032.75,-41.5 1032.75,-48.5"/>
</g>
<!-- 2058995203472&#45;&gt;2058996271808 -->
<g id="edge11" class="edge">
<title>2058995203472&#45;&gt;2058996271808</title>
<path fill="none" stroke="black" d="M917.2,-32.69C928.38,-34.91 939.35,-37.1 948.87,-39"/>
<polygon fill="black" stroke="black" points="948.44,-42.48 958.93,-41 949.81,-35.61 948.44,-42.48"/>
</g>
<!-- 2058996275888 -->
<g id="node12" class="node">
<title>2058996275888</title>
<polygon fill="none" stroke="black" points="1404,-63 1207,-63 1207,-27 1404,-27 1404,-63"/>
<text text-anchor="middle" x="1305.5" y="-41.9" font-family="Times New Roman,serif" font-size="12.00">Assign complaint to relevant department</text>
</g>
<!-- 2058995190848&#45;&gt;2058996275888 -->
<g id="edge13" class="edge">
<title>2058995190848&#45;&gt;2058996275888</title>
<path fill="none" stroke="black" d="M1171.26,-45C1179.4,-45 1187.91,-45 1196.53,-45"/>
<polygon fill="black" stroke="black" points="1196.67,-48.5 1206.67,-45 1196.67,-41.5 1196.67,-48.5"/>
</g>
<!-- 2058995195312 -->
<g id="node13" class="node">
<title>2058995195312</title>
<polygon fill="none" stroke="black" points="1521,-63 1440,-63 1440,-27 1521,-27 1521,-63"/>
<text text-anchor="middle" x="1480.5" y="-41.9" font-family="Times New Roman,serif" font-size="12.00">Log complaint</text>
</g>
<!-- 2058996275888&#45;&gt;2058995195312 -->
<g id="edge14" class="edge">
<title>2058996275888&#45;&gt;2058995195312</title>
<path fill="none" stroke="black" d="M1404.12,-45C1412.96,-45 1421.64,-45 1429.79,-45"/>
<polygon fill="black" stroke="black" points="1429.79,-48.5 1439.79,-45 1429.79,-41.5 1429.79,-48.5"/>
</g>
<!-- 2058995196272 -->
<g id="node14" class="node">
<title>2058995196272</title>
<polygon fill="none" stroke="black" points="1637,-63 1557,-63 1557,-27 1637,-27 1637,-63"/>
<text text-anchor="middle" x="1597" y="-41.9" font-family="Times New Roman,serif" font-size="12.00">File complaint</text>
</g>
<!-- 2058995195312&#45;&gt;2058995196272 -->
<g id="edge15" class="edge">
<title>2058995195312&#45;&gt;2058995196272</title>
<path fill="none" stroke="black" d="M1521.23,-45C1529.4,-45 1538.1,-45 1546.57,-45"/>
<polygon fill="black" stroke="black" points="1546.73,-48.5 1556.73,-45 1546.73,-41.5 1546.73,-48.5"/>
</g>
<!-- 2057961801616 -->
<g id="node15" class="node">
<title>2057961801616</title>
<ellipse fill="orange" stroke="black" cx="1691" cy="-45" rx="18" ry="18"/>
</g>
<!-- 2058995196272&#45;&gt;2057961801616 -->
<g id="edge16" class="edge">
<title>2058995196272&#45;&gt;2057961801616</title>
<path fill="none" stroke="black" d="M1637.02,-45C1645.73,-45 1654.79,-45 1662.9,-45"/>
<polygon fill="black" stroke="black" points="1662.91,-48.5 1672.91,-45 1662.91,-41.5 1662.91,-48.5"/>
</g>
</g>
</svg>
