<?xml version="1.0" encoding="UTF-8" standalone="no"?>
<!DOCTYPE svg PUBLIC "-//W3C//DTD SVG 1.1//EN"
 "http://www.w3.org/Graphics/SVG/1.1/DTD/svg11.dtd">
<!-- Generated by graphviz version 6.0.1 (20220911.1526)
 -->
<!-- Pages: 1 -->
<svg width="1800pt" height="132pt"
 viewBox="0.00 0.00 1800.00 132.00" xmlns="http://www.w3.org/2000/svg" xmlns:xlink="http://www.w3.org/1999/xlink">
<g id="graph0" class="graph" transform="scale(1 1) rotate(0) translate(4 128)">
<polygon fill="white" stroke="none" points="-4,4 -4,-128 1796,-128 1796,4 -4,4"/>
<!-- 2058993782112 -->
<g id="node1" class="node">
<title>2058993782112</title>
<ellipse fill="green" stroke="black" cx="18" cy="-79" rx="18" ry="18"/>
</g>
<!-- 2058994533424 -->
<g id="node2" class="node">
<title>2058994533424</title>
<polygon fill="none" stroke="black" points="171,-97 72,-97 72,-61 171,-61 171,-97"/>
<text text-anchor="middle" x="121.5" y="-75.9" font-family="Times New Roman,serif" font-size="12.00">Resolve complaint</text>
</g>
<!-- 2058993782112&#45;&gt;2058994533424 -->
<g id="edge1" class="edge">
<title>2058993782112&#45;&gt;2058994533424</title>
<path fill="none" stroke="black" d="M36.22,-79C43.45,-79 52.31,-79 61.56,-79"/>
<polygon fill="black" stroke="black" points="61.67,-82.5 71.67,-79 61.67,-75.5 61.67,-82.5"/>
</g>
<!-- 2058995448896 -->
<g id="node3" class="node">
<title>2058995448896</title>
<polygon fill="none" stroke="black" points="288,-97 207,-97 207,-61 288,-61 288,-97"/>
<text text-anchor="middle" x="247.5" y="-75.9" font-family="Times New Roman,serif" font-size="12.00">Log complaint</text>
</g>
<!-- 2058994533424&#45;&gt;2058995448896 -->
<g id="edge2" class="edge">
<title>2058994533424&#45;&gt;2058995448896</title>
<path fill="none" stroke="black" d="M171.15,-79C179.55,-79 188.28,-79 196.7,-79"/>
<polygon fill="black" stroke="black" points="196.78,-82.5 206.78,-79 196.78,-75.5 196.78,-82.5"/>
</g>
<!-- 2058994542880 -->
<g id="node4" class="node">
<title>2058994542880</title>
<polygon fill="none" stroke="black" points="461,-97 324,-97 324,-61 461,-61 461,-97"/>
<text text-anchor="middle" x="392.5" y="-75.9" font-family="Times New Roman,serif" font-size="12.00">Reject and notify customer</text>
</g>
<!-- 2058995448896&#45;&gt;2058994542880 -->
<g id="edge3" class="edge">
<title>2058995448896&#45;&gt;2058994542880</title>
<path fill="none" stroke="black" d="M288.33,-79C296.38,-79 305.1,-79 313.94,-79"/>
<polygon fill="black" stroke="black" points="313.94,-82.5 323.94,-79 313.94,-75.5 313.94,-82.5"/>
</g>
<!-- 2058994536832 -->
<g id="node5" class="node">
<title>2058994536832</title>
<polygon fill="none" stroke="black" points="577,-97 497,-97 497,-61 577,-61 577,-97"/>
<text text-anchor="middle" x="537" y="-75.9" font-family="Times New Roman,serif" font-size="12.00">File complaint</text>
</g>
<!-- 2058994542880&#45;&gt;2058994536832 -->
<g id="edge4" class="edge">
<title>2058994542880&#45;&gt;2058994536832</title>
<path fill="none" stroke="black" d="M461.41,-79C469.98,-79 478.61,-79 486.81,-79"/>
<polygon fill="black" stroke="black" points="486.93,-82.5 496.93,-79 486.93,-75.5 486.93,-82.5"/>
</g>
<!-- 2058995441648 -->
<g id="node6" class="node">
<title>2058995441648</title>
<polygon fill="none" stroke="black" points="640,-97 613,-79 640,-61 667,-79 640,-97"/>
<text text-anchor="middle" x="640" y="-75.9" font-family="Times New Roman,serif" font-size="12.00">X</text>
</g>
<!-- 2058994536832&#45;&gt;2058995441648 -->
<g id="edge5" class="edge">
<title>2058994536832&#45;&gt;2058995441648</title>
<path fill="none" stroke="black" d="M577.05,-79C585.48,-79 594.36,-79 602.68,-79"/>
<polygon fill="black" stroke="black" points="602.85,-82.5 612.85,-79 602.85,-75.5 602.85,-82.5"/>
</g>
<!-- 2058994542208 -->
<g id="node7" class="node">
<title>2058994542208</title>
<polygon fill="none" stroke="black" points="1033,-124 936,-124 936,-88 1033,-88 1033,-124"/>
<text text-anchor="middle" x="984.5" y="-102.9" font-family="Times New Roman,serif" font-size="12.00">Provide feedback</text>
</g>
<!-- 2058995441648&#45;&gt;2058994542208 -->
<g id="edge7" class="edge">
<title>2058995441648&#45;&gt;2058994542208</title>
<path fill="none" stroke="black" d="M664.27,-80.83C717.44,-85.03 849.13,-95.41 925.73,-101.45"/>
<polygon fill="black" stroke="black" points="925.46,-104.94 935.71,-102.23 926.01,-97.96 925.46,-104.94"/>
</g>
<!-- 2058994544080 -->
<g id="node8" class="node">
<title>2058994544080</title>
<polygon fill="none" stroke="black" points="900,-74 703,-74 703,-38 900,-38 900,-74"/>
<text text-anchor="middle" x="801.5" y="-52.9" font-family="Times New Roman,serif" font-size="12.00">Assign complaint to relevant department</text>
</g>
<!-- 2058995441648&#45;&gt;2058994544080 -->
<g id="edge6" class="edge">
<title>2058995441648&#45;&gt;2058994544080</title>
<path fill="none" stroke="black" d="M662.51,-75.9C670.99,-74.67 681.41,-73.17 692.69,-71.55"/>
<polygon fill="black" stroke="black" points="693.39,-74.98 702.79,-70.09 692.39,-68.05 693.39,-74.98"/>
</g>
<!-- 2058995445104 -->
<g id="node9" class="node">
<title>2058995445104</title>
<polygon fill="none" stroke="black" points="1693,-101 1666,-83 1693,-65 1720,-83 1693,-101"/>
<text text-anchor="middle" x="1693" y="-79.9" font-family="Times New Roman,serif" font-size="12.00">X</text>
</g>
<!-- 2058994542208&#45;&gt;2058995445104 -->
<g id="edge8" class="edge">
<title>2058994542208&#45;&gt;2058995445104</title>
<path fill="none" stroke="black" d="M1033.19,-106C1091.44,-106 1192.95,-106 1280,-106 1280,-106 1280,-106 1409,-106 1500.54,-106 1608.19,-93.9 1660.41,-87.25"/>
<polygon fill="black" stroke="black" points="1660.92,-90.71 1670.39,-85.96 1660.02,-83.77 1660.92,-90.71"/>
</g>
<!-- 2058995436992 -->
<g id="node10" class="node">
<title>2058995436992</title>
<polygon fill="none" stroke="black" points="984.5,-70 957.5,-52 984.5,-34 1011.5,-52 984.5,-70"/>
<text text-anchor="middle" x="984.5" y="-48.9" font-family="Times New Roman,serif" font-size="12.00">X</text>
</g>
<!-- 2058994544080&#45;&gt;2058995436992 -->
<g id="edge9" class="edge">
<title>2058994544080&#45;&gt;2058995436992</title>
<path fill="none" stroke="black" d="M900.15,-53.84C917.32,-53.46 934.13,-53.09 948.12,-52.78"/>
<polygon fill="black" stroke="black" points="948.3,-56.28 958.22,-52.56 948.14,-49.28 948.3,-56.28"/>
</g>
<!-- 2058993779664 -->
<g id="node15" class="node">
<title>2058993779664</title>
<ellipse fill="orange" stroke="black" cx="1774" cy="-83" rx="18" ry="18"/>
</g>
<!-- 2058995445104&#45;&gt;2058993779664 -->
<g id="edge12" class="edge">
<title>2058995445104&#45;&gt;2058993779664</title>
<path fill="none" stroke="black" d="M1720.31,-83C1728.42,-83 1737.37,-83 1745.56,-83"/>
<polygon fill="black" stroke="black" points="1745.75,-86.5 1755.75,-83 1745.75,-79.5 1745.75,-86.5"/>
</g>
<!-- 2058995448272 -->
<g id="node11" class="node">
<title>2058995448272</title>
<polygon fill="none" stroke="black" points="1281,-78 1254,-60 1281,-42 1308,-60 1281,-78"/>
<text text-anchor="middle" x="1281" y="-56.9" font-family="Times New Roman,serif" font-size="12.00">X</text>
</g>
<!-- 2058995436992&#45;&gt;2058995448272 -->
<g id="edge11" class="edge">
<title>2058995436992&#45;&gt;2058995448272</title>
<path fill="none" stroke="black" d="M1010.61,-52.68C1063.1,-54.11 1184.54,-57.41 1244.79,-59.04"/>
<polygon fill="black" stroke="black" points="1244.86,-62.55 1254.95,-59.32 1245.05,-55.55 1244.86,-62.55"/>
</g>
<!-- 2058994545088 -->
<g id="node12" class="node">
<title>2058994545088</title>
<polygon fill="none" stroke="black" points="1218,-36 1069,-36 1069,0 1218,0 1218,-36"/>
<text text-anchor="middle" x="1143.5" y="-14.9" font-family="Times New Roman,serif" font-size="12.00">Approve and notify customer</text>
</g>
<!-- 2058995436992&#45;&gt;2058994545088 -->
<g id="edge10" class="edge">
<title>2058995436992&#45;&gt;2058994545088</title>
<path fill="none" stroke="black" d="M1005.38,-47.69C1019.28,-44.68 1038.88,-40.44 1058.91,-36.1"/>
<polygon fill="black" stroke="black" points="1059.73,-39.51 1068.76,-33.97 1058.25,-32.66 1059.73,-39.51"/>
</g>
<!-- 2058994534384 -->
<g id="node13" class="node">
<title>2058994534384</title>
<polygon fill="none" stroke="black" points="1472,-78 1344,-78 1344,-42 1472,-42 1472,-78"/>
<text text-anchor="middle" x="1408" y="-56.9" font-family="Times New Roman,serif" font-size="12.00">Review complaint details</text>
</g>
<!-- 2058995448272&#45;&gt;2058994534384 -->
<g id="edge14" class="edge">
<title>2058995448272&#45;&gt;2058994534384</title>
<path fill="none" stroke="black" d="M1308.2,-60C1315.8,-60 1324.49,-60 1333.49,-60"/>
<polygon fill="black" stroke="black" points="1333.75,-63.5 1343.75,-60 1333.75,-56.5 1333.75,-63.5"/>
</g>
<!-- 2058994545088&#45;&gt;2058995448272 -->
<g id="edge13" class="edge">
<title>2058994545088&#45;&gt;2058995448272</title>
<path fill="none" stroke="black" d="M1202.75,-36.06C1219.95,-41.39 1237.98,-46.98 1252.3,-51.41"/>
<polygon fill="black" stroke="black" points="1251.41,-54.8 1262,-54.42 1253.48,-48.12 1251.41,-54.8"/>
</g>
<!-- 2058994544992 -->
<g id="node14" class="node">
<title>2058994544992</title>
<polygon fill="none" stroke="black" points="1630,-78 1508,-78 1508,-42 1630,-42 1630,-78"/>
<text text-anchor="middle" x="1569" y="-56.9" font-family="Times New Roman,serif" font-size="12.00">Process reimbursement</text>
</g>
<!-- 2058994534384&#45;&gt;2058994544992 -->
<g id="edge15" class="edge">
<title>2058994534384&#45;&gt;2058994544992</title>
<path fill="none" stroke="black" d="M1472.3,-60C1480.61,-60 1489.17,-60 1497.59,-60"/>
<polygon fill="black" stroke="black" points="1497.77,-63.5 1507.77,-60 1497.77,-56.5 1497.77,-63.5"/>
</g>
<!-- 2058994544992&#45;&gt;2058995445104 -->
<g id="edge16" class="edge">
<title>2058994544992&#45;&gt;2058995445104</title>
<path fill="none" stroke="black" d="M1630.29,-71.37C1641.1,-73.4 1651.95,-75.45 1661.47,-77.24"/>
<polygon fill="black" stroke="black" points="1661.1,-80.74 1671.57,-79.15 1662.39,-73.86 1661.1,-80.74"/>
</g>
</g>
</svg>
