<?xml version="1.0" encoding="UTF-8" standalone="no"?>
<!DOCTYPE svg PUBLIC "-//W3C//DTD SVG 1.1//EN"
 "http://www.w3.org/Graphics/SVG/1.1/DTD/svg11.dtd">
<!-- Generated by graphviz version 6.0.1 (20220911.1526)
 -->
<!-- Pages: 1 -->
<svg width="1825pt" height="140pt"
 viewBox="0.00 0.00 1825.00 140.00" xmlns="http://www.w3.org/2000/svg" xmlns:xlink="http://www.w3.org/1999/xlink">
<g id="graph0" class="graph" transform="scale(1 1) rotate(0) translate(4 136)">
<polygon fill="white" stroke="none" points="-4,4 -4,-136 1821,-136 1821,4 -4,4"/>
<!-- 2058993793824 -->
<g id="node1" class="node">
<title>2058993793824</title>
<ellipse fill="green" stroke="black" cx="18" cy="-87" rx="18" ry="18"/>
</g>
<!-- 2058993787008 -->
<g id="node2" class="node">
<title>2058993787008</title>
<polygon fill="none" stroke="black" points="171,-105 72,-105 72,-69 171,-69 171,-105"/>
<text text-anchor="middle" x="121.5" y="-83.9" font-family="Times New Roman,serif" font-size="12.00">Resolve complaint</text>
</g>
<!-- 2058993793824&#45;&gt;2058993787008 -->
<g id="edge1" class="edge">
<title>2058993793824&#45;&gt;2058993787008</title>
<path fill="none" stroke="black" d="M36.22,-87C43.45,-87 52.31,-87 61.56,-87"/>
<polygon fill="black" stroke="black" points="61.67,-90.5 71.67,-87 61.67,-83.5 61.67,-90.5"/>
</g>
<!-- 2058993789840 -->
<g id="node3" class="node">
<title>2058993789840</title>
<polygon fill="none" stroke="black" points="288,-105 207,-105 207,-69 288,-69 288,-105"/>
<text text-anchor="middle" x="247.5" y="-83.9" font-family="Times New Roman,serif" font-size="12.00">Log complaint</text>
</g>
<!-- 2058993787008&#45;&gt;2058993789840 -->
<g id="edge2" class="edge">
<title>2058993787008&#45;&gt;2058993789840</title>
<path fill="none" stroke="black" d="M171.15,-87C179.55,-87 188.28,-87 196.7,-87"/>
<polygon fill="black" stroke="black" points="196.78,-90.5 206.78,-87 196.78,-83.5 196.78,-90.5"/>
</g>
<!-- 2058993790176 -->
<g id="node4" class="node">
<title>2058993790176</title>
<polygon fill="none" stroke="black" points="461,-105 324,-105 324,-69 461,-69 461,-105"/>
<text text-anchor="middle" x="392.5" y="-83.9" font-family="Times New Roman,serif" font-size="12.00">Reject and notify customer</text>
</g>
<!-- 2058993789840&#45;&gt;2058993790176 -->
<g id="edge3" class="edge">
<title>2058993789840&#45;&gt;2058993790176</title>
<path fill="none" stroke="black" d="M288.33,-87C296.38,-87 305.1,-87 313.94,-87"/>
<polygon fill="black" stroke="black" points="313.94,-90.5 323.94,-87 313.94,-83.5 313.94,-90.5"/>
</g>
<!-- 2058993788784 -->
<g id="node5" class="node">
<title>2058993788784</title>
<polygon fill="none" stroke="black" points="577,-105 497,-105 497,-69 577,-69 577,-105"/>
<text text-anchor="middle" x="537" y="-83.9" font-family="Times New Roman,serif" font-size="12.00">File complaint</text>
</g>
<!-- 2058993790176&#45;&gt;2058993788784 -->
<g id="edge4" class="edge">
<title>2058993790176&#45;&gt;2058993788784</title>
<path fill="none" stroke="black" d="M461.41,-87C469.98,-87 478.61,-87 486.81,-87"/>
<polygon fill="black" stroke="black" points="486.93,-90.5 496.93,-87 486.93,-83.5 486.93,-90.5"/>
</g>
<!-- 2058993786384 -->
<g id="node6" class="node">
<title>2058993786384</title>
<polygon fill="none" stroke="black" points="640,-105 613,-87 640,-69 667,-87 640,-105"/>
<text text-anchor="middle" x="640" y="-83.9" font-family="Times New Roman,serif" font-size="12.00">X</text>
</g>
<!-- 2058993788784&#45;&gt;2058993786384 -->
<g id="edge5" class="edge">
<title>2058993788784&#45;&gt;2058993786384</title>
<path fill="none" stroke="black" d="M577.05,-87C585.48,-87 594.36,-87 602.68,-87"/>
<polygon fill="black" stroke="black" points="602.85,-90.5 612.85,-87 602.85,-83.5 602.85,-90.5"/>
</g>
<!-- 2058993788016 -->
<g id="node7" class="node">
<title>2058993788016</title>
<polygon fill="none" stroke="black" points="850,-132 753,-132 753,-96 850,-96 850,-132"/>
<text text-anchor="middle" x="801.5" y="-110.9" font-family="Times New Roman,serif" font-size="12.00">Provide feedback</text>
</g>
<!-- 2058993786384&#45;&gt;2058993788016 -->
<g id="edge7" class="edge">
<title>2058993786384&#45;&gt;2058993788016</title>
<path fill="none" stroke="black" d="M661.85,-90.53C682.31,-93.99 714.45,-99.43 742.63,-104.2"/>
<polygon fill="black" stroke="black" points="742.36,-107.71 752.81,-105.93 743.53,-100.81 742.36,-107.71"/>
</g>
<!-- 2058993790560 -->
<g id="node8" class="node">
<title>2058993790560</title>
<polygon fill="none" stroke="black" points="900,-78 703,-78 703,-42 900,-42 900,-78"/>
<text text-anchor="middle" x="801.5" y="-56.9" font-family="Times New Roman,serif" font-size="12.00">Assign complaint to relevant department</text>
</g>
<!-- 2058993786384&#45;&gt;2058993790560 -->
<g id="edge6" class="edge">
<title>2058993786384&#45;&gt;2058993790560</title>
<path fill="none" stroke="black" d="M661.85,-83.47C670.49,-82.01 681.22,-80.19 692.85,-78.22"/>
<polygon fill="black" stroke="black" points="693.54,-81.66 702.81,-76.54 692.37,-74.75 693.54,-81.66"/>
</g>
<!-- 2058993789168 -->
<g id="node10" class="node">
<title>2058993789168</title>
<polygon fill="none" stroke="black" points="1085,-132 936,-132 936,-96 1085,-96 1085,-132"/>
<text text-anchor="middle" x="1010.5" y="-110.9" font-family="Times New Roman,serif" font-size="12.00">Approve and notify customer</text>
</g>
<!-- 2058993788016&#45;&gt;2058993789168 -->
<g id="edge8" class="edge">
<title>2058993788016&#45;&gt;2058993789168</title>
<path fill="none" stroke="black" d="M850.25,-114C872.6,-114 899.88,-114 925.52,-114"/>
<polygon fill="black" stroke="black" points="925.62,-117.5 935.62,-114 925.62,-110.5 925.62,-117.5"/>
</g>
<!-- 2058993787344 -->
<g id="node9" class="node">
<title>2058993787344</title>
<polygon fill="none" stroke="black" points="1074.5,-78 946.5,-78 946.5,-42 1074.5,-42 1074.5,-78"/>
<text text-anchor="middle" x="1010.5" y="-56.9" font-family="Times New Roman,serif" font-size="12.00">Review complaint details</text>
</g>
<!-- 2058993790560&#45;&gt;2058993787344 -->
<g id="edge9" class="edge">
<title>2058993790560&#45;&gt;2058993787344</title>
<path fill="none" stroke="black" d="M900.24,-60C912.39,-60 924.64,-60 936.32,-60"/>
<polygon fill="black" stroke="black" points="936.43,-63.5 946.43,-60 936.43,-56.5 936.43,-63.5"/>
</g>
<!-- 2058993786480 -->
<g id="node11" class="node">
<title>2058993786480</title>
<polygon fill="none" stroke="black" points="1185,-78 1158,-60 1185,-42 1212,-60 1185,-78"/>
<text text-anchor="middle" x="1185" y="-56.9" font-family="Times New Roman,serif" font-size="12.00">X</text>
</g>
<!-- 2058993787344&#45;&gt;2058993786480 -->
<g id="edge10" class="edge">
<title>2058993787344&#45;&gt;2058993786480</title>
<path fill="none" stroke="black" d="M1074.75,-60C1099.27,-60 1126.45,-60 1147.57,-60"/>
<polygon fill="black" stroke="black" points="1147.72,-63.5 1157.72,-60 1147.72,-56.5 1147.72,-63.5"/>
</g>
<!-- 2058993789504 -->
<g id="node12" class="node">
<title>2058993789504</title>
<polygon fill="none" stroke="black" points="1249,-132 1121,-132 1121,-96 1249,-96 1249,-132"/>
<text text-anchor="middle" x="1185" y="-110.9" font-family="Times New Roman,serif" font-size="12.00">Review complaint details</text>
</g>
<!-- 2058993789168&#45;&gt;2058993789504 -->
<g id="edge11" class="edge">
<title>2058993789168&#45;&gt;2058993789504</title>
<path fill="none" stroke="black" d="M1085.16,-114C1093.62,-114 1102.25,-114 1110.71,-114"/>
<polygon fill="black" stroke="black" points="1110.92,-117.5 1120.92,-114 1110.92,-110.5 1110.92,-117.5"/>
</g>
<!-- 2058993786720 -->
<g id="node13" class="node">
<title>2058993786720</title>
<polygon fill="none" stroke="black" points="1504,-55 1477,-37 1504,-19 1531,-37 1504,-55"/>
<text text-anchor="middle" x="1504" y="-33.9" font-family="Times New Roman,serif" font-size="12.00">X</text>
</g>
<!-- 2058993786480&#45;&gt;2058993786720 -->
<g id="edge12" class="edge">
<title>2058993786480&#45;&gt;2058993786720</title>
<path fill="none" stroke="black" d="M1209.88,-58.5C1250.42,-55.93 1335.29,-50.42 1407,-45 1427.87,-43.42 1451.27,-41.48 1469.75,-39.9"/>
<polygon fill="black" stroke="black" points="1470.07,-43.38 1479.73,-39.04 1469.47,-36.41 1470.07,-43.38"/>
</g>
<!-- 2058993787680 -->
<g id="node15" class="node">
<title>2058993787680</title>
<polygon fill="none" stroke="black" points="1407,-36 1285,-36 1285,0 1407,0 1407,-36"/>
<text text-anchor="middle" x="1346" y="-14.9" font-family="Times New Roman,serif" font-size="12.00">Process reimbursement</text>
</g>
<!-- 2058993786480&#45;&gt;2058993787680 -->
<g id="edge13" class="edge">
<title>2058993786480&#45;&gt;2058993787680</title>
<path fill="none" stroke="black" d="M1204.86,-55.02C1222.3,-50.41 1249.31,-43.28 1274.98,-36.5"/>
<polygon fill="black" stroke="black" points="1275.96,-39.86 1284.73,-33.92 1274.17,-33.09 1275.96,-39.86"/>
</g>
<!-- 2058993786864 -->
<g id="node14" class="node">
<title>2058993786864</title>
<polygon fill="none" stroke="black" points="1346,-132 1319,-114 1346,-96 1373,-114 1346,-132"/>
<text text-anchor="middle" x="1346" y="-110.9" font-family="Times New Roman,serif" font-size="12.00">X</text>
</g>
<!-- 2058993789504&#45;&gt;2058993786864 -->
<g id="edge14" class="edge">
<title>2058993789504&#45;&gt;2058993786864</title>
<path fill="none" stroke="black" d="M1249.3,-114C1269.38,-114 1290.9,-114 1308.44,-114"/>
<polygon fill="black" stroke="black" points="1308.79,-117.5 1318.79,-114 1308.79,-110.5 1308.79,-117.5"/>
</g>
<!-- 2058993786576 -->
<g id="node16" class="node">
<title>2058993786576</title>
<polygon fill="none" stroke="black" points="1718,-86 1691,-68 1718,-50 1745,-68 1718,-86"/>
<text text-anchor="middle" x="1718" y="-64.9" font-family="Times New Roman,serif" font-size="12.00">X</text>
</g>
<!-- 2058993786720&#45;&gt;2058993786576 -->
<g id="edge16" class="edge">
<title>2058993786720&#45;&gt;2058993786576</title>
<path fill="none" stroke="black" d="M1526.49,-40.14C1564.03,-45.63 1641.69,-56.99 1685.38,-63.38"/>
<polygon fill="black" stroke="black" points="1685.05,-66.86 1695.45,-64.85 1686.06,-59.94 1685.05,-66.86"/>
</g>
<!-- 2058993786624 -->
<g id="node17" class="node">
<title>2058993786624</title>
<polygon fill="none" stroke="black" points="1628,-109 1601,-91 1628,-73 1655,-91 1628,-109"/>
<text text-anchor="middle" x="1628" y="-87.9" font-family="Times New Roman,serif" font-size="12.00">X</text>
</g>
<!-- 2058993786864&#45;&gt;2058993786624 -->
<g id="edge17" class="edge">
<title>2058993786864&#45;&gt;2058993786624</title>
<path fill="none" stroke="black" d="M1368.03,-117.45C1407.25,-123.21 1494.03,-132.78 1565,-118 1578.33,-115.22 1592.32,-109.42 1603.62,-103.9"/>
<polygon fill="black" stroke="black" points="1605.48,-106.88 1612.78,-99.21 1602.28,-100.65 1605.48,-106.88"/>
</g>
<!-- 2058993788352 -->
<g id="node18" class="node">
<title>2058993788352</title>
<polygon fill="none" stroke="black" points="1565,-109 1443,-109 1443,-73 1565,-73 1565,-109"/>
<text text-anchor="middle" x="1504" y="-87.9" font-family="Times New Roman,serif" font-size="12.00">Process reimbursement</text>
</g>
<!-- 2058993786864&#45;&gt;2058993788352 -->
<g id="edge18" class="edge">
<title>2058993786864&#45;&gt;2058993788352</title>
<path fill="none" stroke="black" d="M1368.36,-110.85C1385.16,-108.37 1409.55,-104.78 1432.97,-101.32"/>
<polygon fill="black" stroke="black" points="1433.55,-104.78 1442.93,-99.86 1432.53,-97.85 1433.55,-104.78"/>
</g>
<!-- 2058993787680&#45;&gt;2058993786720 -->
<g id="edge15" class="edge">
<title>2058993787680&#45;&gt;2058993786720</title>
<path fill="none" stroke="black" d="M1407.31,-25.35C1428.96,-27.98 1452.52,-30.85 1470.85,-33.08"/>
<polygon fill="black" stroke="black" points="1470.63,-36.58 1480.98,-34.32 1471.48,-29.63 1470.63,-36.58"/>
</g>
<!-- 2058993790704 -->
<g id="node19" class="node">
<title>2058993790704</title>
<ellipse fill="orange" stroke="black" cx="1799" cy="-68" rx="18" ry="18"/>
</g>
<!-- 2058993786576&#45;&gt;2058993790704 -->
<g id="edge21" class="edge">
<title>2058993786576&#45;&gt;2058993790704</title>
<path fill="none" stroke="black" d="M1745.31,-68C1753.42,-68 1762.37,-68 1770.56,-68"/>
<polygon fill="black" stroke="black" points="1770.75,-71.5 1780.75,-68 1770.75,-64.5 1770.75,-71.5"/>
</g>
<!-- 2058993786624&#45;&gt;2058993786576 -->
<g id="edge19" class="edge">
<title>2058993786624&#45;&gt;2058993786576</title>
<path fill="none" stroke="black" d="M1648.09,-86.01C1659.82,-82.94 1675.07,-78.96 1688.24,-75.52"/>
<polygon fill="black" stroke="black" points="1689.45,-78.82 1698.24,-72.9 1687.68,-72.04 1689.45,-78.82"/>
</g>
<!-- 2058993788352&#45;&gt;2058993786624 -->
<g id="edge20" class="edge">
<title>2058993788352&#45;&gt;2058993786624</title>
<path fill="none" stroke="black" d="M1565.29,-91C1573.97,-91 1582.67,-91 1590.69,-91"/>
<polygon fill="black" stroke="black" points="1590.77,-94.5 1600.77,-91 1590.77,-87.5 1590.77,-94.5"/>
</g>
</g>
</svg>
