<?xml version="1.0" encoding="UTF-8" standalone="no"?>
<!DOCTYPE svg PUBLIC "-//W3C//DTD SVG 1.1//EN"
 "http://www.w3.org/Graphics/SVG/1.1/DTD/svg11.dtd">
<!-- Generated by graphviz version 2.50.0 (0)
 -->
<!-- Pages: 1 -->
<svg width="1625pt" height="126pt"
 viewBox="0.00 0.00 1625.00 126.00" xmlns="http://www.w3.org/2000/svg" xmlns:xlink="http://www.w3.org/1999/xlink">
<g id="graph0" class="graph" transform="scale(1 1) rotate(0) translate(4 122)">
<polygon fill="white" stroke="transparent" points="-4,4 -4,-122 1621,-122 1621,4 -4,4"/>
<!-- 6212818192 -->
<g id="node1" class="node">
<title>6212818192</title>
<ellipse fill="green" stroke="black" cx="18" cy="-23" rx="18" ry="18"/>
</g>
<!-- 6212916304 -->
<g id="node2" class="node">
<title>6212916304</title>
<polygon fill="none" stroke="black" points="99,-41 72,-23 99,-5 126,-23 99,-41"/>
<text text-anchor="middle" x="99" y="-19.9" font-family="Times,serif" font-size="12.00">X</text>
</g>
<!-- 6212818192&#45;&gt;6212916304 -->
<g id="edge1" class="edge">
<title>6212818192&#45;&gt;6212916304</title>
<path fill="none" stroke="black" d="M36.14,-23C43.64,-23 52.75,-23 61.64,-23"/>
<polygon fill="black" stroke="black" points="61.87,-26.5 71.87,-23 61.87,-19.5 61.87,-26.5"/>
</g>
<!-- 6206492368 -->
<g id="node3" class="node">
<title>6206492368</title>
<polygon fill="none" stroke="black" points="246,-64 162,-64 162,-28 246,-28 246,-64"/>
<text text-anchor="middle" x="204" y="-42.9" font-family="Times,serif" font-size="12.00">File complaint</text>
</g>
<!-- 6212916304&#45;&gt;6206492368 -->
<g id="edge2" class="edge">
<title>6212916304&#45;&gt;6206492368</title>
<path fill="none" stroke="black" d="M119.86,-27.43C129.08,-29.49 140.52,-32.05 151.92,-34.59"/>
<polygon fill="black" stroke="black" points="151.36,-38.06 161.88,-36.82 152.89,-31.22 151.36,-38.06"/>
</g>
<!-- 6206497744 -->
<g id="node4" class="node">
<title>6206497744</title>
<polygon fill="none" stroke="black" points="368,-64 282,-64 282,-28 368,-28 368,-64"/>
<text text-anchor="middle" x="325" y="-42.9" font-family="Times,serif" font-size="12.00">Log complaint</text>
</g>
<!-- 6206492368&#45;&gt;6206497744 -->
<g id="edge3" class="edge">
<title>6206492368&#45;&gt;6206497744</title>
<path fill="none" stroke="black" d="M246.29,-46C254.5,-46 263.22,-46 271.74,-46"/>
<polygon fill="black" stroke="black" points="271.98,-49.5 281.98,-46 271.98,-42.5 271.98,-49.5"/>
</g>
<!-- 6211487824 -->
<g id="node5" class="node">
<title>6211487824</title>
<polygon fill="none" stroke="black" points="611,-64 404,-64 404,-28 611,-28 611,-64"/>
<text text-anchor="middle" x="507.5" y="-42.9" font-family="Times,serif" font-size="12.00">Assign complaint to relevant department</text>
</g>
<!-- 6206497744&#45;&gt;6211487824 -->
<g id="edge4" class="edge">
<title>6206497744&#45;&gt;6211487824</title>
<path fill="none" stroke="black" d="M368.32,-46C376.19,-46 384.75,-46 393.62,-46"/>
<polygon fill="black" stroke="black" points="393.75,-49.5 403.75,-46 393.75,-42.5 393.75,-49.5"/>
</g>
<!-- 6220640272 -->
<g id="node6" class="node">
<title>6220640272</title>
<polygon fill="none" stroke="black" points="674,-64 647,-46 674,-28 701,-46 674,-64"/>
<text text-anchor="middle" x="674" y="-42.9" font-family="Times,serif" font-size="12.00">X</text>
</g>
<!-- 6211487824&#45;&gt;6220640272 -->
<g id="edge5" class="edge">
<title>6211487824&#45;&gt;6220640272</title>
<path fill="none" stroke="black" d="M611.28,-46C620.3,-46 628.96,-46 636.81,-46"/>
<polygon fill="black" stroke="black" points="636.95,-49.5 646.95,-46 636.95,-42.5 636.95,-49.5"/>
</g>
<!-- 6212494544 -->
<g id="node7" class="node">
<title>6212494544</title>
<polygon fill="none" stroke="black" points="873,-118 737,-118 737,-82 873,-82 873,-118"/>
<text text-anchor="middle" x="805" y="-96.9" font-family="Times,serif" font-size="12.00">Review complaint details</text>
</g>
<!-- 6220640272&#45;&gt;6212494544 -->
<g id="edge7" class="edge">
<title>6220640272&#45;&gt;6212494544</title>
<path fill="none" stroke="black" d="M690.75,-53C703.25,-58.52 721.19,-66.37 737,-73 740.9,-74.64 744.94,-76.31 749.01,-77.98"/>
<polygon fill="black" stroke="black" points="747.94,-81.33 758.52,-81.87 750.59,-74.85 747.94,-81.33"/>
</g>
<!-- 6206419728 -->
<g id="node8" class="node">
<title>6206419728</title>
<polygon fill="none" stroke="black" points="873,-64 737,-64 737,-28 873,-28 873,-64"/>
<text text-anchor="middle" x="805" y="-42.9" font-family="Times,serif" font-size="12.00">Review complaint details</text>
</g>
<!-- 6220640272&#45;&gt;6206419728 -->
<g id="edge6" class="edge">
<title>6220640272&#45;&gt;6206419728</title>
<path fill="none" stroke="black" d="M701.11,-46C708.78,-46 717.6,-46 726.78,-46"/>
<polygon fill="black" stroke="black" points="726.84,-49.5 736.84,-46 726.84,-42.5 726.84,-49.5"/>
</g>
<!-- 6218334480 -->
<g id="node10" class="node">
<title>6218334480</title>
<polygon fill="none" stroke="black" points="1058,-118 915,-118 915,-82 1058,-82 1058,-118"/>
<text text-anchor="middle" x="986.5" y="-96.9" font-family="Times,serif" font-size="12.00">Reject and notify customer</text>
</g>
<!-- 6212494544&#45;&gt;6218334480 -->
<g id="edge8" class="edge">
<title>6212494544&#45;&gt;6218334480</title>
<path fill="none" stroke="black" d="M873.09,-100C883.43,-100 894.2,-100 904.8,-100"/>
<polygon fill="black" stroke="black" points="904.89,-103.5 914.89,-100 904.89,-96.5 904.89,-103.5"/>
</g>
<!-- 6206421968 -->
<g id="node9" class="node">
<title>6206421968</title>
<polygon fill="none" stroke="black" points="1064,-64 909,-64 909,-28 1064,-28 1064,-64"/>
<text text-anchor="middle" x="986.5" y="-42.9" font-family="Times,serif" font-size="12.00">Approve and notify customer</text>
</g>
<!-- 6206419728&#45;&gt;6206421968 -->
<g id="edge9" class="edge">
<title>6206419728&#45;&gt;6206421968</title>
<path fill="none" stroke="black" d="M873.09,-46C881.47,-46 890.12,-46 898.74,-46"/>
<polygon fill="black" stroke="black" points="898.82,-49.5 908.82,-46 898.82,-42.5 898.82,-49.5"/>
</g>
<!-- 6220469776 -->
<g id="node11" class="node">
<title>6220469776</title>
<polygon fill="none" stroke="black" points="1225,-64 1100,-64 1100,-28 1225,-28 1225,-64"/>
<text text-anchor="middle" x="1162.5" y="-42.9" font-family="Times,serif" font-size="12.00">Process reimbursement</text>
</g>
<!-- 6206421968&#45;&gt;6220469776 -->
<g id="edge10" class="edge">
<title>6206421968&#45;&gt;6220469776</title>
<path fill="none" stroke="black" d="M1064.07,-46C1072.56,-46 1081.19,-46 1089.62,-46"/>
<polygon fill="black" stroke="black" points="1089.78,-49.5 1099.78,-46 1089.78,-42.5 1089.78,-49.5"/>
</g>
<!-- 6213356944 -->
<g id="node12" class="node">
<title>6213356944</title>
<polygon fill="none" stroke="black" points="1365,-118 1261,-118 1261,-82 1365,-82 1365,-118"/>
<text text-anchor="middle" x="1313" y="-96.9" font-family="Times,serif" font-size="12.00">Resolve complaint</text>
</g>
<!-- 6218334480&#45;&gt;6213356944 -->
<g id="edge11" class="edge">
<title>6218334480&#45;&gt;6213356944</title>
<path fill="none" stroke="black" d="M1058.31,-100C1115.78,-100 1195.96,-100 1250.7,-100"/>
<polygon fill="black" stroke="black" points="1250.96,-103.5 1260.96,-100 1250.96,-96.5 1250.96,-103.5"/>
</g>
<!-- 6211314576 -->
<g id="node14" class="node">
<title>6211314576</title>
<polygon fill="none" stroke="black" points="1365,-64 1261,-64 1261,-28 1365,-28 1365,-64"/>
<text text-anchor="middle" x="1313" y="-42.9" font-family="Times,serif" font-size="12.00">Resolve complaint</text>
</g>
<!-- 6220469776&#45;&gt;6211314576 -->
<g id="edge12" class="edge">
<title>6220469776&#45;&gt;6211314576</title>
<path fill="none" stroke="black" d="M1225.19,-46C1233.57,-46 1242.18,-46 1250.56,-46"/>
<polygon fill="black" stroke="black" points="1250.64,-49.5 1260.64,-46 1250.64,-42.5 1250.64,-49.5"/>
</g>
<!-- 6220631568 -->
<g id="node13" class="node">
<title>6220631568</title>
<polygon fill="none" stroke="black" points="1428,-64 1401,-46 1428,-28 1455,-46 1428,-64"/>
<text text-anchor="middle" x="1428" y="-42.9" font-family="Times,serif" font-size="12.00">X</text>
</g>
<!-- 6213356944&#45;&gt;6220631568 -->
<g id="edge13" class="edge">
<title>6213356944&#45;&gt;6220631568</title>
<path fill="none" stroke="black" d="M1351.94,-81.87C1368.51,-73.95 1387.47,-64.89 1402.19,-57.86"/>
<polygon fill="black" stroke="black" points="1404.11,-60.82 1411.62,-53.35 1401.09,-54.5 1404.11,-60.82"/>
</g>
<!-- 6212066064 -->
<g id="node15" class="node">
<title>6212066064</title>
<polygon fill="none" stroke="black" points="1518,-41 1491,-23 1518,-5 1545,-23 1518,-41"/>
<text text-anchor="middle" x="1518" y="-19.9" font-family="Times,serif" font-size="12.00">X</text>
</g>
<!-- 6220631568&#45;&gt;6212066064 -->
<g id="edge15" class="edge">
<title>6220631568&#45;&gt;6212066064</title>
<path fill="none" stroke="black" d="M1448.09,-41.01C1459.82,-37.94 1475.07,-33.96 1488.24,-30.52"/>
<polygon fill="black" stroke="black" points="1489.45,-33.82 1498.24,-27.9 1487.68,-27.04 1489.45,-33.82"/>
</g>
<!-- 6211314576&#45;&gt;6220631568 -->
<g id="edge14" class="edge">
<title>6211314576&#45;&gt;6220631568</title>
<path fill="none" stroke="black" d="M1365.21,-46C1373.82,-46 1382.59,-46 1390.72,-46"/>
<polygon fill="black" stroke="black" points="1390.97,-49.5 1400.97,-46 1390.97,-42.5 1390.97,-49.5"/>
</g>
<!-- 6212066064&#45;&gt;6212916304 -->
<g id="edge16" class="edge">
<title>6212066064&#45;&gt;6212916304</title>
<path fill="none" stroke="black" d="M1496.63,-19.15C1460.15,-12.6 1381.21,0 1314,0 324,0 324,0 324,0 254.8,0 174.21,-10.99 131.06,-17.78"/>
<polygon fill="black" stroke="black" points="130.25,-14.37 120.93,-19.41 131.35,-21.28 130.25,-14.37"/>
</g>
<!-- 6217366352 -->
<g id="node16" class="node">
<title>6217366352</title>
<ellipse fill="orange" stroke="black" cx="1599" cy="-23" rx="18" ry="18"/>
</g>
<!-- 6212066064&#45;&gt;6217366352 -->
<g id="edge17" class="edge">
<title>6212066064&#45;&gt;6217366352</title>
<path fill="none" stroke="black" d="M1545.31,-23C1553.42,-23 1562.37,-23 1570.56,-23"/>
<polygon fill="black" stroke="black" points="1570.75,-26.5 1580.75,-23 1570.75,-19.5 1570.75,-26.5"/>
</g>
</g>
</svg>
