<?xml version="1.0" encoding="UTF-8" standalone="no"?>
<!DOCTYPE svg PUBLIC "-//W3C//DTD SVG 1.1//EN"
 "http://www.w3.org/Graphics/SVG/1.1/DTD/svg11.dtd">
<!-- Generated by graphviz version 2.50.0 (0)
 -->
<!-- Pages: 1 -->
<svg width="1915pt" height="190pt"
 viewBox="0.00 0.00 1915.00 190.00" xmlns="http://www.w3.org/2000/svg" xmlns:xlink="http://www.w3.org/1999/xlink">
<g id="graph0" class="graph" transform="scale(1 1) rotate(0) translate(4 186)">
<polygon fill="white" stroke="transparent" points="-4,4 -4,-186 1911,-186 1911,4 -4,4"/>
<!-- 6097343632 -->
<g id="node1" class="node">
<title>6097343632</title>
<ellipse fill="green" stroke="black" cx="18" cy="-41" rx="18" ry="18"/>
</g>
<!-- 6097342416 -->
<g id="node2" class="node">
<title>6097342416</title>
<polygon fill="none" stroke="black" points="99,-59 72,-41 99,-23 126,-41 99,-59"/>
<text text-anchor="middle" x="99" y="-37.9" font-family="Times,serif" font-size="12.00">X</text>
</g>
<!-- 6097343632&#45;&gt;6097342416 -->
<g id="edge1" class="edge">
<title>6097343632&#45;&gt;6097342416</title>
<path fill="none" stroke="black" d="M36.14,-41C43.64,-41 52.75,-41 61.64,-41"/>
<polygon fill="black" stroke="black" points="61.87,-44.5 71.87,-41 61.87,-37.5 61.87,-44.5"/>
</g>
<!-- 6097352912 -->
<g id="node3" class="node">
<title>6097352912</title>
<polygon fill="none" stroke="black" points="189,-82 162,-64 189,-46 216,-64 189,-82"/>
<text text-anchor="middle" x="189" y="-60.9" font-family="Times,serif" font-size="12.00">X</text>
</g>
<!-- 6097342416&#45;&gt;6097352912 -->
<g id="edge2" class="edge">
<title>6097342416&#45;&gt;6097352912</title>
<path fill="none" stroke="black" d="M119.09,-45.99C130.82,-49.06 146.07,-53.04 159.24,-56.48"/>
<polygon fill="black" stroke="black" points="158.68,-59.96 169.24,-59.1 160.45,-53.18 158.68,-59.96"/>
</g>
<!-- 6097342864 -->
<g id="node4" class="node">
<title>6097342864</title>
<polygon fill="none" stroke="black" points="362,-36 278,-36 278,0 362,0 362,-36"/>
<text text-anchor="middle" x="320" y="-14.9" font-family="Times,serif" font-size="12.00">File complaint</text>
</g>
<!-- 6097342416&#45;&gt;6097342864 -->
<g id="edge3" class="edge">
<title>6097342416&#45;&gt;6097342864</title>
<path fill="none" stroke="black" d="M122.61,-38.63C156.65,-35.05 221.94,-28.19 267.88,-23.37"/>
<polygon fill="black" stroke="black" points="268.36,-26.84 277.94,-22.31 267.63,-19.88 268.36,-26.84"/>
</g>
<!-- 6097353232 -->
<g id="node6" class="node">
<title>6097353232</title>
<polygon fill="none" stroke="black" points="388,-128 252,-128 252,-92 388,-92 388,-128"/>
<text text-anchor="middle" x="320" y="-106.9" font-family="Times,serif" font-size="12.00">Review complaint details</text>
</g>
<!-- 6097352912&#45;&gt;6097353232 -->
<g id="edge4" class="edge">
<title>6097352912&#45;&gt;6097353232</title>
<path fill="none" stroke="black" d="M207.13,-70.11C220.5,-74.88 239.92,-81.8 258.83,-88.55"/>
<polygon fill="black" stroke="black" points="257.75,-91.88 268.35,-91.94 260.1,-85.28 257.75,-91.88"/>
</g>
<!-- 6097351440 -->
<g id="node5" class="node">
<title>6097351440</title>
<polygon fill="none" stroke="black" points="1425,-59 1398,-41 1425,-23 1452,-41 1425,-59"/>
<text text-anchor="middle" x="1425" y="-37.9" font-family="Times,serif" font-size="12.00">X</text>
</g>
<!-- 6097342864&#45;&gt;6097351440 -->
<g id="edge5" class="edge">
<title>6097342864&#45;&gt;6097351440</title>
<path fill="none" stroke="black" d="M362.09,-18C414.94,-18 509.56,-18 590.5,-18 590.5,-18 590.5,-18 1246,-18 1298.38,-18 1358.73,-27.92 1393.99,-34.73"/>
<polygon fill="black" stroke="black" points="1393.6,-38.22 1404.09,-36.73 1394.96,-31.35 1393.6,-38.22"/>
</g>
<!-- 6097338448 -->
<g id="node8" class="node">
<title>6097338448</title>
<polygon fill="none" stroke="black" points="1515,-59 1488,-41 1515,-23 1542,-41 1515,-59"/>
<text text-anchor="middle" x="1515" y="-37.9" font-family="Times,serif" font-size="12.00">X</text>
</g>
<!-- 6097351440&#45;&gt;6097338448 -->
<g id="edge6" class="edge">
<title>6097351440&#45;&gt;6097338448</title>
<path fill="none" stroke="black" d="M1452.4,-41C1460.39,-41 1469.31,-41 1477.82,-41"/>
<polygon fill="black" stroke="black" points="1477.92,-44.5 1487.92,-41 1477.92,-37.5 1477.92,-44.5"/>
</g>
<!-- 6097340112 -->
<g id="node7" class="node">
<title>6097340112</title>
<polygon fill="none" stroke="black" points="451,-128 424,-110 451,-92 478,-110 451,-128"/>
<text text-anchor="middle" x="451" y="-106.9" font-family="Times,serif" font-size="12.00">X</text>
</g>
<!-- 6097353232&#45;&gt;6097340112 -->
<g id="edge7" class="edge">
<title>6097353232&#45;&gt;6097340112</title>
<path fill="none" stroke="black" d="M388.14,-110C397,-110 405.79,-110 413.84,-110"/>
<polygon fill="black" stroke="black" points="413.94,-113.5 423.94,-110 413.94,-106.5 413.94,-113.5"/>
</g>
<!-- 6097351696 -->
<g id="node9" class="node">
<title>6097351696</title>
<polygon fill="none" stroke="black" points="669,-182 514,-182 514,-146 669,-146 669,-182"/>
<text text-anchor="middle" x="591.5" y="-160.9" font-family="Times,serif" font-size="12.00">Approve and notify customer</text>
</g>
<!-- 6097340112&#45;&gt;6097351696 -->
<g id="edge9" class="edge">
<title>6097340112&#45;&gt;6097351696</title>
<path fill="none" stroke="black" d="M467.41,-117.08C479.88,-122.71 497.94,-130.68 514,-137 518.51,-138.78 523.2,-140.56 527.92,-142.33"/>
<polygon fill="black" stroke="black" points="527.05,-145.73 537.64,-145.9 529.46,-139.16 527.05,-145.73"/>
</g>
<!-- 6097350800 -->
<g id="node10" class="node">
<title>6097350800</title>
<polygon fill="none" stroke="black" points="663,-128 520,-128 520,-92 663,-92 663,-128"/>
<text text-anchor="middle" x="591.5" y="-106.9" font-family="Times,serif" font-size="12.00">Reject and notify customer</text>
</g>
<!-- 6097340112&#45;&gt;6097350800 -->
<g id="edge8" class="edge">
<title>6097340112&#45;&gt;6097350800</title>
<path fill="none" stroke="black" d="M478.05,-110C487.32,-110 498.32,-110 509.74,-110"/>
<polygon fill="black" stroke="black" points="509.86,-113.5 519.86,-110 509.86,-106.5 509.86,-113.5"/>
</g>
<!-- 6096660688 -->
<g id="node11" class="node">
<title>6096660688</title>
<polygon fill="none" stroke="black" points="1682,-82 1578,-82 1578,-46 1682,-46 1682,-82"/>
<text text-anchor="middle" x="1630" y="-60.9" font-family="Times,serif" font-size="12.00">Resolve complaint</text>
</g>
<!-- 6097338448&#45;&gt;6096660688 -->
<g id="edge10" class="edge">
<title>6097338448&#45;&gt;6096660688</title>
<path fill="none" stroke="black" d="M1535.94,-45.06C1544.96,-46.89 1556.15,-49.17 1567.62,-51.51"/>
<polygon fill="black" stroke="black" points="1567.22,-55 1577.71,-53.56 1568.61,-48.14 1567.22,-55"/>
</g>
<!-- 6097350992 -->
<g id="node12" class="node">
<title>6097350992</title>
<polygon fill="none" stroke="black" points="732,-147 705,-129 732,-111 759,-129 732,-147"/>
<text text-anchor="middle" x="732" y="-125.9" font-family="Times,serif" font-size="12.00">X</text>
</g>
<!-- 6097351696&#45;&gt;6097350992 -->
<g id="edge11" class="edge">
<title>6097351696&#45;&gt;6097350992</title>
<path fill="none" stroke="black" d="M663.78,-145.99C677.48,-142.52 691.08,-139.09 702.42,-136.22"/>
<polygon fill="black" stroke="black" points="703.3,-139.61 712.14,-133.77 701.58,-132.82 703.3,-139.61"/>
</g>
<!-- 6097350800&#45;&gt;6097350992 -->
<g id="edge12" class="edge">
<title>6097350800&#45;&gt;6097350992</title>
<path fill="none" stroke="black" d="M663.37,-119.72C675.95,-121.45 688.46,-123.16 699.23,-124.64"/>
<polygon fill="black" stroke="black" points="698.99,-128.14 709.37,-126.03 699.94,-121.21 698.99,-128.14"/>
</g>
<!-- 6097350672 -->
<g id="node13" class="node">
<title>6097350672</title>
<polygon fill="none" stroke="black" points="1745,-82 1718,-64 1745,-46 1772,-64 1745,-82"/>
<text text-anchor="middle" x="1745" y="-60.9" font-family="Times,serif" font-size="12.00">X</text>
</g>
<!-- 6096660688&#45;&gt;6097350672 -->
<g id="edge13" class="edge">
<title>6096660688&#45;&gt;6097350672</title>
<path fill="none" stroke="black" d="M1682.21,-64C1690.82,-64 1699.59,-64 1707.72,-64"/>
<polygon fill="black" stroke="black" points="1707.97,-67.5 1717.97,-64 1707.97,-60.5 1707.97,-67.5"/>
</g>
<!-- 6096662800 -->
<g id="node15" class="node">
<title>6096662800</title>
<polygon fill="none" stroke="black" points="920,-147 795,-147 795,-111 920,-111 920,-147"/>
<text text-anchor="middle" x="857.5" y="-125.9" font-family="Times,serif" font-size="12.00">Process reimbursement</text>
</g>
<!-- 6097350992&#45;&gt;6096662800 -->
<g id="edge14" class="edge">
<title>6097350992&#45;&gt;6096662800</title>
<path fill="none" stroke="black" d="M759.19,-129C766.8,-129 775.51,-129 784.52,-129"/>
<polygon fill="black" stroke="black" points="784.77,-132.5 794.77,-129 784.77,-125.5 784.77,-132.5"/>
</g>
<!-- 6097338832 -->
<g id="node14" class="node">
<title>6097338832</title>
<polygon fill="none" stroke="black" points="1907,-36 1808,-36 1808,0 1907,0 1907,-36"/>
<text text-anchor="middle" x="1857.5" y="-14.9" font-family="Times,serif" font-size="12.00">Provide feedback</text>
</g>
<!-- 6097350672&#45;&gt;6097338832 -->
<g id="edge15" class="edge">
<title>6097350672&#45;&gt;6097338832</title>
<path fill="none" stroke="black" d="M1762.3,-57.21C1773.34,-52.62 1788.6,-46.27 1803.62,-40.01"/>
<polygon fill="black" stroke="black" points="1805.01,-43.22 1812.9,-36.15 1802.32,-36.76 1805.01,-43.22"/>
</g>
<!-- 6096656336 -->
<g id="node20" class="node">
<title>6096656336</title>
<ellipse fill="orange" stroke="black" cx="1857.5" cy="-72" rx="18" ry="18"/>
</g>
<!-- 6097350672&#45;&gt;6096656336 -->
<g id="edge16" class="edge">
<title>6097350672&#45;&gt;6096656336</title>
<path fill="none" stroke="black" d="M1769.71,-65.72C1787.2,-66.98 1811.04,-68.71 1829.31,-70.03"/>
<polygon fill="black" stroke="black" points="1829.1,-73.53 1839.33,-70.76 1829.61,-66.54 1829.1,-73.53"/>
</g>
<!-- 6097338832&#45;&gt;6097338448 -->
<g id="edge17" class="edge">
<title>6097338832&#45;&gt;6097338448</title>
<path fill="none" stroke="black" d="M1807.98,-21.28C1738.01,-26 1610.54,-34.61 1549.85,-38.71"/>
<polygon fill="black" stroke="black" points="1549.41,-35.23 1539.67,-39.4 1549.89,-42.22 1549.41,-35.23"/>
</g>
<!-- 6097354640 -->
<g id="node16" class="node">
<title>6097354640</title>
<polygon fill="none" stroke="black" points="983,-147 956,-129 983,-111 1010,-129 983,-147"/>
<text text-anchor="middle" x="983" y="-125.9" font-family="Times,serif" font-size="12.00">X</text>
</g>
<!-- 6096662800&#45;&gt;6097354640 -->
<g id="edge18" class="edge">
<title>6096662800&#45;&gt;6097354640</title>
<path fill="none" stroke="black" d="M920.25,-129C928.97,-129 937.69,-129 945.72,-129"/>
<polygon fill="black" stroke="black" points="945.81,-132.5 955.81,-129 945.81,-125.5 945.81,-132.5"/>
</g>
<!-- 6096662736 -->
<g id="node17" class="node">
<title>6096662736</title>
<polygon fill="none" stroke="black" points="1182,-170 1046,-170 1046,-134 1182,-134 1182,-170"/>
<text text-anchor="middle" x="1114" y="-148.9" font-family="Times,serif" font-size="12.00">Review complaint details</text>
</g>
<!-- 6097354640&#45;&gt;6096662736 -->
<g id="edge19" class="edge">
<title>6097354640&#45;&gt;6096662736</title>
<path fill="none" stroke="black" d="M1004.73,-132.7C1013.54,-134.27 1024.42,-136.21 1035.85,-138.24"/>
<polygon fill="black" stroke="black" points="1035.54,-141.74 1046,-140.05 1036.77,-134.85 1035.54,-141.74"/>
</g>
<!-- 6097344784 -->
<g id="node18" class="node">
<title>6097344784</title>
<polygon fill="none" stroke="black" points="1245,-128 1218,-110 1245,-92 1272,-110 1245,-128"/>
<text text-anchor="middle" x="1245" y="-106.9" font-family="Times,serif" font-size="12.00">X</text>
</g>
<!-- 6096662736&#45;&gt;6097344784 -->
<g id="edge20" class="edge">
<title>6096662736&#45;&gt;6097344784</title>
<path fill="none" stroke="black" d="M1170.46,-133.94C1186.45,-128.74 1203.21,-123.28 1216.68,-118.89"/>
<polygon fill="black" stroke="black" points="1217.85,-122.2 1226.27,-115.77 1215.68,-115.54 1217.85,-122.2"/>
</g>
<!-- 6097344784&#45;&gt;6097354640 -->
<g id="edge21" class="edge">
<title>6097344784&#45;&gt;6097354640</title>
<path fill="none" stroke="black" d="M1220.33,-111.73C1173.93,-115.12 1070.9,-122.65 1017.51,-126.55"/>
<polygon fill="black" stroke="black" points="1017.25,-123.06 1007.53,-127.28 1017.76,-130.04 1017.25,-123.06"/>
</g>
<!-- 6097340304 -->
<g id="node19" class="node">
<title>6097340304</title>
<polygon fill="none" stroke="black" points="1335,-82 1308,-64 1335,-46 1362,-64 1335,-82"/>
<text text-anchor="middle" x="1335" y="-60.9" font-family="Times,serif" font-size="12.00">X</text>
</g>
<!-- 6097344784&#45;&gt;6097340304 -->
<g id="edge22" class="edge">
<title>6097344784&#45;&gt;6097340304</title>
<path fill="none" stroke="black" d="M1260.93,-102.2C1274.41,-95.15 1294.48,-84.66 1310.18,-76.45"/>
<polygon fill="black" stroke="black" points="1312.05,-79.42 1319.29,-71.69 1308.81,-73.22 1312.05,-79.42"/>
</g>
<!-- 6097340304&#45;&gt;6097352912 -->
<g id="edge23" class="edge">
<title>6097340304&#45;&gt;6097352912</title>
<path fill="none" stroke="black" d="M1307.71,-64C1266.59,-64 1184.58,-64 1115,-64 450,-64 450,-64 450,-64 370.14,-64 276.49,-64 226.24,-64"/>
<polygon fill="black" stroke="black" points="226.2,-60.5 216.2,-64 226.2,-67.5 226.2,-60.5"/>
</g>
<!-- 6097340304&#45;&gt;6097351440 -->
<g id="edge24" class="edge">
<title>6097340304&#45;&gt;6097351440</title>
<path fill="none" stroke="black" d="M1355.09,-59.01C1366.82,-55.94 1382.07,-51.96 1395.24,-48.52"/>
<polygon fill="black" stroke="black" points="1396.45,-51.82 1405.24,-45.9 1394.68,-45.04 1396.45,-51.82"/>
</g>
</g>
</svg>
