<?xml version="1.0" encoding="UTF-8" standalone="no"?>
<!DOCTYPE svg PUBLIC "-//W3C//DTD SVG 1.1//EN"
 "http://www.w3.org/Graphics/SVG/1.1/DTD/svg11.dtd">
<!-- Generated by graphviz version 2.50.0 (0)
 -->
<!-- Pages: 1 -->
<svg width="2060pt" height="98pt"
 viewBox="0.00 0.00 2060.00 98.00" xmlns="http://www.w3.org/2000/svg" xmlns:xlink="http://www.w3.org/1999/xlink">
<g id="graph0" class="graph" transform="scale(1 1) rotate(0) translate(4 94)">
<polygon fill="white" stroke="transparent" points="-4,4 -4,-94 2056,-94 2056,4 -4,4"/>
<!-- 6217715728 -->
<g id="node1" class="node">
<title>6217715728</title>
<ellipse fill="green" stroke="black" cx="18" cy="-45" rx="18" ry="18"/>
</g>
<!-- 6219328912 -->
<g id="node2" class="node">
<title>6219328912</title>
<polygon fill="none" stroke="black" points="171,-63 72,-63 72,-27 171,-27 171,-63"/>
<text text-anchor="middle" x="121.5" y="-41.9" font-family="Times,serif" font-size="12.00">Provide feedback</text>
</g>
<!-- 6217715728&#45;&gt;6219328912 -->
<g id="edge1" class="edge">
<title>6217715728&#45;&gt;6219328912</title>
<path fill="none" stroke="black" d="M36.22,-45C43.45,-45 52.31,-45 61.56,-45"/>
<polygon fill="black" stroke="black" points="61.67,-48.5 71.67,-45 61.67,-41.5 61.67,-48.5"/>
</g>
<!-- 6217721744 -->
<g id="node3" class="node">
<title>6217721744</title>
<polygon fill="none" stroke="black" points="311,-63 207,-63 207,-27 311,-27 311,-63"/>
<text text-anchor="middle" x="259" y="-41.9" font-family="Times,serif" font-size="12.00">Resolve complaint</text>
</g>
<!-- 6219328912&#45;&gt;6217721744 -->
<g id="edge2" class="edge">
<title>6219328912&#45;&gt;6217721744</title>
<path fill="none" stroke="black" d="M171.04,-45C179.24,-45 187.86,-45 196.35,-45"/>
<polygon fill="black" stroke="black" points="196.6,-48.5 206.6,-45 196.6,-41.5 196.6,-48.5"/>
</g>
<!-- 6217717456 -->
<g id="node4" class="node">
<title>6217717456</title>
<polygon fill="none" stroke="black" points="374,-63 347,-45 374,-27 401,-45 374,-63"/>
<text text-anchor="middle" x="374" y="-41.9" font-family="Times,serif" font-size="12.00">X</text>
</g>
<!-- 6217721744&#45;&gt;6217717456 -->
<g id="edge3" class="edge">
<title>6217721744&#45;&gt;6217717456</title>
<path fill="none" stroke="black" d="M311.21,-45C319.82,-45 328.59,-45 336.72,-45"/>
<polygon fill="black" stroke="black" points="336.97,-48.5 346.97,-45 336.97,-41.5 336.97,-48.5"/>
</g>
<!-- 6217715088 -->
<g id="node5" class="node">
<title>6217715088</title>
<polygon fill="none" stroke="black" points="562,-86 437,-86 437,-50 562,-50 562,-86"/>
<text text-anchor="middle" x="499.5" y="-64.9" font-family="Times,serif" font-size="12.00">Process reimbursement</text>
</g>
<!-- 6217717456&#45;&gt;6217715088 -->
<g id="edge4" class="edge">
<title>6217717456&#45;&gt;6217715088</title>
<path fill="none" stroke="black" d="M395.39,-48.8C404.39,-50.47 415.54,-52.55 427.16,-54.71"/>
<polygon fill="black" stroke="black" points="426.53,-58.16 437,-56.55 427.81,-51.27 426.53,-58.16"/>
</g>
<!-- 6217717392 -->
<g id="node6" class="node">
<title>6217717392</title>
<polygon fill="none" stroke="black" points="625,-63 598,-45 625,-27 652,-45 625,-63"/>
<text text-anchor="middle" x="625" y="-41.9" font-family="Times,serif" font-size="12.00">X</text>
</g>
<!-- 6217715088&#45;&gt;6217717392 -->
<g id="edge5" class="edge">
<title>6217715088&#45;&gt;6217717392</title>
<path fill="none" stroke="black" d="M562.25,-56.5C573.12,-54.48 583.98,-52.45 593.5,-50.68"/>
<polygon fill="black" stroke="black" points="594.42,-54.07 603.61,-48.8 593.13,-47.19 594.42,-54.07"/>
</g>
<!-- 6217717392&#45;&gt;6217717456 -->
<g id="edge6" class="edge">
<title>6217717392&#45;&gt;6217717456</title>
<path fill="none" stroke="black" d="M600.76,-43.14C589.13,-42.31 574.83,-41.41 562,-41 506.47,-39.21 492.53,-39.21 437,-41 427.68,-41.3 417.58,-41.85 408.3,-42.46"/>
<polygon fill="black" stroke="black" points="407.98,-38.97 398.24,-43.14 408.46,-45.95 407.98,-38.97"/>
</g>
<!-- 6217725008 -->
<g id="node7" class="node">
<title>6217725008</title>
<polygon fill="none" stroke="black" points="715,-63 688,-45 715,-27 742,-45 715,-63"/>
<text text-anchor="middle" x="715" y="-41.9" font-family="Times,serif" font-size="12.00">X</text>
</g>
<!-- 6217717392&#45;&gt;6217725008 -->
<g id="edge7" class="edge">
<title>6217717392&#45;&gt;6217725008</title>
<path fill="none" stroke="black" d="M652.4,-45C660.39,-45 669.31,-45 677.82,-45"/>
<polygon fill="black" stroke="black" points="677.92,-48.5 687.92,-45 677.92,-41.5 677.92,-48.5"/>
</g>
<!-- 6217721040 -->
<g id="node8" class="node">
<title>6217721040</title>
<polygon fill="none" stroke="black" points="927,-90 784,-90 784,-54 927,-54 927,-90"/>
<text text-anchor="middle" x="855.5" y="-68.9" font-family="Times,serif" font-size="12.00">Reject and notify customer</text>
</g>
<!-- 6217725008&#45;&gt;6217721040 -->
<g id="edge9" class="edge">
<title>6217725008&#45;&gt;6217721040</title>
<path fill="none" stroke="black" d="M736.14,-48.93C746.4,-50.93 759.63,-53.51 773.51,-56.21"/>
<polygon fill="black" stroke="black" points="773.21,-59.72 783.69,-58.2 774.55,-52.85 773.21,-59.72"/>
</g>
<!-- 6212124560 -->
<g id="node9" class="node">
<title>6212124560</title>
<polygon fill="none" stroke="black" points="933,-36 778,-36 778,0 933,0 933,-36"/>
<text text-anchor="middle" x="855.5" y="-14.9" font-family="Times,serif" font-size="12.00">Approve and notify customer</text>
</g>
<!-- 6217725008&#45;&gt;6212124560 -->
<g id="edge8" class="edge">
<title>6217725008&#45;&gt;6212124560</title>
<path fill="none" stroke="black" d="M736.14,-41.07C744.99,-39.35 756.05,-37.19 767.82,-34.9"/>
<polygon fill="black" stroke="black" points="768.7,-38.29 777.85,-32.94 767.36,-31.42 768.7,-38.29"/>
</g>
<!-- 6217715984 -->
<g id="node10" class="node">
<title>6217715984</title>
<polygon fill="none" stroke="black" points="996,-63 969,-45 996,-27 1023,-45 996,-63"/>
<text text-anchor="middle" x="996" y="-41.9" font-family="Times,serif" font-size="12.00">X</text>
</g>
<!-- 6217721040&#45;&gt;6217715984 -->
<g id="edge10" class="edge">
<title>6217721040&#45;&gt;6217715984</title>
<path fill="none" stroke="black" d="M927.37,-58.18C940.59,-55.61 953.72,-53.05 964.85,-50.88"/>
<polygon fill="black" stroke="black" points="965.7,-54.28 974.85,-48.93 964.36,-47.41 965.7,-54.28"/>
</g>
<!-- 6212124560&#45;&gt;6217715984 -->
<g id="edge11" class="edge">
<title>6212124560&#45;&gt;6217715984</title>
<path fill="none" stroke="black" d="M933.04,-32.92C944.22,-35.1 955.15,-37.23 964.63,-39.08"/>
<polygon fill="black" stroke="black" points="964.18,-42.56 974.67,-41.04 965.52,-35.69 964.18,-42.56"/>
</g>
<!-- 6217722192 -->
<g id="node11" class="node">
<title>6217722192</title>
<polygon fill="none" stroke="black" points="1086,-63 1059,-45 1086,-27 1113,-45 1086,-63"/>
<text text-anchor="middle" x="1086" y="-41.9" font-family="Times,serif" font-size="12.00">X</text>
</g>
<!-- 6217715984&#45;&gt;6217722192 -->
<g id="edge12" class="edge">
<title>6217715984&#45;&gt;6217722192</title>
<path fill="none" stroke="black" d="M1023.4,-45C1031.39,-45 1040.31,-45 1048.82,-45"/>
<polygon fill="black" stroke="black" points="1048.92,-48.5 1058.92,-45 1048.92,-41.5 1048.92,-48.5"/>
</g>
<!-- 6219156688 -->
<g id="node12" class="node">
<title>6219156688</title>
<polygon fill="none" stroke="black" points="1285,-86 1149,-86 1149,-50 1285,-50 1285,-86"/>
<text text-anchor="middle" x="1217" y="-64.9" font-family="Times,serif" font-size="12.00">Review complaint details</text>
</g>
<!-- 6217722192&#45;&gt;6219156688 -->
<g id="edge13" class="edge">
<title>6217722192&#45;&gt;6219156688</title>
<path fill="none" stroke="black" d="M1107.73,-48.7C1116.54,-50.27 1127.42,-52.21 1138.85,-54.24"/>
<polygon fill="black" stroke="black" points="1138.54,-57.74 1149,-56.05 1139.77,-50.85 1138.54,-57.74"/>
</g>
<!-- 6217725264 -->
<g id="node13" class="node">
<title>6217725264</title>
<polygon fill="none" stroke="black" points="1348,-63 1321,-45 1348,-27 1375,-45 1348,-63"/>
<text text-anchor="middle" x="1348" y="-41.9" font-family="Times,serif" font-size="12.00">X</text>
</g>
<!-- 6219156688&#45;&gt;6217725264 -->
<g id="edge14" class="edge">
<title>6219156688&#45;&gt;6217725264</title>
<path fill="none" stroke="black" d="M1285.14,-56.03C1296.09,-54.08 1306.93,-52.14 1316.4,-50.46"/>
<polygon fill="black" stroke="black" points="1317.23,-53.86 1326.46,-48.66 1316,-46.97 1317.23,-53.86"/>
</g>
<!-- 6217725264&#45;&gt;6217722192 -->
<g id="edge15" class="edge">
<title>6217725264&#45;&gt;6217722192</title>
<path fill="none" stroke="black" d="M1323.76,-43.14C1312.13,-42.31 1297.83,-41.41 1285,-41 1224.59,-39.05 1209.41,-39.05 1149,-41 1139.68,-41.3 1129.58,-41.85 1120.3,-42.46"/>
<polygon fill="black" stroke="black" points="1119.98,-38.97 1110.24,-43.14 1120.46,-45.95 1119.98,-38.97"/>
</g>
<!-- 6212115280 -->
<g id="node14" class="node">
<title>6212115280</title>
<polygon fill="none" stroke="black" points="1618,-63 1411,-63 1411,-27 1618,-27 1618,-63"/>
<text text-anchor="middle" x="1514.5" y="-41.9" font-family="Times,serif" font-size="12.00">Assign complaint to relevant department</text>
</g>
<!-- 6217725264&#45;&gt;6212115280 -->
<g id="edge16" class="edge">
<title>6217725264&#45;&gt;6212115280</title>
<path fill="none" stroke="black" d="M1375.07,-45C1382.66,-45 1391.49,-45 1400.93,-45"/>
<polygon fill="black" stroke="black" points="1400.97,-48.5 1410.97,-45 1400.97,-41.5 1400.97,-48.5"/>
</g>
<!-- 6212617360 -->
<g id="node15" class="node">
<title>6212617360</title>
<polygon fill="none" stroke="black" points="1740,-63 1654,-63 1654,-27 1740,-27 1740,-63"/>
<text text-anchor="middle" x="1697" y="-41.9" font-family="Times,serif" font-size="12.00">Log complaint</text>
</g>
<!-- 6212115280&#45;&gt;6212617360 -->
<g id="edge17" class="edge">
<title>6212115280&#45;&gt;6212617360</title>
<path fill="none" stroke="black" d="M1618.14,-45C1626.96,-45 1635.62,-45 1643.77,-45"/>
<polygon fill="black" stroke="black" points="1643.79,-48.5 1653.79,-45 1643.79,-41.5 1643.79,-48.5"/>
</g>
<!-- 6212620496 -->
<g id="node16" class="node">
<title>6212620496</title>
<polygon fill="none" stroke="black" points="1860,-63 1776,-63 1776,-27 1860,-27 1860,-63"/>
<text text-anchor="middle" x="1818" y="-41.9" font-family="Times,serif" font-size="12.00">File complaint</text>
</g>
<!-- 6212617360&#45;&gt;6212620496 -->
<g id="edge18" class="edge">
<title>6212617360&#45;&gt;6212620496</title>
<path fill="none" stroke="black" d="M1740.29,-45C1748.46,-45 1757.1,-45 1765.53,-45"/>
<polygon fill="black" stroke="black" points="1765.65,-48.5 1775.65,-45 1765.65,-41.5 1765.65,-48.5"/>
</g>
<!-- 6212617232 -->
<g id="node17" class="node">
<title>6212617232</title>
<polygon fill="none" stroke="black" points="1980,-63 1896,-63 1896,-27 1980,-27 1980,-63"/>
<text text-anchor="middle" x="1938" y="-41.9" font-family="Times,serif" font-size="12.00">File complaint</text>
</g>
<!-- 6212620496&#45;&gt;6212617232 -->
<g id="edge19" class="edge">
<title>6212620496&#45;&gt;6212617232</title>
<path fill="none" stroke="black" d="M1860.27,-45C1868.49,-45 1877.22,-45 1885.73,-45"/>
<polygon fill="black" stroke="black" points="1885.95,-48.5 1895.95,-45 1885.95,-41.5 1885.95,-48.5"/>
</g>
<!-- 6211976912 -->
<g id="node18" class="node">
<title>6211976912</title>
<ellipse fill="orange" stroke="black" cx="2034" cy="-45" rx="18" ry="18"/>
</g>
<!-- 6212617232&#45;&gt;6211976912 -->
<g id="edge20" class="edge">
<title>6212617232&#45;&gt;6211976912</title>
<path fill="none" stroke="black" d="M1980.23,-45C1988.78,-45 1997.58,-45 2005.49,-45"/>
<polygon fill="black" stroke="black" points="2005.61,-48.5 2015.61,-45 2005.61,-41.5 2005.61,-48.5"/>
</g>
</g>
</svg>
