<?xml version="1.0" encoding="UTF-8" standalone="no"?>
<!DOCTYPE svg PUBLIC "-//W3C//DTD SVG 1.1//EN"
 "http://www.w3.org/Graphics/SVG/1.1/DTD/svg11.dtd">
<!-- Generated by graphviz version 2.50.0 (0)
 -->
<!-- Pages: 1 -->
<svg width="2022pt" height="126pt"
 viewBox="0.00 0.00 2022.00 126.00" xmlns="http://www.w3.org/2000/svg" xmlns:xlink="http://www.w3.org/1999/xlink">
<g id="graph0" class="graph" transform="scale(1 1) rotate(0) translate(4 122)">
<polygon fill="white" stroke="transparent" points="-4,4 -4,-122 2018,-122 2018,4 -4,4"/>
<!-- 6212680912 -->
<g id="node1" class="node">
<title>6212680912</title>
<ellipse fill="green" stroke="black" cx="18" cy="-23" rx="18" ry="18"/>
</g>
<!-- 6214490704 -->
<g id="node2" class="node">
<title>6214490704</title>
<polygon fill="none" stroke="black" points="99,-41 72,-23 99,-5 126,-23 99,-41"/>
<text text-anchor="middle" x="99" y="-19.9" font-family="Times,serif" font-size="12.00">X</text>
</g>
<!-- 6212680912&#45;&gt;6214490704 -->
<g id="edge1" class="edge">
<title>6212680912&#45;&gt;6214490704</title>
<path fill="none" stroke="black" d="M36.14,-23C43.64,-23 52.75,-23 61.64,-23"/>
<polygon fill="black" stroke="black" points="61.87,-26.5 71.87,-23 61.87,-19.5 61.87,-26.5"/>
</g>
<!-- 6214497808 -->
<g id="node3" class="node">
<title>6214497808</title>
<polygon fill="none" stroke="black" points="264,-64 162,-64 162,-28 264,-28 264,-64"/>
<text text-anchor="middle" x="213" y="-42.9" font-family="Times,serif" font-size="12.00">Provide Feedback</text>
</g>
<!-- 6214490704&#45;&gt;6214497808 -->
<g id="edge2" class="edge">
<title>6214490704&#45;&gt;6214497808</title>
<path fill="none" stroke="black" d="M120.02,-27.11C129.08,-28.97 140.3,-31.28 151.77,-33.63"/>
<polygon fill="black" stroke="black" points="151.35,-37.12 161.85,-35.7 152.76,-30.26 151.35,-37.12"/>
</g>
<!-- 6214489936 -->
<g id="node4" class="node">
<title>6214489936</title>
<polygon fill="none" stroke="black" points="327,-64 300,-46 327,-28 354,-46 327,-64"/>
<text text-anchor="middle" x="327" y="-42.9" font-family="Times,serif" font-size="12.00">X</text>
</g>
<!-- 6214497808&#45;&gt;6214489936 -->
<g id="edge3" class="edge">
<title>6214497808&#45;&gt;6214489936</title>
<path fill="none" stroke="black" d="M264.1,-46C272.69,-46 281.46,-46 289.6,-46"/>
<polygon fill="black" stroke="black" points="289.87,-49.5 299.87,-46 289.87,-42.5 289.87,-49.5"/>
</g>
<!-- 6214849872 -->
<g id="node5" class="node">
<title>6214849872</title>
<polygon fill="none" stroke="black" points="518,-118 411,-118 411,-82 518,-82 518,-118"/>
<text text-anchor="middle" x="464.5" y="-96.9" font-family="Times,serif" font-size="12.00">Resolve Complaint</text>
</g>
<!-- 6214489936&#45;&gt;6214849872 -->
<g id="edge5" class="edge">
<title>6214489936&#45;&gt;6214849872</title>
<path fill="none" stroke="black" d="M343.69,-53.14C356.16,-58.74 374.09,-66.62 390,-73 394.42,-74.77 399.01,-76.57 403.63,-78.34"/>
<polygon fill="black" stroke="black" points="402.55,-81.67 413.14,-81.94 405.03,-75.13 402.55,-81.67"/>
</g>
<!-- 6214851536 -->
<g id="node6" class="node">
<title>6214851536</title>
<polygon fill="none" stroke="black" points="539,-64 390,-64 390,-28 539,-28 539,-64"/>
<text text-anchor="middle" x="464.5" y="-42.9" font-family="Times,serif" font-size="12.00">Reject and Notify Customer</text>
</g>
<!-- 6214489936&#45;&gt;6214851536 -->
<g id="edge4" class="edge">
<title>6214489936&#45;&gt;6214851536</title>
<path fill="none" stroke="black" d="M354.13,-46C361.75,-46 370.52,-46 379.71,-46"/>
<polygon fill="black" stroke="black" points="379.81,-49.5 389.81,-46 379.81,-42.5 379.81,-49.5"/>
</g>
<!-- 6214492432 -->
<g id="node7" class="node">
<title>6214492432</title>
<polygon fill="none" stroke="black" points="602,-87 575,-69 602,-51 629,-69 602,-87"/>
<text text-anchor="middle" x="602" y="-65.9" font-family="Times,serif" font-size="12.00">X</text>
</g>
<!-- 6214849872&#45;&gt;6214492432 -->
<g id="edge6" class="edge">
<title>6214849872&#45;&gt;6214492432</title>
<path fill="none" stroke="black" d="M518.28,-87.93C536.27,-83.81 555.74,-79.35 571.27,-75.8"/>
<polygon fill="black" stroke="black" points="572.36,-79.14 581.33,-73.5 570.8,-72.32 572.36,-79.14"/>
</g>
<!-- 6214851536&#45;&gt;6214492432 -->
<g id="edge7" class="edge">
<title>6214851536&#45;&gt;6214492432</title>
<path fill="none" stroke="black" d="M539.2,-58.51C550.11,-60.36 560.82,-62.18 570.17,-63.77"/>
<polygon fill="black" stroke="black" points="569.65,-67.23 580.1,-65.45 570.83,-60.33 569.65,-67.23"/>
</g>
<!-- 6214491920 -->
<g id="node8" class="node">
<title>6214491920</title>
<polygon fill="none" stroke="black" points="692,-87 665,-69 692,-51 719,-69 692,-87"/>
<text text-anchor="middle" x="692" y="-65.9" font-family="Times,serif" font-size="12.00">X</text>
</g>
<!-- 6214492432&#45;&gt;6214491920 -->
<g id="edge8" class="edge">
<title>6214492432&#45;&gt;6214491920</title>
<path fill="none" stroke="black" d="M629.4,-69C637.39,-69 646.31,-69 654.82,-69"/>
<polygon fill="black" stroke="black" points="654.92,-72.5 664.92,-69 654.92,-65.5 654.92,-72.5"/>
</g>
<!-- 6214489616 -->
<g id="node9" class="node">
<title>6214489616</title>
<polygon fill="none" stroke="black" points="1145,-64 1118,-46 1145,-28 1172,-46 1145,-64"/>
<text text-anchor="middle" x="1145" y="-42.9" font-family="Times,serif" font-size="12.00">X</text>
</g>
<!-- 6214491920&#45;&gt;6214489616 -->
<g id="edge9" class="edge">
<title>6214491920&#45;&gt;6214489616</title>
<path fill="none" stroke="black" d="M714.39,-72.39C773.63,-81.1 944.47,-101.65 1082,-73 1095.33,-70.22 1109.32,-64.42 1120.62,-58.9"/>
<polygon fill="black" stroke="black" points="1122.48,-61.88 1129.78,-54.21 1119.28,-55.65 1122.48,-61.88"/>
</g>
<!-- 6214494096 -->
<g id="node10" class="node">
<title>6214494096</title>
<polygon fill="none" stroke="black" points="885,-64 755,-64 755,-28 885,-28 885,-64"/>
<text text-anchor="middle" x="820" y="-42.9" font-family="Times,serif" font-size="12.00">Process Reimbursement</text>
</g>
<!-- 6214491920&#45;&gt;6214494096 -->
<g id="edge10" class="edge">
<title>6214491920&#45;&gt;6214494096</title>
<path fill="none" stroke="black" d="M713.52,-65.25C722.37,-63.64 733.31,-61.64 744.75,-59.55"/>
<polygon fill="black" stroke="black" points="745.7,-62.94 754.91,-57.7 744.44,-56.05 745.7,-62.94"/>
</g>
<!-- 6214499856 -->
<g id="node11" class="node">
<title>6214499856</title>
<polygon fill="none" stroke="black" points="1350,-64 1208,-64 1208,-28 1350,-28 1350,-64"/>
<text text-anchor="middle" x="1279" y="-42.9" font-family="Times,serif" font-size="12.00">Review Complaint Details</text>
</g>
<!-- 6214489616&#45;&gt;6214499856 -->
<g id="edge11" class="edge">
<title>6214489616&#45;&gt;6214499856</title>
<path fill="none" stroke="black" d="M1172.08,-46C1179.75,-46 1188.57,-46 1197.78,-46"/>
<polygon fill="black" stroke="black" points="1197.89,-49.5 1207.89,-46 1197.89,-42.5 1197.89,-49.5"/>
</g>
<!-- 6214846288 -->
<g id="node12" class="node">
<title>6214846288</title>
<polygon fill="none" stroke="black" points="1082,-64 921,-64 921,-28 1082,-28 1082,-64"/>
<text text-anchor="middle" x="1001.5" y="-42.9" font-family="Times,serif" font-size="12.00">Approve and Notify Customer</text>
</g>
<!-- 6214494096&#45;&gt;6214846288 -->
<g id="edge12" class="edge">
<title>6214494096&#45;&gt;6214846288</title>
<path fill="none" stroke="black" d="M885.04,-46C893.37,-46 902.01,-46 910.65,-46"/>
<polygon fill="black" stroke="black" points="910.79,-49.5 920.79,-46 910.79,-42.5 910.79,-49.5"/>
</g>
<!-- 6214848208 -->
<g id="node13" class="node">
<title>6214848208</title>
<polygon fill="none" stroke="black" points="1604,-64 1386,-64 1386,-28 1604,-28 1604,-64"/>
<text text-anchor="middle" x="1495" y="-42.9" font-family="Times,serif" font-size="12.00">Assign Complaint to Relevant Department</text>
</g>
<!-- 6214499856&#45;&gt;6214848208 -->
<g id="edge14" class="edge">
<title>6214499856&#45;&gt;6214848208</title>
<path fill="none" stroke="black" d="M1350.07,-46C1358.31,-46 1366.88,-46 1375.55,-46"/>
<polygon fill="black" stroke="black" points="1375.76,-49.5 1385.76,-46 1375.76,-42.5 1375.76,-49.5"/>
</g>
<!-- 6214846288&#45;&gt;6214489616 -->
<g id="edge13" class="edge">
<title>6214846288&#45;&gt;6214489616</title>
<path fill="none" stroke="black" d="M1082.35,-46C1091.14,-46 1099.74,-46 1107.6,-46"/>
<polygon fill="black" stroke="black" points="1107.79,-49.5 1117.79,-46 1107.79,-42.5 1107.79,-49.5"/>
</g>
<!-- 6214495760 -->
<g id="node14" class="node">
<title>6214495760</title>
<polygon fill="none" stroke="black" points="1729,-64 1640,-64 1640,-28 1729,-28 1729,-64"/>
<text text-anchor="middle" x="1684.5" y="-42.9" font-family="Times,serif" font-size="12.00">Log Complaint</text>
</g>
<!-- 6214848208&#45;&gt;6214495760 -->
<g id="edge15" class="edge">
<title>6214848208&#45;&gt;6214495760</title>
<path fill="none" stroke="black" d="M1604.25,-46C1613.05,-46 1621.66,-46 1629.79,-46"/>
<polygon fill="black" stroke="black" points="1629.79,-49.5 1639.79,-46 1629.79,-42.5 1629.79,-49.5"/>
</g>
<!-- 6214853200 -->
<g id="node15" class="node">
<title>6214853200</title>
<polygon fill="none" stroke="black" points="1852,-64 1765,-64 1765,-28 1852,-28 1852,-64"/>
<text text-anchor="middle" x="1808.5" y="-42.9" font-family="Times,serif" font-size="12.00">File Complaint</text>
</g>
<!-- 6214495760&#45;&gt;6214853200 -->
<g id="edge16" class="edge">
<title>6214495760&#45;&gt;6214853200</title>
<path fill="none" stroke="black" d="M1729.2,-46C1737.46,-46 1746.19,-46 1754.7,-46"/>
<polygon fill="black" stroke="black" points="1754.92,-49.5 1764.92,-46 1754.92,-42.5 1754.92,-49.5"/>
</g>
<!-- 6214490064 -->
<g id="node16" class="node">
<title>6214490064</title>
<polygon fill="none" stroke="black" points="1915,-41 1888,-23 1915,-5 1942,-23 1915,-41"/>
<text text-anchor="middle" x="1915" y="-19.9" font-family="Times,serif" font-size="12.00">X</text>
</g>
<!-- 6214853200&#45;&gt;6214490064 -->
<g id="edge17" class="edge">
<title>6214853200&#45;&gt;6214490064</title>
<path fill="none" stroke="black" d="M1852,-36.65C1862.91,-34.25 1874.4,-31.72 1884.49,-29.5"/>
<polygon fill="black" stroke="black" points="1885.39,-32.88 1894.41,-27.31 1883.89,-26.04 1885.39,-32.88"/>
</g>
<!-- 6214490064&#45;&gt;6214490704 -->
<g id="edge18" class="edge">
<title>6214490064&#45;&gt;6214490704</title>
<path fill="none" stroke="black" d="M1892.96,-19.46C1852.78,-13 1762.25,0 1685.5,0 326,0 326,0 326,0 255.86,0 174.11,-11.1 130.72,-17.88"/>
<polygon fill="black" stroke="black" points="130.13,-14.43 120.8,-19.46 131.23,-21.34 130.13,-14.43"/>
</g>
<!-- 6214501328 -->
<g id="node17" class="node">
<title>6214501328</title>
<ellipse fill="orange" stroke="black" cx="1996" cy="-23" rx="18" ry="18"/>
</g>
<!-- 6214490064&#45;&gt;6214501328 -->
<g id="edge19" class="edge">
<title>6214490064&#45;&gt;6214501328</title>
<path fill="none" stroke="black" d="M1942.31,-23C1950.42,-23 1959.37,-23 1967.56,-23"/>
<polygon fill="black" stroke="black" points="1967.75,-26.5 1977.75,-23 1967.75,-19.5 1967.75,-26.5"/>
</g>
</g>
</svg>
