<?xml version="1.0" encoding="UTF-8" standalone="no"?>
<!DOCTYPE svg PUBLIC "-//W3C//DTD SVG 1.1//EN"
 "http://www.w3.org/Graphics/SVG/1.1/DTD/svg11.dtd">
<!-- Generated by graphviz version 2.50.0 (0)
 -->
<!-- Pages: 1 -->
<svg width="1940pt" height="144pt"
 viewBox="0.00 0.00 1940.00 144.00" xmlns="http://www.w3.org/2000/svg" xmlns:xlink="http://www.w3.org/1999/xlink">
<g id="graph0" class="graph" transform="scale(1 1) rotate(0) translate(4 140)">
<polygon fill="white" stroke="transparent" points="-4,4 -4,-140 1936,-140 1936,4 -4,4"/>
<!-- 6211495440 -->
<g id="node1" class="node">
<title>6211495440</title>
<ellipse fill="green" stroke="black" cx="18" cy="-41" rx="18" ry="18"/>
</g>
<!-- 6211970832 -->
<g id="node2" class="node">
<title>6211970832</title>
<polygon fill="none" stroke="black" points="99,-59 72,-41 99,-23 126,-41 99,-59"/>
<text text-anchor="middle" x="99" y="-37.9" font-family="Times,serif" font-size="12.00">X</text>
</g>
<!-- 6211495440&#45;&gt;6211970832 -->
<g id="edge1" class="edge">
<title>6211495440&#45;&gt;6211970832</title>
<path fill="none" stroke="black" d="M36.14,-41C43.64,-41 52.75,-41 61.64,-41"/>
<polygon fill="black" stroke="black" points="61.87,-44.5 71.87,-41 61.87,-37.5 61.87,-44.5"/>
</g>
<!-- 6211969488 -->
<g id="node3" class="node">
<title>6211969488</title>
<polygon fill="none" stroke="black" points="324,-59 297,-41 324,-23 351,-41 324,-59"/>
<text text-anchor="middle" x="324" y="-37.9" font-family="Times,serif" font-size="12.00">X</text>
</g>
<!-- 6211970832&#45;&gt;6211969488 -->
<g id="edge3" class="edge">
<title>6211970832&#45;&gt;6211969488</title>
<path fill="none" stroke="black" d="M123.24,-42.86C134.87,-43.69 149.17,-44.59 162,-45 205.98,-46.42 217.02,-46.42 261,-45 270.32,-44.7 280.42,-44.15 289.7,-43.54"/>
<polygon fill="black" stroke="black" points="290.02,-47.03 299.76,-42.86 289.54,-40.05 290.02,-47.03"/>
</g>
<!-- 6211975952 -->
<g id="node4" class="node">
<title>6211975952</title>
<polygon fill="none" stroke="black" points="261,-36 162,-36 162,0 261,0 261,-36"/>
<text text-anchor="middle" x="211.5" y="-14.9" font-family="Times,serif" font-size="12.00">Provide feedback</text>
</g>
<!-- 6211970832&#45;&gt;6211975952 -->
<g id="edge2" class="edge">
<title>6211970832&#45;&gt;6211975952</title>
<path fill="none" stroke="black" d="M120.01,-36.83C129.05,-34.95 140.26,-32.62 151.67,-30.25"/>
<polygon fill="black" stroke="black" points="152.62,-33.62 161.7,-28.16 151.2,-26.77 152.62,-33.62"/>
</g>
<!-- 6211960912 -->
<g id="node5" class="node">
<title>6211960912</title>
<polygon fill="none" stroke="black" points="414,-59 387,-41 414,-23 441,-41 414,-59"/>
<text text-anchor="middle" x="414" y="-37.9" font-family="Times,serif" font-size="12.00">X</text>
</g>
<!-- 6211969488&#45;&gt;6211960912 -->
<g id="edge5" class="edge">
<title>6211969488&#45;&gt;6211960912</title>
<path fill="none" stroke="black" d="M351.4,-41C359.39,-41 368.31,-41 376.82,-41"/>
<polygon fill="black" stroke="black" points="376.92,-44.5 386.92,-41 376.92,-37.5 376.92,-44.5"/>
</g>
<!-- 6211975952&#45;&gt;6211969488 -->
<g id="edge4" class="edge">
<title>6211975952&#45;&gt;6211969488</title>
<path fill="none" stroke="black" d="M261.29,-28.16C272.07,-30.4 283.19,-32.71 292.97,-34.75"/>
<polygon fill="black" stroke="black" points="292.47,-38.22 302.97,-36.83 293.89,-31.37 292.47,-38.22"/>
</g>
<!-- 6211973968 -->
<g id="node6" class="node">
<title>6211973968</title>
<polygon fill="none" stroke="black" points="581,-82 477,-82 477,-46 581,-46 581,-82"/>
<text text-anchor="middle" x="529" y="-60.9" font-family="Times,serif" font-size="12.00">Resolve complaint</text>
</g>
<!-- 6211960912&#45;&gt;6211973968 -->
<g id="edge6" class="edge">
<title>6211960912&#45;&gt;6211973968</title>
<path fill="none" stroke="black" d="M434.94,-45.06C443.96,-46.89 455.15,-49.17 466.62,-51.51"/>
<polygon fill="black" stroke="black" points="466.22,-55 476.71,-53.56 467.61,-48.14 466.22,-55"/>
</g>
<!-- 6211970704 -->
<g id="node7" class="node">
<title>6211970704</title>
<polygon fill="none" stroke="black" points="644,-82 617,-64 644,-46 671,-64 644,-82"/>
<text text-anchor="middle" x="644" y="-60.9" font-family="Times,serif" font-size="12.00">X</text>
</g>
<!-- 6211973968&#45;&gt;6211970704 -->
<g id="edge7" class="edge">
<title>6211973968&#45;&gt;6211970704</title>
<path fill="none" stroke="black" d="M581.21,-64C589.82,-64 598.59,-64 606.72,-64"/>
<polygon fill="black" stroke="black" points="606.97,-67.5 616.97,-64 606.97,-60.5 606.97,-67.5"/>
</g>
<!-- 6211961488 -->
<g id="node8" class="node">
<title>6211961488</title>
<polygon fill="none" stroke="black" points="832,-132 707,-132 707,-96 832,-96 832,-132"/>
<text text-anchor="middle" x="769.5" y="-110.9" font-family="Times,serif" font-size="12.00">Process reimbursement</text>
</g>
<!-- 6211970704&#45;&gt;6211961488 -->
<g id="edge8" class="edge">
<title>6211970704&#45;&gt;6211961488</title>
<path fill="none" stroke="black" d="M661.4,-70.64C675.05,-76.16 695.28,-84.35 714.49,-92.13"/>
<polygon fill="black" stroke="black" points="713.23,-95.4 723.81,-95.91 715.85,-88.91 713.23,-95.4"/>
</g>
<!-- 6212113808 -->
<g id="node9" class="node">
<title>6212113808</title>
<polygon fill="none" stroke="black" points="1017,-82 874,-82 874,-46 1017,-46 1017,-82"/>
<text text-anchor="middle" x="945.5" y="-60.9" font-family="Times,serif" font-size="12.00">Reject and notify customer</text>
</g>
<!-- 6211970704&#45;&gt;6212113808 -->
<g id="edge9" class="edge">
<title>6211970704&#45;&gt;6212113808</title>
<path fill="none" stroke="black" d="M671.05,-64C713.54,-64 799.44,-64 863.69,-64"/>
<polygon fill="black" stroke="black" points="863.81,-67.5 873.81,-64 863.81,-60.5 863.81,-67.5"/>
</g>
<!-- 6212109712 -->
<g id="node11" class="node">
<title>6212109712</title>
<polygon fill="none" stroke="black" points="1023,-136 868,-136 868,-100 1023,-100 1023,-136"/>
<text text-anchor="middle" x="945.5" y="-114.9" font-family="Times,serif" font-size="12.00">Approve and notify customer</text>
</g>
<!-- 6211961488&#45;&gt;6212109712 -->
<g id="edge10" class="edge">
<title>6211961488&#45;&gt;6212109712</title>
<path fill="none" stroke="black" d="M832.34,-115.42C840.62,-115.61 849.24,-115.81 857.85,-116.01"/>
<polygon fill="black" stroke="black" points="857.86,-119.51 867.94,-116.24 858.02,-112.51 857.86,-119.51"/>
</g>
<!-- 6211964368 -->
<g id="node10" class="node">
<title>6211964368</title>
<polygon fill="none" stroke="black" points="1086,-82 1059,-64 1086,-46 1113,-64 1086,-82"/>
<text text-anchor="middle" x="1086" y="-60.9" font-family="Times,serif" font-size="12.00">X</text>
</g>
<!-- 6212113808&#45;&gt;6211964368 -->
<g id="edge11" class="edge">
<title>6212113808&#45;&gt;6211964368</title>
<path fill="none" stroke="black" d="M1017.37,-64C1028.22,-64 1039.02,-64 1048.7,-64"/>
<polygon fill="black" stroke="black" points="1048.71,-67.5 1058.71,-64 1048.71,-60.5 1048.71,-67.5"/>
</g>
<!-- 6212112144 -->
<g id="node12" class="node">
<title>6212112144</title>
<polygon fill="none" stroke="black" points="1285,-82 1149,-82 1149,-46 1285,-46 1285,-82"/>
<text text-anchor="middle" x="1217" y="-60.9" font-family="Times,serif" font-size="12.00">Review complaint details</text>
</g>
<!-- 6211964368&#45;&gt;6212112144 -->
<g id="edge13" class="edge">
<title>6211964368&#45;&gt;6212112144</title>
<path fill="none" stroke="black" d="M1113.11,-64C1120.78,-64 1129.6,-64 1138.78,-64"/>
<polygon fill="black" stroke="black" points="1138.84,-67.5 1148.84,-64 1138.84,-60.5 1138.84,-67.5"/>
</g>
<!-- 6212109712&#45;&gt;6211964368 -->
<g id="edge12" class="edge">
<title>6212109712&#45;&gt;6211964368</title>
<path fill="none" stroke="black" d="M999.36,-99.9C1007.32,-97.01 1015.4,-93.99 1023,-91 1035.42,-86.11 1049.04,-80.24 1060.34,-75.22"/>
<polygon fill="black" stroke="black" points="1061.89,-78.36 1069.59,-71.08 1059.03,-71.97 1061.89,-78.36"/>
</g>
<!-- 6213476880 -->
<g id="node13" class="node">
<title>6213476880</title>
<polygon fill="none" stroke="black" points="1348,-59 1321,-41 1348,-23 1375,-41 1348,-59"/>
<text text-anchor="middle" x="1348" y="-37.9" font-family="Times,serif" font-size="12.00">X</text>
</g>
<!-- 6212112144&#45;&gt;6213476880 -->
<g id="edge14" class="edge">
<title>6212112144&#45;&gt;6213476880</title>
<path fill="none" stroke="black" d="M1285.14,-52.03C1296.09,-50.08 1306.93,-48.14 1316.4,-46.46"/>
<polygon fill="black" stroke="black" points="1317.23,-49.86 1326.46,-44.66 1316,-42.97 1317.23,-49.86"/>
</g>
<!-- 6213476880&#45;&gt;6211960912 -->
<g id="edge15" class="edge">
<title>6213476880&#45;&gt;6211960912</title>
<path fill="none" stroke="black" d="M1325.48,-37.8C1281.04,-31.48 1175.82,-18 1087,-18 643,-18 643,-18 643,-18 572.25,-18 489.77,-29.1 446,-35.88"/>
<polygon fill="black" stroke="black" points="445.32,-32.44 435.99,-37.46 446.41,-39.35 445.32,-32.44"/>
</g>
<!-- 6212496400 -->
<g id="node14" class="node">
<title>6212496400</title>
<polygon fill="none" stroke="black" points="1618,-59 1411,-59 1411,-23 1618,-23 1618,-59"/>
<text text-anchor="middle" x="1514.5" y="-37.9" font-family="Times,serif" font-size="12.00">Assign complaint to relevant department</text>
</g>
<!-- 6213476880&#45;&gt;6212496400 -->
<g id="edge16" class="edge">
<title>6213476880&#45;&gt;6212496400</title>
<path fill="none" stroke="black" d="M1375.07,-41C1382.66,-41 1391.49,-41 1400.93,-41"/>
<polygon fill="black" stroke="black" points="1400.97,-44.5 1410.97,-41 1400.97,-37.5 1400.97,-44.5"/>
</g>
<!-- 6210839568 -->
<g id="node15" class="node">
<title>6210839568</title>
<polygon fill="none" stroke="black" points="1740,-59 1654,-59 1654,-23 1740,-23 1740,-59"/>
<text text-anchor="middle" x="1697" y="-37.9" font-family="Times,serif" font-size="12.00">Log complaint</text>
</g>
<!-- 6212496400&#45;&gt;6210839568 -->
<g id="edge17" class="edge">
<title>6212496400&#45;&gt;6210839568</title>
<path fill="none" stroke="black" d="M1618.14,-41C1626.96,-41 1635.62,-41 1643.77,-41"/>
<polygon fill="black" stroke="black" points="1643.79,-44.5 1653.79,-41 1643.79,-37.5 1643.79,-44.5"/>
</g>
<!-- 6211489424 -->
<g id="node16" class="node">
<title>6211489424</title>
<polygon fill="none" stroke="black" points="1860,-59 1776,-59 1776,-23 1860,-23 1860,-59"/>
<text text-anchor="middle" x="1818" y="-37.9" font-family="Times,serif" font-size="12.00">File complaint</text>
</g>
<!-- 6210839568&#45;&gt;6211489424 -->
<g id="edge18" class="edge">
<title>6210839568&#45;&gt;6211489424</title>
<path fill="none" stroke="black" d="M1740.29,-41C1748.46,-41 1757.1,-41 1765.53,-41"/>
<polygon fill="black" stroke="black" points="1765.65,-44.5 1775.65,-41 1765.65,-37.5 1765.65,-44.5"/>
</g>
<!-- 6210320528 -->
<g id="node17" class="node">
<title>6210320528</title>
<ellipse fill="orange" stroke="black" cx="1914" cy="-41" rx="18" ry="18"/>
</g>
<!-- 6211489424&#45;&gt;6210320528 -->
<g id="edge19" class="edge">
<title>6211489424&#45;&gt;6210320528</title>
<path fill="none" stroke="black" d="M1860.23,-41C1868.78,-41 1877.58,-41 1885.49,-41"/>
<polygon fill="black" stroke="black" points="1885.61,-44.5 1895.61,-41 1885.61,-37.5 1885.61,-44.5"/>
</g>
</g>
</svg>
