<?xml version="1.0" encoding="UTF-8" standalone="no"?>
<!DOCTYPE svg PUBLIC "-//W3C//DTD SVG 1.1//EN"
 "http://www.w3.org/Graphics/SVG/1.1/DTD/svg11.dtd">
<!-- Generated by graphviz version 2.50.0 (0)
 -->
<!-- Pages: 1 -->
<svg width="1587pt" height="148pt"
 viewBox="0.00 0.00 1587.00 148.00" xmlns="http://www.w3.org/2000/svg" xmlns:xlink="http://www.w3.org/1999/xlink">
<g id="graph0" class="graph" transform="scale(1 1) rotate(0) translate(4 144)">
<polygon fill="white" stroke="transparent" points="-4,4 -4,-144 1583,-144 1583,4 -4,4"/>
<!-- 6212499856 -->
<g id="node1" class="node">
<title>6212499856</title>
<ellipse fill="green" stroke="black" cx="18" cy="-99" rx="18" ry="18"/>
</g>
<!-- 6212488784 -->
<g id="node2" class="node">
<title>6212488784</title>
<polygon fill="none" stroke="black" points="99,-117 72,-99 99,-81 126,-99 99,-117"/>
<text text-anchor="middle" x="99" y="-95.9" font-family="Times,serif" font-size="12.00">X</text>
</g>
<!-- 6212499856&#45;&gt;6212488784 -->
<g id="edge1" class="edge">
<title>6212499856&#45;&gt;6212488784</title>
<path fill="none" stroke="black" d="M36.14,-99C43.64,-99 52.75,-99 61.64,-99"/>
<polygon fill="black" stroke="black" points="61.87,-102.5 71.87,-99 61.87,-95.5 61.87,-102.5"/>
</g>
<!-- 6220478224 -->
<g id="node3" class="node">
<title>6220478224</title>
<polygon fill="none" stroke="black" points="261,-140 162,-140 162,-104 261,-104 261,-140"/>
<text text-anchor="middle" x="211.5" y="-118.9" font-family="Times,serif" font-size="12.00">Provide feedback</text>
</g>
<!-- 6212488784&#45;&gt;6220478224 -->
<g id="edge2" class="edge">
<title>6212488784&#45;&gt;6220478224</title>
<path fill="none" stroke="black" d="M120.01,-103.17C129.05,-105.05 140.26,-107.38 151.67,-109.75"/>
<polygon fill="black" stroke="black" points="151.2,-113.23 161.7,-111.84 152.62,-106.38 151.2,-113.23"/>
</g>
<!-- 6212499600 -->
<g id="node4" class="node">
<title>6212499600</title>
<polygon fill="none" stroke="black" points="324,-117 297,-99 324,-81 351,-99 324,-117"/>
<text text-anchor="middle" x="324" y="-95.9" font-family="Times,serif" font-size="12.00">X</text>
</g>
<!-- 6220478224&#45;&gt;6212499600 -->
<g id="edge3" class="edge">
<title>6220478224&#45;&gt;6212499600</title>
<path fill="none" stroke="black" d="M261.29,-111.84C272.07,-109.6 283.19,-107.29 292.97,-105.25"/>
<polygon fill="black" stroke="black" points="293.89,-108.63 302.97,-103.17 292.47,-101.78 293.89,-108.63"/>
</g>
<!-- 6212499600&#45;&gt;6212488784 -->
<g id="edge4" class="edge">
<title>6212499600&#45;&gt;6212488784</title>
<path fill="none" stroke="black" d="M299.76,-97.14C288.13,-96.31 273.83,-95.41 261,-95 217.02,-93.58 205.98,-93.58 162,-95 152.68,-95.3 142.58,-95.85 133.3,-96.46"/>
<polygon fill="black" stroke="black" points="132.98,-92.97 123.24,-97.14 133.46,-99.95 132.98,-92.97"/>
</g>
<!-- 6220466768 -->
<g id="node5" class="node">
<title>6220466768</title>
<polygon fill="none" stroke="black" points="491,-117 387,-117 387,-81 491,-81 491,-117"/>
<text text-anchor="middle" x="439" y="-95.9" font-family="Times,serif" font-size="12.00">Resolve complaint</text>
</g>
<!-- 6212499600&#45;&gt;6220466768 -->
<g id="edge5" class="edge">
<title>6212499600&#45;&gt;6220466768</title>
<path fill="none" stroke="black" d="M351.21,-99C358.88,-99 367.62,-99 376.51,-99"/>
<polygon fill="black" stroke="black" points="376.58,-102.5 386.58,-99 376.58,-95.5 376.58,-102.5"/>
</g>
<!-- 6212494096 -->
<g id="node6" class="node">
<title>6212494096</title>
<polygon fill="none" stroke="black" points="554,-117 527,-99 554,-81 581,-99 554,-117"/>
<text text-anchor="middle" x="554" y="-95.9" font-family="Times,serif" font-size="12.00">X</text>
</g>
<!-- 6220466768&#45;&gt;6212494096 -->
<g id="edge6" class="edge">
<title>6220466768&#45;&gt;6212494096</title>
<path fill="none" stroke="black" d="M491.21,-99C499.82,-99 508.59,-99 516.72,-99"/>
<polygon fill="black" stroke="black" points="516.97,-102.5 526.97,-99 516.97,-95.5 516.97,-102.5"/>
</g>
<!-- 6212499792 -->
<g id="node7" class="node">
<title>6212499792</title>
<polygon fill="none" stroke="black" points="823,-117 796,-99 823,-81 850,-99 823,-117"/>
<text text-anchor="middle" x="823" y="-95.9" font-family="Times,serif" font-size="12.00">X</text>
</g>
<!-- 6212494096&#45;&gt;6212499792 -->
<g id="edge7" class="edge">
<title>6212494096&#45;&gt;6212499792</title>
<path fill="none" stroke="black" d="M575.51,-95.19C622.1,-91.52 736.15,-91.28 791.23,-94.5"/>
<polygon fill="black" stroke="black" points="791.21,-98 801.42,-95.19 791.68,-91.02 791.21,-98"/>
</g>
<!-- 6212494096&#45;&gt;6212499792 -->
<g id="edge8" class="edge">
<title>6212494096&#45;&gt;6212499792</title>
<path fill="none" stroke="black" d="M575.51,-102.81C622.1,-106.48 736.15,-106.72 791.23,-103.5"/>
<polygon fill="black" stroke="black" points="791.68,-106.98 801.42,-102.81 791.21,-100 791.68,-106.98"/>
</g>
<!-- 6206070288 -->
<g id="node8" class="node">
<title>6206070288</title>
<polygon fill="none" stroke="black" points="751,-90 626,-90 626,-54 751,-54 751,-90"/>
<text text-anchor="middle" x="688.5" y="-68.9" font-family="Times,serif" font-size="12.00">Process reimbursement</text>
</g>
<!-- 6212494096&#45;&gt;6206070288 -->
<g id="edge10" class="edge">
<title>6212494096&#45;&gt;6206070288</title>
<path fill="none" stroke="black" d="M575.12,-94.9C586.29,-92.62 600.92,-89.64 615.92,-86.59"/>
<polygon fill="black" stroke="black" points="616.7,-90 625.8,-84.57 615.3,-83.14 616.7,-90"/>
</g>
<!-- 6219772624 -->
<g id="node9" class="node">
<title>6219772624</title>
<polygon fill="none" stroke="black" points="760,-36 617,-36 617,0 760,0 760,-36"/>
<text text-anchor="middle" x="688.5" y="-14.9" font-family="Times,serif" font-size="12.00">Reject and notify customer</text>
</g>
<!-- 6212494096&#45;&gt;6219772624 -->
<g id="edge9" class="edge">
<title>6212494096&#45;&gt;6219772624</title>
<path fill="none" stroke="black" d="M565.07,-88.2C576.65,-76.29 596.69,-57.21 617,-45 619.61,-43.43 622.33,-41.92 625.12,-40.48"/>
<polygon fill="black" stroke="black" points="626.71,-43.6 634.19,-36.09 623.66,-37.3 626.71,-43.6"/>
</g>
<!-- 6218334480 -->
<g id="node10" class="node">
<title>6218334480</title>
<polygon fill="none" stroke="black" points="1022,-117 886,-117 886,-81 1022,-81 1022,-117"/>
<text text-anchor="middle" x="954" y="-95.9" font-family="Times,serif" font-size="12.00">Review complaint details</text>
</g>
<!-- 6212499792&#45;&gt;6218334480 -->
<g id="edge13" class="edge">
<title>6212499792&#45;&gt;6218334480</title>
<path fill="none" stroke="black" d="M850.11,-99C857.78,-99 866.6,-99 875.78,-99"/>
<polygon fill="black" stroke="black" points="875.84,-102.5 885.84,-99 875.84,-95.5 875.84,-102.5"/>
</g>
<!-- 6206070288&#45;&gt;6212499792 -->
<g id="edge11" class="edge">
<title>6206070288&#45;&gt;6212499792</title>
<path fill="none" stroke="black" d="M751.1,-84.55C765.31,-87.45 779.82,-90.4 791.97,-92.88"/>
<polygon fill="black" stroke="black" points="791.49,-96.35 801.98,-94.92 792.88,-89.49 791.49,-96.35"/>
</g>
<!-- 6219772624&#45;&gt;6212499792 -->
<g id="edge12" class="edge">
<title>6219772624&#45;&gt;6212499792</title>
<path fill="none" stroke="black" d="M742.81,-36.09C748.76,-38.78 754.61,-41.76 760,-45 776.5,-54.92 792.82,-69.37 804.58,-80.83"/>
<polygon fill="black" stroke="black" points="802.39,-83.59 811.93,-88.2 807.34,-78.65 802.39,-83.59"/>
</g>
<!-- 6210515920 -->
<g id="node11" class="node">
<title>6210515920</title>
<polygon fill="none" stroke="black" points="1265,-117 1058,-117 1058,-81 1265,-81 1265,-117"/>
<text text-anchor="middle" x="1161.5" y="-95.9" font-family="Times,serif" font-size="12.00">Assign complaint to relevant department</text>
</g>
<!-- 6218334480&#45;&gt;6210515920 -->
<g id="edge14" class="edge">
<title>6218334480&#45;&gt;6210515920</title>
<path fill="none" stroke="black" d="M1022,-99C1030.25,-99 1038.86,-99 1047.56,-99"/>
<polygon fill="black" stroke="black" points="1047.8,-102.5 1057.8,-99 1047.8,-95.5 1047.8,-102.5"/>
</g>
<!-- 6206593936 -->
<g id="node12" class="node">
<title>6206593936</title>
<polygon fill="none" stroke="black" points="1387,-117 1301,-117 1301,-81 1387,-81 1387,-117"/>
<text text-anchor="middle" x="1344" y="-95.9" font-family="Times,serif" font-size="12.00">Log complaint</text>
</g>
<!-- 6210515920&#45;&gt;6206593936 -->
<g id="edge15" class="edge">
<title>6210515920&#45;&gt;6206593936</title>
<path fill="none" stroke="black" d="M1265.14,-99C1273.96,-99 1282.62,-99 1290.77,-99"/>
<polygon fill="black" stroke="black" points="1290.79,-102.5 1300.79,-99 1290.79,-95.5 1290.79,-102.5"/>
</g>
<!-- 6211159248 -->
<g id="node13" class="node">
<title>6211159248</title>
<polygon fill="none" stroke="black" points="1507,-117 1423,-117 1423,-81 1507,-81 1507,-117"/>
<text text-anchor="middle" x="1465" y="-95.9" font-family="Times,serif" font-size="12.00">File complaint</text>
</g>
<!-- 6206593936&#45;&gt;6211159248 -->
<g id="edge16" class="edge">
<title>6206593936&#45;&gt;6211159248</title>
<path fill="none" stroke="black" d="M1387.29,-99C1395.46,-99 1404.1,-99 1412.53,-99"/>
<polygon fill="black" stroke="black" points="1412.65,-102.5 1422.65,-99 1412.65,-95.5 1412.65,-102.5"/>
</g>
<!-- 6219861456 -->
<g id="node14" class="node">
<title>6219861456</title>
<ellipse fill="orange" stroke="black" cx="1561" cy="-99" rx="18" ry="18"/>
</g>
<!-- 6211159248&#45;&gt;6219861456 -->
<g id="edge17" class="edge">
<title>6211159248&#45;&gt;6219861456</title>
<path fill="none" stroke="black" d="M1507.23,-99C1515.78,-99 1524.58,-99 1532.49,-99"/>
<polygon fill="black" stroke="black" points="1532.61,-102.5 1542.61,-99 1532.61,-95.5 1532.61,-102.5"/>
</g>
</g>
</svg>
