<?xml version="1.0" encoding="UTF-8" standalone="no"?>
<!DOCTYPE svg PUBLIC "-//W3C//DTD SVG 1.1//EN"
 "http://www.w3.org/Graphics/SVG/1.1/DTD/svg11.dtd">
<!-- Generated by graphviz version 2.50.0 (0)
 -->
<!-- Pages: 1 -->
<svg width="1714pt" height="264pt"
 viewBox="0.00 0.00 1714.00 264.00" xmlns="http://www.w3.org/2000/svg" xmlns:xlink="http://www.w3.org/1999/xlink">
<g id="graph0" class="graph" transform="scale(1 1) rotate(0) translate(4 260)">
<polygon fill="white" stroke="transparent" points="-4,4 -4,-260 1710,-260 1710,4 -4,4"/>
<!-- 6107103952 -->
<g id="node1" class="node">
<title>6107103952</title>
<ellipse fill="green" stroke="black" cx="18" cy="-153" rx="18" ry="18"/>
</g>
<!-- 6107011472 -->
<g id="node2" class="node">
<title>6107011472</title>
<polygon fill="none" stroke="black" points="99,-171 72,-153 99,-135 126,-153 99,-171"/>
<text text-anchor="middle" x="99" y="-149.9" font-family="Times,serif" font-size="12.00">+</text>
</g>
<!-- 6107103952&#45;&gt;6107011472 -->
<g id="edge1" class="edge">
<title>6107103952&#45;&gt;6107011472</title>
<path fill="none" stroke="black" d="M36.14,-153C43.64,-153 52.75,-153 61.64,-153"/>
<polygon fill="black" stroke="black" points="61.87,-156.5 71.87,-153 61.87,-149.5 61.87,-156.5"/>
</g>
<!-- 6107019472 -->
<g id="node3" class="node">
<title>6107019472</title>
<polygon fill="none" stroke="black" points="248,-244 162,-244 162,-208 248,-208 248,-244"/>
<text text-anchor="middle" x="205" y="-222.9" font-family="Times,serif" font-size="12.00">Log complaint</text>
</g>
<!-- 6107011472&#45;&gt;6107019472 -->
<g id="edge3" class="edge">
<title>6107011472&#45;&gt;6107019472</title>
<path fill="none" stroke="black" d="M112.75,-161.95C126.83,-171.83 150.09,-188.16 169.6,-201.85"/>
<polygon fill="black" stroke="black" points="167.78,-204.85 177.97,-207.73 171.8,-199.12 167.78,-204.85"/>
</g>
<!-- 6107009552 -->
<g id="node4" class="node">
<title>6107009552</title>
<polygon fill="none" stroke="black" points="382,-196 290,-196 290,-160 382,-160 382,-196"/>
<text text-anchor="middle" x="336" y="-174.9" font-family="Times,serif" font-size="12.00">Approve refund</text>
</g>
<!-- 6107011472&#45;&gt;6107009552 -->
<g id="edge4" class="edge">
<title>6107011472&#45;&gt;6107009552</title>
<path fill="none" stroke="black" d="M122.53,-155.4C158.43,-159.22 229.65,-166.79 279.7,-172.12"/>
<polygon fill="black" stroke="black" points="279.41,-175.61 289.73,-173.18 280.16,-168.65 279.41,-175.61"/>
</g>
<!-- 6107014032 -->
<g id="node5" class="node">
<title>6107014032</title>
<polygon fill="none" stroke="black" points="248,-148 162,-148 162,-112 248,-112 248,-148"/>
<text text-anchor="middle" x="205" y="-126.9" font-family="Times,serif" font-size="12.00">Log complaint</text>
</g>
<!-- 6107011472&#45;&gt;6107014032 -->
<g id="edge2" class="edge">
<title>6107011472&#45;&gt;6107014032</title>
<path fill="none" stroke="black" d="M119.56,-148.67C128.75,-146.64 140.2,-144.11 151.67,-141.57"/>
<polygon fill="black" stroke="black" points="152.68,-144.93 161.69,-139.36 151.17,-138.1 152.68,-144.93"/>
</g>
<!-- 6094843728 -->
<g id="node6" class="node">
<title>6094843728</title>
<polygon fill="none" stroke="black" points="247,-92 163,-92 163,-56 247,-56 247,-92"/>
<text text-anchor="middle" x="205" y="-70.9" font-family="Times,serif" font-size="12.00">File complaint</text>
</g>
<!-- 6107011472&#45;&gt;6094843728 -->
<g id="edge5" class="edge">
<title>6107011472&#45;&gt;6094843728</title>
<path fill="none" stroke="black" d="M111.68,-143.15C123.99,-132.87 144.05,-116.4 162,-103 164.11,-101.42 166.3,-99.82 168.52,-98.22"/>
<polygon fill="black" stroke="black" points="170.99,-100.76 177.13,-92.12 166.94,-95.05 170.99,-100.76"/>
</g>
<!-- 6107009744 -->
<g id="node8" class="node">
<title>6107009744</title>
<polygon fill="none" stroke="black" points="810,-256 667,-256 667,-220 810,-220 810,-256"/>
<text text-anchor="middle" x="738.5" y="-234.9" font-family="Times,serif" font-size="12.00">Reject and notify customer</text>
</g>
<!-- 6107019472&#45;&gt;6107009744 -->
<g id="edge6" class="edge">
<title>6107019472&#45;&gt;6107009744</title>
<path fill="none" stroke="black" d="M248.15,-226.95C336.45,-228.95 542.15,-233.59 656.75,-236.18"/>
<polygon fill="black" stroke="black" points="656.8,-239.68 666.88,-236.41 656.96,-232.68 656.8,-239.68"/>
</g>
<!-- 6107016272 -->
<g id="node9" class="node">
<title>6107016272</title>
<polygon fill="none" stroke="black" points="1307,-196 1280,-178 1307,-160 1334,-178 1307,-196"/>
<text text-anchor="middle" x="1307" y="-174.9" font-family="Times,serif" font-size="12.00">+</text>
</g>
<!-- 6107009552&#45;&gt;6107016272 -->
<g id="edge7" class="edge">
<title>6107009552&#45;&gt;6107016272</title>
<path fill="none" stroke="black" d="M382.05,-178C456.17,-178 608.52,-178 737.5,-178 737.5,-178 737.5,-178 950.5,-178 1067.14,-178 1205.3,-178 1269.64,-178"/>
<polygon fill="black" stroke="black" points="1269.69,-181.5 1279.69,-178 1269.69,-174.5 1269.69,-181.5"/>
</g>
<!-- 6098301968 -->
<g id="node10" class="node">
<title>6098301968</title>
<polygon fill="none" stroke="black" points="388,-142 284,-142 284,-106 388,-106 388,-142"/>
<text text-anchor="middle" x="336" y="-120.9" font-family="Times,serif" font-size="12.00">Resolve complaint</text>
</g>
<!-- 6107014032&#45;&gt;6098301968 -->
<g id="edge8" class="edge">
<title>6107014032&#45;&gt;6098301968</title>
<path fill="none" stroke="black" d="M248.24,-128.04C256.37,-127.66 265.04,-127.25 273.64,-126.85"/>
<polygon fill="black" stroke="black" points="273.84,-130.35 283.66,-126.39 273.51,-123.36 273.84,-130.35"/>
</g>
<!-- 6107015568 -->
<g id="node7" class="node">
<title>6107015568</title>
<polygon fill="none" stroke="black" points="336,-88 309,-70 336,-52 363,-70 336,-88"/>
<text text-anchor="middle" x="336" y="-66.9" font-family="Times,serif" font-size="12.00">X</text>
</g>
<!-- 6094843728&#45;&gt;6107015568 -->
<g id="edge9" class="edge">
<title>6094843728&#45;&gt;6107015568</title>
<path fill="none" stroke="black" d="M247.17,-72.72C264.11,-72.2 283.52,-71.6 299.79,-71.09"/>
<polygon fill="black" stroke="black" points="300.07,-74.58 309.96,-70.78 299.86,-67.59 300.07,-74.58"/>
</g>
<!-- 6107012176 -->
<g id="node11" class="node">
<title>6107012176</title>
<polygon fill="none" stroke="black" points="577,-90 478,-90 478,-54 577,-54 577,-90"/>
<text text-anchor="middle" x="527.5" y="-68.9" font-family="Times,serif" font-size="12.00">Provide feedback</text>
</g>
<!-- 6107015568&#45;&gt;6107012176 -->
<g id="edge10" class="edge">
<title>6107015568&#45;&gt;6107012176</title>
<path fill="none" stroke="black" d="M362.95,-70.27C389.8,-70.56 432.64,-71.01 467.73,-71.38"/>
<polygon fill="black" stroke="black" points="467.84,-74.88 477.88,-71.49 467.92,-67.88 467.84,-74.88"/>
</g>
<!-- 6108613328 -->
<g id="node13" class="node">
<title>6108613328</title>
<polygon fill="none" stroke="black" points="631,-36 424,-36 424,0 631,0 631,-36"/>
<text text-anchor="middle" x="527.5" y="-14.9" font-family="Times,serif" font-size="12.00">Assign complaint to relevant department</text>
</g>
<!-- 6107015568&#45;&gt;6108613328 -->
<g id="edge11" class="edge">
<title>6107015568&#45;&gt;6108613328</title>
<path fill="none" stroke="black" d="M355.3,-64.61C372.88,-59.47 400.21,-51.55 424,-45 431.63,-42.9 439.59,-40.74 447.55,-38.61"/>
<polygon fill="black" stroke="black" points="448.49,-41.98 457.25,-36.02 446.68,-35.22 448.49,-41.98"/>
</g>
<!-- 6097074832 -->
<g id="node14" class="node">
<title>6097074832</title>
<polygon fill="none" stroke="black" points="1607,-161 1580,-143 1607,-125 1634,-143 1607,-161"/>
<text text-anchor="middle" x="1607" y="-139.9" font-family="Times,serif" font-size="12.00">+</text>
</g>
<!-- 6107009744&#45;&gt;6097074832 -->
<g id="edge12" class="edge">
<title>6107009744&#45;&gt;6097074832</title>
<path fill="none" stroke="black" d="M810.24,-239.37C893.11,-240.85 1034.51,-243 1156,-243 1156,-243 1156,-243 1308,-243 1413.23,-243 1451.6,-274.35 1544,-224 1567.81,-211.02 1585.32,-184.59 1595.55,-165.44"/>
<polygon fill="black" stroke="black" points="1598.7,-166.96 1600.1,-156.46 1592.46,-163.8 1598.7,-166.96"/>
</g>
<!-- 6107018192 -->
<g id="node12" class="node">
<title>6107018192</title>
<polygon fill="none" stroke="black" points="1509.5,-215 1423.5,-215 1423.5,-179 1509.5,-179 1509.5,-215"/>
<text text-anchor="middle" x="1466.5" y="-193.9" font-family="Times,serif" font-size="12.00">Log complaint</text>
</g>
<!-- 6107016272&#45;&gt;6107018192 -->
<g id="edge13" class="edge">
<title>6107016272&#45;&gt;6107018192</title>
<path fill="none" stroke="black" d="M1330.23,-180.68C1351.68,-183.27 1384.95,-187.28 1413.13,-190.68"/>
<polygon fill="black" stroke="black" points="1412.9,-194.18 1423.24,-191.9 1413.74,-187.23 1412.9,-194.18"/>
</g>
<!-- 6098289104 -->
<g id="node16" class="node">
<title>6098289104</title>
<polygon fill="none" stroke="black" points="1529,-161 1404,-161 1404,-125 1529,-125 1529,-161"/>
<text text-anchor="middle" x="1466.5" y="-139.9" font-family="Times,serif" font-size="12.00">Process reimbursement</text>
</g>
<!-- 6107016272&#45;&gt;6098289104 -->
<g id="edge14" class="edge">
<title>6107016272&#45;&gt;6098289104</title>
<path fill="none" stroke="black" d="M1327.63,-173.64C1344.37,-169.92 1369.51,-164.33 1393.76,-158.94"/>
<polygon fill="black" stroke="black" points="1394.71,-162.32 1403.71,-156.73 1393.19,-155.48 1394.71,-162.32"/>
</g>
<!-- 6098296400 -->
<g id="node15" class="node">
<title>6098296400</title>
<polygon fill="none" stroke="black" points="992.5,-131 906.5,-131 906.5,-95 992.5,-95 992.5,-131"/>
<text text-anchor="middle" x="949.5" y="-109.9" font-family="Times,serif" font-size="12.00">Log complaint</text>
</g>
<!-- 6098301968&#45;&gt;6098296400 -->
<g id="edge15" class="edge">
<title>6098301968&#45;&gt;6098296400</title>
<path fill="none" stroke="black" d="M388.08,-123.08C502.88,-121.02 780.27,-116.03 896.2,-113.94"/>
<polygon fill="black" stroke="black" points="896.32,-117.44 906.25,-113.76 896.19,-110.44 896.32,-117.44"/>
</g>
<!-- 6107020624 -->
<g id="node17" class="node">
<title>6107020624</title>
<polygon fill="none" stroke="black" points="738.5,-69 711.5,-51 738.5,-33 765.5,-51 738.5,-69"/>
<text text-anchor="middle" x="738.5" y="-47.9" font-family="Times,serif" font-size="12.00">X</text>
</g>
<!-- 6107012176&#45;&gt;6107020624 -->
<g id="edge19" class="edge">
<title>6107012176&#45;&gt;6107020624</title>
<path fill="none" stroke="black" d="M577.24,-67.1C616.31,-63.18 670.1,-57.77 704.33,-54.33"/>
<polygon fill="black" stroke="black" points="705.12,-57.77 714.72,-53.29 704.42,-50.81 705.12,-57.77"/>
</g>
<!-- 6107018192&#45;&gt;6097074832 -->
<g id="edge16" class="edge">
<title>6107018192&#45;&gt;6097074832</title>
<path fill="none" stroke="black" d="M1509.79,-182.68C1520.97,-178.73 1532.99,-174.33 1544,-170 1556.42,-165.11 1570.04,-159.24 1581.34,-154.22"/>
<polygon fill="black" stroke="black" points="1582.89,-157.36 1590.59,-150.08 1580.03,-150.97 1582.89,-157.36"/>
</g>
<!-- 6108613328&#45;&gt;6107020624 -->
<g id="edge20" class="edge">
<title>6108613328&#45;&gt;6107020624</title>
<path fill="none" stroke="black" d="M631.16,-34.21C658.46,-38.52 685.93,-42.86 706.11,-46.04"/>
<polygon fill="black" stroke="black" points="705.82,-49.54 716.24,-47.64 706.91,-42.63 705.82,-49.54"/>
</g>
<!-- 6108450832 -->
<g id="node22" class="node">
<title>6108450832</title>
<ellipse fill="orange" stroke="black" cx="1688" cy="-143" rx="18" ry="18"/>
</g>
<!-- 6097074832&#45;&gt;6108450832 -->
<g id="edge21" class="edge">
<title>6097074832&#45;&gt;6108450832</title>
<path fill="none" stroke="black" d="M1634.31,-143C1642.42,-143 1651.37,-143 1659.56,-143"/>
<polygon fill="black" stroke="black" points="1659.75,-146.5 1669.75,-143 1659.75,-139.5 1659.75,-146.5"/>
</g>
<!-- 6098296400&#45;&gt;6097074832 -->
<g id="edge17" class="edge">
<title>6098296400&#45;&gt;6097074832</title>
<path fill="none" stroke="black" d="M992.85,-107.44C1091.05,-95.78 1341.35,-73.25 1544,-116 1557.33,-118.81 1571.31,-124.62 1582.61,-130.13"/>
<polygon fill="black" stroke="black" points="1581.28,-133.38 1591.78,-134.82 1584.47,-127.15 1581.28,-133.38"/>
</g>
<!-- 6098289104&#45;&gt;6097074832 -->
<g id="edge18" class="edge">
<title>6098289104&#45;&gt;6097074832</title>
<path fill="none" stroke="black" d="M1529.05,-143C1542.8,-143 1556.96,-143 1569.32,-143"/>
<polygon fill="black" stroke="black" points="1569.67,-146.5 1579.67,-143 1569.67,-139.5 1569.67,-146.5"/>
</g>
<!-- 6107118032 -->
<g id="node18" class="node">
<title>6107118032</title>
<polygon fill="none" stroke="black" points="1053,-69 846,-69 846,-33 1053,-33 1053,-69"/>
<text text-anchor="middle" x="949.5" y="-47.9" font-family="Times,serif" font-size="12.00">Assign complaint to relevant department</text>
</g>
<!-- 6107020624&#45;&gt;6107118032 -->
<g id="edge22" class="edge">
<title>6107020624&#45;&gt;6107118032</title>
<path fill="none" stroke="black" d="M765.55,-51C783.69,-51 809.27,-51 835.57,-51"/>
<polygon fill="black" stroke="black" points="835.67,-54.5 845.67,-51 835.67,-47.5 835.67,-54.5"/>
</g>
<!-- 6098295696 -->
<g id="node19" class="node">
<title>6098295696</title>
<polygon fill="none" stroke="black" points="1225,-69 1089,-69 1089,-33 1225,-33 1225,-69"/>
<text text-anchor="middle" x="1157" y="-47.9" font-family="Times,serif" font-size="12.00">Review complaint details</text>
</g>
<!-- 6107118032&#45;&gt;6098295696 -->
<g id="edge23" class="edge">
<title>6107118032&#45;&gt;6098295696</title>
<path fill="none" stroke="black" d="M1053.25,-51C1061.88,-51 1070.51,-51 1078.9,-51"/>
<polygon fill="black" stroke="black" points="1079,-54.5 1089,-51 1079,-47.5 1079,-54.5"/>
</g>
<!-- 6098298768 -->
<g id="node20" class="node">
<title>6098298768</title>
<polygon fill="none" stroke="black" points="1353,-69 1261,-69 1261,-33 1353,-33 1353,-69"/>
<text text-anchor="middle" x="1307" y="-47.9" font-family="Times,serif" font-size="12.00">Approve refund</text>
</g>
<!-- 6098295696&#45;&gt;6098298768 -->
<g id="edge24" class="edge">
<title>6098295696&#45;&gt;6098298768</title>
<path fill="none" stroke="black" d="M1225.07,-51C1233.66,-51 1242.38,-51 1250.75,-51"/>
<polygon fill="black" stroke="black" points="1250.77,-54.5 1260.77,-51 1250.77,-47.5 1250.77,-54.5"/>
</g>
<!-- 6098302864 -->
<g id="node21" class="node">
<title>6098302864</title>
<polygon fill="none" stroke="black" points="1544,-69 1389,-69 1389,-33 1544,-33 1544,-69"/>
<text text-anchor="middle" x="1466.5" y="-47.9" font-family="Times,serif" font-size="12.00">Approve and notify customer</text>
</g>
<!-- 6098298768&#45;&gt;6098302864 -->
<g id="edge25" class="edge">
<title>6098298768&#45;&gt;6098302864</title>
<path fill="none" stroke="black" d="M1353.13,-51C1361.26,-51 1369.97,-51 1378.81,-51"/>
<polygon fill="black" stroke="black" points="1378.83,-54.5 1388.83,-51 1378.83,-47.5 1378.83,-54.5"/>
</g>
<!-- 6098302864&#45;&gt;6097074832 -->
<g id="edge26" class="edge">
<title>6098302864&#45;&gt;6097074832</title>
<path fill="none" stroke="black" d="M1518.26,-69.08C1527.14,-73.11 1536.07,-77.77 1544,-83 1561.24,-94.36 1577.88,-110.87 1589.58,-123.71"/>
<polygon fill="black" stroke="black" points="1587.25,-126.36 1596.51,-131.51 1592.49,-121.71 1587.25,-126.36"/>
</g>
</g>
</svg>
