<?xml version="1.0" encoding="UTF-8" standalone="no"?>
<!DOCTYPE svg PUBLIC "-//W3C//DTD SVG 1.1//EN"
 "http://www.w3.org/Graphics/SVG/1.1/DTD/svg11.dtd">
<!-- Generated by graphviz version 2.50.0 (0)
 -->
<!-- Pages: 1 -->
<svg width="1524pt" height="132pt"
 viewBox="0.00 0.00 1524.00 132.00" xmlns="http://www.w3.org/2000/svg" xmlns:xlink="http://www.w3.org/1999/xlink">
<g id="graph0" class="graph" transform="scale(1 1) rotate(0) translate(4 128)">
<polygon fill="white" stroke="transparent" points="-4,4 -4,-128 1520,-128 1520,4 -4,4"/>
<!-- 6096981328 -->
<g id="node1" class="node">
<title>6096981328</title>
<ellipse fill="green" stroke="black" cx="18" cy="-45" rx="18" ry="18"/>
</g>
<!-- 6107937104 -->
<g id="node2" class="node">
<title>6107937104</title>
<polygon fill="none" stroke="black" points="99,-63 72,-45 99,-27 126,-45 99,-63"/>
<text text-anchor="middle" x="99" y="-41.9" font-family="Times,serif" font-size="12.00">+</text>
</g>
<!-- 6096981328&#45;&gt;6107937104 -->
<g id="edge1" class="edge">
<title>6096981328&#45;&gt;6107937104</title>
<path fill="none" stroke="black" d="M36.14,-45C43.64,-45 52.75,-45 61.64,-45"/>
<polygon fill="black" stroke="black" points="61.87,-48.5 71.87,-45 61.87,-41.5 61.87,-48.5"/>
</g>
<!-- 6107925136 -->
<g id="node3" class="node">
<title>6107925136</title>
<polygon fill="none" stroke="black" points="291.5,-90 187.5,-90 187.5,-54 291.5,-54 291.5,-90"/>
<text text-anchor="middle" x="239.5" y="-68.9" font-family="Times,serif" font-size="12.00">Resolve complaint</text>
</g>
<!-- 6107937104&#45;&gt;6107925136 -->
<g id="edge2" class="edge">
<title>6107937104&#45;&gt;6107925136</title>
<path fill="none" stroke="black" d="M120.14,-48.93C135.23,-51.87 156.72,-56.06 177.26,-60.06"/>
<polygon fill="black" stroke="black" points="176.75,-63.53 187.24,-62.01 178.09,-56.66 176.75,-63.53"/>
</g>
<!-- 6107926608 -->
<g id="node4" class="node">
<title>6107926608</title>
<polygon fill="none" stroke="black" points="317,-36 162,-36 162,0 317,0 317,-36"/>
<text text-anchor="middle" x="239.5" y="-14.9" font-family="Times,serif" font-size="12.00">Approve and notify customer</text>
</g>
<!-- 6107937104&#45;&gt;6107926608 -->
<g id="edge3" class="edge">
<title>6107937104&#45;&gt;6107926608</title>
<path fill="none" stroke="black" d="M120.14,-41.07C128.99,-39.35 140.05,-37.19 151.82,-34.9"/>
<polygon fill="black" stroke="black" points="152.7,-38.29 161.85,-32.94 151.36,-31.42 152.7,-38.29"/>
</g>
<!-- 6098222032 -->
<g id="node5" class="node">
<title>6098222032</title>
<polygon fill="none" stroke="black" points="464,-90 378,-90 378,-54 464,-54 464,-90"/>
<text text-anchor="middle" x="421" y="-68.9" font-family="Times,serif" font-size="12.00">Log complaint</text>
</g>
<!-- 6107925136&#45;&gt;6098222032 -->
<g id="edge4" class="edge">
<title>6107925136&#45;&gt;6098222032</title>
<path fill="none" stroke="black" d="M291.94,-72C315.67,-72 343.81,-72 367.65,-72"/>
<polygon fill="black" stroke="black" points="367.93,-75.5 377.93,-72 367.93,-68.5 367.93,-75.5"/>
</g>
<!-- 6107930000 -->
<g id="node6" class="node">
<title>6107930000</title>
<polygon fill="none" stroke="black" points="489,-36 353,-36 353,0 489,0 489,-36"/>
<text text-anchor="middle" x="421" y="-14.9" font-family="Times,serif" font-size="12.00">Review complaint details</text>
</g>
<!-- 6107926608&#45;&gt;6107930000 -->
<g id="edge5" class="edge">
<title>6107926608&#45;&gt;6107930000</title>
<path fill="none" stroke="black" d="M317.14,-18C325.61,-18 334.24,-18 342.72,-18"/>
<polygon fill="black" stroke="black" points="342.96,-21.5 352.96,-18 342.96,-14.5 342.96,-21.5"/>
</g>
<!-- 6096924880 -->
<g id="node8" class="node">
<title>6096924880</title>
<polygon fill="none" stroke="black" points="668,-90 525,-90 525,-54 668,-54 668,-90"/>
<text text-anchor="middle" x="596.5" y="-68.9" font-family="Times,serif" font-size="12.00">Reject and notify customer</text>
</g>
<!-- 6098222032&#45;&gt;6096924880 -->
<g id="edge6" class="edge">
<title>6098222032&#45;&gt;6096924880</title>
<path fill="none" stroke="black" d="M464.44,-72C479.62,-72 497.27,-72 514.61,-72"/>
<polygon fill="black" stroke="black" points="514.77,-75.5 524.77,-72 514.77,-68.5 514.77,-75.5"/>
</g>
<!-- 6096914384 -->
<g id="node7" class="node">
<title>6096914384</title>
<polygon fill="none" stroke="black" points="829,-36 704,-36 704,0 829,0 829,-36"/>
<text text-anchor="middle" x="766.5" y="-14.9" font-family="Times,serif" font-size="12.00">Process reimbursement</text>
</g>
<!-- 6107930000&#45;&gt;6096914384 -->
<g id="edge7" class="edge">
<title>6107930000&#45;&gt;6096914384</title>
<path fill="none" stroke="black" d="M489.05,-18C547.92,-18 633.34,-18 693.62,-18"/>
<polygon fill="black" stroke="black" points="693.82,-21.5 703.82,-18 693.82,-14.5 693.82,-21.5"/>
</g>
<!-- 6096924560 -->
<g id="node10" class="node">
<title>6096924560</title>
<polygon fill="none" stroke="black" points="1417,-59 1390,-41 1417,-23 1444,-41 1417,-59"/>
<text text-anchor="middle" x="1417" y="-37.9" font-family="Times,serif" font-size="12.00">+</text>
</g>
<!-- 6096914384&#45;&gt;6096924560 -->
<g id="edge8" class="edge">
<title>6096914384&#45;&gt;6096924560</title>
<path fill="none" stroke="black" d="M829.05,-18C878.28,-18 949.07,-18 1011,-18 1011,-18 1011,-18 1215.5,-18 1276.16,-18 1346.47,-28.52 1385.64,-35.33"/>
<polygon fill="black" stroke="black" points="1385.14,-38.8 1395.6,-37.1 1386.36,-31.9 1385.14,-38.8"/>
</g>
<!-- 6098230608 -->
<g id="node9" class="node">
<title>6098230608</title>
<polygon fill="none" stroke="black" points="766.5,-90 739.5,-72 766.5,-54 793.5,-72 766.5,-90"/>
<text text-anchor="middle" x="766.5" y="-68.9" font-family="Times,serif" font-size="12.00">X</text>
</g>
<!-- 6096924880&#45;&gt;6098230608 -->
<g id="edge9" class="edge">
<title>6096924880&#45;&gt;6098230608</title>
<path fill="none" stroke="black" d="M668.26,-72C689.15,-72 711.16,-72 728.95,-72"/>
<polygon fill="black" stroke="black" points="729.16,-75.5 739.16,-72 729.16,-68.5 729.16,-75.5"/>
</g>
<!-- 6107933840 -->
<g id="node11" class="node">
<title>6107933840</title>
<polygon fill="none" stroke="black" points="949,-124 865,-124 865,-88 949,-88 949,-124"/>
<text text-anchor="middle" x="907" y="-102.9" font-family="Times,serif" font-size="12.00">File complaint</text>
</g>
<!-- 6098230608&#45;&gt;6107933840 -->
<g id="edge10" class="edge">
<title>6098230608&#45;&gt;6107933840</title>
<path fill="none" stroke="black" d="M786.76,-76.73C804.32,-81.04 831.06,-87.6 854.77,-93.42"/>
<polygon fill="black" stroke="black" points="854.17,-96.88 864.72,-95.87 855.84,-90.08 854.17,-96.88"/>
</g>
<!-- 6108561232 -->
<g id="node16" class="node">
<title>6108561232</title>
<ellipse fill="orange" stroke="black" cx="1498" cy="-41" rx="18" ry="18"/>
</g>
<!-- 6096924560&#45;&gt;6108561232 -->
<g id="edge11" class="edge">
<title>6096924560&#45;&gt;6108561232</title>
<path fill="none" stroke="black" d="M1444.31,-41C1452.42,-41 1461.37,-41 1469.56,-41"/>
<polygon fill="black" stroke="black" points="1469.75,-44.5 1479.75,-41 1469.75,-37.5 1469.75,-44.5"/>
</g>
<!-- 6096984080 -->
<g id="node12" class="node">
<title>6096984080</title>
<polygon fill="none" stroke="black" points="1012,-103 985,-85 1012,-67 1039,-85 1012,-103"/>
<text text-anchor="middle" x="1012" y="-81.9" font-family="Times,serif" font-size="12.00">X</text>
</g>
<!-- 6107933840&#45;&gt;6096984080 -->
<g id="edge12" class="edge">
<title>6107933840&#45;&gt;6096984080</title>
<path fill="none" stroke="black" d="M949,-97.64C959.75,-95.45 971.13,-93.13 981.16,-91.08"/>
<polygon fill="black" stroke="black" points="981.95,-94.49 991.05,-89.07 980.55,-87.64 981.95,-94.49"/>
</g>
<!-- 6096984080&#45;&gt;6098230608 -->
<g id="edge13" class="edge">
<title>6096984080&#45;&gt;6098230608</title>
<path fill="none" stroke="black" d="M988.64,-82.52C976.86,-81.29 962.16,-79.89 949,-79 898.32,-75.57 839.55,-73.69 802.94,-72.76"/>
<polygon fill="black" stroke="black" points="802.86,-69.26 792.78,-72.51 802.69,-76.25 802.86,-69.26"/>
</g>
<!-- 6107816272 -->
<g id="node13" class="node">
<title>6107816272</title>
<polygon fill="none" stroke="black" points="1102,-103 1075,-85 1102,-67 1129,-85 1102,-103"/>
<text text-anchor="middle" x="1102" y="-81.9" font-family="Times,serif" font-size="12.00">X</text>
</g>
<!-- 6096984080&#45;&gt;6107816272 -->
<g id="edge14" class="edge">
<title>6096984080&#45;&gt;6107816272</title>
<path fill="none" stroke="black" d="M1039.4,-85C1047.39,-85 1056.31,-85 1064.82,-85"/>
<polygon fill="black" stroke="black" points="1064.92,-88.5 1074.92,-85 1064.92,-81.5 1064.92,-88.5"/>
</g>
<!-- 6098232592 -->
<g id="node14" class="node">
<title>6098232592</title>
<polygon fill="none" stroke="black" points="1327,-82 1300,-64 1327,-46 1354,-64 1327,-82"/>
<text text-anchor="middle" x="1327" y="-60.9" font-family="Times,serif" font-size="12.00">X</text>
</g>
<!-- 6107816272&#45;&gt;6098232592 -->
<g id="edge15" class="edge">
<title>6107816272&#45;&gt;6098232592</title>
<path fill="none" stroke="black" d="M1123.34,-88.86C1154.14,-94.01 1214.3,-101.35 1264,-91 1277.33,-88.22 1291.32,-82.42 1302.62,-76.9"/>
<polygon fill="black" stroke="black" points="1304.48,-79.88 1311.78,-72.21 1301.28,-73.65 1304.48,-79.88"/>
</g>
<!-- 6097896144 -->
<g id="node15" class="node">
<title>6097896144</title>
<polygon fill="none" stroke="black" points="1264,-82 1165,-82 1165,-46 1264,-46 1264,-82"/>
<text text-anchor="middle" x="1214.5" y="-60.9" font-family="Times,serif" font-size="12.00">Provide feedback</text>
</g>
<!-- 6107816272&#45;&gt;6097896144 -->
<g id="edge16" class="edge">
<title>6107816272&#45;&gt;6097896144</title>
<path fill="none" stroke="black" d="M1123.27,-81.15C1132.33,-79.43 1143.52,-77.3 1154.9,-75.14"/>
<polygon fill="black" stroke="black" points="1155.73,-78.54 1164.9,-73.24 1154.42,-71.66 1155.73,-78.54"/>
</g>
<!-- 6098232592&#45;&gt;6096924560 -->
<g id="edge17" class="edge">
<title>6098232592&#45;&gt;6096924560</title>
<path fill="none" stroke="black" d="M1347.09,-59.01C1358.82,-55.94 1374.07,-51.96 1387.24,-48.52"/>
<polygon fill="black" stroke="black" points="1388.45,-51.82 1397.24,-45.9 1386.68,-45.04 1388.45,-51.82"/>
</g>
<!-- 6097896144&#45;&gt;6098232592 -->
<g id="edge18" class="edge">
<title>6097896144&#45;&gt;6098232592</title>
<path fill="none" stroke="black" d="M1264.29,-64C1272.81,-64 1281.54,-64 1289.65,-64"/>
<polygon fill="black" stroke="black" points="1289.89,-67.5 1299.89,-64 1289.89,-60.5 1289.89,-67.5"/>
</g>
</g>
</svg>
