<?xml version="1.0" encoding="UTF-8" standalone="no"?>
<!DOCTYPE svg PUBLIC "-//W3C//DTD SVG 1.1//EN"
 "http://www.w3.org/Graphics/SVG/1.1/DTD/svg11.dtd">
<!-- Generated by graphviz version 11.0.0 (20240428.1522)
 -->
<!-- Pages: 1 -->
<svg width="3981pt" height="152pt"
 viewBox="0.00 0.00 3981.25 152.00" xmlns="http://www.w3.org/2000/svg" xmlns:xlink="http://www.w3.org/1999/xlink">
<g id="graph0" class="graph" transform="scale(1 1) rotate(0) translate(4 148)">
<polygon fill="white" stroke="none" points="-4,4 -4,-148 3977.25,-148 3977.25,4 -4,4"/>
<!-- 2675082257392 -->
<g id="node1" class="node">
<title>2675082257392</title>
<ellipse fill="green" stroke="black" cx="18" cy="-72" rx="18" ry="18"/>
</g>
<!-- 2675082036624 -->
<g id="node2" class="node">
<title>2675082036624</title>
<polygon fill="none" stroke="black" points="168.25,-90 72,-90 72,-54 168.25,-54 168.25,-90"/>
<text text-anchor="middle" x="120.12" y="-66.97" font-family="Times New Roman,serif" font-size="12.00">Send notification</text>
</g>
<!-- 2675082257392&#45;&gt;2675082036624 -->
<g id="edge1" class="edge">
<title>2675082257392&#45;&gt;2675082036624</title>
<path fill="none" stroke="black" d="M36.44,-72C43.3,-72 51.6,-72 60.26,-72"/>
<polygon fill="black" stroke="black" points="60.26,-75.5 70.26,-72 60.26,-68.5 60.26,-75.5"/>
</g>
<!-- 2675064140864 -->
<g id="node3" class="node">
<title>2675064140864</title>
<polygon fill="none" stroke="black" points="351.5,-90 204.25,-90 204.25,-54 351.5,-54 351.5,-90"/>
<text text-anchor="middle" x="277.88" y="-66.97" font-family="Times New Roman,serif" font-size="12.00">Prepare financial statements</text>
</g>
<!-- 2675082036624&#45;&gt;2675064140864 -->
<g id="edge2" class="edge">
<title>2675082036624&#45;&gt;2675064140864</title>
<path fill="none" stroke="black" d="M168.7,-72C176.24,-72 184.23,-72 192.32,-72"/>
<polygon fill="black" stroke="black" points="192.26,-75.5 202.26,-72 192.26,-68.5 192.26,-75.5"/>
</g>
<!-- 2675064135104 -->
<g id="node4" class="node">
<title>2675064135104</title>
<polygon fill="none" stroke="black" points="538.5,-90 387.5,-90 387.5,-54 538.5,-54 538.5,-90"/>
<text text-anchor="middle" x="463" y="-66.97" font-family="Times New Roman,serif" font-size="12.00">Gather necessary documents</text>
</g>
<!-- 2675064140864&#45;&gt;2675064135104 -->
<g id="edge3" class="edge">
<title>2675064140864&#45;&gt;2675064135104</title>
<path fill="none" stroke="black" d="M351.78,-72C359.71,-72 367.84,-72 375.91,-72"/>
<polygon fill="black" stroke="black" points="375.74,-75.5 385.74,-72 375.74,-68.5 375.74,-75.5"/>
</g>
<!-- 2675064136784 -->
<g id="node5" class="node">
<title>2675064136784</title>
<polygon fill="none" stroke="black" points="711.25,-90 574.5,-90 574.5,-54 711.25,-54 711.25,-90"/>
<text text-anchor="middle" x="642.88" y="-66.97" font-family="Times New Roman,serif" font-size="12.00">Check regulatory updates</text>
</g>
<!-- 2675064135104&#45;&gt;2675064136784 -->
<g id="edge4" class="edge">
<title>2675064135104&#45;&gt;2675064136784</title>
<path fill="none" stroke="black" d="M538.92,-72C546.77,-72 554.76,-72 562.65,-72"/>
<polygon fill="black" stroke="black" points="562.6,-75.5 572.6,-72 562.6,-68.5 562.6,-75.5"/>
</g>
<!-- 2675064134432 -->
<g id="node6" class="node">
<title>2675064134432</title>
<polygon fill="none" stroke="black" points="851,-90 747.25,-90 747.25,-54 851,-54 851,-90"/>
<text text-anchor="middle" x="799.12" y="-66.97" font-family="Times New Roman,serif" font-size="12.00">Submit documents</text>
</g>
<!-- 2675064136784&#45;&gt;2675064134432 -->
<g id="edge5" class="edge">
<title>2675064136784&#45;&gt;2675064134432</title>
<path fill="none" stroke="black" d="M711.53,-72C719.47,-72 727.55,-72 735.42,-72"/>
<polygon fill="black" stroke="black" points="735.24,-75.5 745.24,-72 735.24,-68.5 735.24,-75.5"/>
</g>
<!-- 2675082039264 -->
<g id="node7" class="node">
<title>2675082039264</title>
<polygon fill="none" stroke="black" points="995.25,-90 887,-90 887,-54 995.25,-54 995.25,-90"/>
<text text-anchor="middle" x="941.12" y="-66.97" font-family="Times New Roman,serif" font-size="12.00">Review submission</text>
</g>
<!-- 2675064134432&#45;&gt;2675082039264 -->
<g id="edge6" class="edge">
<title>2675064134432&#45;&gt;2675082039264</title>
<path fill="none" stroke="black" d="M851.46,-72C859.31,-72 867.5,-72 875.59,-72"/>
<polygon fill="black" stroke="black" points="875.4,-75.5 885.4,-72 875.4,-68.5 875.4,-75.5"/>
</g>
<!-- 2675081861008 -->
<g id="node8" class="node">
<title>2675081861008</title>
<polygon fill="none" stroke="black" points="1227.25,-90 1031.25,-90 1031.25,-54 1227.25,-54 1227.25,-90"/>
<text text-anchor="middle" x="1129.25" y="-66.97" font-family="Times New Roman,serif" font-size="12.00">Request clarifications of discrepancies</text>
</g>
<!-- 2675082039264&#45;&gt;2675081861008 -->
<g id="edge7" class="edge">
<title>2675082039264&#45;&gt;2675081861008</title>
<path fill="none" stroke="black" d="M995.46,-72C1003.14,-72 1011.27,-72 1019.56,-72"/>
<polygon fill="black" stroke="black" points="1019.44,-75.5 1029.44,-72 1019.44,-68.5 1019.44,-75.5"/>
</g>
<!-- 2675064136496 -->
<g id="node9" class="node">
<title>2675064136496</title>
<polygon fill="none" stroke="black" points="1380.5,-90 1263.25,-90 1263.25,-54 1380.5,-54 1380.5,-90"/>
<text text-anchor="middle" x="1321.88" y="-66.97" font-family="Times New Roman,serif" font-size="12.00">Receive clarifications</text>
</g>
<!-- 2675081861008&#45;&gt;2675064136496 -->
<g id="edge8" class="edge">
<title>2675081861008&#45;&gt;2675064136496</title>
<path fill="none" stroke="black" d="M1227.52,-72C1235.66,-72 1243.78,-72 1251.64,-72"/>
<polygon fill="black" stroke="black" points="1251.44,-75.5 1261.44,-72 1251.44,-68.5 1251.44,-75.5"/>
</g>
<!-- 2675064128864 -->
<g id="node10" class="node">
<title>2675064128864</title>
<polygon fill="none" stroke="black" points="1443.5,-90 1416.5,-72 1443.5,-54 1470.5,-72 1443.5,-90"/>
<text text-anchor="middle" x="1443.5" y="-66.97" font-family="Times New Roman,serif" font-size="12.00">+</text>
</g>
<!-- 2675064136496&#45;&gt;2675064128864 -->
<g id="edge9" class="edge">
<title>2675064136496&#45;&gt;2675064128864</title>
<path fill="none" stroke="black" d="M1380.94,-72C1388.9,-72 1396.92,-72 1404.4,-72"/>
<polygon fill="black" stroke="black" points="1404.14,-75.5 1414.14,-72 1404.14,-68.5 1404.14,-75.5"/>
</g>
<!-- 2675082043536 -->
<g id="node11" class="node">
<title>2675082043536</title>
<polygon fill="none" stroke="black" points="1638.75,-144 1513.25,-144 1513.25,-108 1638.75,-108 1638.75,-144"/>
<text text-anchor="middle" x="1576" y="-120.97" font-family="Times New Roman,serif" font-size="12.00">Evaluate financial risks</text>
</g>
<!-- 2675064128864&#45;&gt;2675082043536 -->
<g id="edge12" class="edge">
<title>2675064128864&#45;&gt;2675082043536</title>
<path fill="none" stroke="black" d="M1460.49,-79.15C1472.97,-84.68 1490.77,-92.48 1506.5,-99 1510.03,-100.46 1513.67,-101.95 1517.35,-103.45"/>
<polygon fill="black" stroke="black" points="1515.76,-106.58 1526.34,-107.06 1518.37,-100.08 1515.76,-106.58"/>
</g>
<!-- 2675064135680 -->
<g id="node12" class="node">
<title>2675064135680</title>
<polygon fill="none" stroke="black" points="1645.5,-90 1506.5,-90 1506.5,-54 1645.5,-54 1645.5,-90"/>
<text text-anchor="middle" x="1576" y="-66.97" font-family="Times New Roman,serif" font-size="12.00">Evaluate compliance risks</text>
</g>
<!-- 2675064128864&#45;&gt;2675064135680 -->
<g id="edge10" class="edge">
<title>2675064128864&#45;&gt;2675064135680</title>
<path fill="none" stroke="black" d="M1471.22,-72C1478.38,-72 1486.5,-72 1494.97,-72"/>
<polygon fill="black" stroke="black" points="1494.74,-75.5 1504.74,-72 1494.74,-68.5 1494.74,-75.5"/>
</g>
<!-- 2675064141248 -->
<g id="node13" class="node">
<title>2675064141248</title>
<polygon fill="none" stroke="black" points="1644.75,-36 1507.25,-36 1507.25,0 1644.75,0 1644.75,-36"/>
<text text-anchor="middle" x="1576" y="-12.97" font-family="Times New Roman,serif" font-size="12.00">Evaluate operational risks</text>
</g>
<!-- 2675064128864&#45;&gt;2675064141248 -->
<g id="edge11" class="edge">
<title>2675064128864&#45;&gt;2675064141248</title>
<path fill="none" stroke="black" d="M1460.49,-64.85C1472.97,-59.32 1490.77,-51.52 1506.5,-45 1510.03,-43.54 1513.67,-42.05 1517.35,-40.55"/>
<polygon fill="black" stroke="black" points="1518.37,-43.92 1526.34,-36.94 1515.76,-37.42 1518.37,-43.92"/>
</g>
<!-- 2675064139328 -->
<g id="node14" class="node">
<title>2675064139328</title>
<polygon fill="none" stroke="black" points="1708.5,-90 1681.5,-72 1708.5,-54 1735.5,-72 1708.5,-90"/>
<text text-anchor="middle" x="1708.5" y="-66.97" font-family="Times New Roman,serif" font-size="12.00">+</text>
</g>
<!-- 2675082043536&#45;&gt;2675064139328 -->
<g id="edge13" class="edge">
<title>2675082043536&#45;&gt;2675064139328</title>
<path fill="none" stroke="black" d="M1624.25,-107.63C1631.39,-104.78 1638.65,-101.84 1645.5,-99 1657.29,-94.11 1670.26,-88.5 1681.27,-83.67"/>
<polygon fill="black" stroke="black" points="1682.39,-87 1690.12,-79.76 1679.56,-80.59 1682.39,-87"/>
</g>
<!-- 2675064135680&#45;&gt;2675064139328 -->
<g id="edge14" class="edge">
<title>2675064135680&#45;&gt;2675064139328</title>
<path fill="none" stroke="black" d="M1645.69,-72C1653.73,-72 1661.71,-72 1669.12,-72"/>
<polygon fill="black" stroke="black" points="1669.09,-75.5 1679.09,-72 1669.09,-68.5 1669.09,-75.5"/>
</g>
<!-- 2675064141248&#45;&gt;2675064139328 -->
<g id="edge15" class="edge">
<title>2675064141248&#45;&gt;2675064139328</title>
<path fill="none" stroke="black" d="M1624.25,-36.37C1631.39,-39.22 1638.65,-42.16 1645.5,-45 1657.29,-49.89 1670.26,-55.5 1681.27,-60.33"/>
<polygon fill="black" stroke="black" points="1679.56,-63.41 1690.12,-64.24 1682.39,-57 1679.56,-63.41"/>
</g>
<!-- 2675064137264 -->
<g id="node15" class="node">
<title>2675064137264</title>
<polygon fill="none" stroke="black" points="1926.25,-90 1771.5,-90 1771.5,-54 1926.25,-54 1926.25,-90"/>
<text text-anchor="middle" x="1848.88" y="-66.97" font-family="Times New Roman,serif" font-size="12.00">Launch detailed investigation</text>
</g>
<!-- 2675064139328&#45;&gt;2675064137264 -->
<g id="edge16" class="edge">
<title>2675064139328&#45;&gt;2675064137264</title>
<path fill="none" stroke="black" d="M1736.18,-72C1743.28,-72 1751.35,-72 1759.84,-72"/>
<polygon fill="black" stroke="black" points="1759.66,-75.5 1769.66,-72 1759.66,-68.5 1759.66,-75.5"/>
</g>
<!-- 2675064138608 -->
<g id="node16" class="node">
<title>2675064138608</title>
<polygon fill="none" stroke="black" points="1989.25,-90 1962.25,-72 1989.25,-54 2016.25,-72 1989.25,-90"/>
<text text-anchor="middle" x="1989.25" y="-66.97" font-family="Times New Roman,serif" font-size="12.00">+</text>
</g>
<!-- 2675064137264&#45;&gt;2675064138608 -->
<g id="edge17" class="edge">
<title>2675064137264&#45;&gt;2675064138608</title>
<path fill="none" stroke="black" d="M1926.35,-72C1934.53,-72 1942.58,-72 1950.03,-72"/>
<polygon fill="black" stroke="black" points="1950.02,-75.5 1960.02,-72 1950.02,-68.5 1950.02,-75.5"/>
</g>
<!-- 2675064131984 -->
<g id="node17" class="node">
<title>2675064131984</title>
<polygon fill="none" stroke="black" points="2162,-144 2062,-144 2062,-108 2162,-108 2162,-144"/>
<text text-anchor="middle" x="2112" y="-120.97" font-family="Times New Roman,serif" font-size="12.00">Perform site visits</text>
</g>
<!-- 2675064138608&#45;&gt;2675064131984 -->
<g id="edge18" class="edge">
<title>2675064138608&#45;&gt;2675064131984</title>
<path fill="none" stroke="black" d="M2006.04,-79.06C2019.63,-85.14 2040.03,-94.26 2059.25,-102.86"/>
<polygon fill="black" stroke="black" points="2057.81,-106.05 2068.37,-106.94 2060.67,-99.66 2057.81,-106.05"/>
</g>
<!-- 2675081868496 -->
<g id="node18" class="node">
<title>2675081868496</title>
<polygon fill="none" stroke="black" points="2171.75,-90 2052.25,-90 2052.25,-54 2171.75,-54 2171.75,-90"/>
<text text-anchor="middle" x="2112" y="-66.97" font-family="Times New Roman,serif" font-size="12.00">Conduct data analysis</text>
</g>
<!-- 2675064138608&#45;&gt;2675081868496 -->
<g id="edge19" class="edge">
<title>2675064138608&#45;&gt;2675081868496</title>
<path fill="none" stroke="black" d="M2017.05,-72C2024.21,-72 2032.3,-72 2040.66,-72"/>
<polygon fill="black" stroke="black" points="2040.63,-75.5 2050.63,-72 2040.63,-68.5 2040.63,-75.5"/>
</g>
<!-- 2675081860336 -->
<g id="node19" class="node">
<title>2675081860336</title>
<polygon fill="none" stroke="black" points="2166.12,-36 2057.88,-36 2057.88,0 2166.12,0 2166.12,-36"/>
<text text-anchor="middle" x="2112" y="-12.97" font-family="Times New Roman,serif" font-size="12.00">Conduct interviews</text>
</g>
<!-- 2675064138608&#45;&gt;2675081860336 -->
<g id="edge20" class="edge">
<title>2675064138608&#45;&gt;2675081860336</title>
<path fill="none" stroke="black" d="M2006.04,-64.94C2019.63,-58.86 2040.03,-49.74 2059.25,-41.14"/>
<polygon fill="black" stroke="black" points="2060.67,-44.34 2068.37,-37.06 2057.81,-37.95 2060.67,-44.34"/>
</g>
<!-- 2675064129632 -->
<g id="node20" class="node">
<title>2675064129632</title>
<polygon fill="none" stroke="black" points="2234.75,-90 2207.75,-72 2234.75,-54 2261.75,-72 2234.75,-90"/>
<text text-anchor="middle" x="2234.75" y="-66.97" font-family="Times New Roman,serif" font-size="12.00">+</text>
</g>
<!-- 2675064131984&#45;&gt;2675064129632 -->
<g id="edge21" class="edge">
<title>2675064131984&#45;&gt;2675064129632</title>
<path fill="none" stroke="black" d="M2154.22,-107.57C2171.81,-99.7 2191.82,-90.75 2207.37,-83.8"/>
<polygon fill="black" stroke="black" points="2208.73,-87.02 2216.43,-79.75 2205.87,-80.63 2208.73,-87.02"/>
</g>
<!-- 2675081868496&#45;&gt;2675064129632 -->
<g id="edge22" class="edge">
<title>2675081868496&#45;&gt;2675064129632</title>
<path fill="none" stroke="black" d="M2171.96,-72C2180.05,-72 2188.18,-72 2195.76,-72"/>
<polygon fill="black" stroke="black" points="2195.62,-75.5 2205.62,-72 2195.62,-68.5 2195.62,-75.5"/>
</g>
<!-- 2675081860336&#45;&gt;2675064129632 -->
<g id="edge23" class="edge">
<title>2675081860336&#45;&gt;2675064129632</title>
<path fill="none" stroke="black" d="M2154.22,-36.43C2171.81,-44.3 2191.82,-53.25 2207.37,-60.2"/>
<polygon fill="black" stroke="black" points="2205.87,-63.37 2216.43,-64.25 2208.73,-56.98 2205.87,-63.37"/>
</g>
<!-- 2675064141488 -->
<g id="node21" class="node">
<title>2675064141488</title>
<polygon fill="none" stroke="black" points="2484.75,-90 2297.75,-90 2297.75,-54 2484.75,-54 2484.75,-90"/>
<text text-anchor="middle" x="2391.25" y="-66.97" font-family="Times New Roman,serif" font-size="12.00">Complete risk assessment/mitigation</text>
</g>
<!-- 2675064129632&#45;&gt;2675064141488 -->
<g id="edge24" class="edge">
<title>2675064129632&#45;&gt;2675064141488</title>
<path fill="none" stroke="black" d="M2262.31,-72C2269.33,-72 2277.35,-72 2285.87,-72"/>
<polygon fill="black" stroke="black" points="2285.81,-75.5 2295.81,-72 2285.81,-68.5 2285.81,-75.5"/>
</g>
<!-- 2675064137888 -->
<g id="node22" class="node">
<title>2675064137888</title>
<polygon fill="none" stroke="black" points="2634.25,-90 2520.75,-90 2520.75,-54 2634.25,-54 2634.25,-90"/>
<text text-anchor="middle" x="2577.5" y="-66.97" font-family="Times New Roman,serif" font-size="12.00">Compile audit report</text>
</g>
<!-- 2675064141488&#45;&gt;2675064137888 -->
<g id="edge25" class="edge">
<title>2675064141488&#45;&gt;2675064137888</title>
<path fill="none" stroke="black" d="M2485.18,-72C2493.14,-72 2501.09,-72 2508.8,-72"/>
<polygon fill="black" stroke="black" points="2508.76,-75.5 2518.76,-72 2508.76,-68.5 2508.76,-75.5"/>
</g>
<!-- 2675082251440 -->
<g id="node23" class="node">
<title>2675082251440</title>
<polygon fill="none" stroke="black" points="2697.25,-90 2670.25,-72 2697.25,-54 2724.25,-72 2697.25,-90"/>
<text text-anchor="middle" x="2697.25" y="-66.97" font-family="Times New Roman,serif" font-size="12.00">X</text>
</g>
<!-- 2675064137888&#45;&gt;2675082251440 -->
<g id="edge26" class="edge">
<title>2675064137888&#45;&gt;2675082251440</title>
<path fill="none" stroke="black" d="M2634.62,-72C2642.62,-72 2650.7,-72 2658.25,-72"/>
<polygon fill="black" stroke="black" points="2658.08,-75.5 2668.08,-72 2658.08,-68.5 2658.08,-75.5"/>
</g>
<!-- 2675064128432 -->
<g id="node24" class="node">
<title>2675064128432</title>
<polygon fill="none" stroke="black" points="2924,-113 2760.25,-113 2760.25,-77 2924,-77 2924,-113"/>
<text text-anchor="middle" x="2842.12" y="-89.97" font-family="Times New Roman,serif" font-size="12.00">Review report by audit director</text>
</g>
<!-- 2675082251440&#45;&gt;2675064128432 -->
<g id="edge27" class="edge">
<title>2675082251440&#45;&gt;2675064128432</title>
<path fill="none" stroke="black" d="M2719.64,-75.44C2727.84,-76.76 2737.82,-78.37 2748.49,-80.09"/>
<polygon fill="black" stroke="black" points="2747.89,-83.54 2758.31,-81.67 2749,-76.62 2747.89,-83.54"/>
</g>
<!-- 2675064136112 -->
<g id="node25" class="node">
<title>2675064136112</title>
<polygon fill="none" stroke="black" points="3087.75,-113 2960,-113 2960,-77 3087.75,-77 3087.75,-113"/>
<text text-anchor="middle" x="3023.88" y="-89.97" font-family="Times New Roman,serif" font-size="12.00">Send report for revision</text>
</g>
<!-- 2675064128432&#45;&gt;2675064136112 -->
<g id="edge28" class="edge">
<title>2675064128432&#45;&gt;2675064136112</title>
<path fill="none" stroke="black" d="M2924.32,-95C2932.26,-95 2940.29,-95 2948.16,-95"/>
<polygon fill="black" stroke="black" points="2948.04,-98.5 2958.04,-95 2948.04,-91.5 2948.04,-98.5"/>
</g>
<!-- 2675064139520 -->
<g id="node26" class="node">
<title>2675064139520</title>
<polygon fill="none" stroke="black" points="3268.75,-113 3123.75,-113 3123.75,-77 3268.75,-77 3268.75,-113"/>
<text text-anchor="middle" x="3196.25" y="-89.97" font-family="Times New Roman,serif" font-size="12.00">Update and resubmit report</text>
</g>
<!-- 2675064136112&#45;&gt;2675064139520 -->
<g id="edge29" class="edge">
<title>2675064136112&#45;&gt;2675064139520</title>
<path fill="none" stroke="black" d="M3087.83,-95C3095.69,-95 3103.82,-95 3111.93,-95"/>
<polygon fill="black" stroke="black" points="3111.84,-98.5 3121.84,-95 3111.84,-91.5 3111.84,-98.5"/>
</g>
<!-- 2675082251008 -->
<g id="node27" class="node">
<title>2675082251008</title>
<polygon fill="none" stroke="black" points="3331.75,-90 3304.75,-72 3331.75,-54 3358.75,-72 3331.75,-90"/>
<text text-anchor="middle" x="3331.75" y="-66.97" font-family="Times New Roman,serif" font-size="12.00">X</text>
</g>
<!-- 2675064139520&#45;&gt;2675082251008 -->
<g id="edge30" class="edge">
<title>2675064139520&#45;&gt;2675082251008</title>
<path fill="none" stroke="black" d="M3269.08,-82.62C3279.38,-80.85 3289.52,-79.1 3298.5,-77.56"/>
<polygon fill="black" stroke="black" points="3298.82,-81.05 3308.08,-75.91 3297.63,-74.15 3298.82,-81.05"/>
</g>
<!-- 2675082251008&#45;&gt;2675082251440 -->
<g id="edge31" class="edge">
<title>2675082251008&#45;&gt;2675082251440</title>
<path fill="none" stroke="black" d="M3306.92,-70.1C3295.4,-69.28 3281.36,-68.41 3268.75,-68 3042.87,-60.72 2986.13,-60.72 2760.25,-68 2751.58,-68.28 2742.23,-68.78 2733.5,-69.33"/>
<polygon fill="black" stroke="black" points="2733.33,-65.83 2723.59,-70 2733.8,-72.82 2733.33,-65.83"/>
</g>
<!-- 2675064134144 -->
<g id="node28" class="node">
<title>2675064134144</title>
<polygon fill="none" stroke="black" points="3483.5,-90 3394.75,-90 3394.75,-54 3483.5,-54 3483.5,-90"/>
<text text-anchor="middle" x="3439.12" y="-66.97" font-family="Times New Roman,serif" font-size="12.00">Approve report</text>
</g>
<!-- 2675082251008&#45;&gt;2675064134144 -->
<g id="edge32" class="edge">
<title>2675082251008&#45;&gt;2675064134144</title>
<path fill="none" stroke="black" d="M3359.61,-72C3366.82,-72 3374.89,-72 3383.04,-72"/>
<polygon fill="black" stroke="black" points="3383.01,-75.5 3393.01,-72 3383.01,-68.5 3383.01,-75.5"/>
</g>
<!-- 2675081871088 -->
<g id="node29" class="node">
<title>2675081871088</title>
<polygon fill="none" stroke="black" points="3636.75,-90 3519.5,-90 3519.5,-54 3636.75,-54 3636.75,-90"/>
<text text-anchor="middle" x="3578.12" y="-66.97" font-family="Times New Roman,serif" font-size="12.00">Distribute final report</text>
</g>
<!-- 2675064134144&#45;&gt;2675081871088 -->
<g id="edge33" class="edge">
<title>2675064134144&#45;&gt;2675081871088</title>
<path fill="none" stroke="black" d="M3483.85,-72C3491.51,-72 3499.66,-72 3507.81,-72"/>
<polygon fill="black" stroke="black" points="3507.8,-75.5 3517.8,-72 3507.8,-68.5 3507.8,-75.5"/>
</g>
<!-- 2675082251680 -->
<g id="node30" class="node">
<title>2675082251680</title>
<polygon fill="none" stroke="black" points="3757.75,-90 3672.75,-90 3672.75,-54 3757.75,-54 3757.75,-90"/>
<text text-anchor="middle" x="3715.25" y="-66.97" font-family="Times New Roman,serif" font-size="12.00">Archive report</text>
</g>
<!-- 2675081871088&#45;&gt;2675082251680 -->
<g id="edge34" class="edge">
<title>2675081871088&#45;&gt;2675082251680</title>
<path fill="none" stroke="black" d="M3637.21,-72C3645.19,-72 3653.35,-72 3661.23,-72"/>
<polygon fill="black" stroke="black" points="3661.01,-75.5 3671.01,-72 3661.01,-68.5 3661.01,-75.5"/>
</g>
<!-- 2675082042432 -->
<g id="node31" class="node">
<title>2675082042432</title>
<polygon fill="none" stroke="black" points="3901.25,-90 3793.75,-90 3793.75,-54 3901.25,-54 3901.25,-90"/>
<text text-anchor="middle" x="3847.5" y="-66.97" font-family="Times New Roman,serif" font-size="12.00">Close audit process</text>
</g>
<!-- 2675082251680&#45;&gt;2675082042432 -->
<g id="edge35" class="edge">
<title>2675082251680&#45;&gt;2675082042432</title>
<path fill="none" stroke="black" d="M3758.18,-72C3765.86,-72 3774.04,-72 3782.2,-72"/>
<polygon fill="black" stroke="black" points="3782.16,-75.5 3792.16,-72 3782.16,-68.5 3782.16,-75.5"/>
</g>
<!-- 2675082257488 -->
<g id="node32" class="node">
<title>2675082257488</title>
<ellipse fill="orange" stroke="black" cx="3955.25" cy="-72" rx="18" ry="18"/>
</g>
<!-- 2675082042432&#45;&gt;2675082257488 -->
<g id="edge36" class="edge">
<title>2675082042432&#45;&gt;2675082257488</title>
<path fill="none" stroke="black" d="M3901.68,-72C3909.96,-72 3918.22,-72 3925.66,-72"/>
<polygon fill="black" stroke="black" points="3925.4,-75.5 3935.4,-72 3925.4,-68.5 3925.4,-75.5"/>
</g>
</g>
</svg>
