<?xml version="1.0" encoding="UTF-8" standalone="no"?>
<!DOCTYPE svg PUBLIC "-//W3C//DTD SVG 1.1//EN"
 "http://www.w3.org/Graphics/SVG/1.1/DTD/svg11.dtd">
<!-- Generated by graphviz version 11.0.0 (20240428.1522)
 -->
<!-- Pages: 1 -->
<svg width="3706pt" height="198pt"
 viewBox="0.00 0.00 3706.00 198.00" xmlns="http://www.w3.org/2000/svg" xmlns:xlink="http://www.w3.org/1999/xlink">
<g id="graph0" class="graph" transform="scale(1 1) rotate(0) translate(4 194)">
<polygon fill="white" stroke="none" points="-4,4 -4,-194 3702,-194 3702,4 -4,4"/>
<!-- 2675082043152 -->
<g id="node1" class="node">
<title>2675082043152</title>
<ellipse fill="green" stroke="black" cx="18" cy="-125" rx="18" ry="18"/>
</g>
<!-- 2675064136544 -->
<g id="node2" class="node">
<title>2675064136544</title>
<polygon fill="none" stroke="black" points="99,-143 72,-125 99,-107 126,-125 99,-143"/>
<text text-anchor="middle" x="99" y="-119.97" font-family="Times New Roman,serif" font-size="12.00">+</text>
</g>
<!-- 2675082043152&#45;&gt;2675064136544 -->
<g id="edge1" class="edge">
<title>2675082043152&#45;&gt;2675064136544</title>
<path fill="none" stroke="black" d="M36.14,-125C43.11,-125 51.47,-125 59.75,-125"/>
<polygon fill="black" stroke="black" points="59.75,-128.5 69.75,-125 59.75,-121.5 59.75,-128.5"/>
</g>
<!-- 2675064130304 -->
<g id="node3" class="node">
<title>2675064130304</title>
<polygon fill="none" stroke="black" points="325.75,-181 162,-181 162,-145 325.75,-145 325.75,-181"/>
<text text-anchor="middle" x="243.88" y="-157.97" font-family="Times New Roman,serif" font-size="12.00">Review report by audit director</text>
</g>
<!-- 2675064136544&#45;&gt;2675064130304 -->
<g id="edge3" class="edge">
<title>2675064136544&#45;&gt;2675064130304</title>
<path fill="none" stroke="black" d="M118.97,-130.05C130.55,-133.13 146.24,-137.3 162.55,-141.64"/>
<polygon fill="black" stroke="black" points="161.29,-144.92 171.86,-144.11 163.09,-138.16 161.29,-144.92"/>
</g>
<!-- 2675064135248 -->
<g id="node4" class="node">
<title>2675064135248</title>
<polygon fill="none" stroke="black" points="292,-116 195.75,-116 195.75,-80 292,-80 292,-116"/>
<text text-anchor="middle" x="243.88" y="-92.97" font-family="Times New Roman,serif" font-size="12.00">Send notification</text>
</g>
<!-- 2675064136544&#45;&gt;2675064135248 -->
<g id="edge2" class="edge">
<title>2675064136544&#45;&gt;2675064135248</title>
<path fill="none" stroke="black" d="M120.78,-121.07C137.46,-117.92 161.74,-113.33 184.26,-109.08"/>
<polygon fill="black" stroke="black" points="184.82,-112.53 194,-107.24 183.52,-105.65 184.82,-112.53"/>
</g>
<!-- 2675082035328 -->
<g id="node6" class="node">
<title>2675082035328</title>
<polygon fill="none" stroke="black" points="479.75,-187 391,-187 391,-151 479.75,-151 479.75,-187"/>
<text text-anchor="middle" x="435.38" y="-163.97" font-family="Times New Roman,serif" font-size="12.00">Approve report</text>
</g>
<!-- 2675064130304&#45;&gt;2675082035328 -->
<g id="edge4" class="edge">
<title>2675064130304&#45;&gt;2675082035328</title>
<path fill="none" stroke="black" d="M326.06,-165.57C344.1,-166.14 362.81,-166.73 379.5,-167.26"/>
<polygon fill="black" stroke="black" points="379.08,-170.75 389.18,-167.57 379.3,-163.75 379.08,-170.75"/>
</g>
<!-- 2675064128576 -->
<g id="node5" class="node">
<title>2675064128576</title>
<polygon fill="none" stroke="black" points="509,-93 361.75,-93 361.75,-57 509,-57 509,-93"/>
<text text-anchor="middle" x="435.38" y="-69.97" font-family="Times New Roman,serif" font-size="12.00">Prepare financial statements</text>
</g>
<!-- 2675064135248&#45;&gt;2675064128576 -->
<g id="edge5" class="edge">
<title>2675064135248&#45;&gt;2675064128576</title>
<path fill="none" stroke="black" d="M292.21,-92.26C309.79,-90.12 330.31,-87.63 350.2,-85.22"/>
<polygon fill="black" stroke="black" points="350.48,-88.71 359.99,-84.03 349.64,-81.76 350.48,-88.71"/>
</g>
<!-- 2675060687264 -->
<g id="node7" class="node">
<title>2675060687264</title>
<polygon fill="none" stroke="black" points="696,-92 545,-92 545,-56 696,-56 696,-92"/>
<text text-anchor="middle" x="620.5" y="-68.97" font-family="Times New Roman,serif" font-size="12.00">Gather necessary documents</text>
</g>
<!-- 2675064128576&#45;&gt;2675060687264 -->
<g id="edge6" class="edge">
<title>2675064128576&#45;&gt;2675060687264</title>
<path fill="none" stroke="black" d="M509.28,-74.6C517.21,-74.56 525.34,-74.51 533.41,-74.47"/>
<polygon fill="black" stroke="black" points="533.26,-77.97 543.24,-74.42 533.22,-70.97 533.26,-77.97"/>
</g>
<!-- 2675082036048 -->
<g id="node8" class="node">
<title>2675082036048</title>
<polygon fill="none" stroke="black" points="679.12,-187 561.88,-187 561.88,-151 679.12,-151 679.12,-187"/>
<text text-anchor="middle" x="620.5" y="-163.97" font-family="Times New Roman,serif" font-size="12.00">Distribute final report</text>
</g>
<!-- 2675082035328&#45;&gt;2675082036048 -->
<g id="edge7" class="edge">
<title>2675082035328&#45;&gt;2675082036048</title>
<path fill="none" stroke="black" d="M480.24,-169C501.15,-169 526.67,-169 550.13,-169"/>
<polygon fill="black" stroke="black" points="549.93,-172.5 559.93,-169 549.93,-165.5 549.93,-172.5"/>
</g>
<!-- 2675063835296 -->
<g id="node9" class="node">
<title>2675063835296</title>
<polygon fill="none" stroke="black" points="868.75,-91 732,-91 732,-55 868.75,-55 868.75,-91"/>
<text text-anchor="middle" x="800.38" y="-67.97" font-family="Times New Roman,serif" font-size="12.00">Check regulatory updates</text>
</g>
<!-- 2675060687264&#45;&gt;2675063835296 -->
<g id="edge8" class="edge">
<title>2675060687264&#45;&gt;2675063835296</title>
<path fill="none" stroke="black" d="M696.42,-73.58C704.27,-73.53 712.26,-73.49 720.15,-73.45"/>
<polygon fill="black" stroke="black" points="720.12,-76.95 730.1,-73.39 720.08,-69.95 720.12,-76.95"/>
</g>
<!-- 2675064133232 -->
<g id="node10" class="node">
<title>2675064133232</title>
<polygon fill="none" stroke="black" points="842.88,-187 757.88,-187 757.88,-151 842.88,-151 842.88,-187"/>
<text text-anchor="middle" x="800.38" y="-163.97" font-family="Times New Roman,serif" font-size="12.00">Archive report</text>
</g>
<!-- 2675082036048&#45;&gt;2675064133232 -->
<g id="edge9" class="edge">
<title>2675082036048&#45;&gt;2675064133232</title>
<path fill="none" stroke="black" d="M679.25,-169C700.73,-169 725,-169 746.07,-169"/>
<polygon fill="black" stroke="black" points="745.89,-172.5 755.89,-169 745.89,-165.5 745.89,-172.5"/>
</g>
<!-- 2675064143024 -->
<g id="node12" class="node">
<title>2675064143024</title>
<polygon fill="none" stroke="black" points="1008.5,-91 904.75,-91 904.75,-55 1008.5,-55 1008.5,-91"/>
<text text-anchor="middle" x="956.62" y="-67.97" font-family="Times New Roman,serif" font-size="12.00">Submit documents</text>
</g>
<!-- 2675063835296&#45;&gt;2675064143024 -->
<g id="edge10" class="edge">
<title>2675063835296&#45;&gt;2675064143024</title>
<path fill="none" stroke="black" d="M869.03,-73C876.97,-73 885.05,-73 892.92,-73"/>
<polygon fill="black" stroke="black" points="892.74,-76.5 902.74,-73 892.74,-69.5 892.74,-76.5"/>
</g>
<!-- 2675064130832 -->
<g id="node11" class="node">
<title>2675064130832</title>
<polygon fill="none" stroke="black" points="1152.38,-190 1044.88,-190 1044.88,-154 1152.38,-154 1152.38,-190"/>
<text text-anchor="middle" x="1098.62" y="-166.97" font-family="Times New Roman,serif" font-size="12.00">Close audit process</text>
</g>
<!-- 2675064133232&#45;&gt;2675064130832 -->
<g id="edge11" class="edge">
<title>2675064133232&#45;&gt;2675064130832</title>
<path fill="none" stroke="black" d="M843.19,-169.42C892.69,-169.92 975.65,-170.76 1033.33,-171.35"/>
<polygon fill="black" stroke="black" points="1032.96,-174.85 1042.99,-171.45 1033.03,-167.85 1032.96,-174.85"/>
</g>
<!-- 2675063835248 -->
<g id="node13" class="node">
<title>2675063835248</title>
<polygon fill="none" stroke="black" points="3599,-166 3572,-148 3599,-130 3626,-148 3599,-166"/>
<text text-anchor="middle" x="3599" y="-142.97" font-family="Times New Roman,serif" font-size="12.00">+</text>
</g>
<!-- 2675064130832&#45;&gt;2675063835248 -->
<g id="edge12" class="edge">
<title>2675064130832&#45;&gt;2675063835248</title>
<path fill="none" stroke="black" d="M1152.63,-172C1225.87,-172 1362.15,-172 1478.38,-172 1478.38,-172 1478.38,-172 3264.75,-172 3374.37,-172 3503.75,-158.92 3563.98,-152.07"/>
<polygon fill="black" stroke="black" points="3564.38,-155.55 3573.91,-150.93 3563.57,-148.6 3564.38,-155.55"/>
</g>
<!-- 2675064127856 -->
<g id="node14" class="node">
<title>2675064127856</title>
<polygon fill="none" stroke="black" points="1152.75,-91 1044.5,-91 1044.5,-55 1152.75,-55 1152.75,-91"/>
<text text-anchor="middle" x="1098.62" y="-67.97" font-family="Times New Roman,serif" font-size="12.00">Review submission</text>
</g>
<!-- 2675064143024&#45;&gt;2675064127856 -->
<g id="edge13" class="edge">
<title>2675064143024&#45;&gt;2675064127856</title>
<path fill="none" stroke="black" d="M1008.96,-73C1016.81,-73 1025,-73 1033.09,-73"/>
<polygon fill="black" stroke="black" points="1032.9,-76.5 1042.9,-73 1032.9,-69.5 1032.9,-76.5"/>
</g>
<!-- 2675082043296 -->
<g id="node34" class="node">
<title>2675082043296</title>
<ellipse fill="orange" stroke="black" cx="3680" cy="-148" rx="18" ry="18"/>
</g>
<!-- 2675063835248&#45;&gt;2675082043296 -->
<g id="edge15" class="edge">
<title>2675063835248&#45;&gt;2675082043296</title>
<path fill="none" stroke="black" d="M3626.75,-148C3634.38,-148 3642.73,-148 3650.47,-148"/>
<polygon fill="black" stroke="black" points="3650.43,-151.5 3660.43,-148 3650.43,-144.5 3650.43,-151.5"/>
</g>
<!-- 2675063846192 -->
<g id="node15" class="node">
<title>2675063846192</title>
<polygon fill="none" stroke="black" points="1384.75,-90 1188.75,-90 1188.75,-54 1384.75,-54 1384.75,-90"/>
<text text-anchor="middle" x="1286.75" y="-66.97" font-family="Times New Roman,serif" font-size="12.00">Request clarifications of discrepancies</text>
</g>
<!-- 2675064127856&#45;&gt;2675063846192 -->
<g id="edge14" class="edge">
<title>2675064127856&#45;&gt;2675063846192</title>
<path fill="none" stroke="black" d="M1152.96,-72.71C1160.64,-72.67 1168.77,-72.63 1177.06,-72.58"/>
<polygon fill="black" stroke="black" points="1176.96,-76.08 1186.94,-72.53 1176.92,-69.08 1176.96,-76.08"/>
</g>
<!-- 2675063835728 -->
<g id="node16" class="node">
<title>2675063835728</title>
<polygon fill="none" stroke="black" points="1538,-90 1420.75,-90 1420.75,-54 1538,-54 1538,-90"/>
<text text-anchor="middle" x="1479.38" y="-66.97" font-family="Times New Roman,serif" font-size="12.00">Receive clarifications</text>
</g>
<!-- 2675063846192&#45;&gt;2675063835728 -->
<g id="edge16" class="edge">
<title>2675063846192&#45;&gt;2675063835728</title>
<path fill="none" stroke="black" d="M1385.02,-72C1393.16,-72 1401.28,-72 1409.14,-72"/>
<polygon fill="black" stroke="black" points="1408.94,-75.5 1418.94,-72 1408.94,-68.5 1408.94,-75.5"/>
</g>
<!-- 2675063833088 -->
<g id="node17" class="node">
<title>2675063833088</title>
<polygon fill="none" stroke="black" points="1601,-90 1574,-72 1601,-54 1628,-72 1601,-90"/>
<text text-anchor="middle" x="1601" y="-66.97" font-family="Times New Roman,serif" font-size="12.00">+</text>
</g>
<!-- 2675063835728&#45;&gt;2675063833088 -->
<g id="edge17" class="edge">
<title>2675063835728&#45;&gt;2675063833088</title>
<path fill="none" stroke="black" d="M1538.44,-72C1546.4,-72 1554.42,-72 1561.9,-72"/>
<polygon fill="black" stroke="black" points="1561.64,-75.5 1571.64,-72 1561.64,-68.5 1561.64,-75.5"/>
</g>
<!-- 2675063848784 -->
<g id="node18" class="node">
<title>2675063848784</title>
<polygon fill="none" stroke="black" points="1796.25,-144 1670.75,-144 1670.75,-108 1796.25,-108 1796.25,-144"/>
<text text-anchor="middle" x="1733.5" y="-120.97" font-family="Times New Roman,serif" font-size="12.00">Evaluate financial risks</text>
</g>
<!-- 2675063833088&#45;&gt;2675063848784 -->
<g id="edge19" class="edge">
<title>2675063833088&#45;&gt;2675063848784</title>
<path fill="none" stroke="black" d="M1617.99,-79.15C1630.47,-84.68 1648.27,-92.48 1664,-99 1667.53,-100.46 1671.17,-101.95 1674.85,-103.45"/>
<polygon fill="black" stroke="black" points="1673.26,-106.58 1683.84,-107.06 1675.87,-100.08 1673.26,-106.58"/>
</g>
<!-- 2675060696528 -->
<g id="node19" class="node">
<title>2675060696528</title>
<polygon fill="none" stroke="black" points="1802.25,-90 1664.75,-90 1664.75,-54 1802.25,-54 1802.25,-90"/>
<text text-anchor="middle" x="1733.5" y="-66.97" font-family="Times New Roman,serif" font-size="12.00">Evaluate operational risks</text>
</g>
<!-- 2675063833088&#45;&gt;2675060696528 -->
<g id="edge20" class="edge">
<title>2675063833088&#45;&gt;2675060696528</title>
<path fill="none" stroke="black" d="M1628.72,-72C1635.98,-72 1644.23,-72 1652.83,-72"/>
<polygon fill="black" stroke="black" points="1652.78,-75.5 1662.78,-72 1652.78,-68.5 1652.78,-75.5"/>
</g>
<!-- 2675064136064 -->
<g id="node20" class="node">
<title>2675064136064</title>
<polygon fill="none" stroke="black" points="1803,-36 1664,-36 1664,0 1803,0 1803,-36"/>
<text text-anchor="middle" x="1733.5" y="-12.97" font-family="Times New Roman,serif" font-size="12.00">Evaluate compliance risks</text>
</g>
<!-- 2675063833088&#45;&gt;2675064136064 -->
<g id="edge18" class="edge">
<title>2675063833088&#45;&gt;2675064136064</title>
<path fill="none" stroke="black" d="M1617.99,-64.85C1630.47,-59.32 1648.27,-51.52 1664,-45 1667.53,-43.54 1671.17,-42.05 1674.85,-40.55"/>
<polygon fill="black" stroke="black" points="1675.87,-43.92 1683.84,-36.94 1673.26,-37.42 1675.87,-43.92"/>
</g>
<!-- 2675063840528 -->
<g id="node21" class="node">
<title>2675063840528</title>
<polygon fill="none" stroke="black" points="1866,-90 1839,-72 1866,-54 1893,-72 1866,-90"/>
<text text-anchor="middle" x="1866" y="-66.97" font-family="Times New Roman,serif" font-size="12.00">+</text>
</g>
<!-- 2675063848784&#45;&gt;2675063840528 -->
<g id="edge21" class="edge">
<title>2675063848784&#45;&gt;2675063840528</title>
<path fill="none" stroke="black" d="M1781.75,-107.63C1788.89,-104.78 1796.15,-101.84 1803,-99 1814.79,-94.11 1827.76,-88.5 1838.77,-83.67"/>
<polygon fill="black" stroke="black" points="1839.89,-87 1847.62,-79.76 1837.06,-80.59 1839.89,-87"/>
</g>
<!-- 2675060696528&#45;&gt;2675063840528 -->
<g id="edge22" class="edge">
<title>2675060696528&#45;&gt;2675063840528</title>
<path fill="none" stroke="black" d="M1802.43,-72C1810.9,-72 1819.31,-72 1827.09,-72"/>
<polygon fill="black" stroke="black" points="1826.82,-75.5 1836.82,-72 1826.82,-68.5 1826.82,-75.5"/>
</g>
<!-- 2675064136064&#45;&gt;2675063840528 -->
<g id="edge23" class="edge">
<title>2675064136064&#45;&gt;2675063840528</title>
<path fill="none" stroke="black" d="M1781.75,-36.37C1788.89,-39.22 1796.15,-42.16 1803,-45 1814.79,-49.89 1827.76,-55.5 1838.77,-60.33"/>
<polygon fill="black" stroke="black" points="1837.06,-63.41 1847.62,-64.24 1839.89,-57 1837.06,-63.41"/>
</g>
<!-- 2675063838944 -->
<g id="node22" class="node">
<title>2675063838944</title>
<polygon fill="none" stroke="black" points="2083.75,-90 1929,-90 1929,-54 2083.75,-54 2083.75,-90"/>
<text text-anchor="middle" x="2006.38" y="-66.97" font-family="Times New Roman,serif" font-size="12.00">Launch detailed investigation</text>
</g>
<!-- 2675063840528&#45;&gt;2675063838944 -->
<g id="edge24" class="edge">
<title>2675063840528&#45;&gt;2675063838944</title>
<path fill="none" stroke="black" d="M1893.68,-72C1900.78,-72 1908.85,-72 1917.34,-72"/>
<polygon fill="black" stroke="black" points="1917.16,-75.5 1927.16,-72 1917.16,-68.5 1917.16,-75.5"/>
</g>
<!-- 2675063843456 -->
<g id="node23" class="node">
<title>2675063843456</title>
<polygon fill="none" stroke="black" points="2146.75,-90 2119.75,-72 2146.75,-54 2173.75,-72 2146.75,-90"/>
<text text-anchor="middle" x="2146.75" y="-66.97" font-family="Times New Roman,serif" font-size="12.00">+</text>
</g>
<!-- 2675063838944&#45;&gt;2675063843456 -->
<g id="edge25" class="edge">
<title>2675063838944&#45;&gt;2675063843456</title>
<path fill="none" stroke="black" d="M2083.85,-72C2092.03,-72 2100.08,-72 2107.53,-72"/>
<polygon fill="black" stroke="black" points="2107.52,-75.5 2117.52,-72 2107.52,-68.5 2107.52,-75.5"/>
</g>
<!-- 2675062686496 -->
<g id="node24" class="node">
<title>2675062686496</title>
<polygon fill="none" stroke="black" points="2329.25,-144 2209.75,-144 2209.75,-108 2329.25,-108 2329.25,-144"/>
<text text-anchor="middle" x="2269.5" y="-120.97" font-family="Times New Roman,serif" font-size="12.00">Conduct data analysis</text>
</g>
<!-- 2675063843456&#45;&gt;2675062686496 -->
<g id="edge28" class="edge">
<title>2675063843456&#45;&gt;2675062686496</title>
<path fill="none" stroke="black" d="M2163.54,-79.06C2177.13,-85.14 2197.53,-94.26 2216.75,-102.86"/>
<polygon fill="black" stroke="black" points="2215.31,-106.05 2225.87,-106.94 2218.17,-99.66 2215.31,-106.05"/>
</g>
<!-- 2675064131744 -->
<g id="node25" class="node">
<title>2675064131744</title>
<polygon fill="none" stroke="black" points="2319.5,-90 2219.5,-90 2219.5,-54 2319.5,-54 2319.5,-90"/>
<text text-anchor="middle" x="2269.5" y="-66.97" font-family="Times New Roman,serif" font-size="12.00">Perform site visits</text>
</g>
<!-- 2675063843456&#45;&gt;2675064131744 -->
<g id="edge26" class="edge">
<title>2675063843456&#45;&gt;2675064131744</title>
<path fill="none" stroke="black" d="M2174.55,-72C2184.55,-72 2196.36,-72 2208.17,-72"/>
<polygon fill="black" stroke="black" points="2207.91,-75.5 2217.91,-72 2207.91,-68.5 2207.91,-75.5"/>
</g>
<!-- 2675082035472 -->
<g id="node26" class="node">
<title>2675082035472</title>
<polygon fill="none" stroke="black" points="2323.62,-36 2215.38,-36 2215.38,0 2323.62,0 2323.62,-36"/>
<text text-anchor="middle" x="2269.5" y="-12.97" font-family="Times New Roman,serif" font-size="12.00">Conduct interviews</text>
</g>
<!-- 2675063843456&#45;&gt;2675082035472 -->
<g id="edge27" class="edge">
<title>2675063843456&#45;&gt;2675082035472</title>
<path fill="none" stroke="black" d="M2163.54,-64.94C2177.13,-58.86 2197.53,-49.74 2216.75,-41.14"/>
<polygon fill="black" stroke="black" points="2218.17,-44.34 2225.87,-37.06 2215.31,-37.95 2218.17,-44.34"/>
</g>
<!-- 2675064129344 -->
<g id="node27" class="node">
<title>2675064129344</title>
<polygon fill="none" stroke="black" points="2392.25,-90 2365.25,-72 2392.25,-54 2419.25,-72 2392.25,-90"/>
<text text-anchor="middle" x="2392.25" y="-66.97" font-family="Times New Roman,serif" font-size="12.00">+</text>
</g>
<!-- 2675062686496&#45;&gt;2675064129344 -->
<g id="edge29" class="edge">
<title>2675062686496&#45;&gt;2675064129344</title>
<path fill="none" stroke="black" d="M2311.72,-107.57C2329.31,-99.7 2349.32,-90.75 2364.87,-83.8"/>
<polygon fill="black" stroke="black" points="2366.23,-87.02 2373.93,-79.75 2363.37,-80.63 2366.23,-87.02"/>
</g>
<!-- 2675064131744&#45;&gt;2675064129344 -->
<g id="edge30" class="edge">
<title>2675064131744&#45;&gt;2675064129344</title>
<path fill="none" stroke="black" d="M2319.96,-72C2331.04,-72 2342.62,-72 2353.14,-72"/>
<polygon fill="black" stroke="black" points="2352.99,-75.5 2362.99,-72 2352.99,-68.5 2352.99,-75.5"/>
</g>
<!-- 2675082035472&#45;&gt;2675064129344 -->
<g id="edge31" class="edge">
<title>2675082035472&#45;&gt;2675064129344</title>
<path fill="none" stroke="black" d="M2311.72,-36.43C2329.31,-44.3 2349.32,-53.25 2364.87,-60.2"/>
<polygon fill="black" stroke="black" points="2363.37,-63.37 2373.93,-64.25 2366.23,-56.98 2363.37,-63.37"/>
</g>
<!-- 2675064140336 -->
<g id="node28" class="node">
<title>2675064140336</title>
<polygon fill="none" stroke="black" points="2642.25,-91 2455.25,-91 2455.25,-55 2642.25,-55 2642.25,-91"/>
<text text-anchor="middle" x="2548.75" y="-67.97" font-family="Times New Roman,serif" font-size="12.00">Complete risk assessment/mitigation</text>
</g>
<!-- 2675064129344&#45;&gt;2675064140336 -->
<g id="edge32" class="edge">
<title>2675064129344&#45;&gt;2675064140336</title>
<path fill="none" stroke="black" d="M2419.81,-72.17C2426.83,-72.22 2434.85,-72.27 2443.37,-72.32"/>
<polygon fill="black" stroke="black" points="2443.29,-75.82 2453.31,-72.39 2443.33,-68.82 2443.29,-75.82"/>
</g>
<!-- 2675063833520 -->
<g id="node29" class="node">
<title>2675063833520</title>
<polygon fill="none" stroke="black" points="2791.75,-118 2678.25,-118 2678.25,-82 2791.75,-82 2791.75,-118"/>
<text text-anchor="middle" x="2735" y="-94.97" font-family="Times New Roman,serif" font-size="12.00">Compile audit report</text>
</g>
<!-- 2675064140336&#45;&gt;2675063833520 -->
<g id="edge33" class="edge">
<title>2675064140336&#45;&gt;2675063833520</title>
<path fill="none" stroke="black" d="M2642.68,-86.62C2650.74,-87.8 2658.78,-88.98 2666.57,-90.12"/>
<polygon fill="black" stroke="black" points="2665.87,-93.55 2676.27,-91.54 2666.89,-86.63 2665.87,-93.55"/>
</g>
<!-- 2675082046512 -->
<g id="node30" class="node">
<title>2675082046512</title>
<polygon fill="none" stroke="black" points="2991.5,-131 2827.75,-131 2827.75,-95 2991.5,-95 2991.5,-131"/>
<text text-anchor="middle" x="2909.62" y="-107.97" font-family="Times New Roman,serif" font-size="12.00">Review report by audit director</text>
</g>
<!-- 2675063833520&#45;&gt;2675082046512 -->
<g id="edge34" class="edge">
<title>2675063833520&#45;&gt;2675082046512</title>
<path fill="none" stroke="black" d="M2792.05,-104.22C2799.83,-104.81 2807.99,-105.42 2816.22,-106.04"/>
<polygon fill="black" stroke="black" points="2815.72,-109.51 2825.96,-106.77 2816.25,-102.53 2815.72,-109.51"/>
</g>
<!-- 2675064131072 -->
<g id="node31" class="node">
<title>2675064131072</title>
<polygon fill="none" stroke="black" points="3155.25,-138 3027.5,-138 3027.5,-102 3155.25,-102 3155.25,-138"/>
<text text-anchor="middle" x="3091.38" y="-114.97" font-family="Times New Roman,serif" font-size="12.00">Send report for revision</text>
</g>
<!-- 2675082046512&#45;&gt;2675064131072 -->
<g id="edge35" class="edge">
<title>2675082046512&#45;&gt;2675064131072</title>
<path fill="none" stroke="black" d="M2991.82,-116.16C2999.76,-116.47 3007.79,-116.78 3015.66,-117.09"/>
<polygon fill="black" stroke="black" points="3015.41,-120.58 3025.54,-117.47 3015.68,-113.59 3015.41,-120.58"/>
</g>
<!-- 2675064137120 -->
<g id="node32" class="node">
<title>2675064137120</title>
<polygon fill="none" stroke="black" points="3336.25,-141 3191.25,-141 3191.25,-105 3336.25,-105 3336.25,-141"/>
<text text-anchor="middle" x="3263.75" y="-117.97" font-family="Times New Roman,serif" font-size="12.00">Update and resubmit report</text>
</g>
<!-- 2675064131072&#45;&gt;2675064137120 -->
<g id="edge36" class="edge">
<title>2675064131072&#45;&gt;2675064137120</title>
<path fill="none" stroke="black" d="M3155.33,-121.11C3163.19,-121.25 3171.32,-121.39 3179.43,-121.53"/>
<polygon fill="black" stroke="black" points="3179.28,-125.03 3189.34,-121.71 3179.4,-118.03 3179.28,-125.03"/>
</g>
<!-- 2675063842016 -->
<g id="node33" class="node">
<title>2675063842016</title>
<polygon fill="none" stroke="black" points="3536,-143 3372.25,-143 3372.25,-107 3536,-107 3536,-143"/>
<text text-anchor="middle" x="3454.12" y="-119.97" font-family="Times New Roman,serif" font-size="12.00">Review report by audit director</text>
</g>
<!-- 2675064137120&#45;&gt;2675063842016 -->
<g id="edge37" class="edge">
<title>2675064137120&#45;&gt;2675063842016</title>
<path fill="none" stroke="black" d="M3336.5,-123.76C3344.35,-123.85 3352.41,-123.93 3360.46,-124.02"/>
<polygon fill="black" stroke="black" points="3360.26,-127.51 3370.3,-124.12 3360.33,-120.51 3360.26,-127.51"/>
</g>
<!-- 2675063842016&#45;&gt;2675063835248 -->
<g id="edge38" class="edge">
<title>2675063842016&#45;&gt;2675063835248</title>
<path fill="none" stroke="black" d="M3536.16,-138.05C3546.38,-139.69 3556.33,-141.29 3565.16,-142.71"/>
<polygon fill="black" stroke="black" points="3564.5,-146.15 3574.93,-144.29 3565.61,-139.24 3564.5,-146.15"/>
</g>
</g>
</svg>
