<?xml version="1.0" encoding="UTF-8" standalone="no"?>
<!DOCTYPE svg PUBLIC "-//W3C//DTD SVG 1.1//EN"
 "http://www.w3.org/Graphics/SVG/1.1/DTD/svg11.dtd">
<!-- Generated by graphviz version 11.0.0 (20240428.1522)
 -->
<!-- Pages: 1 -->
<svg width="3902pt" height="298pt"
 viewBox="0.00 0.00 3901.75 298.00" xmlns="http://www.w3.org/2000/svg" xmlns:xlink="http://www.w3.org/1999/xlink">
<g id="graph0" class="graph" transform="scale(1 1) rotate(0) translate(4 294)">
<polygon fill="white" stroke="none" points="-4,4 -4,-294 3897.75,-294 3897.75,4 -4,4"/>
<!-- 2675064140720 -->
<g id="node1" class="node">
<title>2675064140720</title>
<ellipse fill="green" stroke="black" cx="18" cy="-176" rx="18" ry="18"/>
</g>
<!-- 2675064129776 -->
<g id="node2" class="node">
<title>2675064129776</title>
<polygon fill="none" stroke="black" points="168.25,-194 72,-194 72,-158 168.25,-158 168.25,-194"/>
<text text-anchor="middle" x="120.12" y="-170.97" font-family="Times New Roman,serif" font-size="12.00">Send notification</text>
</g>
<!-- 2675064140720&#45;&gt;2675064129776 -->
<g id="edge1" class="edge">
<title>2675064140720&#45;&gt;2675064129776</title>
<path fill="none" stroke="black" d="M36.44,-176C43.3,-176 51.6,-176 60.26,-176"/>
<polygon fill="black" stroke="black" points="60.26,-179.5 70.26,-176 60.26,-172.5 60.26,-179.5"/>
</g>
<!-- 2675064129488 -->
<g id="node3" class="node">
<title>2675064129488</title>
<polygon fill="none" stroke="black" points="231.25,-194 204.25,-176 231.25,-158 258.25,-176 231.25,-194"/>
<text text-anchor="middle" x="231.25" y="-170.97" font-family="Times New Roman,serif" font-size="12.00">+</text>
</g>
<!-- 2675064129776&#45;&gt;2675064129488 -->
<g id="edge2" class="edge">
<title>2675064129776&#45;&gt;2675064129488</title>
<path fill="none" stroke="black" d="M168.67,-176C176.51,-176 184.55,-176 192.12,-176"/>
<polygon fill="black" stroke="black" points="192.02,-179.5 202.02,-176 192.02,-172.5 192.02,-179.5"/>
</g>
<!-- 2675081864512 -->
<g id="node4" class="node">
<title>2675081864512</title>
<polygon fill="none" stroke="black" points="443.38,-248 296.12,-248 296.12,-212 443.38,-212 443.38,-248"/>
<text text-anchor="middle" x="369.75" y="-224.97" font-family="Times New Roman,serif" font-size="12.00">Prepare financial statements</text>
</g>
<!-- 2675064129488&#45;&gt;2675081864512 -->
<g id="edge5" class="edge">
<title>2675064129488&#45;&gt;2675081864512</title>
<path fill="none" stroke="black" d="M248.19,-183.27C260.65,-188.87 278.44,-196.7 294.25,-203 298.05,-204.52 301.98,-206.04 305.94,-207.56"/>
<polygon fill="black" stroke="black" points="304.48,-210.75 315.07,-211 306.95,-204.2 304.48,-210.75"/>
</g>
<!-- 2675081868016 -->
<g id="node5" class="node">
<title>2675081868016</title>
<polygon fill="none" stroke="black" points="445.25,-194 294.25,-194 294.25,-158 445.25,-158 445.25,-194"/>
<text text-anchor="middle" x="369.75" y="-170.97" font-family="Times New Roman,serif" font-size="12.00">Gather necessary documents</text>
</g>
<!-- 2675064129488&#45;&gt;2675081868016 -->
<g id="edge3" class="edge">
<title>2675064129488&#45;&gt;2675081868016</title>
<path fill="none" stroke="black" d="M258.89,-176C266.01,-176 274.11,-176 282.61,-176"/>
<polygon fill="black" stroke="black" points="282.44,-179.5 292.44,-176 282.44,-172.5 282.44,-179.5"/>
</g>
<!-- 2675064128624 -->
<g id="node6" class="node">
<title>2675064128624</title>
<polygon fill="none" stroke="black" points="438.12,-140 301.38,-140 301.38,-104 438.12,-104 438.12,-140"/>
<text text-anchor="middle" x="369.75" y="-116.97" font-family="Times New Roman,serif" font-size="12.00">Check regulatory updates</text>
</g>
<!-- 2675064129488&#45;&gt;2675064128624 -->
<g id="edge4" class="edge">
<title>2675064129488&#45;&gt;2675064128624</title>
<path fill="none" stroke="black" d="M248.19,-168.73C260.65,-163.13 278.44,-155.3 294.25,-149 298.05,-147.48 301.98,-145.96 305.94,-144.44"/>
<polygon fill="black" stroke="black" points="306.95,-147.8 315.07,-141 304.48,-141.25 306.95,-147.8"/>
</g>
<!-- 2675081870752 -->
<g id="node7" class="node">
<title>2675081870752</title>
<polygon fill="none" stroke="black" points="508.25,-194 481.25,-176 508.25,-158 535.25,-176 508.25,-194"/>
<text text-anchor="middle" x="508.25" y="-170.97" font-family="Times New Roman,serif" font-size="12.00">+</text>
</g>
<!-- 2675081864512&#45;&gt;2675081870752 -->
<g id="edge6" class="edge">
<title>2675081864512&#45;&gt;2675081870752</title>
<path fill="none" stroke="black" d="M423.01,-211.53C430.5,-208.75 438.09,-205.85 445.25,-203 457.11,-198.27 470.08,-192.69 481.08,-187.83"/>
<polygon fill="black" stroke="black" points="482.22,-191.16 489.93,-183.89 479.37,-184.76 482.22,-191.16"/>
</g>
<!-- 2675081868016&#45;&gt;2675081870752 -->
<g id="edge7" class="edge">
<title>2675081868016&#45;&gt;2675081870752</title>
<path fill="none" stroke="black" d="M445.39,-176C453.54,-176 461.57,-176 469.01,-176"/>
<polygon fill="black" stroke="black" points="468.99,-179.5 478.99,-176 468.99,-172.5 468.99,-179.5"/>
</g>
<!-- 2675064128624&#45;&gt;2675081870752 -->
<g id="edge8" class="edge">
<title>2675064128624&#45;&gt;2675081870752</title>
<path fill="none" stroke="black" d="M423.01,-140.47C430.5,-143.25 438.09,-146.15 445.25,-149 457.11,-153.73 470.08,-159.31 481.08,-164.17"/>
<polygon fill="black" stroke="black" points="479.37,-167.24 489.93,-168.11 482.22,-160.84 479.37,-167.24"/>
</g>
<!-- 2675081871040 -->
<g id="node8" class="node">
<title>2675081871040</title>
<polygon fill="none" stroke="black" points="675,-194 571.25,-194 571.25,-158 675,-158 675,-194"/>
<text text-anchor="middle" x="623.12" y="-170.97" font-family="Times New Roman,serif" font-size="12.00">Submit documents</text>
</g>
<!-- 2675081870752&#45;&gt;2675081871040 -->
<g id="edge9" class="edge">
<title>2675081870752&#45;&gt;2675081871040</title>
<path fill="none" stroke="black" d="M536,-176C543.17,-176 551.24,-176 559.48,-176"/>
<polygon fill="black" stroke="black" points="559.25,-179.5 569.25,-176 559.25,-172.5 559.25,-179.5"/>
</g>
<!-- 2675064130640 -->
<g id="node9" class="node">
<title>2675064130640</title>
<polygon fill="none" stroke="black" points="819.25,-194 711,-194 711,-158 819.25,-158 819.25,-194"/>
<text text-anchor="middle" x="765.12" y="-170.97" font-family="Times New Roman,serif" font-size="12.00">Review submission</text>
</g>
<!-- 2675081871040&#45;&gt;2675064130640 -->
<g id="edge10" class="edge">
<title>2675081871040&#45;&gt;2675064130640</title>
<path fill="none" stroke="black" d="M675.46,-176C683.31,-176 691.5,-176 699.59,-176"/>
<polygon fill="black" stroke="black" points="699.4,-179.5 709.4,-176 699.4,-172.5 699.4,-179.5"/>
</g>
<!-- 2675081866432 -->
<g id="node10" class="node">
<title>2675081866432</title>
<polygon fill="none" stroke="black" points="882.25,-194 855.25,-176 882.25,-158 909.25,-176 882.25,-194"/>
<text text-anchor="middle" x="882.25" y="-170.97" font-family="Times New Roman,serif" font-size="12.00">X</text>
</g>
<!-- 2675064130640&#45;&gt;2675081866432 -->
<g id="edge11" class="edge">
<title>2675064130640&#45;&gt;2675081866432</title>
<path fill="none" stroke="black" d="M819.64,-176C827.58,-176 835.62,-176 843.16,-176"/>
<polygon fill="black" stroke="black" points="842.99,-179.5 852.99,-176 842.99,-172.5 842.99,-179.5"/>
</g>
<!-- 2675081865712 -->
<g id="node11" class="node">
<title>2675081865712</title>
<polygon fill="none" stroke="black" points="972.25,-217 945.25,-199 972.25,-181 999.25,-199 972.25,-217"/>
<text text-anchor="middle" x="972.25" y="-193.97" font-family="Times New Roman,serif" font-size="12.00">X</text>
</g>
<!-- 2675081866432&#45;&gt;2675081865712 -->
<g id="edge12" class="edge">
<title>2675081866432&#45;&gt;2675081865712</title>
<path fill="none" stroke="black" d="M902.34,-180.99C913.76,-183.97 928.51,-187.83 941.44,-191.21"/>
<polygon fill="black" stroke="black" points="940.17,-194.49 950.73,-193.64 941.94,-187.72 940.17,-194.49"/>
</g>
<!-- 2675081865952 -->
<g id="node12" class="node">
<title>2675081865952</title>
<polygon fill="none" stroke="black" points="1681.75,-194 1654.75,-176 1681.75,-158 1708.75,-176 1681.75,-194"/>
<text text-anchor="middle" x="1681.75" y="-170.97" font-family="Times New Roman,serif" font-size="12.00">X</text>
</g>
<!-- 2675081866432&#45;&gt;2675081865952 -->
<g id="edge13" class="edge">
<title>2675081866432&#45;&gt;2675081865952</title>
<path fill="none" stroke="black" d="M904.84,-172.66C947.95,-166.28 1047.81,-153 1132.25,-153 1132.25,-153 1132.25,-153 1475.62,-153 1537.14,-153 1608.38,-163.34 1648.65,-170.15"/>
<polygon fill="black" stroke="black" points="1647.93,-173.58 1658.38,-171.84 1649.12,-166.68 1647.93,-173.58"/>
</g>
<!-- 2675081870368 -->
<g id="node14" class="node">
<title>2675081870368</title>
<polygon fill="none" stroke="black" points="1231.25,-259 1035.25,-259 1035.25,-223 1231.25,-223 1231.25,-259"/>
<text text-anchor="middle" x="1133.25" y="-235.97" font-family="Times New Roman,serif" font-size="12.00">Request clarifications of discrepancies</text>
</g>
<!-- 2675081865712&#45;&gt;2675081870368 -->
<g id="edge14" class="edge">
<title>2675081865712&#45;&gt;2675081870368</title>
<path fill="none" stroke="black" d="M992.43,-204.07C1007.48,-208.04 1029.52,-213.86 1051.67,-219.72"/>
<polygon fill="black" stroke="black" points="1050.5,-223.03 1061.07,-222.2 1052.29,-216.26 1050.5,-223.03"/>
</g>
<!-- 2675081869648 -->
<g id="node13" class="node">
<title>2675081869648</title>
<polygon fill="none" stroke="black" points="1771.75,-194 1744.75,-176 1771.75,-158 1798.75,-176 1771.75,-194"/>
<text text-anchor="middle" x="1771.75" y="-170.97" font-family="Times New Roman,serif" font-size="12.00">+</text>
</g>
<!-- 2675081865952&#45;&gt;2675081869648 -->
<g id="edge15" class="edge">
<title>2675081865952&#45;&gt;2675081869648</title>
<path fill="none" stroke="black" d="M1709.63,-176C1716.88,-176 1724.87,-176 1732.6,-176"/>
<polygon fill="black" stroke="black" points="1732.52,-179.5 1742.52,-176 1732.52,-172.5 1732.52,-179.5"/>
</g>
<!-- 2675081867344 -->
<g id="node15" class="node">
<title>2675081867344</title>
<polygon fill="none" stroke="black" points="1973,-248 1835.5,-248 1835.5,-212 1973,-212 1973,-248"/>
<text text-anchor="middle" x="1904.25" y="-224.97" font-family="Times New Roman,serif" font-size="12.00">Evaluate operational risks</text>
</g>
<!-- 2675081869648&#45;&gt;2675081867344 -->
<g id="edge18" class="edge">
<title>2675081869648&#45;&gt;2675081867344</title>
<path fill="none" stroke="black" d="M1788.74,-183.15C1801.22,-188.68 1819.02,-196.48 1834.75,-203 1838.28,-204.46 1841.92,-205.95 1845.6,-207.45"/>
<polygon fill="black" stroke="black" points="1844.01,-210.58 1854.59,-211.06 1846.62,-204.08 1844.01,-210.58"/>
</g>
<!-- 2675081869024 -->
<g id="node16" class="node">
<title>2675081869024</title>
<polygon fill="none" stroke="black" points="1967,-194 1841.5,-194 1841.5,-158 1967,-158 1967,-194"/>
<text text-anchor="middle" x="1904.25" y="-170.97" font-family="Times New Roman,serif" font-size="12.00">Evaluate financial risks</text>
</g>
<!-- 2675081869648&#45;&gt;2675081869024 -->
<g id="edge16" class="edge">
<title>2675081869648&#45;&gt;2675081869024</title>
<path fill="none" stroke="black" d="M1799.47,-176C1808.44,-176 1818.92,-176 1829.7,-176"/>
<polygon fill="black" stroke="black" points="1829.49,-179.5 1839.49,-176 1829.49,-172.5 1829.49,-179.5"/>
</g>
<!-- 2675081870032 -->
<g id="node17" class="node">
<title>2675081870032</title>
<polygon fill="none" stroke="black" points="1973.75,-140 1834.75,-140 1834.75,-104 1973.75,-104 1973.75,-140"/>
<text text-anchor="middle" x="1904.25" y="-116.97" font-family="Times New Roman,serif" font-size="12.00">Evaluate compliance risks</text>
</g>
<!-- 2675081869648&#45;&gt;2675081870032 -->
<g id="edge17" class="edge">
<title>2675081869648&#45;&gt;2675081870032</title>
<path fill="none" stroke="black" d="M1788.74,-168.85C1801.22,-163.32 1819.02,-155.52 1834.75,-149 1838.28,-147.54 1841.92,-146.05 1845.6,-144.55"/>
<polygon fill="black" stroke="black" points="1846.62,-147.92 1854.59,-140.94 1844.01,-141.42 1846.62,-147.92"/>
</g>
<!-- 2675064128240 -->
<g id="node18" class="node">
<title>2675064128240</title>
<polygon fill="none" stroke="black" points="1384.5,-259 1267.25,-259 1267.25,-223 1384.5,-223 1384.5,-259"/>
<text text-anchor="middle" x="1325.88" y="-235.97" font-family="Times New Roman,serif" font-size="12.00">Receive clarifications</text>
</g>
<!-- 2675081870368&#45;&gt;2675064128240 -->
<g id="edge19" class="edge">
<title>2675081870368&#45;&gt;2675064128240</title>
<path fill="none" stroke="black" d="M1231.52,-241C1239.66,-241 1247.78,-241 1255.64,-241"/>
<polygon fill="black" stroke="black" points="1255.44,-244.5 1265.44,-241 1255.44,-237.5 1255.44,-244.5"/>
</g>
<!-- 2675081865904 -->
<g id="node19" class="node">
<title>2675081865904</title>
<polygon fill="none" stroke="black" points="2036.75,-194 2009.75,-176 2036.75,-158 2063.75,-176 2036.75,-194"/>
<text text-anchor="middle" x="2036.75" y="-170.97" font-family="Times New Roman,serif" font-size="12.00">+</text>
</g>
<!-- 2675081867344&#45;&gt;2675081865904 -->
<g id="edge20" class="edge">
<title>2675081867344&#45;&gt;2675081865904</title>
<path fill="none" stroke="black" d="M1952.5,-211.63C1959.64,-208.78 1966.9,-205.84 1973.75,-203 1985.54,-198.11 1998.51,-192.5 2009.52,-187.67"/>
<polygon fill="black" stroke="black" points="2010.64,-191 2018.37,-183.76 2007.81,-184.59 2010.64,-191"/>
</g>
<!-- 2675081869024&#45;&gt;2675081865904 -->
<g id="edge21" class="edge">
<title>2675081869024&#45;&gt;2675081865904</title>
<path fill="none" stroke="black" d="M1967.44,-176C1977.69,-176 1988.04,-176 1997.47,-176"/>
<polygon fill="black" stroke="black" points="1997.35,-179.5 2007.35,-176 1997.35,-172.5 1997.35,-179.5"/>
</g>
<!-- 2675081870032&#45;&gt;2675081865904 -->
<g id="edge22" class="edge">
<title>2675081870032&#45;&gt;2675081865904</title>
<path fill="none" stroke="black" d="M1952.5,-140.37C1959.64,-143.22 1966.9,-146.16 1973.75,-149 1985.54,-153.89 1998.51,-159.5 2009.52,-164.33"/>
<polygon fill="black" stroke="black" points="2007.81,-167.41 2018.37,-168.24 2010.64,-161 2007.81,-167.41"/>
</g>
<!-- 2675081867680 -->
<g id="node20" class="node">
<title>2675081867680</title>
<polygon fill="none" stroke="black" points="1528.75,-259 1420.5,-259 1420.5,-223 1528.75,-223 1528.75,-259"/>
<text text-anchor="middle" x="1474.62" y="-235.97" font-family="Times New Roman,serif" font-size="12.00">Review submission</text>
</g>
<!-- 2675064128240&#45;&gt;2675081867680 -->
<g id="edge23" class="edge">
<title>2675064128240&#45;&gt;2675081867680</title>
<path fill="none" stroke="black" d="M1384.87,-241C1392.82,-241 1401.03,-241 1409.09,-241"/>
<polygon fill="black" stroke="black" points="1408.83,-244.5 1418.83,-241 1408.83,-237.5 1408.83,-244.5"/>
</g>
<!-- 2675081864800 -->
<g id="node22" class="node">
<title>2675081864800</title>
<polygon fill="none" stroke="black" points="2126.75,-194 2099.75,-176 2126.75,-158 2153.75,-176 2126.75,-194"/>
<text text-anchor="middle" x="2126.75" y="-170.97" font-family="Times New Roman,serif" font-size="12.00">X</text>
</g>
<!-- 2675081865904&#45;&gt;2675081864800 -->
<g id="edge24" class="edge">
<title>2675081865904&#45;&gt;2675081864800</title>
<path fill="none" stroke="black" d="M2064.63,-176C2071.88,-176 2079.87,-176 2087.6,-176"/>
<polygon fill="black" stroke="black" points="2087.52,-179.5 2097.52,-176 2087.52,-172.5 2087.52,-179.5"/>
</g>
<!-- 2675081864032 -->
<g id="node21" class="node">
<title>2675081864032</title>
<polygon fill="none" stroke="black" points="1591.75,-217 1564.75,-199 1591.75,-181 1618.75,-199 1591.75,-217"/>
<text text-anchor="middle" x="1591.75" y="-193.97" font-family="Times New Roman,serif" font-size="12.00">X</text>
</g>
<!-- 2675081867680&#45;&gt;2675081864032 -->
<g id="edge25" class="edge">
<title>2675081867680&#45;&gt;2675081864032</title>
<path fill="none" stroke="black" d="M1526.12,-222.58C1538.68,-218 1551.69,-213.25 1562.71,-209.23"/>
<polygon fill="black" stroke="black" points="1563.77,-212.57 1571.96,-205.85 1561.37,-205.99 1563.77,-212.57"/>
</g>
<!-- 2675081864032&#45;&gt;2675081865712 -->
<g id="edge26" class="edge">
<title>2675081864032&#45;&gt;2675081865712</title>
<path fill="none" stroke="black" d="M1563.97,-199C1465.79,-199 1125.4,-199 1011.05,-199"/>
<polygon fill="black" stroke="black" points="1011.3,-195.5 1001.3,-199 1011.3,-202.5 1011.3,-195.5"/>
</g>
<!-- 2675081864032&#45;&gt;2675081865952 -->
<g id="edge27" class="edge">
<title>2675081864032&#45;&gt;2675081865952</title>
<path fill="none" stroke="black" d="M1611.84,-194.01C1623.26,-191.03 1638.01,-187.17 1650.94,-183.79"/>
<polygon fill="black" stroke="black" points="1651.44,-187.28 1660.23,-181.36 1649.67,-180.51 1651.44,-187.28"/>
</g>
<!-- 2675081864368 -->
<g id="node23" class="node">
<title>2675081864368</title>
<polygon fill="none" stroke="black" points="2587.5,-194 2560.5,-176 2587.5,-158 2614.5,-176 2587.5,-194"/>
<text text-anchor="middle" x="2587.5" y="-170.97" font-family="Times New Roman,serif" font-size="12.00">X</text>
</g>
<!-- 2675081864800&#45;&gt;2675081864368 -->
<g id="edge29" class="edge">
<title>2675081864800&#45;&gt;2675081864368</title>
<path fill="none" stroke="black" d="M2146.76,-181.16C2175.35,-188.63 2231.25,-202.1 2279.75,-207 2348.18,-213.91 2366.07,-213.91 2434.5,-207 2477.32,-202.68 2525.9,-191.67 2556.37,-184.01"/>
<polygon fill="black" stroke="black" points="2557.21,-187.41 2566.03,-181.54 2555.47,-180.63 2557.21,-187.41"/>
</g>
<!-- 2675064129008 -->
<g id="node24" class="node">
<title>2675064129008</title>
<polygon fill="none" stroke="black" points="2216.75,-144 2189.75,-126 2216.75,-108 2243.75,-126 2216.75,-144"/>
<text text-anchor="middle" x="2216.75" y="-120.97" font-family="Times New Roman,serif" font-size="12.00">+</text>
</g>
<!-- 2675081864800&#45;&gt;2675064129008 -->
<g id="edge28" class="edge">
<title>2675081864800&#45;&gt;2675064129008</title>
<path fill="none" stroke="black" d="M2141.89,-167.97C2155.28,-160.36 2175.66,-148.78 2191.62,-139.71"/>
<polygon fill="black" stroke="black" points="2193.07,-142.91 2200.04,-134.93 2189.61,-136.82 2193.07,-142.91"/>
</g>
<!-- 2675081868688 -->
<g id="node26" class="node">
<title>2675081868688</title>
<polygon fill="none" stroke="black" points="2764,-194 2650.5,-194 2650.5,-158 2764,-158 2764,-194"/>
<text text-anchor="middle" x="2707.25" y="-170.97" font-family="Times New Roman,serif" font-size="12.00">Compile audit report</text>
</g>
<!-- 2675081864368&#45;&gt;2675081868688 -->
<g id="edge30" class="edge">
<title>2675081864368&#45;&gt;2675081868688</title>
<path fill="none" stroke="black" d="M2615.22,-176C2622.4,-176 2630.51,-176 2638.85,-176"/>
<polygon fill="black" stroke="black" points="2638.78,-179.5 2648.78,-176 2638.78,-172.5 2638.78,-179.5"/>
</g>
<!-- 2675081867008 -->
<g id="node25" class="node">
<title>2675081867008</title>
<polygon fill="none" stroke="black" points="2411.25,-198 2303,-198 2303,-162 2411.25,-162 2411.25,-198"/>
<text text-anchor="middle" x="2357.12" y="-174.97" font-family="Times New Roman,serif" font-size="12.00">Conduct interviews</text>
</g>
<!-- 2675064129008&#45;&gt;2675081867008 -->
<g id="edge32" class="edge">
<title>2675064129008&#45;&gt;2675081867008</title>
<path fill="none" stroke="black" d="M2233.68,-133.31C2246.12,-138.93 2263.91,-146.76 2279.75,-153 2283.76,-154.58 2287.9,-156.17 2292.09,-157.74"/>
<polygon fill="black" stroke="black" points="2290.52,-160.89 2301.11,-161.07 2292.94,-154.32 2290.52,-160.89"/>
</g>
<!-- 2675081869264 -->
<g id="node27" class="node">
<title>2675081869264</title>
<polygon fill="none" stroke="black" points="2434.5,-144 2279.75,-144 2279.75,-108 2434.5,-108 2434.5,-144"/>
<text text-anchor="middle" x="2357.12" y="-120.97" font-family="Times New Roman,serif" font-size="12.00">Launch detailed investigation</text>
</g>
<!-- 2675064129008&#45;&gt;2675081869264 -->
<g id="edge31" class="edge">
<title>2675064129008&#45;&gt;2675081869264</title>
<path fill="none" stroke="black" d="M2244.43,-126C2251.53,-126 2259.6,-126 2268.09,-126"/>
<polygon fill="black" stroke="black" points="2267.91,-129.5 2277.91,-126 2267.91,-122.5 2267.91,-129.5"/>
</g>
<!-- 2675081869600 -->
<g id="node28" class="node">
<title>2675081869600</title>
<polygon fill="none" stroke="black" points="2407.12,-90 2307.12,-90 2307.12,-54 2407.12,-54 2407.12,-90"/>
<text text-anchor="middle" x="2357.12" y="-66.97" font-family="Times New Roman,serif" font-size="12.00">Perform site visits</text>
</g>
<!-- 2675064129008&#45;&gt;2675081869600 -->
<g id="edge33" class="edge">
<title>2675064129008&#45;&gt;2675081869600</title>
<path fill="none" stroke="black" d="M2233.68,-118.69C2246.12,-113.07 2263.91,-105.24 2279.75,-99 2285.01,-96.93 2290.51,-94.84 2296.03,-92.79"/>
<polygon fill="black" stroke="black" points="2297.02,-96.16 2305.21,-89.44 2294.62,-89.58 2297.02,-96.16"/>
</g>
<!-- 2675081870848 -->
<g id="node29" class="node">
<title>2675081870848</title>
<polygon fill="none" stroke="black" points="2416.88,-36 2297.38,-36 2297.38,0 2416.88,0 2416.88,-36"/>
<text text-anchor="middle" x="2357.12" y="-12.97" font-family="Times New Roman,serif" font-size="12.00">Conduct data analysis</text>
</g>
<!-- 2675064129008&#45;&gt;2675081870848 -->
<g id="edge34" class="edge">
<title>2675064129008&#45;&gt;2675081870848</title>
<path fill="none" stroke="black" d="M2224.58,-112.89C2234.46,-95.1 2254.4,-63.43 2279.75,-45 2282.09,-43.3 2284.54,-41.7 2287.08,-40.19"/>
<polygon fill="black" stroke="black" points="2288.68,-43.31 2295.88,-35.54 2285.4,-37.12 2288.68,-43.31"/>
</g>
<!-- 2675081864752 -->
<g id="node31" class="node">
<title>2675081864752</title>
<polygon fill="none" stroke="black" points="2497.5,-144 2470.5,-126 2497.5,-108 2524.5,-126 2497.5,-144"/>
<text text-anchor="middle" x="2497.5" y="-120.97" font-family="Times New Roman,serif" font-size="12.00">+</text>
</g>
<!-- 2675081867008&#45;&gt;2675081864752 -->
<g id="edge35" class="edge">
<title>2675081867008&#45;&gt;2675081864752</title>
<path fill="none" stroke="black" d="M2411.72,-161.6C2419.4,-158.8 2427.17,-155.89 2434.5,-153 2446.38,-148.32 2459.35,-142.74 2470.35,-137.88"/>
<polygon fill="black" stroke="black" points="2471.49,-141.2 2479.19,-133.93 2468.63,-134.81 2471.49,-141.2"/>
</g>
<!-- 2675081864848 -->
<g id="node30" class="node">
<title>2675081864848</title>
<polygon fill="none" stroke="black" points="2827,-194 2800,-176 2827,-158 2854,-176 2827,-194"/>
<text text-anchor="middle" x="2827" y="-170.97" font-family="Times New Roman,serif" font-size="12.00">X</text>
</g>
<!-- 2675081868688&#45;&gt;2675081864848 -->
<g id="edge36" class="edge">
<title>2675081868688&#45;&gt;2675081864848</title>
<path fill="none" stroke="black" d="M2764.37,-176C2772.37,-176 2780.45,-176 2788,-176"/>
<polygon fill="black" stroke="black" points="2787.83,-179.5 2797.83,-176 2787.83,-172.5 2787.83,-179.5"/>
</g>
<!-- 2675081869264&#45;&gt;2675081864752 -->
<g id="edge37" class="edge">
<title>2675081869264&#45;&gt;2675081864752</title>
<path fill="none" stroke="black" d="M2434.6,-126C2442.78,-126 2450.83,-126 2458.28,-126"/>
<polygon fill="black" stroke="black" points="2458.27,-129.5 2468.27,-126 2458.27,-122.5 2458.27,-129.5"/>
</g>
<!-- 2675081869600&#45;&gt;2675081864752 -->
<g id="edge38" class="edge">
<title>2675081869600&#45;&gt;2675081864752</title>
<path fill="none" stroke="black" d="M2407.62,-88.92C2416.6,-92.16 2425.86,-95.6 2434.5,-99 2446.38,-103.68 2459.35,-109.26 2470.35,-114.12"/>
<polygon fill="black" stroke="black" points="2468.63,-117.19 2479.19,-118.07 2471.49,-110.8 2468.63,-117.19"/>
</g>
<!-- 2675081870848&#45;&gt;2675081864752 -->
<g id="edge39" class="edge">
<title>2675081870848&#45;&gt;2675081864752</title>
<path fill="none" stroke="black" d="M2417.03,-34.83C2423.2,-37.74 2429.15,-41.11 2434.5,-45 2455.69,-60.41 2473.1,-85.06 2484.02,-103.13"/>
<polygon fill="black" stroke="black" points="2480.87,-104.68 2488.91,-111.58 2486.93,-101.17 2480.87,-104.68"/>
</g>
<!-- 2675081864224 -->
<g id="node32" class="node">
<title>2675081864224</title>
<polygon fill="none" stroke="black" points="2917,-244 2890,-226 2917,-208 2944,-226 2917,-244"/>
<text text-anchor="middle" x="2917" y="-220.97" font-family="Times New Roman,serif" font-size="12.00">X</text>
</g>
<!-- 2675081864848&#45;&gt;2675081864224 -->
<g id="edge42" class="edge">
<title>2675081864848&#45;&gt;2675081864224</title>
<path fill="none" stroke="black" d="M2842.14,-184.03C2855.53,-191.64 2875.91,-203.22 2891.87,-212.29"/>
<polygon fill="black" stroke="black" points="2889.86,-215.18 2900.29,-217.07 2893.32,-209.09 2889.86,-215.18"/>
</g>
<!-- 2675064130448 -->
<g id="node33" class="node">
<title>2675064130448</title>
<polygon fill="none" stroke="black" points="2917,-144 2890,-126 2917,-108 2944,-126 2917,-144"/>
<text text-anchor="middle" x="2917" y="-120.97" font-family="Times New Roman,serif" font-size="12.00">+</text>
</g>
<!-- 2675081864848&#45;&gt;2675064130448 -->
<g id="edge41" class="edge">
<title>2675081864848&#45;&gt;2675064130448</title>
<path fill="none" stroke="black" d="M2842.14,-167.97C2855.53,-160.36 2875.91,-148.78 2891.87,-139.71"/>
<polygon fill="black" stroke="black" points="2893.32,-142.91 2900.29,-134.93 2889.86,-136.82 2893.32,-142.91"/>
</g>
<!-- 2675081864752&#45;&gt;2675081864368 -->
<g id="edge40" class="edge">
<title>2675081864752&#45;&gt;2675081864368</title>
<path fill="none" stroke="black" d="M2512.64,-134.03C2526.03,-141.64 2546.41,-153.22 2562.37,-162.29"/>
<polygon fill="black" stroke="black" points="2560.36,-165.18 2570.79,-167.07 2563.82,-159.09 2560.36,-165.18"/>
</g>
<!-- 2675064130976 -->
<g id="node38" class="node">
<title>2675064130976</title>
<polygon fill="none" stroke="black" points="3095.38,-290 2981.88,-290 2981.88,-254 3095.38,-254 3095.38,-290"/>
<text text-anchor="middle" x="3038.62" y="-266.98" font-family="Times New Roman,serif" font-size="12.00">Compile audit report</text>
</g>
<!-- 2675081864224&#45;&gt;2675064130976 -->
<g id="edge43" class="edge">
<title>2675081864224&#45;&gt;2675064130976</title>
<path fill="none" stroke="black" d="M2934.89,-232.49C2946.56,-236.98 2962.85,-243.25 2979.02,-249.46"/>
<polygon fill="black" stroke="black" points="2977.58,-252.66 2988.17,-252.98 2980.09,-246.13 2977.58,-252.66"/>
</g>
<!-- 2675081866336 -->
<g id="node34" class="node">
<title>2675081866336</title>
<polygon fill="none" stroke="black" points="3097.25,-198 2980,-198 2980,-162 3097.25,-162 3097.25,-198"/>
<text text-anchor="middle" x="3038.62" y="-174.97" font-family="Times New Roman,serif" font-size="12.00">Distribute final report</text>
</g>
<!-- 2675064130448&#45;&gt;2675081866336 -->
<g id="edge44" class="edge">
<title>2675064130448&#45;&gt;2675081866336</title>
<path fill="none" stroke="black" d="M2933.64,-133.06C2947.1,-139.14 2967.32,-148.26 2986.36,-156.86"/>
<polygon fill="black" stroke="black" points="2984.83,-160.01 2995.38,-160.93 2987.71,-153.63 2984.83,-160.01"/>
</g>
<!-- 2675081867920 -->
<g id="node35" class="node">
<title>2675081867920</title>
<polygon fill="none" stroke="black" points="3081.12,-144 2996.12,-144 2996.12,-108 3081.12,-108 3081.12,-144"/>
<text text-anchor="middle" x="3038.62" y="-120.97" font-family="Times New Roman,serif" font-size="12.00">Archive report</text>
</g>
<!-- 2675064130448&#45;&gt;2675081867920 -->
<g id="edge46" class="edge">
<title>2675064130448&#45;&gt;2675081867920</title>
<path fill="none" stroke="black" d="M2944.85,-126C2956.58,-126 2970.77,-126 2984.49,-126"/>
<polygon fill="black" stroke="black" points="2984.32,-129.5 2994.32,-126 2984.32,-122.5 2984.32,-129.5"/>
</g>
<!-- 2675064127616 -->
<g id="node36" class="node">
<title>2675064127616</title>
<polygon fill="none" stroke="black" points="3083,-90 2994.25,-90 2994.25,-54 3083,-54 3083,-90"/>
<text text-anchor="middle" x="3038.62" y="-66.97" font-family="Times New Roman,serif" font-size="12.00">Approve report</text>
</g>
<!-- 2675064130448&#45;&gt;2675064127616 -->
<g id="edge47" class="edge">
<title>2675064130448&#45;&gt;2675064127616</title>
<path fill="none" stroke="black" d="M2933.64,-118.94C2947.1,-112.86 2967.32,-103.74 2986.36,-95.14"/>
<polygon fill="black" stroke="black" points="2987.71,-98.37 2995.38,-91.07 2984.83,-91.99 2987.71,-98.37"/>
</g>
<!-- 2675064127904 -->
<g id="node37" class="node">
<title>2675064127904</title>
<polygon fill="none" stroke="black" points="3092.38,-36 2984.88,-36 2984.88,0 3092.38,0 3092.38,-36"/>
<text text-anchor="middle" x="3038.62" y="-12.97" font-family="Times New Roman,serif" font-size="12.00">Close audit process</text>
</g>
<!-- 2675064130448&#45;&gt;2675064127904 -->
<g id="edge45" class="edge">
<title>2675064130448&#45;&gt;2675064127904</title>
<path fill="none" stroke="black" d="M2925.27,-112.94C2935.52,-95.5 2955.72,-64.55 2980,-45 2980.97,-44.22 2981.96,-43.46 2982.98,-42.71"/>
<polygon fill="black" stroke="black" points="2984.87,-45.65 2991.34,-37.26 2981.05,-39.79 2984.87,-45.65"/>
</g>
<!-- 2675081869888 -->
<g id="node39" class="node">
<title>2675081869888</title>
<polygon fill="none" stroke="black" points="3215.12,-144 3188.12,-126 3215.12,-108 3242.12,-126 3215.12,-144"/>
<text text-anchor="middle" x="3215.12" y="-120.97" font-family="Times New Roman,serif" font-size="12.00">+</text>
</g>
<!-- 2675081866336&#45;&gt;2675081869888 -->
<g id="edge48" class="edge">
<title>2675081866336&#45;&gt;2675081869888</title>
<path fill="none" stroke="black" d="M3097.73,-162.02C3127.04,-152.95 3161.31,-142.34 3185.04,-135"/>
<polygon fill="black" stroke="black" points="3185.81,-138.43 3194.32,-132.13 3183.74,-131.74 3185.81,-138.43"/>
</g>
<!-- 2675081867920&#45;&gt;2675081869888 -->
<g id="edge49" class="edge">
<title>2675081867920&#45;&gt;2675081869888</title>
<path fill="none" stroke="black" d="M3081.42,-126C3110.18,-126 3148.09,-126 3176.02,-126"/>
<polygon fill="black" stroke="black" points="3175.81,-129.5 3185.81,-126 3175.81,-122.5 3175.81,-129.5"/>
</g>
<!-- 2675064127616&#45;&gt;2675081869888 -->
<g id="edge50" class="edge">
<title>2675064127616&#45;&gt;2675081869888</title>
<path fill="none" stroke="black" d="M3083.21,-85.49C3115.01,-95.33 3157.23,-108.39 3185.02,-116.99"/>
<polygon fill="black" stroke="black" points="3183.94,-120.32 3194.52,-119.93 3186.01,-113.63 3183.94,-120.32"/>
</g>
<!-- 2675064127904&#45;&gt;2675081869888 -->
<g id="edge51" class="edge">
<title>2675064127904&#45;&gt;2675081869888</title>
<path fill="none" stroke="black" d="M3081.29,-36.5C3086.73,-39.21 3092.17,-42.08 3097.25,-45 3132.11,-65.06 3169.93,-92.38 3192.82,-109.61"/>
<polygon fill="black" stroke="black" points="3190.66,-112.36 3200.75,-115.62 3194.9,-106.79 3190.66,-112.36"/>
</g>
<!-- 2675064128960 -->
<g id="node40" class="node">
<title>2675064128960</title>
<polygon fill="none" stroke="black" points="3297,-290 3133.25,-290 3133.25,-254 3297,-254 3297,-290"/>
<text text-anchor="middle" x="3215.12" y="-266.98" font-family="Times New Roman,serif" font-size="12.00">Review report by audit director</text>
</g>
<!-- 2675064130976&#45;&gt;2675064128960 -->
<g id="edge52" class="edge">
<title>2675064130976&#45;&gt;2675064128960</title>
<path fill="none" stroke="black" d="M3095.8,-272C3104.04,-272 3112.71,-272 3121.45,-272"/>
<polygon fill="black" stroke="black" points="3121.45,-275.5 3131.45,-272 3121.45,-268.5 3121.45,-275.5"/>
</g>
<!-- 2675081863168 -->
<g id="node41" class="node">
<title>2675081863168</title>
<polygon fill="none" stroke="black" points="3794.75,-194 3767.75,-176 3794.75,-158 3821.75,-176 3794.75,-194"/>
<text text-anchor="middle" x="3794.75" y="-170.97" font-family="Times New Roman,serif" font-size="12.00">X</text>
</g>
<!-- 2675081869888&#45;&gt;2675081863168 -->
<g id="edge53" class="edge">
<title>2675081869888&#45;&gt;2675081863168</title>
<path fill="none" stroke="black" d="M3239.85,-128.05C3329.99,-135.86 3651.61,-163.7 3758.75,-172.97"/>
<polygon fill="black" stroke="black" points="3758.38,-176.45 3768.64,-173.83 3758.98,-169.48 3758.38,-176.45"/>
</g>
<!-- 2675064130112 -->
<g id="node42" class="node">
<title>2675064130112</title>
<polygon fill="none" stroke="black" points="3460.75,-290 3333,-290 3333,-254 3460.75,-254 3460.75,-290"/>
<text text-anchor="middle" x="3396.88" y="-266.98" font-family="Times New Roman,serif" font-size="12.00">Send report for revision</text>
</g>
<!-- 2675064128960&#45;&gt;2675064130112 -->
<g id="edge54" class="edge">
<title>2675064128960&#45;&gt;2675064130112</title>
<path fill="none" stroke="black" d="M3297.32,-272C3305.26,-272 3313.29,-272 3321.16,-272"/>
<polygon fill="black" stroke="black" points="3321.04,-275.5 3331.04,-272 3321.04,-268.5 3321.04,-275.5"/>
</g>
<!-- 2675064140816 -->
<g id="node45" class="node">
<title>2675064140816</title>
<ellipse fill="orange" stroke="black" cx="3875.75" cy="-176" rx="18" ry="18"/>
</g>
<!-- 2675081863168&#45;&gt;2675064140816 -->
<g id="edge56" class="edge">
<title>2675081863168&#45;&gt;2675064140816</title>
<path fill="none" stroke="black" d="M3822.5,-176C3830.13,-176 3838.48,-176 3846.22,-176"/>
<polygon fill="black" stroke="black" points="3846.18,-179.5 3856.18,-176 3846.18,-172.5 3846.18,-179.5"/>
</g>
<!-- 2675064129392 -->
<g id="node43" class="node">
<title>2675064129392</title>
<polygon fill="none" stroke="black" points="3641.75,-290 3496.75,-290 3496.75,-254 3641.75,-254 3641.75,-290"/>
<text text-anchor="middle" x="3569.25" y="-266.98" font-family="Times New Roman,serif" font-size="12.00">Update and resubmit report</text>
</g>
<!-- 2675064130112&#45;&gt;2675064129392 -->
<g id="edge55" class="edge">
<title>2675064130112&#45;&gt;2675064129392</title>
<path fill="none" stroke="black" d="M3460.83,-272C3468.69,-272 3476.82,-272 3484.93,-272"/>
<polygon fill="black" stroke="black" points="3484.84,-275.5 3494.84,-272 3484.84,-268.5 3484.84,-275.5"/>
</g>
<!-- 2675081860912 -->
<g id="node44" class="node">
<title>2675081860912</title>
<polygon fill="none" stroke="black" points="3704.75,-244 3677.75,-226 3704.75,-208 3731.75,-226 3704.75,-244"/>
<text text-anchor="middle" x="3704.75" y="-220.97" font-family="Times New Roman,serif" font-size="12.00">X</text>
</g>
<!-- 2675064129392&#45;&gt;2675081860912 -->
<g id="edge57" class="edge">
<title>2675064129392&#45;&gt;2675081860912</title>
<path fill="none" stroke="black" d="M3623.78,-253.56C3641.47,-247.46 3660.45,-240.92 3675.48,-235.74"/>
<polygon fill="black" stroke="black" points="3676.37,-239.14 3684.68,-232.57 3674.08,-232.52 3676.37,-239.14"/>
</g>
<!-- 2675081860912&#45;&gt;2675081864224 -->
<g id="edge58" class="edge">
<title>2675081860912&#45;&gt;2675081864224</title>
<path fill="none" stroke="black" d="M3677.16,-226C3624.07,-226 3501.16,-226 3397.88,-226 3214.12,-226 3214.12,-226 3214.12,-226 3121.25,-226 3011.99,-226 2955.72,-226"/>
<polygon fill="black" stroke="black" points="2956.06,-222.5 2946.06,-226 2956.06,-229.5 2956.06,-222.5"/>
</g>
<!-- 2675081860912&#45;&gt;2675081863168 -->
<g id="edge59" class="edge">
<title>2675081860912&#45;&gt;2675081863168</title>
<path fill="none" stroke="black" d="M3719.89,-217.97C3733.28,-210.36 3753.66,-198.78 3769.62,-189.71"/>
<polygon fill="black" stroke="black" points="3771.07,-192.91 3778.04,-184.93 3767.61,-186.82 3771.07,-192.91"/>
</g>
</g>
</svg>
