<?xml version="1.0" encoding="UTF-8" standalone="no"?>
<!DOCTYPE svg PUBLIC "-//W3C//DTD SVG 1.1//EN"
 "http://www.w3.org/Graphics/SVG/1.1/DTD/svg11.dtd">
<!-- Generated by graphviz version 11.0.0 (20240428.1522)
 -->
<!-- Pages: 1 -->
<svg width="6057pt" height="333pt"
 viewBox="0.00 0.00 6057.25 333.00" xmlns="http://www.w3.org/2000/svg" xmlns:xlink="http://www.w3.org/1999/xlink">
<g id="graph0" class="graph" transform="scale(1 1) rotate(0) translate(4 329)">
<polygon fill="white" stroke="none" points="-4,4 -4,-329 6053.25,-329 6053.25,4 -4,4"/>
<!-- 2675063233168 -->
<g id="node1" class="node">
<title>2675063233168</title>
<ellipse fill="green" stroke="black" cx="18" cy="-147" rx="18" ry="18"/>
</g>
<!-- 2675063843648 -->
<g id="node2" class="node">
<title>2675063843648</title>
<polygon fill="none" stroke="black" points="168.25,-165 72,-165 72,-129 168.25,-129 168.25,-165"/>
<text text-anchor="middle" x="120.12" y="-141.97" font-family="Times New Roman,serif" font-size="12.00">Send notification</text>
</g>
<!-- 2675063233168&#45;&gt;2675063843648 -->
<g id="edge1" class="edge">
<title>2675063233168&#45;&gt;2675063843648</title>
<path fill="none" stroke="black" d="M36.44,-147C43.3,-147 51.6,-147 60.26,-147"/>
<polygon fill="black" stroke="black" points="60.26,-150.5 70.26,-147 60.26,-143.5 60.26,-150.5"/>
</g>
<!-- 2675063843072 -->
<g id="node3" class="node">
<title>2675063843072</title>
<polygon fill="none" stroke="black" points="231.25,-165 204.25,-147 231.25,-129 258.25,-147 231.25,-165"/>
<text text-anchor="middle" x="231.25" y="-141.97" font-family="Times New Roman,serif" font-size="12.00">+</text>
</g>
<!-- 2675063843648&#45;&gt;2675063843072 -->
<g id="edge2" class="edge">
<title>2675063843648&#45;&gt;2675063843072</title>
<path fill="none" stroke="black" d="M168.67,-147C176.51,-147 184.55,-147 192.12,-147"/>
<polygon fill="black" stroke="black" points="192.02,-150.5 202.02,-147 192.02,-143.5 192.02,-150.5"/>
</g>
<!-- 2675063926576 -->
<g id="node4" class="node">
<title>2675063926576</title>
<polygon fill="none" stroke="black" points="445.25,-219 294.25,-219 294.25,-183 445.25,-183 445.25,-219"/>
<text text-anchor="middle" x="369.75" y="-195.97" font-family="Times New Roman,serif" font-size="12.00">Gather necessary documents</text>
</g>
<!-- 2675063843072&#45;&gt;2675063926576 -->
<g id="edge5" class="edge">
<title>2675063843072&#45;&gt;2675063926576</title>
<path fill="none" stroke="black" d="M248.19,-154.27C260.65,-159.87 278.44,-167.7 294.25,-174 298.05,-175.52 301.98,-177.04 305.94,-178.56"/>
<polygon fill="black" stroke="black" points="304.48,-181.75 315.07,-182 306.95,-175.2 304.48,-181.75"/>
</g>
<!-- 2675063842640 -->
<g id="node5" class="node">
<title>2675063842640</title>
<polygon fill="none" stroke="black" points="443.38,-165 296.12,-165 296.12,-129 443.38,-129 443.38,-165"/>
<text text-anchor="middle" x="369.75" y="-141.97" font-family="Times New Roman,serif" font-size="12.00">Prepare financial statements</text>
</g>
<!-- 2675063843072&#45;&gt;2675063842640 -->
<g id="edge4" class="edge">
<title>2675063843072&#45;&gt;2675063842640</title>
<path fill="none" stroke="black" d="M258.89,-147C266.5,-147 275.23,-147 284.37,-147"/>
<polygon fill="black" stroke="black" points="284.16,-150.5 294.16,-147 284.16,-143.5 284.16,-150.5"/>
</g>
<!-- 2675063845328 -->
<g id="node6" class="node">
<title>2675063845328</title>
<polygon fill="none" stroke="black" points="438.12,-111 301.38,-111 301.38,-75 438.12,-75 438.12,-111"/>
<text text-anchor="middle" x="369.75" y="-87.97" font-family="Times New Roman,serif" font-size="12.00">Check regulatory updates</text>
</g>
<!-- 2675063843072&#45;&gt;2675063845328 -->
<g id="edge3" class="edge">
<title>2675063843072&#45;&gt;2675063845328</title>
<path fill="none" stroke="black" d="M248.19,-139.73C260.65,-134.13 278.44,-126.3 294.25,-120 298.05,-118.48 301.98,-116.96 305.94,-115.44"/>
<polygon fill="black" stroke="black" points="306.95,-118.8 315.07,-112 304.48,-112.25 306.95,-118.8"/>
</g>
<!-- 2675063848544 -->
<g id="node7" class="node">
<title>2675063848544</title>
<polygon fill="none" stroke="black" points="508.25,-165 481.25,-147 508.25,-129 535.25,-147 508.25,-165"/>
<text text-anchor="middle" x="508.25" y="-141.97" font-family="Times New Roman,serif" font-size="12.00">+</text>
</g>
<!-- 2675063926576&#45;&gt;2675063848544 -->
<g id="edge6" class="edge">
<title>2675063926576&#45;&gt;2675063848544</title>
<path fill="none" stroke="black" d="M423.01,-182.53C430.5,-179.75 438.09,-176.85 445.25,-174 457.11,-169.27 470.08,-163.69 481.08,-158.83"/>
<polygon fill="black" stroke="black" points="482.22,-162.16 489.93,-154.89 479.37,-155.76 482.22,-162.16"/>
</g>
<!-- 2675063842640&#45;&gt;2675063848544 -->
<g id="edge7" class="edge">
<title>2675063842640&#45;&gt;2675063848544</title>
<path fill="none" stroke="black" d="M443.8,-147C452.55,-147 461.2,-147 469.16,-147"/>
<polygon fill="black" stroke="black" points="469.13,-150.5 479.13,-147 469.13,-143.5 469.13,-150.5"/>
</g>
<!-- 2675063845328&#45;&gt;2675063848544 -->
<g id="edge8" class="edge">
<title>2675063845328&#45;&gt;2675063848544</title>
<path fill="none" stroke="black" d="M423.01,-111.47C430.5,-114.25 438.09,-117.15 445.25,-120 457.11,-124.73 470.08,-130.31 481.08,-135.17"/>
<polygon fill="black" stroke="black" points="479.37,-138.24 489.93,-139.11 482.22,-131.84 479.37,-138.24"/>
</g>
<!-- 2675063848832 -->
<g id="node8" class="node">
<title>2675063848832</title>
<polygon fill="none" stroke="black" points="675,-165 571.25,-165 571.25,-129 675,-129 675,-165"/>
<text text-anchor="middle" x="623.12" y="-141.97" font-family="Times New Roman,serif" font-size="12.00">Submit documents</text>
</g>
<!-- 2675063848544&#45;&gt;2675063848832 -->
<g id="edge9" class="edge">
<title>2675063848544&#45;&gt;2675063848832</title>
<path fill="none" stroke="black" d="M536,-147C543.17,-147 551.24,-147 559.48,-147"/>
<polygon fill="black" stroke="black" points="559.25,-150.5 569.25,-147 559.25,-143.5 559.25,-150.5"/>
</g>
<!-- 2675063847056 -->
<g id="node9" class="node">
<title>2675063847056</title>
<polygon fill="none" stroke="black" points="819.25,-165 711,-165 711,-129 819.25,-129 819.25,-165"/>
<text text-anchor="middle" x="765.12" y="-141.97" font-family="Times New Roman,serif" font-size="12.00">Review submission</text>
</g>
<!-- 2675063848832&#45;&gt;2675063847056 -->
<g id="edge10" class="edge">
<title>2675063848832&#45;&gt;2675063847056</title>
<path fill="none" stroke="black" d="M675.46,-147C683.31,-147 691.5,-147 699.59,-147"/>
<polygon fill="black" stroke="black" points="699.4,-150.5 709.4,-147 699.4,-143.5 699.4,-150.5"/>
</g>
<!-- 2675063930704 -->
<g id="node10" class="node">
<title>2675063930704</title>
<polygon fill="none" stroke="black" points="882.25,-165 855.25,-147 882.25,-129 909.25,-147 882.25,-165"/>
<text text-anchor="middle" x="882.25" y="-141.97" font-family="Times New Roman,serif" font-size="12.00">X</text>
</g>
<!-- 2675063847056&#45;&gt;2675063930704 -->
<g id="edge11" class="edge">
<title>2675063847056&#45;&gt;2675063930704</title>
<path fill="none" stroke="black" d="M819.64,-147C827.58,-147 835.62,-147 843.16,-147"/>
<polygon fill="black" stroke="black" points="842.99,-150.5 852.99,-147 842.99,-143.5 842.99,-150.5"/>
</g>
<!-- 2675063932688 -->
<g id="node11" class="node">
<title>2675063932688</title>
<polygon fill="none" stroke="black" points="1357.5,-165 1330.5,-147 1357.5,-129 1384.5,-147 1357.5,-165"/>
<text text-anchor="middle" x="1357.5" y="-141.97" font-family="Times New Roman,serif" font-size="12.00">X</text>
</g>
<!-- 2675063930704&#45;&gt;2675063932688 -->
<g id="edge12" class="edge">
<title>2675063930704&#45;&gt;2675063932688</title>
<path fill="none" stroke="black" d="M907.08,-148.9C918.6,-149.72 932.64,-150.59 945.25,-151 1100.39,-156 1139.36,-156 1294.5,-151 1303.17,-150.72 1312.52,-150.22 1321.25,-149.67"/>
<polygon fill="black" stroke="black" points="1321.42,-153.17 1331.16,-149 1320.95,-146.18 1321.42,-153.17"/>
</g>
<!-- 2675063845664 -->
<g id="node12" class="node">
<title>2675063845664</title>
<polygon fill="none" stroke="black" points="1141.25,-142 945.25,-142 945.25,-106 1141.25,-106 1141.25,-142"/>
<text text-anchor="middle" x="1043.25" y="-118.97" font-family="Times New Roman,serif" font-size="12.00">Request clarifications of discrepancies</text>
</g>
<!-- 2675063930704&#45;&gt;2675063845664 -->
<g id="edge13" class="edge">
<title>2675063930704&#45;&gt;2675063845664</title>
<path fill="none" stroke="black" d="M905.02,-143.85C913.1,-142.68 922.91,-141.26 933.52,-139.73"/>
<polygon fill="black" stroke="black" points="933.94,-143.2 943.34,-138.31 932.94,-136.28 933.94,-143.2"/>
</g>
<!-- 2675063926864 -->
<g id="node13" class="node">
<title>2675063926864</title>
<polygon fill="none" stroke="black" points="1607.5,-165 1420.5,-165 1420.5,-129 1607.5,-129 1607.5,-165"/>
<text text-anchor="middle" x="1514" y="-141.97" font-family="Times New Roman,serif" font-size="12.00">Complete risk assessment/mitigation</text>
</g>
<!-- 2675063932688&#45;&gt;2675063926864 -->
<g id="edge14" class="edge">
<title>2675063932688&#45;&gt;2675063926864</title>
<path fill="none" stroke="black" d="M1385.06,-147C1392.08,-147 1400.1,-147 1408.62,-147"/>
<polygon fill="black" stroke="black" points="1408.56,-150.5 1418.56,-147 1408.56,-143.5 1408.56,-150.5"/>
</g>
<!-- 2675063842976 -->
<g id="node14" class="node">
<title>2675063842976</title>
<polygon fill="none" stroke="black" points="1294.5,-142 1177.25,-142 1177.25,-106 1294.5,-106 1294.5,-142"/>
<text text-anchor="middle" x="1235.88" y="-118.97" font-family="Times New Roman,serif" font-size="12.00">Receive clarifications</text>
</g>
<!-- 2675063845664&#45;&gt;2675063842976 -->
<g id="edge15" class="edge">
<title>2675063845664&#45;&gt;2675063842976</title>
<path fill="none" stroke="black" d="M1141.52,-124C1149.66,-124 1157.78,-124 1165.64,-124"/>
<polygon fill="black" stroke="black" points="1165.44,-127.5 1175.44,-124 1165.44,-120.5 1165.44,-127.5"/>
</g>
<!-- 2675063838896 -->
<g id="node15" class="node">
<title>2675063838896</title>
<polygon fill="none" stroke="black" points="1830.5,-165 1643.5,-165 1643.5,-129 1830.5,-129 1830.5,-165"/>
<text text-anchor="middle" x="1737" y="-141.97" font-family="Times New Roman,serif" font-size="12.00">Complete risk assessment/mitigation</text>
</g>
<!-- 2675063926864&#45;&gt;2675063838896 -->
<g id="edge17" class="edge">
<title>2675063926864&#45;&gt;2675063838896</title>
<path fill="none" stroke="black" d="M1607.76,-147C1615.71,-147 1623.79,-147 1631.82,-147"/>
<polygon fill="black" stroke="black" points="1631.61,-150.5 1641.61,-147 1631.61,-143.5 1631.61,-150.5"/>
</g>
<!-- 2675063842976&#45;&gt;2675063932688 -->
<g id="edge16" class="edge">
<title>2675063842976&#45;&gt;2675063932688</title>
<path fill="none" stroke="black" d="M1294.94,-135.16C1305.12,-137.12 1315.37,-139.09 1324.5,-140.85"/>
<polygon fill="black" stroke="black" points="1323.81,-144.28 1334.29,-142.73 1325.13,-137.4 1323.81,-144.28"/>
</g>
<!-- 2675063833136 -->
<g id="node16" class="node">
<title>2675063833136</title>
<polygon fill="none" stroke="black" points="1893.5,-165 1866.5,-147 1893.5,-129 1920.5,-147 1893.5,-165"/>
<text text-anchor="middle" x="1893.5" y="-141.97" font-family="Times New Roman,serif" font-size="12.00">+</text>
</g>
<!-- 2675063838896&#45;&gt;2675063833136 -->
<g id="edge18" class="edge">
<title>2675063838896&#45;&gt;2675063833136</title>
<path fill="none" stroke="black" d="M1830.99,-147C1839.2,-147 1847.16,-147 1854.47,-147"/>
<polygon fill="black" stroke="black" points="1854.24,-150.5 1864.24,-147 1854.24,-143.5 1854.24,-150.5"/>
</g>
<!-- 2675063838464 -->
<g id="node17" class="node">
<title>2675063838464</title>
<polygon fill="none" stroke="black" points="2088.75,-219 1963.25,-219 1963.25,-183 2088.75,-183 2088.75,-219"/>
<text text-anchor="middle" x="2026" y="-195.97" font-family="Times New Roman,serif" font-size="12.00">Evaluate financial risks</text>
</g>
<!-- 2675063833136&#45;&gt;2675063838464 -->
<g id="edge21" class="edge">
<title>2675063833136&#45;&gt;2675063838464</title>
<path fill="none" stroke="black" d="M1910.49,-154.15C1922.97,-159.68 1940.77,-167.48 1956.5,-174 1960.03,-175.46 1963.67,-176.95 1967.35,-178.45"/>
<polygon fill="black" stroke="black" points="1965.76,-181.58 1976.34,-182.06 1968.37,-175.08 1965.76,-181.58"/>
</g>
<!-- 2675063844656 -->
<g id="node18" class="node">
<title>2675063844656</title>
<polygon fill="none" stroke="black" points="2094.75,-165 1957.25,-165 1957.25,-129 2094.75,-129 2094.75,-165"/>
<text text-anchor="middle" x="2026" y="-141.97" font-family="Times New Roman,serif" font-size="12.00">Evaluate operational risks</text>
</g>
<!-- 2675063833136&#45;&gt;2675063844656 -->
<g id="edge20" class="edge">
<title>2675063833136&#45;&gt;2675063844656</title>
<path fill="none" stroke="black" d="M1921.22,-147C1928.48,-147 1936.73,-147 1945.33,-147"/>
<polygon fill="black" stroke="black" points="1945.28,-150.5 1955.28,-147 1945.28,-143.5 1945.28,-150.5"/>
</g>
<!-- 2675063847776 -->
<g id="node19" class="node">
<title>2675063847776</title>
<polygon fill="none" stroke="black" points="2095.5,-111 1956.5,-111 1956.5,-75 2095.5,-75 2095.5,-111"/>
<text text-anchor="middle" x="2026" y="-87.97" font-family="Times New Roman,serif" font-size="12.00">Evaluate compliance risks</text>
</g>
<!-- 2675063833136&#45;&gt;2675063847776 -->
<g id="edge19" class="edge">
<title>2675063833136&#45;&gt;2675063847776</title>
<path fill="none" stroke="black" d="M1910.49,-139.85C1922.97,-134.32 1940.77,-126.52 1956.5,-120 1960.03,-118.54 1963.67,-117.05 1967.35,-115.55"/>
<polygon fill="black" stroke="black" points="1968.37,-118.92 1976.34,-111.94 1965.76,-112.42 1968.37,-118.92"/>
</g>
<!-- 2675063839952 -->
<g id="node20" class="node">
<title>2675063839952</title>
<polygon fill="none" stroke="black" points="2158.5,-165 2131.5,-147 2158.5,-129 2185.5,-147 2158.5,-165"/>
<text text-anchor="middle" x="2158.5" y="-141.97" font-family="Times New Roman,serif" font-size="12.00">+</text>
</g>
<!-- 2675063838464&#45;&gt;2675063839952 -->
<g id="edge22" class="edge">
<title>2675063838464&#45;&gt;2675063839952</title>
<path fill="none" stroke="black" d="M2074.25,-182.63C2081.39,-179.78 2088.65,-176.84 2095.5,-174 2107.29,-169.11 2120.26,-163.5 2131.27,-158.67"/>
<polygon fill="black" stroke="black" points="2132.39,-162 2140.12,-154.76 2129.56,-155.59 2132.39,-162"/>
</g>
<!-- 2675063844656&#45;&gt;2675063839952 -->
<g id="edge23" class="edge">
<title>2675063844656&#45;&gt;2675063839952</title>
<path fill="none" stroke="black" d="M2094.93,-147C2103.4,-147 2111.81,-147 2119.59,-147"/>
<polygon fill="black" stroke="black" points="2119.32,-150.5 2129.32,-147 2119.32,-143.5 2119.32,-150.5"/>
</g>
<!-- 2675063847776&#45;&gt;2675063839952 -->
<g id="edge24" class="edge">
<title>2675063847776&#45;&gt;2675063839952</title>
<path fill="none" stroke="black" d="M2074.25,-111.37C2081.39,-114.22 2088.65,-117.16 2095.5,-120 2107.29,-124.89 2120.26,-130.5 2131.27,-135.33"/>
<polygon fill="black" stroke="black" points="2129.56,-138.41 2140.12,-139.24 2132.39,-132 2129.56,-138.41"/>
</g>
<!-- 2675063840240 -->
<g id="node21" class="node">
<title>2675063840240</title>
<polygon fill="none" stroke="black" points="2408.5,-165 2221.5,-165 2221.5,-129 2408.5,-129 2408.5,-165"/>
<text text-anchor="middle" x="2315" y="-141.97" font-family="Times New Roman,serif" font-size="12.00">Complete risk assessment/mitigation</text>
</g>
<!-- 2675063839952&#45;&gt;2675063840240 -->
<g id="edge25" class="edge">
<title>2675063839952&#45;&gt;2675063840240</title>
<path fill="none" stroke="black" d="M2186.06,-147C2193.08,-147 2201.1,-147 2209.62,-147"/>
<polygon fill="black" stroke="black" points="2209.56,-150.5 2219.56,-147 2209.56,-143.5 2209.56,-150.5"/>
</g>
<!-- 2675063839664 -->
<g id="node22" class="node">
<title>2675063839664</title>
<polygon fill="none" stroke="black" points="2471.5,-165 2444.5,-147 2471.5,-129 2498.5,-147 2471.5,-165"/>
<text text-anchor="middle" x="2471.5" y="-141.97" font-family="Times New Roman,serif" font-size="12.00">+</text>
</g>
<!-- 2675063840240&#45;&gt;2675063839664 -->
<g id="edge26" class="edge">
<title>2675063840240&#45;&gt;2675063839664</title>
<path fill="none" stroke="black" d="M2408.99,-147C2417.2,-147 2425.16,-147 2432.47,-147"/>
<polygon fill="black" stroke="black" points="2432.24,-150.5 2442.24,-147 2432.24,-143.5 2432.24,-150.5"/>
</g>
<!-- 2675063839904 -->
<g id="node23" class="node">
<title>2675063839904</title>
<polygon fill="none" stroke="black" points="2672.75,-219 2535.25,-219 2535.25,-183 2672.75,-183 2672.75,-219"/>
<text text-anchor="middle" x="2604" y="-195.97" font-family="Times New Roman,serif" font-size="12.00">Evaluate operational risks</text>
</g>
<!-- 2675063839664&#45;&gt;2675063839904 -->
<g id="edge29" class="edge">
<title>2675063839664&#45;&gt;2675063839904</title>
<path fill="none" stroke="black" d="M2488.49,-154.15C2500.97,-159.68 2518.77,-167.48 2534.5,-174 2538.03,-175.46 2541.67,-176.95 2545.35,-178.45"/>
<polygon fill="black" stroke="black" points="2543.76,-181.58 2554.34,-182.06 2546.37,-175.08 2543.76,-181.58"/>
</g>
<!-- 2675063841296 -->
<g id="node24" class="node">
<title>2675063841296</title>
<polygon fill="none" stroke="black" points="2666.75,-165 2541.25,-165 2541.25,-129 2666.75,-129 2666.75,-165"/>
<text text-anchor="middle" x="2604" y="-141.97" font-family="Times New Roman,serif" font-size="12.00">Evaluate financial risks</text>
</g>
<!-- 2675063839664&#45;&gt;2675063841296 -->
<g id="edge28" class="edge">
<title>2675063839664&#45;&gt;2675063841296</title>
<path fill="none" stroke="black" d="M2499.22,-147C2508.19,-147 2518.67,-147 2529.45,-147"/>
<polygon fill="black" stroke="black" points="2529.24,-150.5 2539.24,-147 2529.24,-143.5 2529.24,-150.5"/>
</g>
<!-- 2675063928544 -->
<g id="node25" class="node">
<title>2675063928544</title>
<polygon fill="none" stroke="black" points="2673.5,-111 2534.5,-111 2534.5,-75 2673.5,-75 2673.5,-111"/>
<text text-anchor="middle" x="2604" y="-87.97" font-family="Times New Roman,serif" font-size="12.00">Evaluate compliance risks</text>
</g>
<!-- 2675063839664&#45;&gt;2675063928544 -->
<g id="edge27" class="edge">
<title>2675063839664&#45;&gt;2675063928544</title>
<path fill="none" stroke="black" d="M2488.49,-139.85C2500.97,-134.32 2518.77,-126.52 2534.5,-120 2538.03,-118.54 2541.67,-117.05 2545.35,-115.55"/>
<polygon fill="black" stroke="black" points="2546.37,-118.92 2554.34,-111.94 2543.76,-112.42 2546.37,-118.92"/>
</g>
<!-- 2675063847824 -->
<g id="node26" class="node">
<title>2675063847824</title>
<polygon fill="none" stroke="black" points="2736.5,-165 2709.5,-147 2736.5,-129 2763.5,-147 2736.5,-165"/>
<text text-anchor="middle" x="2736.5" y="-141.97" font-family="Times New Roman,serif" font-size="12.00">+</text>
</g>
<!-- 2675063839904&#45;&gt;2675063847824 -->
<g id="edge30" class="edge">
<title>2675063839904&#45;&gt;2675063847824</title>
<path fill="none" stroke="black" d="M2652.25,-182.63C2659.39,-179.78 2666.65,-176.84 2673.5,-174 2685.29,-169.11 2698.26,-163.5 2709.27,-158.67"/>
<polygon fill="black" stroke="black" points="2710.39,-162 2718.12,-154.76 2707.56,-155.59 2710.39,-162"/>
</g>
<!-- 2675063841296&#45;&gt;2675063847824 -->
<g id="edge31" class="edge">
<title>2675063841296&#45;&gt;2675063847824</title>
<path fill="none" stroke="black" d="M2667.19,-147C2677.44,-147 2687.79,-147 2697.22,-147"/>
<polygon fill="black" stroke="black" points="2697.1,-150.5 2707.1,-147 2697.1,-143.5 2697.1,-150.5"/>
</g>
<!-- 2675063928544&#45;&gt;2675063847824 -->
<g id="edge32" class="edge">
<title>2675063928544&#45;&gt;2675063847824</title>
<path fill="none" stroke="black" d="M2652.25,-111.37C2659.39,-114.22 2666.65,-117.16 2673.5,-120 2685.29,-124.89 2698.26,-130.5 2709.27,-135.33"/>
<polygon fill="black" stroke="black" points="2707.56,-138.41 2718.12,-139.24 2710.39,-132 2707.56,-138.41"/>
</g>
<!-- 2675063848112 -->
<g id="node27" class="node">
<title>2675063848112</title>
<polygon fill="none" stroke="black" points="2954.25,-165 2799.5,-165 2799.5,-129 2954.25,-129 2954.25,-165"/>
<text text-anchor="middle" x="2876.88" y="-141.97" font-family="Times New Roman,serif" font-size="12.00">Launch detailed investigation</text>
</g>
<!-- 2675063847824&#45;&gt;2675063848112 -->
<g id="edge33" class="edge">
<title>2675063847824&#45;&gt;2675063848112</title>
<path fill="none" stroke="black" d="M2764.18,-147C2771.28,-147 2779.35,-147 2787.84,-147"/>
<polygon fill="black" stroke="black" points="2787.66,-150.5 2797.66,-147 2787.66,-143.5 2787.66,-150.5"/>
</g>
<!-- 2675063930080 -->
<g id="node28" class="node">
<title>2675063930080</title>
<polygon fill="none" stroke="black" points="3017.25,-165 2990.25,-147 3017.25,-129 3044.25,-147 3017.25,-165"/>
<text text-anchor="middle" x="3017.25" y="-141.97" font-family="Times New Roman,serif" font-size="12.00">X</text>
</g>
<!-- 2675063848112&#45;&gt;2675063930080 -->
<g id="edge34" class="edge">
<title>2675063848112&#45;&gt;2675063930080</title>
<path fill="none" stroke="black" d="M2954.35,-147C2962.53,-147 2970.58,-147 2978.03,-147"/>
<polygon fill="black" stroke="black" points="2978.02,-150.5 2988.02,-147 2978.02,-143.5 2978.02,-150.5"/>
</g>
<!-- 2675063931200 -->
<g id="node29" class="node">
<title>2675063931200</title>
<polygon fill="none" stroke="black" points="3442.75,-140 3415.75,-122 3442.75,-104 3469.75,-122 3442.75,-140"/>
<text text-anchor="middle" x="3442.75" y="-116.97" font-family="Times New Roman,serif" font-size="12.00">X</text>
</g>
<!-- 2675063930080&#45;&gt;2675063931200 -->
<g id="edge36" class="edge">
<title>2675063930080&#45;&gt;2675063931200</title>
<path fill="none" stroke="black" d="M3041.21,-149.4C3088.07,-153.88 3198.04,-162.26 3289.75,-153 3332.57,-148.68 3381.15,-137.67 3411.62,-130.01"/>
<polygon fill="black" stroke="black" points="3412.46,-133.41 3421.28,-127.54 3410.72,-126.63 3412.46,-133.41"/>
</g>
<!-- 2675063848160 -->
<g id="node30" class="node">
<title>2675063848160</title>
<polygon fill="none" stroke="black" points="3107.25,-115 3080.25,-97 3107.25,-79 3134.25,-97 3107.25,-115"/>
<text text-anchor="middle" x="3107.25" y="-91.97" font-family="Times New Roman,serif" font-size="12.00">+</text>
</g>
<!-- 2675063930080&#45;&gt;2675063848160 -->
<g id="edge35" class="edge">
<title>2675063930080&#45;&gt;2675063848160</title>
<path fill="none" stroke="black" d="M3032.39,-138.97C3045.78,-131.36 3066.16,-119.78 3082.12,-110.71"/>
<polygon fill="black" stroke="black" points="3083.57,-113.91 3090.54,-105.93 3080.11,-107.82 3083.57,-113.91"/>
</g>
<!-- 2675063839568 -->
<g id="node31" class="node">
<title>2675063839568</title>
<polygon fill="none" stroke="black" points="3619.25,-140 3505.75,-140 3505.75,-104 3619.25,-104 3619.25,-140"/>
<text text-anchor="middle" x="3562.5" y="-116.97" font-family="Times New Roman,serif" font-size="12.00">Compile audit report</text>
</g>
<!-- 2675063931200&#45;&gt;2675063839568 -->
<g id="edge37" class="edge">
<title>2675063931200&#45;&gt;2675063839568</title>
<path fill="none" stroke="black" d="M3470.47,-122C3477.65,-122 3485.76,-122 3494.1,-122"/>
<polygon fill="black" stroke="black" points="3494.03,-125.5 3504.03,-122 3494.03,-118.5 3494.03,-125.5"/>
</g>
<!-- 2675063840960 -->
<g id="node32" class="node">
<title>2675063840960</title>
<polygon fill="none" stroke="black" points="3280,-144 3180,-144 3180,-108 3280,-108 3280,-144"/>
<text text-anchor="middle" x="3230" y="-120.97" font-family="Times New Roman,serif" font-size="12.00">Perform site visits</text>
</g>
<!-- 2675063848160&#45;&gt;2675063840960 -->
<g id="edge39" class="edge">
<title>2675063848160&#45;&gt;2675063840960</title>
<path fill="none" stroke="black" d="M3127.92,-101.72C3139.1,-104.41 3153.77,-107.93 3168.46,-111.46"/>
<polygon fill="black" stroke="black" points="3167.62,-114.86 3178.16,-113.79 3169.25,-108.05 3167.62,-114.86"/>
</g>
<!-- 2675063841968 -->
<g id="node33" class="node">
<title>2675063841968</title>
<polygon fill="none" stroke="black" points="3289.75,-90 3170.25,-90 3170.25,-54 3289.75,-54 3289.75,-90"/>
<text text-anchor="middle" x="3230" y="-66.97" font-family="Times New Roman,serif" font-size="12.00">Conduct data analysis</text>
</g>
<!-- 2675063848160&#45;&gt;2675063841968 -->
<g id="edge40" class="edge">
<title>2675063848160&#45;&gt;2675063841968</title>
<path fill="none" stroke="black" d="M3128.73,-92.76C3137.31,-90.98 3147.84,-88.8 3158.8,-86.53"/>
<polygon fill="black" stroke="black" points="3159.3,-90 3168.38,-84.55 3157.88,-83.15 3159.3,-90"/>
</g>
<!-- 2675063843984 -->
<g id="node34" class="node">
<title>2675063843984</title>
<polygon fill="none" stroke="black" points="3284.12,-36 3175.88,-36 3175.88,0 3284.12,0 3284.12,-36"/>
<text text-anchor="middle" x="3230" y="-12.97" font-family="Times New Roman,serif" font-size="12.00">Conduct interviews</text>
</g>
<!-- 2675063848160&#45;&gt;2675063843984 -->
<g id="edge38" class="edge">
<title>2675063848160&#45;&gt;2675063843984</title>
<path fill="none" stroke="black" d="M3118.97,-86.45C3130.81,-75.2 3150.78,-57.32 3170.25,-45 3171.88,-43.97 3173.56,-42.95 3175.26,-41.96"/>
<polygon fill="black" stroke="black" points="3176.88,-45.06 3183.98,-37.21 3173.53,-38.92 3176.88,-45.06"/>
</g>
<!-- 2675063929168 -->
<g id="node35" class="node">
<title>2675063929168</title>
<polygon fill="none" stroke="black" points="3682.25,-140 3655.25,-122 3682.25,-104 3709.25,-122 3682.25,-140"/>
<text text-anchor="middle" x="3682.25" y="-116.97" font-family="Times New Roman,serif" font-size="12.00">X</text>
</g>
<!-- 2675063839568&#45;&gt;2675063929168 -->
<g id="edge41" class="edge">
<title>2675063839568&#45;&gt;2675063929168</title>
<path fill="none" stroke="black" d="M3619.62,-122C3627.62,-122 3635.7,-122 3643.25,-122"/>
<polygon fill="black" stroke="black" points="3643.08,-125.5 3653.08,-122 3643.08,-118.5 3643.08,-125.5"/>
</g>
<!-- 2675063838512 -->
<g id="node36" class="node">
<title>2675063838512</title>
<polygon fill="none" stroke="black" points="3352.75,-117 3325.75,-99 3352.75,-81 3379.75,-99 3352.75,-117"/>
<text text-anchor="middle" x="3352.75" y="-93.97" font-family="Times New Roman,serif" font-size="12.00">+</text>
</g>
<!-- 2675063840960&#45;&gt;2675063838512 -->
<g id="edge42" class="edge">
<title>2675063840960&#45;&gt;2675063838512</title>
<path fill="none" stroke="black" d="M3280.46,-114.94C3294.08,-111.89 3308.47,-108.68 3320.73,-105.94"/>
<polygon fill="black" stroke="black" points="3321.26,-109.4 3330.26,-103.81 3319.73,-102.57 3321.26,-109.4"/>
</g>
<!-- 2675063841968&#45;&gt;2675063838512 -->
<g id="edge43" class="edge">
<title>2675063841968&#45;&gt;2675063838512</title>
<path fill="none" stroke="black" d="M3289.96,-85.18C3300.57,-87.56 3311.23,-89.94 3320.65,-92.05"/>
<polygon fill="black" stroke="black" points="3319.8,-95.44 3330.33,-94.21 3321.33,-88.61 3319.8,-95.44"/>
</g>
<!-- 2675063843984&#45;&gt;2675063838512 -->
<g id="edge44" class="edge">
<title>2675063843984&#45;&gt;2675063838512</title>
<path fill="none" stroke="black" d="M3274.74,-36.4C3279.92,-39.07 3285.04,-41.95 3289.75,-45 3305.61,-55.25 3321.63,-69.32 3333.42,-80.53"/>
<polygon fill="black" stroke="black" points="3330.84,-82.91 3340.44,-87.38 3335.73,-77.9 3330.84,-82.91"/>
</g>
<!-- 2675063846336 -->
<g id="node37" class="node">
<title>2675063846336</title>
<polygon fill="none" stroke="black" points="3932.25,-177 3745.25,-177 3745.25,-141 3932.25,-141 3932.25,-177"/>
<text text-anchor="middle" x="3838.75" y="-153.97" font-family="Times New Roman,serif" font-size="12.00">Complete risk assessment/mitigation</text>
</g>
<!-- 2675063929168&#45;&gt;2675063846336 -->
<g id="edge46" class="edge">
<title>2675063929168&#45;&gt;2675063846336</title>
<path fill="none" stroke="black" d="M3702.82,-126.69C3715.12,-129.63 3731.97,-133.67 3749.58,-137.89"/>
<polygon fill="black" stroke="black" points="3748.6,-141.25 3759.14,-140.18 3750.23,-134.44 3748.6,-141.25"/>
</g>
<!-- 2675063838512&#45;&gt;2675063931200 -->
<g id="edge45" class="edge">
<title>2675063838512&#45;&gt;2675063931200</title>
<path fill="none" stroke="black" d="M3372.84,-103.99C3384.26,-106.97 3399.01,-110.83 3411.94,-114.21"/>
<polygon fill="black" stroke="black" points="3410.67,-117.49 3421.23,-116.64 3412.44,-110.72 3410.67,-117.49"/>
</g>
<!-- 2675063845760 -->
<g id="node38" class="node">
<title>2675063845760</title>
<polygon fill="none" stroke="black" points="3995.25,-190 3968.25,-172 3995.25,-154 4022.25,-172 3995.25,-190"/>
<text text-anchor="middle" x="3995.25" y="-166.97" font-family="Times New Roman,serif" font-size="12.00">+</text>
</g>
<!-- 2675063846336&#45;&gt;2675063845760 -->
<g id="edge47" class="edge">
<title>2675063846336&#45;&gt;2675063845760</title>
<path fill="none" stroke="black" d="M3932.74,-166.82C3942.1,-167.61 3951.14,-168.37 3959.28,-169.06"/>
<polygon fill="black" stroke="black" points="3958.71,-172.52 3968.97,-169.87 3959.3,-165.55 3958.71,-172.52"/>
</g>
<!-- 2675063924080 -->
<g id="node39" class="node">
<title>2675063924080</title>
<polygon fill="none" stroke="black" points="4190.5,-271 4065,-271 4065,-235 4190.5,-235 4190.5,-271"/>
<text text-anchor="middle" x="4127.75" y="-247.97" font-family="Times New Roman,serif" font-size="12.00">Evaluate financial risks</text>
</g>
<!-- 2675063845760&#45;&gt;2675063924080 -->
<g id="edge48" class="edge">
<title>2675063845760&#45;&gt;2675063924080</title>
<path fill="none" stroke="black" d="M4006.34,-182.77C4017.94,-194.64 4038,-213.7 4058.25,-226 4060.26,-227.22 4062.33,-228.4 4064.44,-229.55"/>
<polygon fill="black" stroke="black" points="4062.73,-232.61 4073.24,-233.96 4065.87,-226.35 4062.73,-232.61"/>
</g>
<!-- 2675063927056 -->
<g id="node40" class="node">
<title>2675063927056</title>
<polygon fill="none" stroke="black" points="4197.25,-217 4058.25,-217 4058.25,-181 4197.25,-181 4197.25,-217"/>
<text text-anchor="middle" x="4127.75" y="-193.97" font-family="Times New Roman,serif" font-size="12.00">Evaluate compliance risks</text>
</g>
<!-- 2675063845760&#45;&gt;2675063927056 -->
<g id="edge49" class="edge">
<title>2675063845760&#45;&gt;2675063927056</title>
<path fill="none" stroke="black" d="M4016.64,-176.22C4025.14,-177.98 4035.6,-180.14 4046.66,-182.43"/>
<polygon fill="black" stroke="black" points="4045.89,-185.84 4056.39,-184.44 4047.3,-178.99 4045.89,-185.84"/>
</g>
<!-- 2675063846672 -->
<g id="node41" class="node">
<title>2675063846672</title>
<polygon fill="none" stroke="black" points="4196.5,-163 4059,-163 4059,-127 4196.5,-127 4196.5,-163"/>
<text text-anchor="middle" x="4127.75" y="-139.97" font-family="Times New Roman,serif" font-size="12.00">Evaluate operational risks</text>
</g>
<!-- 2675063845760&#45;&gt;2675063846672 -->
<g id="edge50" class="edge">
<title>2675063845760&#45;&gt;2675063846672</title>
<path fill="none" stroke="black" d="M4016.64,-167.78C4025.39,-165.97 4036.22,-163.73 4047.64,-161.37"/>
<polygon fill="black" stroke="black" points="4048.16,-164.83 4057.25,-159.38 4046.74,-157.98 4048.16,-164.83"/>
</g>
<!-- 2675063841344 -->
<g id="node42" class="node">
<title>2675063841344</title>
<polygon fill="none" stroke="black" points="4260.25,-217 4233.25,-199 4260.25,-181 4287.25,-199 4260.25,-217"/>
<text text-anchor="middle" x="4260.25" y="-193.97" font-family="Times New Roman,serif" font-size="12.00">+</text>
</g>
<!-- 2675063924080&#45;&gt;2675063841344 -->
<g id="edge51" class="edge">
<title>2675063924080&#45;&gt;2675063841344</title>
<path fill="none" stroke="black" d="M4176,-234.63C4183.14,-231.78 4190.4,-228.84 4197.25,-226 4209.04,-221.11 4222.01,-215.5 4233.02,-210.67"/>
<polygon fill="black" stroke="black" points="4234.14,-214 4241.87,-206.76 4231.31,-207.59 4234.14,-214"/>
</g>
<!-- 2675063927056&#45;&gt;2675063841344 -->
<g id="edge52" class="edge">
<title>2675063927056&#45;&gt;2675063841344</title>
<path fill="none" stroke="black" d="M4197.44,-199C4205.48,-199 4213.46,-199 4220.87,-199"/>
<polygon fill="black" stroke="black" points="4220.84,-202.5 4230.84,-199 4220.84,-195.5 4220.84,-202.5"/>
</g>
<!-- 2675063846672&#45;&gt;2675063841344 -->
<g id="edge53" class="edge">
<title>2675063846672&#45;&gt;2675063841344</title>
<path fill="none" stroke="black" d="M4176,-163.37C4183.14,-166.22 4190.4,-169.16 4197.25,-172 4209.04,-176.89 4222.01,-182.5 4233.02,-187.33"/>
<polygon fill="black" stroke="black" points="4231.31,-190.41 4241.87,-191.24 4234.14,-184 4231.31,-190.41"/>
</g>
<!-- 2675063841632 -->
<g id="node43" class="node">
<title>2675063841632</title>
<polygon fill="none" stroke="black" points="4478,-217 4323.25,-217 4323.25,-181 4478,-181 4478,-217"/>
<text text-anchor="middle" x="4400.62" y="-193.97" font-family="Times New Roman,serif" font-size="12.00">Launch detailed investigation</text>
</g>
<!-- 2675063841344&#45;&gt;2675063841632 -->
<g id="edge54" class="edge">
<title>2675063841344&#45;&gt;2675063841632</title>
<path fill="none" stroke="black" d="M4287.93,-199C4295.03,-199 4303.1,-199 4311.59,-199"/>
<polygon fill="black" stroke="black" points="4311.41,-202.5 4321.41,-199 4311.41,-195.5 4311.41,-202.5"/>
</g>
<!-- 2675063929264 -->
<g id="node44" class="node">
<title>2675063929264</title>
<polygon fill="none" stroke="black" points="4541,-217 4514,-199 4541,-181 4568,-199 4541,-217"/>
<text text-anchor="middle" x="4541" y="-193.97" font-family="Times New Roman,serif" font-size="12.00">X</text>
</g>
<!-- 2675063841632&#45;&gt;2675063929264 -->
<g id="edge55" class="edge">
<title>2675063841632&#45;&gt;2675063929264</title>
<path fill="none" stroke="black" d="M4478.1,-199C4486.28,-199 4494.33,-199 4501.78,-199"/>
<polygon fill="black" stroke="black" points="4501.77,-202.5 4511.77,-199 4501.77,-195.5 4501.77,-202.5"/>
</g>
<!-- 2675063929600 -->
<g id="node45" class="node">
<title>2675063929600</title>
<polygon fill="none" stroke="black" points="4966.5,-237 4939.5,-219 4966.5,-201 4993.5,-219 4966.5,-237"/>
<text text-anchor="middle" x="4966.5" y="-213.97" font-family="Times New Roman,serif" font-size="12.00">X</text>
</g>
<!-- 2675063929264&#45;&gt;2675063929600 -->
<g id="edge57" class="edge">
<title>2675063929264&#45;&gt;2675063929600</title>
<path fill="none" stroke="black" d="M4554.52,-208.48C4579.45,-226.67 4637.72,-265.94 4694,-280 4745.53,-292.87 4761.35,-290.07 4813.5,-280 4860.54,-270.91 4911.5,-247.37 4940.84,-232.33"/>
<polygon fill="black" stroke="black" points="4942.4,-235.47 4949.64,-227.73 4939.15,-229.26 4942.4,-235.47"/>
</g>
<!-- 2675063847104 -->
<g id="node46" class="node">
<title>2675063847104</title>
<polygon fill="none" stroke="black" points="4631,-217 4604,-199 4631,-181 4658,-199 4631,-217"/>
<text text-anchor="middle" x="4631" y="-193.97" font-family="Times New Roman,serif" font-size="12.00">+</text>
</g>
<!-- 2675063929264&#45;&gt;2675063847104 -->
<g id="edge56" class="edge">
<title>2675063929264&#45;&gt;2675063847104</title>
<path fill="none" stroke="black" d="M4568.88,-199C4576.13,-199 4584.12,-199 4591.85,-199"/>
<polygon fill="black" stroke="black" points="4591.77,-202.5 4601.77,-199 4591.77,-195.5 4591.77,-202.5"/>
</g>
<!-- 2675063848496 -->
<g id="node50" class="node">
<title>2675063848496</title>
<polygon fill="none" stroke="black" points="5143,-237 5029.5,-237 5029.5,-201 5143,-201 5143,-237"/>
<text text-anchor="middle" x="5086.25" y="-213.97" font-family="Times New Roman,serif" font-size="12.00">Compile audit report</text>
</g>
<!-- 2675063929600&#45;&gt;2675063848496 -->
<g id="edge58" class="edge">
<title>2675063929600&#45;&gt;2675063848496</title>
<path fill="none" stroke="black" d="M4994.22,-219C5001.4,-219 5009.51,-219 5017.85,-219"/>
<polygon fill="black" stroke="black" points="5017.78,-222.5 5027.78,-219 5017.78,-215.5 5017.78,-222.5"/>
</g>
<!-- 2675063840576 -->
<g id="node47" class="node">
<title>2675063840576</title>
<polygon fill="none" stroke="black" points="4813.5,-271 4694,-271 4694,-235 4813.5,-235 4813.5,-271"/>
<text text-anchor="middle" x="4753.75" y="-247.97" font-family="Times New Roman,serif" font-size="12.00">Conduct data analysis</text>
</g>
<!-- 2675063847104&#45;&gt;2675063840576 -->
<g id="edge60" class="edge">
<title>2675063847104&#45;&gt;2675063840576</title>
<path fill="none" stroke="black" d="M4647.79,-206.06C4661.38,-212.14 4681.78,-221.26 4701,-229.86"/>
<polygon fill="black" stroke="black" points="4699.56,-233.05 4710.12,-233.94 4702.42,-226.66 4699.56,-233.05"/>
</g>
<!-- 2675063843312 -->
<g id="node48" class="node">
<title>2675063843312</title>
<polygon fill="none" stroke="black" points="4803.75,-217 4703.75,-217 4703.75,-181 4803.75,-181 4803.75,-217"/>
<text text-anchor="middle" x="4753.75" y="-193.97" font-family="Times New Roman,serif" font-size="12.00">Perform site visits</text>
</g>
<!-- 2675063847104&#45;&gt;2675063843312 -->
<g id="edge59" class="edge">
<title>2675063847104&#45;&gt;2675063843312</title>
<path fill="none" stroke="black" d="M4658.8,-199C4668.8,-199 4680.61,-199 4692.42,-199"/>
<polygon fill="black" stroke="black" points="4692.16,-202.5 4702.16,-199 4692.16,-195.5 4692.16,-202.5"/>
</g>
<!-- 2675063844320 -->
<g id="node49" class="node">
<title>2675063844320</title>
<polygon fill="none" stroke="black" points="4807.88,-163 4699.62,-163 4699.62,-127 4807.88,-127 4807.88,-163"/>
<text text-anchor="middle" x="4753.75" y="-139.97" font-family="Times New Roman,serif" font-size="12.00">Conduct interviews</text>
</g>
<!-- 2675063847104&#45;&gt;2675063844320 -->
<g id="edge61" class="edge">
<title>2675063847104&#45;&gt;2675063844320</title>
<path fill="none" stroke="black" d="M4647.79,-191.94C4661.38,-185.86 4681.78,-176.74 4701,-168.14"/>
<polygon fill="black" stroke="black" points="4702.42,-171.34 4710.12,-164.06 4699.56,-164.95 4702.42,-171.34"/>
</g>
<!-- 2675063846720 -->
<g id="node51" class="node">
<title>2675063846720</title>
<polygon fill="none" stroke="black" points="4876.5,-224 4849.5,-206 4876.5,-188 4903.5,-206 4876.5,-224"/>
<text text-anchor="middle" x="4876.5" y="-200.97" font-family="Times New Roman,serif" font-size="12.00">+</text>
</g>
<!-- 2675063840576&#45;&gt;2675063846720 -->
<g id="edge62" class="edge">
<title>2675063840576&#45;&gt;2675063846720</title>
<path fill="none" stroke="black" d="M4802.13,-234.56C4817.72,-228.49 4834.52,-221.95 4848.11,-216.66"/>
<polygon fill="black" stroke="black" points="4849.21,-219.99 4857.26,-213.1 4846.67,-213.47 4849.21,-219.99"/>
</g>
<!-- 2675063843312&#45;&gt;2675063846720 -->
<g id="edge63" class="edge">
<title>2675063843312&#45;&gt;2675063846720</title>
<path fill="none" stroke="black" d="M4804.21,-201.87C4816.07,-202.56 4828.52,-203.28 4839.63,-203.92"/>
<polygon fill="black" stroke="black" points="4839.37,-207.41 4849.56,-204.5 4839.78,-200.42 4839.37,-207.41"/>
</g>
<!-- 2675063844320&#45;&gt;2675063846720 -->
<g id="edge64" class="edge">
<title>2675063844320&#45;&gt;2675063846720</title>
<path fill="none" stroke="black" d="M4795.7,-163.37C4801.7,-166.19 4807.78,-169.12 4813.5,-172 4826.05,-178.31 4839.77,-185.78 4851.1,-192.1"/>
<polygon fill="black" stroke="black" points="4849.37,-195.14 4859.8,-197 4852.8,-189.04 4849.37,-195.14"/>
</g>
<!-- 2675063963920 -->
<g id="node52" class="node">
<title>2675063963920</title>
<polygon fill="none" stroke="black" points="5342.75,-237 5179,-237 5179,-201 5342.75,-201 5342.75,-237"/>
<text text-anchor="middle" x="5260.88" y="-213.97" font-family="Times New Roman,serif" font-size="12.00">Review report by audit director</text>
</g>
<!-- 2675063848496&#45;&gt;2675063963920 -->
<g id="edge65" class="edge">
<title>2675063848496&#45;&gt;2675063963920</title>
<path fill="none" stroke="black" d="M5143.3,-219C5151.08,-219 5159.24,-219 5167.47,-219"/>
<polygon fill="black" stroke="black" points="5167.21,-222.5 5177.21,-219 5167.21,-215.5 5167.21,-222.5"/>
</g>
<!-- 2675063846720&#45;&gt;2675063929600 -->
<g id="edge66" class="edge">
<title>2675063846720&#45;&gt;2675063929600</title>
<path fill="none" stroke="black" d="M4899.25,-209.21C4909.3,-210.7 4921.45,-212.49 4932.59,-214.14"/>
<polygon fill="black" stroke="black" points="4931.79,-217.56 4942.2,-215.56 4932.81,-210.63 4931.79,-217.56"/>
</g>
<!-- 2675063929888 -->
<g id="node53" class="node">
<title>2675063929888</title>
<polygon fill="none" stroke="black" points="5405.75,-237 5378.75,-219 5405.75,-201 5432.75,-219 5405.75,-237"/>
<text text-anchor="middle" x="5405.75" y="-213.97" font-family="Times New Roman,serif" font-size="12.00">X</text>
</g>
<!-- 2675063963920&#45;&gt;2675063929888 -->
<g id="edge67" class="edge">
<title>2675063963920&#45;&gt;2675063929888</title>
<path fill="none" stroke="black" d="M5342.91,-219C5351.08,-219 5359.08,-219 5366.47,-219"/>
<polygon fill="black" stroke="black" points="5366.37,-222.5 5376.37,-219 5366.37,-215.5 5366.37,-222.5"/>
</g>
<!-- 2675063928592 -->
<g id="node54" class="node">
<title>2675063928592</title>
<polygon fill="none" stroke="black" points="5532.62,-257 5505.62,-239 5532.62,-221 5559.62,-239 5532.62,-257"/>
<text text-anchor="middle" x="5532.62" y="-233.97" font-family="Times New Roman,serif" font-size="12.00">+</text>
</g>
<!-- 2675063929888&#45;&gt;2675063928592 -->
<g id="edge68" class="edge">
<title>2675063929888&#45;&gt;2675063928592</title>
<path fill="none" stroke="black" d="M5428.22,-222.44C5447.6,-225.54 5476.43,-230.16 5498.72,-233.73"/>
<polygon fill="black" stroke="black" points="5498.1,-237.17 5508.53,-235.3 5499.21,-230.26 5498.1,-237.17"/>
</g>
<!-- 2675063927776 -->
<g id="node55" class="node">
<title>2675063927776</title>
<polygon fill="none" stroke="black" points="5596.5,-190 5468.75,-190 5468.75,-154 5596.5,-154 5596.5,-190"/>
<text text-anchor="middle" x="5532.62" y="-166.97" font-family="Times New Roman,serif" font-size="12.00">Send report for revision</text>
</g>
<!-- 2675063929888&#45;&gt;2675063927776 -->
<g id="edge69" class="edge">
<title>2675063929888&#45;&gt;2675063927776</title>
<path fill="none" stroke="black" d="M5423.85,-212.56C5436.53,-207.79 5454.61,-200.99 5472.35,-194.31"/>
<polygon fill="black" stroke="black" points="5473.17,-197.74 5481.3,-190.94 5470.71,-191.19 5473.17,-197.74"/>
</g>
<!-- 2675063839232 -->
<g id="node56" class="node">
<title>2675063839232</title>
<polygon fill="none" stroke="black" points="5763.62,-325 5646.38,-325 5646.38,-289 5763.62,-289 5763.62,-325"/>
<text text-anchor="middle" x="5705" y="-301.98" font-family="Times New Roman,serif" font-size="12.00">Distribute final report</text>
</g>
<!-- 2675063928592&#45;&gt;2675063839232 -->
<g id="edge71" class="edge">
<title>2675063928592&#45;&gt;2675063839232</title>
<path fill="none" stroke="black" d="M5550,-245.98C5569.56,-254.27 5603.3,-268.44 5632.5,-280 5636.3,-281.51 5640.22,-283.04 5644.18,-284.57"/>
<polygon fill="black" stroke="black" points="5642.69,-287.75 5653.28,-288.07 5645.2,-281.21 5642.69,-287.75"/>
</g>
<!-- 2675063846000 -->
<g id="node58" class="node">
<title>2675063846000</title>
<polygon fill="none" stroke="black" points="5758.75,-271 5651.25,-271 5651.25,-235 5758.75,-235 5758.75,-271"/>
<text text-anchor="middle" x="5705" y="-247.97" font-family="Times New Roman,serif" font-size="12.00">Close audit process</text>
</g>
<!-- 2675063928592&#45;&gt;2675063846000 -->
<g id="edge72" class="edge">
<title>2675063928592&#45;&gt;2675063846000</title>
<path fill="none" stroke="black" d="M5557.31,-240.95C5578.62,-242.7 5610.93,-245.35 5639.8,-247.72"/>
<polygon fill="black" stroke="black" points="5639.32,-251.2 5649.58,-248.53 5639.9,-244.22 5639.32,-251.2"/>
</g>
<!-- 2675063847440 -->
<g id="node59" class="node">
<title>2675063847440</title>
<polygon fill="none" stroke="black" points="5747.5,-217 5662.5,-217 5662.5,-181 5747.5,-181 5747.5,-217"/>
<text text-anchor="middle" x="5705" y="-193.97" font-family="Times New Roman,serif" font-size="12.00">Archive report</text>
</g>
<!-- 2675063928592&#45;&gt;2675063847440 -->
<g id="edge70" class="edge">
<title>2675063928592&#45;&gt;2675063847440</title>
<path fill="none" stroke="black" d="M5553.5,-234.33C5577.32,-228.74 5618.16,-219.15 5651.29,-211.38"/>
<polygon fill="black" stroke="black" points="5651.78,-214.85 5660.72,-209.16 5650.19,-208.04 5651.78,-214.85"/>
</g>
<!-- 2675063842304 -->
<g id="node57" class="node">
<title>2675063842304</title>
<polygon fill="none" stroke="black" points="5777.5,-163 5632.5,-163 5632.5,-127 5777.5,-127 5777.5,-163"/>
<text text-anchor="middle" x="5705" y="-139.97" font-family="Times New Roman,serif" font-size="12.00">Update and resubmit report</text>
</g>
<!-- 2675063927776&#45;&gt;2675063842304 -->
<g id="edge73" class="edge">
<title>2675063927776&#45;&gt;2675063842304</title>
<path fill="none" stroke="black" d="M5596.58,-162.02C5604.53,-160.76 5612.76,-159.46 5620.96,-158.16"/>
<polygon fill="black" stroke="black" points="5621.28,-161.65 5630.61,-156.63 5620.18,-154.74 5621.28,-161.65"/>
</g>
<!-- 2675063928736 -->
<g id="node61" class="node">
<title>2675063928736</title>
<polygon fill="none" stroke="black" points="5895.38,-271 5868.38,-253 5895.38,-235 5922.38,-253 5895.38,-271"/>
<text text-anchor="middle" x="5895.38" y="-247.97" font-family="Times New Roman,serif" font-size="12.00">+</text>
</g>
<!-- 2675063839232&#45;&gt;2675063928736 -->
<g id="edge74" class="edge">
<title>2675063839232&#45;&gt;2675063928736</title>
<path fill="none" stroke="black" d="M5764.06,-290.36C5797.39,-280.8 5837.84,-269.21 5864.75,-261.49"/>
<polygon fill="black" stroke="black" points="5865.63,-264.88 5874.28,-258.76 5863.7,-258.15 5865.63,-264.88"/>
</g>
<!-- 2675063844992 -->
<g id="node60" class="node">
<title>2675063844992</title>
<polygon fill="none" stroke="black" points="5977.25,-140 5813.5,-140 5813.5,-104 5977.25,-104 5977.25,-140"/>
<text text-anchor="middle" x="5895.38" y="-116.97" font-family="Times New Roman,serif" font-size="12.00">Review report by audit director</text>
</g>
<!-- 2675063842304&#45;&gt;2675063844992 -->
<g id="edge75" class="edge">
<title>2675063842304&#45;&gt;2675063844992</title>
<path fill="none" stroke="black" d="M5777.75,-136.24C5785.6,-135.28 5793.66,-134.3 5801.71,-133.31"/>
<polygon fill="black" stroke="black" points="5802.05,-136.8 5811.56,-132.11 5801.21,-129.85 5802.05,-136.8"/>
</g>
<!-- 2675063846000&#45;&gt;2675063928736 -->
<g id="edge76" class="edge">
<title>2675063846000&#45;&gt;2675063928736</title>
<path fill="none" stroke="black" d="M5759.23,-253C5790.16,-253 5828.43,-253 5856.33,-253"/>
<polygon fill="black" stroke="black" points="5856.1,-256.5 5866.1,-253 5856.1,-249.5 5856.1,-256.5"/>
</g>
<!-- 2675063847440&#45;&gt;2675063928736 -->
<g id="edge77" class="edge">
<title>2675063847440&#45;&gt;2675063928736</title>
<path fill="none" stroke="black" d="M5747.81,-210.98C5783.33,-221.17 5833.44,-235.53 5864.9,-244.55"/>
<polygon fill="black" stroke="black" points="5863.55,-247.8 5874.13,-247.2 5865.48,-241.08 5863.55,-247.8"/>
</g>
<!-- 2675063844992&#45;&gt;2675063929168 -->
<g id="edge78" class="edge">
<title>2675063844992&#45;&gt;2675063929168</title>
<path fill="none" stroke="black" d="M5813.16,-113.86C5740.11,-107.24 5629.8,-99 5533.62,-99 3994.25,-99 3994.25,-99 3994.25,-99 3893.16,-99 3774.09,-111.24 3717.04,-117.86"/>
<polygon fill="black" stroke="black" points="3716.86,-114.35 3707.34,-119 3717.68,-121.31 3716.86,-114.35"/>
</g>
<!-- 2675063229472 -->
<g id="node62" class="node">
<title>2675063229472</title>
<ellipse fill="orange" stroke="black" cx="6031.25" cy="-253" rx="18" ry="18"/>
</g>
<!-- 2675063928736&#45;&gt;2675063229472 -->
<g id="edge79" class="edge">
<title>2675063928736&#45;&gt;2675063229472</title>
<path fill="none" stroke="black" d="M5923.14,-253C5945.89,-253 5978.45,-253 6001.69,-253"/>
<polygon fill="black" stroke="black" points="6001.38,-256.5 6011.38,-253 6001.38,-249.5 6001.38,-256.5"/>
</g>
</g>
</svg>
