<?xml version="1.0" encoding="UTF-8" standalone="no"?>
<!DOCTYPE svg PUBLIC "-//W3C//DTD SVG 1.1//EN"
 "http://www.w3.org/Graphics/SVG/1.1/DTD/svg11.dtd">
<!-- Generated by graphviz version 11.0.0 (20240428.1522)
 -->
<!-- Pages: 1 -->
<svg width="4130pt" height="195pt"
 viewBox="0.00 0.00 4130.00 195.00" xmlns="http://www.w3.org/2000/svg" xmlns:xlink="http://www.w3.org/1999/xlink">
<g id="graph0" class="graph" transform="scale(1 1) rotate(0) translate(4 191)">
<polygon fill="white" stroke="none" points="-4,4 -4,-191 4126,-191 4126,4 -4,4"/>
<!-- 2675062442848 -->
<g id="node1" class="node">
<title>2675062442848</title>
<ellipse fill="green" stroke="black" cx="18" cy="-23" rx="18" ry="18"/>
</g>
<!-- 2675062452544 -->
<g id="node2" class="node">
<title>2675062452544</title>
<polygon fill="none" stroke="black" points="99,-41 72,-23 99,-5 126,-23 99,-41"/>
<text text-anchor="middle" x="99" y="-17.98" font-family="Times New Roman,serif" font-size="12.00">X</text>
</g>
<!-- 2675062442848&#45;&gt;2675062452544 -->
<g id="edge1" class="edge">
<title>2675062442848&#45;&gt;2675062452544</title>
<path fill="none" stroke="black" d="M36.14,-23C43.11,-23 51.47,-23 59.75,-23"/>
<polygon fill="black" stroke="black" points="59.75,-26.5 69.75,-23 59.75,-19.5 59.75,-26.5"/>
</g>
<!-- 2675062673424 -->
<g id="node3" class="node">
<title>2675062673424</title>
<polygon fill="none" stroke="black" points="189,-91 162,-73 189,-55 216,-73 189,-91"/>
<text text-anchor="middle" x="189" y="-67.97" font-family="Times New Roman,serif" font-size="12.00">+</text>
</g>
<!-- 2675062452544&#45;&gt;2675062673424 -->
<g id="edge2" class="edge">
<title>2675062452544&#45;&gt;2675062673424</title>
<path fill="none" stroke="black" d="M114.14,-31.03C127.53,-38.64 147.91,-50.22 163.87,-59.29"/>
<polygon fill="black" stroke="black" points="161.86,-62.18 172.29,-64.07 165.32,-56.09 161.86,-62.18"/>
</g>
<!-- 2675062681488 -->
<g id="node4" class="node">
<title>2675062681488</title>
<polygon fill="none" stroke="black" points="401.12,-118 253.88,-118 253.88,-82 401.12,-82 401.12,-118"/>
<text text-anchor="middle" x="327.5" y="-94.97" font-family="Times New Roman,serif" font-size="12.00">Prepare financial statements</text>
</g>
<!-- 2675062673424&#45;&gt;2675062681488 -->
<g id="edge3" class="edge">
<title>2675062673424&#45;&gt;2675062681488</title>
<path fill="none" stroke="black" d="M210.73,-77.1C219.7,-78.87 230.83,-81.08 242.63,-83.41"/>
<polygon fill="black" stroke="black" points="241.63,-86.78 252.11,-85.29 242.98,-79.91 241.63,-86.78"/>
</g>
<!-- 2675063099840 -->
<g id="node5" class="node">
<title>2675063099840</title>
<polygon fill="none" stroke="black" points="395.88,-64 259.12,-64 259.12,-28 395.88,-28 395.88,-64"/>
<text text-anchor="middle" x="327.5" y="-40.98" font-family="Times New Roman,serif" font-size="12.00">Check regulatory updates</text>
</g>
<!-- 2675062673424&#45;&gt;2675063099840 -->
<g id="edge5" class="edge">
<title>2675062673424&#45;&gt;2675063099840</title>
<path fill="none" stroke="black" d="M210.73,-68.9C220.97,-66.87 234.04,-64.29 247.69,-61.59"/>
<polygon fill="black" stroke="black" points="248.11,-65.07 257.24,-59.7 246.75,-58.21 248.11,-65.07"/>
</g>
<!-- 2675062455088 -->
<g id="node6" class="node">
<title>2675062455088</title>
<polygon fill="none" stroke="black" points="403,-172 252,-172 252,-136 403,-136 403,-172"/>
<text text-anchor="middle" x="327.5" y="-148.97" font-family="Times New Roman,serif" font-size="12.00">Gather necessary documents</text>
</g>
<!-- 2675062673424&#45;&gt;2675062455088 -->
<g id="edge4" class="edge">
<title>2675062673424&#45;&gt;2675062455088</title>
<path fill="none" stroke="black" d="M200.03,-83.87C211.57,-95.84 231.58,-114.98 252,-127 254.17,-128.28 256.4,-129.51 258.69,-130.69"/>
<polygon fill="black" stroke="black" points="257.07,-133.8 267.6,-134.96 260.09,-127.48 257.07,-133.8"/>
</g>
<!-- 2675062676016 -->
<g id="node7" class="node">
<title>2675062676016</title>
<polygon fill="none" stroke="black" points="466,-118 439,-100 466,-82 493,-100 466,-118"/>
<text text-anchor="middle" x="466" y="-94.97" font-family="Times New Roman,serif" font-size="12.00">+</text>
</g>
<!-- 2675062681488&#45;&gt;2675062676016 -->
<g id="edge6" class="edge">
<title>2675062681488&#45;&gt;2675062676016</title>
<path fill="none" stroke="black" d="M401.55,-100C410.3,-100 418.95,-100 426.91,-100"/>
<polygon fill="black" stroke="black" points="426.88,-103.5 436.88,-100 426.88,-96.5 426.88,-103.5"/>
</g>
<!-- 2675063099840&#45;&gt;2675062676016 -->
<g id="edge7" class="edge">
<title>2675063099840&#45;&gt;2675062676016</title>
<path fill="none" stroke="black" d="M380.76,-64.47C388.25,-67.25 395.84,-70.15 403,-73 414.86,-77.73 427.83,-83.31 438.83,-88.17"/>
<polygon fill="black" stroke="black" points="437.12,-91.24 447.68,-92.11 439.97,-84.84 437.12,-91.24"/>
</g>
<!-- 2675062455088&#45;&gt;2675062676016 -->
<g id="edge8" class="edge">
<title>2675062455088&#45;&gt;2675062676016</title>
<path fill="none" stroke="black" d="M380.76,-135.53C388.25,-132.75 395.84,-129.85 403,-127 414.86,-122.27 427.83,-116.69 438.83,-111.83"/>
<polygon fill="black" stroke="black" points="439.97,-115.16 447.68,-107.89 437.12,-108.76 439.97,-115.16"/>
</g>
<!-- 2675062680960 -->
<g id="node8" class="node">
<title>2675062680960</title>
<polygon fill="none" stroke="black" points="632.75,-118 529,-118 529,-82 632.75,-82 632.75,-118"/>
<text text-anchor="middle" x="580.88" y="-94.97" font-family="Times New Roman,serif" font-size="12.00">Submit documents</text>
</g>
<!-- 2675062676016&#45;&gt;2675062680960 -->
<g id="edge9" class="edge">
<title>2675062676016&#45;&gt;2675062680960</title>
<path fill="none" stroke="black" d="M493.75,-100C500.92,-100 508.99,-100 517.23,-100"/>
<polygon fill="black" stroke="black" points="517,-103.5 527,-100 517,-96.5 517,-103.5"/>
</g>
<!-- 2675063110208 -->
<g id="node9" class="node">
<title>2675063110208</title>
<polygon fill="none" stroke="black" points="777,-118 668.75,-118 668.75,-82 777,-82 777,-118"/>
<text text-anchor="middle" x="722.88" y="-94.97" font-family="Times New Roman,serif" font-size="12.00">Review submission</text>
</g>
<!-- 2675062680960&#45;&gt;2675063110208 -->
<g id="edge10" class="edge">
<title>2675062680960&#45;&gt;2675063110208</title>
<path fill="none" stroke="black" d="M633.21,-100C641.06,-100 649.25,-100 657.34,-100"/>
<polygon fill="black" stroke="black" points="657.15,-103.5 667.15,-100 657.15,-96.5 657.15,-103.5"/>
</g>
<!-- 2675062673856 -->
<g id="node10" class="node">
<title>2675062673856</title>
<polygon fill="none" stroke="black" points="840,-118 813,-100 840,-82 867,-100 840,-118"/>
<text text-anchor="middle" x="840" y="-94.97" font-family="Times New Roman,serif" font-size="12.00">X</text>
</g>
<!-- 2675063110208&#45;&gt;2675062673856 -->
<g id="edge11" class="edge">
<title>2675063110208&#45;&gt;2675062673856</title>
<path fill="none" stroke="black" d="M777.39,-100C785.33,-100 793.37,-100 800.91,-100"/>
<polygon fill="black" stroke="black" points="800.74,-103.5 810.74,-100 800.74,-96.5 800.74,-103.5"/>
</g>
<!-- 2675062681872 -->
<g id="node11" class="node">
<title>2675062681872</title>
<polygon fill="none" stroke="black" points="930,-110 903,-92 930,-74 957,-92 930,-110"/>
<text text-anchor="middle" x="930" y="-86.97" font-family="Times New Roman,serif" font-size="12.00">X</text>
</g>
<!-- 2675062673856&#45;&gt;2675062681872 -->
<g id="edge12" class="edge">
<title>2675062673856&#45;&gt;2675062681872</title>
<path fill="none" stroke="black" d="M864.58,-97.86C873.66,-97.03 884.22,-96.07 894.14,-95.17"/>
<polygon fill="black" stroke="black" points="894.2,-98.68 903.85,-94.29 893.57,-91.71 894.2,-98.68"/>
</g>
<!-- 2675062451056 -->
<g id="node12" class="node">
<title>2675062451056</title>
<polygon fill="none" stroke="black" points="1252,-110 1225,-92 1252,-74 1279,-92 1252,-110"/>
<text text-anchor="middle" x="1252" y="-86.97" font-family="Times New Roman,serif" font-size="12.00">X</text>
</g>
<!-- 2675062681872&#45;&gt;2675062451056 -->
<g id="edge14" class="edge">
<title>2675062681872&#45;&gt;2675062451056</title>
<path fill="none" stroke="black" d="M945.22,-83.79C957.44,-77.24 975.76,-68.59 993,-65 1078.28,-47.24 1103.72,-47.24 1189,-65 1201.93,-67.69 1215.47,-73.23 1226.59,-78.6"/>
<polygon fill="black" stroke="black" points="1224.93,-81.69 1235.43,-83.11 1228.11,-75.45 1224.93,-81.69"/>
</g>
<!-- 2675062670928 -->
<g id="node13" class="node">
<title>2675062670928</title>
<polygon fill="none" stroke="black" points="1189,-110 993,-110 993,-74 1189,-74 1189,-110"/>
<text text-anchor="middle" x="1091" y="-86.97" font-family="Times New Roman,serif" font-size="12.00">Request clarifications of discrepancies</text>
</g>
<!-- 2675062681872&#45;&gt;2675062670928 -->
<g id="edge13" class="edge">
<title>2675062681872&#45;&gt;2675062670928</title>
<path fill="none" stroke="black" d="M957.61,-92C964.62,-92 972.63,-92 981.17,-92"/>
<polygon fill="black" stroke="black" points="981.14,-95.5 991.14,-92 981.14,-88.5 981.14,-95.5"/>
</g>
<!-- 2675063097872 -->
<g id="node14" class="node">
<title>2675063097872</title>
<polygon fill="none" stroke="black" points="1432.25,-110 1315,-110 1315,-74 1432.25,-74 1432.25,-110"/>
<text text-anchor="middle" x="1373.62" y="-86.97" font-family="Times New Roman,serif" font-size="12.00">Receive clarifications</text>
</g>
<!-- 2675062451056&#45;&gt;2675063097872 -->
<g id="edge16" class="edge">
<title>2675062451056&#45;&gt;2675063097872</title>
<path fill="none" stroke="black" d="M1279.85,-92C1286.95,-92 1294.96,-92 1303.21,-92"/>
<polygon fill="black" stroke="black" points="1303.05,-95.5 1313.05,-92 1303.05,-88.5 1303.05,-95.5"/>
</g>
<!-- 2675062670928&#45;&gt;2675062451056 -->
<g id="edge15" class="edge">
<title>2675062670928&#45;&gt;2675062451056</title>
<path fill="none" stroke="black" d="M1189.07,-92C1197.37,-92 1205.4,-92 1212.78,-92"/>
<polygon fill="black" stroke="black" points="1212.62,-95.5 1222.62,-92 1212.62,-88.5 1212.62,-95.5"/>
</g>
<!-- 2675062671552 -->
<g id="node15" class="node">
<title>2675062671552</title>
<polygon fill="none" stroke="black" points="1495.25,-133 1468.25,-115 1495.25,-97 1522.25,-115 1495.25,-133"/>
<text text-anchor="middle" x="1495.25" y="-109.97" font-family="Times New Roman,serif" font-size="12.00">X</text>
</g>
<!-- 2675063097872&#45;&gt;2675062671552 -->
<g id="edge17" class="edge">
<title>2675063097872&#45;&gt;2675062671552</title>
<path fill="none" stroke="black" d="M1432.69,-103.16C1442.87,-105.12 1453.12,-107.09 1462.25,-108.85"/>
<polygon fill="black" stroke="black" points="1461.56,-112.28 1472.04,-110.73 1462.88,-105.4 1461.56,-112.28"/>
</g>
<!-- 2675062671552&#45;&gt;2675062673856 -->
<g id="edge18" class="edge">
<title>2675062671552&#45;&gt;2675062673856</title>
<path fill="none" stroke="black" d="M1472.69,-118.44C1430.58,-124.86 1334.41,-138 1253,-138 1090,-138 1090,-138 1090,-138 1006.46,-138 984.89,-135.54 903,-119 891.65,-116.71 879.42,-113.19 868.84,-109.81"/>
<polygon fill="black" stroke="black" points="870.17,-106.56 859.57,-106.72 867.96,-113.2 870.17,-106.56"/>
</g>
<!-- 2675062683936 -->
<g id="node16" class="node">
<title>2675062683936</title>
<polygon fill="none" stroke="black" points="1585.25,-133 1558.25,-115 1585.25,-97 1612.25,-115 1585.25,-133"/>
<text text-anchor="middle" x="1585.25" y="-109.97" font-family="Times New Roman,serif" font-size="12.00">+</text>
</g>
<!-- 2675062671552&#45;&gt;2675062683936 -->
<g id="edge19" class="edge">
<title>2675062671552&#45;&gt;2675062683936</title>
<path fill="none" stroke="black" d="M1523.13,-115C1530.38,-115 1538.37,-115 1546.1,-115"/>
<polygon fill="black" stroke="black" points="1546.02,-118.5 1556.02,-115 1546.02,-111.5 1546.02,-118.5"/>
</g>
<!-- 2675062677024 -->
<g id="node17" class="node">
<title>2675062677024</title>
<polygon fill="none" stroke="black" points="1780.5,-133 1655,-133 1655,-97 1780.5,-97 1780.5,-133"/>
<text text-anchor="middle" x="1717.75" y="-109.97" font-family="Times New Roman,serif" font-size="12.00">Evaluate financial risks</text>
</g>
<!-- 2675062683936&#45;&gt;2675062677024 -->
<g id="edge20" class="edge">
<title>2675062683936&#45;&gt;2675062677024</title>
<path fill="none" stroke="black" d="M1612.97,-115C1621.94,-115 1632.42,-115 1643.2,-115"/>
<polygon fill="black" stroke="black" points="1642.99,-118.5 1652.99,-115 1642.99,-111.5 1642.99,-118.5"/>
</g>
<!-- 2675062674528 -->
<g id="node18" class="node">
<title>2675062674528</title>
<polygon fill="none" stroke="black" points="1787.25,-79 1648.25,-79 1648.25,-43 1787.25,-43 1787.25,-79"/>
<text text-anchor="middle" x="1717.75" y="-55.98" font-family="Times New Roman,serif" font-size="12.00">Evaluate compliance risks</text>
</g>
<!-- 2675062683936&#45;&gt;2675062674528 -->
<g id="edge21" class="edge">
<title>2675062683936&#45;&gt;2675062674528</title>
<path fill="none" stroke="black" d="M1602.24,-107.85C1614.72,-102.32 1632.52,-94.52 1648.25,-88 1651.78,-86.54 1655.42,-85.05 1659.1,-83.55"/>
<polygon fill="black" stroke="black" points="1660.12,-86.92 1668.09,-79.94 1657.51,-80.42 1660.12,-86.92"/>
</g>
<!-- 2675062672080 -->
<g id="node19" class="node">
<title>2675062672080</title>
<polygon fill="none" stroke="black" points="1786.5,-187 1649,-187 1649,-151 1786.5,-151 1786.5,-187"/>
<text text-anchor="middle" x="1717.75" y="-163.97" font-family="Times New Roman,serif" font-size="12.00">Evaluate operational risks</text>
</g>
<!-- 2675062683936&#45;&gt;2675062672080 -->
<g id="edge22" class="edge">
<title>2675062683936&#45;&gt;2675062672080</title>
<path fill="none" stroke="black" d="M1602.24,-122.15C1614.72,-127.68 1632.52,-135.48 1648.25,-142 1651.78,-143.46 1655.42,-144.95 1659.1,-146.45"/>
<polygon fill="black" stroke="black" points="1657.51,-149.58 1668.09,-150.06 1660.12,-143.08 1657.51,-149.58"/>
</g>
<!-- 2675063098208 -->
<g id="node20" class="node">
<title>2675063098208</title>
<polygon fill="none" stroke="black" points="1850.25,-133 1823.25,-115 1850.25,-97 1877.25,-115 1850.25,-133"/>
<text text-anchor="middle" x="1850.25" y="-109.97" font-family="Times New Roman,serif" font-size="12.00">+</text>
</g>
<!-- 2675062677024&#45;&gt;2675063098208 -->
<g id="edge23" class="edge">
<title>2675062677024&#45;&gt;2675063098208</title>
<path fill="none" stroke="black" d="M1780.94,-115C1791.19,-115 1801.54,-115 1810.97,-115"/>
<polygon fill="black" stroke="black" points="1810.85,-118.5 1820.85,-115 1810.85,-111.5 1810.85,-118.5"/>
</g>
<!-- 2675062674528&#45;&gt;2675063098208 -->
<g id="edge24" class="edge">
<title>2675062674528&#45;&gt;2675063098208</title>
<path fill="none" stroke="black" d="M1766,-79.37C1773.14,-82.22 1780.4,-85.16 1787.25,-88 1799.04,-92.89 1812.01,-98.5 1823.02,-103.33"/>
<polygon fill="black" stroke="black" points="1821.31,-106.41 1831.87,-107.24 1824.14,-100 1821.31,-106.41"/>
</g>
<!-- 2675062672080&#45;&gt;2675063098208 -->
<g id="edge25" class="edge">
<title>2675062672080&#45;&gt;2675063098208</title>
<path fill="none" stroke="black" d="M1766,-150.63C1773.14,-147.78 1780.4,-144.84 1787.25,-142 1799.04,-137.11 1812.01,-131.5 1823.02,-126.67"/>
<polygon fill="black" stroke="black" points="1824.14,-130 1831.87,-122.76 1821.31,-123.59 1824.14,-130"/>
</g>
<!-- 2675063111504 -->
<g id="node21" class="node">
<title>2675063111504</title>
<polygon fill="none" stroke="black" points="2068,-133 1913.25,-133 1913.25,-97 2068,-97 2068,-133"/>
<text text-anchor="middle" x="1990.62" y="-109.97" font-family="Times New Roman,serif" font-size="12.00">Launch detailed investigation</text>
</g>
<!-- 2675063098208&#45;&gt;2675063111504 -->
<g id="edge26" class="edge">
<title>2675063098208&#45;&gt;2675063111504</title>
<path fill="none" stroke="black" d="M1877.93,-115C1885.03,-115 1893.1,-115 1901.59,-115"/>
<polygon fill="black" stroke="black" points="1901.41,-118.5 1911.41,-115 1901.41,-111.5 1901.41,-118.5"/>
</g>
<!-- 2675062677840 -->
<g id="node22" class="node">
<title>2675062677840</title>
<polygon fill="none" stroke="black" points="2223.5,-133 2104,-133 2104,-97 2223.5,-97 2223.5,-133"/>
<text text-anchor="middle" x="2163.75" y="-109.97" font-family="Times New Roman,serif" font-size="12.00">Conduct data analysis</text>
</g>
<!-- 2675063111504&#45;&gt;2675062677840 -->
<g id="edge27" class="edge">
<title>2675063111504&#45;&gt;2675062677840</title>
<path fill="none" stroke="black" d="M2068.18,-115C2076.19,-115 2084.31,-115 2092.25,-115"/>
<polygon fill="black" stroke="black" points="2092.21,-118.5 2102.21,-115 2092.21,-111.5 2092.21,-118.5"/>
</g>
<!-- 2675062677072 -->
<g id="node23" class="node">
<title>2675062677072</title>
<polygon fill="none" stroke="black" points="2367.75,-133 2259.5,-133 2259.5,-97 2367.75,-97 2367.75,-133"/>
<text text-anchor="middle" x="2313.62" y="-109.97" font-family="Times New Roman,serif" font-size="12.00">Conduct interviews</text>
</g>
<!-- 2675062677840&#45;&gt;2675062677072 -->
<g id="edge28" class="edge">
<title>2675062677840&#45;&gt;2675062677072</title>
<path fill="none" stroke="black" d="M2223.62,-115C2231.61,-115 2239.85,-115 2247.94,-115"/>
<polygon fill="black" stroke="black" points="2247.72,-118.5 2257.72,-115 2247.72,-111.5 2247.72,-118.5"/>
</g>
<!-- 2675063096960 -->
<g id="node24" class="node">
<title>2675063096960</title>
<polygon fill="none" stroke="black" points="2503.75,-133 2403.75,-133 2403.75,-97 2503.75,-97 2503.75,-133"/>
<text text-anchor="middle" x="2453.75" y="-109.97" font-family="Times New Roman,serif" font-size="12.00">Perform site visits</text>
</g>
<!-- 2675062677072&#45;&gt;2675063096960 -->
<g id="edge29" class="edge">
<title>2675062677072&#45;&gt;2675063096960</title>
<path fill="none" stroke="black" d="M2368.03,-115C2375.97,-115 2384.21,-115 2392.29,-115"/>
<polygon fill="black" stroke="black" points="2392.04,-118.5 2402.04,-115 2392.04,-111.5 2392.04,-118.5"/>
</g>
<!-- 2675062447936 -->
<g id="node25" class="node">
<title>2675062447936</title>
<polygon fill="none" stroke="black" points="2726.75,-133 2539.75,-133 2539.75,-97 2726.75,-97 2726.75,-133"/>
<text text-anchor="middle" x="2633.25" y="-109.97" font-family="Times New Roman,serif" font-size="12.00">Complete risk assessment/mitigation</text>
</g>
<!-- 2675063096960&#45;&gt;2675062447936 -->
<g id="edge30" class="edge">
<title>2675063096960&#45;&gt;2675062447936</title>
<path fill="none" stroke="black" d="M2504.19,-115C2511.81,-115 2519.91,-115 2528.19,-115"/>
<polygon fill="black" stroke="black" points="2528.06,-118.5 2538.06,-115 2528.06,-111.5 2528.06,-118.5"/>
</g>
<!-- 2675062448896 -->
<g id="node26" class="node">
<title>2675062448896</title>
<polygon fill="none" stroke="black" points="2876.25,-133 2762.75,-133 2762.75,-97 2876.25,-97 2876.25,-133"/>
<text text-anchor="middle" x="2819.5" y="-109.97" font-family="Times New Roman,serif" font-size="12.00">Compile audit report</text>
</g>
<!-- 2675062447936&#45;&gt;2675062448896 -->
<g id="edge31" class="edge">
<title>2675062447936&#45;&gt;2675062448896</title>
<path fill="none" stroke="black" d="M2727.18,-115C2735.14,-115 2743.09,-115 2750.8,-115"/>
<polygon fill="black" stroke="black" points="2750.76,-118.5 2760.76,-115 2750.76,-111.5 2750.76,-118.5"/>
</g>
<!-- 2675062684800 -->
<g id="node27" class="node">
<title>2675062684800</title>
<polygon fill="none" stroke="black" points="2939.25,-133 2912.25,-115 2939.25,-97 2966.25,-115 2939.25,-133"/>
<text text-anchor="middle" x="2939.25" y="-109.97" font-family="Times New Roman,serif" font-size="12.00">X</text>
</g>
<!-- 2675062448896&#45;&gt;2675062684800 -->
<g id="edge32" class="edge">
<title>2675062448896&#45;&gt;2675062684800</title>
<path fill="none" stroke="black" d="M2876.62,-115C2884.62,-115 2892.7,-115 2900.25,-115"/>
<polygon fill="black" stroke="black" points="2900.08,-118.5 2910.08,-115 2900.08,-111.5 2900.08,-118.5"/>
</g>
<!-- 2675062440688 -->
<g id="node28" class="node">
<title>2675062440688</title>
<polygon fill="none" stroke="black" points="3166,-118 3002.25,-118 3002.25,-82 3166,-82 3166,-118"/>
<text text-anchor="middle" x="3084.12" y="-94.97" font-family="Times New Roman,serif" font-size="12.00">Review report by audit director</text>
</g>
<!-- 2675062684800&#45;&gt;2675062440688 -->
<g id="edge33" class="edge">
<title>2675062684800&#45;&gt;2675062440688</title>
<path fill="none" stroke="black" d="M2963.21,-112.59C2971.06,-111.77 2980.39,-110.79 2990.33,-109.74"/>
<polygon fill="black" stroke="black" points="2990.68,-113.23 3000.25,-108.7 2989.94,-106.26 2990.68,-113.23"/>
</g>
<!-- 2675062682880 -->
<g id="node29" class="node">
<title>2675062682880</title>
<polygon fill="none" stroke="black" points="3290.75,-118 3202,-118 3202,-82 3290.75,-82 3290.75,-118"/>
<text text-anchor="middle" x="3246.38" y="-94.97" font-family="Times New Roman,serif" font-size="12.00">Approve report</text>
</g>
<!-- 2675062440688&#45;&gt;2675062682880 -->
<g id="edge34" class="edge">
<title>2675062440688&#45;&gt;2675062682880</title>
<path fill="none" stroke="black" d="M3166.19,-100C3174.33,-100 3182.47,-100 3190.25,-100"/>
<polygon fill="black" stroke="black" points="3190.23,-103.5 3200.23,-100 3190.23,-96.5 3190.23,-103.5"/>
</g>
<!-- 2675062671024 -->
<g id="node30" class="node">
<title>2675062671024</title>
<polygon fill="none" stroke="black" points="3353.75,-118 3326.75,-100 3353.75,-82 3380.75,-100 3353.75,-118"/>
<text text-anchor="middle" x="3353.75" y="-94.97" font-family="Times New Roman,serif" font-size="12.00">X</text>
</g>
<!-- 2675062682880&#45;&gt;2675062671024 -->
<g id="edge35" class="edge">
<title>2675062682880&#45;&gt;2675062671024</title>
<path fill="none" stroke="black" d="M3291.15,-100C3298.94,-100 3307,-100 3314.62,-100"/>
<polygon fill="black" stroke="black" points="3314.62,-103.5 3324.62,-100 3314.62,-96.5 3314.62,-103.5"/>
</g>
<!-- 2675062671168 -->
<g id="node31" class="node">
<title>2675062671168</title>
<polygon fill="none" stroke="black" points="3539.25,-64 3422,-64 3422,-28 3539.25,-28 3539.25,-64"/>
<text text-anchor="middle" x="3480.62" y="-40.98" font-family="Times New Roman,serif" font-size="12.00">Distribute final report</text>
</g>
<!-- 2675062671024&#45;&gt;2675062671168 -->
<g id="edge36" class="edge">
<title>2675062671024&#45;&gt;2675062671168</title>
<path fill="none" stroke="black" d="M3370.8,-92.98C3383.31,-87.52 3401.13,-79.76 3416.75,-73 3419.87,-71.65 3423.07,-70.27 3426.3,-68.88"/>
<polygon fill="black" stroke="black" points="3427.47,-72.18 3435.27,-65.01 3424.7,-65.76 3427.47,-72.18"/>
</g>
<!-- 2675063106704 -->
<g id="node32" class="node">
<title>2675063106704</title>
<polygon fill="none" stroke="black" points="3544.5,-118 3416.75,-118 3416.75,-82 3544.5,-82 3544.5,-118"/>
<text text-anchor="middle" x="3480.62" y="-94.97" font-family="Times New Roman,serif" font-size="12.00">Send report for revision</text>
</g>
<!-- 2675062671024&#45;&gt;2675063106704 -->
<g id="edge37" class="edge">
<title>2675062671024&#45;&gt;2675063106704</title>
<path fill="none" stroke="black" d="M3381.54,-100C3388.63,-100 3396.65,-100 3404.97,-100"/>
<polygon fill="black" stroke="black" points="3404.93,-103.5 3414.93,-100 3404.93,-96.5 3404.93,-103.5"/>
</g>
<!-- 2675062672752 -->
<g id="node33" class="node">
<title>2675062672752</title>
<polygon fill="none" stroke="black" points="3695.5,-64 3610.5,-64 3610.5,-28 3695.5,-28 3695.5,-64"/>
<text text-anchor="middle" x="3653" y="-40.98" font-family="Times New Roman,serif" font-size="12.00">Archive report</text>
</g>
<!-- 2675062671168&#45;&gt;2675062672752 -->
<g id="edge38" class="edge">
<title>2675062671168&#45;&gt;2675062672752</title>
<path fill="none" stroke="black" d="M3539.31,-46C3558.57,-46 3579.94,-46 3598.85,-46"/>
<polygon fill="black" stroke="black" points="3598.75,-49.5 3608.75,-46 3598.75,-42.5 3598.75,-49.5"/>
</g>
<!-- 2675063102912 -->
<g id="node34" class="node">
<title>2675063102912</title>
<polygon fill="none" stroke="black" points="3725.5,-118 3580.5,-118 3580.5,-82 3725.5,-82 3725.5,-118"/>
<text text-anchor="middle" x="3653" y="-94.97" font-family="Times New Roman,serif" font-size="12.00">Update and resubmit report</text>
</g>
<!-- 2675063106704&#45;&gt;2675063102912 -->
<g id="edge39" class="edge">
<title>2675063106704&#45;&gt;2675063102912</title>
<path fill="none" stroke="black" d="M3544.58,-100C3552.44,-100 3560.57,-100 3568.68,-100"/>
<polygon fill="black" stroke="black" points="3568.59,-103.5 3578.59,-100 3568.59,-96.5 3568.59,-103.5"/>
</g>
<!-- 2675062671408 -->
<g id="node35" class="node">
<title>2675062671408</title>
<polygon fill="none" stroke="black" points="3897.12,-64 3789.62,-64 3789.62,-28 3897.12,-28 3897.12,-64"/>
<text text-anchor="middle" x="3843.38" y="-40.98" font-family="Times New Roman,serif" font-size="12.00">Close audit process</text>
</g>
<!-- 2675062672752&#45;&gt;2675062671408 -->
<g id="edge40" class="edge">
<title>2675062672752&#45;&gt;2675062671408</title>
<path fill="none" stroke="black" d="M3695.81,-46C3719.9,-46 3750.69,-46 3777.83,-46"/>
<polygon fill="black" stroke="black" points="3777.69,-49.5 3787.69,-46 3777.69,-42.5 3777.69,-49.5"/>
</g>
<!-- 2675062455904 -->
<g id="node36" class="node">
<title>2675062455904</title>
<polygon fill="none" stroke="black" points="3925.25,-118 3761.5,-118 3761.5,-82 3925.25,-82 3925.25,-118"/>
<text text-anchor="middle" x="3843.38" y="-94.97" font-family="Times New Roman,serif" font-size="12.00">Review report by audit director</text>
</g>
<!-- 2675063102912&#45;&gt;2675062455904 -->
<g id="edge41" class="edge">
<title>2675063102912&#45;&gt;2675062455904</title>
<path fill="none" stroke="black" d="M3725.75,-100C3733.6,-100 3741.66,-100 3749.71,-100"/>
<polygon fill="black" stroke="black" points="3749.55,-103.5 3759.55,-100 3749.55,-96.5 3749.55,-103.5"/>
</g>
<!-- 2675062681776 -->
<g id="node37" class="node">
<title>2675062681776</title>
<polygon fill="none" stroke="black" points="4005.62,-41 3978.62,-23 4005.62,-5 4032.62,-23 4005.62,-41"/>
<text text-anchor="middle" x="4005.62" y="-17.98" font-family="Times New Roman,serif" font-size="12.00">X</text>
</g>
<!-- 2675062671408&#45;&gt;2675062681776 -->
<g id="edge42" class="edge">
<title>2675062671408&#45;&gt;2675062681776</title>
<path fill="none" stroke="black" d="M3897.29,-38.41C3921.75,-34.89 3950.05,-30.83 3971.45,-27.76"/>
<polygon fill="black" stroke="black" points="3971.66,-31.27 3981.06,-26.38 3970.67,-24.34 3971.66,-31.27"/>
</g>
<!-- 2675062455520 -->
<g id="node38" class="node">
<title>2675062455520</title>
<polygon fill="none" stroke="black" points="4050,-141 3961.25,-141 3961.25,-105 4050,-105 4050,-141"/>
<text text-anchor="middle" x="4005.62" y="-117.97" font-family="Times New Roman,serif" font-size="12.00">Approve report</text>
</g>
<!-- 2675062455904&#45;&gt;2675062455520 -->
<g id="edge43" class="edge">
<title>2675062455904&#45;&gt;2675062455520</title>
<path fill="none" stroke="black" d="M3925.44,-111.63C3933.68,-112.82 3941.91,-114 3949.77,-115.13"/>
<polygon fill="black" stroke="black" points="3949.1,-118.57 3959.5,-116.52 3950.1,-111.64 3949.1,-118.57"/>
</g>
<!-- 2675062681776&#45;&gt;2675062452544 -->
<g id="edge44" class="edge">
<title>2675062681776&#45;&gt;2675062452544</title>
<path fill="none" stroke="black" d="M3981.69,-20.45C3925.75,-14.46 3777.84,0 3654,0 326.5,0 326.5,0 326.5,0 257.13,0 176.43,-10.81 132.53,-17.61"/>
<polygon fill="black" stroke="black" points="131.99,-14.15 122.66,-19.17 133.08,-21.06 131.99,-14.15"/>
</g>
<!-- 2675062451248 -->
<g id="node39" class="node">
<title>2675062451248</title>
<ellipse fill="orange" stroke="black" cx="4104" cy="-23" rx="18" ry="18"/>
</g>
<!-- 2675062681776&#45;&gt;2675062451248 -->
<g id="edge46" class="edge">
<title>2675062681776&#45;&gt;2675062451248</title>
<path fill="none" stroke="black" d="M4033.47,-23C4046.26,-23 4061.57,-23 4074.56,-23"/>
<polygon fill="black" stroke="black" points="4074.19,-26.5 4084.19,-23 4074.19,-19.5 4074.19,-26.5"/>
</g>
<!-- 2675062455520&#45;&gt;2675062684800 -->
<g id="edge45" class="edge">
<title>2675062455520&#45;&gt;2675062684800</title>
<path fill="none" stroke="black" d="M3960.96,-127.71C3894.69,-134.44 3764.72,-146 3654,-146 3245.38,-146 3245.38,-146 3245.38,-146 3136.99,-146 3109.65,-141.54 3002.25,-127 2992.1,-125.63 2981.1,-123.66 2971.22,-121.71"/>
<polygon fill="black" stroke="black" points="2972.24,-118.34 2961.74,-119.77 2970.84,-125.2 2972.24,-118.34"/>
</g>
</g>
</svg>
