<?xml version="1.0" encoding="UTF-8" standalone="no"?>
<!DOCTYPE svg PUBLIC "-//W3C//DTD SVG 1.1//EN"
 "http://www.w3.org/Graphics/SVG/1.1/DTD/svg11.dtd">
<!-- Generated by graphviz version 11.0.0 (20240428.1522)
 -->
<!-- Pages: 1 -->
<svg width="3271pt" height="256pt"
 viewBox="0.00 0.00 3271.00 256.00" xmlns="http://www.w3.org/2000/svg" xmlns:xlink="http://www.w3.org/1999/xlink">
<g id="graph0" class="graph" transform="scale(1 1) rotate(0) translate(4 252)">
<polygon fill="white" stroke="none" points="-4,4 -4,-252 3267,-252 3267,4 -4,4"/>
<!-- 2675063097632 -->
<g id="node1" class="node">
<title>2675063097632</title>
<ellipse fill="green" stroke="black" cx="18" cy="-98" rx="18" ry="18"/>
</g>
<!-- 2675063117376 -->
<g id="node2" class="node">
<title>2675063117376</title>
<polygon fill="none" stroke="black" points="179.5,-116 72,-116 72,-80 179.5,-80 179.5,-116"/>
<text text-anchor="middle" x="125.75" y="-92.97" font-family="Times New Roman,serif" font-size="12.00">Close audit process</text>
</g>
<!-- 2675063097632&#45;&gt;2675063117376 -->
<g id="edge1" class="edge">
<title>2675063097632&#45;&gt;2675063117376</title>
<path fill="none" stroke="black" d="M36.46,-98C43.31,-98 51.62,-98 60.38,-98"/>
<polygon fill="black" stroke="black" points="60.11,-101.5 70.11,-98 60.11,-94.5 60.11,-101.5"/>
</g>
<!-- 2675063124576 -->
<g id="node3" class="node">
<title>2675063124576</title>
<polygon fill="none" stroke="black" points="300.5,-116 215.5,-116 215.5,-80 300.5,-80 300.5,-116"/>
<text text-anchor="middle" x="258" y="-92.97" font-family="Times New Roman,serif" font-size="12.00">Archive report</text>
</g>
<!-- 2675063117376&#45;&gt;2675063124576 -->
<g id="edge2" class="edge">
<title>2675063117376&#45;&gt;2675063124576</title>
<path fill="none" stroke="black" d="M179.73,-98C187.68,-98 195.88,-98 203.83,-98"/>
<polygon fill="black" stroke="black" points="203.74,-101.5 213.74,-98 203.74,-94.5 203.74,-101.5"/>
</g>
<!-- 2675063116944 -->
<g id="node4" class="node">
<title>2675063116944</title>
<polygon fill="none" stroke="black" points="453.75,-116 336.5,-116 336.5,-80 453.75,-80 453.75,-116"/>
<text text-anchor="middle" x="395.12" y="-92.97" font-family="Times New Roman,serif" font-size="12.00">Distribute final report</text>
</g>
<!-- 2675063124576&#45;&gt;2675063116944 -->
<g id="edge3" class="edge">
<title>2675063124576&#45;&gt;2675063116944</title>
<path fill="none" stroke="black" d="M300.64,-98C308.43,-98 316.75,-98 325.11,-98"/>
<polygon fill="black" stroke="black" points="324.96,-101.5 334.96,-98 324.96,-94.5 324.96,-101.5"/>
</g>
<!-- 2675063112528 -->
<g id="node5" class="node">
<title>2675063112528</title>
<polygon fill="none" stroke="black" points="578.5,-116 489.75,-116 489.75,-80 578.5,-80 578.5,-116"/>
<text text-anchor="middle" x="534.12" y="-92.97" font-family="Times New Roman,serif" font-size="12.00">Approve report</text>
</g>
<!-- 2675063116944&#45;&gt;2675063112528 -->
<g id="edge4" class="edge">
<title>2675063116944&#45;&gt;2675063112528</title>
<path fill="none" stroke="black" d="M454.23,-98C462.16,-98 470.29,-98 478.17,-98"/>
<polygon fill="black" stroke="black" points="477.97,-101.5 487.97,-98 477.97,-94.5 477.97,-101.5"/>
</g>
<!-- 2675082484800 -->
<g id="node6" class="node">
<title>2675082484800</title>
<polygon fill="none" stroke="black" points="641.5,-116 614.5,-98 641.5,-80 668.5,-98 641.5,-116"/>
<text text-anchor="middle" x="641.5" y="-92.97" font-family="Times New Roman,serif" font-size="12.00">X</text>
</g>
<!-- 2675063112528&#45;&gt;2675082484800 -->
<g id="edge5" class="edge">
<title>2675063112528&#45;&gt;2675082484800</title>
<path fill="none" stroke="black" d="M578.9,-98C586.69,-98 594.75,-98 602.37,-98"/>
<polygon fill="black" stroke="black" points="602.37,-101.5 612.37,-98 602.37,-94.5 602.37,-101.5"/>
</g>
<!-- 2675063126208 -->
<g id="node7" class="node">
<title>2675063126208</title>
<polygon fill="none" stroke="black" points="868.25,-139 704.5,-139 704.5,-103 868.25,-103 868.25,-139"/>
<text text-anchor="middle" x="786.38" y="-115.97" font-family="Times New Roman,serif" font-size="12.00">Review report by audit director</text>
</g>
<!-- 2675082484800&#45;&gt;2675063126208 -->
<g id="edge6" class="edge">
<title>2675082484800&#45;&gt;2675063126208</title>
<path fill="none" stroke="black" d="M663.89,-101.44C672.09,-102.76 682.07,-104.37 692.74,-106.09"/>
<polygon fill="black" stroke="black" points="692.14,-109.54 702.56,-107.67 693.25,-102.62 692.14,-109.54"/>
</g>
<!-- 2675082477840 -->
<g id="node8" class="node">
<title>2675082477840</title>
<polygon fill="none" stroke="black" points="931.25,-139 904.25,-121 931.25,-103 958.25,-121 931.25,-139"/>
<text text-anchor="middle" x="931.25" y="-115.97" font-family="Times New Roman,serif" font-size="12.00">X</text>
</g>
<!-- 2675063126208&#45;&gt;2675082477840 -->
<g id="edge7" class="edge">
<title>2675063126208&#45;&gt;2675082477840</title>
<path fill="none" stroke="black" d="M868.41,-121C876.58,-121 884.58,-121 891.97,-121"/>
<polygon fill="black" stroke="black" points="891.87,-124.5 901.87,-121 891.87,-117.5 891.87,-124.5"/>
</g>
<!-- 2675082487632 -->
<g id="node9" class="node">
<title>2675082487632</title>
<polygon fill="none" stroke="black" points="1066.75,-193 1039.75,-175 1066.75,-157 1093.75,-175 1066.75,-193"/>
<text text-anchor="middle" x="1066.75" y="-169.97" font-family="Times New Roman,serif" font-size="12.00">X</text>
</g>
<!-- 2675082477840&#45;&gt;2675082487632 -->
<g id="edge8" class="edge">
<title>2675082477840&#45;&gt;2675082487632</title>
<path fill="none" stroke="black" d="M948.22,-128.21C960.68,-133.78 978.48,-141.59 994.25,-148 1008.42,-153.76 1024.32,-159.8 1037.52,-164.71"/>
<polygon fill="black" stroke="black" points="1036.31,-167.99 1046.9,-168.17 1038.73,-161.42 1036.31,-167.99"/>
</g>
<!-- 2675063123328 -->
<g id="node10" class="node">
<title>2675063123328</title>
<polygon fill="none" stroke="black" points="1139.25,-139 994.25,-139 994.25,-103 1139.25,-103 1139.25,-139"/>
<text text-anchor="middle" x="1066.75" y="-115.97" font-family="Times New Roman,serif" font-size="12.00">Update and resubmit report</text>
</g>
<!-- 2675082477840&#45;&gt;2675063123328 -->
<g id="edge9" class="edge">
<title>2675082477840&#45;&gt;2675063123328</title>
<path fill="none" stroke="black" d="M958.94,-121C966.09,-121 974.2,-121 982.69,-121"/>
<polygon fill="black" stroke="black" points="982.5,-124.5 992.5,-121 982.5,-117.5 982.5,-124.5"/>
</g>
<!-- 2675082482928 -->
<g id="node11" class="node">
<title>2675082482928</title>
<polygon fill="none" stroke="black" points="1959.75,-194 1932.75,-176 1959.75,-158 1986.75,-176 1959.75,-194"/>
<text text-anchor="middle" x="1959.75" y="-170.97" font-family="Times New Roman,serif" font-size="12.00">X</text>
</g>
<!-- 2675082487632&#45;&gt;2675082482928 -->
<g id="edge11" class="edge">
<title>2675082487632&#45;&gt;2675082482928</title>
<path fill="none" stroke="black" d="M1086.21,-180.55C1107.48,-186.74 1143.58,-196.57 1175.25,-202 1287.99,-221.32 1317.11,-226 1431.5,-226 1431.5,-226 1431.5,-226 1730.38,-226 1804.18,-226 1888.35,-200.78 1930.93,-186.16"/>
<polygon fill="black" stroke="black" points="1931.85,-189.55 1940.13,-182.94 1929.53,-182.94 1931.85,-189.55"/>
</g>
<!-- 2675063115504 -->
<g id="node13" class="node">
<title>2675063115504</title>
<polygon fill="none" stroke="black" points="1295.88,-193 1182.38,-193 1182.38,-157 1295.88,-157 1295.88,-193"/>
<text text-anchor="middle" x="1239.12" y="-169.97" font-family="Times New Roman,serif" font-size="12.00">Compile audit report</text>
</g>
<!-- 2675082487632&#45;&gt;2675063115504 -->
<g id="edge10" class="edge">
<title>2675082487632&#45;&gt;2675063115504</title>
<path fill="none" stroke="black" d="M1094.37,-175C1114.84,-175 1144.06,-175 1170.82,-175"/>
<polygon fill="black" stroke="black" points="1170.59,-178.5 1180.59,-175 1170.59,-171.5 1170.59,-178.5"/>
</g>
<!-- 2675082477888 -->
<g id="node12" class="node">
<title>2675082477888</title>
<polygon fill="none" stroke="black" points="1303,-139 1175.25,-139 1175.25,-103 1303,-103 1303,-139"/>
<text text-anchor="middle" x="1239.12" y="-115.97" font-family="Times New Roman,serif" font-size="12.00">Send report for revision</text>
</g>
<!-- 2675063123328&#45;&gt;2675082477888 -->
<g id="edge12" class="edge">
<title>2675063123328&#45;&gt;2675082477888</title>
<path fill="none" stroke="black" d="M1139.51,-121C1147.39,-121 1155.43,-121 1163.35,-121"/>
<polygon fill="black" stroke="black" points="1163.32,-124.5 1173.32,-121 1163.32,-117.5 1163.32,-124.5"/>
</g>
<!-- 2675063123232 -->
<g id="node15" class="node">
<title>2675063123232</title>
<polygon fill="none" stroke="black" points="2049.75,-194 2022.75,-176 2049.75,-158 2076.75,-176 2049.75,-194"/>
<text text-anchor="middle" x="2049.75" y="-170.97" font-family="Times New Roman,serif" font-size="12.00">+</text>
</g>
<!-- 2675082482928&#45;&gt;2675063123232 -->
<g id="edge13" class="edge">
<title>2675082482928&#45;&gt;2675063123232</title>
<path fill="none" stroke="black" d="M1987.63,-176C1994.88,-176 2002.87,-176 2010.6,-176"/>
<polygon fill="black" stroke="black" points="2010.52,-179.5 2020.52,-176 2010.52,-172.5 2010.52,-179.5"/>
</g>
<!-- 2675082480384 -->
<g id="node14" class="node">
<title>2675082480384</title>
<polygon fill="none" stroke="black" points="1514.38,-110 1350.62,-110 1350.62,-74 1514.38,-74 1514.38,-110"/>
<text text-anchor="middle" x="1432.5" y="-86.97" font-family="Times New Roman,serif" font-size="12.00">Review report by audit director</text>
</g>
<!-- 2675082477888&#45;&gt;2675082480384 -->
<g id="edge14" class="edge">
<title>2675082477888&#45;&gt;2675082480384</title>
<path fill="none" stroke="black" d="M1303.32,-111.42C1314.82,-109.68 1327.04,-107.83 1339.18,-105.99"/>
<polygon fill="black" stroke="black" points="1339.43,-109.49 1348.79,-104.53 1338.38,-102.57 1339.43,-109.49"/>
</g>
<!-- 2675063124624 -->
<g id="node16" class="node">
<title>2675063124624</title>
<polygon fill="none" stroke="black" points="1526,-187 1339,-187 1339,-151 1526,-151 1526,-187"/>
<text text-anchor="middle" x="1432.5" y="-163.97" font-family="Times New Roman,serif" font-size="12.00">Complete risk assessment/mitigation</text>
</g>
<!-- 2675063115504&#45;&gt;2675063124624 -->
<g id="edge15" class="edge">
<title>2675063115504&#45;&gt;2675063124624</title>
<path fill="none" stroke="black" d="M1296.25,-173.24C1306.16,-172.93 1316.75,-172.6 1327.48,-172.26"/>
<polygon fill="black" stroke="black" points="1327.29,-175.77 1337.18,-171.96 1327.07,-168.77 1327.29,-175.77"/>
</g>
<!-- 2675082480384&#45;&gt;2675082484800 -->
<g id="edge16" class="edge">
<title>2675082480384&#45;&gt;2675082484800</title>
<path fill="none" stroke="black" d="M1350.29,-86.03C1276.6,-81.13 1164.95,-75 1067.75,-75 930.25,-75 930.25,-75 930.25,-75 838,-75 729.64,-86.89 676.03,-93.57"/>
<polygon fill="black" stroke="black" points="675.82,-90.07 666.34,-94.8 676.7,-97.02 675.82,-90.07"/>
</g>
<!-- 2675063113632 -->
<g id="node17" class="node">
<title>2675063113632</title>
<polygon fill="none" stroke="black" points="2251,-248 2113.5,-248 2113.5,-212 2251,-212 2251,-248"/>
<text text-anchor="middle" x="2182.25" y="-224.97" font-family="Times New Roman,serif" font-size="12.00">Evaluate operational risks</text>
</g>
<!-- 2675063123232&#45;&gt;2675063113632 -->
<g id="edge17" class="edge">
<title>2675063123232&#45;&gt;2675063113632</title>
<path fill="none" stroke="black" d="M2066.74,-183.15C2079.22,-188.68 2097.02,-196.48 2112.75,-203 2116.28,-204.46 2119.92,-205.95 2123.6,-207.45"/>
<polygon fill="black" stroke="black" points="2122.01,-210.58 2132.59,-211.06 2124.62,-204.08 2122.01,-210.58"/>
</g>
<!-- 2675063119008 -->
<g id="node18" class="node">
<title>2675063119008</title>
<polygon fill="none" stroke="black" points="2251.75,-194 2112.75,-194 2112.75,-158 2251.75,-158 2251.75,-194"/>
<text text-anchor="middle" x="2182.25" y="-170.97" font-family="Times New Roman,serif" font-size="12.00">Evaluate compliance risks</text>
</g>
<!-- 2675063123232&#45;&gt;2675063119008 -->
<g id="edge19" class="edge">
<title>2675063123232&#45;&gt;2675063119008</title>
<path fill="none" stroke="black" d="M2077.47,-176C2084.63,-176 2092.75,-176 2101.22,-176"/>
<polygon fill="black" stroke="black" points="2100.99,-179.5 2110.99,-176 2100.99,-172.5 2100.99,-179.5"/>
</g>
<!-- 2675063117856 -->
<g id="node20" class="node">
<title>2675063117856</title>
<polygon fill="none" stroke="black" points="2245,-140 2119.5,-140 2119.5,-104 2245,-104 2245,-140"/>
<text text-anchor="middle" x="2182.25" y="-116.97" font-family="Times New Roman,serif" font-size="12.00">Evaluate financial risks</text>
</g>
<!-- 2675063123232&#45;&gt;2675063117856 -->
<g id="edge18" class="edge">
<title>2675063123232&#45;&gt;2675063117856</title>
<path fill="none" stroke="black" d="M2066.74,-168.85C2079.22,-163.32 2097.02,-155.52 2112.75,-149 2116.28,-147.54 2119.92,-146.05 2123.6,-144.55"/>
<polygon fill="black" stroke="black" points="2124.62,-147.92 2132.59,-140.94 2122.01,-141.42 2124.62,-147.92"/>
</g>
<!-- 2675063124384 -->
<g id="node19" class="node">
<title>2675063124384</title>
<polygon fill="none" stroke="black" points="1589,-144 1562,-126 1589,-108 1616,-126 1589,-144"/>
<text text-anchor="middle" x="1589" y="-120.97" font-family="Times New Roman,serif" font-size="12.00">+</text>
</g>
<!-- 2675063124624&#45;&gt;2675063124384 -->
<g id="edge20" class="edge">
<title>2675063124624&#45;&gt;2675063124384</title>
<path fill="none" stroke="black" d="M1499.92,-150.51C1520.39,-144.82 1541.89,-138.83 1558.52,-134.2"/>
<polygon fill="black" stroke="black" points="1559.04,-137.69 1567.73,-131.64 1557.16,-130.95 1559.04,-137.69"/>
</g>
<!-- 2675063119872 -->
<g id="node23" class="node">
<title>2675063119872</title>
<polygon fill="none" stroke="black" points="2314.75,-194 2287.75,-176 2314.75,-158 2341.75,-176 2314.75,-194"/>
<text text-anchor="middle" x="2314.75" y="-170.97" font-family="Times New Roman,serif" font-size="12.00">+</text>
</g>
<!-- 2675063113632&#45;&gt;2675063119872 -->
<g id="edge21" class="edge">
<title>2675063113632&#45;&gt;2675063119872</title>
<path fill="none" stroke="black" d="M2230.5,-211.63C2237.64,-208.78 2244.9,-205.84 2251.75,-203 2263.54,-198.11 2276.51,-192.5 2287.52,-187.67"/>
<polygon fill="black" stroke="black" points="2288.64,-191 2296.37,-183.76 2285.81,-184.59 2288.64,-191"/>
</g>
<!-- 2675063119008&#45;&gt;2675063119872 -->
<g id="edge22" class="edge">
<title>2675063119008&#45;&gt;2675063119872</title>
<path fill="none" stroke="black" d="M2251.94,-176C2259.98,-176 2267.96,-176 2275.37,-176"/>
<polygon fill="black" stroke="black" points="2275.34,-179.5 2285.34,-176 2275.34,-172.5 2275.34,-179.5"/>
</g>
<!-- 2675082484656 -->
<g id="node21" class="node">
<title>2675082484656</title>
<polygon fill="none" stroke="black" points="1806.75,-198 1652,-198 1652,-162 1806.75,-162 1806.75,-198"/>
<text text-anchor="middle" x="1729.38" y="-174.97" font-family="Times New Roman,serif" font-size="12.00">Launch detailed investigation</text>
</g>
<!-- 2675063124384&#45;&gt;2675082484656 -->
<g id="edge25" class="edge">
<title>2675063124384&#45;&gt;2675082484656</title>
<path fill="none" stroke="black" d="M1605.93,-133.31C1618.37,-138.93 1636.16,-146.76 1652,-153 1656.01,-154.58 1660.15,-156.17 1664.34,-157.74"/>
<polygon fill="black" stroke="black" points="1662.77,-160.89 1673.36,-161.07 1665.19,-154.32 1662.77,-160.89"/>
</g>
<!-- 2675063125344 -->
<g id="node22" class="node">
<title>2675063125344</title>
<polygon fill="none" stroke="black" points="1779.38,-144 1679.38,-144 1679.38,-108 1779.38,-108 1779.38,-144"/>
<text text-anchor="middle" x="1729.38" y="-120.97" font-family="Times New Roman,serif" font-size="12.00">Perform site visits</text>
</g>
<!-- 2675063124384&#45;&gt;2675063125344 -->
<g id="edge24" class="edge">
<title>2675063124384&#45;&gt;2675063125344</title>
<path fill="none" stroke="black" d="M1616.68,-126C1631.24,-126 1649.91,-126 1667.8,-126"/>
<polygon fill="black" stroke="black" points="1667.58,-129.5 1677.58,-126 1667.58,-122.5 1667.58,-129.5"/>
</g>
<!-- 2675063125296 -->
<g id="node24" class="node">
<title>2675063125296</title>
<polygon fill="none" stroke="black" points="1789.12,-90 1669.62,-90 1669.62,-54 1789.12,-54 1789.12,-90"/>
<text text-anchor="middle" x="1729.38" y="-66.97" font-family="Times New Roman,serif" font-size="12.00">Conduct data analysis</text>
</g>
<!-- 2675063124384&#45;&gt;2675063125296 -->
<g id="edge23" class="edge">
<title>2675063124384&#45;&gt;2675063125296</title>
<path fill="none" stroke="black" d="M1605.93,-118.69C1618.37,-113.07 1636.16,-105.24 1652,-99 1656.01,-97.42 1660.15,-95.83 1664.34,-94.26"/>
<polygon fill="black" stroke="black" points="1665.19,-97.68 1673.36,-90.93 1662.77,-91.11 1665.19,-97.68"/>
</g>
<!-- 2675063114064 -->
<g id="node25" class="node">
<title>2675063114064</title>
<polygon fill="none" stroke="black" points="1783.5,-36 1675.25,-36 1675.25,0 1783.5,0 1783.5,-36"/>
<text text-anchor="middle" x="1729.38" y="-12.97" font-family="Times New Roman,serif" font-size="12.00">Conduct interviews</text>
</g>
<!-- 2675063124384&#45;&gt;2675063114064 -->
<g id="edge26" class="edge">
<title>2675063124384&#45;&gt;2675063114064</title>
<path fill="none" stroke="black" d="M1596.83,-112.89C1606.71,-95.1 1626.65,-63.43 1652,-45 1656.01,-42.08 1660.37,-39.46 1664.9,-37.1"/>
<polygon fill="black" stroke="black" points="1666.08,-40.41 1673.65,-32.99 1663.11,-34.07 1666.08,-40.41"/>
</g>
<!-- 2675063117856&#45;&gt;2675063119872 -->
<g id="edge27" class="edge">
<title>2675063117856&#45;&gt;2675063119872</title>
<path fill="none" stroke="black" d="M2230.5,-140.37C2237.64,-143.22 2244.9,-146.16 2251.75,-149 2263.54,-153.89 2276.51,-159.5 2287.52,-164.33"/>
<polygon fill="black" stroke="black" points="2285.81,-167.41 2296.37,-168.24 2288.64,-161 2285.81,-167.41"/>
</g>
<!-- 2675063125104 -->
<g id="node27" class="node">
<title>2675063125104</title>
<polygon fill="none" stroke="black" points="1869.75,-144 1842.75,-126 1869.75,-108 1896.75,-126 1869.75,-144"/>
<text text-anchor="middle" x="1869.75" y="-120.97" font-family="Times New Roman,serif" font-size="12.00">+</text>
</g>
<!-- 2675082484656&#45;&gt;2675063125104 -->
<g id="edge28" class="edge">
<title>2675082484656&#45;&gt;2675063125104</title>
<path fill="none" stroke="black" d="M1783.97,-161.6C1791.65,-158.8 1799.42,-155.89 1806.75,-153 1818.63,-148.32 1831.6,-142.74 1842.6,-137.88"/>
<polygon fill="black" stroke="black" points="1843.74,-141.2 1851.44,-133.93 1840.88,-134.81 1843.74,-141.2"/>
</g>
<!-- 2675063125344&#45;&gt;2675063125104 -->
<g id="edge29" class="edge">
<title>2675063125344&#45;&gt;2675063125104</title>
<path fill="none" stroke="black" d="M1779.55,-126C1796.26,-126 1814.68,-126 1830.42,-126"/>
<polygon fill="black" stroke="black" points="1830.35,-129.5 1840.35,-126 1830.35,-122.5 1830.35,-129.5"/>
</g>
<!-- 2675082478272 -->
<g id="node26" class="node">
<title>2675082478272</title>
<polygon fill="none" stroke="black" points="2404.75,-194 2377.75,-176 2404.75,-158 2431.75,-176 2404.75,-194"/>
<text text-anchor="middle" x="2404.75" y="-170.97" font-family="Times New Roman,serif" font-size="12.00">X</text>
</g>
<!-- 2675063119872&#45;&gt;2675082478272 -->
<g id="edge30" class="edge">
<title>2675063119872&#45;&gt;2675082478272</title>
<path fill="none" stroke="black" d="M2342.63,-176C2349.88,-176 2357.87,-176 2365.6,-176"/>
<polygon fill="black" stroke="black" points="2365.52,-179.5 2375.52,-176 2365.52,-172.5 2365.52,-179.5"/>
</g>
<!-- 2675063125296&#45;&gt;2675063125104 -->
<g id="edge31" class="edge">
<title>2675063125296&#45;&gt;2675063125104</title>
<path fill="none" stroke="black" d="M1783.97,-90.4C1791.65,-93.2 1799.42,-96.11 1806.75,-99 1818.63,-103.68 1831.6,-109.26 1842.6,-114.12"/>
<polygon fill="black" stroke="black" points="1840.88,-117.19 1851.44,-118.07 1843.74,-110.8 1840.88,-117.19"/>
</g>
<!-- 2675063114064&#45;&gt;2675063125104 -->
<g id="edge32" class="edge">
<title>2675063114064&#45;&gt;2675063125104</title>
<path fill="none" stroke="black" d="M1783.73,-32.35C1791.84,-35.78 1799.81,-39.96 1806.75,-45 1827.94,-60.41 1845.35,-85.06 1856.27,-103.13"/>
<polygon fill="black" stroke="black" points="1853.12,-104.68 1861.16,-111.58 1859.18,-101.17 1853.12,-104.68"/>
</g>
<!-- 2675082483552 -->
<g id="node28" class="node">
<title>2675082483552</title>
<polygon fill="none" stroke="black" points="2880,-194 2853,-176 2880,-158 2907,-176 2880,-194"/>
<text text-anchor="middle" x="2880" y="-170.97" font-family="Times New Roman,serif" font-size="12.00">X</text>
</g>
<!-- 2675082478272&#45;&gt;2675082483552 -->
<g id="edge35" class="edge">
<title>2675082478272&#45;&gt;2675082483552</title>
<path fill="none" stroke="black" d="M2429.58,-177.9C2441.1,-178.72 2455.14,-179.59 2467.75,-180 2622.89,-185 2661.86,-185 2817,-180 2825.67,-179.72 2835.02,-179.22 2843.75,-178.67"/>
<polygon fill="black" stroke="black" points="2843.92,-182.17 2853.66,-178 2843.45,-175.18 2843.92,-182.17"/>
</g>
<!-- 2675063115072 -->
<g id="node29" class="node">
<title>2675063115072</title>
<polygon fill="none" stroke="black" points="2585,-171 2467.75,-171 2467.75,-135 2585,-135 2585,-171"/>
<text text-anchor="middle" x="2526.38" y="-147.97" font-family="Times New Roman,serif" font-size="12.00">Receive clarifications</text>
</g>
<!-- 2675082478272&#45;&gt;2675063115072 -->
<g id="edge34" class="edge">
<title>2675082478272&#45;&gt;2675063115072</title>
<path fill="none" stroke="black" d="M2426.59,-171.99C2435.03,-170.37 2445.32,-168.39 2456.02,-166.34"/>
<polygon fill="black" stroke="black" points="2456.61,-169.78 2465.77,-164.46 2455.29,-162.91 2456.61,-169.78"/>
</g>
<!-- 2675063125104&#45;&gt;2675082482928 -->
<g id="edge33" class="edge">
<title>2675063125104&#45;&gt;2675082482928</title>
<path fill="none" stroke="black" d="M1884.89,-134.03C1898.28,-141.64 1918.66,-153.22 1934.62,-162.29"/>
<polygon fill="black" stroke="black" points="1932.61,-165.18 1943.04,-167.07 1936.07,-159.09 1932.61,-165.18"/>
</g>
<!-- 2675063114208 -->
<g id="node30" class="node">
<title>2675063114208</title>
<polygon fill="none" stroke="black" points="3051.25,-194 2943,-194 2943,-158 3051.25,-158 3051.25,-194"/>
<text text-anchor="middle" x="2997.12" y="-170.97" font-family="Times New Roman,serif" font-size="12.00">Review submission</text>
</g>
<!-- 2675082483552&#45;&gt;2675063114208 -->
<g id="edge36" class="edge">
<title>2675082483552&#45;&gt;2675063114208</title>
<path fill="none" stroke="black" d="M2907.7,-176C2914.92,-176 2923.05,-176 2931.39,-176"/>
<polygon fill="black" stroke="black" points="2931.3,-179.5 2941.3,-176 2931.3,-172.5 2931.3,-179.5"/>
</g>
<!-- 2675063117088 -->
<g id="node31" class="node">
<title>2675063117088</title>
<polygon fill="none" stroke="black" points="2817,-171 2621,-171 2621,-135 2817,-135 2817,-171"/>
<text text-anchor="middle" x="2719" y="-147.97" font-family="Times New Roman,serif" font-size="12.00">Request clarifications of discrepancies</text>
</g>
<!-- 2675063115072&#45;&gt;2675063117088 -->
<g id="edge37" class="edge">
<title>2675063115072&#45;&gt;2675063117088</title>
<path fill="none" stroke="black" d="M2585.35,-153C2593.03,-153 2601.09,-153 2609.29,-153"/>
<polygon fill="black" stroke="black" points="2609.02,-156.5 2619.02,-153 2609.02,-149.5 2609.02,-156.5"/>
</g>
<!-- 2675063126304 -->
<g id="node32" class="node">
<title>2675063126304</title>
<polygon fill="none" stroke="black" points="3191,-194 3087.25,-194 3087.25,-158 3191,-158 3191,-194"/>
<text text-anchor="middle" x="3139.12" y="-170.97" font-family="Times New Roman,serif" font-size="12.00">Submit documents</text>
</g>
<!-- 2675063114208&#45;&gt;2675063126304 -->
<g id="edge39" class="edge">
<title>2675063114208&#45;&gt;2675063126304</title>
<path fill="none" stroke="black" d="M3051.45,-176C3059.33,-176 3067.51,-176 3075.55,-176"/>
<polygon fill="black" stroke="black" points="3075.28,-179.5 3085.28,-176 3075.28,-172.5 3075.28,-179.5"/>
</g>
<!-- 2675063117088&#45;&gt;2675082483552 -->
<g id="edge38" class="edge">
<title>2675063117088&#45;&gt;2675082483552</title>
<path fill="none" stroke="black" d="M2817.07,-167.04C2827.38,-168.53 2837.28,-169.97 2846.02,-171.23"/>
<polygon fill="black" stroke="black" points="2845.26,-174.66 2855.65,-172.62 2846.26,-167.73 2845.26,-174.66"/>
</g>
<!-- 2675063102384 -->
<g id="node33" class="node">
<title>2675063102384</title>
<ellipse fill="orange" stroke="black" cx="3245" cy="-176" rx="18" ry="18"/>
</g>
<!-- 2675063126304&#45;&gt;2675063102384 -->
<g id="edge40" class="edge">
<title>2675063126304&#45;&gt;2675063102384</title>
<path fill="none" stroke="black" d="M3191.45,-176C3199.67,-176 3207.91,-176 3215.35,-176"/>
<polygon fill="black" stroke="black" points="3215.09,-179.5 3225.09,-176 3215.09,-172.5 3215.09,-179.5"/>
</g>
</g>
</svg>
