<?xml version="1.0" encoding="UTF-8" standalone="no"?>
<!DOCTYPE svg PUBLIC "-//W3C//DTD SVG 1.1//EN"
 "http://www.w3.org/Graphics/SVG/1.1/DTD/svg11.dtd">
<!-- Generated by graphviz version 11.0.0 (20240428.1522)
 -->
<!-- Pages: 1 -->
<svg width="3933pt" height="259pt"
 viewBox="0.00 0.00 3933.00 259.00" xmlns="http://www.w3.org/2000/svg" xmlns:xlink="http://www.w3.org/1999/xlink">
<g id="graph0" class="graph" transform="scale(1 1) rotate(0) translate(4 255)">
<polygon fill="white" stroke="none" points="-4,4 -4,-255 3929,-255 3929,4 -4,4"/>
<!-- 2675054047360 -->
<g id="node1" class="node">
<title>2675054047360</title>
<ellipse fill="green" stroke="black" cx="18" cy="-23" rx="18" ry="18"/>
</g>
<!-- 2675053745056 -->
<g id="node2" class="node">
<title>2675053745056</title>
<polygon fill="none" stroke="black" points="99,-41 72,-23 99,-5 126,-23 99,-41"/>
<text text-anchor="middle" x="99" y="-17.98" font-family="Times New Roman,serif" font-size="12.00">X</text>
</g>
<!-- 2675054047360&#45;&gt;2675053745056 -->
<g id="edge1" class="edge">
<title>2675054047360&#45;&gt;2675053745056</title>
<path fill="none" stroke="black" d="M36.14,-23C43.11,-23 51.47,-23 59.75,-23"/>
<polygon fill="black" stroke="black" points="59.75,-26.5 69.75,-23 59.75,-19.5 59.75,-26.5"/>
</g>
<!-- 2675062385760 -->
<g id="node3" class="node">
<title>2675062385760</title>
<polygon fill="none" stroke="black" points="189,-64 162,-46 189,-28 216,-46 189,-64"/>
<text text-anchor="middle" x="189" y="-40.98" font-family="Times New Roman,serif" font-size="12.00">X</text>
</g>
<!-- 2675053745056&#45;&gt;2675062385760 -->
<g id="edge2" class="edge">
<title>2675053745056&#45;&gt;2675062385760</title>
<path fill="none" stroke="black" d="M119.09,-27.99C130.51,-30.97 145.26,-34.83 158.19,-38.21"/>
<polygon fill="black" stroke="black" points="156.92,-41.49 167.48,-40.64 158.69,-34.72 156.92,-41.49"/>
</g>
<!-- 2675053747936 -->
<g id="node4" class="node">
<title>2675053747936</title>
<polygon fill="none" stroke="black" points="389.5,-118 252,-118 252,-82 389.5,-82 389.5,-118"/>
<text text-anchor="middle" x="320.75" y="-94.97" font-family="Times New Roman,serif" font-size="12.00">Evaluate operational risks</text>
</g>
<!-- 2675062385760&#45;&gt;2675053747936 -->
<g id="edge3" class="edge">
<title>2675062385760&#45;&gt;2675053747936</title>
<path fill="none" stroke="black" d="M206,-53.13C218.48,-58.66 236.29,-66.45 252,-73 255.39,-74.41 258.88,-75.85 262.41,-77.29"/>
<polygon fill="black" stroke="black" points="261.04,-80.52 271.62,-81.03 263.67,-74.03 261.04,-80.52"/>
</g>
<!-- 2675054042176 -->
<g id="node40" class="node">
<title>2675054042176</title>
<ellipse fill="orange" stroke="black" cx="320.75" cy="-46" rx="18" ry="18"/>
</g>
<!-- 2675062385760&#45;&gt;2675054042176 -->
<g id="edge4" class="edge">
<title>2675062385760&#45;&gt;2675054042176</title>
<path fill="none" stroke="black" d="M216.88,-46C238.55,-46 268.96,-46 291.09,-46"/>
<polygon fill="black" stroke="black" points="290.91,-49.5 300.91,-46 290.91,-42.5 290.91,-49.5"/>
</g>
<!-- 2675053752544 -->
<g id="node5" class="node">
<title>2675053752544</title>
<polygon fill="none" stroke="black" points="452.5,-118 425.5,-100 452.5,-82 479.5,-100 452.5,-118"/>
<text text-anchor="middle" x="452.5" y="-94.97" font-family="Times New Roman,serif" font-size="12.00">X</text>
</g>
<!-- 2675053747936&#45;&gt;2675053752544 -->
<g id="edge5" class="edge">
<title>2675053747936&#45;&gt;2675053752544</title>
<path fill="none" stroke="black" d="M389.67,-100C397.87,-100 406.02,-100 413.57,-100"/>
<polygon fill="black" stroke="black" points="413.36,-103.5 423.36,-100 413.36,-96.5 413.36,-103.5"/>
</g>
<!-- 2675053751392 -->
<g id="node6" class="node">
<title>2675053751392</title>
<polygon fill="none" stroke="black" points="768,-167 640.25,-167 640.25,-131 768,-131 768,-167"/>
<text text-anchor="middle" x="704.12" y="-143.97" font-family="Times New Roman,serif" font-size="12.00">Send report for revision</text>
</g>
<!-- 2675053752544&#45;&gt;2675053751392 -->
<g id="edge7" class="edge">
<title>2675053752544&#45;&gt;2675053751392</title>
<path fill="none" stroke="black" d="M468.63,-107.73C480.94,-113.68 498.92,-121.6 515.5,-126 552.13,-135.73 593.9,-141.36 628.72,-144.61"/>
<polygon fill="black" stroke="black" points="627.99,-148.06 638.25,-145.45 628.6,-141.09 627.99,-148.06"/>
</g>
<!-- 2675053741216 -->
<g id="node7" class="node">
<title>2675053741216</title>
<polygon fill="none" stroke="black" points="604.25,-117 515.5,-117 515.5,-81 604.25,-81 604.25,-117"/>
<text text-anchor="middle" x="559.88" y="-93.97" font-family="Times New Roman,serif" font-size="12.00">Approve report</text>
</g>
<!-- 2675053752544&#45;&gt;2675053741216 -->
<g id="edge6" class="edge">
<title>2675053752544&#45;&gt;2675053741216</title>
<path fill="none" stroke="black" d="M479.82,-99.75C487.19,-99.68 495.5,-99.6 503.88,-99.52"/>
<polygon fill="black" stroke="black" points="503.8,-103.02 513.77,-99.43 503.74,-96.02 503.8,-103.02"/>
</g>
<!-- 2675053740928 -->
<g id="node8" class="node">
<title>2675053740928</title>
<polygon fill="none" stroke="black" points="831,-165 804,-147 831,-129 858,-147 831,-165"/>
<text text-anchor="middle" x="831" y="-141.97" font-family="Times New Roman,serif" font-size="12.00">X</text>
</g>
<!-- 2675053751392&#45;&gt;2675053740928 -->
<g id="edge8" class="edge">
<title>2675053751392&#45;&gt;2675053740928</title>
<path fill="none" stroke="black" d="M768.29,-147.99C776.55,-147.86 784.79,-147.72 792.44,-147.6"/>
<polygon fill="black" stroke="black" points="792.42,-151.1 802.37,-147.44 792.31,-144.1 792.42,-151.1"/>
</g>
<!-- 2675053749664 -->
<g id="node9" class="node">
<title>2675053749664</title>
<polygon fill="none" stroke="black" points="752.25,-113 656,-113 656,-77 752.25,-77 752.25,-113"/>
<text text-anchor="middle" x="704.12" y="-89.97" font-family="Times New Roman,serif" font-size="12.00">Send notification</text>
</g>
<!-- 2675053741216&#45;&gt;2675053749664 -->
<g id="edge9" class="edge">
<title>2675053741216&#45;&gt;2675053749664</title>
<path fill="none" stroke="black" d="M604.72,-97.77C617.22,-97.42 631.04,-97.03 644.28,-96.65"/>
<polygon fill="black" stroke="black" points="644.31,-100.16 654.21,-96.38 644.11,-93.16 644.31,-100.16"/>
</g>
<!-- 2675053754320 -->
<g id="node10" class="node">
<title>2675053754320</title>
<polygon fill="none" stroke="black" points="1013.5,-165 894,-165 894,-129 1013.5,-129 1013.5,-165"/>
<text text-anchor="middle" x="953.75" y="-141.97" font-family="Times New Roman,serif" font-size="12.00">Conduct data analysis</text>
</g>
<!-- 2675053740928&#45;&gt;2675053754320 -->
<g id="edge11" class="edge">
<title>2675053740928&#45;&gt;2675053754320</title>
<path fill="none" stroke="black" d="M858.8,-147C865.96,-147 874.05,-147 882.41,-147"/>
<polygon fill="black" stroke="black" points="882.38,-150.5 892.38,-147 882.38,-143.5 882.38,-150.5"/>
</g>
<!-- 2675053749664&#45;&gt;2675053740928 -->
<g id="edge10" class="edge">
<title>2675053749664&#45;&gt;2675053740928</title>
<path fill="none" stroke="black" d="M749.5,-113.48C767.44,-120.95 787.56,-129.33 803.19,-135.84"/>
<polygon fill="black" stroke="black" points="801.71,-139.01 812.29,-139.63 804.41,-132.55 801.71,-139.01"/>
</g>
<!-- 2675053746880 -->
<g id="node11" class="node">
<title>2675053746880</title>
<polygon fill="none" stroke="black" points="1076.5,-165 1049.5,-147 1076.5,-129 1103.5,-147 1076.5,-165"/>
<text text-anchor="middle" x="1076.5" y="-141.97" font-family="Times New Roman,serif" font-size="12.00">X</text>
</g>
<!-- 2675053754320&#45;&gt;2675053746880 -->
<g id="edge12" class="edge">
<title>2675053754320&#45;&gt;2675053746880</title>
<path fill="none" stroke="black" d="M1013.71,-147C1021.8,-147 1029.93,-147 1037.51,-147"/>
<polygon fill="black" stroke="black" points="1037.37,-150.5 1047.37,-147 1037.37,-143.5 1037.37,-150.5"/>
</g>
<!-- 2675053749856 -->
<g id="node12" class="node">
<title>2675053749856</title>
<polygon fill="none" stroke="black" points="1448.62,-213 1335.12,-213 1335.12,-177 1448.62,-177 1448.62,-213"/>
<text text-anchor="middle" x="1391.88" y="-189.97" font-family="Times New Roman,serif" font-size="12.00">Compile audit report</text>
</g>
<!-- 2675053746880&#45;&gt;2675053749856 -->
<g id="edge13" class="edge">
<title>2675053746880&#45;&gt;2675053749856</title>
<path fill="none" stroke="black" d="M1092.88,-154.67C1105.18,-160.45 1123.03,-168.02 1139.5,-172 1200.68,-186.8 1272.35,-192.23 1323.47,-194.15"/>
<polygon fill="black" stroke="black" points="1323.07,-197.64 1333.19,-194.47 1323.31,-190.64 1323.07,-197.64"/>
</g>
<!-- 2675053752496 -->
<g id="node13" class="node">
<title>2675053752496</title>
<polygon fill="none" stroke="black" points="1278.5,-163 1139.5,-163 1139.5,-127 1278.5,-127 1278.5,-163"/>
<text text-anchor="middle" x="1209" y="-139.97" font-family="Times New Roman,serif" font-size="12.00">Evaluate compliance risks</text>
</g>
<!-- 2675053746880&#45;&gt;2675053752496 -->
<g id="edge14" class="edge">
<title>2675053746880&#45;&gt;2675053752496</title>
<path fill="none" stroke="black" d="M1103.59,-146.6C1110.84,-146.49 1119.1,-146.36 1127.73,-146.23"/>
<polygon fill="black" stroke="black" points="1127.78,-149.73 1137.72,-146.08 1127.67,-142.73 1127.78,-149.73"/>
</g>
<!-- 2675063086384 -->
<g id="node14" class="node">
<title>2675063086384</title>
<polygon fill="none" stroke="black" points="1681.75,-197 1654.75,-179 1681.75,-161 1708.75,-179 1681.75,-197"/>
<text text-anchor="middle" x="1681.75" y="-173.97" font-family="Times New Roman,serif" font-size="12.00">X</text>
</g>
<!-- 2675053749856&#45;&gt;2675063086384 -->
<g id="edge15" class="edge">
<title>2675053749856&#45;&gt;2675063086384</title>
<path fill="none" stroke="black" d="M1449.06,-191.88C1506.96,-188.66 1595.48,-183.74 1644.65,-181.01"/>
<polygon fill="black" stroke="black" points="1644.67,-184.51 1654.46,-180.46 1644.28,-177.52 1644.67,-184.51"/>
</g>
<!-- 2675053750096 -->
<g id="node15" class="node">
<title>2675053750096</title>
<polygon fill="none" stroke="black" points="1469.25,-159 1314.5,-159 1314.5,-123 1469.25,-123 1469.25,-159"/>
<text text-anchor="middle" x="1391.88" y="-135.97" font-family="Times New Roman,serif" font-size="12.00">Launch detailed investigation</text>
</g>
<!-- 2675053752496&#45;&gt;2675053750096 -->
<g id="edge16" class="edge">
<title>2675053752496&#45;&gt;2675053750096</title>
<path fill="none" stroke="black" d="M1278.9,-143.48C1286.7,-143.3 1294.73,-143.13 1302.74,-142.95"/>
<polygon fill="black" stroke="black" points="1302.58,-146.45 1312.5,-142.73 1302.43,-139.46 1302.58,-146.45"/>
</g>
<!-- 2675053747840 -->
<g id="node16" class="node">
<title>2675053747840</title>
<polygon fill="none" stroke="black" points="1771.75,-197 1744.75,-179 1771.75,-161 1798.75,-179 1771.75,-197"/>
<text text-anchor="middle" x="1771.75" y="-173.97" font-family="Times New Roman,serif" font-size="12.00">+</text>
</g>
<!-- 2675063086384&#45;&gt;2675053747840 -->
<g id="edge17" class="edge">
<title>2675063086384&#45;&gt;2675053747840</title>
<path fill="none" stroke="black" d="M1709.63,-179C1716.88,-179 1724.87,-179 1732.6,-179"/>
<polygon fill="black" stroke="black" points="1732.52,-182.5 1742.52,-179 1732.52,-175.5 1732.52,-182.5"/>
</g>
<!-- 2675053750480 -->
<g id="node17" class="node">
<title>2675053750480</title>
<polygon fill="none" stroke="black" points="1618.75,-161 1505.25,-161 1505.25,-125 1618.75,-125 1618.75,-161"/>
<text text-anchor="middle" x="1562" y="-137.97" font-family="Times New Roman,serif" font-size="12.00">Compile audit report</text>
</g>
<!-- 2675053750096&#45;&gt;2675053750480 -->
<g id="edge18" class="edge">
<title>2675053750096&#45;&gt;2675053750480</title>
<path fill="none" stroke="black" d="M1469.56,-141.91C1477.59,-142.01 1485.71,-142.1 1493.62,-142.2"/>
<polygon fill="black" stroke="black" points="1493.48,-145.7 1503.52,-142.32 1493.57,-138.7 1493.48,-145.7"/>
</g>
<!-- 2675053754848 -->
<g id="node18" class="node">
<title>2675053754848</title>
<polygon fill="none" stroke="black" points="1962.5,-251 1854.25,-251 1854.25,-215 1962.5,-215 1962.5,-251"/>
<text text-anchor="middle" x="1908.38" y="-227.97" font-family="Times New Roman,serif" font-size="12.00">Review submission</text>
</g>
<!-- 2675053747840&#45;&gt;2675053754848 -->
<g id="edge20" class="edge">
<title>2675053747840&#45;&gt;2675053754848</title>
<path fill="none" stroke="black" d="M1788.71,-186.24C1801.17,-191.82 1818.96,-199.63 1834.75,-206 1838.53,-207.52 1842.43,-209.06 1846.37,-210.6"/>
<polygon fill="black" stroke="black" points="1844.84,-213.76 1855.43,-214.08 1847.35,-207.22 1844.84,-213.76"/>
</g>
<!-- 2675053744528 -->
<g id="node19" class="node">
<title>2675053744528</title>
<polygon fill="none" stroke="black" points="1982,-197 1834.75,-197 1834.75,-161 1982,-161 1982,-197"/>
<text text-anchor="middle" x="1908.38" y="-173.97" font-family="Times New Roman,serif" font-size="12.00">Prepare financial statements</text>
</g>
<!-- 2675053747840&#45;&gt;2675053744528 -->
<g id="edge21" class="edge">
<title>2675053747840&#45;&gt;2675053744528</title>
<path fill="none" stroke="black" d="M1799.35,-179C1806.49,-179 1814.61,-179 1823.11,-179"/>
<polygon fill="black" stroke="black" points="1822.95,-182.5 1832.95,-179 1822.95,-175.5 1822.95,-182.5"/>
</g>
<!-- 2675053740160 -->
<g id="node20" class="node">
<title>2675053740160</title>
<polygon fill="none" stroke="black" points="1967,-143 1849.75,-143 1849.75,-107 1967,-107 1967,-143"/>
<text text-anchor="middle" x="1908.38" y="-119.97" font-family="Times New Roman,serif" font-size="12.00">Receive clarifications</text>
</g>
<!-- 2675053747840&#45;&gt;2675053740160 -->
<g id="edge22" class="edge">
<title>2675053747840&#45;&gt;2675053740160</title>
<path fill="none" stroke="black" d="M1788.71,-171.76C1801.17,-166.18 1818.96,-158.37 1834.75,-152 1838.53,-150.48 1842.43,-148.94 1846.37,-147.4"/>
<polygon fill="black" stroke="black" points="1847.35,-150.78 1855.43,-143.92 1844.84,-144.24 1847.35,-150.78"/>
</g>
<!-- 2675053750480&#45;&gt;2675063086384 -->
<g id="edge19" class="edge">
<title>2675053750480&#45;&gt;2675063086384</title>
<path fill="none" stroke="black" d="M1619.12,-160.16C1630.36,-163.59 1641.73,-167.07 1651.59,-170.09"/>
<polygon fill="black" stroke="black" points="1650.35,-173.37 1660.94,-172.94 1652.4,-166.67 1650.35,-173.37"/>
</g>
<!-- 2675053741648 -->
<g id="node21" class="node">
<title>2675053741648</title>
<polygon fill="none" stroke="black" points="2045,-197 2018,-179 2045,-161 2072,-179 2045,-197"/>
<text text-anchor="middle" x="2045" y="-173.97" font-family="Times New Roman,serif" font-size="12.00">+</text>
</g>
<!-- 2675053754848&#45;&gt;2675053741648 -->
<g id="edge23" class="edge">
<title>2675053754848&#45;&gt;2675053741648</title>
<path fill="none" stroke="black" d="M1959.91,-214.62C1967.34,-211.8 1974.89,-208.87 1982,-206 1993.84,-201.22 2006.81,-195.63 2017.81,-190.78"/>
<polygon fill="black" stroke="black" points="2018.94,-194.11 2026.66,-186.85 2016.1,-187.71 2018.94,-194.11"/>
</g>
<!-- 2675053744528&#45;&gt;2675053741648 -->
<g id="edge24" class="edge">
<title>2675053744528&#45;&gt;2675053741648</title>
<path fill="none" stroke="black" d="M1982.2,-179C1990.32,-179 1998.33,-179 2005.75,-179"/>
<polygon fill="black" stroke="black" points="2005.72,-182.5 2015.72,-179 2005.72,-175.5 2005.72,-182.5"/>
</g>
<!-- 2675053740160&#45;&gt;2675053741648 -->
<g id="edge25" class="edge">
<title>2675053740160&#45;&gt;2675053741648</title>
<path fill="none" stroke="black" d="M1959.91,-143.38C1967.34,-146.2 1974.89,-149.13 1982,-152 1993.84,-156.78 2006.81,-162.37 2017.81,-167.22"/>
<polygon fill="black" stroke="black" points="2016.1,-170.29 2026.66,-171.15 2018.94,-163.89 2016.1,-170.29"/>
</g>
<!-- 2675053740304 -->
<g id="node22" class="node">
<title>2675053740304</title>
<polygon fill="none" stroke="black" points="2135,-197 2108,-179 2135,-161 2162,-179 2135,-197"/>
<text text-anchor="middle" x="2135" y="-173.97" font-family="Times New Roman,serif" font-size="12.00">X</text>
</g>
<!-- 2675053741648&#45;&gt;2675053740304 -->
<g id="edge26" class="edge">
<title>2675053741648&#45;&gt;2675053740304</title>
<path fill="none" stroke="black" d="M2072.88,-179C2080.13,-179 2088.12,-179 2095.85,-179"/>
<polygon fill="black" stroke="black" points="2095.77,-182.5 2105.77,-179 2095.77,-175.5 2095.77,-182.5"/>
</g>
<!-- 2675062387008 -->
<g id="node23" class="node">
<title>2675062387008</title>
<polygon fill="none" stroke="black" points="2604.75,-169 2577.75,-151 2604.75,-133 2631.75,-151 2604.75,-169"/>
<text text-anchor="middle" x="2604.75" y="-145.97" font-family="Times New Roman,serif" font-size="12.00">X</text>
</g>
<!-- 2675053740304&#45;&gt;2675062387008 -->
<g id="edge28" class="edge">
<title>2675053740304&#45;&gt;2675062387008</title>
<path fill="none" stroke="black" d="M2151.03,-186.58C2177.76,-199.59 2235.67,-225.67 2288,-235 2359.65,-247.78 2381.28,-253.18 2451.75,-235 2502.68,-221.86 2554.77,-187.63 2582.8,-167.15"/>
<polygon fill="black" stroke="black" points="2584.53,-170.22 2590.46,-161.44 2580.35,-164.61 2584.53,-170.22"/>
</g>
<!-- 2675053748896 -->
<g id="node24" class="node">
<title>2675053748896</title>
<polygon fill="none" stroke="black" points="2225,-172 2198,-154 2225,-136 2252,-154 2225,-172"/>
<text text-anchor="middle" x="2225" y="-148.97" font-family="Times New Roman,serif" font-size="12.00">+</text>
</g>
<!-- 2675053740304&#45;&gt;2675053748896 -->
<g id="edge27" class="edge">
<title>2675053740304&#45;&gt;2675053748896</title>
<path fill="none" stroke="black" d="M2154.66,-173.7C2166.21,-170.42 2181.3,-166.13 2194.45,-162.4"/>
<polygon fill="black" stroke="black" points="2195.25,-165.81 2203.91,-159.71 2193.33,-159.07 2195.25,-165.81"/>
</g>
<!-- 2675053748608 -->
<g id="node28" class="node">
<title>2675053748608</title>
<polygon fill="none" stroke="black" points="2771.5,-162 2667.75,-162 2667.75,-126 2771.5,-126 2771.5,-162"/>
<text text-anchor="middle" x="2719.62" y="-138.97" font-family="Times New Roman,serif" font-size="12.00">Submit documents</text>
</g>
<!-- 2675062387008&#45;&gt;2675053748608 -->
<g id="edge29" class="edge">
<title>2675062387008&#45;&gt;2675053748608</title>
<path fill="none" stroke="black" d="M2630.24,-149.48C2637.99,-149 2646.93,-148.45 2656.08,-147.88"/>
<polygon fill="black" stroke="black" points="2656.02,-151.39 2665.79,-147.28 2655.59,-144.4 2656.02,-151.39"/>
</g>
<!-- 2675053752304 -->
<g id="node25" class="node">
<title>2675053752304</title>
<polygon fill="none" stroke="black" points="2438.25,-226 2301.5,-226 2301.5,-190 2438.25,-190 2438.25,-226"/>
<text text-anchor="middle" x="2369.88" y="-202.97" font-family="Times New Roman,serif" font-size="12.00">Check regulatory updates</text>
</g>
<!-- 2675053748896&#45;&gt;2675053752304 -->
<g id="edge32" class="edge">
<title>2675053748896&#45;&gt;2675053752304</title>
<path fill="none" stroke="black" d="M2241.64,-161.27C2254.08,-166.94 2272,-174.86 2288,-181 2292.16,-182.6 2296.45,-184.19 2300.8,-185.76"/>
<polygon fill="black" stroke="black" points="2299.63,-189.06 2310.23,-189.09 2301.97,-182.46 2299.63,-189.06"/>
</g>
<!-- 2675053746976 -->
<g id="node26" class="node">
<title>2675053746976</title>
<polygon fill="none" stroke="black" points="2424,-172 2315.75,-172 2315.75,-136 2424,-136 2424,-172"/>
<text text-anchor="middle" x="2369.88" y="-148.97" font-family="Times New Roman,serif" font-size="12.00">Conduct interviews</text>
</g>
<!-- 2675053748896&#45;&gt;2675053746976 -->
<g id="edge30" class="edge">
<title>2675053748896&#45;&gt;2675053746976</title>
<path fill="none" stroke="black" d="M2252.87,-154C2267.4,-154 2286.01,-154 2304.06,-154"/>
<polygon fill="black" stroke="black" points="2303.97,-157.5 2313.97,-154 2303.97,-150.5 2303.97,-157.5"/>
</g>
<!-- 2675053746640 -->
<g id="node27" class="node">
<title>2675053746640</title>
<polygon fill="none" stroke="black" points="2445.38,-118 2294.38,-118 2294.38,-82 2445.38,-82 2445.38,-118"/>
<text text-anchor="middle" x="2369.88" y="-94.97" font-family="Times New Roman,serif" font-size="12.00">Gather necessary documents</text>
</g>
<!-- 2675053748896&#45;&gt;2675053746640 -->
<g id="edge33" class="edge">
<title>2675053748896&#45;&gt;2675053746640</title>
<path fill="none" stroke="black" d="M2241.64,-146.73C2254.08,-141.06 2272,-133.14 2288,-127 2292.16,-125.4 2296.45,-123.81 2300.8,-122.24"/>
<polygon fill="black" stroke="black" points="2301.97,-125.54 2310.23,-118.91 2299.63,-118.94 2301.97,-125.54"/>
</g>
<!-- 2675053749712 -->
<g id="node29" class="node">
<title>2675053749712</title>
<polygon fill="none" stroke="black" points="2451.75,-64 2288,-64 2288,-28 2451.75,-28 2451.75,-64"/>
<text text-anchor="middle" x="2369.88" y="-40.98" font-family="Times New Roman,serif" font-size="12.00">Review report by audit director</text>
</g>
<!-- 2675053748896&#45;&gt;2675053749712 -->
<g id="edge31" class="edge">
<title>2675053748896&#45;&gt;2675053749712</title>
<path fill="none" stroke="black" d="M2232.78,-140.82C2242.61,-122.96 2262.49,-91.21 2288,-73 2289.53,-71.91 2291.11,-70.85 2292.73,-69.84"/>
<polygon fill="black" stroke="black" points="2294.01,-73.14 2301.04,-65.22 2290.6,-67.02 2294.01,-73.14"/>
</g>
<!-- 2675053750384 -->
<g id="node30" class="node">
<title>2675053750384</title>
<polygon fill="none" stroke="black" points="2514.75,-169 2487.75,-151 2514.75,-133 2541.75,-151 2514.75,-169"/>
<text text-anchor="middle" x="2514.75" y="-145.97" font-family="Times New Roman,serif" font-size="12.00">+</text>
</g>
<!-- 2675053752304&#45;&gt;2675053750384 -->
<g id="edge34" class="edge">
<title>2675053752304&#45;&gt;2675053750384</title>
<path fill="none" stroke="black" d="M2429.08,-189.57C2436.76,-186.85 2444.48,-183.96 2451.75,-181 2464.34,-175.88 2477.97,-169.39 2489.24,-163.76"/>
<polygon fill="black" stroke="black" points="2490.53,-167.03 2497.86,-159.38 2487.36,-160.79 2490.53,-167.03"/>
</g>
<!-- 2675053746976&#45;&gt;2675053750384 -->
<g id="edge35" class="edge">
<title>2675053746976&#45;&gt;2675053750384</title>
<path fill="none" stroke="black" d="M2424.48,-152.87C2441.77,-152.51 2460.55,-152.12 2476.4,-151.78"/>
<polygon fill="black" stroke="black" points="2476.44,-155.28 2486.37,-151.57 2476.3,-148.29 2476.44,-155.28"/>
</g>
<!-- 2675053746640&#45;&gt;2675053750384 -->
<g id="edge36" class="edge">
<title>2675053746640&#45;&gt;2675053750384</title>
<path fill="none" stroke="black" d="M2427.12,-118.4C2435.4,-121.22 2443.81,-124.14 2451.75,-127 2463.19,-131.12 2475.72,-135.92 2486.51,-140.13"/>
<polygon fill="black" stroke="black" points="2484.99,-143.3 2495.58,-143.71 2487.56,-136.79 2484.99,-143.3"/>
</g>
<!-- 2675053740688 -->
<g id="node31" class="node">
<title>2675053740688</title>
<polygon fill="none" stroke="black" points="2915,-149 2807.5,-149 2807.5,-113 2915,-113 2915,-149"/>
<text text-anchor="middle" x="2861.25" y="-125.97" font-family="Times New Roman,serif" font-size="12.00">Close audit process</text>
</g>
<!-- 2675053748608&#45;&gt;2675053740688 -->
<g id="edge37" class="edge">
<title>2675053748608&#45;&gt;2675053740688</title>
<path fill="none" stroke="black" d="M2771.82,-139.23C2779.65,-138.5 2787.82,-137.74 2795.89,-136.99"/>
<polygon fill="black" stroke="black" points="2796.04,-140.49 2805.68,-136.08 2795.4,-133.52 2796.04,-140.49"/>
</g>
<!-- 2675053749712&#45;&gt;2675053750384 -->
<g id="edge38" class="edge">
<title>2675053749712&#45;&gt;2675053750384</title>
<path fill="none" stroke="black" d="M2436.91,-64.37C2442.12,-66.91 2447.14,-69.77 2451.75,-73 2472.6,-87.59 2489.96,-111.18 2500.96,-128.59"/>
<polygon fill="black" stroke="black" points="2497.71,-129.99 2505.89,-136.73 2503.7,-126.36 2497.71,-129.99"/>
</g>
<!-- 2675053750384&#45;&gt;2675062387008 -->
<g id="edge39" class="edge">
<title>2675053750384&#45;&gt;2675062387008</title>
<path fill="none" stroke="black" d="M2542.63,-151C2549.88,-151 2557.87,-151 2565.6,-151"/>
<polygon fill="black" stroke="black" points="2565.52,-154.5 2575.52,-151 2565.52,-147.5 2565.52,-154.5"/>
</g>
<!-- 2675053740784 -->
<g id="node32" class="node">
<title>2675053740784</title>
<polygon fill="none" stroke="black" points="2978,-145 2951,-127 2978,-109 3005,-127 2978,-145"/>
<text text-anchor="middle" x="2978" y="-121.97" font-family="Times New Roman,serif" font-size="12.00">X</text>
</g>
<!-- 2675053740688&#45;&gt;2675053740784 -->
<g id="edge40" class="edge">
<title>2675053740688&#45;&gt;2675053740784</title>
<path fill="none" stroke="black" d="M2915.26,-129.15C2923.68,-128.86 2932.23,-128.56 2940.17,-128.28"/>
<polygon fill="black" stroke="black" points="2940.29,-131.78 2950.16,-127.94 2940.04,-124.79 2940.29,-131.78"/>
</g>
<!-- 2675053740496 -->
<g id="node33" class="node">
<title>2675053740496</title>
<polygon fill="none" stroke="black" points="3228,-145 3041,-145 3041,-109 3228,-109 3228,-145"/>
<text text-anchor="middle" x="3134.5" y="-121.97" font-family="Times New Roman,serif" font-size="12.00">Complete risk assessment/mitigation</text>
</g>
<!-- 2675053740784&#45;&gt;2675053740496 -->
<g id="edge42" class="edge">
<title>2675053740784&#45;&gt;2675053740496</title>
<path fill="none" stroke="black" d="M3005.56,-127C3012.58,-127 3020.6,-127 3029.12,-127"/>
<polygon fill="black" stroke="black" points="3029.06,-130.5 3039.06,-127 3029.06,-123.5 3029.06,-130.5"/>
</g>
<!-- 2675053741024 -->
<g id="node34" class="node">
<title>2675053741024</title>
<polygon fill="none" stroke="black" points="3395.12,-91 3277.88,-91 3277.88,-55 3395.12,-55 3395.12,-91"/>
<text text-anchor="middle" x="3336.5" y="-67.97" font-family="Times New Roman,serif" font-size="12.00">Distribute final report</text>
</g>
<!-- 2675053740784&#45;&gt;2675053741024 -->
<g id="edge41" class="edge">
<title>2675053740784&#45;&gt;2675053741024</title>
<path fill="none" stroke="black" d="M2993.81,-118.94C3006.08,-112.67 3024.17,-104.32 3041,-100 3116.46,-80.65 3205.91,-74.75 3266.27,-73.16"/>
<polygon fill="black" stroke="black" points="3266.14,-76.66 3276.06,-72.93 3265.98,-69.66 3266.14,-76.66"/>
</g>
<!-- 2675053741456 -->
<g id="node36" class="node">
<title>2675053741456</title>
<polygon fill="none" stroke="black" points="3409,-145 3264,-145 3264,-109 3409,-109 3409,-145"/>
<text text-anchor="middle" x="3336.5" y="-121.97" font-family="Times New Roman,serif" font-size="12.00">Update and resubmit report</text>
</g>
<!-- 2675053740496&#45;&gt;2675053741456 -->
<g id="edge43" class="edge">
<title>2675053740496&#45;&gt;2675053741456</title>
<path fill="none" stroke="black" d="M3228.47,-127C3236.42,-127 3244.43,-127 3252.3,-127"/>
<polygon fill="black" stroke="black" points="3252.19,-130.5 3262.19,-127 3252.19,-123.5 3252.19,-130.5"/>
</g>
<!-- 2675063090704 -->
<g id="node35" class="node">
<title>2675063090704</title>
<polygon fill="none" stroke="black" points="3754.5,-91 3727.5,-73 3754.5,-55 3781.5,-73 3754.5,-91"/>
<text text-anchor="middle" x="3754.5" y="-67.97" font-family="Times New Roman,serif" font-size="12.00">X</text>
</g>
<!-- 2675053741024&#45;&gt;2675063090704 -->
<g id="edge44" class="edge">
<title>2675053741024&#45;&gt;2675063090704</title>
<path fill="none" stroke="black" d="M3395.34,-73C3481.84,-73 3642.51,-73 3715.57,-73"/>
<polygon fill="black" stroke="black" points="3715.42,-76.5 3725.42,-73 3715.42,-69.5 3715.42,-76.5"/>
</g>
<!-- 2675053745632 -->
<g id="node37" class="node">
<title>2675053745632</title>
<polygon fill="none" stroke="black" points="3925,-41 3817.5,-41 3817.5,-5 3925,-5 3925,-41"/>
<text text-anchor="middle" x="3871.25" y="-17.98" font-family="Times New Roman,serif" font-size="12.00">Close audit process</text>
</g>
<!-- 2675063090704&#45;&gt;2675053745632 -->
<g id="edge45" class="edge">
<title>2675063090704&#45;&gt;2675053745632</title>
<path fill="none" stroke="black" d="M3771.46,-66.05C3783.59,-60.76 3801.03,-53.16 3817.88,-45.82"/>
<polygon fill="black" stroke="black" points="3819.09,-49.11 3826.86,-41.91 3816.29,-42.69 3819.09,-49.11"/>
</g>
<!-- 2675053749136 -->
<g id="node38" class="node">
<title>2675053749136</title>
<polygon fill="none" stroke="black" points="3530,-141 3445,-141 3445,-105 3530,-105 3530,-141"/>
<text text-anchor="middle" x="3487.5" y="-117.97" font-family="Times New Roman,serif" font-size="12.00">Archive report</text>
</g>
<!-- 2675053741456&#45;&gt;2675053749136 -->
<g id="edge46" class="edge">
<title>2675053741456&#45;&gt;2675053749136</title>
<path fill="none" stroke="black" d="M3409.38,-125.07C3417.39,-124.86 3425.43,-124.64 3433.15,-124.43"/>
<polygon fill="black" stroke="black" points="3433.14,-127.93 3443.05,-124.17 3432.95,-120.94 3433.14,-127.93"/>
</g>
<!-- 2675053745632&#45;&gt;2675053745056 -->
<g id="edge47" class="edge">
<title>2675053745632&#45;&gt;2675053745056</title>
<path fill="none" stroke="black" d="M3817.37,-15.02C3768.73,-8.38 3694.55,0 3629.75,0 319.75,0 319.75,0 319.75,0 252.92,0 175.28,-10.65 132.49,-17.46"/>
<polygon fill="black" stroke="black" points="131.94,-14 122.63,-19.06 133.06,-20.91 131.94,-14"/>
</g>
<!-- 2675053750192 -->
<g id="node39" class="node">
<title>2675053750192</title>
<polygon fill="none" stroke="black" points="3691.5,-139 3566,-139 3566,-103 3691.5,-103 3691.5,-139"/>
<text text-anchor="middle" x="3628.75" y="-115.97" font-family="Times New Roman,serif" font-size="12.00">Evaluate financial risks</text>
</g>
<!-- 2675053749136&#45;&gt;2675053750192 -->
<g id="edge48" class="edge">
<title>2675053749136&#45;&gt;2675053750192</title>
<path fill="none" stroke="black" d="M3530.28,-122.4C3537.94,-122.29 3546.13,-122.17 3554.39,-122.05"/>
<polygon fill="black" stroke="black" points="3554.2,-125.56 3564.15,-121.91 3554.1,-118.56 3554.2,-125.56"/>
</g>
<!-- 2675053750192&#45;&gt;2675063090704 -->
<g id="edge49" class="edge">
<title>2675053750192&#45;&gt;2675063090704</title>
<path fill="none" stroke="black" d="M3677.24,-102.58C3693.7,-96.2 3711.59,-89.25 3725.91,-83.7"/>
<polygon fill="black" stroke="black" points="3727.06,-87.01 3735.12,-80.13 3724.53,-80.48 3727.06,-87.01"/>
</g>
</g>
</svg>
