<?xml version="1.0" encoding="UTF-8" standalone="no"?>
<!DOCTYPE svg PUBLIC "-//W3C//DTD SVG 1.1//EN"
 "http://www.w3.org/Graphics/SVG/1.1/DTD/svg11.dtd">
<!-- Generated by graphviz version 11.0.0 (20240428.1522)
 -->
<!-- Pages: 1 -->
<svg width="4675pt" height="279pt"
 viewBox="0.00 0.00 4674.50 279.00" xmlns="http://www.w3.org/2000/svg" xmlns:xlink="http://www.w3.org/1999/xlink">
<g id="graph0" class="graph" transform="scale(1 1) rotate(0) translate(4 275)">
<polygon fill="white" stroke="none" points="-4,4 -4,-275 4670.5,-275 4670.5,4 -4,4"/>
<!-- 2675060274816 -->
<g id="node1" class="node">
<title>2675060274816</title>
<ellipse fill="green" stroke="black" cx="18" cy="-42" rx="18" ry="18"/>
</g>
<!-- 2675060268048 -->
<g id="node2" class="node">
<title>2675060268048</title>
<polygon fill="none" stroke="black" points="99,-60 72,-42 99,-24 126,-42 99,-60"/>
<text text-anchor="middle" x="99" y="-36.98" font-family="Times New Roman,serif" font-size="12.00">X</text>
</g>
<!-- 2675060274816&#45;&gt;2675060268048 -->
<g id="edge1" class="edge">
<title>2675060274816&#45;&gt;2675060268048</title>
<path fill="none" stroke="black" d="M36.14,-42C43.11,-42 51.47,-42 59.75,-42"/>
<polygon fill="black" stroke="black" points="59.75,-45.5 69.75,-42 59.75,-38.5 59.75,-45.5"/>
</g>
<!-- 2675063091808 -->
<g id="node3" class="node">
<title>2675063091808</title>
<polygon fill="none" stroke="black" points="299.5,-69 162,-69 162,-33 299.5,-33 299.5,-69"/>
<text text-anchor="middle" x="230.75" y="-45.98" font-family="Times New Roman,serif" font-size="12.00">Evaluate operational risks</text>
</g>
<!-- 2675060268048&#45;&gt;2675063091808 -->
<g id="edge2" class="edge">
<title>2675060268048&#45;&gt;2675063091808</title>
<path fill="none" stroke="black" d="M124.1,-43.67C131.84,-44.21 140.89,-44.84 150.37,-45.49"/>
<polygon fill="black" stroke="black" points="149.92,-48.97 160.14,-46.17 150.41,-41.99 149.92,-48.97"/>
</g>
<!-- 2675060285104 -->
<g id="node4" class="node">
<title>2675060285104</title>
<polygon fill="none" stroke="black" points="424.25,-88 335.5,-88 335.5,-52 424.25,-52 424.25,-88"/>
<text text-anchor="middle" x="379.88" y="-64.97" font-family="Times New Roman,serif" font-size="12.00">Approve report</text>
</g>
<!-- 2675063091808&#45;&gt;2675060285104 -->
<g id="edge3" class="edge">
<title>2675063091808&#45;&gt;2675060285104</title>
<path fill="none" stroke="black" d="M299.71,-59.78C307.81,-60.82 315.99,-61.88 323.87,-62.9"/>
<polygon fill="black" stroke="black" points="323.29,-66.35 333.65,-64.16 324.19,-59.41 323.29,-66.35"/>
</g>
<!-- 2675060280256 -->
<g id="node5" class="node">
<title>2675060280256</title>
<polygon fill="none" stroke="black" points="487.25,-97 460.25,-79 487.25,-61 514.25,-79 487.25,-97"/>
<text text-anchor="middle" x="487.25" y="-73.97" font-family="Times New Roman,serif" font-size="12.00">+</text>
</g>
<!-- 2675060285104&#45;&gt;2675060280256 -->
<g id="edge4" class="edge">
<title>2675060285104&#45;&gt;2675060280256</title>
<path fill="none" stroke="black" d="M424.65,-73.74C433.49,-74.49 442.67,-75.28 451.17,-76"/>
<polygon fill="black" stroke="black" points="450.84,-79.49 461.1,-76.85 451.44,-72.51 450.84,-79.49"/>
</g>
<!-- 2675060268336 -->
<g id="node6" class="node">
<title>2675060268336</title>
<polygon fill="none" stroke="black" points="577.25,-156 550.25,-138 577.25,-120 604.25,-138 577.25,-156"/>
<text text-anchor="middle" x="577.25" y="-132.97" font-family="Times New Roman,serif" font-size="12.00">X</text>
</g>
<!-- 2675060280256&#45;&gt;2675060268336 -->
<g id="edge6" class="edge">
<title>2675060280256&#45;&gt;2675060268336</title>
<path fill="none" stroke="black" d="M501.62,-87.96C515.39,-97.2 537.12,-111.77 553.59,-122.81"/>
<polygon fill="black" stroke="black" points="551.54,-125.64 561.79,-128.31 555.43,-119.83 551.54,-125.64"/>
</g>
<!-- 2675060286496 -->
<g id="node7" class="node">
<title>2675060286496</title>
<polygon fill="none" stroke="black" points="577.25,-97 550.25,-79 577.25,-61 604.25,-79 577.25,-97"/>
<text text-anchor="middle" x="577.25" y="-73.97" font-family="Times New Roman,serif" font-size="12.00">X</text>
</g>
<!-- 2675060280256&#45;&gt;2675060286496 -->
<g id="edge5" class="edge">
<title>2675060280256&#45;&gt;2675060286496</title>
<path fill="none" stroke="black" d="M515.13,-79C522.38,-79 530.37,-79 538.1,-79"/>
<polygon fill="black" stroke="black" points="538.02,-82.5 548.02,-79 538.02,-75.5 538.02,-82.5"/>
</g>
<!-- 2675060280688 -->
<g id="node8" class="node">
<title>2675060280688</title>
<polygon fill="none" stroke="black" points="831,-160 804,-142 831,-124 858,-142 831,-160"/>
<text text-anchor="middle" x="831" y="-136.97" font-family="Times New Roman,serif" font-size="12.00">X</text>
</g>
<!-- 2675060268336&#45;&gt;2675060280688 -->
<g id="edge7" class="edge">
<title>2675060268336&#45;&gt;2675060280688</title>
<path fill="none" stroke="black" d="M592.47,-146.21C604.69,-152.76 623.01,-161.41 640.25,-165 695.83,-176.58 712.12,-175.03 768,-165 780.24,-162.8 793.23,-158.34 804.14,-153.93"/>
<polygon fill="black" stroke="black" points="805.42,-157.19 813.24,-150.04 802.67,-150.75 805.42,-157.19"/>
</g>
<!-- 2675060291920 -->
<g id="node11" class="node">
<title>2675060291920</title>
<polygon fill="none" stroke="black" points="768,-156 640.25,-156 640.25,-120 768,-120 768,-156"/>
<text text-anchor="middle" x="704.12" y="-132.97" font-family="Times New Roman,serif" font-size="12.00">Send report for revision</text>
</g>
<!-- 2675060268336&#45;&gt;2675060291920 -->
<g id="edge8" class="edge">
<title>2675060268336&#45;&gt;2675060291920</title>
<path fill="none" stroke="black" d="M605.04,-138C612.13,-138 620.15,-138 628.47,-138"/>
<polygon fill="black" stroke="black" points="628.43,-141.5 638.43,-138 628.43,-134.5 628.43,-141.5"/>
</g>
<!-- 2675060288608 -->
<g id="node9" class="node">
<title>2675060288608</title>
<polygon fill="none" stroke="black" points="831,-106 804,-88 831,-70 858,-88 831,-106"/>
<text text-anchor="middle" x="831" y="-82.97" font-family="Times New Roman,serif" font-size="12.00">X</text>
</g>
<!-- 2675060286496&#45;&gt;2675060288608 -->
<g id="edge10" class="edge">
<title>2675060286496&#45;&gt;2675060288608</title>
<path fill="none" stroke="black" d="M603.77,-79.91C648.66,-81.52 741.83,-84.85 793.51,-86.7"/>
<polygon fill="black" stroke="black" points="793.15,-90.18 803.27,-87.04 793.4,-83.19 793.15,-90.18"/>
</g>
<!-- 2675060284768 -->
<g id="node10" class="node">
<title>2675060284768</title>
<polygon fill="none" stroke="black" points="752.25,-64 656,-64 656,-28 752.25,-28 752.25,-64"/>
<text text-anchor="middle" x="704.12" y="-40.98" font-family="Times New Roman,serif" font-size="12.00">Send notification</text>
</g>
<!-- 2675060286496&#45;&gt;2675060284768 -->
<g id="edge9" class="edge">
<title>2675060286496&#45;&gt;2675060284768</title>
<path fill="none" stroke="black" d="M597.49,-73.92C610.17,-70.56 627.52,-65.98 644.49,-61.49"/>
<polygon fill="black" stroke="black" points="645.3,-64.9 654.07,-58.96 643.51,-58.13 645.3,-64.9"/>
</g>
<!-- 2675060284336 -->
<g id="node12" class="node">
<title>2675060284336</title>
<polygon fill="none" stroke="black" points="921,-153 894,-135 921,-117 948,-135 921,-153"/>
<text text-anchor="middle" x="921" y="-129.97" font-family="Times New Roman,serif" font-size="12.00">+</text>
</g>
<!-- 2675060280688&#45;&gt;2675060284336 -->
<g id="edge13" class="edge">
<title>2675060280688&#45;&gt;2675060284336</title>
<path fill="none" stroke="black" d="M855.58,-140.12C864.49,-139.42 874.82,-138.59 884.58,-137.82"/>
<polygon fill="black" stroke="black" points="884.85,-141.31 894.54,-137.03 884.29,-134.33 884.85,-141.31"/>
</g>
<!-- 2675060288608&#45;&gt;2675060284336 -->
<g id="edge14" class="edge">
<title>2675060288608&#45;&gt;2675060284336</title>
<path fill="none" stroke="black" d="M846.93,-95.97C860.16,-103.04 879.73,-113.49 895.29,-121.8"/>
<polygon fill="black" stroke="black" points="893.49,-124.81 903.96,-126.43 896.79,-118.63 893.49,-124.81"/>
</g>
<!-- 2675060284768&#45;&gt;2675060288608 -->
<g id="edge11" class="edge">
<title>2675060284768&#45;&gt;2675060288608</title>
<path fill="none" stroke="black" d="M752.69,-62C769.12,-67.52 787,-73.54 801.42,-78.39"/>
<polygon fill="black" stroke="black" points="800.13,-81.65 810.72,-81.52 802.36,-75.01 800.13,-81.65"/>
</g>
<!-- 2675060291920&#45;&gt;2675060280688 -->
<g id="edge12" class="edge">
<title>2675060291920&#45;&gt;2675060280688</title>
<path fill="none" stroke="black" d="M768.29,-140.02C776.81,-140.3 785.31,-140.57 793.16,-140.82"/>
<polygon fill="black" stroke="black" points="792.86,-144.31 802.97,-141.13 793.08,-137.32 792.86,-144.31"/>
</g>
<!-- 2675060278576 -->
<g id="node13" class="node">
<title>2675060278576</title>
<polygon fill="none" stroke="black" points="1103.5,-153 984,-153 984,-117 1103.5,-117 1103.5,-153"/>
<text text-anchor="middle" x="1043.75" y="-129.97" font-family="Times New Roman,serif" font-size="12.00">Conduct data analysis</text>
</g>
<!-- 2675060284336&#45;&gt;2675060278576 -->
<g id="edge15" class="edge">
<title>2675060284336&#45;&gt;2675060278576</title>
<path fill="none" stroke="black" d="M948.8,-135C955.96,-135 964.05,-135 972.41,-135"/>
<polygon fill="black" stroke="black" points="972.38,-138.5 982.38,-135 972.38,-131.5 972.38,-138.5"/>
</g>
<!-- 2675060289424 -->
<g id="node14" class="node">
<title>2675060289424</title>
<polygon fill="none" stroke="black" points="1278.5,-153 1139.5,-153 1139.5,-117 1278.5,-117 1278.5,-153"/>
<text text-anchor="middle" x="1209" y="-129.97" font-family="Times New Roman,serif" font-size="12.00">Evaluate compliance risks</text>
</g>
<!-- 2675060278576&#45;&gt;2675060289424 -->
<g id="edge16" class="edge">
<title>2675060278576&#45;&gt;2675060289424</title>
<path fill="none" stroke="black" d="M1103.69,-135C1111.51,-135 1119.63,-135 1127.74,-135"/>
<polygon fill="black" stroke="black" points="1127.64,-138.5 1137.64,-135 1127.64,-131.5 1127.64,-138.5"/>
</g>
<!-- 2675062685664 -->
<g id="node15" class="node">
<title>2675062685664</title>
<polygon fill="none" stroke="black" points="1341.5,-153 1314.5,-135 1341.5,-117 1368.5,-135 1341.5,-153"/>
<text text-anchor="middle" x="1341.5" y="-129.97" font-family="Times New Roman,serif" font-size="12.00">X</text>
</g>
<!-- 2675060289424&#45;&gt;2675062685664 -->
<g id="edge17" class="edge">
<title>2675060289424&#45;&gt;2675062685664</title>
<path fill="none" stroke="black" d="M1278.69,-135C1286.73,-135 1294.71,-135 1302.12,-135"/>
<polygon fill="black" stroke="black" points="1302.09,-138.5 1312.09,-135 1302.09,-131.5 1302.09,-138.5"/>
</g>
<!-- 2675060290480 -->
<g id="node16" class="node">
<title>2675060290480</title>
<polygon fill="none" stroke="black" points="1481.88,-205 1454.88,-187 1481.88,-169 1508.88,-187 1481.88,-205"/>
<text text-anchor="middle" x="1481.88" y="-181.97" font-family="Times New Roman,serif" font-size="12.00">+</text>
</g>
<!-- 2675062685664&#45;&gt;2675060290480 -->
<g id="edge18" class="edge">
<title>2675062685664&#45;&gt;2675060290480</title>
<path fill="none" stroke="black" d="M1359.47,-141.38C1382.81,-150.15 1425.11,-166.04 1453.1,-176.56"/>
<polygon fill="black" stroke="black" points="1451.76,-179.8 1462.35,-180.04 1454.22,-173.25 1451.76,-179.8"/>
</g>
<!-- 2675063091904 -->
<g id="node17" class="node">
<title>2675063091904</title>
<polygon fill="none" stroke="black" points="1559.25,-142 1404.5,-142 1404.5,-106 1559.25,-106 1559.25,-142"/>
<text text-anchor="middle" x="1481.88" y="-118.97" font-family="Times New Roman,serif" font-size="12.00">Launch detailed investigation</text>
</g>
<!-- 2675062685664&#45;&gt;2675063091904 -->
<g id="edge19" class="edge">
<title>2675062685664&#45;&gt;2675063091904</title>
<path fill="none" stroke="black" d="M1366.29,-133.11C1374.01,-132.5 1383.08,-131.77 1392.68,-131.01"/>
<polygon fill="black" stroke="black" points="1392.94,-134.5 1402.63,-130.22 1392.39,-127.52 1392.94,-134.5"/>
</g>
<!-- 2675060289568 -->
<g id="node18" class="node">
<title>2675060289568</title>
<polygon fill="none" stroke="black" points="1791.25,-271 1595.25,-271 1595.25,-235 1791.25,-235 1791.25,-271"/>
<text text-anchor="middle" x="1693.25" y="-247.97" font-family="Times New Roman,serif" font-size="12.00">Request clarifications of discrepancies</text>
</g>
<!-- 2675060290480&#45;&gt;2675060289568 -->
<g id="edge21" class="edge">
<title>2675060290480&#45;&gt;2675060289568</title>
<path fill="none" stroke="black" d="M1499.9,-193.28C1521.82,-201.28 1561.15,-215.35 1595.25,-226 1600.99,-227.79 1606.93,-229.59 1612.92,-231.36"/>
<polygon fill="black" stroke="black" points="1611.7,-234.65 1622.28,-234.08 1613.65,-227.93 1611.7,-234.65"/>
</g>
<!-- 2675060290960 -->
<g id="node19" class="node">
<title>2675060290960</title>
<polygon fill="none" stroke="black" points="1747.38,-217 1639.12,-217 1639.12,-181 1747.38,-181 1747.38,-217"/>
<text text-anchor="middle" x="1693.25" y="-193.97" font-family="Times New Roman,serif" font-size="12.00">Review submission</text>
</g>
<!-- 2675060290480&#45;&gt;2675060290960 -->
<g id="edge22" class="edge">
<title>2675060290480&#45;&gt;2675060290960</title>
<path fill="none" stroke="black" d="M1507.3,-188.4C1536.53,-190.07 1586.6,-192.94 1627.28,-195.28"/>
<polygon fill="black" stroke="black" points="1627.06,-198.77 1637.24,-195.85 1627.46,-191.78 1627.06,-198.77"/>
</g>
<!-- 2675060284624 -->
<g id="node20" class="node">
<title>2675060284624</title>
<polygon fill="none" stroke="black" points="1974.5,-173 1827.25,-173 1827.25,-137 1974.5,-137 1974.5,-173"/>
<text text-anchor="middle" x="1900.88" y="-149.97" font-family="Times New Roman,serif" font-size="12.00">Prepare financial statements</text>
</g>
<!-- 2675060290480&#45;&gt;2675060284624 -->
<g id="edge20" class="edge">
<title>2675060290480&#45;&gt;2675060284624</title>
<path fill="none" stroke="black" d="M1504.36,-183.63C1526.94,-180.21 1563.51,-175 1595.25,-172 1669.59,-164.97 1754.43,-160.53 1815.67,-157.96"/>
<polygon fill="black" stroke="black" points="1815.46,-161.47 1825.31,-157.56 1815.17,-154.47 1815.46,-161.47"/>
</g>
<!-- 2675063089264 -->
<g id="node21" class="node">
<title>2675063089264</title>
<polygon fill="none" stroke="black" points="1750,-123 1636.5,-123 1636.5,-87 1750,-87 1750,-123"/>
<text text-anchor="middle" x="1693.25" y="-99.97" font-family="Times New Roman,serif" font-size="12.00">Compile audit report</text>
</g>
<!-- 2675063091904&#45;&gt;2675063089264 -->
<g id="edge23" class="edge">
<title>2675063091904&#45;&gt;2675063089264</title>
<path fill="none" stroke="black" d="M1559.65,-117.03C1581.02,-115.09 1604.06,-113 1624.85,-111.12"/>
<polygon fill="black" stroke="black" points="1624.99,-114.62 1634.63,-110.23 1624.36,-107.65 1624.99,-114.62"/>
</g>
<!-- 2675060268816 -->
<g id="node24" class="node">
<title>2675060268816</title>
<polygon fill="none" stroke="black" points="1959.5,-268 1842.25,-268 1842.25,-232 1959.5,-232 1959.5,-268"/>
<text text-anchor="middle" x="1900.88" y="-244.97" font-family="Times New Roman,serif" font-size="12.00">Receive clarifications</text>
</g>
<!-- 2675060289568&#45;&gt;2675060268816 -->
<g id="edge24" class="edge">
<title>2675060289568&#45;&gt;2675060268816</title>
<path fill="none" stroke="black" d="M1791.64,-251.58C1804.84,-251.39 1818.15,-251.19 1830.71,-251.01"/>
<polygon fill="black" stroke="black" points="1830.54,-254.51 1840.49,-250.87 1830.44,-247.51 1830.54,-254.51"/>
</g>
<!-- 2675060278144 -->
<g id="node22" class="node">
<title>2675060278144</title>
<polygon fill="none" stroke="black" points="2108.5,-219 2081.5,-201 2108.5,-183 2135.5,-201 2108.5,-219"/>
<text text-anchor="middle" x="2108.5" y="-195.97" font-family="Times New Roman,serif" font-size="12.00">+</text>
</g>
<!-- 2675060290960&#45;&gt;2675060278144 -->
<g id="edge25" class="edge">
<title>2675060290960&#45;&gt;2675060278144</title>
<path fill="none" stroke="black" d="M1747.85,-199.26C1832.67,-199.67 1995.75,-200.46 2069.56,-200.82"/>
<polygon fill="black" stroke="black" points="2069.5,-204.32 2079.51,-200.86 2069.53,-197.32 2069.5,-204.32"/>
</g>
<!-- 2675060284624&#45;&gt;2675060278144 -->
<g id="edge26" class="edge">
<title>2675060284624&#45;&gt;2675060278144</title>
<path fill="none" stroke="black" d="M1974.95,-171.35C2009.94,-179.18 2049.96,-188.13 2076.79,-194.13"/>
<polygon fill="black" stroke="black" points="2075.78,-197.49 2086.3,-196.26 2077.31,-190.66 2075.78,-197.49"/>
</g>
<!-- 2675063093440 -->
<g id="node23" class="node">
<title>2675063093440</title>
<polygon fill="none" stroke="black" points="1900.88,-119 1873.88,-101 1900.88,-83 1927.88,-101 1900.88,-119"/>
<text text-anchor="middle" x="1900.88" y="-95.97" font-family="Times New Roman,serif" font-size="12.00">+</text>
</g>
<!-- 2675063089264&#45;&gt;2675063093440 -->
<g id="edge27" class="edge">
<title>2675063089264&#45;&gt;2675063093440</title>
<path fill="none" stroke="black" d="M1750.44,-103.91C1786.08,-103.21 1831.2,-102.34 1862.49,-101.73"/>
<polygon fill="black" stroke="black" points="1862.31,-105.23 1872.24,-101.54 1862.17,-98.23 1862.31,-105.23"/>
</g>
<!-- 2675060269440 -->
<g id="node25" class="node">
<title>2675060269440</title>
<polygon fill="none" stroke="black" points="2542.75,-128 2515.75,-110 2542.75,-92 2569.75,-110 2542.75,-128"/>
<text text-anchor="middle" x="2542.75" y="-104.97" font-family="Times New Roman,serif" font-size="12.00">X</text>
</g>
<!-- 2675060278144&#45;&gt;2675060269440 -->
<g id="edge29" class="edge">
<title>2675060278144&#45;&gt;2675060269440</title>
<path fill="none" stroke="black" d="M2133.98,-202.36C2183.29,-204.46 2297.73,-205.99 2389.75,-182 2438.07,-169.4 2489.65,-141.51 2518.59,-124.38"/>
<polygon fill="black" stroke="black" points="2520.12,-127.54 2526.88,-119.38 2516.5,-121.54 2520.12,-127.54"/>
</g>
<!-- 2675060280736 -->
<g id="node26" class="node">
<title>2675060280736</title>
<polygon fill="none" stroke="black" points="2389.75,-173 2242.5,-173 2242.5,-137 2389.75,-137 2389.75,-173"/>
<text text-anchor="middle" x="2316.12" y="-149.97" font-family="Times New Roman,serif" font-size="12.00">Prepare financial statements</text>
</g>
<!-- 2675063093440&#45;&gt;2675060280736 -->
<g id="edge32" class="edge">
<title>2675063093440&#45;&gt;2675060280736</title>
<path fill="none" stroke="black" d="M1924.09,-103.9C1980.94,-111.33 2133.99,-131.33 2230.89,-143.99"/>
<polygon fill="black" stroke="black" points="2230.26,-147.44 2240.63,-145.27 2231.17,-140.5 2230.26,-147.44"/>
</g>
<!-- 2675063079664 -->
<g id="node27" class="node">
<title>2675063079664</title>
<polygon fill="none" stroke="black" points="2370.25,-119 2262,-119 2262,-83 2370.25,-83 2370.25,-119"/>
<text text-anchor="middle" x="2316.12" y="-95.97" font-family="Times New Roman,serif" font-size="12.00">Review submission</text>
</g>
<!-- 2675063093440&#45;&gt;2675063079664 -->
<g id="edge30" class="edge">
<title>2675063093440&#45;&gt;2675063079664</title>
<path fill="none" stroke="black" d="M1928.67,-101C1993.08,-101 2158.05,-101 2250.27,-101"/>
<polygon fill="black" stroke="black" points="2250.17,-104.5 2260.17,-101 2250.17,-97.5 2250.17,-104.5"/>
</g>
<!-- 2675060276208 -->
<g id="node28" class="node">
<title>2675060276208</title>
<polygon fill="none" stroke="black" points="2206.5,-69 2010.5,-69 2010.5,-33 2206.5,-33 2206.5,-69"/>
<text text-anchor="middle" x="2108.5" y="-45.98" font-family="Times New Roman,serif" font-size="12.00">Request clarifications of discrepancies</text>
</g>
<!-- 2675063093440&#45;&gt;2675060276208 -->
<g id="edge31" class="edge">
<title>2675063093440&#45;&gt;2675060276208</title>
<path fill="none" stroke="black" d="M1921.22,-96.3C1944.15,-90.72 1983.92,-81.05 2020.84,-72.07"/>
<polygon fill="black" stroke="black" points="2021.31,-75.56 2030.2,-69.8 2019.65,-68.76 2021.31,-75.56"/>
</g>
<!-- 2675060268816&#45;&gt;2675060278144 -->
<g id="edge28" class="edge">
<title>2675060268816&#45;&gt;2675060278144</title>
<path fill="none" stroke="black" d="M1959.97,-236.16C1998.1,-227.07 2046.4,-215.56 2077.14,-208.23"/>
<polygon fill="black" stroke="black" points="2077.61,-211.72 2086.53,-206 2075.99,-204.91 2077.61,-211.72"/>
</g>
<!-- 2675060280304 -->
<g id="node29" class="node">
<title>2675060280304</title>
<polygon fill="none" stroke="black" points="2632.75,-128 2605.75,-110 2632.75,-92 2659.75,-110 2632.75,-128"/>
<text text-anchor="middle" x="2632.75" y="-104.97" font-family="Times New Roman,serif" font-size="12.00">X</text>
</g>
<!-- 2675060269440&#45;&gt;2675060280304 -->
<g id="edge33" class="edge">
<title>2675060269440&#45;&gt;2675060280304</title>
<path fill="none" stroke="black" d="M2570.63,-110C2577.88,-110 2585.87,-110 2593.6,-110"/>
<polygon fill="black" stroke="black" points="2593.52,-113.5 2603.52,-110 2593.52,-106.5 2593.52,-113.5"/>
</g>
<!-- 2675060286160 -->
<g id="node30" class="node">
<title>2675060286160</title>
<polygon fill="none" stroke="black" points="2452.75,-122 2425.75,-104 2452.75,-86 2479.75,-104 2452.75,-122"/>
<text text-anchor="middle" x="2452.75" y="-98.97" font-family="Times New Roman,serif" font-size="12.00">+</text>
</g>
<!-- 2675060280736&#45;&gt;2675060286160 -->
<g id="edge34" class="edge">
<title>2675060280736&#45;&gt;2675060286160</title>
<path fill="none" stroke="black" d="M2366.77,-136.64C2374.47,-133.77 2382.33,-130.82 2389.75,-128 2401.12,-123.68 2413.64,-118.86 2424.43,-114.67"/>
<polygon fill="black" stroke="black" points="2425.47,-118.02 2433.52,-111.13 2422.93,-111.49 2425.47,-118.02"/>
</g>
<!-- 2675063079664&#45;&gt;2675060286160 -->
<g id="edge35" class="edge">
<title>2675063079664&#45;&gt;2675060286160</title>
<path fill="none" stroke="black" d="M2370.72,-102.19C2385.46,-102.52 2401.13,-102.87 2414.71,-103.17"/>
<polygon fill="black" stroke="black" points="2414.45,-106.67 2424.53,-103.39 2414.61,-99.67 2414.45,-106.67"/>
</g>
<!-- 2675063088496 -->
<g id="node31" class="node">
<title>2675063088496</title>
<polygon fill="none" stroke="black" points="2374.75,-65 2257.5,-65 2257.5,-29 2374.75,-29 2374.75,-65"/>
<text text-anchor="middle" x="2316.12" y="-41.98" font-family="Times New Roman,serif" font-size="12.00">Receive clarifications</text>
</g>
<!-- 2675060276208&#45;&gt;2675063088496 -->
<g id="edge36" class="edge">
<title>2675060276208&#45;&gt;2675063088496</title>
<path fill="none" stroke="black" d="M2206.89,-49.11C2220.09,-48.85 2233.4,-48.59 2245.96,-48.35"/>
<polygon fill="black" stroke="black" points="2245.81,-51.85 2255.74,-48.16 2245.68,-44.85 2245.81,-51.85"/>
</g>
<!-- 2675060262816 -->
<g id="node32" class="node">
<title>2675060262816</title>
<polygon fill="none" stroke="black" points="2846.75,-139 2695.75,-139 2695.75,-103 2846.75,-103 2846.75,-139"/>
<text text-anchor="middle" x="2771.25" y="-115.97" font-family="Times New Roman,serif" font-size="12.00">Gather necessary documents</text>
</g>
<!-- 2675060280304&#45;&gt;2675060262816 -->
<g id="edge39" class="edge">
<title>2675060280304&#45;&gt;2675060262816</title>
<path fill="none" stroke="black" d="M2657.53,-111.92C2665.27,-112.54 2674.36,-113.27 2683.97,-114.05"/>
<polygon fill="black" stroke="black" points="2683.67,-117.53 2693.92,-114.85 2684.23,-110.56 2683.67,-117.53"/>
</g>
<!-- 2675060267328 -->
<g id="node33" class="node">
<title>2675060267328</title>
<polygon fill="none" stroke="black" points="2988.75,-89 2885,-89 2885,-53 2988.75,-53 2988.75,-89"/>
<text text-anchor="middle" x="2936.88" y="-65.97" font-family="Times New Roman,serif" font-size="12.00">Submit documents</text>
</g>
<!-- 2675060280304&#45;&gt;2675060267328 -->
<g id="edge40" class="edge">
<title>2675060280304&#45;&gt;2675060267328</title>
<path fill="none" stroke="black" d="M2652.03,-104.47C2664.29,-100.97 2680.86,-96.62 2695.75,-94 2755.51,-83.49 2824.54,-77.51 2873.21,-74.3"/>
<polygon fill="black" stroke="black" points="2873.24,-77.81 2882.99,-73.68 2872.79,-70.82 2873.24,-77.81"/>
</g>
<!-- 2675060286160&#45;&gt;2675060269440 -->
<g id="edge37" class="edge">
<title>2675060286160&#45;&gt;2675060269440</title>
<path fill="none" stroke="black" d="M2477.8,-105.64C2486.55,-106.24 2496.64,-106.92 2506.19,-107.58"/>
<polygon fill="black" stroke="black" points="2505.7,-111.05 2515.92,-108.24 2506.18,-104.07 2505.7,-111.05"/>
</g>
<!-- 2675063088496&#45;&gt;2675060286160 -->
<g id="edge38" class="edge">
<title>2675063088496&#45;&gt;2675060286160</title>
<path fill="none" stroke="black" d="M2368.55,-65.43C2375.71,-68.19 2382.95,-71.1 2389.75,-74 2401.96,-79.21 2415.24,-85.54 2426.36,-91.04"/>
<polygon fill="black" stroke="black" points="2424.79,-94.17 2435.29,-95.52 2427.92,-87.91 2424.79,-94.17"/>
</g>
<!-- 2675060291728 -->
<g id="node35" class="node">
<title>2675060291728</title>
<polygon fill="none" stroke="black" points="2991,-143 2882.75,-143 2882.75,-107 2991,-107 2991,-143"/>
<text text-anchor="middle" x="2936.88" y="-119.97" font-family="Times New Roman,serif" font-size="12.00">Conduct interviews</text>
</g>
<!-- 2675060262816&#45;&gt;2675060291728 -->
<g id="edge41" class="edge">
<title>2675060262816&#45;&gt;2675060291728</title>
<path fill="none" stroke="black" d="M2846.88,-122.82C2854.92,-123.02 2863.06,-123.22 2870.97,-123.41"/>
<polygon fill="black" stroke="black" points="2870.77,-126.91 2880.86,-123.66 2870.95,-119.91 2870.77,-126.91"/>
</g>
<!-- 2675060292880 -->
<g id="node34" class="node">
<title>2675060292880</title>
<polygon fill="none" stroke="black" points="3566.25,-116 3539.25,-98 3566.25,-80 3593.25,-98 3566.25,-116"/>
<text text-anchor="middle" x="3566.25" y="-92.97" font-family="Times New Roman,serif" font-size="12.00">X</text>
</g>
<!-- 2675060267328&#45;&gt;2675060292880 -->
<g id="edge42" class="edge">
<title>2675060267328&#45;&gt;2675060292880</title>
<path fill="none" stroke="black" d="M2988.94,-73.07C3088.09,-77.1 3313.59,-86.39 3503.25,-95 3511.59,-95.38 3520.56,-95.8 3529.02,-96.21"/>
<polygon fill="black" stroke="black" points="3528.84,-99.71 3539,-96.7 3529.18,-92.71 3528.84,-99.71"/>
</g>
<!-- 2675060264400 -->
<g id="node36" class="node">
<title>2675060264400</title>
<polygon fill="none" stroke="black" points="3656.25,-116 3629.25,-98 3656.25,-80 3683.25,-98 3656.25,-116"/>
<text text-anchor="middle" x="3656.25" y="-92.97" font-family="Times New Roman,serif" font-size="12.00">X</text>
</g>
<!-- 2675060292880&#45;&gt;2675060264400 -->
<g id="edge43" class="edge">
<title>2675060292880&#45;&gt;2675060264400</title>
<path fill="none" stroke="black" d="M3594.13,-98C3601.38,-98 3609.37,-98 3617.1,-98"/>
<polygon fill="black" stroke="black" points="3617.02,-101.5 3627.02,-98 3617.02,-94.5 3617.02,-101.5"/>
</g>
<!-- 2675060293264 -->
<g id="node37" class="node">
<title>2675060293264</title>
<polygon fill="none" stroke="black" points="3190.75,-141 3027,-141 3027,-105 3190.75,-105 3190.75,-141"/>
<text text-anchor="middle" x="3108.88" y="-117.97" font-family="Times New Roman,serif" font-size="12.00">Review report by audit director</text>
</g>
<!-- 2675060291728&#45;&gt;2675060293264 -->
<g id="edge44" class="edge">
<title>2675060291728&#45;&gt;2675060293264</title>
<path fill="none" stroke="black" d="M2991.2,-124.37C2998.96,-124.28 3007.14,-124.19 3015.41,-124.09"/>
<polygon fill="black" stroke="black" points="3015.25,-127.59 3025.21,-123.97 3015.17,-120.59 3015.25,-127.59"/>
</g>
<!-- 2675060285344 -->
<g id="node39" class="node">
<title>2675060285344</title>
<polygon fill="none" stroke="black" points="3826.75,-118 3719.25,-118 3719.25,-82 3826.75,-82 3826.75,-118"/>
<text text-anchor="middle" x="3773" y="-94.97" font-family="Times New Roman,serif" font-size="12.00">Close audit process</text>
</g>
<!-- 2675060264400&#45;&gt;2675060285344 -->
<g id="edge45" class="edge">
<title>2675060264400&#45;&gt;2675060285344</title>
<path fill="none" stroke="black" d="M3683.29,-98.45C3690.64,-98.58 3698.99,-98.73 3707.55,-98.88"/>
<polygon fill="black" stroke="black" points="3707.29,-102.37 3717.35,-99.05 3707.42,-95.37 3707.29,-102.37"/>
</g>
<!-- 2675060275296 -->
<g id="node46" class="node">
<title>2675060275296</title>
<ellipse fill="orange" stroke="black" cx="3773" cy="-46" rx="18" ry="18"/>
</g>
<!-- 2675060264400&#45;&gt;2675060275296 -->
<g id="edge47" class="edge">
<title>2675060264400&#45;&gt;2675060275296</title>
<path fill="none" stroke="black" d="M3673.21,-90.77C3691.96,-82.27 3723.36,-68.04 3745.72,-57.91"/>
<polygon fill="black" stroke="black" points="3747.14,-61.11 3754.8,-53.79 3744.25,-54.73 3747.14,-61.11"/>
</g>
<!-- 2675060286112 -->
<g id="node38" class="node">
<title>2675060286112</title>
<polygon fill="none" stroke="black" points="3363.5,-140 3226.75,-140 3226.75,-104 3363.5,-104 3363.5,-140"/>
<text text-anchor="middle" x="3295.12" y="-116.97" font-family="Times New Roman,serif" font-size="12.00">Check regulatory updates</text>
</g>
<!-- 2675060293264&#45;&gt;2675060286112 -->
<g id="edge46" class="edge">
<title>2675060293264&#45;&gt;2675060286112</title>
<path fill="none" stroke="black" d="M3191.23,-122.56C3199.13,-122.52 3207.14,-122.47 3215.02,-122.43"/>
<polygon fill="black" stroke="black" points="3214.95,-125.93 3224.93,-122.38 3214.91,-118.93 3214.95,-125.93"/>
</g>
<!-- 2675060290864 -->
<g id="node40" class="node">
<title>2675060290864</title>
<polygon fill="none" stroke="black" points="3503.25,-140 3399.5,-140 3399.5,-104 3503.25,-104 3503.25,-140"/>
<text text-anchor="middle" x="3451.38" y="-116.97" font-family="Times New Roman,serif" font-size="12.00">Submit documents</text>
</g>
<!-- 2675060286112&#45;&gt;2675060290864 -->
<g id="edge48" class="edge">
<title>2675060286112&#45;&gt;2675060290864</title>
<path fill="none" stroke="black" d="M3363.78,-122C3371.72,-122 3379.8,-122 3387.67,-122"/>
<polygon fill="black" stroke="black" points="3387.49,-125.5 3397.49,-122 3387.49,-118.5 3387.49,-125.5"/>
</g>
<!-- 2675063083456 -->
<g id="node41" class="node">
<title>2675063083456</title>
<polygon fill="none" stroke="black" points="4049.75,-114 3862.75,-114 3862.75,-78 4049.75,-78 4049.75,-114"/>
<text text-anchor="middle" x="3956.25" y="-90.97" font-family="Times New Roman,serif" font-size="12.00">Complete risk assessment/mitigation</text>
</g>
<!-- 2675060285344&#45;&gt;2675063083456 -->
<g id="edge49" class="edge">
<title>2675060285344&#45;&gt;2675063083456</title>
<path fill="none" stroke="black" d="M3826.91,-98.83C3834.6,-98.66 3842.73,-98.48 3851.01,-98.3"/>
<polygon fill="black" stroke="black" points="3850.94,-101.8 3860.86,-98.08 3850.78,-94.8 3850.94,-101.8"/>
</g>
<!-- 2675060290864&#45;&gt;2675060292880 -->
<g id="edge50" class="edge">
<title>2675060290864&#45;&gt;2675060292880</title>
<path fill="none" stroke="black" d="M3503.53,-111.12C3513.86,-108.93 3524.44,-106.68 3533.85,-104.68"/>
<polygon fill="black" stroke="black" points="3534.5,-108.12 3543.56,-102.61 3533.05,-101.27 3534.5,-108.12"/>
</g>
<!-- 2675060279440 -->
<g id="node42" class="node">
<title>2675060279440</title>
<polygon fill="none" stroke="black" points="4230.75,-111 4085.75,-111 4085.75,-75 4230.75,-75 4230.75,-111"/>
<text text-anchor="middle" x="4158.25" y="-87.97" font-family="Times New Roman,serif" font-size="12.00">Update and resubmit report</text>
</g>
<!-- 2675063083456&#45;&gt;2675060279440 -->
<g id="edge51" class="edge">
<title>2675063083456&#45;&gt;2675060279440</title>
<path fill="none" stroke="black" d="M4050.22,-94.61C4058.17,-94.49 4066.18,-94.37 4074.05,-94.25"/>
<polygon fill="black" stroke="black" points="4073.99,-97.75 4083.94,-94.1 4073.89,-90.75 4073.99,-97.75"/>
</g>
<!-- 2675060281360 -->
<g id="node43" class="node">
<title>2675060281360</title>
<polygon fill="none" stroke="black" points="4351.75,-104 4266.75,-104 4266.75,-68 4351.75,-68 4351.75,-104"/>
<text text-anchor="middle" x="4309.25" y="-80.97" font-family="Times New Roman,serif" font-size="12.00">Archive report</text>
</g>
<!-- 2675060279440&#45;&gt;2675060281360 -->
<g id="edge52" class="edge">
<title>2675060279440&#45;&gt;2675060281360</title>
<path fill="none" stroke="black" d="M4231.13,-89.62C4239.14,-89.25 4247.18,-88.87 4254.9,-88.51"/>
<polygon fill="black" stroke="black" points="4254.97,-92.01 4264.8,-88.04 4254.64,-85.01 4254.97,-92.01"/>
</g>
<!-- 2675063089216 -->
<g id="node44" class="node">
<title>2675063089216</title>
<polygon fill="none" stroke="black" points="4513.25,-91 4387.75,-91 4387.75,-55 4513.25,-55 4513.25,-91"/>
<text text-anchor="middle" x="4450.5" y="-67.97" font-family="Times New Roman,serif" font-size="12.00">Evaluate financial risks</text>
</g>
<!-- 2675060281360&#45;&gt;2675063089216 -->
<g id="edge53" class="edge">
<title>2675060281360&#45;&gt;2675063089216</title>
<path fill="none" stroke="black" d="M4352.03,-82.1C4359.69,-81.38 4367.88,-80.62 4376.14,-79.85"/>
<polygon fill="black" stroke="black" points="4376.27,-83.35 4385.9,-78.94 4375.62,-76.38 4376.27,-83.35"/>
</g>
<!-- 2675060282848 -->
<g id="node45" class="node">
<title>2675060282848</title>
<polygon fill="none" stroke="black" points="4666.5,-41 4549.25,-41 4549.25,-5 4666.5,-5 4666.5,-41"/>
<text text-anchor="middle" x="4607.88" y="-17.98" font-family="Times New Roman,serif" font-size="12.00">Distribute final report</text>
</g>
<!-- 2675063089216&#45;&gt;2675060282848 -->
<g id="edge54" class="edge">
<title>2675063089216&#45;&gt;2675060282848</title>
<path fill="none" stroke="black" d="M4508.91,-54.52C4518.63,-51.4 4528.8,-48.13 4538.75,-44.92"/>
<polygon fill="black" stroke="black" points="4539.55,-48.34 4548,-41.95 4537.41,-41.68 4539.55,-48.34"/>
</g>
<!-- 2675060282848&#45;&gt;2675060268048 -->
<g id="edge55" class="edge">
<title>2675060282848&#45;&gt;2675060268048</title>
<path fill="none" stroke="black" d="M4549,-15.85C4489.29,-9.1 4393.41,0 4310.25,0 378.88,0 378.88,0 378.88,0 281.9,0 257.11,-5.08 162,-24 150.98,-26.19 139.08,-29.43 128.68,-32.56"/>
<polygon fill="black" stroke="black" points="127.66,-29.21 119.15,-35.53 129.74,-35.89 127.66,-29.21"/>
</g>
</g>
</svg>
