<?xml version="1.0" encoding="UTF-8" standalone="no"?>
<!DOCTYPE svg PUBLIC "-//W3C//DTD SVG 1.1//EN"
 "http://www.w3.org/Graphics/SVG/1.1/DTD/svg11.dtd">
<!-- Generated by graphviz version 11.0.0 (20240428.1522)
 -->
<!-- Pages: 1 -->
<svg width="3426pt" height="305pt"
 viewBox="0.00 0.00 3425.75 305.00" xmlns="http://www.w3.org/2000/svg" xmlns:xlink="http://www.w3.org/1999/xlink">
<g id="graph0" class="graph" transform="scale(1 1) rotate(0) translate(4 301)">
<polygon fill="white" stroke="none" points="-4,4 -4,-301 3421.75,-301 3421.75,4 -4,4"/>
<!-- 2675063112384 -->
<g id="node1" class="node">
<title>2675063112384</title>
<ellipse fill="green" stroke="black" cx="18" cy="-46" rx="18" ry="18"/>
</g>
<!-- 2675062382448 -->
<g id="node2" class="node">
<title>2675062382448</title>
<polygon fill="none" stroke="black" points="99,-64 72,-46 99,-28 126,-46 99,-64"/>
<text text-anchor="middle" x="99" y="-40.98" font-family="Times New Roman,serif" font-size="12.00">X</text>
</g>
<!-- 2675063112384&#45;&gt;2675062382448 -->
<g id="edge1" class="edge">
<title>2675063112384&#45;&gt;2675062382448</title>
<path fill="none" stroke="black" d="M36.14,-46C43.11,-46 51.47,-46 59.75,-46"/>
<polygon fill="black" stroke="black" points="59.75,-49.5 69.75,-46 59.75,-42.5 59.75,-49.5"/>
</g>
<!-- 2675060267136 -->
<g id="node3" class="node">
<title>2675060267136</title>
<polygon fill="none" stroke="black" points="189,-87 162,-69 189,-51 216,-69 189,-87"/>
<text text-anchor="middle" x="189" y="-63.98" font-family="Times New Roman,serif" font-size="12.00">+</text>
</g>
<!-- 2675062382448&#45;&gt;2675060267136 -->
<g id="edge2" class="edge">
<title>2675062382448&#45;&gt;2675060267136</title>
<path fill="none" stroke="black" d="M119.09,-50.99C130.51,-53.97 145.26,-57.83 158.19,-61.21"/>
<polygon fill="black" stroke="black" points="156.92,-64.49 167.48,-63.64 158.69,-57.72 156.92,-64.49"/>
</g>
<!-- 2675062442272 -->
<g id="node4" class="node">
<title>2675062442272</title>
<polygon fill="none" stroke="black" points="391,-153 252,-153 252,-117 391,-117 391,-153"/>
<text text-anchor="middle" x="321.5" y="-129.97" font-family="Times New Roman,serif" font-size="12.00">Evaluate compliance risks</text>
</g>
<!-- 2675060267136&#45;&gt;2675062442272 -->
<g id="edge4" class="edge">
<title>2675060267136&#45;&gt;2675062442272</title>
<path fill="none" stroke="black" d="M205.23,-76.7C222.05,-85.21 249.97,-99.33 274.11,-111.54"/>
<polygon fill="black" stroke="black" points="272.33,-114.56 282.84,-115.95 275.49,-108.32 272.33,-114.56"/>
</g>
<!-- 2675063110256 -->
<g id="node5" class="node">
<title>2675063110256</title>
<polygon fill="none" stroke="black" points="390.25,-87 252.75,-87 252.75,-51 390.25,-51 390.25,-87"/>
<text text-anchor="middle" x="321.5" y="-63.98" font-family="Times New Roman,serif" font-size="12.00">Evaluate operational risks</text>
</g>
<!-- 2675060267136&#45;&gt;2675063110256 -->
<g id="edge3" class="edge">
<title>2675060267136&#45;&gt;2675063110256</title>
<path fill="none" stroke="black" d="M216.72,-69C223.98,-69 232.23,-69 240.83,-69"/>
<polygon fill="black" stroke="black" points="240.78,-72.5 250.78,-69 240.78,-65.5 240.78,-72.5"/>
</g>
<!-- 2675063838944 -->
<g id="node7" class="node">
<title>2675063838944</title>
<polygon fill="none" stroke="black" points="454,-164 427,-146 454,-128 481,-146 454,-164"/>
<text text-anchor="middle" x="454" y="-140.97" font-family="Times New Roman,serif" font-size="12.00">X</text>
</g>
<!-- 2675062442272&#45;&gt;2675063838944 -->
<g id="edge5" class="edge">
<title>2675062442272&#45;&gt;2675063838944</title>
<path fill="none" stroke="black" d="M391.19,-140.79C400.54,-141.58 409.79,-142.36 418.18,-143.07"/>
<polygon fill="black" stroke="black" points="417.62,-146.53 427.88,-143.88 418.21,-139.55 417.62,-146.53"/>
</g>
<!-- 2675062381008 -->
<g id="node6" class="node">
<title>2675062381008</title>
<polygon fill="none" stroke="black" points="454,-87 427,-69 454,-51 481,-69 454,-87"/>
<text text-anchor="middle" x="454" y="-63.98" font-family="Times New Roman,serif" font-size="12.00">X</text>
</g>
<!-- 2675063110256&#45;&gt;2675062381008 -->
<g id="edge6" class="edge">
<title>2675063110256&#45;&gt;2675062381008</title>
<path fill="none" stroke="black" d="M390.43,-69C398.9,-69 407.31,-69 415.09,-69"/>
<polygon fill="black" stroke="black" points="414.82,-72.5 424.82,-69 414.82,-65.5 414.82,-72.5"/>
</g>
<!-- 2675063104496 -->
<g id="node8" class="node">
<title>2675063104496</title>
<polygon fill="none" stroke="black" points="650.38,-118 522.62,-118 522.62,-82 650.38,-82 650.38,-118"/>
<text text-anchor="middle" x="586.5" y="-94.97" font-family="Times New Roman,serif" font-size="12.00">Send report for revision</text>
</g>
<!-- 2675062381008&#45;&gt;2675063104496 -->
<g id="edge8" class="edge">
<title>2675062381008&#45;&gt;2675063104496</title>
<path fill="none" stroke="black" d="M474.82,-73.71C484.89,-76.1 497.83,-79.17 511.28,-82.37"/>
<polygon fill="black" stroke="black" points="510.13,-85.69 520.67,-84.6 511.75,-78.88 510.13,-85.69"/>
</g>
<!-- 2675060261376 -->
<g id="node10" class="node">
<title>2675060261376</title>
<polygon fill="none" stroke="black" points="630.88,-64 542.12,-64 542.12,-28 630.88,-28 630.88,-64"/>
<text text-anchor="middle" x="586.5" y="-40.98" font-family="Times New Roman,serif" font-size="12.00">Approve report</text>
</g>
<!-- 2675062381008&#45;&gt;2675060261376 -->
<g id="edge7" class="edge">
<title>2675062381008&#45;&gt;2675060261376</title>
<path fill="none" stroke="black" d="M476.26,-65.25C491.05,-62.65 511.49,-59.04 530.69,-55.66"/>
<polygon fill="black" stroke="black" points="531.07,-59.15 540.31,-53.97 529.85,-52.25 531.07,-59.15"/>
</g>
<!-- 2675063098544 -->
<g id="node9" class="node">
<title>2675063098544</title>
<polygon fill="none" stroke="black" points="656,-214 517,-214 517,-178 656,-178 656,-214"/>
<text text-anchor="middle" x="586.5" y="-190.97" font-family="Times New Roman,serif" font-size="12.00">Evaluate compliance risks</text>
</g>
<!-- 2675063838944&#45;&gt;2675063098544 -->
<g id="edge9" class="edge">
<title>2675063838944&#45;&gt;2675063098544</title>
<path fill="none" stroke="black" d="M472.06,-152.54C486.06,-157.9 506.74,-165.82 526.62,-173.44"/>
<polygon fill="black" stroke="black" points="525.22,-176.65 535.81,-176.96 527.72,-170.12 525.22,-176.65"/>
</g>
<!-- 2675060268432 -->
<g id="node11" class="node">
<title>2675060268432</title>
<polygon fill="none" stroke="black" points="819.75,-162 719,-162 719,-126 819.75,-126 819.75,-162"/>
<text text-anchor="middle" x="769.38" y="-138.97" font-family="Times New Roman,serif" font-size="12.00">Skip investigation</text>
</g>
<!-- 2675063838944&#45;&gt;2675060268432 -->
<g id="edge10" class="edge">
<title>2675063838944&#45;&gt;2675060268432</title>
<path fill="none" stroke="black" d="M481.45,-145.83C530.97,-145.52 638.84,-144.83 707.29,-144.39"/>
<polygon fill="black" stroke="black" points="707.27,-147.89 717.25,-144.33 707.22,-140.89 707.27,-147.89"/>
</g>
<!-- 2675062378752 -->
<g id="node12" class="node">
<title>2675062378752</title>
<polygon fill="none" stroke="black" points="769.38,-104 742.38,-86 769.38,-68 796.38,-86 769.38,-104"/>
<text text-anchor="middle" x="769.38" y="-80.97" font-family="Times New Roman,serif" font-size="12.00">X</text>
</g>
<!-- 2675063104496&#45;&gt;2675062378752 -->
<g id="edge11" class="edge">
<title>2675063104496&#45;&gt;2675062378752</title>
<path fill="none" stroke="black" d="M650.76,-95.1C678.35,-92.97 709.65,-90.55 733.03,-88.74"/>
<polygon fill="black" stroke="black" points="733.26,-92.23 742.96,-87.97 732.72,-85.25 733.26,-92.23"/>
</g>
<!-- 2675062453264 -->
<g id="node14" class="node">
<title>2675062453264</title>
<polygon fill="none" stroke="black" points="846.75,-216 692,-216 692,-180 846.75,-180 846.75,-216"/>
<text text-anchor="middle" x="769.38" y="-192.97" font-family="Times New Roman,serif" font-size="12.00">Launch detailed investigation</text>
</g>
<!-- 2675063098544&#45;&gt;2675062453264 -->
<g id="edge12" class="edge">
<title>2675063098544&#45;&gt;2675062453264</title>
<path fill="none" stroke="black" d="M656.4,-196.76C664.2,-196.85 672.23,-196.94 680.24,-197.03"/>
<polygon fill="black" stroke="black" points="679.96,-200.52 690,-197.13 680.04,-193.52 679.96,-200.52"/>
</g>
<!-- 2675060261376&#45;&gt;2675062378752 -->
<g id="edge13" class="edge">
<title>2675060261376&#45;&gt;2675062378752</title>
<path fill="none" stroke="black" d="M631.28,-55.68C664,-62.92 707.93,-72.63 737.14,-79.09"/>
<polygon fill="black" stroke="black" points="736.32,-82.5 746.84,-81.24 737.83,-75.66 736.32,-82.5"/>
</g>
<!-- 2675063834336 -->
<g id="node13" class="node">
<title>2675063834336</title>
<polygon fill="none" stroke="black" points="1092,-195 1065,-177 1092,-159 1119,-177 1092,-195"/>
<text text-anchor="middle" x="1092" y="-171.97" font-family="Times New Roman,serif" font-size="12.00">X</text>
</g>
<!-- 2675060268432&#45;&gt;2675063834336 -->
<g id="edge14" class="edge">
<title>2675060268432&#45;&gt;2675063834336</title>
<path fill="none" stroke="black" d="M820.2,-148.59C865.98,-152.86 935.72,-159.54 996.25,-166 1016.42,-168.15 1038.97,-170.76 1057.01,-172.9"/>
<polygon fill="black" stroke="black" points="1056.58,-176.37 1066.92,-174.08 1057.4,-169.42 1056.58,-176.37"/>
</g>
<!-- 2675063095808 -->
<g id="node16" class="node">
<title>2675063095808</title>
<polygon fill="none" stroke="black" points="939.5,-104 912.5,-86 939.5,-68 966.5,-86 939.5,-104"/>
<text text-anchor="middle" x="939.5" y="-80.97" font-family="Times New Roman,serif" font-size="12.00">+</text>
</g>
<!-- 2675062378752&#45;&gt;2675063095808 -->
<g id="edge15" class="edge">
<title>2675062378752&#45;&gt;2675063095808</title>
<path fill="none" stroke="black" d="M797.01,-86C824.85,-86 868.77,-86 900.29,-86"/>
<polygon fill="black" stroke="black" points="900.19,-89.5 910.19,-86 900.19,-82.5 900.19,-89.5"/>
</g>
<!-- 2675062443712 -->
<g id="node15" class="node">
<title>2675062443712</title>
<polygon fill="none" stroke="black" points="1214.75,-195 1187.75,-177 1214.75,-159 1241.75,-177 1214.75,-195"/>
<text text-anchor="middle" x="1214.75" y="-171.97" font-family="Times New Roman,serif" font-size="12.00">+</text>
</g>
<!-- 2675063834336&#45;&gt;2675062443712 -->
<g id="edge16" class="edge">
<title>2675063834336&#45;&gt;2675062443712</title>
<path fill="none" stroke="black" d="M1119.8,-177C1136.21,-177 1157.48,-177 1175.63,-177"/>
<polygon fill="black" stroke="black" points="1175.51,-180.5 1185.51,-177 1175.51,-173.5 1175.51,-180.5"/>
</g>
<!-- 2675063109248 -->
<g id="node17" class="node">
<title>2675063109248</title>
<polygon fill="none" stroke="black" points="996.25,-211 882.75,-211 882.75,-175 996.25,-175 996.25,-211"/>
<text text-anchor="middle" x="939.5" y="-187.97" font-family="Times New Roman,serif" font-size="12.00">Compile audit report</text>
</g>
<!-- 2675062453264&#45;&gt;2675063109248 -->
<g id="edge17" class="edge">
<title>2675062453264&#45;&gt;2675063109248</title>
<path fill="none" stroke="black" d="M847.06,-195.72C855.09,-195.48 863.21,-195.24 871.12,-195"/>
<polygon fill="black" stroke="black" points="871.13,-198.51 881.02,-194.71 870.92,-191.51 871.13,-198.51"/>
</g>
<!-- 2675062447168 -->
<g id="node18" class="node">
<title>2675062447168</title>
<polygon fill="none" stroke="black" points="1410,-297 1292.75,-297 1292.75,-261 1410,-261 1410,-297"/>
<text text-anchor="middle" x="1351.38" y="-273.98" font-family="Times New Roman,serif" font-size="12.00">Receive clarifications</text>
</g>
<!-- 2675062443712&#45;&gt;2675062447168 -->
<g id="edge20" class="edge">
<title>2675062443712&#45;&gt;2675062447168</title>
<path fill="none" stroke="black" d="M1223.21,-189.63C1233.53,-206.11 1253.65,-234.87 1277.75,-252 1279.3,-253.1 1280.89,-254.16 1282.53,-255.18"/>
<polygon fill="black" stroke="black" points="1280.5,-258.05 1290.93,-259.88 1283.91,-251.94 1280.5,-258.05"/>
</g>
<!-- 2675062441744 -->
<g id="node19" class="node">
<title>2675062441744</title>
<polygon fill="none" stroke="black" points="1401.38,-243 1301.38,-243 1301.38,-207 1401.38,-207 1401.38,-243"/>
<text text-anchor="middle" x="1351.38" y="-219.97" font-family="Times New Roman,serif" font-size="12.00">Perform site visits</text>
</g>
<!-- 2675062443712&#45;&gt;2675062441744 -->
<g id="edge19" class="edge">
<title>2675062443712&#45;&gt;2675062441744</title>
<path fill="none" stroke="black" d="M1233.07,-183.18C1247.65,-188.37 1269.39,-196.12 1290.2,-203.55"/>
<polygon fill="black" stroke="black" points="1288.94,-206.81 1299.53,-206.87 1291.29,-200.22 1288.94,-206.81"/>
</g>
<!-- 2675062455040 -->
<g id="node20" class="node">
<title>2675062455040</title>
<polygon fill="none" stroke="black" points="1425,-189 1277.75,-189 1277.75,-153 1425,-153 1425,-189"/>
<text text-anchor="middle" x="1351.38" y="-165.97" font-family="Times New Roman,serif" font-size="12.00">Prepare financial statements</text>
</g>
<!-- 2675062443712&#45;&gt;2675062455040 -->
<g id="edge21" class="edge">
<title>2675062443712&#45;&gt;2675062455040</title>
<path fill="none" stroke="black" d="M1240.76,-175.89C1248.27,-175.55 1256.97,-175.16 1266.11,-174.76"/>
<polygon fill="black" stroke="black" points="1266.09,-178.26 1275.92,-174.32 1265.78,-171.27 1266.09,-178.26"/>
</g>
<!-- 2675063099024 -->
<g id="node21" class="node">
<title>2675063099024</title>
<polygon fill="none" stroke="black" points="1405.5,-135 1297.25,-135 1297.25,-99 1405.5,-99 1405.5,-135"/>
<text text-anchor="middle" x="1351.38" y="-111.97" font-family="Times New Roman,serif" font-size="12.00">Review submission</text>
</g>
<!-- 2675062443712&#45;&gt;2675063099024 -->
<g id="edge22" class="edge">
<title>2675062443712&#45;&gt;2675063099024</title>
<path fill="none" stroke="black" d="M1229.76,-168.85C1242.16,-161.81 1260.85,-151.6 1277.75,-144 1280.9,-142.58 1284.15,-141.18 1287.44,-139.8"/>
<polygon fill="black" stroke="black" points="1288.71,-143.06 1296.66,-136.06 1286.08,-136.58 1288.71,-143.06"/>
</g>
<!-- 2675060276688 -->
<g id="node22" class="node">
<title>2675060276688</title>
<polygon fill="none" stroke="black" points="1140.12,-133 1043.88,-133 1043.88,-97 1140.12,-97 1140.12,-133"/>
<text text-anchor="middle" x="1092" y="-109.97" font-family="Times New Roman,serif" font-size="12.00">Send notification</text>
</g>
<!-- 2675063095808&#45;&gt;2675060276688 -->
<g id="edge24" class="edge">
<title>2675063095808&#45;&gt;2675060276688</title>
<path fill="none" stroke="black" d="M961.11,-89.97C979.4,-93.5 1007.04,-98.82 1032.12,-103.65"/>
<polygon fill="black" stroke="black" points="1031.46,-107.09 1041.94,-105.55 1032.78,-100.22 1031.46,-107.09"/>
</g>
<!-- 2675060275632 -->
<g id="node23" class="node">
<title>2675060275632</title>
<polygon fill="none" stroke="black" points="1151.75,-79 1032.25,-79 1032.25,-43 1151.75,-43 1151.75,-79"/>
<text text-anchor="middle" x="1092" y="-55.98" font-family="Times New Roman,serif" font-size="12.00">Conduct data analysis</text>
</g>
<!-- 2675063095808&#45;&gt;2675060275632 -->
<g id="edge23" class="edge">
<title>2675063095808&#45;&gt;2675060275632</title>
<path fill="none" stroke="black" d="M961.74,-82.47C977.27,-79.89 999.28,-76.24 1020.74,-72.67"/>
<polygon fill="black" stroke="black" points="1021.09,-76.16 1030.38,-71.07 1019.94,-69.26 1021.09,-76.16"/>
</g>
<!-- 2675063109248&#45;&gt;2675063834336 -->
<g id="edge18" class="edge">
<title>2675063109248&#45;&gt;2675063834336</title>
<path fill="none" stroke="black" d="M996.54,-187.04C1016.74,-184.9 1038.91,-182.54 1056.7,-180.65"/>
<polygon fill="black" stroke="black" points="1056.88,-184.15 1066.45,-179.61 1056.14,-177.19 1056.88,-184.15"/>
</g>
<!-- 2675062443088 -->
<g id="node25" class="node">
<title>2675062443088</title>
<polygon fill="none" stroke="black" points="1530.5,-212 1503.5,-194 1530.5,-176 1557.5,-194 1530.5,-212"/>
<text text-anchor="middle" x="1530.5" y="-188.97" font-family="Times New Roman,serif" font-size="12.00">+</text>
</g>
<!-- 2675062447168&#45;&gt;2675062443088 -->
<g id="edge25" class="edge">
<title>2675062447168&#45;&gt;2675062443088</title>
<path fill="none" stroke="black" d="M1404.73,-260.62C1411.62,-257.88 1418.52,-254.98 1425,-252 1453.7,-238.79 1485.23,-220.77 1506.07,-208.34"/>
<polygon fill="black" stroke="black" points="1507.6,-211.51 1514.36,-203.35 1503.98,-205.52 1507.6,-211.51"/>
</g>
<!-- 2675062441744&#45;&gt;2675062443088 -->
<g id="edge26" class="edge">
<title>2675062441744&#45;&gt;2675062443088</title>
<path fill="none" stroke="black" d="M1401.71,-216.36C1432.39,-211 1470.93,-204.25 1497.62,-199.58"/>
<polygon fill="black" stroke="black" points="1497.89,-203.09 1507.14,-197.91 1496.68,-196.19 1497.89,-203.09"/>
</g>
<!-- 2675062455040&#45;&gt;2675062443088 -->
<g id="edge27" class="edge">
<title>2675062455040&#45;&gt;2675062443088</title>
<path fill="none" stroke="black" d="M1425.44,-180.49C1449.86,-183.66 1475.91,-187.04 1495.83,-189.63"/>
<polygon fill="black" stroke="black" points="1495.22,-193.08 1505.58,-190.89 1496.12,-186.14 1495.22,-193.08"/>
</g>
<!-- 2675063099024&#45;&gt;2675062443088 -->
<g id="edge28" class="edge">
<title>2675063099024&#45;&gt;2675062443088</title>
<path fill="none" stroke="black" d="M1403.79,-135.45C1410.95,-138.22 1418.19,-141.11 1425,-144 1452.59,-155.7 1483.47,-170.72 1504.46,-181.23"/>
<polygon fill="black" stroke="black" points="1502.61,-184.22 1513.12,-185.6 1505.76,-177.97 1502.61,-184.22"/>
</g>
<!-- 2675062440832 -->
<g id="node24" class="node">
<title>2675062440832</title>
<polygon fill="none" stroke="black" points="1214.75,-83 1187.75,-65 1214.75,-47 1241.75,-65 1214.75,-83"/>
<text text-anchor="middle" x="1214.75" y="-59.98" font-family="Times New Roman,serif" font-size="12.00">+</text>
</g>
<!-- 2675060276688&#45;&gt;2675062440832 -->
<g id="edge29" class="edge">
<title>2675060276688&#45;&gt;2675062440832</title>
<path fill="none" stroke="black" d="M1137.62,-96.52C1154.22,-89.65 1172.52,-82.07 1187.02,-76.07"/>
<polygon fill="black" stroke="black" points="1187.98,-79.46 1195.88,-72.4 1185.3,-72.99 1187.98,-79.46"/>
</g>
<!-- 2675060275632&#45;&gt;2675062440832 -->
<g id="edge30" class="edge">
<title>2675060275632&#45;&gt;2675062440832</title>
<path fill="none" stroke="black" d="M1151.96,-62.95C1160.47,-63.23 1169.01,-63.52 1176.92,-63.78"/>
<polygon fill="black" stroke="black" points="1176.72,-67.28 1186.83,-64.11 1176.95,-60.28 1176.72,-67.28"/>
</g>
<!-- 2675062448272 -->
<g id="node28" class="node">
<title>2675062448272</title>
<polygon fill="none" stroke="black" points="1600,-83 1461,-83 1461,-47 1600,-47 1600,-83"/>
<text text-anchor="middle" x="1530.5" y="-59.98" font-family="Times New Roman,serif" font-size="12.00">Evaluate compliance risks</text>
</g>
<!-- 2675062440832&#45;&gt;2675062448272 -->
<g id="edge31" class="edge">
<title>2675062440832&#45;&gt;2675062448272</title>
<path fill="none" stroke="black" d="M1242.5,-65C1287.84,-65 1381.48,-65 1449.51,-65"/>
<polygon fill="black" stroke="black" points="1449.1,-68.5 1459.1,-65 1449.1,-61.5 1449.1,-68.5"/>
</g>
<!-- 2675062452016 -->
<g id="node26" class="node">
<title>2675062452016</title>
<polygon fill="none" stroke="black" points="1799.75,-291 1636,-291 1636,-255 1799.75,-255 1799.75,-291"/>
<text text-anchor="middle" x="1717.88" y="-267.98" font-family="Times New Roman,serif" font-size="12.00">Review report by audit director</text>
</g>
<!-- 2675062443088&#45;&gt;2675062452016 -->
<g id="edge32" class="edge">
<title>2675062443088&#45;&gt;2675062452016</title>
<path fill="none" stroke="black" d="M1546.08,-202.07C1566.01,-212.91 1603.04,-232.38 1636,-246 1639.85,-247.59 1643.83,-249.16 1647.87,-250.69"/>
<polygon fill="black" stroke="black" points="1646.63,-253.96 1657.22,-254.12 1649.04,-247.39 1646.63,-253.96"/>
</g>
<!-- 2675062448848 -->
<g id="node27" class="node">
<title>2675062448848</title>
<polygon fill="none" stroke="black" points="1793.38,-237 1642.38,-237 1642.38,-201 1793.38,-201 1793.38,-237"/>
<text text-anchor="middle" x="1717.88" y="-213.97" font-family="Times New Roman,serif" font-size="12.00">Gather necessary documents</text>
</g>
<!-- 2675062443088&#45;&gt;2675062448848 -->
<g id="edge33" class="edge">
<title>2675062443088&#45;&gt;2675062448848</title>
<path fill="none" stroke="black" d="M1553.86,-197.02C1573.16,-199.62 1602.32,-203.55 1630.67,-207.37"/>
<polygon fill="black" stroke="black" points="1630.02,-210.82 1640.4,-208.69 1630.95,-203.88 1630.02,-210.82"/>
</g>
<!-- 2675063103728 -->
<g id="node29" class="node">
<title>2675063103728</title>
<polygon fill="none" stroke="black" points="1786.25,-183 1649.5,-183 1649.5,-147 1786.25,-147 1786.25,-183"/>
<text text-anchor="middle" x="1717.88" y="-159.97" font-family="Times New Roman,serif" font-size="12.00">Check regulatory updates</text>
</g>
<!-- 2675062443088&#45;&gt;2675063103728 -->
<g id="edge34" class="edge">
<title>2675062443088&#45;&gt;2675063103728</title>
<path fill="none" stroke="black" d="M1553.13,-190.62C1574.05,-187.34 1607.05,-182.18 1637.96,-177.34"/>
<polygon fill="black" stroke="black" points="1638.4,-180.82 1647.74,-175.82 1637.32,-173.9 1638.4,-180.82"/>
</g>
<!-- 2675060275152 -->
<g id="node30" class="node">
<title>2675060275152</title>
<polygon fill="none" stroke="black" points="1772,-129 1663.75,-129 1663.75,-93 1772,-93 1772,-129"/>
<text text-anchor="middle" x="1717.88" y="-105.97" font-family="Times New Roman,serif" font-size="12.00">Conduct interviews</text>
</g>
<!-- 2675062443088&#45;&gt;2675060275152 -->
<g id="edge35" class="edge">
<title>2675062443088&#45;&gt;2675060275152</title>
<path fill="none" stroke="black" d="M1545.32,-185.61C1564.98,-173.91 1602.36,-152.51 1636,-138 1641.44,-135.66 1647.15,-133.38 1652.92,-131.22"/>
<polygon fill="black" stroke="black" points="1653.69,-134.67 1661.89,-127.97 1651.3,-128.09 1653.69,-134.67"/>
</g>
<!-- 2675062450336 -->
<g id="node31" class="node">
<title>2675062450336</title>
<polygon fill="none" stroke="black" points="1862.75,-183 1835.75,-165 1862.75,-147 1889.75,-165 1862.75,-183"/>
<text text-anchor="middle" x="1862.75" y="-159.97" font-family="Times New Roman,serif" font-size="12.00">+</text>
</g>
<!-- 2675062452016&#45;&gt;2675062450336 -->
<g id="edge36" class="edge">
<title>2675062452016&#45;&gt;2675062450336</title>
<path fill="none" stroke="black" d="M1785.38,-254.51C1790.43,-252.01 1795.29,-249.18 1799.75,-246 1821.08,-230.78 1838.46,-206.09 1849.34,-187.97"/>
<polygon fill="black" stroke="black" points="1852.26,-189.9 1854.22,-179.49 1846.2,-186.41 1852.26,-189.9"/>
</g>
<!-- 2675062448848&#45;&gt;2675062450336 -->
<g id="edge37" class="edge">
<title>2675062448848&#45;&gt;2675062450336</title>
<path fill="none" stroke="black" d="M1776.1,-200.6C1784.08,-197.83 1792.15,-194.92 1799.75,-192 1811.75,-187.39 1824.83,-181.79 1835.87,-176.88"/>
<polygon fill="black" stroke="black" points="1837.05,-180.19 1844.73,-172.89 1834.17,-173.8 1837.05,-180.19"/>
</g>
<!-- 2675063109200 -->
<g id="node32" class="node">
<title>2675063109200</title>
<polygon fill="none" stroke="black" points="2236,-95 2209,-77 2236,-59 2263,-77 2236,-95"/>
<text text-anchor="middle" x="2236" y="-71.97" font-family="Times New Roman,serif" font-size="12.00">+</text>
</g>
<!-- 2675062448272&#45;&gt;2675063109200 -->
<g id="edge38" class="edge">
<title>2675062448272&#45;&gt;2675063109200</title>
<path fill="none" stroke="black" d="M1600.44,-65C1667.26,-65 1771.45,-65 1861.75,-65 1861.75,-65 1861.75,-65 1978.62,-65 2057.66,-65 2150.25,-70.76 2199.67,-74.3"/>
<polygon fill="black" stroke="black" points="2199.24,-77.78 2209.47,-75.01 2199.75,-70.8 2199.24,-77.78"/>
</g>
<!-- 2675063103728&#45;&gt;2675062450336 -->
<g id="edge39" class="edge">
<title>2675063103728&#45;&gt;2675062450336</title>
<path fill="none" stroke="black" d="M1786.55,-165C1799.29,-165 1812.19,-165 1823.62,-165"/>
<polygon fill="black" stroke="black" points="1823.42,-168.5 1833.42,-165 1823.42,-161.5 1823.42,-168.5"/>
</g>
<!-- 2675060275152&#45;&gt;2675062450336 -->
<g id="edge40" class="edge">
<title>2675060275152&#45;&gt;2675062450336</title>
<path fill="none" stroke="black" d="M1772.19,-128.05C1781.43,-131.22 1790.91,-134.61 1799.75,-138 1811.75,-142.61 1824.83,-148.21 1835.87,-153.12"/>
<polygon fill="black" stroke="black" points="1834.17,-156.2 1844.73,-157.11 1837.05,-149.81 1834.17,-156.2"/>
</g>
<!-- 2675062442032 -->
<g id="node34" class="node">
<title>2675062442032</title>
<polygon fill="none" stroke="black" points="2029.5,-156 1925.75,-156 1925.75,-120 2029.5,-120 2029.5,-156"/>
<text text-anchor="middle" x="1977.62" y="-132.97" font-family="Times New Roman,serif" font-size="12.00">Submit documents</text>
</g>
<!-- 2675062450336&#45;&gt;2675062442032 -->
<g id="edge41" class="edge">
<title>2675062450336&#45;&gt;2675062442032</title>
<path fill="none" stroke="black" d="M1883.41,-160.3C1892.31,-158.17 1903.38,-155.52 1914.74,-152.8"/>
<polygon fill="black" stroke="black" points="1915.28,-156.27 1924.2,-150.54 1913.66,-149.46 1915.28,-156.27"/>
</g>
<!-- 2675062390752 -->
<g id="node33" class="node">
<title>2675062390752</title>
<polygon fill="none" stroke="black" points="2326,-95 2299,-77 2326,-59 2353,-77 2326,-95"/>
<text text-anchor="middle" x="2326" y="-71.97" font-family="Times New Roman,serif" font-size="12.00">X</text>
</g>
<!-- 2675063109200&#45;&gt;2675062390752 -->
<g id="edge42" class="edge">
<title>2675063109200&#45;&gt;2675062390752</title>
<path fill="none" stroke="black" d="M2263.88,-77C2271.13,-77 2279.12,-77 2286.85,-77"/>
<polygon fill="black" stroke="black" points="2286.77,-80.5 2296.77,-77 2286.77,-73.5 2286.77,-80.5"/>
</g>
<!-- 2675062449568 -->
<g id="node35" class="node">
<title>2675062449568</title>
<polygon fill="none" stroke="black" points="2496.5,-118 2389,-118 2389,-82 2496.5,-82 2496.5,-118"/>
<text text-anchor="middle" x="2442.75" y="-94.97" font-family="Times New Roman,serif" font-size="12.00">Close audit process</text>
</g>
<!-- 2675062390752&#45;&gt;2675062449568 -->
<g id="edge44" class="edge">
<title>2675062390752&#45;&gt;2675062449568</title>
<path fill="none" stroke="black" d="M2347.52,-81.11C2356.22,-82.86 2366.88,-84.99 2377.87,-87.2"/>
<polygon fill="black" stroke="black" points="2376.93,-90.58 2387.42,-89.11 2378.3,-83.71 2376.93,-90.58"/>
</g>
<!-- 2675063109344 -->
<g id="node37" class="node">
<title>2675063109344</title>
<polygon fill="none" stroke="black" points="2496.5,-64 2389,-64 2389,-28 2496.5,-28 2496.5,-64"/>
<text text-anchor="middle" x="2442.75" y="-40.98" font-family="Times New Roman,serif" font-size="12.00">Close audit process</text>
</g>
<!-- 2675062390752&#45;&gt;2675063109344 -->
<g id="edge43" class="edge">
<title>2675062390752&#45;&gt;2675063109344</title>
<path fill="none" stroke="black" d="M2345.95,-71.88C2354.82,-69.48 2365.97,-66.47 2377.49,-63.36"/>
<polygon fill="black" stroke="black" points="2378.39,-66.74 2387.13,-60.75 2376.57,-59.98 2378.39,-66.74"/>
</g>
<!-- 2675063099552 -->
<g id="node36" class="node">
<title>2675063099552</title>
<polygon fill="none" stroke="black" points="2173,-143 2065.5,-143 2065.5,-107 2173,-107 2173,-143"/>
<text text-anchor="middle" x="2119.25" y="-119.97" font-family="Times New Roman,serif" font-size="12.00">Close audit process</text>
</g>
<!-- 2675062442032&#45;&gt;2675063099552 -->
<g id="edge45" class="edge">
<title>2675062442032&#45;&gt;2675063099552</title>
<path fill="none" stroke="black" d="M2029.82,-133.23C2037.65,-132.5 2045.82,-131.74 2053.89,-130.99"/>
<polygon fill="black" stroke="black" points="2054.04,-134.49 2063.68,-130.08 2053.4,-127.52 2054.04,-134.49"/>
</g>
<!-- 2675062454752 -->
<g id="node38" class="node">
<title>2675062454752</title>
<polygon fill="none" stroke="black" points="2660.25,-118 2532.5,-118 2532.5,-82 2660.25,-82 2660.25,-118"/>
<text text-anchor="middle" x="2596.38" y="-94.97" font-family="Times New Roman,serif" font-size="12.00">Send report for revision</text>
</g>
<!-- 2675062449568&#45;&gt;2675062454752 -->
<g id="edge47" class="edge">
<title>2675062449568&#45;&gt;2675062454752</title>
<path fill="none" stroke="black" d="M2496.78,-100C2504.56,-100 2512.69,-100 2520.8,-100"/>
<polygon fill="black" stroke="black" points="2520.7,-103.5 2530.7,-100 2520.7,-96.5 2520.7,-103.5"/>
</g>
<!-- 2675063099552&#45;&gt;2675063109200 -->
<g id="edge46" class="edge">
<title>2675063099552&#45;&gt;2675063109200</title>
<path fill="none" stroke="black" d="M2164.29,-106.58C2179.05,-100.4 2195.06,-93.71 2208.11,-88.25"/>
<polygon fill="black" stroke="black" points="2209.43,-91.49 2217.31,-84.4 2206.73,-85.03 2209.43,-91.49"/>
</g>
<!-- 2675062451872 -->
<g id="node39" class="node">
<title>2675062451872</title>
<polygon fill="none" stroke="black" points="2655,-64 2537.75,-64 2537.75,-28 2655,-28 2655,-64"/>
<text text-anchor="middle" x="2596.38" y="-40.98" font-family="Times New Roman,serif" font-size="12.00">Distribute final report</text>
</g>
<!-- 2675063109344&#45;&gt;2675062451872 -->
<g id="edge48" class="edge">
<title>2675063109344&#45;&gt;2675062451872</title>
<path fill="none" stroke="black" d="M2496.78,-46C2506.23,-46 2516.21,-46 2526.03,-46"/>
<polygon fill="black" stroke="black" points="2525.95,-49.5 2535.95,-46 2525.95,-42.5 2525.95,-49.5"/>
</g>
<!-- 2675060275104 -->
<g id="node41" class="node">
<title>2675060275104</title>
<polygon fill="none" stroke="black" points="2883.25,-118 2696.25,-118 2696.25,-82 2883.25,-82 2883.25,-118"/>
<text text-anchor="middle" x="2789.75" y="-94.97" font-family="Times New Roman,serif" font-size="12.00">Complete risk assessment/mitigation</text>
</g>
<!-- 2675062454752&#45;&gt;2675060275104 -->
<g id="edge49" class="edge">
<title>2675062454752&#45;&gt;2675060275104</title>
<path fill="none" stroke="black" d="M2660.57,-100C2668.26,-100 2676.28,-100 2684.38,-100"/>
<polygon fill="black" stroke="black" points="2684.34,-103.5 2694.34,-100 2684.34,-96.5 2684.34,-103.5"/>
</g>
<!-- 2675062440544 -->
<g id="node40" class="node">
<title>2675062440544</title>
<polygon fill="none" stroke="black" points="2862.25,-64 2717.25,-64 2717.25,-28 2862.25,-28 2862.25,-64"/>
<text text-anchor="middle" x="2789.75" y="-40.98" font-family="Times New Roman,serif" font-size="12.00">Update and resubmit report</text>
</g>
<!-- 2675062451872&#45;&gt;2675062440544 -->
<g id="edge50" class="edge">
<title>2675062451872&#45;&gt;2675062440544</title>
<path fill="none" stroke="black" d="M2655.31,-46C2671.2,-46 2688.73,-46 2705.73,-46"/>
<polygon fill="black" stroke="black" points="2705.28,-49.5 2715.28,-46 2705.28,-42.5 2705.28,-49.5"/>
</g>
<!-- 2675062449472 -->
<g id="node42" class="node">
<title>2675062449472</title>
<polygon fill="none" stroke="black" points="3004.25,-64 2919.25,-64 2919.25,-28 3004.25,-28 3004.25,-64"/>
<text text-anchor="middle" x="2961.75" y="-40.98" font-family="Times New Roman,serif" font-size="12.00">Archive report</text>
</g>
<!-- 2675062440544&#45;&gt;2675062449472 -->
<g id="edge51" class="edge">
<title>2675062440544&#45;&gt;2675062449472</title>
<path fill="none" stroke="black" d="M2862.35,-46C2877.53,-46 2893.3,-46 2907.64,-46"/>
<polygon fill="black" stroke="black" points="2907.29,-49.5 2917.29,-46 2907.29,-42.5 2907.29,-49.5"/>
</g>
<!-- 2675063109488 -->
<g id="node43" class="node">
<title>2675063109488</title>
<polygon fill="none" stroke="black" points="3156.75,-118 3049.25,-118 3049.25,-82 3156.75,-82 3156.75,-118"/>
<text text-anchor="middle" x="3103" y="-94.97" font-family="Times New Roman,serif" font-size="12.00">Close audit process</text>
</g>
<!-- 2675060275104&#45;&gt;2675063109488 -->
<g id="edge52" class="edge">
<title>2675060275104&#45;&gt;2675063109488</title>
<path fill="none" stroke="black" d="M2883.71,-100C2933.31,-100 2993.11,-100 3037.57,-100"/>
<polygon fill="black" stroke="black" points="3037.3,-103.5 3047.3,-100 3037.3,-96.5 3037.3,-103.5"/>
</g>
<!-- 2675062447408 -->
<g id="node45" class="node">
<title>2675062447408</title>
<polygon fill="none" stroke="black" points="3165.75,-64 3040.25,-64 3040.25,-28 3165.75,-28 3165.75,-64"/>
<text text-anchor="middle" x="3103" y="-40.98" font-family="Times New Roman,serif" font-size="12.00">Evaluate financial risks</text>
</g>
<!-- 2675062449472&#45;&gt;2675062447408 -->
<g id="edge53" class="edge">
<title>2675062449472&#45;&gt;2675062447408</title>
<path fill="none" stroke="black" d="M3004.53,-46C3012.19,-46 3020.38,-46 3028.64,-46"/>
<polygon fill="black" stroke="black" points="3028.4,-49.5 3038.4,-46 3028.4,-42.5 3028.4,-49.5"/>
</g>
<!-- 2675062383024 -->
<g id="node44" class="node">
<title>2675062383024</title>
<polygon fill="none" stroke="black" points="3228.75,-64 3201.75,-46 3228.75,-28 3255.75,-46 3228.75,-64"/>
<text text-anchor="middle" x="3228.75" y="-40.98" font-family="Times New Roman,serif" font-size="12.00">X</text>
</g>
<!-- 2675063109488&#45;&gt;2675062383024 -->
<g id="edge54" class="edge">
<title>2675063109488&#45;&gt;2675062383024</title>
<path fill="none" stroke="black" d="M3146.24,-81.57C3164.56,-73.57 3185.44,-64.46 3201.48,-57.46"/>
<polygon fill="black" stroke="black" points="3202.57,-60.81 3210.33,-53.6 3199.77,-54.39 3202.57,-60.81"/>
</g>
<!-- 2675063835344 -->
<g id="node46" class="node">
<title>2675063835344</title>
<polygon fill="none" stroke="black" points="3318.75,-41 3291.75,-23 3318.75,-5 3345.75,-23 3318.75,-41"/>
<text text-anchor="middle" x="3318.75" y="-17.98" font-family="Times New Roman,serif" font-size="12.00">X</text>
</g>
<!-- 2675062383024&#45;&gt;2675063835344 -->
<g id="edge56" class="edge">
<title>2675062383024&#45;&gt;2675063835344</title>
<path fill="none" stroke="black" d="M3248.84,-41.01C3260.26,-38.03 3275.01,-34.17 3287.94,-30.79"/>
<polygon fill="black" stroke="black" points="3288.44,-34.28 3297.23,-28.36 3286.67,-27.51 3288.44,-34.28"/>
</g>
<!-- 2675062447408&#45;&gt;2675062383024 -->
<g id="edge55" class="edge">
<title>2675062447408&#45;&gt;2675062383024</title>
<path fill="none" stroke="black" d="M3166.24,-46C3174.2,-46 3182.15,-46 3189.57,-46"/>
<polygon fill="black" stroke="black" points="3189.57,-49.5 3199.57,-46 3189.57,-42.5 3189.57,-49.5"/>
</g>
<!-- 2675063835344&#45;&gt;2675062382448 -->
<g id="edge57" class="edge">
<title>2675063835344&#45;&gt;2675062382448</title>
<path fill="none" stroke="black" d="M3296.59,-19.2C3258.31,-12.67 3174.91,0 3104,0 320.5,0 320.5,0 320.5,0 250.23,0 169.98,-22.66 128.37,-36.17"/>
<polygon fill="black" stroke="black" points="127.29,-32.85 118.9,-39.32 129.49,-39.49 127.29,-32.85"/>
</g>
<!-- 2675063117616 -->
<g id="node47" class="node">
<title>2675063117616</title>
<ellipse fill="orange" stroke="black" cx="3399.75" cy="-23" rx="18" ry="18"/>
</g>
<!-- 2675063835344&#45;&gt;2675063117616 -->
<g id="edge58" class="edge">
<title>2675063835344&#45;&gt;2675063117616</title>
<path fill="none" stroke="black" d="M3346.5,-23C3354.13,-23 3362.48,-23 3370.22,-23"/>
<polygon fill="black" stroke="black" points="3370.18,-26.5 3380.18,-23 3370.18,-19.5 3370.18,-26.5"/>
</g>
</g>
</svg>
