<?xml version="1.0" encoding="UTF-8" standalone="no"?>
<!DOCTYPE svg PUBLIC "-//W3C//DTD SVG 1.1//EN"
 "http://www.w3.org/Graphics/SVG/1.1/DTD/svg11.dtd">
<!-- Generated by graphviz version 11.0.0 (20240428.1522)
 -->
<!-- Pages: 1 -->
<svg width="1744pt" height="98pt"
 viewBox="0.00 0.00 1744.00 98.00" xmlns="http://www.w3.org/2000/svg" xmlns:xlink="http://www.w3.org/1999/xlink">
<g id="graph0" class="graph" transform="scale(1 1) rotate(0) translate(4 94)">
<polygon fill="white" stroke="none" points="-4,4 -4,-94 1740,-94 1740,4 -4,4"/>
<!-- 2479385382352 -->
<g id="node1" class="node">
<title>2479385382352</title>
<ellipse fill="green" stroke="black" cx="18" cy="-45" rx="18" ry="18"/>
</g>
<!-- 2479394684560 -->
<g id="node2" class="node">
<title>2479394684560</title>
<polygon fill="none" stroke="black" points="175.75,-63 72,-63 72,-27 175.75,-27 175.75,-63"/>
<text text-anchor="middle" x="123.88" y="-39.98" font-family="Times New Roman,serif" font-size="12.00">Resolve complaint</text>
</g>
<!-- 2479385382352&#45;&gt;2479394684560 -->
<g id="edge1" class="edge">
<title>2479385382352&#45;&gt;2479394684560</title>
<path fill="none" stroke="black" d="M36.15,-45C43.04,-45 51.44,-45 60.27,-45"/>
<polygon fill="black" stroke="black" points="60.08,-48.5 70.08,-45 60.08,-41.5 60.08,-48.5"/>
</g>
<!-- 2479394683360 -->
<g id="node3" class="node">
<title>2479394683360</title>
<polygon fill="none" stroke="black" points="296.75,-63 211.75,-63 211.75,-27 296.75,-27 296.75,-63"/>
<text text-anchor="middle" x="254.25" y="-39.98" font-family="Times New Roman,serif" font-size="12.00">Log complaint</text>
</g>
<!-- 2479394684560&#45;&gt;2479394683360 -->
<g id="edge2" class="edge">
<title>2479394684560&#45;&gt;2479394683360</title>
<path fill="none" stroke="black" d="M175.98,-45C183.87,-45 192.04,-45 199.98,-45"/>
<polygon fill="black" stroke="black" points="199.87,-48.5 209.87,-45 199.87,-41.5 199.87,-48.5"/>
</g>
<!-- 2479394518032 -->
<g id="node4" class="node">
<title>2479394518032</title>
<polygon fill="none" stroke="black" points="475.5,-63 332.75,-63 332.75,-27 475.5,-27 475.5,-63"/>
<text text-anchor="middle" x="404.12" y="-39.98" font-family="Times New Roman,serif" font-size="12.00">Reject and notify customer</text>
</g>
<!-- 2479394683360&#45;&gt;2479394518032 -->
<g id="edge3" class="edge">
<title>2479394683360&#45;&gt;2479394518032</title>
<path fill="none" stroke="black" d="M297.23,-45C304.8,-45 312.93,-45 321.19,-45"/>
<polygon fill="black" stroke="black" points="320.99,-48.5 330.99,-45 320.99,-41.5 320.99,-48.5"/>
</g>
<!-- 2479394508912 -->
<g id="node5" class="node">
<title>2479394508912</title>
<polygon fill="none" stroke="black" points="595,-63 511.5,-63 511.5,-27 595,-27 595,-63"/>
<text text-anchor="middle" x="553.25" y="-39.98" font-family="Times New Roman,serif" font-size="12.00">File complaint</text>
</g>
<!-- 2479394518032&#45;&gt;2479394508912 -->
<g id="edge4" class="edge">
<title>2479394518032&#45;&gt;2479394508912</title>
<path fill="none" stroke="black" d="M475.67,-45C483.9,-45 492.17,-45 500.09,-45"/>
<polygon fill="black" stroke="black" points="499.86,-48.5 509.86,-45 499.86,-41.5 499.86,-48.5"/>
</g>
<!-- 2479394696288 -->
<g id="node6" class="node">
<title>2479394696288</title>
<polygon fill="none" stroke="black" points="658,-63 631,-45 658,-27 685,-45 658,-63"/>
<text text-anchor="middle" x="658" y="-39.98" font-family="Times New Roman,serif" font-size="12.00">X</text>
</g>
<!-- 2479394508912&#45;&gt;2479394696288 -->
<g id="edge5" class="edge">
<title>2479394508912&#45;&gt;2479394696288</title>
<path fill="none" stroke="black" d="M595.45,-45C603.14,-45 611.16,-45 618.76,-45"/>
<polygon fill="black" stroke="black" points="618.74,-48.5 628.74,-45 618.74,-41.5 618.74,-48.5"/>
</g>
<!-- 2479394698448 -->
<g id="node7" class="node">
<title>2479394698448</title>
<polygon fill="none" stroke="black" points="819.5,-88 721,-88 721,-52 819.5,-52 819.5,-88"/>
<text text-anchor="middle" x="770.25" y="-64.97" font-family="Times New Roman,serif" font-size="12.00">Provide feedback</text>
</g>
<!-- 2479394696288&#45;&gt;2479394698448 -->
<g id="edge6" class="edge">
<title>2479394696288&#45;&gt;2479394698448</title>
<path fill="none" stroke="black" d="M678.97,-49.53C687.71,-51.51 698.49,-53.96 709.52,-56.46"/>
<polygon fill="black" stroke="black" points="708.56,-59.83 719.08,-58.62 710.1,-53 708.56,-59.83"/>
</g>
<!-- 2479394508864 -->
<g id="node8" class="node">
<title>2479394508864</title>
<polygon fill="none" stroke="black" points="1062,-36 855.5,-36 855.5,0 1062,0 1062,-36"/>
<text text-anchor="middle" x="958.75" y="-12.97" font-family="Times New Roman,serif" font-size="12.00">Assign complaint to relevant department</text>
</g>
<!-- 2479394696288&#45;&gt;2479394508864 -->
<g id="edge7" class="edge">
<title>2479394696288&#45;&gt;2479394508864</title>
<path fill="none" stroke="black" d="M682.44,-42.88C717.14,-39.75 784.47,-33.66 843.86,-28.29"/>
<polygon fill="black" stroke="black" points="844.08,-31.79 853.72,-27.4 843.45,-24.82 844.08,-31.79"/>
</g>
<!-- 2479394682640 -->
<g id="node10" class="node">
<title>2479394682640</title>
<polygon fill="none" stroke="black" points="1036.12,-90 881.38,-90 881.38,-54 1036.12,-54 1036.12,-90"/>
<text text-anchor="middle" x="958.75" y="-66.97" font-family="Times New Roman,serif" font-size="12.00">Approve and notify customer</text>
</g>
<!-- 2479394698448&#45;&gt;2479394682640 -->
<g id="edge8" class="edge">
<title>2479394698448&#45;&gt;2479394682640</title>
<path fill="none" stroke="black" d="M819.76,-70.52C835.08,-70.68 852.51,-70.87 869.7,-71.06"/>
<polygon fill="black" stroke="black" points="869.39,-74.55 879.42,-71.16 869.46,-67.55 869.39,-74.55"/>
</g>
<!-- 2479394694224 -->
<g id="node9" class="node">
<title>2479394694224</title>
<polygon fill="none" stroke="black" points="1125,-63 1098,-45 1125,-27 1152,-45 1125,-63"/>
<text text-anchor="middle" x="1125" y="-39.98" font-family="Times New Roman,serif" font-size="12.00">X</text>
</g>
<!-- 2479394508864&#45;&gt;2479394694224 -->
<g id="edge9" class="edge">
<title>2479394508864&#45;&gt;2479394694224</title>
<path fill="none" stroke="black" d="M1062.37,-34.87C1072.8,-36.58 1082.76,-38.22 1091.52,-39.66"/>
<polygon fill="black" stroke="black" points="1090.72,-43.08 1101.15,-41.24 1091.85,-36.17 1090.72,-43.08"/>
</g>
<!-- 2479394698112 -->
<g id="node11" class="node">
<title>2479394698112</title>
<polygon fill="none" stroke="black" points="1323.25,-63 1188,-63 1188,-27 1323.25,-27 1323.25,-63"/>
<text text-anchor="middle" x="1255.62" y="-39.98" font-family="Times New Roman,serif" font-size="12.00">Review complaint details</text>
</g>
<!-- 2479394694224&#45;&gt;2479394698112 -->
<g id="edge11" class="edge">
<title>2479394694224&#45;&gt;2479394698112</title>
<path fill="none" stroke="black" d="M1152.65,-45C1159.81,-45 1167.94,-45 1176.4,-45"/>
<polygon fill="black" stroke="black" points="1176.16,-48.5 1186.16,-45 1176.16,-41.5 1176.16,-48.5"/>
</g>
<!-- 2479394682640&#45;&gt;2479394694224 -->
<g id="edge10" class="edge">
<title>2479394682640&#45;&gt;2479394694224</title>
<path fill="none" stroke="black" d="M1036.59,-59.37C1055.88,-56.2 1075.56,-52.96 1091.36,-50.37"/>
<polygon fill="black" stroke="black" points="1091.81,-53.84 1101.11,-48.76 1090.68,-46.93 1091.81,-53.84"/>
</g>
<!-- 2479394696816 -->
<g id="node12" class="node">
<title>2479394696816</title>
<polygon fill="none" stroke="black" points="1386.25,-63 1359.25,-45 1386.25,-27 1413.25,-45 1386.25,-63"/>
<text text-anchor="middle" x="1386.25" y="-39.98" font-family="Times New Roman,serif" font-size="12.00">X</text>
</g>
<!-- 2479394698112&#45;&gt;2479394696816 -->
<g id="edge12" class="edge">
<title>2479394698112&#45;&gt;2479394696816</title>
<path fill="none" stroke="black" d="M1323.57,-45C1331.57,-45 1339.51,-45 1346.9,-45"/>
<polygon fill="black" stroke="black" points="1346.85,-48.5 1356.85,-45 1346.85,-41.5 1346.85,-48.5"/>
</g>
<!-- 2479394697344 -->
<g id="node13" class="node">
<title>2479394697344</title>
<polygon fill="none" stroke="black" points="1637,-63 1610,-45 1637,-27 1664,-45 1637,-63"/>
<text text-anchor="middle" x="1637" y="-39.98" font-family="Times New Roman,serif" font-size="12.00">X</text>
</g>
<!-- 2479394696816&#45;&gt;2479394697344 -->
<g id="edge14" class="edge">
<title>2479394696816&#45;&gt;2479394697344</title>
<path fill="none" stroke="black" d="M1411.08,-46.9C1422.6,-47.72 1436.64,-48.59 1449.25,-49 1504.67,-50.79 1518.58,-50.79 1574,-49 1582.67,-48.72 1592.02,-48.22 1600.75,-47.67"/>
<polygon fill="black" stroke="black" points="1600.92,-51.17 1610.66,-47 1600.45,-44.18 1600.92,-51.17"/>
</g>
<!-- 2479394515824 -->
<g id="node14" class="node">
<title>2479394515824</title>
<polygon fill="none" stroke="black" points="1574,-40 1449.25,-40 1449.25,-4 1574,-4 1574,-40"/>
<text text-anchor="middle" x="1511.62" y="-16.98" font-family="Times New Roman,serif" font-size="12.00">Process reimbursement</text>
</g>
<!-- 2479394696816&#45;&gt;2479394515824 -->
<g id="edge13" class="edge">
<title>2479394696816&#45;&gt;2479394515824</title>
<path fill="none" stroke="black" d="M1408.18,-41.1C1416.6,-39.53 1426.85,-37.62 1437.58,-35.62"/>
<polygon fill="black" stroke="black" points="1438.19,-39.06 1447.38,-33.79 1436.91,-32.18 1438.19,-39.06"/>
</g>
<!-- 2479385380288 -->
<g id="node15" class="node">
<title>2479385380288</title>
<ellipse fill="orange" stroke="black" cx="1718" cy="-45" rx="18" ry="18"/>
</g>
<!-- 2479394697344&#45;&gt;2479385380288 -->
<g id="edge16" class="edge">
<title>2479394697344&#45;&gt;2479385380288</title>
<path fill="none" stroke="black" d="M1664.75,-45C1672.38,-45 1680.73,-45 1688.47,-45"/>
<polygon fill="black" stroke="black" points="1688.43,-48.5 1698.43,-45 1688.43,-41.5 1688.43,-48.5"/>
</g>
<!-- 2479394515824&#45;&gt;2479394697344 -->
<g id="edge15" class="edge">
<title>2479394515824&#45;&gt;2479394697344</title>
<path fill="none" stroke="black" d="M1574.31,-33.5C1584.53,-35.41 1594.75,-37.31 1603.85,-39.01"/>
<polygon fill="black" stroke="black" points="1603.11,-42.43 1613.58,-40.82 1604.39,-35.55 1603.11,-42.43"/>
</g>
</g>
</svg>
