<?xml version="1.0" encoding="UTF-8" standalone="no"?>
<!DOCTYPE svg PUBLIC "-//W3C//DTD SVG 1.1//EN"
 "http://www.w3.org/Graphics/SVG/1.1/DTD/svg11.dtd">
<!-- Generated by graphviz version 11.0.0 (20240428.1522)
 -->
<!-- Pages: 1 -->
<svg width="1620pt" height="98pt"
 viewBox="0.00 0.00 1620.25 98.00" xmlns="http://www.w3.org/2000/svg" xmlns:xlink="http://www.w3.org/1999/xlink">
<g id="graph0" class="graph" transform="scale(1 1) rotate(0) translate(4 94)">
<polygon fill="white" stroke="none" points="-4,4 -4,-94 1616.25,-94 1616.25,4 -4,4"/>
<!-- 2479385382400 -->
<g id="node1" class="node">
<title>2479385382400</title>
<ellipse fill="green" stroke="black" cx="18" cy="-45" rx="18" ry="18"/>
</g>
<!-- 2479368419232 -->
<g id="node2" class="node">
<title>2479368419232</title>
<polygon fill="none" stroke="black" points="175.75,-63 72,-63 72,-27 175.75,-27 175.75,-63"/>
<text text-anchor="middle" x="123.88" y="-39.98" font-family="Times New Roman,serif" font-size="12.00">Resolve complaint</text>
</g>
<!-- 2479385382400&#45;&gt;2479368419232 -->
<g id="edge1" class="edge">
<title>2479385382400&#45;&gt;2479368419232</title>
<path fill="none" stroke="black" d="M36.15,-45C43.04,-45 51.44,-45 60.27,-45"/>
<polygon fill="black" stroke="black" points="60.08,-48.5 70.08,-45 60.08,-41.5 60.08,-48.5"/>
</g>
<!-- 2479388800112 -->
<g id="node3" class="node">
<title>2479388800112</title>
<polygon fill="none" stroke="black" points="296.75,-63 211.75,-63 211.75,-27 296.75,-27 296.75,-63"/>
<text text-anchor="middle" x="254.25" y="-39.98" font-family="Times New Roman,serif" font-size="12.00">Log complaint</text>
</g>
<!-- 2479368419232&#45;&gt;2479388800112 -->
<g id="edge2" class="edge">
<title>2479368419232&#45;&gt;2479388800112</title>
<path fill="none" stroke="black" d="M175.98,-45C183.87,-45 192.04,-45 199.98,-45"/>
<polygon fill="black" stroke="black" points="199.87,-48.5 209.87,-45 199.87,-41.5 199.87,-48.5"/>
</g>
<!-- 2479388790176 -->
<g id="node4" class="node">
<title>2479388790176</title>
<polygon fill="none" stroke="black" points="475.5,-63 332.75,-63 332.75,-27 475.5,-27 475.5,-63"/>
<text text-anchor="middle" x="404.12" y="-39.98" font-family="Times New Roman,serif" font-size="12.00">Reject and notify customer</text>
</g>
<!-- 2479388800112&#45;&gt;2479388790176 -->
<g id="edge3" class="edge">
<title>2479388800112&#45;&gt;2479388790176</title>
<path fill="none" stroke="black" d="M297.23,-45C304.8,-45 312.93,-45 321.19,-45"/>
<polygon fill="black" stroke="black" points="320.99,-48.5 330.99,-45 320.99,-41.5 320.99,-48.5"/>
</g>
<!-- 2479388800400 -->
<g id="node5" class="node">
<title>2479388800400</title>
<polygon fill="none" stroke="black" points="595,-63 511.5,-63 511.5,-27 595,-27 595,-63"/>
<text text-anchor="middle" x="553.25" y="-39.98" font-family="Times New Roman,serif" font-size="12.00">File complaint</text>
</g>
<!-- 2479388790176&#45;&gt;2479388800400 -->
<g id="edge4" class="edge">
<title>2479388790176&#45;&gt;2479388800400</title>
<path fill="none" stroke="black" d="M475.67,-45C483.9,-45 492.17,-45 500.09,-45"/>
<polygon fill="black" stroke="black" points="499.86,-48.5 509.86,-45 499.86,-41.5 499.86,-48.5"/>
</g>
<!-- 2479388789552 -->
<g id="node6" class="node">
<title>2479388789552</title>
<polygon fill="none" stroke="black" points="658,-63 631,-45 658,-27 685,-45 658,-63"/>
<text text-anchor="middle" x="658" y="-39.98" font-family="Times New Roman,serif" font-size="12.00">X</text>
</g>
<!-- 2479388800400&#45;&gt;2479388789552 -->
<g id="edge5" class="edge">
<title>2479388800400&#45;&gt;2479388789552</title>
<path fill="none" stroke="black" d="M595.45,-45C603.14,-45 611.16,-45 618.76,-45"/>
<polygon fill="black" stroke="black" points="618.74,-48.5 628.74,-45 618.74,-41.5 618.74,-48.5"/>
</g>
<!-- 2479388798720 -->
<g id="node7" class="node">
<title>2479388798720</title>
<polygon fill="none" stroke="black" points="1090.12,-90 991.62,-90 991.62,-54 1090.12,-54 1090.12,-90"/>
<text text-anchor="middle" x="1040.88" y="-66.97" font-family="Times New Roman,serif" font-size="12.00">Provide feedback</text>
</g>
<!-- 2479388789552&#45;&gt;2479388798720 -->
<g id="edge7" class="edge">
<title>2479388789552&#45;&gt;2479388798720</title>
<path fill="none" stroke="black" d="M683.11,-46.71C742.05,-50.89 894.81,-61.72 980.09,-67.76"/>
<polygon fill="black" stroke="black" points="979.67,-71.24 989.89,-68.46 980.17,-64.26 979.67,-71.24"/>
</g>
<!-- 2479368417312 -->
<g id="node8" class="node">
<title>2479368417312</title>
<polygon fill="none" stroke="black" points="927.5,-40 721,-40 721,-4 927.5,-4 927.5,-40"/>
<text text-anchor="middle" x="824.25" y="-16.98" font-family="Times New Roman,serif" font-size="12.00">Assign complaint to relevant department</text>
</g>
<!-- 2479388789552&#45;&gt;2479368417312 -->
<g id="edge6" class="edge">
<title>2479388789552&#45;&gt;2479368417312</title>
<path fill="none" stroke="black" d="M681.15,-41.9C689.21,-40.77 698.96,-39.4 709.54,-37.92"/>
<polygon fill="black" stroke="black" points="709.91,-41.41 719.33,-36.55 708.94,-34.47 709.91,-41.41"/>
</g>
<!-- 2479388791568 -->
<g id="node9" class="node">
<title>2479388791568</title>
<polygon fill="none" stroke="black" points="1352.5,-63 1325.5,-45 1352.5,-27 1379.5,-45 1352.5,-63"/>
<text text-anchor="middle" x="1352.5" y="-39.98" font-family="Times New Roman,serif" font-size="12.00">X</text>
</g>
<!-- 2479388798720&#45;&gt;2479388791568 -->
<g id="edge8" class="edge">
<title>2479388798720&#45;&gt;2479388791568</title>
<path fill="none" stroke="black" d="M1090.59,-67.75C1153.42,-62.27 1261.17,-52.88 1316.49,-48.05"/>
<polygon fill="black" stroke="black" points="1316.61,-51.56 1326.27,-47.2 1316,-44.58 1316.61,-51.56"/>
</g>
<!-- 2479388799536 -->
<g id="node10" class="node">
<title>2479388799536</title>
<polygon fill="none" stroke="black" points="1118.25,-36 963.5,-36 963.5,0 1118.25,0 1118.25,-36"/>
<text text-anchor="middle" x="1040.88" y="-12.97" font-family="Times New Roman,serif" font-size="12.00">Approve and notify customer</text>
</g>
<!-- 2479368417312&#45;&gt;2479388799536 -->
<g id="edge9" class="edge">
<title>2479368417312&#45;&gt;2479388799536</title>
<path fill="none" stroke="black" d="M927.85,-20.09C935.81,-19.94 943.81,-19.79 951.67,-19.64"/>
<polygon fill="black" stroke="black" points="951.62,-23.15 961.55,-19.46 951.49,-16.15 951.62,-23.15"/>
</g>
<!-- 2479368406464 -->
<g id="node12" class="node">
<title>2479368406464</title>
<polygon fill="none" stroke="black" points="1540.25,-63 1415.5,-63 1415.5,-27 1540.25,-27 1540.25,-63"/>
<text text-anchor="middle" x="1477.88" y="-39.98" font-family="Times New Roman,serif" font-size="12.00">Process reimbursement</text>
</g>
<!-- 2479388791568&#45;&gt;2479368406464 -->
<g id="edge10" class="edge">
<title>2479388791568&#45;&gt;2479368406464</title>
<path fill="none" stroke="black" d="M1380.27,-45C1387.38,-45 1395.42,-45 1403.75,-45"/>
<polygon fill="black" stroke="black" points="1403.71,-48.5 1413.71,-45 1403.7,-41.5 1403.71,-48.5"/>
</g>
<!-- 2479388797136 -->
<g id="node11" class="node">
<title>2479388797136</title>
<polygon fill="none" stroke="black" points="1289.5,-40 1154.25,-40 1154.25,-4 1289.5,-4 1289.5,-40"/>
<text text-anchor="middle" x="1221.88" y="-16.98" font-family="Times New Roman,serif" font-size="12.00">Review complaint details</text>
</g>
<!-- 2479388799536&#45;&gt;2479388797136 -->
<g id="edge11" class="edge">
<title>2479388799536&#45;&gt;2479388797136</title>
<path fill="none" stroke="black" d="M1118.57,-19.71C1126.47,-19.89 1134.51,-20.07 1142.44,-20.25"/>
<polygon fill="black" stroke="black" points="1142.34,-23.75 1152.42,-20.47 1142.5,-16.75 1142.34,-23.75"/>
</g>
<!-- 2479388797136&#45;&gt;2479388791568 -->
<g id="edge12" class="edge">
<title>2479388797136&#45;&gt;2479388791568</title>
<path fill="none" stroke="black" d="M1289.82,-33.97C1300.1,-35.81 1310.28,-37.63 1319.32,-39.25"/>
<polygon fill="black" stroke="black" points="1318.51,-42.66 1328.97,-40.97 1319.74,-35.77 1318.51,-42.66"/>
</g>
<!-- 2479385393728 -->
<g id="node13" class="node">
<title>2479385393728</title>
<ellipse fill="orange" stroke="black" cx="1594.25" cy="-45" rx="18" ry="18"/>
</g>
<!-- 2479368406464&#45;&gt;2479385393728 -->
<g id="edge13" class="edge">
<title>2479368406464&#45;&gt;2479385393728</title>
<path fill="none" stroke="black" d="M1540.75,-45C1549.11,-45 1557.34,-45 1564.71,-45"/>
<polygon fill="black" stroke="black" points="1564.67,-48.5 1574.67,-45 1564.67,-41.5 1564.67,-48.5"/>
</g>
</g>
</svg>
