<?xml version="1.0" encoding="UTF-8" standalone="no"?>
<!DOCTYPE svg PUBLIC "-//W3C//DTD SVG 1.1//EN"
 "http://www.w3.org/Graphics/SVG/1.1/DTD/svg11.dtd">
<!-- Generated by graphviz version 11.0.0 (20240428.1522)
 -->
<!-- Pages: 1 -->
<svg width="1442pt" height="144pt"
 viewBox="0.00 0.00 1441.50 144.00" xmlns="http://www.w3.org/2000/svg" xmlns:xlink="http://www.w3.org/1999/xlink">
<g id="graph0" class="graph" transform="scale(1 1) rotate(0) translate(4 140)">
<polygon fill="white" stroke="none" points="-4,4 -4,-140 1437.5,-140 1437.5,4 -4,4"/>
<!-- 2479389104784 -->
<g id="node1" class="node">
<title>2479389104784</title>
<ellipse fill="green" stroke="black" cx="18" cy="-72" rx="18" ry="18"/>
</g>
<!-- 2479394678512 -->
<g id="node2" class="node">
<title>2479394678512</title>
<polygon fill="none" stroke="black" points="155.5,-90 72,-90 72,-54 155.5,-54 155.5,-90"/>
<text text-anchor="middle" x="113.75" y="-66.97" font-family="Times New Roman,serif" font-size="12.00">File complaint</text>
</g>
<!-- 2479389104784&#45;&gt;2479394678512 -->
<g id="edge1" class="edge">
<title>2479389104784&#45;&gt;2479394678512</title>
<path fill="none" stroke="black" d="M36.2,-72C43.11,-72 51.48,-72 60.11,-72"/>
<polygon fill="black" stroke="black" points="60.01,-75.5 70.01,-72 60.01,-68.5 60.01,-75.5"/>
</g>
<!-- 2479393503232 -->
<g id="node3" class="node">
<title>2479393503232</title>
<polygon fill="none" stroke="black" points="276.5,-90 191.5,-90 191.5,-54 276.5,-54 276.5,-90"/>
<text text-anchor="middle" x="234" y="-66.97" font-family="Times New Roman,serif" font-size="12.00">Log complaint</text>
</g>
<!-- 2479394678512&#45;&gt;2479393503232 -->
<g id="edge2" class="edge">
<title>2479394678512&#45;&gt;2479393503232</title>
<path fill="none" stroke="black" d="M155.78,-72C163.57,-72 171.84,-72 179.95,-72"/>
<polygon fill="black" stroke="black" points="179.73,-75.5 189.73,-72 179.73,-68.5 179.73,-75.5"/>
</g>
<!-- 2479394682208 -->
<g id="node4" class="node">
<title>2479394682208</title>
<polygon fill="none" stroke="black" points="339.5,-90 312.5,-72 339.5,-54 366.5,-72 339.5,-90"/>
<text text-anchor="middle" x="339.5" y="-66.97" font-family="Times New Roman,serif" font-size="12.00">X</text>
</g>
<!-- 2479393503232&#45;&gt;2479394682208 -->
<g id="edge3" class="edge">
<title>2479393503232&#45;&gt;2479394682208</title>
<path fill="none" stroke="black" d="M276.8,-72C284.62,-72 292.76,-72 300.46,-72"/>
<polygon fill="black" stroke="black" points="300.21,-75.5 310.21,-72 300.21,-68.5 300.21,-75.5"/>
</g>
<!-- 2479394679568 -->
<g id="node5" class="node">
<title>2479394679568</title>
<polygon fill="none" stroke="black" points="761.88,-136 663.38,-136 663.38,-100 761.88,-100 761.88,-136"/>
<text text-anchor="middle" x="712.62" y="-112.97" font-family="Times New Roman,serif" font-size="12.00">Provide feedback</text>
</g>
<!-- 2479394682208&#45;&gt;2479394679568 -->
<g id="edge5" class="edge">
<title>2479394682208&#45;&gt;2479394679568</title>
<path fill="none" stroke="black" d="M359.65,-76.94C371.85,-79.94 388.02,-83.62 402.5,-86 488.59,-100.12 589.24,-109.17 651.72,-113.92"/>
<polygon fill="black" stroke="black" points="651.19,-117.39 661.42,-114.65 651.71,-110.41 651.19,-117.39"/>
</g>
<!-- 2479393490656 -->
<g id="node6" class="node">
<title>2479393490656</title>
<polygon fill="none" stroke="black" points="965,-90 822.25,-90 822.25,-54 965,-54 965,-90"/>
<text text-anchor="middle" x="893.62" y="-66.97" font-family="Times New Roman,serif" font-size="12.00">Reject and notify customer</text>
</g>
<!-- 2479394682208&#45;&gt;2479393490656 -->
<g id="edge6" class="edge">
<title>2479394682208&#45;&gt;2479393490656</title>
<path fill="none" stroke="black" d="M367.13,-72C446.59,-72 684.31,-72 811.01,-72"/>
<polygon fill="black" stroke="black" points="810.66,-75.5 820.66,-72 810.66,-68.5 810.66,-75.5"/>
</g>
<!-- 2479388789072 -->
<g id="node7" class="node">
<title>2479388789072</title>
<polygon fill="none" stroke="black" points="609,-40 402.5,-40 402.5,-4 609,-4 609,-40"/>
<text text-anchor="middle" x="505.75" y="-16.98" font-family="Times New Roman,serif" font-size="12.00">Assign complaint to relevant department</text>
</g>
<!-- 2479394682208&#45;&gt;2479388789072 -->
<g id="edge4" class="edge">
<title>2479394682208&#45;&gt;2479388789072</title>
<path fill="none" stroke="black" d="M358.71,-66.46C376.84,-60.94 405.87,-52.1 433.29,-43.75"/>
<polygon fill="black" stroke="black" points="434.09,-47.17 442.64,-40.91 432.06,-40.47 434.09,-47.17"/>
</g>
<!-- 2479394684704 -->
<g id="node8" class="node">
<title>2479394684704</title>
<polygon fill="none" stroke="black" points="1194.75,-90 1167.75,-72 1194.75,-54 1221.75,-72 1194.75,-90"/>
<text text-anchor="middle" x="1194.75" y="-66.97" font-family="Times New Roman,serif" font-size="12.00">X</text>
</g>
<!-- 2479394679568&#45;&gt;2479394684704 -->
<g id="edge7" class="edge">
<title>2479394679568&#45;&gt;2479394684704</title>
<path fill="none" stroke="black" d="M762.18,-116.65C840.4,-113.94 998.96,-106.26 1131.75,-86 1142.18,-84.41 1153.46,-82.05 1163.51,-79.73"/>
<polygon fill="black" stroke="black" points="1164.24,-83.15 1173.14,-77.41 1162.6,-76.35 1164.24,-83.15"/>
</g>
<!-- 2479393490656&#45;&gt;2479394684704 -->
<g id="edge8" class="edge">
<title>2479393490656&#45;&gt;2479394684704</title>
<path fill="none" stroke="black" d="M965.13,-72C1024.69,-72 1107.7,-72 1155.58,-72"/>
<polygon fill="black" stroke="black" points="1155.44,-75.5 1165.44,-72 1155.44,-68.5 1155.44,-75.5"/>
</g>
<!-- 2479388796560 -->
<g id="node9" class="node">
<title>2479388796560</title>
<polygon fill="none" stroke="black" points="780.25,-38 645,-38 645,-2 780.25,-2 780.25,-38"/>
<text text-anchor="middle" x="712.62" y="-14.97" font-family="Times New Roman,serif" font-size="12.00">Review complaint details</text>
</g>
<!-- 2479388789072&#45;&gt;2479388796560 -->
<g id="edge9" class="edge">
<title>2479388789072&#45;&gt;2479388796560</title>
<path fill="none" stroke="black" d="M609.49,-21C617.54,-20.92 625.58,-20.84 633.43,-20.76"/>
<polygon fill="black" stroke="black" points="633.28,-24.27 643.24,-20.67 633.21,-17.27 633.28,-24.27"/>
</g>
<!-- 2479388789984 -->
<g id="node11" class="node">
<title>2479388789984</title>
<polygon fill="none" stroke="black" points="1361.5,-90 1257.75,-90 1257.75,-54 1361.5,-54 1361.5,-90"/>
<text text-anchor="middle" x="1309.62" y="-66.97" font-family="Times New Roman,serif" font-size="12.00">Resolve complaint</text>
</g>
<!-- 2479394684704&#45;&gt;2479388789984 -->
<g id="edge10" class="edge">
<title>2479394684704&#45;&gt;2479388789984</title>
<path fill="none" stroke="black" d="M1222.5,-72C1229.67,-72 1237.74,-72 1245.98,-72"/>
<polygon fill="black" stroke="black" points="1245.75,-75.5 1255.75,-72 1245.75,-68.5 1245.75,-75.5"/>
</g>
<!-- 2479388792336 -->
<g id="node10" class="node">
<title>2479388792336</title>
<polygon fill="none" stroke="black" points="971,-36 816.25,-36 816.25,0 971,0 971,-36"/>
<text text-anchor="middle" x="893.62" y="-12.97" font-family="Times New Roman,serif" font-size="12.00">Approve and notify customer</text>
</g>
<!-- 2479388796560&#45;&gt;2479388792336 -->
<g id="edge11" class="edge">
<title>2479388796560&#45;&gt;2479388792336</title>
<path fill="none" stroke="black" d="M780.53,-19.25C788.36,-19.16 796.44,-19.07 804.5,-18.98"/>
<polygon fill="black" stroke="black" points="804.39,-22.49 814.35,-18.87 804.31,-15.49 804.39,-22.49"/>
</g>
<!-- 2479389017104 -->
<g id="node12" class="node">
<title>2479389017104</title>
<polygon fill="none" stroke="black" points="1131.75,-40 1007,-40 1007,-4 1131.75,-4 1131.75,-40"/>
<text text-anchor="middle" x="1069.38" y="-16.98" font-family="Times New Roman,serif" font-size="12.00">Process reimbursement</text>
</g>
<!-- 2479388792336&#45;&gt;2479389017104 -->
<g id="edge12" class="edge">
<title>2479388792336&#45;&gt;2479389017104</title>
<path fill="none" stroke="black" d="M971.34,-19.77C979.28,-19.95 987.34,-20.13 995.24,-20.32"/>
<polygon fill="black" stroke="black" points="995.08,-23.81 1005.15,-20.54 995.24,-16.82 995.08,-23.81"/>
</g>
<!-- 2479368415584 -->
<g id="node13" class="node">
<title>2479368415584</title>
<ellipse fill="orange" stroke="black" cx="1415.5" cy="-72" rx="18" ry="18"/>
</g>
<!-- 2479388789984&#45;&gt;2479368415584 -->
<g id="edge13" class="edge">
<title>2479388789984&#45;&gt;2479368415584</title>
<path fill="none" stroke="black" d="M1361.95,-72C1370.17,-72 1378.41,-72 1385.85,-72"/>
<polygon fill="black" stroke="black" points="1385.59,-75.5 1395.59,-72 1385.59,-68.5 1385.59,-75.5"/>
</g>
<!-- 2479389017104&#45;&gt;2479394684704 -->
<g id="edge14" class="edge">
<title>2479389017104&#45;&gt;2479394684704</title>
<path fill="none" stroke="black" d="M1115.96,-40.48C1133.03,-47.39 1151.86,-55.03 1166.72,-61.05"/>
<polygon fill="black" stroke="black" points="1165.23,-64.22 1175.82,-64.73 1167.86,-57.73 1165.23,-64.22"/>
</g>
</g>
</svg>
