<?xml version="1.0" encoding="UTF-8" standalone="no"?>
<!DOCTYPE svg PUBLIC "-//W3C//DTD SVG 1.1//EN"
 "http://www.w3.org/Graphics/SVG/1.1/DTD/svg11.dtd">
<!-- Generated by graphviz version 11.0.0 (20240428.1522)
 -->
<!-- Pages: 1 -->
<svg width="1904pt" height="105pt"
 viewBox="0.00 0.00 1903.75 105.32" xmlns="http://www.w3.org/2000/svg" xmlns:xlink="http://www.w3.org/1999/xlink">
<g id="graph0" class="graph" transform="scale(1 1) rotate(0) translate(4 101.32)">
<polygon fill="white" stroke="none" points="-4,4 -4,-101.32 1899.75,-101.32 1899.75,4 -4,4"/>
<!-- 2592521559248 -->
<g id="node1" class="node">
<title>2592521559248</title>
<ellipse fill="green" stroke="black" cx="18" cy="-45" rx="18" ry="18"/>
</g>
<!-- 2592521681808 -->
<g id="node2" class="node">
<title>2592521681808</title>
<polygon fill="none" stroke="black" points="155.5,-63 72,-63 72,-27 155.5,-27 155.5,-63"/>
<text text-anchor="middle" x="113.75" y="-39.98" font-family="Times New Roman,serif" font-size="12.00">File complaint</text>
</g>
<!-- 2592521559248&#45;&gt;2592521681808 -->
<g id="edge1" class="edge">
<title>2592521559248&#45;&gt;2592521681808</title>
<path fill="none" stroke="black" d="M36.2,-45C43.11,-45 51.48,-45 60.11,-45"/>
<polygon fill="black" stroke="black" points="60.01,-48.5 70.01,-45 60.01,-41.5 60.01,-48.5"/>
</g>
<!-- 2592521676720 -->
<g id="node3" class="node">
<title>2592521676720</title>
<polygon fill="none" stroke="black" points="218.5,-63 191.5,-45 218.5,-27 245.5,-45 218.5,-63"/>
<text text-anchor="middle" x="218.5" y="-39.98" font-family="Times New Roman,serif" font-size="12.00">+</text>
</g>
<!-- 2592521681808&#45;&gt;2592521676720 -->
<g id="edge2" class="edge">
<title>2592521681808&#45;&gt;2592521676720</title>
<path fill="none" stroke="black" d="M155.95,-45C163.64,-45 171.66,-45 179.26,-45"/>
<polygon fill="black" stroke="black" points="179.24,-48.5 189.24,-45 179.24,-41.5 179.24,-48.5"/>
</g>
<!-- 2592521680656 -->
<g id="node4" class="node">
<title>2592521680656</title>
<polygon fill="none" stroke="black" points="427.25,-90 342.25,-90 342.25,-54 427.25,-54 427.25,-90"/>
<text text-anchor="middle" x="384.75" y="-66.97" font-family="Times New Roman,serif" font-size="12.00">Log complaint</text>
</g>
<!-- 2592521676720&#45;&gt;2592521680656 -->
<g id="edge3" class="edge">
<title>2592521676720&#45;&gt;2592521680656</title>
<path fill="none" stroke="black" d="M240.97,-48.53C263.64,-52.26 300.24,-58.27 330.71,-63.28"/>
<polygon fill="black" stroke="black" points="330.12,-66.73 340.55,-64.9 331.25,-59.82 330.12,-66.73"/>
</g>
<!-- 2592521681568 -->
<g id="node5" class="node">
<title>2592521681568</title>
<polygon fill="none" stroke="black" points="488,-36 281.5,-36 281.5,0 488,0 488,-36"/>
<text text-anchor="middle" x="384.75" y="-12.97" font-family="Times New Roman,serif" font-size="12.00">Assign complaint to relevant department</text>
</g>
<!-- 2592521676720&#45;&gt;2592521681568 -->
<g id="edge4" class="edge">
<title>2592521676720&#45;&gt;2592521681568</title>
<path fill="none" stroke="black" d="M240.97,-41.47C249.19,-40.12 259.24,-38.47 270.16,-36.67"/>
<polygon fill="black" stroke="black" points="270.55,-40.16 279.85,-35.08 269.41,-33.25 270.55,-40.16"/>
</g>
<!-- 2592521676624 -->
<g id="node6" class="node">
<title>2592521676624</title>
<polygon fill="none" stroke="black" points="551,-63 524,-45 551,-27 578,-45 551,-63"/>
<text text-anchor="middle" x="551" y="-39.98" font-family="Times New Roman,serif" font-size="12.00">+</text>
</g>
<!-- 2592521680656&#45;&gt;2592521676624 -->
<g id="edge5" class="edge">
<title>2592521680656&#45;&gt;2592521676624</title>
<path fill="none" stroke="black" d="M427.62,-65.12C455.65,-60.51 491.98,-54.54 517.75,-50.3"/>
<polygon fill="black" stroke="black" points="517.99,-53.81 527.29,-48.73 516.86,-46.9 517.99,-53.81"/>
</g>
<!-- 2592521681568&#45;&gt;2592521676624 -->
<g id="edge6" class="edge">
<title>2592521681568&#45;&gt;2592521676624</title>
<path fill="none" stroke="black" d="M488.37,-34.87C498.8,-36.58 508.76,-38.22 517.52,-39.66"/>
<polygon fill="black" stroke="black" points="516.72,-43.08 527.15,-41.24 517.85,-36.17 516.72,-43.08"/>
</g>
<!-- 2592521674416 -->
<g id="node7" class="node">
<title>2592521674416</title>
<polygon fill="none" stroke="black" points="749.25,-63 614,-63 614,-27 749.25,-27 749.25,-63"/>
<text text-anchor="middle" x="681.62" y="-39.98" font-family="Times New Roman,serif" font-size="12.00">Review complaint details</text>
</g>
<!-- 2592521676624&#45;&gt;2592521674416 -->
<g id="edge7" class="edge">
<title>2592521676624&#45;&gt;2592521674416</title>
<path fill="none" stroke="black" d="M578.65,-45C585.81,-45 593.94,-45 602.4,-45"/>
<polygon fill="black" stroke="black" points="602.16,-48.5 612.16,-45 602.16,-41.5 602.16,-48.5"/>
</g>
<!-- 2592521680128 -->
<g id="node8" class="node">
<title>2592521680128</title>
<polygon fill="none" stroke="black" points="812.25,-63 785.25,-45 812.25,-27 839.25,-45 812.25,-63"/>
<text text-anchor="middle" x="812.25" y="-39.98" font-family="Times New Roman,serif" font-size="12.00">X</text>
</g>
<!-- 2592521674416&#45;&gt;2592521680128 -->
<g id="edge8" class="edge">
<title>2592521674416&#45;&gt;2592521680128</title>
<path fill="none" stroke="black" d="M749.57,-45C757.57,-45 765.51,-45 772.9,-45"/>
<polygon fill="black" stroke="black" points="772.85,-48.5 782.85,-45 772.85,-41.5 772.85,-48.5"/>
</g>
<!-- 2592521682720 -->
<g id="node9" class="node">
<title>2592521682720</title>
<polygon fill="none" stroke="black" points="1030,-88 875.25,-88 875.25,-52 1030,-52 1030,-88"/>
<text text-anchor="middle" x="952.62" y="-64.97" font-family="Times New Roman,serif" font-size="12.00">Approve and notify customer</text>
</g>
<!-- 2592521680128&#45;&gt;2592521682720 -->
<g id="edge9" class="edge">
<title>2592521680128&#45;&gt;2592521682720</title>
<path fill="none" stroke="black" d="M834.27,-48.8C842.66,-50.31 852.93,-52.17 863.87,-54.14"/>
<polygon fill="black" stroke="black" points="863.03,-57.55 873.49,-55.88 864.27,-50.66 863.03,-57.55"/>
</g>
<!-- 2592521563328 -->
<g id="node10" class="node">
<title>2592521563328</title>
<polygon fill="none" stroke="black" points="1208.75,-36 1066,-36 1066,0 1208.75,0 1208.75,-36"/>
<text text-anchor="middle" x="1137.38" y="-12.97" font-family="Times New Roman,serif" font-size="12.00">Reject and notify customer</text>
</g>
<!-- 2592521680128&#45;&gt;2592521563328 -->
<g id="edge10" class="edge">
<title>2592521680128&#45;&gt;2592521563328</title>
<path fill="none" stroke="black" d="M837.01,-43.01C882.18,-39.24 982.35,-30.87 1054.39,-24.85"/>
<polygon fill="black" stroke="black" points="1054.52,-28.35 1064.19,-24.03 1053.94,-21.38 1054.52,-28.35"/>
</g>
<!-- 2592521679552 -->
<g id="node11" class="node">
<title>2592521679552</title>
<polygon fill="none" stroke="black" points="1137.38,-90 1110.38,-72 1137.38,-54 1164.38,-72 1137.38,-90"/>
<text text-anchor="middle" x="1137.38" y="-66.97" font-family="Times New Roman,serif" font-size="12.00">X</text>
</g>
<!-- 2592521682720&#45;&gt;2592521679552 -->
<g id="edge11" class="edge">
<title>2592521682720&#45;&gt;2592521679552</title>
<path fill="none" stroke="black" d="M1030.33,-70.84C1054.06,-71.1 1079.15,-71.37 1098.96,-71.59"/>
<polygon fill="black" stroke="black" points="1098.71,-75.09 1108.75,-71.7 1098.79,-68.09 1098.71,-75.09"/>
</g>
<!-- 2592521680320 -->
<g id="node12" class="node">
<title>2592521680320</title>
<polygon fill="none" stroke="black" points="1522.5,-59 1495.5,-41 1522.5,-23 1549.5,-41 1522.5,-59"/>
<text text-anchor="middle" x="1522.5" y="-35.98" font-family="Times New Roman,serif" font-size="12.00">X</text>
</g>
<!-- 2592521563328&#45;&gt;2592521680320 -->
<g id="edge12" class="edge">
<title>2592521563328&#45;&gt;2592521680320</title>
<path fill="none" stroke="black" d="M1209.17,-22.08C1274.24,-25.86 1373.38,-31.67 1459.5,-37 1468.01,-37.53 1477.18,-38.11 1485.79,-38.66"/>
<polygon fill="black" stroke="black" points="1485.35,-42.14 1495.55,-39.3 1485.8,-35.16 1485.35,-42.14"/>
</g>
<!-- 2592521681376 -->
<g id="node13" class="node">
<title>2592521681376</title>
<polygon fill="none" stroke="black" points="1432.5,-82 1405.5,-64 1432.5,-46 1459.5,-64 1432.5,-82"/>
<text text-anchor="middle" x="1432.5" y="-58.98" font-family="Times New Roman,serif" font-size="12.00">X</text>
</g>
<!-- 2592521679552&#45;&gt;2592521681376 -->
<g id="edge14" class="edge">
<title>2592521679552&#45;&gt;2592521681376</title>
<path fill="none" stroke="black" d="M1157.17,-77.14C1196.84,-87.2 1291.85,-107.17 1369.5,-91 1382.43,-88.31 1395.97,-82.77 1407.09,-77.4"/>
<polygon fill="black" stroke="black" points="1408.61,-80.55 1415.93,-72.89 1405.43,-74.31 1408.61,-80.55"/>
</g>
<!-- 2592521563088 -->
<g id="node15" class="node">
<title>2592521563088</title>
<polygon fill="none" stroke="black" points="1369.5,-82 1244.75,-82 1244.75,-46 1369.5,-46 1369.5,-82"/>
<text text-anchor="middle" x="1307.12" y="-58.98" font-family="Times New Roman,serif" font-size="12.00">Process reimbursement</text>
</g>
<!-- 2592521679552&#45;&gt;2592521563088 -->
<g id="edge13" class="edge">
<title>2592521679552&#45;&gt;2592521563088</title>
<path fill="none" stroke="black" d="M1163.13,-70.82C1181.62,-69.94 1207.92,-68.68 1232.93,-67.49"/>
<polygon fill="black" stroke="black" points="1232.96,-70.99 1242.78,-67.02 1232.63,-64 1232.96,-70.99"/>
</g>
<!-- 2592521681712 -->
<g id="node14" class="node">
<title>2592521681712</title>
<polygon fill="none" stroke="black" points="1689.25,-59 1585.5,-59 1585.5,-23 1689.25,-23 1689.25,-59"/>
<text text-anchor="middle" x="1637.38" y="-35.98" font-family="Times New Roman,serif" font-size="12.00">Resolve complaint</text>
</g>
<!-- 2592521680320&#45;&gt;2592521681712 -->
<g id="edge15" class="edge">
<title>2592521680320&#45;&gt;2592521681712</title>
<path fill="none" stroke="black" d="M1550.25,-41C1557.42,-41 1565.49,-41 1573.73,-41"/>
<polygon fill="black" stroke="black" points="1573.5,-44.5 1583.5,-41 1573.5,-37.5 1573.5,-44.5"/>
</g>
<!-- 2592521681376&#45;&gt;2592521680320 -->
<g id="edge16" class="edge">
<title>2592521681376&#45;&gt;2592521680320</title>
<path fill="none" stroke="black" d="M1452.59,-59.01C1464.01,-56.03 1478.76,-52.17 1491.69,-48.79"/>
<polygon fill="black" stroke="black" points="1492.19,-52.28 1500.98,-46.36 1490.42,-45.51 1492.19,-52.28"/>
</g>
<!-- 2592521562944 -->
<g id="node16" class="node">
<title>2592521562944</title>
<polygon fill="none" stroke="black" points="1823.75,-59 1725.25,-59 1725.25,-23 1823.75,-23 1823.75,-59"/>
<text text-anchor="middle" x="1774.5" y="-35.98" font-family="Times New Roman,serif" font-size="12.00">Provide feedback</text>
</g>
<!-- 2592521681712&#45;&gt;2592521562944 -->
<g id="edge18" class="edge">
<title>2592521681712&#45;&gt;2592521562944</title>
<path fill="none" stroke="black" d="M1689.46,-41C1697.38,-41 1705.63,-41 1713.73,-41"/>
<polygon fill="black" stroke="black" points="1713.51,-44.5 1723.51,-41 1713.51,-37.5 1713.51,-44.5"/>
</g>
<!-- 2592521563088&#45;&gt;2592521681376 -->
<g id="edge17" class="edge">
<title>2592521563088&#45;&gt;2592521681376</title>
<path fill="none" stroke="black" d="M1369.81,-64C1377.88,-64 1385.94,-64 1393.46,-64"/>
<polygon fill="black" stroke="black" points="1393.22,-67.5 1403.22,-64 1393.22,-60.5 1393.22,-67.5"/>
</g>
<!-- 2592521559440 -->
<g id="node17" class="node">
<title>2592521559440</title>
<ellipse fill="orange" stroke="black" cx="1877.75" cy="-41" rx="18" ry="18"/>
</g>
<!-- 2592521562944&#45;&gt;2592521559440 -->
<g id="edge19" class="edge">
<title>2592521562944&#45;&gt;2592521559440</title>
<path fill="none" stroke="black" d="M1824.05,-41C1832.34,-41 1840.71,-41 1848.26,-41"/>
<polygon fill="black" stroke="black" points="1848.16,-44.5 1858.16,-41 1848.16,-37.5 1848.16,-44.5"/>
</g>
</g>
</svg>
