<?xml version="1.0" encoding="UTF-8" standalone="no"?>
<!DOCTYPE svg PUBLIC "-//W3C//DTD SVG 1.1//EN"
 "http://www.w3.org/Graphics/SVG/1.1/DTD/svg11.dtd">
<!-- Generated by graphviz version 11.0.0 (20240428.1522)
 -->
<!-- Pages: 1 -->
<svg width="1640pt" height="144pt"
 viewBox="0.00 0.00 1639.50 144.00" xmlns="http://www.w3.org/2000/svg" xmlns:xlink="http://www.w3.org/1999/xlink">
<g id="graph0" class="graph" transform="scale(1 1) rotate(0) translate(4 140)">
<polygon fill="white" stroke="none" points="-4,4 -4,-140 1635.5,-140 1635.5,4 -4,4"/>
<!-- 2592520750528 -->
<g id="node1" class="node">
<title>2592520750528</title>
<ellipse fill="green" stroke="black" cx="18" cy="-45" rx="18" ry="18"/>
</g>
<!-- 2592517958224 -->
<g id="node2" class="node">
<title>2592517958224</title>
<polygon fill="none" stroke="black" points="155.5,-63 72,-63 72,-27 155.5,-27 155.5,-63"/>
<text text-anchor="middle" x="113.75" y="-39.98" font-family="Times New Roman,serif" font-size="12.00">File complaint</text>
</g>
<!-- 2592520750528&#45;&gt;2592517958224 -->
<g id="edge1" class="edge">
<title>2592520750528&#45;&gt;2592517958224</title>
<path fill="none" stroke="black" d="M36.2,-45C43.11,-45 51.48,-45 60.11,-45"/>
<polygon fill="black" stroke="black" points="60.01,-48.5 70.01,-45 60.01,-41.5 60.01,-48.5"/>
</g>
<!-- 2592520899328 -->
<g id="node3" class="node">
<title>2592520899328</title>
<polygon fill="none" stroke="black" points="276.5,-63 191.5,-63 191.5,-27 276.5,-27 276.5,-63"/>
<text text-anchor="middle" x="234" y="-39.98" font-family="Times New Roman,serif" font-size="12.00">Log complaint</text>
</g>
<!-- 2592517958224&#45;&gt;2592520899328 -->
<g id="edge2" class="edge">
<title>2592517958224&#45;&gt;2592520899328</title>
<path fill="none" stroke="black" d="M155.78,-45C163.57,-45 171.84,-45 179.95,-45"/>
<polygon fill="black" stroke="black" points="179.73,-48.5 189.73,-45 179.73,-41.5 179.73,-48.5"/>
</g>
<!-- 2592520898560 -->
<g id="node4" class="node">
<title>2592520898560</title>
<polygon fill="none" stroke="black" points="339.5,-63 312.5,-45 339.5,-27 366.5,-45 339.5,-63"/>
<text text-anchor="middle" x="339.5" y="-39.98" font-family="Times New Roman,serif" font-size="12.00">X</text>
</g>
<!-- 2592520899328&#45;&gt;2592520898560 -->
<g id="edge3" class="edge">
<title>2592520899328&#45;&gt;2592520898560</title>
<path fill="none" stroke="black" d="M276.8,-45C284.62,-45 292.76,-45 300.46,-45"/>
<polygon fill="black" stroke="black" points="300.21,-48.5 310.21,-45 300.21,-41.5 300.21,-48.5"/>
</g>
<!-- 2592520908016 -->
<g id="node5" class="node">
<title>2592520908016</title>
<polygon fill="none" stroke="black" points="609,-88 402.5,-88 402.5,-52 609,-52 609,-88"/>
<text text-anchor="middle" x="505.75" y="-64.97" font-family="Times New Roman,serif" font-size="12.00">Assign complaint to relevant department</text>
</g>
<!-- 2592520898560&#45;&gt;2592520908016 -->
<g id="edge4" class="edge">
<title>2592520898560&#45;&gt;2592520908016</title>
<path fill="none" stroke="black" d="M362.31,-48.32C370.49,-49.57 380.45,-51.08 391.27,-52.73"/>
<polygon fill="black" stroke="black" points="390.42,-56.14 400.84,-54.18 391.48,-49.22 390.42,-56.14"/>
</g>
<!-- 2592520898512 -->
<g id="node6" class="node">
<title>2592520898512</title>
<polygon fill="none" stroke="black" points="761.88,-36 663.38,-36 663.38,0 761.88,0 761.88,-36"/>
<text text-anchor="middle" x="712.62" y="-12.97" font-family="Times New Roman,serif" font-size="12.00">Provide feedback</text>
</g>
<!-- 2592520898560&#45;&gt;2592520898512 -->
<g id="edge5" class="edge">
<title>2592520898560&#45;&gt;2592520898512</title>
<path fill="none" stroke="black" d="M364.56,-43.25C422.02,-39.07 568.57,-28.41 651.7,-22.36"/>
<polygon fill="black" stroke="black" points="651.76,-25.86 661.48,-21.65 651.26,-18.88 651.76,-25.86"/>
</g>
<!-- 2592519779680 -->
<g id="node8" class="node">
<title>2592519779680</title>
<polygon fill="none" stroke="black" points="780.25,-90 645,-90 645,-54 780.25,-54 780.25,-90"/>
<text text-anchor="middle" x="712.62" y="-66.97" font-family="Times New Roman,serif" font-size="12.00">Review complaint details</text>
</g>
<!-- 2592520908016&#45;&gt;2592519779680 -->
<g id="edge6" class="edge">
<title>2592520908016&#45;&gt;2592519779680</title>
<path fill="none" stroke="black" d="M609.49,-71C617.54,-71.08 625.58,-71.16 633.43,-71.24"/>
<polygon fill="black" stroke="black" points="633.21,-74.73 643.24,-71.33 633.28,-67.73 633.21,-74.73"/>
</g>
<!-- 2592520898080 -->
<g id="node7" class="node">
<title>2592520898080</title>
<polygon fill="none" stroke="black" points="1392.75,-59 1365.75,-41 1392.75,-23 1419.75,-41 1392.75,-59"/>
<text text-anchor="middle" x="1392.75" y="-35.98" font-family="Times New Roman,serif" font-size="12.00">X</text>
</g>
<!-- 2592520898512&#45;&gt;2592520898080 -->
<g id="edge7" class="edge">
<title>2592520898512&#45;&gt;2592520898080</title>
<path fill="none" stroke="black" d="M762.22,-18C816.09,-18 905.57,-18 982.62,-18 982.62,-18 982.62,-18 1169.38,-18 1237.31,-18 1316.31,-28.75 1359.48,-35.55"/>
<polygon fill="black" stroke="black" points="1358.75,-38.98 1369.17,-37.11 1359.86,-32.07 1358.75,-38.98"/>
</g>
<!-- 2592521667360 -->
<g id="node10" class="node">
<title>2592521667360</title>
<polygon fill="none" stroke="black" points="1559.5,-59 1455.75,-59 1455.75,-23 1559.5,-23 1559.5,-59"/>
<text text-anchor="middle" x="1507.62" y="-35.98" font-family="Times New Roman,serif" font-size="12.00">Resolve complaint</text>
</g>
<!-- 2592520898080&#45;&gt;2592521667360 -->
<g id="edge8" class="edge">
<title>2592520898080&#45;&gt;2592521667360</title>
<path fill="none" stroke="black" d="M1420.5,-41C1427.67,-41 1435.74,-41 1443.98,-41"/>
<polygon fill="black" stroke="black" points="1443.75,-44.5 1453.75,-41 1443.75,-37.5 1443.75,-44.5"/>
</g>
<!-- 2592520898752 -->
<g id="node9" class="node">
<title>2592520898752</title>
<polygon fill="none" stroke="black" points="843.25,-90 816.25,-72 843.25,-54 870.25,-72 843.25,-90"/>
<text text-anchor="middle" x="843.25" y="-66.97" font-family="Times New Roman,serif" font-size="12.00">X</text>
</g>
<!-- 2592519779680&#45;&gt;2592520898752 -->
<g id="edge9" class="edge">
<title>2592519779680&#45;&gt;2592520898752</title>
<path fill="none" stroke="black" d="M780.57,-72C788.57,-72 796.51,-72 803.9,-72"/>
<polygon fill="black" stroke="black" points="803.85,-75.5 813.85,-72 803.85,-68.5 803.85,-75.5"/>
</g>
<!-- 2592520908736 -->
<g id="node11" class="node">
<title>2592520908736</title>
<polygon fill="none" stroke="black" points="1061,-134 906.25,-134 906.25,-98 1061,-98 1061,-134"/>
<text text-anchor="middle" x="983.62" y="-110.97" font-family="Times New Roman,serif" font-size="12.00">Approve and notify customer</text>
</g>
<!-- 2592520898752&#45;&gt;2592520908736 -->
<g id="edge10" class="edge">
<title>2592520898752&#45;&gt;2592520908736</title>
<path fill="none" stroke="black" d="M862.34,-77.75C875.69,-82 894.78,-88.07 913.83,-94.12"/>
<polygon fill="black" stroke="black" points="912.64,-97.42 923.24,-97.12 914.77,-90.75 912.64,-97.42"/>
</g>
<!-- 2592521675472 -->
<g id="node12" class="node">
<title>2592521675472</title>
<polygon fill="none" stroke="black" points="1239.75,-82 1097,-82 1097,-46 1239.75,-46 1239.75,-82"/>
<text text-anchor="middle" x="1168.38" y="-58.98" font-family="Times New Roman,serif" font-size="12.00">Reject and notify customer</text>
</g>
<!-- 2592520898752&#45;&gt;2592521675472 -->
<g id="edge11" class="edge">
<title>2592520898752&#45;&gt;2592521675472</title>
<path fill="none" stroke="black" d="M870.15,-71.36C916.28,-70.22 1014.48,-67.79 1085.4,-66.03"/>
<polygon fill="black" stroke="black" points="1085.11,-69.54 1095.02,-65.79 1084.94,-62.54 1085.11,-69.54"/>
</g>
<!-- 2592520762768 -->
<g id="node15" class="node">
<title>2592520762768</title>
<ellipse fill="orange" stroke="black" cx="1613.5" cy="-41" rx="18" ry="18"/>
</g>
<!-- 2592521667360&#45;&gt;2592520762768 -->
<g id="edge12" class="edge">
<title>2592521667360&#45;&gt;2592520762768</title>
<path fill="none" stroke="black" d="M1559.95,-41C1568.17,-41 1576.41,-41 1583.85,-41"/>
<polygon fill="black" stroke="black" points="1583.59,-44.5 1593.59,-41 1583.59,-37.5 1583.59,-44.5"/>
</g>
<!-- 2592519782224 -->
<g id="node14" class="node">
<title>2592519782224</title>
<polygon fill="none" stroke="black" points="1230.75,-136 1106,-136 1106,-100 1230.75,-100 1230.75,-136"/>
<text text-anchor="middle" x="1168.38" y="-112.97" font-family="Times New Roman,serif" font-size="12.00">Process reimbursement</text>
</g>
<!-- 2592520908736&#45;&gt;2592519782224 -->
<g id="edge13" class="edge">
<title>2592520908736&#45;&gt;2592519782224</title>
<path fill="none" stroke="black" d="M1061.33,-116.84C1072.28,-116.96 1083.52,-117.08 1094.39,-117.2"/>
<polygon fill="black" stroke="black" points="1094.01,-120.7 1104.05,-117.31 1094.09,-113.7 1094.01,-120.7"/>
</g>
<!-- 2592520900096 -->
<g id="node13" class="node">
<title>2592520900096</title>
<polygon fill="none" stroke="black" points="1302.75,-82 1275.75,-64 1302.75,-46 1329.75,-64 1302.75,-82"/>
<text text-anchor="middle" x="1302.75" y="-58.98" font-family="Times New Roman,serif" font-size="12.00">X</text>
</g>
<!-- 2592521675472&#45;&gt;2592520900096 -->
<g id="edge14" class="edge">
<title>2592521675472&#45;&gt;2592520900096</title>
<path fill="none" stroke="black" d="M1240.21,-64C1248.26,-64 1256.22,-64 1263.61,-64"/>
<polygon fill="black" stroke="black" points="1263.53,-67.5 1273.53,-64 1263.53,-60.5 1263.53,-67.5"/>
</g>
<!-- 2592520900096&#45;&gt;2592520898080 -->
<g id="edge15" class="edge">
<title>2592520900096&#45;&gt;2592520898080</title>
<path fill="none" stroke="black" d="M1322.84,-59.01C1334.26,-56.03 1349.01,-52.17 1361.94,-48.79"/>
<polygon fill="black" stroke="black" points="1362.44,-52.28 1371.23,-46.36 1360.67,-45.51 1362.44,-52.28"/>
</g>
<!-- 2592519782224&#45;&gt;2592520900096 -->
<g id="edge16" class="edge">
<title>2592519782224&#45;&gt;2592520900096</title>
<path fill="none" stroke="black" d="M1218.32,-99.54C1225.53,-96.73 1232.85,-93.83 1239.75,-91 1251.57,-86.16 1264.53,-80.56 1275.54,-75.72"/>
<polygon fill="black" stroke="black" points="1276.66,-79.05 1284.39,-71.8 1273.83,-72.65 1276.66,-79.05"/>
</g>
</g>
</svg>
