<?xml version="1.0" encoding="UTF-8" standalone="no"?>
<!DOCTYPE svg PUBLIC "-//W3C//DTD SVG 1.1//EN"
 "http://www.w3.org/Graphics/SVG/1.1/DTD/svg11.dtd">
<!-- Generated by graphviz version 11.0.0 (20240428.1522)
 -->
<!-- Pages: 1 -->
<svg width="1581pt" height="206pt"
 viewBox="0.00 0.00 1581.25 206.00" xmlns="http://www.w3.org/2000/svg" xmlns:xlink="http://www.w3.org/1999/xlink">
<g id="graph0" class="graph" transform="scale(1 1) rotate(0) translate(4 202)">
<polygon fill="white" stroke="none" points="-4,4 -4,-202 1577.25,-202 1577.25,4 -4,4"/>
<!-- 2675057366832 -->
<g id="node1" class="node">
<title>2675057366832</title>
<ellipse fill="green" stroke="black" cx="18" cy="-99" rx="18" ry="18"/>
</g>
<!-- 2675057793536 -->
<g id="node2" class="node">
<title>2675057793536</title>
<polygon fill="none" stroke="black" points="155.5,-117 72,-117 72,-81 155.5,-81 155.5,-117"/>
<text text-anchor="middle" x="113.75" y="-93.97" font-family="Times New Roman,serif" font-size="12.00">File complaint</text>
</g>
<!-- 2675057366832&#45;&gt;2675057793536 -->
<g id="edge1" class="edge">
<title>2675057366832&#45;&gt;2675057793536</title>
<path fill="none" stroke="black" d="M36.2,-99C43.11,-99 51.48,-99 60.11,-99"/>
<polygon fill="black" stroke="black" points="60.01,-102.5 70.01,-99 60.01,-95.5 60.01,-102.5"/>
</g>
<!-- 2675057382016 -->
<g id="node3" class="node">
<title>2675057382016</title>
<polygon fill="none" stroke="black" points="276.5,-117 191.5,-117 191.5,-81 276.5,-81 276.5,-117"/>
<text text-anchor="middle" x="234" y="-93.97" font-family="Times New Roman,serif" font-size="12.00">Log complaint</text>
</g>
<!-- 2675057793536&#45;&gt;2675057382016 -->
<g id="edge2" class="edge">
<title>2675057793536&#45;&gt;2675057382016</title>
<path fill="none" stroke="black" d="M155.78,-99C163.57,-99 171.84,-99 179.95,-99"/>
<polygon fill="black" stroke="black" points="179.73,-102.5 189.73,-99 179.73,-95.5 179.73,-102.5"/>
</g>
<!-- 2675057796848 -->
<g id="node4" class="node">
<title>2675057796848</title>
<polygon fill="none" stroke="black" points="519,-117 312.5,-117 312.5,-81 519,-81 519,-117"/>
<text text-anchor="middle" x="415.75" y="-93.97" font-family="Times New Roman,serif" font-size="12.00">Assign complaint to relevant department</text>
</g>
<!-- 2675057382016&#45;&gt;2675057796848 -->
<g id="edge3" class="edge">
<title>2675057382016&#45;&gt;2675057796848</title>
<path fill="none" stroke="black" d="M276.69,-99C284.19,-99 292.32,-99 300.77,-99"/>
<polygon fill="black" stroke="black" points="300.5,-102.5 310.5,-99 300.5,-95.5 300.5,-102.5"/>
</g>
<!-- 2675059978800 -->
<g id="node5" class="node">
<title>2675059978800</title>
<polygon fill="none" stroke="black" points="690.25,-117 555,-117 555,-81 690.25,-81 690.25,-117"/>
<text text-anchor="middle" x="622.62" y="-93.97" font-family="Times New Roman,serif" font-size="12.00">Review complaint details</text>
</g>
<!-- 2675057796848&#45;&gt;2675059978800 -->
<g id="edge4" class="edge">
<title>2675057796848&#45;&gt;2675059978800</title>
<path fill="none" stroke="black" d="M519.49,-99C527.54,-99 535.58,-99 543.43,-99"/>
<polygon fill="black" stroke="black" points="543.24,-102.5 553.24,-99 543.24,-95.5 543.24,-102.5"/>
</g>
<!-- 2675059966128 -->
<g id="node6" class="node">
<title>2675059966128</title>
<polygon fill="none" stroke="black" points="753.25,-117 726.25,-99 753.25,-81 780.25,-99 753.25,-117"/>
<text text-anchor="middle" x="753.25" y="-93.97" font-family="Times New Roman,serif" font-size="12.00">X</text>
</g>
<!-- 2675059978800&#45;&gt;2675059966128 -->
<g id="edge5" class="edge">
<title>2675059978800&#45;&gt;2675059966128</title>
<path fill="none" stroke="black" d="M690.57,-99C698.57,-99 706.51,-99 713.9,-99"/>
<polygon fill="black" stroke="black" points="713.85,-102.5 723.85,-99 713.85,-95.5 713.85,-102.5"/>
</g>
<!-- 2675059979664 -->
<g id="node7" class="node">
<title>2675059979664</title>
<polygon fill="none" stroke="black" points="965,-198 822.25,-198 822.25,-162 965,-162 965,-198"/>
<text text-anchor="middle" x="893.62" y="-174.97" font-family="Times New Roman,serif" font-size="12.00">Reject and notify customer</text>
</g>
<!-- 2675059966128&#45;&gt;2675059979664 -->
<g id="edge8" class="edge">
<title>2675059966128&#45;&gt;2675059979664</title>
<path fill="none" stroke="black" d="M764.26,-109.9C775.79,-121.9 795.78,-141.06 816.25,-153 818.42,-154.27 820.66,-155.49 822.95,-156.66"/>
<polygon fill="black" stroke="black" points="821.34,-159.77 831.87,-160.89 824.33,-153.45 821.34,-159.77"/>
</g>
<!-- 2675059967568 -->
<g id="node8" class="node">
<title>2675059967568</title>
<polygon fill="none" stroke="black" points="971,-144 816.25,-144 816.25,-108 971,-108 971,-144"/>
<text text-anchor="middle" x="893.62" y="-120.97" font-family="Times New Roman,serif" font-size="12.00">Approve and notify customer</text>
</g>
<!-- 2675059966128&#45;&gt;2675059967568 -->
<g id="edge7" class="edge">
<title>2675059966128&#45;&gt;2675059967568</title>
<path fill="none" stroke="black" d="M774.97,-103.04C783.39,-104.69 793.74,-106.71 804.78,-108.86"/>
<polygon fill="black" stroke="black" points="804.03,-112.28 814.51,-110.76 805.37,-105.41 804.03,-112.28"/>
</g>
<!-- 2675057793008 -->
<g id="node9" class="node">
<title>2675057793008</title>
<polygon fill="none" stroke="black" points="971,-90 816.25,-90 816.25,-54 971,-54 971,-90"/>
<text text-anchor="middle" x="893.62" y="-66.97" font-family="Times New Roman,serif" font-size="12.00">Approve and notify customer</text>
</g>
<!-- 2675059966128&#45;&gt;2675057793008 -->
<g id="edge9" class="edge">
<title>2675059966128&#45;&gt;2675057793008</title>
<path fill="none" stroke="black" d="M774.97,-94.96C783.39,-93.31 793.74,-91.29 804.78,-89.14"/>
<polygon fill="black" stroke="black" points="805.37,-92.59 814.51,-87.24 804.03,-85.72 805.37,-92.59"/>
</g>
<!-- 2675057800352 -->
<g id="node10" class="node">
<title>2675057800352</title>
<polygon fill="none" stroke="black" points="965,-36 822.25,-36 822.25,0 965,0 965,-36"/>
<text text-anchor="middle" x="893.62" y="-12.97" font-family="Times New Roman,serif" font-size="12.00">Reject and notify customer</text>
</g>
<!-- 2675059966128&#45;&gt;2675057800352 -->
<g id="edge6" class="edge">
<title>2675059966128&#45;&gt;2675057800352</title>
<path fill="none" stroke="black" d="M764.26,-88.1C775.79,-76.1 795.78,-56.94 816.25,-45 818.42,-43.73 820.66,-42.51 822.95,-41.34"/>
<polygon fill="black" stroke="black" points="824.33,-44.55 831.87,-37.11 821.34,-38.23 824.33,-44.55"/>
</g>
<!-- 2675057798912 -->
<g id="node14" class="node">
<title>2675057798912</title>
<polygon fill="none" stroke="black" points="1411.25,-192 1307.5,-192 1307.5,-156 1411.25,-156 1411.25,-192"/>
<text text-anchor="middle" x="1359.38" y="-168.97" font-family="Times New Roman,serif" font-size="12.00">Resolve complaint</text>
</g>
<!-- 2675059979664&#45;&gt;2675057798912 -->
<g id="edge10" class="edge">
<title>2675059979664&#45;&gt;2675057798912</title>
<path fill="none" stroke="black" d="M965.31,-179.09C1055.37,-177.92 1209.63,-175.92 1295.68,-174.81"/>
<polygon fill="black" stroke="black" points="1295.64,-178.31 1305.59,-174.68 1295.54,-171.31 1295.64,-178.31"/>
</g>
<!-- 2675057379376 -->
<g id="node13" class="node">
<title>2675057379376</title>
<polygon fill="none" stroke="black" points="1131.75,-144 1007,-144 1007,-108 1131.75,-108 1131.75,-144"/>
<text text-anchor="middle" x="1069.38" y="-120.97" font-family="Times New Roman,serif" font-size="12.00">Process reimbursement</text>
</g>
<!-- 2675059967568&#45;&gt;2675057379376 -->
<g id="edge11" class="edge">
<title>2675059967568&#45;&gt;2675057379376</title>
<path fill="none" stroke="black" d="M971.34,-126C979.28,-126 987.34,-126 995.24,-126"/>
<polygon fill="black" stroke="black" points="995.15,-129.5 1005.15,-126 995.15,-122.5 995.15,-129.5"/>
</g>
<!-- 2675059974624 -->
<g id="node11" class="node">
<title>2675059974624</title>
<polygon fill="none" stroke="black" points="1131.75,-90 1007,-90 1007,-54 1131.75,-54 1131.75,-90"/>
<text text-anchor="middle" x="1069.38" y="-66.97" font-family="Times New Roman,serif" font-size="12.00">Process reimbursement</text>
</g>
<!-- 2675057793008&#45;&gt;2675059974624 -->
<g id="edge12" class="edge">
<title>2675057793008&#45;&gt;2675059974624</title>
<path fill="none" stroke="black" d="M971.34,-72C979.28,-72 987.34,-72 995.24,-72"/>
<polygon fill="black" stroke="black" points="995.15,-75.5 1005.15,-72 995.15,-68.5 995.15,-75.5"/>
</g>
<!-- 2675059972320 -->
<g id="node12" class="node">
<title>2675059972320</title>
<polygon fill="none" stroke="black" points="1121.25,-36 1017.5,-36 1017.5,0 1121.25,0 1121.25,-36"/>
<text text-anchor="middle" x="1069.38" y="-12.97" font-family="Times New Roman,serif" font-size="12.00">Resolve complaint</text>
</g>
<!-- 2675057800352&#45;&gt;2675059972320 -->
<g id="edge13" class="edge">
<title>2675057800352&#45;&gt;2675059972320</title>
<path fill="none" stroke="black" d="M965.3,-18C978.74,-18 992.72,-18 1005.89,-18"/>
<polygon fill="black" stroke="black" points="1005.7,-21.5 1015.7,-18 1005.7,-14.5 1005.7,-21.5"/>
</g>
<!-- 2675059974672 -->
<g id="node17" class="node">
<title>2675059974672</title>
<polygon fill="none" stroke="black" points="1271.5,-90 1167.75,-90 1167.75,-54 1271.5,-54 1271.5,-90"/>
<text text-anchor="middle" x="1219.62" y="-66.97" font-family="Times New Roman,serif" font-size="12.00">Resolve complaint</text>
</g>
<!-- 2675059974624&#45;&gt;2675059974672 -->
<g id="edge14" class="edge">
<title>2675059974624&#45;&gt;2675059974672</title>
<path fill="none" stroke="black" d="M1131.96,-72C1139.87,-72 1147.98,-72 1155.9,-72"/>
<polygon fill="black" stroke="black" points="1155.84,-75.5 1165.84,-72 1155.84,-68.5 1155.84,-75.5"/>
</g>
<!-- 2675057792816 -->
<g id="node18" class="node">
<title>2675057792816</title>
<polygon fill="none" stroke="black" points="1408.62,-42 1310.12,-42 1310.12,-6 1408.62,-6 1408.62,-42"/>
<text text-anchor="middle" x="1359.38" y="-18.98" font-family="Times New Roman,serif" font-size="12.00">Provide feedback</text>
</g>
<!-- 2675059972320&#45;&gt;2675057792816 -->
<g id="edge15" class="edge">
<title>2675059972320&#45;&gt;2675057792816</title>
<path fill="none" stroke="black" d="M1121.53,-19.07C1171.12,-20.1 1246.32,-21.67 1298.63,-22.76"/>
<polygon fill="black" stroke="black" points="1298.51,-26.25 1308.58,-22.96 1298.65,-19.25 1298.51,-26.25"/>
</g>
<!-- 2675059981488 -->
<g id="node16" class="node">
<title>2675059981488</title>
<polygon fill="none" stroke="black" points="1271.5,-144 1167.75,-144 1167.75,-108 1271.5,-108 1271.5,-144"/>
<text text-anchor="middle" x="1219.62" y="-120.97" font-family="Times New Roman,serif" font-size="12.00">Resolve complaint</text>
</g>
<!-- 2675057379376&#45;&gt;2675059981488 -->
<g id="edge16" class="edge">
<title>2675057379376&#45;&gt;2675059981488</title>
<path fill="none" stroke="black" d="M1131.96,-126C1139.87,-126 1147.98,-126 1155.9,-126"/>
<polygon fill="black" stroke="black" points="1155.84,-129.5 1165.84,-126 1155.84,-122.5 1155.84,-129.5"/>
</g>
<!-- 2675059967136 -->
<g id="node15" class="node">
<title>2675059967136</title>
<polygon fill="none" stroke="black" points="1474.25,-113 1447.25,-95 1474.25,-77 1501.25,-95 1474.25,-113"/>
<text text-anchor="middle" x="1474.25" y="-89.97" font-family="Times New Roman,serif" font-size="12.00">X</text>
</g>
<!-- 2675057798912&#45;&gt;2675059967136 -->
<g id="edge17" class="edge">
<title>2675057798912&#45;&gt;2675059967136</title>
<path fill="none" stroke="black" d="M1395.91,-155.55C1401.15,-152.51 1406.41,-149.28 1411.25,-146 1426.18,-135.88 1441.86,-122.96 1453.71,-112.66"/>
<polygon fill="black" stroke="black" points="1456,-115.3 1461.18,-106.06 1451.37,-110.06 1456,-115.3"/>
</g>
<!-- 2675057372352 -->
<g id="node20" class="node">
<title>2675057372352</title>
<ellipse fill="orange" stroke="black" cx="1555.25" cy="-95" rx="18" ry="18"/>
</g>
<!-- 2675059967136&#45;&gt;2675057372352 -->
<g id="edge21" class="edge">
<title>2675059967136&#45;&gt;2675057372352</title>
<path fill="none" stroke="black" d="M1502,-95C1509.63,-95 1517.98,-95 1525.72,-95"/>
<polygon fill="black" stroke="black" points="1525.68,-98.5 1535.68,-95 1525.68,-91.5 1525.68,-98.5"/>
</g>
<!-- 2675057380384 -->
<g id="node19" class="node">
<title>2675057380384</title>
<polygon fill="none" stroke="black" points="1408.62,-137 1310.12,-137 1310.12,-101 1408.62,-101 1408.62,-137"/>
<text text-anchor="middle" x="1359.38" y="-113.97" font-family="Times New Roman,serif" font-size="12.00">Provide feedback</text>
</g>
<!-- 2675059981488&#45;&gt;2675057380384 -->
<g id="edge20" class="edge">
<title>2675059981488&#45;&gt;2675057380384</title>
<path fill="none" stroke="black" d="M1271.92,-123.39C1280.53,-122.96 1289.54,-122.5 1298.36,-122.05"/>
<polygon fill="black" stroke="black" points="1298.46,-125.55 1308.27,-121.55 1298.1,-118.56 1298.46,-125.55"/>
</g>
<!-- 2675059974672&#45;&gt;2675059967136 -->
<g id="edge18" class="edge">
<title>2675059974672&#45;&gt;2675059967136</title>
<path fill="none" stroke="black" d="M1271.75,-76.65C1321.3,-81.17 1395.12,-87.89 1438.3,-91.82"/>
<polygon fill="black" stroke="black" points="1437.84,-95.29 1448.12,-92.71 1438.48,-88.32 1437.84,-95.29"/>
</g>
<!-- 2675057792816&#45;&gt;2675059967136 -->
<g id="edge19" class="edge">
<title>2675057792816&#45;&gt;2675059967136</title>
<path fill="none" stroke="black" d="M1389.74,-42.47C1408.52,-54.28 1432.55,-69.4 1450,-80.38"/>
<polygon fill="black" stroke="black" points="1447.82,-83.14 1458.15,-85.5 1451.55,-77.22 1447.82,-83.14"/>
</g>
<!-- 2675057380384&#45;&gt;2675059967136 -->
<g id="edge22" class="edge">
<title>2675057380384&#45;&gt;2675059967136</title>
<path fill="none" stroke="black" d="M1408.9,-108.68C1420.07,-106.31 1431.65,-103.84 1441.87,-101.67"/>
<polygon fill="black" stroke="black" points="1442.59,-105.1 1451.64,-99.6 1441.13,-98.25 1442.59,-105.1"/>
</g>
</g>
</svg>
