<?xml version="1.0" encoding="UTF-8" standalone="no"?>
<!DOCTYPE svg PUBLIC "-//W3C//DTD SVG 1.1//EN"
 "http://www.w3.org/Graphics/SVG/1.1/DTD/svg11.dtd">
<!-- Generated by graphviz version 11.0.0 (20240428.1522)
 -->
<!-- Pages: 1 -->
<svg width="1756pt" height="152pt"
 viewBox="0.00 0.00 1756.00 152.00" xmlns="http://www.w3.org/2000/svg" xmlns:xlink="http://www.w3.org/1999/xlink">
<g id="graph0" class="graph" transform="scale(1 1) rotate(0) translate(4 148)">
<polygon fill="white" stroke="none" points="-4,4 -4,-148 1752,-148 1752,4 -4,4"/>
<!-- 2675059980384 -->
<g id="node1" class="node">
<title>2675059980384</title>
<ellipse fill="green" stroke="black" cx="18" cy="-72" rx="18" ry="18"/>
</g>
<!-- 2675059969392 -->
<g id="node2" class="node">
<title>2675059969392</title>
<polygon fill="none" stroke="black" points="155.5,-90 72,-90 72,-54 155.5,-54 155.5,-90"/>
<text text-anchor="middle" x="113.75" y="-66.97" font-family="Times New Roman,serif" font-size="12.00">File complaint</text>
</g>
<!-- 2675059980384&#45;&gt;2675059969392 -->
<g id="edge1" class="edge">
<title>2675059980384&#45;&gt;2675059969392</title>
<path fill="none" stroke="black" d="M36.2,-72C43.11,-72 51.48,-72 60.11,-72"/>
<polygon fill="black" stroke="black" points="60.01,-75.5 70.01,-72 60.01,-68.5 60.01,-75.5"/>
</g>
<!-- 2675060286496 -->
<g id="node3" class="node">
<title>2675060286496</title>
<polygon fill="none" stroke="black" points="276.5,-90 191.5,-90 191.5,-54 276.5,-54 276.5,-90"/>
<text text-anchor="middle" x="234" y="-66.97" font-family="Times New Roman,serif" font-size="12.00">Log complaint</text>
</g>
<!-- 2675059969392&#45;&gt;2675060286496 -->
<g id="edge2" class="edge">
<title>2675059969392&#45;&gt;2675060286496</title>
<path fill="none" stroke="black" d="M155.78,-72C163.57,-72 171.84,-72 179.95,-72"/>
<polygon fill="black" stroke="black" points="179.73,-75.5 189.73,-72 179.73,-68.5 179.73,-75.5"/>
</g>
<!-- 2675060292064 -->
<g id="node4" class="node">
<title>2675060292064</title>
<polygon fill="none" stroke="black" points="519,-90 312.5,-90 312.5,-54 519,-54 519,-90"/>
<text text-anchor="middle" x="415.75" y="-66.97" font-family="Times New Roman,serif" font-size="12.00">Assign complaint to relevant department</text>
</g>
<!-- 2675060286496&#45;&gt;2675060292064 -->
<g id="edge3" class="edge">
<title>2675060286496&#45;&gt;2675060292064</title>
<path fill="none" stroke="black" d="M276.69,-72C284.19,-72 292.32,-72 300.77,-72"/>
<polygon fill="black" stroke="black" points="300.5,-75.5 310.5,-72 300.5,-68.5 300.5,-75.5"/>
</g>
<!-- 2675059980528 -->
<g id="node5" class="node">
<title>2675059980528</title>
<polygon fill="none" stroke="black" points="690.25,-90 555,-90 555,-54 690.25,-54 690.25,-90"/>
<text text-anchor="middle" x="622.62" y="-66.97" font-family="Times New Roman,serif" font-size="12.00">Review complaint details</text>
</g>
<!-- 2675060292064&#45;&gt;2675059980528 -->
<g id="edge4" class="edge">
<title>2675060292064&#45;&gt;2675059980528</title>
<path fill="none" stroke="black" d="M519.49,-72C527.54,-72 535.58,-72 543.43,-72"/>
<polygon fill="black" stroke="black" points="543.24,-75.5 553.24,-72 543.24,-68.5 543.24,-75.5"/>
</g>
<!-- 2675060285632 -->
<g id="node6" class="node">
<title>2675060285632</title>
<polygon fill="none" stroke="black" points="753.25,-90 726.25,-72 753.25,-54 780.25,-72 753.25,-90"/>
<text text-anchor="middle" x="753.25" y="-66.97" font-family="Times New Roman,serif" font-size="12.00">X</text>
</g>
<!-- 2675059980528&#45;&gt;2675060285632 -->
<g id="edge5" class="edge">
<title>2675059980528&#45;&gt;2675060285632</title>
<path fill="none" stroke="black" d="M690.57,-72C698.57,-72 706.51,-72 713.9,-72"/>
<polygon fill="black" stroke="black" points="713.85,-75.5 723.85,-72 713.85,-68.5 713.85,-75.5"/>
</g>
<!-- 2675060287072 -->
<g id="node7" class="node">
<title>2675060287072</title>
<polygon fill="none" stroke="black" points="971,-144 816.25,-144 816.25,-108 971,-108 971,-144"/>
<text text-anchor="middle" x="893.62" y="-120.97" font-family="Times New Roman,serif" font-size="12.00">Approve and notify customer</text>
</g>
<!-- 2675060285632&#45;&gt;2675060287072 -->
<g id="edge6" class="edge">
<title>2675060285632&#45;&gt;2675060287072</title>
<path fill="none" stroke="black" d="M770.18,-79.31C782.62,-84.93 800.41,-92.76 816.25,-99 820.26,-100.58 824.4,-102.17 828.59,-103.74"/>
<polygon fill="black" stroke="black" points="827.02,-106.89 837.61,-107.07 829.44,-100.32 827.02,-106.89"/>
</g>
<!-- 2675059968288 -->
<g id="node8" class="node">
<title>2675059968288</title>
<polygon fill="none" stroke="black" points="971,-90 816.25,-90 816.25,-54 971,-54 971,-90"/>
<text text-anchor="middle" x="893.62" y="-66.97" font-family="Times New Roman,serif" font-size="12.00">Approve and notify customer</text>
</g>
<!-- 2675060285632&#45;&gt;2675059968288 -->
<g id="edge8" class="edge">
<title>2675060285632&#45;&gt;2675059968288</title>
<path fill="none" stroke="black" d="M780.93,-72C788.03,-72 796.1,-72 804.59,-72"/>
<polygon fill="black" stroke="black" points="804.41,-75.5 814.41,-72 804.41,-68.5 804.41,-75.5"/>
</g>
<!-- 2675059979328 -->
<g id="node9" class="node">
<title>2675059979328</title>
<polygon fill="none" stroke="black" points="965,-36 822.25,-36 822.25,0 965,0 965,-36"/>
<text text-anchor="middle" x="893.62" y="-12.97" font-family="Times New Roman,serif" font-size="12.00">Reject and notify customer</text>
</g>
<!-- 2675060285632&#45;&gt;2675059979328 -->
<g id="edge7" class="edge">
<title>2675060285632&#45;&gt;2675059979328</title>
<path fill="none" stroke="black" d="M770.18,-64.69C782.62,-59.07 800.41,-51.24 816.25,-45 820.26,-43.42 824.4,-41.83 828.59,-40.26"/>
<polygon fill="black" stroke="black" points="829.44,-43.68 837.61,-36.93 827.02,-37.11 829.44,-43.68"/>
</g>
<!-- 2675060290144 -->
<g id="node10" class="node">
<title>2675060290144</title>
<polygon fill="none" stroke="black" points="1271.5,-144 1167.75,-144 1167.75,-108 1271.5,-108 1271.5,-144"/>
<text text-anchor="middle" x="1219.62" y="-120.97" font-family="Times New Roman,serif" font-size="12.00">Resolve complaint</text>
</g>
<!-- 2675060287072&#45;&gt;2675060290144 -->
<g id="edge9" class="edge">
<title>2675060287072&#45;&gt;2675060290144</title>
<path fill="none" stroke="black" d="M971.41,-126C1027.89,-126 1103.7,-126 1156.42,-126"/>
<polygon fill="black" stroke="black" points="1156.12,-129.5 1166.12,-126 1156.12,-122.5 1156.12,-129.5"/>
</g>
<!-- 2675059971744 -->
<g id="node12" class="node">
<title>2675059971744</title>
<polygon fill="none" stroke="black" points="1131.75,-90 1007,-90 1007,-54 1131.75,-54 1131.75,-90"/>
<text text-anchor="middle" x="1069.38" y="-66.97" font-family="Times New Roman,serif" font-size="12.00">Process reimbursement</text>
</g>
<!-- 2675059968288&#45;&gt;2675059971744 -->
<g id="edge10" class="edge">
<title>2675059968288&#45;&gt;2675059971744</title>
<path fill="none" stroke="black" d="M971.34,-72C979.28,-72 987.34,-72 995.24,-72"/>
<polygon fill="black" stroke="black" points="995.15,-75.5 1005.15,-72 995.15,-68.5 995.15,-75.5"/>
</g>
<!-- 2675059980240 -->
<g id="node11" class="node">
<title>2675059980240</title>
<polygon fill="none" stroke="black" points="1121.25,-36 1017.5,-36 1017.5,0 1121.25,0 1121.25,-36"/>
<text text-anchor="middle" x="1069.38" y="-12.97" font-family="Times New Roman,serif" font-size="12.00">Resolve complaint</text>
</g>
<!-- 2675059979328&#45;&gt;2675059980240 -->
<g id="edge11" class="edge">
<title>2675059979328&#45;&gt;2675059980240</title>
<path fill="none" stroke="black" d="M965.3,-18C978.74,-18 992.72,-18 1005.89,-18"/>
<polygon fill="black" stroke="black" points="1005.7,-21.5 1015.7,-18 1005.7,-14.5 1005.7,-21.5"/>
</g>
<!-- 2675060282224 -->
<g id="node13" class="node">
<title>2675060282224</title>
<polygon fill="none" stroke="black" points="1334.5,-90 1307.5,-72 1334.5,-54 1361.5,-72 1334.5,-90"/>
<text text-anchor="middle" x="1334.5" y="-66.97" font-family="Times New Roman,serif" font-size="12.00">X</text>
</g>
<!-- 2675060290144&#45;&gt;2675060282224 -->
<g id="edge12" class="edge">
<title>2675060290144&#45;&gt;2675060282224</title>
<path fill="none" stroke="black" d="M1259.15,-107.57C1275.24,-99.87 1293.48,-91.14 1307.87,-84.26"/>
<polygon fill="black" stroke="black" points="1309.15,-87.53 1316.66,-80.05 1306.13,-81.21 1309.15,-87.53"/>
</g>
<!-- 2675059980240&#45;&gt;2675060282224 -->
<g id="edge13" class="edge">
<title>2675059980240&#45;&gt;2675060282224</title>
<path fill="none" stroke="black" d="M1121.58,-20.95C1162.7,-24.25 1221.62,-31.08 1271.5,-45 1284.05,-48.5 1297.38,-54.04 1308.44,-59.2"/>
<polygon fill="black" stroke="black" points="1306.75,-62.27 1317.28,-63.47 1309.8,-55.97 1306.75,-62.27"/>
</g>
<!-- 2675060283568 -->
<g id="node14" class="node">
<title>2675060283568</title>
<polygon fill="none" stroke="black" points="1271.5,-90 1167.75,-90 1167.75,-54 1271.5,-54 1271.5,-90"/>
<text text-anchor="middle" x="1219.62" y="-66.97" font-family="Times New Roman,serif" font-size="12.00">Resolve complaint</text>
</g>
<!-- 2675059971744&#45;&gt;2675060283568 -->
<g id="edge14" class="edge">
<title>2675059971744&#45;&gt;2675060283568</title>
<path fill="none" stroke="black" d="M1131.96,-72C1139.87,-72 1147.98,-72 1155.9,-72"/>
<polygon fill="black" stroke="black" points="1155.84,-75.5 1165.84,-72 1155.84,-68.5 1155.84,-75.5"/>
</g>
<!-- 2675060278864 -->
<g id="node15" class="node">
<title>2675060278864</title>
<polygon fill="none" stroke="black" points="1424.5,-90 1397.5,-72 1424.5,-54 1451.5,-72 1424.5,-90"/>
<text text-anchor="middle" x="1424.5" y="-66.97" font-family="Times New Roman,serif" font-size="12.00">X</text>
</g>
<!-- 2675060282224&#45;&gt;2675060278864 -->
<g id="edge16" class="edge">
<title>2675060282224&#45;&gt;2675060278864</title>
<path fill="none" stroke="black" d="M1362.38,-72C1369.63,-72 1377.62,-72 1385.35,-72"/>
<polygon fill="black" stroke="black" points="1385.27,-75.5 1395.27,-72 1385.27,-68.5 1385.27,-75.5"/>
</g>
<!-- 2675060283568&#45;&gt;2675060282224 -->
<g id="edge15" class="edge">
<title>2675060283568&#45;&gt;2675060282224</title>
<path fill="none" stroke="black" d="M1271.78,-72C1279.74,-72 1287.84,-72 1295.45,-72"/>
<polygon fill="black" stroke="black" points="1295.38,-75.5 1305.38,-72 1295.38,-68.5 1295.38,-75.5"/>
</g>
<!-- 2675060285152 -->
<g id="node16" class="node">
<title>2675060285152</title>
<polygon fill="none" stroke="black" points="1649,-90 1622,-72 1649,-54 1676,-72 1649,-90"/>
<text text-anchor="middle" x="1649" y="-66.97" font-family="Times New Roman,serif" font-size="12.00">X</text>
</g>
<!-- 2675060278864&#45;&gt;2675060285152 -->
<g id="edge17" class="edge">
<title>2675060278864&#45;&gt;2675060285152</title>
<path fill="none" stroke="black" d="M1449.33,-73.9C1460.85,-74.72 1474.89,-75.59 1487.5,-76 1531.26,-77.41 1542.24,-77.41 1586,-76 1594.67,-75.72 1604.02,-75.22 1612.75,-74.67"/>
<polygon fill="black" stroke="black" points="1612.92,-78.17 1622.66,-74 1612.45,-71.18 1612.92,-78.17"/>
</g>
<!-- 2675059973904 -->
<g id="node17" class="node">
<title>2675059973904</title>
<polygon fill="none" stroke="black" points="1586,-67 1487.5,-67 1487.5,-31 1586,-31 1586,-67"/>
<text text-anchor="middle" x="1536.75" y="-43.98" font-family="Times New Roman,serif" font-size="12.00">Provide feedback</text>
</g>
<!-- 2675060278864&#45;&gt;2675059973904 -->
<g id="edge18" class="edge">
<title>2675060278864&#45;&gt;2675059973904</title>
<path fill="none" stroke="black" d="M1445.98,-67.73C1454.58,-65.93 1465.06,-63.75 1475.8,-61.51"/>
<polygon fill="black" stroke="black" points="1476.44,-64.95 1485.52,-59.48 1475.01,-58.1 1476.44,-64.95"/>
</g>
<!-- 2675059973616 -->
<g id="node18" class="node">
<title>2675059973616</title>
<ellipse fill="orange" stroke="black" cx="1730" cy="-72" rx="18" ry="18"/>
</g>
<!-- 2675060285152&#45;&gt;2675059973616 -->
<g id="edge20" class="edge">
<title>2675060285152&#45;&gt;2675059973616</title>
<path fill="none" stroke="black" d="M1676.75,-72C1684.38,-72 1692.73,-72 1700.47,-72"/>
<polygon fill="black" stroke="black" points="1700.43,-75.5 1710.43,-72 1700.43,-68.5 1700.43,-75.5"/>
</g>
<!-- 2675059973904&#45;&gt;2675060285152 -->
<g id="edge19" class="edge">
<title>2675059973904&#45;&gt;2675060285152</title>
<path fill="none" stroke="black" d="M1586.43,-59.16C1596.65,-61.29 1607.17,-63.48 1616.56,-65.44"/>
<polygon fill="black" stroke="black" points="1615.75,-68.85 1626.26,-67.46 1617.18,-62 1615.75,-68.85"/>
</g>
</g>
</svg>
