<?xml version="1.0" encoding="UTF-8" standalone="no"?>
<!DOCTYPE svg PUBLIC "-//W3C//DTD SVG 1.1//EN"
 "http://www.w3.org/Graphics/SVG/1.1/DTD/svg11.dtd">
<!-- Generated by graphviz version 11.0.0 (20240428.1522)
 -->
<!-- Pages: 1 -->
<svg width="1653pt" height="98pt"
 viewBox="0.00 0.00 1653.00 98.00" xmlns="http://www.w3.org/2000/svg" xmlns:xlink="http://www.w3.org/1999/xlink">
<g id="graph0" class="graph" transform="scale(1 1) rotate(0) translate(4 94)">
<polygon fill="white" stroke="none" points="-4,4 -4,-94 1649,-94 1649,4 -4,4"/>
<!-- 2675057371728 -->
<g id="node1" class="node">
<title>2675057371728</title>
<ellipse fill="green" stroke="black" cx="18" cy="-45" rx="18" ry="18"/>
</g>
<!-- 2675057466960 -->
<g id="node2" class="node">
<title>2675057466960</title>
<polygon fill="none" stroke="black" points="155.5,-63 72,-63 72,-27 155.5,-27 155.5,-63"/>
<text text-anchor="middle" x="113.75" y="-39.98" font-family="Times New Roman,serif" font-size="12.00">File complaint</text>
</g>
<!-- 2675057371728&#45;&gt;2675057466960 -->
<g id="edge1" class="edge">
<title>2675057371728&#45;&gt;2675057466960</title>
<path fill="none" stroke="black" d="M36.2,-45C43.11,-45 51.48,-45 60.11,-45"/>
<polygon fill="black" stroke="black" points="60.01,-48.5 70.01,-45 60.01,-41.5 60.01,-48.5"/>
</g>
<!-- 2675057470128 -->
<g id="node3" class="node">
<title>2675057470128</title>
<polygon fill="none" stroke="black" points="218.5,-63 191.5,-45 218.5,-27 245.5,-45 218.5,-63"/>
<text text-anchor="middle" x="218.5" y="-39.98" font-family="Times New Roman,serif" font-size="12.00">+</text>
</g>
<!-- 2675057466960&#45;&gt;2675057470128 -->
<g id="edge2" class="edge">
<title>2675057466960&#45;&gt;2675057470128</title>
<path fill="none" stroke="black" d="M155.95,-45C163.64,-45 171.66,-45 179.26,-45"/>
<polygon fill="black" stroke="black" points="179.24,-48.5 189.24,-45 179.24,-41.5 179.24,-48.5"/>
</g>
<!-- 2675057556896 -->
<g id="node4" class="node">
<title>2675057556896</title>
<polygon fill="none" stroke="black" points="427.25,-90 342.25,-90 342.25,-54 427.25,-54 427.25,-90"/>
<text text-anchor="middle" x="384.75" y="-66.97" font-family="Times New Roman,serif" font-size="12.00">Log complaint</text>
</g>
<!-- 2675057470128&#45;&gt;2675057556896 -->
<g id="edge4" class="edge">
<title>2675057470128&#45;&gt;2675057556896</title>
<path fill="none" stroke="black" d="M240.97,-48.53C263.64,-52.26 300.24,-58.27 330.71,-63.28"/>
<polygon fill="black" stroke="black" points="330.12,-66.73 340.55,-64.9 331.25,-59.82 330.12,-66.73"/>
</g>
<!-- 2675057467056 -->
<g id="node5" class="node">
<title>2675057467056</title>
<polygon fill="none" stroke="black" points="488,-36 281.5,-36 281.5,0 488,0 488,-36"/>
<text text-anchor="middle" x="384.75" y="-12.97" font-family="Times New Roman,serif" font-size="12.00">Assign complaint to relevant department</text>
</g>
<!-- 2675057470128&#45;&gt;2675057467056 -->
<g id="edge3" class="edge">
<title>2675057470128&#45;&gt;2675057467056</title>
<path fill="none" stroke="black" d="M240.97,-41.47C249.19,-40.12 259.24,-38.47 270.16,-36.67"/>
<polygon fill="black" stroke="black" points="270.55,-40.16 279.85,-35.08 269.41,-33.25 270.55,-40.16"/>
</g>
<!-- 2675057546720 -->
<g id="node6" class="node">
<title>2675057546720</title>
<polygon fill="none" stroke="black" points="551,-63 524,-45 551,-27 578,-45 551,-63"/>
<text text-anchor="middle" x="551" y="-39.98" font-family="Times New Roman,serif" font-size="12.00">+</text>
</g>
<!-- 2675057556896&#45;&gt;2675057546720 -->
<g id="edge5" class="edge">
<title>2675057556896&#45;&gt;2675057546720</title>
<path fill="none" stroke="black" d="M427.62,-65.12C455.65,-60.51 491.98,-54.54 517.75,-50.3"/>
<polygon fill="black" stroke="black" points="517.99,-53.81 527.29,-48.73 516.86,-46.9 517.99,-53.81"/>
</g>
<!-- 2675057467056&#45;&gt;2675057546720 -->
<g id="edge6" class="edge">
<title>2675057467056&#45;&gt;2675057546720</title>
<path fill="none" stroke="black" d="M488.37,-34.87C498.8,-36.58 508.76,-38.22 517.52,-39.66"/>
<polygon fill="black" stroke="black" points="516.72,-43.08 527.15,-41.24 517.85,-36.17 516.72,-43.08"/>
</g>
<!-- 2675056222976 -->
<g id="node7" class="node">
<title>2675056222976</title>
<polygon fill="none" stroke="black" points="749.25,-63 614,-63 614,-27 749.25,-27 749.25,-63"/>
<text text-anchor="middle" x="681.62" y="-39.98" font-family="Times New Roman,serif" font-size="12.00">Review complaint details</text>
</g>
<!-- 2675057546720&#45;&gt;2675056222976 -->
<g id="edge7" class="edge">
<title>2675057546720&#45;&gt;2675056222976</title>
<path fill="none" stroke="black" d="M578.65,-45C585.81,-45 593.94,-45 602.4,-45"/>
<polygon fill="black" stroke="black" points="602.16,-48.5 612.16,-45 602.16,-41.5 602.16,-48.5"/>
</g>
<!-- 2675056225472 -->
<g id="node8" class="node">
<title>2675056225472</title>
<polygon fill="none" stroke="black" points="812.25,-63 785.25,-45 812.25,-27 839.25,-45 812.25,-63"/>
<text text-anchor="middle" x="812.25" y="-39.98" font-family="Times New Roman,serif" font-size="12.00">+</text>
</g>
<!-- 2675056222976&#45;&gt;2675056225472 -->
<g id="edge8" class="edge">
<title>2675056222976&#45;&gt;2675056225472</title>
<path fill="none" stroke="black" d="M749.57,-45C757.57,-45 765.51,-45 772.9,-45"/>
<polygon fill="black" stroke="black" points="772.85,-48.5 782.85,-45 772.85,-41.5 772.85,-48.5"/>
</g>
<!-- 2675057469120 -->
<g id="node9" class="node">
<title>2675057469120</title>
<polygon fill="none" stroke="black" points="1030,-88 875.25,-88 875.25,-52 1030,-52 1030,-88"/>
<text text-anchor="middle" x="952.62" y="-64.97" font-family="Times New Roman,serif" font-size="12.00">Approve and notify customer</text>
</g>
<!-- 2675056225472&#45;&gt;2675057469120 -->
<g id="edge9" class="edge">
<title>2675056225472&#45;&gt;2675057469120</title>
<path fill="none" stroke="black" d="M834.27,-48.8C842.66,-50.31 852.93,-52.17 863.87,-54.14"/>
<polygon fill="black" stroke="black" points="863.03,-57.55 873.49,-55.88 864.27,-50.66 863.03,-57.55"/>
</g>
<!-- 2675057471472 -->
<g id="node10" class="node">
<title>2675057471472</title>
<polygon fill="none" stroke="black" points="1208.75,-36 1066,-36 1066,0 1208.75,0 1208.75,-36"/>
<text text-anchor="middle" x="1137.38" y="-12.97" font-family="Times New Roman,serif" font-size="12.00">Reject and notify customer</text>
</g>
<!-- 2675056225472&#45;&gt;2675057471472 -->
<g id="edge10" class="edge">
<title>2675056225472&#45;&gt;2675057471472</title>
<path fill="none" stroke="black" d="M837.01,-43.01C882.18,-39.24 982.35,-30.87 1054.39,-24.85"/>
<polygon fill="black" stroke="black" points="1054.52,-28.35 1064.19,-24.03 1053.94,-21.38 1054.52,-28.35"/>
</g>
<!-- 2675057463648 -->
<g id="node11" class="node">
<title>2675057463648</title>
<polygon fill="none" stroke="black" points="1199.75,-90 1075,-90 1075,-54 1199.75,-54 1199.75,-90"/>
<text text-anchor="middle" x="1137.38" y="-66.97" font-family="Times New Roman,serif" font-size="12.00">Process reimbursement</text>
</g>
<!-- 2675057469120&#45;&gt;2675057463648 -->
<g id="edge11" class="edge">
<title>2675057469120&#45;&gt;2675057463648</title>
<path fill="none" stroke="black" d="M1030.33,-70.84C1041.28,-70.96 1052.52,-71.08 1063.39,-71.2"/>
<polygon fill="black" stroke="black" points="1063.01,-74.7 1073.05,-71.31 1063.09,-67.7 1063.01,-74.7"/>
</g>
<!-- 2675057468400 -->
<g id="node12" class="node">
<title>2675057468400</title>
<polygon fill="none" stroke="black" points="1271.75,-63 1244.75,-45 1271.75,-27 1298.75,-45 1271.75,-63"/>
<text text-anchor="middle" x="1271.75" y="-39.98" font-family="Times New Roman,serif" font-size="12.00">+</text>
</g>
<!-- 2675057471472&#45;&gt;2675057468400 -->
<g id="edge12" class="edge">
<title>2675057471472&#45;&gt;2675057468400</title>
<path fill="none" stroke="black" d="M1209.21,-32.45C1219.73,-34.59 1230.08,-36.71 1239.22,-38.57"/>
<polygon fill="black" stroke="black" points="1238.44,-41.98 1248.94,-40.55 1239.84,-35.12 1238.44,-41.98"/>
</g>
<!-- 2675057463648&#45;&gt;2675057468400 -->
<g id="edge13" class="edge">
<title>2675057463648&#45;&gt;2675057468400</title>
<path fill="none" stroke="black" d="M1199.91,-59.45C1213.58,-56.66 1227.52,-53.82 1239.38,-51.4"/>
<polygon fill="black" stroke="black" points="1239.87,-54.87 1248.97,-49.44 1238.47,-48.01 1239.87,-54.87"/>
</g>
<!-- 2675057463744 -->
<g id="node13" class="node">
<title>2675057463744</title>
<polygon fill="none" stroke="black" points="1438.5,-63 1334.75,-63 1334.75,-27 1438.5,-27 1438.5,-63"/>
<text text-anchor="middle" x="1386.62" y="-39.98" font-family="Times New Roman,serif" font-size="12.00">Resolve complaint</text>
</g>
<!-- 2675057468400&#45;&gt;2675057463744 -->
<g id="edge14" class="edge">
<title>2675057468400&#45;&gt;2675057463744</title>
<path fill="none" stroke="black" d="M1299.5,-45C1306.67,-45 1314.74,-45 1322.98,-45"/>
<polygon fill="black" stroke="black" points="1322.75,-48.5 1332.75,-45 1322.75,-41.5 1322.75,-48.5"/>
</g>
<!-- 2675057471520 -->
<g id="node14" class="node">
<title>2675057471520</title>
<polygon fill="none" stroke="black" points="1573,-63 1474.5,-63 1474.5,-27 1573,-27 1573,-63"/>
<text text-anchor="middle" x="1523.75" y="-39.98" font-family="Times New Roman,serif" font-size="12.00">Provide feedback</text>
</g>
<!-- 2675057463744&#45;&gt;2675057471520 -->
<g id="edge15" class="edge">
<title>2675057463744&#45;&gt;2675057471520</title>
<path fill="none" stroke="black" d="M1438.71,-45C1446.63,-45 1454.88,-45 1462.98,-45"/>
<polygon fill="black" stroke="black" points="1462.76,-48.5 1472.76,-45 1462.76,-41.5 1462.76,-48.5"/>
</g>
<!-- 2675057366496 -->
<g id="node15" class="node">
<title>2675057366496</title>
<ellipse fill="orange" stroke="black" cx="1627" cy="-45" rx="18" ry="18"/>
</g>
<!-- 2675057471520&#45;&gt;2675057366496 -->
<g id="edge16" class="edge">
<title>2675057471520&#45;&gt;2675057366496</title>
<path fill="none" stroke="black" d="M1573.3,-45C1581.59,-45 1589.96,-45 1597.51,-45"/>
<polygon fill="black" stroke="black" points="1597.41,-48.5 1607.41,-45 1597.41,-41.5 1597.41,-48.5"/>
</g>
</g>
</svg>
