<?xml version="1.0" encoding="UTF-8" standalone="no"?>
<!DOCTYPE svg PUBLIC "-//W3C//DTD SVG 1.1//EN"
 "http://www.w3.org/Graphics/SVG/1.1/DTD/svg11.dtd">
<!-- Generated by graphviz version 11.0.0 (20240428.1522)
 -->
<!-- Pages: 1 -->
<svg width="961pt" height="584pt"
 viewBox="0.00 0.00 961.00 584.00" xmlns="http://www.w3.org/2000/svg" xmlns:xlink="http://www.w3.org/1999/xlink">
<g id="graph0" class="graph" transform="scale(1 1) rotate(0) translate(4 580)">
<polygon fill="white" stroke="none" points="-4,4 -4,-580 957,-580 957,4 -4,4"/>
<!-- 2675057166720 -->
<g id="node1" class="node">
<title>2675057166720</title>
<ellipse fill="green" stroke="black" cx="18" cy="-261" rx="18" ry="18"/>
</g>
<!-- 2675059375712 -->
<g id="node2" class="node">
<title>2675059375712</title>
<polygon fill="none" stroke="black" points="99,-279 72,-261 99,-243 126,-261 99,-279"/>
<text text-anchor="middle" x="99" y="-255.97" font-family="Times New Roman,serif" font-size="12.00">X</text>
</g>
<!-- 2675057166720&#45;&gt;2675059375712 -->
<g id="edge1" class="edge">
<title>2675057166720&#45;&gt;2675059375712</title>
<path fill="none" stroke="black" d="M36.14,-261C43.11,-261 51.47,-261 59.75,-261"/>
<polygon fill="black" stroke="black" points="59.75,-264.5 69.75,-261 59.75,-257.5 59.75,-264.5"/>
</g>
<!-- 2675059370768 -->
<g id="node3" class="node">
<title>2675059370768</title>
<polygon fill="none" stroke="black" points="189,-414 162,-396 189,-378 216,-396 189,-414"/>
<text text-anchor="middle" x="189" y="-390.98" font-family="Times New Roman,serif" font-size="12.00">+</text>
</g>
<!-- 2675059375712&#45;&gt;2675059370768 -->
<g id="edge2" class="edge">
<title>2675059375712&#45;&gt;2675059370768</title>
<path fill="none" stroke="black" d="M108.12,-273.46C123.05,-296.36 155.04,-345.43 173.69,-374.04"/>
<polygon fill="black" stroke="black" points="170.68,-375.84 179.07,-382.3 176.54,-372.02 170.68,-375.84"/>
</g>
<!-- 2675057799296 -->
<g id="node4" class="node">
<title>2675057799296</title>
<polygon fill="none" stroke="black" points="189,-171 162,-153 189,-135 216,-153 189,-171"/>
<text text-anchor="middle" x="189" y="-147.97" font-family="Times New Roman,serif" font-size="12.00">+</text>
</g>
<!-- 2675059375712&#45;&gt;2675057799296 -->
<g id="edge3" class="edge">
<title>2675059375712&#45;&gt;2675057799296</title>
<path fill="none" stroke="black" d="M109.42,-249.44C124.24,-231.25 153.2,-195.71 171.52,-173.22"/>
<polygon fill="black" stroke="black" points="174.09,-175.61 177.69,-165.65 168.66,-171.19 174.09,-175.61"/>
</g>
<!-- 2675058317008 -->
<g id="node5" class="node">
<title>2675058317008</title>
<polygon fill="none" stroke="black" points="417.62,-576 292.88,-576 292.88,-540 417.62,-540 417.62,-576"/>
<text text-anchor="middle" x="355.25" y="-552.98" font-family="Times New Roman,serif" font-size="12.00">Process reimbursement</text>
</g>
<!-- 2675059370768&#45;&gt;2675058317008 -->
<g id="edge4" class="edge">
<title>2675059370768&#45;&gt;2675058317008</title>
<path fill="none" stroke="black" d="M192.76,-412C198.51,-440.37 214.5,-499.46 252,-531 260.59,-538.22 270.91,-543.54 281.64,-547.44"/>
<polygon fill="black" stroke="black" points="280.42,-550.73 291.01,-550.43 282.55,-544.06 280.42,-550.73"/>
</g>
<!-- 2675059367936 -->
<g id="node8" class="node">
<title>2675059367936</title>
<polygon fill="none" stroke="black" points="458.5,-522 252,-522 252,-486 458.5,-486 458.5,-522"/>
<text text-anchor="middle" x="355.25" y="-498.98" font-family="Times New Roman,serif" font-size="12.00">Assign complaint to relevant department</text>
</g>
<!-- 2675059370768&#45;&gt;2675059367936 -->
<g id="edge5" class="edge">
<title>2675059370768&#45;&gt;2675059367936</title>
<path fill="none" stroke="black" d="M196.62,-409.41C206.26,-427.55 225.92,-459.62 252,-477 253.8,-478.2 255.66,-479.35 257.56,-480.45"/>
<polygon fill="black" stroke="black" points="255.53,-483.34 266.02,-484.83 258.75,-477.13 255.53,-483.34"/>
</g>
<!-- 2675059362176 -->
<g id="node9" class="node">
<title>2675059362176</title>
<polygon fill="none" stroke="black" points="432.62,-468 277.88,-468 277.88,-432 432.62,-432 432.62,-468"/>
<text text-anchor="middle" x="355.25" y="-444.98" font-family="Times New Roman,serif" font-size="12.00">Approve and notify customer</text>
</g>
<!-- 2675059370768&#45;&gt;2675059362176 -->
<g id="edge9" class="edge">
<title>2675059370768&#45;&gt;2675059362176</title>
<path fill="none" stroke="black" d="M205.54,-403.55C217.92,-409.38 235.81,-417.37 252,-423 257.28,-424.84 262.76,-426.62 268.3,-428.33"/>
<polygon fill="black" stroke="black" points="266.99,-431.59 277.57,-431.11 269,-424.89 266.99,-431.59"/>
</g>
<!-- 2675059373360 -->
<g id="node10" class="node">
<title>2675059373360</title>
<polygon fill="none" stroke="black" points="397,-414 313.5,-414 313.5,-378 397,-378 397,-414"/>
<text text-anchor="middle" x="355.25" y="-390.98" font-family="Times New Roman,serif" font-size="12.00">File complaint</text>
</g>
<!-- 2675059370768&#45;&gt;2675059373360 -->
<g id="edge8" class="edge">
<title>2675059370768&#45;&gt;2675059373360</title>
<path fill="none" stroke="black" d="M216.76,-396C239.69,-396 273.39,-396 301.7,-396"/>
<polygon fill="black" stroke="black" points="301.53,-399.5 311.53,-396 301.53,-392.5 301.53,-399.5"/>
</g>
<!-- 2675059368464 -->
<g id="node11" class="node">
<title>2675059368464</title>
<polygon fill="none" stroke="black" points="397.75,-360 312.75,-360 312.75,-324 397.75,-324 397.75,-360"/>
<text text-anchor="middle" x="355.25" y="-336.98" font-family="Times New Roman,serif" font-size="12.00">Log complaint</text>
</g>
<!-- 2675059370768&#45;&gt;2675059368464 -->
<g id="edge7" class="edge">
<title>2675059370768&#45;&gt;2675059368464</title>
<path fill="none" stroke="black" d="M205.54,-388.45C217.92,-382.62 235.81,-374.63 252,-369 267.92,-363.47 285.58,-358.43 301.67,-354.24"/>
<polygon fill="black" stroke="black" points="302.23,-357.71 311.06,-351.86 300.5,-350.93 302.23,-357.71"/>
</g>
<!-- 2675059370000 -->
<g id="node12" class="node">
<title>2675059370000</title>
<polygon fill="none" stroke="black" points="422.88,-306 287.62,-306 287.62,-270 422.88,-270 422.88,-306"/>
<text text-anchor="middle" x="355.25" y="-282.98" font-family="Times New Roman,serif" font-size="12.00">Review complaint details</text>
</g>
<!-- 2675059370768&#45;&gt;2675059370000 -->
<g id="edge6" class="edge">
<title>2675059370768&#45;&gt;2675059370000</title>
<path fill="none" stroke="black" d="M196.62,-382.59C206.26,-364.45 225.92,-332.38 252,-315 259.49,-310.01 267.87,-305.93 276.52,-302.61"/>
<polygon fill="black" stroke="black" points="277.42,-306 285.73,-299.42 275.13,-299.39 277.42,-306"/>
</g>
<!-- 2675058314704 -->
<g id="node6" class="node">
<title>2675058314704</title>
<polygon fill="none" stroke="black" points="422.88,-252 287.62,-252 287.62,-216 422.88,-216 422.88,-252"/>
<text text-anchor="middle" x="355.25" y="-228.97" font-family="Times New Roman,serif" font-size="12.00">Review complaint details</text>
</g>
<!-- 2675057799296&#45;&gt;2675058314704 -->
<g id="edge11" class="edge">
<title>2675057799296&#45;&gt;2675058314704</title>
<path fill="none" stroke="black" d="M199.84,-164.22C211.21,-176.49 231.06,-195.9 252,-207 259.7,-211.08 268.06,-214.58 276.57,-217.56"/>
<polygon fill="black" stroke="black" points="275.36,-220.85 285.95,-220.61 277.52,-214.19 275.36,-220.85"/>
</g>
<!-- 2675059375856 -->
<g id="node7" class="node">
<title>2675059375856</title>
<polygon fill="none" stroke="black" points="458.5,-198 252,-198 252,-162 458.5,-162 458.5,-198"/>
<text text-anchor="middle" x="355.25" y="-174.97" font-family="Times New Roman,serif" font-size="12.00">Assign complaint to relevant department</text>
</g>
<!-- 2675057799296&#45;&gt;2675059375856 -->
<g id="edge13" class="edge">
<title>2675057799296&#45;&gt;2675059375856</title>
<path fill="none" stroke="black" d="M211.47,-156.53C219.69,-157.88 229.74,-159.53 240.66,-161.33"/>
<polygon fill="black" stroke="black" points="239.91,-164.75 250.35,-162.92 241.05,-157.84 239.91,-164.75"/>
</g>
<!-- 2675056069040 -->
<g id="node13" class="node">
<title>2675056069040</title>
<polygon fill="none" stroke="black" points="397,-144 313.5,-144 313.5,-108 397,-108 397,-144"/>
<text text-anchor="middle" x="355.25" y="-120.97" font-family="Times New Roman,serif" font-size="12.00">File complaint</text>
</g>
<!-- 2675057799296&#45;&gt;2675056069040 -->
<g id="edge10" class="edge">
<title>2675057799296&#45;&gt;2675056069040</title>
<path fill="none" stroke="black" d="M211.47,-149.47C234.4,-145.7 271.57,-139.59 302.23,-134.55"/>
<polygon fill="black" stroke="black" points="302.41,-138.07 311.71,-132.99 301.27,-131.16 302.41,-138.07"/>
</g>
<!-- 2675057798096 -->
<g id="node14" class="node">
<title>2675057798096</title>
<polygon fill="none" stroke="black" points="397.75,-90 312.75,-90 312.75,-54 397.75,-54 397.75,-90"/>
<text text-anchor="middle" x="355.25" y="-66.97" font-family="Times New Roman,serif" font-size="12.00">Log complaint</text>
</g>
<!-- 2675057799296&#45;&gt;2675057798096 -->
<g id="edge12" class="edge">
<title>2675057799296&#45;&gt;2675057798096</title>
<path fill="none" stroke="black" d="M199.84,-141.78C211.21,-129.51 231.06,-110.1 252,-99 267.16,-90.97 284.87,-85.2 301.26,-81.12"/>
<polygon fill="black" stroke="black" points="301.91,-84.56 310.87,-78.89 300.34,-77.74 301.91,-84.56"/>
</g>
<!-- 2675057791328 -->
<g id="node15" class="node">
<title>2675057791328</title>
<polygon fill="none" stroke="black" points="426.62,-36 283.88,-36 283.88,0 426.62,0 426.62,-36"/>
<text text-anchor="middle" x="355.25" y="-12.97" font-family="Times New Roman,serif" font-size="12.00">Reject and notify customer</text>
</g>
<!-- 2675057799296&#45;&gt;2675057791328 -->
<g id="edge14" class="edge">
<title>2675057799296&#45;&gt;2675057791328</title>
<path fill="none" stroke="black" d="M194.34,-138.3C202.01,-114.9 220.25,-69.33 252,-45 258.29,-40.18 265.36,-36.22 272.78,-32.96"/>
<polygon fill="black" stroke="black" points="273.99,-36.25 282.04,-29.36 271.45,-29.72 273.99,-36.25"/>
</g>
<!-- 2675059971072 -->
<g id="node26" class="node">
<title>2675059971072</title>
<polygon fill="none" stroke="black" points="675.12,-576 520.38,-576 520.38,-540 675.12,-540 675.12,-576"/>
<text text-anchor="middle" x="597.75" y="-552.98" font-family="Times New Roman,serif" font-size="12.00">Approve and notify customer</text>
</g>
<!-- 2675058317008&#45;&gt;2675059971072 -->
<g id="edge15" class="edge">
<title>2675058317008&#45;&gt;2675059971072</title>
<path fill="none" stroke="black" d="M417.87,-558C445.52,-558 478.63,-558 508.81,-558"/>
<polygon fill="black" stroke="black" points="508.71,-561.5 518.71,-558 508.71,-554.5 508.71,-561.5"/>
</g>
<!-- 2675059374656 -->
<g id="node21" class="node">
<title>2675059374656</title>
<polygon fill="none" stroke="black" points="669.12,-252 526.38,-252 526.38,-216 669.12,-216 669.12,-252"/>
<text text-anchor="middle" x="597.75" y="-228.97" font-family="Times New Roman,serif" font-size="12.00">Reject and notify customer</text>
</g>
<!-- 2675058314704&#45;&gt;2675059374656 -->
<g id="edge16" class="edge">
<title>2675058314704&#45;&gt;2675059374656</title>
<path fill="none" stroke="black" d="M423.24,-234C451.59,-234 484.88,-234 514.68,-234"/>
<polygon fill="black" stroke="black" points="514.4,-237.5 524.4,-234 514.4,-230.5 514.4,-237.5"/>
</g>
<!-- 2675058325840 -->
<g id="node18" class="node">
<title>2675058325840</title>
<polygon fill="none" stroke="black" points="665.38,-198 530.12,-198 530.12,-162 665.38,-162 665.38,-198"/>
<text text-anchor="middle" x="597.75" y="-174.97" font-family="Times New Roman,serif" font-size="12.00">Review complaint details</text>
</g>
<!-- 2675059375856&#45;&gt;2675058325840 -->
<g id="edge17" class="edge">
<title>2675059375856&#45;&gt;2675058325840</title>
<path fill="none" stroke="black" d="M458.94,-180C478.91,-180 499.54,-180 518.57,-180"/>
<polygon fill="black" stroke="black" points="518.36,-183.5 528.36,-180 518.36,-176.5 518.36,-183.5"/>
</g>
<!-- 2675057466096 -->
<g id="node25" class="node">
<title>2675057466096</title>
<polygon fill="none" stroke="black" points="665.38,-522 530.12,-522 530.12,-486 665.38,-486 665.38,-522"/>
<text text-anchor="middle" x="597.75" y="-498.98" font-family="Times New Roman,serif" font-size="12.00">Review complaint details</text>
</g>
<!-- 2675059367936&#45;&gt;2675057466096 -->
<g id="edge18" class="edge">
<title>2675059367936&#45;&gt;2675057466096</title>
<path fill="none" stroke="black" d="M458.94,-504C478.91,-504 499.54,-504 518.57,-504"/>
<polygon fill="black" stroke="black" points="518.36,-507.5 528.36,-504 518.36,-500.5 518.36,-507.5"/>
</g>
<!-- 2675059367792 -->
<g id="node23" class="node">
<title>2675059367792</title>
<polygon fill="none" stroke="black" points="649.62,-468 545.88,-468 545.88,-432 649.62,-432 649.62,-468"/>
<text text-anchor="middle" x="597.75" y="-444.98" font-family="Times New Roman,serif" font-size="12.00">Resolve complaint</text>
</g>
<!-- 2675059362176&#45;&gt;2675059367792 -->
<g id="edge19" class="edge">
<title>2675059362176&#45;&gt;2675059367792</title>
<path fill="none" stroke="black" d="M433.01,-450C465.68,-450 503.29,-450 534.23,-450"/>
<polygon fill="black" stroke="black" points="534.22,-453.5 544.22,-450 534.22,-446.5 534.22,-453.5"/>
</g>
<!-- 2675058313168 -->
<g id="node16" class="node">
<title>2675058313168</title>
<polygon fill="none" stroke="black" points="640.25,-414 555.25,-414 555.25,-378 640.25,-378 640.25,-414"/>
<text text-anchor="middle" x="597.75" y="-390.98" font-family="Times New Roman,serif" font-size="12.00">Log complaint</text>
</g>
<!-- 2675059373360&#45;&gt;2675058313168 -->
<g id="edge20" class="edge">
<title>2675059373360&#45;&gt;2675058313168</title>
<path fill="none" stroke="black" d="M397.32,-396C437.71,-396 499.57,-396 543.67,-396"/>
<polygon fill="black" stroke="black" points="543.53,-399.5 553.53,-396 543.53,-392.5 543.53,-399.5"/>
</g>
<!-- 2675059373168 -->
<g id="node22" class="node">
<title>2675059373168</title>
<polygon fill="none" stroke="black" points="701,-360 494.5,-360 494.5,-324 701,-324 701,-360"/>
<text text-anchor="middle" x="597.75" y="-336.98" font-family="Times New Roman,serif" font-size="12.00">Assign complaint to relevant department</text>
</g>
<!-- 2675059368464&#45;&gt;2675059373168 -->
<g id="edge21" class="edge">
<title>2675059368464&#45;&gt;2675059373168</title>
<path fill="none" stroke="black" d="M398.14,-342C421.81,-342 452.66,-342 482.96,-342"/>
<polygon fill="black" stroke="black" points="482.57,-345.5 492.57,-342 482.57,-338.5 482.57,-345.5"/>
</g>
<!-- 2675058315040 -->
<g id="node17" class="node">
<title>2675058315040</title>
<polygon fill="none" stroke="black" points="660.12,-306 535.38,-306 535.38,-270 660.12,-270 660.12,-306"/>
<text text-anchor="middle" x="597.75" y="-282.98" font-family="Times New Roman,serif" font-size="12.00">Process reimbursement</text>
</g>
<!-- 2675059370000&#45;&gt;2675058315040 -->
<g id="edge22" class="edge">
<title>2675059370000&#45;&gt;2675058315040</title>
<path fill="none" stroke="black" d="M423.24,-288C454.44,-288 491.62,-288 523.55,-288"/>
<polygon fill="black" stroke="black" points="523.55,-291.5 533.55,-288 523.55,-284.5 523.55,-291.5"/>
</g>
<!-- 2675059362944 -->
<g id="node24" class="node">
<title>2675059362944</title>
<polygon fill="none" stroke="black" points="640.25,-144 555.25,-144 555.25,-108 640.25,-108 640.25,-144"/>
<text text-anchor="middle" x="597.75" y="-120.97" font-family="Times New Roman,serif" font-size="12.00">Log complaint</text>
</g>
<!-- 2675056069040&#45;&gt;2675059362944 -->
<g id="edge23" class="edge">
<title>2675056069040&#45;&gt;2675059362944</title>
<path fill="none" stroke="black" d="M397.32,-126C437.71,-126 499.57,-126 543.67,-126"/>
<polygon fill="black" stroke="black" points="543.53,-129.5 553.53,-126 543.53,-122.5 543.53,-129.5"/>
</g>
<!-- 2675058314080 -->
<g id="node20" class="node">
<title>2675058314080</title>
<polygon fill="none" stroke="black" points="701,-90 494.5,-90 494.5,-54 701,-54 701,-90"/>
<text text-anchor="middle" x="597.75" y="-66.97" font-family="Times New Roman,serif" font-size="12.00">Assign complaint to relevant department</text>
</g>
<!-- 2675057798096&#45;&gt;2675058314080 -->
<g id="edge24" class="edge">
<title>2675057798096&#45;&gt;2675058314080</title>
<path fill="none" stroke="black" d="M398.14,-72C421.81,-72 452.66,-72 482.96,-72"/>
<polygon fill="black" stroke="black" points="482.57,-75.5 492.57,-72 482.57,-68.5 482.57,-75.5"/>
</g>
<!-- 2675058313408 -->
<g id="node19" class="node">
<title>2675058313408</title>
<polygon fill="none" stroke="black" points="649.62,-36 545.88,-36 545.88,0 649.62,0 649.62,-36"/>
<text text-anchor="middle" x="597.75" y="-12.97" font-family="Times New Roman,serif" font-size="12.00">Resolve complaint</text>
</g>
<!-- 2675057791328&#45;&gt;2675058313408 -->
<g id="edge25" class="edge">
<title>2675057791328&#45;&gt;2675058313408</title>
<path fill="none" stroke="black" d="M427.11,-18C461.07,-18 501.39,-18 534.2,-18"/>
<polygon fill="black" stroke="black" points="533.96,-21.5 543.96,-18 533.96,-14.5 533.96,-21.5"/>
</g>
<!-- 2675057787392 -->
<g id="node28" class="node">
<title>2675057787392</title>
<polygon fill="none" stroke="black" points="764,-414 737,-396 764,-378 791,-396 764,-414"/>
<text text-anchor="middle" x="764" y="-390.98" font-family="Times New Roman,serif" font-size="12.00">+</text>
</g>
<!-- 2675058313168&#45;&gt;2675057787392 -->
<g id="edge26" class="edge">
<title>2675058313168&#45;&gt;2675057787392</title>
<path fill="none" stroke="black" d="M640.62,-396C666.55,-396 699.59,-396 724.8,-396"/>
<polygon fill="black" stroke="black" points="724.62,-399.5 734.62,-396 724.62,-392.5 724.62,-399.5"/>
</g>
<!-- 2675058315040&#45;&gt;2675057787392 -->
<g id="edge27" class="edge">
<title>2675058315040&#45;&gt;2675057787392</title>
<path fill="none" stroke="black" d="M660.49,-297.34C674.57,-301.31 688.93,-306.96 701,-315 722.8,-329.53 740.12,-354.32 750.84,-372.66"/>
<polygon fill="black" stroke="black" points="747.72,-374.24 755.65,-381.26 753.83,-370.83 747.72,-374.24"/>
</g>
<!-- 2675059374272 -->
<g id="node27" class="node">
<title>2675059374272</title>
<polygon fill="none" stroke="black" points="764,-171 737,-153 764,-135 791,-153 764,-171"/>
<text text-anchor="middle" x="764" y="-147.97" font-family="Times New Roman,serif" font-size="12.00">+</text>
</g>
<!-- 2675058325840&#45;&gt;2675059374272 -->
<g id="edge28" class="edge">
<title>2675058325840&#45;&gt;2675059374272</title>
<path fill="none" stroke="black" d="M665.56,-169.02C687.85,-165.35 711.71,-161.43 730.23,-158.39"/>
<polygon fill="black" stroke="black" points="730.78,-161.84 740.08,-156.77 729.64,-154.94 730.78,-161.84"/>
</g>
<!-- 2675058313408&#45;&gt;2675059374272 -->
<g id="edge29" class="edge">
<title>2675058313408&#45;&gt;2675059374272</title>
<path fill="none" stroke="black" d="M649.89,-23.36C667.45,-27.2 686.35,-33.78 701,-45 728.41,-66 745.75,-102.83 754.92,-127.57"/>
<polygon fill="black" stroke="black" points="751.56,-128.59 758.16,-136.87 758.17,-126.28 751.56,-128.59"/>
</g>
<!-- 2675058314080&#45;&gt;2675059374272 -->
<g id="edge30" class="edge">
<title>2675058314080&#45;&gt;2675059374272</title>
<path fill="none" stroke="black" d="M682.03,-90.49C688.59,-92.99 695,-95.82 701,-99 717.68,-107.84 733.68,-121.96 745.24,-133.55"/>
<polygon fill="black" stroke="black" points="742.66,-135.91 752.11,-140.69 747.71,-131.06 742.66,-135.91"/>
</g>
<!-- 2675059374656&#45;&gt;2675059374272 -->
<g id="edge31" class="edge">
<title>2675059374656&#45;&gt;2675059374272</title>
<path fill="none" stroke="black" d="M669.4,-219.91C680.3,-216.45 691.19,-212.2 701,-207 717.68,-198.16 733.68,-184.04 745.24,-172.45"/>
<polygon fill="black" stroke="black" points="747.71,-174.94 752.11,-165.31 742.66,-170.09 747.71,-174.94"/>
</g>
<!-- 2675059373168&#45;&gt;2675057787392 -->
<g id="edge32" class="edge">
<title>2675059373168&#45;&gt;2675057787392</title>
<path fill="none" stroke="black" d="M673.98,-360.46C683.14,-363.12 692.33,-365.99 701,-369 713.14,-373.22 726.24,-378.77 737.26,-383.74"/>
<polygon fill="black" stroke="black" points="735.54,-386.8 746.09,-387.81 738.47,-380.45 735.54,-386.8"/>
</g>
<!-- 2675059367792&#45;&gt;2675057787392 -->
<g id="edge33" class="edge">
<title>2675059367792&#45;&gt;2675057787392</title>
<path fill="none" stroke="black" d="M649.92,-438.12C666.39,-433.86 684.61,-428.7 701,-423 713.14,-418.78 726.24,-413.23 737.26,-408.26"/>
<polygon fill="black" stroke="black" points="738.47,-411.55 746.09,-404.19 735.54,-405.2 738.47,-411.55"/>
</g>
<!-- 2675059362944&#45;&gt;2675059374272 -->
<g id="edge34" class="edge">
<title>2675059362944&#45;&gt;2675059374272</title>
<path fill="none" stroke="black" d="M640.62,-132.88C668.65,-137.49 704.98,-143.46 730.75,-147.7"/>
<polygon fill="black" stroke="black" points="729.86,-151.1 740.29,-149.27 730.99,-144.19 729.86,-151.1"/>
</g>
<!-- 2675057466096&#45;&gt;2675057787392 -->
<g id="edge35" class="edge">
<title>2675057466096&#45;&gt;2675057787392</title>
<path fill="none" stroke="black" d="M665.84,-493.07C678.17,-489.23 690.46,-484.03 701,-477 722.8,-462.47 740.12,-437.68 750.84,-419.34"/>
<polygon fill="black" stroke="black" points="753.83,-421.17 755.65,-410.74 747.72,-417.76 753.83,-421.17"/>
</g>
<!-- 2675059971072&#45;&gt;2675057787392 -->
<g id="edge36" class="edge">
<title>2675059971072&#45;&gt;2675057787392</title>
<path fill="none" stroke="black" d="M675.62,-545.81C684.81,-542.09 693.55,-537.26 701,-531 734.11,-503.16 750.45,-453.84 757.78,-423.15"/>
<polygon fill="black" stroke="black" points="761.18,-424 759.91,-413.48 754.34,-422.49 761.18,-424"/>
</g>
<!-- 2675058316768 -->
<g id="node29" class="node">
<title>2675058316768</title>
<polygon fill="none" stroke="black" points="854,-279 827,-261 854,-243 881,-261 854,-279"/>
<text text-anchor="middle" x="854" y="-255.97" font-family="Times New Roman,serif" font-size="12.00">X</text>
</g>
<!-- 2675059374272&#45;&gt;2675058316768 -->
<g id="edge37" class="edge">
<title>2675059374272&#45;&gt;2675058316768</title>
<path fill="none" stroke="black" d="M774.42,-164.56C789.24,-182.75 818.2,-218.29 836.52,-240.78"/>
<polygon fill="black" stroke="black" points="833.66,-242.81 842.69,-248.35 839.09,-238.39 833.66,-242.81"/>
</g>
<!-- 2675057787392&#45;&gt;2675058316768 -->
<g id="edge38" class="edge">
<title>2675057787392&#45;&gt;2675058316768</title>
<path fill="none" stroke="black" d="M773.12,-383.54C788.05,-360.64 820.04,-311.57 838.69,-282.96"/>
<polygon fill="black" stroke="black" points="841.54,-284.98 844.07,-274.7 835.68,-281.16 841.54,-284.98"/>
</g>
<!-- 2675057180160 -->
<g id="node30" class="node">
<title>2675057180160</title>
<ellipse fill="orange" stroke="black" cx="935" cy="-261" rx="18" ry="18"/>
</g>
<!-- 2675058316768&#45;&gt;2675057180160 -->
<g id="edge39" class="edge">
<title>2675058316768&#45;&gt;2675057180160</title>
<path fill="none" stroke="black" d="M881.75,-261C889.38,-261 897.73,-261 905.47,-261"/>
<polygon fill="black" stroke="black" points="905.43,-264.5 915.43,-261 905.43,-257.5 905.43,-264.5"/>
</g>
</g>
</svg>
