<?xml version="1.0" encoding="UTF-8" standalone="no"?>
<!DOCTYPE svg PUBLIC "-//W3C//DTD SVG 1.1//EN"
 "http://www.w3.org/Graphics/SVG/1.1/DTD/svg11.dtd">
<!-- Generated by graphviz version 11.0.0 (20240428.1522)
 -->
<!-- Pages: 1 -->
<svg width="1879pt" height="260pt"
 viewBox="0.00 0.00 1879.00 260.00" xmlns="http://www.w3.org/2000/svg" xmlns:xlink="http://www.w3.org/1999/xlink">
<g id="graph0" class="graph" transform="scale(1 1) rotate(0) translate(4 256)">
<polygon fill="white" stroke="none" points="-4,4 -4,-256 1875,-256 1875,4 -4,4"/>
<!-- 2675056070240 -->
<g id="node1" class="node">
<title>2675056070240</title>
<ellipse fill="green" stroke="black" cx="18" cy="-99" rx="18" ry="18"/>
</g>
<!-- 2675057790224 -->
<g id="node2" class="node">
<title>2675057790224</title>
<polygon fill="none" stroke="black" points="99,-117 72,-99 99,-81 126,-99 99,-117"/>
<text text-anchor="middle" x="99" y="-93.97" font-family="Times New Roman,serif" font-size="12.00">X</text>
</g>
<!-- 2675056070240&#45;&gt;2675057790224 -->
<g id="edge1" class="edge">
<title>2675056070240&#45;&gt;2675057790224</title>
<path fill="none" stroke="black" d="M36.14,-99C43.11,-99 51.47,-99 59.75,-99"/>
<polygon fill="black" stroke="black" points="59.75,-102.5 69.75,-99 59.75,-95.5 59.75,-102.5"/>
</g>
<!-- 2675057792192 -->
<g id="node3" class="node">
<title>2675057792192</title>
<polygon fill="none" stroke="black" points="323.5,-117 296.5,-99 323.5,-81 350.5,-99 323.5,-117"/>
<text text-anchor="middle" x="323.5" y="-93.97" font-family="Times New Roman,serif" font-size="12.00">X</text>
</g>
<!-- 2675057790224&#45;&gt;2675057792192 -->
<g id="edge2" class="edge">
<title>2675057790224&#45;&gt;2675057792192</title>
<path fill="none" stroke="black" d="M123.83,-100.9C135.35,-101.72 149.39,-102.59 162,-103 205.76,-104.41 216.74,-104.41 260.5,-103 269.17,-102.72 278.52,-102.22 287.25,-101.67"/>
<polygon fill="black" stroke="black" points="287.42,-105.17 297.16,-101 286.95,-98.18 287.42,-105.17"/>
</g>
<!-- 2675036281248 -->
<g id="node4" class="node">
<title>2675036281248</title>
<polygon fill="none" stroke="black" points="260.5,-94 162,-94 162,-58 260.5,-58 260.5,-94"/>
<text text-anchor="middle" x="211.25" y="-70.97" font-family="Times New Roman,serif" font-size="12.00">Provide feedback</text>
</g>
<!-- 2675057790224&#45;&gt;2675036281248 -->
<g id="edge3" class="edge">
<title>2675057790224&#45;&gt;2675036281248</title>
<path fill="none" stroke="black" d="M120.48,-94.73C129.08,-92.93 139.56,-90.75 150.3,-88.51"/>
<polygon fill="black" stroke="black" points="150.94,-91.95 160.02,-86.48 149.51,-85.1 150.94,-91.95"/>
</g>
<!-- 2675057796416 -->
<g id="node5" class="node">
<title>2675057796416</title>
<polygon fill="none" stroke="black" points="490.25,-117 386.5,-117 386.5,-81 490.25,-81 490.25,-117"/>
<text text-anchor="middle" x="438.38" y="-93.97" font-family="Times New Roman,serif" font-size="12.00">Resolve complaint</text>
</g>
<!-- 2675057792192&#45;&gt;2675057796416 -->
<g id="edge5" class="edge">
<title>2675057792192&#45;&gt;2675057796416</title>
<path fill="none" stroke="black" d="M351.25,-99C358.42,-99 366.49,-99 374.73,-99"/>
<polygon fill="black" stroke="black" points="374.5,-102.5 384.5,-99 374.5,-95.5 374.5,-102.5"/>
</g>
<!-- 2675036281248&#45;&gt;2675057792192 -->
<g id="edge4" class="edge">
<title>2675036281248&#45;&gt;2675057792192</title>
<path fill="none" stroke="black" d="M260.93,-86.16C271.15,-88.29 281.67,-90.48 291.06,-92.44"/>
<polygon fill="black" stroke="black" points="290.25,-95.85 300.76,-94.46 291.68,-89 290.25,-95.85"/>
</g>
<!-- 2675057792288 -->
<g id="node6" class="node">
<title>2675057792288</title>
<polygon fill="none" stroke="black" points="553.25,-117 526.25,-99 553.25,-81 580.25,-99 553.25,-117"/>
<text text-anchor="middle" x="553.25" y="-93.97" font-family="Times New Roman,serif" font-size="12.00">X</text>
</g>
<!-- 2675057796416&#45;&gt;2675057792288 -->
<g id="edge6" class="edge">
<title>2675057796416&#45;&gt;2675057792288</title>
<path fill="none" stroke="black" d="M490.53,-99C498.49,-99 506.59,-99 514.2,-99"/>
<polygon fill="black" stroke="black" points="514.13,-102.5 524.13,-99 514.13,-95.5 514.13,-102.5"/>
</g>
<!-- 2675057727136 -->
<g id="node7" class="node">
<title>2675057727136</title>
<polygon fill="none" stroke="black" points="678.62,-144 651.62,-126 678.62,-108 705.62,-126 678.62,-144"/>
<text text-anchor="middle" x="678.62" y="-120.97" font-family="Times New Roman,serif" font-size="12.00">+</text>
</g>
<!-- 2675057792288&#45;&gt;2675057727136 -->
<g id="edge7" class="edge">
<title>2675057792288&#45;&gt;2675057727136</title>
<path fill="none" stroke="black" d="M574.35,-103.4C593.88,-107.67 623.84,-114.23 646.47,-119.18"/>
<polygon fill="black" stroke="black" points="645.54,-122.56 656.06,-121.28 647.04,-115.72 645.54,-122.56"/>
</g>
<!-- 2675057733328 -->
<g id="node8" class="node">
<title>2675057733328</title>
<polygon fill="none" stroke="black" points="741,-63 616.25,-63 616.25,-27 741,-27 741,-63"/>
<text text-anchor="middle" x="678.62" y="-39.98" font-family="Times New Roman,serif" font-size="12.00">Process reimbursement</text>
</g>
<!-- 2675057792288&#45;&gt;2675057733328 -->
<g id="edge8" class="edge">
<title>2675057792288&#45;&gt;2675057733328</title>
<path fill="none" stroke="black" d="M570.38,-91.94C584.33,-85.83 605.31,-76.65 625.02,-68.02"/>
<polygon fill="black" stroke="black" points="626.33,-71.27 634.09,-64.05 623.53,-64.86 626.33,-71.27"/>
</g>
<!-- 2675057801072 -->
<g id="node9" class="node">
<title>2675057801072</title>
<polygon fill="none" stroke="black" points="947.88,-252 812.62,-252 812.62,-216 947.88,-216 947.88,-252"/>
<text text-anchor="middle" x="880.25" y="-228.97" font-family="Times New Roman,serif" font-size="12.00">Review complaint details</text>
</g>
<!-- 2675057727136&#45;&gt;2675057801072 -->
<g id="edge12" class="edge">
<title>2675057727136&#45;&gt;2675057801072</title>
<path fill="none" stroke="black" d="M689.6,-136.93C706.09,-154.36 740.84,-188.36 777,-207 784.69,-210.96 793.01,-214.38 801.47,-217.32"/>
<polygon fill="black" stroke="black" points="800.19,-220.59 810.78,-220.33 802.34,-213.93 800.19,-220.59"/>
</g>
<!-- 2675057802848 -->
<g id="node10" class="node">
<title>2675057802848</title>
<polygon fill="none" stroke="black" points="922.75,-198 837.75,-198 837.75,-162 922.75,-162 922.75,-198"/>
<text text-anchor="middle" x="880.25" y="-174.97" font-family="Times New Roman,serif" font-size="12.00">Log complaint</text>
</g>
<!-- 2675057727136&#45;&gt;2675057802848 -->
<g id="edge11" class="edge">
<title>2675057727136&#45;&gt;2675057802848</title>
<path fill="none" stroke="black" d="M698.27,-131.24C717.86,-136.74 749.57,-145.58 777,-153 793.13,-157.37 810.71,-162.04 826.67,-166.25"/>
<polygon fill="black" stroke="black" points="825.4,-169.53 835.97,-168.7 827.19,-162.77 825.4,-169.53"/>
</g>
<!-- 2675057795264 -->
<g id="node11" class="node">
<title>2675057795264</title>
<polygon fill="none" stroke="black" points="951.62,-144 808.88,-144 808.88,-108 951.62,-108 951.62,-144"/>
<text text-anchor="middle" x="880.25" y="-120.97" font-family="Times New Roman,serif" font-size="12.00">Reject and notify customer</text>
</g>
<!-- 2675057727136&#45;&gt;2675057795264 -->
<g id="edge9" class="edge">
<title>2675057727136&#45;&gt;2675057795264</title>
<path fill="none" stroke="black" d="M706.13,-126C729.47,-126 764.73,-126 797.35,-126"/>
<polygon fill="black" stroke="black" points="797.24,-129.5 807.24,-126 797.24,-122.5 797.24,-129.5"/>
</g>
<!-- 2675059977600 -->
<g id="node13" class="node">
<title>2675059977600</title>
<polygon fill="none" stroke="black" points="983.5,-90 777,-90 777,-54 983.5,-54 983.5,-90"/>
<text text-anchor="middle" x="880.25" y="-66.97" font-family="Times New Roman,serif" font-size="12.00">Assign complaint to relevant department</text>
</g>
<!-- 2675057727136&#45;&gt;2675059977600 -->
<g id="edge10" class="edge">
<title>2675057727136&#45;&gt;2675059977600</title>
<path fill="none" stroke="black" d="M698.27,-120.76C717.86,-115.26 749.57,-106.42 777,-99 783.75,-97.17 790.75,-95.29 797.78,-93.42"/>
<polygon fill="black" stroke="black" points="798.59,-96.82 807.35,-90.87 796.79,-90.06 798.59,-96.82"/>
</g>
<!-- 2675057729536 -->
<g id="node12" class="node">
<title>2675057729536</title>
<polygon fill="none" stroke="black" points="957.62,-36 802.88,-36 802.88,0 957.62,0 957.62,-36"/>
<text text-anchor="middle" x="880.25" y="-12.97" font-family="Times New Roman,serif" font-size="12.00">Approve and notify customer</text>
</g>
<!-- 2675057733328&#45;&gt;2675057729536 -->
<g id="edge13" class="edge">
<title>2675057733328&#45;&gt;2675057729536</title>
<path fill="none" stroke="black" d="M741.42,-36.64C757.29,-34.49 774.68,-32.14 791.59,-29.86"/>
<polygon fill="black" stroke="black" points="791.67,-33.38 801.11,-28.57 790.73,-26.44 791.67,-33.38"/>
</g>
<!-- 2675059981152 -->
<g id="node18" class="node">
<title>2675059981152</title>
<polygon fill="none" stroke="black" points="1226,-252 1019.5,-252 1019.5,-216 1226,-216 1226,-252"/>
<text text-anchor="middle" x="1122.75" y="-228.97" font-family="Times New Roman,serif" font-size="12.00">Assign complaint to relevant department</text>
</g>
<!-- 2675057801072&#45;&gt;2675059981152 -->
<g id="edge14" class="edge">
<title>2675057801072&#45;&gt;2675059981152</title>
<path fill="none" stroke="black" d="M948.24,-234C966.77,-234 987.41,-234 1007.81,-234"/>
<polygon fill="black" stroke="black" points="1007.59,-237.5 1017.59,-234 1007.59,-230.5 1007.59,-237.5"/>
</g>
<!-- 2675060450000 -->
<g id="node15" class="node">
<title>2675060450000</title>
<polygon fill="none" stroke="black" points="1164.5,-198 1081,-198 1081,-162 1164.5,-162 1164.5,-198"/>
<text text-anchor="middle" x="1122.75" y="-174.97" font-family="Times New Roman,serif" font-size="12.00">File complaint</text>
</g>
<!-- 2675057802848&#45;&gt;2675060450000 -->
<g id="edge15" class="edge">
<title>2675057802848&#45;&gt;2675060450000</title>
<path fill="none" stroke="black" d="M923.14,-180C963.79,-180 1025.59,-180 1069.44,-180"/>
<polygon fill="black" stroke="black" points="1069.23,-183.5 1079.23,-180 1069.23,-176.5 1069.23,-183.5"/>
</g>
<!-- 2675059971552 -->
<g id="node16" class="node">
<title>2675059971552</title>
<polygon fill="none" stroke="black" points="1190.38,-144 1055.12,-144 1055.12,-108 1190.38,-108 1190.38,-144"/>
<text text-anchor="middle" x="1122.75" y="-120.97" font-family="Times New Roman,serif" font-size="12.00">Review complaint details</text>
</g>
<!-- 2675057795264&#45;&gt;2675059971552 -->
<g id="edge16" class="edge">
<title>2675057795264&#45;&gt;2675059971552</title>
<path fill="none" stroke="black" d="M952.11,-126C980.73,-126 1013.87,-126 1043.23,-126"/>
<polygon fill="black" stroke="black" points="1043.18,-129.5 1053.18,-126 1043.18,-122.5 1043.18,-129.5"/>
</g>
<!-- 2675057790656 -->
<g id="node14" class="node">
<title>2675057790656</title>
<polygon fill="none" stroke="black" points="1190.38,-36 1055.12,-36 1055.12,0 1190.38,0 1190.38,-36"/>
<text text-anchor="middle" x="1122.75" y="-12.97" font-family="Times New Roman,serif" font-size="12.00">Review complaint details</text>
</g>
<!-- 2675057729536&#45;&gt;2675057790656 -->
<g id="edge17" class="edge">
<title>2675057729536&#45;&gt;2675057790656</title>
<path fill="none" stroke="black" d="M958.01,-18C985.19,-18 1015.8,-18 1043.14,-18"/>
<polygon fill="black" stroke="black" points="1043.12,-21.5 1053.12,-18 1043.12,-14.5 1043.12,-21.5"/>
</g>
<!-- 2675059975728 -->
<g id="node17" class="node">
<title>2675059975728</title>
<polygon fill="none" stroke="black" points="1165.25,-90 1080.25,-90 1080.25,-54 1165.25,-54 1165.25,-90"/>
<text text-anchor="middle" x="1122.75" y="-66.97" font-family="Times New Roman,serif" font-size="12.00">Log complaint</text>
</g>
<!-- 2675059977600&#45;&gt;2675059975728 -->
<g id="edge18" class="edge">
<title>2675059977600&#45;&gt;2675059975728</title>
<path fill="none" stroke="black" d="M983.94,-72C1013.04,-72 1043.54,-72 1068.42,-72"/>
<polygon fill="black" stroke="black" points="1068.28,-75.5 1078.28,-72 1068.28,-68.5 1068.28,-75.5"/>
</g>
<!-- 2675060449568 -->
<g id="node19" class="node">
<title>2675060449568</title>
<polygon fill="none" stroke="black" points="1468.5,-63 1262,-63 1262,-27 1468.5,-27 1468.5,-63"/>
<text text-anchor="middle" x="1365.25" y="-39.98" font-family="Times New Roman,serif" font-size="12.00">Assign complaint to relevant department</text>
</g>
<!-- 2675057790656&#45;&gt;2675060449568 -->
<g id="edge19" class="edge">
<title>2675057790656&#45;&gt;2675060449568</title>
<path fill="none" stroke="black" d="M1190.74,-25.52C1209.27,-27.6 1229.91,-29.92 1250.31,-32.21"/>
<polygon fill="black" stroke="black" points="1249.78,-35.67 1260.1,-33.31 1250.56,-28.71 1249.78,-35.67"/>
</g>
<!-- 2675030284992 -->
<g id="node20" class="node">
<title>2675030284992</title>
<polygon fill="none" stroke="black" points="1365.25,-144 1338.25,-126 1365.25,-108 1392.25,-126 1365.25,-144"/>
<text text-anchor="middle" x="1365.25" y="-120.97" font-family="Times New Roman,serif" font-size="12.00">+</text>
</g>
<!-- 2675060450000&#45;&gt;2675030284992 -->
<g id="edge20" class="edge">
<title>2675060450000&#45;&gt;2675030284992</title>
<path fill="none" stroke="black" d="M1164.82,-170.78C1212.52,-160.07 1290.15,-142.64 1333.14,-132.99"/>
<polygon fill="black" stroke="black" points="1333.82,-136.42 1342.81,-130.81 1332.29,-129.59 1333.82,-136.42"/>
</g>
<!-- 2675059971552&#45;&gt;2675030284992 -->
<g id="edge21" class="edge">
<title>2675059971552&#45;&gt;2675030284992</title>
<path fill="none" stroke="black" d="M1190.74,-126C1234.51,-126 1290.08,-126 1326.37,-126"/>
<polygon fill="black" stroke="black" points="1325.93,-129.5 1335.93,-126 1325.93,-122.5 1325.93,-129.5"/>
</g>
<!-- 2675059975728&#45;&gt;2675030284992 -->
<g id="edge22" class="edge">
<title>2675059975728&#45;&gt;2675030284992</title>
<path fill="none" stroke="black" d="M1165.64,-81.41C1213.37,-92.12 1290.27,-109.39 1333.03,-118.99"/>
<polygon fill="black" stroke="black" points="1332.13,-122.38 1342.66,-121.15 1333.67,-115.55 1332.13,-122.38"/>
</g>
<!-- 2675059981152&#45;&gt;2675030284992 -->
<g id="edge23" class="edge">
<title>2675059981152&#45;&gt;2675030284992</title>
<path fill="none" stroke="black" d="M1202.63,-215.5C1210.62,-212.93 1218.54,-210.1 1226,-207 1269.31,-188.99 1315.54,-159.56 1342.06,-141.57"/>
<polygon fill="black" stroke="black" points="1344.02,-144.48 1350.28,-135.93 1340.06,-138.71 1344.02,-144.48"/>
</g>
<!-- 2675059974144 -->
<g id="node22" class="node">
<title>2675059974144</title>
<polygon fill="none" stroke="black" points="1589.5,-67 1504.5,-67 1504.5,-31 1589.5,-31 1589.5,-67"/>
<text text-anchor="middle" x="1547" y="-43.98" font-family="Times New Roman,serif" font-size="12.00">Log complaint</text>
</g>
<!-- 2675060449568&#45;&gt;2675059974144 -->
<g id="edge24" class="edge">
<title>2675060449568&#45;&gt;2675059974144</title>
<path fill="none" stroke="black" d="M1468.99,-47.29C1477.24,-47.47 1485.34,-47.65 1493.01,-47.82"/>
<polygon fill="black" stroke="black" points="1492.69,-51.31 1502.77,-48.04 1492.85,-44.32 1492.69,-51.31"/>
</g>
<!-- 2675057792144 -->
<g id="node21" class="node">
<title>2675057792144</title>
<polygon fill="none" stroke="black" points="1772,-92 1745,-74 1772,-56 1799,-74 1772,-92"/>
<text text-anchor="middle" x="1772" y="-68.97" font-family="Times New Roman,serif" font-size="12.00">X</text>
</g>
<!-- 2675030284992&#45;&gt;2675057792144 -->
<g id="edge25" class="edge">
<title>2675030284992&#45;&gt;2675057792144</title>
<path fill="none" stroke="black" d="M1388.59,-123.13C1455.9,-114.48 1657.06,-88.64 1737.36,-78.32"/>
<polygon fill="black" stroke="black" points="1737.76,-81.8 1747.23,-77.05 1736.87,-74.86 1737.76,-81.8"/>
</g>
<!-- 2675056072640 -->
<g id="node24" class="node">
<title>2675056072640</title>
<ellipse fill="orange" stroke="black" cx="1853" cy="-74" rx="18" ry="18"/>
</g>
<!-- 2675057792144&#45;&gt;2675056072640 -->
<g id="edge27" class="edge">
<title>2675057792144&#45;&gt;2675056072640</title>
<path fill="none" stroke="black" d="M1799.75,-74C1807.38,-74 1815.73,-74 1823.47,-74"/>
<polygon fill="black" stroke="black" points="1823.43,-77.5 1833.43,-74 1823.43,-70.5 1823.43,-77.5"/>
</g>
<!-- 2675057797952 -->
<g id="node23" class="node">
<title>2675057797952</title>
<polygon fill="none" stroke="black" points="1709,-69 1625.5,-69 1625.5,-33 1709,-33 1709,-69"/>
<text text-anchor="middle" x="1667.25" y="-45.98" font-family="Times New Roman,serif" font-size="12.00">File complaint</text>
</g>
<!-- 2675059974144&#45;&gt;2675057797952 -->
<g id="edge26" class="edge">
<title>2675059974144&#45;&gt;2675057797952</title>
<path fill="none" stroke="black" d="M1589.69,-49.71C1597.55,-49.84 1605.87,-49.98 1614.01,-50.12"/>
<polygon fill="black" stroke="black" points="1613.76,-53.61 1623.82,-50.28 1613.88,-46.61 1613.76,-53.61"/>
</g>
<!-- 2675057797952&#45;&gt;2675057792144 -->
<g id="edge28" class="edge">
<title>2675057797952&#45;&gt;2675057792144</title>
<path fill="none" stroke="black" d="M1709.45,-60.22C1719.61,-62.5 1730.33,-64.9 1739.92,-67.04"/>
<polygon fill="black" stroke="black" points="1738.94,-70.41 1749.47,-69.18 1740.47,-63.58 1738.94,-70.41"/>
</g>
</g>
</svg>
