<?xml version="1.0" encoding="UTF-8" standalone="no"?>
<!DOCTYPE svg PUBLIC "-//W3C//DTD SVG 1.1//EN"
 "http://www.w3.org/Graphics/SVG/1.1/DTD/svg11.dtd">
<!-- Generated by graphviz version 11.0.0 (20240428.1522)
 -->
<!-- Pages: 1 -->
<svg width="1631pt" height="206pt"
 viewBox="0.00 0.00 1630.75 206.00" xmlns="http://www.w3.org/2000/svg" xmlns:xlink="http://www.w3.org/1999/xlink">
<g id="graph0" class="graph" transform="scale(1 1) rotate(0) translate(4 202)">
<polygon fill="white" stroke="none" points="-4,4 -4,-202 1626.75,-202 1626.75,4 -4,4"/>
<!-- 2675057172192 -->
<g id="node1" class="node">
<title>2675057172192</title>
<ellipse fill="green" stroke="black" cx="18" cy="-99" rx="18" ry="18"/>
</g>
<!-- 2675059979856 -->
<g id="node2" class="node">
<title>2675059979856</title>
<polygon fill="none" stroke="black" points="175.75,-117 72,-117 72,-81 175.75,-81 175.75,-117"/>
<text text-anchor="middle" x="123.88" y="-93.97" font-family="Times New Roman,serif" font-size="12.00">Resolve complaint</text>
</g>
<!-- 2675057172192&#45;&gt;2675059979856 -->
<g id="edge1" class="edge">
<title>2675057172192&#45;&gt;2675059979856</title>
<path fill="none" stroke="black" d="M36.15,-99C43.04,-99 51.44,-99 60.27,-99"/>
<polygon fill="black" stroke="black" points="60.08,-102.5 70.08,-99 60.08,-95.5 60.08,-102.5"/>
</g>
<!-- 2675060703104 -->
<g id="node3" class="node">
<title>2675060703104</title>
<polygon fill="none" stroke="black" points="296.75,-117 211.75,-117 211.75,-81 296.75,-81 296.75,-117"/>
<text text-anchor="middle" x="254.25" y="-93.97" font-family="Times New Roman,serif" font-size="12.00">Log complaint</text>
</g>
<!-- 2675059979856&#45;&gt;2675060703104 -->
<g id="edge2" class="edge">
<title>2675059979856&#45;&gt;2675060703104</title>
<path fill="none" stroke="black" d="M175.98,-99C183.87,-99 192.04,-99 199.98,-99"/>
<polygon fill="black" stroke="black" points="199.87,-102.5 209.87,-99 199.87,-95.5 199.87,-102.5"/>
</g>
<!-- 2675057176800 -->
<g id="node4" class="node">
<title>2675057176800</title>
<polygon fill="none" stroke="black" points="475.5,-117 332.75,-117 332.75,-81 475.5,-81 475.5,-117"/>
<text text-anchor="middle" x="404.12" y="-93.97" font-family="Times New Roman,serif" font-size="12.00">Reject and notify customer</text>
</g>
<!-- 2675060703104&#45;&gt;2675057176800 -->
<g id="edge3" class="edge">
<title>2675060703104&#45;&gt;2675057176800</title>
<path fill="none" stroke="black" d="M297.23,-99C304.8,-99 312.93,-99 321.19,-99"/>
<polygon fill="black" stroke="black" points="320.99,-102.5 330.99,-99 320.99,-95.5 320.99,-102.5"/>
</g>
<!-- 2675059973760 -->
<g id="node5" class="node">
<title>2675059973760</title>
<polygon fill="none" stroke="black" points="595,-117 511.5,-117 511.5,-81 595,-81 595,-117"/>
<text text-anchor="middle" x="553.25" y="-93.97" font-family="Times New Roman,serif" font-size="12.00">File complaint</text>
</g>
<!-- 2675057176800&#45;&gt;2675059973760 -->
<g id="edge4" class="edge">
<title>2675057176800&#45;&gt;2675059973760</title>
<path fill="none" stroke="black" d="M475.67,-99C483.9,-99 492.17,-99 500.09,-99"/>
<polygon fill="black" stroke="black" points="499.86,-102.5 509.86,-99 499.86,-95.5 499.86,-102.5"/>
</g>
<!-- 2675060702096 -->
<g id="node6" class="node">
<title>2675060702096</title>
<polygon fill="none" stroke="black" points="658,-117 631,-99 658,-81 685,-99 658,-117"/>
<text text-anchor="middle" x="658" y="-93.97" font-family="Times New Roman,serif" font-size="12.00">X</text>
</g>
<!-- 2675059973760&#45;&gt;2675060702096 -->
<g id="edge5" class="edge">
<title>2675059973760&#45;&gt;2675060702096</title>
<path fill="none" stroke="black" d="M595.45,-99C603.14,-99 611.16,-99 618.76,-99"/>
<polygon fill="black" stroke="black" points="618.74,-102.5 628.74,-99 618.74,-95.5 618.74,-102.5"/>
</g>
<!-- 2675059971696 -->
<g id="node7" class="node">
<title>2675059971696</title>
<polygon fill="none" stroke="black" points="873.5,-198 775,-198 775,-162 873.5,-162 873.5,-198"/>
<text text-anchor="middle" x="824.25" y="-174.97" font-family="Times New Roman,serif" font-size="12.00">Provide feedback</text>
</g>
<!-- 2675060702096&#45;&gt;2675059971696 -->
<g id="edge7" class="edge">
<title>2675060702096&#45;&gt;2675059971696</title>
<path fill="none" stroke="black" d="M668.84,-110.22C680.21,-122.49 700.06,-141.9 721,-153 734.19,-159.99 749.31,-165.26 763.8,-169.2"/>
<polygon fill="black" stroke="black" points="762.71,-172.54 773.26,-171.59 764.42,-165.75 762.71,-172.54"/>
</g>
<!-- 2675060559216 -->
<g id="node8" class="node">
<title>2675060559216</title>
<polygon fill="none" stroke="black" points="873.5,-144 775,-144 775,-108 873.5,-108 873.5,-144"/>
<text text-anchor="middle" x="824.25" y="-120.97" font-family="Times New Roman,serif" font-size="12.00">Provide feedback</text>
</g>
<!-- 2675060702096&#45;&gt;2675060559216 -->
<g id="edge8" class="edge">
<title>2675060702096&#45;&gt;2675060559216</title>
<path fill="none" stroke="black" d="M680.47,-102.53C701.51,-105.99 734.53,-111.42 763.53,-116.18"/>
<polygon fill="black" stroke="black" points="762.89,-119.63 773.33,-117.79 764.03,-112.72 762.89,-119.63"/>
</g>
<!-- 2675057166240 -->
<g id="node9" class="node">
<title>2675057166240</title>
<polygon fill="none" stroke="black" points="927.5,-90 721,-90 721,-54 927.5,-54 927.5,-90"/>
<text text-anchor="middle" x="824.25" y="-66.97" font-family="Times New Roman,serif" font-size="12.00">Assign complaint to relevant department</text>
</g>
<!-- 2675060702096&#45;&gt;2675057166240 -->
<g id="edge6" class="edge">
<title>2675060702096&#45;&gt;2675057166240</title>
<path fill="none" stroke="black" d="M680.47,-95.47C688.69,-94.12 698.74,-92.47 709.66,-90.67"/>
<polygon fill="black" stroke="black" points="710.05,-94.16 719.35,-89.08 708.91,-87.25 710.05,-94.16"/>
</g>
<!-- 2675057178240 -->
<g id="node10" class="node">
<title>2675057178240</title>
<polygon fill="none" stroke="black" points="927.5,-36 721,-36 721,0 927.5,0 927.5,-36"/>
<text text-anchor="middle" x="824.25" y="-12.97" font-family="Times New Roman,serif" font-size="12.00">Assign complaint to relevant department</text>
</g>
<!-- 2675060702096&#45;&gt;2675057178240 -->
<g id="edge9" class="edge">
<title>2675060702096&#45;&gt;2675057178240</title>
<path fill="none" stroke="black" d="M668.84,-87.78C680.21,-75.51 700.06,-56.1 721,-45 723.72,-43.56 726.52,-42.19 729.38,-40.89"/>
<polygon fill="black" stroke="black" points="730.68,-44.14 738.57,-37.07 727.99,-37.68 730.68,-44.14"/>
</g>
<!-- 2675057376624 -->
<g id="node13" class="node">
<title>2675057376624</title>
<polygon fill="none" stroke="black" points="1118.25,-197 963.5,-197 963.5,-161 1118.25,-161 1118.25,-197"/>
<text text-anchor="middle" x="1040.88" y="-173.97" font-family="Times New Roman,serif" font-size="12.00">Approve and notify customer</text>
</g>
<!-- 2675059971696&#45;&gt;2675057376624 -->
<g id="edge10" class="edge">
<title>2675059971696&#45;&gt;2675057376624</title>
<path fill="none" stroke="black" d="M873.95,-179.77C897,-179.67 925.26,-179.53 951.87,-179.41"/>
<polygon fill="black" stroke="black" points="951.66,-182.91 961.65,-179.36 951.63,-175.91 951.66,-182.91"/>
</g>
<!-- 2675062341904 -->
<g id="node11" class="node">
<title>2675062341904</title>
<polygon fill="none" stroke="black" points="1118.25,-143 963.5,-143 963.5,-107 1118.25,-107 1118.25,-143"/>
<text text-anchor="middle" x="1040.88" y="-119.97" font-family="Times New Roman,serif" font-size="12.00">Approve and notify customer</text>
</g>
<!-- 2675060559216&#45;&gt;2675062341904 -->
<g id="edge11" class="edge">
<title>2675060559216&#45;&gt;2675062341904</title>
<path fill="none" stroke="black" d="M873.95,-125.77C897,-125.67 925.26,-125.53 951.87,-125.41"/>
<polygon fill="black" stroke="black" points="951.66,-128.91 961.65,-125.36 951.63,-121.91 951.66,-128.91"/>
</g>
<!-- 2675062342576 -->
<g id="node12" class="node">
<title>2675062342576</title>
<polygon fill="none" stroke="black" points="1460.75,-97 1325.5,-97 1325.5,-61 1460.75,-61 1460.75,-97"/>
<text text-anchor="middle" x="1393.12" y="-73.97" font-family="Times New Roman,serif" font-size="12.00">Review complaint details</text>
</g>
<!-- 2675057166240&#45;&gt;2675062342576 -->
<g id="edge12" class="edge">
<title>2675057166240&#45;&gt;2675062342576</title>
<path fill="none" stroke="black" d="M927.91,-73.27C1038.97,-74.64 1213.58,-76.8 1314,-78.04"/>
<polygon fill="black" stroke="black" points="1313.72,-81.53 1323.76,-78.16 1313.8,-74.53 1313.72,-81.53"/>
</g>
<!-- 2675057173008 -->
<g id="node14" class="node">
<title>2675057173008</title>
<polygon fill="none" stroke="black" points="1108.5,-40 973.25,-40 973.25,-4 1108.5,-4 1108.5,-40"/>
<text text-anchor="middle" x="1040.88" y="-16.98" font-family="Times New Roman,serif" font-size="12.00">Review complaint details</text>
</g>
<!-- 2675057178240&#45;&gt;2675057173008 -->
<g id="edge13" class="edge">
<title>2675057178240&#45;&gt;2675057173008</title>
<path fill="none" stroke="black" d="M927.85,-19.91C939.21,-20.12 950.64,-20.34 961.62,-20.54"/>
<polygon fill="black" stroke="black" points="961.32,-24.04 971.38,-20.72 961.45,-17.04 961.32,-24.04"/>
</g>
<!-- 2675060568624 -->
<g id="node17" class="node">
<title>2675060568624</title>
<polygon fill="none" stroke="black" points="1289.5,-143 1154.25,-143 1154.25,-107 1289.5,-107 1289.5,-143"/>
<text text-anchor="middle" x="1221.88" y="-119.97" font-family="Times New Roman,serif" font-size="12.00">Review complaint details</text>
</g>
<!-- 2675062341904&#45;&gt;2675060568624 -->
<g id="edge14" class="edge">
<title>2675062341904&#45;&gt;2675060568624</title>
<path fill="none" stroke="black" d="M1118.57,-125C1126.47,-125 1134.51,-125 1142.44,-125"/>
<polygon fill="black" stroke="black" points="1142.42,-128.5 1152.42,-125 1142.42,-121.5 1142.42,-128.5"/>
</g>
<!-- 2675060702144 -->
<g id="node15" class="node">
<title>2675060702144</title>
<polygon fill="none" stroke="black" points="1523.75,-120 1496.75,-102 1523.75,-84 1550.75,-102 1523.75,-120"/>
<text text-anchor="middle" x="1523.75" y="-96.97" font-family="Times New Roman,serif" font-size="12.00">X</text>
</g>
<!-- 2675062342576&#45;&gt;2675060702144 -->
<g id="edge15" class="edge">
<title>2675062342576&#45;&gt;2675060702144</title>
<path fill="none" stroke="black" d="M1461.07,-90.97C1471.35,-92.81 1481.53,-94.63 1490.57,-96.25"/>
<polygon fill="black" stroke="black" points="1489.76,-99.66 1500.22,-97.97 1490.99,-92.77 1489.76,-99.66"/>
</g>
<!-- 2675062342240 -->
<g id="node16" class="node">
<title>2675062342240</title>
<polygon fill="none" stroke="black" points="1289.5,-197 1154.25,-197 1154.25,-161 1289.5,-161 1289.5,-197"/>
<text text-anchor="middle" x="1221.88" y="-173.97" font-family="Times New Roman,serif" font-size="12.00">Review complaint details</text>
</g>
<!-- 2675057376624&#45;&gt;2675062342240 -->
<g id="edge16" class="edge">
<title>2675057376624&#45;&gt;2675062342240</title>
<path fill="none" stroke="black" d="M1118.57,-179C1126.47,-179 1134.51,-179 1142.44,-179"/>
<polygon fill="black" stroke="black" points="1142.42,-182.5 1152.42,-179 1142.42,-175.5 1142.42,-182.5"/>
</g>
<!-- 2675057173776 -->
<g id="node18" class="node">
<title>2675057173776</title>
<polygon fill="none" stroke="black" points="1455.5,-43 1330.75,-43 1330.75,-7 1455.5,-7 1455.5,-43"/>
<text text-anchor="middle" x="1393.12" y="-19.98" font-family="Times New Roman,serif" font-size="12.00">Process reimbursement</text>
</g>
<!-- 2675057173008&#45;&gt;2675057173776 -->
<g id="edge17" class="edge">
<title>2675057173008&#45;&gt;2675057173776</title>
<path fill="none" stroke="black" d="M1108.99,-22.57C1169.21,-23.09 1257.37,-23.85 1319.27,-24.38"/>
<polygon fill="black" stroke="black" points="1318.97,-27.87 1329,-24.46 1319.03,-20.87 1318.97,-27.87"/>
</g>
<!-- 2675057167584 -->
<g id="node20" class="node">
<title>2675057167584</title>
<ellipse fill="orange" stroke="black" cx="1604.75" cy="-102" rx="18" ry="18"/>
</g>
<!-- 2675060702144&#45;&gt;2675057167584 -->
<g id="edge21" class="edge">
<title>2675060702144&#45;&gt;2675057167584</title>
<path fill="none" stroke="black" d="M1551.5,-102C1559.13,-102 1567.48,-102 1575.22,-102"/>
<polygon fill="black" stroke="black" points="1575.18,-105.5 1585.18,-102 1575.18,-98.5 1575.18,-105.5"/>
</g>
<!-- 2675060702768 -->
<g id="node19" class="node">
<title>2675060702768</title>
<polygon fill="none" stroke="black" points="1455.5,-193 1330.75,-193 1330.75,-157 1455.5,-157 1455.5,-193"/>
<text text-anchor="middle" x="1393.12" y="-169.97" font-family="Times New Roman,serif" font-size="12.00">Process reimbursement</text>
</g>
<!-- 2675062342240&#45;&gt;2675060702768 -->
<g id="edge20" class="edge">
<title>2675062342240&#45;&gt;2675060702768</title>
<path fill="none" stroke="black" d="M1289.77,-177.42C1299.4,-177.19 1309.35,-176.96 1319.09,-176.73"/>
<polygon fill="black" stroke="black" points="1318.97,-180.23 1328.88,-176.49 1318.8,-173.23 1318.97,-180.23"/>
</g>
<!-- 2675060568624&#45;&gt;2675060702144 -->
<g id="edge18" class="edge">
<title>2675060568624&#45;&gt;2675060702144</title>
<path fill="none" stroke="black" d="M1289.8,-119.87C1350.91,-115.18 1438.87,-108.43 1487.35,-104.72"/>
<polygon fill="black" stroke="black" points="1487.57,-108.21 1497.27,-103.95 1487.03,-101.23 1487.57,-108.21"/>
</g>
<!-- 2675057173776&#45;&gt;2675060702144 -->
<g id="edge19" class="edge">
<title>2675057173776&#45;&gt;2675060702144</title>
<path fill="none" stroke="black" d="M1444.38,-43.49C1450.02,-46.11 1455.59,-48.96 1460.75,-52 1476.17,-61.07 1491.85,-73.75 1503.58,-84.07"/>
<polygon fill="black" stroke="black" points="1501.16,-86.61 1510.93,-90.71 1505.85,-81.41 1501.16,-86.61"/>
</g>
<!-- 2675060702768&#45;&gt;2675060702144 -->
<g id="edge22" class="edge">
<title>2675060702768&#45;&gt;2675060702144</title>
<path fill="none" stroke="black" d="M1428.86,-156.59C1439.17,-151.03 1450.46,-144.85 1460.75,-139 1473.6,-131.7 1487.77,-123.27 1499.31,-116.31"/>
<polygon fill="black" stroke="black" points="1501.03,-119.36 1507.76,-111.18 1497.4,-113.37 1501.03,-119.36"/>
</g>
</g>
</svg>
