<?xml version="1.0" encoding="UTF-8" standalone="no"?>
<!DOCTYPE svg PUBLIC "-//W3C//DTD SVG 1.1//EN"
 "http://www.w3.org/Graphics/SVG/1.1/DTD/svg11.dtd">
<!-- Generated by graphviz version 11.0.0 (20240428.1522)
 -->
<!-- Pages: 1 -->
<svg width="1539pt" height="144pt"
 viewBox="0.00 0.00 1539.00 144.00" xmlns="http://www.w3.org/2000/svg" xmlns:xlink="http://www.w3.org/1999/xlink">
<g id="graph0" class="graph" transform="scale(1 1) rotate(0) translate(4 140)">
<polygon fill="white" stroke="none" points="-4,4 -4,-140 1535,-140 1535,4 -4,4"/>
<!-- 2675060560896 -->
<g id="node1" class="node">
<title>2675060560896</title>
<ellipse fill="green" stroke="black" cx="18" cy="-45" rx="18" ry="18"/>
</g>
<!-- 2675058313984 -->
<g id="node2" class="node">
<title>2675058313984</title>
<polygon fill="none" stroke="black" points="155.5,-63 72,-63 72,-27 155.5,-27 155.5,-63"/>
<text text-anchor="middle" x="113.75" y="-39.98" font-family="Times New Roman,serif" font-size="12.00">File complaint</text>
</g>
<!-- 2675060560896&#45;&gt;2675058313984 -->
<g id="edge1" class="edge">
<title>2675060560896&#45;&gt;2675058313984</title>
<path fill="none" stroke="black" d="M36.2,-45C43.11,-45 51.48,-45 60.11,-45"/>
<polygon fill="black" stroke="black" points="60.01,-48.5 70.01,-45 60.01,-41.5 60.01,-48.5"/>
</g>
<!-- 2675057364288 -->
<g id="node3" class="node">
<title>2675057364288</title>
<polygon fill="none" stroke="black" points="276.5,-63 191.5,-63 191.5,-27 276.5,-27 276.5,-63"/>
<text text-anchor="middle" x="234" y="-39.98" font-family="Times New Roman,serif" font-size="12.00">Log complaint</text>
</g>
<!-- 2675058313984&#45;&gt;2675057364288 -->
<g id="edge2" class="edge">
<title>2675058313984&#45;&gt;2675057364288</title>
<path fill="none" stroke="black" d="M155.78,-45C163.57,-45 171.84,-45 179.95,-45"/>
<polygon fill="black" stroke="black" points="179.73,-48.5 189.73,-45 179.73,-41.5 179.73,-48.5"/>
</g>
<!-- 2675057377008 -->
<g id="node4" class="node">
<title>2675057377008</title>
<polygon fill="none" stroke="black" points="339.5,-63 312.5,-45 339.5,-27 366.5,-45 339.5,-63"/>
<text text-anchor="middle" x="339.5" y="-39.98" font-family="Times New Roman,serif" font-size="12.00">+</text>
</g>
<!-- 2675057364288&#45;&gt;2675057377008 -->
<g id="edge3" class="edge">
<title>2675057364288&#45;&gt;2675057377008</title>
<path fill="none" stroke="black" d="M276.8,-45C284.62,-45 292.76,-45 300.46,-45"/>
<polygon fill="black" stroke="black" points="300.21,-48.5 310.21,-45 300.21,-41.5 300.21,-48.5"/>
</g>
<!-- 2675057362992 -->
<g id="node5" class="node">
<title>2675057362992</title>
<polygon fill="none" stroke="black" points="609,-88 402.5,-88 402.5,-52 609,-52 609,-88"/>
<text text-anchor="middle" x="505.75" y="-64.97" font-family="Times New Roman,serif" font-size="12.00">Assign complaint to relevant department</text>
</g>
<!-- 2675057377008&#45;&gt;2675057362992 -->
<g id="edge4" class="edge">
<title>2675057377008&#45;&gt;2675057362992</title>
<path fill="none" stroke="black" d="M362.31,-48.32C370.49,-49.57 380.45,-51.08 391.27,-52.73"/>
<polygon fill="black" stroke="black" points="390.42,-56.14 400.84,-54.18 391.48,-49.22 390.42,-56.14"/>
</g>
<!-- 2675057360000 -->
<g id="node6" class="node">
<title>2675057360000</title>
<polygon fill="none" stroke="black" points="787.75,-36 645,-36 645,0 787.75,0 787.75,-36"/>
<text text-anchor="middle" x="716.38" y="-12.97" font-family="Times New Roman,serif" font-size="12.00">Reject and notify customer</text>
</g>
<!-- 2675057377008&#45;&gt;2675057360000 -->
<g id="edge5" class="edge">
<title>2675057377008&#45;&gt;2675057360000</title>
<path fill="none" stroke="black" d="M364.52,-43.27C417.72,-39.44 547.57,-30.09 633.5,-23.9"/>
<polygon fill="black" stroke="black" points="633.56,-27.4 643.29,-23.19 633.06,-20.42 633.56,-27.4"/>
</g>
<!-- 2675057374800 -->
<g id="node7" class="node">
<title>2675057374800</title>
<polygon fill="none" stroke="black" points="784,-90 648.75,-90 648.75,-54 784,-54 784,-90"/>
<text text-anchor="middle" x="716.38" y="-66.97" font-family="Times New Roman,serif" font-size="12.00">Review complaint details</text>
</g>
<!-- 2675057362992&#45;&gt;2675057374800 -->
<g id="edge6" class="edge">
<title>2675057362992&#45;&gt;2675057374800</title>
<path fill="none" stroke="black" d="M609.23,-70.98C618.58,-71.07 627.94,-71.16 637.03,-71.25"/>
<polygon fill="black" stroke="black" points="636.82,-74.75 646.85,-71.34 636.88,-67.75 636.82,-74.75"/>
</g>
<!-- 2675057366064 -->
<g id="node8" class="node">
<title>2675057366064</title>
<polygon fill="none" stroke="black" points="1292.25,-82 1265.25,-64 1292.25,-46 1319.25,-64 1292.25,-82"/>
<text text-anchor="middle" x="1292.25" y="-58.98" font-family="Times New Roman,serif" font-size="12.00">+</text>
</g>
<!-- 2675057360000&#45;&gt;2675057366064 -->
<g id="edge7" class="edge">
<title>2675057360000&#45;&gt;2675057366064</title>
<path fill="none" stroke="black" d="M787.99,-12.43C887.73,-6.4 1074.91,-1.85 1229.25,-37 1242.13,-39.93 1255.66,-45.5 1266.79,-50.82"/>
<polygon fill="black" stroke="black" points="1265.14,-53.91 1275.64,-55.28 1268.28,-47.66 1265.14,-53.91"/>
</g>
<!-- 2675057367600 -->
<g id="node9" class="node">
<title>2675057367600</title>
<polygon fill="none" stroke="black" points="850.75,-90 823.75,-72 850.75,-54 877.75,-72 850.75,-90"/>
<text text-anchor="middle" x="850.75" y="-66.97" font-family="Times New Roman,serif" font-size="12.00">+</text>
</g>
<!-- 2675057374800&#45;&gt;2675057367600 -->
<g id="edge8" class="edge">
<title>2675057374800&#45;&gt;2675057367600</title>
<path fill="none" stroke="black" d="M784.34,-72C793.67,-72 802.97,-72 811.52,-72"/>
<polygon fill="black" stroke="black" points="811.5,-75.5 821.5,-72 811.5,-68.5 811.5,-75.5"/>
</g>
<!-- 2675057374032 -->
<g id="node10" class="node">
<title>2675057374032</title>
<polygon fill="none" stroke="black" points="1459,-82 1355.25,-82 1355.25,-46 1459,-46 1459,-82"/>
<text text-anchor="middle" x="1407.12" y="-58.98" font-family="Times New Roman,serif" font-size="12.00">Resolve complaint</text>
</g>
<!-- 2675057366064&#45;&gt;2675057374032 -->
<g id="edge9" class="edge">
<title>2675057366064&#45;&gt;2675057374032</title>
<path fill="none" stroke="black" d="M1320,-64C1327.17,-64 1335.24,-64 1343.48,-64"/>
<polygon fill="black" stroke="black" points="1343.25,-67.5 1353.25,-64 1343.25,-60.5 1343.25,-67.5"/>
</g>
<!-- 2675056222496 -->
<g id="node11" class="node">
<title>2675056222496</title>
<polygon fill="none" stroke="black" points="1068.5,-134 913.75,-134 913.75,-98 1068.5,-98 1068.5,-134"/>
<text text-anchor="middle" x="991.12" y="-110.97" font-family="Times New Roman,serif" font-size="12.00">Approve and notify customer</text>
</g>
<!-- 2675057367600&#45;&gt;2675056222496 -->
<g id="edge10" class="edge">
<title>2675057367600&#45;&gt;2675056222496</title>
<path fill="none" stroke="black" d="M869.84,-77.75C883.19,-82 902.28,-88.07 921.33,-94.12"/>
<polygon fill="black" stroke="black" points="920.14,-97.42 930.74,-97.12 922.27,-90.75 920.14,-97.42"/>
</g>
<!-- 2675058316576 -->
<g id="node12" class="node">
<title>2675058316576</title>
<polygon fill="none" stroke="black" points="1216.12,-82 1117.62,-82 1117.62,-46 1216.12,-46 1216.12,-82"/>
<text text-anchor="middle" x="1166.88" y="-58.98" font-family="Times New Roman,serif" font-size="12.00">Provide feedback</text>
</g>
<!-- 2675057367600&#45;&gt;2675058316576 -->
<g id="edge11" class="edge">
<title>2675057367600&#45;&gt;2675058316576</title>
<path fill="none" stroke="black" d="M877.46,-71.35C927.08,-70.08 1037.23,-67.28 1106.14,-65.52"/>
<polygon fill="black" stroke="black" points="1105.83,-69.03 1115.73,-65.28 1105.65,-62.03 1105.83,-69.03"/>
</g>
<!-- 2675060561712 -->
<g id="node14" class="node">
<title>2675060561712</title>
<ellipse fill="orange" stroke="black" cx="1513" cy="-64" rx="18" ry="18"/>
</g>
<!-- 2675057374032&#45;&gt;2675060561712 -->
<g id="edge12" class="edge">
<title>2675057374032&#45;&gt;2675060561712</title>
<path fill="none" stroke="black" d="M1459.45,-64C1467.67,-64 1475.91,-64 1483.35,-64"/>
<polygon fill="black" stroke="black" points="1483.09,-67.5 1493.09,-64 1483.09,-60.5 1483.09,-67.5"/>
</g>
<!-- 2675057720208 -->
<g id="node13" class="node">
<title>2675057720208</title>
<polygon fill="none" stroke="black" points="1229.25,-136 1104.5,-136 1104.5,-100 1229.25,-100 1229.25,-136"/>
<text text-anchor="middle" x="1166.88" y="-112.97" font-family="Times New Roman,serif" font-size="12.00">Process reimbursement</text>
</g>
<!-- 2675056222496&#45;&gt;2675057720208 -->
<g id="edge14" class="edge">
<title>2675056222496&#45;&gt;2675057720208</title>
<path fill="none" stroke="black" d="M1068.84,-116.88C1076.78,-116.97 1084.84,-117.07 1092.74,-117.16"/>
<polygon fill="black" stroke="black" points="1092.61,-120.66 1102.65,-117.27 1092.69,-113.66 1092.61,-120.66"/>
</g>
<!-- 2675058316576&#45;&gt;2675057366064 -->
<g id="edge13" class="edge">
<title>2675058316576&#45;&gt;2675057366064</title>
<path fill="none" stroke="black" d="M1216.28,-64C1228.64,-64 1241.74,-64 1253.47,-64"/>
<polygon fill="black" stroke="black" points="1253.16,-67.5 1263.16,-64 1253.16,-60.5 1253.16,-67.5"/>
</g>
<!-- 2675057720208&#45;&gt;2675057366064 -->
<g id="edge15" class="edge">
<title>2675057720208&#45;&gt;2675057366064</title>
<path fill="none" stroke="black" d="M1209.99,-99.57C1228.25,-91.57 1249.07,-82.46 1265.06,-75.46"/>
<polygon fill="black" stroke="black" points="1266.13,-78.82 1273.88,-71.6 1263.32,-72.4 1266.13,-78.82"/>
</g>
</g>
</svg>
