<?xml version="1.0" encoding="UTF-8" standalone="no"?>
<!DOCTYPE svg PUBLIC "-//W3C//DTD SVG 1.1//EN"
 "http://www.w3.org/Graphics/SVG/1.1/DTD/svg11.dtd">
<!-- Generated by graphviz version 11.0.0 (20240428.1522)
 -->
<!-- Pages: 1 -->
<svg width="1321pt" height="98pt"
 viewBox="0.00 0.00 1320.50 98.00" xmlns="http://www.w3.org/2000/svg" xmlns:xlink="http://www.w3.org/1999/xlink">
<g id="graph0" class="graph" transform="scale(1 1) rotate(0) translate(4 94)">
<polygon fill="white" stroke="none" points="-4,4 -4,-94 1316.5,-94 1316.5,4 -4,4"/>
<!-- 2675059370720 -->
<g id="node1" class="node">
<title>2675059370720</title>
<ellipse fill="green" stroke="black" cx="18" cy="-45" rx="18" ry="18"/>
</g>
<!-- 2675057790656 -->
<g id="node2" class="node">
<title>2675057790656</title>
<polygon fill="none" stroke="black" points="175.75,-63 72,-63 72,-27 175.75,-27 175.75,-63"/>
<text text-anchor="middle" x="123.88" y="-39.98" font-family="Times New Roman,serif" font-size="12.00">Resolve complaint</text>
</g>
<!-- 2675059370720&#45;&gt;2675057790656 -->
<g id="edge1" class="edge">
<title>2675059370720&#45;&gt;2675057790656</title>
<path fill="none" stroke="black" d="M36.15,-45C43.04,-45 51.44,-45 60.27,-45"/>
<polygon fill="black" stroke="black" points="60.08,-48.5 70.08,-45 60.08,-41.5 60.08,-48.5"/>
</g>
<!-- 2675057796080 -->
<g id="node3" class="node">
<title>2675057796080</title>
<polygon fill="none" stroke="black" points="295.25,-63 211.75,-63 211.75,-27 295.25,-27 295.25,-63"/>
<text text-anchor="middle" x="253.5" y="-39.98" font-family="Times New Roman,serif" font-size="12.00">File complaint</text>
</g>
<!-- 2675057790656&#45;&gt;2675057796080 -->
<g id="edge2" class="edge">
<title>2675057790656&#45;&gt;2675057796080</title>
<path fill="none" stroke="black" d="M176.05,-45C183.97,-45 192.16,-45 200.11,-45"/>
<polygon fill="black" stroke="black" points="200,-48.5 210,-45 200,-41.5 200,-48.5"/>
</g>
<!-- 2675058349776 -->
<g id="node4" class="node">
<title>2675058349776</title>
<polygon fill="none" stroke="black" points="358.25,-63 331.25,-45 358.25,-27 385.25,-45 358.25,-63"/>
<text text-anchor="middle" x="358.25" y="-39.98" font-family="Times New Roman,serif" font-size="12.00">X</text>
</g>
<!-- 2675057796080&#45;&gt;2675058349776 -->
<g id="edge3" class="edge">
<title>2675057796080&#45;&gt;2675058349776</title>
<path fill="none" stroke="black" d="M295.7,-45C303.39,-45 311.41,-45 319.01,-45"/>
<polygon fill="black" stroke="black" points="318.99,-48.5 328.99,-45 318.99,-41.5 318.99,-48.5"/>
</g>
<!-- 2675057798480 -->
<g id="node5" class="node">
<title>2675057798480</title>
<polygon fill="none" stroke="black" points="627.75,-90 421.25,-90 421.25,-54 627.75,-54 627.75,-90"/>
<text text-anchor="middle" x="524.5" y="-66.97" font-family="Times New Roman,serif" font-size="12.00">Assign complaint to relevant department</text>
</g>
<!-- 2675058349776&#45;&gt;2675057798480 -->
<g id="edge5" class="edge">
<title>2675058349776&#45;&gt;2675057798480</title>
<path fill="none" stroke="black" d="M380.72,-48.53C388.94,-49.88 398.99,-51.53 409.91,-53.33"/>
<polygon fill="black" stroke="black" points="409.16,-56.75 419.6,-54.92 410.3,-49.84 409.16,-56.75"/>
</g>
<!-- 2675057798048 -->
<g id="node6" class="node">
<title>2675057798048</title>
<polygon fill="none" stroke="black" points="567,-36 482,-36 482,0 567,0 567,-36"/>
<text text-anchor="middle" x="524.5" y="-12.97" font-family="Times New Roman,serif" font-size="12.00">Log complaint</text>
</g>
<!-- 2675058349776&#45;&gt;2675057798048 -->
<g id="edge4" class="edge">
<title>2675058349776&#45;&gt;2675057798048</title>
<path fill="none" stroke="black" d="M380.72,-41.47C403.39,-37.74 439.99,-31.73 470.46,-26.72"/>
<polygon fill="black" stroke="black" points="471,-30.18 480.3,-25.1 469.87,-23.27 471,-30.18"/>
</g>
<!-- 2675057444336 -->
<g id="node7" class="node">
<title>2675057444336</title>
<polygon fill="none" stroke="black" points="799,-90 663.75,-90 663.75,-54 799,-54 799,-90"/>
<text text-anchor="middle" x="731.38" y="-66.97" font-family="Times New Roman,serif" font-size="12.00">Review complaint details</text>
</g>
<!-- 2675057798480&#45;&gt;2675057444336 -->
<g id="edge6" class="edge">
<title>2675057798480&#45;&gt;2675057444336</title>
<path fill="none" stroke="black" d="M628.24,-72C636.29,-72 644.33,-72 652.18,-72"/>
<polygon fill="black" stroke="black" points="651.99,-75.5 661.99,-72 651.99,-68.5 651.99,-75.5"/>
</g>
<!-- 2675057799968 -->
<g id="node8" class="node">
<title>2675057799968</title>
<polygon fill="none" stroke="black" points="983.75,-36 841,-36 841,0 983.75,0 983.75,-36"/>
<text text-anchor="middle" x="912.38" y="-12.97" font-family="Times New Roman,serif" font-size="12.00">Reject and notify customer</text>
</g>
<!-- 2675057798048&#45;&gt;2675057799968 -->
<g id="edge7" class="edge">
<title>2675057798048&#45;&gt;2675057799968</title>
<path fill="none" stroke="black" d="M567.16,-18C629.7,-18 749.07,-18 829.45,-18"/>
<polygon fill="black" stroke="black" points="829.02,-21.5 839.02,-18 829.02,-14.5 829.02,-21.5"/>
</g>
<!-- 2675057800640 -->
<g id="node10" class="node">
<title>2675057800640</title>
<polygon fill="none" stroke="black" points="989.75,-90 835,-90 835,-54 989.75,-54 989.75,-90"/>
<text text-anchor="middle" x="912.38" y="-66.97" font-family="Times New Roman,serif" font-size="12.00">Approve and notify customer</text>
</g>
<!-- 2675057444336&#45;&gt;2675057800640 -->
<g id="edge8" class="edge">
<title>2675057444336&#45;&gt;2675057800640</title>
<path fill="none" stroke="black" d="M799.28,-72C807.11,-72 815.19,-72 823.25,-72"/>
<polygon fill="black" stroke="black" points="823.1,-75.5 833.1,-72 823.1,-68.5 823.1,-75.5"/>
</g>
<!-- 2675057176656 -->
<g id="node9" class="node">
<title>2675057176656</title>
<polygon fill="none" stroke="black" points="1213.5,-63 1186.5,-45 1213.5,-27 1240.5,-45 1213.5,-63"/>
<text text-anchor="middle" x="1213.5" y="-39.98" font-family="Times New Roman,serif" font-size="12.00">X</text>
</g>
<!-- 2675057799968&#45;&gt;2675057176656 -->
<g id="edge9" class="edge">
<title>2675057799968&#45;&gt;2675057176656</title>
<path fill="none" stroke="black" d="M983.88,-24.36C1044.74,-29.86 1130.1,-37.56 1177.42,-41.83"/>
<polygon fill="black" stroke="black" points="1177.09,-45.32 1187.37,-42.73 1177.72,-38.35 1177.09,-45.32"/>
</g>
<!-- 2675059372208 -->
<g id="node12" class="node">
<title>2675059372208</title>
<ellipse fill="orange" stroke="black" cx="1294.5" cy="-45" rx="18" ry="18"/>
</g>
<!-- 2675057176656&#45;&gt;2675059372208 -->
<g id="edge11" class="edge">
<title>2675057176656&#45;&gt;2675059372208</title>
<path fill="none" stroke="black" d="M1241.25,-45C1248.88,-45 1257.23,-45 1264.97,-45"/>
<polygon fill="black" stroke="black" points="1264.93,-48.5 1274.93,-45 1264.93,-41.5 1264.93,-48.5"/>
</g>
<!-- 2675057790464 -->
<g id="node11" class="node">
<title>2675057790464</title>
<polygon fill="none" stroke="black" points="1150.5,-88 1025.75,-88 1025.75,-52 1150.5,-52 1150.5,-88"/>
<text text-anchor="middle" x="1088.12" y="-64.97" font-family="Times New Roman,serif" font-size="12.00">Process reimbursement</text>
</g>
<!-- 2675057800640&#45;&gt;2675057790464 -->
<g id="edge10" class="edge">
<title>2675057800640&#45;&gt;2675057790464</title>
<path fill="none" stroke="black" d="M990.09,-71.12C998.03,-71.03 1006.09,-70.93 1013.99,-70.84"/>
<polygon fill="black" stroke="black" points="1013.94,-74.34 1023.9,-70.73 1013.86,-67.34 1013.94,-74.34"/>
</g>
<!-- 2675057790464&#45;&gt;2675057176656 -->
<g id="edge12" class="edge">
<title>2675057790464&#45;&gt;2675057176656</title>
<path fill="none" stroke="black" d="M1150.81,-57.5C1161.32,-55.37 1171.82,-53.24 1181.11,-51.36"/>
<polygon fill="black" stroke="black" points="1181.54,-54.85 1190.64,-49.43 1180.15,-47.98 1181.54,-54.85"/>
</g>
</g>
</svg>
