<?xml version="1.0" encoding="UTF-8" standalone="no"?>
<!DOCTYPE svg PUBLIC "-//W3C//DTD SVG 1.1//EN"
 "http://www.w3.org/Graphics/SVG/1.1/DTD/svg11.dtd">
<!-- Generated by graphviz version 6.0.1 (20220911.1526)
 -->
<!-- Pages: 1 -->
<svg width="3901pt" height="152pt"
 viewBox="0.00 0.00 3901.00 152.00" xmlns="http://www.w3.org/2000/svg" xmlns:xlink="http://www.w3.org/1999/xlink">
<g id="graph0" class="graph" transform="scale(1 1) rotate(0) translate(4 148)">
<polygon fill="white" stroke="none" points="-4,4 -4,-148 3897,-148 3897,4 -4,4"/>
<!-- 2058994295296 -->
<g id="node1" class="node">
<title>2058994295296</title>
<ellipse fill="green" stroke="black" cx="18" cy="-72" rx="18" ry="18"/>
</g>
<!-- 2058994288576 -->
<g id="node2" class="node">
<title>2058994288576</title>
<polygon fill="none" stroke="black" points="164,-90 72,-90 72,-54 164,-54 164,-90"/>
<text text-anchor="middle" x="118" y="-68.9" font-family="Times New Roman,serif" font-size="12.00">Send notification</text>
</g>
<!-- 2058994295296&#45;&gt;2058994288576 -->
<g id="edge1" class="edge">
<title>2058994295296&#45;&gt;2058994288576</title>
<path fill="none" stroke="black" d="M36.07,-72C43.4,-72 52.42,-72 61.74,-72"/>
<polygon fill="black" stroke="black" points="61.92,-75.5 71.92,-72 61.92,-68.5 61.92,-75.5"/>
</g>
<!-- 2059022117872 -->
<g id="node3" class="node">
<title>2059022117872</title>
<polygon fill="none" stroke="black" points="342,-90 200,-90 200,-54 342,-54 342,-90"/>
<text text-anchor="middle" x="271" y="-68.9" font-family="Times New Roman,serif" font-size="12.00">Prepare financial statements</text>
</g>
<!-- 2058994288576&#45;&gt;2059022117872 -->
<g id="edge2" class="edge">
<title>2058994288576&#45;&gt;2059022117872</title>
<path fill="none" stroke="black" d="M164.3,-72C172.36,-72 180.96,-72 189.65,-72"/>
<polygon fill="black" stroke="black" points="189.87,-75.5 199.87,-72 189.87,-68.5 189.87,-75.5"/>
</g>
<!-- 2058994286896 -->
<g id="node4" class="node">
<title>2058994286896</title>
<polygon fill="none" stroke="black" points="524,-90 378,-90 378,-54 524,-54 524,-90"/>
<text text-anchor="middle" x="451" y="-68.9" font-family="Times New Roman,serif" font-size="12.00">Gather necessary documents</text>
</g>
<!-- 2059022117872&#45;&gt;2058994286896 -->
<g id="edge3" class="edge">
<title>2059022117872&#45;&gt;2058994286896</title>
<path fill="none" stroke="black" d="M342.09,-72C350.56,-72 359.26,-72 367.87,-72"/>
<polygon fill="black" stroke="black" points="367.92,-75.5 377.92,-72 367.92,-68.5 367.92,-75.5"/>
</g>
<!-- 2059022120224 -->
<g id="node5" class="node">
<title>2059022120224</title>
<polygon fill="none" stroke="black" points="693,-90 560,-90 560,-54 693,-54 693,-90"/>
<text text-anchor="middle" x="626.5" y="-68.9" font-family="Times New Roman,serif" font-size="12.00">Check regulatory updates</text>
</g>
<!-- 2058994286896&#45;&gt;2059022120224 -->
<g id="edge4" class="edge">
<title>2058994286896&#45;&gt;2059022120224</title>
<path fill="none" stroke="black" d="M524.07,-72C532.48,-72 541.07,-72 549.53,-72"/>
<polygon fill="black" stroke="black" points="549.76,-75.5 559.76,-72 549.76,-68.5 549.76,-75.5"/>
</g>
<!-- 2059022118544 -->
<g id="node6" class="node">
<title>2059022118544</title>
<polygon fill="none" stroke="black" points="829,-90 729,-90 729,-54 829,-54 829,-90"/>
<text text-anchor="middle" x="779" y="-68.9" font-family="Times New Roman,serif" font-size="12.00">Submit documents</text>
</g>
<!-- 2059022120224&#45;&gt;2059022118544 -->
<g id="edge5" class="edge">
<title>2059022120224&#45;&gt;2059022118544</title>
<path fill="none" stroke="black" d="M693.07,-72C701.63,-72 710.36,-72 718.81,-72"/>
<polygon fill="black" stroke="black" points="718.94,-75.5 728.94,-72 718.94,-68.5 718.94,-75.5"/>
</g>
<!-- 2059022122240 -->
<g id="node7" class="node">
<title>2059022122240</title>
<polygon fill="none" stroke="black" points="967,-90 865,-90 865,-54 967,-54 967,-90"/>
<text text-anchor="middle" x="916" y="-68.9" font-family="Times New Roman,serif" font-size="12.00">Review submission</text>
</g>
<!-- 2059022118544&#45;&gt;2059022122240 -->
<g id="edge6" class="edge">
<title>2059022118544&#45;&gt;2059022122240</title>
<path fill="none" stroke="black" d="M829.12,-72C837.37,-72 846.03,-72 854.53,-72"/>
<polygon fill="black" stroke="black" points="854.78,-75.5 864.78,-72 854.78,-68.5 854.78,-75.5"/>
</g>
<!-- 2058994287232 -->
<g id="node8" class="node">
<title>2058994287232</title>
<polygon fill="none" stroke="black" points="1191,-90 1003,-90 1003,-54 1191,-54 1191,-90"/>
<text text-anchor="middle" x="1097" y="-68.9" font-family="Times New Roman,serif" font-size="12.00">Request clarifications of discrepancies</text>
</g>
<!-- 2059022122240&#45;&gt;2058994287232 -->
<g id="edge7" class="edge">
<title>2059022122240&#45;&gt;2058994287232</title>
<path fill="none" stroke="black" d="M967.34,-72C975.45,-72 984.1,-72 992.93,-72"/>
<polygon fill="black" stroke="black" points="992.96,-75.5 1002.96,-72 992.96,-68.5 992.96,-75.5"/>
</g>
<!-- 2059022121904 -->
<g id="node9" class="node">
<title>2059022121904</title>
<polygon fill="none" stroke="black" points="1338,-90 1227,-90 1227,-54 1338,-54 1338,-90"/>
<text text-anchor="middle" x="1282.5" y="-68.9" font-family="Times New Roman,serif" font-size="12.00">Receive clarifications</text>
</g>
<!-- 2058994287232&#45;&gt;2059022121904 -->
<g id="edge8" class="edge">
<title>2058994287232&#45;&gt;2059022121904</title>
<path fill="none" stroke="black" d="M1191.09,-72C1199.8,-72 1208.49,-72 1216.84,-72"/>
<polygon fill="black" stroke="black" points="1216.85,-75.5 1226.85,-72 1216.85,-68.5 1216.85,-75.5"/>
</g>
<!-- 2059022121616 -->
<g id="node10" class="node">
<title>2059022121616</title>
<polygon fill="none" stroke="black" points="1401,-90 1374,-72 1401,-54 1428,-72 1401,-90"/>
<text text-anchor="middle" x="1401" y="-68.9" font-family="Times New Roman,serif" font-size="12.00">+</text>
</g>
<!-- 2059022121904&#45;&gt;2059022121616 -->
<g id="edge9" class="edge">
<title>2059022121904&#45;&gt;2059022121616</title>
<path fill="none" stroke="black" d="M1338.34,-72C1346.96,-72 1355.67,-72 1363.73,-72"/>
<polygon fill="black" stroke="black" points="1363.88,-75.5 1373.88,-72 1363.88,-68.5 1363.88,-75.5"/>
</g>
<!-- 2059022118880 -->
<g id="node11" class="node">
<title>2059022118880</title>
<polygon fill="none" stroke="black" points="1596.5,-144 1464.5,-144 1464.5,-108 1596.5,-108 1596.5,-144"/>
<text text-anchor="middle" x="1530.5" y="-122.9" font-family="Times New Roman,serif" font-size="12.00">Evaluate operational risks</text>
</g>
<!-- 2059022121616&#45;&gt;2059022118880 -->
<g id="edge11" class="edge">
<title>2059022121616&#45;&gt;2059022118880</title>
<path fill="none" stroke="black" d="M1417.76,-78.97C1430.27,-84.47 1448.22,-92.31 1464,-99 1467.89,-100.65 1471.91,-102.34 1475.96,-104.03"/>
<polygon fill="black" stroke="black" points="1474.83,-107.35 1485.41,-107.96 1477.52,-100.89 1474.83,-107.35"/>
</g>
<!-- 2059022121568 -->
<g id="node12" class="node">
<title>2059022121568</title>
<polygon fill="none" stroke="black" points="1589.5,-90 1471.5,-90 1471.5,-54 1589.5,-54 1589.5,-90"/>
<text text-anchor="middle" x="1530.5" y="-68.9" font-family="Times New Roman,serif" font-size="12.00">Evaluate financial risks</text>
</g>
<!-- 2059022121616&#45;&gt;2059022121568 -->
<g id="edge12" class="edge">
<title>2059022121616&#45;&gt;2059022121568</title>
<path fill="none" stroke="black" d="M1428.11,-72C1437.8,-72 1449.3,-72 1461.02,-72"/>
<polygon fill="black" stroke="black" points="1461.33,-75.5 1471.33,-72 1461.33,-68.5 1461.33,-75.5"/>
</g>
<!-- 2058994288912 -->
<g id="node13" class="node">
<title>2058994288912</title>
<polygon fill="none" stroke="black" points="1597,-36 1464,-36 1464,0 1597,0 1597,-36"/>
<text text-anchor="middle" x="1530.5" y="-14.9" font-family="Times New Roman,serif" font-size="12.00">Evaluate compliance risks</text>
</g>
<!-- 2059022121616&#45;&gt;2058994288912 -->
<g id="edge10" class="edge">
<title>2059022121616&#45;&gt;2058994288912</title>
<path fill="none" stroke="black" d="M1417.76,-65.03C1430.27,-59.53 1448.22,-51.69 1464,-45 1467.89,-43.35 1471.91,-41.66 1475.96,-39.97"/>
<polygon fill="black" stroke="black" points="1477.52,-43.11 1485.41,-36.04 1474.83,-36.65 1477.52,-43.11"/>
</g>
<!-- 2058994289344 -->
<g id="node14" class="node">
<title>2058994289344</title>
<polygon fill="none" stroke="black" points="1660,-90 1633,-72 1660,-54 1687,-72 1660,-90"/>
<text text-anchor="middle" x="1660" y="-68.9" font-family="Times New Roman,serif" font-size="12.00">+</text>
</g>
<!-- 2059022118880&#45;&gt;2058994289344 -->
<g id="edge13" class="edge">
<title>2059022118880&#45;&gt;2058994289344</title>
<path fill="none" stroke="black" d="M1575.59,-107.96C1582.76,-104.99 1590.09,-101.93 1597,-99 1609.21,-93.83 1622.71,-87.96 1633.99,-83.03"/>
<polygon fill="black" stroke="black" points="1635.49,-86.19 1643.24,-78.97 1632.67,-79.78 1635.49,-86.19"/>
</g>
<!-- 2059022121568&#45;&gt;2058994289344 -->
<g id="edge14" class="edge">
<title>2059022121568&#45;&gt;2058994289344</title>
<path fill="none" stroke="black" d="M1589.65,-72C1600.86,-72 1612.31,-72 1622.58,-72"/>
<polygon fill="black" stroke="black" points="1622.81,-75.5 1632.81,-72 1622.81,-68.5 1622.81,-75.5"/>
</g>
<!-- 2058994288912&#45;&gt;2058994289344 -->
<g id="edge15" class="edge">
<title>2058994288912&#45;&gt;2058994289344</title>
<path fill="none" stroke="black" d="M1575.59,-36.04C1582.76,-39.01 1590.09,-42.07 1597,-45 1609.21,-50.17 1622.71,-56.04 1633.99,-60.97"/>
<polygon fill="black" stroke="black" points="1632.67,-64.22 1643.24,-65.03 1635.49,-57.81 1632.67,-64.22"/>
</g>
<!-- 2058994289584 -->
<g id="node15" class="node">
<title>2058994289584</title>
<polygon fill="none" stroke="black" points="1869,-90 1723,-90 1723,-54 1869,-54 1869,-90"/>
<text text-anchor="middle" x="1796" y="-68.9" font-family="Times New Roman,serif" font-size="12.00">Launch detailed investigation</text>
</g>
<!-- 2058994289344&#45;&gt;2058994289584 -->
<g id="edge16" class="edge">
<title>2058994289344&#45;&gt;2058994289584</title>
<path fill="none" stroke="black" d="M1687.15,-72C1694.82,-72 1703.63,-72 1712.85,-72"/>
<polygon fill="black" stroke="black" points="1712.98,-75.5 1722.98,-72 1712.98,-68.5 1712.98,-75.5"/>
</g>
<!-- 2058994289296 -->
<g id="node16" class="node">
<title>2058994289296</title>
<polygon fill="none" stroke="black" points="1932,-90 1905,-72 1932,-54 1959,-72 1932,-90"/>
<text text-anchor="middle" x="1932" y="-68.9" font-family="Times New Roman,serif" font-size="12.00">+</text>
</g>
<!-- 2058994289584&#45;&gt;2058994289296 -->
<g id="edge17" class="edge">
<title>2058994289584&#45;&gt;2058994289296</title>
<path fill="none" stroke="black" d="M1869.1,-72C1877.97,-72 1886.73,-72 1894.73,-72"/>
<polygon fill="black" stroke="black" points="1894.77,-75.5 1904.77,-72 1894.77,-68.5 1894.77,-75.5"/>
</g>
<!-- 2059022119552 -->
<g id="node17" class="node">
<title>2059022119552</title>
<polygon fill="none" stroke="black" points="2105,-144 2001,-144 2001,-108 2105,-108 2105,-144"/>
<text text-anchor="middle" x="2053" y="-122.9" font-family="Times New Roman,serif" font-size="12.00">Conduct interviews</text>
</g>
<!-- 2058994289296&#45;&gt;2059022119552 -->
<g id="edge19" class="edge">
<title>2058994289296&#45;&gt;2059022119552</title>
<path fill="none" stroke="black" d="M1948.56,-79.06C1962.43,-85.35 1983.49,-94.91 2003,-103.77"/>
<polygon fill="black" stroke="black" points="2001.57,-106.96 2012.12,-107.9 2004.46,-100.58 2001.57,-106.96"/>
</g>
<!-- 2058994286656 -->
<g id="node18" class="node">
<title>2058994286656</title>
<polygon fill="none" stroke="black" points="2101,-90 2005,-90 2005,-54 2101,-54 2101,-90"/>
<text text-anchor="middle" x="2053" y="-68.9" font-family="Times New Roman,serif" font-size="12.00">Perform site visits</text>
</g>
<!-- 2058994289296&#45;&gt;2058994286656 -->
<g id="edge18" class="edge">
<title>2058994289296&#45;&gt;2058994286656</title>
<path fill="none" stroke="black" d="M1959.12,-72C1969.59,-72 1982.11,-72 1994.51,-72"/>
<polygon fill="black" stroke="black" points="1994.85,-75.5 2004.85,-72 1994.85,-68.5 1994.85,-75.5"/>
</g>
<!-- 2058994287904 -->
<g id="node19" class="node">
<title>2058994287904</title>
<polygon fill="none" stroke="black" points="2111,-36 1995,-36 1995,0 2111,0 2111,-36"/>
<text text-anchor="middle" x="2053" y="-14.9" font-family="Times New Roman,serif" font-size="12.00">Conduct data analysis</text>
</g>
<!-- 2058994289296&#45;&gt;2058994287904 -->
<g id="edge20" class="edge">
<title>2058994289296&#45;&gt;2058994287904</title>
<path fill="none" stroke="black" d="M1948.56,-64.94C1962.43,-58.65 1983.49,-49.09 2003,-40.23"/>
<polygon fill="black" stroke="black" points="2004.46,-43.42 2012.12,-36.1 2001.57,-37.04 2004.46,-43.42"/>
</g>
<!-- 2059022117968 -->
<g id="node20" class="node">
<title>2059022117968</title>
<polygon fill="none" stroke="black" points="2174,-90 2147,-72 2174,-54 2201,-72 2174,-90"/>
<text text-anchor="middle" x="2174" y="-68.9" font-family="Times New Roman,serif" font-size="12.00">+</text>
</g>
<!-- 2059022119552&#45;&gt;2059022117968 -->
<g id="edge21" class="edge">
<title>2059022119552&#45;&gt;2059022117968</title>
<path fill="none" stroke="black" d="M2093.96,-107.87C2111.79,-99.78 2132.26,-90.49 2147.9,-83.39"/>
<polygon fill="black" stroke="black" points="2149.75,-86.4 2157.41,-79.08 2146.85,-80.02 2149.75,-86.4"/>
</g>
<!-- 2058994286656&#45;&gt;2059022117968 -->
<g id="edge22" class="edge">
<title>2058994286656&#45;&gt;2059022117968</title>
<path fill="none" stroke="black" d="M2101.03,-72C2112.85,-72 2125.35,-72 2136.56,-72"/>
<polygon fill="black" stroke="black" points="2136.85,-75.5 2146.85,-72 2136.85,-68.5 2136.85,-75.5"/>
</g>
<!-- 2058994287904&#45;&gt;2059022117968 -->
<g id="edge23" class="edge">
<title>2058994287904&#45;&gt;2059022117968</title>
<path fill="none" stroke="black" d="M2093.96,-36.13C2111.79,-44.22 2132.26,-53.51 2147.9,-60.61"/>
<polygon fill="black" stroke="black" points="2146.85,-63.98 2157.41,-64.92 2149.75,-57.6 2146.85,-63.98"/>
</g>
<!-- 2059022118208 -->
<g id="node21" class="node">
<title>2059022118208</title>
<polygon fill="none" stroke="black" points="2416,-90 2237,-90 2237,-54 2416,-54 2416,-90"/>
<text text-anchor="middle" x="2326.5" y="-68.9" font-family="Times New Roman,serif" font-size="12.00">Complete risk assessment/mitigation</text>
</g>
<!-- 2059022117968&#45;&gt;2059022118208 -->
<g id="edge24" class="edge">
<title>2059022117968&#45;&gt;2059022118208</title>
<path fill="none" stroke="black" d="M2201.22,-72C2208.76,-72 2217.47,-72 2226.71,-72"/>
<polygon fill="black" stroke="black" points="2226.91,-75.5 2236.91,-72 2226.91,-68.5 2226.91,-75.5"/>
</g>
<!-- 2058994287568 -->
<g id="node22" class="node">
<title>2058994287568</title>
<polygon fill="none" stroke="black" points="2562,-90 2452,-90 2452,-54 2562,-54 2562,-90"/>
<text text-anchor="middle" x="2507" y="-68.9" font-family="Times New Roman,serif" font-size="12.00">Compile audit report</text>
</g>
<!-- 2059022118208&#45;&gt;2058994287568 -->
<g id="edge25" class="edge">
<title>2059022118208&#45;&gt;2058994287568</title>
<path fill="none" stroke="black" d="M2416.23,-72C2424.72,-72 2433.21,-72 2441.41,-72"/>
<polygon fill="black" stroke="black" points="2441.61,-75.5 2451.61,-72 2441.61,-68.5 2441.61,-75.5"/>
</g>
<!-- 2059022121232 -->
<g id="node23" class="node">
<title>2059022121232</title>
<polygon fill="none" stroke="black" points="2756,-90 2598,-90 2598,-54 2756,-54 2756,-90"/>
<text text-anchor="middle" x="2677" y="-68.9" font-family="Times New Roman,serif" font-size="12.00">Review report by audit director</text>
</g>
<!-- 2058994287568&#45;&gt;2059022121232 -->
<g id="edge26" class="edge">
<title>2058994287568&#45;&gt;2059022121232</title>
<path fill="none" stroke="black" d="M2562.08,-72C2570.29,-72 2578.93,-72 2587.63,-72"/>
<polygon fill="black" stroke="black" points="2587.86,-75.5 2597.86,-72 2587.86,-68.5 2587.86,-75.5"/>
</g>
<!-- 2059022119216 -->
<g id="node24" class="node">
<title>2059022119216</title>
<polygon fill="none" stroke="black" points="2916,-90 2792,-90 2792,-54 2916,-54 2916,-90"/>
<text text-anchor="middle" x="2854" y="-68.9" font-family="Times New Roman,serif" font-size="12.00">Send report for revision</text>
</g>
<!-- 2059022121232&#45;&gt;2059022119216 -->
<g id="edge27" class="edge">
<title>2059022121232&#45;&gt;2059022119216</title>
<path fill="none" stroke="black" d="M2756.03,-72C2764.59,-72 2773.26,-72 2781.73,-72"/>
<polygon fill="black" stroke="black" points="2781.93,-75.5 2791.93,-72 2781.93,-68.5 2781.93,-75.5"/>
</g>
<!-- 2059022120896 -->
<g id="node25" class="node">
<title>2059022120896</title>
<polygon fill="none" stroke="black" points="3094,-90 2952,-90 2952,-54 3094,-54 3094,-90"/>
<text text-anchor="middle" x="3023" y="-68.9" font-family="Times New Roman,serif" font-size="12.00">Update and resubmit report</text>
</g>
<!-- 2059022119216&#45;&gt;2059022120896 -->
<g id="edge28" class="edge">
<title>2059022119216&#45;&gt;2059022120896</title>
<path fill="none" stroke="black" d="M2916.24,-72C2924.53,-72 2933.15,-72 2941.71,-72"/>
<polygon fill="black" stroke="black" points="2941.73,-75.5 2951.73,-72 2941.73,-68.5 2941.73,-75.5"/>
</g>
<!-- 2059022119888 -->
<g id="node26" class="node">
<title>2059022119888</title>
<polygon fill="none" stroke="black" points="3288,-90 3130,-90 3130,-54 3288,-54 3288,-90"/>
<text text-anchor="middle" x="3209" y="-68.9" font-family="Times New Roman,serif" font-size="12.00">Review report by audit director</text>
</g>
<!-- 2059022120896&#45;&gt;2059022119888 -->
<g id="edge29" class="edge">
<title>2059022120896&#45;&gt;2059022119888</title>
<path fill="none" stroke="black" d="M3094.09,-72C3102.48,-72 3111.13,-72 3119.74,-72"/>
<polygon fill="black" stroke="black" points="3119.81,-75.5 3129.81,-72 3119.81,-68.5 3119.81,-75.5"/>
</g>
<!-- 2059022120560 -->
<g id="node27" class="node">
<title>2059022120560</title>
<polygon fill="none" stroke="black" points="3412,-90 3324,-90 3324,-54 3412,-54 3412,-90"/>
<text text-anchor="middle" x="3368" y="-68.9" font-family="Times New Roman,serif" font-size="12.00">Approve report</text>
</g>
<!-- 2059022119888&#45;&gt;2059022120560 -->
<g id="edge30" class="edge">
<title>2059022119888&#45;&gt;2059022120560</title>
<path fill="none" stroke="black" d="M3288.04,-72C3296.7,-72 3305.36,-72 3313.61,-72"/>
<polygon fill="black" stroke="black" points="3313.81,-75.5 3323.81,-72 3313.81,-68.5 3313.81,-75.5"/>
</g>
<!-- 2058994289248 -->
<g id="node28" class="node">
<title>2058994289248</title>
<polygon fill="none" stroke="black" points="3560,-90 3448,-90 3448,-54 3560,-54 3560,-90"/>
<text text-anchor="middle" x="3504" y="-68.9" font-family="Times New Roman,serif" font-size="12.00">Distribute final report</text>
</g>
<!-- 2059022120560&#45;&gt;2058994289248 -->
<g id="edge31" class="edge">
<title>2059022120560&#45;&gt;2058994289248</title>
<path fill="none" stroke="black" d="M3412.14,-72C3420.27,-72 3428.95,-72 3437.6,-72"/>
<polygon fill="black" stroke="black" points="3437.69,-75.5 3447.69,-72 3437.69,-68.5 3437.69,-75.5"/>
</g>
<!-- 2059022122576 -->
<g id="node29" class="node">
<title>2059022122576</title>
<polygon fill="none" stroke="black" points="3679,-90 3596,-90 3596,-54 3679,-54 3679,-90"/>
<text text-anchor="middle" x="3637.5" y="-68.9" font-family="Times New Roman,serif" font-size="12.00">Archive report</text>
</g>
<!-- 2058994289248&#45;&gt;2059022122576 -->
<g id="edge32" class="edge">
<title>2058994289248&#45;&gt;2059022122576</title>
<path fill="none" stroke="black" d="M3560.01,-72C3568.51,-72 3577.26,-72 3585.67,-72"/>
<polygon fill="black" stroke="black" points="3585.72,-75.5 3595.72,-72 3585.72,-68.5 3585.72,-75.5"/>
</g>
<!-- 2058994288240 -->
<g id="node30" class="node">
<title>2058994288240</title>
<polygon fill="none" stroke="black" points="3821,-90 3715,-90 3715,-54 3821,-54 3821,-90"/>
<text text-anchor="middle" x="3768" y="-68.9" font-family="Times New Roman,serif" font-size="12.00">Close audit process</text>
</g>
<!-- 2059022122576&#45;&gt;2058994288240 -->
<g id="edge33" class="edge">
<title>2059022122576&#45;&gt;2058994288240</title>
<path fill="none" stroke="black" d="M3679.16,-72C3687.3,-72 3696.02,-72 3704.7,-72"/>
<polygon fill="black" stroke="black" points="3704.83,-75.5 3714.83,-72 3704.83,-68.5 3704.83,-75.5"/>
</g>
<!-- 2058994289632 -->
<g id="node31" class="node">
<title>2058994289632</title>
<ellipse fill="orange" stroke="black" cx="3875" cy="-72" rx="18" ry="18"/>
</g>
<!-- 2058994288240&#45;&gt;2058994289632 -->
<g id="edge34" class="edge">
<title>2058994288240&#45;&gt;2058994289632</title>
<path fill="none" stroke="black" d="M3821.19,-72C3829.87,-72 3838.56,-72 3846.31,-72"/>
<polygon fill="black" stroke="black" points="3846.54,-75.5 3856.54,-72 3846.54,-68.5 3846.54,-75.5"/>
</g>
</g>
</svg>
