<?xml version="1.0" encoding="UTF-8" standalone="no"?>
<!DOCTYPE svg PUBLIC "-//W3C//DTD SVG 1.1//EN"
 "http://www.w3.org/Graphics/SVG/1.1/DTD/svg11.dtd">
<!-- Generated by graphviz version 6.0.1 (20220911.1526)
 -->
<!-- Pages: 1 -->
<svg width="4009pt" height="340pt"
 viewBox="0.00 0.00 4009.00 340.00" xmlns="http://www.w3.org/2000/svg" xmlns:xlink="http://www.w3.org/1999/xlink">
<g id="graph0" class="graph" transform="scale(1 1) rotate(0) translate(4 336)">
<polygon fill="white" stroke="none" points="-4,4 -4,-336 4005,-336 4005,4 -4,4"/>
<!-- 2058996188736 -->
<g id="node1" class="node">
<title>2058996188736</title>
<ellipse fill="green" stroke="black" cx="18" cy="-64" rx="18" ry="18"/>
</g>
<!-- 2058986747840 -->
<g id="node2" class="node">
<title>2058986747840</title>
<polygon fill="none" stroke="black" points="164,-82 72,-82 72,-46 164,-46 164,-82"/>
<text text-anchor="middle" x="118" y="-60.9" font-family="Times New Roman,serif" font-size="12.00">Send notification</text>
</g>
<!-- 2058996188736&#45;&gt;2058986747840 -->
<g id="edge1" class="edge">
<title>2058996188736&#45;&gt;2058986747840</title>
<path fill="none" stroke="black" d="M36.07,-64C43.4,-64 52.42,-64 61.74,-64"/>
<polygon fill="black" stroke="black" points="61.92,-67.5 71.92,-64 61.92,-60.5 61.92,-67.5"/>
</g>
<!-- 2058986734928 -->
<g id="node3" class="node">
<title>2058986734928</title>
<polygon fill="none" stroke="black" points="227,-82 200,-64 227,-46 254,-64 227,-82"/>
<text text-anchor="middle" x="227" y="-60.9" font-family="Times New Roman,serif" font-size="12.00">+</text>
</g>
<!-- 2058986747840&#45;&gt;2058986734928 -->
<g id="edge2" class="edge">
<title>2058986747840&#45;&gt;2058986734928</title>
<path fill="none" stroke="black" d="M164.07,-64C172.66,-64 181.55,-64 189.83,-64"/>
<polygon fill="black" stroke="black" points="189.9,-67.5 199.9,-64 189.9,-60.5 189.9,-67.5"/>
</g>
<!-- 2057961810832 -->
<g id="node4" class="node">
<title>2057961810832</title>
<polygon fill="none" stroke="black" points="436,-136 290,-136 290,-100 436,-100 436,-136"/>
<text text-anchor="middle" x="363" y="-114.9" font-family="Times New Roman,serif" font-size="12.00">Gather necessary documents</text>
</g>
<!-- 2058986734928&#45;&gt;2057961810832 -->
<g id="edge5" class="edge">
<title>2058986734928&#45;&gt;2057961810832</title>
<path fill="none" stroke="black" d="M243.7,-71.11C256.18,-76.69 274.11,-84.57 290,-91 294.22,-92.71 298.59,-94.44 303.01,-96.16"/>
<polygon fill="black" stroke="black" points="302.09,-99.56 312.68,-99.89 304.61,-93.03 302.09,-99.56"/>
</g>
<!-- 2058986747984 -->
<g id="node5" class="node">
<title>2058986747984</title>
<polygon fill="none" stroke="black" points="434,-82 292,-82 292,-46 434,-46 434,-82"/>
<text text-anchor="middle" x="363" y="-60.9" font-family="Times New Roman,serif" font-size="12.00">Prepare financial statements</text>
</g>
<!-- 2058986734928&#45;&gt;2058986747984 -->
<g id="edge4" class="edge">
<title>2058986734928&#45;&gt;2058986747984</title>
<path fill="none" stroke="black" d="M254.15,-64C262.38,-64 271.93,-64 281.89,-64"/>
<polygon fill="black" stroke="black" points="281.95,-67.5 291.95,-64 281.95,-60.5 281.95,-67.5"/>
</g>
<!-- 2058996194688 -->
<g id="node6" class="node">
<title>2058996194688</title>
<polygon fill="none" stroke="black" points="605,-36 472,-36 472,0 605,0 605,-36"/>
<text text-anchor="middle" x="538.5" y="-14.9" font-family="Times New Roman,serif" font-size="12.00">Check regulatory updates</text>
</g>
<!-- 2058986734928&#45;&gt;2058996194688 -->
<g id="edge3" class="edge">
<title>2058986734928&#45;&gt;2058996194688</title>
<path fill="none" stroke="black" d="M242.3,-56.13C254.56,-49.79 272.91,-41.25 290,-37 346.54,-22.94 412.38,-18.44 461.94,-17.31"/>
<polygon fill="black" stroke="black" points="462.01,-20.81 471.94,-17.12 461.87,-13.81 462.01,-20.81"/>
</g>
<!-- 2057961808528 -->
<g id="node7" class="node">
<title>2057961808528</title>
<polygon fill="none" stroke="black" points="538.5,-135 511.5,-117 538.5,-99 565.5,-117 538.5,-135"/>
<text text-anchor="middle" x="538.5" y="-113.9" font-family="Times New Roman,serif" font-size="12.00">+</text>
</g>
<!-- 2057961810832&#45;&gt;2057961808528 -->
<g id="edge6" class="edge">
<title>2057961810832&#45;&gt;2057961808528</title>
<path fill="none" stroke="black" d="M436.07,-117.58C458.59,-117.45 482.47,-117.32 501.4,-117.21"/>
<polygon fill="black" stroke="black" points="501.66,-120.71 511.64,-117.15 501.62,-113.71 501.66,-120.71"/>
</g>
<!-- 2058986747984&#45;&gt;2057961808528 -->
<g id="edge7" class="edge">
<title>2058986747984&#45;&gt;2057961808528</title>
<path fill="none" stroke="black" d="M423.22,-82.09C452.51,-91.04 486.46,-101.41 509.7,-108.51"/>
<polygon fill="black" stroke="black" points="508.98,-111.95 519.57,-111.52 511.03,-105.25 508.98,-111.95"/>
</g>
<!-- 2057961812032 -->
<g id="node8" class="node">
<title>2057961812032</title>
<polygon fill="none" stroke="black" points="2772,-124 2745,-106 2772,-88 2799,-106 2772,-124"/>
<text text-anchor="middle" x="2772" y="-102.9" font-family="Times New Roman,serif" font-size="12.00">+</text>
</g>
<!-- 2058996194688&#45;&gt;2057961812032 -->
<g id="edge8" class="edge">
<title>2058996194688&#45;&gt;2057961812032</title>
<path fill="none" stroke="black" d="M605.16,-18C663.43,-18 750.88,-18 827,-18 827,-18 827,-18 2537,-18 2619.77,-18 2709.08,-66.84 2749.25,-91.75"/>
<polygon fill="black" stroke="black" points="2747.62,-94.85 2757.94,-97.24 2751.36,-88.94 2747.62,-94.85"/>
</g>
<!-- 2057961811024 -->
<g id="node10" class="node">
<title>2057961811024</title>
<polygon fill="none" stroke="black" points="741,-135 641,-135 641,-99 741,-99 741,-135"/>
<text text-anchor="middle" x="691" y="-113.9" font-family="Times New Roman,serif" font-size="12.00">Submit documents</text>
</g>
<!-- 2057961808528&#45;&gt;2057961811024 -->
<g id="edge9" class="edge">
<title>2057961808528&#45;&gt;2057961811024</title>
<path fill="none" stroke="black" d="M565.72,-117C583.68,-117 608.25,-117 630.8,-117"/>
<polygon fill="black" stroke="black" points="630.99,-120.5 640.99,-117 630.99,-113.5 630.99,-120.5"/>
</g>
<!-- 2057960892032 -->
<g id="node9" class="node">
<title>2057960892032</title>
<polygon fill="none" stroke="black" points="2862,-124 2835,-106 2862,-88 2889,-106 2862,-124"/>
<text text-anchor="middle" x="2862" y="-102.9" font-family="Times New Roman,serif" font-size="12.00">X</text>
</g>
<!-- 2057961812032&#45;&gt;2057960892032 -->
<g id="edge10" class="edge">
<title>2057961812032&#45;&gt;2057960892032</title>
<path fill="none" stroke="black" d="M2799.4,-106C2807.39,-106 2816.31,-106 2824.82,-106"/>
<polygon fill="black" stroke="black" points="2824.92,-109.5 2834.92,-106 2824.92,-102.5 2824.92,-109.5"/>
</g>
<!-- 2058996193056 -->
<g id="node12" class="node">
<title>2058996193056</title>
<polygon fill="none" stroke="black" points="3083,-147 2925,-147 2925,-111 3083,-111 3083,-147"/>
<text text-anchor="middle" x="3004" y="-125.9" font-family="Times New Roman,serif" font-size="12.00">Review report by audit director</text>
</g>
<!-- 2057960892032&#45;&gt;2058996193056 -->
<g id="edge11" class="edge">
<title>2057960892032&#45;&gt;2058996193056</title>
<path fill="none" stroke="black" d="M2883.96,-109.44C2892.63,-110.87 2903.32,-112.62 2914.71,-114.49"/>
<polygon fill="black" stroke="black" points="2914.42,-118 2924.86,-116.16 2915.56,-111.09 2914.42,-118"/>
</g>
<!-- 2057961800512 -->
<g id="node11" class="node">
<title>2057961800512</title>
<polygon fill="none" stroke="black" points="879,-135 777,-135 777,-99 879,-99 879,-135"/>
<text text-anchor="middle" x="828" y="-113.9" font-family="Times New Roman,serif" font-size="12.00">Review submission</text>
</g>
<!-- 2057961811024&#45;&gt;2057961800512 -->
<g id="edge12" class="edge">
<title>2057961811024&#45;&gt;2057961800512</title>
<path fill="none" stroke="black" d="M741.12,-117C749.37,-117 758.03,-117 766.53,-117"/>
<polygon fill="black" stroke="black" points="766.78,-120.5 776.78,-117 766.78,-113.5 766.78,-120.5"/>
</g>
<!-- 2058986746976 -->
<g id="node13" class="node">
<title>2058986746976</title>
<polygon fill="none" stroke="black" points="942,-135 915,-117 942,-99 969,-117 942,-135"/>
<text text-anchor="middle" x="942" y="-113.9" font-family="Times New Roman,serif" font-size="12.00">X</text>
</g>
<!-- 2057961800512&#45;&gt;2058986746976 -->
<g id="edge13" class="edge">
<title>2057961800512&#45;&gt;2058986746976</title>
<path fill="none" stroke="black" d="M879.1,-117C887.69,-117 896.46,-117 904.6,-117"/>
<polygon fill="black" stroke="black" points="904.87,-120.5 914.87,-117 904.87,-113.5 904.87,-120.5"/>
</g>
<!-- 2058986748800 -->
<g id="node14" class="node">
<title>2058986748800</title>
<polygon fill="none" stroke="black" points="3146,-147 3119,-129 3146,-111 3173,-129 3146,-147"/>
<text text-anchor="middle" x="3146" y="-125.9" font-family="Times New Roman,serif" font-size="12.00">X</text>
</g>
<!-- 2058996193056&#45;&gt;2058986748800 -->
<g id="edge14" class="edge">
<title>2058996193056&#45;&gt;2058986748800</title>
<path fill="none" stroke="black" d="M3083.19,-129C3092.16,-129 3100.95,-129 3108.95,-129"/>
<polygon fill="black" stroke="black" points="3108.98,-132.5 3118.98,-129 3108.98,-125.5 3108.98,-132.5"/>
</g>
<!-- 2057961813232 -->
<g id="node15" class="node">
<title>2057961813232</title>
<polygon fill="none" stroke="black" points="1032,-180 1005,-162 1032,-144 1059,-162 1032,-180"/>
<text text-anchor="middle" x="1032" y="-158.9" font-family="Times New Roman,serif" font-size="12.00">X</text>
</g>
<!-- 2058986746976&#45;&gt;2057961813232 -->
<g id="edge15" class="edge">
<title>2058986746976&#45;&gt;2057961813232</title>
<path fill="none" stroke="black" d="M957.93,-124.63C971.33,-131.49 991.24,-141.67 1006.9,-149.67"/>
<polygon fill="black" stroke="black" points="1005.5,-152.89 1016,-154.33 1008.69,-146.66 1005.5,-152.89"/>
</g>
<!-- 2057961809008 -->
<g id="node16" class="node">
<title>2057961809008</title>
<polygon fill="none" stroke="black" points="3315,-201 3227,-201 3227,-165 3315,-165 3315,-201"/>
<text text-anchor="middle" x="3271" y="-179.9" font-family="Times New Roman,serif" font-size="12.00">Approve report</text>
</g>
<!-- 2058986748800&#45;&gt;2057961809008 -->
<g id="edge17" class="edge">
<title>2058986748800&#45;&gt;2057961809008</title>
<path fill="none" stroke="black" d="M3162.83,-135.95C3177.23,-142.27 3199.29,-151.96 3219.66,-160.9"/>
<polygon fill="black" stroke="black" points="3218.31,-164.13 3228.87,-164.94 3221.12,-157.72 3218.31,-164.13"/>
</g>
<!-- 2058996200784 -->
<g id="node17" class="node">
<title>2058996200784</title>
<polygon fill="none" stroke="black" points="3333,-147 3209,-147 3209,-111 3333,-111 3333,-147"/>
<text text-anchor="middle" x="3271" y="-125.9" font-family="Times New Roman,serif" font-size="12.00">Send report for revision</text>
</g>
<!-- 2058986748800&#45;&gt;2058996200784 -->
<g id="edge16" class="edge">
<title>2058986748800&#45;&gt;2058996200784</title>
<path fill="none" stroke="black" d="M3173.09,-129C3180.72,-129 3189.46,-129 3198.49,-129"/>
<polygon fill="black" stroke="black" points="3198.78,-132.5 3208.78,-129 3198.78,-125.5 3198.78,-132.5"/>
</g>
<!-- 2057961804160 -->
<g id="node19" class="node">
<title>2057961804160</title>
<polygon fill="none" stroke="black" points="1278.5,-234 1099.5,-234 1099.5,-198 1278.5,-198 1278.5,-234"/>
<text text-anchor="middle" x="1189" y="-212.9" font-family="Times New Roman,serif" font-size="12.00">Complete risk assessment/mitigation</text>
</g>
<!-- 2057961813232&#45;&gt;2057961804160 -->
<g id="edge18" class="edge">
<title>2057961813232&#45;&gt;2057961804160</title>
<path fill="none" stroke="black" d="M1048.32,-169.33C1060.73,-175.1 1078.77,-183.14 1095,-189 1100.52,-190.99 1106.27,-192.95 1112.07,-194.83"/>
<polygon fill="black" stroke="black" points="1111.28,-198.25 1121.87,-197.94 1113.39,-191.58 1111.28,-198.25"/>
</g>
<!-- 2057961807760 -->
<g id="node20" class="node">
<title>2057961807760</title>
<polygon fill="none" stroke="black" points="1283,-180 1095,-180 1095,-144 1283,-144 1283,-180"/>
<text text-anchor="middle" x="1189" y="-158.9" font-family="Times New Roman,serif" font-size="12.00">Request clarifications of discrepancies</text>
</g>
<!-- 2057961813232&#45;&gt;2057961807760 -->
<g id="edge19" class="edge">
<title>2057961813232&#45;&gt;2057961807760</title>
<path fill="none" stroke="black" d="M1059.29,-162C1066.78,-162 1075.42,-162 1084.6,-162"/>
<polygon fill="black" stroke="black" points="1084.76,-165.5 1094.76,-162 1084.76,-158.5 1084.76,-165.5"/>
</g>
<!-- 2057961801184 -->
<g id="node18" class="node">
<title>2057961801184</title>
<polygon fill="none" stroke="black" points="3396,-151 3369,-133 3396,-115 3423,-133 3396,-151"/>
<text text-anchor="middle" x="3396" y="-129.9" font-family="Times New Roman,serif" font-size="12.00">X</text>
</g>
<!-- 2057961809008&#45;&gt;2057961801184 -->
<g id="edge20" class="edge">
<title>2057961809008&#45;&gt;2057961801184</title>
<path fill="none" stroke="black" d="M3315.02,-165.51C3333.09,-158.17 3353.51,-149.87 3369.19,-143.49"/>
<polygon fill="black" stroke="black" points="3370.8,-146.62 3378.74,-139.61 3368.16,-140.13 3370.8,-146.62"/>
</g>
<!-- 2058996200784&#45;&gt;2057961801184 -->
<g id="edge21" class="edge">
<title>2058996200784&#45;&gt;2057961801184</title>
<path fill="none" stroke="black" d="M3333.14,-130.99C3342.3,-131.29 3351.46,-131.58 3359.83,-131.86"/>
<polygon fill="black" stroke="black" points="3359.83,-135.36 3369.94,-132.18 3360.06,-128.36 3359.83,-135.36"/>
</g>
<!-- 2057961812320 -->
<g id="node21" class="node">
<title>2057961812320</title>
<polygon fill="none" stroke="black" points="3486,-151 3459,-133 3486,-115 3513,-133 3486,-151"/>
<text text-anchor="middle" x="3486" y="-129.9" font-family="Times New Roman,serif" font-size="12.00">X</text>
</g>
<!-- 2057961801184&#45;&gt;2057961812320 -->
<g id="edge22" class="edge">
<title>2057961801184&#45;&gt;2057961812320</title>
<path fill="none" stroke="black" d="M3423.4,-133C3431.39,-133 3440.31,-133 3448.82,-133"/>
<polygon fill="black" stroke="black" points="3448.92,-136.5 3458.92,-133 3448.92,-129.5 3448.92,-136.5"/>
</g>
<!-- 2057961803104 -->
<g id="node23" class="node">
<title>2057961803104</title>
<polygon fill="none" stroke="black" points="1374.5,-234 1347.5,-216 1374.5,-198 1401.5,-216 1374.5,-234"/>
<text text-anchor="middle" x="1374.5" y="-212.9" font-family="Times New Roman,serif" font-size="12.00">+</text>
</g>
<!-- 2057961804160&#45;&gt;2057961803104 -->
<g id="edge23" class="edge">
<title>2057961804160&#45;&gt;2057961803104</title>
<path fill="none" stroke="black" d="M1278.53,-216C1299.12,-216 1319.94,-216 1336.81,-216"/>
<polygon fill="black" stroke="black" points="1337.29,-219.5 1347.29,-216 1337.29,-212.5 1337.29,-219.5"/>
</g>
<!-- 2057961811696 -->
<g id="node22" class="node">
<title>2057961811696</title>
<polygon fill="none" stroke="black" points="1430,-157 1319,-157 1319,-121 1430,-121 1430,-157"/>
<text text-anchor="middle" x="1374.5" y="-135.9" font-family="Times New Roman,serif" font-size="12.00">Receive clarifications</text>
</g>
<!-- 2057961807760&#45;&gt;2057961811696 -->
<g id="edge24" class="edge">
<title>2057961807760&#45;&gt;2057961811696</title>
<path fill="none" stroke="black" d="M1283.09,-150.33C1291.8,-149.24 1300.49,-148.15 1308.84,-147.1"/>
<polygon fill="black" stroke="black" points="1309.37,-150.57 1318.85,-145.85 1308.5,-143.62 1309.37,-150.57"/>
</g>
<!-- 2057961801424 -->
<g id="node24" class="node">
<title>2057961801424</title>
<polygon fill="none" stroke="black" points="3691,-101 3549,-101 3549,-65 3691,-65 3691,-101"/>
<text text-anchor="middle" x="3620" y="-79.9" font-family="Times New Roman,serif" font-size="12.00">Update and resubmit report</text>
</g>
<!-- 2057961812320&#45;&gt;2057961801424 -->
<g id="edge27" class="edge">
<title>2057961812320&#45;&gt;2057961801424</title>
<path fill="none" stroke="black" d="M3503.72,-126.67C3518.4,-121.11 3540.63,-112.68 3561.67,-104.72"/>
<polygon fill="black" stroke="black" points="3563.11,-107.91 3571.22,-101.1 3560.63,-101.37 3563.11,-107.91"/>
</g>
<!-- 2058996196080 -->
<g id="node28" class="node">
<title>2058996196080</title>
<polygon fill="none" stroke="black" points="3620,-155 3593,-137 3620,-119 3647,-137 3620,-155"/>
<text text-anchor="middle" x="3620" y="-133.9" font-family="Times New Roman,serif" font-size="12.00">+</text>
</g>
<!-- 2057961812320&#45;&gt;2058996196080 -->
<g id="edge26" class="edge">
<title>2057961812320&#45;&gt;2058996196080</title>
<path fill="none" stroke="black" d="M3512.14,-133.76C3532.42,-134.38 3561.18,-135.25 3583.75,-135.93"/>
<polygon fill="black" stroke="black" points="3583.85,-139.44 3593.95,-136.24 3584.07,-132.44 3583.85,-139.44"/>
</g>
<!-- 2057961811696&#45;&gt;2058986746976 -->
<g id="edge25" class="edge">
<title>2057961811696&#45;&gt;2058986746976</title>
<path fill="none" stroke="black" d="M1318.8,-136.2C1228.86,-131.61 1052.28,-122.58 977.63,-118.77"/>
<polygon fill="black" stroke="black" points="977.54,-115.26 967.38,-118.25 977.19,-122.25 977.54,-115.26"/>
</g>
<!-- 2057961803872 -->
<g id="node25" class="node">
<title>2057961803872</title>
<polygon fill="none" stroke="black" points="1598.5,-288 1466.5,-288 1466.5,-252 1598.5,-252 1598.5,-288"/>
<text text-anchor="middle" x="1532.5" y="-266.9" font-family="Times New Roman,serif" font-size="12.00">Evaluate operational risks</text>
</g>
<!-- 2057961803104&#45;&gt;2057961803872 -->
<g id="edge28" class="edge">
<title>2057961803104&#45;&gt;2057961803872</title>
<path fill="none" stroke="black" d="M1392.79,-221.99C1411.38,-228.42 1442.02,-239.03 1469.78,-248.63"/>
<polygon fill="black" stroke="black" points="1468.85,-252.02 1479.45,-251.98 1471.14,-245.4 1468.85,-252.02"/>
</g>
<!-- 2057961808048 -->
<g id="node26" class="node">
<title>2057961808048</title>
<polygon fill="none" stroke="black" points="1599,-234 1466,-234 1466,-198 1599,-198 1599,-234"/>
<text text-anchor="middle" x="1532.5" y="-212.9" font-family="Times New Roman,serif" font-size="12.00">Evaluate compliance risks</text>
</g>
<!-- 2057961803104&#45;&gt;2057961808048 -->
<g id="edge30" class="edge">
<title>2057961803104&#45;&gt;2057961808048</title>
<path fill="none" stroke="black" d="M1401.61,-216C1416.6,-216 1436.28,-216 1455.77,-216"/>
<polygon fill="black" stroke="black" points="1455.92,-219.5 1465.92,-216 1455.91,-212.5 1455.92,-219.5"/>
</g>
<!-- 2058986747696 -->
<g id="node27" class="node">
<title>2058986747696</title>
<polygon fill="none" stroke="black" points="1591.5,-180 1473.5,-180 1473.5,-144 1591.5,-144 1591.5,-180"/>
<text text-anchor="middle" x="1532.5" y="-158.9" font-family="Times New Roman,serif" font-size="12.00">Evaluate financial risks</text>
</g>
<!-- 2057961803104&#45;&gt;2058986747696 -->
<g id="edge29" class="edge">
<title>2057961803104&#45;&gt;2058986747696</title>
<path fill="none" stroke="black" d="M1392.79,-210.01C1411.38,-203.58 1442.02,-192.97 1469.78,-183.37"/>
<polygon fill="black" stroke="black" points="1471.14,-186.6 1479.45,-180.02 1468.85,-179.98 1471.14,-186.6"/>
</g>
<!-- 2057961801424&#45;&gt;2057960892032 -->
<g id="edge31" class="edge">
<title>2057961801424&#45;&gt;2057960892032</title>
<path fill="none" stroke="black" d="M3548.51,-83C3504.87,-83 3447.68,-83 3397,-83 3145,-83 3145,-83 3145,-83 3054.01,-83 2947.05,-95.04 2894.87,-101.7"/>
<polygon fill="black" stroke="black" points="2894.36,-98.24 2884.89,-102.99 2895.26,-105.18 2894.36,-98.24"/>
</g>
<!-- 2058986738384 -->
<g id="node32" class="node">
<title>2058986738384</title>
<polygon fill="none" stroke="black" points="1662,-234 1635,-216 1662,-198 1689,-216 1662,-234"/>
<text text-anchor="middle" x="1662" y="-212.9" font-family="Times New Roman,serif" font-size="12.00">+</text>
</g>
<!-- 2057961803872&#45;&gt;2058986738384 -->
<g id="edge32" class="edge">
<title>2057961803872&#45;&gt;2058986738384</title>
<path fill="none" stroke="black" d="M1577.59,-251.96C1584.76,-248.99 1592.09,-245.93 1599,-243 1611.21,-237.83 1624.71,-231.96 1635.99,-227.03"/>
<polygon fill="black" stroke="black" points="1637.49,-230.19 1645.24,-222.97 1634.67,-223.78 1637.49,-230.19"/>
</g>
<!-- 2057961808048&#45;&gt;2058986738384 -->
<g id="edge33" class="edge">
<title>2057961808048&#45;&gt;2058986738384</title>
<path fill="none" stroke="black" d="M1599.12,-216C1607.94,-216 1616.72,-216 1624.77,-216"/>
<polygon fill="black" stroke="black" points="1624.88,-219.5 1634.88,-216 1624.88,-212.5 1624.88,-219.5"/>
</g>
<!-- 2058986747696&#45;&gt;2058986738384 -->
<g id="edge34" class="edge">
<title>2058986747696&#45;&gt;2058986738384</title>
<path fill="none" stroke="black" d="M1577.59,-180.04C1584.76,-183.01 1592.09,-186.07 1599,-189 1611.21,-194.17 1624.71,-200.04 1635.99,-204.97"/>
<polygon fill="black" stroke="black" points="1634.67,-208.22 1645.24,-209.03 1637.49,-201.81 1634.67,-208.22"/>
</g>
<!-- 2057961815296 -->
<g id="node29" class="node">
<title>2057961815296</title>
<polygon fill="none" stroke="black" points="3824.5,-209 3741.5,-209 3741.5,-173 3824.5,-173 3824.5,-209"/>
<text text-anchor="middle" x="3783" y="-187.9" font-family="Times New Roman,serif" font-size="12.00">Archive report</text>
</g>
<!-- 2058996196080&#45;&gt;2057961815296 -->
<g id="edge35" class="edge">
<title>2058996196080&#45;&gt;2057961815296</title>
<path fill="none" stroke="black" d="M3638.54,-142.88C3660.77,-150.34 3700.03,-163.51 3731.87,-174.19"/>
<polygon fill="black" stroke="black" points="3730.89,-177.55 3741.49,-177.41 3733.12,-170.91 3730.89,-177.55"/>
</g>
<!-- 2057961801040 -->
<g id="node30" class="node">
<title>2057961801040</title>
<polygon fill="none" stroke="black" points="3839,-155 3727,-155 3727,-119 3839,-119 3839,-155"/>
<text text-anchor="middle" x="3783" y="-133.9" font-family="Times New Roman,serif" font-size="12.00">Distribute final report</text>
</g>
<!-- 2058996196080&#45;&gt;2057961801040 -->
<g id="edge37" class="edge">
<title>2058996196080&#45;&gt;2057961801040</title>
<path fill="none" stroke="black" d="M3647.23,-137C3666.02,-137 3692.19,-137 3716.48,-137"/>
<polygon fill="black" stroke="black" points="3716.75,-140.5 3726.75,-137 3716.75,-133.5 3716.75,-140.5"/>
</g>
<!-- 2057961801328 -->
<g id="node31" class="node">
<title>2057961801328</title>
<polygon fill="none" stroke="black" points="3836,-101 3730,-101 3730,-65 3836,-65 3836,-101"/>
<text text-anchor="middle" x="3783" y="-79.9" font-family="Times New Roman,serif" font-size="12.00">Close audit process</text>
</g>
<!-- 2058996196080&#45;&gt;2057961801328 -->
<g id="edge36" class="edge">
<title>2058996196080&#45;&gt;2057961801328</title>
<path fill="none" stroke="black" d="M3638.54,-131.12C3658.09,-124.56 3690.81,-113.59 3720.07,-103.77"/>
<polygon fill="black" stroke="black" points="3721.47,-106.99 3729.84,-100.5 3719.24,-100.36 3721.47,-106.99"/>
</g>
<!-- 2058996190848 -->
<g id="node34" class="node">
<title>2058996190848</title>
<polygon fill="none" stroke="black" points="3902,-155 3875,-137 3902,-119 3929,-137 3902,-155"/>
<text text-anchor="middle" x="3902" y="-133.9" font-family="Times New Roman,serif" font-size="12.00">+</text>
</g>
<!-- 2057961815296&#45;&gt;2058996190848 -->
<g id="edge38" class="edge">
<title>2057961815296&#45;&gt;2058996190848</title>
<path fill="none" stroke="black" d="M3823.28,-172.87C3840.71,-164.83 3860.7,-155.6 3876.04,-148.52"/>
<polygon fill="black" stroke="black" points="3877.76,-151.58 3885.37,-144.21 3874.83,-145.23 3877.76,-151.58"/>
</g>
<!-- 2057961801040&#45;&gt;2058996190848 -->
<g id="edge39" class="edge">
<title>2057961801040&#45;&gt;2058996190848</title>
<path fill="none" stroke="black" d="M3839.07,-137C3847.73,-137 3856.48,-137 3864.58,-137"/>
<polygon fill="black" stroke="black" points="3864.77,-140.5 3874.77,-137 3864.77,-133.5 3864.77,-140.5"/>
</g>
<!-- 2057961801328&#45;&gt;2058996190848 -->
<g id="edge40" class="edge">
<title>2057961801328&#45;&gt;2058996190848</title>
<path fill="none" stroke="black" d="M3823.28,-101.13C3840.71,-109.17 3860.7,-118.4 3876.04,-125.48"/>
<polygon fill="black" stroke="black" points="3874.83,-128.77 3885.37,-129.79 3877.76,-122.42 3874.83,-128.77"/>
</g>
<!-- 2057961799744 -->
<g id="node33" class="node">
<title>2057961799744</title>
<polygon fill="none" stroke="black" points="1752,-234 1725,-216 1752,-198 1779,-216 1752,-234"/>
<text text-anchor="middle" x="1752" y="-212.9" font-family="Times New Roman,serif" font-size="12.00">X</text>
</g>
<!-- 2058986738384&#45;&gt;2057961799744 -->
<g id="edge41" class="edge">
<title>2058986738384&#45;&gt;2057961799744</title>
<path fill="none" stroke="black" d="M1689.4,-216C1697.39,-216 1706.31,-216 1714.82,-216"/>
<polygon fill="black" stroke="black" points="1714.92,-219.5 1724.92,-216 1714.92,-212.5 1714.92,-219.5"/>
</g>
<!-- 2057960884832 -->
<g id="node35" class="node">
<title>2057960884832</title>
<polygon fill="none" stroke="black" points="2536,-197 2509,-179 2536,-161 2563,-179 2536,-197"/>
<text text-anchor="middle" x="2536" y="-175.9" font-family="Times New Roman,serif" font-size="12.00">X</text>
</g>
<!-- 2057961799744&#45;&gt;2057960884832 -->
<g id="edge42" class="edge">
<title>2057961799744&#45;&gt;2057960884832</title>
<path fill="none" stroke="black" d="M1765.12,-225.49C1801.73,-253.2 1915.35,-332 2023,-332 2023,-332 2023,-332 2357,-332 2436.56,-332 2498.3,-243.01 2523.12,-200.77"/>
<polygon fill="black" stroke="black" points="2526.18,-202.46 2528.11,-192.04 2520.11,-198.99 2526.18,-202.46"/>
</g>
<!-- 2058986741744 -->
<g id="node36" class="node">
<title>2058986741744</title>
<polygon fill="none" stroke="black" points="1961,-231 1815,-231 1815,-195 1961,-195 1961,-231"/>
<text text-anchor="middle" x="1888" y="-209.9" font-family="Times New Roman,serif" font-size="12.00">Launch detailed investigation</text>
</g>
<!-- 2057961799744&#45;&gt;2058986741744 -->
<g id="edge43" class="edge">
<title>2057961799744&#45;&gt;2058986741744</title>
<path fill="none" stroke="black" d="M1778.2,-215.44C1786.08,-215.26 1795.24,-215.05 1804.84,-214.84"/>
<polygon fill="black" stroke="black" points="1805.05,-218.34 1814.97,-214.61 1804.89,-211.34 1805.05,-218.34"/>
</g>
<!-- 2058996189120 -->
<g id="node49" class="node">
<title>2058996189120</title>
<ellipse fill="orange" stroke="black" cx="3983" cy="-137" rx="18" ry="18"/>
</g>
<!-- 2058996190848&#45;&gt;2058996189120 -->
<g id="edge44" class="edge">
<title>2058996190848&#45;&gt;2058996189120</title>
<path fill="none" stroke="black" d="M3929.31,-137C3937.42,-137 3946.37,-137 3954.56,-137"/>
<polygon fill="black" stroke="black" points="3954.75,-140.5 3964.75,-137 3954.75,-133.5 3954.75,-140.5"/>
</g>
<!-- 2057961811792 -->
<g id="node37" class="node">
<title>2057961811792</title>
<polygon fill="none" stroke="black" points="2709,-153 2599,-153 2599,-117 2709,-117 2709,-153"/>
<text text-anchor="middle" x="2654" y="-131.9" font-family="Times New Roman,serif" font-size="12.00">Compile audit report</text>
</g>
<!-- 2057960884832&#45;&gt;2057961811792 -->
<g id="edge45" class="edge">
<title>2057960884832&#45;&gt;2057961811792</title>
<path fill="none" stroke="black" d="M2553.62,-172.7C2564.83,-168.45 2580.33,-162.56 2595.77,-156.71"/>
<polygon fill="black" stroke="black" points="2597.22,-159.9 2605.33,-153.08 2594.74,-153.36 2597.22,-159.9"/>
</g>
<!-- 2058986746832 -->
<g id="node38" class="node">
<title>2058986746832</title>
<polygon fill="none" stroke="black" points="2024,-225 1997,-207 2024,-189 2051,-207 2024,-225"/>
<text text-anchor="middle" x="2024" y="-203.9" font-family="Times New Roman,serif" font-size="12.00">+</text>
</g>
<!-- 2058986741744&#45;&gt;2058986746832 -->
<g id="edge46" class="edge">
<title>2058986741744&#45;&gt;2058986746832</title>
<path fill="none" stroke="black" d="M1961.1,-209.77C1970.59,-209.35 1979.95,-208.93 1988.4,-208.55"/>
<polygon fill="black" stroke="black" points="1988.73,-212.04 1998.57,-208.09 1988.42,-205.04 1988.73,-212.04"/>
</g>
<!-- 2057961811792&#45;&gt;2057961812032 -->
<g id="edge47" class="edge">
<title>2057961811792&#45;&gt;2057961812032</title>
<path fill="none" stroke="black" d="M2709.26,-121.43C2720.64,-118.59 2732.21,-115.7 2742.22,-113.2"/>
<polygon fill="black" stroke="black" points="2743.14,-116.57 2752,-110.75 2741.45,-109.78 2743.14,-116.57"/>
</g>
<!-- 2058986748032 -->
<g id="node39" class="node">
<title>2058986748032</title>
<polygon fill="none" stroke="black" points="2114,-267 2087,-249 2114,-231 2141,-249 2114,-267"/>
<text text-anchor="middle" x="2114" y="-245.9" font-family="Times New Roman,serif" font-size="12.00">X</text>
</g>
<!-- 2058986746832&#45;&gt;2058986748032 -->
<g id="edge48" class="edge">
<title>2058986746832&#45;&gt;2058986748032</title>
<path fill="none" stroke="black" d="M2040.33,-214.32C2053.58,-220.64 2072.97,-229.9 2088.39,-237.26"/>
<polygon fill="black" stroke="black" points="2087.31,-240.62 2097.85,-241.77 2090.33,-234.3 2087.31,-240.62"/>
</g>
<!-- 2057961814960 -->
<g id="node40" class="node">
<title>2057961814960</title>
<polygon fill="none" stroke="black" points="2114,-213 2087,-195 2114,-177 2141,-195 2114,-213"/>
<text text-anchor="middle" x="2114" y="-191.9" font-family="Times New Roman,serif" font-size="12.00">X</text>
</g>
<!-- 2058986746832&#45;&gt;2057961814960 -->
<g id="edge50" class="edge">
<title>2058986746832&#45;&gt;2057961814960</title>
<path fill="none" stroke="black" d="M2046.75,-204.03C2057.12,-202.62 2069.72,-200.9 2081.14,-199.34"/>
<polygon fill="black" stroke="black" points="2081.76,-202.79 2091.19,-197.97 2080.81,-195.86 2081.76,-202.79"/>
</g>
<!-- 2057961805936 -->
<g id="node41" class="node">
<title>2057961805936</title>
<polygon fill="none" stroke="black" points="2114,-128 2087,-110 2114,-92 2141,-110 2114,-128"/>
<text text-anchor="middle" x="2114" y="-106.9" font-family="Times New Roman,serif" font-size="12.00">X</text>
</g>
<!-- 2058986746832&#45;&gt;2057961805936 -->
<g id="edge49" class="edge">
<title>2058986746832&#45;&gt;2057961805936</title>
<path fill="none" stroke="black" d="M2035.09,-195.87C2050.01,-179.43 2078.13,-148.44 2096.19,-128.53"/>
<polygon fill="black" stroke="black" points="2098.9,-130.76 2103.02,-121 2093.71,-126.05 2098.9,-130.76"/>
</g>
<!-- 2057961806464 -->
<g id="node44" class="node">
<title>2057961806464</title>
<polygon fill="none" stroke="black" points="2356,-266 2329,-248 2356,-230 2383,-248 2356,-266"/>
<text text-anchor="middle" x="2356" y="-244.9" font-family="Times New Roman,serif" font-size="12.00">X</text>
</g>
<!-- 2058986748032&#45;&gt;2057961806464 -->
<g id="edge51" class="edge">
<title>2058986748032&#45;&gt;2057961806464</title>
<path fill="none" stroke="black" d="M2129.26,-256.91C2141.5,-263.21 2159.84,-271.55 2177,-275 2227.54,-285.17 2242.53,-285.51 2293,-275 2306.33,-272.22 2320.32,-266.42 2331.62,-260.9"/>
<polygon fill="black" stroke="black" points="2333.48,-263.88 2340.78,-256.21 2330.28,-257.65 2333.48,-263.88"/>
</g>
<!-- 2057961813520 -->
<g id="node45" class="node">
<title>2057961813520</title>
<polygon fill="none" stroke="black" points="2283,-266 2187,-266 2187,-230 2283,-230 2283,-266"/>
<text text-anchor="middle" x="2235" y="-244.9" font-family="Times New Roman,serif" font-size="12.00">Perform site visits</text>
</g>
<!-- 2058986748032&#45;&gt;2057961813520 -->
<g id="edge52" class="edge">
<title>2058986748032&#45;&gt;2057961813520</title>
<path fill="none" stroke="black" d="M2140.82,-248.78C2151.39,-248.69 2164.08,-248.59 2176.64,-248.48"/>
<polygon fill="black" stroke="black" points="2176.67,-251.98 2186.64,-248.4 2176.61,-244.98 2176.67,-251.98"/>
</g>
<!-- 2058986740352 -->
<g id="node42" class="node">
<title>2058986740352</title>
<polygon fill="none" stroke="black" points="2356,-197 2329,-179 2356,-161 2383,-179 2356,-197"/>
<text text-anchor="middle" x="2356" y="-175.9" font-family="Times New Roman,serif" font-size="12.00">X</text>
</g>
<!-- 2057961814960&#45;&gt;2058986740352 -->
<g id="edge53" class="edge">
<title>2057961814960&#45;&gt;2058986740352</title>
<path fill="none" stroke="black" d="M2138.89,-193.41C2181.75,-190.55 2271.81,-184.55 2321.06,-181.26"/>
<polygon fill="black" stroke="black" points="2321.46,-184.74 2331.21,-180.59 2321,-177.76 2321.46,-184.74"/>
</g>
<!-- 2057961804448 -->
<g id="node46" class="node">
<title>2057961804448</title>
<polygon fill="none" stroke="black" points="2293,-174 2177,-174 2177,-138 2293,-138 2293,-174"/>
<text text-anchor="middle" x="2235" y="-152.9" font-family="Times New Roman,serif" font-size="12.00">Conduct data analysis</text>
</g>
<!-- 2057961814960&#45;&gt;2057961804448 -->
<g id="edge54" class="edge">
<title>2057961814960&#45;&gt;2057961804448</title>
<path fill="none" stroke="black" d="M2132.56,-189.25C2142.5,-185.99 2155.61,-181.69 2169.09,-177.27"/>
<polygon fill="black" stroke="black" points="2170.53,-180.49 2178.94,-174.05 2168.35,-173.83 2170.53,-180.49"/>
</g>
<!-- 2057961814672 -->
<g id="node43" class="node">
<title>2057961814672</title>
<polygon fill="none" stroke="black" points="2356,-128 2329,-110 2356,-92 2383,-110 2356,-128"/>
<text text-anchor="middle" x="2356" y="-106.9" font-family="Times New Roman,serif" font-size="12.00">X</text>
</g>
<!-- 2057961805936&#45;&gt;2057961814672 -->
<g id="edge55" class="edge">
<title>2057961805936&#45;&gt;2057961814672</title>
<path fill="none" stroke="black" d="M2141.14,-110C2184.15,-110 2269.93,-110 2318.77,-110"/>
<polygon fill="black" stroke="black" points="2318.89,-113.5 2328.89,-110 2318.89,-106.5 2318.89,-113.5"/>
</g>
<!-- 2057961802144 -->
<g id="node47" class="node">
<title>2057961802144</title>
<polygon fill="none" stroke="black" points="2287,-82 2183,-82 2183,-46 2287,-46 2287,-82"/>
<text text-anchor="middle" x="2235" y="-60.9" font-family="Times New Roman,serif" font-size="12.00">Conduct interviews</text>
</g>
<!-- 2057961805936&#45;&gt;2057961802144 -->
<g id="edge56" class="edge">
<title>2057961805936&#45;&gt;2057961802144</title>
<path fill="none" stroke="black" d="M2131.55,-103.6C2143.72,-98.9 2161.04,-92.2 2177.98,-85.65"/>
<polygon fill="black" stroke="black" points="2179.25,-88.91 2187.32,-82.04 2176.73,-82.39 2179.25,-88.91"/>
</g>
<!-- 2057961800416 -->
<g id="node48" class="node">
<title>2057961800416</title>
<polygon fill="none" stroke="black" points="2446,-197 2419,-179 2446,-161 2473,-179 2446,-197"/>
<text text-anchor="middle" x="2446" y="-175.9" font-family="Times New Roman,serif" font-size="12.00">+</text>
</g>
<!-- 2058986740352&#45;&gt;2057961800416 -->
<g id="edge60" class="edge">
<title>2058986740352&#45;&gt;2057961800416</title>
<path fill="none" stroke="black" d="M2383.4,-179C2391.39,-179 2400.31,-179 2408.82,-179"/>
<polygon fill="black" stroke="black" points="2408.92,-182.5 2418.92,-179 2408.92,-175.5 2408.92,-182.5"/>
</g>
<!-- 2057961814672&#45;&gt;2057961800416 -->
<g id="edge61" class="edge">
<title>2057961814672&#45;&gt;2057961800416</title>
<path fill="none" stroke="black" d="M2369.24,-119.59C2383.55,-130.82 2407.48,-149.58 2424.61,-163.01"/>
<polygon fill="black" stroke="black" points="2422.84,-166.07 2432.87,-169.49 2427.16,-160.56 2422.84,-166.07"/>
</g>
<!-- 2057961806464&#45;&gt;2057961800416 -->
<g id="edge62" class="edge">
<title>2057961806464&#45;&gt;2057961800416</title>
<path fill="none" stroke="black" d="M2369.24,-238.41C2383.55,-227.18 2407.48,-208.42 2424.61,-194.99"/>
<polygon fill="black" stroke="black" points="2427.16,-197.44 2432.87,-188.51 2422.84,-191.93 2427.16,-197.44"/>
</g>
<!-- 2057961813520&#45;&gt;2057961806464 -->
<g id="edge57" class="edge">
<title>2057961813520&#45;&gt;2057961806464</title>
<path fill="none" stroke="black" d="M2283.03,-248C2294.85,-248 2307.35,-248 2318.56,-248"/>
<polygon fill="black" stroke="black" points="2318.85,-251.5 2328.85,-248 2318.85,-244.5 2318.85,-251.5"/>
</g>
<!-- 2057961804448&#45;&gt;2058986740352 -->
<g id="edge58" class="edge">
<title>2057961804448&#45;&gt;2058986740352</title>
<path fill="none" stroke="black" d="M2293.06,-167.03C2304.01,-169.15 2315.07,-171.28 2324.76,-173.15"/>
<polygon fill="black" stroke="black" points="2324.17,-176.61 2334.66,-175.07 2325.5,-169.73 2324.17,-176.61"/>
</g>
<!-- 2057961802144&#45;&gt;2057961814672 -->
<g id="edge59" class="edge">
<title>2057961802144&#45;&gt;2057961814672</title>
<path fill="none" stroke="black" d="M2282.69,-82.05C2298.36,-88.11 2315.28,-94.64 2328.8,-99.87"/>
<polygon fill="black" stroke="black" points="2327.82,-103.25 2338.41,-103.59 2330.34,-96.72 2327.82,-103.25"/>
</g>
<!-- 2057961800416&#45;&gt;2057960884832 -->
<g id="edge63" class="edge">
<title>2057961800416&#45;&gt;2057960884832</title>
<path fill="none" stroke="black" d="M2473.4,-179C2481.39,-179 2490.31,-179 2498.82,-179"/>
<polygon fill="black" stroke="black" points="2498.92,-182.5 2508.92,-179 2498.92,-175.5 2498.92,-182.5"/>
</g>
</g>
</svg>
