<?xml version="1.0" encoding="UTF-8" standalone="no"?>
<!DOCTYPE svg PUBLIC "-//W3C//DTD SVG 1.1//EN"
 "http://www.w3.org/Graphics/SVG/1.1/DTD/svg11.dtd">
<!-- Generated by graphviz version 6.0.1 (20220911.1526)
 -->
<!-- Pages: 1 -->
<svg width="3977pt" height="225pt"
 viewBox="0.00 0.00 3977.00 225.00" xmlns="http://www.w3.org/2000/svg" xmlns:xlink="http://www.w3.org/1999/xlink">
<g id="graph0" class="graph" transform="scale(1 1) rotate(0) translate(4 221)">
<polygon fill="white" stroke="none" points="-4,4 -4,-221 3973,-221 3973,4 -4,4"/>
<!-- 2057960892368 -->
<g id="node1" class="node">
<title>2057960892368</title>
<ellipse fill="green" stroke="black" cx="18" cy="-145" rx="18" ry="18"/>
</g>
<!-- 2057960886992 -->
<g id="node2" class="node">
<title>2057960886992</title>
<polygon fill="none" stroke="black" points="164,-163 72,-163 72,-127 164,-127 164,-163"/>
<text text-anchor="middle" x="118" y="-141.9" font-family="Times New Roman,serif" font-size="12.00">Send notification</text>
</g>
<!-- 2057960892368&#45;&gt;2057960886992 -->
<g id="edge1" class="edge">
<title>2057960892368&#45;&gt;2057960886992</title>
<path fill="none" stroke="black" d="M36.07,-145C43.4,-145 52.42,-145 61.74,-145"/>
<polygon fill="black" stroke="black" points="61.92,-148.5 71.92,-145 61.92,-141.5 61.92,-148.5"/>
</g>
<!-- 2057960882240 -->
<g id="node3" class="node">
<title>2057960882240</title>
<polygon fill="none" stroke="black" points="227,-163 200,-145 227,-127 254,-145 227,-163"/>
<text text-anchor="middle" x="227" y="-141.9" font-family="Times New Roman,serif" font-size="12.00">+</text>
</g>
<!-- 2057960886992&#45;&gt;2057960882240 -->
<g id="edge2" class="edge">
<title>2057960886992&#45;&gt;2057960882240</title>
<path fill="none" stroke="black" d="M164.07,-145C172.66,-145 181.55,-145 189.83,-145"/>
<polygon fill="black" stroke="black" points="189.9,-148.5 199.9,-145 189.9,-141.5 189.9,-148.5"/>
</g>
<!-- 2058995434928 -->
<g id="node4" class="node">
<title>2058995434928</title>
<polygon fill="none" stroke="black" points="434,-217 292,-217 292,-181 434,-181 434,-217"/>
<text text-anchor="middle" x="363" y="-195.9" font-family="Times New Roman,serif" font-size="12.00">Prepare financial statements</text>
</g>
<!-- 2057960882240&#45;&gt;2058995434928 -->
<g id="edge4" class="edge">
<title>2057960882240&#45;&gt;2058995434928</title>
<path fill="none" stroke="black" d="M243.7,-152.11C256.18,-157.69 274.11,-165.57 290,-172 294.22,-173.71 298.59,-175.44 303.01,-177.16"/>
<polygon fill="black" stroke="black" points="302.09,-180.56 312.68,-180.89 304.61,-174.03 302.09,-180.56"/>
</g>
<!-- 2057960883968 -->
<g id="node5" class="node">
<title>2057960883968</title>
<polygon fill="none" stroke="black" points="605,-117 472,-117 472,-81 605,-81 605,-117"/>
<text text-anchor="middle" x="538.5" y="-95.9" font-family="Times New Roman,serif" font-size="12.00">Check regulatory updates</text>
</g>
<!-- 2057960882240&#45;&gt;2057960883968 -->
<g id="edge3" class="edge">
<title>2057960882240&#45;&gt;2057960883968</title>
<path fill="none" stroke="black" d="M242.3,-137.13C254.56,-130.79 272.91,-122.25 290,-118 346.54,-103.94 412.38,-99.44 461.94,-98.31"/>
<polygon fill="black" stroke="black" points="462.01,-101.81 471.94,-98.12 461.87,-94.81 462.01,-101.81"/>
</g>
<!-- 2057960885744 -->
<g id="node6" class="node">
<title>2057960885744</title>
<polygon fill="none" stroke="black" points="436,-163 290,-163 290,-127 436,-127 436,-163"/>
<text text-anchor="middle" x="363" y="-141.9" font-family="Times New Roman,serif" font-size="12.00">Gather necessary documents</text>
</g>
<!-- 2057960882240&#45;&gt;2057960885744 -->
<g id="edge5" class="edge">
<title>2057960882240&#45;&gt;2057960885744</title>
<path fill="none" stroke="black" d="M254.15,-145C261.82,-145 270.63,-145 279.85,-145"/>
<polygon fill="black" stroke="black" points="279.98,-148.5 289.98,-145 279.98,-141.5 279.98,-148.5"/>
</g>
<!-- 2057960898416 -->
<g id="node7" class="node">
<title>2057960898416</title>
<polygon fill="none" stroke="black" points="538.5,-190 511.5,-172 538.5,-154 565.5,-172 538.5,-190"/>
<text text-anchor="middle" x="538.5" y="-168.9" font-family="Times New Roman,serif" font-size="12.00">+</text>
</g>
<!-- 2058995434928&#45;&gt;2057960898416 -->
<g id="edge6" class="edge">
<title>2058995434928&#45;&gt;2057960898416</title>
<path fill="none" stroke="black" d="M434.07,-188.1C459.1,-184.2 486.06,-180.01 506.18,-176.87"/>
<polygon fill="black" stroke="black" points="506.97,-180.29 516.31,-175.3 505.89,-173.38 506.97,-180.29"/>
</g>
<!-- 2057960898080 -->
<g id="node8" class="node">
<title>2057960898080</title>
<polygon fill="none" stroke="black" points="1493,-140 1466,-122 1493,-104 1520,-122 1493,-140"/>
<text text-anchor="middle" x="1493" y="-118.9" font-family="Times New Roman,serif" font-size="12.00">+</text>
</g>
<!-- 2057960883968&#45;&gt;2057960898080 -->
<g id="edge7" class="edge">
<title>2057960883968&#45;&gt;2057960898080</title>
<path fill="none" stroke="black" d="M605.16,-99C663.43,-99 750.88,-99 827,-99 827,-99 827,-99 1285.5,-99 1348.42,-99 1421.45,-109.68 1461.62,-116.48"/>
<polygon fill="black" stroke="black" points="1461.12,-119.95 1471.57,-118.2 1462.31,-113.05 1461.12,-119.95"/>
</g>
<!-- 2057960885744&#45;&gt;2057960898416 -->
<g id="edge8" class="edge">
<title>2057960885744&#45;&gt;2057960898416</title>
<path fill="none" stroke="black" d="M436.07,-156.22C460.54,-160.02 486.61,-164.08 506.19,-167.13"/>
<polygon fill="black" stroke="black" points="505.65,-170.59 516.07,-168.67 506.73,-163.67 505.65,-170.59"/>
</g>
<!-- 2057960883728 -->
<g id="node9" class="node">
<title>2057960883728</title>
<polygon fill="none" stroke="black" points="741,-190 641,-190 641,-154 741,-154 741,-190"/>
<text text-anchor="middle" x="691" y="-168.9" font-family="Times New Roman,serif" font-size="12.00">Submit documents</text>
</g>
<!-- 2057960898416&#45;&gt;2057960883728 -->
<g id="edge9" class="edge">
<title>2057960898416&#45;&gt;2057960883728</title>
<path fill="none" stroke="black" d="M565.72,-172C583.68,-172 608.25,-172 630.8,-172"/>
<polygon fill="black" stroke="black" points="630.99,-175.5 640.99,-172 630.99,-168.5 630.99,-175.5"/>
</g>
<!-- 2057960883632 -->
<g id="node10" class="node">
<title>2057960883632</title>
<polygon fill="none" stroke="black" points="1735,-140 1556,-140 1556,-104 1735,-104 1735,-140"/>
<text text-anchor="middle" x="1645.5" y="-118.9" font-family="Times New Roman,serif" font-size="12.00">Complete risk assessment/mitigation</text>
</g>
<!-- 2057960898080&#45;&gt;2057960883632 -->
<g id="edge10" class="edge">
<title>2057960898080&#45;&gt;2057960883632</title>
<path fill="none" stroke="black" d="M1520.22,-122C1527.76,-122 1536.47,-122 1545.71,-122"/>
<polygon fill="black" stroke="black" points="1545.91,-125.5 1555.91,-122 1545.91,-118.5 1545.91,-125.5"/>
</g>
<!-- 2057960894336 -->
<g id="node12" class="node">
<title>2057960894336</title>
<polygon fill="none" stroke="black" points="879,-190 777,-190 777,-154 879,-154 879,-190"/>
<text text-anchor="middle" x="828" y="-168.9" font-family="Times New Roman,serif" font-size="12.00">Review submission</text>
</g>
<!-- 2057960883728&#45;&gt;2057960894336 -->
<g id="edge11" class="edge">
<title>2057960883728&#45;&gt;2057960894336</title>
<path fill="none" stroke="black" d="M741.12,-172C749.37,-172 758.03,-172 766.53,-172"/>
<polygon fill="black" stroke="black" points="766.78,-175.5 776.78,-172 766.78,-168.5 766.78,-175.5"/>
</g>
<!-- 2057960897600 -->
<g id="node11" class="node">
<title>2057960897600</title>
<polygon fill="none" stroke="black" points="1798,-140 1771,-122 1798,-104 1825,-122 1798,-140"/>
<text text-anchor="middle" x="1798" y="-118.9" font-family="Times New Roman,serif" font-size="12.00">+</text>
</g>
<!-- 2057960883632&#45;&gt;2057960897600 -->
<g id="edge12" class="edge">
<title>2057960883632&#45;&gt;2057960897600</title>
<path fill="none" stroke="black" d="M1735.35,-122C1744.19,-122 1752.77,-122 1760.58,-122"/>
<polygon fill="black" stroke="black" points="1760.71,-125.5 1770.71,-122 1760.71,-118.5 1760.71,-125.5"/>
</g>
<!-- 2058995447936 -->
<g id="node14" class="node">
<title>2058995447936</title>
<polygon fill="none" stroke="black" points="1986.5,-194 1868.5,-194 1868.5,-158 1986.5,-158 1986.5,-194"/>
<text text-anchor="middle" x="1927.5" y="-172.9" font-family="Times New Roman,serif" font-size="12.00">Evaluate financial risks</text>
</g>
<!-- 2057960897600&#45;&gt;2058995447936 -->
<g id="edge15" class="edge">
<title>2057960897600&#45;&gt;2058995447936</title>
<path fill="none" stroke="black" d="M1814.76,-128.97C1827.27,-134.47 1845.22,-142.31 1861,-149 1864.89,-150.65 1868.91,-152.34 1872.96,-154.03"/>
<polygon fill="black" stroke="black" points="1871.83,-157.35 1882.41,-157.96 1874.52,-150.89 1871.83,-157.35"/>
</g>
<!-- 2057960885312 -->
<g id="node15" class="node">
<title>2057960885312</title>
<polygon fill="none" stroke="black" points="1993.5,-140 1861.5,-140 1861.5,-104 1993.5,-104 1993.5,-140"/>
<text text-anchor="middle" x="1927.5" y="-118.9" font-family="Times New Roman,serif" font-size="12.00">Evaluate operational risks</text>
</g>
<!-- 2057960897600&#45;&gt;2057960885312 -->
<g id="edge14" class="edge">
<title>2057960897600&#45;&gt;2057960885312</title>
<path fill="none" stroke="black" d="M1825.11,-122C1832.92,-122 1841.91,-122 1851.23,-122"/>
<polygon fill="black" stroke="black" points="1851.45,-125.5 1861.45,-122 1851.45,-118.5 1851.45,-125.5"/>
</g>
<!-- 2057960887040 -->
<g id="node16" class="node">
<title>2057960887040</title>
<polygon fill="none" stroke="black" points="1994,-86 1861,-86 1861,-50 1994,-50 1994,-86"/>
<text text-anchor="middle" x="1927.5" y="-64.9" font-family="Times New Roman,serif" font-size="12.00">Evaluate compliance risks</text>
</g>
<!-- 2057960897600&#45;&gt;2057960887040 -->
<g id="edge13" class="edge">
<title>2057960897600&#45;&gt;2057960887040</title>
<path fill="none" stroke="black" d="M1814.76,-115.03C1827.27,-109.53 1845.22,-101.69 1861,-95 1864.89,-93.35 1868.91,-91.66 1872.96,-89.97"/>
<polygon fill="black" stroke="black" points="1874.52,-93.11 1882.41,-86.04 1871.83,-86.65 1874.52,-93.11"/>
</g>
<!-- 2058995441792 -->
<g id="node13" class="node">
<title>2058995441792</title>
<polygon fill="none" stroke="black" points="942,-190 915,-172 942,-154 969,-172 942,-190"/>
<text text-anchor="middle" x="942" y="-168.9" font-family="Times New Roman,serif" font-size="12.00">X</text>
</g>
<!-- 2057960894336&#45;&gt;2058995441792 -->
<g id="edge16" class="edge">
<title>2057960894336&#45;&gt;2058995441792</title>
<path fill="none" stroke="black" d="M879.1,-172C887.69,-172 896.46,-172 904.6,-172"/>
<polygon fill="black" stroke="black" points="904.87,-175.5 914.87,-172 904.87,-168.5 904.87,-175.5"/>
</g>
<!-- 2058995443856 -->
<g id="node17" class="node">
<title>2058995443856</title>
<polygon fill="none" stroke="black" points="1403,-163 1376,-145 1403,-127 1430,-145 1403,-163"/>
<text text-anchor="middle" x="1403" y="-141.9" font-family="Times New Roman,serif" font-size="12.00">X</text>
</g>
<!-- 2058995441792&#45;&gt;2058995443856 -->
<g id="edge17" class="edge">
<title>2058995441792&#45;&gt;2058995443856</title>
<path fill="none" stroke="black" d="M964.83,-175.08C1025.29,-182.96 1199.65,-201.23 1340,-172 1353.33,-169.22 1367.32,-163.42 1378.62,-157.9"/>
<polygon fill="black" stroke="black" points="1380.48,-160.88 1387.78,-153.21 1377.28,-154.65 1380.48,-160.88"/>
</g>
<!-- 2057960894768 -->
<g id="node18" class="node">
<title>2057960894768</title>
<polygon fill="none" stroke="black" points="1193,-163 1005,-163 1005,-127 1193,-127 1193,-163"/>
<text text-anchor="middle" x="1099" y="-141.9" font-family="Times New Roman,serif" font-size="12.00">Request clarifications of discrepancies</text>
</g>
<!-- 2058995441792&#45;&gt;2057960894768 -->
<g id="edge18" class="edge">
<title>2058995441792&#45;&gt;2057960894768</title>
<path fill="none" stroke="black" d="M963.9,-168.36C972.55,-166.85 983.27,-164.98 994.85,-162.97"/>
<polygon fill="black" stroke="black" points="995.51,-166.41 1004.76,-161.24 994.31,-159.51 995.51,-166.41"/>
</g>
<!-- 2057960889104 -->
<g id="node19" class="node">
<title>2057960889104</title>
<polygon fill="none" stroke="black" points="2057,-140 2030,-122 2057,-104 2084,-122 2057,-140"/>
<text text-anchor="middle" x="2057" y="-118.9" font-family="Times New Roman,serif" font-size="12.00">+</text>
</g>
<!-- 2058995447936&#45;&gt;2057960889104 -->
<g id="edge19" class="edge">
<title>2058995447936&#45;&gt;2057960889104</title>
<path fill="none" stroke="black" d="M1972.59,-157.96C1979.76,-154.99 1987.09,-151.93 1994,-149 2006.21,-143.83 2019.71,-137.96 2030.99,-133.03"/>
<polygon fill="black" stroke="black" points="2032.49,-136.19 2040.24,-128.97 2029.67,-129.78 2032.49,-136.19"/>
</g>
<!-- 2057960885312&#45;&gt;2057960889104 -->
<g id="edge20" class="edge">
<title>2057960885312&#45;&gt;2057960889104</title>
<path fill="none" stroke="black" d="M1993.74,-122C2002.6,-122 2011.43,-122 2019.53,-122"/>
<polygon fill="black" stroke="black" points="2019.7,-125.5 2029.7,-122 2019.7,-118.5 2019.7,-125.5"/>
</g>
<!-- 2057960887040&#45;&gt;2057960889104 -->
<g id="edge21" class="edge">
<title>2057960887040&#45;&gt;2057960889104</title>
<path fill="none" stroke="black" d="M1972.59,-86.04C1979.76,-89.01 1987.09,-92.07 1994,-95 2006.21,-100.17 2019.71,-106.04 2030.99,-110.97"/>
<polygon fill="black" stroke="black" points="2029.67,-114.22 2040.24,-115.03 2032.49,-107.81 2029.67,-114.22"/>
</g>
<!-- 2058995443856&#45;&gt;2057960898080 -->
<g id="edge22" class="edge">
<title>2058995443856&#45;&gt;2057960898080</title>
<path fill="none" stroke="black" d="M1423.09,-140.01C1434.82,-136.94 1450.07,-132.96 1463.24,-129.52"/>
<polygon fill="black" stroke="black" points="1464.45,-132.82 1473.24,-126.9 1462.68,-126.04 1464.45,-132.82"/>
</g>
<!-- 2057960887280 -->
<g id="node21" class="node">
<title>2057960887280</title>
<polygon fill="none" stroke="black" points="1340,-163 1229,-163 1229,-127 1340,-127 1340,-163"/>
<text text-anchor="middle" x="1284.5" y="-141.9" font-family="Times New Roman,serif" font-size="12.00">Receive clarifications</text>
</g>
<!-- 2057960894768&#45;&gt;2057960887280 -->
<g id="edge23" class="edge">
<title>2057960894768&#45;&gt;2057960887280</title>
<path fill="none" stroke="black" d="M1193.09,-145C1201.8,-145 1210.49,-145 1218.84,-145"/>
<polygon fill="black" stroke="black" points="1218.85,-148.5 1228.85,-145 1218.85,-141.5 1218.85,-148.5"/>
</g>
<!-- 2058995449040 -->
<g id="node20" class="node">
<title>2058995449040</title>
<polygon fill="none" stroke="black" points="2147,-140 2120,-122 2147,-104 2174,-122 2147,-140"/>
<text text-anchor="middle" x="2147" y="-118.9" font-family="Times New Roman,serif" font-size="12.00">X</text>
</g>
<!-- 2057960889104&#45;&gt;2058995449040 -->
<g id="edge24" class="edge">
<title>2057960889104&#45;&gt;2058995449040</title>
<path fill="none" stroke="black" d="M2084.4,-122C2092.39,-122 2101.31,-122 2109.82,-122"/>
<polygon fill="black" stroke="black" points="2109.92,-125.5 2119.92,-122 2109.92,-118.5 2109.92,-125.5"/>
</g>
<!-- 2058995442032 -->
<g id="node22" class="node">
<title>2058995442032</title>
<polygon fill="none" stroke="black" points="2751,-140 2724,-122 2751,-104 2778,-122 2751,-140"/>
<text text-anchor="middle" x="2751" y="-118.9" font-family="Times New Roman,serif" font-size="12.00">X</text>
</g>
<!-- 2058995449040&#45;&gt;2058995442032 -->
<g id="edge27" class="edge">
<title>2058995449040&#45;&gt;2058995442032</title>
<path fill="none" stroke="black" d="M2165.8,-127.64C2208.71,-140.71 2321.46,-172 2418,-172 2418,-172 2418,-172 2541,-172 2608.64,-172 2685.3,-146.92 2724.28,-132.29"/>
<polygon fill="black" stroke="black" points="2725.71,-135.49 2733.79,-128.64 2723.2,-128.95 2725.71,-135.49"/>
</g>
<!-- 2058995440304 -->
<g id="node23" class="node">
<title>2058995440304</title>
<polygon fill="none" stroke="black" points="2356,-117 2210,-117 2210,-81 2356,-81 2356,-117"/>
<text text-anchor="middle" x="2283" y="-95.9" font-family="Times New Roman,serif" font-size="12.00">Launch detailed investigation</text>
</g>
<!-- 2058995449040&#45;&gt;2058995440304 -->
<g id="edge26" class="edge">
<title>2058995449040&#45;&gt;2058995440304</title>
<path fill="none" stroke="black" d="M2168.94,-118.41C2177.65,-116.91 2188.37,-115.07 2199.71,-113.12"/>
<polygon fill="black" stroke="black" points="2200.54,-116.53 2209.8,-111.39 2199.35,-109.63 2200.54,-116.53"/>
</g>
<!-- 2057960887280&#45;&gt;2058995443856 -->
<g id="edge25" class="edge">
<title>2057960887280&#45;&gt;2058995443856</title>
<path fill="none" stroke="black" d="M1340.34,-145C1348.96,-145 1357.67,-145 1365.73,-145"/>
<polygon fill="black" stroke="black" points="1365.88,-148.5 1375.88,-145 1365.88,-141.5 1365.88,-148.5"/>
</g>
<!-- 2057960884784 -->
<g id="node25" class="node">
<title>2057960884784</title>
<polygon fill="none" stroke="black" points="2924,-140 2814,-140 2814,-104 2924,-104 2924,-140"/>
<text text-anchor="middle" x="2869" y="-118.9" font-family="Times New Roman,serif" font-size="12.00">Compile audit report</text>
</g>
<!-- 2058995442032&#45;&gt;2057960884784 -->
<g id="edge28" class="edge">
<title>2058995442032&#45;&gt;2057960884784</title>
<path fill="none" stroke="black" d="M2778.03,-122C2785.7,-122 2794.45,-122 2803.42,-122"/>
<polygon fill="black" stroke="black" points="2803.58,-125.5 2813.58,-122 2803.58,-118.5 2803.58,-125.5"/>
</g>
<!-- 2058995440832 -->
<g id="node24" class="node">
<title>2058995440832</title>
<polygon fill="none" stroke="black" points="2419,-117 2392,-99 2419,-81 2446,-99 2419,-117"/>
<text text-anchor="middle" x="2419" y="-95.9" font-family="Times New Roman,serif" font-size="12.00">+</text>
</g>
<!-- 2058995440304&#45;&gt;2058995440832 -->
<g id="edge29" class="edge">
<title>2058995440304&#45;&gt;2058995440832</title>
<path fill="none" stroke="black" d="M2356.1,-99C2364.97,-99 2373.73,-99 2381.73,-99"/>
<polygon fill="black" stroke="black" points="2381.77,-102.5 2391.77,-99 2381.77,-95.5 2381.77,-102.5"/>
</g>
<!-- 2058995437808 -->
<g id="node27" class="node">
<title>2058995437808</title>
<polygon fill="none" stroke="black" points="2592,-144 2488,-144 2488,-108 2592,-108 2592,-144"/>
<text text-anchor="middle" x="2540" y="-122.9" font-family="Times New Roman,serif" font-size="12.00">Conduct interviews</text>
</g>
<!-- 2058995440832&#45;&gt;2058995437808 -->
<g id="edge30" class="edge">
<title>2058995440832&#45;&gt;2058995437808</title>
<path fill="none" stroke="black" d="M2439.65,-103.46C2450.27,-105.87 2464.04,-108.99 2477.91,-112.14"/>
<polygon fill="black" stroke="black" points="2477.47,-115.63 2487.99,-114.43 2479.02,-108.8 2477.47,-115.63"/>
</g>
<!-- 2058995445392 -->
<g id="node28" class="node">
<title>2058995445392</title>
<polygon fill="none" stroke="black" points="2588,-90 2492,-90 2492,-54 2588,-54 2588,-90"/>
<text text-anchor="middle" x="2540" y="-68.9" font-family="Times New Roman,serif" font-size="12.00">Perform site visits</text>
</g>
<!-- 2058995440832&#45;&gt;2058995445392 -->
<g id="edge31" class="edge">
<title>2058995440832&#45;&gt;2058995445392</title>
<path fill="none" stroke="black" d="M2439.65,-94.54C2451.29,-91.9 2466.7,-88.4 2481.9,-84.95"/>
<polygon fill="black" stroke="black" points="2482.84,-88.33 2491.82,-82.7 2481.29,-81.5 2482.84,-88.33"/>
</g>
<!-- 2058995447600 -->
<g id="node29" class="node">
<title>2058995447600</title>
<polygon fill="none" stroke="black" points="2598,-36 2482,-36 2482,0 2598,0 2598,-36"/>
<text text-anchor="middle" x="2540" y="-14.9" font-family="Times New Roman,serif" font-size="12.00">Conduct data analysis</text>
</g>
<!-- 2058995440832&#45;&gt;2058995447600 -->
<g id="edge32" class="edge">
<title>2058995440832&#45;&gt;2058995447600</title>
<path fill="none" stroke="black" d="M2430.25,-88.48C2441.99,-76.83 2462.17,-57.97 2482,-45 2484.12,-43.61 2486.33,-42.25 2488.59,-40.93"/>
<polygon fill="black" stroke="black" points="2490.42,-43.91 2497.48,-36.01 2487.03,-37.79 2490.42,-43.91"/>
</g>
<!-- 2058995439200 -->
<g id="node26" class="node">
<title>2058995439200</title>
<polygon fill="none" stroke="black" points="2987,-140 2960,-122 2987,-104 3014,-122 2987,-140"/>
<text text-anchor="middle" x="2987" y="-118.9" font-family="Times New Roman,serif" font-size="12.00">X</text>
</g>
<!-- 2057960884784&#45;&gt;2058995439200 -->
<g id="edge33" class="edge">
<title>2057960884784&#45;&gt;2058995439200</title>
<path fill="none" stroke="black" d="M2924.26,-122C2932.87,-122 2941.59,-122 2949.66,-122"/>
<polygon fill="black" stroke="black" points="2949.83,-125.5 2959.83,-122 2949.83,-118.5 2949.83,-125.5"/>
</g>
<!-- 2058995447792 -->
<g id="node30" class="node">
<title>2058995447792</title>
<polygon fill="none" stroke="black" points="3208,-163 3050,-163 3050,-127 3208,-127 3208,-163"/>
<text text-anchor="middle" x="3129" y="-141.9" font-family="Times New Roman,serif" font-size="12.00">Review report by audit director</text>
</g>
<!-- 2058995439200&#45;&gt;2058995447792 -->
<g id="edge34" class="edge">
<title>2058995439200&#45;&gt;2058995447792</title>
<path fill="none" stroke="black" d="M3008.96,-125.44C3017.63,-126.87 3028.32,-128.62 3039.71,-130.49"/>
<polygon fill="black" stroke="black" points="3039.42,-134 3049.86,-132.16 3040.56,-127.09 3039.42,-134"/>
</g>
<!-- 2057960897120 -->
<g id="node31" class="node">
<title>2057960897120</title>
<polygon fill="none" stroke="black" points="2661,-117 2634,-99 2661,-81 2688,-99 2661,-117"/>
<text text-anchor="middle" x="2661" y="-95.9" font-family="Times New Roman,serif" font-size="12.00">+</text>
</g>
<!-- 2058995437808&#45;&gt;2057960897120 -->
<g id="edge35" class="edge">
<title>2058995437808&#45;&gt;2057960897120</title>
<path fill="none" stroke="black" d="M2592.16,-114.39C2605.28,-111.42 2618.95,-108.31 2630.55,-105.68"/>
<polygon fill="black" stroke="black" points="2631.57,-109.04 2640.55,-103.41 2630.02,-102.21 2631.57,-109.04"/>
</g>
<!-- 2058995445392&#45;&gt;2057960897120 -->
<g id="edge36" class="edge">
<title>2058995445392&#45;&gt;2057960897120</title>
<path fill="none" stroke="black" d="M2588.03,-82.67C2602.34,-85.92 2617.67,-89.39 2630.48,-92.3"/>
<polygon fill="black" stroke="black" points="2630.04,-95.79 2640.57,-94.59 2631.59,-88.97 2630.04,-95.79"/>
</g>
<!-- 2058995447600&#45;&gt;2057960897120 -->
<g id="edge37" class="edge">
<title>2058995447600&#45;&gt;2057960897120</title>
<path fill="none" stroke="black" d="M2582.52,-36.01C2587.86,-38.8 2593.14,-41.82 2598,-45 2614.11,-55.54 2630.45,-69.96 2642.31,-81.25"/>
<polygon fill="black" stroke="black" points="2640.14,-84.02 2649.75,-88.48 2645.02,-79 2640.14,-84.02"/>
</g>
<!-- 2058995438768 -->
<g id="node32" class="node">
<title>2058995438768</title>
<polygon fill="none" stroke="black" points="3271,-163 3244,-145 3271,-127 3298,-145 3271,-163"/>
<text text-anchor="middle" x="3271" y="-141.9" font-family="Times New Roman,serif" font-size="12.00">X</text>
</g>
<!-- 2058995447792&#45;&gt;2058995438768 -->
<g id="edge39" class="edge">
<title>2058995447792&#45;&gt;2058995438768</title>
<path fill="none" stroke="black" d="M3208.19,-145C3217.16,-145 3225.95,-145 3233.95,-145"/>
<polygon fill="black" stroke="black" points="3233.98,-148.5 3243.98,-145 3233.98,-141.5 3233.98,-148.5"/>
</g>
<!-- 2057960897120&#45;&gt;2058995442032 -->
<g id="edge38" class="edge">
<title>2057960897120&#45;&gt;2058995442032</title>
<path fill="none" stroke="black" d="M2681.09,-103.99C2692.82,-107.06 2708.07,-111.04 2721.24,-114.48"/>
<polygon fill="black" stroke="black" points="2720.68,-117.96 2731.24,-117.1 2722.45,-111.18 2720.68,-117.96"/>
</g>
<!-- 2058995447504 -->
<g id="node33" class="node">
<title>2058995447504</title>
<polygon fill="none" stroke="black" points="3440,-217 3352,-217 3352,-181 3440,-181 3440,-217"/>
<text text-anchor="middle" x="3396" y="-195.9" font-family="Times New Roman,serif" font-size="12.00">Approve report</text>
</g>
<!-- 2058995438768&#45;&gt;2058995447504 -->
<g id="edge41" class="edge">
<title>2058995438768&#45;&gt;2058995447504</title>
<path fill="none" stroke="black" d="M3287.83,-151.95C3302.23,-158.27 3324.29,-167.96 3344.66,-176.9"/>
<polygon fill="black" stroke="black" points="3343.31,-180.13 3353.87,-180.94 3346.12,-173.72 3343.31,-180.13"/>
</g>
<!-- 2057960890256 -->
<g id="node34" class="node">
<title>2057960890256</title>
<polygon fill="none" stroke="black" points="3458,-163 3334,-163 3334,-127 3458,-127 3458,-163"/>
<text text-anchor="middle" x="3396" y="-141.9" font-family="Times New Roman,serif" font-size="12.00">Send report for revision</text>
</g>
<!-- 2058995438768&#45;&gt;2057960890256 -->
<g id="edge40" class="edge">
<title>2058995438768&#45;&gt;2057960890256</title>
<path fill="none" stroke="black" d="M3298.09,-145C3305.72,-145 3314.46,-145 3323.49,-145"/>
<polygon fill="black" stroke="black" points="3323.78,-148.5 3333.78,-145 3323.78,-141.5 3323.78,-148.5"/>
</g>
<!-- 2057960890736 -->
<g id="node36" class="node">
<title>2057960890736</title>
<polygon fill="none" stroke="black" points="3621,-217 3509,-217 3509,-181 3621,-181 3621,-217"/>
<text text-anchor="middle" x="3565" y="-195.9" font-family="Times New Roman,serif" font-size="12.00">Distribute final report</text>
</g>
<!-- 2058995447504&#45;&gt;2057960890736 -->
<g id="edge42" class="edge">
<title>2058995447504&#45;&gt;2057960890736</title>
<path fill="none" stroke="black" d="M3440.01,-199C3457.87,-199 3478.98,-199 3498.68,-199"/>
<polygon fill="black" stroke="black" points="3498.83,-202.5 3508.83,-199 3498.83,-195.5 3498.83,-202.5"/>
</g>
<!-- 2058995438048 -->
<g id="node35" class="node">
<title>2058995438048</title>
<polygon fill="none" stroke="black" points="3636,-140 3494,-140 3494,-104 3636,-104 3636,-140"/>
<text text-anchor="middle" x="3565" y="-118.9" font-family="Times New Roman,serif" font-size="12.00">Update and resubmit report</text>
</g>
<!-- 2057960890256&#45;&gt;2058995438048 -->
<g id="edge43" class="edge">
<title>2057960890256&#45;&gt;2058995438048</title>
<path fill="none" stroke="black" d="M3458.24,-136.57C3466.53,-135.42 3475.15,-134.24 3483.71,-133.06"/>
<polygon fill="black" stroke="black" points="3484.3,-136.51 3493.73,-131.68 3483.34,-129.58 3484.3,-136.51"/>
</g>
<!-- 2058995438048&#45;&gt;2058995439200 -->
<g id="edge44" class="edge">
<title>2058995438048&#45;&gt;2058995439200</title>
<path fill="none" stroke="black" d="M3493.88,-118.98C3481.91,-118.57 3469.6,-118.22 3458,-118 3276.7,-114.58 3231.24,-112.16 3050,-118 3040.68,-118.3 3030.58,-118.85 3021.3,-119.46"/>
<polygon fill="black" stroke="black" points="3020.98,-115.97 3011.24,-120.14 3021.46,-122.95 3020.98,-115.97"/>
</g>
<!-- 2057960897744 -->
<g id="node37" class="node">
<title>2057960897744</title>
<polygon fill="none" stroke="black" points="3755,-217 3672,-217 3672,-181 3755,-181 3755,-217"/>
<text text-anchor="middle" x="3713.5" y="-195.9" font-family="Times New Roman,serif" font-size="12.00">Archive report</text>
</g>
<!-- 2057960890736&#45;&gt;2057960897744 -->
<g id="edge45" class="edge">
<title>2057960890736&#45;&gt;2057960897744</title>
<path fill="none" stroke="black" d="M3621.39,-199C3634.56,-199 3648.55,-199 3661.51,-199"/>
<polygon fill="black" stroke="black" points="3661.65,-202.5 3671.65,-199 3661.65,-195.5 3661.65,-202.5"/>
</g>
<!-- 2057960888720 -->
<g id="node38" class="node">
<title>2057960888720</title>
<polygon fill="none" stroke="black" points="3897,-217 3791,-217 3791,-181 3897,-181 3897,-217"/>
<text text-anchor="middle" x="3844" y="-195.9" font-family="Times New Roman,serif" font-size="12.00">Close audit process</text>
</g>
<!-- 2057960897744&#45;&gt;2057960888720 -->
<g id="edge46" class="edge">
<title>2057960897744&#45;&gt;2057960888720</title>
<path fill="none" stroke="black" d="M3755.16,-199C3763.3,-199 3772.02,-199 3780.7,-199"/>
<polygon fill="black" stroke="black" points="3780.83,-202.5 3790.83,-199 3780.83,-195.5 3780.83,-202.5"/>
</g>
<!-- 2057960893568 -->
<g id="node39" class="node">
<title>2057960893568</title>
<ellipse fill="orange" stroke="black" cx="3951" cy="-199" rx="18" ry="18"/>
</g>
<!-- 2057960888720&#45;&gt;2057960893568 -->
<g id="edge47" class="edge">
<title>2057960888720&#45;&gt;2057960893568</title>
<path fill="none" stroke="black" d="M3897.19,-199C3905.87,-199 3914.56,-199 3922.31,-199"/>
<polygon fill="black" stroke="black" points="3922.54,-202.5 3932.54,-199 3922.54,-195.5 3922.54,-202.5"/>
</g>
</g>
</svg>
