<?xml version="1.0" encoding="UTF-8" standalone="no"?>
<!DOCTYPE svg PUBLIC "-//W3C//DTD SVG 1.1//EN"
 "http://www.w3.org/Graphics/SVG/1.1/DTD/svg11.dtd">
<!-- Generated by graphviz version 6.0.1 (20220911.1526)
 -->
<!-- Pages: 1 -->
<svg width="3826pt" height="152pt"
 viewBox="0.00 0.00 3826.00 152.00" xmlns="http://www.w3.org/2000/svg" xmlns:xlink="http://www.w3.org/1999/xlink">
<g id="graph0" class="graph" transform="scale(1 1) rotate(0) translate(4 148)">
<polygon fill="white" stroke="none" points="-4,4 -4,-148 3822,-148 3822,4 -4,4"/>
<!-- 2058998374816 -->
<g id="node1" class="node">
<title>2058998374816</title>
<ellipse fill="green" stroke="black" cx="18" cy="-72" rx="18" ry="18"/>
</g>
<!-- 2058998366416 -->
<g id="node2" class="node">
<title>2058998366416</title>
<polygon fill="none" stroke="black" points="178,-90 72,-90 72,-54 178,-54 178,-90"/>
<text text-anchor="middle" x="125" y="-68.9" font-family="Times New Roman,serif" font-size="12.00">Close audit process</text>
</g>
<!-- 2058998374816&#45;&gt;2058998366416 -->
<g id="edge1" class="edge">
<title>2058998374816&#45;&gt;2058998366416</title>
<path fill="none" stroke="black" d="M36.34,-72C43.52,-72 52.34,-72 61.58,-72"/>
<polygon fill="black" stroke="black" points="61.71,-75.5 71.71,-72 61.71,-68.5 61.71,-75.5"/>
</g>
<!-- 2058996771728 -->
<g id="node3" class="node">
<title>2058996771728</title>
<polygon fill="none" stroke="black" points="297,-90 214,-90 214,-54 297,-54 297,-90"/>
<text text-anchor="middle" x="255.5" y="-68.9" font-family="Times New Roman,serif" font-size="12.00">Archive report</text>
</g>
<!-- 2058998366416&#45;&gt;2058996771728 -->
<g id="edge2" class="edge">
<title>2058998366416&#45;&gt;2058996771728</title>
<path fill="none" stroke="black" d="M178.27,-72C186.66,-72 195.34,-72 203.71,-72"/>
<polygon fill="black" stroke="black" points="203.71,-75.5 213.71,-72 203.71,-68.5 203.71,-75.5"/>
</g>
<!-- 2058998368768 -->
<g id="node4" class="node">
<title>2058998368768</title>
<polygon fill="none" stroke="black" points="445,-90 333,-90 333,-54 445,-54 445,-90"/>
<text text-anchor="middle" x="389" y="-68.9" font-family="Times New Roman,serif" font-size="12.00">Distribute final report</text>
</g>
<!-- 2058996771728&#45;&gt;2058998368768 -->
<g id="edge3" class="edge">
<title>2058996771728&#45;&gt;2058998368768</title>
<path fill="none" stroke="black" d="M297.03,-72C305.16,-72 313.91,-72 322.64,-72"/>
<polygon fill="black" stroke="black" points="322.85,-75.5 332.85,-72 322.85,-68.5 322.85,-75.5"/>
</g>
<!-- 2058998366752 -->
<g id="node5" class="node">
<title>2058998366752</title>
<polygon fill="none" stroke="black" points="569,-90 481,-90 481,-54 569,-54 569,-90"/>
<text text-anchor="middle" x="525" y="-68.9" font-family="Times New Roman,serif" font-size="12.00">Approve report</text>
</g>
<!-- 2058998368768&#45;&gt;2058998366752 -->
<g id="edge4" class="edge">
<title>2058998368768&#45;&gt;2058998366752</title>
<path fill="none" stroke="black" d="M445.28,-72C453.68,-72 462.34,-72 470.7,-72"/>
<polygon fill="black" stroke="black" points="470.72,-75.5 480.72,-72 470.72,-68.5 470.72,-75.5"/>
</g>
<!-- 2058996775088 -->
<g id="node6" class="node">
<title>2058996775088</title>
<polygon fill="none" stroke="black" points="763,-90 605,-90 605,-54 763,-54 763,-90"/>
<text text-anchor="middle" x="684" y="-68.9" font-family="Times New Roman,serif" font-size="12.00">Review report by audit director</text>
</g>
<!-- 2058998366752&#45;&gt;2058996775088 -->
<g id="edge5" class="edge">
<title>2058998366752&#45;&gt;2058996775088</title>
<path fill="none" stroke="black" d="M569.32,-72C577.36,-72 586.03,-72 594.86,-72"/>
<polygon fill="black" stroke="black" points="594.88,-75.5 604.88,-72 594.88,-68.5 594.88,-75.5"/>
</g>
<!-- 2058998368432 -->
<g id="node7" class="node">
<title>2058998368432</title>
<polygon fill="none" stroke="black" points="941,-90 799,-90 799,-54 941,-54 941,-90"/>
<text text-anchor="middle" x="870" y="-68.9" font-family="Times New Roman,serif" font-size="12.00">Update and resubmit report</text>
</g>
<!-- 2058996775088&#45;&gt;2058998368432 -->
<g id="edge6" class="edge">
<title>2058996775088&#45;&gt;2058998368432</title>
<path fill="none" stroke="black" d="M763.03,-72C771.46,-72 780.04,-72 788.5,-72"/>
<polygon fill="black" stroke="black" points="788.73,-75.5 798.73,-72 788.73,-68.5 788.73,-75.5"/>
</g>
<!-- 2058998367088 -->
<g id="node8" class="node">
<title>2058998367088</title>
<polygon fill="none" stroke="black" points="1101,-90 977,-90 977,-54 1101,-54 1101,-90"/>
<text text-anchor="middle" x="1039" y="-68.9" font-family="Times New Roman,serif" font-size="12.00">Send report for revision</text>
</g>
<!-- 2058998368432&#45;&gt;2058998367088 -->
<g id="edge7" class="edge">
<title>2058998368432&#45;&gt;2058998367088</title>
<path fill="none" stroke="black" d="M941.34,-72C949.7,-72 958.25,-72 966.63,-72"/>
<polygon fill="black" stroke="black" points="966.75,-75.5 976.75,-72 966.75,-68.5 966.75,-75.5"/>
</g>
<!-- 2058996776096 -->
<g id="node9" class="node">
<title>2058996776096</title>
<polygon fill="none" stroke="black" points="1295,-90 1137,-90 1137,-54 1295,-54 1295,-90"/>
<text text-anchor="middle" x="1216" y="-68.9" font-family="Times New Roman,serif" font-size="12.00">Review report by audit director</text>
</g>
<!-- 2058998367088&#45;&gt;2058996776096 -->
<g id="edge8" class="edge">
<title>2058998367088&#45;&gt;2058996776096</title>
<path fill="none" stroke="black" d="M1101.21,-72C1109.5,-72 1118.13,-72 1126.78,-72"/>
<polygon fill="black" stroke="black" points="1126.91,-75.5 1136.91,-72 1126.91,-68.5 1126.91,-75.5"/>
</g>
<!-- 2058996776432 -->
<g id="node10" class="node">
<title>2058996776432</title>
<polygon fill="none" stroke="black" points="1441,-90 1331,-90 1331,-54 1441,-54 1441,-90"/>
<text text-anchor="middle" x="1386" y="-68.9" font-family="Times New Roman,serif" font-size="12.00">Compile audit report</text>
</g>
<!-- 2058996776096&#45;&gt;2058996776432 -->
<g id="edge9" class="edge">
<title>2058996776096&#45;&gt;2058996776432</title>
<path fill="none" stroke="black" d="M1295.1,-72C1303.63,-72 1312.24,-72 1320.57,-72"/>
<polygon fill="black" stroke="black" points="1320.59,-75.5 1330.59,-72 1320.59,-68.5 1320.59,-75.5"/>
</g>
<!-- 2058998367424 -->
<g id="node11" class="node">
<title>2058998367424</title>
<polygon fill="none" stroke="black" points="1656,-90 1477,-90 1477,-54 1656,-54 1656,-90"/>
<text text-anchor="middle" x="1566.5" y="-68.9" font-family="Times New Roman,serif" font-size="12.00">Complete risk assessment/mitigation</text>
</g>
<!-- 2058996776432&#45;&gt;2058998367424 -->
<g id="edge10" class="edge">
<title>2058996776432&#45;&gt;2058998367424</title>
<path fill="none" stroke="black" d="M1441.04,-72C1449.15,-72 1457.73,-72 1466.43,-72"/>
<polygon fill="black" stroke="black" points="1466.68,-75.5 1476.68,-72 1466.68,-68.5 1466.68,-75.5"/>
</g>
<!-- 2058998369104 -->
<g id="node12" class="node">
<title>2058998369104</title>
<polygon fill="none" stroke="black" points="1788,-90 1692,-90 1692,-54 1788,-54 1788,-90"/>
<text text-anchor="middle" x="1740" y="-68.9" font-family="Times New Roman,serif" font-size="12.00">Perform site visits</text>
</g>
<!-- 2058998367424&#45;&gt;2058998369104 -->
<g id="edge11" class="edge">
<title>2058998367424&#45;&gt;2058998369104</title>
<path fill="none" stroke="black" d="M1656.01,-72C1664.65,-72 1673.25,-72 1681.46,-72"/>
<polygon fill="black" stroke="black" points="1681.63,-75.5 1691.63,-72 1681.63,-68.5 1681.63,-75.5"/>
</g>
<!-- 2058996774080 -->
<g id="node13" class="node">
<title>2058996774080</title>
<polygon fill="none" stroke="black" points="1928,-90 1824,-90 1824,-54 1928,-54 1928,-90"/>
<text text-anchor="middle" x="1876" y="-68.9" font-family="Times New Roman,serif" font-size="12.00">Conduct interviews</text>
</g>
<!-- 2058998369104&#45;&gt;2058996774080 -->
<g id="edge12" class="edge">
<title>2058998369104&#45;&gt;2058996774080</title>
<path fill="none" stroke="black" d="M1788.24,-72C1796.39,-72 1804.96,-72 1813.41,-72"/>
<polygon fill="black" stroke="black" points="1813.63,-75.5 1823.63,-72 1813.63,-68.5 1813.63,-75.5"/>
</g>
<!-- 2058996775424 -->
<g id="node14" class="node">
<title>2058996775424</title>
<polygon fill="none" stroke="black" points="2080,-90 1964,-90 1964,-54 2080,-54 2080,-90"/>
<text text-anchor="middle" x="2022" y="-68.9" font-family="Times New Roman,serif" font-size="12.00">Conduct data analysis</text>
</g>
<!-- 2058996774080&#45;&gt;2058996775424 -->
<g id="edge13" class="edge">
<title>2058996774080&#45;&gt;2058996775424</title>
<path fill="none" stroke="black" d="M1928.17,-72C1936.34,-72 1944.89,-72 1953.36,-72"/>
<polygon fill="black" stroke="black" points="1953.62,-75.5 1963.62,-72 1953.62,-68.5 1953.62,-75.5"/>
</g>
<!-- 2058996773072 -->
<g id="node15" class="node">
<title>2058996773072</title>
<polygon fill="none" stroke="black" points="2262,-90 2116,-90 2116,-54 2262,-54 2262,-90"/>
<text text-anchor="middle" x="2189" y="-68.9" font-family="Times New Roman,serif" font-size="12.00">Launch detailed investigation</text>
</g>
<!-- 2058996775424&#45;&gt;2058996773072 -->
<g id="edge14" class="edge">
<title>2058996775424&#45;&gt;2058996773072</title>
<path fill="none" stroke="black" d="M2080.25,-72C2088.47,-72 2097.07,-72 2105.67,-72"/>
<polygon fill="black" stroke="black" points="2105.74,-75.5 2115.74,-72 2105.74,-68.5 2105.74,-75.5"/>
</g>
<!-- 2058996772784 -->
<g id="node16" class="node">
<title>2058996772784</title>
<polygon fill="none" stroke="black" points="2325,-90 2298,-72 2325,-54 2352,-72 2325,-90"/>
<text text-anchor="middle" x="2325" y="-68.9" font-family="Times New Roman,serif" font-size="12.00">+</text>
</g>
<!-- 2058996773072&#45;&gt;2058996772784 -->
<g id="edge15" class="edge">
<title>2058996773072&#45;&gt;2058996772784</title>
<path fill="none" stroke="black" d="M2262.1,-72C2270.97,-72 2279.73,-72 2287.73,-72"/>
<polygon fill="black" stroke="black" points="2287.77,-75.5 2297.77,-72 2287.77,-68.5 2287.77,-75.5"/>
</g>
<!-- 2058996772736 -->
<g id="node17" class="node">
<title>2058996772736</title>
<polygon fill="none" stroke="black" points="2521,-144 2388,-144 2388,-108 2521,-108 2521,-144"/>
<text text-anchor="middle" x="2454.5" y="-122.9" font-family="Times New Roman,serif" font-size="12.00">Evaluate compliance risks</text>
</g>
<!-- 2058996772784&#45;&gt;2058996772736 -->
<g id="edge17" class="edge">
<title>2058996772784&#45;&gt;2058996772736</title>
<path fill="none" stroke="black" d="M2341.76,-78.97C2354.27,-84.47 2372.22,-92.31 2388,-99 2391.89,-100.65 2395.91,-102.34 2399.96,-104.03"/>
<polygon fill="black" stroke="black" points="2398.83,-107.35 2409.41,-107.96 2401.52,-100.89 2398.83,-107.35"/>
</g>
<!-- 2058996773408 -->
<g id="node18" class="node">
<title>2058996773408</title>
<polygon fill="none" stroke="black" points="2520.5,-90 2388.5,-90 2388.5,-54 2520.5,-54 2520.5,-90"/>
<text text-anchor="middle" x="2454.5" y="-68.9" font-family="Times New Roman,serif" font-size="12.00">Evaluate operational risks</text>
</g>
<!-- 2058996772784&#45;&gt;2058996773408 -->
<g id="edge18" class="edge">
<title>2058996772784&#45;&gt;2058996773408</title>
<path fill="none" stroke="black" d="M2352.11,-72C2359.92,-72 2368.91,-72 2378.23,-72"/>
<polygon fill="black" stroke="black" points="2378.45,-75.5 2388.45,-72 2378.45,-68.5 2378.45,-75.5"/>
</g>
<!-- 2058996774752 -->
<g id="node19" class="node">
<title>2058996774752</title>
<polygon fill="none" stroke="black" points="2513.5,-36 2395.5,-36 2395.5,0 2513.5,0 2513.5,-36"/>
<text text-anchor="middle" x="2454.5" y="-14.9" font-family="Times New Roman,serif" font-size="12.00">Evaluate financial risks</text>
</g>
<!-- 2058996772784&#45;&gt;2058996774752 -->
<g id="edge16" class="edge">
<title>2058996772784&#45;&gt;2058996774752</title>
<path fill="none" stroke="black" d="M2341.76,-65.03C2354.27,-59.53 2372.22,-51.69 2388,-45 2391.89,-43.35 2395.91,-41.66 2399.96,-39.97"/>
<polygon fill="black" stroke="black" points="2401.52,-43.11 2409.41,-36.04 2398.83,-36.65 2401.52,-43.11"/>
</g>
<!-- 2058996775520 -->
<g id="node20" class="node">
<title>2058996775520</title>
<polygon fill="none" stroke="black" points="2584,-90 2557,-72 2584,-54 2611,-72 2584,-90"/>
<text text-anchor="middle" x="2584" y="-68.9" font-family="Times New Roman,serif" font-size="12.00">+</text>
</g>
<!-- 2058996772736&#45;&gt;2058996775520 -->
<g id="edge19" class="edge">
<title>2058996772736&#45;&gt;2058996775520</title>
<path fill="none" stroke="black" d="M2499.59,-107.96C2506.76,-104.99 2514.09,-101.93 2521,-99 2533.21,-93.83 2546.71,-87.96 2557.99,-83.03"/>
<polygon fill="black" stroke="black" points="2559.49,-86.19 2567.24,-78.97 2556.67,-79.78 2559.49,-86.19"/>
</g>
<!-- 2058996773408&#45;&gt;2058996775520 -->
<g id="edge20" class="edge">
<title>2058996773408&#45;&gt;2058996775520</title>
<path fill="none" stroke="black" d="M2520.74,-72C2529.6,-72 2538.43,-72 2546.53,-72"/>
<polygon fill="black" stroke="black" points="2546.7,-75.5 2556.7,-72 2546.7,-68.5 2546.7,-75.5"/>
</g>
<!-- 2058996774752&#45;&gt;2058996775520 -->
<g id="edge21" class="edge">
<title>2058996774752&#45;&gt;2058996775520</title>
<path fill="none" stroke="black" d="M2499.59,-36.04C2506.76,-39.01 2514.09,-42.07 2521,-45 2533.21,-50.17 2546.71,-56.04 2557.99,-60.97"/>
<polygon fill="black" stroke="black" points="2556.67,-64.22 2567.24,-65.03 2559.49,-57.81 2556.67,-64.22"/>
</g>
<!-- 2058996775760 -->
<g id="node21" class="node">
<title>2058996775760</title>
<polygon fill="none" stroke="black" points="2758,-90 2647,-90 2647,-54 2758,-54 2758,-90"/>
<text text-anchor="middle" x="2702.5" y="-68.9" font-family="Times New Roman,serif" font-size="12.00">Receive clarifications</text>
</g>
<!-- 2058996775520&#45;&gt;2058996775760 -->
<g id="edge22" class="edge">
<title>2058996775520&#45;&gt;2058996775760</title>
<path fill="none" stroke="black" d="M2611.14,-72C2618.85,-72 2627.64,-72 2636.64,-72"/>
<polygon fill="black" stroke="black" points="2636.85,-75.5 2646.85,-72 2636.85,-68.5 2636.85,-75.5"/>
</g>
<!-- 2058996773744 -->
<g id="node22" class="node">
<title>2058996773744</title>
<polygon fill="none" stroke="black" points="2982,-90 2794,-90 2794,-54 2982,-54 2982,-90"/>
<text text-anchor="middle" x="2888" y="-68.9" font-family="Times New Roman,serif" font-size="12.00">Request clarifications of discrepancies</text>
</g>
<!-- 2058996775760&#45;&gt;2058996773744 -->
<g id="edge23" class="edge">
<title>2058996775760&#45;&gt;2058996773744</title>
<path fill="none" stroke="black" d="M2758.06,-72C2766.27,-72 2774.96,-72 2783.8,-72"/>
<polygon fill="black" stroke="black" points="2783.82,-75.5 2793.82,-72 2783.82,-68.5 2783.82,-75.5"/>
</g>
<!-- 2058996772064 -->
<g id="node23" class="node">
<title>2058996772064</title>
<polygon fill="none" stroke="black" points="3120,-90 3018,-90 3018,-54 3120,-54 3120,-90"/>
<text text-anchor="middle" x="3069" y="-68.9" font-family="Times New Roman,serif" font-size="12.00">Review submission</text>
</g>
<!-- 2058996773744&#45;&gt;2058996772064 -->
<g id="edge24" class="edge">
<title>2058996773744&#45;&gt;2058996772064</title>
<path fill="none" stroke="black" d="M2982.17,-72C2990.77,-72 2999.33,-72 3007.52,-72"/>
<polygon fill="black" stroke="black" points="3007.68,-75.5 3017.68,-72 3007.68,-68.5 3007.68,-75.5"/>
</g>
<!-- 2058996776768 -->
<g id="node24" class="node">
<title>2058996776768</title>
<polygon fill="none" stroke="black" points="3256,-90 3156,-90 3156,-54 3256,-54 3256,-90"/>
<text text-anchor="middle" x="3206" y="-68.9" font-family="Times New Roman,serif" font-size="12.00">Submit documents</text>
</g>
<!-- 2058996772064&#45;&gt;2058996776768 -->
<g id="edge25" class="edge">
<title>2058996772064&#45;&gt;2058996776768</title>
<path fill="none" stroke="black" d="M3120.27,-72C3128.48,-72 3137.05,-72 3145.45,-72"/>
<polygon fill="black" stroke="black" points="3145.59,-75.5 3155.59,-72 3145.59,-68.5 3145.59,-75.5"/>
</g>
<!-- 2058996776480 -->
<g id="node25" class="node">
<title>2058996776480</title>
<polygon fill="none" stroke="black" points="3319,-90 3292,-72 3319,-54 3346,-72 3319,-90"/>
<text text-anchor="middle" x="3319" y="-68.9" font-family="Times New Roman,serif" font-size="12.00">+</text>
</g>
<!-- 2058996776768&#45;&gt;2058996776480 -->
<g id="edge26" class="edge">
<title>2058996776768&#45;&gt;2058996776480</title>
<path fill="none" stroke="black" d="M3256.01,-72C3264.67,-72 3273.54,-72 3281.76,-72"/>
<polygon fill="black" stroke="black" points="3281.77,-75.5 3291.77,-72 3281.77,-68.5 3281.77,-75.5"/>
</g>
<!-- 2058996772400 -->
<g id="node26" class="node">
<title>2058996772400</title>
<polygon fill="none" stroke="black" points="3526,-144 3384,-144 3384,-108 3526,-108 3526,-144"/>
<text text-anchor="middle" x="3455" y="-122.9" font-family="Times New Roman,serif" font-size="12.00">Prepare financial statements</text>
</g>
<!-- 2058996776480&#45;&gt;2058996772400 -->
<g id="edge27" class="edge">
<title>2058996776480&#45;&gt;2058996772400</title>
<path fill="none" stroke="black" d="M3335.7,-79.11C3348.18,-84.69 3366.11,-92.57 3382,-99 3386.22,-100.71 3390.59,-102.44 3395.01,-104.16"/>
<polygon fill="black" stroke="black" points="3394.09,-107.56 3404.68,-107.89 3396.61,-101.03 3394.09,-107.56"/>
</g>
<!-- 2058998367760 -->
<g id="node27" class="node">
<title>2058998367760</title>
<polygon fill="none" stroke="black" points="3528,-90 3382,-90 3382,-54 3528,-54 3528,-90"/>
<text text-anchor="middle" x="3455" y="-68.9" font-family="Times New Roman,serif" font-size="12.00">Gather necessary documents</text>
</g>
<!-- 2058996776480&#45;&gt;2058998367760 -->
<g id="edge29" class="edge">
<title>2058996776480&#45;&gt;2058998367760</title>
<path fill="none" stroke="black" d="M3346.15,-72C3353.82,-72 3362.63,-72 3371.85,-72"/>
<polygon fill="black" stroke="black" points="3371.98,-75.5 3381.98,-72 3371.98,-68.5 3371.98,-75.5"/>
</g>
<!-- 2058998368096 -->
<g id="node28" class="node">
<title>2058998368096</title>
<polygon fill="none" stroke="black" points="3521.5,-36 3388.5,-36 3388.5,0 3521.5,0 3521.5,-36"/>
<text text-anchor="middle" x="3455" y="-14.9" font-family="Times New Roman,serif" font-size="12.00">Check regulatory updates</text>
</g>
<!-- 2058996776480&#45;&gt;2058998368096 -->
<g id="edge28" class="edge">
<title>2058996776480&#45;&gt;2058998368096</title>
<path fill="none" stroke="black" d="M3335.7,-64.89C3348.18,-59.31 3366.11,-51.43 3382,-45 3386.22,-43.29 3390.59,-41.56 3395.01,-39.84"/>
<polygon fill="black" stroke="black" points="3396.61,-42.97 3404.68,-36.11 3394.09,-36.44 3396.61,-42.97"/>
</g>
<!-- 2058996774176 -->
<g id="node29" class="node">
<title>2058996774176</title>
<polygon fill="none" stroke="black" points="3591,-90 3564,-72 3591,-54 3618,-72 3591,-90"/>
<text text-anchor="middle" x="3591" y="-68.9" font-family="Times New Roman,serif" font-size="12.00">+</text>
</g>
<!-- 2058996772400&#45;&gt;2058996774176 -->
<g id="edge30" class="edge">
<title>2058996772400&#45;&gt;2058996774176</title>
<path fill="none" stroke="black" d="M3505.32,-107.89C3512.94,-104.98 3520.7,-101.96 3528,-99 3540.29,-94.02 3553.8,-88.18 3565.06,-83.21"/>
<polygon fill="black" stroke="black" points="3566.58,-86.37 3574.3,-79.11 3563.74,-79.97 3566.58,-86.37"/>
</g>
<!-- 2058998367760&#45;&gt;2058996774176 -->
<g id="edge31" class="edge">
<title>2058998367760&#45;&gt;2058996774176</title>
<path fill="none" stroke="black" d="M3528.1,-72C3536.97,-72 3545.73,-72 3553.73,-72"/>
<polygon fill="black" stroke="black" points="3553.77,-75.5 3563.77,-72 3553.77,-68.5 3553.77,-75.5"/>
</g>
<!-- 2058998368096&#45;&gt;2058996774176 -->
<g id="edge32" class="edge">
<title>2058998368096&#45;&gt;2058996774176</title>
<path fill="none" stroke="black" d="M3505.32,-36.11C3512.94,-39.02 3520.7,-42.04 3528,-45 3540.29,-49.98 3553.8,-55.82 3565.06,-60.79"/>
<polygon fill="black" stroke="black" points="3563.74,-64.03 3574.3,-64.89 3566.58,-57.63 3563.74,-64.03"/>
</g>
<!-- 2058996774416 -->
<g id="node30" class="node">
<title>2058996774416</title>
<polygon fill="none" stroke="black" points="3746,-90 3654,-90 3654,-54 3746,-54 3746,-90"/>
<text text-anchor="middle" x="3700" y="-68.9" font-family="Times New Roman,serif" font-size="12.00">Send notification</text>
</g>
<!-- 2058996774176&#45;&gt;2058996774416 -->
<g id="edge33" class="edge">
<title>2058996774176&#45;&gt;2058996774416</title>
<path fill="none" stroke="black" d="M3618.18,-72C3626,-72 3634.88,-72 3643.83,-72"/>
<polygon fill="black" stroke="black" points="3643.91,-75.5 3653.91,-72 3643.91,-68.5 3643.91,-75.5"/>
</g>
<!-- 2058998369152 -->
<g id="node31" class="node">
<title>2058998369152</title>
<ellipse fill="orange" stroke="black" cx="3800" cy="-72" rx="18" ry="18"/>
</g>
<!-- 2058996774416&#45;&gt;2058998369152 -->
<g id="edge34" class="edge">
<title>2058996774416&#45;&gt;2058998369152</title>
<path fill="none" stroke="black" d="M3746.27,-72C3754.96,-72 3763.81,-72 3771.71,-72"/>
<polygon fill="black" stroke="black" points="3771.79,-75.5 3781.79,-72 3771.79,-68.5 3771.79,-75.5"/>
</g>
</g>
</svg>
