<?xml version="1.0" encoding="UTF-8" standalone="no"?>
<!DOCTYPE svg PUBLIC "-//W3C//DTD SVG 1.1//EN"
 "http://www.w3.org/Graphics/SVG/1.1/DTD/svg11.dtd">
<!-- Generated by graphviz version 6.0.1 (20220911.1526)
 -->
<!-- Pages: 1 -->
<svg width="3968pt" height="152pt"
 viewBox="0.00 0.00 3968.00 152.00" xmlns="http://www.w3.org/2000/svg" xmlns:xlink="http://www.w3.org/1999/xlink">
<g id="graph0" class="graph" transform="scale(1 1) rotate(0) translate(4 148)">
<polygon fill="white" stroke="none" points="-4,4 -4,-148 3964,-148 3964,4 -4,4"/>
<!-- 2059001290640 -->
<g id="node1" class="node">
<title>2059001290640</title>
<ellipse fill="green" stroke="black" cx="18" cy="-72" rx="18" ry="18"/>
</g>
<!-- 2058998379568 -->
<g id="node2" class="node">
<title>2058998379568</title>
<polygon fill="none" stroke="black" points="178,-90 72,-90 72,-54 178,-54 178,-90"/>
<text text-anchor="middle" x="125" y="-68.9" font-family="Times New Roman,serif" font-size="12.00">Close audit process</text>
</g>
<!-- 2059001290640&#45;&gt;2058998379568 -->
<g id="edge1" class="edge">
<title>2059001290640&#45;&gt;2058998379568</title>
<path fill="none" stroke="black" d="M36.34,-72C43.52,-72 52.34,-72 61.58,-72"/>
<polygon fill="black" stroke="black" points="61.71,-75.5 71.71,-72 61.71,-68.5 61.71,-75.5"/>
</g>
<!-- 2058998381920 -->
<g id="node3" class="node">
<title>2058998381920</title>
<polygon fill="none" stroke="black" points="297,-90 214,-90 214,-54 297,-54 297,-90"/>
<text text-anchor="middle" x="255.5" y="-68.9" font-family="Times New Roman,serif" font-size="12.00">Archive report</text>
</g>
<!-- 2058998379568&#45;&gt;2058998381920 -->
<g id="edge2" class="edge">
<title>2058998379568&#45;&gt;2058998381920</title>
<path fill="none" stroke="black" d="M178.27,-72C186.66,-72 195.34,-72 203.71,-72"/>
<polygon fill="black" stroke="black" points="203.71,-75.5 213.71,-72 203.71,-68.5 203.71,-75.5"/>
</g>
<!-- 2058998378896 -->
<g id="node4" class="node">
<title>2058998378896</title>
<polygon fill="none" stroke="black" points="445,-90 333,-90 333,-54 445,-54 445,-90"/>
<text text-anchor="middle" x="389" y="-68.9" font-family="Times New Roman,serif" font-size="12.00">Distribute final report</text>
</g>
<!-- 2058998381920&#45;&gt;2058998378896 -->
<g id="edge3" class="edge">
<title>2058998381920&#45;&gt;2058998378896</title>
<path fill="none" stroke="black" d="M297.03,-72C305.16,-72 313.91,-72 322.64,-72"/>
<polygon fill="black" stroke="black" points="322.85,-75.5 332.85,-72 322.85,-68.5 322.85,-75.5"/>
</g>
<!-- 2058998379904 -->
<g id="node5" class="node">
<title>2058998379904</title>
<polygon fill="none" stroke="black" points="569,-90 481,-90 481,-54 569,-54 569,-90"/>
<text text-anchor="middle" x="525" y="-68.9" font-family="Times New Roman,serif" font-size="12.00">Approve report</text>
</g>
<!-- 2058998378896&#45;&gt;2058998379904 -->
<g id="edge4" class="edge">
<title>2058998378896&#45;&gt;2058998379904</title>
<path fill="none" stroke="black" d="M445.28,-72C453.68,-72 462.34,-72 470.7,-72"/>
<polygon fill="black" stroke="black" points="470.72,-75.5 480.72,-72 470.72,-68.5 470.72,-75.5"/>
</g>
<!-- 2058998381248 -->
<g id="node6" class="node">
<title>2058998381248</title>
<polygon fill="none" stroke="black" points="763,-90 605,-90 605,-54 763,-54 763,-90"/>
<text text-anchor="middle" x="684" y="-68.9" font-family="Times New Roman,serif" font-size="12.00">Review report by audit director</text>
</g>
<!-- 2058998379904&#45;&gt;2058998381248 -->
<g id="edge5" class="edge">
<title>2058998379904&#45;&gt;2058998381248</title>
<path fill="none" stroke="black" d="M569.32,-72C577.36,-72 586.03,-72 594.86,-72"/>
<polygon fill="black" stroke="black" points="594.88,-75.5 604.88,-72 594.88,-68.5 594.88,-75.5"/>
</g>
<!-- 2058998380240 -->
<g id="node7" class="node">
<title>2058998380240</title>
<polygon fill="none" stroke="black" points="941,-90 799,-90 799,-54 941,-54 941,-90"/>
<text text-anchor="middle" x="870" y="-68.9" font-family="Times New Roman,serif" font-size="12.00">Update and resubmit report</text>
</g>
<!-- 2058998381248&#45;&gt;2058998380240 -->
<g id="edge6" class="edge">
<title>2058998381248&#45;&gt;2058998380240</title>
<path fill="none" stroke="black" d="M763.03,-72C771.46,-72 780.04,-72 788.5,-72"/>
<polygon fill="black" stroke="black" points="788.73,-75.5 798.73,-72 788.73,-68.5 788.73,-75.5"/>
</g>
<!-- 2058998369824 -->
<g id="node8" class="node">
<title>2058998369824</title>
<polygon fill="none" stroke="black" points="1101,-90 977,-90 977,-54 1101,-54 1101,-90"/>
<text text-anchor="middle" x="1039" y="-68.9" font-family="Times New Roman,serif" font-size="12.00">Send report for revision</text>
</g>
<!-- 2058998380240&#45;&gt;2058998369824 -->
<g id="edge7" class="edge">
<title>2058998380240&#45;&gt;2058998369824</title>
<path fill="none" stroke="black" d="M941.34,-72C949.7,-72 958.25,-72 966.63,-72"/>
<polygon fill="black" stroke="black" points="966.75,-75.5 976.75,-72 966.75,-68.5 966.75,-75.5"/>
</g>
<!-- 2059001282960 -->
<g id="node9" class="node">
<title>2059001282960</title>
<polygon fill="none" stroke="black" points="1295,-90 1137,-90 1137,-54 1295,-54 1295,-90"/>
<text text-anchor="middle" x="1216" y="-68.9" font-family="Times New Roman,serif" font-size="12.00">Review report by audit director</text>
</g>
<!-- 2058998369824&#45;&gt;2059001282960 -->
<g id="edge8" class="edge">
<title>2058998369824&#45;&gt;2059001282960</title>
<path fill="none" stroke="black" d="M1101.21,-72C1109.5,-72 1118.13,-72 1126.78,-72"/>
<polygon fill="black" stroke="black" points="1126.91,-75.5 1136.91,-72 1126.91,-68.5 1126.91,-75.5"/>
</g>
<!-- 2059001285312 -->
<g id="node10" class="node">
<title>2059001285312</title>
<polygon fill="none" stroke="black" points="1441,-90 1331,-90 1331,-54 1441,-54 1441,-90"/>
<text text-anchor="middle" x="1386" y="-68.9" font-family="Times New Roman,serif" font-size="12.00">Compile audit report</text>
</g>
<!-- 2059001282960&#45;&gt;2059001285312 -->
<g id="edge9" class="edge">
<title>2059001282960&#45;&gt;2059001285312</title>
<path fill="none" stroke="black" d="M1295.1,-72C1303.63,-72 1312.24,-72 1320.57,-72"/>
<polygon fill="black" stroke="black" points="1320.59,-75.5 1330.59,-72 1320.59,-68.5 1320.59,-75.5"/>
</g>
<!-- 2058998380576 -->
<g id="node11" class="node">
<title>2058998380576</title>
<polygon fill="none" stroke="black" points="1656,-90 1477,-90 1477,-54 1656,-54 1656,-90"/>
<text text-anchor="middle" x="1566.5" y="-68.9" font-family="Times New Roman,serif" font-size="12.00">Complete risk assessment/mitigation</text>
</g>
<!-- 2059001285312&#45;&gt;2058998380576 -->
<g id="edge10" class="edge">
<title>2059001285312&#45;&gt;2058998380576</title>
<path fill="none" stroke="black" d="M1441.04,-72C1449.15,-72 1457.73,-72 1466.43,-72"/>
<polygon fill="black" stroke="black" points="1466.68,-75.5 1476.68,-72 1466.68,-68.5 1466.68,-75.5"/>
</g>
<!-- 2058998372272 -->
<g id="node12" class="node">
<title>2058998372272</title>
<polygon fill="none" stroke="black" points="1788,-90 1692,-90 1692,-54 1788,-54 1788,-90"/>
<text text-anchor="middle" x="1740" y="-68.9" font-family="Times New Roman,serif" font-size="12.00">Perform site visits</text>
</g>
<!-- 2058998380576&#45;&gt;2058998372272 -->
<g id="edge11" class="edge">
<title>2058998380576&#45;&gt;2058998372272</title>
<path fill="none" stroke="black" d="M1656.01,-72C1664.65,-72 1673.25,-72 1681.46,-72"/>
<polygon fill="black" stroke="black" points="1681.63,-75.5 1691.63,-72 1681.63,-68.5 1681.63,-75.5"/>
</g>
<!-- 2059001283296 -->
<g id="node13" class="node">
<title>2059001283296</title>
<polygon fill="none" stroke="black" points="1928,-90 1824,-90 1824,-54 1928,-54 1928,-90"/>
<text text-anchor="middle" x="1876" y="-68.9" font-family="Times New Roman,serif" font-size="12.00">Conduct interviews</text>
</g>
<!-- 2058998372272&#45;&gt;2059001283296 -->
<g id="edge12" class="edge">
<title>2058998372272&#45;&gt;2059001283296</title>
<path fill="none" stroke="black" d="M1788.24,-72C1796.39,-72 1804.96,-72 1813.41,-72"/>
<polygon fill="black" stroke="black" points="1813.63,-75.5 1823.63,-72 1813.63,-68.5 1813.63,-75.5"/>
</g>
<!-- 2058998378560 -->
<g id="node14" class="node">
<title>2058998378560</title>
<polygon fill="none" stroke="black" points="2080,-90 1964,-90 1964,-54 2080,-54 2080,-90"/>
<text text-anchor="middle" x="2022" y="-68.9" font-family="Times New Roman,serif" font-size="12.00">Conduct data analysis</text>
</g>
<!-- 2059001283296&#45;&gt;2058998378560 -->
<g id="edge13" class="edge">
<title>2059001283296&#45;&gt;2058998378560</title>
<path fill="none" stroke="black" d="M1928.17,-72C1936.34,-72 1944.89,-72 1953.36,-72"/>
<polygon fill="black" stroke="black" points="1953.62,-75.5 1963.62,-72 1953.62,-68.5 1953.62,-75.5"/>
</g>
<!-- 2059001282624 -->
<g id="node15" class="node">
<title>2059001282624</title>
<polygon fill="none" stroke="black" points="2262,-90 2116,-90 2116,-54 2262,-54 2262,-90"/>
<text text-anchor="middle" x="2189" y="-68.9" font-family="Times New Roman,serif" font-size="12.00">Launch detailed investigation</text>
</g>
<!-- 2058998378560&#45;&gt;2059001282624 -->
<g id="edge14" class="edge">
<title>2058998378560&#45;&gt;2059001282624</title>
<path fill="none" stroke="black" d="M2080.25,-72C2088.47,-72 2097.07,-72 2105.67,-72"/>
<polygon fill="black" stroke="black" points="2105.74,-75.5 2115.74,-72 2105.74,-68.5 2105.74,-75.5"/>
</g>
<!-- 2058998379232 -->
<g id="node16" class="node">
<title>2058998379232</title>
<polygon fill="none" stroke="black" points="2430,-90 2298,-90 2298,-54 2430,-54 2430,-90"/>
<text text-anchor="middle" x="2364" y="-68.9" font-family="Times New Roman,serif" font-size="12.00">Evaluate operational risks</text>
</g>
<!-- 2059001282624&#45;&gt;2058998379232 -->
<g id="edge15" class="edge">
<title>2059001282624&#45;&gt;2058998379232</title>
<path fill="none" stroke="black" d="M2262.11,-72C2270.55,-72 2279.18,-72 2287.66,-72"/>
<polygon fill="black" stroke="black" points="2287.9,-75.5 2297.9,-72 2287.9,-68.5 2287.9,-75.5"/>
</g>
<!-- 2059001284640 -->
<g id="node17" class="node">
<title>2059001284640</title>
<polygon fill="none" stroke="black" points="2584,-90 2466,-90 2466,-54 2584,-54 2584,-90"/>
<text text-anchor="middle" x="2525" y="-68.9" font-family="Times New Roman,serif" font-size="12.00">Evaluate financial risks</text>
</g>
<!-- 2058998379232&#45;&gt;2059001284640 -->
<g id="edge16" class="edge">
<title>2058998379232&#45;&gt;2059001284640</title>
<path fill="none" stroke="black" d="M2430.13,-72C2438.54,-72 2447.18,-72 2455.64,-72"/>
<polygon fill="black" stroke="black" points="2455.86,-75.5 2465.86,-72 2455.86,-68.5 2455.86,-75.5"/>
</g>
<!-- 2058998381584 -->
<g id="node18" class="node">
<title>2058998381584</title>
<polygon fill="none" stroke="black" points="2753,-90 2620,-90 2620,-54 2753,-54 2753,-90"/>
<text text-anchor="middle" x="2686.5" y="-68.9" font-family="Times New Roman,serif" font-size="12.00">Evaluate compliance risks</text>
</g>
<!-- 2059001284640&#45;&gt;2058998381584 -->
<g id="edge17" class="edge">
<title>2059001284640&#45;&gt;2058998381584</title>
<path fill="none" stroke="black" d="M2584.03,-72C2592.42,-72 2601.15,-72 2609.82,-72"/>
<polygon fill="black" stroke="black" points="2609.95,-75.5 2619.95,-72 2609.95,-68.5 2609.95,-75.5"/>
</g>
<!-- 2058998380912 -->
<g id="node19" class="node">
<title>2058998380912</title>
<polygon fill="none" stroke="black" points="2900,-90 2789,-90 2789,-54 2900,-54 2900,-90"/>
<text text-anchor="middle" x="2844.5" y="-68.9" font-family="Times New Roman,serif" font-size="12.00">Receive clarifications</text>
</g>
<!-- 2058998381584&#45;&gt;2058998380912 -->
<g id="edge18" class="edge">
<title>2058998381584&#45;&gt;2058998380912</title>
<path fill="none" stroke="black" d="M2753.21,-72C2761.61,-72 2770.21,-72 2778.61,-72"/>
<polygon fill="black" stroke="black" points="2778.71,-75.5 2788.71,-72 2778.71,-68.5 2778.71,-75.5"/>
</g>
<!-- 2059001284976 -->
<g id="node20" class="node">
<title>2059001284976</title>
<polygon fill="none" stroke="black" points="3124,-90 2936,-90 2936,-54 3124,-54 3124,-90"/>
<text text-anchor="middle" x="3030" y="-68.9" font-family="Times New Roman,serif" font-size="12.00">Request clarifications of discrepancies</text>
</g>
<!-- 2058998380912&#45;&gt;2059001284976 -->
<g id="edge19" class="edge">
<title>2058998380912&#45;&gt;2059001284976</title>
<path fill="none" stroke="black" d="M2900.06,-72C2908.27,-72 2916.96,-72 2925.8,-72"/>
<polygon fill="black" stroke="black" points="2925.82,-75.5 2935.82,-72 2925.82,-68.5 2925.82,-75.5"/>
</g>
<!-- 2059001283968 -->
<g id="node21" class="node">
<title>2059001283968</title>
<polygon fill="none" stroke="black" points="3262,-90 3160,-90 3160,-54 3262,-54 3262,-90"/>
<text text-anchor="middle" x="3211" y="-68.9" font-family="Times New Roman,serif" font-size="12.00">Review submission</text>
</g>
<!-- 2059001284976&#45;&gt;2059001283968 -->
<g id="edge20" class="edge">
<title>2059001284976&#45;&gt;2059001283968</title>
<path fill="none" stroke="black" d="M3124.17,-72C3132.77,-72 3141.33,-72 3149.52,-72"/>
<polygon fill="black" stroke="black" points="3149.68,-75.5 3159.68,-72 3149.68,-68.5 3149.68,-75.5"/>
</g>
<!-- 2059001284304 -->
<g id="node22" class="node">
<title>2059001284304</title>
<polygon fill="none" stroke="black" points="3398,-90 3298,-90 3298,-54 3398,-54 3398,-90"/>
<text text-anchor="middle" x="3348" y="-68.9" font-family="Times New Roman,serif" font-size="12.00">Submit documents</text>
</g>
<!-- 2059001283968&#45;&gt;2059001284304 -->
<g id="edge21" class="edge">
<title>2059001283968&#45;&gt;2059001284304</title>
<path fill="none" stroke="black" d="M3262.27,-72C3270.48,-72 3279.05,-72 3287.45,-72"/>
<polygon fill="black" stroke="black" points="3287.59,-75.5 3297.59,-72 3287.59,-68.5 3287.59,-75.5"/>
</g>
<!-- 2059001284016 -->
<g id="node23" class="node">
<title>2059001284016</title>
<polygon fill="none" stroke="black" points="3461,-90 3434,-72 3461,-54 3488,-72 3461,-90"/>
<text text-anchor="middle" x="3461" y="-68.9" font-family="Times New Roman,serif" font-size="12.00">+</text>
</g>
<!-- 2059001284304&#45;&gt;2059001284016 -->
<g id="edge22" class="edge">
<title>2059001284304&#45;&gt;2059001284016</title>
<path fill="none" stroke="black" d="M3398.01,-72C3406.67,-72 3415.54,-72 3423.76,-72"/>
<polygon fill="black" stroke="black" points="3423.77,-75.5 3433.77,-72 3423.77,-68.5 3423.77,-75.5"/>
</g>
<!-- 2058998366368 -->
<g id="node24" class="node">
<title>2058998366368</title>
<polygon fill="none" stroke="black" points="3663.5,-144 3530.5,-144 3530.5,-108 3663.5,-108 3663.5,-144"/>
<text text-anchor="middle" x="3597" y="-122.9" font-family="Times New Roman,serif" font-size="12.00">Check regulatory updates</text>
</g>
<!-- 2059001284016&#45;&gt;2058998366368 -->
<g id="edge25" class="edge">
<title>2059001284016&#45;&gt;2058998366368</title>
<path fill="none" stroke="black" d="M3477.7,-79.11C3490.18,-84.69 3508.11,-92.57 3524,-99 3528.22,-100.71 3532.59,-102.44 3537.01,-104.16"/>
<polygon fill="black" stroke="black" points="3536.09,-107.56 3546.68,-107.89 3538.61,-101.03 3536.09,-107.56"/>
</g>
<!-- 2058998382256 -->
<g id="node25" class="node">
<title>2058998382256</title>
<polygon fill="none" stroke="black" points="3668,-90 3526,-90 3526,-54 3668,-54 3668,-90"/>
<text text-anchor="middle" x="3597" y="-68.9" font-family="Times New Roman,serif" font-size="12.00">Prepare financial statements</text>
</g>
<!-- 2059001284016&#45;&gt;2058998382256 -->
<g id="edge24" class="edge">
<title>2059001284016&#45;&gt;2058998382256</title>
<path fill="none" stroke="black" d="M3488.15,-72C3496.38,-72 3505.93,-72 3515.89,-72"/>
<polygon fill="black" stroke="black" points="3515.95,-75.5 3525.95,-72 3515.95,-68.5 3515.95,-75.5"/>
</g>
<!-- 2059001283632 -->
<g id="node26" class="node">
<title>2059001283632</title>
<polygon fill="none" stroke="black" points="3670,-36 3524,-36 3524,0 3670,0 3670,-36"/>
<text text-anchor="middle" x="3597" y="-14.9" font-family="Times New Roman,serif" font-size="12.00">Gather necessary documents</text>
</g>
<!-- 2059001284016&#45;&gt;2059001283632 -->
<g id="edge23" class="edge">
<title>2059001284016&#45;&gt;2059001283632</title>
<path fill="none" stroke="black" d="M3477.7,-64.89C3490.18,-59.31 3508.11,-51.43 3524,-45 3528.22,-43.29 3532.59,-41.56 3537.01,-39.84"/>
<polygon fill="black" stroke="black" points="3538.61,-42.97 3546.68,-36.11 3536.09,-36.44 3538.61,-42.97"/>
</g>
<!-- 2058998370976 -->
<g id="node27" class="node">
<title>2058998370976</title>
<polygon fill="none" stroke="black" points="3733,-90 3706,-72 3733,-54 3760,-72 3733,-90"/>
<text text-anchor="middle" x="3733" y="-68.9" font-family="Times New Roman,serif" font-size="12.00">+</text>
</g>
<!-- 2058998366368&#45;&gt;2058998370976 -->
<g id="edge26" class="edge">
<title>2058998366368&#45;&gt;2058998370976</title>
<path fill="none" stroke="black" d="M3647.32,-107.89C3654.94,-104.98 3662.7,-101.96 3670,-99 3682.29,-94.02 3695.8,-88.18 3707.06,-83.21"/>
<polygon fill="black" stroke="black" points="3708.58,-86.37 3716.3,-79.11 3705.74,-79.97 3708.58,-86.37"/>
</g>
<!-- 2058998382256&#45;&gt;2058998370976 -->
<g id="edge27" class="edge">
<title>2058998382256&#45;&gt;2058998370976</title>
<path fill="none" stroke="black" d="M3668.14,-72C3677.68,-72 3687.14,-72 3695.74,-72"/>
<polygon fill="black" stroke="black" points="3695.75,-75.5 3705.75,-72 3695.75,-68.5 3695.75,-75.5"/>
</g>
<!-- 2059001283632&#45;&gt;2058998370976 -->
<g id="edge28" class="edge">
<title>2059001283632&#45;&gt;2058998370976</title>
<path fill="none" stroke="black" d="M3647.32,-36.11C3654.94,-39.02 3662.7,-42.04 3670,-45 3682.29,-49.98 3695.8,-55.82 3707.06,-60.79"/>
<polygon fill="black" stroke="black" points="3705.74,-64.03 3716.3,-64.89 3708.58,-57.63 3705.74,-64.03"/>
</g>
<!-- 2058998370400 -->
<g id="node28" class="node">
<title>2058998370400</title>
<polygon fill="none" stroke="black" points="3888,-90 3796,-90 3796,-54 3888,-54 3888,-90"/>
<text text-anchor="middle" x="3842" y="-68.9" font-family="Times New Roman,serif" font-size="12.00">Send notification</text>
</g>
<!-- 2058998370976&#45;&gt;2058998370400 -->
<g id="edge29" class="edge">
<title>2058998370976&#45;&gt;2058998370400</title>
<path fill="none" stroke="black" d="M3760.18,-72C3768,-72 3776.88,-72 3785.83,-72"/>
<polygon fill="black" stroke="black" points="3785.91,-75.5 3795.91,-72 3785.91,-68.5 3785.91,-75.5"/>
</g>
<!-- 2059001285360 -->
<g id="node29" class="node">
<title>2059001285360</title>
<ellipse fill="orange" stroke="black" cx="3942" cy="-72" rx="18" ry="18"/>
</g>
<!-- 2058998370400&#45;&gt;2059001285360 -->
<g id="edge30" class="edge">
<title>2058998370400&#45;&gt;2059001285360</title>
<path fill="none" stroke="black" d="M3888.27,-72C3896.96,-72 3905.81,-72 3913.71,-72"/>
<polygon fill="black" stroke="black" points="3913.79,-75.5 3923.79,-72 3913.79,-68.5 3913.79,-75.5"/>
</g>
</g>
</svg>
