<?xml version="1.0" encoding="UTF-8" standalone="no"?>
<!DOCTYPE svg PUBLIC "-//W3C//DTD SVG 1.1//EN"
 "http://www.w3.org/Graphics/SVG/1.1/DTD/svg11.dtd">
<!-- Generated by graphviz version 6.0.1 (20220911.1526)
 -->
<!-- Pages: 1 -->
<svg width="4310pt" height="209pt"
 viewBox="0.00 0.00 4310.00 209.00" xmlns="http://www.w3.org/2000/svg" xmlns:xlink="http://www.w3.org/1999/xlink">
<g id="graph0" class="graph" transform="scale(1 1) rotate(0) translate(4 205)">
<polygon fill="white" stroke="none" points="-4,4 -4,-205 4306,-205 4306,4 -4,4"/>
<!-- 2058996764816 -->
<g id="node1" class="node">
<title>2058996764816</title>
<ellipse fill="green" stroke="black" cx="18" cy="-129" rx="18" ry="18"/>
</g>
<!-- 2058996585936 -->
<g id="node2" class="node">
<title>2058996585936</title>
<polygon fill="none" stroke="black" points="164,-147 72,-147 72,-111 164,-111 164,-147"/>
<text text-anchor="middle" x="118" y="-125.9" font-family="Times New Roman,serif" font-size="12.00">Send notification</text>
</g>
<!-- 2058996764816&#45;&gt;2058996585936 -->
<g id="edge1" class="edge">
<title>2058996764816&#45;&gt;2058996585936</title>
<path fill="none" stroke="black" d="M36.07,-129C43.4,-129 52.42,-129 61.74,-129"/>
<polygon fill="black" stroke="black" points="61.92,-132.5 71.92,-129 61.92,-125.5 61.92,-132.5"/>
</g>
<!-- 2058996585648 -->
<g id="node3" class="node">
<title>2058996585648</title>
<polygon fill="none" stroke="black" points="227,-147 200,-129 227,-111 254,-129 227,-147"/>
<text text-anchor="middle" x="227" y="-125.9" font-family="Times New Roman,serif" font-size="12.00">+</text>
</g>
<!-- 2058996585936&#45;&gt;2058996585648 -->
<g id="edge2" class="edge">
<title>2058996585936&#45;&gt;2058996585648</title>
<path fill="none" stroke="black" d="M164.07,-129C172.66,-129 181.55,-129 189.83,-129"/>
<polygon fill="black" stroke="black" points="189.9,-132.5 199.9,-129 189.9,-125.5 189.9,-132.5"/>
</g>
<!-- 2058996587328 -->
<g id="node4" class="node">
<title>2058996587328</title>
<polygon fill="none" stroke="black" points="429.5,-201 296.5,-201 296.5,-165 429.5,-165 429.5,-201"/>
<text text-anchor="middle" x="363" y="-179.9" font-family="Times New Roman,serif" font-size="12.00">Check regulatory updates</text>
</g>
<!-- 2058996585648&#45;&gt;2058996587328 -->
<g id="edge3" class="edge">
<title>2058996585648&#45;&gt;2058996587328</title>
<path fill="none" stroke="black" d="M243.7,-136.11C256.18,-141.69 274.11,-149.57 290,-156 294.22,-157.71 298.59,-159.44 303.01,-161.16"/>
<polygon fill="black" stroke="black" points="302.09,-164.56 312.68,-164.89 304.61,-158.03 302.09,-164.56"/>
</g>
<!-- 2058996591504 -->
<g id="node5" class="node">
<title>2058996591504</title>
<polygon fill="none" stroke="black" points="436,-147 290,-147 290,-111 436,-111 436,-147"/>
<text text-anchor="middle" x="363" y="-125.9" font-family="Times New Roman,serif" font-size="12.00">Gather necessary documents</text>
</g>
<!-- 2058996585648&#45;&gt;2058996591504 -->
<g id="edge4" class="edge">
<title>2058996585648&#45;&gt;2058996591504</title>
<path fill="none" stroke="black" d="M254.15,-129C261.82,-129 270.63,-129 279.85,-129"/>
<polygon fill="black" stroke="black" points="279.98,-132.5 289.98,-129 279.98,-125.5 279.98,-132.5"/>
</g>
<!-- 2058996593184 -->
<g id="node6" class="node">
<title>2058996593184</title>
<polygon fill="none" stroke="black" points="434,-93 292,-93 292,-57 434,-57 434,-93"/>
<text text-anchor="middle" x="363" y="-71.9" font-family="Times New Roman,serif" font-size="12.00">Prepare financial statements</text>
</g>
<!-- 2058996585648&#45;&gt;2058996593184 -->
<g id="edge5" class="edge">
<title>2058996585648&#45;&gt;2058996593184</title>
<path fill="none" stroke="black" d="M243.7,-121.89C256.18,-116.31 274.11,-108.43 290,-102 294.22,-100.29 298.59,-98.56 303.01,-96.84"/>
<polygon fill="black" stroke="black" points="304.61,-99.97 312.68,-93.11 302.09,-93.44 304.61,-99.97"/>
</g>
<!-- 2058996586992 -->
<g id="node7" class="node">
<title>2058996586992</title>
<polygon fill="none" stroke="black" points="499,-147 472,-129 499,-111 526,-129 499,-147"/>
<text text-anchor="middle" x="499" y="-125.9" font-family="Times New Roman,serif" font-size="12.00">+</text>
</g>
<!-- 2058996587328&#45;&gt;2058996586992 -->
<g id="edge6" class="edge">
<title>2058996587328&#45;&gt;2058996586992</title>
<path fill="none" stroke="black" d="M413.32,-164.89C420.94,-161.98 428.7,-158.96 436,-156 448.29,-151.02 461.8,-145.18 473.06,-140.21"/>
<polygon fill="black" stroke="black" points="474.58,-143.37 482.3,-136.11 471.74,-136.97 474.58,-143.37"/>
</g>
<!-- 2058996591504&#45;&gt;2058996586992 -->
<g id="edge7" class="edge">
<title>2058996591504&#45;&gt;2058996586992</title>
<path fill="none" stroke="black" d="M436.1,-129C444.97,-129 453.73,-129 461.73,-129"/>
<polygon fill="black" stroke="black" points="461.77,-132.5 471.77,-129 461.77,-125.5 461.77,-132.5"/>
</g>
<!-- 2058996593184&#45;&gt;2058996586992 -->
<g id="edge8" class="edge">
<title>2058996593184&#45;&gt;2058996586992</title>
<path fill="none" stroke="black" d="M413.32,-93.11C420.94,-96.02 428.7,-99.04 436,-102 448.29,-106.98 461.8,-112.82 473.06,-117.79"/>
<polygon fill="black" stroke="black" points="471.74,-121.03 482.3,-121.89 474.58,-114.63 471.74,-121.03"/>
</g>
<!-- 2058996587712 -->
<g id="node8" class="node">
<title>2058996587712</title>
<polygon fill="none" stroke="black" points="672,-147 562,-147 562,-111 672,-111 672,-147"/>
<text text-anchor="middle" x="617" y="-125.9" font-family="Times New Roman,serif" font-size="12.00">Compile audit report</text>
</g>
<!-- 2058996586992&#45;&gt;2058996587712 -->
<g id="edge9" class="edge">
<title>2058996586992&#45;&gt;2058996587712</title>
<path fill="none" stroke="black" d="M526.03,-129C533.7,-129 542.45,-129 551.42,-129"/>
<polygon fill="black" stroke="black" points="551.58,-132.5 561.58,-129 551.58,-125.5 551.58,-132.5"/>
</g>
<!-- 2058996591168 -->
<g id="node9" class="node">
<title>2058996591168</title>
<polygon fill="none" stroke="black" points="866,-147 708,-147 708,-111 866,-111 866,-147"/>
<text text-anchor="middle" x="787" y="-125.9" font-family="Times New Roman,serif" font-size="12.00">Review report by audit director</text>
</g>
<!-- 2058996587712&#45;&gt;2058996591168 -->
<g id="edge10" class="edge">
<title>2058996587712&#45;&gt;2058996591168</title>
<path fill="none" stroke="black" d="M672.08,-129C680.29,-129 688.93,-129 697.63,-129"/>
<polygon fill="black" stroke="black" points="697.86,-132.5 707.86,-129 697.86,-125.5 697.86,-132.5"/>
</g>
<!-- 2058996584592 -->
<g id="node10" class="node">
<title>2058996584592</title>
<polygon fill="none" stroke="black" points="929,-147 902,-129 929,-111 956,-129 929,-147"/>
<text text-anchor="middle" x="929" y="-125.9" font-family="Times New Roman,serif" font-size="12.00">X</text>
</g>
<!-- 2058996591168&#45;&gt;2058996584592 -->
<g id="edge11" class="edge">
<title>2058996591168&#45;&gt;2058996584592</title>
<path fill="none" stroke="black" d="M866.19,-129C875.16,-129 883.95,-129 891.95,-129"/>
<polygon fill="black" stroke="black" points="891.98,-132.5 901.98,-129 891.98,-125.5 891.98,-132.5"/>
</g>
<!-- 2058996584832 -->
<g id="node11" class="node">
<title>2058996584832</title>
<polygon fill="none" stroke="black" points="1357,-147 1330,-129 1357,-111 1384,-129 1357,-147"/>
<text text-anchor="middle" x="1357" y="-125.9" font-family="Times New Roman,serif" font-size="12.00">X</text>
</g>
<!-- 2058996584592&#45;&gt;2058996584832 -->
<g id="edge12" class="edge">
<title>2058996584592&#45;&gt;2058996584832</title>
<path fill="none" stroke="black" d="M953.24,-130.86C964.87,-131.69 979.17,-132.59 992,-133 1126.15,-137.32 1159.85,-137.32 1294,-133 1303.32,-132.7 1313.42,-132.15 1322.7,-131.54"/>
<polygon fill="black" stroke="black" points="1323.02,-135.03 1332.76,-130.86 1322.54,-128.05 1323.02,-135.03"/>
</g>
<!-- 2058996586608 -->
<g id="node12" class="node">
<title>2058996586608</title>
<polygon fill="none" stroke="black" points="1134,-124 992,-124 992,-88 1134,-88 1134,-124"/>
<text text-anchor="middle" x="1063" y="-102.9" font-family="Times New Roman,serif" font-size="12.00">Update and resubmit report</text>
</g>
<!-- 2058996584592&#45;&gt;2058996586608 -->
<g id="edge13" class="edge">
<title>2058996584592&#45;&gt;2058996586608</title>
<path fill="none" stroke="black" d="M950.62,-125.41C959.37,-123.88 970.18,-122 981.6,-120.01"/>
<polygon fill="black" stroke="black" points="982.5,-123.41 991.75,-118.24 981.3,-116.51 982.5,-123.41"/>
</g>
<!-- 2058996591840 -->
<g id="node13" class="node">
<title>2058996591840</title>
<polygon fill="none" stroke="black" points="1508,-147 1420,-147 1420,-111 1508,-111 1508,-147"/>
<text text-anchor="middle" x="1464" y="-125.9" font-family="Times New Roman,serif" font-size="12.00">Approve report</text>
</g>
<!-- 2058996584832&#45;&gt;2058996591840 -->
<g id="edge14" class="edge">
<title>2058996584832&#45;&gt;2058996591840</title>
<path fill="none" stroke="black" d="M1384.23,-129C1392.08,-129 1400.99,-129 1409.93,-129"/>
<polygon fill="black" stroke="black" points="1409.97,-132.5 1419.97,-129 1409.97,-125.5 1409.97,-132.5"/>
</g>
<!-- 2058996593568 -->
<g id="node14" class="node">
<title>2058996593568</title>
<polygon fill="none" stroke="black" points="1294,-124 1170,-124 1170,-88 1294,-88 1294,-124"/>
<text text-anchor="middle" x="1232" y="-102.9" font-family="Times New Roman,serif" font-size="12.00">Send report for revision</text>
</g>
<!-- 2058996586608&#45;&gt;2058996593568 -->
<g id="edge15" class="edge">
<title>2058996586608&#45;&gt;2058996593568</title>
<path fill="none" stroke="black" d="M1134.34,-106C1142.7,-106 1151.25,-106 1159.63,-106"/>
<polygon fill="black" stroke="black" points="1159.75,-109.5 1169.75,-106 1159.75,-102.5 1159.75,-109.5"/>
</g>
<!-- 2058996592176 -->
<g id="node15" class="node">
<title>2058996592176</title>
<polygon fill="none" stroke="black" points="1723,-147 1544,-147 1544,-111 1723,-111 1723,-147"/>
<text text-anchor="middle" x="1633.5" y="-125.9" font-family="Times New Roman,serif" font-size="12.00">Complete risk assessment/mitigation</text>
</g>
<!-- 2058996591840&#45;&gt;2058996592176 -->
<g id="edge17" class="edge">
<title>2058996591840&#45;&gt;2058996592176</title>
<path fill="none" stroke="black" d="M1508.14,-129C1516.16,-129 1524.85,-129 1533.77,-129"/>
<polygon fill="black" stroke="black" points="1533.92,-132.5 1543.92,-129 1533.92,-125.5 1533.92,-132.5"/>
</g>
<!-- 2058996593568&#45;&gt;2058996584832 -->
<g id="edge16" class="edge">
<title>2058996593568&#45;&gt;2058996584832</title>
<path fill="none" stroke="black" d="M1294.14,-117.43C1305,-119.46 1315.88,-121.5 1325.42,-123.28"/>
<polygon fill="black" stroke="black" points="1325.07,-126.78 1335.55,-125.18 1326.36,-119.9 1325.07,-126.78"/>
</g>
<!-- 2058996585168 -->
<g id="node16" class="node">
<title>2058996585168</title>
<polygon fill="none" stroke="black" points="1786,-147 1759,-129 1786,-111 1813,-129 1786,-147"/>
<text text-anchor="middle" x="1786" y="-125.9" font-family="Times New Roman,serif" font-size="12.00">X</text>
</g>
<!-- 2058996592176&#45;&gt;2058996585168 -->
<g id="edge18" class="edge">
<title>2058996592176&#45;&gt;2058996585168</title>
<path fill="none" stroke="black" d="M1723.35,-129C1732.19,-129 1740.77,-129 1748.58,-129"/>
<polygon fill="black" stroke="black" points="1748.71,-132.5 1758.71,-129 1748.71,-125.5 1748.71,-132.5"/>
</g>
<!-- 2058996584064 -->
<g id="node17" class="node">
<title>2058996584064</title>
<polygon fill="none" stroke="black" points="2620,-147 2593,-129 2620,-111 2647,-129 2620,-147"/>
<text text-anchor="middle" x="2620" y="-125.9" font-family="Times New Roman,serif" font-size="12.00">X</text>
</g>
<!-- 2058996585168&#45;&gt;2058996584064 -->
<g id="edge20" class="edge">
<title>2058996585168&#45;&gt;2058996584064</title>
<path fill="none" stroke="black" d="M1800.68,-137.77C1829.72,-155.51 1900.19,-194 1965,-194 1965,-194 1965,-194 2349,-194 2441.08,-194 2546.05,-157.82 2593.42,-139.45"/>
<polygon fill="black" stroke="black" points="2594.87,-142.64 2602.89,-135.71 2592.3,-136.13 2594.87,-142.64"/>
</g>
<!-- 2058996587424 -->
<g id="node18" class="node">
<title>2058996587424</title>
<polygon fill="none" stroke="black" points="1876,-105 1849,-87 1876,-69 1903,-87 1876,-105"/>
<text text-anchor="middle" x="1876" y="-83.9" font-family="Times New Roman,serif" font-size="12.00">+</text>
</g>
<!-- 2058996585168&#45;&gt;2058996587424 -->
<g id="edge19" class="edge">
<title>2058996585168&#45;&gt;2058996587424</title>
<path fill="none" stroke="black" d="M1802.33,-121.68C1815.58,-115.36 1834.97,-106.1 1850.39,-98.74"/>
<polygon fill="black" stroke="black" points="1852.33,-101.7 1859.85,-94.23 1849.31,-95.38 1852.33,-101.7"/>
</g>
<!-- 2058996593664 -->
<g id="node22" class="node">
<title>2058996593664</title>
<polygon fill="none" stroke="black" points="2710,-147 2683,-129 2710,-111 2737,-129 2710,-147"/>
<text text-anchor="middle" x="2710" y="-125.9" font-family="Times New Roman,serif" font-size="12.00">+</text>
</g>
<!-- 2058996584064&#45;&gt;2058996593664 -->
<g id="edge21" class="edge">
<title>2058996584064&#45;&gt;2058996593664</title>
<path fill="none" stroke="black" d="M2647.4,-129C2655.39,-129 2664.31,-129 2672.82,-129"/>
<polygon fill="black" stroke="black" points="2672.92,-132.5 2682.92,-129 2672.92,-125.5 2672.92,-132.5"/>
</g>
<!-- 2058996584256 -->
<g id="node19" class="node">
<title>2058996584256</title>
<polygon fill="none" stroke="black" points="1966,-128 1939,-110 1966,-92 1993,-110 1966,-128"/>
<text text-anchor="middle" x="1966" y="-106.9" font-family="Times New Roman,serif" font-size="12.00">X</text>
</g>
<!-- 2058996587424&#45;&gt;2058996584256 -->
<g id="edge22" class="edge">
<title>2058996587424&#45;&gt;2058996584256</title>
<path fill="none" stroke="black" d="M1896.09,-91.99C1907.82,-95.06 1923.07,-99.04 1936.24,-102.48"/>
<polygon fill="black" stroke="black" points="1935.68,-105.96 1946.24,-105.1 1937.45,-99.18 1935.68,-105.96"/>
</g>
<!-- 2058996586272 -->
<g id="node20" class="node">
<title>2058996586272</title>
<polygon fill="none" stroke="black" points="2285,-82 2181,-82 2181,-46 2285,-46 2285,-82"/>
<text text-anchor="middle" x="2233" y="-60.9" font-family="Times New Roman,serif" font-size="12.00">Conduct interviews</text>
</g>
<!-- 2058996587424&#45;&gt;2058996586272 -->
<g id="edge24" class="edge">
<title>2058996587424&#45;&gt;2058996586272</title>
<path fill="none" stroke="black" d="M1900.84,-85.46C1955.37,-81.92 2090.6,-73.16 2170.38,-67.99"/>
<polygon fill="black" stroke="black" points="2171.02,-71.46 2180.77,-67.32 2170.57,-64.47 2171.02,-71.46"/>
</g>
<!-- 2058996592512 -->
<g id="node21" class="node">
<title>2058996592512</title>
<polygon fill="none" stroke="black" points="2145,-36 2029,-36 2029,0 2145,0 2145,-36"/>
<text text-anchor="middle" x="2087" y="-14.9" font-family="Times New Roman,serif" font-size="12.00">Conduct data analysis</text>
</g>
<!-- 2058996587424&#45;&gt;2058996592512 -->
<g id="edge23" class="edge">
<title>2058996587424&#45;&gt;2058996592512</title>
<path fill="none" stroke="black" d="M1889.67,-77.76C1901.77,-69.35 1920.81,-57.18 1939,-50 1964.31,-40 1993.36,-32.84 2018.92,-27.87"/>
<polygon fill="black" stroke="black" points="2019.71,-31.28 2028.89,-26 2018.42,-24.4 2019.71,-31.28"/>
</g>
<!-- 2058996585072 -->
<g id="node23" class="node">
<title>2058996585072</title>
<polygon fill="none" stroke="black" points="2233,-136 2206,-118 2233,-100 2260,-118 2233,-136"/>
<text text-anchor="middle" x="2233" y="-114.9" font-family="Times New Roman,serif" font-size="12.00">X</text>
</g>
<!-- 2058996584256&#45;&gt;2058996585072 -->
<g id="edge25" class="edge">
<title>2058996584256&#45;&gt;2058996585072</title>
<path fill="none" stroke="black" d="M1981.22,-118.21C1993.44,-124.76 2011.76,-133.41 2029,-137 2090.71,-149.85 2164.8,-135.63 2204.18,-125.78"/>
<polygon fill="black" stroke="black" points="2205.07,-129.17 2213.88,-123.27 2203.32,-122.39 2205.07,-129.17"/>
</g>
<!-- 2058996589104 -->
<g id="node26" class="node">
<title>2058996589104</title>
<polygon fill="none" stroke="black" points="2135,-128 2039,-128 2039,-92 2135,-92 2135,-128"/>
<text text-anchor="middle" x="2087" y="-106.9" font-family="Times New Roman,serif" font-size="12.00">Perform site visits</text>
</g>
<!-- 2058996584256&#45;&gt;2058996589104 -->
<g id="edge26" class="edge">
<title>2058996584256&#45;&gt;2058996589104</title>
<path fill="none" stroke="black" d="M1993.12,-110C2003.59,-110 2016.11,-110 2028.51,-110"/>
<polygon fill="black" stroke="black" points="2028.85,-113.5 2038.85,-110 2028.85,-106.5 2028.85,-113.5"/>
</g>
<!-- 2058996586704 -->
<g id="node24" class="node">
<title>2058996586704</title>
<polygon fill="none" stroke="black" points="2348,-103 2321,-85 2348,-67 2375,-85 2348,-103"/>
<text text-anchor="middle" x="2348" y="-81.9" font-family="Times New Roman,serif" font-size="12.00">+</text>
</g>
<!-- 2058996586272&#45;&gt;2058996586704 -->
<g id="edge27" class="edge">
<title>2058996586272&#45;&gt;2058996586704</title>
<path fill="none" stroke="black" d="M2285.21,-73.52C2295.93,-75.51 2306.91,-77.55 2316.58,-79.35"/>
<polygon fill="black" stroke="black" points="2316.02,-82.8 2326.49,-81.19 2317.3,-75.92 2316.02,-82.8"/>
</g>
<!-- 2058996592512&#45;&gt;2058996586704 -->
<g id="edge28" class="edge">
<title>2058996592512&#45;&gt;2058996586704</title>
<path fill="none" stroke="black" d="M2145.14,-15.25C2185.56,-15.25 2240.28,-19.27 2285,-37 2301.86,-43.69 2317.97,-56.42 2329.54,-67.09"/>
<polygon fill="black" stroke="black" points="2327.14,-69.64 2336.77,-74.05 2331.99,-64.59 2327.14,-69.64"/>
</g>
<!-- 2058996588048 -->
<g id="node25" class="node">
<title>2058996588048</title>
<polygon fill="none" stroke="black" points="2906,-201 2773,-201 2773,-165 2906,-165 2906,-201"/>
<text text-anchor="middle" x="2839.5" y="-179.9" font-family="Times New Roman,serif" font-size="12.00">Evaluate compliance risks</text>
</g>
<!-- 2058996593664&#45;&gt;2058996588048 -->
<g id="edge31" class="edge">
<title>2058996593664&#45;&gt;2058996588048</title>
<path fill="none" stroke="black" d="M2726.76,-135.97C2739.27,-141.47 2757.22,-149.31 2773,-156 2776.89,-157.65 2780.91,-159.34 2784.96,-161.03"/>
<polygon fill="black" stroke="black" points="2783.83,-164.35 2794.41,-164.96 2786.52,-157.89 2783.83,-164.35"/>
</g>
<!-- 2058996590496 -->
<g id="node27" class="node">
<title>2058996590496</title>
<polygon fill="none" stroke="black" points="2898.5,-147 2780.5,-147 2780.5,-111 2898.5,-111 2898.5,-147"/>
<text text-anchor="middle" x="2839.5" y="-125.9" font-family="Times New Roman,serif" font-size="12.00">Evaluate financial risks</text>
</g>
<!-- 2058996593664&#45;&gt;2058996590496 -->
<g id="edge30" class="edge">
<title>2058996593664&#45;&gt;2058996590496</title>
<path fill="none" stroke="black" d="M2737.11,-129C2746.8,-129 2758.3,-129 2770.02,-129"/>
<polygon fill="black" stroke="black" points="2770.33,-132.5 2780.33,-129 2770.33,-125.5 2770.33,-132.5"/>
</g>
<!-- 2058996592848 -->
<g id="node28" class="node">
<title>2058996592848</title>
<polygon fill="none" stroke="black" points="2905.5,-93 2773.5,-93 2773.5,-57 2905.5,-57 2905.5,-93"/>
<text text-anchor="middle" x="2839.5" y="-71.9" font-family="Times New Roman,serif" font-size="12.00">Evaluate operational risks</text>
</g>
<!-- 2058996593664&#45;&gt;2058996592848 -->
<g id="edge29" class="edge">
<title>2058996593664&#45;&gt;2058996592848</title>
<path fill="none" stroke="black" d="M2726.76,-122.03C2739.27,-116.53 2757.22,-108.69 2773,-102 2776.89,-100.35 2780.91,-98.66 2784.96,-96.97"/>
<polygon fill="black" stroke="black" points="2786.52,-100.11 2794.41,-93.04 2783.83,-93.65 2786.52,-100.11"/>
</g>
<!-- 2058996585072&#45;&gt;2058996586704 -->
<g id="edge32" class="edge">
<title>2058996585072&#45;&gt;2058996586704</title>
<path fill="none" stroke="black" d="M2252.16,-112.7C2270.28,-107.41 2298.36,-99.2 2319.28,-93.1"/>
<polygon fill="black" stroke="black" points="2320.27,-96.45 2328.89,-90.29 2318.31,-89.73 2320.27,-96.45"/>
</g>
<!-- 2058996586944 -->
<g id="node29" class="node">
<title>2058996586944</title>
<polygon fill="none" stroke="black" points="2557,-124 2411,-124 2411,-88 2557,-88 2557,-124"/>
<text text-anchor="middle" x="2484" y="-102.9" font-family="Times New Roman,serif" font-size="12.00">Launch detailed investigation</text>
</g>
<!-- 2058996586704&#45;&gt;2058996586944 -->
<g id="edge34" class="edge">
<title>2058996586704&#45;&gt;2058996586944</title>
<path fill="none" stroke="black" d="M2370.23,-88.33C2378.91,-89.69 2389.55,-91.35 2400.79,-93.12"/>
<polygon fill="black" stroke="black" points="2400.36,-96.59 2410.78,-94.68 2401.45,-89.68 2400.36,-96.59"/>
</g>
<!-- 2058996589872 -->
<g id="node30" class="node">
<title>2058996589872</title>
<polygon fill="none" stroke="black" points="2969,-147 2942,-129 2969,-111 2996,-129 2969,-147"/>
<text text-anchor="middle" x="2969" y="-125.9" font-family="Times New Roman,serif" font-size="12.00">+</text>
</g>
<!-- 2058996588048&#45;&gt;2058996589872 -->
<g id="edge35" class="edge">
<title>2058996588048&#45;&gt;2058996589872</title>
<path fill="none" stroke="black" d="M2884.59,-164.96C2891.76,-161.99 2899.09,-158.93 2906,-156 2918.21,-150.83 2931.71,-144.96 2942.99,-140.03"/>
<polygon fill="black" stroke="black" points="2944.49,-143.19 2952.24,-135.97 2941.67,-136.78 2944.49,-143.19"/>
</g>
<!-- 2058996589104&#45;&gt;2058996585072 -->
<g id="edge33" class="edge">
<title>2058996589104&#45;&gt;2058996585072</title>
<path fill="none" stroke="black" d="M2135.15,-112.62C2155.54,-113.75 2178.96,-115.05 2197.67,-116.09"/>
<polygon fill="black" stroke="black" points="2197.62,-119.6 2207.8,-116.66 2198.01,-112.61 2197.62,-119.6"/>
</g>
<!-- 2058996590496&#45;&gt;2058996589872 -->
<g id="edge36" class="edge">
<title>2058996590496&#45;&gt;2058996589872</title>
<path fill="none" stroke="black" d="M2898.65,-129C2909.86,-129 2921.31,-129 2931.58,-129"/>
<polygon fill="black" stroke="black" points="2931.81,-132.5 2941.81,-129 2931.81,-125.5 2931.81,-132.5"/>
</g>
<!-- 2058996592848&#45;&gt;2058996589872 -->
<g id="edge37" class="edge">
<title>2058996592848&#45;&gt;2058996589872</title>
<path fill="none" stroke="black" d="M2884.59,-93.04C2891.76,-96.01 2899.09,-99.07 2906,-102 2918.21,-107.17 2931.71,-113.04 2942.99,-117.97"/>
<polygon fill="black" stroke="black" points="2941.67,-121.22 2952.24,-122.03 2944.49,-114.81 2941.67,-121.22"/>
</g>
<!-- 2058996586944&#45;&gt;2058996584064 -->
<g id="edge38" class="edge">
<title>2058996586944&#45;&gt;2058996584064</title>
<path fill="none" stroke="black" d="M2557.1,-118.38C2568.08,-120.26 2578.88,-122.11 2588.3,-123.73"/>
<polygon fill="black" stroke="black" points="2587.85,-127.2 2598.3,-125.45 2589.04,-120.31 2587.85,-127.2"/>
</g>
<!-- 2058996585456 -->
<g id="node31" class="node">
<title>2058996585456</title>
<polygon fill="none" stroke="black" points="3059,-147 3032,-129 3059,-111 3086,-129 3059,-147"/>
<text text-anchor="middle" x="3059" y="-125.9" font-family="Times New Roman,serif" font-size="12.00">X</text>
</g>
<!-- 2058996589872&#45;&gt;2058996585456 -->
<g id="edge39" class="edge">
<title>2058996589872&#45;&gt;2058996585456</title>
<path fill="none" stroke="black" d="M2996.4,-129C3004.39,-129 3013.31,-129 3021.82,-129"/>
<polygon fill="black" stroke="black" points="3021.92,-132.5 3031.92,-129 3021.92,-125.5 3021.92,-132.5"/>
</g>
<!-- 2058996584928 -->
<g id="node32" class="node">
<title>2058996584928</title>
<polygon fill="none" stroke="black" points="3520,-147 3493,-129 3520,-111 3547,-129 3520,-147"/>
<text text-anchor="middle" x="3520" y="-125.9" font-family="Times New Roman,serif" font-size="12.00">X</text>
</g>
<!-- 2058996585456&#45;&gt;2058996584928 -->
<g id="edge41" class="edge">
<title>2058996585456&#45;&gt;2058996584928</title>
<path fill="none" stroke="black" d="M3083.24,-130.86C3094.87,-131.69 3109.17,-132.59 3122,-133 3270.81,-137.8 3308.19,-137.8 3457,-133 3466.32,-132.7 3476.42,-132.15 3485.7,-131.54"/>
<polygon fill="black" stroke="black" points="3486.02,-135.03 3495.76,-130.86 3485.54,-128.05 3486.02,-135.03"/>
</g>
<!-- 2058996588720 -->
<g id="node33" class="node">
<title>2058996588720</title>
<polygon fill="none" stroke="black" points="3233,-124 3122,-124 3122,-88 3233,-88 3233,-124"/>
<text text-anchor="middle" x="3177.5" y="-102.9" font-family="Times New Roman,serif" font-size="12.00">Receive clarifications</text>
</g>
<!-- 2058996585456&#45;&gt;2058996588720 -->
<g id="edge40" class="edge">
<title>2058996585456&#45;&gt;2058996588720</title>
<path fill="none" stroke="black" d="M3080.29,-124.99C3089.27,-123.22 3100.37,-121.03 3111.81,-118.77"/>
<polygon fill="black" stroke="black" points="3112.77,-122.15 3121.91,-116.78 3111.42,-115.28 3112.77,-122.15"/>
</g>
<!-- 2058996590832 -->
<g id="node35" class="node">
<title>2058996590832</title>
<polygon fill="none" stroke="black" points="3685,-147 3583,-147 3583,-111 3685,-111 3685,-147"/>
<text text-anchor="middle" x="3634" y="-125.9" font-family="Times New Roman,serif" font-size="12.00">Review submission</text>
</g>
<!-- 2058996584928&#45;&gt;2058996590832 -->
<g id="edge42" class="edge">
<title>2058996584928&#45;&gt;2058996590832</title>
<path fill="none" stroke="black" d="M3547.26,-129C3554.96,-129 3563.73,-129 3572.64,-129"/>
<polygon fill="black" stroke="black" points="3572.71,-132.5 3582.71,-129 3572.71,-125.5 3572.71,-132.5"/>
</g>
<!-- 2058996590160 -->
<g id="node34" class="node">
<title>2058996590160</title>
<polygon fill="none" stroke="black" points="3457,-124 3269,-124 3269,-88 3457,-88 3457,-124"/>
<text text-anchor="middle" x="3363" y="-102.9" font-family="Times New Roman,serif" font-size="12.00">Request clarifications of discrepancies</text>
</g>
<!-- 2058996588720&#45;&gt;2058996590160 -->
<g id="edge43" class="edge">
<title>2058996588720&#45;&gt;2058996590160</title>
<path fill="none" stroke="black" d="M3233.06,-106C3241.27,-106 3249.96,-106 3258.8,-106"/>
<polygon fill="black" stroke="black" points="3258.82,-109.5 3268.82,-106 3258.82,-102.5 3258.82,-109.5"/>
</g>
<!-- 2058996590160&#45;&gt;2058996584928 -->
<g id="edge44" class="edge">
<title>2058996590160&#45;&gt;2058996584928</title>
<path fill="none" stroke="black" d="M3457.29,-119.84C3468.17,-121.46 3478.61,-123.01 3487.71,-124.36"/>
<polygon fill="black" stroke="black" points="3487.32,-127.84 3497.73,-125.84 3488.35,-120.91 3487.32,-127.84"/>
</g>
<!-- 2058996589440 -->
<g id="node36" class="node">
<title>2058996589440</title>
<polygon fill="none" stroke="black" points="3821,-147 3721,-147 3721,-111 3821,-111 3821,-147"/>
<text text-anchor="middle" x="3771" y="-125.9" font-family="Times New Roman,serif" font-size="12.00">Submit documents</text>
</g>
<!-- 2058996590832&#45;&gt;2058996589440 -->
<g id="edge45" class="edge">
<title>2058996590832&#45;&gt;2058996589440</title>
<path fill="none" stroke="black" d="M3685.27,-129C3693.48,-129 3702.05,-129 3710.45,-129"/>
<polygon fill="black" stroke="black" points="3710.59,-132.5 3720.59,-129 3710.59,-125.5 3710.59,-132.5"/>
</g>
<!-- 2058996585600 -->
<g id="node37" class="node">
<title>2058996585600</title>
<polygon fill="none" stroke="black" points="3969,-147 3857,-147 3857,-111 3969,-111 3969,-147"/>
<text text-anchor="middle" x="3913" y="-125.9" font-family="Times New Roman,serif" font-size="12.00">Distribute final report</text>
</g>
<!-- 2058996589440&#45;&gt;2058996585600 -->
<g id="edge46" class="edge">
<title>2058996589440&#45;&gt;2058996585600</title>
<path fill="none" stroke="black" d="M3821.36,-129C3829.62,-129 3838.3,-129 3846.89,-129"/>
<polygon fill="black" stroke="black" points="3846.89,-132.5 3856.89,-129 3846.89,-125.5 3846.89,-132.5"/>
</g>
<!-- 2058996589776 -->
<g id="node38" class="node">
<title>2058996589776</title>
<polygon fill="none" stroke="black" points="4088,-147 4005,-147 4005,-111 4088,-111 4088,-147"/>
<text text-anchor="middle" x="4046.5" y="-125.9" font-family="Times New Roman,serif" font-size="12.00">Archive report</text>
</g>
<!-- 2058996585600&#45;&gt;2058996589776 -->
<g id="edge47" class="edge">
<title>2058996585600&#45;&gt;2058996589776</title>
<path fill="none" stroke="black" d="M3969.01,-129C3977.51,-129 3986.26,-129 3994.67,-129"/>
<polygon fill="black" stroke="black" points="3994.72,-132.5 4004.72,-129 3994.72,-125.5 3994.72,-132.5"/>
</g>
<!-- 2058996588384 -->
<g id="node39" class="node">
<title>2058996588384</title>
<polygon fill="none" stroke="black" points="4230,-147 4124,-147 4124,-111 4230,-111 4230,-147"/>
<text text-anchor="middle" x="4177" y="-125.9" font-family="Times New Roman,serif" font-size="12.00">Close audit process</text>
</g>
<!-- 2058996589776&#45;&gt;2058996588384 -->
<g id="edge48" class="edge">
<title>2058996589776&#45;&gt;2058996588384</title>
<path fill="none" stroke="black" d="M4088.16,-129C4096.3,-129 4105.02,-129 4113.7,-129"/>
<polygon fill="black" stroke="black" points="4113.83,-132.5 4123.83,-129 4113.83,-125.5 4113.83,-132.5"/>
</g>
<!-- 2058996760640 -->
<g id="node40" class="node">
<title>2058996760640</title>
<ellipse fill="orange" stroke="black" cx="4284" cy="-129" rx="18" ry="18"/>
</g>
<!-- 2058996588384&#45;&gt;2058996760640 -->
<g id="edge49" class="edge">
<title>2058996588384&#45;&gt;2058996760640</title>
<path fill="none" stroke="black" d="M4230.19,-129C4238.87,-129 4247.56,-129 4255.31,-129"/>
<polygon fill="black" stroke="black" points="4255.54,-132.5 4265.54,-129 4255.54,-125.5 4255.54,-132.5"/>
</g>
</g>
</svg>
