<?xml version="1.0" encoding="UTF-8" standalone="no"?>
<!DOCTYPE svg PUBLIC "-//W3C//DTD SVG 1.1//EN"
 "http://www.w3.org/Graphics/SVG/1.1/DTD/svg11.dtd">
<!-- Generated by graphviz version 6.0.1 (20220911.1526)
 -->
<!-- Pages: 1 -->
<svg width="3824pt" height="209pt"
 viewBox="0.00 0.00 3824.00 209.00" xmlns="http://www.w3.org/2000/svg" xmlns:xlink="http://www.w3.org/1999/xlink">
<g id="graph0" class="graph" transform="scale(1 1) rotate(0) translate(4 205)">
<polygon fill="white" stroke="none" points="-4,4 -4,-205 3820,-205 3820,4 -4,4"/>
<!-- 2058995043488 -->
<g id="node1" class="node">
<title>2058995043488</title>
<ellipse fill="green" stroke="black" cx="18" cy="-129" rx="18" ry="18"/>
</g>
<!-- 2058994513040 -->
<g id="node2" class="node">
<title>2058994513040</title>
<polygon fill="none" stroke="black" points="178,-147 72,-147 72,-111 178,-111 178,-147"/>
<text text-anchor="middle" x="125" y="-125.9" font-family="Times New Roman,serif" font-size="12.00">Close audit process</text>
</g>
<!-- 2058995043488&#45;&gt;2058994513040 -->
<g id="edge1" class="edge">
<title>2058995043488&#45;&gt;2058994513040</title>
<path fill="none" stroke="black" d="M36.34,-129C43.52,-129 52.34,-129 61.58,-129"/>
<polygon fill="black" stroke="black" points="61.71,-132.5 71.71,-129 61.71,-125.5 61.71,-132.5"/>
</g>
<!-- 2058994510928 -->
<g id="node3" class="node">
<title>2058994510928</title>
<polygon fill="none" stroke="black" points="297,-147 214,-147 214,-111 297,-111 297,-147"/>
<text text-anchor="middle" x="255.5" y="-125.9" font-family="Times New Roman,serif" font-size="12.00">Archive report</text>
</g>
<!-- 2058994513040&#45;&gt;2058994510928 -->
<g id="edge2" class="edge">
<title>2058994513040&#45;&gt;2058994510928</title>
<path fill="none" stroke="black" d="M178.27,-129C186.66,-129 195.34,-129 203.71,-129"/>
<polygon fill="black" stroke="black" points="203.71,-132.5 213.71,-129 203.71,-125.5 203.71,-132.5"/>
</g>
<!-- 2058994507760 -->
<g id="node4" class="node">
<title>2058994507760</title>
<polygon fill="none" stroke="black" points="445,-147 333,-147 333,-111 445,-111 445,-147"/>
<text text-anchor="middle" x="389" y="-125.9" font-family="Times New Roman,serif" font-size="12.00">Distribute final report</text>
</g>
<!-- 2058994510928&#45;&gt;2058994507760 -->
<g id="edge3" class="edge">
<title>2058994510928&#45;&gt;2058994507760</title>
<path fill="none" stroke="black" d="M297.03,-129C305.16,-129 313.91,-129 322.64,-129"/>
<polygon fill="black" stroke="black" points="322.85,-132.5 332.85,-129 322.85,-125.5 322.85,-132.5"/>
</g>
<!-- 2058994508096 -->
<g id="node5" class="node">
<title>2058994508096</title>
<polygon fill="none" stroke="black" points="573,-147 481,-147 481,-111 573,-111 573,-147"/>
<text text-anchor="middle" x="527" y="-125.9" font-family="Times New Roman,serif" font-size="12.00">Send notification</text>
</g>
<!-- 2058994507760&#45;&gt;2058994508096 -->
<g id="edge4" class="edge">
<title>2058994507760&#45;&gt;2058994508096</title>
<path fill="none" stroke="black" d="M445.32,-129C453.68,-129 462.31,-129 470.68,-129"/>
<polygon fill="black" stroke="black" points="470.71,-132.5 480.71,-129 470.71,-125.5 470.71,-132.5"/>
</g>
<!-- 2058994507088 -->
<g id="node6" class="node">
<title>2058994507088</title>
<polygon fill="none" stroke="black" points="767,-147 609,-147 609,-111 767,-111 767,-147"/>
<text text-anchor="middle" x="688" y="-125.9" font-family="Times New Roman,serif" font-size="12.00">Review report by audit director</text>
</g>
<!-- 2058994508096&#45;&gt;2058994507088 -->
<g id="edge5" class="edge">
<title>2058994508096&#45;&gt;2058994507088</title>
<path fill="none" stroke="black" d="M573.14,-129C581.28,-129 590.01,-129 598.89,-129"/>
<polygon fill="black" stroke="black" points="598.95,-132.5 608.95,-129 598.95,-125.5 598.95,-132.5"/>
</g>
<!-- 2058994504880 -->
<g id="node7" class="node">
<title>2058994504880</title>
<polygon fill="none" stroke="black" points="830,-147 803,-129 830,-111 857,-129 830,-147"/>
<text text-anchor="middle" x="830" y="-125.9" font-family="Times New Roman,serif" font-size="12.00">X</text>
</g>
<!-- 2058994507088&#45;&gt;2058994504880 -->
<g id="edge6" class="edge">
<title>2058994507088&#45;&gt;2058994504880</title>
<path fill="none" stroke="black" d="M767.19,-129C776.16,-129 784.95,-129 792.95,-129"/>
<polygon fill="black" stroke="black" points="792.98,-132.5 802.98,-129 792.98,-125.5 792.98,-132.5"/>
</g>
<!-- 2058994506032 -->
<g id="node8" class="node">
<title>2058994506032</title>
<polygon fill="none" stroke="black" points="1035,-172 893,-172 893,-136 1035,-136 1035,-172"/>
<text text-anchor="middle" x="964" y="-150.9" font-family="Times New Roman,serif" font-size="12.00">Update and resubmit report</text>
</g>
<!-- 2058994504880&#45;&gt;2058994506032 -->
<g id="edge8" class="edge">
<title>2058994504880&#45;&gt;2058994506032</title>
<path fill="none" stroke="black" d="M851.34,-132.85C860.21,-134.53 871.23,-136.62 882.88,-138.83"/>
<polygon fill="black" stroke="black" points="882.29,-142.28 892.77,-140.7 883.6,-135.4 882.29,-142.28"/>
</g>
<!-- 2058994512272 -->
<g id="node9" class="node">
<title>2058994512272</title>
<polygon fill="none" stroke="black" points="1177,-120 1089,-120 1089,-84 1177,-84 1177,-120"/>
<text text-anchor="middle" x="1133" y="-98.9" font-family="Times New Roman,serif" font-size="12.00">Approve report</text>
</g>
<!-- 2058994504880&#45;&gt;2058994512272 -->
<g id="edge7" class="edge">
<title>2058994504880&#45;&gt;2058994512272</title>
<path fill="none" stroke="black" d="M854.12,-126.93C901.81,-122.65 1012.2,-112.75 1078.6,-106.79"/>
<polygon fill="black" stroke="black" points="1079.21,-110.25 1088.86,-105.87 1078.59,-103.28 1079.21,-110.25"/>
</g>
<!-- 2058994511600 -->
<g id="node11" class="node">
<title>2058994511600</title>
<polygon fill="none" stroke="black" points="1195,-174 1071,-174 1071,-138 1195,-138 1195,-174"/>
<text text-anchor="middle" x="1133" y="-152.9" font-family="Times New Roman,serif" font-size="12.00">Send report for revision</text>
</g>
<!-- 2058994506032&#45;&gt;2058994511600 -->
<g id="edge9" class="edge">
<title>2058994506032&#45;&gt;2058994511600</title>
<path fill="none" stroke="black" d="M1035.34,-154.84C1043.7,-154.94 1052.25,-155.04 1060.63,-155.15"/>
<polygon fill="black" stroke="black" points="1060.7,-158.65 1070.75,-155.27 1060.79,-151.65 1060.7,-158.65"/>
</g>
<!-- 2058994504928 -->
<g id="node10" class="node">
<title>2058994504928</title>
<polygon fill="none" stroke="black" points="1258,-147 1231,-129 1258,-111 1285,-129 1258,-147"/>
<text text-anchor="middle" x="1258" y="-125.9" font-family="Times New Roman,serif" font-size="12.00">X</text>
</g>
<!-- 2058994512272&#45;&gt;2058994504928 -->
<g id="edge10" class="edge">
<title>2058994512272&#45;&gt;2058994504928</title>
<path fill="none" stroke="black" d="M1177.02,-111.44C1193.68,-115.1 1212.34,-119.2 1227.44,-122.51"/>
<polygon fill="black" stroke="black" points="1226.74,-125.94 1237.25,-124.67 1228.24,-119.1 1226.74,-125.94"/>
</g>
<!-- 2058994508432 -->
<g id="node12" class="node">
<title>2058994508432</title>
<polygon fill="none" stroke="black" points="1431,-147 1321,-147 1321,-111 1431,-111 1431,-147"/>
<text text-anchor="middle" x="1376" y="-125.9" font-family="Times New Roman,serif" font-size="12.00">Compile audit report</text>
</g>
<!-- 2058994504928&#45;&gt;2058994508432 -->
<g id="edge12" class="edge">
<title>2058994504928&#45;&gt;2058994508432</title>
<path fill="none" stroke="black" d="M1285.03,-129C1292.7,-129 1301.45,-129 1310.42,-129"/>
<polygon fill="black" stroke="black" points="1310.58,-132.5 1320.58,-129 1310.58,-125.5 1310.58,-132.5"/>
</g>
<!-- 2058994511600&#45;&gt;2058994504928 -->
<g id="edge11" class="edge">
<title>2058994511600&#45;&gt;2058994504928</title>
<path fill="none" stroke="black" d="M1195.14,-142.58C1206.39,-140.11 1217.65,-137.64 1227.42,-135.49"/>
<polygon fill="black" stroke="black" points="1228.36,-138.87 1237.37,-133.31 1226.86,-132.03 1228.36,-138.87"/>
</g>
<!-- 2058994507424 -->
<g id="node13" class="node">
<title>2058994507424</title>
<polygon fill="none" stroke="black" points="1646,-147 1467,-147 1467,-111 1646,-111 1646,-147"/>
<text text-anchor="middle" x="1556.5" y="-125.9" font-family="Times New Roman,serif" font-size="12.00">Complete risk assessment/mitigation</text>
</g>
<!-- 2058994508432&#45;&gt;2058994507424 -->
<g id="edge13" class="edge">
<title>2058994508432&#45;&gt;2058994507424</title>
<path fill="none" stroke="black" d="M1431.04,-129C1439.15,-129 1447.73,-129 1456.43,-129"/>
<polygon fill="black" stroke="black" points="1456.68,-132.5 1466.68,-129 1456.68,-125.5 1456.68,-132.5"/>
</g>
<!-- 2058994505696 -->
<g id="node14" class="node">
<title>2058994505696</title>
<polygon fill="none" stroke="black" points="1709,-147 1682,-129 1709,-111 1736,-129 1709,-147"/>
<text text-anchor="middle" x="1709" y="-125.9" font-family="Times New Roman,serif" font-size="12.00">X</text>
</g>
<!-- 2058994507424&#45;&gt;2058994505696 -->
<g id="edge14" class="edge">
<title>2058994507424&#45;&gt;2058994505696</title>
<path fill="none" stroke="black" d="M1646.35,-129C1655.19,-129 1663.77,-129 1671.58,-129"/>
<polygon fill="black" stroke="black" points="1671.71,-132.5 1681.71,-129 1671.71,-125.5 1671.71,-132.5"/>
</g>
<!-- 2058994505360 -->
<g id="node15" class="node">
<title>2058994505360</title>
<polygon fill="none" stroke="black" points="2543,-147 2516,-129 2543,-111 2570,-129 2543,-147"/>
<text text-anchor="middle" x="2543" y="-125.9" font-family="Times New Roman,serif" font-size="12.00">X</text>
</g>
<!-- 2058994505696&#45;&gt;2058994505360 -->
<g id="edge16" class="edge">
<title>2058994505696&#45;&gt;2058994505360</title>
<path fill="none" stroke="black" d="M1723.68,-137.77C1752.72,-155.51 1823.19,-194 1888,-194 1888,-194 1888,-194 2272,-194 2364.08,-194 2469.05,-157.82 2516.42,-139.45"/>
<polygon fill="black" stroke="black" points="2517.87,-142.64 2525.89,-135.71 2515.3,-136.13 2517.87,-142.64"/>
</g>
<!-- 2058994509584 -->
<g id="node16" class="node">
<title>2058994509584</title>
<polygon fill="none" stroke="black" points="1799,-105 1772,-87 1799,-69 1826,-87 1799,-105"/>
<text text-anchor="middle" x="1799" y="-83.9" font-family="Times New Roman,serif" font-size="12.00">+</text>
</g>
<!-- 2058994505696&#45;&gt;2058994509584 -->
<g id="edge15" class="edge">
<title>2058994505696&#45;&gt;2058994509584</title>
<path fill="none" stroke="black" d="M1725.33,-121.68C1738.58,-115.36 1757.97,-106.1 1773.39,-98.74"/>
<polygon fill="black" stroke="black" points="1775.33,-101.7 1782.85,-94.23 1772.31,-95.38 1775.33,-101.7"/>
</g>
<!-- 2058994512080 -->
<g id="node20" class="node">
<title>2058994512080</title>
<polygon fill="none" stroke="black" points="2633,-147 2606,-129 2633,-111 2660,-129 2633,-147"/>
<text text-anchor="middle" x="2633" y="-125.9" font-family="Times New Roman,serif" font-size="12.00">+</text>
</g>
<!-- 2058994505360&#45;&gt;2058994512080 -->
<g id="edge17" class="edge">
<title>2058994505360&#45;&gt;2058994512080</title>
<path fill="none" stroke="black" d="M2570.4,-129C2578.39,-129 2587.31,-129 2595.82,-129"/>
<polygon fill="black" stroke="black" points="2595.92,-132.5 2605.92,-129 2595.92,-125.5 2595.92,-132.5"/>
</g>
<!-- 2058994505264 -->
<g id="node17" class="node">
<title>2058994505264</title>
<polygon fill="none" stroke="black" points="1889,-128 1862,-110 1889,-92 1916,-110 1889,-128"/>
<text text-anchor="middle" x="1889" y="-106.9" font-family="Times New Roman,serif" font-size="12.00">X</text>
</g>
<!-- 2058994509584&#45;&gt;2058994505264 -->
<g id="edge18" class="edge">
<title>2058994509584&#45;&gt;2058994505264</title>
<path fill="none" stroke="black" d="M1819.09,-91.99C1830.82,-95.06 1846.07,-99.04 1859.24,-102.48"/>
<polygon fill="black" stroke="black" points="1858.68,-105.96 1869.24,-105.1 1860.45,-99.18 1858.68,-105.96"/>
</g>
<!-- 2058994509872 -->
<g id="node18" class="node">
<title>2058994509872</title>
<polygon fill="none" stroke="black" points="2208,-82 2104,-82 2104,-46 2208,-46 2208,-82"/>
<text text-anchor="middle" x="2156" y="-60.9" font-family="Times New Roman,serif" font-size="12.00">Conduct interviews</text>
</g>
<!-- 2058994509584&#45;&gt;2058994509872 -->
<g id="edge20" class="edge">
<title>2058994509584&#45;&gt;2058994509872</title>
<path fill="none" stroke="black" d="M1823.84,-85.46C1878.37,-81.92 2013.6,-73.16 2093.38,-67.99"/>
<polygon fill="black" stroke="black" points="2094.02,-71.46 2103.77,-67.32 2093.57,-64.47 2094.02,-71.46"/>
</g>
<!-- 2058994511936 -->
<g id="node19" class="node">
<title>2058994511936</title>
<polygon fill="none" stroke="black" points="2068,-36 1952,-36 1952,0 2068,0 2068,-36"/>
<text text-anchor="middle" x="2010" y="-14.9" font-family="Times New Roman,serif" font-size="12.00">Conduct data analysis</text>
</g>
<!-- 2058994509584&#45;&gt;2058994511936 -->
<g id="edge19" class="edge">
<title>2058994509584&#45;&gt;2058994511936</title>
<path fill="none" stroke="black" d="M1812.67,-77.76C1824.77,-69.35 1843.81,-57.18 1862,-50 1887.31,-40 1916.36,-32.84 1941.92,-27.87"/>
<polygon fill="black" stroke="black" points="1942.71,-31.28 1951.89,-26 1941.42,-24.4 1942.71,-31.28"/>
</g>
<!-- 2058994505024 -->
<g id="node21" class="node">
<title>2058994505024</title>
<polygon fill="none" stroke="black" points="2156,-136 2129,-118 2156,-100 2183,-118 2156,-136"/>
<text text-anchor="middle" x="2156" y="-114.9" font-family="Times New Roman,serif" font-size="12.00">X</text>
</g>
<!-- 2058994505264&#45;&gt;2058994505024 -->
<g id="edge21" class="edge">
<title>2058994505264&#45;&gt;2058994505024</title>
<path fill="none" stroke="black" d="M1904.22,-118.21C1916.44,-124.76 1934.76,-133.41 1952,-137 2013.71,-149.85 2087.8,-135.63 2127.18,-125.78"/>
<polygon fill="black" stroke="black" points="2128.07,-129.17 2136.88,-123.27 2126.32,-122.39 2128.07,-129.17"/>
</g>
<!-- 2058994510544 -->
<g id="node26" class="node">
<title>2058994510544</title>
<polygon fill="none" stroke="black" points="2058,-128 1962,-128 1962,-92 2058,-92 2058,-128"/>
<text text-anchor="middle" x="2010" y="-106.9" font-family="Times New Roman,serif" font-size="12.00">Perform site visits</text>
</g>
<!-- 2058994505264&#45;&gt;2058994510544 -->
<g id="edge22" class="edge">
<title>2058994505264&#45;&gt;2058994510544</title>
<path fill="none" stroke="black" d="M1916.12,-110C1926.59,-110 1939.11,-110 1951.51,-110"/>
<polygon fill="black" stroke="black" points="1951.85,-113.5 1961.85,-110 1951.85,-106.5 1951.85,-113.5"/>
</g>
<!-- 2058994504592 -->
<g id="node22" class="node">
<title>2058994504592</title>
<polygon fill="none" stroke="black" points="2271,-103 2244,-85 2271,-67 2298,-85 2271,-103"/>
<text text-anchor="middle" x="2271" y="-81.9" font-family="Times New Roman,serif" font-size="12.00">+</text>
</g>
<!-- 2058994509872&#45;&gt;2058994504592 -->
<g id="edge23" class="edge">
<title>2058994509872&#45;&gt;2058994504592</title>
<path fill="none" stroke="black" d="M2208.21,-73.52C2218.93,-75.51 2229.91,-77.55 2239.58,-79.35"/>
<polygon fill="black" stroke="black" points="2239.02,-82.8 2249.49,-81.19 2240.3,-75.92 2239.02,-82.8"/>
</g>
<!-- 2058994511936&#45;&gt;2058994504592 -->
<g id="edge24" class="edge">
<title>2058994511936&#45;&gt;2058994504592</title>
<path fill="none" stroke="black" d="M2068.14,-15.25C2108.56,-15.25 2163.28,-19.27 2208,-37 2224.86,-43.69 2240.97,-56.42 2252.54,-67.09"/>
<polygon fill="black" stroke="black" points="2250.14,-69.64 2259.77,-74.05 2254.99,-64.59 2250.14,-69.64"/>
</g>
<!-- 2058994506752 -->
<g id="node23" class="node">
<title>2058994506752</title>
<polygon fill="none" stroke="black" points="2829,-201 2696,-201 2696,-165 2829,-165 2829,-201"/>
<text text-anchor="middle" x="2762.5" y="-179.9" font-family="Times New Roman,serif" font-size="12.00">Evaluate compliance risks</text>
</g>
<!-- 2058994512080&#45;&gt;2058994506752 -->
<g id="edge26" class="edge">
<title>2058994512080&#45;&gt;2058994506752</title>
<path fill="none" stroke="black" d="M2649.76,-135.97C2662.27,-141.47 2680.22,-149.31 2696,-156 2699.89,-157.65 2703.91,-159.34 2707.96,-161.03"/>
<polygon fill="black" stroke="black" points="2706.83,-164.35 2717.41,-164.96 2709.52,-157.89 2706.83,-164.35"/>
</g>
<!-- 2058994509488 -->
<g id="node24" class="node">
<title>2058994509488</title>
<polygon fill="none" stroke="black" points="2821.5,-147 2703.5,-147 2703.5,-111 2821.5,-111 2821.5,-147"/>
<text text-anchor="middle" x="2762.5" y="-125.9" font-family="Times New Roman,serif" font-size="12.00">Evaluate financial risks</text>
</g>
<!-- 2058994512080&#45;&gt;2058994509488 -->
<g id="edge27" class="edge">
<title>2058994512080&#45;&gt;2058994509488</title>
<path fill="none" stroke="black" d="M2660.11,-129C2669.8,-129 2681.3,-129 2693.02,-129"/>
<polygon fill="black" stroke="black" points="2693.33,-132.5 2703.33,-129 2693.33,-125.5 2693.33,-132.5"/>
</g>
<!-- 2058994510208 -->
<g id="node25" class="node">
<title>2058994510208</title>
<polygon fill="none" stroke="black" points="2828.5,-93 2696.5,-93 2696.5,-57 2828.5,-57 2828.5,-93"/>
<text text-anchor="middle" x="2762.5" y="-71.9" font-family="Times New Roman,serif" font-size="12.00">Evaluate operational risks</text>
</g>
<!-- 2058994512080&#45;&gt;2058994510208 -->
<g id="edge25" class="edge">
<title>2058994512080&#45;&gt;2058994510208</title>
<path fill="none" stroke="black" d="M2649.76,-122.03C2662.27,-116.53 2680.22,-108.69 2696,-102 2699.89,-100.35 2703.91,-98.66 2707.96,-96.97"/>
<polygon fill="black" stroke="black" points="2709.52,-100.11 2717.41,-93.04 2706.83,-93.65 2709.52,-100.11"/>
</g>
<!-- 2058994505024&#45;&gt;2058994504592 -->
<g id="edge28" class="edge">
<title>2058994505024&#45;&gt;2058994504592</title>
<path fill="none" stroke="black" d="M2175.16,-112.7C2193.28,-107.41 2221.36,-99.2 2242.28,-93.1"/>
<polygon fill="black" stroke="black" points="2243.27,-96.45 2251.89,-90.29 2241.31,-89.73 2243.27,-96.45"/>
</g>
<!-- 2058994506416 -->
<g id="node27" class="node">
<title>2058994506416</title>
<polygon fill="none" stroke="black" points="2480,-124 2334,-124 2334,-88 2480,-88 2480,-124"/>
<text text-anchor="middle" x="2407" y="-102.9" font-family="Times New Roman,serif" font-size="12.00">Launch detailed investigation</text>
</g>
<!-- 2058994504592&#45;&gt;2058994506416 -->
<g id="edge30" class="edge">
<title>2058994504592&#45;&gt;2058994506416</title>
<path fill="none" stroke="black" d="M2293.23,-88.33C2301.91,-89.69 2312.55,-91.35 2323.79,-93.12"/>
<polygon fill="black" stroke="black" points="2323.36,-96.59 2333.78,-94.68 2324.45,-89.68 2323.36,-96.59"/>
</g>
<!-- 2058994508864 -->
<g id="node28" class="node">
<title>2058994508864</title>
<polygon fill="none" stroke="black" points="2892,-147 2865,-129 2892,-111 2919,-129 2892,-147"/>
<text text-anchor="middle" x="2892" y="-125.9" font-family="Times New Roman,serif" font-size="12.00">+</text>
</g>
<!-- 2058994506752&#45;&gt;2058994508864 -->
<g id="edge31" class="edge">
<title>2058994506752&#45;&gt;2058994508864</title>
<path fill="none" stroke="black" d="M2807.59,-164.96C2814.76,-161.99 2822.09,-158.93 2829,-156 2841.21,-150.83 2854.71,-144.96 2865.99,-140.03"/>
<polygon fill="black" stroke="black" points="2867.49,-143.19 2875.24,-135.97 2864.67,-136.78 2867.49,-143.19"/>
</g>
<!-- 2058994509488&#45;&gt;2058994508864 -->
<g id="edge32" class="edge">
<title>2058994509488&#45;&gt;2058994508864</title>
<path fill="none" stroke="black" d="M2821.65,-129C2832.86,-129 2844.31,-129 2854.58,-129"/>
<polygon fill="black" stroke="black" points="2854.81,-132.5 2864.81,-129 2854.81,-125.5 2854.81,-132.5"/>
</g>
<!-- 2058994510208&#45;&gt;2058994508864 -->
<g id="edge33" class="edge">
<title>2058994510208&#45;&gt;2058994508864</title>
<path fill="none" stroke="black" d="M2807.59,-93.04C2814.76,-96.01 2822.09,-99.07 2829,-102 2841.21,-107.17 2854.71,-113.04 2865.99,-117.97"/>
<polygon fill="black" stroke="black" points="2864.67,-121.22 2875.24,-122.03 2867.49,-114.81 2864.67,-121.22"/>
</g>
<!-- 2058994510544&#45;&gt;2058994505024 -->
<g id="edge29" class="edge">
<title>2058994510544&#45;&gt;2058994505024</title>
<path fill="none" stroke="black" d="M2058.15,-112.62C2078.54,-113.75 2101.96,-115.05 2120.67,-116.09"/>
<polygon fill="black" stroke="black" points="2120.62,-119.6 2130.8,-116.66 2121.01,-112.61 2120.62,-119.6"/>
</g>
<!-- 2058994506416&#45;&gt;2058994505360 -->
<g id="edge34" class="edge">
<title>2058994506416&#45;&gt;2058994505360</title>
<path fill="none" stroke="black" d="M2480.1,-118.38C2491.08,-120.26 2501.88,-122.11 2511.3,-123.73"/>
<polygon fill="black" stroke="black" points="2510.85,-127.2 2521.3,-125.45 2512.04,-120.31 2510.85,-127.2"/>
</g>
<!-- 2058994504640 -->
<g id="node29" class="node">
<title>2058994504640</title>
<polygon fill="none" stroke="black" points="2982,-147 2955,-129 2982,-111 3009,-129 2982,-147"/>
<text text-anchor="middle" x="2982" y="-125.9" font-family="Times New Roman,serif" font-size="12.00">X</text>
</g>
<!-- 2058994508864&#45;&gt;2058994504640 -->
<g id="edge35" class="edge">
<title>2058994508864&#45;&gt;2058994504640</title>
<path fill="none" stroke="black" d="M2919.4,-129C2927.39,-129 2936.31,-129 2944.82,-129"/>
<polygon fill="black" stroke="black" points="2944.92,-132.5 2954.92,-129 2944.92,-125.5 2944.92,-132.5"/>
</g>
<!-- 2058994505504 -->
<g id="node30" class="node">
<title>2058994505504</title>
<polygon fill="none" stroke="black" points="3443,-147 3416,-129 3443,-111 3470,-129 3443,-147"/>
<text text-anchor="middle" x="3443" y="-125.9" font-family="Times New Roman,serif" font-size="12.00">X</text>
</g>
<!-- 2058994504640&#45;&gt;2058994505504 -->
<g id="edge37" class="edge">
<title>2058994504640&#45;&gt;2058994505504</title>
<path fill="none" stroke="black" d="M3006.24,-130.86C3017.87,-131.69 3032.17,-132.59 3045,-133 3193.81,-137.8 3231.19,-137.8 3380,-133 3389.32,-132.7 3399.42,-132.15 3408.7,-131.54"/>
<polygon fill="black" stroke="black" points="3409.02,-135.03 3418.76,-130.86 3408.54,-128.05 3409.02,-135.03"/>
</g>
<!-- 2058994511264 -->
<g id="node31" class="node">
<title>2058994511264</title>
<polygon fill="none" stroke="black" points="3156,-124 3045,-124 3045,-88 3156,-88 3156,-124"/>
<text text-anchor="middle" x="3100.5" y="-102.9" font-family="Times New Roman,serif" font-size="12.00">Receive clarifications</text>
</g>
<!-- 2058994504640&#45;&gt;2058994511264 -->
<g id="edge36" class="edge">
<title>2058994504640&#45;&gt;2058994511264</title>
<path fill="none" stroke="black" d="M3003.29,-124.99C3012.27,-123.22 3023.37,-121.03 3034.81,-118.77"/>
<polygon fill="black" stroke="black" points="3035.77,-122.15 3044.91,-116.78 3034.42,-115.28 3035.77,-122.15"/>
</g>
<!-- 2058994512704 -->
<g id="node33" class="node">
<title>2058994512704</title>
<polygon fill="none" stroke="black" points="3608,-147 3506,-147 3506,-111 3608,-111 3608,-147"/>
<text text-anchor="middle" x="3557" y="-125.9" font-family="Times New Roman,serif" font-size="12.00">Review submission</text>
</g>
<!-- 2058994505504&#45;&gt;2058994512704 -->
<g id="edge38" class="edge">
<title>2058994505504&#45;&gt;2058994512704</title>
<path fill="none" stroke="black" d="M3470.26,-129C3477.96,-129 3486.73,-129 3495.64,-129"/>
<polygon fill="black" stroke="black" points="3495.71,-132.5 3505.71,-129 3495.71,-125.5 3495.71,-132.5"/>
</g>
<!-- 2058994509152 -->
<g id="node32" class="node">
<title>2058994509152</title>
<polygon fill="none" stroke="black" points="3380,-124 3192,-124 3192,-88 3380,-88 3380,-124"/>
<text text-anchor="middle" x="3286" y="-102.9" font-family="Times New Roman,serif" font-size="12.00">Request clarifications of discrepancies</text>
</g>
<!-- 2058994511264&#45;&gt;2058994509152 -->
<g id="edge39" class="edge">
<title>2058994511264&#45;&gt;2058994509152</title>
<path fill="none" stroke="black" d="M3156.06,-106C3164.27,-106 3172.96,-106 3181.8,-106"/>
<polygon fill="black" stroke="black" points="3181.82,-109.5 3191.82,-106 3181.82,-102.5 3181.82,-109.5"/>
</g>
<!-- 2058994509152&#45;&gt;2058994505504 -->
<g id="edge40" class="edge">
<title>2058994509152&#45;&gt;2058994505504</title>
<path fill="none" stroke="black" d="M3380.29,-119.84C3391.17,-121.46 3401.61,-123.01 3410.71,-124.36"/>
<polygon fill="black" stroke="black" points="3410.32,-127.84 3420.73,-125.84 3411.35,-120.91 3410.32,-127.84"/>
</g>
<!-- 2058994508768 -->
<g id="node34" class="node">
<title>2058994508768</title>
<polygon fill="none" stroke="black" points="3744,-147 3644,-147 3644,-111 3744,-111 3744,-147"/>
<text text-anchor="middle" x="3694" y="-125.9" font-family="Times New Roman,serif" font-size="12.00">Submit documents</text>
</g>
<!-- 2058994512704&#45;&gt;2058994508768 -->
<g id="edge41" class="edge">
<title>2058994512704&#45;&gt;2058994508768</title>
<path fill="none" stroke="black" d="M3608.27,-129C3616.48,-129 3625.05,-129 3633.45,-129"/>
<polygon fill="black" stroke="black" points="3633.59,-132.5 3643.59,-129 3633.59,-125.5 3633.59,-132.5"/>
</g>
<!-- 2058995040320 -->
<g id="node35" class="node">
<title>2058995040320</title>
<ellipse fill="orange" stroke="black" cx="3798" cy="-129" rx="18" ry="18"/>
</g>
<!-- 2058994508768&#45;&gt;2058995040320 -->
<g id="edge42" class="edge">
<title>2058994508768&#45;&gt;2058995040320</title>
<path fill="none" stroke="black" d="M3744.21,-129C3753.03,-129 3761.93,-129 3769.84,-129"/>
<polygon fill="black" stroke="black" points="3769.92,-132.5 3779.92,-129 3769.92,-125.5 3769.92,-132.5"/>
</g>
</g>
</svg>
