<?xml version="1.0" encoding="UTF-8" standalone="no"?>
<!DOCTYPE svg PUBLIC "-//W3C//DTD SVG 1.1//EN"
 "http://www.w3.org/Graphics/SVG/1.1/DTD/svg11.dtd">
<!-- Generated by graphviz version 6.0.1 (20220911.1526)
 -->
<!-- Pages: 1 -->
<svg width="3245pt" height="368pt"
 viewBox="0.00 0.00 3245.00 368.00" xmlns="http://www.w3.org/2000/svg" xmlns:xlink="http://www.w3.org/1999/xlink">
<g id="graph0" class="graph" transform="scale(1 1) rotate(0) translate(4 364)">
<polygon fill="white" stroke="none" points="-4,4 -4,-364 3241,-364 3241,4 -4,4"/>
<!-- 2059005112624 -->
<g id="node1" class="node">
<title>2059005112624</title>
<ellipse fill="green" stroke="black" cx="18" cy="-180" rx="18" ry="18"/>
</g>
<!-- 2059005100816 -->
<g id="node2" class="node">
<title>2059005100816</title>
<polygon fill="none" stroke="black" points="204,-198 72,-198 72,-162 204,-162 204,-198"/>
<text text-anchor="middle" x="138" y="-176.9" font-family="Times New Roman,serif" font-size="12.00">Evaluate operational risks</text>
</g>
<!-- 2059005112624&#45;&gt;2059005100816 -->
<g id="edge1" class="edge">
<title>2059005112624&#45;&gt;2059005100816</title>
<path fill="none" stroke="black" d="M36.16,-180C43.37,-180 52.3,-180 61.84,-180"/>
<polygon fill="black" stroke="black" points="61.95,-183.5 71.95,-180 61.95,-176.5 61.95,-183.5"/>
</g>
<!-- 2059005101488 -->
<g id="node3" class="node">
<title>2059005101488</title>
<polygon fill="none" stroke="black" points="364,-198 240,-198 240,-162 364,-162 364,-198"/>
<text text-anchor="middle" x="302" y="-176.9" font-family="Times New Roman,serif" font-size="12.00">Send report for revision</text>
</g>
<!-- 2059005100816&#45;&gt;2059005101488 -->
<g id="edge2" class="edge">
<title>2059005100816&#45;&gt;2059005101488</title>
<path fill="none" stroke="black" d="M204.42,-180C212.73,-180 221.26,-180 229.65,-180"/>
<polygon fill="black" stroke="black" points="229.79,-183.5 239.79,-180 229.79,-176.5 229.79,-183.5"/>
</g>
<!-- 2059005102160 -->
<g id="node4" class="node">
<title>2059005102160</title>
<polygon fill="none" stroke="black" points="492,-198 400,-198 400,-162 492,-162 492,-198"/>
<text text-anchor="middle" x="446" y="-176.9" font-family="Times New Roman,serif" font-size="12.00">Send notification</text>
</g>
<!-- 2059005101488&#45;&gt;2059005102160 -->
<g id="edge3" class="edge">
<title>2059005101488&#45;&gt;2059005102160</title>
<path fill="none" stroke="black" d="M364.04,-180C372.6,-180 381.34,-180 389.78,-180"/>
<polygon fill="black" stroke="black" points="389.88,-183.5 399.88,-180 389.88,-176.5 389.88,-183.5"/>
</g>
<!-- 2059005103168 -->
<g id="node5" class="node">
<title>2059005103168</title>
<polygon fill="none" stroke="black" points="616,-198 528,-198 528,-162 616,-162 616,-198"/>
<text text-anchor="middle" x="572" y="-176.9" font-family="Times New Roman,serif" font-size="12.00">Approve report</text>
</g>
<!-- 2059005102160&#45;&gt;2059005103168 -->
<g id="edge4" class="edge">
<title>2059005102160&#45;&gt;2059005103168</title>
<path fill="none" stroke="black" d="M492.12,-180C500.39,-180 509.09,-180 517.58,-180"/>
<polygon fill="black" stroke="black" points="517.78,-183.5 527.78,-180 517.78,-176.5 517.78,-183.5"/>
</g>
<!-- 2059005100480 -->
<g id="node6" class="node">
<title>2059005100480</title>
<polygon fill="none" stroke="black" points="768,-198 652,-198 652,-162 768,-162 768,-198"/>
<text text-anchor="middle" x="710" y="-176.9" font-family="Times New Roman,serif" font-size="12.00">Conduct data analysis</text>
</g>
<!-- 2059005103168&#45;&gt;2059005100480 -->
<g id="edge5" class="edge">
<title>2059005103168&#45;&gt;2059005100480</title>
<path fill="none" stroke="black" d="M616.03,-180C624.2,-180 632.92,-180 641.63,-180"/>
<polygon fill="black" stroke="black" points="641.82,-183.5 651.82,-180 641.82,-176.5 641.82,-183.5"/>
</g>
<!-- 2059005102496 -->
<g id="node7" class="node">
<title>2059005102496</title>
<polygon fill="none" stroke="black" points="937,-198 804,-198 804,-162 937,-162 937,-198"/>
<text text-anchor="middle" x="870.5" y="-176.9" font-family="Times New Roman,serif" font-size="12.00">Evaluate compliance risks</text>
</g>
<!-- 2059005100480&#45;&gt;2059005102496 -->
<g id="edge6" class="edge">
<title>2059005100480&#45;&gt;2059005102496</title>
<path fill="none" stroke="black" d="M768.22,-180C776.51,-180 785.14,-180 793.72,-180"/>
<polygon fill="black" stroke="black" points="793.74,-183.5 803.74,-180 793.74,-176.5 793.74,-183.5"/>
</g>
<!-- 2059005104176 -->
<g id="node8" class="node">
<title>2059005104176</title>
<polygon fill="none" stroke="black" points="1119,-198 973,-198 973,-162 1119,-162 1119,-198"/>
<text text-anchor="middle" x="1046" y="-176.9" font-family="Times New Roman,serif" font-size="12.00">Launch detailed investigation</text>
</g>
<!-- 2059005102496&#45;&gt;2059005104176 -->
<g id="edge7" class="edge">
<title>2059005102496&#45;&gt;2059005104176</title>
<path fill="none" stroke="black" d="M937.09,-180C945.51,-180 954.2,-180 962.84,-180"/>
<polygon fill="black" stroke="black" points="962.93,-183.5 972.93,-180 962.93,-176.5 962.93,-183.5"/>
</g>
<!-- 2059005103504 -->
<g id="node9" class="node">
<title>2059005103504</title>
<polygon fill="none" stroke="black" points="1265,-198 1155,-198 1155,-162 1265,-162 1265,-198"/>
<text text-anchor="middle" x="1210" y="-176.9" font-family="Times New Roman,serif" font-size="12.00">Compile audit report</text>
</g>
<!-- 2059005104176&#45;&gt;2059005103504 -->
<g id="edge8" class="edge">
<title>2059005104176&#45;&gt;2059005103504</title>
<path fill="none" stroke="black" d="M1119.47,-180C1127.76,-180 1136.18,-180 1144.36,-180"/>
<polygon fill="black" stroke="black" points="1144.57,-183.5 1154.57,-180 1144.57,-176.5 1144.57,-183.5"/>
</g>
<!-- 2059005103216 -->
<g id="node10" class="node">
<title>2059005103216</title>
<polygon fill="none" stroke="black" points="1328,-198 1301,-180 1328,-162 1355,-180 1328,-198"/>
<text text-anchor="middle" x="1328" y="-176.9" font-family="Times New Roman,serif" font-size="12.00">+</text>
</g>
<!-- 2059005103504&#45;&gt;2059005103216 -->
<g id="edge9" class="edge">
<title>2059005103504&#45;&gt;2059005103216</title>
<path fill="none" stroke="black" d="M1265.26,-180C1273.87,-180 1282.59,-180 1290.66,-180"/>
<polygon fill="black" stroke="black" points="1290.83,-183.5 1300.83,-180 1290.83,-176.5 1290.83,-183.5"/>
</g>
<!-- 2059006622112 -->
<g id="node11" class="node">
<title>2059006622112</title>
<polygon fill="none" stroke="black" points="1525.5,-360 1414.5,-360 1414.5,-324 1525.5,-324 1525.5,-360"/>
<text text-anchor="middle" x="1470" y="-338.9" font-family="Times New Roman,serif" font-size="12.00">Receive clarifications</text>
</g>
<!-- 2059005103216&#45;&gt;2059006622112 -->
<g id="edge15" class="edge">
<title>2059005103216&#45;&gt;2059006622112</title>
<path fill="none" stroke="black" d="M1332,-195.73C1338.13,-223.66 1354.71,-282.08 1391,-315 1395.18,-318.79 1399.92,-322.05 1404.95,-324.86"/>
<polygon fill="black" stroke="black" points="1403.73,-328.17 1414.25,-329.44 1406.82,-321.89 1403.73,-328.17"/>
</g>
<!-- 2059006622448 -->
<g id="node12" class="node">
<title>2059006622448</title>
<polygon fill="none" stroke="black" points="1543,-306 1397,-306 1397,-270 1543,-270 1543,-306"/>
<text text-anchor="middle" x="1470" y="-284.9" font-family="Times New Roman,serif" font-size="12.00">Gather necessary documents</text>
</g>
<!-- 2059005103216&#45;&gt;2059006622448 -->
<g id="edge14" class="edge">
<title>2059005103216&#45;&gt;2059006622448</title>
<path fill="none" stroke="black" d="M1335.81,-193.14C1345.68,-210.95 1365.59,-242.65 1391,-261 1392.89,-262.36 1394.85,-263.66 1396.87,-264.9"/>
<polygon fill="black" stroke="black" points="1395.59,-268.19 1406.04,-269.94 1398.96,-262.06 1395.59,-268.19"/>
</g>
<!-- 2059005100144 -->
<g id="node13" class="node">
<title>2059005100144</title>
<polygon fill="none" stroke="black" points="1536.5,-252 1403.5,-252 1403.5,-216 1536.5,-216 1536.5,-252"/>
<text text-anchor="middle" x="1470" y="-230.9" font-family="Times New Roman,serif" font-size="12.00">Check regulatory updates</text>
</g>
<!-- 2059005103216&#45;&gt;2059005100144 -->
<g id="edge12" class="edge">
<title>2059005103216&#45;&gt;2059005100144</title>
<path fill="none" stroke="black" d="M1344.4,-187.1C1356.87,-192.76 1374.92,-200.73 1391,-207 1395.72,-208.84 1400.62,-210.69 1405.57,-212.5"/>
<polygon fill="black" stroke="black" points="1404.5,-215.84 1415.09,-215.95 1406.88,-209.26 1404.5,-215.84"/>
</g>
<!-- 2059005101152 -->
<g id="node14" class="node">
<title>2059005101152</title>
<polygon fill="none" stroke="black" points="1549,-198 1391,-198 1391,-162 1549,-162 1549,-198"/>
<text text-anchor="middle" x="1470" y="-176.9" font-family="Times New Roman,serif" font-size="12.00">Review report by audit director</text>
</g>
<!-- 2059005103216&#45;&gt;2059005101152 -->
<g id="edge13" class="edge">
<title>2059005103216&#45;&gt;2059005101152</title>
<path fill="none" stroke="black" d="M1355,-180C1362.61,-180 1371.39,-180 1380.62,-180"/>
<polygon fill="black" stroke="black" points="1380.78,-183.5 1390.78,-180 1380.78,-176.5 1380.78,-183.5"/>
</g>
<!-- 2059005102832 -->
<g id="node15" class="node">
<title>2059005102832</title>
<polygon fill="none" stroke="black" points="1522,-144 1418,-144 1418,-108 1522,-108 1522,-144"/>
<text text-anchor="middle" x="1470" y="-122.9" font-family="Times New Roman,serif" font-size="12.00">Conduct interviews</text>
</g>
<!-- 2059005103216&#45;&gt;2059005102832 -->
<g id="edge16" class="edge">
<title>2059005103216&#45;&gt;2059005102832</title>
<path fill="none" stroke="black" d="M1344.4,-172.9C1356.87,-167.24 1374.92,-159.27 1391,-153 1396.47,-150.86 1402.19,-148.72 1407.94,-146.63"/>
<polygon fill="black" stroke="black" points="1409.38,-149.83 1417.61,-143.16 1407.01,-143.24 1409.38,-149.83"/>
</g>
<!-- 2059005103840 -->
<g id="node16" class="node">
<title>2059005103840</title>
<polygon fill="none" stroke="black" points="1521,-90 1419,-90 1419,-54 1521,-54 1521,-90"/>
<text text-anchor="middle" x="1470" y="-68.9" font-family="Times New Roman,serif" font-size="12.00">Review submission</text>
</g>
<!-- 2059005103216&#45;&gt;2059005103840 -->
<g id="edge10" class="edge">
<title>2059005103216&#45;&gt;2059005103840</title>
<path fill="none" stroke="black" d="M1335.81,-166.86C1345.68,-149.05 1365.59,-117.35 1391,-99 1396.54,-95 1402.73,-91.55 1409.12,-88.59"/>
<polygon fill="black" stroke="black" points="1410.74,-91.7 1418.59,-84.59 1408.02,-85.26 1410.74,-91.7"/>
</g>
<!-- 2059005104848 -->
<g id="node17" class="node">
<title>2059005104848</title>
<polygon fill="none" stroke="black" points="1541,-36 1399,-36 1399,0 1541,0 1541,-36"/>
<text text-anchor="middle" x="1470" y="-14.9" font-family="Times New Roman,serif" font-size="12.00">Prepare financial statements</text>
</g>
<!-- 2059005103216&#45;&gt;2059005104848 -->
<g id="edge11" class="edge">
<title>2059005103216&#45;&gt;2059005104848</title>
<path fill="none" stroke="black" d="M1332,-164.27C1338.13,-136.34 1354.71,-77.92 1391,-45 1392.28,-43.84 1393.61,-42.73 1394.98,-41.67"/>
<polygon fill="black" stroke="black" points="1396.93,-44.57 1403.28,-36.09 1393.03,-38.76 1396.93,-44.57"/>
</g>
<!-- 2059006622544 -->
<g id="node18" class="node">
<title>2059006622544</title>
<polygon fill="none" stroke="black" points="1612,-198 1585,-180 1612,-162 1639,-180 1612,-198"/>
<text text-anchor="middle" x="1612" y="-176.9" font-family="Times New Roman,serif" font-size="12.00">+</text>
</g>
<!-- 2059006622112&#45;&gt;2059006622544 -->
<g id="edge17" class="edge">
<title>2059006622112&#45;&gt;2059006622544</title>
<path fill="none" stroke="black" d="M1525.75,-329.44C1534.19,-325.78 1542.31,-321.07 1549,-315 1581.47,-285.55 1598.15,-235.7 1605.7,-205.52"/>
<polygon fill="black" stroke="black" points="1609.12,-206.26 1608,-195.73 1602.3,-204.66 1609.12,-206.26"/>
</g>
<!-- 2059006622448&#45;&gt;2059006622544 -->
<g id="edge18" class="edge">
<title>2059006622448&#45;&gt;2059006622544</title>
<path fill="none" stroke="black" d="M1533.96,-269.94C1539.25,-267.32 1544.35,-264.36 1549,-261 1570.64,-245.37 1588.29,-220.07 1599.15,-201.9"/>
<polygon fill="black" stroke="black" points="1602.24,-203.55 1604.19,-193.14 1596.17,-200.06 1602.24,-203.55"/>
</g>
<!-- 2059005100144&#45;&gt;2059006622544 -->
<g id="edge19" class="edge">
<title>2059005100144&#45;&gt;2059006622544</title>
<path fill="none" stroke="black" d="M1524.91,-215.95C1533.02,-213.06 1541.26,-210.02 1549,-207 1561.44,-202.15 1575.05,-196.28 1586.35,-191.26"/>
<polygon fill="black" stroke="black" points="1587.91,-194.39 1595.6,-187.1 1585.04,-188.01 1587.91,-194.39"/>
</g>
<!-- 2059005101152&#45;&gt;2059006622544 -->
<g id="edge20" class="edge">
<title>2059005101152&#45;&gt;2059006622544</title>
<path fill="none" stroke="black" d="M1549.19,-180C1558.16,-180 1566.95,-180 1574.95,-180"/>
<polygon fill="black" stroke="black" points="1574.98,-183.5 1584.98,-180 1574.98,-176.5 1574.98,-183.5"/>
</g>
<!-- 2059005102832&#45;&gt;2059006622544 -->
<g id="edge21" class="edge">
<title>2059005102832&#45;&gt;2059006622544</title>
<path fill="none" stroke="black" d="M1522.39,-143.16C1531.31,-146.31 1540.46,-149.67 1549,-153 1561.44,-157.85 1575.05,-163.72 1586.35,-168.74"/>
<polygon fill="black" stroke="black" points="1585.04,-171.99 1595.6,-172.9 1587.91,-165.61 1585.04,-171.99"/>
</g>
<!-- 2059005103840&#45;&gt;2059006622544 -->
<g id="edge22" class="edge">
<title>2059005103840&#45;&gt;2059006622544</title>
<path fill="none" stroke="black" d="M1521.41,-84.59C1531.08,-88.31 1540.75,-93.04 1549,-99 1570.64,-114.63 1588.29,-139.93 1599.15,-158.1"/>
<polygon fill="black" stroke="black" points="1596.17,-159.94 1604.19,-166.86 1602.24,-156.45 1596.17,-159.94"/>
</g>
<!-- 2059005104848&#45;&gt;2059006622544 -->
<g id="edge23" class="edge">
<title>2059005104848&#45;&gt;2059006622544</title>
<path fill="none" stroke="black" d="M1536.72,-36.09C1541.13,-38.68 1545.29,-41.63 1549,-45 1581.47,-74.45 1598.15,-124.3 1605.7,-154.48"/>
<polygon fill="black" stroke="black" points="1602.3,-155.34 1608,-164.27 1609.12,-153.74 1602.3,-155.34"/>
</g>
<!-- 2059006622784 -->
<g id="node19" class="node">
<title>2059006622784</title>
<polygon fill="none" stroke="black" points="1771,-198 1675,-198 1675,-162 1771,-162 1771,-198"/>
<text text-anchor="middle" x="1723" y="-176.9" font-family="Times New Roman,serif" font-size="12.00">Perform site visits</text>
</g>
<!-- 2059006622544&#45;&gt;2059006622784 -->
<g id="edge24" class="edge">
<title>2059006622544&#45;&gt;2059006622784</title>
<path fill="none" stroke="black" d="M1639.11,-180C1646.89,-180 1655.74,-180 1664.69,-180"/>
<polygon fill="black" stroke="black" points="1664.79,-183.5 1674.79,-180 1664.79,-176.5 1664.79,-183.5"/>
</g>
<!-- 2059005105184 -->
<g id="node20" class="node">
<title>2059005105184</title>
<polygon fill="none" stroke="black" points="1907,-198 1807,-198 1807,-162 1907,-162 1907,-198"/>
<text text-anchor="middle" x="1857" y="-176.9" font-family="Times New Roman,serif" font-size="12.00">Submit documents</text>
</g>
<!-- 2059006622784&#45;&gt;2059005105184 -->
<g id="edge25" class="edge">
<title>2059006622784&#45;&gt;2059005105184</title>
<path fill="none" stroke="black" d="M1771.28,-180C1779.49,-180 1788.11,-180 1796.59,-180"/>
<polygon fill="black" stroke="black" points="1796.82,-183.5 1806.82,-180 1796.82,-176.5 1796.82,-183.5"/>
</g>
<!-- 2059005105520 -->
<g id="node21" class="node">
<title>2059005105520</title>
<polygon fill="none" stroke="black" points="2049,-198 1943,-198 1943,-162 2049,-162 2049,-198"/>
<text text-anchor="middle" x="1996" y="-176.9" font-family="Times New Roman,serif" font-size="12.00">Close audit process</text>
</g>
<!-- 2059005105184&#45;&gt;2059005105520 -->
<g id="edge26" class="edge">
<title>2059005105184&#45;&gt;2059005105520</title>
<path fill="none" stroke="black" d="M1907.07,-180C1915.26,-180 1923.85,-180 1932.32,-180"/>
<polygon fill="black" stroke="black" points="1932.56,-183.5 1942.56,-180 1932.56,-176.5 1932.56,-183.5"/>
</g>
<!-- 2059006623120 -->
<g id="node22" class="node">
<title>2059006623120</title>
<polygon fill="none" stroke="black" points="2197,-198 2085,-198 2085,-162 2197,-162 2197,-198"/>
<text text-anchor="middle" x="2141" y="-176.9" font-family="Times New Roman,serif" font-size="12.00">Distribute final report</text>
</g>
<!-- 2059005105520&#45;&gt;2059006623120 -->
<g id="edge27" class="edge">
<title>2059005105520&#45;&gt;2059006623120</title>
<path fill="none" stroke="black" d="M2049.03,-180C2057.41,-180 2066.18,-180 2074.82,-180"/>
<polygon fill="black" stroke="black" points="2074.88,-183.5 2084.88,-180 2074.88,-176.5 2074.88,-183.5"/>
</g>
<!-- 2059006623456 -->
<g id="node23" class="node">
<title>2059006623456</title>
<polygon fill="none" stroke="black" points="2412,-198 2233,-198 2233,-162 2412,-162 2412,-198"/>
<text text-anchor="middle" x="2322.5" y="-176.9" font-family="Times New Roman,serif" font-size="12.00">Complete risk assessment/mitigation</text>
</g>
<!-- 2059006623120&#45;&gt;2059006623456 -->
<g id="edge28" class="edge">
<title>2059006623120&#45;&gt;2059006623456</title>
<path fill="none" stroke="black" d="M2197.32,-180C2205.39,-180 2213.9,-180 2222.52,-180"/>
<polygon fill="black" stroke="black" points="2222.68,-183.5 2232.68,-180 2222.68,-176.5 2222.68,-183.5"/>
</g>
<!-- 2059005101824 -->
<g id="node24" class="node">
<title>2059005101824</title>
<polygon fill="none" stroke="black" points="2554,-198 2448,-198 2448,-162 2554,-162 2554,-198"/>
<text text-anchor="middle" x="2501" y="-176.9" font-family="Times New Roman,serif" font-size="12.00">Close audit process</text>
</g>
<!-- 2059006623456&#45;&gt;2059005101824 -->
<g id="edge29" class="edge">
<title>2059006623456&#45;&gt;2059005101824</title>
<path fill="none" stroke="black" d="M2412.01,-180C2420.6,-180 2429.18,-180 2437.44,-180"/>
<polygon fill="black" stroke="black" points="2437.69,-183.5 2447.69,-180 2437.69,-176.5 2437.69,-183.5"/>
</g>
<!-- 2059005105856 -->
<g id="node25" class="node">
<title>2059005105856</title>
<polygon fill="none" stroke="black" points="2714,-198 2590,-198 2590,-162 2714,-162 2714,-198"/>
<text text-anchor="middle" x="2652" y="-176.9" font-family="Times New Roman,serif" font-size="12.00">Send report for revision</text>
</g>
<!-- 2059005101824&#45;&gt;2059005105856 -->
<g id="edge30" class="edge">
<title>2059005101824&#45;&gt;2059005105856</title>
<path fill="none" stroke="black" d="M2554.11,-180C2562.44,-180 2571.17,-180 2579.85,-180"/>
<polygon fill="black" stroke="black" points="2579.97,-183.5 2589.97,-180 2579.97,-176.5 2579.97,-183.5"/>
</g>
<!-- 2059005106192 -->
<g id="node26" class="node">
<title>2059005106192</title>
<polygon fill="none" stroke="black" points="2892,-198 2750,-198 2750,-162 2892,-162 2892,-198"/>
<text text-anchor="middle" x="2821" y="-176.9" font-family="Times New Roman,serif" font-size="12.00">Update and resubmit report</text>
</g>
<!-- 2059005105856&#45;&gt;2059005106192 -->
<g id="edge31" class="edge">
<title>2059005105856&#45;&gt;2059005106192</title>
<path fill="none" stroke="black" d="M2714.24,-180C2722.53,-180 2731.15,-180 2739.71,-180"/>
<polygon fill="black" stroke="black" points="2739.73,-183.5 2749.73,-180 2739.73,-176.5 2739.73,-183.5"/>
</g>
<!-- 2059005104512 -->
<g id="node27" class="node">
<title>2059005104512</title>
<polygon fill="none" stroke="black" points="3011,-198 2928,-198 2928,-162 3011,-162 3011,-198"/>
<text text-anchor="middle" x="2969.5" y="-176.9" font-family="Times New Roman,serif" font-size="12.00">Archive report</text>
</g>
<!-- 2059005106192&#45;&gt;2059005104512 -->
<g id="edge32" class="edge">
<title>2059005106192&#45;&gt;2059005104512</title>
<path fill="none" stroke="black" d="M2892.25,-180C2900.82,-180 2909.44,-180 2917.65,-180"/>
<polygon fill="black" stroke="black" points="2917.8,-183.5 2927.8,-180 2917.8,-176.5 2917.8,-183.5"/>
</g>
<!-- 2059005106528 -->
<g id="node28" class="node">
<title>2059005106528</title>
<polygon fill="none" stroke="black" points="3165,-198 3047,-198 3047,-162 3165,-162 3165,-198"/>
<text text-anchor="middle" x="3106" y="-176.9" font-family="Times New Roman,serif" font-size="12.00">Evaluate financial risks</text>
</g>
<!-- 2059005104512&#45;&gt;2059005106528 -->
<g id="edge33" class="edge">
<title>2059005104512&#45;&gt;2059005106528</title>
<path fill="none" stroke="black" d="M3011.22,-180C3019.22,-180 3027.82,-180 3036.45,-180"/>
<polygon fill="black" stroke="black" points="3036.56,-183.5 3046.56,-180 3036.56,-176.5 3036.56,-183.5"/>
</g>
<!-- 2059005106576 -->
<g id="node29" class="node">
<title>2059005106576</title>
<ellipse fill="orange" stroke="black" cx="3219" cy="-180" rx="18" ry="18"/>
</g>
<!-- 2059005106528&#45;&gt;2059005106576 -->
<g id="edge34" class="edge">
<title>2059005106528&#45;&gt;2059005106576</title>
<path fill="none" stroke="black" d="M3165.1,-180C3173.94,-180 3182.7,-180 3190.46,-180"/>
<polygon fill="black" stroke="black" points="3190.69,-183.5 3200.69,-180 3190.69,-176.5 3190.69,-183.5"/>
</g>
</g>
</svg>
