<?xml version="1.0" encoding="UTF-8" standalone="no"?>
<!DOCTYPE svg PUBLIC "-//W3C//DTD SVG 1.1//EN"
 "http://www.w3.org/Graphics/SVG/1.1/DTD/svg11.dtd">
<!-- Generated by graphviz version 6.0.1 (20220911.1526)
 -->
<!-- Pages: 1 -->
<svg width="4097pt" height="175pt"
 viewBox="0.00 0.00 4097.00 175.00" xmlns="http://www.w3.org/2000/svg" xmlns:xlink="http://www.w3.org/1999/xlink">
<g id="graph0" class="graph" transform="scale(1 1) rotate(0) translate(4 171)">
<polygon fill="white" stroke="none" points="-4,4 -4,-171 4093,-171 4093,4 -4,4"/>
<!-- 2059009136800 -->
<g id="node1" class="node">
<title>2059009136800</title>
<ellipse fill="green" stroke="black" cx="18" cy="-95" rx="18" ry="18"/>
</g>
<!-- 2059009110992 -->
<g id="node2" class="node">
<title>2059009110992</title>
<polygon fill="none" stroke="black" points="204,-113 72,-113 72,-77 204,-77 204,-113"/>
<text text-anchor="middle" x="138" y="-91.9" font-family="Times New Roman,serif" font-size="12.00">Evaluate operational risks</text>
</g>
<!-- 2059009136800&#45;&gt;2059009110992 -->
<g id="edge1" class="edge">
<title>2059009136800&#45;&gt;2059009110992</title>
<path fill="none" stroke="black" d="M36.16,-95C43.37,-95 52.3,-95 61.84,-95"/>
<polygon fill="black" stroke="black" points="61.95,-98.5 71.95,-95 61.95,-91.5 61.95,-98.5"/>
</g>
<!-- 2059009108304 -->
<g id="node3" class="node">
<title>2059009108304</title>
<polygon fill="none" stroke="black" points="267,-113 240,-95 267,-77 294,-95 267,-113"/>
<text text-anchor="middle" x="267" y="-91.9" font-family="Times New Roman,serif" font-size="12.00">X</text>
</g>
<!-- 2059009110992&#45;&gt;2059009108304 -->
<g id="edge2" class="edge">
<title>2059009110992&#45;&gt;2059009108304</title>
<path fill="none" stroke="black" d="M204.36,-95C213.15,-95 221.89,-95 229.91,-95"/>
<polygon fill="black" stroke="black" points="229.98,-98.5 239.98,-95 229.98,-91.5 229.98,-98.5"/>
</g>
<!-- 2059001297312 -->
<g id="node4" class="node">
<title>2059001297312</title>
<polygon fill="none" stroke="black" points="418,-138 330,-138 330,-102 418,-102 418,-138"/>
<text text-anchor="middle" x="374" y="-116.9" font-family="Times New Roman,serif" font-size="12.00">Approve report</text>
</g>
<!-- 2059009108304&#45;&gt;2059001297312 -->
<g id="edge3" class="edge">
<title>2059009108304&#45;&gt;2059001297312</title>
<path fill="none" stroke="black" d="M287.26,-99.59C296.6,-101.81 308.33,-104.6 320.09,-107.4"/>
<polygon fill="black" stroke="black" points="319.38,-110.83 329.92,-109.74 321,-104.02 319.38,-110.83"/>
</g>
<!-- 2059009107584 -->
<g id="node5" class="node">
<title>2059009107584</title>
<polygon fill="none" stroke="black" points="578,-86 454,-86 454,-50 578,-50 578,-86"/>
<text text-anchor="middle" x="516" y="-64.9" font-family="Times New Roman,serif" font-size="12.00">Send report for revision</text>
</g>
<!-- 2059009108304&#45;&gt;2059009107584 -->
<g id="edge4" class="edge">
<title>2059009108304&#45;&gt;2059009107584</title>
<path fill="none" stroke="black" d="M290.36,-92.56C324.65,-88.81 391.71,-81.48 443.67,-75.8"/>
<polygon fill="black" stroke="black" points="444.29,-79.25 453.85,-74.68 443.53,-72.29 444.29,-79.25"/>
</g>
<!-- 2059001296208 -->
<g id="node7" class="node">
<title>2059001296208</title>
<polygon fill="none" stroke="black" points="562,-140 470,-140 470,-104 562,-104 562,-140"/>
<text text-anchor="middle" x="516" y="-118.9" font-family="Times New Roman,serif" font-size="12.00">Send notification</text>
</g>
<!-- 2059001297312&#45;&gt;2059001296208 -->
<g id="edge5" class="edge">
<title>2059001297312&#45;&gt;2059001296208</title>
<path fill="none" stroke="black" d="M418.15,-120.62C431.21,-120.8 445.74,-121.01 459.49,-121.21"/>
<polygon fill="black" stroke="black" points="459.77,-124.71 469.81,-121.35 459.87,-117.71 459.77,-124.71"/>
</g>
<!-- 2059009108496 -->
<g id="node6" class="node">
<title>2059009108496</title>
<polygon fill="none" stroke="black" points="641,-113 614,-95 641,-77 668,-95 641,-113"/>
<text text-anchor="middle" x="641" y="-91.9" font-family="Times New Roman,serif" font-size="12.00">X</text>
</g>
<!-- 2059009107584&#45;&gt;2059009108496 -->
<g id="edge6" class="edge">
<title>2059009107584&#45;&gt;2059009108496</title>
<path fill="none" stroke="black" d="M578.14,-81.42C589.39,-83.89 600.65,-86.36 610.42,-88.51"/>
<polygon fill="black" stroke="black" points="609.86,-91.97 620.37,-90.69 611.36,-85.13 609.86,-91.97"/>
</g>
<!-- 2059009111712 -->
<g id="node8" class="node">
<title>2059009111712</title>
<polygon fill="none" stroke="black" points="820,-113 704,-113 704,-77 820,-77 820,-113"/>
<text text-anchor="middle" x="762" y="-91.9" font-family="Times New Roman,serif" font-size="12.00">Conduct data analysis</text>
</g>
<!-- 2059009108496&#45;&gt;2059009111712 -->
<g id="edge8" class="edge">
<title>2059009108496&#45;&gt;2059009111712</title>
<path fill="none" stroke="black" d="M668.12,-95C675.77,-95 684.52,-95 693.51,-95"/>
<polygon fill="black" stroke="black" points="693.72,-98.5 703.72,-95 693.72,-91.5 693.72,-98.5"/>
</g>
<!-- 2059001296208&#45;&gt;2059009108496 -->
<g id="edge7" class="edge">
<title>2059001296208&#45;&gt;2059009108496</title>
<path fill="none" stroke="black" d="M562.1,-112.1C578.21,-108.56 595.94,-104.67 610.41,-101.5"/>
<polygon fill="black" stroke="black" points="611.28,-104.89 620.3,-99.32 609.78,-98.05 611.28,-104.89"/>
</g>
<!-- 2059009112432 -->
<g id="node9" class="node">
<title>2059009112432</title>
<polygon fill="none" stroke="black" points="989,-113 856,-113 856,-77 989,-77 989,-113"/>
<text text-anchor="middle" x="922.5" y="-91.9" font-family="Times New Roman,serif" font-size="12.00">Evaluate compliance risks</text>
</g>
<!-- 2059009111712&#45;&gt;2059009112432 -->
<g id="edge9" class="edge">
<title>2059009111712&#45;&gt;2059009112432</title>
<path fill="none" stroke="black" d="M820.22,-95C828.51,-95 837.14,-95 845.72,-95"/>
<polygon fill="black" stroke="black" points="845.74,-98.5 855.74,-95 845.74,-91.5 845.74,-98.5"/>
</g>
<!-- 2059001297696 -->
<g id="node10" class="node">
<title>2059001297696</title>
<polygon fill="none" stroke="black" points="1052,-113 1025,-95 1052,-77 1079,-95 1052,-113"/>
<text text-anchor="middle" x="1052" y="-91.9" font-family="Times New Roman,serif" font-size="12.00">X</text>
</g>
<!-- 2059009112432&#45;&gt;2059001297696 -->
<g id="edge10" class="edge">
<title>2059009112432&#45;&gt;2059001297696</title>
<path fill="none" stroke="black" d="M989.12,-95C997.94,-95 1006.72,-95 1014.77,-95"/>
<polygon fill="black" stroke="black" points="1014.88,-98.5 1024.88,-95 1014.88,-91.5 1014.88,-98.5"/>
</g>
<!-- 2059009107536 -->
<g id="node11" class="node">
<title>2059009107536</title>
<polygon fill="none" stroke="black" points="1470,-113 1443,-95 1470,-77 1497,-95 1470,-113"/>
<text text-anchor="middle" x="1470" y="-91.9" font-family="Times New Roman,serif" font-size="12.00">X</text>
</g>
<!-- 2059001297696&#45;&gt;2059009107536 -->
<g id="edge12" class="edge">
<title>2059001297696&#45;&gt;2059009107536</title>
<path fill="none" stroke="black" d="M1076.24,-96.86C1087.87,-97.69 1102.17,-98.59 1115,-99 1244.71,-103.18 1277.29,-103.18 1407,-99 1416.32,-98.7 1426.42,-98.15 1435.7,-97.54"/>
<polygon fill="black" stroke="black" points="1436.02,-101.03 1445.76,-96.86 1435.54,-94.05 1436.02,-101.03"/>
</g>
<!-- 2059009113488 -->
<g id="node12" class="node">
<title>2059009113488</title>
<polygon fill="none" stroke="black" points="1261,-90 1115,-90 1115,-54 1261,-54 1261,-90"/>
<text text-anchor="middle" x="1188" y="-68.9" font-family="Times New Roman,serif" font-size="12.00">Launch detailed investigation</text>
</g>
<!-- 2059001297696&#45;&gt;2059009113488 -->
<g id="edge11" class="edge">
<title>2059001297696&#45;&gt;2059009113488</title>
<path fill="none" stroke="black" d="M1073.94,-91.41C1082.65,-89.91 1093.37,-88.07 1104.71,-86.12"/>
<polygon fill="black" stroke="black" points="1105.54,-89.53 1114.8,-84.39 1104.35,-82.63 1105.54,-89.53"/>
</g>
<!-- 2059001297792 -->
<g id="node13" class="node">
<title>2059001297792</title>
<polygon fill="none" stroke="black" points="1560,-113 1533,-95 1560,-77 1587,-95 1560,-113"/>
<text text-anchor="middle" x="1560" y="-91.9" font-family="Times New Roman,serif" font-size="12.00">+</text>
</g>
<!-- 2059009107536&#45;&gt;2059001297792 -->
<g id="edge13" class="edge">
<title>2059009107536&#45;&gt;2059001297792</title>
<path fill="none" stroke="black" d="M1497.4,-95C1505.39,-95 1514.31,-95 1522.82,-95"/>
<polygon fill="black" stroke="black" points="1522.92,-98.5 1532.92,-95 1522.92,-91.5 1522.92,-98.5"/>
</g>
<!-- 2059001294816 -->
<g id="node14" class="node">
<title>2059001294816</title>
<polygon fill="none" stroke="black" points="1407,-90 1297,-90 1297,-54 1407,-54 1407,-90"/>
<text text-anchor="middle" x="1352" y="-68.9" font-family="Times New Roman,serif" font-size="12.00">Compile audit report</text>
</g>
<!-- 2059009113488&#45;&gt;2059001294816 -->
<g id="edge14" class="edge">
<title>2059009113488&#45;&gt;2059001294816</title>
<path fill="none" stroke="black" d="M1261.47,-72C1269.76,-72 1278.18,-72 1286.36,-72"/>
<polygon fill="black" stroke="black" points="1286.57,-75.5 1296.57,-72 1286.57,-68.5 1286.57,-75.5"/>
</g>
<!-- 2059001298320 -->
<g id="node15" class="node">
<title>2059001298320</title>
<polygon fill="none" stroke="black" points="1749.5,-167 1638.5,-167 1638.5,-131 1749.5,-131 1749.5,-167"/>
<text text-anchor="middle" x="1694" y="-145.9" font-family="Times New Roman,serif" font-size="12.00">Receive clarifications</text>
</g>
<!-- 2059001297792&#45;&gt;2059001298320 -->
<g id="edge17" class="edge">
<title>2059001297792&#45;&gt;2059001298320</title>
<path fill="none" stroke="black" d="M1576.72,-102.07C1589.21,-107.63 1607.14,-115.49 1623,-122 1627.18,-123.72 1631.51,-125.46 1635.88,-127.2"/>
<polygon fill="black" stroke="black" points="1634.86,-130.56 1645.45,-130.97 1637.43,-124.05 1634.86,-130.56"/>
</g>
<!-- 2059009108880 -->
<g id="node16" class="node">
<title>2059009108880</title>
<polygon fill="none" stroke="black" points="1765,-113 1623,-113 1623,-77 1765,-77 1765,-113"/>
<text text-anchor="middle" x="1694" y="-91.9" font-family="Times New Roman,serif" font-size="12.00">Prepare financial statements</text>
</g>
<!-- 2059001297792&#45;&gt;2059009108880 -->
<g id="edge16" class="edge">
<title>2059001297792&#45;&gt;2059009108880</title>
<path fill="none" stroke="black" d="M1587.08,-95C1594.75,-95 1603.57,-95 1612.78,-95"/>
<polygon fill="black" stroke="black" points="1612.89,-98.5 1622.89,-95 1612.89,-91.5 1612.89,-98.5"/>
</g>
<!-- 2059009112048 -->
<g id="node17" class="node">
<title>2059009112048</title>
<polygon fill="none" stroke="black" points="1745,-59 1643,-59 1643,-23 1745,-23 1745,-59"/>
<text text-anchor="middle" x="1694" y="-37.9" font-family="Times New Roman,serif" font-size="12.00">Review submission</text>
</g>
<!-- 2059001297792&#45;&gt;2059009112048 -->
<g id="edge18" class="edge">
<title>2059001297792&#45;&gt;2059009112048</title>
<path fill="none" stroke="black" d="M1576.72,-87.93C1589.21,-82.37 1607.14,-74.51 1623,-68 1627.18,-66.28 1631.51,-64.54 1635.88,-62.8"/>
<polygon fill="black" stroke="black" points="1637.43,-65.95 1645.45,-59.03 1634.86,-59.44 1637.43,-65.95"/>
</g>
<!-- 2059001294816&#45;&gt;2059009107536 -->
<g id="edge15" class="edge">
<title>2059001294816&#45;&gt;2059009107536</title>
<path fill="none" stroke="black" d="M1407.26,-82.76C1418.18,-84.92 1429.27,-87.12 1438.98,-89.05"/>
<polygon fill="black" stroke="black" points="1438.41,-92.5 1448.9,-91.02 1439.78,-85.64 1438.41,-92.5"/>
</g>
<!-- 2059009111088 -->
<g id="node18" class="node">
<title>2059009111088</title>
<polygon fill="none" stroke="black" points="1828,-113 1801,-95 1828,-77 1855,-95 1828,-113"/>
<text text-anchor="middle" x="1828" y="-91.9" font-family="Times New Roman,serif" font-size="12.00">+</text>
</g>
<!-- 2059001298320&#45;&gt;2059009111088 -->
<g id="edge19" class="edge">
<title>2059001298320&#45;&gt;2059009111088</title>
<path fill="none" stroke="black" d="M1742.55,-130.97C1750.08,-128.03 1757.77,-124.97 1765,-122 1777.26,-116.97 1790.77,-111.12 1802.04,-106.16"/>
<polygon fill="black" stroke="black" points="1803.55,-109.32 1811.28,-102.07 1800.72,-102.92 1803.55,-109.32"/>
</g>
<!-- 2059009108880&#45;&gt;2059009111088 -->
<g id="edge20" class="edge">
<title>2059009108880&#45;&gt;2059009111088</title>
<path fill="none" stroke="black" d="M1765.25,-95C1774.07,-95 1782.79,-95 1790.77,-95"/>
<polygon fill="black" stroke="black" points="1790.79,-98.5 1800.79,-95 1790.79,-91.5 1790.79,-98.5"/>
</g>
<!-- 2059009112048&#45;&gt;2059009111088 -->
<g id="edge21" class="edge">
<title>2059009112048&#45;&gt;2059009111088</title>
<path fill="none" stroke="black" d="M1742.55,-59.03C1750.08,-61.97 1757.77,-65.03 1765,-68 1777.26,-73.03 1790.77,-78.88 1802.04,-83.84"/>
<polygon fill="black" stroke="black" points="1800.72,-87.08 1811.28,-87.93 1803.55,-80.68 1800.72,-87.08"/>
</g>
<!-- 2059001296256 -->
<g id="node19" class="node">
<title>2059001296256</title>
<polygon fill="none" stroke="black" points="1918,-113 1891,-95 1918,-77 1945,-95 1918,-113"/>
<text text-anchor="middle" x="1918" y="-91.9" font-family="Times New Roman,serif" font-size="12.00">X</text>
</g>
<!-- 2059009111088&#45;&gt;2059001296256 -->
<g id="edge22" class="edge">
<title>2059009111088&#45;&gt;2059001296256</title>
<path fill="none" stroke="black" d="M1855.4,-95C1863.39,-95 1872.31,-95 1880.82,-95"/>
<polygon fill="black" stroke="black" points="1880.92,-98.5 1890.92,-95 1880.92,-91.5 1880.92,-98.5"/>
</g>
<!-- 2059009107872 -->
<g id="node20" class="node">
<title>2059009107872</title>
<polygon fill="none" stroke="black" points="2884,-113 2857,-95 2884,-77 2911,-95 2884,-113"/>
<text text-anchor="middle" x="2884" y="-91.9" font-family="Times New Roman,serif" font-size="12.00">X</text>
</g>
<!-- 2059001296256&#45;&gt;2059009107872 -->
<g id="edge24" class="edge">
<title>2059001296256&#45;&gt;2059009107872</title>
<path fill="none" stroke="black" d="M1940.65,-98.1C1986.39,-104.38 2096.32,-118 2189,-118 2189,-118 2189,-118 2653,-118 2724.55,-118 2808,-106.84 2852.07,-100.07"/>
<polygon fill="black" stroke="black" points="2852.8,-103.5 2862.14,-98.49 2851.72,-96.58 2852.8,-103.5"/>
</g>
<!-- 2059001295824 -->
<g id="node21" class="node">
<title>2059001295824</title>
<polygon fill="none" stroke="black" points="2127,-90 1981,-90 1981,-54 2127,-54 2127,-90"/>
<text text-anchor="middle" x="2054" y="-68.9" font-family="Times New Roman,serif" font-size="12.00">Gather necessary documents</text>
</g>
<!-- 2059001296256&#45;&gt;2059001295824 -->
<g id="edge23" class="edge">
<title>2059001296256&#45;&gt;2059001295824</title>
<path fill="none" stroke="black" d="M1939.94,-91.41C1948.65,-89.91 1959.37,-88.07 1970.71,-86.12"/>
<polygon fill="black" stroke="black" points="1971.54,-89.53 1980.8,-84.39 1970.35,-82.63 1971.54,-89.53"/>
</g>
<!-- 2059009110320 -->
<g id="node23" class="node">
<title>2059009110320</title>
<polygon fill="none" stroke="black" points="3047,-113 2947,-113 2947,-77 3047,-77 3047,-113"/>
<text text-anchor="middle" x="2997" y="-91.9" font-family="Times New Roman,serif" font-size="12.00">Submit documents</text>
</g>
<!-- 2059009107872&#45;&gt;2059009110320 -->
<g id="edge25" class="edge">
<title>2059009107872&#45;&gt;2059009110320</title>
<path fill="none" stroke="black" d="M2911.02,-95C2918.75,-95 2927.56,-95 2936.5,-95"/>
<polygon fill="black" stroke="black" points="2936.6,-98.5 2946.6,-95 2936.6,-91.5 2936.6,-98.5"/>
</g>
<!-- 2059001298080 -->
<g id="node22" class="node">
<title>2059001298080</title>
<polygon fill="none" stroke="black" points="2190,-90 2163,-72 2190,-54 2217,-72 2190,-90"/>
<text text-anchor="middle" x="2190" y="-68.9" font-family="Times New Roman,serif" font-size="12.00">X</text>
</g>
<!-- 2059001295824&#45;&gt;2059001298080 -->
<g id="edge26" class="edge">
<title>2059001295824&#45;&gt;2059001298080</title>
<path fill="none" stroke="black" d="M2127.1,-72C2135.97,-72 2144.73,-72 2152.73,-72"/>
<polygon fill="black" stroke="black" points="2152.77,-75.5 2162.77,-72 2152.77,-68.5 2152.77,-75.5"/>
</g>
<!-- 2059001298512 -->
<g id="node24" class="node">
<title>2059001298512</title>
<polygon fill="none" stroke="black" points="2420,-67 2393,-49 2420,-31 2447,-49 2420,-67"/>
<text text-anchor="middle" x="2420" y="-45.9" font-family="Times New Roman,serif" font-size="12.00">X</text>
</g>
<!-- 2059001298080&#45;&gt;2059001298512 -->
<g id="edge27" class="edge">
<title>2059001298080&#45;&gt;2059001298512</title>
<path fill="none" stroke="black" d="M2214.4,-70.17C2246.56,-67.59 2306.23,-62.57 2357,-57 2366.82,-55.92 2377.5,-54.6 2387.19,-53.34"/>
<polygon fill="black" stroke="black" points="2387.76,-56.8 2397.22,-52.02 2386.85,-49.86 2387.76,-56.8"/>
</g>
<!-- 2059009109600 -->
<g id="node26" class="node">
<title>2059009109600</title>
<polygon fill="none" stroke="black" points="2357,-48 2253,-48 2253,-12 2357,-12 2357,-48"/>
<text text-anchor="middle" x="2305" y="-26.9" font-family="Times New Roman,serif" font-size="12.00">Conduct interviews</text>
</g>
<!-- 2059001298080&#45;&gt;2059009109600 -->
<g id="edge28" class="edge">
<title>2059001298080&#45;&gt;2059009109600</title>
<path fill="none" stroke="black" d="M2208.16,-65.62C2218.4,-61.82 2232.05,-56.74 2245.83,-51.62"/>
<polygon fill="black" stroke="black" points="2247.2,-54.85 2255.36,-48.08 2244.76,-48.28 2247.2,-54.85"/>
</g>
<!-- 2059009101728 -->
<g id="node25" class="node">
<title>2059009101728</title>
<polygon fill="none" stroke="black" points="3189,-113 3083,-113 3083,-77 3189,-77 3189,-113"/>
<text text-anchor="middle" x="3136" y="-91.9" font-family="Times New Roman,serif" font-size="12.00">Close audit process</text>
</g>
<!-- 2059009110320&#45;&gt;2059009101728 -->
<g id="edge29" class="edge">
<title>2059009110320&#45;&gt;2059009101728</title>
<path fill="none" stroke="black" d="M3047.07,-95C3055.26,-95 3063.85,-95 3072.32,-95"/>
<polygon fill="black" stroke="black" points="3072.56,-98.5 3082.56,-95 3072.56,-91.5 3072.56,-98.5"/>
</g>
<!-- 2059001298800 -->
<g id="node28" class="node">
<title>2059001298800</title>
<polygon fill="none" stroke="black" points="2510,-67 2483,-49 2510,-31 2537,-49 2510,-67"/>
<text text-anchor="middle" x="2510" y="-45.9" font-family="Times New Roman,serif" font-size="12.00">+</text>
</g>
<!-- 2059001298512&#45;&gt;2059001298800 -->
<g id="edge31" class="edge">
<title>2059001298512&#45;&gt;2059001298800</title>
<path fill="none" stroke="black" d="M2447.4,-49C2455.39,-49 2464.31,-49 2472.82,-49"/>
<polygon fill="black" stroke="black" points="2472.92,-52.5 2482.92,-49 2472.92,-45.5 2472.92,-52.5"/>
</g>
<!-- 2059001298896 -->
<g id="node27" class="node">
<title>2059001298896</title>
<polygon fill="none" stroke="black" points="3252,-113 3225,-95 3252,-77 3279,-95 3252,-113"/>
<text text-anchor="middle" x="3252" y="-91.9" font-family="Times New Roman,serif" font-size="12.00">X</text>
</g>
<!-- 2059009101728&#45;&gt;2059001298896 -->
<g id="edge32" class="edge">
<title>2059009101728&#45;&gt;2059001298896</title>
<path fill="none" stroke="black" d="M3189.33,-95C3197.88,-95 3206.56,-95 3214.62,-95"/>
<polygon fill="black" stroke="black" points="3214.77,-98.5 3224.77,-95 3214.77,-91.5 3214.77,-98.5"/>
</g>
<!-- 2059009109600&#45;&gt;2059001298512 -->
<g id="edge30" class="edge">
<title>2059009109600&#45;&gt;2059001298512</title>
<path fill="none" stroke="black" d="M2357.21,-38.61C2367.73,-40.38 2378.5,-42.19 2388.04,-43.79"/>
<polygon fill="black" stroke="black" points="2387.77,-47.3 2398.21,-45.5 2388.93,-40.39 2387.77,-47.3"/>
</g>
<!-- 2059001294144 -->
<g id="node29" class="node">
<title>2059001294144</title>
<polygon fill="none" stroke="black" points="3439,-140 3315,-140 3315,-104 3439,-104 3439,-140"/>
<text text-anchor="middle" x="3377" y="-118.9" font-family="Times New Roman,serif" font-size="12.00">Send report for revision</text>
</g>
<!-- 2059001298896&#45;&gt;2059001294144 -->
<g id="edge33" class="edge">
<title>2059001298896&#45;&gt;2059001294144</title>
<path fill="none" stroke="black" d="M3272.76,-99.34C3281.78,-101.32 3293.07,-103.8 3304.84,-106.38"/>
<polygon fill="black" stroke="black" points="3304.28,-109.84 3314.8,-108.57 3305.78,-103 3304.28,-109.84"/>
</g>
<!-- 2059009109264 -->
<g id="node30" class="node">
<title>2059009109264</title>
<polygon fill="none" stroke="black" points="3433,-86 3321,-86 3321,-50 3433,-50 3433,-86"/>
<text text-anchor="middle" x="3377" y="-64.9" font-family="Times New Roman,serif" font-size="12.00">Distribute final report</text>
</g>
<!-- 2059001298896&#45;&gt;2059009109264 -->
<g id="edge34" class="edge">
<title>2059001298896&#45;&gt;2059009109264</title>
<path fill="none" stroke="black" d="M3272.76,-90.66C3283.31,-88.35 3296.96,-85.35 3310.85,-82.3"/>
<polygon fill="black" stroke="black" points="3311.96,-85.64 3320.97,-80.08 3310.46,-78.8 3311.96,-85.64"/>
</g>
<!-- 2059009109984 -->
<g id="node31" class="node">
<title>2059009109984</title>
<polygon fill="none" stroke="black" points="2731,-90 2573,-90 2573,-54 2731,-54 2731,-90"/>
<text text-anchor="middle" x="2652" y="-68.9" font-family="Times New Roman,serif" font-size="12.00">Review report by audit director</text>
</g>
<!-- 2059001298800&#45;&gt;2059009109984 -->
<g id="edge36" class="edge">
<title>2059001298800&#45;&gt;2059009109984</title>
<path fill="none" stroke="black" d="M2531.96,-52.44C2540.63,-53.87 2551.32,-55.62 2562.71,-57.49"/>
<polygon fill="black" stroke="black" points="2562.42,-61 2572.86,-59.16 2563.56,-54.09 2562.42,-61"/>
</g>
<!-- 2059009113152 -->
<g id="node32" class="node">
<title>2059009113152</title>
<polygon fill="none" stroke="black" points="2718.5,-36 2585.5,-36 2585.5,0 2718.5,0 2718.5,-36"/>
<text text-anchor="middle" x="2652" y="-14.9" font-family="Times New Roman,serif" font-size="12.00">Check regulatory updates</text>
</g>
<!-- 2059001298800&#45;&gt;2059009113152 -->
<g id="edge35" class="edge">
<title>2059001298800&#45;&gt;2059009113152</title>
<path fill="none" stroke="black" d="M2530.76,-44.62C2542.8,-41.96 2559.02,-38.37 2575.64,-34.69"/>
<polygon fill="black" stroke="black" points="2576.45,-38.09 2585.45,-32.51 2574.93,-31.26 2576.45,-38.09"/>
</g>
<!-- 2059009111376 -->
<g id="node35" class="node">
<title>2059009111376</title>
<polygon fill="none" stroke="black" points="3654,-140 3475,-140 3475,-104 3654,-104 3654,-140"/>
<text text-anchor="middle" x="3564.5" y="-118.9" font-family="Times New Roman,serif" font-size="12.00">Complete risk assessment/mitigation</text>
</g>
<!-- 2059001294144&#45;&gt;2059009111376 -->
<g id="edge37" class="edge">
<title>2059001294144&#45;&gt;2059009111376</title>
<path fill="none" stroke="black" d="M3439.25,-122C3447.45,-122 3456.01,-122 3464.64,-122"/>
<polygon fill="black" stroke="black" points="3464.8,-125.5 3474.8,-122 3464.8,-118.5 3464.8,-125.5"/>
</g>
<!-- 2059001296064 -->
<g id="node33" class="node">
<title>2059001296064</title>
<polygon fill="none" stroke="black" points="3635.5,-86 3493.5,-86 3493.5,-50 3635.5,-50 3635.5,-86"/>
<text text-anchor="middle" x="3564.5" y="-64.9" font-family="Times New Roman,serif" font-size="12.00">Update and resubmit report</text>
</g>
<!-- 2059009109264&#45;&gt;2059001296064 -->
<g id="edge38" class="edge">
<title>2059009109264&#45;&gt;2059001296064</title>
<path fill="none" stroke="black" d="M3433.15,-68C3448.81,-68 3466.18,-68 3483.01,-68"/>
<polygon fill="black" stroke="black" points="3483.39,-71.5 3493.39,-68 3483.39,-64.5 3483.39,-71.5"/>
</g>
<!-- 2059009108976 -->
<g id="node34" class="node">
<title>2059009108976</title>
<polygon fill="none" stroke="black" points="2794,-90 2767,-72 2794,-54 2821,-72 2794,-90"/>
<text text-anchor="middle" x="2794" y="-68.9" font-family="Times New Roman,serif" font-size="12.00">+</text>
</g>
<!-- 2059009109984&#45;&gt;2059009108976 -->
<g id="edge39" class="edge">
<title>2059009109984&#45;&gt;2059009108976</title>
<path fill="none" stroke="black" d="M2731.19,-72C2740.16,-72 2748.95,-72 2756.95,-72"/>
<polygon fill="black" stroke="black" points="2756.98,-75.5 2766.98,-72 2756.98,-68.5 2756.98,-75.5"/>
</g>
<!-- 2059009113152&#45;&gt;2059009108976 -->
<g id="edge40" class="edge">
<title>2059009113152&#45;&gt;2059009108976</title>
<path fill="none" stroke="black" d="M2706.91,-36.05C2715.02,-38.94 2723.26,-41.98 2731,-45 2743.44,-49.85 2757.05,-55.72 2768.35,-60.74"/>
<polygon fill="black" stroke="black" points="2767.04,-63.99 2777.6,-64.9 2769.91,-57.61 2767.04,-63.99"/>
</g>
<!-- 2059009112816 -->
<g id="node37" class="node">
<title>2059009112816</title>
<polygon fill="none" stroke="black" points="3773,-86 3690,-86 3690,-50 3773,-50 3773,-86"/>
<text text-anchor="middle" x="3731.5" y="-64.9" font-family="Times New Roman,serif" font-size="12.00">Archive report</text>
</g>
<!-- 2059001296064&#45;&gt;2059009112816 -->
<g id="edge42" class="edge">
<title>2059001296064&#45;&gt;2059009112816</title>
<path fill="none" stroke="black" d="M3635.95,-68C3650.61,-68 3665.79,-68 3679.58,-68"/>
<polygon fill="black" stroke="black" points="3679.82,-71.5 3689.82,-68 3679.82,-64.5 3679.82,-71.5"/>
</g>
<!-- 2059009108976&#45;&gt;2059009107872 -->
<g id="edge41" class="edge">
<title>2059009108976&#45;&gt;2059009107872</title>
<path fill="none" stroke="black" d="M2814.09,-76.99C2825.82,-80.06 2841.07,-84.04 2854.24,-87.48"/>
<polygon fill="black" stroke="black" points="2853.68,-90.96 2864.24,-90.1 2855.45,-84.18 2853.68,-90.96"/>
</g>
<!-- 2059009110656 -->
<g id="node36" class="node">
<title>2059009110656</title>
<polygon fill="none" stroke="black" points="3921,-140 3815,-140 3815,-104 3921,-104 3921,-140"/>
<text text-anchor="middle" x="3868" y="-118.9" font-family="Times New Roman,serif" font-size="12.00">Close audit process</text>
</g>
<!-- 2059009111376&#45;&gt;2059009110656 -->
<g id="edge43" class="edge">
<title>2059009111376&#45;&gt;2059009110656</title>
<path fill="none" stroke="black" d="M3654.33,-122C3702.57,-122 3761.06,-122 3804.47,-122"/>
<polygon fill="black" stroke="black" points="3804.61,-125.5 3814.61,-122 3804.61,-118.5 3804.61,-125.5"/>
</g>
<!-- 2059009108448 -->
<g id="node38" class="node">
<title>2059009108448</title>
<polygon fill="none" stroke="black" points="3990,-113 3963,-95 3990,-77 4017,-95 3990,-113"/>
<text text-anchor="middle" x="3990" y="-91.9" font-family="Times New Roman,serif" font-size="12.00">X</text>
</g>
<!-- 2059009110656&#45;&gt;2059009108448 -->
<g id="edge44" class="edge">
<title>2059009110656&#45;&gt;2059009108448</title>
<path fill="none" stroke="black" d="M3921.28,-110.24C3934.34,-107.3 3947.89,-104.25 3959.41,-101.66"/>
<polygon fill="black" stroke="black" points="3960.36,-105.03 3969.35,-99.42 3958.82,-98.2 3960.36,-105.03"/>
</g>
<!-- 2059001296592 -->
<g id="node39" class="node">
<title>2059001296592</title>
<polygon fill="none" stroke="black" points="3927,-86 3809,-86 3809,-50 3927,-50 3927,-86"/>
<text text-anchor="middle" x="3868" y="-64.9" font-family="Times New Roman,serif" font-size="12.00">Evaluate financial risks</text>
</g>
<!-- 2059009112816&#45;&gt;2059001296592 -->
<g id="edge45" class="edge">
<title>2059009112816&#45;&gt;2059001296592</title>
<path fill="none" stroke="black" d="M3773.22,-68C3781.22,-68 3789.82,-68 3798.45,-68"/>
<polygon fill="black" stroke="black" points="3798.56,-71.5 3808.56,-68 3798.56,-64.5 3798.56,-71.5"/>
</g>
<!-- 2059009130560 -->
<g id="node40" class="node">
<title>2059009130560</title>
<ellipse fill="orange" stroke="black" cx="4071" cy="-95" rx="18" ry="18"/>
</g>
<!-- 2059009108448&#45;&gt;2059009130560 -->
<g id="edge47" class="edge">
<title>2059009108448&#45;&gt;2059009130560</title>
<path fill="none" stroke="black" d="M4017.31,-95C4025.42,-95 4034.37,-95 4042.56,-95"/>
<polygon fill="black" stroke="black" points="4042.75,-98.5 4052.75,-95 4042.75,-91.5 4042.75,-98.5"/>
</g>
<!-- 2059001296592&#45;&gt;2059009108448 -->
<g id="edge46" class="edge">
<title>2059001296592&#45;&gt;2059009108448</title>
<path fill="none" stroke="black" d="M3927.24,-81.1C3938.38,-83.61 3949.6,-86.14 3959.36,-88.33"/>
<polygon fill="black" stroke="black" points="3958.79,-91.79 3969.31,-90.57 3960.33,-84.96 3958.79,-91.79"/>
</g>
</g>
</svg>
