<?xml version="1.0" encoding="UTF-8" standalone="no"?>
<!DOCTYPE svg PUBLIC "-//W3C//DTD SVG 1.1//EN"
 "http://www.w3.org/Graphics/SVG/1.1/DTD/svg11.dtd">
<!-- Generated by graphviz version 6.0.1 (20220911.1526)
 -->
<!-- Pages: 1 -->
<svg width="3229pt" height="206pt"
 viewBox="0.00 0.00 3229.00 206.00" xmlns="http://www.w3.org/2000/svg" xmlns:xlink="http://www.w3.org/1999/xlink">
<g id="graph0" class="graph" transform="scale(1 1) rotate(0) translate(4 202)">
<polygon fill="white" stroke="none" points="-4,4 -4,-202 3225,-202 3225,4 -4,4"/>
<!-- 2059005129056 -->
<g id="node1" class="node">
<title>2059005129056</title>
<ellipse fill="green" stroke="black" cx="18" cy="-99" rx="18" ry="18"/>
</g>
<!-- 2059005117680 -->
<g id="node2" class="node">
<title>2059005117680</title>
<polygon fill="none" stroke="black" points="204,-117 72,-117 72,-81 204,-81 204,-117"/>
<text text-anchor="middle" x="138" y="-95.9" font-family="Times New Roman,serif" font-size="12.00">Evaluate operational risks</text>
</g>
<!-- 2059005129056&#45;&gt;2059005117680 -->
<g id="edge1" class="edge">
<title>2059005129056&#45;&gt;2059005117680</title>
<path fill="none" stroke="black" d="M36.16,-99C43.37,-99 52.3,-99 61.84,-99"/>
<polygon fill="black" stroke="black" points="61.95,-102.5 71.95,-99 61.95,-95.5 61.95,-102.5"/>
</g>
<!-- 2059005198192 -->
<g id="node3" class="node">
<title>2059005198192</title>
<polygon fill="none" stroke="black" points="364,-117 240,-117 240,-81 364,-81 364,-117"/>
<text text-anchor="middle" x="302" y="-95.9" font-family="Times New Roman,serif" font-size="12.00">Send report for revision</text>
</g>
<!-- 2059005117680&#45;&gt;2059005198192 -->
<g id="edge2" class="edge">
<title>2059005117680&#45;&gt;2059005198192</title>
<path fill="none" stroke="black" d="M204.42,-99C212.73,-99 221.26,-99 229.65,-99"/>
<polygon fill="black" stroke="black" points="229.79,-102.5 239.79,-99 229.79,-95.5 229.79,-102.5"/>
</g>
<!-- 2059005195456 -->
<g id="node4" class="node">
<title>2059005195456</title>
<polygon fill="none" stroke="black" points="492,-117 400,-117 400,-81 492,-81 492,-117"/>
<text text-anchor="middle" x="446" y="-95.9" font-family="Times New Roman,serif" font-size="12.00">Send notification</text>
</g>
<!-- 2059005198192&#45;&gt;2059005195456 -->
<g id="edge3" class="edge">
<title>2059005198192&#45;&gt;2059005195456</title>
<path fill="none" stroke="black" d="M364.04,-99C372.6,-99 381.34,-99 389.78,-99"/>
<polygon fill="black" stroke="black" points="389.88,-102.5 399.88,-99 389.88,-95.5 389.88,-102.5"/>
</g>
<!-- 2059005121040 -->
<g id="node5" class="node">
<title>2059005121040</title>
<polygon fill="none" stroke="black" points="616,-117 528,-117 528,-81 616,-81 616,-117"/>
<text text-anchor="middle" x="572" y="-95.9" font-family="Times New Roman,serif" font-size="12.00">Approve report</text>
</g>
<!-- 2059005195456&#45;&gt;2059005121040 -->
<g id="edge4" class="edge">
<title>2059005195456&#45;&gt;2059005121040</title>
<path fill="none" stroke="black" d="M492.12,-99C500.39,-99 509.09,-99 517.58,-99"/>
<polygon fill="black" stroke="black" points="517.78,-102.5 527.78,-99 517.78,-95.5 517.78,-102.5"/>
</g>
<!-- 2059005117344 -->
<g id="node6" class="node">
<title>2059005117344</title>
<polygon fill="none" stroke="black" points="768,-117 652,-117 652,-81 768,-81 768,-117"/>
<text text-anchor="middle" x="710" y="-95.9" font-family="Times New Roman,serif" font-size="12.00">Conduct data analysis</text>
</g>
<!-- 2059005121040&#45;&gt;2059005117344 -->
<g id="edge5" class="edge">
<title>2059005121040&#45;&gt;2059005117344</title>
<path fill="none" stroke="black" d="M616.03,-99C624.2,-99 632.92,-99 641.63,-99"/>
<polygon fill="black" stroke="black" points="641.82,-102.5 651.82,-99 641.82,-95.5 641.82,-102.5"/>
</g>
<!-- 2059005118688 -->
<g id="node7" class="node">
<title>2059005118688</title>
<polygon fill="none" stroke="black" points="937,-117 804,-117 804,-81 937,-81 937,-117"/>
<text text-anchor="middle" x="870.5" y="-95.9" font-family="Times New Roman,serif" font-size="12.00">Evaluate compliance risks</text>
</g>
<!-- 2059005117344&#45;&gt;2059005118688 -->
<g id="edge6" class="edge">
<title>2059005117344&#45;&gt;2059005118688</title>
<path fill="none" stroke="black" d="M768.22,-99C776.51,-99 785.14,-99 793.72,-99"/>
<polygon fill="black" stroke="black" points="793.74,-102.5 803.74,-99 793.74,-95.5 793.74,-102.5"/>
</g>
<!-- 2059005116672 -->
<g id="node8" class="node">
<title>2059005116672</title>
<polygon fill="none" stroke="black" points="1119,-117 973,-117 973,-81 1119,-81 1119,-117"/>
<text text-anchor="middle" x="1046" y="-95.9" font-family="Times New Roman,serif" font-size="12.00">Launch detailed investigation</text>
</g>
<!-- 2059005118688&#45;&gt;2059005116672 -->
<g id="edge7" class="edge">
<title>2059005118688&#45;&gt;2059005116672</title>
<path fill="none" stroke="black" d="M937.09,-99C945.51,-99 954.2,-99 962.84,-99"/>
<polygon fill="black" stroke="black" points="962.93,-102.5 972.93,-99 962.93,-95.5 962.93,-102.5"/>
</g>
<!-- 2059005196128 -->
<g id="node9" class="node">
<title>2059005196128</title>
<polygon fill="none" stroke="black" points="1265,-117 1155,-117 1155,-81 1265,-81 1265,-117"/>
<text text-anchor="middle" x="1210" y="-95.9" font-family="Times New Roman,serif" font-size="12.00">Compile audit report</text>
</g>
<!-- 2059005116672&#45;&gt;2059005196128 -->
<g id="edge8" class="edge">
<title>2059005116672&#45;&gt;2059005196128</title>
<path fill="none" stroke="black" d="M1119.47,-99C1127.76,-99 1136.18,-99 1144.36,-99"/>
<polygon fill="black" stroke="black" points="1144.57,-102.5 1154.57,-99 1144.57,-95.5 1144.57,-102.5"/>
</g>
<!-- 2059005195840 -->
<g id="node10" class="node">
<title>2059005195840</title>
<polygon fill="none" stroke="black" points="1328,-117 1301,-99 1328,-81 1355,-99 1328,-117"/>
<text text-anchor="middle" x="1328" y="-95.9" font-family="Times New Roman,serif" font-size="12.00">+</text>
</g>
<!-- 2059005196128&#45;&gt;2059005195840 -->
<g id="edge9" class="edge">
<title>2059005196128&#45;&gt;2059005195840</title>
<path fill="none" stroke="black" d="M1265.26,-99C1273.87,-99 1282.59,-99 1290.66,-99"/>
<polygon fill="black" stroke="black" points="1290.83,-102.5 1300.83,-99 1290.83,-95.5 1290.83,-102.5"/>
</g>
<!-- 2059005195120 -->
<g id="node11" class="node">
<title>2059005195120</title>
<polygon fill="none" stroke="black" points="1536,-198 1434,-198 1434,-162 1536,-162 1536,-198"/>
<text text-anchor="middle" x="1485" y="-176.9" font-family="Times New Roman,serif" font-size="12.00">Review submission</text>
</g>
<!-- 2059005195840&#45;&gt;2059005195120 -->
<g id="edge12" class="edge">
<title>2059005195840&#45;&gt;2059005195120</title>
<path fill="none" stroke="black" d="M1338.89,-110.12C1350.31,-122.31 1370.2,-141.65 1391,-153 1401.16,-158.54 1412.58,-163.06 1423.85,-166.7"/>
<polygon fill="black" stroke="black" points="1423.09,-170.12 1433.67,-169.67 1425.12,-163.42 1423.09,-170.12"/>
</g>
<!-- 2059005195792 -->
<g id="node12" class="node">
<title>2059005195792</title>
<polygon fill="none" stroke="black" points="1579,-144 1391,-144 1391,-108 1579,-108 1579,-144"/>
<text text-anchor="middle" x="1485" y="-122.9" font-family="Times New Roman,serif" font-size="12.00">Request clarifications of discrepancies</text>
</g>
<!-- 2059005195840&#45;&gt;2059005195792 -->
<g id="edge13" class="edge">
<title>2059005195840&#45;&gt;2059005195792</title>
<path fill="none" stroke="black" d="M1349.9,-102.64C1358.55,-104.15 1369.27,-106.02 1380.85,-108.03"/>
<polygon fill="black" stroke="black" points="1380.31,-111.49 1390.76,-109.76 1381.51,-104.59 1380.31,-111.49"/>
</g>
<!-- 2059005119360 -->
<g id="node13" class="node">
<title>2059005119360</title>
<polygon fill="none" stroke="black" points="1540.5,-90 1429.5,-90 1429.5,-54 1540.5,-54 1540.5,-90"/>
<text text-anchor="middle" x="1485" y="-68.9" font-family="Times New Roman,serif" font-size="12.00">Receive clarifications</text>
</g>
<!-- 2059005195840&#45;&gt;2059005119360 -->
<g id="edge11" class="edge">
<title>2059005195840&#45;&gt;2059005119360</title>
<path fill="none" stroke="black" d="M1349.9,-95.36C1367.77,-92.25 1394.46,-87.6 1419.34,-83.26"/>
<polygon fill="black" stroke="black" points="1420.23,-86.66 1429.49,-81.5 1419.03,-79.76 1420.23,-86.66"/>
</g>
<!-- 2059005119696 -->
<g id="node14" class="node">
<title>2059005119696</title>
<polygon fill="none" stroke="black" points="1556,-36 1414,-36 1414,0 1556,0 1556,-36"/>
<text text-anchor="middle" x="1485" y="-14.9" font-family="Times New Roman,serif" font-size="12.00">Prepare financial statements</text>
</g>
<!-- 2059005195840&#45;&gt;2059005119696 -->
<g id="edge10" class="edge">
<title>2059005195840&#45;&gt;2059005119696</title>
<path fill="none" stroke="black" d="M1338.89,-87.88C1350.31,-75.69 1370.2,-56.35 1391,-45 1395.21,-42.7 1399.63,-40.59 1404.17,-38.63"/>
<polygon fill="black" stroke="black" points="1405.63,-41.82 1413.61,-34.85 1403.03,-35.32 1405.63,-41.82"/>
</g>
<!-- 2059005194832 -->
<g id="node15" class="node">
<title>2059005194832</title>
<polygon fill="none" stroke="black" points="1642,-198 1615,-180 1642,-162 1669,-180 1642,-198"/>
<text text-anchor="middle" x="1642" y="-176.9" font-family="Times New Roman,serif" font-size="12.00">+</text>
</g>
<!-- 2059005195120&#45;&gt;2059005194832 -->
<g id="edge14" class="edge">
<title>2059005195120&#45;&gt;2059005194832</title>
<path fill="none" stroke="black" d="M1536.32,-180C1558.61,-180 1584.32,-180 1604.68,-180"/>
<polygon fill="black" stroke="black" points="1604.8,-183.5 1614.8,-180 1604.8,-176.5 1604.8,-183.5"/>
</g>
<!-- 2059005195504 -->
<g id="node16" class="node">
<title>2059005195504</title>
<polygon fill="none" stroke="black" points="1642,-144 1615,-126 1642,-108 1669,-126 1642,-144"/>
<text text-anchor="middle" x="1642" y="-122.9" font-family="Times New Roman,serif" font-size="12.00">+</text>
</g>
<!-- 2059005195792&#45;&gt;2059005195504 -->
<g id="edge15" class="edge">
<title>2059005195792&#45;&gt;2059005195504</title>
<path fill="none" stroke="black" d="M1579.29,-126C1588.2,-126 1596.81,-126 1604.64,-126"/>
<polygon fill="black" stroke="black" points="1604.77,-129.5 1614.77,-126 1604.77,-122.5 1604.77,-129.5"/>
</g>
<!-- 2059005119072 -->
<g id="node17" class="node">
<title>2059005119072</title>
<polygon fill="none" stroke="black" points="1642,-90 1615,-72 1642,-54 1669,-72 1642,-90"/>
<text text-anchor="middle" x="1642" y="-68.9" font-family="Times New Roman,serif" font-size="12.00">+</text>
</g>
<!-- 2059005119360&#45;&gt;2059005119072 -->
<g id="edge16" class="edge">
<title>2059005119360&#45;&gt;2059005119072</title>
<path fill="none" stroke="black" d="M1540.65,-72C1561.83,-72 1585.51,-72 1604.54,-72"/>
<polygon fill="black" stroke="black" points="1604.6,-75.5 1614.6,-72 1604.6,-68.5 1604.6,-75.5"/>
</g>
<!-- 2059005119408 -->
<g id="node18" class="node">
<title>2059005119408</title>
<polygon fill="none" stroke="black" points="1642,-36 1615,-18 1642,0 1669,-18 1642,-36"/>
<text text-anchor="middle" x="1642" y="-14.9" font-family="Times New Roman,serif" font-size="12.00">+</text>
</g>
<!-- 2059005119696&#45;&gt;2059005119408 -->
<g id="edge17" class="edge">
<title>2059005119696&#45;&gt;2059005119408</title>
<path fill="none" stroke="black" d="M1556.24,-18C1573,-18 1590.22,-18 1604.72,-18"/>
<polygon fill="black" stroke="black" points="1604.75,-21.5 1614.75,-18 1604.75,-14.5 1604.75,-21.5"/>
</g>
<!-- 2059005194688 -->
<g id="node19" class="node">
<title>2059005194688</title>
<polygon fill="none" stroke="black" points="1732,-198 1705,-180 1732,-162 1759,-180 1732,-198"/>
<text text-anchor="middle" x="1732" y="-176.9" font-family="Times New Roman,serif" font-size="12.00">+</text>
</g>
<!-- 2059005194832&#45;&gt;2059005194688 -->
<g id="edge19" class="edge">
<title>2059005194832&#45;&gt;2059005194688</title>
<path fill="none" stroke="black" d="M1669.4,-180C1677.39,-180 1686.31,-180 1694.82,-180"/>
<polygon fill="black" stroke="black" points="1694.92,-183.5 1704.92,-180 1694.92,-176.5 1694.92,-183.5"/>
</g>
<!-- 2059005196944 -->
<g id="node20" class="node">
<title>2059005196944</title>
<polygon fill="none" stroke="black" points="1732,-144 1705,-126 1732,-108 1759,-126 1732,-144"/>
<text text-anchor="middle" x="1732" y="-122.9" font-family="Times New Roman,serif" font-size="12.00">+</text>
</g>
<!-- 2059005194832&#45;&gt;2059005196944 -->
<g id="edge21" class="edge">
<title>2059005194832&#45;&gt;2059005196944</title>
<path fill="none" stroke="black" d="M1656.75,-171.56C1670.57,-163.08 1692.11,-149.87 1708.43,-139.85"/>
<polygon fill="black" stroke="black" points="1710.65,-142.59 1717.35,-134.38 1706.99,-136.63 1710.65,-142.59"/>
</g>
<!-- 2059005197280 -->
<g id="node21" class="node">
<title>2059005197280</title>
<polygon fill="none" stroke="black" points="1732,-90 1705,-72 1732,-54 1759,-72 1732,-90"/>
<text text-anchor="middle" x="1732" y="-68.9" font-family="Times New Roman,serif" font-size="12.00">+</text>
</g>
<!-- 2059005194832&#45;&gt;2059005197280 -->
<g id="edge20" class="edge">
<title>2059005194832&#45;&gt;2059005197280</title>
<path fill="none" stroke="black" d="M1653.83,-169.63C1658.69,-164.77 1664.35,-158.78 1669,-153 1687.08,-130.52 1686.92,-121.48 1705,-99 1707.47,-95.93 1710.23,-92.8 1713,-89.81"/>
<polygon fill="black" stroke="black" points="1715.75,-92 1720.17,-82.37 1710.71,-87.14 1715.75,-92"/>
</g>
<!-- 2059005117776 -->
<g id="node22" class="node">
<title>2059005117776</title>
<polygon fill="none" stroke="black" points="1732,-36 1705,-18 1732,0 1759,-18 1732,-36"/>
<text text-anchor="middle" x="1732" y="-14.9" font-family="Times New Roman,serif" font-size="12.00">+</text>
</g>
<!-- 2059005194832&#45;&gt;2059005117776 -->
<g id="edge18" class="edge">
<title>2059005194832&#45;&gt;2059005117776</title>
<path fill="none" stroke="black" d="M1654.58,-170.15C1659.58,-165.4 1665.16,-159.35 1669,-153 1695.19,-109.71 1678.81,-88.29 1705,-45 1707.04,-41.63 1709.57,-38.34 1712.24,-35.29"/>
<polygon fill="black" stroke="black" points="1715,-37.47 1719.42,-27.85 1709.96,-32.61 1715,-37.47"/>
</g>
<!-- 2059005195504&#45;&gt;2059005194688 -->
<g id="edge24" class="edge">
<title>2059005195504&#45;&gt;2059005194688</title>
<path fill="none" stroke="black" d="M1656.75,-134.44C1670.57,-142.92 1692.11,-156.13 1708.43,-166.15"/>
<polygon fill="black" stroke="black" points="1706.99,-169.37 1717.35,-171.62 1710.65,-163.41 1706.99,-169.37"/>
</g>
<!-- 2059005195504&#45;&gt;2059005196944 -->
<g id="edge22" class="edge">
<title>2059005195504&#45;&gt;2059005196944</title>
<path fill="none" stroke="black" d="M1669.4,-126C1677.39,-126 1686.31,-126 1694.82,-126"/>
<polygon fill="black" stroke="black" points="1694.92,-129.5 1704.92,-126 1694.92,-122.5 1694.92,-129.5"/>
</g>
<!-- 2059005195504&#45;&gt;2059005197280 -->
<g id="edge23" class="edge">
<title>2059005195504&#45;&gt;2059005197280</title>
<path fill="none" stroke="black" d="M1656.75,-117.56C1670.57,-109.08 1692.11,-95.87 1708.43,-85.85"/>
<polygon fill="black" stroke="black" points="1710.65,-88.59 1717.35,-80.38 1706.99,-82.63 1710.65,-88.59"/>
</g>
<!-- 2059005195504&#45;&gt;2059005117776 -->
<g id="edge25" class="edge">
<title>2059005195504&#45;&gt;2059005117776</title>
<path fill="none" stroke="black" d="M1653.83,-115.63C1658.69,-110.77 1664.35,-104.78 1669,-99 1687.08,-76.52 1686.92,-67.48 1705,-45 1707.47,-41.93 1710.23,-38.8 1713,-35.81"/>
<polygon fill="black" stroke="black" points="1715.75,-38 1720.17,-28.37 1710.71,-33.14 1715.75,-38"/>
</g>
<!-- 2059005119072&#45;&gt;2059005194688 -->
<g id="edge26" class="edge">
<title>2059005119072&#45;&gt;2059005194688</title>
<path fill="none" stroke="black" d="M1653.83,-82.37C1658.69,-87.23 1664.35,-93.22 1669,-99 1687.08,-121.48 1686.92,-130.52 1705,-153 1707.47,-156.07 1710.23,-159.2 1713,-162.19"/>
<polygon fill="black" stroke="black" points="1710.71,-164.86 1720.17,-169.63 1715.75,-160 1710.71,-164.86"/>
</g>
<!-- 2059005119072&#45;&gt;2059005196944 -->
<g id="edge29" class="edge">
<title>2059005119072&#45;&gt;2059005196944</title>
<path fill="none" stroke="black" d="M1656.75,-80.44C1670.57,-88.92 1692.11,-102.13 1708.43,-112.15"/>
<polygon fill="black" stroke="black" points="1706.99,-115.37 1717.35,-117.62 1710.65,-109.41 1706.99,-115.37"/>
</g>
<!-- 2059005119072&#45;&gt;2059005197280 -->
<g id="edge28" class="edge">
<title>2059005119072&#45;&gt;2059005197280</title>
<path fill="none" stroke="black" d="M1669.4,-72C1677.39,-72 1686.31,-72 1694.82,-72"/>
<polygon fill="black" stroke="black" points="1694.92,-75.5 1704.92,-72 1694.92,-68.5 1694.92,-75.5"/>
</g>
<!-- 2059005119072&#45;&gt;2059005117776 -->
<g id="edge27" class="edge">
<title>2059005119072&#45;&gt;2059005117776</title>
<path fill="none" stroke="black" d="M1656.75,-63.56C1670.57,-55.08 1692.11,-41.87 1708.43,-31.85"/>
<polygon fill="black" stroke="black" points="1710.65,-34.59 1717.35,-26.38 1706.99,-28.63 1710.65,-34.59"/>
</g>
<!-- 2059005119408&#45;&gt;2059005194688 -->
<g id="edge31" class="edge">
<title>2059005119408&#45;&gt;2059005194688</title>
<path fill="none" stroke="black" d="M1654.58,-27.85C1659.58,-32.6 1665.16,-38.65 1669,-45 1695.19,-88.29 1678.81,-109.71 1705,-153 1707.04,-156.37 1709.57,-159.66 1712.24,-162.71"/>
<polygon fill="black" stroke="black" points="1709.96,-165.39 1719.42,-170.15 1715,-160.53 1709.96,-165.39"/>
</g>
<!-- 2059005119408&#45;&gt;2059005196944 -->
<g id="edge33" class="edge">
<title>2059005119408&#45;&gt;2059005196944</title>
<path fill="none" stroke="black" d="M1653.83,-28.37C1658.69,-33.23 1664.35,-39.22 1669,-45 1687.08,-67.48 1686.92,-76.52 1705,-99 1707.47,-102.07 1710.23,-105.2 1713,-108.19"/>
<polygon fill="black" stroke="black" points="1710.71,-110.86 1720.17,-115.63 1715.75,-106 1710.71,-110.86"/>
</g>
<!-- 2059005119408&#45;&gt;2059005197280 -->
<g id="edge32" class="edge">
<title>2059005119408&#45;&gt;2059005197280</title>
<path fill="none" stroke="black" d="M1656.75,-26.44C1670.57,-34.92 1692.11,-48.13 1708.43,-58.15"/>
<polygon fill="black" stroke="black" points="1706.99,-61.37 1717.35,-63.62 1710.65,-55.41 1706.99,-61.37"/>
</g>
<!-- 2059005119408&#45;&gt;2059005117776 -->
<g id="edge30" class="edge">
<title>2059005119408&#45;&gt;2059005117776</title>
<path fill="none" stroke="black" d="M1669.4,-18C1677.39,-18 1686.31,-18 1694.82,-18"/>
<polygon fill="black" stroke="black" points="1694.92,-21.5 1704.92,-18 1694.92,-14.5 1694.92,-21.5"/>
</g>
<!-- 2059005194784 -->
<g id="node23" class="node">
<title>2059005194784</title>
<polygon fill="none" stroke="black" points="1953,-198 1795,-198 1795,-162 1953,-162 1953,-198"/>
<text text-anchor="middle" x="1874" y="-176.9" font-family="Times New Roman,serif" font-size="12.00">Review report by audit director</text>
</g>
<!-- 2059005194688&#45;&gt;2059005194784 -->
<g id="edge34" class="edge">
<title>2059005194688&#45;&gt;2059005194784</title>
<path fill="none" stroke="black" d="M1759,-180C1766.61,-180 1775.39,-180 1784.62,-180"/>
<polygon fill="black" stroke="black" points="1784.78,-183.5 1794.78,-180 1784.78,-176.5 1784.78,-183.5"/>
</g>
<!-- 2059005197184 -->
<g id="node24" class="node">
<title>2059005197184</title>
<polygon fill="none" stroke="black" points="1947,-144 1801,-144 1801,-108 1947,-108 1947,-144"/>
<text text-anchor="middle" x="1874" y="-122.9" font-family="Times New Roman,serif" font-size="12.00">Gather necessary documents</text>
</g>
<!-- 2059005196944&#45;&gt;2059005197184 -->
<g id="edge35" class="edge">
<title>2059005196944&#45;&gt;2059005197184</title>
<path fill="none" stroke="black" d="M1759,-126C1768.24,-126 1779.19,-126 1790.6,-126"/>
<polygon fill="black" stroke="black" points="1790.71,-129.5 1800.71,-126 1790.71,-122.5 1790.71,-129.5"/>
</g>
<!-- 2059005197520 -->
<g id="node25" class="node">
<title>2059005197520</title>
<polygon fill="none" stroke="black" points="1940.5,-90 1807.5,-90 1807.5,-54 1940.5,-54 1940.5,-90"/>
<text text-anchor="middle" x="1874" y="-68.9" font-family="Times New Roman,serif" font-size="12.00">Check regulatory updates</text>
</g>
<!-- 2059005197280&#45;&gt;2059005197520 -->
<g id="edge36" class="edge">
<title>2059005197280&#45;&gt;2059005197520</title>
<path fill="none" stroke="black" d="M1759,-72C1770.01,-72 1783.46,-72 1797.21,-72"/>
<polygon fill="black" stroke="black" points="1797.25,-75.5 1807.25,-72 1797.25,-68.5 1797.25,-75.5"/>
</g>
<!-- 2059005118016 -->
<g id="node26" class="node">
<title>2059005118016</title>
<polygon fill="none" stroke="black" points="1926,-36 1822,-36 1822,0 1926,0 1926,-36"/>
<text text-anchor="middle" x="1874" y="-14.9" font-family="Times New Roman,serif" font-size="12.00">Conduct interviews</text>
</g>
<!-- 2059005117776&#45;&gt;2059005118016 -->
<g id="edge37" class="edge">
<title>2059005117776&#45;&gt;2059005118016</title>
<path fill="none" stroke="black" d="M1759,-18C1773.88,-18 1793.22,-18 1811.73,-18"/>
<polygon fill="black" stroke="black" points="1811.9,-21.5 1821.9,-18 1811.9,-14.5 1811.9,-21.5"/>
</g>
<!-- 2059005198240 -->
<g id="node27" class="node">
<title>2059005198240</title>
<polygon fill="none" stroke="black" points="2016,-117 1989,-99 2016,-81 2043,-99 2016,-117"/>
<text text-anchor="middle" x="2016" y="-95.9" font-family="Times New Roman,serif" font-size="12.00">+</text>
</g>
<!-- 2059005194784&#45;&gt;2059005198240 -->
<g id="edge38" class="edge">
<title>2059005194784&#45;&gt;2059005198240</title>
<path fill="none" stroke="black" d="M1934.83,-161.97C1941.12,-159.29 1947.3,-156.3 1953,-153 1969.66,-143.35 1985.98,-128.88 1997.68,-117.35"/>
<polygon fill="black" stroke="black" points="2000.47,-119.5 2005,-109.93 1995.49,-114.59 2000.47,-119.5"/>
</g>
<!-- 2059005197184&#45;&gt;2059005198240 -->
<g id="edge39" class="edge">
<title>2059005197184&#45;&gt;2059005198240</title>
<path fill="none" stroke="black" d="M1947.05,-112.1C1960.35,-109.54 1973.56,-106.99 1984.74,-104.84"/>
<polygon fill="black" stroke="black" points="1985.62,-108.23 1994.77,-102.9 1984.29,-101.36 1985.62,-108.23"/>
</g>
<!-- 2059005197520&#45;&gt;2059005198240 -->
<g id="edge40" class="edge">
<title>2059005197520&#45;&gt;2059005198240</title>
<path fill="none" stroke="black" d="M1940.9,-84.71C1956.19,-87.66 1971.75,-90.66 1984.63,-93.14"/>
<polygon fill="black" stroke="black" points="1984.28,-96.64 1994.76,-95.1 1985.6,-89.77 1984.28,-96.64"/>
</g>
<!-- 2059005118016&#45;&gt;2059005198240 -->
<g id="edge41" class="edge">
<title>2059005118016&#45;&gt;2059005198240</title>
<path fill="none" stroke="black" d="M1926.18,-32.55C1935.39,-36.05 1944.69,-40.19 1953,-45 1969.66,-54.65 1985.98,-69.12 1997.68,-80.65"/>
<polygon fill="black" stroke="black" points="1995.49,-83.41 2005,-88.07 2000.47,-78.5 1995.49,-83.41"/>
</g>
<!-- 2059005117008 -->
<g id="node28" class="node">
<title>2059005117008</title>
<polygon fill="none" stroke="black" points="2179,-117 2079,-117 2079,-81 2179,-81 2179,-117"/>
<text text-anchor="middle" x="2129" y="-95.9" font-family="Times New Roman,serif" font-size="12.00">Submit documents</text>
</g>
<!-- 2059005198240&#45;&gt;2059005117008 -->
<g id="edge42" class="edge">
<title>2059005198240&#45;&gt;2059005117008</title>
<path fill="none" stroke="black" d="M2043.02,-99C2050.75,-99 2059.56,-99 2068.5,-99"/>
<polygon fill="black" stroke="black" points="2068.6,-102.5 2078.6,-99 2068.6,-95.5 2068.6,-102.5"/>
</g>
<!-- 2059005196464 -->
<g id="node29" class="node">
<title>2059005196464</title>
<polygon fill="none" stroke="black" points="2321,-117 2215,-117 2215,-81 2321,-81 2321,-117"/>
<text text-anchor="middle" x="2268" y="-95.9" font-family="Times New Roman,serif" font-size="12.00">Close audit process</text>
</g>
<!-- 2059005117008&#45;&gt;2059005196464 -->
<g id="edge43" class="edge">
<title>2059005117008&#45;&gt;2059005196464</title>
<path fill="none" stroke="black" d="M2179.07,-99C2187.26,-99 2195.85,-99 2204.32,-99"/>
<polygon fill="black" stroke="black" points="2204.56,-102.5 2214.56,-99 2204.56,-95.5 2204.56,-102.5"/>
</g>
<!-- 2059005193440 -->
<g id="node30" class="node">
<title>2059005193440</title>
<polygon fill="none" stroke="black" points="2384,-117 2357,-99 2384,-81 2411,-99 2384,-117"/>
<text text-anchor="middle" x="2384" y="-95.9" font-family="Times New Roman,serif" font-size="12.00">X</text>
</g>
<!-- 2059005196464&#45;&gt;2059005193440 -->
<g id="edge44" class="edge">
<title>2059005196464&#45;&gt;2059005193440</title>
<path fill="none" stroke="black" d="M2321.33,-99C2329.88,-99 2338.56,-99 2346.62,-99"/>
<polygon fill="black" stroke="black" points="2346.77,-102.5 2356.77,-99 2346.77,-95.5 2346.77,-102.5"/>
</g>
<!-- 2059005120368 -->
<g id="node31" class="node">
<title>2059005120368</title>
<polygon fill="none" stroke="black" points="2571,-144 2447,-144 2447,-108 2571,-108 2571,-144"/>
<text text-anchor="middle" x="2509" y="-122.9" font-family="Times New Roman,serif" font-size="12.00">Send report for revision</text>
</g>
<!-- 2059005193440&#45;&gt;2059005120368 -->
<g id="edge45" class="edge">
<title>2059005193440&#45;&gt;2059005120368</title>
<path fill="none" stroke="black" d="M2404.76,-103.34C2413.78,-105.32 2425.07,-107.8 2436.84,-110.38"/>
<polygon fill="black" stroke="black" points="2436.28,-113.84 2446.8,-112.57 2437.78,-107 2436.28,-113.84"/>
</g>
<!-- 2059005120704 -->
<g id="node32" class="node">
<title>2059005120704</title>
<polygon fill="none" stroke="black" points="2565,-90 2453,-90 2453,-54 2565,-54 2565,-90"/>
<text text-anchor="middle" x="2509" y="-68.9" font-family="Times New Roman,serif" font-size="12.00">Distribute final report</text>
</g>
<!-- 2059005193440&#45;&gt;2059005120704 -->
<g id="edge46" class="edge">
<title>2059005193440&#45;&gt;2059005120704</title>
<path fill="none" stroke="black" d="M2404.76,-94.66C2415.31,-92.35 2428.96,-89.35 2442.85,-86.3"/>
<polygon fill="black" stroke="black" points="2443.96,-89.64 2452.97,-84.08 2442.46,-82.8 2443.96,-89.64"/>
</g>
<!-- 2059005119024 -->
<g id="node34" class="node">
<title>2059005119024</title>
<polygon fill="none" stroke="black" points="2786,-144 2607,-144 2607,-108 2786,-108 2786,-144"/>
<text text-anchor="middle" x="2696.5" y="-122.9" font-family="Times New Roman,serif" font-size="12.00">Complete risk assessment/mitigation</text>
</g>
<!-- 2059005120368&#45;&gt;2059005119024 -->
<g id="edge47" class="edge">
<title>2059005120368&#45;&gt;2059005119024</title>
<path fill="none" stroke="black" d="M2571.25,-126C2579.45,-126 2588.01,-126 2596.64,-126"/>
<polygon fill="black" stroke="black" points="2596.8,-129.5 2606.8,-126 2596.8,-122.5 2596.8,-129.5"/>
</g>
<!-- 2059005197856 -->
<g id="node33" class="node">
<title>2059005197856</title>
<polygon fill="none" stroke="black" points="2767.5,-90 2625.5,-90 2625.5,-54 2767.5,-54 2767.5,-90"/>
<text text-anchor="middle" x="2696.5" y="-68.9" font-family="Times New Roman,serif" font-size="12.00">Update and resubmit report</text>
</g>
<!-- 2059005120704&#45;&gt;2059005197856 -->
<g id="edge48" class="edge">
<title>2059005120704&#45;&gt;2059005197856</title>
<path fill="none" stroke="black" d="M2565.15,-72C2580.81,-72 2598.18,-72 2615.01,-72"/>
<polygon fill="black" stroke="black" points="2615.39,-75.5 2625.39,-72 2615.39,-68.5 2615.39,-75.5"/>
</g>
<!-- 2059005118352 -->
<g id="node35" class="node">
<title>2059005118352</title>
<polygon fill="none" stroke="black" points="2905,-90 2822,-90 2822,-54 2905,-54 2905,-90"/>
<text text-anchor="middle" x="2863.5" y="-68.9" font-family="Times New Roman,serif" font-size="12.00">Archive report</text>
</g>
<!-- 2059005197856&#45;&gt;2059005118352 -->
<g id="edge49" class="edge">
<title>2059005197856&#45;&gt;2059005118352</title>
<path fill="none" stroke="black" d="M2767.95,-72C2782.61,-72 2797.79,-72 2811.58,-72"/>
<polygon fill="black" stroke="black" points="2811.82,-75.5 2821.82,-72 2811.82,-68.5 2811.82,-75.5"/>
</g>
<!-- 2059005120032 -->
<g id="node36" class="node">
<title>2059005120032</title>
<polygon fill="none" stroke="black" points="3053,-144 2947,-144 2947,-108 3053,-108 3053,-144"/>
<text text-anchor="middle" x="3000" y="-122.9" font-family="Times New Roman,serif" font-size="12.00">Close audit process</text>
</g>
<!-- 2059005119024&#45;&gt;2059005120032 -->
<g id="edge50" class="edge">
<title>2059005119024&#45;&gt;2059005120032</title>
<path fill="none" stroke="black" d="M2786.33,-126C2834.57,-126 2893.06,-126 2936.47,-126"/>
<polygon fill="black" stroke="black" points="2936.61,-129.5 2946.61,-126 2936.61,-122.5 2936.61,-129.5"/>
</g>
<!-- 2059005196848 -->
<g id="node38" class="node">
<title>2059005196848</title>
<polygon fill="none" stroke="black" points="3059,-90 2941,-90 2941,-54 3059,-54 3059,-90"/>
<text text-anchor="middle" x="3000" y="-68.9" font-family="Times New Roman,serif" font-size="12.00">Evaluate financial risks</text>
</g>
<!-- 2059005118352&#45;&gt;2059005196848 -->
<g id="edge51" class="edge">
<title>2059005118352&#45;&gt;2059005196848</title>
<path fill="none" stroke="black" d="M2905.22,-72C2913.22,-72 2921.82,-72 2930.45,-72"/>
<polygon fill="black" stroke="black" points="2930.56,-75.5 2940.56,-72 2930.56,-68.5 2930.56,-75.5"/>
</g>
<!-- 2059005193584 -->
<g id="node37" class="node">
<title>2059005193584</title>
<polygon fill="none" stroke="black" points="3122,-117 3095,-99 3122,-81 3149,-99 3122,-117"/>
<text text-anchor="middle" x="3122" y="-95.9" font-family="Times New Roman,serif" font-size="12.00">X</text>
</g>
<!-- 2059005120032&#45;&gt;2059005193584 -->
<g id="edge52" class="edge">
<title>2059005120032&#45;&gt;2059005193584</title>
<path fill="none" stroke="black" d="M3053.28,-114.24C3066.34,-111.3 3079.89,-108.25 3091.41,-105.66"/>
<polygon fill="black" stroke="black" points="3092.36,-109.03 3101.35,-103.42 3090.82,-102.2 3092.36,-109.03"/>
</g>
<!-- 2059005121088 -->
<g id="node39" class="node">
<title>2059005121088</title>
<ellipse fill="orange" stroke="black" cx="3203" cy="-99" rx="18" ry="18"/>
</g>
<!-- 2059005193584&#45;&gt;2059005121088 -->
<g id="edge54" class="edge">
<title>2059005193584&#45;&gt;2059005121088</title>
<path fill="none" stroke="black" d="M3149.31,-99C3157.42,-99 3166.37,-99 3174.56,-99"/>
<polygon fill="black" stroke="black" points="3174.75,-102.5 3184.75,-99 3174.75,-95.5 3174.75,-102.5"/>
</g>
<!-- 2059005196848&#45;&gt;2059005193584 -->
<g id="edge53" class="edge">
<title>2059005196848&#45;&gt;2059005193584</title>
<path fill="none" stroke="black" d="M3059.24,-85.1C3070.38,-87.61 3081.6,-90.14 3091.36,-92.33"/>
<polygon fill="black" stroke="black" points="3090.79,-95.79 3101.31,-94.57 3092.33,-88.96 3090.79,-95.79"/>
</g>
</g>
</svg>
