<?xml version="1.0" encoding="UTF-8" standalone="no"?>
<!DOCTYPE svg PUBLIC "-//W3C//DTD SVG 1.1//EN"
 "http://www.w3.org/Graphics/SVG/1.1/DTD/svg11.dtd">
<!-- Generated by graphviz version 2.50.0 (0)
 -->
<!-- Pages: 1 -->
<svg width="3136pt" height="140pt"
 viewBox="0.00 0.00 3136.00 140.00" xmlns="http://www.w3.org/2000/svg" xmlns:xlink="http://www.w3.org/1999/xlink">
<g id="graph0" class="graph" transform="scale(1 1) rotate(0) translate(4 136)">
<polygon fill="white" stroke="transparent" points="-4,4 -4,-136 3132,-136 3132,4 -4,4"/>
<!-- 6420424784 -->
<g id="node1" class="node">
<title>6420424784</title>
<ellipse fill="green" stroke="black" cx="18" cy="-45" rx="18" ry="18"/>
</g>
<!-- 6419204048 -->
<g id="node2" class="node">
<title>6419204048</title>
<polygon fill="none" stroke="black" points="209,-63 72,-63 72,-27 209,-27 209,-63"/>
<text text-anchor="middle" x="140.5" y="-41.9" font-family="Times,serif" font-size="12.00">Receive customer inquiry</text>
</g>
<!-- 6420424784&#45;&gt;6419204048 -->
<g id="edge1" class="edge">
<title>6420424784&#45;&gt;6419204048</title>
<path fill="none" stroke="black" d="M36.01,-45C43.18,-45 52.09,-45 61.64,-45"/>
<polygon fill="black" stroke="black" points="61.78,-48.5 71.78,-45 61.78,-41.5 61.78,-48.5"/>
</g>
<!-- 6419448016 -->
<g id="node3" class="node">
<title>6419448016</title>
<polygon fill="none" stroke="black" points="272,-63 245,-45 272,-27 299,-45 272,-63"/>
<text text-anchor="middle" x="272" y="-41.9" font-family="Times,serif" font-size="12.00">X</text>
</g>
<!-- 6419204048&#45;&gt;6419448016 -->
<g id="edge2" class="edge">
<title>6419204048&#45;&gt;6419448016</title>
<path fill="none" stroke="black" d="M209.28,-45C218.05,-45 226.74,-45 234.71,-45"/>
<polygon fill="black" stroke="black" points="234.73,-48.5 244.73,-45 234.73,-41.5 234.73,-48.5"/>
</g>
<!-- 6420427536 -->
<g id="node4" class="node">
<title>6420427536</title>
<polygon fill="none" stroke="black" points="412,-90 385,-72 412,-54 439,-72 412,-90"/>
<text text-anchor="middle" x="412" y="-68.9" font-family="Times,serif" font-size="12.00">X</text>
</g>
<!-- 6419448016&#45;&gt;6420427536 -->
<g id="edge4" class="edge">
<title>6419448016&#45;&gt;6420427536</title>
<path fill="none" stroke="black" d="M293.36,-48.98C316.4,-53.49 354.14,-60.88 380.65,-66.06"/>
<polygon fill="black" stroke="black" points="380.07,-69.51 390.55,-68 381.41,-62.64 380.07,-69.51"/>
</g>
<!-- 6419841936 -->
<g id="node5" class="node">
<title>6419841936</title>
<polygon fill="none" stroke="black" points="489,-36 335,-36 335,0 489,0 489,-36"/>
<text text-anchor="middle" x="412" y="-14.9" font-family="Times,serif" font-size="12.00">Collect customer information</text>
</g>
<!-- 6419448016&#45;&gt;6419841936 -->
<g id="edge3" class="edge">
<title>6419448016&#45;&gt;6419841936</title>
<path fill="none" stroke="black" d="M293.36,-41.02C302.21,-39.29 313.22,-37.13 324.94,-34.84"/>
<polygon fill="black" stroke="black" points="325.77,-38.24 334.91,-32.89 324.42,-31.37 325.77,-38.24"/>
</g>
<!-- 6419853136 -->
<g id="node7" class="node">
<title>6419853136</title>
<polygon fill="none" stroke="black" points="669.5,-132 586.5,-132 586.5,-96 669.5,-96 669.5,-132"/>
<text text-anchor="middle" x="628" y="-110.9" font-family="Times,serif" font-size="12.00">Provide quote</text>
</g>
<!-- 6420427536&#45;&gt;6419853136 -->
<g id="edge5" class="edge">
<title>6420427536&#45;&gt;6419853136</title>
<path fill="none" stroke="black" d="M433.13,-75.95C465.63,-82.33 530.64,-95.09 576.39,-104.07"/>
<polygon fill="black" stroke="black" points="575.93,-107.54 586.42,-106.04 577.28,-100.67 575.93,-107.54"/>
</g>
<!-- 6419450448 -->
<g id="node6" class="node">
<title>6419450448</title>
<polygon fill="none" stroke="black" points="731,-36 525,-36 525,0 731,0 731,-36"/>
<text text-anchor="middle" x="628" y="-14.9" font-family="Times,serif" font-size="12.00">Address customer concerns or questions</text>
</g>
<!-- 6419841936&#45;&gt;6419450448 -->
<g id="edge6" class="edge">
<title>6419841936&#45;&gt;6419450448</title>
<path fill="none" stroke="black" d="M489.05,-18C497.43,-18 506.08,-18 514.78,-18"/>
<polygon fill="black" stroke="black" points="515,-21.5 525,-18 515,-14.5 515,-21.5"/>
</g>
<!-- 6419452112 -->
<g id="node9" class="node">
<title>6419452112</title>
<polygon fill="none" stroke="black" points="990,-36 767,-36 767,0 990,0 990,-36"/>
<text text-anchor="middle" x="878.5" y="-14.9" font-family="Times,serif" font-size="12.00">Guide customer in selecting product/service</text>
</g>
<!-- 6419450448&#45;&gt;6419452112 -->
<g id="edge7" class="edge">
<title>6419450448&#45;&gt;6419452112</title>
<path fill="none" stroke="black" d="M731.15,-18C739.62,-18 748.23,-18 756.81,-18"/>
<polygon fill="black" stroke="black" points="756.87,-21.5 766.87,-18 756.87,-14.5 756.87,-21.5"/>
</g>
<!-- 6420425616 -->
<g id="node8" class="node">
<title>6420425616</title>
<polygon fill="none" stroke="black" points="878.5,-90 851.5,-72 878.5,-54 905.5,-72 878.5,-90"/>
<text text-anchor="middle" x="878.5" y="-68.9" font-family="Times,serif" font-size="12.00">X</text>
</g>
<!-- 6419853136&#45;&gt;6420425616 -->
<g id="edge8" class="edge">
<title>6419853136&#45;&gt;6420425616</title>
<path fill="none" stroke="black" d="M669.76,-107.11C719.34,-98.73 801.95,-84.77 846.6,-77.22"/>
<polygon fill="black" stroke="black" points="847.29,-80.66 856.57,-75.54 846.12,-73.75 847.29,-80.66"/>
</g>
<!-- 6420425616&#45;&gt;6420427536 -->
<g id="edge9" class="edge">
<title>6420425616&#45;&gt;6420427536</title>
<path fill="none" stroke="black" d="M851.48,-72C773.22,-72 539.79,-72 449.36,-72"/>
<polygon fill="black" stroke="black" points="449.3,-68.5 439.3,-72 449.3,-75.5 449.3,-68.5"/>
</g>
<!-- 6420427152 -->
<g id="node10" class="node">
<title>6420427152</title>
<polygon fill="none" stroke="black" points="1546,-66 1519,-48 1546,-30 1573,-48 1546,-66"/>
<text text-anchor="middle" x="1546" y="-44.9" font-family="Times,serif" font-size="12.00">X</text>
</g>
<!-- 6420425616&#45;&gt;6420427152 -->
<g id="edge10" class="edge">
<title>6420425616&#45;&gt;6420427152</title>
<path fill="none" stroke="black" d="M904.81,-71.44C987.76,-69.56 1258.93,-62.94 1483,-52 1492.24,-51.55 1502.24,-50.95 1511.46,-50.36"/>
<polygon fill="black" stroke="black" points="1511.71,-53.85 1521.46,-49.69 1511.25,-46.86 1511.71,-53.85"/>
</g>
<!-- 6419454736 -->
<g id="node11" class="node">
<title>6419454736</title>
<polygon fill="none" stroke="black" points="1096,-40 1026,-40 1026,-4 1096,-4 1096,-40"/>
<text text-anchor="middle" x="1061" y="-18.9" font-family="Times,serif" font-size="12.00">Place order</text>
</g>
<!-- 6419452112&#45;&gt;6419454736 -->
<g id="edge11" class="edge">
<title>6419452112&#45;&gt;6419454736</title>
<path fill="none" stroke="black" d="M990.21,-20.45C999.14,-20.65 1007.79,-20.84 1015.78,-21.02"/>
<polygon fill="black" stroke="black" points="1015.8,-24.52 1025.88,-21.24 1015.96,-17.52 1015.8,-24.52"/>
</g>
<!-- 6420429456 -->
<g id="node12" class="node">
<title>6420429456</title>
<polygon fill="none" stroke="black" points="1636,-66 1609,-48 1636,-30 1663,-48 1636,-66"/>
<text text-anchor="middle" x="1636" y="-44.9" font-family="Times,serif" font-size="12.00">X</text>
</g>
<!-- 6420427152&#45;&gt;6420429456 -->
<g id="edge12" class="edge">
<title>6420427152&#45;&gt;6420429456</title>
<path fill="none" stroke="black" d="M1573.4,-48C1581.39,-48 1590.31,-48 1598.82,-48"/>
<polygon fill="black" stroke="black" points="1598.92,-51.5 1608.92,-48 1598.92,-44.5 1598.92,-51.5"/>
</g>
<!-- 6419453776 -->
<g id="node13" class="node">
<title>6419453776</title>
<polygon fill="none" stroke="black" points="1258,-42 1132,-42 1132,-6 1258,-6 1258,-42"/>
<text text-anchor="middle" x="1195" y="-20.9" font-family="Times,serif" font-size="12.00">Record order in system</text>
</g>
<!-- 6419454736&#45;&gt;6419453776 -->
<g id="edge13" class="edge">
<title>6419454736&#45;&gt;6419453776</title>
<path fill="none" stroke="black" d="M1096.34,-22.52C1104.27,-22.64 1113.01,-22.77 1121.9,-22.91"/>
<polygon fill="black" stroke="black" points="1121.91,-26.41 1131.96,-23.06 1122.01,-19.41 1121.91,-26.41"/>
</g>
<!-- 6420425232 -->
<g id="node14" class="node">
<title>6420425232</title>
<polygon fill="none" stroke="black" points="3029,-66 3002,-48 3029,-30 3056,-48 3029,-66"/>
<text text-anchor="middle" x="3029" y="-44.9" font-family="Times,serif" font-size="12.00">X</text>
</g>
<!-- 6420429456&#45;&gt;6420425232 -->
<g id="edge15" class="edge">
<title>6420429456&#45;&gt;6420425232</title>
<path fill="none" stroke="black" d="M1659.67,-50.33C1718.55,-56.18 1881.18,-71 2017,-71 2017,-71 2017,-71 2679,-71 2795.57,-71 2933.57,-58.07 2995.3,-51.6"/>
<polygon fill="black" stroke="black" points="2996,-55.04 3005.58,-50.51 2995.26,-48.08 2996,-55.04"/>
</g>
<!-- 6419850576 -->
<g id="node15" class="node">
<title>6419850576</title>
<polygon fill="none" stroke="black" points="1905,-43 1699,-43 1699,-7 1905,-7 1905,-43"/>
<text text-anchor="middle" x="1802" y="-21.9" font-family="Times,serif" font-size="12.00">Address customer concerns or questions</text>
</g>
<!-- 6420429456&#45;&gt;6419850576 -->
<g id="edge14" class="edge">
<title>6420429456&#45;&gt;6419850576</title>
<path fill="none" stroke="black" d="M1658.78,-44.95C1667.2,-43.76 1677.52,-42.32 1688.7,-40.75"/>
<polygon fill="black" stroke="black" points="1689.32,-44.2 1698.74,-39.34 1688.35,-37.26 1689.32,-44.2"/>
</g>
<!-- 6419458064 -->
<g id="node16" class="node">
<title>6419458064</title>
<polygon fill="none" stroke="black" points="1483,-43 1294,-43 1294,-7 1483,-7 1483,-43"/>
<text text-anchor="middle" x="1388.5" y="-21.9" font-family="Times,serif" font-size="12.00">Send order confirmation to customer</text>
</g>
<!-- 6419453776&#45;&gt;6419458064 -->
<g id="edge16" class="edge">
<title>6419453776&#45;&gt;6419458064</title>
<path fill="none" stroke="black" d="M1258.17,-24.32C1266.42,-24.37 1275.04,-24.41 1283.75,-24.46"/>
<polygon fill="black" stroke="black" points="1283.98,-27.96 1294,-24.51 1284.02,-20.96 1283.98,-27.96"/>
</g>
<!-- 6419486608 -->
<g id="node23" class="node">
<title>6419486608</title>
<ellipse fill="orange" stroke="black" cx="3110" cy="-48" rx="18" ry="18"/>
</g>
<!-- 6420425232&#45;&gt;6419486608 -->
<g id="edge19" class="edge">
<title>6420425232&#45;&gt;6419486608</title>
<path fill="none" stroke="black" d="M3056.31,-48C3064.42,-48 3073.37,-48 3081.56,-48"/>
<polygon fill="black" stroke="black" points="3081.75,-51.5 3091.75,-48 3081.75,-44.5 3081.75,-51.5"/>
</g>
<!-- 6420423056 -->
<g id="node17" class="node">
<title>6420423056</title>
<polygon fill="none" stroke="black" points="2095,-43 1941,-43 1941,-7 2095,-7 2095,-43"/>
<text text-anchor="middle" x="2018" y="-21.9" font-family="Times,serif" font-size="12.00">Collect customer information</text>
</g>
<!-- 6419850576&#45;&gt;6420423056 -->
<g id="edge18" class="edge">
<title>6419850576&#45;&gt;6420423056</title>
<path fill="none" stroke="black" d="M1905.3,-25C1913.78,-25 1922.3,-25 1930.64,-25"/>
<polygon fill="black" stroke="black" points="1930.72,-28.5 1940.72,-25 1930.72,-21.5 1930.72,-28.5"/>
</g>
<!-- 6419458064&#45;&gt;6420427152 -->
<g id="edge17" class="edge">
<title>6419458064&#45;&gt;6420427152</title>
<path fill="none" stroke="black" d="M1483.1,-38.84C1494.01,-40.46 1504.48,-42.01 1513.61,-43.36"/>
<polygon fill="black" stroke="black" points="1513.26,-46.84 1523.66,-44.84 1514.28,-39.92 1513.26,-46.84"/>
</g>
<!-- 6420007504 -->
<g id="node18" class="node">
<title>6420007504</title>
<polygon fill="none" stroke="black" points="2354,-43 2131,-43 2131,-7 2354,-7 2354,-43"/>
<text text-anchor="middle" x="2242.5" y="-21.9" font-family="Times,serif" font-size="12.00">Guide customer in selecting product/service</text>
</g>
<!-- 6420423056&#45;&gt;6420007504 -->
<g id="edge20" class="edge">
<title>6420423056&#45;&gt;6420007504</title>
<path fill="none" stroke="black" d="M2095.26,-25C2103.49,-25 2112,-25 2120.59,-25"/>
<polygon fill="black" stroke="black" points="2120.7,-28.5 2130.7,-25 2120.7,-21.5 2120.7,-28.5"/>
</g>
<!-- 6419288528 -->
<g id="node19" class="node">
<title>6419288528</title>
<polygon fill="none" stroke="black" points="2473,-43 2390,-43 2390,-7 2473,-7 2473,-43"/>
<text text-anchor="middle" x="2431.5" y="-21.9" font-family="Times,serif" font-size="12.00">Provide quote</text>
</g>
<!-- 6420007504&#45;&gt;6419288528 -->
<g id="edge21" class="edge">
<title>6420007504&#45;&gt;6419288528</title>
<path fill="none" stroke="black" d="M2354.17,-25C2362.94,-25 2371.51,-25 2379.54,-25"/>
<polygon fill="black" stroke="black" points="2379.77,-28.5 2389.77,-25 2379.77,-21.5 2379.77,-28.5"/>
</g>
<!-- 6419843472 -->
<g id="node20" class="node">
<title>6419843472</title>
<polygon fill="none" stroke="black" points="2579,-43 2509,-43 2509,-7 2579,-7 2579,-43"/>
<text text-anchor="middle" x="2544" y="-21.9" font-family="Times,serif" font-size="12.00">Place order</text>
</g>
<!-- 6419288528&#45;&gt;6419843472 -->
<g id="edge22" class="edge">
<title>6419288528&#45;&gt;6419843472</title>
<path fill="none" stroke="black" d="M2473.02,-25C2481.34,-25 2490.14,-25 2498.59,-25"/>
<polygon fill="black" stroke="black" points="2498.66,-28.5 2508.66,-25 2498.66,-21.5 2498.66,-28.5"/>
</g>
<!-- 6419456400 -->
<g id="node21" class="node">
<title>6419456400</title>
<polygon fill="none" stroke="black" points="2741,-43 2615,-43 2615,-7 2741,-7 2741,-43"/>
<text text-anchor="middle" x="2678" y="-21.9" font-family="Times,serif" font-size="12.00">Record order in system</text>
</g>
<!-- 6419843472&#45;&gt;6419456400 -->
<g id="edge23" class="edge">
<title>6419843472&#45;&gt;6419456400</title>
<path fill="none" stroke="black" d="M2579.34,-25C2587.27,-25 2596.01,-25 2604.9,-25"/>
<polygon fill="black" stroke="black" points="2604.96,-28.5 2614.96,-25 2604.96,-21.5 2604.96,-28.5"/>
</g>
<!-- 6419733520 -->
<g id="node22" class="node">
<title>6419733520</title>
<polygon fill="none" stroke="black" points="2966,-43 2777,-43 2777,-7 2966,-7 2966,-43"/>
<text text-anchor="middle" x="2871.5" y="-21.9" font-family="Times,serif" font-size="12.00">Send order confirmation to customer</text>
</g>
<!-- 6419456400&#45;&gt;6419733520 -->
<g id="edge24" class="edge">
<title>6419456400&#45;&gt;6419733520</title>
<path fill="none" stroke="black" d="M2741.17,-25C2749.42,-25 2758.04,-25 2766.75,-25"/>
<polygon fill="black" stroke="black" points="2767,-28.5 2777,-25 2767,-21.5 2767,-28.5"/>
</g>
<!-- 6419733520&#45;&gt;6420425232 -->
<g id="edge25" class="edge">
<title>6419733520&#45;&gt;6420425232</title>
<path fill="none" stroke="black" d="M2966.1,-38.84C2977.01,-40.46 2987.48,-42.01 2996.61,-43.36"/>
<polygon fill="black" stroke="black" points="2996.26,-46.84 3006.66,-44.84 2997.28,-39.92 2996.26,-46.84"/>
</g>
</g>
</svg>
