<?xml version="1.0" encoding="UTF-8" standalone="no"?>
<!DOCTYPE svg PUBLIC "-//W3C//DTD SVG 1.1//EN"
 "http://www.w3.org/Graphics/SVG/1.1/DTD/svg11.dtd">
<!-- Generated by graphviz version 2.50.0 (0)
 -->
<!-- Pages: 1 -->
<svg width="1940pt" height="98pt"
 viewBox="0.00 0.00 1940.00 98.00" xmlns="http://www.w3.org/2000/svg" xmlns:xlink="http://www.w3.org/1999/xlink">
<g id="graph0" class="graph" transform="scale(1 1) rotate(0) translate(4 94)">
<polygon fill="white" stroke="transparent" points="-4,4 -4,-94 1936,-94 1936,4 -4,4"/>
<!-- 6420915216 -->
<g id="node1" class="node">
<title>6420915216</title>
<ellipse fill="green" stroke="black" cx="18" cy="-45" rx="18" ry="18"/>
</g>
<!-- 6420914832 -->
<g id="node2" class="node">
<title>6420914832</title>
<polygon fill="none" stroke="black" points="99,-63 72,-45 99,-27 126,-45 99,-63"/>
<text text-anchor="middle" x="99" y="-41.9" font-family="Times,serif" font-size="12.00">X</text>
</g>
<!-- 6420915216&#45;&gt;6420914832 -->
<g id="edge1" class="edge">
<title>6420915216&#45;&gt;6420914832</title>
<path fill="none" stroke="black" d="M36.14,-45C43.64,-45 52.75,-45 61.64,-45"/>
<polygon fill="black" stroke="black" points="61.87,-48.5 71.87,-45 61.87,-41.5 61.87,-48.5"/>
</g>
<!-- 6439535120 -->
<g id="node3" class="node">
<title>6439535120</title>
<polygon fill="none" stroke="black" points="351,-90 162,-90 162,-54 351,-54 351,-90"/>
<text text-anchor="middle" x="256.5" y="-68.9" font-family="Times,serif" font-size="12.00">Send order confirmation to customer</text>
</g>
<!-- 6420914832&#45;&gt;6439535120 -->
<g id="edge3" class="edge">
<title>6420914832&#45;&gt;6439535120</title>
<path fill="none" stroke="black" d="M120.65,-48.59C129.36,-50.1 140.21,-51.98 151.94,-54.02"/>
<polygon fill="black" stroke="black" points="151.52,-57.5 161.97,-55.76 152.72,-50.6 151.52,-57.5"/>
</g>
<!-- 6420972560 -->
<g id="node4" class="node">
<title>6420972560</title>
<polygon fill="none" stroke="black" points="298,-36 215,-36 215,0 298,0 298,-36"/>
<text text-anchor="middle" x="256.5" y="-14.9" font-family="Times,serif" font-size="12.00">Provide quote</text>
</g>
<!-- 6420914832&#45;&gt;6420972560 -->
<g id="edge2" class="edge">
<title>6420914832&#45;&gt;6420972560</title>
<path fill="none" stroke="black" d="M120.65,-41.41C142.08,-37.69 176.41,-31.73 205.07,-26.76"/>
<polygon fill="black" stroke="black" points="205.69,-30.2 214.94,-25.04 204.49,-23.3 205.69,-30.2"/>
</g>
<!-- 6439536784 -->
<g id="node5" class="node">
<title>6439536784</title>
<polygon fill="none" stroke="black" points="561.5,-90 435.5,-90 435.5,-54 561.5,-54 561.5,-90"/>
<text text-anchor="middle" x="498.5" y="-68.9" font-family="Times,serif" font-size="12.00">Record order in system</text>
</g>
<!-- 6439535120&#45;&gt;6439536784 -->
<g id="edge4" class="edge">
<title>6439535120&#45;&gt;6439536784</title>
<path fill="none" stroke="black" d="M351.32,-72C375.83,-72 401.87,-72 425.08,-72"/>
<polygon fill="black" stroke="black" points="425.18,-75.5 435.18,-72 425.18,-68.5 425.18,-75.5"/>
</g>
<!-- 6420212496 -->
<g id="node6" class="node">
<title>6420212496</title>
<polygon fill="none" stroke="black" points="610,-36 387,-36 387,0 610,0 610,-36"/>
<text text-anchor="middle" x="498.5" y="-14.9" font-family="Times,serif" font-size="12.00">Guide customer in selecting product/service</text>
</g>
<!-- 6420972560&#45;&gt;6420212496 -->
<g id="edge5" class="edge">
<title>6420972560&#45;&gt;6420212496</title>
<path fill="none" stroke="black" d="M298.21,-18C320.17,-18 348.53,-18 376.93,-18"/>
<polygon fill="black" stroke="black" points="376.97,-21.5 386.97,-18 376.97,-14.5 376.97,-21.5"/>
</g>
<!-- 6439792592 -->
<g id="node7" class="node">
<title>6439792592</title>
<polygon fill="none" stroke="black" points="764.5,-90 681.5,-90 681.5,-54 764.5,-54 764.5,-90"/>
<text text-anchor="middle" x="723" y="-68.9" font-family="Times,serif" font-size="12.00">Provide quote</text>
</g>
<!-- 6439536784&#45;&gt;6439792592 -->
<g id="edge6" class="edge">
<title>6439536784&#45;&gt;6439792592</title>
<path fill="none" stroke="black" d="M561.77,-72C596.23,-72 638.51,-72 670.99,-72"/>
<polygon fill="black" stroke="black" points="671.17,-75.5 681.17,-72 671.17,-68.5 671.17,-75.5"/>
</g>
<!-- 6420910352 -->
<g id="node8" class="node">
<title>6420910352</title>
<polygon fill="none" stroke="black" points="800,-36 646,-36 646,0 800,0 800,-36"/>
<text text-anchor="middle" x="723" y="-14.9" font-family="Times,serif" font-size="12.00">Collect customer information</text>
</g>
<!-- 6420212496&#45;&gt;6420910352 -->
<g id="edge7" class="edge">
<title>6420212496&#45;&gt;6420910352</title>
<path fill="none" stroke="black" d="M610.1,-18C618.7,-18 627.32,-18 635.73,-18"/>
<polygon fill="black" stroke="black" points="635.87,-21.5 645.87,-18 635.87,-14.5 635.87,-21.5"/>
</g>
<!-- 6439901136 -->
<g id="node9" class="node">
<title>6439901136</title>
<polygon fill="none" stroke="black" points="906,-90 836,-90 836,-54 906,-54 906,-90"/>
<text text-anchor="middle" x="871" y="-68.9" font-family="Times,serif" font-size="12.00">Place order</text>
</g>
<!-- 6439792592&#45;&gt;6439901136 -->
<g id="edge8" class="edge">
<title>6439792592&#45;&gt;6439901136</title>
<path fill="none" stroke="black" d="M764.67,-72C783.69,-72 806.39,-72 825.83,-72"/>
<polygon fill="black" stroke="black" points="825.96,-75.5 835.96,-72 825.96,-68.5 825.96,-75.5"/>
</g>
<!-- 6420907728 -->
<g id="node10" class="node">
<title>6420907728</title>
<polygon fill="none" stroke="black" points="1122,-36 985,-36 985,0 1122,0 1122,-36"/>
<text text-anchor="middle" x="1053.5" y="-14.9" font-family="Times,serif" font-size="12.00">Receive customer inquiry</text>
</g>
<!-- 6420910352&#45;&gt;6420907728 -->
<g id="edge9" class="edge">
<title>6420910352&#45;&gt;6420907728</title>
<path fill="none" stroke="black" d="M800.19,-18C852.52,-18 921.78,-18 974.5,-18"/>
<polygon fill="black" stroke="black" points="974.81,-21.5 984.81,-18 974.81,-14.5 974.81,-21.5"/>
</g>
<!-- 6420979152 -->
<g id="node12" class="node">
<title>6420979152</title>
<polygon fill="none" stroke="black" points="1165,-90 942,-90 942,-54 1165,-54 1165,-90"/>
<text text-anchor="middle" x="1053.5" y="-68.9" font-family="Times,serif" font-size="12.00">Guide customer in selecting product/service</text>
</g>
<!-- 6439901136&#45;&gt;6420979152 -->
<g id="edge10" class="edge">
<title>6439901136&#45;&gt;6420979152</title>
<path fill="none" stroke="black" d="M906.38,-72C914.11,-72 922.75,-72 931.86,-72"/>
<polygon fill="black" stroke="black" points="931.91,-75.5 941.91,-72 931.91,-68.5 931.91,-75.5"/>
</g>
<!-- 6420918736 -->
<g id="node11" class="node">
<title>6420918736</title>
<polygon fill="none" stroke="black" points="1833,-63 1806,-45 1833,-27 1860,-45 1833,-63"/>
<text text-anchor="middle" x="1833" y="-41.9" font-family="Times,serif" font-size="12.00">X</text>
</g>
<!-- 6420907728&#45;&gt;6420918736 -->
<g id="edge11" class="edge">
<title>6420907728&#45;&gt;6420918736</title>
<path fill="none" stroke="black" d="M1122.14,-20.35C1281.73,-25.89 1677.31,-39.63 1797.08,-43.79"/>
<polygon fill="black" stroke="black" points="1797.04,-47.29 1807.16,-44.14 1797.29,-40.29 1797.04,-47.29"/>
</g>
<!-- 6439537424 -->
<g id="node16" class="node">
<title>6439537424</title>
<ellipse fill="orange" stroke="black" cx="1914" cy="-45" rx="18" ry="18"/>
</g>
<!-- 6420918736&#45;&gt;6439537424 -->
<g id="edge13" class="edge">
<title>6420918736&#45;&gt;6439537424</title>
<path fill="none" stroke="black" d="M1860.31,-45C1868.42,-45 1877.37,-45 1885.56,-45"/>
<polygon fill="black" stroke="black" points="1885.75,-48.5 1895.75,-45 1885.75,-41.5 1885.75,-48.5"/>
</g>
<!-- 6420972112 -->
<g id="node13" class="node">
<title>6420972112</title>
<polygon fill="none" stroke="black" points="1355,-89 1201,-89 1201,-53 1355,-53 1355,-89"/>
<text text-anchor="middle" x="1278" y="-67.9" font-family="Times,serif" font-size="12.00">Collect customer information</text>
</g>
<!-- 6420979152&#45;&gt;6420972112 -->
<g id="edge12" class="edge">
<title>6420979152&#45;&gt;6420972112</title>
<path fill="none" stroke="black" d="M1165.1,-71.5C1173.7,-71.46 1182.32,-71.43 1190.73,-71.39"/>
<polygon fill="black" stroke="black" points="1190.89,-74.89 1200.87,-71.34 1190.86,-67.89 1190.89,-74.89"/>
</g>
<!-- 6420920784 -->
<g id="node14" class="node">
<title>6420920784</title>
<polygon fill="none" stroke="black" points="1597,-89 1391,-89 1391,-53 1597,-53 1597,-89"/>
<text text-anchor="middle" x="1494" y="-67.9" font-family="Times,serif" font-size="12.00">Address customer concerns or questions</text>
</g>
<!-- 6420972112&#45;&gt;6420920784 -->
<g id="edge14" class="edge">
<title>6420972112&#45;&gt;6420920784</title>
<path fill="none" stroke="black" d="M1355.05,-71C1363.43,-71 1372.08,-71 1380.78,-71"/>
<polygon fill="black" stroke="black" points="1381,-74.5 1391,-71 1381,-67.5 1381,-74.5"/>
</g>
<!-- 6420910736 -->
<g id="node15" class="node">
<title>6420910736</title>
<polygon fill="none" stroke="black" points="1770,-88 1633,-88 1633,-52 1770,-52 1770,-88"/>
<text text-anchor="middle" x="1701.5" y="-66.9" font-family="Times,serif" font-size="12.00">Receive customer inquiry</text>
</g>
<!-- 6420920784&#45;&gt;6420910736 -->
<g id="edge15" class="edge">
<title>6420920784&#45;&gt;6420910736</title>
<path fill="none" stroke="black" d="M1597.15,-70.5C1605.74,-70.46 1614.34,-70.42 1622.71,-70.38"/>
<polygon fill="black" stroke="black" points="1622.79,-73.88 1632.78,-70.33 1622.76,-66.88 1622.79,-73.88"/>
</g>
<!-- 6420910736&#45;&gt;6420918736 -->
<g id="edge16" class="edge">
<title>6420910736&#45;&gt;6420918736</title>
<path fill="none" stroke="black" d="M1770.28,-56.91C1781.31,-54.79 1792.22,-52.68 1801.73,-50.84"/>
<polygon fill="black" stroke="black" points="1802.65,-54.23 1811.8,-48.9 1801.32,-47.36 1802.65,-54.23"/>
</g>
</g>
</svg>
