<?xml version="1.0" encoding="UTF-8" standalone="no"?>
<!DOCTYPE svg PUBLIC "-//W3C//DTD SVG 1.1//EN"
 "http://www.w3.org/Graphics/SVG/1.1/DTD/svg11.dtd">
<!-- Generated by graphviz version 2.50.0 (0)
 -->
<!-- Pages: 1 -->
<svg width="2145pt" height="422pt"
 viewBox="0.00 0.00 2145.00 422.00" xmlns="http://www.w3.org/2000/svg" xmlns:xlink="http://www.w3.org/1999/xlink">
<g id="graph0" class="graph" transform="scale(1 1) rotate(0) translate(4 418)">
<polygon fill="white" stroke="transparent" points="-4,4 -4,-418 2141,-418 2141,4 -4,4"/>
<!-- 12904129168 -->
<g id="node1" class="node">
<title>12904129168</title>
<ellipse fill="green" stroke="black" cx="18" cy="-180" rx="18" ry="18"/>
</g>
<!-- 12904121296 -->
<g id="node2" class="node">
<title>12904121296</title>
<polygon fill="none" stroke="black" points="99,-198 72,-180 99,-162 126,-180 99,-198"/>
<text text-anchor="middle" x="99" y="-176.9" font-family="Times,serif" font-size="12.00">X</text>
</g>
<!-- 12904129168&#45;&gt;12904121296 -->
<g id="edge1" class="edge">
<title>12904129168&#45;&gt;12904121296</title>
<path fill="none" stroke="black" d="M36.14,-180C43.64,-180 52.75,-180 61.64,-180"/>
<polygon fill="black" stroke="black" points="61.87,-183.5 71.87,-180 61.87,-176.5 61.87,-183.5"/>
</g>
<!-- 12904185552 -->
<g id="node3" class="node">
<title>12904185552</title>
<polygon fill="none" stroke="black" points="298,-387 215,-387 215,-351 298,-351 298,-387"/>
<text text-anchor="middle" x="256.5" y="-365.9" font-family="Times,serif" font-size="12.00">Provide quote</text>
</g>
<!-- 12904121296&#45;&gt;12904185552 -->
<g id="edge8" class="edge">
<title>12904121296&#45;&gt;12904185552</title>
<path fill="none" stroke="black" d="M103.66,-195.07C110.83,-221.96 129,-278.77 162,-315 174.13,-328.32 190.34,-339.25 205.85,-347.71"/>
<polygon fill="black" stroke="black" points="204.38,-350.89 214.86,-352.4 207.61,-344.68 204.38,-350.89"/>
</g>
<!-- 12904196752 -->
<g id="node4" class="node">
<title>12904196752</title>
<polygon fill="none" stroke="black" points="256.5,-306 229.5,-288 256.5,-270 283.5,-288 256.5,-306"/>
<text text-anchor="middle" x="256.5" y="-284.9" font-family="Times,serif" font-size="12.00">+</text>
</g>
<!-- 12904121296&#45;&gt;12904196752 -->
<g id="edge2" class="edge">
<title>12904121296&#45;&gt;12904196752</title>
<path fill="none" stroke="black" d="M106.51,-193.02C116.16,-211 135.97,-243.22 162,-261 180.13,-273.38 203.94,-280.15 223,-283.82"/>
<polygon fill="black" stroke="black" points="222.58,-287.29 233.03,-285.55 223.77,-280.4 222.58,-287.29"/>
</g>
<!-- 12904199312 -->
<g id="node5" class="node">
<title>12904199312</title>
<polygon fill="none" stroke="black" points="298,-252 215,-252 215,-216 298,-216 298,-252"/>
<text text-anchor="middle" x="256.5" y="-230.9" font-family="Times,serif" font-size="12.00">Provide quote</text>
</g>
<!-- 12904121296&#45;&gt;12904199312 -->
<g id="edge7" class="edge">
<title>12904121296&#45;&gt;12904199312</title>
<path fill="none" stroke="black" d="M115.32,-187.33C127.73,-193.11 145.76,-201.15 162,-207 175.69,-211.93 190.74,-216.6 204.7,-220.63"/>
<polygon fill="black" stroke="black" points="204.06,-224.08 214.63,-223.44 205.96,-217.35 204.06,-224.08"/>
</g>
<!-- 12904211024 -->
<g id="node6" class="node">
<title>12904211024</title>
<polygon fill="none" stroke="black" points="298,-198 215,-198 215,-162 298,-162 298,-198"/>
<text text-anchor="middle" x="256.5" y="-176.9" font-family="Times,serif" font-size="12.00">Provide quote</text>
</g>
<!-- 12904121296&#45;&gt;12904211024 -->
<g id="edge5" class="edge">
<title>12904121296&#45;&gt;12904211024</title>
<path fill="none" stroke="black" d="M126.03,-180C147.4,-180 178.31,-180 204.57,-180"/>
<polygon fill="black" stroke="black" points="204.75,-183.5 214.75,-180 204.75,-176.5 204.75,-183.5"/>
</g>
<!-- 12904221072 -->
<g id="node7" class="node">
<title>12904221072</title>
<polygon fill="none" stroke="black" points="298,-144 215,-144 215,-108 298,-108 298,-144"/>
<text text-anchor="middle" x="256.5" y="-122.9" font-family="Times,serif" font-size="12.00">Provide quote</text>
</g>
<!-- 12904121296&#45;&gt;12904221072 -->
<g id="edge6" class="edge">
<title>12904121296&#45;&gt;12904221072</title>
<path fill="none" stroke="black" d="M115.32,-172.67C127.73,-166.89 145.76,-158.85 162,-153 175.69,-148.07 190.74,-143.4 204.7,-139.37"/>
<polygon fill="black" stroke="black" points="205.96,-142.65 214.63,-136.56 204.06,-135.92 205.96,-142.65"/>
</g>
<!-- 12904233104 -->
<g id="node8" class="node">
<title>12904233104</title>
<polygon fill="none" stroke="black" points="351,-90 162,-90 162,-54 351,-54 351,-90"/>
<text text-anchor="middle" x="256.5" y="-68.9" font-family="Times,serif" font-size="12.00">Send order confirmation to customer</text>
</g>
<!-- 12904121296&#45;&gt;12904233104 -->
<g id="edge4" class="edge">
<title>12904121296&#45;&gt;12904233104</title>
<path fill="none" stroke="black" d="M106.51,-166.98C116.16,-149 135.97,-116.78 162,-99 164.14,-97.54 166.35,-96.16 168.63,-94.85"/>
<polygon fill="black" stroke="black" points="170.41,-97.87 177.68,-90.17 167.19,-91.65 170.41,-97.87"/>
</g>
<!-- 12904240208 -->
<g id="node9" class="node">
<title>12904240208</title>
<polygon fill="none" stroke="black" points="351,-36 162,-36 162,0 351,0 351,-36"/>
<text text-anchor="middle" x="256.5" y="-14.9" font-family="Times,serif" font-size="12.00">Send order confirmation to customer</text>
</g>
<!-- 12904121296&#45;&gt;12904240208 -->
<g id="edge3" class="edge">
<title>12904121296&#45;&gt;12904240208</title>
<path fill="none" stroke="black" d="M102.83,-164.08C108.7,-135.85 124.86,-76.97 162,-45 163.32,-43.86 164.69,-42.77 166.09,-41.73"/>
<polygon fill="black" stroke="black" points="168.06,-44.63 174.53,-36.24 164.24,-38.76 168.06,-44.63"/>
</g>
<!-- 12904243536 -->
<g id="node16" class="node">
<title>12904243536</title>
<polygon fill="none" stroke="black" points="610,-414 387,-414 387,-378 610,-378 610,-414"/>
<text text-anchor="middle" x="498.5" y="-392.9" font-family="Times,serif" font-size="12.00">Guide customer in selecting product/service</text>
</g>
<!-- 12904185552&#45;&gt;12904243536 -->
<g id="edge9" class="edge">
<title>12904185552&#45;&gt;12904243536</title>
<path fill="none" stroke="black" d="M298.21,-373.58C320.17,-376.05 348.53,-379.24 376.93,-382.44"/>
<polygon fill="black" stroke="black" points="376.64,-385.92 386.97,-383.56 377.42,-378.97 376.64,-385.92"/>
</g>
<!-- 12904197648 -->
<g id="node13" class="node">
<title>12904197648</title>
<polygon fill="none" stroke="black" points="601.5,-360 395.5,-360 395.5,-324 601.5,-324 601.5,-360"/>
<text text-anchor="middle" x="498.5" y="-338.9" font-family="Times,serif" font-size="12.00">Address customer concerns or questions</text>
</g>
<!-- 12904196752&#45;&gt;12904197648 -->
<g id="edge10" class="edge">
<title>12904196752&#45;&gt;12904197648</title>
<path fill="none" stroke="black" d="M277.14,-292.42C305.52,-298.8 359.8,-311.02 407.39,-321.73"/>
<polygon fill="black" stroke="black" points="406.91,-325.2 417.43,-323.99 408.45,-318.38 406.91,-325.2"/>
</g>
<!-- 12904248528 -->
<g id="node17" class="node">
<title>12904248528</title>
<polygon fill="none" stroke="black" points="540,-306 457,-306 457,-270 540,-270 540,-306"/>
<text text-anchor="middle" x="498.5" y="-284.9" font-family="Times,serif" font-size="12.00">Provide quote</text>
</g>
<!-- 12904196752&#45;&gt;12904248528 -->
<g id="edge11" class="edge">
<title>12904196752&#45;&gt;12904248528</title>
<path fill="none" stroke="black" d="M283.64,-288C322.54,-288 396.44,-288 446.34,-288"/>
<polygon fill="black" stroke="black" points="446.6,-291.5 456.6,-288 446.6,-284.5 446.6,-291.5"/>
</g>
<!-- 12904190608 -->
<g id="node11" class="node">
<title>12904190608</title>
<polygon fill="none" stroke="black" points="610,-252 387,-252 387,-216 610,-216 610,-252"/>
<text text-anchor="middle" x="498.5" y="-230.9" font-family="Times,serif" font-size="12.00">Guide customer in selecting product/service</text>
</g>
<!-- 12904199312&#45;&gt;12904190608 -->
<g id="edge12" class="edge">
<title>12904199312&#45;&gt;12904190608</title>
<path fill="none" stroke="black" d="M298.21,-234C320.17,-234 348.53,-234 376.93,-234"/>
<polygon fill="black" stroke="black" points="376.97,-237.5 386.97,-234 376.97,-230.5 376.97,-237.5"/>
</g>
<!-- 12904241872 -->
<g id="node15" class="node">
<title>12904241872</title>
<polygon fill="none" stroke="black" points="610,-198 387,-198 387,-162 610,-162 610,-198"/>
<text text-anchor="middle" x="498.5" y="-176.9" font-family="Times,serif" font-size="12.00">Guide customer in selecting product/service</text>
</g>
<!-- 12904211024&#45;&gt;12904241872 -->
<g id="edge13" class="edge">
<title>12904211024&#45;&gt;12904241872</title>
<path fill="none" stroke="black" d="M298.21,-180C320.17,-180 348.53,-180 376.93,-180"/>
<polygon fill="black" stroke="black" points="376.97,-183.5 386.97,-180 376.97,-176.5 376.97,-183.5"/>
</g>
<!-- 12904192272 -->
<g id="node12" class="node">
<title>12904192272</title>
<polygon fill="none" stroke="black" points="610,-144 387,-144 387,-108 610,-108 610,-144"/>
<text text-anchor="middle" x="498.5" y="-122.9" font-family="Times,serif" font-size="12.00">Guide customer in selecting product/service</text>
</g>
<!-- 12904221072&#45;&gt;12904192272 -->
<g id="edge14" class="edge">
<title>12904221072&#45;&gt;12904192272</title>
<path fill="none" stroke="black" d="M298.21,-126C320.17,-126 348.53,-126 376.93,-126"/>
<polygon fill="black" stroke="black" points="376.97,-129.5 386.97,-126 376.97,-122.5 376.97,-129.5"/>
</g>
<!-- 12904183888 -->
<g id="node10" class="node">
<title>12904183888</title>
<polygon fill="none" stroke="black" points="561.5,-90 435.5,-90 435.5,-54 561.5,-54 561.5,-90"/>
<text text-anchor="middle" x="498.5" y="-68.9" font-family="Times,serif" font-size="12.00">Record order in system</text>
</g>
<!-- 12904233104&#45;&gt;12904183888 -->
<g id="edge15" class="edge">
<title>12904233104&#45;&gt;12904183888</title>
<path fill="none" stroke="black" d="M351.32,-72C375.83,-72 401.87,-72 425.08,-72"/>
<polygon fill="black" stroke="black" points="425.18,-75.5 435.18,-72 425.18,-68.5 425.18,-75.5"/>
</g>
<!-- 12904204368 -->
<g id="node14" class="node">
<title>12904204368</title>
<polygon fill="none" stroke="black" points="561.5,-36 435.5,-36 435.5,0 561.5,0 561.5,-36"/>
<text text-anchor="middle" x="498.5" y="-14.9" font-family="Times,serif" font-size="12.00">Record order in system</text>
</g>
<!-- 12904240208&#45;&gt;12904204368 -->
<g id="edge16" class="edge">
<title>12904240208&#45;&gt;12904204368</title>
<path fill="none" stroke="black" d="M351.32,-18C375.83,-18 401.87,-18 425.08,-18"/>
<polygon fill="black" stroke="black" points="425.18,-21.5 435.18,-18 425.18,-14.5 425.18,-21.5"/>
</g>
<!-- 12904216016 -->
<g id="node22" class="node">
<title>12904216016</title>
<polygon fill="none" stroke="black" points="792.5,-90 722.5,-90 722.5,-54 792.5,-54 792.5,-90"/>
<text text-anchor="middle" x="757.5" y="-68.9" font-family="Times,serif" font-size="12.00">Place order</text>
</g>
<!-- 12904183888&#45;&gt;12904216016 -->
<g id="edge17" class="edge">
<title>12904183888&#45;&gt;12904216016</title>
<path fill="none" stroke="black" d="M561.71,-72C608.28,-72 670.83,-72 712.34,-72"/>
<polygon fill="black" stroke="black" points="712.42,-75.5 722.42,-72 712.42,-68.5 712.42,-75.5"/>
</g>
<!-- 12904236496 -->
<g id="node23" class="node">
<title>12904236496</title>
<polygon fill="none" stroke="black" points="834.5,-252 680.5,-252 680.5,-216 834.5,-216 834.5,-252"/>
<text text-anchor="middle" x="757.5" y="-230.9" font-family="Times,serif" font-size="12.00">Collect customer information</text>
</g>
<!-- 12904190608&#45;&gt;12904236496 -->
<g id="edge18" class="edge">
<title>12904190608&#45;&gt;12904236496</title>
<path fill="none" stroke="black" d="M610.36,-234C630.39,-234 651.01,-234 670.22,-234"/>
<polygon fill="black" stroke="black" points="670.43,-237.5 680.43,-234 670.43,-230.5 670.43,-237.5"/>
</g>
<!-- 12904209360 -->
<g id="node21" class="node">
<title>12904209360</title>
<polygon fill="none" stroke="black" points="834.5,-144 680.5,-144 680.5,-108 834.5,-108 834.5,-144"/>
<text text-anchor="middle" x="757.5" y="-122.9" font-family="Times,serif" font-size="12.00">Collect customer information</text>
</g>
<!-- 12904192272&#45;&gt;12904209360 -->
<g id="edge19" class="edge">
<title>12904192272&#45;&gt;12904209360</title>
<path fill="none" stroke="black" d="M610.36,-126C630.39,-126 651.01,-126 670.22,-126"/>
<polygon fill="black" stroke="black" points="670.43,-129.5 680.43,-126 670.43,-122.5 670.43,-129.5"/>
</g>
<!-- 12904188944 -->
<g id="node19" class="node">
<title>12904188944</title>
<polygon fill="none" stroke="black" points="834.5,-360 680.5,-360 680.5,-324 834.5,-324 834.5,-360"/>
<text text-anchor="middle" x="757.5" y="-338.9" font-family="Times,serif" font-size="12.00">Collect customer information</text>
</g>
<!-- 12904197648&#45;&gt;12904188944 -->
<g id="edge20" class="edge">
<title>12904197648&#45;&gt;12904188944</title>
<path fill="none" stroke="black" d="M601.81,-342C624.41,-342 648.13,-342 670.03,-342"/>
<polygon fill="black" stroke="black" points="670.28,-345.5 680.28,-342 670.28,-338.5 670.28,-345.5"/>
</g>
<!-- 12904187280 -->
<g id="node18" class="node">
<title>12904187280</title>
<polygon fill="none" stroke="black" points="792.5,-36 722.5,-36 722.5,0 792.5,0 792.5,-36"/>
<text text-anchor="middle" x="757.5" y="-14.9" font-family="Times,serif" font-size="12.00">Place order</text>
</g>
<!-- 12904204368&#45;&gt;12904187280 -->
<g id="edge21" class="edge">
<title>12904204368&#45;&gt;12904187280</title>
<path fill="none" stroke="black" d="M561.71,-18C608.28,-18 670.83,-18 712.34,-18"/>
<polygon fill="black" stroke="black" points="712.42,-21.5 722.42,-18 712.42,-14.5 712.42,-21.5"/>
</g>
<!-- 12904195600 -->
<g id="node20" class="node">
<title>12904195600</title>
<polygon fill="none" stroke="black" points="834.5,-198 680.5,-198 680.5,-162 834.5,-162 834.5,-198"/>
<text text-anchor="middle" x="757.5" y="-176.9" font-family="Times,serif" font-size="12.00">Collect customer information</text>
</g>
<!-- 12904241872&#45;&gt;12904195600 -->
<g id="edge22" class="edge">
<title>12904241872&#45;&gt;12904195600</title>
<path fill="none" stroke="black" d="M610.36,-180C630.39,-180 651.01,-180 670.22,-180"/>
<polygon fill="black" stroke="black" points="670.43,-183.5 680.43,-180 670.43,-176.5 670.43,-183.5"/>
</g>
<!-- 12904250192 -->
<g id="node25" class="node">
<title>12904250192</title>
<polygon fill="none" stroke="black" points="834.5,-414 680.5,-414 680.5,-378 834.5,-378 834.5,-414"/>
<text text-anchor="middle" x="757.5" y="-392.9" font-family="Times,serif" font-size="12.00">Collect customer information</text>
</g>
<!-- 12904243536&#45;&gt;12904250192 -->
<g id="edge23" class="edge">
<title>12904243536&#45;&gt;12904250192</title>
<path fill="none" stroke="black" d="M610.36,-396C630.39,-396 651.01,-396 670.22,-396"/>
<polygon fill="black" stroke="black" points="670.43,-399.5 680.43,-396 670.43,-392.5 670.43,-399.5"/>
</g>
<!-- 12904238160 -->
<g id="node24" class="node">
<title>12904238160</title>
<polygon fill="none" stroke="black" points="869,-306 646,-306 646,-270 869,-270 869,-306"/>
<text text-anchor="middle" x="757.5" y="-284.9" font-family="Times,serif" font-size="12.00">Guide customer in selecting product/service</text>
</g>
<!-- 12904248528&#45;&gt;12904238160 -->
<g id="edge24" class="edge">
<title>12904248528&#45;&gt;12904238160</title>
<path fill="none" stroke="black" d="M540.22,-288C566.18,-288 601.29,-288 635.67,-288"/>
<polygon fill="black" stroke="black" points="635.82,-291.5 645.82,-288 635.82,-284.5 635.82,-291.5"/>
</g>
<!-- 12904200976 -->
<g id="node27" class="node">
<title>12904200976</title>
<polygon fill="none" stroke="black" points="1049.5,-36 966.5,-36 966.5,0 1049.5,0 1049.5,-36"/>
<text text-anchor="middle" x="1008" y="-14.9" font-family="Times,serif" font-size="12.00">Provide quote</text>
</g>
<!-- 12904187280&#45;&gt;12904200976 -->
<g id="edge25" class="edge">
<title>12904187280&#45;&gt;12904200976</title>
<path fill="none" stroke="black" d="M792.53,-18C834.85,-18 907.46,-18 956.33,-18"/>
<polygon fill="black" stroke="black" points="956.38,-21.5 966.38,-18 956.38,-14.5 956.38,-21.5"/>
</g>
<!-- 12904225552 -->
<g id="node31" class="node">
<title>12904225552</title>
<polygon fill="none" stroke="black" points="1008,-306 981,-288 1008,-270 1035,-288 1008,-306"/>
<text text-anchor="middle" x="1008" y="-284.9" font-family="Times,serif" font-size="12.00">+</text>
</g>
<!-- 12904188944&#45;&gt;12904225552 -->
<g id="edge26" class="edge">
<title>12904188944&#45;&gt;12904225552</title>
<path fill="none" stroke="black" d="M834.75,-325.43C882.85,-314.98 942.28,-302.06 977.28,-294.46"/>
<polygon fill="black" stroke="black" points="978.28,-297.82 987.31,-292.28 976.8,-290.98 978.28,-297.82"/>
</g>
<!-- 12904231440 -->
<g id="node32" class="node">
<title>12904231440</title>
<polygon fill="none" stroke="black" points="1111,-198 905,-198 905,-162 1111,-162 1111,-198"/>
<text text-anchor="middle" x="1008" y="-176.9" font-family="Times,serif" font-size="12.00">Address customer concerns or questions</text>
</g>
<!-- 12904195600&#45;&gt;12904231440 -->
<g id="edge27" class="edge">
<title>12904195600&#45;&gt;12904231440</title>
<path fill="none" stroke="black" d="M834.75,-180C853.66,-180 874.34,-180 894.59,-180"/>
<polygon fill="black" stroke="black" points="894.8,-183.5 904.8,-180 894.8,-176.5 894.8,-183.5"/>
</g>
<!-- 12904219408 -->
<g id="node30" class="node">
<title>12904219408</title>
<polygon fill="none" stroke="black" points="1111,-144 905,-144 905,-108 1111,-108 1111,-144"/>
<text text-anchor="middle" x="1008" y="-122.9" font-family="Times,serif" font-size="12.00">Address customer concerns or questions</text>
</g>
<!-- 12904209360&#45;&gt;12904219408 -->
<g id="edge28" class="edge">
<title>12904209360&#45;&gt;12904219408</title>
<path fill="none" stroke="black" d="M834.75,-126C853.66,-126 874.34,-126 894.59,-126"/>
<polygon fill="black" stroke="black" points="894.8,-129.5 904.8,-126 894.8,-122.5 894.8,-129.5"/>
</g>
<!-- 12904217680 -->
<g id="node29" class="node">
<title>12904217680</title>
<polygon fill="none" stroke="black" points="1049.5,-90 966.5,-90 966.5,-54 1049.5,-54 1049.5,-90"/>
<text text-anchor="middle" x="1008" y="-68.9" font-family="Times,serif" font-size="12.00">Provide quote</text>
</g>
<!-- 12904216016&#45;&gt;12904217680 -->
<g id="edge29" class="edge">
<title>12904216016&#45;&gt;12904217680</title>
<path fill="none" stroke="black" d="M792.53,-72C834.85,-72 907.46,-72 956.33,-72"/>
<polygon fill="black" stroke="black" points="956.38,-75.5 966.38,-72 956.38,-68.5 956.38,-75.5"/>
</g>
<!-- 12904212688 -->
<g id="node28" class="node">
<title>12904212688</title>
<polygon fill="none" stroke="black" points="1111,-252 905,-252 905,-216 1111,-216 1111,-252"/>
<text text-anchor="middle" x="1008" y="-230.9" font-family="Times,serif" font-size="12.00">Address customer concerns or questions</text>
</g>
<!-- 12904236496&#45;&gt;12904212688 -->
<g id="edge30" class="edge">
<title>12904236496&#45;&gt;12904212688</title>
<path fill="none" stroke="black" d="M834.75,-234C853.66,-234 874.34,-234 894.59,-234"/>
<polygon fill="black" stroke="black" points="894.8,-237.5 904.8,-234 894.8,-230.5 894.8,-237.5"/>
</g>
<!-- 12904238160&#45;&gt;12904225552 -->
<g id="edge31" class="edge">
<title>12904238160&#45;&gt;12904225552</title>
<path fill="none" stroke="black" d="M869.3,-288C905.87,-288 944,-288 970.84,-288"/>
<polygon fill="black" stroke="black" points="970.91,-291.5 980.91,-288 970.91,-284.5 970.91,-291.5"/>
</g>
<!-- 12904182352 -->
<g id="node26" class="node">
<title>12904182352</title>
<polygon fill="none" stroke="black" points="1111,-387 905,-387 905,-351 1111,-351 1111,-387"/>
<text text-anchor="middle" x="1008" y="-365.9" font-family="Times,serif" font-size="12.00">Address customer concerns or questions</text>
</g>
<!-- 12904250192&#45;&gt;12904182352 -->
<g id="edge32" class="edge">
<title>12904250192&#45;&gt;12904182352</title>
<path fill="none" stroke="black" d="M834.75,-387.72C853.66,-385.66 874.34,-383.41 894.59,-381.21"/>
<polygon fill="black" stroke="black" points="895.24,-384.66 904.8,-380.1 894.48,-377.7 895.24,-384.66"/>
</g>
<!-- 12904224400 -->
<g id="node35" class="node">
<title>12904224400</title>
<polygon fill="none" stroke="black" points="1975,-345 1838,-345 1838,-309 1975,-309 1975,-345"/>
<text text-anchor="middle" x="1906.5" y="-323.9" font-family="Times,serif" font-size="12.00">Receive customer inquiry</text>
</g>
<!-- 12904182352&#45;&gt;12904224400 -->
<g id="edge33" class="edge">
<title>12904182352&#45;&gt;12904224400</title>
<path fill="none" stroke="black" d="M1111.4,-364.2C1292.46,-355.72 1665.27,-338.25 1827.37,-330.66"/>
<polygon fill="black" stroke="black" points="1827.91,-334.14 1837.74,-330.17 1827.58,-327.15 1827.91,-334.14"/>
</g>
<!-- 12904246864 -->
<g id="node39" class="node">
<title>12904246864</title>
<polygon fill="none" stroke="black" points="1370,-40 1147,-40 1147,-4 1370,-4 1370,-40"/>
<text text-anchor="middle" x="1258.5" y="-18.9" font-family="Times,serif" font-size="12.00">Guide customer in selecting product/service</text>
</g>
<!-- 12904200976&#45;&gt;12904246864 -->
<g id="edge34" class="edge">
<title>12904200976&#45;&gt;12904246864</title>
<path fill="none" stroke="black" d="M1049.76,-18.66C1073.67,-19.04 1105.27,-19.55 1136.59,-20.05"/>
<polygon fill="black" stroke="black" points="1136.68,-23.56 1146.74,-20.22 1136.8,-16.56 1136.68,-23.56"/>
</g>
<!-- 12904229776 -->
<g id="node37" class="node">
<title>12904229776</title>
<polygon fill="none" stroke="black" points="1551.5,-246 1414.5,-246 1414.5,-210 1551.5,-210 1551.5,-246"/>
<text text-anchor="middle" x="1483" y="-224.9" font-family="Times,serif" font-size="12.00">Receive customer inquiry</text>
</g>
<!-- 12904212688&#45;&gt;12904229776 -->
<g id="edge35" class="edge">
<title>12904212688&#45;&gt;12904229776</title>
<path fill="none" stroke="black" d="M1111.05,-232.71C1199.08,-231.59 1324.32,-230 1404.38,-228.98"/>
<polygon fill="black" stroke="black" points="1404.44,-232.48 1414.4,-228.86 1404.35,-225.48 1404.44,-232.48"/>
</g>
<!-- 12904207696 -->
<g id="node33" class="node">
<title>12904207696</title>
<polygon fill="none" stroke="black" points="1370,-96 1147,-96 1147,-60 1370,-60 1370,-96"/>
<text text-anchor="middle" x="1258.5" y="-74.9" font-family="Times,serif" font-size="12.00">Guide customer in selecting product/service</text>
</g>
<!-- 12904217680&#45;&gt;12904207696 -->
<g id="edge36" class="edge">
<title>12904217680&#45;&gt;12904207696</title>
<path fill="none" stroke="black" d="M1049.76,-72.98C1073.67,-73.56 1105.27,-74.32 1136.59,-75.08"/>
<polygon fill="black" stroke="black" points="1136.66,-78.58 1146.74,-75.33 1136.83,-71.59 1136.66,-78.58"/>
</g>
<!-- 12904234768 -->
<g id="node38" class="node">
<title>12904234768</title>
<polygon fill="none" stroke="black" points="1767.5,-152 1630.5,-152 1630.5,-116 1767.5,-116 1767.5,-152"/>
<text text-anchor="middle" x="1699" y="-130.9" font-family="Times,serif" font-size="12.00">Receive customer inquiry</text>
</g>
<!-- 12904219408&#45;&gt;12904234768 -->
<g id="edge37" class="edge">
<title>12904219408&#45;&gt;12904234768</title>
<path fill="none" stroke="black" d="M1111.04,-127.18C1249.86,-128.8 1495.22,-131.65 1620.17,-133.1"/>
<polygon fill="black" stroke="black" points="1620.38,-136.6 1630.42,-133.22 1620.46,-129.6 1620.38,-136.6"/>
</g>
<!-- 12904226064 -->
<g id="node36" class="node">
<title>12904226064</title>
<polygon fill="none" stroke="black" points="1551.5,-303 1414.5,-303 1414.5,-267 1551.5,-267 1551.5,-303"/>
<text text-anchor="middle" x="1483" y="-281.9" font-family="Times,serif" font-size="12.00">Receive customer inquiry</text>
</g>
<!-- 12904225552&#45;&gt;12904226064 -->
<g id="edge38" class="edge">
<title>12904225552&#45;&gt;12904226064</title>
<path fill="none" stroke="black" d="M1034.77,-287.84C1103.87,-287.4 1295.41,-286.18 1404.09,-285.49"/>
<polygon fill="black" stroke="black" points="1404.36,-288.99 1414.34,-285.43 1404.32,-281.99 1404.36,-288.99"/>
</g>
<!-- 12904214352 -->
<g id="node34" class="node">
<title>12904214352</title>
<polygon fill="none" stroke="black" points="1327,-198 1190,-198 1190,-162 1327,-162 1327,-198"/>
<text text-anchor="middle" x="1258.5" y="-176.9" font-family="Times,serif" font-size="12.00">Receive customer inquiry</text>
</g>
<!-- 12904231440&#45;&gt;12904214352 -->
<g id="edge39" class="edge">
<title>12904231440&#45;&gt;12904214352</title>
<path fill="none" stroke="black" d="M1111.15,-180C1134.03,-180 1157.95,-180 1179.66,-180"/>
<polygon fill="black" stroke="black" points="1179.79,-183.5 1189.79,-180 1179.79,-176.5 1179.79,-183.5"/>
</g>
<!-- 12904193936 -->
<g id="node41" class="node">
<title>12904193936</title>
<polygon fill="none" stroke="black" points="1560,-97 1406,-97 1406,-61 1560,-61 1560,-97"/>
<text text-anchor="middle" x="1483" y="-75.9" font-family="Times,serif" font-size="12.00">Collect customer information</text>
</g>
<!-- 12904207696&#45;&gt;12904193936 -->
<g id="edge40" class="edge">
<title>12904207696&#45;&gt;12904193936</title>
<path fill="none" stroke="black" d="M1370.1,-78.5C1378.7,-78.54 1387.32,-78.57 1395.73,-78.61"/>
<polygon fill="black" stroke="black" points="1395.86,-82.11 1405.87,-78.66 1395.89,-75.11 1395.86,-82.11"/>
</g>
<!-- 12904125712 -->
<g id="node40" class="node">
<title>12904125712</title>
<polygon fill="none" stroke="black" points="2038,-198 2011,-180 2038,-162 2065,-180 2038,-198"/>
<text text-anchor="middle" x="2038" y="-176.9" font-family="Times,serif" font-size="12.00">X</text>
</g>
<!-- 12904214352&#45;&gt;12904125712 -->
<g id="edge41" class="edge">
<title>12904214352&#45;&gt;12904125712</title>
<path fill="none" stroke="black" d="M1327.14,-180C1486.01,-180 1878.76,-180 2000.45,-180"/>
<polygon fill="black" stroke="black" points="2000.72,-183.5 2010.72,-180 2000.72,-176.5 2000.72,-183.5"/>
</g>
<!-- 12904224400&#45;&gt;12904125712 -->
<g id="edge42" class="edge">
<title>12904224400&#45;&gt;12904125712</title>
<path fill="none" stroke="black" d="M1943.49,-308.98C1954.42,-302.41 1965.93,-294.28 1975,-285 1998.58,-260.86 2016.84,-226.07 2027.25,-203.25"/>
<polygon fill="black" stroke="black" points="2030.51,-204.55 2031.36,-193.98 2024.11,-201.71 2030.51,-204.55"/>
</g>
<!-- 12904226064&#45;&gt;12904125712 -->
<g id="edge43" class="edge">
<title>12904226064&#45;&gt;12904125712</title>
<path fill="none" stroke="black" d="M1551.74,-283.24C1648.18,-278.99 1829.48,-264.48 1975,-215 1989.41,-210.1 2004.29,-201.82 2015.87,-194.55"/>
<polygon fill="black" stroke="black" points="2017.9,-197.4 2024.37,-189.01 2014.08,-191.53 2017.9,-197.4"/>
</g>
<!-- 12904229776&#45;&gt;12904125712 -->
<g id="edge44" class="edge">
<title>12904229776&#45;&gt;12904125712</title>
<path fill="none" stroke="black" d="M1551.86,-226.58C1646.92,-223.84 1824.94,-216.01 1975,-194 1986.05,-192.38 1998.06,-189.85 2008.54,-187.39"/>
<polygon fill="black" stroke="black" points="2009.53,-190.75 2018.42,-184.98 2007.87,-183.95 2009.53,-190.75"/>
</g>
<!-- 12904234768&#45;&gt;12904125712 -->
<g id="edge45" class="edge">
<title>12904234768&#45;&gt;12904125712</title>
<path fill="none" stroke="black" d="M1767.53,-139.84C1823.37,-145.15 1904.64,-154 1975,-166 1985.93,-167.86 1997.84,-170.42 2008.26,-172.84"/>
<polygon fill="black" stroke="black" points="2007.57,-176.28 2018.11,-175.19 2009.19,-169.47 2007.57,-176.28"/>
</g>
<!-- 12904222736 -->
<g id="node42" class="node">
<title>12904222736</title>
<polygon fill="none" stroke="black" points="1560,-42 1406,-42 1406,-6 1560,-6 1560,-42"/>
<text text-anchor="middle" x="1483" y="-20.9" font-family="Times,serif" font-size="12.00">Collect customer information</text>
</g>
<!-- 12904246864&#45;&gt;12904222736 -->
<g id="edge46" class="edge">
<title>12904246864&#45;&gt;12904222736</title>
<path fill="none" stroke="black" d="M1370.1,-22.99C1378.7,-23.07 1387.32,-23.15 1395.73,-23.22"/>
<polygon fill="black" stroke="black" points="1395.84,-26.73 1405.87,-23.32 1395.91,-19.73 1395.84,-26.73"/>
</g>
<!-- 12904307600 -->
<g id="node47" class="node">
<title>12904307600</title>
<ellipse fill="orange" stroke="black" cx="2119" cy="-180" rx="18" ry="18"/>
</g>
<!-- 12904125712&#45;&gt;12904307600 -->
<g id="edge49" class="edge">
<title>12904125712&#45;&gt;12904307600</title>
<path fill="none" stroke="black" d="M2065.31,-180C2073.42,-180 2082.37,-180 2090.56,-180"/>
<polygon fill="black" stroke="black" points="2090.75,-183.5 2100.75,-180 2090.75,-176.5 2090.75,-183.5"/>
</g>
<!-- 12904206032 -->
<g id="node44" class="node">
<title>12904206032</title>
<polygon fill="none" stroke="black" points="1802,-97 1596,-97 1596,-61 1802,-61 1802,-97"/>
<text text-anchor="middle" x="1699" y="-75.9" font-family="Times,serif" font-size="12.00">Address customer concerns or questions</text>
</g>
<!-- 12904193936&#45;&gt;12904206032 -->
<g id="edge47" class="edge">
<title>12904193936&#45;&gt;12904206032</title>
<path fill="none" stroke="black" d="M1560.05,-79C1568.43,-79 1577.08,-79 1585.78,-79"/>
<polygon fill="black" stroke="black" points="1586,-82.5 1596,-79 1586,-75.5 1586,-82.5"/>
</g>
<!-- 12904202704 -->
<g id="node43" class="node">
<title>12904202704</title>
<polygon fill="none" stroke="black" points="1802,-43 1596,-43 1596,-7 1802,-7 1802,-43"/>
<text text-anchor="middle" x="1699" y="-21.9" font-family="Times,serif" font-size="12.00">Address customer concerns or questions</text>
</g>
<!-- 12904222736&#45;&gt;12904202704 -->
<g id="edge48" class="edge">
<title>12904222736&#45;&gt;12904202704</title>
<path fill="none" stroke="black" d="M1560.05,-24.36C1568.43,-24.39 1577.08,-24.43 1585.78,-24.48"/>
<polygon fill="black" stroke="black" points="1585.98,-27.98 1596,-24.52 1586.01,-20.98 1585.98,-27.98"/>
</g>
<!-- 12904228112 -->
<g id="node45" class="node">
<title>12904228112</title>
<polygon fill="none" stroke="black" points="1975,-46 1838,-46 1838,-10 1975,-10 1975,-46"/>
<text text-anchor="middle" x="1906.5" y="-24.9" font-family="Times,serif" font-size="12.00">Receive customer inquiry</text>
</g>
<!-- 12904202704&#45;&gt;12904228112 -->
<g id="edge50" class="edge">
<title>12904202704&#45;&gt;12904228112</title>
<path fill="none" stroke="black" d="M1802.15,-26.49C1810.74,-26.62 1819.34,-26.74 1827.71,-26.86"/>
<polygon fill="black" stroke="black" points="1827.73,-30.36 1837.78,-27.01 1827.83,-23.37 1827.73,-30.36"/>
</g>
<!-- 12904245200 -->
<g id="node46" class="node">
<title>12904245200</title>
<polygon fill="none" stroke="black" points="1975,-108 1838,-108 1838,-72 1975,-72 1975,-108"/>
<text text-anchor="middle" x="1906.5" y="-86.9" font-family="Times,serif" font-size="12.00">Receive customer inquiry</text>
</g>
<!-- 12904206032&#45;&gt;12904245200 -->
<g id="edge51" class="edge">
<title>12904206032&#45;&gt;12904245200</title>
<path fill="none" stroke="black" d="M1802.15,-84.47C1810.74,-84.93 1819.34,-85.39 1827.71,-85.84"/>
<polygon fill="black" stroke="black" points="1827.6,-89.34 1837.78,-86.37 1827.98,-82.35 1827.6,-89.34"/>
</g>
<!-- 12904228112&#45;&gt;12904125712 -->
<g id="edge52" class="edge">
<title>12904228112&#45;&gt;12904125712</title>
<path fill="none" stroke="black" d="M1951.87,-46.08C1960.19,-50.77 1968.34,-56.4 1975,-63 2001.69,-89.45 2019.58,-129.83 2029.02,-155.56"/>
<polygon fill="black" stroke="black" points="2025.82,-157.02 2032.44,-165.29 2032.42,-154.7 2025.82,-157.02"/>
</g>
<!-- 12904245200&#45;&gt;12904125712 -->
<g id="edge53" class="edge">
<title>12904245200&#45;&gt;12904125712</title>
<path fill="none" stroke="black" d="M1945.17,-108.16C1955.14,-113.48 1965.7,-119.6 1975,-126 1990.66,-136.79 2006.82,-150.98 2018.71,-162.1"/>
<polygon fill="black" stroke="black" points="2016.55,-164.88 2026.2,-169.24 2021.37,-159.81 2016.55,-164.88"/>
</g>
</g>
</svg>
