<?xml version="1.0" encoding="UTF-8" standalone="no"?>
<!DOCTYPE svg PUBLIC "-//W3C//DTD SVG 1.1//EN"
 "http://www.w3.org/Graphics/SVG/1.1/DTD/svg11.dtd">
<!-- Generated by graphviz version 2.50.0 (0)
 -->
<!-- Pages: 1 -->
<svg width="1493pt" height="98pt"
 viewBox="0.00 0.00 1493.00 98.00" xmlns="http://www.w3.org/2000/svg" xmlns:xlink="http://www.w3.org/1999/xlink">
<g id="graph0" class="graph" transform="scale(1 1) rotate(0) translate(4 94)">
<polygon fill="white" stroke="transparent" points="-4,4 -4,-94 1489,-94 1489,4 -4,4"/>
<!-- 12905502544 -->
<g id="node1" class="node">
<title>12905502544</title>
<ellipse fill="green" stroke="black" cx="18" cy="-45" rx="18" ry="18"/>
</g>
<!-- 12905964432 -->
<g id="node2" class="node">
<title>12905964432</title>
<polygon fill="none" stroke="black" points="226,-63 72,-63 72,-27 226,-27 226,-63"/>
<text text-anchor="middle" x="149" y="-41.9" font-family="Times,serif" font-size="12.00">Collect customer information</text>
</g>
<!-- 12905502544&#45;&gt;12905964432 -->
<g id="edge1" class="edge">
<title>12905502544&#45;&gt;12905964432</title>
<path fill="none" stroke="black" d="M36.13,-45C43.25,-45 52.09,-45 61.65,-45"/>
<polygon fill="black" stroke="black" points="61.84,-48.5 71.84,-45 61.84,-41.5 61.84,-48.5"/>
</g>
<!-- 12905512400 -->
<g id="node3" class="node">
<title>12905512400</title>
<polygon fill="none" stroke="black" points="289,-63 262,-45 289,-27 316,-45 289,-63"/>
<text text-anchor="middle" x="289" y="-41.9" font-family="Times,serif" font-size="12.00">X</text>
</g>
<!-- 12905964432&#45;&gt;12905512400 -->
<g id="edge2" class="edge">
<title>12905964432&#45;&gt;12905512400</title>
<path fill="none" stroke="black" d="M226.27,-45C235.19,-45 243.96,-45 251.95,-45"/>
<polygon fill="black" stroke="black" points="251.96,-48.5 261.96,-45 251.96,-41.5 251.96,-48.5"/>
</g>
<!-- 12905511696 -->
<g id="node4" class="node">
<title>12905511696</title>
<polygon fill="none" stroke="black" points="481.5,-90 411.5,-90 411.5,-54 481.5,-54 481.5,-90"/>
<text text-anchor="middle" x="446.5" y="-68.9" font-family="Times,serif" font-size="12.00">Place order</text>
</g>
<!-- 12905512400&#45;&gt;12905511696 -->
<g id="edge3" class="edge">
<title>12905512400&#45;&gt;12905511696</title>
<path fill="none" stroke="black" d="M310.65,-48.59C333.63,-52.58 371.45,-59.14 401.2,-64.31"/>
<polygon fill="black" stroke="black" points="400.9,-67.81 411.35,-66.07 402.09,-60.91 400.9,-67.81"/>
</g>
<!-- 12902366800 -->
<g id="node5" class="node">
<title>12902366800</title>
<polygon fill="none" stroke="black" points="541,-36 352,-36 352,0 541,0 541,-36"/>
<text text-anchor="middle" x="446.5" y="-14.9" font-family="Times,serif" font-size="12.00">Send order confirmation to customer</text>
</g>
<!-- 12905512400&#45;&gt;12902366800 -->
<g id="edge4" class="edge">
<title>12905512400&#45;&gt;12902366800</title>
<path fill="none" stroke="black" d="M310.65,-41.41C319.36,-39.9 330.21,-38.02 341.94,-35.98"/>
<polygon fill="black" stroke="black" points="342.72,-39.4 351.97,-34.24 341.52,-32.5 342.72,-39.4"/>
</g>
<!-- 12905500752 -->
<g id="node6" class="node">
<title>12905500752</title>
<polygon fill="none" stroke="black" points="604,-63 577,-45 604,-27 631,-45 604,-63"/>
<text text-anchor="middle" x="604" y="-41.9" font-family="Times,serif" font-size="12.00">X</text>
</g>
<!-- 12905511696&#45;&gt;12905500752 -->
<g id="edge5" class="edge">
<title>12905511696&#45;&gt;12905500752</title>
<path fill="none" stroke="black" d="M481.63,-66.07C508.66,-61.38 546.09,-54.88 572.21,-50.35"/>
<polygon fill="black" stroke="black" points="573.05,-53.75 582.31,-48.59 571.85,-46.86 573.05,-53.75"/>
</g>
<!-- 12902366800&#45;&gt;12905500752 -->
<g id="edge6" class="edge">
<title>12902366800&#45;&gt;12905500752</title>
<path fill="none" stroke="black" d="M541.1,-34.25C552.19,-36.18 562.84,-38.03 572.08,-39.63"/>
<polygon fill="black" stroke="black" points="571.77,-43.13 582.22,-41.39 572.97,-36.23 571.77,-43.13"/>
</g>
<!-- 12905971280 -->
<g id="node7" class="node">
<title>12905971280</title>
<polygon fill="none" stroke="black" points="873,-63 667,-63 667,-27 873,-27 873,-63"/>
<text text-anchor="middle" x="770" y="-41.9" font-family="Times,serif" font-size="12.00">Address customer concerns or questions</text>
</g>
<!-- 12905500752&#45;&gt;12905971280 -->
<g id="edge7" class="edge">
<title>12905500752&#45;&gt;12905971280</title>
<path fill="none" stroke="black" d="M631.35,-45C638.8,-45 647.4,-45 656.61,-45"/>
<polygon fill="black" stroke="black" points="656.8,-48.5 666.8,-45 656.8,-41.5 656.8,-48.5"/>
</g>
<!-- 12905555152 -->
<g id="node8" class="node">
<title>12905555152</title>
<polygon fill="none" stroke="black" points="992,-63 909,-63 909,-27 992,-27 992,-63"/>
<text text-anchor="middle" x="950.5" y="-41.9" font-family="Times,serif" font-size="12.00">Provide quote</text>
</g>
<!-- 12905971280&#45;&gt;12905555152 -->
<g id="edge8" class="edge">
<title>12905971280&#45;&gt;12905555152</title>
<path fill="none" stroke="black" d="M873.02,-45C881.92,-45 890.64,-45 898.83,-45"/>
<polygon fill="black" stroke="black" points="898.88,-48.5 908.88,-45 898.88,-41.5 898.88,-48.5"/>
</g>
<!-- 12905476624 -->
<g id="node9" class="node">
<title>12905476624</title>
<polygon fill="none" stroke="black" points="1251,-63 1028,-63 1028,-27 1251,-27 1251,-63"/>
<text text-anchor="middle" x="1139.5" y="-41.9" font-family="Times,serif" font-size="12.00">Guide customer in selecting product/service</text>
</g>
<!-- 12905555152&#45;&gt;12905476624 -->
<g id="edge9" class="edge">
<title>12905555152&#45;&gt;12905476624</title>
<path fill="none" stroke="black" d="M992.08,-45C1000.04,-45 1008.78,-45 1017.88,-45"/>
<polygon fill="black" stroke="black" points="1017.9,-48.5 1027.9,-45 1017.9,-41.5 1017.9,-48.5"/>
</g>
<!-- 12905442960 -->
<g id="node10" class="node">
<title>12905442960</title>
<polygon fill="none" stroke="black" points="1413,-63 1287,-63 1287,-27 1413,-27 1413,-63"/>
<text text-anchor="middle" x="1350" y="-41.9" font-family="Times,serif" font-size="12.00">Record order in system</text>
</g>
<!-- 12905476624&#45;&gt;12905442960 -->
<g id="edge10" class="edge">
<title>12905476624&#45;&gt;12905442960</title>
<path fill="none" stroke="black" d="M1251.16,-45C1259.89,-45 1268.56,-45 1276.93,-45"/>
<polygon fill="black" stroke="black" points="1276.96,-48.5 1286.96,-45 1276.96,-41.5 1276.96,-48.5"/>
</g>
<!-- 12905475152 -->
<g id="node11" class="node">
<title>12905475152</title>
<ellipse fill="orange" stroke="black" cx="1467" cy="-45" rx="18" ry="18"/>
</g>
<!-- 12905442960&#45;&gt;12905475152 -->
<g id="edge11" class="edge">
<title>12905442960&#45;&gt;12905475152</title>
<path fill="none" stroke="black" d="M1413.21,-45C1422.13,-45 1430.9,-45 1438.65,-45"/>
<polygon fill="black" stroke="black" points="1438.84,-48.5 1448.84,-45 1438.84,-41.5 1438.84,-48.5"/>
</g>
</g>
</svg>
