<?xml version="1.0" encoding="UTF-8" standalone="no"?>
<!DOCTYPE svg PUBLIC "-//W3C//DTD SVG 1.1//EN"
 "http://www.w3.org/Graphics/SVG/1.1/DTD/svg11.dtd">
<!-- Generated by graphviz version 2.50.0 (0)
 -->
<!-- Pages: 1 -->
<svg width="1856pt" height="98pt"
 viewBox="0.00 0.00 1856.00 98.00" xmlns="http://www.w3.org/2000/svg" xmlns:xlink="http://www.w3.org/1999/xlink">
<g id="graph0" class="graph" transform="scale(1 1) rotate(0) translate(4 94)">
<polygon fill="white" stroke="transparent" points="-4,4 -4,-94 1852,-94 1852,4 -4,4"/>
<!-- 12905573392 -->
<g id="node1" class="node">
<title>12905573392</title>
<ellipse fill="green" stroke="black" cx="18" cy="-45" rx="18" ry="18"/>
</g>
<!-- 12905560080 -->
<g id="node2" class="node">
<title>12905560080</title>
<polygon fill="none" stroke="black" points="209,-63 72,-63 72,-27 209,-27 209,-63"/>
<text text-anchor="middle" x="140.5" y="-41.9" font-family="Times,serif" font-size="12.00">Receive customer inquiry</text>
</g>
<!-- 12905573392&#45;&gt;12905560080 -->
<g id="edge1" class="edge">
<title>12905573392&#45;&gt;12905560080</title>
<path fill="none" stroke="black" d="M36.01,-45C43.18,-45 52.09,-45 61.64,-45"/>
<polygon fill="black" stroke="black" points="61.78,-48.5 71.78,-45 61.78,-41.5 61.78,-48.5"/>
</g>
<!-- 12905566736 -->
<g id="node3" class="node">
<title>12905566736</title>
<polygon fill="none" stroke="black" points="272,-63 245,-45 272,-27 299,-45 272,-63"/>
<text text-anchor="middle" x="272" y="-41.9" font-family="Times,serif" font-size="12.00">X</text>
</g>
<!-- 12905560080&#45;&gt;12905566736 -->
<g id="edge2" class="edge">
<title>12905560080&#45;&gt;12905566736</title>
<path fill="none" stroke="black" d="M209.28,-45C218.05,-45 226.74,-45 234.71,-45"/>
<polygon fill="black" stroke="black" points="234.73,-48.5 244.73,-45 234.73,-41.5 234.73,-48.5"/>
</g>
<!-- 12905558416 -->
<g id="node4" class="node">
<title>12905558416</title>
<polygon fill="none" stroke="black" points="489,-90 335,-90 335,-54 489,-54 489,-90"/>
<text text-anchor="middle" x="412" y="-68.9" font-family="Times,serif" font-size="12.00">Collect customer information</text>
</g>
<!-- 12905566736&#45;&gt;12905558416 -->
<g id="edge4" class="edge">
<title>12905566736&#45;&gt;12905558416</title>
<path fill="none" stroke="black" d="M293.36,-48.98C302.21,-50.71 313.22,-52.87 324.94,-55.16"/>
<polygon fill="black" stroke="black" points="324.42,-58.63 334.91,-57.11 325.77,-51.76 324.42,-58.63"/>
</g>
<!-- 12905504592 -->
<g id="node5" class="node">
<title>12905504592</title>
<polygon fill="none" stroke="black" points="447,-36 377,-36 377,0 447,0 447,-36"/>
<text text-anchor="middle" x="412" y="-14.9" font-family="Times,serif" font-size="12.00">Place order</text>
</g>
<!-- 12905566736&#45;&gt;12905504592 -->
<g id="edge3" class="edge">
<title>12905566736&#45;&gt;12905504592</title>
<path fill="none" stroke="black" d="M293.36,-41.02C312.67,-37.24 342.31,-31.44 367.01,-26.61"/>
<polygon fill="black" stroke="black" points="367.76,-30.03 376.9,-24.67 366.42,-23.16 367.76,-30.03"/>
</g>
<!-- 12905506256 -->
<g id="node7" class="node">
<title>12905506256</title>
<polygon fill="none" stroke="black" points="637,-90 567,-90 567,-54 637,-54 637,-90"/>
<text text-anchor="middle" x="602" y="-68.9" font-family="Times,serif" font-size="12.00">Place order</text>
</g>
<!-- 12905558416&#45;&gt;12905506256 -->
<g id="edge5" class="edge">
<title>12905558416&#45;&gt;12905506256</title>
<path fill="none" stroke="black" d="M489.2,-72C512.08,-72 536.42,-72 556.53,-72"/>
<polygon fill="black" stroke="black" points="556.63,-75.5 566.63,-72 556.63,-68.5 556.63,-75.5"/>
</g>
<!-- 12905561744 -->
<g id="node6" class="node">
<title>12905561744</title>
<polygon fill="none" stroke="black" points="679,-36 525,-36 525,0 679,0 679,-36"/>
<text text-anchor="middle" x="602" y="-14.9" font-family="Times,serif" font-size="12.00">Collect customer information</text>
</g>
<!-- 12905504592&#45;&gt;12905561744 -->
<g id="edge6" class="edge">
<title>12905504592&#45;&gt;12905561744</title>
<path fill="none" stroke="black" d="M447.05,-18C466.03,-18 490.6,-18 514.53,-18"/>
<polygon fill="black" stroke="black" points="514.72,-21.5 524.72,-18 514.72,-14.5 514.72,-21.5"/>
</g>
<!-- 12905556368 -->
<g id="node8" class="node">
<title>12905556368</title>
<polygon fill="none" stroke="black" points="742,-63 715,-45 742,-27 769,-45 742,-63"/>
<text text-anchor="middle" x="742" y="-41.9" font-family="Times,serif" font-size="12.00">X</text>
</g>
<!-- 12905561744&#45;&gt;12905556368 -->
<g id="edge7" class="edge">
<title>12905561744&#45;&gt;12905556368</title>
<path fill="none" stroke="black" d="M679.27,-32.92C690.41,-35.1 701.29,-37.23 710.74,-39.08"/>
<polygon fill="black" stroke="black" points="710.26,-42.55 720.74,-41.04 711.6,-35.68 710.26,-42.55"/>
</g>
<!-- 12905506256&#45;&gt;12905556368 -->
<g id="edge8" class="edge">
<title>12905506256&#45;&gt;12905556368</title>
<path fill="none" stroke="black" d="M637.11,-65.33C659.61,-60.92 688.82,-55.21 710.54,-50.96"/>
<polygon fill="black" stroke="black" points="711.39,-54.36 720.54,-49 710.05,-47.49 711.39,-54.36"/>
</g>
<!-- 12905502928 -->
<g id="node9" class="node">
<title>12905502928</title>
<polygon fill="none" stroke="black" points="994,-63 805,-63 805,-27 994,-27 994,-63"/>
<text text-anchor="middle" x="899.5" y="-41.9" font-family="Times,serif" font-size="12.00">Send order confirmation to customer</text>
</g>
<!-- 12905556368&#45;&gt;12905502928 -->
<g id="edge9" class="edge">
<title>12905556368&#45;&gt;12905502928</title>
<path fill="none" stroke="black" d="M769.03,-45C776.66,-45 785.52,-45 794.94,-45"/>
<polygon fill="black" stroke="black" points="794.94,-48.5 804.94,-45 794.94,-41.5 794.94,-48.5"/>
</g>
<!-- 12905501264 -->
<g id="node10" class="node">
<title>12905501264</title>
<polygon fill="none" stroke="black" points="1236,-63 1030,-63 1030,-27 1236,-27 1236,-63"/>
<text text-anchor="middle" x="1133" y="-41.9" font-family="Times,serif" font-size="12.00">Address customer concerns or questions</text>
</g>
<!-- 12905502928&#45;&gt;12905501264 -->
<g id="edge10" class="edge">
<title>12905502928&#45;&gt;12905501264</title>
<path fill="none" stroke="black" d="M994.33,-45C1002.61,-45 1011.06,-45 1019.47,-45"/>
<polygon fill="black" stroke="black" points="1019.72,-48.5 1029.72,-45 1019.72,-41.5 1019.72,-48.5"/>
</g>
<!-- 12905507920 -->
<g id="node11" class="node">
<title>12905507920</title>
<polygon fill="none" stroke="black" points="1355,-63 1272,-63 1272,-27 1355,-27 1355,-63"/>
<text text-anchor="middle" x="1313.5" y="-41.9" font-family="Times,serif" font-size="12.00">Provide quote</text>
</g>
<!-- 12905501264&#45;&gt;12905507920 -->
<g id="edge11" class="edge">
<title>12905501264&#45;&gt;12905507920</title>
<path fill="none" stroke="black" d="M1236.02,-45C1244.92,-45 1253.64,-45 1261.83,-45"/>
<polygon fill="black" stroke="black" points="1261.88,-48.5 1271.88,-45 1261.88,-41.5 1261.88,-48.5"/>
</g>
<!-- 12905497936 -->
<g id="node12" class="node">
<title>12905497936</title>
<polygon fill="none" stroke="black" points="1614,-63 1391,-63 1391,-27 1614,-27 1614,-63"/>
<text text-anchor="middle" x="1502.5" y="-41.9" font-family="Times,serif" font-size="12.00">Guide customer in selecting product/service</text>
</g>
<!-- 12905507920&#45;&gt;12905497936 -->
<g id="edge12" class="edge">
<title>12905507920&#45;&gt;12905497936</title>
<path fill="none" stroke="black" d="M1355.08,-45C1363.04,-45 1371.78,-45 1380.88,-45"/>
<polygon fill="black" stroke="black" points="1380.9,-48.5 1390.9,-45 1380.9,-41.5 1380.9,-48.5"/>
</g>
<!-- 12905499600 -->
<g id="node13" class="node">
<title>12905499600</title>
<polygon fill="none" stroke="black" points="1776,-63 1650,-63 1650,-27 1776,-27 1776,-63"/>
<text text-anchor="middle" x="1713" y="-41.9" font-family="Times,serif" font-size="12.00">Record order in system</text>
</g>
<!-- 12905497936&#45;&gt;12905499600 -->
<g id="edge13" class="edge">
<title>12905497936&#45;&gt;12905499600</title>
<path fill="none" stroke="black" d="M1614.16,-45C1622.89,-45 1631.56,-45 1639.93,-45"/>
<polygon fill="black" stroke="black" points="1639.96,-48.5 1649.96,-45 1639.96,-41.5 1639.96,-48.5"/>
</g>
<!-- 12905478544 -->
<g id="node14" class="node">
<title>12905478544</title>
<ellipse fill="orange" stroke="black" cx="1830" cy="-45" rx="18" ry="18"/>
</g>
<!-- 12905499600&#45;&gt;12905478544 -->
<g id="edge14" class="edge">
<title>12905499600&#45;&gt;12905478544</title>
<path fill="none" stroke="black" d="M1776.21,-45C1785.13,-45 1793.9,-45 1801.65,-45"/>
<polygon fill="black" stroke="black" points="1801.84,-48.5 1811.84,-45 1801.84,-41.5 1801.84,-48.5"/>
</g>
</g>
</svg>
