<?xml version="1.0" encoding="UTF-8" standalone="no"?>
<!DOCTYPE svg PUBLIC "-//W3C//DTD SVG 1.1//EN"
 "http://www.w3.org/Graphics/SVG/1.1/DTD/svg11.dtd">
<!-- Generated by graphviz version 2.50.0 (0)
 -->
<!-- Pages: 1 -->
<svg width="2353pt" height="136pt"
 viewBox="0.00 0.00 2353.00 136.00" xmlns="http://www.w3.org/2000/svg" xmlns:xlink="http://www.w3.org/1999/xlink">
<g id="graph0" class="graph" transform="scale(1 1) rotate(0) translate(4 132)">
<polygon fill="white" stroke="transparent" points="-4,4 -4,-132 2349,-132 2349,4 -4,4"/>
<!-- 12905216400 -->
<g id="node1" class="node">
<title>12905216400</title>
<ellipse fill="green" stroke="black" cx="18" cy="-41" rx="18" ry="18"/>
</g>
<!-- 12902540752 -->
<g id="node2" class="node">
<title>12902540752</title>
<polygon fill="none" stroke="black" points="209,-59 72,-59 72,-23 209,-23 209,-59"/>
<text text-anchor="middle" x="140.5" y="-37.9" font-family="Times,serif" font-size="12.00">Receive customer inquiry</text>
</g>
<!-- 12905216400&#45;&gt;12902540752 -->
<g id="edge1" class="edge">
<title>12905216400&#45;&gt;12902540752</title>
<path fill="none" stroke="black" d="M36.01,-41C43.18,-41 52.09,-41 61.64,-41"/>
<polygon fill="black" stroke="black" points="61.78,-44.5 71.78,-41 61.78,-37.5 61.78,-44.5"/>
</g>
<!-- 12902518608 -->
<g id="node3" class="node">
<title>12902518608</title>
<polygon fill="none" stroke="black" points="399,-59 245,-59 245,-23 399,-23 399,-59"/>
<text text-anchor="middle" x="322" y="-37.9" font-family="Times,serif" font-size="12.00">Collect customer information</text>
</g>
<!-- 12902540752&#45;&gt;12902518608 -->
<g id="edge2" class="edge">
<title>12902540752&#45;&gt;12902518608</title>
<path fill="none" stroke="black" d="M209.11,-41C217.46,-41 226.09,-41 234.68,-41"/>
<polygon fill="black" stroke="black" points="234.73,-44.5 244.73,-41 234.73,-37.5 234.73,-44.5"/>
</g>
<!-- 12905216016 -->
<g id="node4" class="node">
<title>12905216016</title>
<polygon fill="none" stroke="black" points="462,-59 435,-41 462,-23 489,-41 462,-59"/>
<text text-anchor="middle" x="462" y="-37.9" font-family="Times,serif" font-size="12.00">X</text>
</g>
<!-- 12902518608&#45;&gt;12905216016 -->
<g id="edge3" class="edge">
<title>12902518608&#45;&gt;12905216016</title>
<path fill="none" stroke="black" d="M399.27,-41C408.19,-41 416.96,-41 424.95,-41"/>
<polygon fill="black" stroke="black" points="424.96,-44.5 434.96,-41 424.96,-37.5 424.96,-44.5"/>
</g>
<!-- 12905217168 -->
<g id="node5" class="node">
<title>12905217168</title>
<polygon fill="none" stroke="black" points="552,-82 525,-64 552,-46 579,-64 552,-82"/>
<text text-anchor="middle" x="552" y="-60.9" font-family="Times,serif" font-size="12.00">X</text>
</g>
<!-- 12905216016&#45;&gt;12905217168 -->
<g id="edge4" class="edge">
<title>12905216016&#45;&gt;12905217168</title>
<path fill="none" stroke="black" d="M482.09,-45.99C493.82,-49.06 509.07,-53.04 522.24,-56.48"/>
<polygon fill="black" stroke="black" points="521.68,-59.96 532.24,-59.1 523.45,-53.18 521.68,-59.96"/>
</g>
<!-- 12902483280 -->
<g id="node6" class="node">
<title>12902483280</title>
<polygon fill="none" stroke="black" points="838,-36 615,-36 615,0 838,0 838,-36"/>
<text text-anchor="middle" x="726.5" y="-14.9" font-family="Times,serif" font-size="12.00">Guide customer in selecting product/service</text>
</g>
<!-- 12905216016&#45;&gt;12902483280 -->
<g id="edge5" class="edge">
<title>12905216016&#45;&gt;12902483280</title>
<path fill="none" stroke="black" d="M486.3,-38.96C513.3,-36.59 559.87,-32.51 604.78,-28.58"/>
<polygon fill="black" stroke="black" points="605.28,-32.05 614.94,-27.69 604.67,-25.07 605.28,-32.05"/>
</g>
<!-- 12902494160 -->
<g id="node8" class="node">
<title>12902494160</title>
<polygon fill="none" stroke="black" points="803.5,-128 649.5,-128 649.5,-92 803.5,-92 803.5,-128"/>
<text text-anchor="middle" x="726.5" y="-106.9" font-family="Times,serif" font-size="12.00">Collect customer information</text>
</g>
<!-- 12905217168&#45;&gt;12902494160 -->
<g id="edge6" class="edge">
<title>12905217168&#45;&gt;12902494160</title>
<path fill="none" stroke="black" d="M571.79,-69.01C590.22,-73.93 619.59,-81.76 647.74,-89.26"/>
<polygon fill="black" stroke="black" points="647.06,-92.7 657.62,-91.9 648.86,-85.94 647.06,-92.7"/>
</g>
<!-- 12902516176 -->
<g id="node7" class="node">
<title>12902516176</title>
<polygon fill="none" stroke="black" points="991,-59 964,-41 991,-23 1018,-41 991,-59"/>
<text text-anchor="middle" x="991" y="-37.9" font-family="Times,serif" font-size="12.00">X</text>
</g>
<!-- 12902483280&#45;&gt;12902516176 -->
<g id="edge7" class="edge">
<title>12902483280&#45;&gt;12902516176</title>
<path fill="none" stroke="black" d="M838.06,-27.69C880.87,-31.44 926.68,-35.45 956.68,-38.08"/>
<polygon fill="black" stroke="black" points="956.71,-41.6 966.98,-38.98 957.32,-34.62 956.71,-41.6"/>
</g>
<!-- 12902517328 -->
<g id="node10" class="node">
<title>12902517328</title>
<polygon fill="none" stroke="black" points="1081,-59 1054,-41 1081,-23 1108,-41 1081,-59"/>
<text text-anchor="middle" x="1081" y="-37.9" font-family="Times,serif" font-size="12.00">X</text>
</g>
<!-- 12902516176&#45;&gt;12902517328 -->
<g id="edge8" class="edge">
<title>12902516176&#45;&gt;12902517328</title>
<path fill="none" stroke="black" d="M1018.4,-41C1026.39,-41 1035.31,-41 1043.82,-41"/>
<polygon fill="black" stroke="black" points="1043.92,-44.5 1053.92,-41 1043.92,-37.5 1043.92,-44.5"/>
</g>
<!-- 12902515408 -->
<g id="node9" class="node">
<title>12902515408</title>
<polygon fill="none" stroke="black" points="901,-82 874,-64 901,-46 928,-64 901,-82"/>
<text text-anchor="middle" x="901" y="-60.9" font-family="Times,serif" font-size="12.00">X</text>
</g>
<!-- 12902494160&#45;&gt;12902515408 -->
<g id="edge9" class="edge">
<title>12902494160&#45;&gt;12902515408</title>
<path fill="none" stroke="black" d="M795.18,-91.95C821.67,-84.89 850.6,-77.17 871.35,-71.64"/>
<polygon fill="black" stroke="black" points="872.35,-75 881.11,-69.04 870.55,-68.23 872.35,-75"/>
</g>
<!-- 12902515408&#45;&gt;12905217168 -->
<g id="edge10" class="edge">
<title>12902515408&#45;&gt;12905217168</title>
<path fill="none" stroke="black" d="M873.62,-64C812.15,-64 659.32,-64 589.2,-64"/>
<polygon fill="black" stroke="black" points="589.08,-60.5 579.08,-64 589.08,-67.5 589.08,-60.5"/>
</g>
<!-- 12902515408&#45;&gt;12902516176 -->
<g id="edge11" class="edge">
<title>12902515408&#45;&gt;12902516176</title>
<path fill="none" stroke="black" d="M921.09,-59.01C932.82,-55.94 948.07,-51.96 961.24,-48.52"/>
<polygon fill="black" stroke="black" points="962.45,-51.82 971.24,-45.9 960.68,-45.04 962.45,-51.82"/>
</g>
<!-- 12905207120 -->
<g id="node11" class="node">
<title>12905207120</title>
<polygon fill="none" stroke="black" points="1350,-82 1144,-82 1144,-46 1350,-46 1350,-82"/>
<text text-anchor="middle" x="1247" y="-60.9" font-family="Times,serif" font-size="12.00">Address customer concerns or questions</text>
</g>
<!-- 12902517328&#45;&gt;12905207120 -->
<g id="edge12" class="edge">
<title>12902517328&#45;&gt;12905207120</title>
<path fill="none" stroke="black" d="M1103.78,-44.05C1112.2,-45.24 1122.52,-46.68 1133.7,-48.25"/>
<polygon fill="black" stroke="black" points="1133.35,-51.74 1143.74,-49.66 1134.32,-44.8 1133.35,-51.74"/>
</g>
<!-- 12902516560 -->
<g id="node12" class="node">
<title>12902516560</title>
<polygon fill="none" stroke="black" points="1413,-59 1386,-41 1413,-23 1440,-41 1413,-59"/>
<text text-anchor="middle" x="1413" y="-37.9" font-family="Times,serif" font-size="12.00">X</text>
</g>
<!-- 12905207120&#45;&gt;12902516560 -->
<g id="edge13" class="edge">
<title>12905207120&#45;&gt;12902516560</title>
<path fill="none" stroke="black" d="M1350.47,-49.63C1361.15,-48.13 1371.33,-46.7 1380.23,-45.46"/>
<polygon fill="black" stroke="black" points="1380.98,-48.88 1390.4,-44.03 1380.01,-41.95 1380.98,-48.88"/>
</g>
<!-- 12902516560&#45;&gt;12902517328 -->
<g id="edge14" class="edge">
<title>12902516560&#45;&gt;12902517328</title>
<path fill="none" stroke="black" d="M1388.76,-39.14C1377.13,-38.31 1362.83,-37.41 1350,-37 1258.49,-34.05 1235.51,-34.05 1144,-37 1134.68,-37.3 1124.58,-37.85 1115.3,-38.46"/>
<polygon fill="black" stroke="black" points="1114.98,-34.97 1105.24,-39.14 1115.46,-41.95 1114.98,-34.97"/>
</g>
<!-- 12902515792 -->
<g id="node13" class="node">
<title>12902515792</title>
<polygon fill="none" stroke="black" points="1503,-59 1476,-41 1503,-23 1530,-41 1503,-59"/>
<text text-anchor="middle" x="1503" y="-37.9" font-family="Times,serif" font-size="12.00">X</text>
</g>
<!-- 12902516560&#45;&gt;12902515792 -->
<g id="edge15" class="edge">
<title>12902516560&#45;&gt;12902515792</title>
<path fill="none" stroke="black" d="M1440.4,-41C1448.39,-41 1457.31,-41 1465.82,-41"/>
<polygon fill="black" stroke="black" points="1465.92,-44.5 1475.92,-41 1465.92,-37.5 1465.92,-44.5"/>
</g>
<!-- 12902515024 -->
<g id="node14" class="node">
<title>12902515024</title>
<polygon fill="none" stroke="black" points="1712,-59 1685,-41 1712,-23 1739,-41 1712,-59"/>
<text text-anchor="middle" x="1712" y="-37.9" font-family="Times,serif" font-size="12.00">X</text>
</g>
<!-- 12902515792&#45;&gt;12902515024 -->
<g id="edge16" class="edge">
<title>12902515792&#45;&gt;12902515024</title>
<path fill="none" stroke="black" d="M1527.24,-42.86C1538.87,-43.69 1553.17,-44.59 1566,-45 1602.87,-46.19 1612.13,-46.19 1649,-45 1658.32,-44.7 1668.42,-44.15 1677.7,-43.54"/>
<polygon fill="black" stroke="black" points="1678.02,-47.03 1687.76,-42.86 1677.54,-40.05 1678.02,-47.03"/>
</g>
<!-- 12905210128 -->
<g id="node15" class="node">
<title>12905210128</title>
<polygon fill="none" stroke="black" points="1649,-36 1566,-36 1566,0 1649,0 1649,-36"/>
<text text-anchor="middle" x="1607.5" y="-14.9" font-family="Times,serif" font-size="12.00">Provide quote</text>
</g>
<!-- 12902515792&#45;&gt;12905210128 -->
<g id="edge17" class="edge">
<title>12902515792&#45;&gt;12905210128</title>
<path fill="none" stroke="black" d="M1523.76,-36.57C1532.94,-34.51 1544.32,-31.95 1555.67,-29.41"/>
<polygon fill="black" stroke="black" points="1556.59,-32.79 1565.58,-27.18 1555.06,-25.96 1556.59,-32.79"/>
</g>
<!-- 12905210896 -->
<g id="node16" class="node">
<title>12905210896</title>
<polygon fill="none" stroke="black" points="1929,-59 1775,-59 1775,-23 1929,-23 1929,-59"/>
<text text-anchor="middle" x="1852" y="-37.9" font-family="Times,serif" font-size="12.00">Collect customer information</text>
</g>
<!-- 12902515024&#45;&gt;12905210896 -->
<g id="edge19" class="edge">
<title>12902515024&#45;&gt;12905210896</title>
<path fill="none" stroke="black" d="M1739.28,-41C1746.86,-41 1755.58,-41 1764.72,-41"/>
<polygon fill="black" stroke="black" points="1764.79,-44.5 1774.79,-41 1764.79,-37.5 1764.79,-44.5"/>
</g>
<!-- 12905210128&#45;&gt;12902515024 -->
<g id="edge18" class="edge">
<title>12905210128&#45;&gt;12902515024</title>
<path fill="none" stroke="black" d="M1649.01,-27.09C1659.81,-29.51 1671.27,-32.09 1681.37,-34.35"/>
<polygon fill="black" stroke="black" points="1680.78,-37.81 1691.31,-36.58 1682.31,-30.98 1680.78,-37.81"/>
</g>
<!-- 12904334288 -->
<g id="node17" class="node">
<title>12904334288</title>
<polygon fill="none" stroke="black" points="2048,-59 1965,-59 1965,-23 2048,-23 2048,-59"/>
<text text-anchor="middle" x="2006.5" y="-37.9" font-family="Times,serif" font-size="12.00">Provide quote</text>
</g>
<!-- 12905210896&#45;&gt;12904334288 -->
<g id="edge20" class="edge">
<title>12905210896&#45;&gt;12904334288</title>
<path fill="none" stroke="black" d="M1929.25,-41C1937.84,-41 1946.42,-41 1954.57,-41"/>
<polygon fill="black" stroke="black" points="1954.63,-44.5 1964.63,-41 1954.63,-37.5 1954.63,-44.5"/>
</g>
<!-- 12902358544 -->
<g id="node18" class="node">
<title>12902358544</title>
<polygon fill="none" stroke="black" points="2273,-59 2084,-59 2084,-23 2273,-23 2273,-59"/>
<text text-anchor="middle" x="2178.5" y="-37.9" font-family="Times,serif" font-size="12.00">Send order confirmation to customer</text>
</g>
<!-- 12904334288&#45;&gt;12902358544 -->
<g id="edge21" class="edge">
<title>12904334288&#45;&gt;12902358544</title>
<path fill="none" stroke="black" d="M2048.22,-41C2056.14,-41 2064.78,-41 2073.7,-41"/>
<polygon fill="black" stroke="black" points="2073.88,-44.5 2083.88,-41 2073.88,-37.5 2073.88,-44.5"/>
</g>
<!-- 12902519760 -->
<g id="node19" class="node">
<title>12902519760</title>
<ellipse fill="orange" stroke="black" cx="2327" cy="-41" rx="18" ry="18"/>
</g>
<!-- 12902358544&#45;&gt;12902519760 -->
<g id="edge22" class="edge">
<title>12902358544&#45;&gt;12902519760</title>
<path fill="none" stroke="black" d="M2273.11,-41C2282.41,-41 2291.23,-41 2298.92,-41"/>
<polygon fill="black" stroke="black" points="2298.94,-44.5 2308.94,-41 2298.94,-37.5 2298.94,-44.5"/>
</g>
</g>
</svg>
