<?xml version="1.0" encoding="UTF-8" standalone="no"?>
<!DOCTYPE svg PUBLIC "-//W3C//DTD SVG 1.1//EN"
 "http://www.w3.org/Graphics/SVG/1.1/DTD/svg11.dtd">
<!-- Generated by graphviz version 11.0.0 (20240428.1522)
 -->
<!-- Pages: 1 -->
<svg width="2505pt" height="191pt"
 viewBox="0.00 0.00 2505.00 191.00" xmlns="http://www.w3.org/2000/svg" xmlns:xlink="http://www.w3.org/1999/xlink">
<g id="graph0" class="graph" transform="scale(1 1) rotate(0) translate(4 187)">
<polygon fill="white" stroke="none" points="-4,4 -4,-187 2501,-187 2501,4 -4,4"/>
<!-- 2479389944640 -->
<g id="node1" class="node">
<title>2479389944640</title>
<ellipse fill="green" stroke="black" cx="18" cy="-95" rx="18" ry="18"/>
</g>
<!-- 2479389647472 -->
<g id="node2" class="node">
<title>2479389647472</title>
<polygon fill="none" stroke="black" points="221.5,-113 72,-113 72,-77 221.5,-77 221.5,-113"/>
<text text-anchor="middle" x="146.75" y="-89.97" font-family="Times New Roman,serif" font-size="12.00">Customer searches for ticket</text>
</g>
<!-- 2479389944640&#45;&gt;2479389647472 -->
<g id="edge1" class="edge">
<title>2479389944640&#45;&gt;2479389647472</title>
<path fill="none" stroke="black" d="M36.36,-95C43.15,-95 51.48,-95 60.48,-95"/>
<polygon fill="black" stroke="black" points="60.22,-98.5 70.22,-95 60.22,-91.5 60.22,-98.5"/>
</g>
<!-- 2479388994944 -->
<g id="node3" class="node">
<title>2479388994944</title>
<polygon fill="none" stroke="black" points="329,-113 257.5,-113 257.5,-77 329,-77 329,-113"/>
<text text-anchor="middle" x="293.25" y="-89.97" font-family="Times New Roman,serif" font-size="12.00">Select route</text>
</g>
<!-- 2479389647472&#45;&gt;2479388994944 -->
<g id="edge2" class="edge">
<title>2479389647472&#45;&gt;2479388994944</title>
<path fill="none" stroke="black" d="M221.69,-95C229.9,-95 238.08,-95 245.8,-95"/>
<polygon fill="black" stroke="black" points="245.61,-98.5 255.61,-95 245.61,-91.5 245.61,-98.5"/>
</g>
<!-- 2479389639360 -->
<g id="node4" class="node">
<title>2479389639360</title>
<polygon fill="none" stroke="black" points="475.5,-113 365,-113 365,-77 475.5,-77 475.5,-113"/>
<text text-anchor="middle" x="420.25" y="-89.97" font-family="Times New Roman,serif" font-size="12.00">Select date and time</text>
</g>
<!-- 2479388994944&#45;&gt;2479389639360 -->
<g id="edge3" class="edge">
<title>2479388994944&#45;&gt;2479389639360</title>
<path fill="none" stroke="black" d="M329.4,-95C336.95,-95 345.16,-95 353.44,-95"/>
<polygon fill="black" stroke="black" points="353.22,-98.5 363.22,-95 353.22,-91.5 353.22,-98.5"/>
</g>
<!-- 2479389643728 -->
<g id="node5" class="node">
<title>2479389643728</title>
<polygon fill="none" stroke="black" points="538.5,-113 511.5,-95 538.5,-77 565.5,-95 538.5,-113"/>
<text text-anchor="middle" x="538.5" y="-89.97" font-family="Times New Roman,serif" font-size="12.00">+</text>
</g>
<!-- 2479389639360&#45;&gt;2479389643728 -->
<g id="edge4" class="edge">
<title>2479389639360&#45;&gt;2479389643728</title>
<path fill="none" stroke="black" d="M475.97,-95C483.93,-95 491.98,-95 499.51,-95"/>
<polygon fill="black" stroke="black" points="499.32,-98.5 509.32,-95 499.32,-91.5 499.32,-98.5"/>
</g>
<!-- 2479388987840 -->
<g id="node6" class="node">
<title>2479388987840</title>
<polygon fill="none" stroke="black" points="754.75,-140 601.5,-140 601.5,-104 754.75,-104 754.75,-140"/>
<text text-anchor="middle" x="678.12" y="-116.97" font-family="Times New Roman,serif" font-size="12.00">Provide personal information</text>
</g>
<!-- 2479389643728&#45;&gt;2479388987840 -->
<g id="edge6" class="edge">
<title>2479389643728&#45;&gt;2479388987840</title>
<path fill="none" stroke="black" d="M560.1,-99.04C568.54,-100.7 578.92,-102.73 589.98,-104.9"/>
<polygon fill="black" stroke="black" points="589.25,-108.33 599.73,-106.82 590.59,-101.46 589.25,-108.33"/>
</g>
<!-- 2479388984048 -->
<g id="node7" class="node">
<title>2479388984048</title>
<polygon fill="none" stroke="black" points="742.75,-86 613.5,-86 613.5,-50 742.75,-50 742.75,-86"/>
<text text-anchor="middle" x="678.12" y="-62.98" font-family="Times New Roman,serif" font-size="12.00">Provide payment details</text>
</g>
<!-- 2479389643728&#45;&gt;2479388984048 -->
<g id="edge5" class="edge">
<title>2479389643728&#45;&gt;2479388984048</title>
<path fill="none" stroke="black" d="M560.1,-90.96C571.51,-88.72 586.46,-85.79 601.85,-82.77"/>
<polygon fill="black" stroke="black" points="602.47,-86.21 611.6,-80.85 601.12,-79.34 602.47,-86.21"/>
</g>
<!-- 2479389640848 -->
<g id="node8" class="node">
<title>2479389640848</title>
<polygon fill="none" stroke="black" points="817.75,-113 790.75,-95 817.75,-77 844.75,-95 817.75,-113"/>
<text text-anchor="middle" x="817.75" y="-89.97" font-family="Times New Roman,serif" font-size="12.00">+</text>
</g>
<!-- 2479388987840&#45;&gt;2479389640848 -->
<g id="edge7" class="edge">
<title>2479388987840&#45;&gt;2479389640848</title>
<path fill="none" stroke="black" d="M755.18,-107.08C765.64,-105.03 775.88,-103.02 784.91,-101.25"/>
<polygon fill="black" stroke="black" points="785.37,-104.72 794.51,-99.36 784.02,-97.85 785.37,-104.72"/>
</g>
<!-- 2479388984048&#45;&gt;2479389640848 -->
<g id="edge8" class="edge">
<title>2479388984048&#45;&gt;2479389640848</title>
<path fill="none" stroke="black" d="M743.1,-80.55C757.68,-83.41 772.54,-86.33 785.07,-88.78"/>
<polygon fill="black" stroke="black" points="784.3,-92.2 794.79,-90.69 785.65,-85.33 784.3,-92.2"/>
</g>
<!-- 2479389641760 -->
<g id="node9" class="node">
<title>2479389641760</title>
<polygon fill="none" stroke="black" points="968,-113 880.75,-113 880.75,-77 968,-77 968,-113"/>
<text text-anchor="middle" x="924.38" y="-89.97" font-family="Times New Roman,serif" font-size="12.00">Generate ticket</text>
</g>
<!-- 2479389640848&#45;&gt;2479389641760 -->
<g id="edge9" class="edge">
<title>2479389640848&#45;&gt;2479389641760</title>
<path fill="none" stroke="black" d="M845.42,-95C852.75,-95 860.96,-95 869.24,-95"/>
<polygon fill="black" stroke="black" points="868.98,-98.5 878.98,-95 868.98,-91.5 868.98,-98.5"/>
</g>
<!-- 2479389642960 -->
<g id="node10" class="node">
<title>2479389642960</title>
<polygon fill="none" stroke="black" points="1031,-113 1004,-95 1031,-77 1058,-95 1031,-113"/>
<text text-anchor="middle" x="1031" y="-89.97" font-family="Times New Roman,serif" font-size="12.00">+</text>
</g>
<!-- 2479389641760&#45;&gt;2479389642960 -->
<g id="edge10" class="edge">
<title>2479389641760&#45;&gt;2479389642960</title>
<path fill="none" stroke="black" d="M968.23,-95C976.1,-95 984.27,-95 991.98,-95"/>
<polygon fill="black" stroke="black" points="991.74,-98.5 1001.74,-95 991.74,-91.5 991.74,-98.5"/>
</g>
<!-- 2479389729248 -->
<g id="node11" class="node">
<title>2479389729248</title>
<polygon fill="none" stroke="black" points="1153.75,-86 1126.75,-68 1153.75,-50 1180.75,-68 1153.75,-86"/>
<text text-anchor="middle" x="1153.75" y="-62.98" font-family="Times New Roman,serif" font-size="12.00">X</text>
</g>
<!-- 2479389642960&#45;&gt;2479389729248 -->
<g id="edge11" class="edge">
<title>2479389642960&#45;&gt;2479389729248</title>
<path fill="none" stroke="black" d="M1051.94,-90.54C1070.9,-86.3 1099.72,-79.86 1121.69,-74.94"/>
<polygon fill="black" stroke="black" points="1122.31,-78.39 1131.3,-72.8 1120.78,-71.56 1122.31,-78.39"/>
</g>
<!-- 2479389653712 -->
<g id="node12" class="node">
<title>2479389653712</title>
<polygon fill="none" stroke="black" points="1213.5,-140 1094,-140 1094,-104 1213.5,-104 1213.5,-140"/>
<text text-anchor="middle" x="1153.75" y="-116.97" font-family="Times New Roman,serif" font-size="12.00">Update seat inventory</text>
</g>
<!-- 2479389642960&#45;&gt;2479389653712 -->
<g id="edge12" class="edge">
<title>2479389642960&#45;&gt;2479389653712</title>
<path fill="none" stroke="black" d="M1051.94,-99.46C1060.67,-101.41 1071.49,-103.83 1082.77,-106.35"/>
<polygon fill="black" stroke="black" points="1081.67,-109.69 1092.19,-108.46 1083.2,-102.86 1081.67,-109.69"/>
</g>
<!-- 2479388983856 -->
<g id="node13" class="node">
<title>2479388983856</title>
<polygon fill="none" stroke="black" points="1363.75,-90 1249.5,-90 1249.5,-54 1363.75,-54 1363.75,-90"/>
<text text-anchor="middle" x="1306.62" y="-66.97" font-family="Times New Roman,serif" font-size="12.00">Send ticket via email</text>
</g>
<!-- 2479389729248&#45;&gt;2479388983856 -->
<g id="edge14" class="edge">
<title>2479389729248&#45;&gt;2479388983856</title>
<path fill="none" stroke="black" d="M1180.34,-68.68C1196.23,-69.1 1217.46,-69.66 1237.93,-70.21"/>
<polygon fill="black" stroke="black" points="1237.57,-73.7 1247.66,-70.46 1237.76,-66.7 1237.57,-73.7"/>
</g>
<!-- 2479388994704 -->
<g id="node14" class="node">
<title>2479388994704</title>
<polygon fill="none" stroke="black" points="1363,-36 1250.25,-36 1250.25,0 1363,0 1363,-36"/>
<text text-anchor="middle" x="1306.62" y="-12.97" font-family="Times New Roman,serif" font-size="12.00">Send ticket via SMS</text>
</g>
<!-- 2479389729248&#45;&gt;2479388994704 -->
<g id="edge13" class="edge">
<title>2479389729248&#45;&gt;2479388994704</title>
<path fill="none" stroke="black" d="M1172.65,-62.07C1189.24,-56.57 1214.97,-48.04 1239.4,-39.95"/>
<polygon fill="black" stroke="black" points="1240.29,-43.34 1248.68,-36.87 1238.09,-36.69 1240.29,-43.34"/>
</g>
<!-- 2479389641568 -->
<g id="node15" class="node">
<title>2479389641568</title>
<polygon fill="none" stroke="black" points="1516.75,-140 1489.75,-122 1516.75,-104 1543.75,-122 1516.75,-140"/>
<text text-anchor="middle" x="1516.75" y="-116.97" font-family="Times New Roman,serif" font-size="12.00">+</text>
</g>
<!-- 2479389653712&#45;&gt;2479389641568 -->
<g id="edge15" class="edge">
<title>2479389653712&#45;&gt;2479389641568</title>
<path fill="none" stroke="black" d="M1213.96,-122C1288.56,-122 1414.62,-122 1477.58,-122"/>
<polygon fill="black" stroke="black" points="1477.42,-125.5 1487.42,-122 1477.42,-118.5 1477.42,-125.5"/>
</g>
<!-- 2479388995424 -->
<g id="node16" class="node">
<title>2479388995424</title>
<polygon fill="none" stroke="black" points="1426.75,-86 1399.75,-68 1426.75,-50 1453.75,-68 1426.75,-86"/>
<text text-anchor="middle" x="1426.75" y="-62.98" font-family="Times New Roman,serif" font-size="12.00">X</text>
</g>
<!-- 2479388983856&#45;&gt;2479388995424 -->
<g id="edge16" class="edge">
<title>2479388983856&#45;&gt;2479388995424</title>
<path fill="none" stroke="black" d="M1363.92,-70.09C1372.36,-69.81 1380.88,-69.52 1388.79,-69.25"/>
<polygon fill="black" stroke="black" points="1388.83,-72.75 1398.71,-68.92 1388.59,-65.76 1388.83,-72.75"/>
</g>
<!-- 2479388994704&#45;&gt;2479388995424 -->
<g id="edge17" class="edge">
<title>2479388994704&#45;&gt;2479388995424</title>
<path fill="none" stroke="black" d="M1351.27,-36.48C1367.25,-43.24 1384.84,-50.68 1398.91,-56.64"/>
<polygon fill="black" stroke="black" points="1397.38,-59.79 1407.95,-60.47 1400.1,-53.34 1397.38,-59.79"/>
</g>
<!-- 2479388998496 -->
<g id="node17" class="node">
<title>2479388998496</title>
<polygon fill="none" stroke="black" points="1606.75,-140 1579.75,-122 1606.75,-104 1633.75,-122 1606.75,-140"/>
<text text-anchor="middle" x="1606.75" y="-116.97" font-family="Times New Roman,serif" font-size="12.00">+</text>
</g>
<!-- 2479389641568&#45;&gt;2479388998496 -->
<g id="edge18" class="edge">
<title>2479389641568&#45;&gt;2479388998496</title>
<path fill="none" stroke="black" d="M1544.63,-122C1551.88,-122 1559.87,-122 1567.6,-122"/>
<polygon fill="black" stroke="black" points="1567.52,-125.5 1577.52,-122 1567.52,-118.5 1567.52,-125.5"/>
</g>
<!-- 2479389653280 -->
<g id="node18" class="node">
<title>2479389653280</title>
<polygon fill="none" stroke="black" points="1606.75,-86 1579.75,-68 1606.75,-50 1633.75,-68 1606.75,-86"/>
<text text-anchor="middle" x="1606.75" y="-62.98" font-family="Times New Roman,serif" font-size="12.00">+</text>
</g>
<!-- 2479389641568&#45;&gt;2479389653280 -->
<g id="edge19" class="edge">
<title>2479389641568&#45;&gt;2479389653280</title>
<path fill="none" stroke="black" d="M1531.5,-113.56C1545.11,-105.21 1566.21,-92.27 1582.44,-82.3"/>
<polygon fill="black" stroke="black" points="1583.82,-85.56 1590.52,-77.35 1580.16,-79.6 1583.82,-85.56"/>
</g>
<!-- 2479388999408 -->
<g id="node21" class="node">
<title>2479388999408</title>
<polygon fill="none" stroke="black" points="1516.75,-86 1489.75,-68 1516.75,-50 1543.75,-68 1516.75,-86"/>
<text text-anchor="middle" x="1516.75" y="-62.98" font-family="Times New Roman,serif" font-size="12.00">+</text>
</g>
<!-- 2479388995424&#45;&gt;2479388999408 -->
<g id="edge20" class="edge">
<title>2479388995424&#45;&gt;2479388999408</title>
<path fill="none" stroke="black" d="M1454.63,-68C1461.88,-68 1469.87,-68 1477.6,-68"/>
<polygon fill="black" stroke="black" points="1477.52,-71.5 1487.52,-68 1477.52,-64.5 1477.52,-71.5"/>
</g>
<!-- 2479388996336 -->
<g id="node20" class="node">
<title>2479388996336</title>
<polygon fill="none" stroke="black" points="1696.75,-140 1669.75,-122 1696.75,-104 1723.75,-122 1696.75,-140"/>
<text text-anchor="middle" x="1696.75" y="-116.97" font-family="Times New Roman,serif" font-size="12.00">X</text>
</g>
<!-- 2479388998496&#45;&gt;2479388996336 -->
<g id="edge21" class="edge">
<title>2479388998496&#45;&gt;2479388996336</title>
<path fill="none" stroke="black" d="M1634.63,-122C1641.88,-122 1649.87,-122 1657.6,-122"/>
<polygon fill="black" stroke="black" points="1657.52,-125.5 1667.52,-122 1657.52,-118.5 1657.52,-125.5"/>
</g>
<!-- 2479388990144 -->
<g id="node19" class="node">
<title>2479388990144</title>
<polygon fill="none" stroke="black" points="1696.75,-86 1669.75,-68 1696.75,-50 1723.75,-68 1696.75,-86"/>
<text text-anchor="middle" x="1696.75" y="-62.98" font-family="Times New Roman,serif" font-size="12.00">X</text>
</g>
<!-- 2479389653280&#45;&gt;2479388990144 -->
<g id="edge22" class="edge">
<title>2479389653280&#45;&gt;2479388990144</title>
<path fill="none" stroke="black" d="M1634.63,-68C1641.88,-68 1649.87,-68 1657.6,-68"/>
<polygon fill="black" stroke="black" points="1657.52,-71.5 1667.52,-68 1657.52,-64.5 1657.52,-71.5"/>
</g>
<!-- 2479388985488 -->
<g id="node23" class="node">
<title>2479388985488</title>
<polygon fill="none" stroke="black" points="1856.75,-89 1759.75,-89 1759.75,-53 1856.75,-53 1856.75,-89"/>
<text text-anchor="middle" x="1808.25" y="-65.97" font-family="Times New Roman,serif" font-size="12.00">Send instructions</text>
</g>
<!-- 2479388990144&#45;&gt;2479388985488 -->
<g id="edge25" class="edge">
<title>2479388990144&#45;&gt;2479388985488</title>
<path fill="none" stroke="black" d="M1723.42,-68.7C1730.89,-68.91 1739.38,-69.14 1748.02,-69.38"/>
<polygon fill="black" stroke="black" points="1747.79,-72.87 1757.88,-69.65 1747.98,-65.87 1747.79,-72.87"/>
</g>
<!-- 2479388998976 -->
<g id="node22" class="node">
<title>2479388998976</title>
<polygon fill="none" stroke="black" points="1850.75,-183 1765.75,-183 1765.75,-147 1850.75,-147 1850.75,-183"/>
<text text-anchor="middle" x="1808.25" y="-159.97" font-family="Times New Roman,serif" font-size="12.00">Send reminder</text>
</g>
<!-- 2479388996336&#45;&gt;2479388998976 -->
<g id="edge26" class="edge">
<title>2479388996336&#45;&gt;2479388998976</title>
<path fill="none" stroke="black" d="M1714.38,-128.53C1725.26,-132.8 1740.13,-138.64 1754.78,-144.39"/>
<polygon fill="black" stroke="black" points="1753.35,-147.59 1763.94,-147.99 1755.91,-141.08 1753.35,-147.59"/>
</g>
<!-- 2479388999408&#45;&gt;2479388998496 -->
<g id="edge23" class="edge">
<title>2479388999408&#45;&gt;2479388998496</title>
<path fill="none" stroke="black" d="M1531.5,-76.44C1545.11,-84.79 1566.21,-97.73 1582.44,-107.7"/>
<polygon fill="black" stroke="black" points="1580.16,-110.4 1590.52,-112.65 1583.82,-104.44 1580.16,-110.4"/>
</g>
<!-- 2479388999408&#45;&gt;2479389653280 -->
<g id="edge24" class="edge">
<title>2479388999408&#45;&gt;2479389653280</title>
<path fill="none" stroke="black" d="M1544.63,-68C1551.88,-68 1559.87,-68 1567.6,-68"/>
<polygon fill="black" stroke="black" points="1567.52,-71.5 1577.52,-68 1567.52,-64.5 1567.52,-71.5"/>
</g>
<!-- 2479388995712 -->
<g id="node24" class="node">
<title>2479388995712</title>
<polygon fill="none" stroke="black" points="1919.75,-141 1892.75,-123 1919.75,-105 1946.75,-123 1919.75,-141"/>
<text text-anchor="middle" x="1919.75" y="-117.97" font-family="Times New Roman,serif" font-size="12.00">X</text>
</g>
<!-- 2479388998976&#45;&gt;2479388995712 -->
<g id="edge27" class="edge">
<title>2479388998976&#45;&gt;2479388995712</title>
<path fill="none" stroke="black" d="M1850.96,-149C1864.47,-143.82 1879.11,-138.2 1891.31,-133.52"/>
<polygon fill="black" stroke="black" points="1892.24,-136.92 1900.32,-130.07 1889.73,-130.38 1892.24,-136.92"/>
</g>
<!-- 2479388995472 -->
<g id="node25" class="node">
<title>2479388995472</title>
<polygon fill="none" stroke="black" points="1919.75,-87 1892.75,-69 1919.75,-51 1946.75,-69 1919.75,-87"/>
<text text-anchor="middle" x="1919.75" y="-63.98" font-family="Times New Roman,serif" font-size="12.00">X</text>
</g>
<!-- 2479388985488&#45;&gt;2479388995472 -->
<g id="edge28" class="edge">
<title>2479388985488&#45;&gt;2479388995472</title>
<path fill="none" stroke="black" d="M1856.96,-70.13C1865.15,-69.98 1873.55,-69.83 1881.42,-69.68"/>
<polygon fill="black" stroke="black" points="1881.41,-73.18 1891.34,-69.5 1881.28,-66.18 1881.41,-73.18"/>
</g>
<!-- 2479388995712&#45;&gt;2479388996336 -->
<g id="edge29" class="edge">
<title>2479388995712&#45;&gt;2479388996336</title>
<path fill="none" stroke="black" d="M1892.34,-122.88C1853.39,-122.7 1780.33,-122.37 1735.66,-122.17"/>
<polygon fill="black" stroke="black" points="1735.94,-118.67 1725.92,-122.13 1735.91,-125.67 1735.94,-118.67"/>
</g>
<!-- 2479389651360 -->
<g id="node26" class="node">
<title>2479389651360</title>
<polygon fill="none" stroke="black" points="2009.75,-114 1982.75,-96 2009.75,-78 2036.75,-96 2009.75,-114"/>
<text text-anchor="middle" x="2009.75" y="-90.97" font-family="Times New Roman,serif" font-size="12.00">+</text>
</g>
<!-- 2479388995712&#45;&gt;2479389651360 -->
<g id="edge31" class="edge">
<title>2479388995712&#45;&gt;2479389651360</title>
<path fill="none" stroke="black" d="M1938.98,-117.41C1950.78,-113.79 1966.4,-108.99 1979.86,-104.86"/>
<polygon fill="black" stroke="black" points="1980.56,-108.31 1989.09,-102.03 1978.51,-101.62 1980.56,-108.31"/>
</g>
<!-- 2479388995472&#45;&gt;2479388990144 -->
<g id="edge30" class="edge">
<title>2479388995472&#45;&gt;2479388990144</title>
<path fill="none" stroke="black" d="M1903.96,-61.15C1891.7,-55.12 1873.61,-47.27 1856.75,-44 1814.43,-35.79 1802.13,-36.08 1759.75,-44 1747.24,-46.34 1734.01,-51.11 1722.99,-55.79"/>
<polygon fill="black" stroke="black" points="1721.9,-52.44 1714.21,-59.73 1724.77,-58.83 1721.9,-52.44"/>
</g>
<!-- 2479388995472&#45;&gt;2479389651360 -->
<g id="edge32" class="edge">
<title>2479388995472&#45;&gt;2479389651360</title>
<path fill="none" stroke="black" d="M1938.98,-74.59C1950.78,-78.21 1966.4,-83.01 1979.86,-87.14"/>
<polygon fill="black" stroke="black" points="1978.51,-90.38 1989.09,-89.97 1980.56,-83.69 1978.51,-90.38"/>
</g>
<!-- 2479389650496 -->
<g id="node27" class="node">
<title>2479389650496</title>
<polygon fill="none" stroke="black" points="2223.75,-114 2072.75,-114 2072.75,-78 2223.75,-78 2223.75,-114"/>
<text text-anchor="middle" x="2148.25" y="-90.97" font-family="Times New Roman,serif" font-size="12.00">Customer completes journey</text>
</g>
<!-- 2479389651360&#45;&gt;2479389650496 -->
<g id="edge33" class="edge">
<title>2479389651360&#45;&gt;2479389650496</title>
<path fill="none" stroke="black" d="M2037.39,-96C2044.51,-96 2052.61,-96 2061.11,-96"/>
<polygon fill="black" stroke="black" points="2060.94,-99.5 2070.94,-96 2060.94,-92.5 2060.94,-99.5"/>
</g>
<!-- 2479389652848 -->
<g id="node28" class="node">
<title>2479389652848</title>
<polygon fill="none" stroke="black" points="2425,-114 2259.75,-114 2259.75,-78 2425,-78 2425,-114"/>
<text text-anchor="middle" x="2342.38" y="-90.97" font-family="Times New Roman,serif" font-size="12.00">Post&#45;travel feedback or services</text>
</g>
<!-- 2479389650496&#45;&gt;2479389652848 -->
<g id="edge34" class="edge">
<title>2479389650496&#45;&gt;2479389652848</title>
<path fill="none" stroke="black" d="M2224.08,-96C2231.96,-96 2240.04,-96 2248.09,-96"/>
<polygon fill="black" stroke="black" points="2247.92,-99.5 2257.92,-96 2247.92,-92.5 2247.92,-99.5"/>
</g>
<!-- 2479389943296 -->
<g id="node29" class="node">
<title>2479389943296</title>
<ellipse fill="orange" stroke="black" cx="2479" cy="-96" rx="18" ry="18"/>
</g>
<!-- 2479389652848&#45;&gt;2479389943296 -->
<g id="edge35" class="edge">
<title>2479389652848&#45;&gt;2479389943296</title>
<path fill="none" stroke="black" d="M2425.18,-96C2433.79,-96 2442.06,-96 2449.4,-96"/>
<polygon fill="black" stroke="black" points="2449.26,-99.5 2459.26,-96 2449.26,-92.5 2449.26,-99.5"/>
</g>
</g>
</svg>
