<?xml version="1.0" encoding="UTF-8" standalone="no"?>
<!DOCTYPE svg PUBLIC "-//W3C//DTD SVG 1.1//EN"
 "http://www.w3.org/Graphics/SVG/1.1/DTD/svg11.dtd">
<!-- Generated by graphviz version 11.0.0 (20240428.1522)
 -->
<!-- Pages: 1 -->
<svg width="2415pt" height="189pt"
 viewBox="0.00 0.00 2415.00 189.00" xmlns="http://www.w3.org/2000/svg" xmlns:xlink="http://www.w3.org/1999/xlink">
<g id="graph0" class="graph" transform="scale(1 1) rotate(0) translate(4 185)">
<polygon fill="white" stroke="none" points="-4,4 -4,-185 2411,-185 2411,4 -4,4"/>
<!-- 2479389935904 -->
<g id="node1" class="node">
<title>2479389935904</title>
<ellipse fill="green" stroke="black" cx="18" cy="-95" rx="18" ry="18"/>
</g>
<!-- 2479389939504 -->
<g id="node2" class="node">
<title>2479389939504</title>
<polygon fill="none" stroke="black" points="221.5,-113 72,-113 72,-77 221.5,-77 221.5,-113"/>
<text text-anchor="middle" x="146.75" y="-89.97" font-family="Times New Roman,serif" font-size="12.00">Customer searches for ticket</text>
</g>
<!-- 2479389935904&#45;&gt;2479389939504 -->
<g id="edge1" class="edge">
<title>2479389935904&#45;&gt;2479389939504</title>
<path fill="none" stroke="black" d="M36.36,-95C43.15,-95 51.48,-95 60.48,-95"/>
<polygon fill="black" stroke="black" points="60.22,-98.5 70.22,-95 60.22,-91.5 60.22,-98.5"/>
</g>
<!-- 2479389943776 -->
<g id="node3" class="node">
<title>2479389943776</title>
<polygon fill="none" stroke="black" points="329,-113 257.5,-113 257.5,-77 329,-77 329,-113"/>
<text text-anchor="middle" x="293.25" y="-89.97" font-family="Times New Roman,serif" font-size="12.00">Select route</text>
</g>
<!-- 2479389939504&#45;&gt;2479389943776 -->
<g id="edge2" class="edge">
<title>2479389939504&#45;&gt;2479389943776</title>
<path fill="none" stroke="black" d="M221.69,-95C229.9,-95 238.08,-95 245.8,-95"/>
<polygon fill="black" stroke="black" points="245.61,-98.5 255.61,-95 245.61,-91.5 245.61,-98.5"/>
</g>
<!-- 2479389939600 -->
<g id="node4" class="node">
<title>2479389939600</title>
<polygon fill="none" stroke="black" points="475.5,-113 365,-113 365,-77 475.5,-77 475.5,-113"/>
<text text-anchor="middle" x="420.25" y="-89.97" font-family="Times New Roman,serif" font-size="12.00">Select date and time</text>
</g>
<!-- 2479389943776&#45;&gt;2479389939600 -->
<g id="edge3" class="edge">
<title>2479389943776&#45;&gt;2479389939600</title>
<path fill="none" stroke="black" d="M329.4,-95C336.95,-95 345.16,-95 353.44,-95"/>
<polygon fill="black" stroke="black" points="353.22,-98.5 363.22,-95 353.22,-91.5 353.22,-98.5"/>
</g>
<!-- 2479389941664 -->
<g id="node5" class="node">
<title>2479389941664</title>
<polygon fill="none" stroke="black" points="538.5,-113 511.5,-95 538.5,-77 565.5,-95 538.5,-113"/>
<text text-anchor="middle" x="538.5" y="-89.97" font-family="Times New Roman,serif" font-size="12.00">+</text>
</g>
<!-- 2479389939600&#45;&gt;2479389941664 -->
<g id="edge4" class="edge">
<title>2479389939600&#45;&gt;2479389941664</title>
<path fill="none" stroke="black" d="M475.97,-95C483.93,-95 491.98,-95 499.51,-95"/>
<polygon fill="black" stroke="black" points="499.32,-98.5 509.32,-95 499.32,-91.5 499.32,-98.5"/>
</g>
<!-- 2479389883040 -->
<g id="node6" class="node">
<title>2479389883040</title>
<polygon fill="none" stroke="black" points="754.75,-140 601.5,-140 601.5,-104 754.75,-104 754.75,-140"/>
<text text-anchor="middle" x="678.12" y="-116.97" font-family="Times New Roman,serif" font-size="12.00">Provide personal information</text>
</g>
<!-- 2479389941664&#45;&gt;2479389883040 -->
<g id="edge5" class="edge">
<title>2479389941664&#45;&gt;2479389883040</title>
<path fill="none" stroke="black" d="M560.1,-99.04C568.54,-100.7 578.92,-102.73 589.98,-104.9"/>
<polygon fill="black" stroke="black" points="589.25,-108.33 599.73,-106.82 590.59,-101.46 589.25,-108.33"/>
</g>
<!-- 2479389883136 -->
<g id="node7" class="node">
<title>2479389883136</title>
<polygon fill="none" stroke="black" points="742.75,-86 613.5,-86 613.5,-50 742.75,-50 742.75,-86"/>
<text text-anchor="middle" x="678.12" y="-62.98" font-family="Times New Roman,serif" font-size="12.00">Provide payment details</text>
</g>
<!-- 2479389941664&#45;&gt;2479389883136 -->
<g id="edge6" class="edge">
<title>2479389941664&#45;&gt;2479389883136</title>
<path fill="none" stroke="black" d="M560.1,-90.96C571.51,-88.72 586.46,-85.79 601.85,-82.77"/>
<polygon fill="black" stroke="black" points="602.47,-86.21 611.6,-80.85 601.12,-79.34 602.47,-86.21"/>
</g>
<!-- 2479389883520 -->
<g id="node8" class="node">
<title>2479389883520</title>
<polygon fill="none" stroke="black" points="817.75,-113 790.75,-95 817.75,-77 844.75,-95 817.75,-113"/>
<text text-anchor="middle" x="817.75" y="-89.97" font-family="Times New Roman,serif" font-size="12.00">+</text>
</g>
<!-- 2479389883040&#45;&gt;2479389883520 -->
<g id="edge7" class="edge">
<title>2479389883040&#45;&gt;2479389883520</title>
<path fill="none" stroke="black" d="M755.18,-107.08C765.64,-105.03 775.88,-103.02 784.91,-101.25"/>
<polygon fill="black" stroke="black" points="785.37,-104.72 794.51,-99.36 784.02,-97.85 785.37,-104.72"/>
</g>
<!-- 2479389883136&#45;&gt;2479389883520 -->
<g id="edge8" class="edge">
<title>2479389883136&#45;&gt;2479389883520</title>
<path fill="none" stroke="black" d="M743.1,-80.55C757.68,-83.41 772.54,-86.33 785.07,-88.78"/>
<polygon fill="black" stroke="black" points="784.3,-92.2 794.79,-90.69 785.65,-85.33 784.3,-92.2"/>
</g>
<!-- 2479389882416 -->
<g id="node9" class="node">
<title>2479389882416</title>
<polygon fill="none" stroke="black" points="968,-113 880.75,-113 880.75,-77 968,-77 968,-113"/>
<text text-anchor="middle" x="924.38" y="-89.97" font-family="Times New Roman,serif" font-size="12.00">Generate ticket</text>
</g>
<!-- 2479389883520&#45;&gt;2479389882416 -->
<g id="edge9" class="edge">
<title>2479389883520&#45;&gt;2479389882416</title>
<path fill="none" stroke="black" d="M845.42,-95C852.75,-95 860.96,-95 869.24,-95"/>
<polygon fill="black" stroke="black" points="868.98,-98.5 878.98,-95 868.98,-91.5 868.98,-98.5"/>
</g>
<!-- 2479389882176 -->
<g id="node10" class="node">
<title>2479389882176</title>
<polygon fill="none" stroke="black" points="1031,-113 1004,-95 1031,-77 1058,-95 1031,-113"/>
<text text-anchor="middle" x="1031" y="-89.97" font-family="Times New Roman,serif" font-size="12.00">+</text>
</g>
<!-- 2479389882416&#45;&gt;2479389882176 -->
<g id="edge10" class="edge">
<title>2479389882416&#45;&gt;2479389882176</title>
<path fill="none" stroke="black" d="M968.23,-95C976.1,-95 984.27,-95 991.98,-95"/>
<polygon fill="black" stroke="black" points="991.74,-98.5 1001.74,-95 991.74,-91.5 991.74,-98.5"/>
</g>
<!-- 2479389945072 -->
<g id="node11" class="node">
<title>2479389945072</title>
<polygon fill="none" stroke="black" points="1153.75,-86 1126.75,-68 1153.75,-50 1180.75,-68 1153.75,-86"/>
<text text-anchor="middle" x="1153.75" y="-62.98" font-family="Times New Roman,serif" font-size="12.00">X</text>
</g>
<!-- 2479389882176&#45;&gt;2479389945072 -->
<g id="edge11" class="edge">
<title>2479389882176&#45;&gt;2479389945072</title>
<path fill="none" stroke="black" d="M1051.94,-90.54C1070.9,-86.3 1099.72,-79.86 1121.69,-74.94"/>
<polygon fill="black" stroke="black" points="1122.31,-78.39 1131.3,-72.8 1120.78,-71.56 1122.31,-78.39"/>
</g>
<!-- 2479389937152 -->
<g id="node12" class="node">
<title>2479389937152</title>
<polygon fill="none" stroke="black" points="1213.5,-140 1094,-140 1094,-104 1213.5,-104 1213.5,-140"/>
<text text-anchor="middle" x="1153.75" y="-116.97" font-family="Times New Roman,serif" font-size="12.00">Update seat inventory</text>
</g>
<!-- 2479389882176&#45;&gt;2479389937152 -->
<g id="edge12" class="edge">
<title>2479389882176&#45;&gt;2479389937152</title>
<path fill="none" stroke="black" d="M1051.94,-99.46C1060.67,-101.41 1071.49,-103.83 1082.77,-106.35"/>
<polygon fill="black" stroke="black" points="1081.67,-109.69 1092.19,-108.46 1083.2,-102.86 1081.67,-109.69"/>
</g>
<!-- 2479389934944 -->
<g id="node14" class="node">
<title>2479389934944</title>
<polygon fill="none" stroke="black" points="1363,-90 1250.25,-90 1250.25,-54 1363,-54 1363,-90"/>
<text text-anchor="middle" x="1306.62" y="-66.97" font-family="Times New Roman,serif" font-size="12.00">Send ticket via SMS</text>
</g>
<!-- 2479389945072&#45;&gt;2479389934944 -->
<g id="edge13" class="edge">
<title>2479389945072&#45;&gt;2479389934944</title>
<path fill="none" stroke="black" d="M1180.34,-68.68C1196.38,-69.1 1217.84,-69.67 1238.47,-70.22"/>
<polygon fill="black" stroke="black" points="1238.21,-73.71 1248.3,-70.48 1238.39,-66.72 1238.21,-73.71"/>
</g>
<!-- 2479389025360 -->
<g id="node15" class="node">
<title>2479389025360</title>
<polygon fill="none" stroke="black" points="1363.75,-36 1249.5,-36 1249.5,0 1363.75,0 1363.75,-36"/>
<text text-anchor="middle" x="1306.62" y="-12.97" font-family="Times New Roman,serif" font-size="12.00">Send ticket via email</text>
</g>
<!-- 2479389945072&#45;&gt;2479389025360 -->
<g id="edge14" class="edge">
<title>2479389945072&#45;&gt;2479389025360</title>
<path fill="none" stroke="black" d="M1172.65,-62.07C1189.24,-56.57 1214.97,-48.04 1239.4,-39.95"/>
<polygon fill="black" stroke="black" points="1240.29,-43.34 1248.68,-36.87 1238.09,-36.69 1240.29,-43.34"/>
</g>
<!-- 2479389943200 -->
<g id="node13" class="node">
<title>2479389943200</title>
<polygon fill="none" stroke="black" points="1516.75,-140 1489.75,-122 1516.75,-104 1543.75,-122 1516.75,-140"/>
<text text-anchor="middle" x="1516.75" y="-116.97" font-family="Times New Roman,serif" font-size="12.00">+</text>
</g>
<!-- 2479389937152&#45;&gt;2479389943200 -->
<g id="edge15" class="edge">
<title>2479389937152&#45;&gt;2479389943200</title>
<path fill="none" stroke="black" d="M1213.96,-122C1288.56,-122 1414.62,-122 1477.58,-122"/>
<polygon fill="black" stroke="black" points="1477.42,-125.5 1487.42,-122 1477.42,-118.5 1477.42,-125.5"/>
</g>
<!-- 2479389935568 -->
<g id="node17" class="node">
<title>2479389935568</title>
<polygon fill="none" stroke="black" points="1606.75,-86 1579.75,-68 1606.75,-50 1633.75,-68 1606.75,-86"/>
<text text-anchor="middle" x="1606.75" y="-62.98" font-family="Times New Roman,serif" font-size="12.00">+</text>
</g>
<!-- 2479389943200&#45;&gt;2479389935568 -->
<g id="edge16" class="edge">
<title>2479389943200&#45;&gt;2479389935568</title>
<path fill="none" stroke="black" d="M1531.5,-113.56C1545.11,-105.21 1566.21,-92.27 1582.44,-82.3"/>
<polygon fill="black" stroke="black" points="1583.82,-85.56 1590.52,-77.35 1580.16,-79.6 1583.82,-85.56"/>
</g>
<!-- 2479389873968 -->
<g id="node18" class="node">
<title>2479389873968</title>
<polygon fill="none" stroke="black" points="1606.75,-140 1579.75,-122 1606.75,-104 1633.75,-122 1606.75,-140"/>
<text text-anchor="middle" x="1606.75" y="-116.97" font-family="Times New Roman,serif" font-size="12.00">+</text>
</g>
<!-- 2479389943200&#45;&gt;2479389873968 -->
<g id="edge17" class="edge">
<title>2479389943200&#45;&gt;2479389873968</title>
<path fill="none" stroke="black" d="M1544.63,-122C1551.88,-122 1559.87,-122 1567.6,-122"/>
<polygon fill="black" stroke="black" points="1567.52,-125.5 1577.52,-122 1567.52,-118.5 1567.52,-125.5"/>
</g>
<!-- 2479389945312 -->
<g id="node16" class="node">
<title>2479389945312</title>
<polygon fill="none" stroke="black" points="1426.75,-86 1399.75,-68 1426.75,-50 1453.75,-68 1426.75,-86"/>
<text text-anchor="middle" x="1426.75" y="-62.98" font-family="Times New Roman,serif" font-size="12.00">X</text>
</g>
<!-- 2479389934944&#45;&gt;2479389945312 -->
<g id="edge18" class="edge">
<title>2479389934944&#45;&gt;2479389945312</title>
<path fill="none" stroke="black" d="M1363.23,-70.12C1371.91,-69.82 1380.7,-69.53 1388.83,-69.25"/>
<polygon fill="black" stroke="black" points="1388.79,-72.75 1398.67,-68.92 1388.56,-65.76 1388.79,-72.75"/>
</g>
<!-- 2479389025360&#45;&gt;2479389945312 -->
<g id="edge19" class="edge">
<title>2479389025360&#45;&gt;2479389945312</title>
<path fill="none" stroke="black" d="M1351.27,-36.48C1367.25,-43.24 1384.84,-50.68 1398.91,-56.64"/>
<polygon fill="black" stroke="black" points="1397.38,-59.79 1407.95,-60.47 1400.1,-53.34 1397.38,-59.79"/>
</g>
<!-- 2479389941424 -->
<g id="node21" class="node">
<title>2479389941424</title>
<polygon fill="none" stroke="black" points="1516.75,-86 1489.75,-68 1516.75,-50 1543.75,-68 1516.75,-86"/>
<text text-anchor="middle" x="1516.75" y="-62.98" font-family="Times New Roman,serif" font-size="12.00">+</text>
</g>
<!-- 2479389945312&#45;&gt;2479389941424 -->
<g id="edge20" class="edge">
<title>2479389945312&#45;&gt;2479389941424</title>
<path fill="none" stroke="black" d="M1454.63,-68C1461.88,-68 1469.87,-68 1477.6,-68"/>
<polygon fill="black" stroke="black" points="1477.52,-71.5 1487.52,-68 1477.52,-64.5 1477.52,-71.5"/>
</g>
<!-- 2479389946128 -->
<g id="node20" class="node">
<title>2479389946128</title>
<polygon fill="none" stroke="black" points="1696.75,-86 1669.75,-68 1696.75,-50 1723.75,-68 1696.75,-86"/>
<text text-anchor="middle" x="1696.75" y="-62.98" font-family="Times New Roman,serif" font-size="12.00">X</text>
</g>
<!-- 2479389935568&#45;&gt;2479389946128 -->
<g id="edge21" class="edge">
<title>2479389935568&#45;&gt;2479389946128</title>
<path fill="none" stroke="black" d="M1634.63,-68C1641.88,-68 1649.87,-68 1657.6,-68"/>
<polygon fill="black" stroke="black" points="1657.52,-71.5 1667.52,-68 1657.52,-64.5 1657.52,-71.5"/>
</g>
<!-- 2479389949008 -->
<g id="node19" class="node">
<title>2479389949008</title>
<polygon fill="none" stroke="black" points="1696.75,-140 1669.75,-122 1696.75,-104 1723.75,-122 1696.75,-140"/>
<text text-anchor="middle" x="1696.75" y="-116.97" font-family="Times New Roman,serif" font-size="12.00">X</text>
</g>
<!-- 2479389873968&#45;&gt;2479389949008 -->
<g id="edge22" class="edge">
<title>2479389873968&#45;&gt;2479389949008</title>
<path fill="none" stroke="black" d="M1634.63,-122C1641.88,-122 1649.87,-122 1657.6,-122"/>
<polygon fill="black" stroke="black" points="1657.52,-125.5 1667.52,-122 1657.52,-118.5 1657.52,-125.5"/>
</g>
<!-- 2479389945744 -->
<g id="node22" class="node">
<title>2479389945744</title>
<polygon fill="none" stroke="black" points="1786.75,-140 1759.75,-122 1786.75,-104 1813.75,-122 1786.75,-140"/>
<text text-anchor="middle" x="1786.75" y="-116.97" font-family="Times New Roman,serif" font-size="12.00">X</text>
</g>
<!-- 2479389949008&#45;&gt;2479389945744 -->
<g id="edge25" class="edge">
<title>2479389949008&#45;&gt;2479389945744</title>
<path fill="none" stroke="black" d="M1724.63,-122C1731.88,-122 1739.87,-122 1747.6,-122"/>
<polygon fill="black" stroke="black" points="1747.52,-125.5 1757.52,-122 1747.52,-118.5 1747.52,-125.5"/>
</g>
<!-- 2479389945360 -->
<g id="node23" class="node">
<title>2479389945360</title>
<polygon fill="none" stroke="black" points="1786.75,-86 1759.75,-68 1786.75,-50 1813.75,-68 1786.75,-86"/>
<text text-anchor="middle" x="1786.75" y="-62.98" font-family="Times New Roman,serif" font-size="12.00">X</text>
</g>
<!-- 2479389946128&#45;&gt;2479389945360 -->
<g id="edge26" class="edge">
<title>2479389946128&#45;&gt;2479389945360</title>
<path fill="none" stroke="black" d="M1724.63,-68C1731.88,-68 1739.87,-68 1747.6,-68"/>
<polygon fill="black" stroke="black" points="1747.52,-71.5 1757.52,-68 1747.52,-64.5 1747.52,-71.5"/>
</g>
<!-- 2479389941424&#45;&gt;2479389935568 -->
<g id="edge23" class="edge">
<title>2479389941424&#45;&gt;2479389935568</title>
<path fill="none" stroke="black" d="M1544.63,-68C1551.88,-68 1559.87,-68 1567.6,-68"/>
<polygon fill="black" stroke="black" points="1567.52,-71.5 1577.52,-68 1567.52,-64.5 1567.52,-71.5"/>
</g>
<!-- 2479389941424&#45;&gt;2479389873968 -->
<g id="edge24" class="edge">
<title>2479389941424&#45;&gt;2479389873968</title>
<path fill="none" stroke="black" d="M1531.5,-76.44C1545.11,-84.79 1566.21,-97.73 1582.44,-107.7"/>
<polygon fill="black" stroke="black" points="1580.16,-110.4 1590.52,-112.65 1583.82,-104.44 1580.16,-110.4"/>
</g>
<!-- 2479389943872 -->
<g id="node24" class="node">
<title>2479389943872</title>
<polygon fill="none" stroke="black" points="1898.25,-122 1871.25,-104 1898.25,-86 1925.25,-104 1898.25,-122"/>
<text text-anchor="middle" x="1898.25" y="-98.97" font-family="Times New Roman,serif" font-size="12.00">+</text>
</g>
<!-- 2479389945744&#45;&gt;2479389943872 -->
<g id="edge27" class="edge">
<title>2479389945744&#45;&gt;2479389943872</title>
<path fill="none" stroke="black" d="M1809.12,-118.49C1824.95,-115.88 1846.79,-112.29 1864.78,-109.34"/>
<polygon fill="black" stroke="black" points="1865.14,-112.83 1874.44,-107.75 1864,-105.92 1865.14,-112.83"/>
</g>
<!-- 2479389877088 -->
<g id="node25" class="node">
<title>2479389877088</title>
<polygon fill="none" stroke="black" points="1940.75,-181 1855.75,-181 1855.75,-145 1940.75,-145 1940.75,-181"/>
<text text-anchor="middle" x="1898.25" y="-157.97" font-family="Times New Roman,serif" font-size="12.00">Send reminder</text>
</g>
<!-- 2479389945744&#45;&gt;2479389877088 -->
<g id="edge28" class="edge">
<title>2479389945744&#45;&gt;2479389877088</title>
<path fill="none" stroke="black" d="M1804.86,-128.41C1815.8,-132.5 1830.62,-138.05 1845.19,-143.51"/>
<polygon fill="black" stroke="black" points="1843.69,-146.68 1854.28,-146.91 1846.14,-140.13 1843.69,-146.68"/>
</g>
<!-- 2479389945360&#45;&gt;2479389943872 -->
<g id="edge29" class="edge">
<title>2479389945360&#45;&gt;2479389943872</title>
<path fill="none" stroke="black" d="M1805.34,-73.78C1822.4,-79.39 1848.58,-88 1868.63,-94.59"/>
<polygon fill="black" stroke="black" points="1867.31,-97.84 1877.9,-97.64 1869.49,-91.19 1867.31,-97.84"/>
</g>
<!-- 2479389873728 -->
<g id="node26" class="node">
<title>2479389873728</title>
<polygon fill="none" stroke="black" points="1946.75,-59 1849.75,-59 1849.75,-23 1946.75,-23 1946.75,-59"/>
<text text-anchor="middle" x="1898.25" y="-35.98" font-family="Times New Roman,serif" font-size="12.00">Send instructions</text>
</g>
<!-- 2479389945360&#45;&gt;2479389873728 -->
<g id="edge30" class="edge">
<title>2479389945360&#45;&gt;2479389873728</title>
<path fill="none" stroke="black" d="M1807.33,-63.17C1816.28,-60.97 1827.4,-58.22 1838.74,-55.43"/>
<polygon fill="black" stroke="black" points="1839.28,-58.9 1848.15,-53.11 1837.6,-52.1 1839.28,-58.9"/>
</g>
<!-- 2479389942624 -->
<g id="node27" class="node">
<title>2479389942624</title>
<polygon fill="none" stroke="black" points="2133.75,-122 1982.75,-122 1982.75,-86 2133.75,-86 2133.75,-122"/>
<text text-anchor="middle" x="2058.25" y="-98.97" font-family="Times New Roman,serif" font-size="12.00">Customer completes journey</text>
</g>
<!-- 2479389943872&#45;&gt;2479389942624 -->
<g id="edge33" class="edge">
<title>2479389943872&#45;&gt;2479389942624</title>
<path fill="none" stroke="black" d="M1926.05,-104C1938.71,-104 1954.61,-104 1970.93,-104"/>
<polygon fill="black" stroke="black" points="1970.75,-107.5 1980.75,-104 1970.75,-100.5 1970.75,-107.5"/>
</g>
<!-- 2479389877088&#45;&gt;2479389949008 -->
<g id="edge31" class="edge">
<title>2479389877088&#45;&gt;2479389949008</title>
<path fill="none" stroke="black" d="M1855.44,-162.09C1827.88,-160.68 1791.2,-157.24 1759.75,-149 1747.14,-145.7 1733.81,-140.18 1722.76,-135"/>
<polygon fill="black" stroke="black" points="1724.45,-131.93 1713.93,-130.68 1721.37,-138.22 1724.45,-131.93"/>
</g>
<!-- 2479389873728&#45;&gt;2479389946128 -->
<g id="edge32" class="edge">
<title>2479389873728&#45;&gt;2479389946128</title>
<path fill="none" stroke="black" d="M1849.35,-36.24C1822.7,-34.77 1789.08,-34.89 1759.75,-41 1746.82,-43.69 1733.28,-49.23 1722.16,-54.6"/>
<polygon fill="black" stroke="black" points="1720.64,-51.45 1713.32,-59.11 1723.82,-57.69 1720.64,-51.45"/>
</g>
<!-- 2479389879968 -->
<g id="node28" class="node">
<title>2479389879968</title>
<polygon fill="none" stroke="black" points="2335,-122 2169.75,-122 2169.75,-86 2335,-86 2335,-122"/>
<text text-anchor="middle" x="2252.38" y="-98.97" font-family="Times New Roman,serif" font-size="12.00">Post&#45;travel feedback or services</text>
</g>
<!-- 2479389942624&#45;&gt;2479389879968 -->
<g id="edge34" class="edge">
<title>2479389942624&#45;&gt;2479389879968</title>
<path fill="none" stroke="black" d="M2134.08,-104C2141.96,-104 2150.04,-104 2158.09,-104"/>
<polygon fill="black" stroke="black" points="2157.92,-107.5 2167.92,-104 2157.92,-100.5 2157.92,-107.5"/>
</g>
<!-- 2479389936336 -->
<g id="node29" class="node">
<title>2479389936336</title>
<ellipse fill="orange" stroke="black" cx="2389" cy="-104" rx="18" ry="18"/>
</g>
<!-- 2479389879968&#45;&gt;2479389936336 -->
<g id="edge35" class="edge">
<title>2479389879968&#45;&gt;2479389936336</title>
<path fill="none" stroke="black" d="M2335.18,-104C2343.79,-104 2352.06,-104 2359.4,-104"/>
<polygon fill="black" stroke="black" points="2359.26,-107.5 2369.26,-104 2359.26,-100.5 2359.26,-107.5"/>
</g>
</g>
</svg>
