<?xml version="1.0" encoding="UTF-8" standalone="no"?>
<!DOCTYPE svg PUBLIC "-//W3C//DTD SVG 1.1//EN"
 "http://www.w3.org/Graphics/SVG/1.1/DTD/svg11.dtd">
<!-- Generated by graphviz version 11.0.0 (20240428.1522)
 -->
<!-- Pages: 1 -->
<svg width="1937pt" height="260pt"
 viewBox="0.00 0.00 1937.00 260.00" xmlns="http://www.w3.org/2000/svg" xmlns:xlink="http://www.w3.org/1999/xlink">
<g id="graph0" class="graph" transform="scale(1 1) rotate(0) translate(4 256)">
<polygon fill="white" stroke="none" points="-4,4 -4,-256 1933,-256 1933,4 -4,4"/>
<!-- 2479389943344 -->
<g id="node1" class="node">
<title>2479389943344</title>
<ellipse fill="green" stroke="black" cx="18" cy="-126" rx="18" ry="18"/>
</g>
<!-- 2479389025504 -->
<g id="node2" class="node">
<title>2479389025504</title>
<polygon fill="none" stroke="black" points="221.5,-144 72,-144 72,-108 221.5,-108 221.5,-144"/>
<text text-anchor="middle" x="146.75" y="-120.97" font-family="Times New Roman,serif" font-size="12.00">Customer searches for ticket</text>
</g>
<!-- 2479389943344&#45;&gt;2479389025504 -->
<g id="edge1" class="edge">
<title>2479389943344&#45;&gt;2479389025504</title>
<path fill="none" stroke="black" d="M36.36,-126C43.15,-126 51.48,-126 60.48,-126"/>
<polygon fill="black" stroke="black" points="60.22,-129.5 70.22,-126 60.22,-122.5 60.22,-129.5"/>
</g>
<!-- 2479389044960 -->
<g id="node3" class="node">
<title>2479389044960</title>
<polygon fill="none" stroke="black" points="329,-144 257.5,-144 257.5,-108 329,-108 329,-144"/>
<text text-anchor="middle" x="293.25" y="-120.97" font-family="Times New Roman,serif" font-size="12.00">Select route</text>
</g>
<!-- 2479389025504&#45;&gt;2479389044960 -->
<g id="edge2" class="edge">
<title>2479389025504&#45;&gt;2479389044960</title>
<path fill="none" stroke="black" d="M221.69,-126C229.9,-126 238.08,-126 245.8,-126"/>
<polygon fill="black" stroke="black" points="245.61,-129.5 255.61,-126 245.61,-122.5 245.61,-129.5"/>
</g>
<!-- 2479389047696 -->
<g id="node4" class="node">
<title>2479389047696</title>
<polygon fill="none" stroke="black" points="475.5,-144 365,-144 365,-108 475.5,-108 475.5,-144"/>
<text text-anchor="middle" x="420.25" y="-120.97" font-family="Times New Roman,serif" font-size="12.00">Select date and time</text>
</g>
<!-- 2479389044960&#45;&gt;2479389047696 -->
<g id="edge3" class="edge">
<title>2479389044960&#45;&gt;2479389047696</title>
<path fill="none" stroke="black" d="M329.4,-126C336.95,-126 345.16,-126 353.44,-126"/>
<polygon fill="black" stroke="black" points="353.22,-129.5 363.22,-126 353.22,-122.5 353.22,-129.5"/>
</g>
<!-- 2479389045824 -->
<g id="node5" class="node">
<title>2479389045824</title>
<polygon fill="none" stroke="black" points="664.75,-144 511.5,-144 511.5,-108 664.75,-108 664.75,-144"/>
<text text-anchor="middle" x="588.12" y="-120.97" font-family="Times New Roman,serif" font-size="12.00">Provide personal information</text>
</g>
<!-- 2479389047696&#45;&gt;2479389045824 -->
<g id="edge4" class="edge">
<title>2479389047696&#45;&gt;2479389045824</title>
<path fill="none" stroke="black" d="M475.56,-126C483.36,-126 491.54,-126 499.78,-126"/>
<polygon fill="black" stroke="black" points="499.5,-129.5 509.5,-126 499.5,-122.5 499.5,-129.5"/>
</g>
<!-- 2479389038336 -->
<g id="node6" class="node">
<title>2479389038336</title>
<polygon fill="none" stroke="black" points="830,-144 700.75,-144 700.75,-108 830,-108 830,-144"/>
<text text-anchor="middle" x="765.38" y="-120.97" font-family="Times New Roman,serif" font-size="12.00">Provide payment details</text>
</g>
<!-- 2479389045824&#45;&gt;2479389038336 -->
<g id="edge5" class="edge">
<title>2479389045824&#45;&gt;2479389038336</title>
<path fill="none" stroke="black" d="M665.23,-126C673.11,-126 681.12,-126 688.99,-126"/>
<polygon fill="black" stroke="black" points="688.89,-129.5 698.89,-126 688.89,-122.5 688.89,-129.5"/>
</g>
<!-- 2479389047888 -->
<g id="node7" class="node">
<title>2479389047888</title>
<polygon fill="none" stroke="black" points="953.25,-144 866,-144 866,-108 953.25,-108 953.25,-144"/>
<text text-anchor="middle" x="909.62" y="-120.97" font-family="Times New Roman,serif" font-size="12.00">Generate ticket</text>
</g>
<!-- 2479389038336&#45;&gt;2479389047888 -->
<g id="edge6" class="edge">
<title>2479389038336&#45;&gt;2479389047888</title>
<path fill="none" stroke="black" d="M830.43,-126C838.45,-126 846.6,-126 854.46,-126"/>
<polygon fill="black" stroke="black" points="854.19,-129.5 864.19,-126 854.19,-122.5 854.19,-129.5"/>
</g>
<!-- 2479389038384 -->
<g id="node8" class="node">
<title>2479389038384</title>
<polygon fill="none" stroke="black" points="1016.25,-144 989.25,-126 1016.25,-108 1043.25,-126 1016.25,-144"/>
<text text-anchor="middle" x="1016.25" y="-120.97" font-family="Times New Roman,serif" font-size="12.00">+</text>
</g>
<!-- 2479389047888&#45;&gt;2479389038384 -->
<g id="edge7" class="edge">
<title>2479389047888&#45;&gt;2479389038384</title>
<path fill="none" stroke="black" d="M953.48,-126C961.35,-126 969.52,-126 977.23,-126"/>
<polygon fill="black" stroke="black" points="976.99,-129.5 986.99,-126 976.99,-122.5 976.99,-129.5"/>
</g>
<!-- 2479389041552 -->
<g id="node9" class="node">
<title>2479389041552</title>
<polygon fill="none" stroke="black" points="1195.38,-252 1082.62,-252 1082.62,-216 1195.38,-216 1195.38,-252"/>
<text text-anchor="middle" x="1139" y="-228.97" font-family="Times New Roman,serif" font-size="12.00">Send ticket via SMS</text>
</g>
<!-- 2479389038384&#45;&gt;2479389041552 -->
<g id="edge12" class="edge">
<title>2479389038384&#45;&gt;2479389041552</title>
<path fill="none" stroke="black" d="M1024.5,-139.09C1034.73,-156.55 1054.9,-187.54 1079.25,-207 1080.36,-207.89 1081.5,-208.75 1082.68,-209.6"/>
<polygon fill="black" stroke="black" points="1080.52,-212.37 1090.83,-214.82 1084.3,-206.48 1080.52,-212.37"/>
</g>
<!-- 2479389047168 -->
<g id="node10" class="node">
<title>2479389047168</title>
<polygon fill="none" stroke="black" points="1187.5,-198 1090.5,-198 1090.5,-162 1187.5,-162 1187.5,-198"/>
<text text-anchor="middle" x="1139" y="-174.97" font-family="Times New Roman,serif" font-size="12.00">Send instructions</text>
</g>
<!-- 2479389038384&#45;&gt;2479389047168 -->
<g id="edge9" class="edge">
<title>2479389038384&#45;&gt;2479389047168</title>
<path fill="none" stroke="black" d="M1033.04,-133.06C1046.63,-139.14 1067.03,-148.26 1086.25,-156.86"/>
<polygon fill="black" stroke="black" points="1084.81,-160.05 1095.37,-160.94 1087.67,-153.66 1084.81,-160.05"/>
</g>
<!-- 2479389040352 -->
<g id="node11" class="node">
<title>2479389040352</title>
<polygon fill="none" stroke="black" points="1198.75,-144 1079.25,-144 1079.25,-108 1198.75,-108 1198.75,-144"/>
<text text-anchor="middle" x="1139" y="-120.97" font-family="Times New Roman,serif" font-size="12.00">Update seat inventory</text>
</g>
<!-- 2479389038384&#45;&gt;2479389040352 -->
<g id="edge8" class="edge">
<title>2479389038384&#45;&gt;2479389040352</title>
<path fill="none" stroke="black" d="M1044.05,-126C1051.21,-126 1059.3,-126 1067.66,-126"/>
<polygon fill="black" stroke="black" points="1067.63,-129.5 1077.63,-126 1067.63,-122.5 1067.63,-129.5"/>
</g>
<!-- 2479389041840 -->
<g id="node12" class="node">
<title>2479389041840</title>
<polygon fill="none" stroke="black" points="1181.5,-90 1096.5,-90 1096.5,-54 1181.5,-54 1181.5,-90"/>
<text text-anchor="middle" x="1139" y="-66.97" font-family="Times New Roman,serif" font-size="12.00">Send reminder</text>
</g>
<!-- 2479389038384&#45;&gt;2479389041840 -->
<g id="edge11" class="edge">
<title>2479389038384&#45;&gt;2479389041840</title>
<path fill="none" stroke="black" d="M1033.04,-118.94C1046.63,-112.86 1067.03,-103.74 1086.25,-95.14"/>
<polygon fill="black" stroke="black" points="1087.67,-98.34 1095.37,-91.06 1084.81,-91.95 1087.67,-98.34"/>
</g>
<!-- 2479389042272 -->
<g id="node13" class="node">
<title>2479389042272</title>
<polygon fill="none" stroke="black" points="1196.12,-36 1081.88,-36 1081.88,0 1196.12,0 1196.12,-36"/>
<text text-anchor="middle" x="1139" y="-12.97" font-family="Times New Roman,serif" font-size="12.00">Send ticket via email</text>
</g>
<!-- 2479389038384&#45;&gt;2479389042272 -->
<g id="edge10" class="edge">
<title>2479389038384&#45;&gt;2479389042272</title>
<path fill="none" stroke="black" d="M1024.5,-112.91C1034.73,-95.45 1054.9,-64.46 1079.25,-45 1080.36,-44.11 1081.5,-43.25 1082.68,-42.4"/>
<polygon fill="black" stroke="black" points="1084.3,-45.52 1090.83,-37.18 1080.52,-39.63 1084.3,-45.52"/>
</g>
<!-- 2479389033824 -->
<g id="node14" class="node">
<title>2479389033824</title>
<polygon fill="none" stroke="black" points="1261.75,-144 1234.75,-126 1261.75,-108 1288.75,-126 1261.75,-144"/>
<text text-anchor="middle" x="1261.75" y="-120.97" font-family="Times New Roman,serif" font-size="12.00">+</text>
</g>
<!-- 2479389041552&#45;&gt;2479389033824 -->
<g id="edge13" class="edge">
<title>2479389041552&#45;&gt;2479389033824</title>
<path fill="none" stroke="black" d="M1185.9,-215.64C1190.43,-213.03 1194.8,-210.15 1198.75,-207 1219.11,-190.74 1236.54,-166.41 1247.69,-148.67"/>
<polygon fill="black" stroke="black" points="1250.52,-150.75 1252.72,-140.38 1244.54,-147.11 1250.52,-150.75"/>
</g>
<!-- 2479389047168&#45;&gt;2479389033824 -->
<g id="edge14" class="edge">
<title>2479389047168&#45;&gt;2479389033824</title>
<path fill="none" stroke="black" d="M1181.22,-161.57C1198.81,-153.7 1218.82,-144.75 1234.37,-137.8"/>
<polygon fill="black" stroke="black" points="1235.73,-141.02 1243.43,-133.75 1232.87,-134.63 1235.73,-141.02"/>
</g>
<!-- 2479389040352&#45;&gt;2479389033824 -->
<g id="edge15" class="edge">
<title>2479389040352&#45;&gt;2479389033824</title>
<path fill="none" stroke="black" d="M1198.96,-126C1207.05,-126 1215.18,-126 1222.76,-126"/>
<polygon fill="black" stroke="black" points="1222.62,-129.5 1232.62,-126 1222.62,-122.5 1222.62,-129.5"/>
</g>
<!-- 2479389041840&#45;&gt;2479389033824 -->
<g id="edge16" class="edge">
<title>2479389041840&#45;&gt;2479389033824</title>
<path fill="none" stroke="black" d="M1181.22,-90.43C1198.81,-98.3 1218.82,-107.25 1234.37,-114.2"/>
<polygon fill="black" stroke="black" points="1232.87,-117.37 1243.43,-118.25 1235.73,-110.98 1232.87,-117.37"/>
</g>
<!-- 2479389042272&#45;&gt;2479389033824 -->
<g id="edge17" class="edge">
<title>2479389042272&#45;&gt;2479389033824</title>
<path fill="none" stroke="black" d="M1185.9,-36.36C1190.43,-38.97 1194.8,-41.85 1198.75,-45 1219.11,-61.26 1236.54,-85.59 1247.69,-103.33"/>
<polygon fill="black" stroke="black" points="1244.54,-104.89 1252.72,-111.62 1250.52,-101.25 1244.54,-104.89"/>
</g>
<!-- 2479389033776 -->
<g id="node15" class="node">
<title>2479389033776</title>
<polygon fill="none" stroke="black" points="1475.75,-144 1324.75,-144 1324.75,-108 1475.75,-108 1475.75,-144"/>
<text text-anchor="middle" x="1400.25" y="-120.97" font-family="Times New Roman,serif" font-size="12.00">Customer completes journey</text>
</g>
<!-- 2479389033824&#45;&gt;2479389033776 -->
<g id="edge18" class="edge">
<title>2479389033824&#45;&gt;2479389033776</title>
<path fill="none" stroke="black" d="M1289.39,-126C1296.51,-126 1304.61,-126 1313.11,-126"/>
<polygon fill="black" stroke="black" points="1312.94,-129.5 1322.94,-126 1312.94,-122.5 1312.94,-129.5"/>
</g>
<!-- 2479388206256 -->
<g id="node16" class="node">
<title>2479388206256</title>
<polygon fill="none" stroke="black" points="1538.75,-144 1511.75,-126 1538.75,-108 1565.75,-126 1538.75,-144"/>
<text text-anchor="middle" x="1538.75" y="-120.97" font-family="Times New Roman,serif" font-size="12.00">X</text>
</g>
<!-- 2479389033776&#45;&gt;2479388206256 -->
<g id="edge19" class="edge">
<title>2479389033776&#45;&gt;2479388206256</title>
<path fill="none" stroke="black" d="M1475.89,-126C1484.04,-126 1492.07,-126 1499.51,-126"/>
<polygon fill="black" stroke="black" points="1499.49,-129.5 1509.49,-126 1499.49,-122.5 1499.49,-129.5"/>
</g>
<!-- 2479388206880 -->
<g id="node17" class="node">
<title>2479388206880</title>
<polygon fill="none" stroke="black" points="1830,-144 1803,-126 1830,-108 1857,-126 1830,-144"/>
<text text-anchor="middle" x="1830" y="-120.97" font-family="Times New Roman,serif" font-size="12.00">X</text>
</g>
<!-- 2479388206256&#45;&gt;2479388206880 -->
<g id="edge20" class="edge">
<title>2479388206256&#45;&gt;2479388206880</title>
<path fill="none" stroke="black" d="M1563.58,-127.9C1575.1,-128.72 1589.14,-129.59 1601.75,-130 1675.16,-132.37 1693.59,-132.37 1767,-130 1775.67,-129.72 1785.02,-129.22 1793.75,-128.67"/>
<polygon fill="black" stroke="black" points="1793.92,-132.17 1803.66,-128 1793.45,-125.18 1793.92,-132.17"/>
</g>
<!-- 2479389033440 -->
<g id="node18" class="node">
<title>2479389033440</title>
<polygon fill="none" stroke="black" points="1767,-121 1601.75,-121 1601.75,-85 1767,-85 1767,-121"/>
<text text-anchor="middle" x="1684.38" y="-97.97" font-family="Times New Roman,serif" font-size="12.00">Post&#45;travel feedback or services</text>
</g>
<!-- 2479388206256&#45;&gt;2479389033440 -->
<g id="edge21" class="edge">
<title>2479388206256&#45;&gt;2479389033440</title>
<path fill="none" stroke="black" d="M1561.25,-122.56C1569.44,-121.25 1579.38,-119.65 1590.02,-117.95"/>
<polygon fill="black" stroke="black" points="1590.5,-121.42 1599.82,-116.38 1589.39,-114.51 1590.5,-121.42"/>
</g>
<!-- 2479389943248 -->
<g id="node19" class="node">
<title>2479389943248</title>
<ellipse fill="orange" stroke="black" cx="1911" cy="-126" rx="18" ry="18"/>
</g>
<!-- 2479388206880&#45;&gt;2479389943248 -->
<g id="edge23" class="edge">
<title>2479388206880&#45;&gt;2479389943248</title>
<path fill="none" stroke="black" d="M1857.75,-126C1865.38,-126 1873.73,-126 1881.47,-126"/>
<polygon fill="black" stroke="black" points="1881.43,-129.5 1891.43,-126 1881.43,-122.5 1881.43,-129.5"/>
</g>
<!-- 2479389033440&#45;&gt;2479388206880 -->
<g id="edge22" class="edge">
<title>2479389033440&#45;&gt;2479388206880</title>
<path fill="none" stroke="black" d="M1767.26,-116.11C1777.48,-117.75 1787.42,-119.34 1796.24,-120.75"/>
<polygon fill="black" stroke="black" points="1795.56,-124.19 1805.98,-122.31 1796.66,-117.28 1795.56,-124.19"/>
</g>
</g>
</svg>
