<?xml version="1.0" encoding="UTF-8" standalone="no"?>
<!DOCTYPE svg PUBLIC "-//W3C//DTD SVG 1.1//EN"
 "http://www.w3.org/Graphics/SVG/1.1/DTD/svg11.dtd">
<!-- Generated by graphviz version 11.0.0 (20240428.1522)
 -->
<!-- Pages: 1 -->
<svg width="2086pt" height="244pt"
 viewBox="0.00 0.00 2085.75 244.00" xmlns="http://www.w3.org/2000/svg" xmlns:xlink="http://www.w3.org/1999/xlink">
<g id="graph0" class="graph" transform="scale(1 1) rotate(0) translate(4 240)">
<polygon fill="white" stroke="none" points="-4,4 -4,-240 2081.75,-240 2081.75,4 -4,4"/>
<!-- 2479389882992 -->
<g id="node1" class="node">
<title>2479389882992</title>
<ellipse fill="green" stroke="black" cx="18" cy="-110" rx="18" ry="18"/>
</g>
<!-- 2479389940752 -->
<g id="node2" class="node">
<title>2479389940752</title>
<polygon fill="none" stroke="black" points="221.5,-128 72,-128 72,-92 221.5,-92 221.5,-128"/>
<text text-anchor="middle" x="146.75" y="-104.97" font-family="Times New Roman,serif" font-size="12.00">Customer searches for ticket</text>
</g>
<!-- 2479389882992&#45;&gt;2479389940752 -->
<g id="edge1" class="edge">
<title>2479389882992&#45;&gt;2479389940752</title>
<path fill="none" stroke="black" d="M36.36,-110C43.15,-110 51.48,-110 60.48,-110"/>
<polygon fill="black" stroke="black" points="60.22,-113.5 70.22,-110 60.22,-106.5 60.22,-113.5"/>
</g>
<!-- 2479389880448 -->
<g id="node3" class="node">
<title>2479389880448</title>
<polygon fill="none" stroke="black" points="329,-128 257.5,-128 257.5,-92 329,-92 329,-128"/>
<text text-anchor="middle" x="293.25" y="-104.97" font-family="Times New Roman,serif" font-size="12.00">Select route</text>
</g>
<!-- 2479389940752&#45;&gt;2479389880448 -->
<g id="edge2" class="edge">
<title>2479389940752&#45;&gt;2479389880448</title>
<path fill="none" stroke="black" d="M221.69,-110C229.9,-110 238.08,-110 245.8,-110"/>
<polygon fill="black" stroke="black" points="245.61,-113.5 255.61,-110 245.61,-106.5 245.61,-113.5"/>
</g>
<!-- 2479389883808 -->
<g id="node4" class="node">
<title>2479389883808</title>
<polygon fill="none" stroke="black" points="475.5,-128 365,-128 365,-92 475.5,-92 475.5,-128"/>
<text text-anchor="middle" x="420.25" y="-104.97" font-family="Times New Roman,serif" font-size="12.00">Select date and time</text>
</g>
<!-- 2479389880448&#45;&gt;2479389883808 -->
<g id="edge3" class="edge">
<title>2479389880448&#45;&gt;2479389883808</title>
<path fill="none" stroke="black" d="M329.4,-110C336.95,-110 345.16,-110 353.44,-110"/>
<polygon fill="black" stroke="black" points="353.22,-113.5 363.22,-110 353.22,-106.5 353.22,-113.5"/>
</g>
<!-- 2479389941088 -->
<g id="node5" class="node">
<title>2479389941088</title>
<polygon fill="none" stroke="black" points="664.75,-128 511.5,-128 511.5,-92 664.75,-92 664.75,-128"/>
<text text-anchor="middle" x="588.12" y="-104.97" font-family="Times New Roman,serif" font-size="12.00">Provide personal information</text>
</g>
<!-- 2479389883808&#45;&gt;2479389941088 -->
<g id="edge4" class="edge">
<title>2479389883808&#45;&gt;2479389941088</title>
<path fill="none" stroke="black" d="M475.56,-110C483.36,-110 491.54,-110 499.78,-110"/>
<polygon fill="black" stroke="black" points="499.5,-113.5 509.5,-110 499.5,-106.5 499.5,-113.5"/>
</g>
<!-- 2479389880160 -->
<g id="node6" class="node">
<title>2479389880160</title>
<polygon fill="none" stroke="black" points="830,-128 700.75,-128 700.75,-92 830,-92 830,-128"/>
<text text-anchor="middle" x="765.38" y="-104.97" font-family="Times New Roman,serif" font-size="12.00">Provide payment details</text>
</g>
<!-- 2479389941088&#45;&gt;2479389880160 -->
<g id="edge5" class="edge">
<title>2479389941088&#45;&gt;2479389880160</title>
<path fill="none" stroke="black" d="M665.23,-110C673.11,-110 681.12,-110 688.99,-110"/>
<polygon fill="black" stroke="black" points="688.89,-113.5 698.89,-110 688.89,-106.5 688.89,-113.5"/>
</g>
<!-- 2479389878624 -->
<g id="node7" class="node">
<title>2479389878624</title>
<polygon fill="none" stroke="black" points="953.25,-128 866,-128 866,-92 953.25,-92 953.25,-128"/>
<text text-anchor="middle" x="909.62" y="-104.97" font-family="Times New Roman,serif" font-size="12.00">Generate ticket</text>
</g>
<!-- 2479389880160&#45;&gt;2479389878624 -->
<g id="edge6" class="edge">
<title>2479389880160&#45;&gt;2479389878624</title>
<path fill="none" stroke="black" d="M830.43,-110C838.45,-110 846.6,-110 854.46,-110"/>
<polygon fill="black" stroke="black" points="854.19,-113.5 864.19,-110 854.19,-106.5 854.19,-113.5"/>
</g>
<!-- 2479389879344 -->
<g id="node8" class="node">
<title>2479389879344</title>
<polygon fill="none" stroke="black" points="1016.25,-128 989.25,-110 1016.25,-92 1043.25,-110 1016.25,-128"/>
<text text-anchor="middle" x="1016.25" y="-104.97" font-family="Times New Roman,serif" font-size="12.00">+</text>
</g>
<!-- 2479389878624&#45;&gt;2479389879344 -->
<g id="edge7" class="edge">
<title>2479389878624&#45;&gt;2479389879344</title>
<path fill="none" stroke="black" d="M953.48,-110C961.35,-110 969.52,-110 977.23,-110"/>
<polygon fill="black" stroke="black" points="976.99,-113.5 986.99,-110 976.99,-106.5 976.99,-113.5"/>
</g>
<!-- 2479389940416 -->
<g id="node9" class="node">
<title>2479389940416</title>
<polygon fill="none" stroke="black" points="1187.5,-236 1090.5,-236 1090.5,-200 1187.5,-200 1187.5,-236"/>
<text text-anchor="middle" x="1139" y="-212.97" font-family="Times New Roman,serif" font-size="12.00">Send instructions</text>
</g>
<!-- 2479389879344&#45;&gt;2479389940416 -->
<g id="edge11" class="edge">
<title>2479389879344&#45;&gt;2479389940416</title>
<path fill="none" stroke="black" d="M1024.5,-123.09C1034.73,-140.55 1054.9,-171.54 1079.25,-191 1080.36,-191.89 1081.5,-192.75 1082.68,-193.6"/>
<polygon fill="black" stroke="black" points="1080.52,-196.37 1090.83,-198.82 1084.3,-190.48 1080.52,-196.37"/>
</g>
<!-- 2479389883280 -->
<g id="node10" class="node">
<title>2479389883280</title>
<polygon fill="none" stroke="black" points="1198.75,-182 1079.25,-182 1079.25,-146 1198.75,-146 1198.75,-182"/>
<text text-anchor="middle" x="1139" y="-158.97" font-family="Times New Roman,serif" font-size="12.00">Update seat inventory</text>
</g>
<!-- 2479389879344&#45;&gt;2479389883280 -->
<g id="edge9" class="edge">
<title>2479389879344&#45;&gt;2479389883280</title>
<path fill="none" stroke="black" d="M1033.04,-117.06C1046.63,-123.14 1067.03,-132.26 1086.25,-140.86"/>
<polygon fill="black" stroke="black" points="1084.81,-144.05 1095.37,-144.94 1087.67,-137.66 1084.81,-144.05"/>
</g>
<!-- 2479389880064 -->
<g id="node11" class="node">
<title>2479389880064</title>
<polygon fill="none" stroke="black" points="1181.5,-128 1096.5,-128 1096.5,-92 1181.5,-92 1181.5,-128"/>
<text text-anchor="middle" x="1139" y="-104.97" font-family="Times New Roman,serif" font-size="12.00">Send reminder</text>
</g>
<!-- 2479389879344&#45;&gt;2479389880064 -->
<g id="edge10" class="edge">
<title>2479389879344&#45;&gt;2479389880064</title>
<path fill="none" stroke="black" d="M1044.05,-110C1056.11,-110 1070.79,-110 1084.93,-110"/>
<polygon fill="black" stroke="black" points="1084.58,-113.5 1094.58,-110 1084.58,-106.5 1084.58,-113.5"/>
</g>
<!-- 2479389878192 -->
<g id="node12" class="node">
<title>2479389878192</title>
<polygon fill="none" stroke="black" points="1516.12,-82 1401.88,-82 1401.88,-46 1516.12,-46 1516.12,-82"/>
<text text-anchor="middle" x="1459" y="-58.98" font-family="Times New Roman,serif" font-size="12.00">Send ticket via email</text>
</g>
<!-- 2479389879344&#45;&gt;2479389878192 -->
<g id="edge8" class="edge">
<title>2479389879344&#45;&gt;2479389878192</title>
<path fill="none" stroke="black" d="M1031.52,-102.01C1043.77,-95.6 1062.11,-87.02 1079.25,-83 1185.79,-58.01 1313.65,-57.46 1390.23,-60.15"/>
<polygon fill="black" stroke="black" points="1389.97,-63.64 1400.1,-60.53 1390.24,-56.65 1389.97,-63.64"/>
</g>
<!-- 2479389877760 -->
<g id="node13" class="node">
<title>2479389877760</title>
<polygon fill="none" stroke="black" points="1347.5,-36 1234.75,-36 1234.75,0 1347.5,0 1347.5,-36"/>
<text text-anchor="middle" x="1291.12" y="-12.97" font-family="Times New Roman,serif" font-size="12.00">Send ticket via SMS</text>
</g>
<!-- 2479389879344&#45;&gt;2479389877760 -->
<g id="edge12" class="edge">
<title>2479389879344&#45;&gt;2479389877760</title>
<path fill="none" stroke="black" d="M1025.81,-98.06C1036.58,-84.05 1056.43,-61.3 1079.25,-50 1123.93,-27.87 1179.95,-20.17 1223.02,-17.84"/>
<polygon fill="black" stroke="black" points="1223.17,-21.34 1233.01,-17.39 1222.86,-14.34 1223.17,-21.34"/>
</g>
<!-- 2479389880784 -->
<g id="node15" class="node">
<title>2479389880784</title>
<polygon fill="none" stroke="black" points="1291.12,-181 1264.12,-163 1291.12,-145 1318.12,-163 1291.12,-181"/>
<text text-anchor="middle" x="1291.12" y="-157.97" font-family="Times New Roman,serif" font-size="12.00">+</text>
</g>
<!-- 2479389940416&#45;&gt;2479389880784 -->
<g id="edge13" class="edge">
<title>2479389940416&#45;&gt;2479389880784</title>
<path fill="none" stroke="black" d="M1187.91,-200.45C1212.39,-191.48 1241.31,-180.88 1262.13,-173.26"/>
<polygon fill="black" stroke="black" points="1263.18,-176.6 1271.36,-169.87 1260.77,-170.03 1263.18,-176.6"/>
</g>
<!-- 2479389883280&#45;&gt;2479389880784 -->
<g id="edge14" class="edge">
<title>2479389883280&#45;&gt;2479389880784</title>
<path fill="none" stroke="black" d="M1198.9,-163.61C1216.88,-163.49 1236.16,-163.36 1252.34,-163.25"/>
<polygon fill="black" stroke="black" points="1252.02,-166.75 1262,-163.19 1251.98,-159.75 1252.02,-166.75"/>
</g>
<!-- 2479389880064&#45;&gt;2479389880784 -->
<g id="edge15" class="edge">
<title>2479389880064&#45;&gt;2479389880784</title>
<path fill="none" stroke="black" d="M1181.82,-124.76C1207.5,-133.83 1239.68,-145.19 1262.27,-153.17"/>
<polygon fill="black" stroke="black" points="1260.8,-156.36 1271.39,-156.39 1263.13,-149.76 1260.8,-156.36"/>
</g>
<!-- 2479389881024 -->
<g id="node14" class="node">
<title>2479389881024</title>
<polygon fill="none" stroke="black" points="1978.75,-82 1951.75,-64 1978.75,-46 2005.75,-64 1978.75,-82"/>
<text text-anchor="middle" x="1978.75" y="-58.98" font-family="Times New Roman,serif" font-size="12.00">+</text>
</g>
<!-- 2479389878192&#45;&gt;2479389881024 -->
<g id="edge16" class="edge">
<title>2479389878192&#45;&gt;2479389881024</title>
<path fill="none" stroke="black" d="M1516.39,-64C1622.62,-64 1849.77,-64 1939.83,-64"/>
<polygon fill="black" stroke="black" points="1939.6,-67.5 1949.6,-64 1939.6,-60.5 1939.6,-67.5"/>
</g>
<!-- 2479389877760&#45;&gt;2479389881024 -->
<g id="edge17" class="edge">
<title>2479389877760&#45;&gt;2479389881024</title>
<path fill="none" stroke="black" d="M1347.94,-18C1408.99,-18 1509.71,-18 1596.5,-18 1596.5,-18 1596.5,-18 1744.12,-18 1819.29,-18 1905.54,-41.21 1949.21,-54.65"/>
<polygon fill="black" stroke="black" points="1948.07,-57.96 1958.66,-57.63 1950.17,-51.29 1948.07,-57.96"/>
</g>
<!-- 2479389935664 -->
<g id="node20" class="node">
<title>2479389935664</title>
<ellipse fill="orange" stroke="black" cx="2059.75" cy="-64" rx="18" ry="18"/>
</g>
<!-- 2479389881024&#45;&gt;2479389935664 -->
<g id="edge19" class="edge">
<title>2479389881024&#45;&gt;2479389935664</title>
<path fill="none" stroke="black" d="M2006.5,-64C2014.13,-64 2022.48,-64 2030.22,-64"/>
<polygon fill="black" stroke="black" points="2030.18,-67.5 2040.18,-64 2030.18,-60.5 2030.18,-67.5"/>
</g>
<!-- 2479389880880 -->
<g id="node16" class="node">
<title>2479389880880</title>
<polygon fill="none" stroke="black" points="1534.5,-180 1383.5,-180 1383.5,-144 1534.5,-144 1534.5,-180"/>
<text text-anchor="middle" x="1459" y="-156.97" font-family="Times New Roman,serif" font-size="12.00">Customer completes journey</text>
</g>
<!-- 2479389880784&#45;&gt;2479389880880 -->
<g id="edge18" class="edge">
<title>2479389880784&#45;&gt;2479389880880</title>
<path fill="none" stroke="black" d="M1318.78,-162.84C1333.4,-162.75 1352.44,-162.64 1371.72,-162.52"/>
<polygon fill="black" stroke="black" points="1371.58,-166.02 1381.56,-162.46 1371.54,-159.02 1371.58,-166.02"/>
</g>
<!-- 2479389940272 -->
<g id="node17" class="node">
<title>2479389940272</title>
<polygon fill="none" stroke="black" points="1597.5,-176 1570.5,-158 1597.5,-140 1624.5,-158 1597.5,-176"/>
<text text-anchor="middle" x="1597.5" y="-152.97" font-family="Times New Roman,serif" font-size="12.00">X</text>
</g>
<!-- 2479389880880&#45;&gt;2479389940272 -->
<g id="edge20" class="edge">
<title>2479389880880&#45;&gt;2479389940272</title>
<path fill="none" stroke="black" d="M1534.64,-159.81C1543.32,-159.56 1551.86,-159.31 1559.69,-159.08"/>
<polygon fill="black" stroke="black" points="1559.56,-162.58 1569.45,-158.79 1559.35,-155.59 1559.56,-162.58"/>
</g>
<!-- 2479389940176 -->
<g id="node18" class="node">
<title>2479389940176</title>
<polygon fill="none" stroke="black" points="1888.75,-130 1861.75,-112 1888.75,-94 1915.75,-112 1888.75,-130"/>
<text text-anchor="middle" x="1888.75" y="-106.97" font-family="Times New Roman,serif" font-size="12.00">X</text>
</g>
<!-- 2479389940272&#45;&gt;2479389940176 -->
<g id="edge21" class="edge">
<title>2479389940272&#45;&gt;2479389940176</title>
<path fill="none" stroke="black" d="M1624.51,-158.56C1667.21,-158.87 1754.54,-156.96 1825.75,-139 1838.56,-135.77 1852.08,-130.16 1863.22,-124.9"/>
<polygon fill="black" stroke="black" points="1864.68,-128.08 1872.09,-120.51 1861.57,-121.8 1864.68,-128.08"/>
</g>
<!-- 2479389879056 -->
<g id="node19" class="node">
<title>2479389879056</title>
<polygon fill="none" stroke="black" points="1825.75,-130 1660.5,-130 1660.5,-94 1825.75,-94 1825.75,-130"/>
<text text-anchor="middle" x="1743.12" y="-106.97" font-family="Times New Roman,serif" font-size="12.00">Post&#45;travel feedback or services</text>
</g>
<!-- 2479389940272&#45;&gt;2479389879056 -->
<g id="edge22" class="edge">
<title>2479389940272&#45;&gt;2479389879056</title>
<path fill="none" stroke="black" d="M1616.4,-152.27C1631,-147.59 1652.61,-140.67 1673.82,-133.88"/>
<polygon fill="black" stroke="black" points="1674.6,-137.3 1683.05,-130.92 1672.46,-130.64 1674.6,-137.3"/>
</g>
<!-- 2479389940176&#45;&gt;2479389881024 -->
<g id="edge23" class="edge">
<title>2479389940176&#45;&gt;2479389881024</title>
<path fill="none" stroke="black" d="M1904.28,-104.07C1917.53,-96.85 1937.37,-86.02 1953.1,-77.45"/>
<polygon fill="black" stroke="black" points="1954.77,-80.52 1961.87,-72.66 1951.41,-74.38 1954.77,-80.52"/>
</g>
<!-- 2479389879056&#45;&gt;2479389940176 -->
<g id="edge24" class="edge">
<title>2479389879056&#45;&gt;2479389940176</title>
<path fill="none" stroke="black" d="M1826.01,-112C1834.18,-112 1842.17,-112 1849.55,-112"/>
<polygon fill="black" stroke="black" points="1849.43,-115.5 1859.43,-112 1849.43,-108.5 1849.43,-115.5"/>
</g>
</g>
</svg>
