<?xml version="1.0" encoding="UTF-8" standalone="no"?>
<!DOCTYPE svg PUBLIC "-//W3C//DTD SVG 1.1//EN"
 "http://www.w3.org/Graphics/SVG/1.1/DTD/svg11.dtd">
<!-- Generated by graphviz version 11.0.0 (20240428.1522)
 -->
<!-- Pages: 1 -->
<svg width="2398pt" height="171pt"
 viewBox="0.00 0.00 2397.50 171.00" xmlns="http://www.w3.org/2000/svg" xmlns:xlink="http://www.w3.org/1999/xlink">
<g id="graph0" class="graph" transform="scale(1 1) rotate(0) translate(4 167)">
<polygon fill="white" stroke="none" points="-4,4 -4,-167 2393.5,-167 2393.5,4 -4,4"/>
<!-- 2479389045392 -->
<g id="node1" class="node">
<title>2479389045392</title>
<ellipse fill="green" stroke="black" cx="18" cy="-95" rx="18" ry="18"/>
</g>
<!-- 2479389650640 -->
<g id="node2" class="node">
<title>2479389650640</title>
<polygon fill="none" stroke="black" points="221.5,-113 72,-113 72,-77 221.5,-77 221.5,-113"/>
<text text-anchor="middle" x="146.75" y="-89.97" font-family="Times New Roman,serif" font-size="12.00">Customer searches for ticket</text>
</g>
<!-- 2479389045392&#45;&gt;2479389650640 -->
<g id="edge1" class="edge">
<title>2479389045392&#45;&gt;2479389650640</title>
<path fill="none" stroke="black" d="M36.36,-95C43.15,-95 51.48,-95 60.48,-95"/>
<polygon fill="black" stroke="black" points="60.22,-98.5 70.22,-95 60.22,-91.5 60.22,-98.5"/>
</g>
<!-- 2479389653088 -->
<g id="node3" class="node">
<title>2479389653088</title>
<polygon fill="none" stroke="black" points="284.5,-113 257.5,-95 284.5,-77 311.5,-95 284.5,-113"/>
<text text-anchor="middle" x="284.5" y="-89.97" font-family="Times New Roman,serif" font-size="12.00">+</text>
</g>
<!-- 2479389650640&#45;&gt;2479389653088 -->
<g id="edge2" class="edge">
<title>2479389650640&#45;&gt;2479389653088</title>
<path fill="none" stroke="black" d="M221.98,-95C230.01,-95 237.92,-95 245.25,-95"/>
<polygon fill="black" stroke="black" points="245.09,-98.5 255.09,-95 245.09,-91.5 245.09,-98.5"/>
</g>
<!-- 2479389649584 -->
<g id="node4" class="node">
<title>2479389649584</title>
<polygon fill="none" stroke="black" points="438.5,-140 367,-140 367,-104 438.5,-104 438.5,-140"/>
<text text-anchor="middle" x="402.75" y="-116.97" font-family="Times New Roman,serif" font-size="12.00">Select route</text>
</g>
<!-- 2479389653088&#45;&gt;2479389649584 -->
<g id="edge4" class="edge">
<title>2479389653088&#45;&gt;2479389649584</title>
<path fill="none" stroke="black" d="M305.22,-99.58C319.1,-102.8 338.27,-107.26 355.88,-111.35"/>
<polygon fill="black" stroke="black" points="354.85,-114.7 365.38,-113.55 356.43,-107.88 354.85,-114.7"/>
</g>
<!-- 2479389645312 -->
<g id="node5" class="node">
<title>2479389645312</title>
<polygon fill="none" stroke="black" points="458,-86 347.5,-86 347.5,-50 458,-50 458,-86"/>
<text text-anchor="middle" x="402.75" y="-62.98" font-family="Times New Roman,serif" font-size="12.00">Select date and time</text>
</g>
<!-- 2479389653088&#45;&gt;2479389645312 -->
<g id="edge3" class="edge">
<title>2479389653088&#45;&gt;2479389645312</title>
<path fill="none" stroke="black" d="M305.22,-90.42C314.01,-88.38 324.91,-85.85 336.2,-83.22"/>
<polygon fill="black" stroke="black" points="336.66,-86.71 345.61,-81.04 335.07,-79.89 336.66,-86.71"/>
</g>
<!-- 2479389653664 -->
<g id="node6" class="node">
<title>2479389653664</title>
<polygon fill="none" stroke="black" points="521,-140 494,-122 521,-104 548,-122 521,-140"/>
<text text-anchor="middle" x="521" y="-116.97" font-family="Times New Roman,serif" font-size="12.00">+</text>
</g>
<!-- 2479389649584&#45;&gt;2479389653664 -->
<g id="edge5" class="edge">
<title>2479389649584&#45;&gt;2479389653664</title>
<path fill="none" stroke="black" d="M438.94,-122C452.62,-122 468.32,-122 482.23,-122"/>
<polygon fill="black" stroke="black" points="481.91,-125.5 491.91,-122 481.91,-118.5 481.91,-125.5"/>
</g>
<!-- 2479389650880 -->
<g id="node7" class="node">
<title>2479389650880</title>
<polygon fill="none" stroke="black" points="521,-86 494,-68 521,-50 548,-68 521,-86"/>
<text text-anchor="middle" x="521" y="-62.98" font-family="Times New Roman,serif" font-size="12.00">+</text>
</g>
<!-- 2479389645312&#45;&gt;2479389650880 -->
<g id="edge6" class="edge">
<title>2479389645312&#45;&gt;2479389650880</title>
<path fill="none" stroke="black" d="M458.47,-68C466.43,-68 474.48,-68 482.01,-68"/>
<polygon fill="black" stroke="black" points="481.82,-71.5 491.82,-68 481.82,-64.5 481.82,-71.5"/>
</g>
<!-- 2479389646800 -->
<g id="node8" class="node">
<title>2479389646800</title>
<polygon fill="none" stroke="black" points="611,-140 584,-122 611,-104 638,-122 611,-140"/>
<text text-anchor="middle" x="611" y="-116.97" font-family="Times New Roman,serif" font-size="12.00">+</text>
</g>
<!-- 2479389653664&#45;&gt;2479389646800 -->
<g id="edge7" class="edge">
<title>2479389653664&#45;&gt;2479389646800</title>
<path fill="none" stroke="black" d="M548.88,-122C556.13,-122 564.12,-122 571.85,-122"/>
<polygon fill="black" stroke="black" points="571.77,-125.5 581.77,-122 571.77,-118.5 571.77,-125.5"/>
</g>
<!-- 2479389639888 -->
<g id="node9" class="node">
<title>2479389639888</title>
<polygon fill="none" stroke="black" points="611,-86 584,-68 611,-50 638,-68 611,-86"/>
<text text-anchor="middle" x="611" y="-62.98" font-family="Times New Roman,serif" font-size="12.00">+</text>
</g>
<!-- 2479389653664&#45;&gt;2479389639888 -->
<g id="edge8" class="edge">
<title>2479389653664&#45;&gt;2479389639888</title>
<path fill="none" stroke="black" d="M535.75,-113.56C549.36,-105.21 570.46,-92.27 586.69,-82.3"/>
<polygon fill="black" stroke="black" points="588.07,-85.56 594.77,-77.35 584.41,-79.6 588.07,-85.56"/>
</g>
<!-- 2479389650880&#45;&gt;2479389646800 -->
<g id="edge9" class="edge">
<title>2479389650880&#45;&gt;2479389646800</title>
<path fill="none" stroke="black" d="M535.75,-76.44C549.36,-84.79 570.46,-97.73 586.69,-107.7"/>
<polygon fill="black" stroke="black" points="584.41,-110.4 594.77,-112.65 588.07,-104.44 584.41,-110.4"/>
</g>
<!-- 2479389650880&#45;&gt;2479389639888 -->
<g id="edge10" class="edge">
<title>2479389650880&#45;&gt;2479389639888</title>
<path fill="none" stroke="black" d="M548.88,-68C556.13,-68 564.12,-68 571.85,-68"/>
<polygon fill="black" stroke="black" points="571.77,-71.5 581.77,-68 571.77,-64.5 571.77,-71.5"/>
</g>
<!-- 2479389644976 -->
<g id="node10" class="node">
<title>2479389644976</title>
<polygon fill="none" stroke="black" points="815.25,-140 686,-140 686,-104 815.25,-104 815.25,-140"/>
<text text-anchor="middle" x="750.62" y="-116.97" font-family="Times New Roman,serif" font-size="12.00">Provide payment details</text>
</g>
<!-- 2479389646800&#45;&gt;2479389644976 -->
<g id="edge11" class="edge">
<title>2479389646800&#45;&gt;2479389644976</title>
<path fill="none" stroke="black" d="M638.86,-122C649.27,-122 661.74,-122 674.51,-122"/>
<polygon fill="black" stroke="black" points="674.25,-125.5 684.25,-122 674.25,-118.5 674.25,-125.5"/>
</g>
<!-- 2479389650736 -->
<g id="node11" class="node">
<title>2479389650736</title>
<polygon fill="none" stroke="black" points="827.25,-86 674,-86 674,-50 827.25,-50 827.25,-86"/>
<text text-anchor="middle" x="750.62" y="-62.98" font-family="Times New Roman,serif" font-size="12.00">Provide personal information</text>
</g>
<!-- 2479389639888&#45;&gt;2479389650736 -->
<g id="edge12" class="edge">
<title>2479389639888&#45;&gt;2479389650736</title>
<path fill="none" stroke="black" d="M638.86,-68C645.93,-68 653.96,-68 662.38,-68"/>
<polygon fill="black" stroke="black" points="662.13,-71.5 672.13,-68 662.13,-64.5 662.13,-71.5"/>
</g>
<!-- 2479389652944 -->
<g id="node12" class="node">
<title>2479389652944</title>
<polygon fill="none" stroke="black" points="890.25,-113 863.25,-95 890.25,-77 917.25,-95 890.25,-113"/>
<text text-anchor="middle" x="890.25" y="-89.97" font-family="Times New Roman,serif" font-size="12.00">+</text>
</g>
<!-- 2479389644976&#45;&gt;2479389652944 -->
<g id="edge13" class="edge">
<title>2479389644976&#45;&gt;2479389652944</title>
<path fill="none" stroke="black" d="M815.6,-109.45C830.18,-106.59 845.04,-103.67 857.57,-101.22"/>
<polygon fill="black" stroke="black" points="858.15,-104.67 867.29,-99.31 856.8,-97.8 858.15,-104.67"/>
</g>
<!-- 2479389650736&#45;&gt;2479389652944 -->
<g id="edge14" class="edge">
<title>2479389650736&#45;&gt;2479389652944</title>
<path fill="none" stroke="black" d="M827.68,-82.92C838.14,-84.97 848.38,-86.98 857.41,-88.75"/>
<polygon fill="black" stroke="black" points="856.52,-92.15 867.01,-90.64 857.87,-85.28 856.52,-92.15"/>
</g>
<!-- 2479389640608 -->
<g id="node13" class="node">
<title>2479389640608</title>
<polygon fill="none" stroke="black" points="1040.5,-113 953.25,-113 953.25,-77 1040.5,-77 1040.5,-113"/>
<text text-anchor="middle" x="996.88" y="-89.97" font-family="Times New Roman,serif" font-size="12.00">Generate ticket</text>
</g>
<!-- 2479389652944&#45;&gt;2479389640608 -->
<g id="edge15" class="edge">
<title>2479389652944&#45;&gt;2479389640608</title>
<path fill="none" stroke="black" d="M917.92,-95C925.25,-95 933.46,-95 941.74,-95"/>
<polygon fill="black" stroke="black" points="941.48,-98.5 951.48,-95 941.48,-91.5 941.48,-98.5"/>
</g>
<!-- 2479389653712 -->
<g id="node14" class="node">
<title>2479389653712</title>
<polygon fill="none" stroke="black" points="1103.5,-113 1076.5,-95 1103.5,-77 1130.5,-95 1103.5,-113"/>
<text text-anchor="middle" x="1103.5" y="-89.97" font-family="Times New Roman,serif" font-size="12.00">+</text>
</g>
<!-- 2479389640608&#45;&gt;2479389653712 -->
<g id="edge16" class="edge">
<title>2479389640608&#45;&gt;2479389653712</title>
<path fill="none" stroke="black" d="M1040.73,-95C1048.6,-95 1056.77,-95 1064.48,-95"/>
<polygon fill="black" stroke="black" points="1064.24,-98.5 1074.24,-95 1064.24,-91.5 1064.24,-98.5"/>
</g>
<!-- 2479389833888 -->
<g id="node15" class="node">
<title>2479389833888</title>
<polygon fill="none" stroke="black" points="1193.5,-90 1166.5,-72 1193.5,-54 1220.5,-72 1193.5,-90"/>
<text text-anchor="middle" x="1193.5" y="-66.97" font-family="Times New Roman,serif" font-size="12.00">X</text>
</g>
<!-- 2479389653712&#45;&gt;2479389833888 -->
<g id="edge17" class="edge">
<title>2479389653712&#45;&gt;2479389833888</title>
<path fill="none" stroke="black" d="M1123.59,-90.01C1135.01,-87.03 1149.76,-83.17 1162.69,-79.79"/>
<polygon fill="black" stroke="black" points="1163.19,-83.28 1171.98,-77.36 1161.42,-76.51 1163.19,-83.28"/>
</g>
<!-- 2479389653568 -->
<g id="node16" class="node">
<title>2479389653568</title>
<polygon fill="none" stroke="black" points="1526.25,-136 1406.75,-136 1406.75,-100 1526.25,-100 1526.25,-136"/>
<text text-anchor="middle" x="1466.5" y="-112.97" font-family="Times New Roman,serif" font-size="12.00">Update seat inventory</text>
</g>
<!-- 2479389653712&#45;&gt;2479389653568 -->
<g id="edge18" class="edge">
<title>2479389653712&#45;&gt;2479389653568</title>
<path fill="none" stroke="black" d="M1128.94,-96.58C1140.35,-97.32 1154.12,-98.21 1166.5,-99 1244.77,-104.01 1334.56,-109.71 1395.16,-113.55"/>
<polygon fill="black" stroke="black" points="1394.79,-117.03 1404.99,-114.17 1395.23,-110.05 1394.79,-117.03"/>
</g>
<!-- 2479389645504 -->
<g id="node17" class="node">
<title>2479389645504</title>
<polygon fill="none" stroke="black" points="1370,-90 1257.25,-90 1257.25,-54 1370,-54 1370,-90"/>
<text text-anchor="middle" x="1313.62" y="-66.97" font-family="Times New Roman,serif" font-size="12.00">Send ticket via SMS</text>
</g>
<!-- 2479389833888&#45;&gt;2479389645504 -->
<g id="edge20" class="edge">
<title>2479389833888&#45;&gt;2479389645504</title>
<path fill="none" stroke="black" d="M1221.3,-72C1228.69,-72 1237.04,-72 1245.62,-72"/>
<polygon fill="black" stroke="black" points="1245.46,-75.5 1255.46,-72 1245.46,-68.5 1245.46,-75.5"/>
</g>
<!-- 2479389641088 -->
<g id="node19" class="node">
<title>2479389641088</title>
<polygon fill="none" stroke="black" points="1370.75,-36 1256.5,-36 1256.5,0 1370.75,0 1370.75,-36"/>
<text text-anchor="middle" x="1313.62" y="-12.97" font-family="Times New Roman,serif" font-size="12.00">Send ticket via email</text>
</g>
<!-- 2479389833888&#45;&gt;2479389641088 -->
<g id="edge19" class="edge">
<title>2479389833888&#45;&gt;2479389641088</title>
<path fill="none" stroke="black" d="M1210.43,-64.72C1223.71,-58.65 1243.37,-49.66 1261.92,-41.18"/>
<polygon fill="black" stroke="black" points="1263.34,-44.38 1270.98,-37.04 1260.43,-38.01 1263.34,-44.38"/>
</g>
<!-- 2479389650016 -->
<g id="node18" class="node">
<title>2479389650016</title>
<polygon fill="none" stroke="black" points="1589.25,-109 1562.25,-91 1589.25,-73 1616.25,-91 1589.25,-109"/>
<text text-anchor="middle" x="1589.25" y="-85.97" font-family="Times New Roman,serif" font-size="12.00">+</text>
</g>
<!-- 2479389653568&#45;&gt;2479389650016 -->
<g id="edge21" class="edge">
<title>2479389653568&#45;&gt;2479389650016</title>
<path fill="none" stroke="black" d="M1526.46,-104.82C1537.07,-102.44 1547.73,-100.06 1557.15,-97.95"/>
<polygon fill="black" stroke="black" points="1557.83,-101.39 1566.83,-95.79 1556.3,-94.56 1557.83,-101.39"/>
</g>
<!-- 2479389651600 -->
<g id="node20" class="node">
<title>2479389651600</title>
<polygon fill="none" stroke="black" points="1466.5,-82 1439.5,-64 1466.5,-46 1493.5,-64 1466.5,-82"/>
<text text-anchor="middle" x="1466.5" y="-58.98" font-family="Times New Roman,serif" font-size="12.00">X</text>
</g>
<!-- 2479389645504&#45;&gt;2479389651600 -->
<g id="edge22" class="edge">
<title>2479389645504&#45;&gt;2479389651600</title>
<path fill="none" stroke="black" d="M1370.38,-69.04C1390.02,-68 1411.58,-66.86 1429.2,-65.93"/>
<polygon fill="black" stroke="black" points="1429.38,-69.42 1439.18,-65.4 1429.01,-62.43 1429.38,-69.42"/>
</g>
<!-- 2479389648480 -->
<g id="node21" class="node">
<title>2479389648480</title>
<polygon fill="none" stroke="black" points="1679.25,-109 1652.25,-91 1679.25,-73 1706.25,-91 1679.25,-109"/>
<text text-anchor="middle" x="1679.25" y="-85.97" font-family="Times New Roman,serif" font-size="12.00">X</text>
</g>
<!-- 2479389650016&#45;&gt;2479389648480 -->
<g id="edge23" class="edge">
<title>2479389650016&#45;&gt;2479389648480</title>
<path fill="none" stroke="black" d="M1617.13,-91C1624.38,-91 1632.37,-91 1640.1,-91"/>
<polygon fill="black" stroke="black" points="1640.02,-94.5 1650.02,-91 1640.02,-87.5 1640.02,-94.5"/>
</g>
<!-- 2479389641088&#45;&gt;2479389651600 -->
<g id="edge24" class="edge">
<title>2479389641088&#45;&gt;2479389651600</title>
<path fill="none" stroke="black" d="M1371.23,-35.26C1393.43,-42.03 1417.94,-49.5 1436.41,-55.13"/>
<polygon fill="black" stroke="black" points="1435.28,-58.45 1445.87,-58.01 1437.32,-51.75 1435.28,-58.45"/>
</g>
<!-- 2479389651600&#45;&gt;2479389650016 -->
<g id="edge25" class="edge">
<title>2479389651600&#45;&gt;2479389650016</title>
<path fill="none" stroke="black" d="M1487.44,-68.46C1506.4,-72.7 1535.22,-79.14 1557.19,-84.06"/>
<polygon fill="black" stroke="black" points="1556.28,-87.44 1566.8,-86.2 1557.81,-80.61 1556.28,-87.44"/>
</g>
<!-- 2479389642720 -->
<g id="node22" class="node">
<title>2479389642720</title>
<polygon fill="none" stroke="black" points="1833.25,-163 1748.25,-163 1748.25,-127 1833.25,-127 1833.25,-163"/>
<text text-anchor="middle" x="1790.75" y="-139.97" font-family="Times New Roman,serif" font-size="12.00">Send reminder</text>
</g>
<!-- 2479389648480&#45;&gt;2479389642720 -->
<g id="edge26" class="edge">
<title>2479389648480&#45;&gt;2479389642720</title>
<path fill="none" stroke="black" d="M1695.48,-98.51C1707.64,-104.51 1725.38,-113.26 1742.2,-121.55"/>
<polygon fill="black" stroke="black" points="1740.62,-124.68 1751.14,-125.96 1743.72,-118.4 1740.62,-124.68"/>
</g>
<!-- 2479389645408 -->
<g id="node23" class="node">
<title>2479389645408</title>
<polygon fill="none" stroke="black" points="1839.25,-109 1742.25,-109 1742.25,-73 1839.25,-73 1839.25,-109"/>
<text text-anchor="middle" x="1790.75" y="-85.97" font-family="Times New Roman,serif" font-size="12.00">Send instructions</text>
</g>
<!-- 2479389648480&#45;&gt;2479389645408 -->
<g id="edge27" class="edge">
<title>2479389648480&#45;&gt;2479389645408</title>
<path fill="none" stroke="black" d="M1707.04,-91C1714.26,-91 1722.38,-91 1730.62,-91"/>
<polygon fill="black" stroke="black" points="1730.37,-94.5 1740.37,-91 1730.37,-87.5 1730.37,-94.5"/>
</g>
<!-- 2479389643680 -->
<g id="node24" class="node">
<title>2479389643680</title>
<polygon fill="none" stroke="black" points="1902.25,-109 1875.25,-91 1902.25,-73 1929.25,-91 1902.25,-109"/>
<text text-anchor="middle" x="1902.25" y="-85.97" font-family="Times New Roman,serif" font-size="12.00">X</text>
</g>
<!-- 2479389642720&#45;&gt;2479389643680 -->
<g id="edge28" class="edge">
<title>2479389642720&#45;&gt;2479389643680</title>
<path fill="none" stroke="black" d="M1829.13,-126.57C1844.48,-119 1861.86,-110.42 1875.71,-103.59"/>
<polygon fill="black" stroke="black" points="1877.18,-106.77 1884.6,-99.21 1874.09,-100.49 1877.18,-106.77"/>
</g>
<!-- 2479389645408&#45;&gt;2479389643680 -->
<g id="edge29" class="edge">
<title>2479389645408&#45;&gt;2479389643680</title>
<path fill="none" stroke="black" d="M1839.46,-91C1847.33,-91 1855.39,-91 1862.99,-91"/>
<polygon fill="black" stroke="black" points="1862.93,-94.5 1872.93,-91 1862.93,-87.5 1862.93,-94.5"/>
</g>
<!-- 2479389643680&#45;&gt;2479389648480 -->
<g id="edge30" class="edge">
<title>2479389643680&#45;&gt;2479389648480</title>
<path fill="none" stroke="black" d="M1887.03,-82.79C1874.81,-76.24 1856.49,-67.59 1839.25,-64 1797.04,-55.21 1784.46,-55.21 1742.25,-64 1729.32,-66.69 1715.78,-72.23 1704.66,-77.6"/>
<polygon fill="black" stroke="black" points="1703.14,-74.45 1695.82,-82.11 1706.32,-80.69 1703.14,-74.45"/>
</g>
<!-- 2479389645888 -->
<g id="node25" class="node">
<title>2479389645888</title>
<polygon fill="none" stroke="black" points="2116.25,-109 1965.25,-109 1965.25,-73 2116.25,-73 2116.25,-109"/>
<text text-anchor="middle" x="2040.75" y="-85.97" font-family="Times New Roman,serif" font-size="12.00">Customer completes journey</text>
</g>
<!-- 2479389643680&#45;&gt;2479389645888 -->
<g id="edge31" class="edge">
<title>2479389643680&#45;&gt;2479389645888</title>
<path fill="none" stroke="black" d="M1929.89,-91C1937.01,-91 1945.11,-91 1953.61,-91"/>
<polygon fill="black" stroke="black" points="1953.44,-94.5 1963.44,-91 1953.44,-87.5 1953.44,-94.5"/>
</g>
<!-- 2479389643248 -->
<g id="node26" class="node">
<title>2479389643248</title>
<polygon fill="none" stroke="black" points="2317.5,-109 2152.25,-109 2152.25,-73 2317.5,-73 2317.5,-109"/>
<text text-anchor="middle" x="2234.88" y="-85.97" font-family="Times New Roman,serif" font-size="12.00">Post&#45;travel feedback or services</text>
</g>
<!-- 2479389645888&#45;&gt;2479389643248 -->
<g id="edge32" class="edge">
<title>2479389645888&#45;&gt;2479389643248</title>
<path fill="none" stroke="black" d="M2116.58,-91C2124.46,-91 2132.54,-91 2140.59,-91"/>
<polygon fill="black" stroke="black" points="2140.42,-94.5 2150.42,-91 2140.42,-87.5 2140.42,-94.5"/>
</g>
<!-- 2479389046256 -->
<g id="node27" class="node">
<title>2479389046256</title>
<ellipse fill="orange" stroke="black" cx="2371.5" cy="-91" rx="18" ry="18"/>
</g>
<!-- 2479389643248&#45;&gt;2479389046256 -->
<g id="edge33" class="edge">
<title>2479389643248&#45;&gt;2479389046256</title>
<path fill="none" stroke="black" d="M2317.68,-91C2326.29,-91 2334.56,-91 2341.9,-91"/>
<polygon fill="black" stroke="black" points="2341.76,-94.5 2351.76,-91 2341.76,-87.5 2341.76,-94.5"/>
</g>
</g>
</svg>
