<?xml version="1.0" encoding="UTF-8" standalone="no"?>
<!DOCTYPE svg PUBLIC "-//W3C//DTD SVG 1.1//EN"
 "http://www.w3.org/Graphics/SVG/1.1/DTD/svg11.dtd">
<!-- Generated by graphviz version 11.0.0 (20240428.1522)
 -->
<!-- Pages: 1 -->
<svg width="1977pt" height="290pt"
 viewBox="0.00 0.00 1977.25 290.00" xmlns="http://www.w3.org/2000/svg" xmlns:xlink="http://www.w3.org/1999/xlink">
<g id="graph0" class="graph" transform="scale(1 1) rotate(0) translate(4 286)">
<polygon fill="white" stroke="none" points="-4,4 -4,-286 1973.25,-286 1973.25,4 -4,4"/>
<!-- 2479390023440 -->
<g id="node1" class="node">
<title>2479390023440</title>
<ellipse fill="green" stroke="black" cx="18" cy="-191" rx="18" ry="18"/>
</g>
<!-- 2479389725744 -->
<g id="node2" class="node">
<title>2479389725744</title>
<polygon fill="none" stroke="black" points="99,-209 72,-191 99,-173 126,-191 99,-209"/>
<text text-anchor="middle" x="99" y="-185.97" font-family="Times New Roman,serif" font-size="12.00">+</text>
</g>
<!-- 2479390023440&#45;&gt;2479389725744 -->
<g id="edge1" class="edge">
<title>2479390023440&#45;&gt;2479389725744</title>
<path fill="none" stroke="black" d="M36.14,-191C43.11,-191 51.47,-191 59.75,-191"/>
<polygon fill="black" stroke="black" points="59.75,-194.5 69.75,-191 59.75,-187.5 59.75,-194.5"/>
</g>
<!-- 2479388984336 -->
<g id="node3" class="node">
<title>2479388984336</title>
<polygon fill="none" stroke="black" points="217.25,-182 190.25,-164 217.25,-146 244.25,-164 217.25,-182"/>
<text text-anchor="middle" x="217.25" y="-158.97" font-family="Times New Roman,serif" font-size="12.00">X</text>
</g>
<!-- 2479389725744&#45;&gt;2479388984336 -->
<g id="edge2" class="edge">
<title>2479389725744&#45;&gt;2479388984336</title>
<path fill="none" stroke="black" d="M119.72,-186.42C137.67,-182.25 164.47,-176.03 185.28,-171.19"/>
<polygon fill="black" stroke="black" points="186.01,-174.62 194.96,-168.95 184.43,-167.8 186.01,-174.62"/>
</g>
<!-- 2479389638928 -->
<g id="node4" class="node">
<title>2479389638928</title>
<polygon fill="none" stroke="black" points="272.5,-236 162,-236 162,-200 272.5,-200 272.5,-236"/>
<text text-anchor="middle" x="217.25" y="-212.97" font-family="Times New Roman,serif" font-size="12.00">Select date and time</text>
</g>
<!-- 2479389725744&#45;&gt;2479389638928 -->
<g id="edge3" class="edge">
<title>2479389725744&#45;&gt;2479389638928</title>
<path fill="none" stroke="black" d="M119.72,-195.58C128.51,-197.62 139.41,-200.15 150.7,-202.78"/>
<polygon fill="black" stroke="black" points="149.57,-206.11 160.11,-204.96 151.16,-199.29 149.57,-206.11"/>
</g>
<!-- 2479389047792 -->
<g id="node5" class="node">
<title>2479389047792</title>
<polygon fill="none" stroke="black" points="536.75,-163 509.75,-145 536.75,-127 563.75,-145 536.75,-163"/>
<text text-anchor="middle" x="536.75" y="-139.97" font-family="Times New Roman,serif" font-size="12.00">X</text>
</g>
<!-- 2479388984336&#45;&gt;2479389047792 -->
<g id="edge4" class="edge">
<title>2479388984336&#45;&gt;2479389047792</title>
<path fill="none" stroke="black" d="M244.41,-163.61C290.72,-162.75 390.14,-160.18 473.75,-153 483.18,-152.19 493.38,-151 502.72,-149.79"/>
<polygon fill="black" stroke="black" points="503.05,-153.28 512.49,-148.47 502.11,-146.34 503.05,-153.28"/>
</g>
<!-- 2479389722096 -->
<g id="node6" class="node">
<title>2479389722096</title>
<polygon fill="none" stroke="black" points="473.75,-144 308.5,-144 308.5,-108 473.75,-108 473.75,-144"/>
<text text-anchor="middle" x="391.12" y="-120.97" font-family="Times New Roman,serif" font-size="12.00">Post&#45;travel feedback or services</text>
</g>
<!-- 2479388984336&#45;&gt;2479389722096 -->
<g id="edge5" class="edge">
<title>2479388984336&#45;&gt;2479389722096</title>
<path fill="none" stroke="black" d="M238.3,-159.57C253.29,-156.25 274.97,-151.46 297.27,-146.53"/>
<polygon fill="black" stroke="black" points="297.76,-150.01 306.77,-144.43 296.25,-143.17 297.76,-150.01"/>
</g>
<!-- 2479389654528 -->
<g id="node7" class="node">
<title>2479389654528</title>
<polygon fill="none" stroke="black" points="1250,-236 1223,-218 1250,-200 1277,-218 1250,-236"/>
<text text-anchor="middle" x="1250" y="-212.97" font-family="Times New Roman,serif" font-size="12.00">+</text>
</g>
<!-- 2479389638928&#45;&gt;2479389654528 -->
<g id="edge6" class="edge">
<title>2479389638928&#45;&gt;2479389654528</title>
<path fill="none" stroke="black" d="M272.75,-218C335.99,-218 443.42,-218 535.75,-218 535.75,-218 535.75,-218 1037.75,-218 1098.3,-218 1168.61,-218 1210.91,-218"/>
<polygon fill="black" stroke="black" points="1210.81,-221.5 1220.81,-218 1210.81,-214.5 1210.81,-221.5"/>
</g>
<!-- 2479388202176 -->
<g id="node8" class="node">
<title>2479388202176</title>
<polygon fill="none" stroke="black" points="750.75,-163 599.75,-163 599.75,-127 750.75,-127 750.75,-163"/>
<text text-anchor="middle" x="675.25" y="-139.97" font-family="Times New Roman,serif" font-size="12.00">Customer completes journey</text>
</g>
<!-- 2479389047792&#45;&gt;2479388202176 -->
<g id="edge8" class="edge">
<title>2479389047792&#45;&gt;2479388202176</title>
<path fill="none" stroke="black" d="M564.39,-145C571.51,-145 579.61,-145 588.11,-145"/>
<polygon fill="black" stroke="black" points="587.94,-148.5 597.94,-145 587.94,-141.5 587.94,-148.5"/>
</g>
<!-- 2479389722096&#45;&gt;2479389047792 -->
<g id="edge7" class="edge">
<title>2479389722096&#45;&gt;2479389047792</title>
<path fill="none" stroke="black" d="M474.01,-136.83C483.85,-138.13 493.44,-139.4 502.02,-140.54"/>
<polygon fill="black" stroke="black" points="501.5,-144 511.88,-141.84 502.42,-137.06 501.5,-144"/>
</g>
<!-- 2479389727856 -->
<g id="node9" class="node">
<title>2479389727856</title>
<polygon fill="none" stroke="black" points="1372.75,-236 1345.75,-218 1372.75,-200 1399.75,-218 1372.75,-236"/>
<text text-anchor="middle" x="1372.75" y="-212.97" font-family="Times New Roman,serif" font-size="12.00">+</text>
</g>
<!-- 2479389654528&#45;&gt;2479389727856 -->
<g id="edge9" class="edge">
<title>2479389654528&#45;&gt;2479389727856</title>
<path fill="none" stroke="black" d="M1277.8,-218C1294.21,-218 1315.48,-218 1333.63,-218"/>
<polygon fill="black" stroke="black" points="1333.51,-221.5 1343.51,-218 1333.51,-214.5 1333.51,-221.5"/>
</g>
<!-- 2479389734816 -->
<g id="node10" class="node">
<title>2479389734816</title>
<polygon fill="none" stroke="black" points="1372.75,-182 1345.75,-164 1372.75,-146 1399.75,-164 1372.75,-182"/>
<text text-anchor="middle" x="1372.75" y="-158.97" font-family="Times New Roman,serif" font-size="12.00">+</text>
</g>
<!-- 2479389654528&#45;&gt;2479389734816 -->
<g id="edge10" class="edge">
<title>2479389654528&#45;&gt;2479389734816</title>
<path fill="none" stroke="black" d="M1266.79,-210.94C1286.76,-202.01 1321.46,-186.49 1345.46,-175.76"/>
<polygon fill="black" stroke="black" points="1346.88,-178.96 1354.58,-171.68 1344.02,-172.57 1346.88,-178.96"/>
</g>
<!-- 2479389880208 -->
<g id="node11" class="node">
<title>2479389880208</title>
<polygon fill="none" stroke="black" points="1580.88,-282 1509.38,-282 1509.38,-246 1580.88,-246 1580.88,-282"/>
<text text-anchor="middle" x="1545.12" y="-258.98" font-family="Times New Roman,serif" font-size="12.00">Select route</text>
</g>
<!-- 2479389654528&#45;&gt;2479389880208 -->
<g id="edge11" class="edge">
<title>2479389654528&#45;&gt;2479389880208</title>
<path fill="none" stroke="black" d="M1265.3,-225.84C1277.57,-232.17 1295.92,-240.71 1313,-245 1375.63,-260.75 1450.52,-264.22 1497.71,-264.62"/>
<polygon fill="black" stroke="black" points="1497.56,-268.12 1507.57,-264.65 1497.59,-261.12 1497.56,-268.12"/>
</g>
<!-- 2479388197280 -->
<g id="node12" class="node">
<title>2479388197280</title>
<polygon fill="none" stroke="black" points="813.75,-163 786.75,-145 813.75,-127 840.75,-145 813.75,-163"/>
<text text-anchor="middle" x="813.75" y="-139.97" font-family="Times New Roman,serif" font-size="12.00">+</text>
</g>
<!-- 2479388202176&#45;&gt;2479388197280 -->
<g id="edge12" class="edge">
<title>2479388202176&#45;&gt;2479388197280</title>
<path fill="none" stroke="black" d="M750.89,-145C759.04,-145 767.07,-145 774.51,-145"/>
<polygon fill="black" stroke="black" points="774.49,-148.5 784.49,-145 774.49,-141.5 774.49,-148.5"/>
</g>
<!-- 2479389723680 -->
<g id="node14" class="node">
<title>2479389723680</title>
<polygon fill="none" stroke="black" points="1609.75,-228 1480.5,-228 1480.5,-192 1609.75,-192 1609.75,-228"/>
<text text-anchor="middle" x="1545.12" y="-204.97" font-family="Times New Roman,serif" font-size="12.00">Provide payment details</text>
</g>
<!-- 2479389727856&#45;&gt;2479389723680 -->
<g id="edge13" class="edge">
<title>2479389727856&#45;&gt;2479389723680</title>
<path fill="none" stroke="black" d="M1398.52,-216.84C1417.09,-215.96 1443.55,-214.72 1468.83,-213.54"/>
<polygon fill="black" stroke="black" points="1468.99,-217.03 1478.82,-213.07 1468.66,-210.04 1468.99,-217.03"/>
</g>
<!-- 2479389725888 -->
<g id="node15" class="node">
<title>2479389725888</title>
<polygon fill="none" stroke="black" points="1621.75,-174 1468.5,-174 1468.5,-138 1621.75,-138 1621.75,-174"/>
<text text-anchor="middle" x="1545.12" y="-150.97" font-family="Times New Roman,serif" font-size="12.00">Provide personal information</text>
</g>
<!-- 2479389734816&#45;&gt;2479389725888 -->
<g id="edge14" class="edge">
<title>2479389734816&#45;&gt;2479389725888</title>
<path fill="none" stroke="black" d="M1398.52,-162.84C1414.09,-162.11 1435.21,-161.11 1456.52,-160.11"/>
<polygon fill="black" stroke="black" points="1456.67,-163.61 1466.49,-159.65 1456.34,-156.62 1456.67,-163.61"/>
</g>
<!-- 2479389725216 -->
<g id="node13" class="node">
<title>2479389725216</title>
<polygon fill="none" stroke="black" points="1684.75,-151 1657.75,-133 1684.75,-115 1711.75,-133 1684.75,-151"/>
<text text-anchor="middle" x="1684.75" y="-127.97" font-family="Times New Roman,serif" font-size="12.00">+</text>
</g>
<!-- 2479389880208&#45;&gt;2479389725216 -->
<g id="edge15" class="edge">
<title>2479389880208&#45;&gt;2479389725216</title>
<path fill="none" stroke="black" d="M1581.07,-256.95C1594.84,-252.86 1610.12,-246.56 1621.75,-237 1647.29,-216.01 1664.85,-181.56 1674.59,-158.11"/>
<polygon fill="black" stroke="black" points="1677.77,-159.58 1678.19,-149 1671.26,-157.01 1677.77,-159.58"/>
</g>
<!-- 2479389724928 -->
<g id="node16" class="node">
<title>2479389724928</title>
<polygon fill="none" stroke="black" points="973.75,-173 876.75,-173 876.75,-137 973.75,-137 973.75,-173"/>
<text text-anchor="middle" x="925.25" y="-149.97" font-family="Times New Roman,serif" font-size="12.00">Send instructions</text>
</g>
<!-- 2479388197280&#45;&gt;2479389724928 -->
<g id="edge19" class="edge">
<title>2479388197280&#45;&gt;2479389724928</title>
<path fill="none" stroke="black" d="M838.24,-147.15C846.28,-147.88 855.67,-148.74 865.24,-149.61"/>
<polygon fill="black" stroke="black" points="864.7,-153.08 874.97,-150.5 865.33,-146.1 864.7,-153.08"/>
</g>
<!-- 2479389876512 -->
<g id="node18" class="node">
<title>2479389876512</title>
<polygon fill="none" stroke="black" points="967.75,-119 882.75,-119 882.75,-83 967.75,-83 967.75,-119"/>
<text text-anchor="middle" x="925.25" y="-95.97" font-family="Times New Roman,serif" font-size="12.00">Send reminder</text>
</g>
<!-- 2479388197280&#45;&gt;2479389876512 -->
<g id="edge18" class="edge">
<title>2479388197280&#45;&gt;2479389876512</title>
<path fill="none" stroke="black" d="M831.38,-138.32C842.26,-133.95 857.13,-127.97 871.78,-122.08"/>
<polygon fill="black" stroke="black" points="872.97,-125.38 880.94,-118.4 870.36,-118.88 872.97,-125.38"/>
</g>
<!-- 2479389728480 -->
<g id="node17" class="node">
<title>2479389728480</title>
<polygon fill="none" stroke="black" points="1897.25,-151 1747.75,-151 1747.75,-115 1897.25,-115 1897.25,-151"/>
<text text-anchor="middle" x="1822.5" y="-127.97" font-family="Times New Roman,serif" font-size="12.00">Customer searches for ticket</text>
</g>
<!-- 2479389725216&#45;&gt;2479389728480 -->
<g id="edge20" class="edge">
<title>2479389725216&#45;&gt;2479389728480</title>
<path fill="none" stroke="black" d="M1712.57,-133C1719.66,-133 1727.71,-133 1736.15,-133"/>
<polygon fill="black" stroke="black" points="1735.9,-136.5 1745.9,-133 1735.9,-129.5 1735.9,-136.5"/>
</g>
<!-- 2479389723680&#45;&gt;2479389725216 -->
<g id="edge16" class="edge">
<title>2479389723680&#45;&gt;2479389725216</title>
<path fill="none" stroke="black" d="M1604.01,-191.63C1610.13,-189.02 1616.16,-186.14 1621.75,-183 1637.36,-174.25 1653.03,-161.57 1664.71,-151.17"/>
<polygon fill="black" stroke="black" points="1667.03,-153.8 1672.03,-144.46 1662.3,-148.64 1667.03,-153.8"/>
</g>
<!-- 2479389725888&#45;&gt;2479389725216 -->
<g id="edge17" class="edge">
<title>2479389725888&#45;&gt;2479389725216</title>
<path fill="none" stroke="black" d="M1622.18,-143.29C1632.35,-141.59 1642.31,-139.92 1651.16,-138.45"/>
<polygon fill="black" stroke="black" points="1651.66,-141.91 1660.94,-136.81 1650.5,-135.01 1651.66,-141.91"/>
</g>
<!-- 2479389725024 -->
<g id="node19" class="node">
<title>2479389725024</title>
<polygon fill="none" stroke="black" points="1036.75,-128 1009.75,-110 1036.75,-92 1063.75,-110 1036.75,-128"/>
<text text-anchor="middle" x="1036.75" y="-104.97" font-family="Times New Roman,serif" font-size="12.00">+</text>
</g>
<!-- 2479389724928&#45;&gt;2479389725024 -->
<g id="edge21" class="edge">
<title>2479389724928&#45;&gt;2479389725024</title>
<path fill="none" stroke="black" d="M971.1,-136.57C983.86,-131.32 997.36,-125.78 1008.7,-121.11"/>
<polygon fill="black" stroke="black" points="1009.9,-124.41 1017.82,-117.37 1007.24,-117.93 1009.9,-124.41"/>
</g>
<!-- 2479390022096 -->
<g id="node25" class="node">
<title>2479390022096</title>
<ellipse fill="orange" stroke="black" cx="1951.25" cy="-133" rx="18" ry="18"/>
</g>
<!-- 2479389728480&#45;&gt;2479390022096 -->
<g id="edge23" class="edge">
<title>2479389728480&#45;&gt;2479390022096</title>
<path fill="none" stroke="black" d="M1897.6,-133C1906.07,-133 1914.27,-133 1921.58,-133"/>
<polygon fill="black" stroke="black" points="1921.43,-136.5 1931.43,-133 1921.43,-129.5 1921.43,-136.5"/>
</g>
<!-- 2479389876512&#45;&gt;2479389725024 -->
<g id="edge22" class="edge">
<title>2479389876512&#45;&gt;2479389725024</title>
<path fill="none" stroke="black" d="M967.96,-104.43C978.76,-105.32 990.28,-106.26 1000.71,-107.12"/>
<polygon fill="black" stroke="black" points="1000.15,-110.59 1010.4,-107.92 1000.72,-103.61 1000.15,-110.59"/>
</g>
<!-- 2479389724448 -->
<g id="node20" class="node">
<title>2479389724448</title>
<polygon fill="none" stroke="black" points="1187,-128 1099.75,-128 1099.75,-92 1187,-92 1187,-128"/>
<text text-anchor="middle" x="1143.38" y="-104.97" font-family="Times New Roman,serif" font-size="12.00">Generate ticket</text>
</g>
<!-- 2479389725024&#45;&gt;2479389724448 -->
<g id="edge24" class="edge">
<title>2479389725024&#45;&gt;2479389724448</title>
<path fill="none" stroke="black" d="M1064.42,-110C1071.75,-110 1079.96,-110 1088.24,-110"/>
<polygon fill="black" stroke="black" points="1087.98,-113.5 1097.98,-110 1087.98,-106.5 1087.98,-113.5"/>
</g>
<!-- 2479389728576 -->
<g id="node21" class="node">
<title>2479389728576</title>
<polygon fill="none" stroke="black" points="1250,-128 1223,-110 1250,-92 1277,-110 1250,-128"/>
<text text-anchor="middle" x="1250" y="-104.97" font-family="Times New Roman,serif" font-size="12.00">+</text>
</g>
<!-- 2479389724448&#45;&gt;2479389728576 -->
<g id="edge25" class="edge">
<title>2479389724448&#45;&gt;2479389728576</title>
<path fill="none" stroke="black" d="M1187.23,-110C1195.1,-110 1203.27,-110 1210.98,-110"/>
<polygon fill="black" stroke="black" points="1210.74,-113.5 1220.74,-110 1210.74,-106.5 1210.74,-113.5"/>
</g>
<!-- 2479389728576&#45;&gt;2479389727856 -->
<g id="edge27" class="edge">
<title>2479389728576&#45;&gt;2479389727856</title>
<path fill="none" stroke="black" d="M1258.25,-123.09C1268.48,-140.55 1288.65,-171.54 1313,-191 1321.89,-198.1 1332.95,-203.81 1343.06,-208.12"/>
<polygon fill="black" stroke="black" points="1341.53,-211.28 1352.12,-211.69 1344.1,-204.76 1341.53,-211.28"/>
</g>
<!-- 2479389728576&#45;&gt;2479389734816 -->
<g id="edge26" class="edge">
<title>2479389728576&#45;&gt;2479389734816</title>
<path fill="none" stroke="black" d="M1266.79,-117.06C1286.76,-125.99 1321.46,-141.51 1345.46,-152.24"/>
<polygon fill="black" stroke="black" points="1344.02,-155.43 1354.58,-156.32 1346.88,-149.04 1344.02,-155.43"/>
</g>
<!-- 2479389736400 -->
<g id="node22" class="node">
<title>2479389736400</title>
<polygon fill="none" stroke="black" points="1432.5,-128 1313,-128 1313,-92 1432.5,-92 1432.5,-128"/>
<text text-anchor="middle" x="1372.75" y="-104.97" font-family="Times New Roman,serif" font-size="12.00">Update seat inventory</text>
</g>
<!-- 2479389728576&#45;&gt;2479389736400 -->
<g id="edge30" class="edge">
<title>2479389728576&#45;&gt;2479389736400</title>
<path fill="none" stroke="black" d="M1277.8,-110C1284.96,-110 1293.05,-110 1301.41,-110"/>
<polygon fill="black" stroke="black" points="1301.38,-113.5 1311.38,-110 1301.38,-106.5 1301.38,-113.5"/>
</g>
<!-- 2479389730592 -->
<g id="node23" class="node">
<title>2479389730592</title>
<polygon fill="none" stroke="black" points="1601.5,-82 1488.75,-82 1488.75,-46 1601.5,-46 1601.5,-82"/>
<text text-anchor="middle" x="1545.12" y="-58.98" font-family="Times New Roman,serif" font-size="12.00">Send ticket via SMS</text>
</g>
<!-- 2479389728576&#45;&gt;2479389730592 -->
<g id="edge28" class="edge">
<title>2479389728576&#45;&gt;2479389730592</title>
<path fill="none" stroke="black" d="M1265.3,-102.16C1277.57,-95.83 1295.92,-87.29 1313,-83 1367.17,-69.38 1430.51,-64.94 1477.17,-63.73"/>
<polygon fill="black" stroke="black" points="1477.22,-67.23 1487.15,-63.52 1477.07,-60.23 1477.22,-67.23"/>
</g>
<!-- 2479389724496 -->
<g id="node24" class="node">
<title>2479389724496</title>
<polygon fill="none" stroke="black" points="1429.88,-36 1315.62,-36 1315.62,0 1429.88,0 1429.88,-36"/>
<text text-anchor="middle" x="1372.75" y="-12.97" font-family="Times New Roman,serif" font-size="12.00">Send ticket via email</text>
</g>
<!-- 2479389728576&#45;&gt;2479389724496 -->
<g id="edge29" class="edge">
<title>2479389728576&#45;&gt;2479389724496</title>
<path fill="none" stroke="black" d="M1260.75,-98.89C1272.36,-86.09 1292.72,-64.9 1313,-50 1316.74,-47.25 1320.74,-44.58 1324.83,-42.04"/>
<polygon fill="black" stroke="black" points="1326.34,-45.21 1333.16,-37.1 1322.77,-39.19 1326.34,-45.21"/>
</g>
<!-- 2479389736400&#45;&gt;2479389725216 -->
<g id="edge31" class="edge">
<title>2479389736400&#45;&gt;2479389725216</title>
<path fill="none" stroke="black" d="M1432.79,-114.38C1496.51,-119.11 1595.91,-126.48 1648.45,-130.38"/>
<polygon fill="black" stroke="black" points="1648.09,-133.86 1658.32,-131.11 1648.61,-126.88 1648.09,-133.86"/>
</g>
<!-- 2479389730592&#45;&gt;2479389725216 -->
<g id="edge32" class="edge">
<title>2479389730592&#45;&gt;2479389725216</title>
<path fill="none" stroke="black" d="M1592.58,-82.46C1602.33,-86.67 1612.47,-91.29 1621.75,-96 1634.93,-102.68 1649.12,-111.06 1660.6,-118.15"/>
<polygon fill="black" stroke="black" points="1658.65,-121.06 1668.98,-123.41 1662.37,-115.13 1658.65,-121.06"/>
</g>
<!-- 2479389724496&#45;&gt;2479389725216 -->
<g id="edge33" class="edge">
<title>2479389724496&#45;&gt;2479389725216</title>
<path fill="none" stroke="black" d="M1430.19,-8.77C1483.42,-3.03 1563.49,-2.32 1621.75,-37 1648.44,-52.89 1665.67,-85.24 1675.03,-107.99"/>
<polygon fill="black" stroke="black" points="1671.7,-109.08 1678.57,-117.15 1678.24,-106.56 1671.7,-109.08"/>
</g>
</g>
</svg>
