<?xml version="1.0" encoding="UTF-8" standalone="no"?>
<!DOCTYPE svg PUBLIC "-//W3C//DTD SVG 1.1//EN"
 "http://www.w3.org/Graphics/SVG/1.1/DTD/svg11.dtd">
<!-- Generated by graphviz version 11.0.0 (20240428.1522)
 -->
<!-- Pages: 1 -->
<svg width="2352pt" height="198pt"
 viewBox="0.00 0.00 2351.75 198.00" xmlns="http://www.w3.org/2000/svg" xmlns:xlink="http://www.w3.org/1999/xlink">
<g id="graph0" class="graph" transform="scale(1 1) rotate(0) translate(4 194)">
<polygon fill="white" stroke="none" points="-4,4 -4,-194 2347.75,-194 2347.75,4 -4,4"/>
<!-- 2479389042752 -->
<g id="node1" class="node">
<title>2479389042752</title>
<ellipse fill="green" stroke="black" cx="18" cy="-99" rx="18" ry="18"/>
</g>
<!-- 2479389642960 -->
<g id="node2" class="node">
<title>2479389642960</title>
<polygon fill="none" stroke="black" points="223,-117 72,-117 72,-81 223,-81 223,-117"/>
<text text-anchor="middle" x="147.5" y="-93.97" font-family="Times New Roman,serif" font-size="12.00">Customer completes journey</text>
</g>
<!-- 2479389042752&#45;&gt;2479389642960 -->
<g id="edge1" class="edge">
<title>2479389042752&#45;&gt;2479389642960</title>
<path fill="none" stroke="black" d="M36.46,-99C43.25,-99 51.56,-99 60.54,-99"/>
<polygon fill="black" stroke="black" points="60.25,-102.5 70.25,-99 60.25,-95.5 60.25,-102.5"/>
</g>
<!-- 2479389649392 -->
<g id="node3" class="node">
<title>2479389649392</title>
<polygon fill="none" stroke="black" points="286,-117 259,-99 286,-81 313,-99 286,-117"/>
<text text-anchor="middle" x="286" y="-93.97" font-family="Times New Roman,serif" font-size="12.00">+</text>
</g>
<!-- 2479389642960&#45;&gt;2479389649392 -->
<g id="edge2" class="edge">
<title>2479389642960&#45;&gt;2479389649392</title>
<path fill="none" stroke="black" d="M223.14,-99C231.29,-99 239.32,-99 246.76,-99"/>
<polygon fill="black" stroke="black" points="246.74,-102.5 256.74,-99 246.74,-95.5 246.74,-102.5"/>
</g>
<!-- 2479389654144 -->
<g id="node4" class="node">
<title>2479389654144</title>
<polygon fill="none" stroke="black" points="498.5,-171 349,-171 349,-135 498.5,-135 498.5,-171"/>
<text text-anchor="middle" x="423.75" y="-147.97" font-family="Times New Roman,serif" font-size="12.00">Customer searches for ticket</text>
</g>
<!-- 2479389649392&#45;&gt;2479389654144 -->
<g id="edge5" class="edge">
<title>2479389649392&#45;&gt;2479389654144</title>
<path fill="none" stroke="black" d="M302.95,-106.26C315.4,-111.85 333.2,-119.67 349,-126 352.77,-127.51 356.65,-129.03 360.58,-130.54"/>
<polygon fill="black" stroke="black" points="359.02,-133.69 369.61,-133.97 361.5,-127.15 359.02,-133.69"/>
</g>
<!-- 2479389640848 -->
<g id="node5" class="node">
<title>2479389640848</title>
<polygon fill="none" stroke="black" points="466.25,-117 381.25,-117 381.25,-81 466.25,-81 466.25,-117"/>
<text text-anchor="middle" x="423.75" y="-93.97" font-family="Times New Roman,serif" font-size="12.00">Send reminder</text>
</g>
<!-- 2479389649392&#45;&gt;2479389640848 -->
<g id="edge4" class="edge">
<title>2479389649392&#45;&gt;2479389640848</title>
<path fill="none" stroke="black" d="M313.82,-99C329.7,-99 350.38,-99 369.45,-99"/>
<polygon fill="black" stroke="black" points="369.24,-102.5 379.24,-99 369.24,-95.5 369.24,-102.5"/>
</g>
<!-- 2479389833984 -->
<g id="node6" class="node">
<title>2479389833984</title>
<polygon fill="none" stroke="black" points="483.5,-63 364,-63 364,-27 483.5,-27 483.5,-63"/>
<text text-anchor="middle" x="423.75" y="-39.98" font-family="Times New Roman,serif" font-size="12.00">Update seat inventory</text>
</g>
<!-- 2479389649392&#45;&gt;2479389833984 -->
<g id="edge3" class="edge">
<title>2479389649392&#45;&gt;2479389833984</title>
<path fill="none" stroke="black" d="M302.95,-91.74C315.4,-86.15 333.2,-78.33 349,-72 352.77,-70.49 356.65,-68.97 360.58,-67.46"/>
<polygon fill="black" stroke="black" points="361.5,-70.85 369.61,-64.03 359.02,-64.31 361.5,-70.85"/>
</g>
<!-- 2479389650496 -->
<g id="node7" class="node">
<title>2479389650496</title>
<polygon fill="none" stroke="black" points="561.5,-117 534.5,-99 561.5,-81 588.5,-99 561.5,-117"/>
<text text-anchor="middle" x="561.5" y="-93.97" font-family="Times New Roman,serif" font-size="12.00">+</text>
</g>
<!-- 2479389654144&#45;&gt;2479389650496 -->
<g id="edge6" class="edge">
<title>2479389654144&#45;&gt;2479389650496</title>
<path fill="none" stroke="black" d="M476.48,-134.51C483.9,-131.73 491.41,-128.84 498.5,-126 510.35,-121.25 523.32,-115.67 534.32,-110.81"/>
<polygon fill="black" stroke="black" points="535.46,-114.14 543.17,-106.87 532.61,-107.74 535.46,-114.14"/>
</g>
<!-- 2479389640848&#45;&gt;2479389650496 -->
<g id="edge7" class="edge">
<title>2479389640848&#45;&gt;2479389650496</title>
<path fill="none" stroke="black" d="M466.59,-99C484.44,-99 505.12,-99 522.52,-99"/>
<polygon fill="black" stroke="black" points="522.46,-102.5 532.46,-99 522.46,-95.5 522.46,-102.5"/>
</g>
<!-- 2479389833984&#45;&gt;2479389650496 -->
<g id="edge8" class="edge">
<title>2479389833984&#45;&gt;2479389650496</title>
<path fill="none" stroke="black" d="M476.48,-63.49C483.9,-66.27 491.41,-69.16 498.5,-72 510.35,-76.75 523.32,-82.33 534.32,-87.19"/>
<polygon fill="black" stroke="black" points="532.61,-90.26 543.17,-91.13 535.46,-83.86 532.61,-90.26"/>
</g>
<!-- 2479389652848 -->
<g id="node8" class="node">
<title>2479389652848</title>
<polygon fill="none" stroke="black" points="753.75,-117 624.5,-117 624.5,-81 753.75,-81 753.75,-117"/>
<text text-anchor="middle" x="689.12" y="-93.97" font-family="Times New Roman,serif" font-size="12.00">Provide payment details</text>
</g>
<!-- 2479389650496&#45;&gt;2479389652848 -->
<g id="edge9" class="edge">
<title>2479389650496&#45;&gt;2479389652848</title>
<path fill="none" stroke="black" d="M589.14,-99C596.22,-99 604.23,-99 612.56,-99"/>
<polygon fill="black" stroke="black" points="612.53,-102.5 622.53,-99 612.53,-95.5 612.53,-102.5"/>
</g>
<!-- 2479389639504 -->
<g id="node9" class="node">
<title>2479389639504</title>
<polygon fill="none" stroke="black" points="816.75,-117 789.75,-99 816.75,-81 843.75,-99 816.75,-117"/>
<text text-anchor="middle" x="816.75" y="-93.97" font-family="Times New Roman,serif" font-size="12.00">+</text>
</g>
<!-- 2479389652848&#45;&gt;2479389639504 -->
<g id="edge10" class="edge">
<title>2479389652848&#45;&gt;2479389639504</title>
<path fill="none" stroke="black" d="M754.04,-99C762.16,-99 770.25,-99 777.77,-99"/>
<polygon fill="black" stroke="black" points="777.53,-102.5 787.53,-99 777.53,-95.5 777.53,-102.5"/>
</g>
<!-- 2479389652800 -->
<g id="node10" class="node">
<title>2479389652800</title>
<polygon fill="none" stroke="black" points="1210.25,-190 1045,-190 1045,-154 1210.25,-154 1210.25,-190"/>
<text text-anchor="middle" x="1127.62" y="-166.97" font-family="Times New Roman,serif" font-size="12.00">Post&#45;travel feedback or services</text>
</g>
<!-- 2479389639504&#45;&gt;2479389652800 -->
<g id="edge14" class="edge">
<title>2479389639504&#45;&gt;2479389652800</title>
<path fill="none" stroke="black" d="M826.85,-110.47C837.84,-123.37 857.63,-143.73 879.75,-153 927.84,-173.14 985.77,-178.46 1033.42,-178.49"/>
<polygon fill="black" stroke="black" points="1033.19,-181.99 1043.16,-178.41 1033.14,-174.99 1033.19,-181.99"/>
</g>
<!-- 2479389641568 -->
<g id="node11" class="node">
<title>2479389641568</title>
<polygon fill="none" stroke="black" points="980.12,-144 908.62,-144 908.62,-108 980.12,-108 980.12,-144"/>
<text text-anchor="middle" x="944.38" y="-120.97" font-family="Times New Roman,serif" font-size="12.00">Select route</text>
</g>
<!-- 2479389639504&#45;&gt;2479389641568 -->
<g id="edge13" class="edge">
<title>2479389639504&#45;&gt;2479389641568</title>
<path fill="none" stroke="black" d="M837.93,-103.34C853.97,-106.78 877.02,-111.74 897.48,-116.14"/>
<polygon fill="black" stroke="black" points="896.53,-119.51 907.05,-118.19 898,-112.67 896.53,-119.51"/>
</g>
<!-- 2479389646512 -->
<g id="node12" class="node">
<title>2479389646512</title>
<polygon fill="none" stroke="black" points="999.62,-90 889.12,-90 889.12,-54 999.62,-54 999.62,-90"/>
<text text-anchor="middle" x="944.38" y="-66.97" font-family="Times New Roman,serif" font-size="12.00">Select date and time</text>
</g>
<!-- 2479389639504&#45;&gt;2479389646512 -->
<g id="edge12" class="edge">
<title>2479389639504&#45;&gt;2479389646512</title>
<path fill="none" stroke="black" d="M837.93,-94.66C848.93,-92.3 863.23,-89.22 877.73,-86.11"/>
<polygon fill="black" stroke="black" points="878.29,-89.57 887.33,-84.04 876.82,-82.72 878.29,-89.57"/>
</g>
<!-- 2479389830432 -->
<g id="node13" class="node">
<title>2479389830432</title>
<polygon fill="none" stroke="black" points="1009,-36 879.75,-36 879.75,0 1009,0 1009,-36"/>
<text text-anchor="middle" x="944.38" y="-12.97" font-family="Times New Roman,serif" font-size="12.00">Provide payment details</text>
</g>
<!-- 2479389639504&#45;&gt;2479389830432 -->
<g id="edge11" class="edge">
<title>2479389639504&#45;&gt;2479389830432</title>
<path fill="none" stroke="black" d="M827.9,-88.33C839.56,-76.54 859.66,-57.57 879.75,-45 881.58,-43.85 883.47,-42.74 885.4,-41.65"/>
<polygon fill="black" stroke="black" points="886.72,-44.91 893.95,-37.16 883.47,-38.71 886.72,-44.91"/>
</g>
<!-- 2479389644208 -->
<g id="node15" class="node">
<title>2479389644208</title>
<polygon fill="none" stroke="black" points="2244.75,-167 2217.75,-149 2244.75,-131 2271.75,-149 2244.75,-167"/>
<text text-anchor="middle" x="2244.75" y="-143.97" font-family="Times New Roman,serif" font-size="12.00">+</text>
</g>
<!-- 2479389652800&#45;&gt;2479389644208 -->
<g id="edge15" class="edge">
<title>2479389652800&#45;&gt;2479389644208</title>
<path fill="none" stroke="black" d="M1210.68,-172C1263.47,-172 1333.53,-172 1395.5,-172 1395.5,-172 1395.5,-172 2035.62,-172 2098.32,-172 2171.01,-161.56 2211.76,-154.75"/>
<polygon fill="black" stroke="black" points="2212.1,-158.24 2221.37,-153.1 2210.92,-151.34 2212.1,-158.24"/>
</g>
<!-- 2479389642048 -->
<g id="node14" class="node">
<title>2479389642048</title>
<polygon fill="none" stroke="black" points="1127.62,-90 1100.62,-72 1127.62,-54 1154.62,-72 1127.62,-90"/>
<text text-anchor="middle" x="1127.62" y="-66.97" font-family="Times New Roman,serif" font-size="12.00">+</text>
</g>
<!-- 2479389641568&#45;&gt;2479389642048 -->
<g id="edge16" class="edge">
<title>2479389641568&#45;&gt;2479389642048</title>
<path fill="none" stroke="black" d="M980.32,-115.59C1014.4,-105.43 1065.64,-90.17 1097.56,-80.66"/>
<polygon fill="black" stroke="black" points="1098.34,-84.08 1106.92,-77.87 1096.34,-77.37 1098.34,-84.08"/>
</g>
<!-- 2479389646512&#45;&gt;2479389642048 -->
<g id="edge17" class="edge">
<title>2479389646512&#45;&gt;2479389642048</title>
<path fill="none" stroke="black" d="M999.76,-72C1028.51,-72 1063.1,-72 1088.89,-72"/>
<polygon fill="black" stroke="black" points="1088.55,-75.5 1098.55,-72 1088.55,-68.5 1088.55,-75.5"/>
</g>
<!-- 2479389830432&#45;&gt;2479389642048 -->
<g id="edge18" class="edge">
<title>2479389830432&#45;&gt;2479389642048</title>
<path fill="none" stroke="black" d="M1007.24,-36.43C1037.74,-45.52 1073.08,-56.05 1097.35,-63.28"/>
<polygon fill="black" stroke="black" points="1096.27,-66.61 1106.85,-66.11 1098.27,-59.9 1096.27,-66.61"/>
</g>
<!-- 2479389643680 -->
<g id="node16" class="node">
<title>2479389643680</title>
<polygon fill="none" stroke="black" points="1333.5,-90 1246.25,-90 1246.25,-54 1333.5,-54 1333.5,-90"/>
<text text-anchor="middle" x="1289.88" y="-66.97" font-family="Times New Roman,serif" font-size="12.00">Generate ticket</text>
</g>
<!-- 2479389642048&#45;&gt;2479389643680 -->
<g id="edge19" class="edge">
<title>2479389642048&#45;&gt;2479389643680</title>
<path fill="none" stroke="black" d="M1155.45,-72C1176.95,-72 1207.82,-72 1234.45,-72"/>
<polygon fill="black" stroke="black" points="1234.44,-75.5 1244.44,-72 1234.44,-68.5 1234.44,-75.5"/>
</g>
<!-- 2479389041456 -->
<g id="node25" class="node">
<title>2479389041456</title>
<ellipse fill="orange" stroke="black" cx="2325.75" cy="-149" rx="18" ry="18"/>
</g>
<!-- 2479389644208&#45;&gt;2479389041456 -->
<g id="edge20" class="edge">
<title>2479389644208&#45;&gt;2479389041456</title>
<path fill="none" stroke="black" d="M2272.5,-149C2280.13,-149 2288.48,-149 2296.22,-149"/>
<polygon fill="black" stroke="black" points="2296.18,-152.5 2306.18,-149 2296.18,-145.5 2296.18,-152.5"/>
</g>
<!-- 2479389644928 -->
<g id="node17" class="node">
<title>2479389644928</title>
<polygon fill="none" stroke="black" points="1396.5,-90 1369.5,-72 1396.5,-54 1423.5,-72 1396.5,-90"/>
<text text-anchor="middle" x="1396.5" y="-66.97" font-family="Times New Roman,serif" font-size="12.00">+</text>
</g>
<!-- 2479389643680&#45;&gt;2479389644928 -->
<g id="edge21" class="edge">
<title>2479389643680&#45;&gt;2479389644928</title>
<path fill="none" stroke="black" d="M1333.73,-72C1341.6,-72 1349.77,-72 1357.48,-72"/>
<polygon fill="black" stroke="black" points="1357.24,-75.5 1367.24,-72 1357.24,-68.5 1357.24,-75.5"/>
</g>
<!-- 2479389642720 -->
<g id="node18" class="node">
<title>2479389642720</title>
<polygon fill="none" stroke="black" points="1564.38,-133 1467.38,-133 1467.38,-97 1564.38,-97 1564.38,-133"/>
<text text-anchor="middle" x="1515.88" y="-109.97" font-family="Times New Roman,serif" font-size="12.00">Send instructions</text>
</g>
<!-- 2479389644928&#45;&gt;2479389642720 -->
<g id="edge23" class="edge">
<title>2479389644928&#45;&gt;2479389642720</title>
<path fill="none" stroke="black" d="M1414.82,-78.34C1426.01,-82.44 1441.29,-88.04 1456.53,-93.63"/>
<polygon fill="black" stroke="black" points="1455.01,-96.8 1465.61,-96.95 1457.42,-90.22 1455.01,-96.8"/>
</g>
<!-- 2479389652992 -->
<g id="node19" class="node">
<title>2479389652992</title>
<polygon fill="none" stroke="black" points="1572.25,-79 1459.5,-79 1459.5,-43 1572.25,-43 1572.25,-79"/>
<text text-anchor="middle" x="1515.88" y="-55.98" font-family="Times New Roman,serif" font-size="12.00">Send ticket via SMS</text>
</g>
<!-- 2479389644928&#45;&gt;2479389652992 -->
<g id="edge22" class="edge">
<title>2479389644928&#45;&gt;2479389652992</title>
<path fill="none" stroke="black" d="M1420.97,-69.8C1428.95,-69.05 1438.31,-68.18 1447.98,-67.27"/>
<polygon fill="black" stroke="black" points="1448.26,-70.76 1457.89,-66.34 1447.61,-63.79 1448.26,-70.76"/>
</g>
<!-- 2479389644784 -->
<g id="node20" class="node">
<title>2479389644784</title>
<polygon fill="none" stroke="black" points="1635.25,-121 1608.25,-103 1635.25,-85 1662.25,-103 1635.25,-121"/>
<text text-anchor="middle" x="1635.25" y="-97.97" font-family="Times New Roman,serif" font-size="12.00">+</text>
</g>
<!-- 2479389642720&#45;&gt;2479389644784 -->
<g id="edge24" class="edge">
<title>2479389642720&#45;&gt;2479389644784</title>
<path fill="none" stroke="black" d="M1564.62,-110.12C1576.36,-108.92 1588.71,-107.66 1599.7,-106.53"/>
<polygon fill="black" stroke="black" points="1599.89,-110.03 1609.48,-105.53 1599.18,-103.07 1599.89,-110.03"/>
</g>
<!-- 2479389652992&#45;&gt;2479389644784 -->
<g id="edge25" class="edge">
<title>2479389652992&#45;&gt;2479389644784</title>
<path fill="none" stroke="black" d="M1568.36,-79.42C1581.38,-84.08 1594.89,-88.92 1606.26,-92.99"/>
<polygon fill="black" stroke="black" points="1604.8,-96.18 1615.4,-96.25 1607.16,-89.59 1604.8,-96.18"/>
</g>
<!-- 2479389651024 -->
<g id="node21" class="node">
<title>2479389651024</title>
<polygon fill="none" stroke="black" points="1851.5,-121 1698.25,-121 1698.25,-85 1851.5,-85 1851.5,-121"/>
<text text-anchor="middle" x="1774.88" y="-97.97" font-family="Times New Roman,serif" font-size="12.00">Provide personal information</text>
</g>
<!-- 2479389644784&#45;&gt;2479389651024 -->
<g id="edge26" class="edge">
<title>2479389644784&#45;&gt;2479389651024</title>
<path fill="none" stroke="black" d="M1663.11,-103C1670.18,-103 1678.21,-103 1686.63,-103"/>
<polygon fill="black" stroke="black" points="1686.38,-106.5 1696.38,-103 1686.38,-99.5 1686.38,-106.5"/>
</g>
<!-- 2479389652512 -->
<g id="node22" class="node">
<title>2479389652512</title>
<polygon fill="none" stroke="black" points="1914.5,-121 1887.5,-103 1914.5,-85 1941.5,-103 1914.5,-121"/>
<text text-anchor="middle" x="1914.5" y="-97.97" font-family="Times New Roman,serif" font-size="12.00">X</text>
</g>
<!-- 2479389651024&#45;&gt;2479389652512 -->
<g id="edge27" class="edge">
<title>2479389651024&#45;&gt;2479389652512</title>
<path fill="none" stroke="black" d="M1851.93,-103C1860,-103 1867.92,-103 1875.27,-103"/>
<polygon fill="black" stroke="black" points="1875.11,-106.5 1885.11,-103 1875.11,-99.5 1875.11,-106.5"/>
</g>
<!-- 2479389641088 -->
<g id="node23" class="node">
<title>2479389641088</title>
<polygon fill="none" stroke="black" points="2154.75,-144 2127.75,-126 2154.75,-108 2181.75,-126 2154.75,-144"/>
<text text-anchor="middle" x="2154.75" y="-120.97" font-family="Times New Roman,serif" font-size="12.00">X</text>
</g>
<!-- 2479389652512&#45;&gt;2479389641088 -->
<g id="edge29" class="edge">
<title>2479389652512&#45;&gt;2479389641088</title>
<path fill="none" stroke="black" d="M1937.57,-106.08C1949.4,-107.68 1964.23,-109.58 1977.5,-111 2026.2,-116.21 2082.62,-120.75 2118.24,-123.43"/>
<polygon fill="black" stroke="black" points="2117.74,-126.91 2127.98,-124.16 2118.26,-119.92 2117.74,-126.91"/>
</g>
<!-- 2479389639360 -->
<g id="node24" class="node">
<title>2479389639360</title>
<polygon fill="none" stroke="black" points="2091.75,-102 1977.5,-102 1977.5,-66 2091.75,-66 2091.75,-102"/>
<text text-anchor="middle" x="2034.62" y="-78.97" font-family="Times New Roman,serif" font-size="12.00">Send ticket via email</text>
</g>
<!-- 2479389652512&#45;&gt;2479389639360 -->
<g id="edge28" class="edge">
<title>2479389652512&#45;&gt;2479389639360</title>
<path fill="none" stroke="black" d="M1937.17,-99.52C1945.48,-98.18 1955.48,-96.57 1965.84,-94.9"/>
<polygon fill="black" stroke="black" points="1966.35,-98.37 1975.67,-93.32 1965.24,-91.45 1966.35,-98.37"/>
</g>
<!-- 2479389641088&#45;&gt;2479389644208 -->
<g id="edge30" class="edge">
<title>2479389641088&#45;&gt;2479389644208</title>
<path fill="none" stroke="black" d="M2174.84,-130.99C2186.26,-133.97 2201.01,-137.83 2213.94,-141.21"/>
<polygon fill="black" stroke="black" points="2212.67,-144.49 2223.23,-143.64 2214.44,-137.72 2212.67,-144.49"/>
</g>
<!-- 2479389639360&#45;&gt;2479389641088 -->
<g id="edge31" class="edge">
<title>2479389639360&#45;&gt;2479389641088</title>
<path fill="none" stroke="black" d="M2087.44,-102.42C2100.55,-107.08 2114.14,-111.92 2125.58,-115.99"/>
<polygon fill="black" stroke="black" points="2124.19,-119.2 2134.78,-119.26 2126.53,-112.61 2124.19,-119.2"/>
</g>
</g>
</svg>
