<?xml version="1.0" encoding="UTF-8" standalone="no"?>
<!DOCTYPE svg PUBLIC "-//W3C//DTD SVG 1.1//EN"
 "http://www.w3.org/Graphics/SVG/1.1/DTD/svg11.dtd">
<!-- Generated by graphviz version 11.0.0 (20240428.1522)
 -->
<!-- Pages: 1 -->
<svg width="1965pt" height="240pt"
 viewBox="0.00 0.00 1964.75 240.30" xmlns="http://www.w3.org/2000/svg" xmlns:xlink="http://www.w3.org/1999/xlink">
<g id="graph0" class="graph" transform="scale(1 1) rotate(0) translate(4 236.3)">
<polygon fill="white" stroke="none" points="-4,4 -4,-236.3 1960.75,-236.3 1960.75,4 -4,4"/>
<!-- 2479389382640 -->
<g id="node1" class="node">
<title>2479389382640</title>
<ellipse fill="green" stroke="black" cx="18" cy="-177" rx="18" ry="18"/>
</g>
<!-- 2479389387440 -->
<g id="node2" class="node">
<title>2479389387440</title>
<polygon fill="none" stroke="black" points="223,-195 72,-195 72,-159 223,-159 223,-195"/>
<text text-anchor="middle" x="147.5" y="-171.97" font-family="Times New Roman,serif" font-size="12.00">Customer completes journey</text>
</g>
<!-- 2479389382640&#45;&gt;2479389387440 -->
<g id="edge1" class="edge">
<title>2479389382640&#45;&gt;2479389387440</title>
<path fill="none" stroke="black" d="M36.46,-177C43.25,-177 51.56,-177 60.54,-177"/>
<polygon fill="black" stroke="black" points="60.25,-180.5 70.25,-177 60.25,-173.5 60.25,-180.5"/>
</g>
<!-- 2479389383408 -->
<g id="node3" class="node">
<title>2479389383408</title>
<polygon fill="none" stroke="black" points="286,-195 259,-177 286,-159 313,-177 286,-195"/>
<text text-anchor="middle" x="286" y="-171.97" font-family="Times New Roman,serif" font-size="12.00">+</text>
</g>
<!-- 2479389387440&#45;&gt;2479389383408 -->
<g id="edge2" class="edge">
<title>2479389387440&#45;&gt;2479389383408</title>
<path fill="none" stroke="black" d="M223.14,-177C231.29,-177 239.32,-177 246.76,-177"/>
<polygon fill="black" stroke="black" points="246.74,-180.5 256.74,-177 246.74,-173.5 246.74,-180.5"/>
</g>
<!-- 2479389391232 -->
<g id="node4" class="node">
<title>2479389391232</title>
<polygon fill="none" stroke="black" points="636.75,-231 551.75,-231 551.75,-195 636.75,-195 636.75,-231"/>
<text text-anchor="middle" x="594.25" y="-207.97" font-family="Times New Roman,serif" font-size="12.00">Send reminder</text>
</g>
<!-- 2479389383408&#45;&gt;2479389391232 -->
<g id="edge4" class="edge">
<title>2479389383408&#45;&gt;2479389391232</title>
<path fill="none" stroke="black" d="M309.52,-179.65C357.77,-185.32 472.24,-198.77 540.12,-206.75"/>
<polygon fill="black" stroke="black" points="539.57,-210.21 549.91,-207.9 540.38,-203.26 539.57,-210.21"/>
</g>
<!-- 2479389388160 -->
<g id="node5" class="node">
<title>2479389388160</title>
<polygon fill="none" stroke="black" points="498.5,-172 349,-172 349,-136 498.5,-136 498.5,-172"/>
<text text-anchor="middle" x="423.75" y="-148.97" font-family="Times New Roman,serif" font-size="12.00">Customer searches for ticket</text>
</g>
<!-- 2479389383408&#45;&gt;2479389388160 -->
<g id="edge3" class="edge">
<title>2479389383408&#45;&gt;2479389388160</title>
<path fill="none" stroke="black" d="M308.21,-173.41C316.6,-171.98 326.83,-170.25 337.69,-168.41"/>
<polygon fill="black" stroke="black" points="337.95,-171.92 347.23,-166.8 336.78,-165.02 337.95,-171.92"/>
</g>
<!-- 2479389385376 -->
<g id="node6" class="node">
<title>2479389385376</title>
<polygon fill="none" stroke="black" points="1857.75,-162 1830.75,-144 1857.75,-126 1884.75,-144 1857.75,-162"/>
<text text-anchor="middle" x="1857.75" y="-138.97" font-family="Times New Roman,serif" font-size="12.00">+</text>
</g>
<!-- 2479389391232&#45;&gt;2479389385376 -->
<g id="edge5" class="edge">
<title>2479389391232&#45;&gt;2479389385376</title>
<path fill="none" stroke="black" d="M636.92,-218.14C686.21,-223.77 770.75,-232 843.62,-232 843.62,-232 843.62,-232 1570.38,-232 1671.44,-232 1702.71,-236.76 1794.75,-195 1811.54,-187.38 1827.53,-174.02 1839.07,-162.88"/>
<polygon fill="black" stroke="black" points="1841.33,-165.57 1845.9,-156.01 1836.37,-160.64 1841.33,-165.57"/>
</g>
<!-- 2479389385808 -->
<g id="node7" class="node">
<title>2479389385808</title>
<polygon fill="none" stroke="black" points="654,-168 534.5,-168 534.5,-132 654,-132 654,-168"/>
<text text-anchor="middle" x="594.25" y="-144.97" font-family="Times New Roman,serif" font-size="12.00">Update seat inventory</text>
</g>
<!-- 2479389388160&#45;&gt;2479389385808 -->
<g id="edge6" class="edge">
<title>2479389388160&#45;&gt;2479389385808</title>
<path fill="none" stroke="black" d="M498.66,-152.25C506.62,-152.06 514.7,-151.86 522.62,-151.68"/>
<polygon fill="black" stroke="black" points="522.65,-155.18 532.57,-151.44 522.48,-148.18 522.65,-155.18"/>
</g>
<!-- 2479389391712 -->
<g id="node22" class="node">
<title>2479389391712</title>
<ellipse fill="orange" stroke="black" cx="1938.75" cy="-144" rx="18" ry="18"/>
</g>
<!-- 2479389385376&#45;&gt;2479389391712 -->
<g id="edge8" class="edge">
<title>2479389385376&#45;&gt;2479389391712</title>
<path fill="none" stroke="black" d="M1885.5,-144C1893.13,-144 1901.48,-144 1909.22,-144"/>
<polygon fill="black" stroke="black" points="1909.18,-147.5 1919.18,-144 1909.18,-140.5 1909.18,-147.5"/>
</g>
<!-- 2479389380288 -->
<g id="node8" class="node">
<title>2479389380288</title>
<polygon fill="none" stroke="black" points="717,-158 690,-140 717,-122 744,-140 717,-158"/>
<text text-anchor="middle" x="717" y="-134.97" font-family="Times New Roman,serif" font-size="12.00">+</text>
</g>
<!-- 2479389385808&#45;&gt;2479389380288 -->
<g id="edge7" class="edge">
<title>2479389385808&#45;&gt;2479389380288</title>
<path fill="none" stroke="black" d="M654.21,-145.12C663.32,-144.36 672.48,-143.6 680.85,-142.91"/>
<polygon fill="black" stroke="black" points="680.89,-146.42 690.56,-142.11 680.31,-139.44 680.89,-146.42"/>
</g>
<!-- 2479389377648 -->
<g id="node9" class="node">
<title>2479389377648</title>
<polygon fill="none" stroke="black" points="1110.5,-204 945.25,-204 945.25,-168 1110.5,-168 1110.5,-204"/>
<text text-anchor="middle" x="1027.88" y="-180.97" font-family="Times New Roman,serif" font-size="12.00">Post&#45;travel feedback or services</text>
</g>
<!-- 2479389380288&#45;&gt;2479389377648 -->
<g id="edge10" class="edge">
<title>2479389380288&#45;&gt;2479389377648</title>
<path fill="none" stroke="black" d="M732.3,-147.87C744.56,-154.21 762.91,-162.75 780,-167 829.81,-179.39 886.86,-184.35 933.57,-186.13"/>
<polygon fill="black" stroke="black" points="933.28,-189.62 943.39,-186.45 933.51,-182.62 933.28,-189.62"/>
</g>
<!-- 2479389387296 -->
<g id="node10" class="node">
<title>2479389387296</title>
<polygon fill="none" stroke="black" points="909.25,-158 780,-158 780,-122 909.25,-122 909.25,-158"/>
<text text-anchor="middle" x="844.62" y="-134.97" font-family="Times New Roman,serif" font-size="12.00">Provide payment details</text>
</g>
<!-- 2479389380288&#45;&gt;2479389387296 -->
<g id="edge11" class="edge">
<title>2479389380288&#45;&gt;2479389387296</title>
<path fill="none" stroke="black" d="M744.64,-140C751.72,-140 759.73,-140 768.06,-140"/>
<polygon fill="black" stroke="black" points="768.03,-143.5 778.03,-140 768.03,-136.5 768.03,-143.5"/>
</g>
<!-- 2479389389600 -->
<g id="node11" class="node">
<title>2479389389600</title>
<polygon fill="none" stroke="black" points="899.88,-104 789.38,-104 789.38,-68 899.88,-68 899.88,-104"/>
<text text-anchor="middle" x="844.62" y="-80.97" font-family="Times New Roman,serif" font-size="12.00">Select date and time</text>
</g>
<!-- 2479389380288&#45;&gt;2479389389600 -->
<g id="edge9" class="edge">
<title>2479389380288&#45;&gt;2479389389600</title>
<path fill="none" stroke="black" d="M734.04,-132.97C746.55,-127.49 764.36,-119.72 780,-113 783.15,-111.65 786.39,-110.26 789.66,-108.86"/>
<polygon fill="black" stroke="black" points="790.92,-112.13 798.74,-104.98 788.17,-105.69 790.92,-112.13"/>
</g>
<!-- 2479389390704 -->
<g id="node12" class="node">
<title>2479389390704</title>
<polygon fill="none" stroke="black" points="880.38,-50 808.88,-50 808.88,-14 880.38,-14 880.38,-50"/>
<text text-anchor="middle" x="844.62" y="-26.98" font-family="Times New Roman,serif" font-size="12.00">Select route</text>
</g>
<!-- 2479389380288&#45;&gt;2479389390704 -->
<g id="edge12" class="edge">
<title>2479389380288&#45;&gt;2479389390704</title>
<path fill="none" stroke="black" d="M724.99,-127.11C735.07,-109.57 755.23,-78.2 780,-59 785.54,-54.71 791.86,-50.97 798.32,-47.75"/>
<polygon fill="black" stroke="black" points="799.47,-51.08 807.12,-43.75 796.57,-44.7 799.47,-51.08"/>
</g>
<!-- 2479389377648&#45;&gt;2479389385376 -->
<g id="edge13" class="edge">
<title>2479389377648&#45;&gt;2479389385376</title>
<path fill="none" stroke="black" d="M1110.91,-189.73C1163.69,-191.82 1233.75,-194 1295.75,-194 1295.75,-194 1295.75,-194 1570.38,-194 1670.62,-194 1697.78,-196.43 1794.75,-171 1807.36,-167.69 1820.69,-162.18 1831.74,-156.99"/>
<polygon fill="black" stroke="black" points="1833.13,-160.21 1840.57,-152.67 1830.05,-153.92 1833.13,-160.21"/>
</g>
<!-- 2479389379808 -->
<g id="node13" class="node">
<title>2479389379808</title>
<polygon fill="none" stroke="black" points="1027.88,-101 1000.88,-83 1027.88,-65 1054.88,-83 1027.88,-101"/>
<text text-anchor="middle" x="1027.88" y="-77.97" font-family="Times New Roman,serif" font-size="12.00">+</text>
</g>
<!-- 2479389387296&#45;&gt;2479389379808 -->
<g id="edge14" class="edge">
<title>2479389387296&#45;&gt;2479389379808</title>
<path fill="none" stroke="black" d="M904.22,-121.57C935.47,-111.74 972.55,-100.08 997.7,-92.17"/>
<polygon fill="black" stroke="black" points="998.75,-95.51 1007.24,-89.18 996.65,-88.84 998.75,-95.51"/>
</g>
<!-- 2479389389600&#45;&gt;2479389379808 -->
<g id="edge15" class="edge">
<title>2479389389600&#45;&gt;2479389379808</title>
<path fill="none" stroke="black" d="M900.01,-85.1C928.94,-84.62 963.78,-84.04 989.62,-83.62"/>
<polygon fill="black" stroke="black" points="989.36,-87.12 999.3,-83.46 989.24,-80.12 989.36,-87.12"/>
</g>
<!-- 2479389390704&#45;&gt;2479389379808 -->
<g id="edge16" class="edge">
<title>2479389390704&#45;&gt;2479389379808</title>
<path fill="none" stroke="black" d="M880.57,-41.83C914.47,-51.37 965.34,-65.68 997.29,-74.68"/>
<polygon fill="black" stroke="black" points="996.11,-77.98 1006.68,-77.32 998,-71.24 996.11,-77.98"/>
</g>
<!-- 2479389389888 -->
<g id="node14" class="node">
<title>2479389389888</title>
<polygon fill="none" stroke="black" points="1233.75,-90 1146.5,-90 1146.5,-54 1233.75,-54 1233.75,-90"/>
<text text-anchor="middle" x="1190.12" y="-66.97" font-family="Times New Roman,serif" font-size="12.00">Generate ticket</text>
</g>
<!-- 2479389379808&#45;&gt;2479389389888 -->
<g id="edge17" class="edge">
<title>2479389379808&#45;&gt;2479389389888</title>
<path fill="none" stroke="black" d="M1053.21,-81.33C1074.84,-79.84 1107.22,-77.62 1134.96,-75.72"/>
<polygon fill="black" stroke="black" points="1134.87,-79.23 1144.61,-75.06 1134.39,-72.25 1134.87,-79.23"/>
</g>
<!-- 2479389377360 -->
<g id="node15" class="node">
<title>2479389377360</title>
<polygon fill="none" stroke="black" points="1296.75,-85 1269.75,-67 1296.75,-49 1323.75,-67 1296.75,-85"/>
<text text-anchor="middle" x="1296.75" y="-61.98" font-family="Times New Roman,serif" font-size="12.00">+</text>
</g>
<!-- 2479389389888&#45;&gt;2479389377360 -->
<g id="edge18" class="edge">
<title>2479389389888&#45;&gt;2479389377360</title>
<path fill="none" stroke="black" d="M1233.98,-69.95C1242.4,-69.55 1251.15,-69.13 1259.34,-68.74"/>
<polygon fill="black" stroke="black" points="1259.47,-72.24 1269.3,-68.26 1259.14,-65.25 1259.47,-72.24"/>
</g>
<!-- 2479389391040 -->
<g id="node16" class="node">
<title>2479389391040</title>
<polygon fill="none" stroke="black" points="1408.25,-128 1381.25,-110 1408.25,-92 1435.25,-110 1408.25,-128"/>
<text text-anchor="middle" x="1408.25" y="-104.97" font-family="Times New Roman,serif" font-size="12.00">X</text>
</g>
<!-- 2479389377360&#45;&gt;2479389391040 -->
<g id="edge19" class="edge">
<title>2479389377360&#45;&gt;2479389391040</title>
<path fill="none" stroke="black" d="M1314.38,-73.53C1331.75,-80.35 1359.27,-91.16 1379.85,-99.24"/>
<polygon fill="black" stroke="black" points="1378.47,-102.46 1389.05,-102.85 1381.03,-95.94 1378.47,-102.46"/>
</g>
<!-- 2479389384848 -->
<g id="node17" class="node">
<title>2479389384848</title>
<polygon fill="none" stroke="black" points="1794.75,-101 1682,-101 1682,-65 1794.75,-65 1794.75,-101"/>
<text text-anchor="middle" x="1738.38" y="-77.97" font-family="Times New Roman,serif" font-size="12.00">Send ticket via SMS</text>
</g>
<!-- 2479389377360&#45;&gt;2479389384848 -->
<g id="edge20" class="edge">
<title>2479389377360&#45;&gt;2479389384848</title>
<path fill="none" stroke="black" d="M1322.97,-67.92C1389.39,-70.34 1570.9,-76.94 1670.23,-80.56"/>
<polygon fill="black" stroke="black" points="1670,-84.05 1680.12,-80.92 1670.25,-77.05 1670,-84.05"/>
</g>
<!-- 2479389378128 -->
<g id="node18" class="node">
<title>2479389378128</title>
<polygon fill="none" stroke="black" points="1456.75,-36 1359.75,-36 1359.75,0 1456.75,0 1456.75,-36"/>
<text text-anchor="middle" x="1408.25" y="-12.97" font-family="Times New Roman,serif" font-size="12.00">Send instructions</text>
</g>
<!-- 2479389377360&#45;&gt;2479389378128 -->
<g id="edge21" class="edge">
<title>2479389377360&#45;&gt;2479389378128</title>
<path fill="none" stroke="black" d="M1313.44,-59.98C1324.59,-54.99 1340.24,-47.99 1355.57,-41.12"/>
<polygon fill="black" stroke="black" points="1357,-44.32 1364.7,-37.04 1354.14,-37.93 1357,-44.32"/>
</g>
<!-- 2479389380912 -->
<g id="node19" class="node">
<title>2479389380912</title>
<polygon fill="none" stroke="black" points="1738.38,-162 1711.38,-144 1738.38,-126 1765.38,-144 1738.38,-162"/>
<text text-anchor="middle" x="1738.38" y="-138.97" font-family="Times New Roman,serif" font-size="12.00">X</text>
</g>
<!-- 2479389391040&#45;&gt;2479389380912 -->
<g id="edge23" class="edge">
<title>2479389391040&#45;&gt;2479389380912</title>
<path fill="none" stroke="black" d="M1425.54,-116.8C1442.12,-123.35 1468.73,-132.86 1492.75,-137 1566.09,-149.64 1653.59,-148.26 1701.54,-146.13"/>
<polygon fill="black" stroke="black" points="1701.51,-149.63 1711.33,-145.65 1701.17,-142.64 1701.51,-149.63"/>
</g>
<!-- 2479389384800 -->
<g id="node21" class="node">
<title>2479389384800</title>
<polygon fill="none" stroke="black" points="1626.5,-128 1512.25,-128 1512.25,-92 1626.5,-92 1626.5,-128"/>
<text text-anchor="middle" x="1569.38" y="-104.97" font-family="Times New Roman,serif" font-size="12.00">Send ticket via email</text>
</g>
<!-- 2479389391040&#45;&gt;2479389384800 -->
<g id="edge24" class="edge">
<title>2479389391040&#45;&gt;2479389384800</title>
<path fill="none" stroke="black" d="M1435.88,-110C1453.59,-110 1477.71,-110 1500.51,-110"/>
<polygon fill="black" stroke="black" points="1500.41,-113.5 1510.41,-110 1500.41,-106.5 1500.41,-113.5"/>
</g>
<!-- 2479389384848&#45;&gt;2479389385376 -->
<g id="edge22" class="edge">
<title>2479389384848&#45;&gt;2479389385376</title>
<path fill="none" stroke="black" d="M1774.91,-101.47C1793.29,-111.02 1815.27,-122.44 1831.82,-131.04"/>
<polygon fill="black" stroke="black" points="1829.99,-134.04 1840.48,-135.54 1833.22,-127.83 1829.99,-134.04"/>
</g>
<!-- 2479389391952 -->
<g id="node20" class="node">
<title>2479389391952</title>
<polygon fill="none" stroke="black" points="1646,-36 1492.75,-36 1492.75,0 1646,0 1646,-36"/>
<text text-anchor="middle" x="1569.38" y="-12.97" font-family="Times New Roman,serif" font-size="12.00">Provide personal information</text>
</g>
<!-- 2479389378128&#45;&gt;2479389391952 -->
<g id="edge25" class="edge">
<title>2479389378128&#45;&gt;2479389391952</title>
<path fill="none" stroke="black" d="M1456.99,-18C1464.67,-18 1472.82,-18 1481.09,-18"/>
<polygon fill="black" stroke="black" points="1480.88,-21.5 1490.88,-18 1480.88,-14.5 1480.88,-21.5"/>
</g>
<!-- 2479389380912&#45;&gt;2479389385376 -->
<g id="edge26" class="edge">
<title>2479389380912&#45;&gt;2479389385376</title>
<path fill="none" stroke="black" d="M1766.01,-144C1781.62,-144 1801.59,-144 1818.82,-144"/>
<polygon fill="black" stroke="black" points="1818.71,-147.5 1828.71,-144 1818.71,-140.5 1818.71,-147.5"/>
</g>
<!-- 2479389391952&#45;&gt;2479389385376 -->
<g id="edge27" class="edge">
<title>2479389391952&#45;&gt;2479389385376</title>
<path fill="none" stroke="black" d="M1646.25,-16.54C1692.36,-18.96 1750.63,-28.19 1794.75,-56 1818.76,-71.13 1836.1,-99.28 1846.24,-119.68"/>
<polygon fill="black" stroke="black" points="1843.06,-121.15 1850.48,-128.71 1849.4,-118.17 1843.06,-121.15"/>
</g>
<!-- 2479389384800&#45;&gt;2479389380912 -->
<g id="edge28" class="edge">
<title>2479389384800&#45;&gt;2479389380912</title>
<path fill="none" stroke="black" d="M1626.91,-121.51C1653.22,-126.87 1683.53,-133.04 1705.74,-137.56"/>
<polygon fill="black" stroke="black" points="1704.88,-140.96 1715.37,-139.52 1706.27,-134.1 1704.88,-140.96"/>
</g>
</g>
</svg>
