<?xml version="1.0" encoding="UTF-8" standalone="no"?>
<!DOCTYPE svg PUBLIC "-//W3C//DTD SVG 1.1//EN"
 "http://www.w3.org/Graphics/SVG/1.1/DTD/svg11.dtd">
<!-- Generated by graphviz version 11.0.0 (20240428.1522)
 -->
<!-- Pages: 1 -->
<svg width="2520pt" height="223pt"
 viewBox="0.00 0.00 2519.75 223.00" xmlns="http://www.w3.org/2000/svg" xmlns:xlink="http://www.w3.org/1999/xlink">
<g id="graph0" class="graph" transform="scale(1 1) rotate(0) translate(4 219)">
<polygon fill="white" stroke="none" points="-4,4 -4,-219 2515.75,-219 2515.75,4 -4,4"/>
<!-- 2479387873152 -->
<g id="node1" class="node">
<title>2479387873152</title>
<ellipse fill="green" stroke="black" cx="18" cy="-99" rx="18" ry="18"/>
</g>
<!-- 2479387880544 -->
<g id="node2" class="node">
<title>2479387880544</title>
<polygon fill="none" stroke="black" points="223,-117 72,-117 72,-81 223,-81 223,-117"/>
<text text-anchor="middle" x="147.5" y="-93.97" font-family="Times New Roman,serif" font-size="12.00">Customer completes journey</text>
</g>
<!-- 2479387873152&#45;&gt;2479387880544 -->
<g id="edge1" class="edge">
<title>2479387873152&#45;&gt;2479387880544</title>
<path fill="none" stroke="black" d="M36.46,-99C43.25,-99 51.56,-99 60.54,-99"/>
<polygon fill="black" stroke="black" points="60.25,-102.5 70.25,-99 60.25,-95.5 60.25,-102.5"/>
</g>
<!-- 2479387883040 -->
<g id="node3" class="node">
<title>2479387883040</title>
<polygon fill="none" stroke="black" points="344,-117 259,-117 259,-81 344,-81 344,-117"/>
<text text-anchor="middle" x="301.5" y="-93.97" font-family="Times New Roman,serif" font-size="12.00">Send reminder</text>
</g>
<!-- 2479387880544&#45;&gt;2479387883040 -->
<g id="edge2" class="edge">
<title>2479387880544&#45;&gt;2479387883040</title>
<path fill="none" stroke="black" d="M223.16,-99C231.24,-99 239.34,-99 247.09,-99"/>
<polygon fill="black" stroke="black" points="247.03,-102.5 257.03,-99 247.03,-95.5 247.03,-102.5"/>
</g>
<!-- 2479387869456 -->
<g id="node4" class="node">
<title>2479387869456</title>
<polygon fill="none" stroke="black" points="529.5,-117 380,-117 380,-81 529.5,-81 529.5,-117"/>
<text text-anchor="middle" x="454.75" y="-93.97" font-family="Times New Roman,serif" font-size="12.00">Customer searches for ticket</text>
</g>
<!-- 2479387883040&#45;&gt;2479387869456 -->
<g id="edge3" class="edge">
<title>2479387883040&#45;&gt;2479387869456</title>
<path fill="none" stroke="black" d="M344.23,-99C351.8,-99 359.95,-99 368.26,-99"/>
<polygon fill="black" stroke="black" points="368.14,-102.5 378.14,-99 368.14,-95.5 368.14,-102.5"/>
</g>
<!-- 2479387878288 -->
<g id="node5" class="node">
<title>2479387878288</title>
<polygon fill="none" stroke="black" points="592.5,-117 565.5,-99 592.5,-81 619.5,-99 592.5,-117"/>
<text text-anchor="middle" x="592.5" y="-93.97" font-family="Times New Roman,serif" font-size="12.00">+</text>
</g>
<!-- 2479387869456&#45;&gt;2479387878288 -->
<g id="edge4" class="edge">
<title>2479387869456&#45;&gt;2479387878288</title>
<path fill="none" stroke="black" d="M529.98,-99C538.01,-99 545.92,-99 553.25,-99"/>
<polygon fill="black" stroke="black" points="553.09,-102.5 563.09,-99 553.09,-95.5 553.09,-102.5"/>
</g>
<!-- 2479387883376 -->
<g id="node6" class="node">
<title>2479387883376</title>
<polygon fill="none" stroke="black" points="775,-144 655.5,-144 655.5,-108 775,-108 775,-144"/>
<text text-anchor="middle" x="715.25" y="-120.97" font-family="Times New Roman,serif" font-size="12.00">Update seat inventory</text>
</g>
<!-- 2479387878288&#45;&gt;2479387883376 -->
<g id="edge6" class="edge">
<title>2479387878288&#45;&gt;2479387883376</title>
<path fill="none" stroke="black" d="M613.44,-103.46C622.17,-105.41 632.99,-107.83 644.27,-110.35"/>
<polygon fill="black" stroke="black" points="643.17,-113.69 653.69,-112.46 644.7,-106.86 643.17,-113.69"/>
</g>
<!-- 2479387883712 -->
<g id="node7" class="node">
<title>2479387883712</title>
<polygon fill="none" stroke="black" points="758.88,-90 671.62,-90 671.62,-54 758.88,-54 758.88,-90"/>
<text text-anchor="middle" x="715.25" y="-66.97" font-family="Times New Roman,serif" font-size="12.00">Generate ticket</text>
</g>
<!-- 2479387878288&#45;&gt;2479387883712 -->
<g id="edge5" class="edge">
<title>2479387878288&#45;&gt;2479387883712</title>
<path fill="none" stroke="black" d="M613.44,-94.54C626.3,-91.67 643.68,-87.78 660.4,-84.04"/>
<polygon fill="black" stroke="black" points="660.75,-87.55 669.75,-81.95 659.23,-80.72 660.75,-87.55"/>
</g>
<!-- 2479387882800 -->
<g id="node8" class="node">
<title>2479387882800</title>
<polygon fill="none" stroke="black" points="838,-144 811,-126 838,-108 865,-126 838,-144"/>
<text text-anchor="middle" x="838" y="-120.97" font-family="Times New Roman,serif" font-size="12.00">+</text>
</g>
<!-- 2479387883376&#45;&gt;2479387882800 -->
<g id="edge7" class="edge">
<title>2479387883376&#45;&gt;2479387882800</title>
<path fill="none" stroke="black" d="M775.21,-126C783.3,-126 791.43,-126 799.01,-126"/>
<polygon fill="black" stroke="black" points="798.87,-129.5 808.87,-126 798.87,-122.5 798.87,-129.5"/>
</g>
<!-- 2479387883136 -->
<g id="node9" class="node">
<title>2479387883136</title>
<polygon fill="none" stroke="black" points="838,-90 811,-72 838,-54 865,-72 838,-90"/>
<text text-anchor="middle" x="838" y="-66.97" font-family="Times New Roman,serif" font-size="12.00">+</text>
</g>
<!-- 2479387883712&#45;&gt;2479387883136 -->
<g id="edge8" class="edge">
<title>2479387883712&#45;&gt;2479387883136</title>
<path fill="none" stroke="black" d="M759.16,-72C772.24,-72 786.52,-72 799.23,-72"/>
<polygon fill="black" stroke="black" points="798.87,-75.5 808.87,-72 798.87,-68.5 798.87,-75.5"/>
</g>
<!-- 2479387879536 -->
<g id="node10" class="node">
<title>2479387879536</title>
<polygon fill="none" stroke="black" points="928,-144 901,-126 928,-108 955,-126 928,-144"/>
<text text-anchor="middle" x="928" y="-120.97" font-family="Times New Roman,serif" font-size="12.00">+</text>
</g>
<!-- 2479387882800&#45;&gt;2479387879536 -->
<g id="edge12" class="edge">
<title>2479387882800&#45;&gt;2479387879536</title>
<path fill="none" stroke="black" d="M865.88,-126C873.13,-126 881.12,-126 888.85,-126"/>
<polygon fill="black" stroke="black" points="888.77,-129.5 898.77,-126 888.77,-122.5 888.77,-129.5"/>
</g>
<!-- 2479387880688 -->
<g id="node11" class="node">
<title>2479387880688</title>
<polygon fill="none" stroke="black" points="928,-90 901,-72 928,-54 955,-72 928,-90"/>
<text text-anchor="middle" x="928" y="-66.97" font-family="Times New Roman,serif" font-size="12.00">+</text>
</g>
<!-- 2479387882800&#45;&gt;2479387880688 -->
<g id="edge9" class="edge">
<title>2479387882800&#45;&gt;2479387880688</title>
<path fill="none" stroke="black" d="M852.75,-117.56C866.36,-109.21 887.46,-96.27 903.69,-86.3"/>
<polygon fill="black" stroke="black" points="905.07,-89.56 911.77,-81.35 901.41,-83.6 905.07,-89.56"/>
</g>
<!-- 2479387880832 -->
<g id="node12" class="node">
<title>2479387880832</title>
<polygon fill="none" stroke="black" points="928,-198 901,-180 928,-162 955,-180 928,-198"/>
<text text-anchor="middle" x="928" y="-174.97" font-family="Times New Roman,serif" font-size="12.00">+</text>
</g>
<!-- 2479387882800&#45;&gt;2479387880832 -->
<g id="edge10" class="edge">
<title>2479387882800&#45;&gt;2479387880832</title>
<path fill="none" stroke="black" d="M852.75,-134.44C866.36,-142.79 887.46,-155.73 903.69,-165.7"/>
<polygon fill="black" stroke="black" points="901.41,-168.4 911.77,-170.65 905.07,-162.44 901.41,-168.4"/>
</g>
<!-- 2479387881264 -->
<g id="node13" class="node">
<title>2479387881264</title>
<polygon fill="none" stroke="black" points="928,-36 901,-18 928,0 955,-18 928,-36"/>
<text text-anchor="middle" x="928" y="-12.98" font-family="Times New Roman,serif" font-size="12.00">+</text>
</g>
<!-- 2479387882800&#45;&gt;2479387881264 -->
<g id="edge11" class="edge">
<title>2479387882800&#45;&gt;2479387881264</title>
<path fill="none" stroke="black" d="M849.83,-115.63C854.69,-110.77 860.35,-104.78 865,-99 883.08,-76.52 882.92,-67.48 901,-45 903.25,-42.2 905.74,-39.35 908.26,-36.61"/>
<polygon fill="black" stroke="black" points="910.72,-39.1 915.12,-29.46 905.67,-34.25 910.72,-39.1"/>
</g>
<!-- 2479387883136&#45;&gt;2479387879536 -->
<g id="edge14" class="edge">
<title>2479387883136&#45;&gt;2479387879536</title>
<path fill="none" stroke="black" d="M852.75,-80.44C866.36,-88.79 887.46,-101.73 903.69,-111.7"/>
<polygon fill="black" stroke="black" points="901.41,-114.4 911.77,-116.65 905.07,-108.44 901.41,-114.4"/>
</g>
<!-- 2479387883136&#45;&gt;2479387880688 -->
<g id="edge13" class="edge">
<title>2479387883136&#45;&gt;2479387880688</title>
<path fill="none" stroke="black" d="M865.88,-72C873.13,-72 881.12,-72 888.85,-72"/>
<polygon fill="black" stroke="black" points="888.77,-75.5 898.77,-72 888.77,-68.5 888.77,-75.5"/>
</g>
<!-- 2479387883136&#45;&gt;2479387880832 -->
<g id="edge16" class="edge">
<title>2479387883136&#45;&gt;2479387880832</title>
<path fill="none" stroke="black" d="M849.83,-82.37C854.69,-87.23 860.35,-93.22 865,-99 883.08,-121.48 882.92,-130.52 901,-153 903.25,-155.8 905.74,-158.65 908.26,-161.39"/>
<polygon fill="black" stroke="black" points="905.67,-163.75 915.12,-168.54 910.72,-158.9 905.67,-163.75"/>
</g>
<!-- 2479387883136&#45;&gt;2479387881264 -->
<g id="edge15" class="edge">
<title>2479387883136&#45;&gt;2479387881264</title>
<path fill="none" stroke="black" d="M852.75,-63.56C866.36,-55.21 887.46,-42.27 903.69,-32.3"/>
<polygon fill="black" stroke="black" points="905.07,-35.56 911.77,-27.35 901.41,-29.6 905.07,-35.56"/>
</g>
<!-- 2479387879776 -->
<g id="node15" class="node">
<title>2479387879776</title>
<polygon fill="none" stroke="black" points="1091.38,-144 1019.88,-144 1019.88,-108 1091.38,-108 1091.38,-144"/>
<text text-anchor="middle" x="1055.62" y="-120.97" font-family="Times New Roman,serif" font-size="12.00">Select route</text>
</g>
<!-- 2479387879536&#45;&gt;2479387879776 -->
<g id="edge17" class="edge">
<title>2479387879536&#45;&gt;2479387879776</title>
<path fill="none" stroke="black" d="M955.64,-126C970.88,-126 990.44,-126 1008.14,-126"/>
<polygon fill="black" stroke="black" points="1007.92,-129.5 1017.92,-126 1007.92,-122.5 1007.92,-129.5"/>
</g>
<!-- 2479387880112 -->
<g id="node16" class="node">
<title>2479387880112</title>
<polygon fill="none" stroke="black" points="1110.88,-90 1000.38,-90 1000.38,-54 1110.88,-54 1110.88,-90"/>
<text text-anchor="middle" x="1055.62" y="-66.97" font-family="Times New Roman,serif" font-size="12.00">Select date and time</text>
</g>
<!-- 2479387880688&#45;&gt;2479387880112 -->
<g id="edge18" class="edge">
<title>2479387880688&#45;&gt;2479387880112</title>
<path fill="none" stroke="black" d="M955.64,-72C965.47,-72 977.08,-72 988.84,-72"/>
<polygon fill="black" stroke="black" points="988.58,-75.5 998.58,-72 988.58,-68.5 988.58,-75.5"/>
</g>
<!-- 2479387879008 -->
<g id="node14" class="node">
<title>2479387879008</title>
<polygon fill="none" stroke="black" points="1055.62,-198 1028.62,-180 1055.62,-162 1082.62,-180 1055.62,-198"/>
<text text-anchor="middle" x="1055.62" y="-174.97" font-family="Times New Roman,serif" font-size="12.00">X</text>
</g>
<!-- 2479387880832&#45;&gt;2479387879008 -->
<g id="edge19" class="edge">
<title>2479387880832&#45;&gt;2479387879008</title>
<path fill="none" stroke="black" d="M955.64,-180C973.38,-180 996.96,-180 1016.65,-180"/>
<polygon fill="black" stroke="black" points="1016.51,-183.5 1026.51,-180 1016.51,-176.5 1016.51,-183.5"/>
</g>
<!-- 2479387881552 -->
<g id="node17" class="node">
<title>2479387881552</title>
<polygon fill="none" stroke="black" points="1120.25,-36 991,-36 991,0 1120.25,0 1120.25,-36"/>
<text text-anchor="middle" x="1055.62" y="-12.98" font-family="Times New Roman,serif" font-size="12.00">Provide payment details</text>
</g>
<!-- 2479387881264&#45;&gt;2479387881552 -->
<g id="edge20" class="edge">
<title>2479387881264&#45;&gt;2479387881552</title>
<path fill="none" stroke="black" d="M955.64,-18C962.72,-18 970.73,-18 979.06,-18"/>
<polygon fill="black" stroke="black" points="979.03,-21.5 989.03,-18 979.03,-14.5 979.03,-21.5"/>
</g>
<!-- 2479387879344 -->
<g id="node18" class="node">
<title>2479387879344</title>
<polygon fill="none" stroke="black" points="1384.5,-215 1357.5,-197 1384.5,-179 1411.5,-197 1384.5,-215"/>
<text text-anchor="middle" x="1384.5" y="-191.97" font-family="Times New Roman,serif" font-size="12.00">X</text>
</g>
<!-- 2479387879008&#45;&gt;2479387879344 -->
<g id="edge21" class="edge">
<title>2479387879008&#45;&gt;2479387879344</title>
<path fill="none" stroke="black" d="M1073.97,-186.21C1093.63,-192.89 1126.76,-203.08 1156.25,-207 1229.05,-216.69 1248.29,-212.87 1321.5,-207 1331.39,-206.21 1342.08,-204.71 1351.76,-203.12"/>
<polygon fill="black" stroke="black" points="1352.2,-206.6 1361.44,-201.42 1350.99,-199.7 1352.2,-206.6"/>
</g>
<!-- 2479387881984 -->
<g id="node22" class="node">
<title>2479387881984</title>
<polygon fill="none" stroke="black" points="1321.5,-198 1156.25,-198 1156.25,-162 1321.5,-162 1321.5,-198"/>
<text text-anchor="middle" x="1238.88" y="-174.97" font-family="Times New Roman,serif" font-size="12.00">Post&#45;travel feedback or services</text>
</g>
<!-- 2479387879008&#45;&gt;2479387881984 -->
<g id="edge22" class="edge">
<title>2479387879008&#45;&gt;2479387881984</title>
<path fill="none" stroke="black" d="M1083.37,-180C1099.88,-180 1122.15,-180 1144.63,-180"/>
<polygon fill="black" stroke="black" points="1144.5,-183.5 1154.5,-180 1144.5,-176.5 1144.5,-183.5"/>
</g>
<!-- 2479387884864 -->
<g id="node19" class="node">
<title>2479387884864</title>
<polygon fill="none" stroke="black" points="1238.88,-144 1211.88,-126 1238.88,-108 1265.88,-126 1238.88,-144"/>
<text text-anchor="middle" x="1238.88" y="-120.97" font-family="Times New Roman,serif" font-size="12.00">+</text>
</g>
<!-- 2479387879776&#45;&gt;2479387884864 -->
<g id="edge23" class="edge">
<title>2479387879776&#45;&gt;2479387884864</title>
<path fill="none" stroke="black" d="M1091.57,-126C1122.63,-126 1167.93,-126 1199.88,-126"/>
<polygon fill="black" stroke="black" points="1199.48,-129.5 1209.48,-126 1199.48,-122.5 1199.48,-129.5"/>
</g>
<!-- 2479387879488 -->
<g id="node20" class="node">
<title>2479387879488</title>
<polygon fill="none" stroke="black" points="1238.88,-90 1211.88,-72 1238.88,-54 1265.88,-72 1238.88,-90"/>
<text text-anchor="middle" x="1238.88" y="-66.97" font-family="Times New Roman,serif" font-size="12.00">+</text>
</g>
<!-- 2479387880112&#45;&gt;2479387879488 -->
<g id="edge24" class="edge">
<title>2479387880112&#45;&gt;2479387879488</title>
<path fill="none" stroke="black" d="M1111.01,-72C1139.76,-72 1174.35,-72 1200.14,-72"/>
<polygon fill="black" stroke="black" points="1199.8,-75.5 1209.8,-72 1199.8,-68.5 1199.8,-75.5"/>
</g>
<!-- 2479387880880 -->
<g id="node21" class="node">
<title>2479387880880</title>
<polygon fill="none" stroke="black" points="1238.88,-36 1211.88,-18 1238.88,0 1265.88,-18 1238.88,-36"/>
<text text-anchor="middle" x="1238.88" y="-12.98" font-family="Times New Roman,serif" font-size="12.00">+</text>
</g>
<!-- 2479387881552&#45;&gt;2479387880880 -->
<g id="edge25" class="edge">
<title>2479387881552&#45;&gt;2479387880880</title>
<path fill="none" stroke="black" d="M1120.53,-18C1147.09,-18 1177.01,-18 1199.99,-18"/>
<polygon fill="black" stroke="black" points="1199.8,-21.5 1209.8,-18 1199.8,-14.5 1199.8,-21.5"/>
</g>
<!-- 2479387880496 -->
<g id="node25" class="node">
<title>2479387880496</title>
<polygon fill="none" stroke="black" points="2412.75,-192 2385.75,-174 2412.75,-156 2439.75,-174 2412.75,-192"/>
<text text-anchor="middle" x="2412.75" y="-168.97" font-family="Times New Roman,serif" font-size="12.00">+</text>
</g>
<!-- 2479387879344&#45;&gt;2479387880496 -->
<g id="edge27" class="edge">
<title>2479387879344&#45;&gt;2479387880496</title>
<path fill="none" stroke="black" d="M1412.34,-197C1451.87,-197 1528.07,-197 1592.88,-197 1592.88,-197 1592.88,-197 2203.62,-197 2266.32,-197 2339.01,-186.56 2379.76,-179.75"/>
<polygon fill="black" stroke="black" points="2380.1,-183.24 2389.37,-178.1 2378.92,-176.34 2380.1,-183.24"/>
</g>
<!-- 2479387880256 -->
<g id="node23" class="node">
<title>2479387880256</title>
<polygon fill="none" stroke="black" points="1384.5,-73 1357.5,-55 1384.5,-37 1411.5,-55 1384.5,-73"/>
<text text-anchor="middle" x="1384.5" y="-49.98" font-family="Times New Roman,serif" font-size="12.00">+</text>
</g>
<!-- 2479387884864&#45;&gt;2479387880256 -->
<g id="edge28" class="edge">
<title>2479387884864&#45;&gt;2479387880256</title>
<path fill="none" stroke="black" d="M1259.32,-121.32C1276.28,-116.84 1301.26,-109.24 1321.5,-99 1336.22,-91.55 1351.35,-80.89 1362.98,-71.92"/>
<polygon fill="black" stroke="black" points="1364.99,-74.8 1370.65,-65.84 1360.64,-69.31 1364.99,-74.8"/>
</g>
<!-- 2479387881072 -->
<g id="node24" class="node">
<title>2479387881072</title>
<polygon fill="none" stroke="black" points="1384.5,-127 1357.5,-109 1384.5,-91 1411.5,-109 1384.5,-127"/>
<text text-anchor="middle" x="1384.5" y="-103.97" font-family="Times New Roman,serif" font-size="12.00">+</text>
</g>
<!-- 2479387884864&#45;&gt;2479387881072 -->
<g id="edge29" class="edge">
<title>2479387884864&#45;&gt;2479387881072</title>
<path fill="none" stroke="black" d="M1262.63,-123.31C1286.06,-120.53 1322.83,-116.18 1349.66,-113.01"/>
<polygon fill="black" stroke="black" points="1349.83,-116.51 1359.35,-111.86 1349,-109.56 1349.83,-116.51"/>
</g>
<!-- 2479387879488&#45;&gt;2479387880256 -->
<g id="edge31" class="edge">
<title>2479387879488&#45;&gt;2479387880256</title>
<path fill="none" stroke="black" d="M1262.63,-69.31C1286.06,-66.53 1322.83,-62.18 1349.66,-59.01"/>
<polygon fill="black" stroke="black" points="1349.83,-62.51 1359.35,-57.86 1349,-55.56 1349.83,-62.51"/>
</g>
<!-- 2479387879488&#45;&gt;2479387881072 -->
<g id="edge30" class="edge">
<title>2479387879488&#45;&gt;2479387881072</title>
<path fill="none" stroke="black" d="M1259.24,-76.99C1283.47,-83.23 1325.21,-93.98 1353.56,-101.29"/>
<polygon fill="black" stroke="black" points="1352.41,-104.61 1362.97,-103.71 1354.16,-97.83 1352.41,-104.61"/>
</g>
<!-- 2479387880880&#45;&gt;2479387880256 -->
<g id="edge33" class="edge">
<title>2479387880880&#45;&gt;2479387880256</title>
<path fill="none" stroke="black" d="M1259.24,-22.99C1283.47,-29.23 1325.21,-39.98 1353.56,-47.29"/>
<polygon fill="black" stroke="black" points="1352.41,-50.61 1362.97,-49.71 1354.16,-43.83 1352.41,-50.61"/>
</g>
<!-- 2479387880880&#45;&gt;2479387881072 -->
<g id="edge32" class="edge">
<title>2479387880880&#45;&gt;2479387881072</title>
<path fill="none" stroke="black" d="M1260.51,-21.93C1277.77,-25.88 1302.53,-33.1 1321.5,-45 1322.17,-45.42 1347.17,-71.3 1365.22,-90.02"/>
<polygon fill="black" stroke="black" points="1362.63,-92.38 1372.09,-97.15 1367.67,-87.52 1362.63,-92.38"/>
</g>
<!-- 2479387881984&#45;&gt;2479387879344 -->
<g id="edge26" class="edge">
<title>2479387881984&#45;&gt;2479387879344</title>
<path fill="none" stroke="black" d="M1321.76,-189.69C1331.52,-190.85 1341.03,-191.97 1349.54,-192.98"/>
<polygon fill="black" stroke="black" points="1349,-196.44 1359.34,-194.14 1349.82,-189.49 1349,-196.44"/>
</g>
<!-- 2479387869504 -->
<g id="node27" class="node">
<title>2479387869504</title>
<polygon fill="none" stroke="black" points="1474.5,-73 1447.5,-55 1474.5,-37 1501.5,-55 1474.5,-73"/>
<text text-anchor="middle" x="1474.5" y="-49.98" font-family="Times New Roman,serif" font-size="12.00">X</text>
</g>
<!-- 2479387880256&#45;&gt;2479387869504 -->
<g id="edge34" class="edge">
<title>2479387880256&#45;&gt;2479387869504</title>
<path fill="none" stroke="black" d="M1412.38,-55C1419.63,-55 1427.62,-55 1435.35,-55"/>
<polygon fill="black" stroke="black" points="1435.27,-58.5 1445.27,-55 1435.27,-51.5 1435.27,-58.5"/>
</g>
<!-- 2479387876848 -->
<g id="node26" class="node">
<title>2479387876848</title>
<polygon fill="none" stroke="black" points="1474.5,-127 1447.5,-109 1474.5,-91 1501.5,-109 1474.5,-127"/>
<text text-anchor="middle" x="1474.5" y="-103.97" font-family="Times New Roman,serif" font-size="12.00">X</text>
</g>
<!-- 2479387881072&#45;&gt;2479387876848 -->
<g id="edge35" class="edge">
<title>2479387881072&#45;&gt;2479387876848</title>
<path fill="none" stroke="black" d="M1412.38,-109C1419.63,-109 1427.62,-109 1435.35,-109"/>
<polygon fill="black" stroke="black" points="1435.27,-112.5 1445.27,-109 1435.27,-105.5 1435.27,-112.5"/>
</g>
<!-- 2479387874544 -->
<g id="node37" class="node">
<title>2479387874544</title>
<ellipse fill="orange" stroke="black" cx="2493.75" cy="-174" rx="18" ry="18"/>
</g>
<!-- 2479387880496&#45;&gt;2479387874544 -->
<g id="edge36" class="edge">
<title>2479387880496&#45;&gt;2479387874544</title>
<path fill="none" stroke="black" d="M2440.5,-174C2448.13,-174 2456.48,-174 2464.22,-174"/>
<polygon fill="black" stroke="black" points="2464.18,-177.5 2474.18,-174 2464.18,-170.5 2464.18,-177.5"/>
</g>
<!-- 2479387877040 -->
<g id="node28" class="node">
<title>2479387877040</title>
<polygon fill="none" stroke="black" points="1650.25,-169 1537.5,-169 1537.5,-133 1650.25,-133 1650.25,-169"/>
<text text-anchor="middle" x="1593.88" y="-145.97" font-family="Times New Roman,serif" font-size="12.00">Send ticket via SMS</text>
</g>
<!-- 2479387876848&#45;&gt;2479387877040 -->
<g id="edge37" class="edge">
<title>2479387876848&#45;&gt;2479387877040</title>
<path fill="none" stroke="black" d="M1492.82,-115.2C1503.08,-118.87 1516.78,-123.77 1530.75,-128.77"/>
<polygon fill="black" stroke="black" points="1529.4,-132 1539.99,-132.08 1531.76,-125.41 1529.4,-132"/>
</g>
<!-- 2479387882704 -->
<g id="node29" class="node">
<title>2479387882704</title>
<polygon fill="none" stroke="black" points="1642.38,-77 1545.38,-77 1545.38,-41 1642.38,-41 1642.38,-77"/>
<text text-anchor="middle" x="1593.88" y="-53.98" font-family="Times New Roman,serif" font-size="12.00">Send instructions</text>
</g>
<!-- 2479387869504&#45;&gt;2479387882704 -->
<g id="edge38" class="edge">
<title>2479387869504&#45;&gt;2479387882704</title>
<path fill="none" stroke="black" d="M1500.97,-55.87C1510.68,-56.2 1522.2,-56.59 1533.74,-56.98"/>
<polygon fill="black" stroke="black" points="1533.59,-60.48 1543.71,-57.32 1533.83,-53.49 1533.59,-60.48"/>
</g>
<!-- 2479387870944 -->
<g id="node30" class="node">
<title>2479387870944</title>
<polygon fill="none" stroke="black" points="1713.25,-129 1686.25,-111 1713.25,-93 1740.25,-111 1713.25,-129"/>
<text text-anchor="middle" x="1713.25" y="-105.97" font-family="Times New Roman,serif" font-size="12.00">X</text>
</g>
<!-- 2479387877040&#45;&gt;2479387870944 -->
<g id="edge39" class="edge">
<title>2479387877040&#45;&gt;2479387870944</title>
<path fill="none" stroke="black" d="M1649.1,-132.52C1661.18,-128.4 1673.52,-124.2 1684.05,-120.61"/>
<polygon fill="black" stroke="black" points="1684.9,-124.02 1693.23,-117.48 1682.64,-117.39 1684.9,-124.02"/>
</g>
<!-- 2479387879296 -->
<g id="node31" class="node">
<title>2479387879296</title>
<polygon fill="none" stroke="black" points="1713.25,-75 1686.25,-57 1713.25,-39 1740.25,-57 1713.25,-75"/>
<text text-anchor="middle" x="1713.25" y="-51.98" font-family="Times New Roman,serif" font-size="12.00">X</text>
</g>
<!-- 2479387882704&#45;&gt;2479387879296 -->
<g id="edge40" class="edge">
<title>2479387882704&#45;&gt;2479387879296</title>
<path fill="none" stroke="black" d="M1642.62,-58.19C1653.29,-58 1664.47,-57.81 1674.66,-57.64"/>
<polygon fill="black" stroke="black" points="1674.64,-61.14 1684.58,-57.47 1674.52,-54.14 1674.64,-61.14"/>
</g>
<!-- 2479387870944&#45;&gt;2479387876848 -->
<g id="edge41" class="edge">
<title>2479387870944&#45;&gt;2479387876848</title>
<path fill="none" stroke="black" d="M1685.89,-110.78C1643.86,-110.42 1561.5,-109.73 1513.23,-109.32"/>
<polygon fill="black" stroke="black" points="1513.28,-105.82 1503.25,-109.23 1513.22,-112.82 1513.28,-105.82"/>
</g>
<!-- 2479387882032 -->
<g id="node32" class="node">
<title>2479387882032</title>
<polygon fill="none" stroke="black" points="1803.25,-127 1776.25,-109 1803.25,-91 1830.25,-109 1803.25,-127"/>
<text text-anchor="middle" x="1803.25" y="-103.97" font-family="Times New Roman,serif" font-size="12.00">+</text>
</g>
<!-- 2479387870944&#45;&gt;2479387882032 -->
<g id="edge43" class="edge">
<title>2479387870944&#45;&gt;2479387882032</title>
<path fill="none" stroke="black" d="M1740.18,-110.41C1747.96,-110.23 1756.67,-110.04 1765.03,-109.85"/>
<polygon fill="black" stroke="black" points="1765.08,-113.35 1775,-109.62 1764.92,-106.35 1765.08,-113.35"/>
</g>
<!-- 2479387879296&#45;&gt;2479387869504 -->
<g id="edge42" class="edge">
<title>2479387879296&#45;&gt;2479387869504</title>
<path fill="none" stroke="black" d="M1697.46,-49.15C1685.2,-43.12 1667.11,-35.27 1650.25,-32 1601.06,-22.46 1586.82,-23.15 1537.5,-32 1525.26,-34.2 1512.27,-38.66 1501.36,-43.07"/>
<polygon fill="black" stroke="black" points="1500.08,-39.81 1492.26,-46.96 1502.83,-46.25 1500.08,-39.81"/>
</g>
<!-- 2479387879296&#45;&gt;2479387882032 -->
<g id="edge44" class="edge">
<title>2479387879296&#45;&gt;2479387882032</title>
<path fill="none" stroke="black" d="M1728.39,-65.35C1741.86,-73.31 1762.4,-85.45 1778.4,-94.91"/>
<polygon fill="black" stroke="black" points="1776.45,-97.82 1786.84,-99.9 1780.01,-91.8 1776.45,-97.82"/>
</g>
<!-- 2479387882320 -->
<g id="node33" class="node">
<title>2479387882320</title>
<polygon fill="none" stroke="black" points="2019.5,-127 1866.25,-127 1866.25,-91 2019.5,-91 2019.5,-127"/>
<text text-anchor="middle" x="1942.88" y="-103.97" font-family="Times New Roman,serif" font-size="12.00">Provide personal information</text>
</g>
<!-- 2479387882032&#45;&gt;2479387882320 -->
<g id="edge45" class="edge">
<title>2479387882032&#45;&gt;2479387882320</title>
<path fill="none" stroke="black" d="M1831.11,-109C1838.18,-109 1846.21,-109 1854.63,-109"/>
<polygon fill="black" stroke="black" points="1854.38,-112.5 1864.38,-109 1854.38,-105.5 1854.38,-112.5"/>
</g>
<!-- 2479387879056 -->
<g id="node34" class="node">
<title>2479387879056</title>
<polygon fill="none" stroke="black" points="2082.5,-127 2055.5,-109 2082.5,-91 2109.5,-109 2082.5,-127"/>
<text text-anchor="middle" x="2082.5" y="-103.97" font-family="Times New Roman,serif" font-size="12.00">X</text>
</g>
<!-- 2479387882320&#45;&gt;2479387879056 -->
<g id="edge46" class="edge">
<title>2479387882320&#45;&gt;2479387879056</title>
<path fill="none" stroke="black" d="M2019.93,-109C2028,-109 2035.92,-109 2043.27,-109"/>
<polygon fill="black" stroke="black" points="2043.11,-112.5 2053.11,-109 2043.11,-105.5 2043.11,-112.5"/>
</g>
<!-- 2479387884912 -->
<g id="node35" class="node">
<title>2479387884912</title>
<polygon fill="none" stroke="black" points="2322.75,-169 2295.75,-151 2322.75,-133 2349.75,-151 2322.75,-169"/>
<text text-anchor="middle" x="2322.75" y="-145.97" font-family="Times New Roman,serif" font-size="12.00">X</text>
</g>
<!-- 2479387879056&#45;&gt;2479387884912 -->
<g id="edge47" class="edge">
<title>2479387879056&#45;&gt;2479387884912</title>
<path fill="none" stroke="black" d="M2097.81,-116.83C2110.08,-123.15 2128.43,-131.68 2145.5,-136 2192.31,-147.84 2248.1,-150.8 2284.19,-151.31"/>
<polygon fill="black" stroke="black" points="2284.09,-154.81 2294.12,-151.39 2284.14,-147.81 2284.09,-154.81"/>
</g>
<!-- 2479387880400 -->
<g id="node36" class="node">
<title>2479387880400</title>
<polygon fill="none" stroke="black" points="2259.75,-127 2145.5,-127 2145.5,-91 2259.75,-91 2259.75,-127"/>
<text text-anchor="middle" x="2202.62" y="-103.97" font-family="Times New Roman,serif" font-size="12.00">Send ticket via email</text>
</g>
<!-- 2479387879056&#45;&gt;2479387880400 -->
<g id="edge48" class="edge">
<title>2479387879056&#45;&gt;2479387880400</title>
<path fill="none" stroke="black" d="M2110.3,-109C2117.42,-109 2125.43,-109 2133.68,-109"/>
<polygon fill="black" stroke="black" points="2133.5,-112.5 2143.5,-109 2133.5,-105.5 2133.5,-112.5"/>
</g>
<!-- 2479387884912&#45;&gt;2479387880496 -->
<g id="edge49" class="edge">
<title>2479387884912&#45;&gt;2479387880496</title>
<path fill="none" stroke="black" d="M2342.84,-155.99C2354.26,-158.97 2369.01,-162.83 2381.94,-166.21"/>
<polygon fill="black" stroke="black" points="2380.67,-169.49 2391.23,-168.64 2382.44,-162.72 2380.67,-169.49"/>
</g>
<!-- 2479387880400&#45;&gt;2479387884912 -->
<g id="edge50" class="edge">
<title>2479387880400&#45;&gt;2479387884912</title>
<path fill="none" stroke="black" d="M2255.44,-127.42C2268.55,-132.08 2282.14,-136.92 2293.58,-140.99"/>
<polygon fill="black" stroke="black" points="2292.19,-144.2 2302.78,-144.26 2294.53,-137.61 2292.19,-144.2"/>
</g>
</g>
</svg>
