<?xml version="1.0" encoding="UTF-8" standalone="no"?>
<!DOCTYPE svg PUBLIC "-//W3C//DTD SVG 1.1//EN"
 "http://www.w3.org/Graphics/SVG/1.1/DTD/svg11.dtd">
<!-- Generated by graphviz version 2.50.0 (0)
 -->
<!-- Pages: 1 -->
<svg width="2260pt" height="144pt"
 viewBox="0.00 0.00 2260.00 144.00" xmlns="http://www.w3.org/2000/svg" xmlns:xlink="http://www.w3.org/1999/xlink">
<g id="graph0" class="graph" transform="scale(1 1) rotate(0) translate(4 140)">
<polygon fill="white" stroke="transparent" points="-4,4 -4,-140 2256,-140 2256,4 -4,4"/>
<!-- 6136838416 -->
<g id="node1" class="node">
<title>6136838416</title>
<ellipse fill="green" stroke="black" cx="18" cy="-41" rx="18" ry="18"/>
</g>
<!-- 6136634192 -->
<g id="node2" class="node">
<title>6136634192</title>
<polygon fill="none" stroke="black" points="222,-59 72,-59 72,-23 222,-23 222,-59"/>
<text text-anchor="middle" x="147" y="-37.9" font-family="Times,serif" font-size="12.00">Customer searches for ticket</text>
</g>
<!-- 6136838416&#45;&gt;6136634192 -->
<g id="edge1" class="edge">
<title>6136838416&#45;&gt;6136634192</title>
<path fill="none" stroke="black" d="M36.13,-41C43.26,-41 52.12,-41 61.68,-41"/>
<polygon fill="black" stroke="black" points="61.86,-44.5 71.86,-41 61.86,-37.5 61.86,-44.5"/>
</g>
<!-- 6136632208 -->
<g id="node3" class="node">
<title>6136632208</title>
<polygon fill="none" stroke="black" points="330,-59 258,-59 258,-23 330,-23 330,-59"/>
<text text-anchor="middle" x="294" y="-37.9" font-family="Times,serif" font-size="12.00">Select route</text>
</g>
<!-- 6136634192&#45;&gt;6136632208 -->
<g id="edge2" class="edge">
<title>6136634192&#45;&gt;6136632208</title>
<path fill="none" stroke="black" d="M222.2,-41C230.82,-41 239.41,-41 247.49,-41"/>
<polygon fill="black" stroke="black" points="247.75,-44.5 257.75,-41 247.75,-37.5 247.75,-44.5"/>
</g>
<!-- 6158716368 -->
<g id="node4" class="node">
<title>6158716368</title>
<polygon fill="none" stroke="black" points="477,-59 366,-59 366,-23 477,-23 477,-59"/>
<text text-anchor="middle" x="421.5" y="-37.9" font-family="Times,serif" font-size="12.00">Select date and time</text>
</g>
<!-- 6136632208&#45;&gt;6158716368 -->
<g id="edge3" class="edge">
<title>6136632208&#45;&gt;6158716368</title>
<path fill="none" stroke="black" d="M330.29,-41C338.21,-41 346.86,-41 355.56,-41"/>
<polygon fill="black" stroke="black" points="355.77,-44.5 365.77,-41 355.77,-37.5 355.77,-44.5"/>
</g>
<!-- 6136643344 -->
<g id="node5" class="node">
<title>6136643344</title>
<polygon fill="none" stroke="black" points="667,-59 513,-59 513,-23 667,-23 667,-59"/>
<text text-anchor="middle" x="590" y="-37.9" font-family="Times,serif" font-size="12.00">Provide personal information</text>
</g>
<!-- 6158716368&#45;&gt;6136643344 -->
<g id="edge4" class="edge">
<title>6158716368&#45;&gt;6136643344</title>
<path fill="none" stroke="black" d="M477.02,-41C485.27,-41 493.94,-41 502.67,-41"/>
<polygon fill="black" stroke="black" points="502.9,-44.5 512.9,-41 502.9,-37.5 502.9,-44.5"/>
</g>
<!-- 6158424080 -->
<g id="node6" class="node">
<title>6158424080</title>
<polygon fill="none" stroke="black" points="833,-59 703,-59 703,-23 833,-23 833,-59"/>
<text text-anchor="middle" x="768" y="-37.9" font-family="Times,serif" font-size="12.00">Provide payment details</text>
</g>
<!-- 6136643344&#45;&gt;6158424080 -->
<g id="edge5" class="edge">
<title>6136643344&#45;&gt;6158424080</title>
<path fill="none" stroke="black" d="M667.17,-41C675.63,-41 684.23,-41 692.66,-41"/>
<polygon fill="black" stroke="black" points="692.84,-44.5 702.84,-41 692.84,-37.5 692.84,-44.5"/>
</g>
<!-- 6136629456 -->
<g id="node7" class="node">
<title>6136629456</title>
<polygon fill="none" stroke="black" points="957,-59 869,-59 869,-23 957,-23 957,-59"/>
<text text-anchor="middle" x="913" y="-37.9" font-family="Times,serif" font-size="12.00">Generate ticket</text>
</g>
<!-- 6158424080&#45;&gt;6136629456 -->
<g id="edge6" class="edge">
<title>6158424080&#45;&gt;6136629456</title>
<path fill="none" stroke="black" d="M833.39,-41C841.83,-41 850.41,-41 858.64,-41"/>
<polygon fill="black" stroke="black" points="858.85,-44.5 868.85,-41 858.85,-37.5 858.85,-44.5"/>
</g>
<!-- 6136630928 -->
<g id="node8" class="node">
<title>6136630928</title>
<polygon fill="none" stroke="black" points="1020,-59 993,-41 1020,-23 1047,-41 1020,-59"/>
<text text-anchor="middle" x="1020" y="-37.9" font-family="Times,serif" font-size="12.00">+</text>
</g>
<!-- 6136629456&#45;&gt;6136630928 -->
<g id="edge7" class="edge">
<title>6136629456&#45;&gt;6136630928</title>
<path fill="none" stroke="black" d="M957.01,-41C965.53,-41 974.4,-41 982.67,-41"/>
<polygon fill="black" stroke="black" points="982.76,-44.5 992.76,-41 982.76,-37.5 982.76,-44.5"/>
</g>
<!-- 6136835728 -->
<g id="node9" class="node">
<title>6136835728</title>
<polygon fill="none" stroke="black" points="1110,-82 1083,-64 1110,-46 1137,-64 1110,-82"/>
<text text-anchor="middle" x="1110" y="-60.9" font-family="Times,serif" font-size="12.00">X</text>
</g>
<!-- 6136630928&#45;&gt;6136835728 -->
<g id="edge8" class="edge">
<title>6136630928&#45;&gt;6136835728</title>
<path fill="none" stroke="black" d="M1040.09,-45.99C1051.82,-49.06 1067.07,-53.04 1080.24,-56.48"/>
<polygon fill="black" stroke="black" points="1079.68,-59.96 1090.24,-59.1 1081.45,-53.18 1079.68,-59.96"/>
</g>
<!-- 6158727504 -->
<g id="node10" class="node">
<title>6158727504</title>
<polygon fill="none" stroke="black" points="1444,-36 1324,-36 1324,0 1444,0 1444,-36"/>
<text text-anchor="middle" x="1384" y="-14.9" font-family="Times,serif" font-size="12.00">Update seat inventory</text>
</g>
<!-- 6136630928&#45;&gt;6158727504 -->
<g id="edge9" class="edge">
<title>6136630928&#45;&gt;6158727504</title>
<path fill="none" stroke="black" d="M1044.85,-39.45C1056.37,-38.71 1070.41,-37.81 1083,-37 1162.02,-31.95 1252.75,-26.21 1313.56,-22.37"/>
<polygon fill="black" stroke="black" points="1314.04,-25.85 1323.8,-21.73 1313.6,-18.87 1314.04,-25.85"/>
</g>
<!-- 6158716496 -->
<g id="node12" class="node">
<title>6158716496</title>
<polygon fill="none" stroke="black" points="1287,-136 1174,-136 1174,-100 1287,-100 1287,-136"/>
<text text-anchor="middle" x="1230.5" y="-114.9" font-family="Times,serif" font-size="12.00">Send ticket via SMS</text>
</g>
<!-- 6136835728&#45;&gt;6158716496 -->
<g id="edge10" class="edge">
<title>6136835728&#45;&gt;6158716496</title>
<path fill="none" stroke="black" d="M1126.49,-71.06C1140.24,-77.32 1161.09,-86.83 1180.44,-95.65"/>
<polygon fill="black" stroke="black" points="1179.24,-98.94 1189.79,-99.9 1182.14,-92.57 1179.24,-98.94"/>
</g>
<!-- 6158729168 -->
<g id="node13" class="node">
<title>6158729168</title>
<polygon fill="none" stroke="black" points="1288,-82 1173,-82 1173,-46 1288,-46 1288,-82"/>
<text text-anchor="middle" x="1230.5" y="-60.9" font-family="Times,serif" font-size="12.00">Send ticket via email</text>
</g>
<!-- 6136835728&#45;&gt;6158729168 -->
<g id="edge11" class="edge">
<title>6136835728&#45;&gt;6158729168</title>
<path fill="none" stroke="black" d="M1137.01,-64C1144.81,-64 1153.75,-64 1162.93,-64"/>
<polygon fill="black" stroke="black" points="1162.95,-67.5 1172.95,-64 1162.95,-60.5 1162.95,-67.5"/>
</g>
<!-- 6158713616 -->
<g id="node11" class="node">
<title>6158713616</title>
<polygon fill="none" stroke="black" points="2153,-63 2126,-45 2153,-27 2180,-45 2153,-63"/>
<text text-anchor="middle" x="2153" y="-41.9" font-family="Times,serif" font-size="12.00">+</text>
</g>
<!-- 6158727504&#45;&gt;6158713616 -->
<g id="edge12" class="edge">
<title>6158727504&#45;&gt;6158713616</title>
<path fill="none" stroke="black" d="M1444.2,-19.4C1497.9,-20.56 1579.26,-22 1650,-22 1650,-22 1650,-22 1813,-22 1925.97,-22 2059.62,-34.87 2119.8,-41.36"/>
<polygon fill="black" stroke="black" points="2119.5,-44.84 2129.82,-42.45 2120.26,-37.89 2119.5,-44.84"/>
</g>
<!-- 6118355024 -->
<g id="node19" class="node">
<title>6118355024</title>
<ellipse fill="orange" stroke="black" cx="2234" cy="-45" rx="18" ry="18"/>
</g>
<!-- 6158713616&#45;&gt;6118355024 -->
<g id="edge15" class="edge">
<title>6158713616&#45;&gt;6118355024</title>
<path fill="none" stroke="black" d="M2180.31,-45C2188.42,-45 2197.37,-45 2205.56,-45"/>
<polygon fill="black" stroke="black" points="2205.75,-48.5 2215.75,-45 2205.75,-41.5 2205.75,-48.5"/>
</g>
<!-- 6136828112 -->
<g id="node14" class="node">
<title>6136828112</title>
<polygon fill="none" stroke="black" points="1384,-90 1357,-72 1384,-54 1411,-72 1384,-90"/>
<text text-anchor="middle" x="1384" y="-68.9" font-family="Times,serif" font-size="12.00">X</text>
</g>
<!-- 6158716496&#45;&gt;6136828112 -->
<g id="edge13" class="edge">
<title>6158716496&#45;&gt;6136828112</title>
<path fill="none" stroke="black" d="M1287.05,-101.13C1310.28,-94.08 1336.24,-86.2 1355.3,-80.41"/>
<polygon fill="black" stroke="black" points="1356.56,-83.69 1365.11,-77.43 1354.53,-76.99 1356.56,-83.69"/>
</g>
<!-- 6158729168&#45;&gt;6136828112 -->
<g id="edge14" class="edge">
<title>6158729168&#45;&gt;6136828112</title>
<path fill="none" stroke="black" d="M1288.34,-67C1308.6,-68.07 1330.79,-69.24 1348.59,-70.18"/>
<polygon fill="black" stroke="black" points="1348.61,-73.69 1358.78,-70.72 1348.98,-66.7 1348.61,-73.69"/>
</g>
<!-- 6136641424 -->
<g id="node15" class="node">
<title>6136641424</title>
<polygon fill="none" stroke="black" points="1566,-89 1480,-89 1480,-53 1566,-53 1566,-89"/>
<text text-anchor="middle" x="1523" y="-67.9" font-family="Times,serif" font-size="12.00">Send reminder</text>
</g>
<!-- 6136828112&#45;&gt;6136641424 -->
<g id="edge16" class="edge">
<title>6136828112&#45;&gt;6136641424</title>
<path fill="none" stroke="black" d="M1410.77,-71.81C1427.41,-71.69 1449.66,-71.53 1469.88,-71.38"/>
<polygon fill="black" stroke="black" points="1469.95,-74.88 1479.92,-71.31 1469.9,-67.88 1469.95,-74.88"/>
</g>
<!-- 6158725392 -->
<g id="node16" class="node">
<title>6158725392</title>
<polygon fill="none" stroke="black" points="1700,-89 1602,-89 1602,-53 1700,-53 1700,-89"/>
<text text-anchor="middle" x="1651" y="-67.9" font-family="Times,serif" font-size="12.00">Send instructions</text>
</g>
<!-- 6136641424&#45;&gt;6158725392 -->
<g id="edge17" class="edge">
<title>6136641424&#45;&gt;6158725392</title>
<path fill="none" stroke="black" d="M1566.31,-71C1574.53,-71 1583.28,-71 1591.91,-71"/>
<polygon fill="black" stroke="black" points="1591.94,-74.5 1601.94,-71 1591.94,-67.5 1591.94,-74.5"/>
</g>
<!-- 6158420240 -->
<g id="node17" class="node">
<title>6158420240</title>
<polygon fill="none" stroke="black" points="1888,-89 1736,-89 1736,-53 1888,-53 1888,-89"/>
<text text-anchor="middle" x="1812" y="-67.9" font-family="Times,serif" font-size="12.00">Customer completes journey</text>
</g>
<!-- 6158725392&#45;&gt;6158420240 -->
<g id="edge18" class="edge">
<title>6158725392&#45;&gt;6158420240</title>
<path fill="none" stroke="black" d="M1700.14,-71C1708.22,-71 1716.81,-71 1725.5,-71"/>
<polygon fill="black" stroke="black" points="1725.73,-74.5 1735.73,-71 1725.73,-67.5 1725.73,-74.5"/>
</g>
<!-- 6136824656 -->
<g id="node18" class="node">
<title>6136824656</title>
<polygon fill="none" stroke="black" points="2090,-88 1924,-88 1924,-52 2090,-52 2090,-88"/>
<text text-anchor="middle" x="2007" y="-66.9" font-family="Times,serif" font-size="12.00">Post&#45;travel feedback or services</text>
</g>
<!-- 6158420240&#45;&gt;6136824656 -->
<g id="edge19" class="edge">
<title>6158420240&#45;&gt;6136824656</title>
<path fill="none" stroke="black" d="M1888.17,-70.61C1896.54,-70.57 1905.13,-70.52 1913.68,-70.48"/>
<polygon fill="black" stroke="black" points="1913.7,-73.98 1923.68,-70.43 1913.66,-66.98 1913.7,-73.98"/>
</g>
<!-- 6136824656&#45;&gt;6158713616 -->
<g id="edge20" class="edge">
<title>6136824656&#45;&gt;6158713616</title>
<path fill="none" stroke="black" d="M2090.1,-55.75C2101.2,-53.82 2111.98,-51.95 2121.35,-50.32"/>
<polygon fill="black" stroke="black" points="2122.01,-53.76 2131.26,-48.6 2120.81,-46.86 2122.01,-53.76"/>
</g>
</g>
</svg>
