<?xml version="1.0" encoding="UTF-8" standalone="no"?>
<!DOCTYPE svg PUBLIC "-//W3C//DTD SVG 1.1//EN"
 "http://www.w3.org/Graphics/SVG/1.1/DTD/svg11.dtd">
<!-- Generated by graphviz version 2.50.0 (0)
 -->
<!-- Pages: 1 -->
<svg width="2170pt" height="98pt"
 viewBox="0.00 0.00 2170.00 98.00" xmlns="http://www.w3.org/2000/svg" xmlns:xlink="http://www.w3.org/1999/xlink">
<g id="graph0" class="graph" transform="scale(1 1) rotate(0) translate(4 94)">
<polygon fill="white" stroke="transparent" points="-4,4 -4,-94 2166,-94 2166,4 -4,4"/>
<!-- 6119269264 -->
<g id="node1" class="node">
<title>6119269264</title>
<ellipse fill="green" stroke="black" cx="18" cy="-45" rx="18" ry="18"/>
</g>
<!-- 6118685648 -->
<g id="node2" class="node">
<title>6118685648</title>
<polygon fill="none" stroke="black" points="222,-63 72,-63 72,-27 222,-27 222,-63"/>
<text text-anchor="middle" x="147" y="-41.9" font-family="Times,serif" font-size="12.00">Customer searches for ticket</text>
</g>
<!-- 6119269264&#45;&gt;6118685648 -->
<g id="edge1" class="edge">
<title>6119269264&#45;&gt;6118685648</title>
<path fill="none" stroke="black" d="M36.13,-45C43.26,-45 52.12,-45 61.68,-45"/>
<polygon fill="black" stroke="black" points="61.86,-48.5 71.86,-45 61.86,-41.5 61.86,-48.5"/>
</g>
<!-- 6124374032 -->
<g id="node3" class="node">
<title>6124374032</title>
<polygon fill="none" stroke="black" points="330,-63 258,-63 258,-27 330,-27 330,-63"/>
<text text-anchor="middle" x="294" y="-41.9" font-family="Times,serif" font-size="12.00">Select route</text>
</g>
<!-- 6118685648&#45;&gt;6124374032 -->
<g id="edge2" class="edge">
<title>6118685648&#45;&gt;6124374032</title>
<path fill="none" stroke="black" d="M222.2,-45C230.82,-45 239.41,-45 247.49,-45"/>
<polygon fill="black" stroke="black" points="247.75,-48.5 257.75,-45 247.75,-41.5 247.75,-48.5"/>
</g>
<!-- 6115609744 -->
<g id="node4" class="node">
<title>6115609744</title>
<polygon fill="none" stroke="black" points="477,-63 366,-63 366,-27 477,-27 477,-63"/>
<text text-anchor="middle" x="421.5" y="-41.9" font-family="Times,serif" font-size="12.00">Select date and time</text>
</g>
<!-- 6124374032&#45;&gt;6115609744 -->
<g id="edge3" class="edge">
<title>6124374032&#45;&gt;6115609744</title>
<path fill="none" stroke="black" d="M330.29,-45C338.21,-45 346.86,-45 355.56,-45"/>
<polygon fill="black" stroke="black" points="355.77,-48.5 365.77,-45 355.77,-41.5 355.77,-48.5"/>
</g>
<!-- 6115620112 -->
<g id="node5" class="node">
<title>6115620112</title>
<polygon fill="none" stroke="black" points="667,-63 513,-63 513,-27 667,-27 667,-63"/>
<text text-anchor="middle" x="590" y="-41.9" font-family="Times,serif" font-size="12.00">Provide personal information</text>
</g>
<!-- 6115609744&#45;&gt;6115620112 -->
<g id="edge4" class="edge">
<title>6115609744&#45;&gt;6115620112</title>
<path fill="none" stroke="black" d="M477.02,-45C485.27,-45 493.94,-45 502.67,-45"/>
<polygon fill="black" stroke="black" points="502.9,-48.5 512.9,-45 502.9,-41.5 502.9,-48.5"/>
</g>
<!-- 6124374992 -->
<g id="node6" class="node">
<title>6124374992</title>
<polygon fill="none" stroke="black" points="833,-63 703,-63 703,-27 833,-27 833,-63"/>
<text text-anchor="middle" x="768" y="-41.9" font-family="Times,serif" font-size="12.00">Provide payment details</text>
</g>
<!-- 6115620112&#45;&gt;6124374992 -->
<g id="edge5" class="edge">
<title>6115620112&#45;&gt;6124374992</title>
<path fill="none" stroke="black" d="M667.17,-45C675.63,-45 684.23,-45 692.66,-45"/>
<polygon fill="black" stroke="black" points="692.84,-48.5 702.84,-45 692.84,-41.5 692.84,-48.5"/>
</g>
<!-- 6086554832 -->
<g id="node7" class="node">
<title>6086554832</title>
<polygon fill="none" stroke="black" points="957,-63 869,-63 869,-27 957,-27 957,-63"/>
<text text-anchor="middle" x="913" y="-41.9" font-family="Times,serif" font-size="12.00">Generate ticket</text>
</g>
<!-- 6124374992&#45;&gt;6086554832 -->
<g id="edge6" class="edge">
<title>6124374992&#45;&gt;6086554832</title>
<path fill="none" stroke="black" d="M833.39,-45C841.83,-45 850.41,-45 858.64,-45"/>
<polygon fill="black" stroke="black" points="858.85,-48.5 868.85,-45 858.85,-41.5 858.85,-48.5"/>
</g>
<!-- 6115558608 -->
<g id="node8" class="node">
<title>6115558608</title>
<polygon fill="none" stroke="black" points="1113,-63 993,-63 993,-27 1113,-27 1113,-63"/>
<text text-anchor="middle" x="1053" y="-41.9" font-family="Times,serif" font-size="12.00">Update seat inventory</text>
</g>
<!-- 6086554832&#45;&gt;6115558608 -->
<g id="edge7" class="edge">
<title>6086554832&#45;&gt;6115558608</title>
<path fill="none" stroke="black" d="M957.29,-45C965.41,-45 974.09,-45 982.77,-45"/>
<polygon fill="black" stroke="black" points="982.94,-48.5 992.94,-45 982.94,-41.5 982.94,-48.5"/>
</g>
<!-- 6115558224 -->
<g id="node9" class="node">
<title>6115558224</title>
<polygon fill="none" stroke="black" points="1176,-63 1149,-45 1176,-27 1203,-45 1176,-63"/>
<text text-anchor="middle" x="1176" y="-41.9" font-family="Times,serif" font-size="12.00">+</text>
</g>
<!-- 6115558608&#45;&gt;6115558224 -->
<g id="edge8" class="edge">
<title>6115558608&#45;&gt;6115558224</title>
<path fill="none" stroke="black" d="M1113.08,-45C1121.84,-45 1130.64,-45 1138.74,-45"/>
<polygon fill="black" stroke="black" points="1138.94,-48.5 1148.94,-45 1138.94,-41.5 1138.94,-48.5"/>
</g>
<!-- 6119378896 -->
<g id="node10" class="node">
<title>6119378896</title>
<polygon fill="none" stroke="black" points="1353,-90 1240,-90 1240,-54 1353,-54 1353,-90"/>
<text text-anchor="middle" x="1296.5" y="-68.9" font-family="Times,serif" font-size="12.00">Send ticket via SMS</text>
</g>
<!-- 6115558224&#45;&gt;6119378896 -->
<g id="edge10" class="edge">
<title>6115558224&#45;&gt;6119378896</title>
<path fill="none" stroke="black" d="M1196.57,-49.46C1205.96,-51.6 1217.81,-54.3 1230.01,-57.08"/>
<polygon fill="black" stroke="black" points="1229.31,-60.51 1239.84,-59.32 1230.86,-53.68 1229.31,-60.51"/>
</g>
<!-- 6118683600 -->
<g id="node11" class="node">
<title>6118683600</title>
<polygon fill="none" stroke="black" points="1354,-36 1239,-36 1239,0 1354,0 1354,-36"/>
<text text-anchor="middle" x="1296.5" y="-14.9" font-family="Times,serif" font-size="12.00">Send ticket via email</text>
</g>
<!-- 6115558224&#45;&gt;6118683600 -->
<g id="edge9" class="edge">
<title>6115558224&#45;&gt;6118683600</title>
<path fill="none" stroke="black" d="M1196.57,-40.54C1205.66,-38.47 1217.05,-35.87 1228.85,-33.19"/>
<polygon fill="black" stroke="black" points="1229.83,-36.55 1238.81,-30.92 1228.28,-29.73 1229.83,-36.55"/>
</g>
<!-- 6124372240 -->
<g id="node12" class="node">
<title>6124372240</title>
<polygon fill="none" stroke="black" points="1417,-63 1390,-45 1417,-27 1444,-45 1417,-63"/>
<text text-anchor="middle" x="1417" y="-41.9" font-family="Times,serif" font-size="12.00">+</text>
</g>
<!-- 6119378896&#45;&gt;6124372240 -->
<g id="edge11" class="edge">
<title>6119378896&#45;&gt;6124372240</title>
<path fill="none" stroke="black" d="M1353.28,-59.29C1364.77,-56.67 1376.44,-54.01 1386.55,-51.71"/>
<polygon fill="black" stroke="black" points="1387.47,-55.09 1396.44,-49.46 1385.91,-48.27 1387.47,-55.09"/>
</g>
<!-- 6118683600&#45;&gt;6124372240 -->
<g id="edge12" class="edge">
<title>6118683600&#45;&gt;6124372240</title>
<path fill="none" stroke="black" d="M1354.32,-30.95C1365.49,-33.49 1376.77,-36.06 1386.58,-38.3"/>
<polygon fill="black" stroke="black" points="1386.04,-41.76 1396.56,-40.57 1387.59,-34.94 1386.04,-41.76"/>
</g>
<!-- 6124385488 -->
<g id="node13" class="node">
<title>6124385488</title>
<polygon fill="none" stroke="black" points="1566,-63 1480,-63 1480,-27 1566,-27 1566,-63"/>
<text text-anchor="middle" x="1523" y="-41.9" font-family="Times,serif" font-size="12.00">Send reminder</text>
</g>
<!-- 6124372240&#45;&gt;6124385488 -->
<g id="edge13" class="edge">
<title>6124372240&#45;&gt;6124385488</title>
<path fill="none" stroke="black" d="M1444.24,-45C1452.11,-45 1461.04,-45 1469.96,-45"/>
<polygon fill="black" stroke="black" points="1469.98,-48.5 1479.98,-45 1469.98,-41.5 1469.98,-48.5"/>
</g>
<!-- 6119545616 -->
<g id="node14" class="node">
<title>6119545616</title>
<polygon fill="none" stroke="black" points="1700,-63 1602,-63 1602,-27 1700,-27 1700,-63"/>
<text text-anchor="middle" x="1651" y="-41.9" font-family="Times,serif" font-size="12.00">Send instructions</text>
</g>
<!-- 6124385488&#45;&gt;6119545616 -->
<g id="edge14" class="edge">
<title>6124385488&#45;&gt;6119545616</title>
<path fill="none" stroke="black" d="M1566.31,-45C1574.53,-45 1583.28,-45 1591.91,-45"/>
<polygon fill="black" stroke="black" points="1591.94,-48.5 1601.94,-45 1591.94,-41.5 1591.94,-48.5"/>
</g>
<!-- 6124380240 -->
<g id="node15" class="node">
<title>6124380240</title>
<polygon fill="none" stroke="black" points="1888,-63 1736,-63 1736,-27 1888,-27 1888,-63"/>
<text text-anchor="middle" x="1812" y="-41.9" font-family="Times,serif" font-size="12.00">Customer completes journey</text>
</g>
<!-- 6119545616&#45;&gt;6124380240 -->
<g id="edge15" class="edge">
<title>6119545616&#45;&gt;6124380240</title>
<path fill="none" stroke="black" d="M1700.14,-45C1708.22,-45 1716.81,-45 1725.5,-45"/>
<polygon fill="black" stroke="black" points="1725.73,-48.5 1735.73,-45 1725.73,-41.5 1725.73,-48.5"/>
</g>
<!-- 6119386384 -->
<g id="node16" class="node">
<title>6119386384</title>
<polygon fill="none" stroke="black" points="2090,-63 1924,-63 1924,-27 2090,-27 2090,-63"/>
<text text-anchor="middle" x="2007" y="-41.9" font-family="Times,serif" font-size="12.00">Post&#45;travel feedback or services</text>
</g>
<!-- 6124380240&#45;&gt;6119386384 -->
<g id="edge16" class="edge">
<title>6124380240&#45;&gt;6119386384</title>
<path fill="none" stroke="black" d="M1888.17,-45C1896.54,-45 1905.13,-45 1913.68,-45"/>
<polygon fill="black" stroke="black" points="1913.68,-48.5 1923.68,-45 1913.68,-41.5 1913.68,-48.5"/>
</g>
<!-- 6120006288 -->
<g id="node17" class="node">
<title>6120006288</title>
<ellipse fill="orange" stroke="black" cx="2144" cy="-45" rx="18" ry="18"/>
</g>
<!-- 6119386384&#45;&gt;6120006288 -->
<g id="edge17" class="edge">
<title>6119386384&#45;&gt;6120006288</title>
<path fill="none" stroke="black" d="M2090.03,-45C2099.19,-45 2107.97,-45 2115.66,-45"/>
<polygon fill="black" stroke="black" points="2115.73,-48.5 2125.73,-45 2115.73,-41.5 2115.73,-48.5"/>
</g>
</g>
</svg>
