<?xml version="1.0" encoding="UTF-8" standalone="no"?>
<!DOCTYPE svg PUBLIC "-//W3C//DTD SVG 1.1//EN"
 "http://www.w3.org/Graphics/SVG/1.1/DTD/svg11.dtd">
<!-- Generated by graphviz version 2.50.0 (0)
 -->
<!-- Pages: 1 -->
<svg width="2199pt" height="253pt"
 viewBox="0.00 0.00 2199.00 253.00" xmlns="http://www.w3.org/2000/svg" xmlns:xlink="http://www.w3.org/1999/xlink">
<g id="graph0" class="graph" transform="scale(1 1) rotate(0) translate(4 249)">
<polygon fill="white" stroke="transparent" points="-4,4 -4,-249 2195,-249 2195,4 -4,4"/>
<!-- 6118702800 -->
<g id="node1" class="node">
<title>6118702800</title>
<ellipse fill="green" stroke="black" cx="18" cy="-111" rx="18" ry="18"/>
</g>
<!-- 6124418384 -->
<g id="node2" class="node">
<title>6124418384</title>
<polygon fill="none" stroke="black" points="99,-129 72,-111 99,-93 126,-111 99,-129"/>
<text text-anchor="middle" x="99" y="-107.9" font-family="Times,serif" font-size="12.00">+</text>
</g>
<!-- 6118702800&#45;&gt;6124418384 -->
<g id="edge1" class="edge">
<title>6118702800&#45;&gt;6124418384</title>
<path fill="none" stroke="black" d="M36.14,-111C43.64,-111 52.75,-111 61.64,-111"/>
<polygon fill="black" stroke="black" points="61.87,-114.5 71.87,-111 61.87,-107.5 61.87,-114.5"/>
</g>
<!-- 6119044752 -->
<g id="node3" class="node">
<title>6119044752</title>
<polygon fill="none" stroke="black" points="312,-179 162,-179 162,-143 312,-143 312,-179"/>
<text text-anchor="middle" x="237" y="-157.9" font-family="Times,serif" font-size="12.00">Customer searches for ticket</text>
</g>
<!-- 6124418384&#45;&gt;6119044752 -->
<g id="edge2" class="edge">
<title>6124418384&#45;&gt;6119044752</title>
<path fill="none" stroke="black" d="M116.95,-117.23C132.15,-122.82 155.36,-131.35 177.26,-139.41"/>
<polygon fill="black" stroke="black" points="176.28,-142.77 186.87,-142.94 178.7,-136.2 176.28,-142.77"/>
</g>
<!-- 6117736528 -->
<g id="node4" class="node">
<title>6117736528</title>
<polygon fill="none" stroke="black" points="312,-102 162,-102 162,-66 312,-66 312,-102"/>
<text text-anchor="middle" x="237" y="-80.9" font-family="Times,serif" font-size="12.00">Customer searches for ticket</text>
</g>
<!-- 6124418384&#45;&gt;6117736528 -->
<g id="edge3" class="edge">
<title>6124418384&#45;&gt;6117736528</title>
<path fill="none" stroke="black" d="M120.07,-107.02C128.96,-105.25 140.07,-103.04 151.87,-100.7"/>
<polygon fill="black" stroke="black" points="152.79,-104.09 161.91,-98.71 151.42,-97.22 152.79,-104.09"/>
</g>
<!-- 6124420368 -->
<g id="node6" class="node">
<title>6124420368</title>
<polygon fill="none" stroke="black" points="420,-190 348,-190 348,-154 420,-154 420,-190"/>
<text text-anchor="middle" x="384" y="-168.9" font-family="Times,serif" font-size="12.00">Select route</text>
</g>
<!-- 6119044752&#45;&gt;6124420368 -->
<g id="edge4" class="edge">
<title>6119044752&#45;&gt;6124420368</title>
<path fill="none" stroke="black" d="M312.2,-166.63C320.92,-167.29 329.61,-167.95 337.76,-168.57"/>
<polygon fill="black" stroke="black" points="337.52,-172.06 347.75,-169.33 338.05,-165.08 337.52,-172.06"/>
</g>
<!-- 6117742800 -->
<g id="node5" class="node">
<title>6117742800</title>
<polygon fill="none" stroke="black" points="420,-101 348,-101 348,-65 420,-65 420,-101"/>
<text text-anchor="middle" x="384" y="-79.9" font-family="Times,serif" font-size="12.00">Select route</text>
</g>
<!-- 6117736528&#45;&gt;6117742800 -->
<g id="edge5" class="edge">
<title>6117736528&#45;&gt;6117742800</title>
<path fill="none" stroke="black" d="M312.2,-83.49C320.82,-83.43 329.41,-83.37 337.49,-83.31"/>
<polygon fill="black" stroke="black" points="337.78,-86.81 347.75,-83.24 337.73,-79.81 337.78,-86.81"/>
</g>
<!-- 6124417232 -->
<g id="node8" class="node">
<title>6124417232</title>
<polygon fill="none" stroke="black" points="567,-95 456,-95 456,-59 567,-59 567,-95"/>
<text text-anchor="middle" x="511.5" y="-73.9" font-family="Times,serif" font-size="12.00">Select date and time</text>
</g>
<!-- 6117742800&#45;&gt;6124417232 -->
<g id="edge6" class="edge">
<title>6117742800&#45;&gt;6124417232</title>
<path fill="none" stroke="black" d="M420.29,-81.31C428.21,-80.93 436.86,-80.52 445.56,-80.1"/>
<polygon fill="black" stroke="black" points="445.95,-83.59 455.77,-79.62 445.61,-76.6 445.95,-83.59"/>
</g>
<!-- 6124408400 -->
<g id="node7" class="node">
<title>6124408400</title>
<polygon fill="none" stroke="black" points="567,-190 456,-190 456,-154 567,-154 567,-190"/>
<text text-anchor="middle" x="511.5" y="-168.9" font-family="Times,serif" font-size="12.00">Select date and time</text>
</g>
<!-- 6124420368&#45;&gt;6124408400 -->
<g id="edge7" class="edge">
<title>6124420368&#45;&gt;6124408400</title>
<path fill="none" stroke="black" d="M420.29,-172C428.21,-172 436.86,-172 445.56,-172"/>
<polygon fill="black" stroke="black" points="445.77,-175.5 455.77,-172 445.77,-168.5 445.77,-175.5"/>
</g>
<!-- 6119044496 -->
<g id="node9" class="node">
<title>6119044496</title>
<polygon fill="none" stroke="black" points="757,-190 603,-190 603,-154 757,-154 757,-190"/>
<text text-anchor="middle" x="680" y="-168.9" font-family="Times,serif" font-size="12.00">Provide personal information</text>
</g>
<!-- 6124408400&#45;&gt;6119044496 -->
<g id="edge8" class="edge">
<title>6124408400&#45;&gt;6119044496</title>
<path fill="none" stroke="black" d="M567.02,-172C575.27,-172 583.94,-172 592.67,-172"/>
<polygon fill="black" stroke="black" points="592.9,-175.5 602.9,-172 592.9,-168.5 592.9,-175.5"/>
</g>
<!-- 6122115536 -->
<g id="node10" class="node">
<title>6122115536</title>
<polygon fill="none" stroke="black" points="757,-92 603,-92 603,-56 757,-56 757,-92"/>
<text text-anchor="middle" x="680" y="-70.9" font-family="Times,serif" font-size="12.00">Provide personal information</text>
</g>
<!-- 6124417232&#45;&gt;6122115536 -->
<g id="edge9" class="edge">
<title>6124417232&#45;&gt;6122115536</title>
<path fill="none" stroke="black" d="M567.02,-76.02C575.27,-75.87 583.94,-75.71 592.67,-75.56"/>
<polygon fill="black" stroke="black" points="592.97,-79.05 602.9,-75.37 592.84,-72.05 592.97,-79.05"/>
</g>
<!-- 6117751760 -->
<g id="node12" class="node">
<title>6117751760</title>
<polygon fill="none" stroke="black" points="923,-190 793,-190 793,-154 923,-154 923,-190"/>
<text text-anchor="middle" x="858" y="-168.9" font-family="Times,serif" font-size="12.00">Provide payment details</text>
</g>
<!-- 6119044496&#45;&gt;6117751760 -->
<g id="edge10" class="edge">
<title>6119044496&#45;&gt;6117751760</title>
<path fill="none" stroke="black" d="M757.17,-172C765.63,-172 774.23,-172 782.66,-172"/>
<polygon fill="black" stroke="black" points="782.84,-175.5 792.84,-172 782.84,-168.5 782.84,-175.5"/>
</g>
<!-- 6117744080 -->
<g id="node11" class="node">
<title>6117744080</title>
<polygon fill="none" stroke="black" points="923,-91 793,-91 793,-55 923,-55 923,-91"/>
<text text-anchor="middle" x="858" y="-69.9" font-family="Times,serif" font-size="12.00">Provide payment details</text>
</g>
<!-- 6122115536&#45;&gt;6117744080 -->
<g id="edge11" class="edge">
<title>6122115536&#45;&gt;6117744080</title>
<path fill="none" stroke="black" d="M757.17,-73.57C765.63,-73.52 774.23,-73.47 782.66,-73.42"/>
<polygon fill="black" stroke="black" points="782.86,-76.92 792.84,-73.36 782.82,-69.92 782.86,-76.92"/>
</g>
<!-- 6118691216 -->
<g id="node13" class="node">
<title>6118691216</title>
<polygon fill="none" stroke="black" points="1047,-90 959,-90 959,-54 1047,-54 1047,-90"/>
<text text-anchor="middle" x="1003" y="-68.9" font-family="Times,serif" font-size="12.00">Generate ticket</text>
</g>
<!-- 6117744080&#45;&gt;6118691216 -->
<g id="edge12" class="edge">
<title>6117744080&#45;&gt;6118691216</title>
<path fill="none" stroke="black" d="M923.39,-72.55C931.83,-72.49 940.41,-72.43 948.64,-72.37"/>
<polygon fill="black" stroke="black" points="948.88,-75.87 958.85,-72.3 948.83,-68.87 948.88,-75.87"/>
</g>
<!-- 6124413840 -->
<g id="node14" class="node">
<title>6124413840</title>
<polygon fill="none" stroke="black" points="1047,-190 959,-190 959,-154 1047,-154 1047,-190"/>
<text text-anchor="middle" x="1003" y="-168.9" font-family="Times,serif" font-size="12.00">Generate ticket</text>
</g>
<!-- 6117751760&#45;&gt;6124413840 -->
<g id="edge13" class="edge">
<title>6117751760&#45;&gt;6124413840</title>
<path fill="none" stroke="black" d="M923.39,-172C931.83,-172 940.41,-172 948.64,-172"/>
<polygon fill="black" stroke="black" points="948.85,-175.5 958.85,-172 948.85,-168.5 948.85,-175.5"/>
</g>
<!-- 6118692432 -->
<g id="node15" class="node">
<title>6118692432</title>
<polygon fill="none" stroke="black" points="1110,-90 1083,-72 1110,-54 1137,-72 1110,-90"/>
<text text-anchor="middle" x="1110" y="-68.9" font-family="Times,serif" font-size="12.00">+</text>
</g>
<!-- 6118691216&#45;&gt;6118692432 -->
<g id="edge14" class="edge">
<title>6118691216&#45;&gt;6118692432</title>
<path fill="none" stroke="black" d="M1047.01,-72C1055.53,-72 1064.4,-72 1072.67,-72"/>
<polygon fill="black" stroke="black" points="1072.76,-75.5 1082.76,-72 1072.76,-68.5 1072.76,-75.5"/>
</g>
<!-- 6124413520 -->
<g id="node16" class="node">
<title>6124413520</title>
<polygon fill="none" stroke="black" points="1751,-190 1724,-172 1751,-154 1778,-172 1751,-190"/>
<text text-anchor="middle" x="1751" y="-168.9" font-family="Times,serif" font-size="12.00">+</text>
</g>
<!-- 6124413840&#45;&gt;6124413520 -->
<g id="edge15" class="edge">
<title>6124413840&#45;&gt;6124413520</title>
<path fill="none" stroke="black" d="M1047.28,-172C1093.15,-172 1167.68,-172 1232,-172 1232,-172 1232,-172 1463,-172 1553.15,-172 1659.24,-172 1713.7,-172"/>
<polygon fill="black" stroke="black" points="1713.88,-175.5 1723.88,-172 1713.88,-168.5 1713.88,-175.5"/>
</g>
<!-- 6119040720 -->
<g id="node19" class="node">
<title>6119040720</title>
<polygon fill="none" stroke="black" points="1293,-144 1173,-144 1173,-108 1293,-108 1293,-144"/>
<text text-anchor="middle" x="1233" y="-122.9" font-family="Times,serif" font-size="12.00">Update seat inventory</text>
</g>
<!-- 6118692432&#45;&gt;6119040720 -->
<g id="edge16" class="edge">
<title>6118692432&#45;&gt;6119040720</title>
<path fill="none" stroke="black" d="M1126.82,-79.06C1140.92,-85.35 1162.34,-94.91 1182.18,-103.77"/>
<polygon fill="black" stroke="black" points="1180.89,-107.02 1191.45,-107.9 1183.74,-100.63 1180.89,-107.02"/>
</g>
<!-- 6119041744 -->
<g id="node20" class="node">
<title>6119041744</title>
<polygon fill="none" stroke="black" points="1289.5,-90 1176.5,-90 1176.5,-54 1289.5,-54 1289.5,-90"/>
<text text-anchor="middle" x="1233" y="-68.9" font-family="Times,serif" font-size="12.00">Send ticket via SMS</text>
</g>
<!-- 6118692432&#45;&gt;6119041744 -->
<g id="edge17" class="edge">
<title>6118692432&#45;&gt;6119041744</title>
<path fill="none" stroke="black" d="M1137.26,-72C1145.91,-72 1155.96,-72 1166.21,-72"/>
<polygon fill="black" stroke="black" points="1166.48,-75.5 1176.48,-72 1166.48,-68.5 1166.48,-75.5"/>
</g>
<!-- 6124410320 -->
<g id="node21" class="node">
<title>6124410320</title>
<polygon fill="none" stroke="black" points="1290.5,-36 1175.5,-36 1175.5,0 1290.5,0 1290.5,-36"/>
<text text-anchor="middle" x="1233" y="-14.9" font-family="Times,serif" font-size="12.00">Send ticket via email</text>
</g>
<!-- 6118692432&#45;&gt;6124410320 -->
<g id="edge18" class="edge">
<title>6118692432&#45;&gt;6124410320</title>
<path fill="none" stroke="black" d="M1126.82,-64.94C1140.92,-58.65 1162.34,-49.09 1182.18,-40.23"/>
<polygon fill="black" stroke="black" points="1183.74,-43.37 1191.45,-36.1 1180.89,-36.98 1183.74,-43.37"/>
</g>
<!-- 6118696656 -->
<g id="node17" class="node">
<title>6118696656</title>
<polygon fill="none" stroke="black" points="2003.5,-245 1888.5,-245 1888.5,-209 2003.5,-209 2003.5,-245"/>
<text text-anchor="middle" x="1946" y="-223.9" font-family="Times,serif" font-size="12.00">Send ticket via email</text>
</g>
<!-- 6124413520&#45;&gt;6118696656 -->
<g id="edge19" class="edge">
<title>6124413520&#45;&gt;6118696656</title>
<path fill="none" stroke="black" d="M1770.51,-177.27C1795.19,-184.31 1840.21,-197.14 1878.33,-208"/>
<polygon fill="black" stroke="black" points="1877.79,-211.49 1888.37,-210.86 1879.71,-204.76 1877.79,-211.49"/>
</g>
<!-- 6121931536 -->
<g id="node18" class="node">
<title>6121931536</title>
<polygon fill="none" stroke="black" points="2002.5,-191 1889.5,-191 1889.5,-155 2002.5,-155 2002.5,-191"/>
<text text-anchor="middle" x="1946" y="-169.9" font-family="Times,serif" font-size="12.00">Send ticket via SMS</text>
</g>
<!-- 6124413520&#45;&gt;6121931536 -->
<g id="edge20" class="edge">
<title>6124413520&#45;&gt;6121931536</title>
<path fill="none" stroke="black" d="M1778.03,-172.13C1803.88,-172.27 1844.55,-172.48 1879.29,-172.66"/>
<polygon fill="black" stroke="black" points="1879.36,-176.16 1889.38,-172.71 1879.4,-169.16 1879.36,-176.16"/>
</g>
<!-- 6124412112 -->
<g id="node22" class="node">
<title>6124412112</title>
<polygon fill="none" stroke="black" points="2006,-137 1886,-137 1886,-101 2006,-101 2006,-137"/>
<text text-anchor="middle" x="1946" y="-115.9" font-family="Times,serif" font-size="12.00">Update seat inventory</text>
</g>
<!-- 6124413520&#45;&gt;6124412112 -->
<g id="edge21" class="edge">
<title>6124413520&#45;&gt;6124412112</title>
<path fill="none" stroke="black" d="M1770.51,-166.92C1794.67,-160.28 1838.32,-148.3 1875.92,-137.97"/>
<polygon fill="black" stroke="black" points="1877.12,-141.27 1885.83,-135.25 1875.26,-134.52 1877.12,-141.27"/>
</g>
<!-- 6121933520 -->
<g id="node23" class="node">
<title>6121933520</title>
<polygon fill="none" stroke="black" points="2092,-164 2065,-146 2092,-128 2119,-146 2092,-164"/>
<text text-anchor="middle" x="2092" y="-142.9" font-family="Times,serif" font-size="12.00">+</text>
</g>
<!-- 6118696656&#45;&gt;6121933520 -->
<g id="edge22" class="edge">
<title>6118696656&#45;&gt;6121933520</title>
<path fill="none" stroke="black" d="M2003.85,-211.58C2012.53,-208.29 2021.18,-204.45 2029,-200 2045.73,-190.48 2062.04,-176 2073.73,-164.43"/>
<polygon fill="black" stroke="black" points="2076.53,-166.58 2081.04,-156.98 2071.54,-161.67 2076.53,-166.58"/>
</g>
<!-- 6121931536&#45;&gt;6121933520 -->
<g id="edge23" class="edge">
<title>6121931536&#45;&gt;6121933520</title>
<path fill="none" stroke="black" d="M2002.67,-162.56C2022.28,-158.88 2043.59,-154.89 2060.37,-151.74"/>
<polygon fill="black" stroke="black" points="2061.49,-155.09 2070.67,-149.81 2060.2,-148.21 2061.49,-155.09"/>
</g>
<!-- 6117745744 -->
<g id="node24" class="node">
<title>6117745744</title>
<polygon fill="none" stroke="black" points="1356,-86 1329,-68 1356,-50 1383,-68 1356,-86"/>
<text text-anchor="middle" x="1356" y="-64.9" font-family="Times,serif" font-size="12.00">+</text>
</g>
<!-- 6119040720&#45;&gt;6117745744 -->
<g id="edge24" class="edge">
<title>6119040720&#45;&gt;6117745744</title>
<path fill="none" stroke="black" d="M1274.08,-107.89C1280.42,-104.95 1286.9,-101.92 1293,-99 1305.72,-92.91 1319.79,-85.9 1331.3,-80.09"/>
<polygon fill="black" stroke="black" points="1332.95,-83.18 1340.29,-75.53 1329.79,-76.93 1332.95,-83.18"/>
</g>
<!-- 6119041744&#45;&gt;6117745744 -->
<g id="edge25" class="edge">
<title>6119041744&#45;&gt;6117745744</title>
<path fill="none" stroke="black" d="M1289.54,-70.16C1299.83,-69.82 1310.32,-69.48 1319.79,-69.16"/>
<polygon fill="black" stroke="black" points="1320.12,-72.66 1330,-68.83 1319.89,-65.66 1320.12,-72.66"/>
</g>
<!-- 6124410320&#45;&gt;6117745744 -->
<g id="edge26" class="edge">
<title>6124410320&#45;&gt;6117745744</title>
<path fill="none" stroke="black" d="M1277.68,-36.05C1294.95,-43.19 1314.21,-51.14 1329.19,-57.33"/>
<polygon fill="black" stroke="black" points="1328.21,-60.72 1338.79,-61.3 1330.89,-54.25 1328.21,-60.72"/>
</g>
<!-- 6124412112&#45;&gt;6121933520 -->
<g id="edge27" class="edge">
<title>6124412112&#45;&gt;6121933520</title>
<path fill="none" stroke="black" d="M2006.4,-130.14C2024.91,-133.61 2044.56,-137.29 2060.26,-140.24"/>
<polygon fill="black" stroke="black" points="2059.96,-143.74 2070.44,-142.14 2061.25,-136.86 2059.96,-143.74"/>
</g>
<!-- 6122338320 -->
<g id="node29" class="node">
<title>6122338320</title>
<ellipse fill="orange" stroke="black" cx="2173" cy="-146" rx="18" ry="18"/>
</g>
<!-- 6121933520&#45;&gt;6122338320 -->
<g id="edge29" class="edge">
<title>6121933520&#45;&gt;6122338320</title>
<path fill="none" stroke="black" d="M2119.31,-146C2127.42,-146 2136.37,-146 2144.56,-146"/>
<polygon fill="black" stroke="black" points="2144.75,-149.5 2154.75,-146 2144.75,-142.5 2144.75,-149.5"/>
</g>
<!-- 6117751120 -->
<g id="node25" class="node">
<title>6117751120</title>
<polygon fill="none" stroke="black" points="1505,-84 1419,-84 1419,-48 1505,-48 1505,-84"/>
<text text-anchor="middle" x="1462" y="-62.9" font-family="Times,serif" font-size="12.00">Send reminder</text>
</g>
<!-- 6117745744&#45;&gt;6117751120 -->
<g id="edge28" class="edge">
<title>6117745744&#45;&gt;6117751120</title>
<path fill="none" stroke="black" d="M1382.44,-67.51C1390.39,-67.36 1399.48,-67.18 1408.58,-67.01"/>
<polygon fill="black" stroke="black" points="1408.87,-70.5 1418.8,-66.81 1408.74,-63.5 1408.87,-70.5"/>
</g>
<!-- 6118699728 -->
<g id="node26" class="node">
<title>6118699728</title>
<polygon fill="none" stroke="black" points="1639,-83 1541,-83 1541,-47 1639,-47 1639,-83"/>
<text text-anchor="middle" x="1590" y="-61.9" font-family="Times,serif" font-size="12.00">Send instructions</text>
</g>
<!-- 6117751120&#45;&gt;6118699728 -->
<g id="edge30" class="edge">
<title>6117751120&#45;&gt;6118699728</title>
<path fill="none" stroke="black" d="M1505.31,-65.66C1513.53,-65.6 1522.28,-65.53 1530.91,-65.46"/>
<polygon fill="black" stroke="black" points="1530.97,-68.96 1540.94,-65.38 1530.91,-61.96 1530.97,-68.96"/>
</g>
<!-- 6124419216 -->
<g id="node27" class="node">
<title>6124419216</title>
<polygon fill="none" stroke="black" points="1827,-83 1675,-83 1675,-47 1827,-47 1827,-83"/>
<text text-anchor="middle" x="1751" y="-61.9" font-family="Times,serif" font-size="12.00">Customer completes journey</text>
</g>
<!-- 6118699728&#45;&gt;6124419216 -->
<g id="edge31" class="edge">
<title>6118699728&#45;&gt;6124419216</title>
<path fill="none" stroke="black" d="M1639.14,-65C1647.22,-65 1655.81,-65 1664.5,-65"/>
<polygon fill="black" stroke="black" points="1664.73,-68.5 1674.73,-65 1664.73,-61.5 1664.73,-68.5"/>
</g>
<!-- 6124415440 -->
<g id="node28" class="node">
<title>6124415440</title>
<polygon fill="none" stroke="black" points="2029,-83 1863,-83 1863,-47 2029,-47 2029,-83"/>
<text text-anchor="middle" x="1946" y="-61.9" font-family="Times,serif" font-size="12.00">Post&#45;travel feedback or services</text>
</g>
<!-- 6124419216&#45;&gt;6124415440 -->
<g id="edge32" class="edge">
<title>6124419216&#45;&gt;6124415440</title>
<path fill="none" stroke="black" d="M1827.17,-65C1835.54,-65 1844.13,-65 1852.68,-65"/>
<polygon fill="black" stroke="black" points="1852.68,-68.5 1862.68,-65 1852.68,-61.5 1852.68,-68.5"/>
</g>
<!-- 6124415440&#45;&gt;6121933520 -->
<g id="edge33" class="edge">
<title>6124415440&#45;&gt;6121933520</title>
<path fill="none" stroke="black" d="M2010.77,-83.17C2017.08,-85.8 2023.27,-88.74 2029,-92 2045.73,-101.52 2062.04,-116 2073.73,-127.57"/>
<polygon fill="black" stroke="black" points="2071.54,-130.33 2081.04,-135.02 2076.53,-125.42 2071.54,-130.33"/>
</g>
</g>
</svg>
