<?xml version="1.0" encoding="UTF-8" standalone="no"?>
<!DOCTYPE svg PUBLIC "-//W3C//DTD SVG 1.1//EN"
 "http://www.w3.org/Graphics/SVG/1.1/DTD/svg11.dtd">
<!-- Generated by graphviz version 2.50.0 (0)
 -->
<!-- Pages: 1 -->
<svg width="2076pt" height="98pt"
 viewBox="0.00 0.00 2076.00 98.00" xmlns="http://www.w3.org/2000/svg" xmlns:xlink="http://www.w3.org/1999/xlink">
<g id="graph0" class="graph" transform="scale(1 1) rotate(0) translate(4 94)">
<polygon fill="white" stroke="transparent" points="-4,4 -4,-94 2072,-94 2072,4 -4,4"/>
<!-- 6198704976 -->
<g id="node1" class="node">
<title>6198704976</title>
<ellipse fill="green" stroke="black" cx="18" cy="-45" rx="18" ry="18"/>
</g>
<!-- 6198608336 -->
<g id="node2" class="node">
<title>6198608336</title>
<polygon fill="none" stroke="black" points="222,-63 72,-63 72,-27 222,-27 222,-63"/>
<text text-anchor="middle" x="147" y="-41.9" font-family="Times,serif" font-size="12.00">Customer searches for ticket</text>
</g>
<!-- 6198704976&#45;&gt;6198608336 -->
<g id="edge1" class="edge">
<title>6198704976&#45;&gt;6198608336</title>
<path fill="none" stroke="black" d="M36.13,-45C43.26,-45 52.12,-45 61.68,-45"/>
<polygon fill="black" stroke="black" points="61.86,-48.5 71.86,-45 61.86,-41.5 61.86,-48.5"/>
</g>
<!-- 6198608592 -->
<g id="node3" class="node">
<title>6198608592</title>
<polygon fill="none" stroke="black" points="285,-63 258,-45 285,-27 312,-45 285,-63"/>
<text text-anchor="middle" x="285" y="-41.9" font-family="Times,serif" font-size="12.00">+</text>
</g>
<!-- 6198608336&#45;&gt;6198608592 -->
<g id="edge2" class="edge">
<title>6198608336&#45;&gt;6198608592</title>
<path fill="none" stroke="black" d="M222.37,-45C231.15,-45 239.79,-45 247.69,-45"/>
<polygon fill="black" stroke="black" points="247.96,-48.5 257.96,-45 247.96,-41.5 247.96,-48.5"/>
</g>
<!-- 6198611344 -->
<g id="node4" class="node">
<title>6198611344</title>
<polygon fill="none" stroke="black" points="439.5,-90 367.5,-90 367.5,-54 439.5,-54 439.5,-90"/>
<text text-anchor="middle" x="403.5" y="-68.9" font-family="Times,serif" font-size="12.00">Select route</text>
</g>
<!-- 6198608592&#45;&gt;6198611344 -->
<g id="edge3" class="edge">
<title>6198608592&#45;&gt;6198611344</title>
<path fill="none" stroke="black" d="M305.5,-49.52C319.71,-52.81 339.55,-57.41 357.59,-61.59"/>
<polygon fill="black" stroke="black" points="356.84,-65.01 367.38,-63.86 358.42,-58.19 356.84,-65.01"/>
</g>
<!-- 6198952720 -->
<g id="node5" class="node">
<title>6198952720</title>
<polygon fill="none" stroke="black" points="459,-36 348,-36 348,0 459,0 459,-36"/>
<text text-anchor="middle" x="403.5" y="-14.9" font-family="Times,serif" font-size="12.00">Select date and time</text>
</g>
<!-- 6198608592&#45;&gt;6198952720 -->
<g id="edge4" class="edge">
<title>6198608592&#45;&gt;6198952720</title>
<path fill="none" stroke="black" d="M305.5,-40.48C314.66,-38.36 326.16,-35.69 338.01,-32.95"/>
<polygon fill="black" stroke="black" points="339.04,-36.3 348,-30.63 337.46,-29.48 339.04,-36.3"/>
</g>
<!-- 6199240528 -->
<g id="node6" class="node">
<title>6199240528</title>
<polygon fill="none" stroke="black" points="649,-90 495,-90 495,-54 649,-54 649,-90"/>
<text text-anchor="middle" x="572" y="-68.9" font-family="Times,serif" font-size="12.00">Provide personal information</text>
</g>
<!-- 6198611344&#45;&gt;6199240528 -->
<g id="edge5" class="edge">
<title>6198611344&#45;&gt;6199240528</title>
<path fill="none" stroke="black" d="M439.81,-72C453.04,-72 468.73,-72 484.57,-72"/>
<polygon fill="black" stroke="black" points="484.97,-75.5 494.97,-72 484.97,-68.5 484.97,-75.5"/>
</g>
<!-- 6197922896 -->
<g id="node7" class="node">
<title>6197922896</title>
<polygon fill="none" stroke="black" points="637,-36 507,-36 507,0 637,0 637,-36"/>
<text text-anchor="middle" x="572" y="-14.9" font-family="Times,serif" font-size="12.00">Provide payment details</text>
</g>
<!-- 6198952720&#45;&gt;6197922896 -->
<g id="edge6" class="edge">
<title>6198952720&#45;&gt;6197922896</title>
<path fill="none" stroke="black" d="M459.02,-18C471.07,-18 484.03,-18 496.71,-18"/>
<polygon fill="black" stroke="black" points="496.8,-21.5 506.8,-18 496.8,-14.5 496.8,-21.5"/>
</g>
<!-- 6197929040 -->
<g id="node8" class="node">
<title>6197929040</title>
<polygon fill="none" stroke="black" points="712,-63 685,-45 712,-27 739,-45 712,-63"/>
<text text-anchor="middle" x="712" y="-41.9" font-family="Times,serif" font-size="12.00">+</text>
</g>
<!-- 6199240528&#45;&gt;6197929040 -->
<g id="edge7" class="edge">
<title>6199240528&#45;&gt;6197929040</title>
<path fill="none" stroke="black" d="M649.27,-57.08C660.41,-54.9 671.29,-52.77 680.74,-50.92"/>
<polygon fill="black" stroke="black" points="681.6,-54.32 690.74,-48.96 680.26,-47.45 681.6,-54.32"/>
</g>
<!-- 6197922896&#45;&gt;6197929040 -->
<g id="edge8" class="edge">
<title>6197922896&#45;&gt;6197929040</title>
<path fill="none" stroke="black" d="M637.15,-30.55C652.33,-33.52 667.82,-36.55 680.67,-39.07"/>
<polygon fill="black" stroke="black" points="680.29,-42.56 690.78,-41.04 681.63,-35.69 680.29,-42.56"/>
</g>
<!-- 6197930576 -->
<g id="node9" class="node">
<title>6197930576</title>
<polygon fill="none" stroke="black" points="863,-63 775,-63 775,-27 863,-27 863,-63"/>
<text text-anchor="middle" x="819" y="-41.9" font-family="Times,serif" font-size="12.00">Generate ticket</text>
</g>
<!-- 6197929040&#45;&gt;6197930576 -->
<g id="edge9" class="edge">
<title>6197929040&#45;&gt;6197930576</title>
<path fill="none" stroke="black" d="M739.23,-45C747.08,-45 755.99,-45 764.93,-45"/>
<polygon fill="black" stroke="black" points="764.97,-48.5 774.97,-45 764.97,-41.5 764.97,-48.5"/>
</g>
<!-- 6197932112 -->
<g id="node10" class="node">
<title>6197932112</title>
<polygon fill="none" stroke="black" points="926,-63 899,-45 926,-27 953,-45 926,-63"/>
<text text-anchor="middle" x="926" y="-41.9" font-family="Times,serif" font-size="12.00">+</text>
</g>
<!-- 6197930576&#45;&gt;6197932112 -->
<g id="edge10" class="edge">
<title>6197930576&#45;&gt;6197932112</title>
<path fill="none" stroke="black" d="M863.01,-45C871.53,-45 880.4,-45 888.67,-45"/>
<polygon fill="black" stroke="black" points="888.76,-48.5 898.76,-45 888.76,-41.5 888.76,-48.5"/>
</g>
<!-- 6197846992 -->
<g id="node11" class="node">
<title>6197846992</title>
<polygon fill="none" stroke="black" points="1104,-90 989,-90 989,-54 1104,-54 1104,-90"/>
<text text-anchor="middle" x="1046.5" y="-68.9" font-family="Times,serif" font-size="12.00">Send ticket via email</text>
</g>
<!-- 6197932112&#45;&gt;6197846992 -->
<g id="edge12" class="edge">
<title>6197932112&#45;&gt;6197846992</title>
<path fill="none" stroke="black" d="M946.57,-49.46C955.66,-51.53 967.05,-54.13 978.85,-56.81"/>
<polygon fill="black" stroke="black" points="978.28,-60.27 988.81,-59.08 979.83,-53.45 978.28,-60.27"/>
</g>
<!-- 6197932432 -->
<g id="node12" class="node">
<title>6197932432</title>
<polygon fill="none" stroke="black" points="1103,-36 990,-36 990,0 1103,0 1103,-36"/>
<text text-anchor="middle" x="1046.5" y="-14.9" font-family="Times,serif" font-size="12.00">Send ticket via SMS</text>
</g>
<!-- 6197932112&#45;&gt;6197932432 -->
<g id="edge11" class="edge">
<title>6197932112&#45;&gt;6197932432</title>
<path fill="none" stroke="black" d="M946.57,-40.54C955.96,-38.4 967.81,-35.7 980.01,-32.92"/>
<polygon fill="black" stroke="black" points="980.86,-36.32 989.84,-30.68 979.31,-29.49 980.86,-36.32"/>
</g>
<!-- 6197928720 -->
<g id="node13" class="node">
<title>6197928720</title>
<polygon fill="none" stroke="black" points="1167,-63 1140,-45 1167,-27 1194,-45 1167,-63"/>
<text text-anchor="middle" x="1167" y="-41.9" font-family="Times,serif" font-size="12.00">+</text>
</g>
<!-- 6197846992&#45;&gt;6197928720 -->
<g id="edge13" class="edge">
<title>6197846992&#45;&gt;6197928720</title>
<path fill="none" stroke="black" d="M1104.32,-59.05C1115.49,-56.51 1126.77,-53.94 1136.58,-51.7"/>
<polygon fill="black" stroke="black" points="1137.59,-55.06 1146.56,-49.43 1136.04,-48.24 1137.59,-55.06"/>
</g>
<!-- 6197932432&#45;&gt;6197928720 -->
<g id="edge14" class="edge">
<title>6197932432&#45;&gt;6197928720</title>
<path fill="none" stroke="black" d="M1103.28,-30.71C1114.77,-33.33 1126.44,-35.99 1136.55,-38.29"/>
<polygon fill="black" stroke="black" points="1135.91,-41.73 1146.44,-40.54 1137.47,-34.91 1135.91,-41.73"/>
</g>
<!-- 6197922128 -->
<g id="node14" class="node">
<title>6197922128</title>
<polygon fill="none" stroke="black" points="1350,-63 1230,-63 1230,-27 1350,-27 1350,-63"/>
<text text-anchor="middle" x="1290" y="-41.9" font-family="Times,serif" font-size="12.00">Update seat inventory</text>
</g>
<!-- 6197928720&#45;&gt;6197922128 -->
<g id="edge15" class="edge">
<title>6197928720&#45;&gt;6197922128</title>
<path fill="none" stroke="black" d="M1194.26,-45C1201.83,-45 1210.47,-45 1219.39,-45"/>
<polygon fill="black" stroke="black" points="1219.52,-48.5 1229.52,-45 1219.52,-41.5 1219.52,-48.5"/>
</g>
<!-- 6197922256 -->
<g id="node15" class="node">
<title>6197922256</title>
<polygon fill="none" stroke="black" points="1472,-63 1386,-63 1386,-27 1472,-27 1472,-63"/>
<text text-anchor="middle" x="1429" y="-41.9" font-family="Times,serif" font-size="12.00">Send reminder</text>
</g>
<!-- 6197922128&#45;&gt;6197922256 -->
<g id="edge16" class="edge">
<title>6197922128&#45;&gt;6197922256</title>
<path fill="none" stroke="black" d="M1350.29,-45C1358.83,-45 1367.56,-45 1375.94,-45"/>
<polygon fill="black" stroke="black" points="1375.95,-48.5 1385.95,-45 1375.95,-41.5 1375.95,-48.5"/>
</g>
<!-- 6198845648 -->
<g id="node16" class="node">
<title>6198845648</title>
<polygon fill="none" stroke="black" points="1606,-63 1508,-63 1508,-27 1606,-27 1606,-63"/>
<text text-anchor="middle" x="1557" y="-41.9" font-family="Times,serif" font-size="12.00">Send instructions</text>
</g>
<!-- 6197922256&#45;&gt;6198845648 -->
<g id="edge17" class="edge">
<title>6197922256&#45;&gt;6198845648</title>
<path fill="none" stroke="black" d="M1472.31,-45C1480.53,-45 1489.28,-45 1497.91,-45"/>
<polygon fill="black" stroke="black" points="1497.94,-48.5 1507.94,-45 1497.94,-41.5 1497.94,-48.5"/>
</g>
<!-- 6198872208 -->
<g id="node17" class="node">
<title>6198872208</title>
<polygon fill="none" stroke="black" points="1794,-63 1642,-63 1642,-27 1794,-27 1794,-63"/>
<text text-anchor="middle" x="1718" y="-41.9" font-family="Times,serif" font-size="12.00">Customer completes journey</text>
</g>
<!-- 6198845648&#45;&gt;6198872208 -->
<g id="edge18" class="edge">
<title>6198845648&#45;&gt;6198872208</title>
<path fill="none" stroke="black" d="M1606.14,-45C1614.22,-45 1622.81,-45 1631.5,-45"/>
<polygon fill="black" stroke="black" points="1631.73,-48.5 1641.73,-45 1631.73,-41.5 1631.73,-48.5"/>
</g>
<!-- 6198880592 -->
<g id="node18" class="node">
<title>6198880592</title>
<polygon fill="none" stroke="black" points="1996,-63 1830,-63 1830,-27 1996,-27 1996,-63"/>
<text text-anchor="middle" x="1913" y="-41.9" font-family="Times,serif" font-size="12.00">Post&#45;travel feedback or services</text>
</g>
<!-- 6198872208&#45;&gt;6198880592 -->
<g id="edge19" class="edge">
<title>6198872208&#45;&gt;6198880592</title>
<path fill="none" stroke="black" d="M1794.17,-45C1802.54,-45 1811.13,-45 1819.68,-45"/>
<polygon fill="black" stroke="black" points="1819.68,-48.5 1829.68,-45 1819.68,-41.5 1819.68,-48.5"/>
</g>
<!-- 6197915280 -->
<g id="node19" class="node">
<title>6197915280</title>
<ellipse fill="orange" stroke="black" cx="2050" cy="-45" rx="18" ry="18"/>
</g>
<!-- 6198880592&#45;&gt;6197915280 -->
<g id="edge20" class="edge">
<title>6198880592&#45;&gt;6197915280</title>
<path fill="none" stroke="black" d="M1996.03,-45C2005.19,-45 2013.97,-45 2021.66,-45"/>
<polygon fill="black" stroke="black" points="2021.73,-48.5 2031.73,-45 2021.73,-41.5 2021.73,-48.5"/>
</g>
</g>
</svg>
