<?xml version="1.0" encoding="UTF-8" standalone="no"?>
<!DOCTYPE svg PUBLIC "-//W3C//DTD SVG 1.1//EN"
 "http://www.w3.org/Graphics/SVG/1.1/DTD/svg11.dtd">
<!-- Generated by graphviz version 2.50.0 (0)
 -->
<!-- Pages: 1 -->
<svg width="2170pt" height="98pt"
 viewBox="0.00 0.00 2170.00 98.00" xmlns="http://www.w3.org/2000/svg" xmlns:xlink="http://www.w3.org/1999/xlink">
<g id="graph0" class="graph" transform="scale(1 1) rotate(0) translate(4 94)">
<polygon fill="white" stroke="transparent" points="-4,4 -4,-94 2166,-94 2166,4 -4,4"/>
<!-- 6196013456 -->
<g id="node1" class="node">
<title>6196013456</title>
<ellipse fill="green" stroke="black" cx="18" cy="-45" rx="18" ry="18"/>
</g>
<!-- 6193057360 -->
<g id="node2" class="node">
<title>6193057360</title>
<polygon fill="none" stroke="black" points="222,-63 72,-63 72,-27 222,-27 222,-63"/>
<text text-anchor="middle" x="147" y="-41.9" font-family="Times,serif" font-size="12.00">Customer searches for ticket</text>
</g>
<!-- 6196013456&#45;&gt;6193057360 -->
<g id="edge1" class="edge">
<title>6196013456&#45;&gt;6193057360</title>
<path fill="none" stroke="black" d="M36.13,-45C43.26,-45 52.12,-45 61.68,-45"/>
<polygon fill="black" stroke="black" points="61.86,-48.5 71.86,-45 61.86,-41.5 61.86,-48.5"/>
</g>
<!-- 6158030736 -->
<g id="node3" class="node">
<title>6158030736</title>
<polygon fill="none" stroke="black" points="330,-63 258,-63 258,-27 330,-27 330,-63"/>
<text text-anchor="middle" x="294" y="-41.9" font-family="Times,serif" font-size="12.00">Select route</text>
</g>
<!-- 6193057360&#45;&gt;6158030736 -->
<g id="edge2" class="edge">
<title>6193057360&#45;&gt;6158030736</title>
<path fill="none" stroke="black" d="M222.2,-45C230.82,-45 239.41,-45 247.49,-45"/>
<polygon fill="black" stroke="black" points="247.75,-48.5 257.75,-45 247.75,-41.5 247.75,-48.5"/>
</g>
<!-- 6158901968 -->
<g id="node4" class="node">
<title>6158901968</title>
<polygon fill="none" stroke="black" points="477,-63 366,-63 366,-27 477,-27 477,-63"/>
<text text-anchor="middle" x="421.5" y="-41.9" font-family="Times,serif" font-size="12.00">Select date and time</text>
</g>
<!-- 6158030736&#45;&gt;6158901968 -->
<g id="edge3" class="edge">
<title>6158030736&#45;&gt;6158901968</title>
<path fill="none" stroke="black" d="M330.29,-45C338.21,-45 346.86,-45 355.56,-45"/>
<polygon fill="black" stroke="black" points="355.77,-48.5 365.77,-45 355.77,-41.5 355.77,-48.5"/>
</g>
<!-- 6193056656 -->
<g id="node5" class="node">
<title>6193056656</title>
<polygon fill="none" stroke="black" points="667,-63 513,-63 513,-27 667,-27 667,-63"/>
<text text-anchor="middle" x="590" y="-41.9" font-family="Times,serif" font-size="12.00">Provide personal information</text>
</g>
<!-- 6158901968&#45;&gt;6193056656 -->
<g id="edge4" class="edge">
<title>6158901968&#45;&gt;6193056656</title>
<path fill="none" stroke="black" d="M477.02,-45C485.27,-45 493.94,-45 502.67,-45"/>
<polygon fill="black" stroke="black" points="502.9,-48.5 512.9,-45 502.9,-41.5 502.9,-48.5"/>
</g>
<!-- 6193058832 -->
<g id="node6" class="node">
<title>6193058832</title>
<polygon fill="none" stroke="black" points="833,-63 703,-63 703,-27 833,-27 833,-63"/>
<text text-anchor="middle" x="768" y="-41.9" font-family="Times,serif" font-size="12.00">Provide payment details</text>
</g>
<!-- 6193056656&#45;&gt;6193058832 -->
<g id="edge5" class="edge">
<title>6193056656&#45;&gt;6193058832</title>
<path fill="none" stroke="black" d="M667.17,-45C675.63,-45 684.23,-45 692.66,-45"/>
<polygon fill="black" stroke="black" points="692.84,-48.5 702.84,-45 692.84,-41.5 692.84,-48.5"/>
</g>
<!-- 6158030608 -->
<g id="node7" class="node">
<title>6158030608</title>
<polygon fill="none" stroke="black" points="957,-63 869,-63 869,-27 957,-27 957,-63"/>
<text text-anchor="middle" x="913" y="-41.9" font-family="Times,serif" font-size="12.00">Generate ticket</text>
</g>
<!-- 6193058832&#45;&gt;6158030608 -->
<g id="edge6" class="edge">
<title>6193058832&#45;&gt;6158030608</title>
<path fill="none" stroke="black" d="M833.39,-45C841.83,-45 850.41,-45 858.64,-45"/>
<polygon fill="black" stroke="black" points="858.85,-48.5 868.85,-45 858.85,-41.5 858.85,-48.5"/>
</g>
<!-- 6158027088 -->
<g id="node8" class="node">
<title>6158027088</title>
<polygon fill="none" stroke="black" points="1020,-63 993,-45 1020,-27 1047,-45 1020,-63"/>
<text text-anchor="middle" x="1020" y="-41.9" font-family="Times,serif" font-size="12.00">+</text>
</g>
<!-- 6158030608&#45;&gt;6158027088 -->
<g id="edge7" class="edge">
<title>6158030608&#45;&gt;6158027088</title>
<path fill="none" stroke="black" d="M957.01,-45C965.53,-45 974.4,-45 982.67,-45"/>
<polygon fill="black" stroke="black" points="982.76,-48.5 992.76,-45 982.76,-41.5 982.76,-48.5"/>
</g>
<!-- 6193054864 -->
<g id="node9" class="node">
<title>6193054864</title>
<polygon fill="none" stroke="black" points="1197,-90 1084,-90 1084,-54 1197,-54 1197,-90"/>
<text text-anchor="middle" x="1140.5" y="-68.9" font-family="Times,serif" font-size="12.00">Send ticket via SMS</text>
</g>
<!-- 6158027088&#45;&gt;6193054864 -->
<g id="edge8" class="edge">
<title>6158027088&#45;&gt;6193054864</title>
<path fill="none" stroke="black" d="M1040.57,-49.46C1049.96,-51.6 1061.81,-54.3 1074.01,-57.08"/>
<polygon fill="black" stroke="black" points="1073.31,-60.51 1083.84,-59.32 1074.86,-53.68 1073.31,-60.51"/>
</g>
<!-- 6159029904 -->
<g id="node10" class="node">
<title>6159029904</title>
<polygon fill="none" stroke="black" points="1198,-36 1083,-36 1083,0 1198,0 1198,-36"/>
<text text-anchor="middle" x="1140.5" y="-14.9" font-family="Times,serif" font-size="12.00">Send ticket via email</text>
</g>
<!-- 6158027088&#45;&gt;6159029904 -->
<g id="edge9" class="edge">
<title>6158027088&#45;&gt;6159029904</title>
<path fill="none" stroke="black" d="M1040.57,-40.54C1049.66,-38.47 1061.05,-35.87 1072.85,-33.19"/>
<polygon fill="black" stroke="black" points="1073.83,-36.55 1082.81,-30.92 1072.28,-29.73 1073.83,-36.55"/>
</g>
<!-- 6158039184 -->
<g id="node11" class="node">
<title>6158039184</title>
<polygon fill="none" stroke="black" points="1261,-63 1234,-45 1261,-27 1288,-45 1261,-63"/>
<text text-anchor="middle" x="1261" y="-41.9" font-family="Times,serif" font-size="12.00">+</text>
</g>
<!-- 6193054864&#45;&gt;6158039184 -->
<g id="edge10" class="edge">
<title>6193054864&#45;&gt;6158039184</title>
<path fill="none" stroke="black" d="M1197.28,-59.29C1208.77,-56.67 1220.44,-54.01 1230.55,-51.71"/>
<polygon fill="black" stroke="black" points="1231.47,-55.09 1240.44,-49.46 1229.91,-48.27 1231.47,-55.09"/>
</g>
<!-- 6159029904&#45;&gt;6158039184 -->
<g id="edge11" class="edge">
<title>6159029904&#45;&gt;6158039184</title>
<path fill="none" stroke="black" d="M1198.32,-30.95C1209.49,-33.49 1220.77,-36.06 1230.58,-38.3"/>
<polygon fill="black" stroke="black" points="1230.04,-41.76 1240.56,-40.57 1231.59,-34.94 1230.04,-41.76"/>
</g>
<!-- 6193610448 -->
<g id="node12" class="node">
<title>6193610448</title>
<polygon fill="none" stroke="black" points="1444,-63 1324,-63 1324,-27 1444,-27 1444,-63"/>
<text text-anchor="middle" x="1384" y="-41.9" font-family="Times,serif" font-size="12.00">Update seat inventory</text>
</g>
<!-- 6158039184&#45;&gt;6193610448 -->
<g id="edge12" class="edge">
<title>6158039184&#45;&gt;6193610448</title>
<path fill="none" stroke="black" d="M1288.26,-45C1295.83,-45 1304.47,-45 1313.39,-45"/>
<polygon fill="black" stroke="black" points="1313.52,-48.5 1323.52,-45 1313.52,-41.5 1313.52,-48.5"/>
</g>
<!-- 6193017168 -->
<g id="node13" class="node">
<title>6193017168</title>
<polygon fill="none" stroke="black" points="1566,-63 1480,-63 1480,-27 1566,-27 1566,-63"/>
<text text-anchor="middle" x="1523" y="-41.9" font-family="Times,serif" font-size="12.00">Send reminder</text>
</g>
<!-- 6193610448&#45;&gt;6193017168 -->
<g id="edge13" class="edge">
<title>6193610448&#45;&gt;6193017168</title>
<path fill="none" stroke="black" d="M1444.29,-45C1452.83,-45 1461.56,-45 1469.94,-45"/>
<polygon fill="black" stroke="black" points="1469.95,-48.5 1479.95,-45 1469.95,-41.5 1469.95,-48.5"/>
</g>
<!-- 6135892240 -->
<g id="node14" class="node">
<title>6135892240</title>
<polygon fill="none" stroke="black" points="1700,-63 1602,-63 1602,-27 1700,-27 1700,-63"/>
<text text-anchor="middle" x="1651" y="-41.9" font-family="Times,serif" font-size="12.00">Send instructions</text>
</g>
<!-- 6193017168&#45;&gt;6135892240 -->
<g id="edge14" class="edge">
<title>6193017168&#45;&gt;6135892240</title>
<path fill="none" stroke="black" d="M1566.31,-45C1574.53,-45 1583.28,-45 1591.91,-45"/>
<polygon fill="black" stroke="black" points="1591.94,-48.5 1601.94,-45 1591.94,-41.5 1591.94,-48.5"/>
</g>
<!-- 6193006096 -->
<g id="node15" class="node">
<title>6193006096</title>
<polygon fill="none" stroke="black" points="1888,-63 1736,-63 1736,-27 1888,-27 1888,-63"/>
<text text-anchor="middle" x="1812" y="-41.9" font-family="Times,serif" font-size="12.00">Customer completes journey</text>
</g>
<!-- 6135892240&#45;&gt;6193006096 -->
<g id="edge15" class="edge">
<title>6135892240&#45;&gt;6193006096</title>
<path fill="none" stroke="black" d="M1700.14,-45C1708.22,-45 1716.81,-45 1725.5,-45"/>
<polygon fill="black" stroke="black" points="1725.73,-48.5 1735.73,-45 1725.73,-41.5 1725.73,-48.5"/>
</g>
<!-- 6159032592 -->
<g id="node16" class="node">
<title>6159032592</title>
<polygon fill="none" stroke="black" points="2090,-63 1924,-63 1924,-27 2090,-27 2090,-63"/>
<text text-anchor="middle" x="2007" y="-41.9" font-family="Times,serif" font-size="12.00">Post&#45;travel feedback or services</text>
</g>
<!-- 6193006096&#45;&gt;6159032592 -->
<g id="edge16" class="edge">
<title>6193006096&#45;&gt;6159032592</title>
<path fill="none" stroke="black" d="M1888.17,-45C1896.54,-45 1905.13,-45 1913.68,-45"/>
<polygon fill="black" stroke="black" points="1913.68,-48.5 1923.68,-45 1913.68,-41.5 1913.68,-48.5"/>
</g>
<!-- 6196184336 -->
<g id="node17" class="node">
<title>6196184336</title>
<ellipse fill="orange" stroke="black" cx="2144" cy="-45" rx="18" ry="18"/>
</g>
<!-- 6159032592&#45;&gt;6196184336 -->
<g id="edge17" class="edge">
<title>6159032592&#45;&gt;6196184336</title>
<path fill="none" stroke="black" d="M2090.03,-45C2099.19,-45 2107.97,-45 2115.66,-45"/>
<polygon fill="black" stroke="black" points="2115.73,-48.5 2125.73,-45 2115.73,-41.5 2115.73,-48.5"/>
</g>
</g>
</svg>
