<?xml version="1.0" encoding="UTF-8" standalone="no"?>
<!DOCTYPE svg PUBLIC "-//W3C//DTD SVG 1.1//EN"
 "http://www.w3.org/Graphics/SVG/1.1/DTD/svg11.dtd">
<!-- Generated by graphviz version 2.50.0 (0)
 -->
<!-- Pages: 1 -->
<svg width="2139pt" height="44pt"
 viewBox="0.00 0.00 2139.00 44.00" xmlns="http://www.w3.org/2000/svg" xmlns:xlink="http://www.w3.org/1999/xlink">
<g id="graph0" class="graph" transform="scale(1 1) rotate(0) translate(4 40)">
<polygon fill="white" stroke="transparent" points="-4,4 -4,-40 2135,-40 2135,4 -4,4"/>
<!-- 6195248144 -->
<g id="node1" class="node">
<title>6195248144</title>
<ellipse fill="green" stroke="black" cx="18" cy="-18" rx="18" ry="18"/>
</g>
<!-- 6195177936 -->
<g id="node2" class="node">
<title>6195177936</title>
<polygon fill="none" stroke="black" points="222,-36 72,-36 72,0 222,0 222,-36"/>
<text text-anchor="middle" x="147" y="-14.9" font-family="Times,serif" font-size="12.00">Customer searches for ticket</text>
</g>
<!-- 6195248144&#45;&gt;6195177936 -->
<g id="edge1" class="edge">
<title>6195248144&#45;&gt;6195177936</title>
<path fill="none" stroke="black" d="M36.13,-18C43.26,-18 52.12,-18 61.68,-18"/>
<polygon fill="black" stroke="black" points="61.86,-21.5 71.86,-18 61.86,-14.5 61.86,-21.5"/>
</g>
<!-- 6195976208 -->
<g id="node3" class="node">
<title>6195976208</title>
<polygon fill="none" stroke="black" points="330,-36 258,-36 258,0 330,0 330,-36"/>
<text text-anchor="middle" x="294" y="-14.9" font-family="Times,serif" font-size="12.00">Select route</text>
</g>
<!-- 6195177936&#45;&gt;6195976208 -->
<g id="edge2" class="edge">
<title>6195177936&#45;&gt;6195976208</title>
<path fill="none" stroke="black" d="M222.2,-18C230.82,-18 239.41,-18 247.49,-18"/>
<polygon fill="black" stroke="black" points="247.75,-21.5 257.75,-18 247.75,-14.5 247.75,-21.5"/>
</g>
<!-- 6193158416 -->
<g id="node4" class="node">
<title>6193158416</title>
<polygon fill="none" stroke="black" points="477,-36 366,-36 366,0 477,0 477,-36"/>
<text text-anchor="middle" x="421.5" y="-14.9" font-family="Times,serif" font-size="12.00">Select date and time</text>
</g>
<!-- 6195976208&#45;&gt;6193158416 -->
<g id="edge3" class="edge">
<title>6195976208&#45;&gt;6193158416</title>
<path fill="none" stroke="black" d="M330.29,-18C338.21,-18 346.86,-18 355.56,-18"/>
<polygon fill="black" stroke="black" points="355.77,-21.5 365.77,-18 355.77,-14.5 355.77,-21.5"/>
</g>
<!-- 6195970576 -->
<g id="node5" class="node">
<title>6195970576</title>
<polygon fill="none" stroke="black" points="667,-36 513,-36 513,0 667,0 667,-36"/>
<text text-anchor="middle" x="590" y="-14.9" font-family="Times,serif" font-size="12.00">Provide personal information</text>
</g>
<!-- 6193158416&#45;&gt;6195970576 -->
<g id="edge4" class="edge">
<title>6193158416&#45;&gt;6195970576</title>
<path fill="none" stroke="black" d="M477.02,-18C485.27,-18 493.94,-18 502.67,-18"/>
<polygon fill="black" stroke="black" points="502.9,-21.5 512.9,-18 502.9,-14.5 502.9,-21.5"/>
</g>
<!-- 6193167888 -->
<g id="node6" class="node">
<title>6193167888</title>
<polygon fill="none" stroke="black" points="833,-36 703,-36 703,0 833,0 833,-36"/>
<text text-anchor="middle" x="768" y="-14.9" font-family="Times,serif" font-size="12.00">Provide payment details</text>
</g>
<!-- 6195970576&#45;&gt;6193167888 -->
<g id="edge5" class="edge">
<title>6195970576&#45;&gt;6193167888</title>
<path fill="none" stroke="black" d="M667.17,-18C675.63,-18 684.23,-18 692.66,-18"/>
<polygon fill="black" stroke="black" points="692.84,-21.5 702.84,-18 692.84,-14.5 692.84,-21.5"/>
</g>
<!-- 6195807568 -->
<g id="node7" class="node">
<title>6195807568</title>
<polygon fill="none" stroke="black" points="957,-36 869,-36 869,0 957,0 957,-36"/>
<text text-anchor="middle" x="913" y="-14.9" font-family="Times,serif" font-size="12.00">Generate ticket</text>
</g>
<!-- 6193167888&#45;&gt;6195807568 -->
<g id="edge6" class="edge">
<title>6193167888&#45;&gt;6195807568</title>
<path fill="none" stroke="black" d="M833.39,-18C841.83,-18 850.41,-18 858.64,-18"/>
<polygon fill="black" stroke="black" points="858.85,-21.5 868.85,-18 858.85,-14.5 858.85,-21.5"/>
</g>
<!-- 6195976720 -->
<g id="node8" class="node">
<title>6195976720</title>
<polygon fill="none" stroke="black" points="1108,-36 993,-36 993,0 1108,0 1108,-36"/>
<text text-anchor="middle" x="1050.5" y="-14.9" font-family="Times,serif" font-size="12.00">Send ticket via email</text>
</g>
<!-- 6195807568&#45;&gt;6195976720 -->
<g id="edge7" class="edge">
<title>6195807568&#45;&gt;6195976720</title>
<path fill="none" stroke="black" d="M957.25,-18C965.37,-18 974.04,-18 982.7,-18"/>
<polygon fill="black" stroke="black" points="982.81,-21.5 992.81,-18 982.81,-14.5 982.81,-21.5"/>
</g>
<!-- 6195972944 -->
<g id="node9" class="node">
<title>6195972944</title>
<polygon fill="none" stroke="black" points="1257,-36 1144,-36 1144,0 1257,0 1257,-36"/>
<text text-anchor="middle" x="1200.5" y="-14.9" font-family="Times,serif" font-size="12.00">Send ticket via SMS</text>
</g>
<!-- 6195976720&#45;&gt;6195972944 -->
<g id="edge8" class="edge">
<title>6195976720&#45;&gt;6195972944</title>
<path fill="none" stroke="black" d="M1108.3,-18C1116.53,-18 1125.06,-18 1133.45,-18"/>
<polygon fill="black" stroke="black" points="1133.59,-21.5 1143.59,-18 1133.59,-14.5 1133.59,-21.5"/>
</g>
<!-- 6195974928 -->
<g id="node10" class="node">
<title>6195974928</title>
<polygon fill="none" stroke="black" points="1413,-36 1293,-36 1293,0 1413,0 1413,-36"/>
<text text-anchor="middle" x="1353" y="-14.9" font-family="Times,serif" font-size="12.00">Update seat inventory</text>
</g>
<!-- 6195972944&#45;&gt;6195974928 -->
<g id="edge9" class="edge">
<title>6195972944&#45;&gt;6195974928</title>
<path fill="none" stroke="black" d="M1257.11,-18C1265.48,-18 1274.19,-18 1282.8,-18"/>
<polygon fill="black" stroke="black" points="1282.83,-21.5 1292.83,-18 1282.83,-14.5 1282.83,-21.5"/>
</g>
<!-- 6117902288 -->
<g id="node11" class="node">
<title>6117902288</title>
<polygon fill="none" stroke="black" points="1535,-36 1449,-36 1449,0 1535,0 1535,-36"/>
<text text-anchor="middle" x="1492" y="-14.9" font-family="Times,serif" font-size="12.00">Send reminder</text>
</g>
<!-- 6195974928&#45;&gt;6117902288 -->
<g id="edge10" class="edge">
<title>6195974928&#45;&gt;6117902288</title>
<path fill="none" stroke="black" d="M1413.29,-18C1421.83,-18 1430.56,-18 1438.94,-18"/>
<polygon fill="black" stroke="black" points="1438.95,-21.5 1448.95,-18 1438.95,-14.5 1438.95,-21.5"/>
</g>
<!-- 6195256208 -->
<g id="node12" class="node">
<title>6195256208</title>
<polygon fill="none" stroke="black" points="1669,-36 1571,-36 1571,0 1669,0 1669,-36"/>
<text text-anchor="middle" x="1620" y="-14.9" font-family="Times,serif" font-size="12.00">Send instructions</text>
</g>
<!-- 6117902288&#45;&gt;6195256208 -->
<g id="edge11" class="edge">
<title>6117902288&#45;&gt;6195256208</title>
<path fill="none" stroke="black" d="M1535.31,-18C1543.53,-18 1552.28,-18 1560.91,-18"/>
<polygon fill="black" stroke="black" points="1560.94,-21.5 1570.94,-18 1560.94,-14.5 1560.94,-21.5"/>
</g>
<!-- 6195262544 -->
<g id="node13" class="node">
<title>6195262544</title>
<polygon fill="none" stroke="black" points="1857,-36 1705,-36 1705,0 1857,0 1857,-36"/>
<text text-anchor="middle" x="1781" y="-14.9" font-family="Times,serif" font-size="12.00">Customer completes journey</text>
</g>
<!-- 6195256208&#45;&gt;6195262544 -->
<g id="edge12" class="edge">
<title>6195256208&#45;&gt;6195262544</title>
<path fill="none" stroke="black" d="M1669.14,-18C1677.22,-18 1685.81,-18 1694.5,-18"/>
<polygon fill="black" stroke="black" points="1694.73,-21.5 1704.73,-18 1694.73,-14.5 1694.73,-21.5"/>
</g>
<!-- 6195178512 -->
<g id="node14" class="node">
<title>6195178512</title>
<polygon fill="none" stroke="black" points="2059,-36 1893,-36 1893,0 2059,0 2059,-36"/>
<text text-anchor="middle" x="1976" y="-14.9" font-family="Times,serif" font-size="12.00">Post&#45;travel feedback or services</text>
</g>
<!-- 6195262544&#45;&gt;6195178512 -->
<g id="edge13" class="edge">
<title>6195262544&#45;&gt;6195178512</title>
<path fill="none" stroke="black" d="M1857.17,-18C1865.54,-18 1874.13,-18 1882.68,-18"/>
<polygon fill="black" stroke="black" points="1882.68,-21.5 1892.68,-18 1882.68,-14.5 1882.68,-21.5"/>
</g>
<!-- 6193026640 -->
<g id="node15" class="node">
<title>6193026640</title>
<ellipse fill="orange" stroke="black" cx="2113" cy="-18" rx="18" ry="18"/>
</g>
<!-- 6195178512&#45;&gt;6193026640 -->
<g id="edge14" class="edge">
<title>6195178512&#45;&gt;6193026640</title>
<path fill="none" stroke="black" d="M2059.03,-18C2068.19,-18 2076.97,-18 2084.66,-18"/>
<polygon fill="black" stroke="black" points="2084.73,-21.5 2094.73,-18 2084.73,-14.5 2084.73,-21.5"/>
</g>
</g>
</svg>
