<?xml version="1.0" encoding="UTF-8" standalone="no"?>
<!DOCTYPE svg PUBLIC "-//W3C//DTD SVG 1.1//EN"
 "http://www.w3.org/Graphics/SVG/1.1/DTD/svg11.dtd">
<!-- Generated by graphviz version 2.50.0 (0)
 -->
<!-- Pages: 1 -->
<svg width="2244pt" height="152pt"
 viewBox="0.00 0.00 2244.00 152.00" xmlns="http://www.w3.org/2000/svg" xmlns:xlink="http://www.w3.org/1999/xlink">
<g id="graph0" class="graph" transform="scale(1 1) rotate(0) translate(4 148)">
<polygon fill="white" stroke="transparent" points="-4,4 -4,-148 2240,-148 2240,4 -4,4"/>
<!-- 6158562576 -->
<g id="node1" class="node">
<title>6158562576</title>
<ellipse fill="green" stroke="black" cx="18" cy="-72" rx="18" ry="18"/>
</g>
<!-- 6159710480 -->
<g id="node2" class="node">
<title>6159710480</title>
<polygon fill="none" stroke="black" points="222,-90 72,-90 72,-54 222,-54 222,-90"/>
<text text-anchor="middle" x="147" y="-68.9" font-family="Times,serif" font-size="12.00">Customer searches for ticket</text>
</g>
<!-- 6158562576&#45;&gt;6159710480 -->
<g id="edge1" class="edge">
<title>6158562576&#45;&gt;6159710480</title>
<path fill="none" stroke="black" d="M36.13,-72C43.26,-72 52.12,-72 61.68,-72"/>
<polygon fill="black" stroke="black" points="61.86,-75.5 71.86,-72 61.86,-68.5 61.86,-75.5"/>
</g>
<!-- 6159697680 -->
<g id="node3" class="node">
<title>6159697680</title>
<polygon fill="none" stroke="black" points="285,-90 258,-72 285,-54 312,-72 285,-90"/>
<text text-anchor="middle" x="285" y="-68.9" font-family="Times,serif" font-size="12.00">+</text>
</g>
<!-- 6159710480&#45;&gt;6159697680 -->
<g id="edge2" class="edge">
<title>6159710480&#45;&gt;6159697680</title>
<path fill="none" stroke="black" d="M222.37,-72C231.15,-72 239.79,-72 247.69,-72"/>
<polygon fill="black" stroke="black" points="247.96,-75.5 257.96,-72 247.96,-68.5 247.96,-75.5"/>
</g>
<!-- 6159701200 -->
<g id="node4" class="node">
<title>6159701200</title>
<polygon fill="none" stroke="black" points="461,-144 389,-144 389,-108 461,-108 461,-144"/>
<text text-anchor="middle" x="425" y="-122.9" font-family="Times,serif" font-size="12.00">Select route</text>
</g>
<!-- 6159697680&#45;&gt;6159701200 -->
<g id="edge3" class="edge">
<title>6159697680&#45;&gt;6159701200</title>
<path fill="none" stroke="black" d="M301.42,-79.07C313.89,-84.7 331.95,-92.66 348,-99 357.97,-102.94 368.77,-106.93 379.01,-110.6"/>
<polygon fill="black" stroke="black" points="378.03,-113.96 388.62,-114 380.36,-107.36 378.03,-113.96"/>
</g>
<!-- 6159707152 -->
<g id="node5" class="node">
<title>6159707152</title>
<polygon fill="none" stroke="black" points="480.5,-90 369.5,-90 369.5,-54 480.5,-54 480.5,-90"/>
<text text-anchor="middle" x="425" y="-68.9" font-family="Times,serif" font-size="12.00">Select date and time</text>
</g>
<!-- 6159697680&#45;&gt;6159707152 -->
<g id="edge5" class="edge">
<title>6159697680&#45;&gt;6159707152</title>
<path fill="none" stroke="black" d="M312.28,-72C325.62,-72 342.48,-72 359.02,-72"/>
<polygon fill="black" stroke="black" points="359.25,-75.5 369.25,-72 359.25,-68.5 359.25,-75.5"/>
</g>
<!-- 6159708880 -->
<g id="node6" class="node">
<title>6159708880</title>
<polygon fill="none" stroke="black" points="502,-36 348,-36 348,0 502,0 502,-36"/>
<text text-anchor="middle" x="425" y="-14.9" font-family="Times,serif" font-size="12.00">Provide personal information</text>
</g>
<!-- 6159697680&#45;&gt;6159708880 -->
<g id="edge4" class="edge">
<title>6159697680&#45;&gt;6159708880</title>
<path fill="none" stroke="black" d="M301.42,-64.93C313.89,-59.3 331.95,-51.34 348,-45 352.49,-43.23 357.14,-41.45 361.83,-39.69"/>
<polygon fill="black" stroke="black" points="363.33,-42.87 371.49,-36.12 360.9,-36.3 363.33,-42.87"/>
</g>
<!-- 6158554768 -->
<g id="node7" class="node">
<title>6158554768</title>
<polygon fill="none" stroke="black" points="565,-90 538,-72 565,-54 592,-72 565,-90"/>
<text text-anchor="middle" x="565" y="-68.9" font-family="Times,serif" font-size="12.00">+</text>
</g>
<!-- 6159701200&#45;&gt;6158554768 -->
<g id="edge6" class="edge">
<title>6159701200&#45;&gt;6158554768</title>
<path fill="none" stroke="black" d="M461.38,-114C474.24,-109.49 488.85,-104.19 502,-99 514.42,-94.1 528.03,-88.22 539.33,-83.21"/>
<polygon fill="black" stroke="black" points="540.89,-86.35 548.58,-79.07 538.02,-79.96 540.89,-86.35"/>
</g>
<!-- 6159707152&#45;&gt;6158554768 -->
<g id="edge7" class="edge">
<title>6159707152&#45;&gt;6158554768</title>
<path fill="none" stroke="black" d="M480.54,-72C496.42,-72 513.38,-72 527.83,-72"/>
<polygon fill="black" stroke="black" points="527.86,-75.5 537.86,-72 527.86,-68.5 527.86,-75.5"/>
</g>
<!-- 6159708880&#45;&gt;6158554768 -->
<g id="edge8" class="edge">
<title>6159708880&#45;&gt;6158554768</title>
<path fill="none" stroke="black" d="M478.51,-36.12C486.41,-39 494.45,-42.02 502,-45 514.42,-49.9 528.03,-55.78 539.33,-60.79"/>
<polygon fill="black" stroke="black" points="538.02,-64.04 548.58,-64.93 540.89,-57.65 538.02,-64.04"/>
</g>
<!-- 6158554960 -->
<g id="node8" class="node">
<title>6158554960</title>
<polygon fill="none" stroke="black" points="758,-90 628,-90 628,-54 758,-54 758,-90"/>
<text text-anchor="middle" x="693" y="-68.9" font-family="Times,serif" font-size="12.00">Provide payment details</text>
</g>
<!-- 6158554768&#45;&gt;6158554960 -->
<g id="edge9" class="edge">
<title>6158554768&#45;&gt;6158554960</title>
<path fill="none" stroke="black" d="M592.11,-72C599.84,-72 608.71,-72 617.91,-72"/>
<polygon fill="black" stroke="black" points="617.98,-75.5 627.98,-72 617.98,-68.5 617.98,-75.5"/>
</g>
<!-- 6159698896 -->
<g id="node9" class="node">
<title>6159698896</title>
<polygon fill="none" stroke="black" points="882,-90 794,-90 794,-54 882,-54 882,-90"/>
<text text-anchor="middle" x="838" y="-68.9" font-family="Times,serif" font-size="12.00">Generate ticket</text>
</g>
<!-- 6158554960&#45;&gt;6159698896 -->
<g id="edge10" class="edge">
<title>6158554960&#45;&gt;6159698896</title>
<path fill="none" stroke="black" d="M758.39,-72C766.83,-72 775.41,-72 783.64,-72"/>
<polygon fill="black" stroke="black" points="783.85,-75.5 793.85,-72 783.85,-68.5 783.85,-75.5"/>
</g>
<!-- 6159697040 -->
<g id="node10" class="node">
<title>6159697040</title>
<polygon fill="none" stroke="black" points="1031,-90 918,-90 918,-54 1031,-54 1031,-90"/>
<text text-anchor="middle" x="974.5" y="-68.9" font-family="Times,serif" font-size="12.00">Send ticket via SMS</text>
</g>
<!-- 6159698896&#45;&gt;6159697040 -->
<g id="edge11" class="edge">
<title>6159698896&#45;&gt;6159697040</title>
<path fill="none" stroke="black" d="M882.3,-72C890.47,-72 899.18,-72 907.85,-72"/>
<polygon fill="black" stroke="black" points="907.99,-75.5 917.99,-72 907.99,-68.5 907.99,-75.5"/>
</g>
<!-- 6159686416 -->
<g id="node11" class="node">
<title>6159686416</title>
<polygon fill="none" stroke="black" points="1165,-90 1067,-90 1067,-54 1165,-54 1165,-90"/>
<text text-anchor="middle" x="1116" y="-68.9" font-family="Times,serif" font-size="12.00">Send instructions</text>
</g>
<!-- 6159697040&#45;&gt;6159686416 -->
<g id="edge12" class="edge">
<title>6159697040&#45;&gt;6159686416</title>
<path fill="none" stroke="black" d="M1031.03,-72C1039.46,-72 1048.18,-72 1056.66,-72"/>
<polygon fill="black" stroke="black" points="1056.86,-75.5 1066.86,-72 1056.86,-68.5 1056.86,-75.5"/>
</g>
<!-- 6159703312 -->
<g id="node12" class="node">
<title>6159703312</title>
<polygon fill="none" stroke="black" points="1287,-90 1201,-90 1201,-54 1287,-54 1287,-90"/>
<text text-anchor="middle" x="1244" y="-68.9" font-family="Times,serif" font-size="12.00">Send reminder</text>
</g>
<!-- 6159686416&#45;&gt;6159703312 -->
<g id="edge13" class="edge">
<title>6159686416&#45;&gt;6159703312</title>
<path fill="none" stroke="black" d="M1165.35,-72C1173.64,-72 1182.29,-72 1190.68,-72"/>
<polygon fill="black" stroke="black" points="1190.74,-75.5 1200.74,-72 1190.74,-68.5 1190.74,-75.5"/>
</g>
<!-- 6159710736 -->
<g id="node13" class="node">
<title>6159710736</title>
<polygon fill="none" stroke="black" points="1438,-90 1323,-90 1323,-54 1438,-54 1438,-90"/>
<text text-anchor="middle" x="1380.5" y="-68.9" font-family="Times,serif" font-size="12.00">Send ticket via email</text>
</g>
<!-- 6159703312&#45;&gt;6159710736 -->
<g id="edge14" class="edge">
<title>6159703312&#45;&gt;6159710736</title>
<path fill="none" stroke="black" d="M1287.19,-72C1295.27,-72 1303.92,-72 1312.56,-72"/>
<polygon fill="black" stroke="black" points="1312.67,-75.5 1322.67,-72 1312.67,-68.5 1312.67,-75.5"/>
</g>
<!-- 6159691024 -->
<g id="node14" class="node">
<title>6159691024</title>
<polygon fill="none" stroke="black" points="1594,-90 1474,-90 1474,-54 1594,-54 1594,-90"/>
<text text-anchor="middle" x="1534" y="-68.9" font-family="Times,serif" font-size="12.00">Update seat inventory</text>
</g>
<!-- 6159710736&#45;&gt;6159691024 -->
<g id="edge15" class="edge">
<title>6159710736&#45;&gt;6159691024</title>
<path fill="none" stroke="black" d="M1438.34,-72C1446.58,-72 1455.14,-72 1463.59,-72"/>
<polygon fill="black" stroke="black" points="1463.81,-75.5 1473.81,-72 1463.81,-68.5 1463.81,-75.5"/>
</g>
<!-- 6159705296 -->
<g id="node15" class="node">
<title>6159705296</title>
<polygon fill="none" stroke="black" points="1782,-90 1630,-90 1630,-54 1782,-54 1782,-90"/>
<text text-anchor="middle" x="1706" y="-68.9" font-family="Times,serif" font-size="12.00">Customer completes journey</text>
</g>
<!-- 6159691024&#45;&gt;6159705296 -->
<g id="edge16" class="edge">
<title>6159691024&#45;&gt;6159705296</title>
<path fill="none" stroke="black" d="M1594.46,-72C1602.65,-72 1611.19,-72 1619.73,-72"/>
<polygon fill="black" stroke="black" points="1619.74,-75.5 1629.74,-72 1619.74,-68.5 1619.74,-75.5"/>
</g>
<!-- 6158553744 -->
<g id="node16" class="node">
<title>6158553744</title>
<polygon fill="none" stroke="black" points="1845,-90 1818,-72 1845,-54 1872,-72 1845,-90"/>
<text text-anchor="middle" x="1845" y="-68.9" font-family="Times,serif" font-size="12.00">X</text>
</g>
<!-- 6159705296&#45;&gt;6158553744 -->
<g id="edge17" class="edge">
<title>6159705296&#45;&gt;6158553744</title>
<path fill="none" stroke="black" d="M1782.31,-72C1791.22,-72 1799.97,-72 1807.96,-72"/>
<polygon fill="black" stroke="black" points="1807.96,-75.5 1817.96,-72 1807.96,-68.5 1807.96,-75.5"/>
</g>
<!-- 6158552720 -->
<g id="node17" class="node">
<title>6158552720</title>
<polygon fill="none" stroke="black" points="2137,-90 2110,-72 2137,-54 2164,-72 2137,-90"/>
<text text-anchor="middle" x="2137" y="-68.9" font-family="Times,serif" font-size="12.00">X</text>
</g>
<!-- 6158553744&#45;&gt;6158552720 -->
<g id="edge18" class="edge">
<title>6158553744&#45;&gt;6158552720</title>
<path fill="none" stroke="black" d="M1869.24,-73.86C1880.87,-74.69 1895.17,-75.59 1908,-76 1981.74,-78.38 2000.26,-78.38 2074,-76 2083.32,-75.7 2093.42,-75.15 2102.7,-74.54"/>
<polygon fill="black" stroke="black" points="2103.02,-78.03 2112.76,-73.86 2102.54,-71.05 2103.02,-78.03"/>
</g>
<!-- 6159687248 -->
<g id="node18" class="node">
<title>6159687248</title>
<polygon fill="none" stroke="black" points="2074,-67 1908,-67 1908,-31 2074,-31 2074,-67"/>
<text text-anchor="middle" x="1991" y="-45.9" font-family="Times,serif" font-size="12.00">Post&#45;travel feedback or services</text>
</g>
<!-- 6158553744&#45;&gt;6159687248 -->
<g id="edge19" class="edge">
<title>6158553744&#45;&gt;6159687248</title>
<path fill="none" stroke="black" d="M1867.25,-68.61C1875.84,-67.23 1886.39,-65.55 1897.67,-63.75"/>
<polygon fill="black" stroke="black" points="1898.42,-67.17 1907.74,-62.14 1897.31,-60.26 1898.42,-67.17"/>
</g>
<!-- 6158616464 -->
<g id="node19" class="node">
<title>6158616464</title>
<ellipse fill="orange" stroke="black" cx="2218" cy="-72" rx="18" ry="18"/>
</g>
<!-- 6158552720&#45;&gt;6158616464 -->
<g id="edge21" class="edge">
<title>6158552720&#45;&gt;6158616464</title>
<path fill="none" stroke="black" d="M2164.31,-72C2172.42,-72 2181.37,-72 2189.56,-72"/>
<polygon fill="black" stroke="black" points="2189.75,-75.5 2199.75,-72 2189.75,-68.5 2189.75,-75.5"/>
</g>
<!-- 6159687248&#45;&gt;6158552720 -->
<g id="edge20" class="edge">
<title>6159687248&#45;&gt;6158552720</title>
<path fill="none" stroke="black" d="M2074.1,-62.11C2084.99,-63.85 2095.57,-65.54 2104.81,-67.02"/>
<polygon fill="black" stroke="black" points="2104.56,-70.52 2114.98,-68.64 2105.66,-63.61 2104.56,-70.52"/>
</g>
</g>
</svg>
