<?xml version="1.0" encoding="UTF-8" standalone="no"?>
<!DOCTYPE svg PUBLIC "-//W3C//DTD SVG 1.1//EN"
 "http://www.w3.org/Graphics/SVG/1.1/DTD/svg11.dtd">
<!-- Generated by graphviz version 2.50.0 (0)
 -->
<!-- Pages: 1 -->
<svg width="3916pt" height="98pt"
 viewBox="0.00 0.00 3916.00 98.00" xmlns="http://www.w3.org/2000/svg" xmlns:xlink="http://www.w3.org/1999/xlink">
<g id="graph0" class="graph" transform="scale(1 1) rotate(0) translate(4 94)">
<polygon fill="white" stroke="transparent" points="-4,4 -4,-94 3912,-94 3912,4 -4,4"/>
<!-- 6157353552 -->
<g id="node1" class="node">
<title>6157353552</title>
<ellipse fill="green" stroke="black" cx="18" cy="-45" rx="18" ry="18"/>
</g>
<!-- 6155080016 -->
<g id="node2" class="node">
<title>6155080016</title>
<polygon fill="none" stroke="black" points="224,-63 72,-63 72,-27 224,-27 224,-63"/>
<text text-anchor="middle" x="148" y="-41.9" font-family="Times,serif" font-size="12.00">Customer completes journey</text>
</g>
<!-- 6157353552&#45;&gt;6155080016 -->
<g id="edge1" class="edge">
<title>6157353552&#45;&gt;6155080016</title>
<path fill="none" stroke="black" d="M36.26,-45C43.4,-45 52.25,-45 61.81,-45"/>
<polygon fill="black" stroke="black" points="61.99,-48.5 71.99,-45 61.99,-41.5 61.99,-48.5"/>
</g>
<!-- 6154414608 -->
<g id="node3" class="node">
<title>6154414608</title>
<polygon fill="none" stroke="black" points="346,-63 260,-63 260,-27 346,-27 346,-63"/>
<text text-anchor="middle" x="303" y="-41.9" font-family="Times,serif" font-size="12.00">Send reminder</text>
</g>
<!-- 6155080016&#45;&gt;6154414608 -->
<g id="edge2" class="edge">
<title>6155080016&#45;&gt;6154414608</title>
<path fill="none" stroke="black" d="M224.16,-45C232.76,-45 241.39,-45 249.61,-45"/>
<polygon fill="black" stroke="black" points="249.77,-48.5 259.77,-45 249.77,-41.5 249.77,-48.5"/>
</g>
<!-- 6155088784 -->
<g id="node4" class="node">
<title>6155088784</title>
<polygon fill="none" stroke="black" points="532,-63 382,-63 382,-27 532,-27 532,-63"/>
<text text-anchor="middle" x="457" y="-41.9" font-family="Times,serif" font-size="12.00">Customer searches for ticket</text>
</g>
<!-- 6154414608&#45;&gt;6155088784 -->
<g id="edge3" class="edge">
<title>6154414608&#45;&gt;6155088784</title>
<path fill="none" stroke="black" d="M346.34,-45C354.3,-45 362.87,-45 371.59,-45"/>
<polygon fill="black" stroke="black" points="371.87,-48.5 381.87,-45 371.87,-41.5 371.87,-48.5"/>
</g>
<!-- 6157556240 -->
<g id="node5" class="node">
<title>6157556240</title>
<polygon fill="none" stroke="black" points="688,-63 568,-63 568,-27 688,-27 688,-63"/>
<text text-anchor="middle" x="628" y="-41.9" font-family="Times,serif" font-size="12.00">Update seat inventory</text>
</g>
<!-- 6155088784&#45;&gt;6157556240 -->
<g id="edge4" class="edge">
<title>6155088784&#45;&gt;6157556240</title>
<path fill="none" stroke="black" d="M532.13,-45C540.64,-45 549.29,-45 557.74,-45"/>
<polygon fill="black" stroke="black" points="557.91,-48.5 567.91,-45 557.91,-41.5 557.91,-48.5"/>
</g>
<!-- 6157557904 -->
<g id="node6" class="node">
<title>6157557904</title>
<polygon fill="none" stroke="black" points="874,-63 724,-63 724,-27 874,-27 874,-63"/>
<text text-anchor="middle" x="799" y="-41.9" font-family="Times,serif" font-size="12.00">Customer searches for ticket</text>
</g>
<!-- 6157556240&#45;&gt;6157557904 -->
<g id="edge5" class="edge">
<title>6157556240&#45;&gt;6157557904</title>
<path fill="none" stroke="black" d="M688.11,-45C696.39,-45 705.02,-45 713.66,-45"/>
<polygon fill="black" stroke="black" points="713.77,-48.5 723.77,-45 713.77,-41.5 713.77,-48.5"/>
</g>
<!-- 6157557712 -->
<g id="node7" class="node">
<title>6157557712</title>
<polygon fill="none" stroke="black" points="937,-63 910,-45 937,-27 964,-45 937,-63"/>
<text text-anchor="middle" x="937" y="-41.9" font-family="Times,serif" font-size="12.00">+</text>
</g>
<!-- 6157557904&#45;&gt;6157557712 -->
<g id="edge6" class="edge">
<title>6157557904&#45;&gt;6157557712</title>
<path fill="none" stroke="black" d="M874.37,-45C883.15,-45 891.79,-45 899.69,-45"/>
<polygon fill="black" stroke="black" points="899.96,-48.5 909.96,-45 899.96,-41.5 899.96,-48.5"/>
</g>
<!-- 6154416848 -->
<g id="node8" class="node">
<title>6154416848</title>
<polygon fill="none" stroke="black" points="1111,-90 1000,-90 1000,-54 1111,-54 1111,-90"/>
<text text-anchor="middle" x="1055.5" y="-68.9" font-family="Times,serif" font-size="12.00">Select date and time</text>
</g>
<!-- 6157557712&#45;&gt;6154416848 -->
<g id="edge8" class="edge">
<title>6157557712&#45;&gt;6154416848</title>
<path fill="none" stroke="black" d="M957.5,-49.52C966.66,-51.64 978.16,-54.31 990.01,-57.05"/>
<polygon fill="black" stroke="black" points="989.46,-60.52 1000,-59.37 991.04,-53.7 989.46,-60.52"/>
</g>
<!-- 6157564432 -->
<g id="node9" class="node">
<title>6157564432</title>
<polygon fill="none" stroke="black" points="1091.5,-36 1019.5,-36 1019.5,0 1091.5,0 1091.5,-36"/>
<text text-anchor="middle" x="1055.5" y="-14.9" font-family="Times,serif" font-size="12.00">Select route</text>
</g>
<!-- 6157557712&#45;&gt;6157564432 -->
<g id="edge7" class="edge">
<title>6157557712&#45;&gt;6157564432</title>
<path fill="none" stroke="black" d="M957.5,-40.48C971.71,-37.19 991.55,-32.59 1009.59,-28.41"/>
<polygon fill="black" stroke="black" points="1010.42,-31.81 1019.38,-26.14 1008.84,-24.99 1010.42,-31.81"/>
</g>
<!-- 6157557520 -->
<g id="node10" class="node">
<title>6157557520</title>
<polygon fill="none" stroke="black" points="1174,-63 1147,-45 1174,-27 1201,-45 1174,-63"/>
<text text-anchor="middle" x="1174" y="-41.9" font-family="Times,serif" font-size="12.00">+</text>
</g>
<!-- 6154416848&#45;&gt;6157557520 -->
<g id="edge9" class="edge">
<title>6154416848&#45;&gt;6157557520</title>
<path fill="none" stroke="black" d="M1111.34,-59.29C1122.43,-56.72 1133.69,-54.11 1143.5,-51.84"/>
<polygon fill="black" stroke="black" points="1144.55,-55.19 1153.5,-49.52 1142.97,-48.37 1144.55,-55.19"/>
</g>
<!-- 6157564432&#45;&gt;6157557520 -->
<g id="edge10" class="edge">
<title>6157564432&#45;&gt;6157557520</title>
<path fill="none" stroke="black" d="M1091.77,-26.17C1108.36,-30.02 1127.91,-34.55 1143.68,-38.2"/>
<polygon fill="black" stroke="black" points="1142.89,-41.61 1153.42,-40.46 1144.47,-34.8 1142.89,-41.61"/>
</g>
<!-- 6157561296 -->
<g id="node11" class="node">
<title>6157561296</title>
<polygon fill="none" stroke="black" points="1367,-63 1237,-63 1237,-27 1367,-27 1367,-63"/>
<text text-anchor="middle" x="1302" y="-41.9" font-family="Times,serif" font-size="12.00">Provide payment details</text>
</g>
<!-- 6157557520&#45;&gt;6157561296 -->
<g id="edge11" class="edge">
<title>6157557520&#45;&gt;6157561296</title>
<path fill="none" stroke="black" d="M1201.11,-45C1208.84,-45 1217.71,-45 1226.91,-45"/>
<polygon fill="black" stroke="black" points="1226.98,-48.5 1236.98,-45 1226.98,-41.5 1226.98,-48.5"/>
</g>
<!-- 6157562768 -->
<g id="node12" class="node">
<title>6157562768</title>
<polygon fill="none" stroke="black" points="1491,-63 1403,-63 1403,-27 1491,-27 1491,-63"/>
<text text-anchor="middle" x="1447" y="-41.9" font-family="Times,serif" font-size="12.00">Generate ticket</text>
</g>
<!-- 6157561296&#45;&gt;6157562768 -->
<g id="edge12" class="edge">
<title>6157561296&#45;&gt;6157562768</title>
<path fill="none" stroke="black" d="M1367.39,-45C1375.83,-45 1384.41,-45 1392.64,-45"/>
<polygon fill="black" stroke="black" points="1392.85,-48.5 1402.85,-45 1392.85,-41.5 1392.85,-48.5"/>
</g>
<!-- 6157559632 -->
<g id="node13" class="node">
<title>6157559632</title>
<polygon fill="none" stroke="black" points="1554,-63 1527,-45 1554,-27 1581,-45 1554,-63"/>
<text text-anchor="middle" x="1554" y="-41.9" font-family="Times,serif" font-size="12.00">+</text>
</g>
<!-- 6157562768&#45;&gt;6157559632 -->
<g id="edge13" class="edge">
<title>6157562768&#45;&gt;6157559632</title>
<path fill="none" stroke="black" d="M1491.01,-45C1499.53,-45 1508.4,-45 1516.67,-45"/>
<polygon fill="black" stroke="black" points="1516.76,-48.5 1526.76,-45 1516.76,-41.5 1516.76,-48.5"/>
</g>
<!-- 6157353488 -->
<g id="node14" class="node">
<title>6157353488</title>
<polygon fill="none" stroke="black" points="1730,-88 1617,-88 1617,-52 1730,-52 1730,-88"/>
<text text-anchor="middle" x="1673.5" y="-66.9" font-family="Times,serif" font-size="12.00">Send ticket via SMS</text>
</g>
<!-- 6157559632&#45;&gt;6157353488 -->
<g id="edge14" class="edge">
<title>6157559632&#45;&gt;6157353488</title>
<path fill="none" stroke="black" d="M1574.93,-49.24C1584.04,-51.18 1595.39,-53.59 1607.11,-56.09"/>
<polygon fill="black" stroke="black" points="1606.48,-59.53 1616.99,-58.19 1607.94,-52.68 1606.48,-59.53"/>
</g>
<!-- 6155078480 -->
<g id="node15" class="node">
<title>6155078480</title>
<polygon fill="none" stroke="black" points="1881,-36 1766,-36 1766,0 1881,0 1881,-36"/>
<text text-anchor="middle" x="1823.5" y="-14.9" font-family="Times,serif" font-size="12.00">Send ticket via email</text>
</g>
<!-- 6157559632&#45;&gt;6155078480 -->
<g id="edge15" class="edge">
<title>6157559632&#45;&gt;6155078480</title>
<path fill="none" stroke="black" d="M1577.81,-42.7C1616.78,-38.76 1697.62,-30.61 1755.72,-24.74"/>
<polygon fill="black" stroke="black" points="1756.33,-28.2 1765.93,-23.71 1755.63,-21.23 1756.33,-28.2"/>
</g>
<!-- 6154412304 -->
<g id="node16" class="node">
<title>6154412304</title>
<polygon fill="none" stroke="black" points="1872.5,-90 1774.5,-90 1774.5,-54 1872.5,-54 1872.5,-90"/>
<text text-anchor="middle" x="1823.5" y="-68.9" font-family="Times,serif" font-size="12.00">Send instructions</text>
</g>
<!-- 6157353488&#45;&gt;6154412304 -->
<g id="edge16" class="edge">
<title>6157353488&#45;&gt;6154412304</title>
<path fill="none" stroke="black" d="M1730.03,-70.75C1741.21,-70.9 1752.99,-71.06 1764.26,-71.21"/>
<polygon fill="black" stroke="black" points="1764.38,-74.71 1774.43,-71.35 1764.48,-67.72 1764.38,-74.71"/>
</g>
<!-- 6155091600 -->
<g id="node17" class="node">
<title>6155091600</title>
<polygon fill="none" stroke="black" points="2134,-63 2107,-45 2134,-27 2161,-45 2134,-63"/>
<text text-anchor="middle" x="2134" y="-41.9" font-family="Times,serif" font-size="12.00">+</text>
</g>
<!-- 6155078480&#45;&gt;6155091600 -->
<g id="edge17" class="edge">
<title>6155078480&#45;&gt;6155091600</title>
<path fill="none" stroke="black" d="M1881.08,-22.95C1945.2,-28.56 2047.57,-37.52 2099.88,-42.1"/>
<polygon fill="black" stroke="black" points="2099.68,-45.6 2109.95,-42.98 2100.29,-38.62 2099.68,-45.6"/>
</g>
<!-- 6157563856 -->
<g id="node18" class="node">
<title>6157563856</title>
<polygon fill="none" stroke="black" points="2071,-88 1917,-88 1917,-52 2071,-52 2071,-88"/>
<text text-anchor="middle" x="1994" y="-66.9" font-family="Times,serif" font-size="12.00">Provide personal information</text>
</g>
<!-- 6154412304&#45;&gt;6157563856 -->
<g id="edge18" class="edge">
<title>6154412304&#45;&gt;6157563856</title>
<path fill="none" stroke="black" d="M1872.79,-71.43C1883.39,-71.3 1894.93,-71.16 1906.53,-71.03"/>
<polygon fill="black" stroke="black" points="1906.76,-74.52 1916.71,-70.91 1906.67,-67.52 1906.76,-74.52"/>
</g>
<!-- 6155091088 -->
<g id="node19" class="node">
<title>6155091088</title>
<polygon fill="none" stroke="black" points="2363,-63 2197,-63 2197,-27 2363,-27 2363,-63"/>
<text text-anchor="middle" x="2280" y="-41.9" font-family="Times,serif" font-size="12.00">Post&#45;travel feedback or services</text>
</g>
<!-- 6155091600&#45;&gt;6155091088 -->
<g id="edge19" class="edge">
<title>6155091600&#45;&gt;6155091088</title>
<path fill="none" stroke="black" d="M2161.08,-45C2168.64,-45 2177.35,-45 2186.56,-45"/>
<polygon fill="black" stroke="black" points="2186.7,-48.5 2196.7,-45 2186.7,-41.5 2186.7,-48.5"/>
</g>
<!-- 6157563856&#45;&gt;6155091600 -->
<g id="edge20" class="edge">
<title>6157563856&#45;&gt;6155091600</title>
<path fill="none" stroke="black" d="M2071.27,-56.18C2082.32,-54.18 2093.12,-52.23 2102.51,-50.52"/>
<polygon fill="black" stroke="black" points="2103.25,-53.95 2112.47,-48.72 2102,-47.06 2103.25,-53.95"/>
</g>
<!-- 6154408272 -->
<g id="node20" class="node">
<title>6154408272</title>
<polygon fill="none" stroke="black" points="2549,-63 2399,-63 2399,-27 2549,-27 2549,-63"/>
<text text-anchor="middle" x="2474" y="-41.9" font-family="Times,serif" font-size="12.00">Customer searches for ticket</text>
</g>
<!-- 6155091088&#45;&gt;6154408272 -->
<g id="edge21" class="edge">
<title>6155091088&#45;&gt;6154408272</title>
<path fill="none" stroke="black" d="M2363.26,-45C2371.65,-45 2380.19,-45 2388.61,-45"/>
<polygon fill="black" stroke="black" points="2388.8,-48.5 2398.8,-45 2388.8,-41.5 2388.8,-48.5"/>
</g>
<!-- 6154411344 -->
<g id="node21" class="node">
<title>6154411344</title>
<polygon fill="none" stroke="black" points="2612,-63 2585,-45 2612,-27 2639,-45 2612,-63"/>
<text text-anchor="middle" x="2612" y="-41.9" font-family="Times,serif" font-size="12.00">+</text>
</g>
<!-- 6154408272&#45;&gt;6154411344 -->
<g id="edge22" class="edge">
<title>6154408272&#45;&gt;6154411344</title>
<path fill="none" stroke="black" d="M2549.37,-45C2558.15,-45 2566.79,-45 2574.69,-45"/>
<polygon fill="black" stroke="black" points="2574.96,-48.5 2584.96,-45 2574.96,-41.5 2574.96,-48.5"/>
</g>
<!-- 6154406032 -->
<g id="node22" class="node">
<title>6154406032</title>
<polygon fill="none" stroke="black" points="2786,-90 2675,-90 2675,-54 2786,-54 2786,-90"/>
<text text-anchor="middle" x="2730.5" y="-68.9" font-family="Times,serif" font-size="12.00">Select date and time</text>
</g>
<!-- 6154411344&#45;&gt;6154406032 -->
<g id="edge23" class="edge">
<title>6154411344&#45;&gt;6154406032</title>
<path fill="none" stroke="black" d="M2632.5,-49.52C2641.66,-51.64 2653.16,-54.31 2665.01,-57.05"/>
<polygon fill="black" stroke="black" points="2664.46,-60.52 2675,-59.37 2666.04,-53.7 2664.46,-60.52"/>
</g>
<!-- 6155082512 -->
<g id="node23" class="node">
<title>6155082512</title>
<polygon fill="none" stroke="black" points="2766.5,-36 2694.5,-36 2694.5,0 2766.5,0 2766.5,-36"/>
<text text-anchor="middle" x="2730.5" y="-14.9" font-family="Times,serif" font-size="12.00">Select route</text>
</g>
<!-- 6154411344&#45;&gt;6155082512 -->
<g id="edge24" class="edge">
<title>6154411344&#45;&gt;6155082512</title>
<path fill="none" stroke="black" d="M2632.5,-40.48C2646.71,-37.19 2666.55,-32.59 2684.59,-28.41"/>
<polygon fill="black" stroke="black" points="2685.42,-31.81 2694.38,-26.14 2683.84,-24.99 2685.42,-31.81"/>
</g>
<!-- 6155076816 -->
<g id="node24" class="node">
<title>6155076816</title>
<polygon fill="none" stroke="black" points="2849,-63 2822,-45 2849,-27 2876,-45 2849,-63"/>
<text text-anchor="middle" x="2849" y="-41.9" font-family="Times,serif" font-size="12.00">+</text>
</g>
<!-- 6154406032&#45;&gt;6155076816 -->
<g id="edge25" class="edge">
<title>6154406032&#45;&gt;6155076816</title>
<path fill="none" stroke="black" d="M2786.34,-59.29C2797.43,-56.72 2808.69,-54.11 2818.5,-51.84"/>
<polygon fill="black" stroke="black" points="2819.55,-55.19 2828.5,-49.52 2817.97,-48.37 2819.55,-55.19"/>
</g>
<!-- 6155082512&#45;&gt;6155076816 -->
<g id="edge26" class="edge">
<title>6155082512&#45;&gt;6155076816</title>
<path fill="none" stroke="black" d="M2766.77,-26.17C2783.36,-30.02 2802.91,-34.55 2818.68,-38.2"/>
<polygon fill="black" stroke="black" points="2817.89,-41.61 2828.42,-40.46 2819.47,-34.8 2817.89,-41.61"/>
</g>
<!-- 6155076432 -->
<g id="node25" class="node">
<title>6155076432</title>
<polygon fill="none" stroke="black" points="3042,-63 2912,-63 2912,-27 3042,-27 3042,-63"/>
<text text-anchor="middle" x="2977" y="-41.9" font-family="Times,serif" font-size="12.00">Provide payment details</text>
</g>
<!-- 6155076816&#45;&gt;6155076432 -->
<g id="edge27" class="edge">
<title>6155076816&#45;&gt;6155076432</title>
<path fill="none" stroke="black" d="M2876.11,-45C2883.84,-45 2892.71,-45 2901.91,-45"/>
<polygon fill="black" stroke="black" points="2901.98,-48.5 2911.98,-45 2901.98,-41.5 2901.98,-48.5"/>
</g>
<!-- 6157554512 -->
<g id="node26" class="node">
<title>6157554512</title>
<polygon fill="none" stroke="black" points="3166,-63 3078,-63 3078,-27 3166,-27 3166,-63"/>
<text text-anchor="middle" x="3122" y="-41.9" font-family="Times,serif" font-size="12.00">Generate ticket</text>
</g>
<!-- 6155076432&#45;&gt;6157554512 -->
<g id="edge28" class="edge">
<title>6155076432&#45;&gt;6157554512</title>
<path fill="none" stroke="black" d="M3042.39,-45C3050.83,-45 3059.41,-45 3067.64,-45"/>
<polygon fill="black" stroke="black" points="3067.85,-48.5 3077.85,-45 3067.85,-41.5 3067.85,-48.5"/>
</g>
<!-- 6157554128 -->
<g id="node27" class="node">
<title>6157554128</title>
<polygon fill="none" stroke="black" points="3229,-63 3202,-45 3229,-27 3256,-45 3229,-63"/>
<text text-anchor="middle" x="3229" y="-41.9" font-family="Times,serif" font-size="12.00">+</text>
</g>
<!-- 6157554512&#45;&gt;6157554128 -->
<g id="edge29" class="edge">
<title>6157554512&#45;&gt;6157554128</title>
<path fill="none" stroke="black" d="M3166.01,-45C3174.53,-45 3183.4,-45 3191.67,-45"/>
<polygon fill="black" stroke="black" points="3191.76,-48.5 3201.76,-45 3191.76,-41.5 3191.76,-48.5"/>
</g>
<!-- 6154418192 -->
<g id="node28" class="node">
<title>6154418192</title>
<polygon fill="none" stroke="black" points="3405,-88 3292,-88 3292,-52 3405,-52 3405,-88"/>
<text text-anchor="middle" x="3348.5" y="-66.9" font-family="Times,serif" font-size="12.00">Send ticket via SMS</text>
</g>
<!-- 6157554128&#45;&gt;6154418192 -->
<g id="edge30" class="edge">
<title>6157554128&#45;&gt;6154418192</title>
<path fill="none" stroke="black" d="M3249.93,-49.24C3259.04,-51.18 3270.39,-53.59 3282.11,-56.09"/>
<polygon fill="black" stroke="black" points="3281.48,-59.53 3291.99,-58.19 3282.94,-52.68 3281.48,-59.53"/>
</g>
<!-- 6155083024 -->
<g id="node29" class="node">
<title>6155083024</title>
<polygon fill="none" stroke="black" points="3556,-36 3441,-36 3441,0 3556,0 3556,-36"/>
<text text-anchor="middle" x="3498.5" y="-14.9" font-family="Times,serif" font-size="12.00">Send ticket via email</text>
</g>
<!-- 6157554128&#45;&gt;6155083024 -->
<g id="edge31" class="edge">
<title>6157554128&#45;&gt;6155083024</title>
<path fill="none" stroke="black" d="M3252.81,-42.7C3291.78,-38.76 3372.62,-30.61 3430.72,-24.74"/>
<polygon fill="black" stroke="black" points="3431.33,-28.2 3440.93,-23.71 3430.63,-21.23 3431.33,-28.2"/>
</g>
<!-- 6157355792 -->
<g id="node30" class="node">
<title>6157355792</title>
<polygon fill="none" stroke="black" points="3547.5,-90 3449.5,-90 3449.5,-54 3547.5,-54 3547.5,-90"/>
<text text-anchor="middle" x="3498.5" y="-68.9" font-family="Times,serif" font-size="12.00">Send instructions</text>
</g>
<!-- 6154418192&#45;&gt;6157355792 -->
<g id="edge32" class="edge">
<title>6154418192&#45;&gt;6157355792</title>
<path fill="none" stroke="black" d="M3405.03,-70.75C3416.21,-70.9 3427.99,-71.06 3439.26,-71.21"/>
<polygon fill="black" stroke="black" points="3439.38,-74.71 3449.43,-71.35 3439.48,-67.72 3439.38,-74.71"/>
</g>
<!-- 6155090064 -->
<g id="node31" class="node">
<title>6155090064</title>
<polygon fill="none" stroke="black" points="3809,-63 3782,-45 3809,-27 3836,-45 3809,-63"/>
<text text-anchor="middle" x="3809" y="-41.9" font-family="Times,serif" font-size="12.00">+</text>
</g>
<!-- 6155083024&#45;&gt;6155090064 -->
<g id="edge33" class="edge">
<title>6155083024&#45;&gt;6155090064</title>
<path fill="none" stroke="black" d="M3556.08,-22.95C3620.2,-28.56 3722.57,-37.52 3774.88,-42.1"/>
<polygon fill="black" stroke="black" points="3774.68,-45.6 3784.95,-42.98 3775.29,-38.62 3774.68,-45.6"/>
</g>
<!-- 6153034640 -->
<g id="node32" class="node">
<title>6153034640</title>
<polygon fill="none" stroke="black" points="3746,-88 3592,-88 3592,-52 3746,-52 3746,-88"/>
<text text-anchor="middle" x="3669" y="-66.9" font-family="Times,serif" font-size="12.00">Provide personal information</text>
</g>
<!-- 6157355792&#45;&gt;6153034640 -->
<g id="edge34" class="edge">
<title>6157355792&#45;&gt;6153034640</title>
<path fill="none" stroke="black" d="M3547.79,-71.43C3558.39,-71.3 3569.93,-71.16 3581.53,-71.03"/>
<polygon fill="black" stroke="black" points="3581.76,-74.52 3591.71,-70.91 3581.67,-67.52 3581.76,-74.52"/>
</g>
<!-- 6154456464 -->
<g id="node33" class="node">
<title>6154456464</title>
<ellipse fill="orange" stroke="black" cx="3890" cy="-45" rx="18" ry="18"/>
</g>
<!-- 6155090064&#45;&gt;6154456464 -->
<g id="edge35" class="edge">
<title>6155090064&#45;&gt;6154456464</title>
<path fill="none" stroke="black" d="M3836.31,-45C3844.42,-45 3853.37,-45 3861.56,-45"/>
<polygon fill="black" stroke="black" points="3861.75,-48.5 3871.75,-45 3861.75,-41.5 3861.75,-48.5"/>
</g>
<!-- 6153034640&#45;&gt;6155090064 -->
<g id="edge36" class="edge">
<title>6153034640&#45;&gt;6155090064</title>
<path fill="none" stroke="black" d="M3746.27,-56.18C3757.32,-54.18 3768.12,-52.23 3777.51,-50.52"/>
<polygon fill="black" stroke="black" points="3778.25,-53.95 3787.47,-48.72 3777,-47.06 3778.25,-53.95"/>
</g>
</g>
</svg>
