<?xml version="1.0" encoding="UTF-8" standalone="no"?>
<!DOCTYPE svg PUBLIC "-//W3C//DTD SVG 1.1//EN"
 "http://www.w3.org/Graphics/SVG/1.1/DTD/svg11.dtd">
<!-- Generated by graphviz version 2.50.0 (0)
 -->
<!-- Pages: 1 -->
<svg width="3438pt" height="152pt"
 viewBox="0.00 0.00 3438.00 152.00" xmlns="http://www.w3.org/2000/svg" xmlns:xlink="http://www.w3.org/1999/xlink">
<g id="graph0" class="graph" transform="scale(1 1) rotate(0) translate(4 148)">
<polygon fill="white" stroke="transparent" points="-4,4 -4,-148 3434,-148 3434,4 -4,4"/>
<!-- 12970076048 -->
<g id="node1" class="node">
<title>12970076048</title>
<ellipse fill="green" stroke="black" cx="18" cy="-72" rx="18" ry="18"/>
</g>
<!-- 12970807120 -->
<g id="node2" class="node">
<title>12970807120</title>
<polygon fill="none" stroke="black" points="169,-90 72,-90 72,-54 169,-54 169,-90"/>
<text text-anchor="middle" x="120.5" y="-68.9" font-family="Times,serif" font-size="12.00">Send notification</text>
</g>
<!-- 12970076048&#45;&gt;12970807120 -->
<g id="edge1" class="edge">
<title>12970076048&#45;&gt;12970807120</title>
<path fill="none" stroke="black" d="M36.05,-72C43.29,-72 52.19,-72 61.45,-72"/>
<polygon fill="black" stroke="black" points="61.59,-75.5 71.59,-72 61.59,-68.5 61.59,-75.5"/>
</g>
<!-- 13089100048 -->
<g id="node3" class="node">
<title>13089100048</title>
<polygon fill="none" stroke="black" points="353,-90 205,-90 205,-54 353,-54 353,-90"/>
<text text-anchor="middle" x="279" y="-68.9" font-family="Times,serif" font-size="12.00">Prepare financial statements</text>
</g>
<!-- 12970807120&#45;&gt;13089100048 -->
<g id="edge2" class="edge">
<title>12970807120&#45;&gt;13089100048</title>
<path fill="none" stroke="black" d="M169.31,-72C177.38,-72 185.97,-72 194.64,-72"/>
<polygon fill="black" stroke="black" points="194.84,-75.5 204.84,-72 194.84,-68.5 194.84,-75.5"/>
</g>
<!-- 12967881424 -->
<g id="node4" class="node">
<title>12967881424</title>
<polygon fill="none" stroke="black" points="541,-90 389,-90 389,-54 541,-54 541,-90"/>
<text text-anchor="middle" x="465" y="-68.9" font-family="Times,serif" font-size="12.00">Gather necessary documents</text>
</g>
<!-- 13089100048&#45;&gt;12967881424 -->
<g id="edge3" class="edge">
<title>13089100048&#45;&gt;12967881424</title>
<path fill="none" stroke="black" d="M353.25,-72C361.68,-72 370.33,-72 378.89,-72"/>
<polygon fill="black" stroke="black" points="378.89,-75.5 388.89,-72 378.89,-68.5 378.89,-75.5"/>
</g>
<!-- 12970809616 -->
<g id="node5" class="node">
<title>12970809616</title>
<polygon fill="none" stroke="black" points="714,-90 577,-90 577,-54 714,-54 714,-90"/>
<text text-anchor="middle" x="645.5" y="-68.9" font-family="Times,serif" font-size="12.00">Check regulatory updates</text>
</g>
<!-- 12967881424&#45;&gt;12970809616 -->
<g id="edge4" class="edge">
<title>12967881424&#45;&gt;12970809616</title>
<path fill="none" stroke="black" d="M541.18,-72C549.58,-72 558.15,-72 566.58,-72"/>
<polygon fill="black" stroke="black" points="566.78,-75.5 576.78,-72 566.78,-68.5 566.78,-75.5"/>
</g>
<!-- 13095205968 -->
<g id="node6" class="node">
<title>13095205968</title>
<polygon fill="none" stroke="black" points="854,-90 750,-90 750,-54 854,-54 854,-90"/>
<text text-anchor="middle" x="802" y="-68.9" font-family="Times,serif" font-size="12.00">Submit documents</text>
</g>
<!-- 12970809616&#45;&gt;13095205968 -->
<g id="edge5" class="edge">
<title>12970809616&#45;&gt;13095205968</title>
<path fill="none" stroke="black" d="M714.27,-72C722.59,-72 731.06,-72 739.29,-72"/>
<polygon fill="black" stroke="black" points="739.55,-75.5 749.55,-72 739.55,-68.5 739.55,-75.5"/>
</g>
<!-- 13089110160 -->
<g id="node7" class="node">
<title>13089110160</title>
<polygon fill="none" stroke="black" points="999,-90 890,-90 890,-54 999,-54 999,-90"/>
<text text-anchor="middle" x="944.5" y="-68.9" font-family="Times,serif" font-size="12.00">Review submission</text>
</g>
<!-- 13095205968&#45;&gt;13089110160 -->
<g id="edge6" class="edge">
<title>13095205968&#45;&gt;13089110160</title>
<path fill="none" stroke="black" d="M854.12,-72C862.47,-72 871.2,-72 879.81,-72"/>
<polygon fill="black" stroke="black" points="879.82,-75.5 889.82,-72 879.82,-68.5 879.82,-75.5"/>
</g>
<!-- 13089106320 -->
<g id="node8" class="node">
<title>13089106320</title>
<polygon fill="none" stroke="black" points="1232,-90 1035,-90 1035,-54 1232,-54 1232,-90"/>
<text text-anchor="middle" x="1133.5" y="-68.9" font-family="Times,serif" font-size="12.00">Request clarifications of discrepancies</text>
</g>
<!-- 13089110160&#45;&gt;13089106320 -->
<g id="edge7" class="edge">
<title>13089110160&#45;&gt;13089106320</title>
<path fill="none" stroke="black" d="M999.09,-72C1007.24,-72 1015.9,-72 1024.72,-72"/>
<polygon fill="black" stroke="black" points="1024.75,-75.5 1034.75,-72 1024.75,-68.5 1024.75,-75.5"/>
</g>
<!-- 12971089872 -->
<g id="node9" class="node">
<title>12971089872</title>
<polygon fill="none" stroke="black" points="1386,-90 1268,-90 1268,-54 1386,-54 1386,-90"/>
<text text-anchor="middle" x="1327" y="-68.9" font-family="Times,serif" font-size="12.00">Receive clarifications</text>
</g>
<!-- 13089106320&#45;&gt;12971089872 -->
<g id="edge8" class="edge">
<title>13089106320&#45;&gt;12971089872</title>
<path fill="none" stroke="black" d="M1232.21,-72C1240.77,-72 1249.31,-72 1257.55,-72"/>
<polygon fill="black" stroke="black" points="1257.81,-75.5 1267.81,-72 1257.81,-68.5 1257.81,-75.5"/>
</g>
<!-- 12970817680 -->
<g id="node10" class="node">
<title>12970817680</title>
<polygon fill="none" stroke="black" points="1449,-90 1422,-72 1449,-54 1476,-72 1449,-90"/>
<text text-anchor="middle" x="1449" y="-68.9" font-family="Times,serif" font-size="12.00">+</text>
</g>
<!-- 12971089872&#45;&gt;12970817680 -->
<g id="edge9" class="edge">
<title>12971089872&#45;&gt;12970817680</title>
<path fill="none" stroke="black" d="M1386.24,-72C1394.96,-72 1403.73,-72 1411.81,-72"/>
<polygon fill="black" stroke="black" points="1411.98,-75.5 1421.98,-72 1411.98,-68.5 1411.98,-75.5"/>
</g>
<!-- 12970803984 -->
<g id="node11" class="node">
<title>12970803984</title>
<polygon fill="none" stroke="black" points="1652,-144 1512,-144 1512,-108 1652,-108 1652,-144"/>
<text text-anchor="middle" x="1582" y="-122.9" font-family="Times,serif" font-size="12.00">Evaluate compliance risks</text>
</g>
<!-- 12970817680&#45;&gt;12970803984 -->
<g id="edge12" class="edge">
<title>12970817680&#45;&gt;12970803984</title>
<path fill="none" stroke="black" d="M1465.73,-79.05C1478.22,-84.59 1496.16,-92.45 1512,-99 1516.12,-100.7 1520.4,-102.44 1524.7,-104.17"/>
<polygon fill="black" stroke="black" points="1523.55,-107.48 1534.14,-107.94 1526.15,-100.98 1523.55,-107.48"/>
</g>
<!-- 12970807312 -->
<g id="node12" class="node">
<title>12970807312</title>
<polygon fill="none" stroke="black" points="1645,-90 1519,-90 1519,-54 1645,-54 1645,-90"/>
<text text-anchor="middle" x="1582" y="-68.9" font-family="Times,serif" font-size="12.00">Evaluate financial risks</text>
</g>
<!-- 12970817680&#45;&gt;12970807312 -->
<g id="edge11" class="edge">
<title>12970817680&#45;&gt;12970807312</title>
<path fill="none" stroke="black" d="M1476.19,-72C1485.72,-72 1497.01,-72 1508.59,-72"/>
<polygon fill="black" stroke="black" points="1508.81,-75.5 1518.81,-72 1508.81,-68.5 1508.81,-75.5"/>
</g>
<!-- 12971553104 -->
<g id="node13" class="node">
<title>12971553104</title>
<polygon fill="none" stroke="black" points="1651,-36 1513,-36 1513,0 1651,0 1651,-36"/>
<text text-anchor="middle" x="1582" y="-14.9" font-family="Times,serif" font-size="12.00">Evaluate operational risks</text>
</g>
<!-- 12970817680&#45;&gt;12971553104 -->
<g id="edge10" class="edge">
<title>12970817680&#45;&gt;12971553104</title>
<path fill="none" stroke="black" d="M1465.73,-64.95C1478.22,-59.41 1496.16,-51.55 1512,-45 1516.12,-43.3 1520.4,-41.56 1524.7,-39.83"/>
<polygon fill="black" stroke="black" points="1526.15,-43.02 1534.14,-36.06 1523.55,-36.52 1526.15,-43.02"/>
</g>
<!-- 13089102672 -->
<g id="node14" class="node">
<title>13089102672</title>
<polygon fill="none" stroke="black" points="1715,-90 1688,-72 1715,-54 1742,-72 1715,-90"/>
<text text-anchor="middle" x="1715" y="-68.9" font-family="Times,serif" font-size="12.00">+</text>
</g>
<!-- 12970803984&#45;&gt;13089102672 -->
<g id="edge13" class="edge">
<title>12970803984&#45;&gt;13089102672</title>
<path fill="none" stroke="black" d="M1629.86,-107.94C1637.29,-105 1644.87,-101.95 1652,-99 1664.25,-93.94 1677.76,-88.09 1689.03,-83.13"/>
<polygon fill="black" stroke="black" points="1690.54,-86.29 1698.27,-79.05 1687.71,-79.89 1690.54,-86.29"/>
</g>
<!-- 12970807312&#45;&gt;13089102672 -->
<g id="edge14" class="edge">
<title>12970807312&#45;&gt;13089102672</title>
<path fill="none" stroke="black" d="M1645.05,-72C1656.24,-72 1667.56,-72 1677.71,-72"/>
<polygon fill="black" stroke="black" points="1677.81,-75.5 1687.81,-72 1677.81,-68.5 1677.81,-75.5"/>
</g>
<!-- 12971553104&#45;&gt;13089102672 -->
<g id="edge15" class="edge">
<title>12971553104&#45;&gt;13089102672</title>
<path fill="none" stroke="black" d="M1629.86,-36.06C1637.29,-39 1644.87,-42.05 1652,-45 1664.25,-50.06 1677.76,-55.91 1689.03,-60.87"/>
<polygon fill="black" stroke="black" points="1687.71,-64.11 1698.27,-64.95 1690.54,-57.71 1687.71,-64.11"/>
</g>
<!-- 13089102160 -->
<g id="node15" class="node">
<title>13089102160</title>
<polygon fill="none" stroke="black" points="1933,-90 1778,-90 1778,-54 1933,-54 1933,-90"/>
<text text-anchor="middle" x="1855.5" y="-68.9" font-family="Times,serif" font-size="12.00">Launch detailed investigation</text>
</g>
<!-- 13089102672&#45;&gt;13089102160 -->
<g id="edge16" class="edge">
<title>13089102672&#45;&gt;13089102160</title>
<path fill="none" stroke="black" d="M1742.05,-72C1749.65,-72 1758.4,-72 1767.59,-72"/>
<polygon fill="black" stroke="black" points="1767.71,-75.5 1777.71,-72 1767.71,-68.5 1767.71,-75.5"/>
</g>
<!-- 13089100112 -->
<g id="node16" class="node">
<title>13089100112</title>
<polygon fill="none" stroke="black" points="1996,-90 1969,-72 1996,-54 2023,-72 1996,-90"/>
<text text-anchor="middle" x="1996" y="-68.9" font-family="Times,serif" font-size="12.00">+</text>
</g>
<!-- 13089102160&#45;&gt;13089100112 -->
<g id="edge17" class="edge">
<title>13089102160&#45;&gt;13089100112</title>
<path fill="none" stroke="black" d="M1933.04,-72C1942,-72 1950.8,-72 1958.82,-72"/>
<polygon fill="black" stroke="black" points="1958.87,-75.5 1968.87,-72 1958.87,-68.5 1958.87,-75.5"/>
</g>
<!-- 13089100624 -->
<g id="node17" class="node">
<title>13089100624</title>
<polygon fill="none" stroke="black" points="2164,-117 2063,-117 2063,-81 2164,-81 2164,-117"/>
<text text-anchor="middle" x="2113.5" y="-95.9" font-family="Times,serif" font-size="12.00">Perform site visits</text>
</g>
<!-- 13089100112&#45;&gt;13089100624 -->
<g id="edge19" class="edge">
<title>13089100112&#45;&gt;13089100624</title>
<path fill="none" stroke="black" d="M2016.33,-76.52C2026.46,-78.89 2039.48,-81.93 2052.65,-85.01"/>
<polygon fill="black" stroke="black" points="2052.17,-88.49 2062.7,-87.36 2053.76,-81.67 2052.17,-88.49"/>
</g>
<!-- 13095031248 -->
<g id="node18" class="node">
<title>13095031248</title>
<polygon fill="none" stroke="black" points="2168,-63 2059,-63 2059,-27 2168,-27 2168,-63"/>
<text text-anchor="middle" x="2113.5" y="-41.9" font-family="Times,serif" font-size="12.00">Conduct interviews</text>
</g>
<!-- 13089100112&#45;&gt;13095031248 -->
<g id="edge18" class="edge">
<title>13089100112&#45;&gt;13095031248</title>
<path fill="none" stroke="black" d="M2016.33,-67.48C2025.51,-65.33 2037.07,-62.63 2048.95,-59.86"/>
<polygon fill="black" stroke="black" points="2050.02,-63.2 2058.96,-57.51 2048.43,-56.38 2050.02,-63.2"/>
</g>
<!-- 12970812560 -->
<g id="node19" class="node">
<title>12970812560</title>
<polygon fill="none" stroke="black" points="2231,-90 2204,-72 2231,-54 2258,-72 2231,-90"/>
<text text-anchor="middle" x="2231" y="-68.9" font-family="Times,serif" font-size="12.00">+</text>
</g>
<!-- 13089100624&#45;&gt;12970812560 -->
<g id="edge20" class="edge">
<title>13089100624&#45;&gt;12970812560</title>
<path fill="none" stroke="black" d="M2164.15,-87.39C2176.57,-84.49 2189.5,-81.47 2200.58,-78.88"/>
<polygon fill="black" stroke="black" points="2201.61,-82.23 2210.55,-76.55 2200.02,-75.41 2201.61,-82.23"/>
</g>
<!-- 13095031248&#45;&gt;12970812560 -->
<g id="edge21" class="edge">
<title>13095031248&#45;&gt;12970812560</title>
<path fill="none" stroke="black" d="M2168.19,-57.55C2179.47,-60.19 2190.96,-62.87 2200.92,-65.2"/>
<polygon fill="black" stroke="black" points="2200.15,-68.62 2210.68,-67.48 2201.74,-61.8 2200.15,-68.62"/>
</g>
<!-- 12970811600 -->
<g id="node20" class="node">
<title>12970811600</title>
<polygon fill="none" stroke="black" points="2482,-90 2294,-90 2294,-54 2482,-54 2482,-90"/>
<text text-anchor="middle" x="2388" y="-68.9" font-family="Times,serif" font-size="12.00">Complete risk assessment/mitigation</text>
</g>
<!-- 12970812560&#45;&gt;12970811600 -->
<g id="edge22" class="edge">
<title>12970812560&#45;&gt;12970811600</title>
<path fill="none" stroke="black" d="M2258.29,-72C2265.78,-72 2274.42,-72 2283.6,-72"/>
<polygon fill="black" stroke="black" points="2283.76,-75.5 2293.76,-72 2283.76,-68.5 2283.76,-75.5"/>
</g>
<!-- 12970812880 -->
<g id="node21" class="node">
<title>12970812880</title>
<polygon fill="none" stroke="black" points="2545,-90 2518,-72 2545,-54 2572,-72 2545,-90"/>
<text text-anchor="middle" x="2545" y="-68.9" font-family="Times,serif" font-size="12.00">+</text>
</g>
<!-- 12970811600&#45;&gt;12970812880 -->
<g id="edge23" class="edge">
<title>12970811600&#45;&gt;12970812880</title>
<path fill="none" stroke="black" d="M2482.29,-72C2491.2,-72 2499.81,-72 2507.64,-72"/>
<polygon fill="black" stroke="black" points="2507.77,-75.5 2517.77,-72 2507.77,-68.5 2507.77,-75.5"/>
</g>
<!-- 13089102096 -->
<g id="node22" class="node">
<title>13089102096</title>
<polygon fill="none" stroke="black" points="2722,-115 2608,-115 2608,-79 2722,-79 2722,-115"/>
<text text-anchor="middle" x="2665" y="-93.9" font-family="Times,serif" font-size="12.00">Compile audit report</text>
</g>
<!-- 12970812880&#45;&gt;13089102096 -->
<g id="edge24" class="edge">
<title>12970812880&#45;&gt;13089102096</title>
<path fill="none" stroke="black" d="M2565.75,-76.18C2574.82,-78.11 2586.16,-80.51 2597.88,-82.99"/>
<polygon fill="black" stroke="black" points="2597.26,-86.44 2607.77,-85.09 2598.71,-79.59 2597.26,-86.44"/>
</g>
<!-- 13089099472 -->
<g id="node23" class="node">
<title>13089099472</title>
<polygon fill="none" stroke="black" points="2900,-63 2780,-63 2780,-27 2900,-27 2900,-63"/>
<text text-anchor="middle" x="2840" y="-41.9" font-family="Times,serif" font-size="12.00">Conduct data analysis</text>
</g>
<!-- 12970812880&#45;&gt;13089099472 -->
<g id="edge25" class="edge">
<title>12970812880&#45;&gt;13089099472</title>
<path fill="none" stroke="black" d="M2568.99,-69.88C2611.7,-65.95 2704.81,-57.37 2769.68,-51.39"/>
<polygon fill="black" stroke="black" points="2770.2,-54.86 2779.83,-50.45 2769.55,-47.88 2770.2,-54.86"/>
</g>
<!-- 12970815952 -->
<g id="node24" class="node">
<title>12970815952</title>
<polygon fill="none" stroke="black" points="2922,-117 2758,-117 2758,-81 2922,-81 2922,-117"/>
<text text-anchor="middle" x="2840" y="-95.9" font-family="Times,serif" font-size="12.00">Review report by audit director</text>
</g>
<!-- 13089102096&#45;&gt;12970815952 -->
<g id="edge26" class="edge">
<title>13089102096&#45;&gt;12970815952</title>
<path fill="none" stroke="black" d="M2722.17,-97.65C2730.39,-97.74 2739.04,-97.84 2747.75,-97.95"/>
<polygon fill="black" stroke="black" points="2747.94,-101.45 2757.98,-98.06 2748.02,-94.45 2747.94,-101.45"/>
</g>
<!-- 12970808656 -->
<g id="node25" class="node">
<title>12970808656</title>
<polygon fill="none" stroke="black" points="3331,-90 3304,-72 3331,-54 3358,-72 3331,-90"/>
<text text-anchor="middle" x="3331" y="-68.9" font-family="Times,serif" font-size="12.00">+</text>
</g>
<!-- 13089099472&#45;&gt;12970808656 -->
<g id="edge27" class="edge">
<title>13089099472&#45;&gt;12970808656</title>
<path fill="none" stroke="black" d="M2900.47,-48.28C3003.86,-53.99 3213.55,-65.57 3295.8,-70.11"/>
<polygon fill="black" stroke="black" points="3295.68,-73.61 3305.86,-70.67 3296.07,-66.62 3295.68,-73.61"/>
</g>
<!-- 12967885072 -->
<g id="node26" class="node">
<title>12967885072</title>
<polygon fill="none" stroke="black" points="3086,-116 2958,-116 2958,-80 3086,-80 3086,-116"/>
<text text-anchor="middle" x="3022" y="-94.9" font-family="Times,serif" font-size="12.00">Send report for revision</text>
</g>
<!-- 12970815952&#45;&gt;12967885072 -->
<g id="edge28" class="edge">
<title>12970815952&#45;&gt;12967885072</title>
<path fill="none" stroke="black" d="M2922.05,-98.55C2930.61,-98.5 2939.27,-98.45 2947.74,-98.41"/>
<polygon fill="black" stroke="black" points="2947.95,-101.91 2957.94,-98.35 2947.92,-94.91 2947.95,-101.91"/>
</g>
<!-- 12970802896 -->
<g id="node28" class="node">
<title>12970802896</title>
<ellipse fill="orange" stroke="black" cx="3412" cy="-72" rx="18" ry="18"/>
</g>
<!-- 12970808656&#45;&gt;12970802896 -->
<g id="edge29" class="edge">
<title>12970808656&#45;&gt;12970802896</title>
<path fill="none" stroke="black" d="M3358.31,-72C3366.42,-72 3375.37,-72 3383.56,-72"/>
<polygon fill="black" stroke="black" points="3383.75,-75.5 3393.75,-72 3383.75,-68.5 3383.75,-75.5"/>
</g>
<!-- 12971958352 -->
<g id="node27" class="node">
<title>12971958352</title>
<polygon fill="none" stroke="black" points="3268,-115 3122,-115 3122,-79 3268,-79 3268,-115"/>
<text text-anchor="middle" x="3195" y="-93.9" font-family="Times,serif" font-size="12.00">Update and resubmit report</text>
</g>
<!-- 12967885072&#45;&gt;12971958352 -->
<g id="edge30" class="edge">
<title>12967885072&#45;&gt;12971958352</title>
<path fill="none" stroke="black" d="M3086.19,-97.63C3094.53,-97.58 3103.18,-97.53 3111.78,-97.48"/>
<polygon fill="black" stroke="black" points="3111.86,-100.98 3121.84,-97.42 3111.82,-93.98 3111.86,-100.98"/>
</g>
<!-- 12971958352&#45;&gt;12970808656 -->
<g id="edge31" class="edge">
<title>12971958352&#45;&gt;12970808656</title>
<path fill="none" stroke="black" d="M3268.1,-83.55C3279.17,-81.48 3290.06,-79.45 3299.54,-77.68"/>
<polygon fill="black" stroke="black" points="3300.39,-81.09 3309.58,-75.81 3299.1,-74.2 3300.39,-81.09"/>
</g>
</g>
</svg>
