<?xml version="1.0" encoding="UTF-8" standalone="no"?>
<!DOCTYPE svg PUBLIC "-//W3C//DTD SVG 1.1//EN"
 "http://www.w3.org/Graphics/SVG/1.1/DTD/svg11.dtd">
<!-- Generated by graphviz version 2.50.0 (0)
 -->
<!-- Pages: 1 -->
<svg width="3934pt" height="368pt"
 viewBox="0.00 0.00 3934.00 368.00" xmlns="http://www.w3.org/2000/svg" xmlns:xlink="http://www.w3.org/1999/xlink">
<g id="graph0" class="graph" transform="scale(1 1) rotate(0) translate(4 364)">
<polygon fill="white" stroke="transparent" points="-4,4 -4,-364 3930,-364 3930,4 -4,4"/>
<!-- 6157948304 -->
<g id="node1" class="node">
<title>6157948304</title>
<ellipse fill="green" stroke="black" cx="18" cy="-126" rx="18" ry="18"/>
</g>
<!-- 6115465552 -->
<g id="node2" class="node">
<title>6115465552</title>
<polygon fill="none" stroke="black" points="169,-144 72,-144 72,-108 169,-108 169,-144"/>
<text text-anchor="middle" x="120.5" y="-122.9" font-family="Times,serif" font-size="12.00">Send notification</text>
</g>
<!-- 6157948304&#45;&gt;6115465552 -->
<g id="edge1" class="edge">
<title>6157948304&#45;&gt;6115465552</title>
<path fill="none" stroke="black" d="M36.05,-126C43.29,-126 52.19,-126 61.45,-126"/>
<polygon fill="black" stroke="black" points="61.59,-129.5 71.59,-126 61.59,-122.5 61.59,-129.5"/>
</g>
<!-- 6115470160 -->
<g id="node3" class="node">
<title>6115470160</title>
<polygon fill="none" stroke="black" points="232,-144 205,-126 232,-108 259,-126 232,-144"/>
<text text-anchor="middle" x="232" y="-122.9" font-family="Times,serif" font-size="12.00">+</text>
</g>
<!-- 6115465552&#45;&gt;6115470160 -->
<g id="edge2" class="edge">
<title>6115465552&#45;&gt;6115470160</title>
<path fill="none" stroke="black" d="M169.21,-126C177.71,-126 186.43,-126 194.55,-126"/>
<polygon fill="black" stroke="black" points="194.8,-129.5 204.8,-126 194.8,-122.5 194.8,-129.5"/>
</g>
<!-- 6086455568 -->
<g id="node4" class="node">
<title>6086455568</title>
<polygon fill="none" stroke="black" points="439.5,-198 302.5,-198 302.5,-162 439.5,-162 439.5,-198"/>
<text text-anchor="middle" x="371" y="-176.9" font-family="Times,serif" font-size="12.00">Check regulatory updates</text>
</g>
<!-- 6115470160&#45;&gt;6086455568 -->
<g id="edge5" class="edge">
<title>6115470160&#45;&gt;6086455568</title>
<path fill="none" stroke="black" d="M248.43,-133.05C260.9,-138.67 278.96,-146.63 295,-153 299.51,-154.79 304.18,-156.6 308.9,-158.38"/>
<polygon fill="black" stroke="black" points="308,-161.78 318.6,-162 310.45,-155.22 308,-161.78"/>
</g>
<!-- 6115472848 -->
<g id="node5" class="node">
<title>6115472848</title>
<polygon fill="none" stroke="black" points="447,-144 295,-144 295,-108 447,-108 447,-144"/>
<text text-anchor="middle" x="371" y="-122.9" font-family="Times,serif" font-size="12.00">Gather necessary documents</text>
</g>
<!-- 6115470160&#45;&gt;6115472848 -->
<g id="edge4" class="edge">
<title>6115470160&#45;&gt;6115472848</title>
<path fill="none" stroke="black" d="M259.09,-126C266.73,-126 275.53,-126 284.76,-126"/>
<polygon fill="black" stroke="black" points="284.92,-129.5 294.92,-126 284.92,-122.5 284.92,-129.5"/>
</g>
<!-- 6158109584 -->
<g id="node6" class="node">
<title>6158109584</title>
<polygon fill="none" stroke="black" points="445,-90 297,-90 297,-54 445,-54 445,-90"/>
<text text-anchor="middle" x="371" y="-68.9" font-family="Times,serif" font-size="12.00">Prepare financial statements</text>
</g>
<!-- 6115470160&#45;&gt;6158109584 -->
<g id="edge3" class="edge">
<title>6115470160&#45;&gt;6158109584</title>
<path fill="none" stroke="black" d="M248.43,-118.95C260.9,-113.33 278.96,-105.37 295,-99 299.51,-97.21 304.18,-95.4 308.9,-93.62"/>
<polygon fill="black" stroke="black" points="310.45,-96.78 318.6,-90 308,-90.22 310.45,-96.78"/>
</g>
<!-- 6115469584 -->
<g id="node7" class="node">
<title>6115469584</title>
<polygon fill="none" stroke="black" points="510,-144 483,-126 510,-108 537,-126 510,-144"/>
<text text-anchor="middle" x="510" y="-122.9" font-family="Times,serif" font-size="12.00">+</text>
</g>
<!-- 6086455568&#45;&gt;6115469584 -->
<g id="edge6" class="edge">
<title>6086455568&#45;&gt;6115469584</title>
<path fill="none" stroke="black" d="M423.4,-162C431.34,-159.07 439.41,-156.01 447,-153 459.41,-148.07 473.02,-142.2 484.32,-137.19"/>
<polygon fill="black" stroke="black" points="485.87,-140.33 493.57,-133.05 483.02,-133.94 485.87,-140.33"/>
</g>
<!-- 6115472848&#45;&gt;6115469584 -->
<g id="edge7" class="edge">
<title>6115472848&#45;&gt;6115469584</title>
<path fill="none" stroke="black" d="M447.31,-126C456.22,-126 464.97,-126 472.96,-126"/>
<polygon fill="black" stroke="black" points="472.96,-129.5 482.96,-126 472.96,-122.5 472.96,-129.5"/>
</g>
<!-- 6158109584&#45;&gt;6115469584 -->
<g id="edge8" class="edge">
<title>6158109584&#45;&gt;6115469584</title>
<path fill="none" stroke="black" d="M423.4,-90C431.34,-92.93 439.41,-95.99 447,-99 459.41,-103.93 473.02,-109.8 484.32,-114.81"/>
<polygon fill="black" stroke="black" points="483.02,-118.06 493.57,-118.95 485.87,-111.67 483.02,-118.06"/>
</g>
<!-- 6115468240 -->
<g id="node8" class="node">
<title>6115468240</title>
<polygon fill="none" stroke="black" points="725,-198 573,-198 573,-162 725,-162 725,-198"/>
<text text-anchor="middle" x="649" y="-176.9" font-family="Times,serif" font-size="12.00">Gather necessary documents</text>
</g>
<!-- 6115469584&#45;&gt;6115468240 -->
<g id="edge10" class="edge">
<title>6115469584&#45;&gt;6115468240</title>
<path fill="none" stroke="black" d="M526.43,-133.05C538.9,-138.67 556.96,-146.63 573,-153 577.51,-154.79 582.18,-156.6 586.9,-158.38"/>
<polygon fill="black" stroke="black" points="586,-161.78 596.6,-162 588.45,-155.22 586,-161.78"/>
</g>
<!-- 6115469776 -->
<g id="node9" class="node">
<title>6115469776</title>
<polygon fill="none" stroke="black" points="723,-144 575,-144 575,-108 723,-108 723,-144"/>
<text text-anchor="middle" x="649" y="-122.9" font-family="Times,serif" font-size="12.00">Prepare financial statements</text>
</g>
<!-- 6115469584&#45;&gt;6115469776 -->
<g id="edge9" class="edge">
<title>6115469584&#45;&gt;6115469776</title>
<path fill="none" stroke="black" d="M537.09,-126C545.3,-126 554.85,-126 564.84,-126"/>
<polygon fill="black" stroke="black" points="564.94,-129.5 574.94,-126 564.94,-122.5 564.94,-129.5"/>
</g>
<!-- 6087222160 -->
<g id="node10" class="node">
<title>6087222160</title>
<polygon fill="none" stroke="black" points="717.5,-90 580.5,-90 580.5,-54 717.5,-54 717.5,-90"/>
<text text-anchor="middle" x="649" y="-68.9" font-family="Times,serif" font-size="12.00">Check regulatory updates</text>
</g>
<!-- 6115469584&#45;&gt;6087222160 -->
<g id="edge11" class="edge">
<title>6115469584&#45;&gt;6087222160</title>
<path fill="none" stroke="black" d="M526.43,-118.95C538.9,-113.33 556.96,-105.37 573,-99 577.51,-97.21 582.18,-95.4 586.9,-93.62"/>
<polygon fill="black" stroke="black" points="588.45,-96.78 596.6,-90 586,-90.22 588.45,-96.78"/>
</g>
<!-- 6086449296 -->
<g id="node11" class="node">
<title>6086449296</title>
<polygon fill="none" stroke="black" points="788,-144 761,-126 788,-108 815,-126 788,-144"/>
<text text-anchor="middle" x="788" y="-122.9" font-family="Times,serif" font-size="12.00">+</text>
</g>
<!-- 6115468240&#45;&gt;6086449296 -->
<g id="edge12" class="edge">
<title>6115468240&#45;&gt;6086449296</title>
<path fill="none" stroke="black" d="M701.4,-162C709.34,-159.07 717.41,-156.01 725,-153 737.41,-148.07 751.02,-142.2 762.32,-137.19"/>
<polygon fill="black" stroke="black" points="763.87,-140.33 771.57,-133.05 761.02,-133.94 763.87,-140.33"/>
</g>
<!-- 6115469776&#45;&gt;6086449296 -->
<g id="edge13" class="edge">
<title>6115469776&#45;&gt;6086449296</title>
<path fill="none" stroke="black" d="M723.31,-126C732.8,-126 742.16,-126 750.66,-126"/>
<polygon fill="black" stroke="black" points="750.92,-129.5 760.92,-126 750.92,-122.5 750.92,-129.5"/>
</g>
<!-- 6087222160&#45;&gt;6086449296 -->
<g id="edge14" class="edge">
<title>6087222160&#45;&gt;6086449296</title>
<path fill="none" stroke="black" d="M701.4,-90C709.34,-92.93 717.41,-95.99 725,-99 737.41,-103.93 751.02,-109.8 762.32,-114.81"/>
<polygon fill="black" stroke="black" points="761.02,-118.06 771.57,-118.95 763.87,-111.67 761.02,-118.06"/>
</g>
<!-- 6086459280 -->
<g id="node12" class="node">
<title>6086459280</title>
<polygon fill="none" stroke="black" points="955,-144 851,-144 851,-108 955,-108 955,-144"/>
<text text-anchor="middle" x="903" y="-122.9" font-family="Times,serif" font-size="12.00">Submit documents</text>
</g>
<!-- 6086449296&#45;&gt;6086459280 -->
<g id="edge15" class="edge">
<title>6086449296&#45;&gt;6086459280</title>
<path fill="none" stroke="black" d="M815.21,-126C822.88,-126 831.62,-126 840.51,-126"/>
<polygon fill="black" stroke="black" points="840.58,-129.5 850.58,-126 840.58,-122.5 840.58,-129.5"/>
</g>
<!-- 6086458000 -->
<g id="node13" class="node">
<title>6086458000</title>
<polygon fill="none" stroke="black" points="1018,-144 991,-126 1018,-108 1045,-126 1018,-144"/>
<text text-anchor="middle" x="1018" y="-122.9" font-family="Times,serif" font-size="12.00">+</text>
</g>
<!-- 6086459280&#45;&gt;6086458000 -->
<g id="edge16" class="edge">
<title>6086459280&#45;&gt;6086458000</title>
<path fill="none" stroke="black" d="M955.21,-126C963.82,-126 972.59,-126 980.72,-126"/>
<polygon fill="black" stroke="black" points="980.97,-129.5 990.97,-126 980.97,-122.5 980.97,-129.5"/>
</g>
<!-- 6115472976 -->
<g id="node14" class="node">
<title>6115472976</title>
<polygon fill="none" stroke="black" points="1445,-218 1257,-218 1257,-182 1445,-182 1445,-218"/>
<text text-anchor="middle" x="1351" y="-196.9" font-family="Times,serif" font-size="12.00">Complete risk assessment/mitigation</text>
</g>
<!-- 6086458000&#45;&gt;6115472976 -->
<g id="edge17" class="edge">
<title>6086458000&#45;&gt;6115472976</title>
<path fill="none" stroke="black" d="M1033.91,-133.69C1046.24,-139.76 1064.36,-148 1081,-153 1134.74,-169.14 1196.29,-180.41 1246.94,-187.85"/>
<polygon fill="black" stroke="black" points="1246.52,-191.33 1256.92,-189.29 1247.52,-184.4 1246.52,-191.33"/>
</g>
<!-- 6115461776 -->
<g id="node15" class="node">
<title>6115461776</title>
<polygon fill="none" stroke="black" points="1221,-144 1081,-144 1081,-108 1221,-108 1221,-144"/>
<text text-anchor="middle" x="1151" y="-122.9" font-family="Times,serif" font-size="12.00">Evaluate compliance risks</text>
</g>
<!-- 6086458000&#45;&gt;6115461776 -->
<g id="edge19" class="edge">
<title>6086458000&#45;&gt;6115461776</title>
<path fill="none" stroke="black" d="M1045.19,-126C1052.87,-126 1061.69,-126 1070.89,-126"/>
<polygon fill="black" stroke="black" points="1070.97,-129.5 1080.97,-126 1070.97,-122.5 1070.97,-129.5"/>
</g>
<!-- 6158113936 -->
<g id="node16" class="node">
<title>6158113936</title>
<polygon fill="none" stroke="black" points="1205.5,-83 1096.5,-83 1096.5,-47 1205.5,-47 1205.5,-83"/>
<text text-anchor="middle" x="1151" y="-61.9" font-family="Times,serif" font-size="12.00">Review submission</text>
</g>
<!-- 6086458000&#45;&gt;6158113936 -->
<g id="edge18" class="edge">
<title>6086458000&#45;&gt;6158113936</title>
<path fill="none" stroke="black" d="M1034.54,-118.76C1051.12,-111.05 1078.2,-98.44 1101.96,-87.37"/>
<polygon fill="black" stroke="black" points="1103.64,-90.45 1111.22,-83.06 1100.68,-84.1 1103.64,-90.45"/>
</g>
<!-- 6158072592 -->
<g id="node17" class="node">
<title>6158072592</title>
<polygon fill="none" stroke="black" points="1669,-228 1481,-228 1481,-192 1669,-192 1669,-228"/>
<text text-anchor="middle" x="1575" y="-206.9" font-family="Times,serif" font-size="12.00">Complete risk assessment/mitigation</text>
</g>
<!-- 6115472976&#45;&gt;6158072592 -->
<g id="edge20" class="edge">
<title>6115472976&#45;&gt;6158072592</title>
<path fill="none" stroke="black" d="M1445.18,-204.2C1453.53,-204.57 1462.02,-204.96 1470.46,-205.34"/>
<polygon fill="black" stroke="black" points="1470.55,-208.84 1480.7,-205.8 1470.87,-201.85 1470.55,-208.84"/>
</g>
<!-- 6115463440 -->
<g id="node18" class="node">
<title>6115463440</title>
<polygon fill="none" stroke="black" points="1421,-144 1281,-144 1281,-108 1421,-108 1421,-144"/>
<text text-anchor="middle" x="1351" y="-122.9" font-family="Times,serif" font-size="12.00">Evaluate compliance risks</text>
</g>
<!-- 6115461776&#45;&gt;6115463440 -->
<g id="edge21" class="edge">
<title>6115461776&#45;&gt;6115463440</title>
<path fill="none" stroke="black" d="M1221.25,-126C1237.23,-126 1254.34,-126 1270.71,-126"/>
<polygon fill="black" stroke="black" points="1270.79,-129.5 1280.79,-126 1270.79,-122.5 1270.79,-129.5"/>
</g>
<!-- 6158120784 -->
<g id="node19" class="node">
<title>6158120784</title>
<polygon fill="none" stroke="black" points="1403,-83 1299,-83 1299,-47 1403,-47 1403,-83"/>
<text text-anchor="middle" x="1351" y="-61.9" font-family="Times,serif" font-size="12.00">Submit documents</text>
</g>
<!-- 6158113936&#45;&gt;6158120784 -->
<g id="edge22" class="edge">
<title>6158113936&#45;&gt;6158120784</title>
<path fill="none" stroke="black" d="M1205.58,-65C1231.16,-65 1261.91,-65 1288.44,-65"/>
<polygon fill="black" stroke="black" points="1288.77,-68.5 1298.77,-65 1288.77,-61.5 1288.77,-68.5"/>
</g>
<!-- 6158072336 -->
<g id="node22" class="node">
<title>6158072336</title>
<polygon fill="none" stroke="black" points="1997,-279 1970,-261 1997,-243 2024,-261 1997,-279"/>
<text text-anchor="middle" x="1997" y="-257.9" font-family="Times,serif" font-size="12.00">+</text>
</g>
<!-- 6158072592&#45;&gt;6158072336 -->
<g id="edge23" class="edge">
<title>6158072592&#45;&gt;6158072336</title>
<path fill="none" stroke="black" d="M1669.21,-221.32C1762.65,-232.66 1901.32,-249.5 1963.62,-257.07"/>
<polygon fill="black" stroke="black" points="1963.3,-260.55 1973.65,-258.29 1964.14,-253.61 1963.3,-260.55"/>
</g>
<!-- 6158059216 -->
<g id="node21" class="node">
<title>6158059216</title>
<polygon fill="none" stroke="black" points="1652.5,-144 1497.5,-144 1497.5,-108 1652.5,-108 1652.5,-144"/>
<text text-anchor="middle" x="1575" y="-122.9" font-family="Times,serif" font-size="12.00">Launch detailed investigation</text>
</g>
<!-- 6115463440&#45;&gt;6158059216 -->
<g id="edge24" class="edge">
<title>6115463440&#45;&gt;6158059216</title>
<path fill="none" stroke="black" d="M1421.03,-126C1441.9,-126 1465.1,-126 1487,-126"/>
<polygon fill="black" stroke="black" points="1487.28,-129.5 1497.28,-126 1487.28,-122.5 1487.28,-129.5"/>
</g>
<!-- 6086453328 -->
<g id="node20" class="node">
<title>6086453328</title>
<polygon fill="none" stroke="black" points="1629.5,-83 1520.5,-83 1520.5,-47 1629.5,-47 1629.5,-83"/>
<text text-anchor="middle" x="1575" y="-61.9" font-family="Times,serif" font-size="12.00">Review submission</text>
</g>
<!-- 6158120784&#45;&gt;6086453328 -->
<g id="edge25" class="edge">
<title>6158120784&#45;&gt;6086453328</title>
<path fill="none" stroke="black" d="M1403.21,-65C1435.01,-65 1476.13,-65 1510.06,-65"/>
<polygon fill="black" stroke="black" points="1510.34,-68.5 1520.34,-65 1510.34,-61.5 1510.34,-68.5"/>
</g>
<!-- 6158117008 -->
<g id="node27" class="node">
<title>6158117008</title>
<polygon fill="none" stroke="black" points="1902,-76 1705,-76 1705,-40 1902,-40 1902,-76"/>
<text text-anchor="middle" x="1803.5" y="-54.9" font-family="Times,serif" font-size="12.00">Request clarifications of discrepancies</text>
</g>
<!-- 6086453328&#45;&gt;6158117008 -->
<g id="edge26" class="edge">
<title>6086453328&#45;&gt;6158117008</title>
<path fill="none" stroke="black" d="M1629.68,-63.34C1649.28,-62.74 1672.21,-62.03 1694.84,-61.33"/>
<polygon fill="black" stroke="black" points="1694.96,-64.83 1704.85,-61.02 1694.75,-57.83 1694.96,-64.83"/>
</g>
<!-- 6158062032 -->
<g id="node25" class="node">
<title>6158062032</title>
<polygon fill="none" stroke="black" points="1997,-144 1970,-126 1997,-108 2024,-126 1997,-144"/>
<text text-anchor="middle" x="1997" y="-122.9" font-family="Times,serif" font-size="12.00">+</text>
</g>
<!-- 6158059216&#45;&gt;6158062032 -->
<g id="edge27" class="edge">
<title>6158059216&#45;&gt;6158062032</title>
<path fill="none" stroke="black" d="M1652.55,-126C1743.51,-126 1891.5,-126 1959.6,-126"/>
<polygon fill="black" stroke="black" points="1959.82,-129.5 1969.82,-126 1959.82,-122.5 1959.82,-129.5"/>
</g>
<!-- 6158058256 -->
<g id="node23" class="node">
<title>6158058256</title>
<polygon fill="none" stroke="black" points="2255,-360 2117,-360 2117,-324 2255,-324 2255,-360"/>
<text text-anchor="middle" x="2186" y="-338.9" font-family="Times,serif" font-size="12.00">Evaluate operational risks</text>
</g>
<!-- 6158072336&#45;&gt;6158058256 -->
<g id="edge30" class="edge">
<title>6158072336&#45;&gt;6158058256</title>
<path fill="none" stroke="black" d="M2011.17,-269.93C2028.89,-281.61 2061.69,-302.11 2092,-315 2096.93,-317.1 2102.08,-319.09 2107.31,-320.97"/>
<polygon fill="black" stroke="black" points="2106.19,-324.29 2116.78,-324.24 2108.47,-317.67 2106.19,-324.29"/>
</g>
<!-- 6158060496 -->
<g id="node24" class="node">
<title>6158060496</title>
<polygon fill="none" stroke="black" points="2249,-306 2123,-306 2123,-270 2249,-270 2249,-306"/>
<text text-anchor="middle" x="2186" y="-284.9" font-family="Times,serif" font-size="12.00">Evaluate financial risks</text>
</g>
<!-- 6158072336&#45;&gt;6158060496 -->
<g id="edge28" class="edge">
<title>6158072336&#45;&gt;6158060496</title>
<path fill="none" stroke="black" d="M2019.45,-264.1C2042.14,-267.37 2079.2,-272.72 2112.51,-277.53"/>
<polygon fill="black" stroke="black" points="2112.31,-281.04 2122.7,-279.01 2113.31,-274.11 2112.31,-281.04"/>
</g>
<!-- 6158069200 -->
<g id="node26" class="node">
<title>6158069200</title>
<polygon fill="none" stroke="black" points="2256,-252 2116,-252 2116,-216 2256,-216 2256,-252"/>
<text text-anchor="middle" x="2186" y="-230.9" font-family="Times,serif" font-size="12.00">Evaluate compliance risks</text>
</g>
<!-- 6158072336&#45;&gt;6158069200 -->
<g id="edge29" class="edge">
<title>6158072336&#45;&gt;6158069200</title>
<path fill="none" stroke="black" d="M2019.45,-257.9C2040.57,-254.85 2074.14,-250.01 2105.55,-245.47"/>
<polygon fill="black" stroke="black" points="2106.25,-248.91 2115.65,-244.01 2105.25,-241.98 2106.25,-248.91"/>
</g>
<!-- 6158118160 -->
<g id="node31" class="node">
<title>6158118160</title>
<polygon fill="none" stroke="black" points="2343,-198 2316,-180 2343,-162 2370,-180 2343,-198"/>
<text text-anchor="middle" x="2343" y="-176.9" font-family="Times,serif" font-size="12.00">+</text>
</g>
<!-- 6158058256&#45;&gt;6158118160 -->
<g id="edge31" class="edge">
<title>6158058256&#45;&gt;6158118160</title>
<path fill="none" stroke="black" d="M2255.06,-329.76C2264.1,-326.07 2272.74,-321.26 2280,-315 2313.2,-286.38 2329.65,-236.26 2336.95,-205.8"/>
<polygon fill="black" stroke="black" points="2340.39,-206.44 2339.16,-195.91 2333.56,-204.91 2340.39,-206.44"/>
</g>
<!-- 6158060496&#45;&gt;6158118160 -->
<g id="edge32" class="edge">
<title>6158060496&#45;&gt;6158118160</title>
<path fill="none" stroke="black" d="M2249.02,-275.98C2259.9,-272.24 2270.7,-267.36 2280,-261 2302.15,-245.84 2319.81,-220.24 2330.53,-201.87"/>
<polygon fill="black" stroke="black" points="2333.65,-203.45 2335.49,-193.02 2327.54,-200.03 2333.65,-203.45"/>
</g>
<!-- 6158061008 -->
<g id="node28" class="node">
<title>6158061008</title>
<polygon fill="none" stroke="black" points="2236.5,-198 2135.5,-198 2135.5,-162 2236.5,-162 2236.5,-198"/>
<text text-anchor="middle" x="2186" y="-176.9" font-family="Times,serif" font-size="12.00">Perform site visits</text>
</g>
<!-- 6158062032&#45;&gt;6158061008 -->
<g id="edge34" class="edge">
<title>6158062032&#45;&gt;6158061008</title>
<path fill="none" stroke="black" d="M2016.27,-131.28C2041.33,-138.51 2087.54,-151.86 2125.28,-162.75"/>
<polygon fill="black" stroke="black" points="2124.59,-166.2 2135.17,-165.61 2126.53,-159.47 2124.59,-166.2"/>
</g>
<!-- 6158067728 -->
<g id="node29" class="node">
<title>6158067728</title>
<polygon fill="none" stroke="black" points="2246,-144 2126,-144 2126,-108 2246,-108 2246,-144"/>
<text text-anchor="middle" x="2186" y="-122.9" font-family="Times,serif" font-size="12.00">Conduct data analysis</text>
</g>
<!-- 6158062032&#45;&gt;6158067728 -->
<g id="edge33" class="edge">
<title>6158062032&#45;&gt;6158067728</title>
<path fill="none" stroke="black" d="M2024,-126C2047.64,-126 2083.59,-126 2115.53,-126"/>
<polygon fill="black" stroke="black" points="2115.74,-129.5 2125.74,-126 2115.74,-122.5 2115.74,-129.5"/>
</g>
<!-- 6115464592 -->
<g id="node30" class="node">
<title>6115464592</title>
<polygon fill="none" stroke="black" points="2240.5,-90 2131.5,-90 2131.5,-54 2240.5,-54 2240.5,-90"/>
<text text-anchor="middle" x="2186" y="-68.9" font-family="Times,serif" font-size="12.00">Conduct interviews</text>
</g>
<!-- 6158062032&#45;&gt;6115464592 -->
<g id="edge35" class="edge">
<title>6158062032&#45;&gt;6115464592</title>
<path fill="none" stroke="black" d="M2016.27,-120.72C2040.48,-113.73 2084.45,-101.03 2121.44,-90.36"/>
<polygon fill="black" stroke="black" points="2122.53,-93.68 2131.17,-87.55 2120.59,-86.96 2122.53,-93.68"/>
</g>
<!-- 6158069200&#45;&gt;6158118160 -->
<g id="edge36" class="edge">
<title>6158069200&#45;&gt;6158118160</title>
<path fill="none" stroke="black" d="M2253.13,-215.94C2262.22,-213.12 2271.38,-210.11 2280,-207 2292.55,-202.47 2306.19,-196.63 2317.46,-191.55"/>
<polygon fill="black" stroke="black" points="2319.05,-194.67 2326.68,-187.33 2316.13,-188.31 2319.05,-194.67"/>
</g>
<!-- 6158113424 -->
<g id="node32" class="node">
<title>6158113424</title>
<polygon fill="none" stroke="black" points="2056,-49 1938,-49 1938,-13 2056,-13 2056,-49"/>
<text text-anchor="middle" x="1997" y="-27.9" font-family="Times,serif" font-size="12.00">Receive clarifications</text>
</g>
<!-- 6158117008&#45;&gt;6158113424 -->
<g id="edge37" class="edge">
<title>6158117008&#45;&gt;6158113424</title>
<path fill="none" stroke="black" d="M1902.21,-44.22C1910.87,-43 1919.5,-41.79 1927.83,-40.61"/>
<polygon fill="black" stroke="black" points="1928.4,-44.07 1937.81,-39.2 1927.42,-37.13 1928.4,-44.07"/>
</g>
<!-- 6158061008&#45;&gt;6158118160 -->
<g id="edge38" class="edge">
<title>6158061008&#45;&gt;6158118160</title>
<path fill="none" stroke="black" d="M2236.9,-180C2259.2,-180 2285.02,-180 2305.48,-180"/>
<polygon fill="black" stroke="black" points="2305.65,-183.5 2315.65,-180 2305.65,-176.5 2305.65,-183.5"/>
</g>
<!-- 6158067728&#45;&gt;6158118160 -->
<g id="edge39" class="edge">
<title>6158067728&#45;&gt;6158118160</title>
<path fill="none" stroke="black" d="M2246.4,-142.01C2257.65,-145.39 2269.25,-149.12 2280,-153 2292.55,-157.53 2306.19,-163.37 2317.46,-168.45"/>
<polygon fill="black" stroke="black" points="2316.13,-171.69 2326.68,-172.67 2319.05,-165.33 2316.13,-171.69"/>
</g>
<!-- 6115464592&#45;&gt;6158118160 -->
<g id="edge40" class="edge">
<title>6115464592&#45;&gt;6158118160</title>
<path fill="none" stroke="black" d="M2240.75,-81.39C2254.32,-85.38 2268.34,-91.03 2280,-99 2302.15,-114.16 2319.81,-139.76 2330.53,-158.13"/>
<polygon fill="black" stroke="black" points="2327.54,-159.97 2335.49,-166.98 2333.65,-156.55 2327.54,-159.97"/>
</g>
<!-- 6158116688 -->
<g id="node34" class="node">
<title>6158116688</title>
<polygon fill="none" stroke="black" points="2520,-198 2406,-198 2406,-162 2520,-162 2520,-198"/>
<text text-anchor="middle" x="2463" y="-176.9" font-family="Times,serif" font-size="12.00">Compile audit report</text>
</g>
<!-- 6158118160&#45;&gt;6158116688 -->
<g id="edge41" class="edge">
<title>6158118160&#45;&gt;6158116688</title>
<path fill="none" stroke="black" d="M2370.19,-180C2377.88,-180 2386.67,-180 2395.69,-180"/>
<polygon fill="black" stroke="black" points="2395.93,-183.5 2405.93,-180 2395.93,-176.5 2395.93,-183.5"/>
</g>
<!-- 6086457488 -->
<g id="node33" class="node">
<title>6086457488</title>
<polygon fill="none" stroke="black" points="2280,-36 2092,-36 2092,0 2280,0 2280,-36"/>
<text text-anchor="middle" x="2186" y="-14.9" font-family="Times,serif" font-size="12.00">Complete risk assessment/mitigation</text>
</g>
<!-- 6158113424&#45;&gt;6086457488 -->
<g id="edge42" class="edge">
<title>6158113424&#45;&gt;6086457488</title>
<path fill="none" stroke="black" d="M2056.14,-26.96C2064.31,-26.39 2072.9,-25.79 2081.61,-25.19"/>
<polygon fill="black" stroke="black" points="2082.13,-28.66 2091.86,-24.47 2081.65,-21.68 2082.13,-28.66"/>
</g>
<!-- 6086457488&#45;&gt;6158118160 -->
<g id="edge43" class="edge">
<title>6086457488&#45;&gt;6158118160</title>
<path fill="none" stroke="black" d="M2267.09,-36.02C2271.7,-38.62 2276.05,-41.6 2280,-45 2313.2,-73.62 2329.65,-123.74 2336.95,-154.2"/>
<polygon fill="black" stroke="black" points="2333.56,-155.09 2339.16,-164.09 2340.39,-153.56 2333.56,-155.09"/>
</g>
<!-- 6158065424 -->
<g id="node35" class="node">
<title>6158065424</title>
<polygon fill="none" stroke="black" points="2720,-198 2556,-198 2556,-162 2720,-162 2720,-198"/>
<text text-anchor="middle" x="2638" y="-176.9" font-family="Times,serif" font-size="12.00">Review report by audit director</text>
</g>
<!-- 6158116688&#45;&gt;6158065424 -->
<g id="edge44" class="edge">
<title>6158116688&#45;&gt;6158065424</title>
<path fill="none" stroke="black" d="M2520.17,-180C2528.39,-180 2537.04,-180 2545.75,-180"/>
<polygon fill="black" stroke="black" points="2545.98,-183.5 2555.98,-180 2545.98,-176.5 2545.98,-183.5"/>
</g>
<!-- 6158062352 -->
<g id="node36" class="node">
<title>6158062352</title>
<polygon fill="none" stroke="black" points="2783,-198 2756,-180 2783,-162 2810,-180 2783,-198"/>
<text text-anchor="middle" x="2783" y="-176.9" font-family="Times,serif" font-size="12.00">+</text>
</g>
<!-- 6158065424&#45;&gt;6158062352 -->
<g id="edge45" class="edge">
<title>6158065424&#45;&gt;6158062352</title>
<path fill="none" stroke="black" d="M2720.11,-180C2728.95,-180 2737.59,-180 2745.48,-180"/>
<polygon fill="black" stroke="black" points="2745.72,-183.5 2755.72,-180 2745.72,-176.5 2745.72,-183.5"/>
</g>
<!-- 6115463248 -->
<g id="node37" class="node">
<title>6115463248</title>
<polygon fill="none" stroke="black" points="2974,-225 2846,-225 2846,-189 2974,-189 2974,-225"/>
<text text-anchor="middle" x="2910" y="-203.9" font-family="Times,serif" font-size="12.00">Send report for revision</text>
</g>
<!-- 6158062352&#45;&gt;6115463248 -->
<g id="edge47" class="edge">
<title>6158062352&#45;&gt;6115463248</title>
<path fill="none" stroke="black" d="M2803.81,-184.28C2812.79,-186.22 2824.02,-188.64 2835.78,-191.18"/>
<polygon fill="black" stroke="black" points="2835.23,-194.65 2845.74,-193.34 2836.7,-187.8 2835.23,-194.65"/>
</g>
<!-- 6158112080 -->
<g id="node38" class="node">
<title>6158112080</title>
<polygon fill="none" stroke="black" points="2954.5,-171 2865.5,-171 2865.5,-135 2954.5,-135 2954.5,-171"/>
<text text-anchor="middle" x="2910" y="-149.9" font-family="Times,serif" font-size="12.00">Approve report</text>
</g>
<!-- 6158062352&#45;&gt;6158112080 -->
<g id="edge46" class="edge">
<title>6158062352&#45;&gt;6158112080</title>
<path fill="none" stroke="black" d="M2803.81,-175.72C2817.81,-172.7 2837.29,-168.49 2855.69,-164.51"/>
<polygon fill="black" stroke="black" points="2856.43,-167.94 2865.47,-162.4 2854.95,-161.09 2856.43,-167.94"/>
</g>
<!-- 6087226640 -->
<g id="node40" class="node">
<title>6087226640</title>
<polygon fill="none" stroke="black" points="3156,-225 3010,-225 3010,-189 3156,-189 3156,-225"/>
<text text-anchor="middle" x="3083" y="-203.9" font-family="Times,serif" font-size="12.00">Update and resubmit report</text>
</g>
<!-- 6115463248&#45;&gt;6087226640 -->
<g id="edge48" class="edge">
<title>6115463248&#45;&gt;6087226640</title>
<path fill="none" stroke="black" d="M2974.19,-207C2982.53,-207 2991.18,-207 2999.78,-207"/>
<polygon fill="black" stroke="black" points="2999.84,-210.5 3009.84,-207 2999.84,-203.5 2999.84,-210.5"/>
</g>
<!-- 6158111120 -->
<g id="node39" class="node">
<title>6158111120</title>
<polygon fill="none" stroke="black" points="3419,-171 3392,-153 3419,-135 3446,-153 3419,-171"/>
<text text-anchor="middle" x="3419" y="-149.9" font-family="Times,serif" font-size="12.00">+</text>
</g>
<!-- 6158112080&#45;&gt;6158111120 -->
<g id="edge49" class="edge">
<title>6158112080&#45;&gt;6158111120</title>
<path fill="none" stroke="black" d="M2954.67,-153C3053.09,-153 3290.76,-153 3381.74,-153"/>
<polygon fill="black" stroke="black" points="3381.84,-156.5 3391.84,-153 3381.84,-149.5 3381.84,-156.5"/>
</g>
<!-- 6086450832 -->
<g id="node41" class="node">
<title>6086450832</title>
<polygon fill="none" stroke="black" points="3589,-171 3503,-171 3503,-135 3589,-135 3589,-171"/>
<text text-anchor="middle" x="3546" y="-149.9" font-family="Times,serif" font-size="12.00">Archive report</text>
</g>
<!-- 6158111120&#45;&gt;6086450832 -->
<g id="edge50" class="edge">
<title>6158111120&#45;&gt;6086450832</title>
<path fill="none" stroke="black" d="M3446.2,-153C3459.59,-153 3476.38,-153 3492.3,-153"/>
<polygon fill="black" stroke="black" points="3492.6,-156.5 3502.6,-153 3492.6,-149.5 3492.6,-156.5"/>
</g>
<!-- 6158122512 -->
<g id="node43" class="node">
<title>6158122512</title>
<polygon fill="none" stroke="black" points="3764,-119 3646,-119 3646,-83 3764,-83 3764,-119"/>
<text text-anchor="middle" x="3705" y="-97.9" font-family="Times,serif" font-size="12.00">Distribute final report</text>
</g>
<!-- 6158111120&#45;&gt;6158122512 -->
<g id="edge51" class="edge">
<title>6158111120&#45;&gt;6158122512</title>
<path fill="none" stroke="black" d="M3434.83,-145.04C3447.12,-138.81 3465.21,-130.49 3482,-126 3532.4,-112.51 3591.13,-106.3 3635.52,-103.44"/>
<polygon fill="black" stroke="black" points="3635.85,-106.92 3645.62,-102.83 3635.43,-99.94 3635.85,-106.92"/>
</g>
<!-- 6158070800 -->
<g id="node42" class="node">
<title>6158070800</title>
<polygon fill="none" stroke="black" points="3356,-225 3192,-225 3192,-189 3356,-189 3356,-225"/>
<text text-anchor="middle" x="3274" y="-203.9" font-family="Times,serif" font-size="12.00">Review report by audit director</text>
</g>
<!-- 6087226640&#45;&gt;6158070800 -->
<g id="edge52" class="edge">
<title>6087226640&#45;&gt;6158070800</title>
<path fill="none" stroke="black" d="M3156.26,-207C3164.65,-207 3173.29,-207 3181.89,-207"/>
<polygon fill="black" stroke="black" points="3181.95,-210.5 3191.95,-207 3181.95,-203.5 3181.95,-210.5"/>
</g>
<!-- 6086450384 -->
<g id="node45" class="node">
<title>6086450384</title>
<polygon fill="none" stroke="black" points="3759,-173 3651,-173 3651,-137 3759,-137 3759,-173"/>
<text text-anchor="middle" x="3705" y="-151.9" font-family="Times,serif" font-size="12.00">Close audit process</text>
</g>
<!-- 6086450832&#45;&gt;6086450384 -->
<g id="edge53" class="edge">
<title>6086450832&#45;&gt;6086450384</title>
<path fill="none" stroke="black" d="M3589.07,-153.54C3604.94,-153.74 3623.36,-153.97 3640.75,-154.19"/>
<polygon fill="black" stroke="black" points="3640.79,-157.69 3650.83,-154.32 3640.88,-150.7 3640.79,-157.69"/>
</g>
<!-- 6087608848 -->
<g id="node44" class="node">
<title>6087608848</title>
<polygon fill="none" stroke="black" points="3419,-225 3392,-207 3419,-189 3446,-207 3419,-225"/>
<text text-anchor="middle" x="3419" y="-203.9" font-family="Times,serif" font-size="12.00">X</text>
</g>
<!-- 6158070800&#45;&gt;6087608848 -->
<g id="edge54" class="edge">
<title>6158070800&#45;&gt;6087608848</title>
<path fill="none" stroke="black" d="M3356.11,-207C3364.95,-207 3373.59,-207 3381.48,-207"/>
<polygon fill="black" stroke="black" points="3381.72,-210.5 3391.72,-207 3381.72,-203.5 3381.72,-210.5"/>
</g>
<!-- 6158072976 -->
<g id="node46" class="node">
<title>6158072976</title>
<polygon fill="none" stroke="black" points="3827,-173 3800,-155 3827,-137 3854,-155 3827,-173"/>
<text text-anchor="middle" x="3827" y="-151.9" font-family="Times,serif" font-size="12.00">+</text>
</g>
<!-- 6158122512&#45;&gt;6158072976 -->
<g id="edge55" class="edge">
<title>6158122512&#45;&gt;6158072976</title>
<path fill="none" stroke="black" d="M3746.29,-119.13C3764.45,-127.3 3785.31,-136.69 3801.14,-143.81"/>
<polygon fill="black" stroke="black" points="3799.72,-147.01 3810.27,-147.92 3802.59,-140.63 3799.72,-147.01"/>
</g>
<!-- 6115460048 -->
<g id="node47" class="node">
<title>6115460048</title>
<polygon fill="none" stroke="black" points="3590.5,-279 3501.5,-279 3501.5,-243 3590.5,-243 3590.5,-279"/>
<text text-anchor="middle" x="3546" y="-257.9" font-family="Times,serif" font-size="12.00">Approve report</text>
</g>
<!-- 6087608848&#45;&gt;6115460048 -->
<g id="edge58" class="edge">
<title>6087608848&#45;&gt;6115460048</title>
<path fill="none" stroke="black" d="M3435.79,-213.91C3448.31,-219.38 3466.26,-227.2 3482,-234 3485.64,-235.57 3489.41,-237.2 3493.2,-238.83"/>
<polygon fill="black" stroke="black" points="3492.06,-242.15 3502.63,-242.88 3494.82,-235.72 3492.06,-242.15"/>
</g>
<!-- 6158108048 -->
<g id="node48" class="node">
<title>6158108048</title>
<polygon fill="none" stroke="black" points="3610,-225 3482,-225 3482,-189 3610,-189 3610,-225"/>
<text text-anchor="middle" x="3546" y="-203.9" font-family="Times,serif" font-size="12.00">Send report for revision</text>
</g>
<!-- 6087608848&#45;&gt;6158108048 -->
<g id="edge57" class="edge">
<title>6087608848&#45;&gt;6158108048</title>
<path fill="none" stroke="black" d="M3446.2,-207C3453.8,-207 3462.49,-207 3471.49,-207"/>
<polygon fill="black" stroke="black" points="3471.75,-210.5 3481.75,-207 3471.75,-203.5 3471.75,-210.5"/>
</g>
<!-- 6086450384&#45;&gt;6158072976 -->
<g id="edge56" class="edge">
<title>6086450384&#45;&gt;6158072976</title>
<path fill="none" stroke="black" d="M3759.33,-155C3769.52,-155 3779.97,-155 3789.48,-155"/>
<polygon fill="black" stroke="black" points="3789.76,-158.5 3799.76,-155 3789.76,-151.5 3789.76,-158.5"/>
</g>
<!-- 6158092176 -->
<g id="node50" class="node">
<title>6158092176</title>
<ellipse fill="orange" stroke="black" cx="3908" cy="-155" rx="18" ry="18"/>
</g>
<!-- 6158072976&#45;&gt;6158092176 -->
<g id="edge59" class="edge">
<title>6158072976&#45;&gt;6158092176</title>
<path fill="none" stroke="black" d="M3854.31,-155C3862.42,-155 3871.37,-155 3879.56,-155"/>
<polygon fill="black" stroke="black" points="3879.75,-158.5 3889.75,-155 3879.75,-151.5 3879.75,-158.5"/>
</g>
<!-- 6086448272 -->
<g id="node49" class="node">
<title>6086448272</title>
<polygon fill="none" stroke="black" points="3705,-227 3678,-209 3705,-191 3732,-209 3705,-227"/>
<text text-anchor="middle" x="3705" y="-205.9" font-family="Times,serif" font-size="12.00">X</text>
</g>
<!-- 6115460048&#45;&gt;6086448272 -->
<g id="edge60" class="edge">
<title>6115460048&#45;&gt;6086448272</title>
<path fill="none" stroke="black" d="M3590.73,-246.52C3618.24,-237.41 3652.88,-225.93 3676.56,-218.09"/>
<polygon fill="black" stroke="black" points="3677.91,-221.33 3686.3,-214.86 3675.71,-214.68 3677.91,-221.33"/>
</g>
<!-- 6158108048&#45;&gt;6086448272 -->
<g id="edge61" class="edge">
<title>6158108048&#45;&gt;6086448272</title>
<path fill="none" stroke="black" d="M3610.41,-207.81C3630.14,-208.06 3651.19,-208.33 3668.33,-208.55"/>
<polygon fill="black" stroke="black" points="3668.4,-212.05 3678.44,-208.67 3668.49,-205.05 3668.4,-212.05"/>
</g>
<!-- 6086448272&#45;&gt;6158072976 -->
<g id="edge62" class="edge">
<title>6086448272&#45;&gt;6158072976</title>
<path fill="none" stroke="black" d="M3721.69,-201.94C3741.9,-192.84 3777.27,-176.93 3801.16,-166.18"/>
<polygon fill="black" stroke="black" points="3802.63,-169.36 3810.31,-162.06 3799.75,-162.97 3802.63,-169.36"/>
</g>
</g>
</svg>
