<?xml version="1.0" encoding="UTF-8" standalone="no"?>
<!DOCTYPE svg PUBLIC "-//W3C//DTD SVG 1.1//EN"
 "http://www.w3.org/Graphics/SVG/1.1/DTD/svg11.dtd">
<!-- Generated by graphviz version 2.50.0 (0)
 -->
<!-- Pages: 1 -->
<svg width="3067pt" height="244pt"
 viewBox="0.00 0.00 3067.00 244.00" xmlns="http://www.w3.org/2000/svg" xmlns:xlink="http://www.w3.org/1999/xlink">
<g id="graph0" class="graph" transform="scale(1 1) rotate(0) translate(4 240)">
<polygon fill="white" stroke="transparent" points="-4,4 -4,-240 3063,-240 3063,4 -4,4"/>
<!-- 6097840080 -->
<g id="node1" class="node">
<title>6097840080</title>
<ellipse fill="green" stroke="black" cx="18" cy="-110" rx="18" ry="18"/>
</g>
<!-- 6134002576 -->
<g id="node2" class="node">
<title>6134002576</title>
<polygon fill="none" stroke="black" points="99,-128 72,-110 99,-92 126,-110 99,-128"/>
<text text-anchor="middle" x="99" y="-106.9" font-family="Times,serif" font-size="12.00">+</text>
</g>
<!-- 6097840080&#45;&gt;6134002576 -->
<g id="edge1" class="edge">
<title>6097840080&#45;&gt;6134002576</title>
<path fill="none" stroke="black" d="M36.14,-110C43.64,-110 52.75,-110 61.64,-110"/>
<polygon fill="black" stroke="black" points="61.87,-113.5 71.87,-110 61.87,-106.5 61.87,-113.5"/>
</g>
<!-- 6133879760 -->
<g id="node3" class="node">
<title>6133879760</title>
<polygon fill="none" stroke="black" points="314,-236 162,-236 162,-200 314,-200 314,-236"/>
<text text-anchor="middle" x="238" y="-214.9" font-family="Times,serif" font-size="12.00">Gather necessary documents</text>
</g>
<!-- 6134002576&#45;&gt;6133879760 -->
<g id="edge2" class="edge">
<title>6134002576&#45;&gt;6133879760</title>
<path fill="none" stroke="black" d="M106.84,-123.09C116.75,-140.86 136.7,-172.49 162,-191 163.86,-192.36 165.8,-193.66 167.79,-194.9"/>
<polygon fill="black" stroke="black" points="166.41,-198.13 176.85,-199.94 169.81,-192.02 166.41,-198.13"/>
</g>
<!-- 6133994448 -->
<g id="node4" class="node">
<title>6133994448</title>
<polygon fill="none" stroke="black" points="292,-182 184,-182 184,-146 292,-146 292,-182"/>
<text text-anchor="middle" x="238" y="-160.9" font-family="Times,serif" font-size="12.00">Close audit process</text>
</g>
<!-- 6134002576&#45;&gt;6133994448 -->
<g id="edge3" class="edge">
<title>6134002576&#45;&gt;6133994448</title>
<path fill="none" stroke="black" d="M115.43,-117.05C127.9,-122.67 145.96,-130.63 162,-137 166.51,-138.79 171.18,-140.6 175.9,-142.38"/>
<polygon fill="black" stroke="black" points="175,-145.78 185.6,-146 177.45,-139.22 175,-145.78"/>
</g>
<!-- 6133880400 -->
<g id="node5" class="node">
<title>6133880400</title>
<polygon fill="none" stroke="black" points="290,-128 186,-128 186,-92 290,-92 290,-128"/>
<text text-anchor="middle" x="238" y="-106.9" font-family="Times,serif" font-size="12.00">Submit documents</text>
</g>
<!-- 6134002576&#45;&gt;6133880400 -->
<g id="edge4" class="edge">
<title>6134002576&#45;&gt;6133880400</title>
<path fill="none" stroke="black" d="M126.09,-110C140.17,-110 158.2,-110 175.61,-110"/>
<polygon fill="black" stroke="black" points="175.75,-113.5 185.75,-110 175.75,-106.5 175.75,-113.5"/>
</g>
<!-- 6097251600 -->
<g id="node6" class="node">
<title>6097251600</title>
<polygon fill="none" stroke="black" points="834,-82 737,-82 737,-46 834,-46 834,-82"/>
<text text-anchor="middle" x="785.5" y="-60.9" font-family="Times,serif" font-size="12.00">Send notification</text>
</g>
<!-- 6134002576&#45;&gt;6097251600 -->
<g id="edge5" class="edge">
<title>6134002576&#45;&gt;6097251600</title>
<path fill="none" stroke="black" d="M114.25,-101.93C126.48,-95.46 144.82,-86.85 162,-83 365.59,-37.34 615.97,-49.72 726.91,-58.59"/>
<polygon fill="black" stroke="black" points="726.63,-62.07 736.89,-59.4 727.2,-55.1 726.63,-62.07"/>
</g>
<!-- 6097243664 -->
<g id="node7" class="node">
<title>6097243664</title>
<polygon fill="none" stroke="black" points="297,-36 179,-36 179,0 297,0 297,-36"/>
<text text-anchor="middle" x="238" y="-14.9" font-family="Times,serif" font-size="12.00">Receive clarifications</text>
</g>
<!-- 6134002576&#45;&gt;6097243664 -->
<g id="edge6" class="edge">
<title>6134002576&#45;&gt;6097243664</title>
<path fill="none" stroke="black" d="M109.51,-98.54C120.89,-85.41 141.04,-63.92 162,-50 166.99,-46.69 172.37,-43.6 177.89,-40.75"/>
<polygon fill="black" stroke="black" points="179.8,-43.71 187.25,-36.18 176.73,-37.42 179.8,-43.71"/>
</g>
<!-- 6094504272 -->
<g id="node12" class="node">
<title>6094504272</title>
<polygon fill="none" stroke="black" points="1020.5,-236 883.5,-236 883.5,-200 1020.5,-200 1020.5,-236"/>
<text text-anchor="middle" x="952" y="-214.9" font-family="Times,serif" font-size="12.00">Check regulatory updates</text>
</g>
<!-- 6133879760&#45;&gt;6094504272 -->
<g id="edge7" class="edge">
<title>6133879760&#45;&gt;6094504272</title>
<path fill="none" stroke="black" d="M314.19,-218C450.11,-218 735.36,-218 873.18,-218"/>
<polygon fill="black" stroke="black" points="873.25,-221.5 883.25,-218 873.25,-214.5 873.25,-221.5"/>
</g>
<!-- 6133877072 -->
<g id="node8" class="node">
<title>6133877072</title>
<polygon fill="none" stroke="black" points="491.5,-182 405.5,-182 405.5,-146 491.5,-146 491.5,-182"/>
<text text-anchor="middle" x="448.5" y="-160.9" font-family="Times,serif" font-size="12.00">Archive report</text>
</g>
<!-- 6133994448&#45;&gt;6133877072 -->
<g id="edge8" class="edge">
<title>6133994448&#45;&gt;6133877072</title>
<path fill="none" stroke="black" d="M292.15,-164C323.7,-164 363.53,-164 394.97,-164"/>
<polygon fill="black" stroke="black" points="395.28,-167.5 405.28,-164 395.28,-160.5 395.28,-167.5"/>
</g>
<!-- 6097254096 -->
<g id="node10" class="node">
<title>6097254096</title>
<polygon fill="none" stroke="black" points="1218,-128 1070,-128 1070,-92 1218,-92 1218,-128"/>
<text text-anchor="middle" x="1144" y="-106.9" font-family="Times,serif" font-size="12.00">Prepare financial statements</text>
</g>
<!-- 6133880400&#45;&gt;6097254096 -->
<g id="edge9" class="edge">
<title>6133880400&#45;&gt;6097254096</title>
<path fill="none" stroke="black" d="M290.08,-110C366.44,-110 514.85,-110 641,-110 641,-110 641,-110 786.5,-110 880,-110 987.3,-110 1059.54,-110"/>
<polygon fill="black" stroke="black" points="1059.94,-113.5 1069.94,-110 1059.94,-106.5 1059.94,-113.5"/>
</g>
<!-- 6097253904 -->
<g id="node9" class="node">
<title>6097253904</title>
<polygon fill="none" stroke="black" points="2960,-128 2933,-110 2960,-92 2987,-110 2960,-128"/>
<text text-anchor="middle" x="2960" y="-106.9" font-family="Times,serif" font-size="12.00">+</text>
</g>
<!-- 6097251600&#45;&gt;6097253904 -->
<g id="edge10" class="edge">
<title>6097251600&#45;&gt;6097253904</title>
<path fill="none" stroke="black" d="M834.07,-64C902.42,-64 1032.37,-64 1143,-64 1143,-64 1143,-64 2666,-64 2764.03,-64 2878.3,-89.44 2930.44,-102.48"/>
<polygon fill="black" stroke="black" points="2929.75,-105.92 2940.31,-104.99 2931.48,-99.13 2929.75,-105.92"/>
</g>
<!-- 6094510096 -->
<g id="node11" class="node">
<title>6094510096</title>
<polygon fill="none" stroke="black" points="547,-36 350,-36 350,0 547,0 547,-36"/>
<text text-anchor="middle" x="448.5" y="-14.9" font-family="Times,serif" font-size="12.00">Request clarifications of discrepancies</text>
</g>
<!-- 6097243664&#45;&gt;6094510096 -->
<g id="edge11" class="edge">
<title>6097243664&#45;&gt;6094510096</title>
<path fill="none" stroke="black" d="M297.08,-18C310.39,-18 324.97,-18 339.64,-18"/>
<polygon fill="black" stroke="black" points="339.79,-21.5 349.79,-18 339.79,-14.5 339.79,-21.5"/>
</g>
<!-- 6097248720 -->
<g id="node14" class="node">
<title>6097248720</title>
<polygon fill="none" stroke="black" points="701,-182 583,-182 583,-146 701,-146 701,-182"/>
<text text-anchor="middle" x="642" y="-160.9" font-family="Times,serif" font-size="12.00">Distribute final report</text>
</g>
<!-- 6133877072&#45;&gt;6097248720 -->
<g id="edge14" class="edge">
<title>6133877072&#45;&gt;6097248720</title>
<path fill="none" stroke="black" d="M491.53,-164C515.25,-164 545.48,-164 572.54,-164"/>
<polygon fill="black" stroke="black" points="572.73,-167.5 582.73,-164 572.73,-160.5 572.73,-167.5"/>
</g>
<!-- 6159065104 -->
<g id="node28" class="node">
<title>6159065104</title>
<ellipse fill="orange" stroke="black" cx="3041" cy="-110" rx="18" ry="18"/>
</g>
<!-- 6097253904&#45;&gt;6159065104 -->
<g id="edge16" class="edge">
<title>6097253904&#45;&gt;6159065104</title>
<path fill="none" stroke="black" d="M2987.31,-110C2995.42,-110 3004.37,-110 3012.56,-110"/>
<polygon fill="black" stroke="black" points="3012.75,-113.5 3022.75,-110 3012.75,-106.5 3012.75,-113.5"/>
</g>
<!-- 6097254096&#45;&gt;6097253904 -->
<g id="edge12" class="edge">
<title>6097254096&#45;&gt;6097253904</title>
<path fill="none" stroke="black" d="M1218.18,-110C1284.85,-110 1386.04,-110 1474,-110 1474,-110 1474,-110 2666,-110 2758.47,-110 2867.36,-110 2922.72,-110"/>
<polygon fill="black" stroke="black" points="2922.74,-113.5 2932.74,-110 2922.74,-106.5 2922.74,-113.5"/>
</g>
<!-- 6133885648 -->
<g id="node13" class="node">
<title>6133885648</title>
<polygon fill="none" stroke="black" points="1372.5,-36 1263.5,-36 1263.5,0 1372.5,0 1372.5,-36"/>
<text text-anchor="middle" x="1318" y="-14.9" font-family="Times,serif" font-size="12.00">Review submission</text>
</g>
<!-- 6094510096&#45;&gt;6133885648 -->
<g id="edge15" class="edge">
<title>6094510096&#45;&gt;6133885648</title>
<path fill="none" stroke="black" d="M547.35,-18C614.15,-18 704.68,-18 784.5,-18 784.5,-18 784.5,-18 953,-18 1058.11,-18 1180.28,-18 1252.98,-18"/>
<polygon fill="black" stroke="black" points="1253.34,-21.5 1263.34,-18 1253.34,-14.5 1253.34,-21.5"/>
</g>
<!-- 6094504272&#45;&gt;6097253904 -->
<g id="edge13" class="edge">
<title>6094504272&#45;&gt;6097253904</title>
<path fill="none" stroke="black" d="M1020.75,-215.62C1093.84,-213.26 1213.65,-210 1317,-210 1317,-210 1317,-210 2666,-210 2769.17,-210 2806.26,-236.11 2897,-187 2919.75,-174.69 2937.2,-150.18 2947.71,-132.11"/>
<polygon fill="black" stroke="black" points="2950.78,-133.79 2952.56,-123.34 2944.66,-130.4 2950.78,-133.79"/>
</g>
<!-- 6133885648&#45;&gt;6097253904 -->
<g id="edge17" class="edge">
<title>6133885648&#45;&gt;6097253904</title>
<path fill="none" stroke="black" d="M1372.61,-19.01C1439.94,-20.2 1559.02,-22 1661,-22 1661,-22 1661,-22 2666,-22 2769.42,-22 2803.65,-5.5 2897,-50 2916.04,-59.07 2932.88,-76.31 2944.2,-89.99"/>
<polygon fill="black" stroke="black" points="2941.54,-92.28 2950.49,-97.95 2947.03,-87.93 2941.54,-92.28"/>
</g>
<!-- 6097244816 -->
<g id="node15" class="node">
<title>6097244816</title>
<polygon fill="none" stroke="black" points="830,-182 741,-182 741,-146 830,-146 830,-182"/>
<text text-anchor="middle" x="785.5" y="-160.9" font-family="Times,serif" font-size="12.00">Approve report</text>
</g>
<!-- 6097248720&#45;&gt;6097244816 -->
<g id="edge18" class="edge">
<title>6097248720&#45;&gt;6097244816</title>
<path fill="none" stroke="black" d="M701.37,-164C711.1,-164 721.15,-164 730.75,-164"/>
<polygon fill="black" stroke="black" points="730.97,-167.5 740.97,-164 730.97,-160.5 730.97,-167.5"/>
</g>
<!-- 6133886992 -->
<g id="node16" class="node">
<title>6133886992</title>
<polygon fill="none" stroke="black" points="1034,-182 870,-182 870,-146 1034,-146 1034,-182"/>
<text text-anchor="middle" x="952" y="-160.9" font-family="Times,serif" font-size="12.00">Review report by audit director</text>
</g>
<!-- 6097244816&#45;&gt;6133886992 -->
<g id="edge19" class="edge">
<title>6097244816&#45;&gt;6133886992</title>
<path fill="none" stroke="black" d="M830.15,-164C839.36,-164 849.4,-164 859.64,-164"/>
<polygon fill="black" stroke="black" points="859.91,-167.5 869.91,-164 859.91,-160.5 859.91,-167.5"/>
</g>
<!-- 6133878416 -->
<g id="node17" class="node">
<title>6133878416</title>
<polygon fill="none" stroke="black" points="1217,-182 1071,-182 1071,-146 1217,-146 1217,-182"/>
<text text-anchor="middle" x="1144" y="-160.9" font-family="Times,serif" font-size="12.00">Update and resubmit report</text>
</g>
<!-- 6133886992&#45;&gt;6133878416 -->
<g id="edge20" class="edge">
<title>6133886992&#45;&gt;6133878416</title>
<path fill="none" stroke="black" d="M1034.13,-164C1042.9,-164 1051.83,-164 1060.62,-164"/>
<polygon fill="black" stroke="black" points="1060.85,-167.5 1070.85,-164 1060.85,-160.5 1060.85,-167.5"/>
</g>
<!-- 6097242000 -->
<g id="node18" class="node">
<title>6097242000</title>
<polygon fill="none" stroke="black" points="1382,-182 1254,-182 1254,-146 1382,-146 1382,-182"/>
<text text-anchor="middle" x="1318" y="-160.9" font-family="Times,serif" font-size="12.00">Send report for revision</text>
</g>
<!-- 6133878416&#45;&gt;6097242000 -->
<g id="edge21" class="edge">
<title>6133878416&#45;&gt;6097242000</title>
<path fill="none" stroke="black" d="M1217.44,-164C1226.16,-164 1235.06,-164 1243.78,-164"/>
<polygon fill="black" stroke="black" points="1243.91,-167.5 1253.91,-164 1243.91,-160.5 1243.91,-167.5"/>
</g>
<!-- 6097246480 -->
<g id="node19" class="node">
<title>6097246480</title>
<polygon fill="none" stroke="black" points="1532,-182 1418,-182 1418,-146 1532,-146 1532,-182"/>
<text text-anchor="middle" x="1475" y="-160.9" font-family="Times,serif" font-size="12.00">Compile audit report</text>
</g>
<!-- 6097242000&#45;&gt;6097246480 -->
<g id="edge22" class="edge">
<title>6097242000&#45;&gt;6097246480</title>
<path fill="none" stroke="black" d="M1382.04,-164C1390.51,-164 1399.21,-164 1407.72,-164"/>
<polygon fill="black" stroke="black" points="1407.99,-167.5 1417.99,-164 1407.99,-160.5 1407.99,-167.5"/>
</g>
<!-- 6133888016 -->
<g id="node20" class="node">
<title>6133888016</title>
<polygon fill="none" stroke="black" points="1756,-182 1568,-182 1568,-146 1756,-146 1756,-182"/>
<text text-anchor="middle" x="1662" y="-160.9" font-family="Times,serif" font-size="12.00">Complete risk assessment/mitigation</text>
</g>
<!-- 6097246480&#45;&gt;6133888016 -->
<g id="edge23" class="edge">
<title>6097246480&#45;&gt;6133888016</title>
<path fill="none" stroke="black" d="M1532.01,-164C1540.28,-164 1549.01,-164 1557.87,-164"/>
<polygon fill="black" stroke="black" points="1557.91,-167.5 1567.91,-164 1557.91,-160.5 1557.91,-167.5"/>
</g>
<!-- 6097248528 -->
<g id="node21" class="node">
<title>6097248528</title>
<polygon fill="none" stroke="black" points="1893,-182 1792,-182 1792,-146 1893,-146 1893,-182"/>
<text text-anchor="middle" x="1842.5" y="-160.9" font-family="Times,serif" font-size="12.00">Perform site visits</text>
</g>
<!-- 6133888016&#45;&gt;6097248528 -->
<g id="edge24" class="edge">
<title>6133888016&#45;&gt;6097248528</title>
<path fill="none" stroke="black" d="M1756.17,-164C1764.85,-164 1773.48,-164 1781.73,-164"/>
<polygon fill="black" stroke="black" points="1781.95,-167.5 1791.95,-164 1781.95,-160.5 1781.95,-167.5"/>
</g>
<!-- 6097248656 -->
<g id="node22" class="node">
<title>6097248656</title>
<polygon fill="none" stroke="black" points="2038,-181 1929,-181 1929,-145 2038,-145 2038,-181"/>
<text text-anchor="middle" x="1983.5" y="-159.9" font-family="Times,serif" font-size="12.00">Conduct interviews</text>
</g>
<!-- 6097248528&#45;&gt;6097248656 -->
<g id="edge25" class="edge">
<title>6097248528&#45;&gt;6097248656</title>
<path fill="none" stroke="black" d="M1893.29,-163.64C1901.49,-163.58 1910.08,-163.52 1918.57,-163.46"/>
<polygon fill="black" stroke="black" points="1918.85,-166.96 1928.82,-163.39 1918.8,-159.96 1918.85,-166.96"/>
</g>
<!-- 6134000464 -->
<g id="node23" class="node">
<title>6134000464</title>
<polygon fill="none" stroke="black" points="2194,-181 2074,-181 2074,-145 2194,-145 2194,-181"/>
<text text-anchor="middle" x="2134" y="-159.9" font-family="Times,serif" font-size="12.00">Conduct data analysis</text>
</g>
<!-- 6097248656&#45;&gt;6134000464 -->
<g id="edge26" class="edge">
<title>6097248656&#45;&gt;6134000464</title>
<path fill="none" stroke="black" d="M2038.11,-163C2046.47,-163 2055.21,-163 2063.86,-163"/>
<polygon fill="black" stroke="black" points="2063.94,-166.5 2073.94,-163 2063.94,-159.5 2063.94,-166.5"/>
</g>
<!-- 6133883152 -->
<g id="node24" class="node">
<title>6133883152</title>
<polygon fill="none" stroke="black" points="2385,-181 2230,-181 2230,-145 2385,-145 2385,-181"/>
<text text-anchor="middle" x="2307.5" y="-159.9" font-family="Times,serif" font-size="12.00">Launch detailed investigation</text>
</g>
<!-- 6134000464&#45;&gt;6133883152 -->
<g id="edge27" class="edge">
<title>6134000464&#45;&gt;6133883152</title>
<path fill="none" stroke="black" d="M2194.02,-163C2202.31,-163 2210.97,-163 2219.64,-163"/>
<polygon fill="black" stroke="black" points="2219.8,-166.5 2229.8,-163 2219.8,-159.5 2219.8,-166.5"/>
</g>
<!-- 6133878224 -->
<g id="node25" class="node">
<title>6133878224</title>
<polygon fill="none" stroke="black" points="2559,-181 2421,-181 2421,-145 2559,-145 2559,-181"/>
<text text-anchor="middle" x="2490" y="-159.9" font-family="Times,serif" font-size="12.00">Evaluate operational risks</text>
</g>
<!-- 6133883152&#45;&gt;6133878224 -->
<g id="edge28" class="edge">
<title>6133883152&#45;&gt;6133878224</title>
<path fill="none" stroke="black" d="M2385.05,-163C2393.52,-163 2402.15,-163 2410.65,-163"/>
<polygon fill="black" stroke="black" points="2410.91,-166.5 2420.91,-163 2410.91,-159.5 2410.91,-166.5"/>
</g>
<!-- 6133889104 -->
<g id="node26" class="node">
<title>6133889104</title>
<polygon fill="none" stroke="black" points="2735,-180 2595,-180 2595,-144 2735,-144 2735,-180"/>
<text text-anchor="middle" x="2665" y="-158.9" font-family="Times,serif" font-size="12.00">Evaluate compliance risks</text>
</g>
<!-- 6133878224&#45;&gt;6133889104 -->
<g id="edge29" class="edge">
<title>6133878224&#45;&gt;6133889104</title>
<path fill="none" stroke="black" d="M2559.37,-162.6C2567.7,-162.56 2576.26,-162.51 2584.73,-162.46"/>
<polygon fill="black" stroke="black" points="2585.01,-165.96 2594.99,-162.4 2584.97,-158.96 2585.01,-165.96"/>
</g>
<!-- 6134003600 -->
<g id="node27" class="node">
<title>6134003600</title>
<polygon fill="none" stroke="black" points="2897,-178 2771,-178 2771,-142 2897,-142 2897,-178"/>
<text text-anchor="middle" x="2834" y="-156.9" font-family="Times,serif" font-size="12.00">Evaluate financial risks</text>
</g>
<!-- 6133889104&#45;&gt;6134003600 -->
<g id="edge30" class="edge">
<title>6133889104&#45;&gt;6134003600</title>
<path fill="none" stroke="black" d="M2735.37,-161.17C2743.72,-161.07 2752.26,-160.97 2760.65,-160.87"/>
<polygon fill="black" stroke="black" points="2760.82,-164.36 2770.78,-160.75 2760.74,-157.37 2760.82,-164.36"/>
</g>
<!-- 6134003600&#45;&gt;6097253904 -->
<g id="edge31" class="edge">
<title>6134003600&#45;&gt;6097253904</title>
<path fill="none" stroke="black" d="M2879.77,-141.95C2897.75,-134.7 2917.83,-126.6 2933.28,-120.37"/>
<polygon fill="black" stroke="black" points="2934.73,-123.56 2942.69,-116.58 2932.11,-117.07 2934.73,-123.56"/>
</g>
</g>
</svg>
