<?xml version="1.0" encoding="UTF-8" standalone="no"?>
<!DOCTYPE svg PUBLIC "-//W3C//DTD SVG 1.1//EN"
 "http://www.w3.org/Graphics/SVG/1.1/DTD/svg11.dtd">
<!-- Generated by graphviz version 2.50.0 (0)
 -->
<!-- Pages: 1 -->
<svg width="3067pt" height="277pt"
 viewBox="0.00 0.00 3067.00 276.70" xmlns="http://www.w3.org/2000/svg" xmlns:xlink="http://www.w3.org/1999/xlink">
<g id="graph0" class="graph" transform="scale(1 1) rotate(0) translate(4 272.7)">
<polygon fill="white" stroke="transparent" points="-4,4 -4,-272.7 3063,-272.7 3063,4 -4,4"/>
<!-- 6093639120 -->
<g id="node1" class="node">
<title>6093639120</title>
<ellipse fill="green" stroke="black" cx="18" cy="-142.7" rx="18" ry="18"/>
</g>
<!-- 6093635920 -->
<g id="node2" class="node">
<title>6093635920</title>
<polygon fill="none" stroke="black" points="99,-160.7 72,-142.7 99,-124.7 126,-142.7 99,-160.7"/>
<text text-anchor="middle" x="99" y="-139.6" font-family="Times,serif" font-size="12.00">+</text>
</g>
<!-- 6093639120&#45;&gt;6093635920 -->
<g id="edge1" class="edge">
<title>6093639120&#45;&gt;6093635920</title>
<path fill="none" stroke="black" d="M36.14,-142.7C43.64,-142.7 52.75,-142.7 61.64,-142.7"/>
<polygon fill="black" stroke="black" points="61.87,-146.2 71.87,-142.7 61.87,-139.2 61.87,-146.2"/>
</g>
<!-- 6093640592 -->
<g id="node3" class="node">
<title>6093640592</title>
<polygon fill="none" stroke="black" points="297,-268.7 179,-268.7 179,-232.7 297,-232.7 297,-268.7"/>
<text text-anchor="middle" x="238" y="-247.6" font-family="Times,serif" font-size="12.00">Receive clarifications</text>
</g>
<!-- 6093635920&#45;&gt;6093640592 -->
<g id="edge3" class="edge">
<title>6093635920&#45;&gt;6093640592</title>
<path fill="none" stroke="black" d="M106.84,-155.8C116.75,-173.56 136.7,-205.2 162,-223.7 164.49,-225.52 167.11,-227.23 169.83,-228.83"/>
<polygon fill="black" stroke="black" points="168.3,-231.98 178.77,-233.59 171.59,-225.8 168.3,-231.98"/>
</g>
<!-- 6092365904 -->
<g id="node4" class="node">
<title>6092365904</title>
<polygon fill="none" stroke="black" points="292,-214.7 184,-214.7 184,-178.7 292,-178.7 292,-214.7"/>
<text text-anchor="middle" x="238" y="-193.6" font-family="Times,serif" font-size="12.00">Close audit process</text>
</g>
<!-- 6093635920&#45;&gt;6092365904 -->
<g id="edge5" class="edge">
<title>6093635920&#45;&gt;6092365904</title>
<path fill="none" stroke="black" d="M115.43,-149.76C127.9,-155.38 145.96,-163.33 162,-169.7 166.51,-171.49 171.18,-173.3 175.9,-175.08"/>
<polygon fill="black" stroke="black" points="175,-178.48 185.6,-178.7 177.45,-171.93 175,-178.48"/>
</g>
<!-- 6092362320 -->
<g id="node5" class="node">
<title>6092362320</title>
<polygon fill="none" stroke="black" points="290,-160.7 186,-160.7 186,-124.7 290,-124.7 290,-160.7"/>
<text text-anchor="middle" x="238" y="-139.6" font-family="Times,serif" font-size="12.00">Submit documents</text>
</g>
<!-- 6093635920&#45;&gt;6092362320 -->
<g id="edge4" class="edge">
<title>6093635920&#45;&gt;6092362320</title>
<path fill="none" stroke="black" d="M126.09,-142.7C140.17,-142.7 158.2,-142.7 175.61,-142.7"/>
<polygon fill="black" stroke="black" points="175.75,-146.2 185.75,-142.7 175.75,-139.2 175.75,-146.2"/>
</g>
<!-- 6092367248 -->
<g id="node6" class="node">
<title>6092367248</title>
<polygon fill="none" stroke="black" points="314,-106.7 162,-106.7 162,-70.7 314,-70.7 314,-106.7"/>
<text text-anchor="middle" x="238" y="-85.6" font-family="Times,serif" font-size="12.00">Gather necessary documents</text>
</g>
<!-- 6093635920&#45;&gt;6092367248 -->
<g id="edge6" class="edge">
<title>6093635920&#45;&gt;6092367248</title>
<path fill="none" stroke="black" d="M115.43,-135.65C127.9,-130.03 145.96,-122.08 162,-115.7 166.51,-113.91 171.18,-112.11 175.9,-110.33"/>
<polygon fill="black" stroke="black" points="177.45,-113.48 185.6,-106.71 175,-106.92 177.45,-113.48"/>
</g>
<!-- 6092130832 -->
<g id="node7" class="node">
<title>6092130832</title>
<polygon fill="none" stroke="black" points="834,-60.7 737,-60.7 737,-24.7 834,-24.7 834,-60.7"/>
<text text-anchor="middle" x="785.5" y="-39.6" font-family="Times,serif" font-size="12.00">Send notification</text>
</g>
<!-- 6093635920&#45;&gt;6092130832 -->
<g id="edge2" class="edge">
<title>6093635920&#45;&gt;6092130832</title>
<path fill="none" stroke="black" d="M105.8,-129.06C114.72,-110.01 133.8,-76.17 162,-61.7 349.24,34.35 611.58,-4.67 726.6,-28.89"/>
<polygon fill="black" stroke="black" points="726.1,-32.37 736.61,-31.04 727.57,-25.52 726.1,-32.37"/>
</g>
<!-- 6092143504 -->
<g id="node12" class="node">
<title>6092143504</title>
<polygon fill="none" stroke="black" points="547,-268.7 350,-268.7 350,-232.7 547,-232.7 547,-268.7"/>
<text text-anchor="middle" x="448.5" y="-247.6" font-family="Times,serif" font-size="12.00">Request clarifications of discrepancies</text>
</g>
<!-- 6093640592&#45;&gt;6092143504 -->
<g id="edge7" class="edge">
<title>6093640592&#45;&gt;6092143504</title>
<path fill="none" stroke="black" d="M297.08,-250.7C310.39,-250.7 324.97,-250.7 339.64,-250.7"/>
<polygon fill="black" stroke="black" points="339.79,-254.2 349.79,-250.7 339.79,-247.2 339.79,-254.2"/>
</g>
<!-- 6092199632 -->
<g id="node9" class="node">
<title>6092199632</title>
<polygon fill="none" stroke="black" points="491.5,-214.7 405.5,-214.7 405.5,-178.7 491.5,-178.7 491.5,-214.7"/>
<text text-anchor="middle" x="448.5" y="-193.6" font-family="Times,serif" font-size="12.00">Archive report</text>
</g>
<!-- 6092365904&#45;&gt;6092199632 -->
<g id="edge8" class="edge">
<title>6092365904&#45;&gt;6092199632</title>
<path fill="none" stroke="black" d="M292.15,-196.7C323.7,-196.7 363.53,-196.7 394.97,-196.7"/>
<polygon fill="black" stroke="black" points="395.28,-200.2 405.28,-196.7 395.28,-193.2 395.28,-200.2"/>
</g>
<!-- 6092366608 -->
<g id="node11" class="node">
<title>6092366608</title>
<polygon fill="none" stroke="black" points="1218,-160.7 1070,-160.7 1070,-124.7 1218,-124.7 1218,-160.7"/>
<text text-anchor="middle" x="1144" y="-139.6" font-family="Times,serif" font-size="12.00">Prepare financial statements</text>
</g>
<!-- 6092362320&#45;&gt;6092366608 -->
<g id="edge9" class="edge">
<title>6092362320&#45;&gt;6092366608</title>
<path fill="none" stroke="black" d="M290.08,-142.7C366.44,-142.7 514.85,-142.7 641,-142.7 641,-142.7 641,-142.7 786.5,-142.7 880,-142.7 987.3,-142.7 1059.54,-142.7"/>
<polygon fill="black" stroke="black" points="1059.94,-146.2 1069.94,-142.7 1059.94,-139.2 1059.94,-146.2"/>
</g>
<!-- 6093638864 -->
<g id="node8" class="node">
<title>6093638864</title>
<polygon fill="none" stroke="black" points="1020.5,-109.7 883.5,-109.7 883.5,-73.7 1020.5,-73.7 1020.5,-109.7"/>
<text text-anchor="middle" x="952" y="-88.6" font-family="Times,serif" font-size="12.00">Check regulatory updates</text>
</g>
<!-- 6092367248&#45;&gt;6093638864 -->
<g id="edge10" class="edge">
<title>6092367248&#45;&gt;6093638864</title>
<path fill="none" stroke="black" d="M314.19,-89.02C450.11,-89.59 735.36,-90.8 873.18,-91.38"/>
<polygon fill="black" stroke="black" points="873.24,-94.88 883.25,-91.42 873.26,-87.88 873.24,-94.88"/>
</g>
<!-- 6092371600 -->
<g id="node10" class="node">
<title>6092371600</title>
<polygon fill="none" stroke="black" points="2960,-160.7 2933,-142.7 2960,-124.7 2987,-142.7 2960,-160.7"/>
<text text-anchor="middle" x="2960" y="-139.6" font-family="Times,serif" font-size="12.00">+</text>
</g>
<!-- 6092130832&#45;&gt;6092371600 -->
<g id="edge11" class="edge">
<title>6092130832&#45;&gt;6092371600</title>
<path fill="none" stroke="black" d="M834.07,-42.7C902.42,-42.7 1032.37,-42.7 1143,-42.7 1143,-42.7 1143,-42.7 2666,-42.7 2771.43,-42.7 2801.34,-52.37 2897,-96.7 2912.85,-104.05 2928.64,-115.84 2940.31,-125.65"/>
<polygon fill="black" stroke="black" points="2938.18,-128.44 2948.03,-132.35 2942.77,-123.15 2938.18,-128.44"/>
</g>
<!-- 6093638864&#45;&gt;6092371600 -->
<g id="edge12" class="edge">
<title>6093638864&#45;&gt;6092371600</title>
<path fill="none" stroke="black" d="M1020.76,-92C1093.86,-92.3 1213.68,-92.7 1317,-92.7 1317,-92.7 1317,-92.7 2666,-92.7 2764.49,-92.7 2878.97,-120.49 2930.87,-134.64"/>
<polygon fill="black" stroke="black" points="2930.1,-138.06 2940.67,-137.35 2931.97,-131.31 2930.1,-138.06"/>
</g>
<!-- 6092364496 -->
<g id="node13" class="node">
<title>6092364496</title>
<polygon fill="none" stroke="black" points="701,-214.7 583,-214.7 583,-178.7 701,-178.7 701,-214.7"/>
<text text-anchor="middle" x="642" y="-193.6" font-family="Times,serif" font-size="12.00">Distribute final report</text>
</g>
<!-- 6092199632&#45;&gt;6092364496 -->
<g id="edge14" class="edge">
<title>6092199632&#45;&gt;6092364496</title>
<path fill="none" stroke="black" d="M491.53,-196.7C515.25,-196.7 545.48,-196.7 572.54,-196.7"/>
<polygon fill="black" stroke="black" points="572.73,-200.2 582.73,-196.7 572.73,-193.2 572.73,-200.2"/>
</g>
<!-- 6091669008 -->
<g id="node28" class="node">
<title>6091669008</title>
<ellipse fill="orange" stroke="black" cx="3041" cy="-142.7" rx="18" ry="18"/>
</g>
<!-- 6092371600&#45;&gt;6091669008 -->
<g id="edge16" class="edge">
<title>6092371600&#45;&gt;6091669008</title>
<path fill="none" stroke="black" d="M2987.31,-142.7C2995.42,-142.7 3004.37,-142.7 3012.56,-142.7"/>
<polygon fill="black" stroke="black" points="3012.75,-146.2 3022.75,-142.7 3012.75,-139.2 3012.75,-146.2"/>
</g>
<!-- 6092366608&#45;&gt;6092371600 -->
<g id="edge13" class="edge">
<title>6092366608&#45;&gt;6092371600</title>
<path fill="none" stroke="black" d="M1218.18,-142.7C1284.85,-142.7 1386.04,-142.7 1474,-142.7 1474,-142.7 1474,-142.7 2666,-142.7 2758.47,-142.7 2867.36,-142.7 2922.72,-142.7"/>
<polygon fill="black" stroke="black" points="2922.74,-146.2 2932.74,-142.7 2922.74,-139.2 2922.74,-146.2"/>
</g>
<!-- 6092143888 -->
<g id="node14" class="node">
<title>6092143888</title>
<polygon fill="none" stroke="black" points="1372.5,-260.7 1263.5,-260.7 1263.5,-224.7 1372.5,-224.7 1372.5,-260.7"/>
<text text-anchor="middle" x="1318" y="-239.6" font-family="Times,serif" font-size="12.00">Review submission</text>
</g>
<!-- 6092143504&#45;&gt;6092143888 -->
<g id="edge15" class="edge">
<title>6092143504&#45;&gt;6092143888</title>
<path fill="none" stroke="black" d="M547.33,-247.14C614.13,-245 704.65,-242.7 784.5,-242.7 784.5,-242.7 784.5,-242.7 953,-242.7 1058.11,-242.7 1180.28,-242.7 1252.98,-242.7"/>
<polygon fill="black" stroke="black" points="1253.34,-246.2 1263.34,-242.7 1253.34,-239.2 1253.34,-246.2"/>
</g>
<!-- 6092438032 -->
<g id="node15" class="node">
<title>6092438032</title>
<polygon fill="none" stroke="black" points="830,-214.7 741,-214.7 741,-178.7 830,-178.7 830,-214.7"/>
<text text-anchor="middle" x="785.5" y="-193.6" font-family="Times,serif" font-size="12.00">Approve report</text>
</g>
<!-- 6092364496&#45;&gt;6092438032 -->
<g id="edge18" class="edge">
<title>6092364496&#45;&gt;6092438032</title>
<path fill="none" stroke="black" d="M701.37,-196.7C711.1,-196.7 721.15,-196.7 730.75,-196.7"/>
<polygon fill="black" stroke="black" points="730.97,-200.2 740.97,-196.7 730.97,-193.2 730.97,-200.2"/>
</g>
<!-- 6092143888&#45;&gt;6092371600 -->
<g id="edge17" class="edge">
<title>6092143888&#45;&gt;6092371600</title>
<path fill="none" stroke="black" d="M1372.61,-241.69C1439.94,-240.5 1559.02,-238.7 1661,-238.7 1661,-238.7 1661,-238.7 2666,-238.7 2769.17,-238.7 2805.63,-263.62 2897,-215.7 2918.87,-204.24 2936.23,-181.51 2946.95,-164.44"/>
<polygon fill="black" stroke="black" points="2950.08,-166.03 2952.21,-155.65 2944.07,-162.44 2950.08,-166.03"/>
</g>
<!-- 6092372688 -->
<g id="node16" class="node">
<title>6092372688</title>
<polygon fill="none" stroke="black" points="1034,-214.7 870,-214.7 870,-178.7 1034,-178.7 1034,-214.7"/>
<text text-anchor="middle" x="952" y="-193.6" font-family="Times,serif" font-size="12.00">Review report by audit director</text>
</g>
<!-- 6092438032&#45;&gt;6092372688 -->
<g id="edge19" class="edge">
<title>6092438032&#45;&gt;6092372688</title>
<path fill="none" stroke="black" d="M830.15,-196.7C839.36,-196.7 849.4,-196.7 859.64,-196.7"/>
<polygon fill="black" stroke="black" points="859.91,-200.2 869.91,-196.7 859.91,-193.2 859.91,-200.2"/>
</g>
<!-- 6091805776 -->
<g id="node17" class="node">
<title>6091805776</title>
<polygon fill="none" stroke="black" points="1217,-214.7 1071,-214.7 1071,-178.7 1217,-178.7 1217,-214.7"/>
<text text-anchor="middle" x="1144" y="-193.6" font-family="Times,serif" font-size="12.00">Update and resubmit report</text>
</g>
<!-- 6092372688&#45;&gt;6091805776 -->
<g id="edge20" class="edge">
<title>6092372688&#45;&gt;6091805776</title>
<path fill="none" stroke="black" d="M1034.13,-196.7C1042.9,-196.7 1051.83,-196.7 1060.62,-196.7"/>
<polygon fill="black" stroke="black" points="1060.85,-200.2 1070.85,-196.7 1060.85,-193.2 1060.85,-200.2"/>
</g>
<!-- 6092372112 -->
<g id="node18" class="node">
<title>6092372112</title>
<polygon fill="none" stroke="black" points="1382,-206.7 1254,-206.7 1254,-170.7 1382,-170.7 1382,-206.7"/>
<text text-anchor="middle" x="1318" y="-185.6" font-family="Times,serif" font-size="12.00">Send report for revision</text>
</g>
<!-- 6091805776&#45;&gt;6092372112 -->
<g id="edge21" class="edge">
<title>6091805776&#45;&gt;6092372112</title>
<path fill="none" stroke="black" d="M1217.44,-193.34C1226.16,-192.93 1235.06,-192.52 1243.78,-192.11"/>
<polygon fill="black" stroke="black" points="1244.08,-195.6 1253.91,-191.64 1243.76,-188.61 1244.08,-195.6"/>
</g>
<!-- 6134627408 -->
<g id="node19" class="node">
<title>6134627408</title>
<polygon fill="none" stroke="black" points="1532,-206.7 1418,-206.7 1418,-170.7 1532,-170.7 1532,-206.7"/>
<text text-anchor="middle" x="1475" y="-185.6" font-family="Times,serif" font-size="12.00">Compile audit report</text>
</g>
<!-- 6092372112&#45;&gt;6134627408 -->
<g id="edge22" class="edge">
<title>6092372112&#45;&gt;6134627408</title>
<path fill="none" stroke="black" d="M1382.04,-188.7C1390.51,-188.7 1399.21,-188.7 1407.72,-188.7"/>
<polygon fill="black" stroke="black" points="1407.99,-192.2 1417.99,-188.7 1407.99,-185.2 1407.99,-192.2"/>
</g>
<!-- 6092357776 -->
<g id="node20" class="node">
<title>6092357776</title>
<polygon fill="none" stroke="black" points="1756,-206.7 1568,-206.7 1568,-170.7 1756,-170.7 1756,-206.7"/>
<text text-anchor="middle" x="1662" y="-185.6" font-family="Times,serif" font-size="12.00">Complete risk assessment/mitigation</text>
</g>
<!-- 6134627408&#45;&gt;6092357776 -->
<g id="edge23" class="edge">
<title>6134627408&#45;&gt;6092357776</title>
<path fill="none" stroke="black" d="M1532.01,-188.7C1540.28,-188.7 1549.01,-188.7 1557.87,-188.7"/>
<polygon fill="black" stroke="black" points="1557.91,-192.2 1567.91,-188.7 1557.91,-185.2 1557.91,-192.2"/>
</g>
<!-- 6092133200 -->
<g id="node21" class="node">
<title>6092133200</title>
<polygon fill="none" stroke="black" points="1893,-206.7 1792,-206.7 1792,-170.7 1893,-170.7 1893,-206.7"/>
<text text-anchor="middle" x="1842.5" y="-185.6" font-family="Times,serif" font-size="12.00">Perform site visits</text>
</g>
<!-- 6092357776&#45;&gt;6092133200 -->
<g id="edge24" class="edge">
<title>6092357776&#45;&gt;6092133200</title>
<path fill="none" stroke="black" d="M1756.17,-188.7C1764.85,-188.7 1773.48,-188.7 1781.73,-188.7"/>
<polygon fill="black" stroke="black" points="1781.95,-192.2 1791.95,-188.7 1781.95,-185.2 1781.95,-192.2"/>
</g>
<!-- 6092428048 -->
<g id="node22" class="node">
<title>6092428048</title>
<polygon fill="none" stroke="black" points="2038,-206.7 1929,-206.7 1929,-170.7 2038,-170.7 2038,-206.7"/>
<text text-anchor="middle" x="1983.5" y="-185.6" font-family="Times,serif" font-size="12.00">Conduct interviews</text>
</g>
<!-- 6092133200&#45;&gt;6092428048 -->
<g id="edge25" class="edge">
<title>6092133200&#45;&gt;6092428048</title>
<path fill="none" stroke="black" d="M1893.29,-188.7C1901.49,-188.7 1910.08,-188.7 1918.57,-188.7"/>
<polygon fill="black" stroke="black" points="1918.82,-192.2 1928.82,-188.7 1918.82,-185.2 1918.82,-192.2"/>
</g>
<!-- 6092429456 -->
<g id="node23" class="node">
<title>6092429456</title>
<polygon fill="none" stroke="black" points="2194,-206.7 2074,-206.7 2074,-170.7 2194,-170.7 2194,-206.7"/>
<text text-anchor="middle" x="2134" y="-185.6" font-family="Times,serif" font-size="12.00">Conduct data analysis</text>
</g>
<!-- 6092428048&#45;&gt;6092429456 -->
<g id="edge26" class="edge">
<title>6092428048&#45;&gt;6092429456</title>
<path fill="none" stroke="black" d="M2038.11,-188.7C2046.47,-188.7 2055.21,-188.7 2063.86,-188.7"/>
<polygon fill="black" stroke="black" points="2063.94,-192.2 2073.94,-188.7 2063.94,-185.2 2063.94,-192.2"/>
</g>
<!-- 6092129680 -->
<g id="node24" class="node">
<title>6092129680</title>
<polygon fill="none" stroke="black" points="2385,-206.7 2230,-206.7 2230,-170.7 2385,-170.7 2385,-206.7"/>
<text text-anchor="middle" x="2307.5" y="-185.6" font-family="Times,serif" font-size="12.00">Launch detailed investigation</text>
</g>
<!-- 6092429456&#45;&gt;6092129680 -->
<g id="edge27" class="edge">
<title>6092429456&#45;&gt;6092129680</title>
<path fill="none" stroke="black" d="M2194.02,-188.7C2202.31,-188.7 2210.97,-188.7 2219.64,-188.7"/>
<polygon fill="black" stroke="black" points="2219.8,-192.2 2229.8,-188.7 2219.8,-185.2 2219.8,-192.2"/>
</g>
<!-- 6092426704 -->
<g id="node25" class="node">
<title>6092426704</title>
<polygon fill="none" stroke="black" points="2559,-206.7 2421,-206.7 2421,-170.7 2559,-170.7 2559,-206.7"/>
<text text-anchor="middle" x="2490" y="-185.6" font-family="Times,serif" font-size="12.00">Evaluate operational risks</text>
</g>
<!-- 6092129680&#45;&gt;6092426704 -->
<g id="edge28" class="edge">
<title>6092129680&#45;&gt;6092426704</title>
<path fill="none" stroke="black" d="M2385.05,-188.7C2393.52,-188.7 2402.15,-188.7 2410.65,-188.7"/>
<polygon fill="black" stroke="black" points="2410.91,-192.2 2420.91,-188.7 2410.91,-185.2 2410.91,-192.2"/>
</g>
<!-- 6092132432 -->
<g id="node26" class="node">
<title>6092132432</title>
<polygon fill="none" stroke="black" points="2735,-206.7 2595,-206.7 2595,-170.7 2735,-170.7 2735,-206.7"/>
<text text-anchor="middle" x="2665" y="-185.6" font-family="Times,serif" font-size="12.00">Evaluate compliance risks</text>
</g>
<!-- 6092426704&#45;&gt;6092132432 -->
<g id="edge29" class="edge">
<title>6092426704&#45;&gt;6092132432</title>
<path fill="none" stroke="black" d="M2559.37,-188.7C2567.7,-188.7 2576.26,-188.7 2584.73,-188.7"/>
<polygon fill="black" stroke="black" points="2584.99,-192.2 2594.99,-188.7 2584.99,-185.2 2584.99,-192.2"/>
</g>
<!-- 6092144144 -->
<g id="node27" class="node">
<title>6092144144</title>
<polygon fill="none" stroke="black" points="2897,-206.7 2771,-206.7 2771,-170.7 2897,-170.7 2897,-206.7"/>
<text text-anchor="middle" x="2834" y="-185.6" font-family="Times,serif" font-size="12.00">Evaluate financial risks</text>
</g>
<!-- 6092132432&#45;&gt;6092144144 -->
<g id="edge30" class="edge">
<title>6092132432&#45;&gt;6092144144</title>
<path fill="none" stroke="black" d="M2735.37,-188.7C2743.72,-188.7 2752.26,-188.7 2760.65,-188.7"/>
<polygon fill="black" stroke="black" points="2760.78,-192.2 2770.78,-188.7 2760.78,-185.2 2760.78,-192.2"/>
</g>
<!-- 6092144144&#45;&gt;6092371600 -->
<g id="edge31" class="edge">
<title>6092144144&#45;&gt;6092371600</title>
<path fill="none" stroke="black" d="M2883.65,-170.66C2900.25,-164.5 2918.19,-157.84 2932.4,-152.57"/>
<polygon fill="black" stroke="black" points="2933.85,-155.77 2942.01,-149.01 2931.42,-149.2 2933.85,-155.77"/>
</g>
</g>
</svg>
