<?xml version="1.0" encoding="UTF-8" standalone="no"?>
<!DOCTYPE svg PUBLIC "-//W3C//DTD SVG 1.1//EN"
 "http://www.w3.org/Graphics/SVG/1.1/DTD/svg11.dtd">
<!-- Generated by graphviz version 2.50.0 (0)
 -->
<!-- Pages: 1 -->
<svg width="3907pt" height="172pt"
 viewBox="0.00 0.00 3907.00 172.00" xmlns="http://www.w3.org/2000/svg" xmlns:xlink="http://www.w3.org/1999/xlink">
<g id="graph0" class="graph" transform="scale(1 1) rotate(0) translate(4 168)">
<polygon fill="white" stroke="transparent" points="-4,4 -4,-168 3903,-168 3903,4 -4,4"/>
<!-- 6086145680 -->
<g id="node1" class="node">
<title>6086145680</title>
<ellipse fill="green" stroke="black" cx="18" cy="-118" rx="18" ry="18"/>
</g>
<!-- 6091947408 -->
<g id="node2" class="node">
<title>6091947408</title>
<polygon fill="none" stroke="black" points="99,-136 72,-118 99,-100 126,-118 99,-136"/>
<text text-anchor="middle" x="99" y="-114.9" font-family="Times,serif" font-size="12.00">X</text>
</g>
<!-- 6086145680&#45;&gt;6091947408 -->
<g id="edge1" class="edge">
<title>6086145680&#45;&gt;6091947408</title>
<path fill="none" stroke="black" d="M36.14,-118C43.64,-118 52.75,-118 61.64,-118"/>
<polygon fill="black" stroke="black" points="61.87,-121.5 71.87,-118 61.87,-114.5 61.87,-121.5"/>
</g>
<!-- 6086178192 -->
<g id="node3" class="node">
<title>6086178192</title>
<polygon fill="none" stroke="black" points="3800,-140 3773,-122 3800,-104 3827,-122 3800,-140"/>
<text text-anchor="middle" x="3800" y="-118.9" font-family="Times,serif" font-size="12.00">X</text>
</g>
<!-- 6091947408&#45;&gt;6086178192 -->
<g id="edge2" class="edge">
<title>6091947408&#45;&gt;6086178192</title>
<path fill="none" stroke="black" d="M118.33,-123.37C161.46,-135.5 272.88,-164 368,-164 368,-164 368,-164 3594,-164 3659.03,-164 3733.35,-143.47 3772.17,-131.11"/>
<polygon fill="black" stroke="black" points="3773.27,-134.44 3781.7,-128.02 3771.1,-127.78 3773.27,-134.44"/>
</g>
<!-- 6087634384 -->
<g id="node4" class="node">
<title>6087634384</title>
<polygon fill="none" stroke="black" points="259,-113 162,-113 162,-77 259,-77 259,-113"/>
<text text-anchor="middle" x="210.5" y="-91.9" font-family="Times,serif" font-size="12.00">Send notification</text>
</g>
<!-- 6091947408&#45;&gt;6087634384 -->
<g id="edge3" class="edge">
<title>6091947408&#45;&gt;6087634384</title>
<path fill="none" stroke="black" d="M119.83,-113.83C128.89,-111.93 140.13,-109.57 151.56,-107.17"/>
<polygon fill="black" stroke="black" points="152.54,-110.54 161.6,-105.06 151.1,-103.69 152.54,-110.54"/>
</g>
<!-- 6091731536 -->
<g id="node34" class="node">
<title>6091731536</title>
<ellipse fill="orange" stroke="black" cx="3881" cy="-122" rx="18" ry="18"/>
</g>
<!-- 6086178192&#45;&gt;6091731536 -->
<g id="edge5" class="edge">
<title>6086178192&#45;&gt;6091731536</title>
<path fill="none" stroke="black" d="M3827.31,-122C3835.42,-122 3844.37,-122 3852.56,-122"/>
<polygon fill="black" stroke="black" points="3852.75,-125.5 3862.75,-122 3852.75,-118.5 3852.75,-125.5"/>
</g>
<!-- 6091916944 -->
<g id="node5" class="node">
<title>6091916944</title>
<polygon fill="none" stroke="black" points="443,-112 295,-112 295,-76 443,-76 443,-112"/>
<text text-anchor="middle" x="369" y="-90.9" font-family="Times,serif" font-size="12.00">Prepare financial statements</text>
</g>
<!-- 6087634384&#45;&gt;6091916944 -->
<g id="edge4" class="edge">
<title>6087634384&#45;&gt;6091916944</title>
<path fill="none" stroke="black" d="M259.31,-94.69C267.38,-94.64 275.97,-94.59 284.64,-94.53"/>
<polygon fill="black" stroke="black" points="284.86,-98.03 294.84,-94.47 284.81,-91.03 284.86,-98.03"/>
</g>
<!-- 6087625424 -->
<g id="node6" class="node">
<title>6087625424</title>
<polygon fill="none" stroke="black" points="631,-101 479,-101 479,-65 631,-65 631,-101"/>
<text text-anchor="middle" x="555" y="-79.9" font-family="Times,serif" font-size="12.00">Gather necessary documents</text>
</g>
<!-- 6091916944&#45;&gt;6087625424 -->
<g id="edge6" class="edge">
<title>6091916944&#45;&gt;6087625424</title>
<path fill="none" stroke="black" d="M443.25,-89.62C451.68,-89.12 460.33,-88.6 468.89,-88.09"/>
<polygon fill="black" stroke="black" points="469.12,-91.58 478.89,-87.49 468.7,-84.59 469.12,-91.58"/>
</g>
<!-- 6087623120 -->
<g id="node7" class="node">
<title>6087623120</title>
<polygon fill="none" stroke="black" points="804,-95 667,-95 667,-59 804,-59 804,-95"/>
<text text-anchor="middle" x="735.5" y="-73.9" font-family="Times,serif" font-size="12.00">Check regulatory updates</text>
</g>
<!-- 6087625424&#45;&gt;6087623120 -->
<g id="edge7" class="edge">
<title>6087625424&#45;&gt;6087623120</title>
<path fill="none" stroke="black" d="M631.18,-80.47C639.58,-80.19 648.15,-79.9 656.58,-79.62"/>
<polygon fill="black" stroke="black" points="656.91,-83.11 666.78,-79.28 656.67,-76.11 656.91,-83.11"/>
</g>
<!-- 6091421776 -->
<g id="node8" class="node">
<title>6091421776</title>
<polygon fill="none" stroke="black" points="944,-92 840,-92 840,-56 944,-56 944,-92"/>
<text text-anchor="middle" x="892" y="-70.9" font-family="Times,serif" font-size="12.00">Submit documents</text>
</g>
<!-- 6087623120&#45;&gt;6091421776 -->
<g id="edge8" class="edge">
<title>6087623120&#45;&gt;6091421776</title>
<path fill="none" stroke="black" d="M804.27,-75.68C812.59,-75.52 821.06,-75.36 829.29,-75.2"/>
<polygon fill="black" stroke="black" points="829.62,-78.69 839.55,-75 829.48,-71.69 829.62,-78.69"/>
</g>
<!-- 6091931152 -->
<g id="node9" class="node">
<title>6091931152</title>
<polygon fill="none" stroke="black" points="1089,-91 980,-91 980,-55 1089,-55 1089,-91"/>
<text text-anchor="middle" x="1034.5" y="-69.9" font-family="Times,serif" font-size="12.00">Review submission</text>
</g>
<!-- 6091421776&#45;&gt;6091931152 -->
<g id="edge9" class="edge">
<title>6091421776&#45;&gt;6091931152</title>
<path fill="none" stroke="black" d="M944.12,-73.64C952.47,-73.58 961.2,-73.51 969.81,-73.45"/>
<polygon fill="black" stroke="black" points="969.84,-76.95 979.82,-73.38 969.79,-69.95 969.84,-76.95"/>
</g>
<!-- 6091423504 -->
<g id="node10" class="node">
<title>6091423504</title>
<polygon fill="none" stroke="black" points="1376,-90 1125,-90 1125,-54 1376,-54 1376,-90"/>
<text text-anchor="middle" x="1250.5" y="-68.9" font-family="Times,serif" font-size="12.00">Request clarifications of discovered discrepancies</text>
</g>
<!-- 6091931152&#45;&gt;6091423504 -->
<g id="edge10" class="edge">
<title>6091931152&#45;&gt;6091423504</title>
<path fill="none" stroke="black" d="M1089.23,-72.75C1097.23,-72.71 1105.77,-72.67 1114.58,-72.63"/>
<polygon fill="black" stroke="black" points="1114.65,-76.13 1124.63,-72.58 1114.62,-69.13 1114.65,-76.13"/>
</g>
<!-- 6096062864 -->
<g id="node11" class="node">
<title>6096062864</title>
<polygon fill="none" stroke="black" points="1530,-90 1412,-90 1412,-54 1530,-54 1530,-90"/>
<text text-anchor="middle" x="1471" y="-68.9" font-family="Times,serif" font-size="12.00">Receive clarifications</text>
</g>
<!-- 6091423504&#45;&gt;6096062864 -->
<g id="edge11" class="edge">
<title>6091423504&#45;&gt;6096062864</title>
<path fill="none" stroke="black" d="M1376.07,-72C1384.83,-72 1393.45,-72 1401.72,-72"/>
<polygon fill="black" stroke="black" points="1401.97,-75.5 1411.97,-72 1401.97,-68.5 1401.97,-75.5"/>
</g>
<!-- 6091417424 -->
<g id="node12" class="node">
<title>6091417424</title>
<polygon fill="none" stroke="black" points="1754,-90 1566,-90 1566,-54 1754,-54 1754,-90"/>
<text text-anchor="middle" x="1660" y="-68.9" font-family="Times,serif" font-size="12.00">Complete risk assessment/mitigation</text>
</g>
<!-- 6096062864&#45;&gt;6091417424 -->
<g id="edge12" class="edge">
<title>6096062864&#45;&gt;6091417424</title>
<path fill="none" stroke="black" d="M1530.14,-72C1538.31,-72 1546.9,-72 1555.61,-72"/>
<polygon fill="black" stroke="black" points="1555.86,-75.5 1565.86,-72 1555.86,-68.5 1555.86,-75.5"/>
</g>
<!-- 6091416656 -->
<g id="node13" class="node">
<title>6091416656</title>
<polygon fill="none" stroke="black" points="1817,-90 1790,-72 1817,-54 1844,-72 1817,-90"/>
<text text-anchor="middle" x="1817" y="-68.9" font-family="Times,serif" font-size="12.00">+</text>
</g>
<!-- 6091417424&#45;&gt;6091416656 -->
<g id="edge13" class="edge">
<title>6091417424&#45;&gt;6091416656</title>
<path fill="none" stroke="black" d="M1754.29,-72C1763.2,-72 1771.81,-72 1779.64,-72"/>
<polygon fill="black" stroke="black" points="1779.77,-75.5 1789.77,-72 1779.77,-68.5 1779.77,-75.5"/>
</g>
<!-- 6092726352 -->
<g id="node14" class="node">
<title>6092726352</title>
<polygon fill="none" stroke="black" points="2019,-136 1881,-136 1881,-100 2019,-100 2019,-136"/>
<text text-anchor="middle" x="1950" y="-114.9" font-family="Times,serif" font-size="12.00">Evaluate operational risks</text>
</g>
<!-- 6091416656&#45;&gt;6092726352 -->
<g id="edge15" class="edge">
<title>6091416656&#45;&gt;6092726352</title>
<path fill="none" stroke="black" d="M1835.13,-78.01C1848.77,-82.81 1868.75,-89.82 1888.18,-96.64"/>
<polygon fill="black" stroke="black" points="1887.05,-99.96 1897.65,-99.97 1889.37,-93.35 1887.05,-99.96"/>
</g>
<!-- 6087632336 -->
<g id="node15" class="node">
<title>6087632336</title>
<polygon fill="none" stroke="black" points="2196.5,-90 2070.5,-90 2070.5,-54 2196.5,-54 2196.5,-90"/>
<text text-anchor="middle" x="2133.5" y="-68.9" font-family="Times,serif" font-size="12.00">Evaluate financial risks</text>
</g>
<!-- 6091416656&#45;&gt;6087632336 -->
<g id="edge14" class="edge">
<title>6091416656&#45;&gt;6087632336</title>
<path fill="none" stroke="black" d="M1844,-72C1890.83,-72 1990.86,-72 2059.9,-72"/>
<polygon fill="black" stroke="black" points="2060.27,-75.5 2070.27,-72 2060.27,-68.5 2060.27,-75.5"/>
</g>
<!-- 6087631312 -->
<g id="node16" class="node">
<title>6087631312</title>
<polygon fill="none" stroke="black" points="2020,-40 1880,-40 1880,-4 2020,-4 2020,-40"/>
<text text-anchor="middle" x="1950" y="-18.9" font-family="Times,serif" font-size="12.00">Evaluate compliance risks</text>
</g>
<!-- 6091416656&#45;&gt;6087631312 -->
<g id="edge16" class="edge">
<title>6091416656&#45;&gt;6087631312</title>
<path fill="none" stroke="black" d="M1834.59,-65.67C1849.16,-60.11 1871.23,-51.68 1892.11,-43.72"/>
<polygon fill="black" stroke="black" points="1893.49,-46.93 1901.58,-40.1 1890.99,-40.39 1893.49,-46.93"/>
</g>
<!-- 6087633744 -->
<g id="node18" class="node">
<title>6087633744</title>
<polygon fill="none" stroke="black" points="2274,-90 2247,-72 2274,-54 2301,-72 2274,-90"/>
<text text-anchor="middle" x="2274" y="-68.9" font-family="Times,serif" font-size="12.00">+</text>
</g>
<!-- 6092726352&#45;&gt;6087633744 -->
<g id="edge17" class="edge">
<title>6092726352&#45;&gt;6087633744</title>
<path fill="none" stroke="black" d="M2019.04,-119.25C2072.08,-118.74 2147.17,-114.74 2211,-99 2224.22,-95.74 2238.2,-89.89 2249.52,-84.46"/>
<polygon fill="black" stroke="black" points="2251.32,-87.48 2258.71,-79.88 2248.2,-81.21 2251.32,-87.48"/>
</g>
<!-- 6087632336&#45;&gt;6087633744 -->
<g id="edge18" class="edge">
<title>6087632336&#45;&gt;6087633744</title>
<path fill="none" stroke="black" d="M2196.86,-72C2210.41,-72 2224.32,-72 2236.48,-72"/>
<polygon fill="black" stroke="black" points="2236.66,-75.5 2246.66,-72 2236.66,-68.5 2236.66,-75.5"/>
</g>
<!-- 6091599632 -->
<g id="node17" class="node">
<title>6091599632</title>
<polygon fill="none" stroke="black" points="2211,-36 2056,-36 2056,0 2211,0 2211,-36"/>
<text text-anchor="middle" x="2133.5" y="-14.9" font-family="Times,serif" font-size="12.00">Launch detailed investigation</text>
</g>
<!-- 6087631312&#45;&gt;6091599632 -->
<g id="edge19" class="edge">
<title>6087631312&#45;&gt;6091599632</title>
<path fill="none" stroke="black" d="M2020.14,-20.48C2028.56,-20.29 2037.25,-20.1 2045.89,-19.91"/>
<polygon fill="black" stroke="black" points="2046.06,-23.41 2055.98,-19.69 2045.91,-16.41 2046.06,-23.41"/>
</g>
<!-- 6091599632&#45;&gt;6087633744 -->
<g id="edge20" class="edge">
<title>6091599632&#45;&gt;6087633744</title>
<path fill="none" stroke="black" d="M2187.36,-36.1C2195.32,-38.99 2203.4,-42.01 2211,-45 2223.42,-49.89 2237.04,-55.76 2248.34,-60.78"/>
<polygon fill="black" stroke="black" points="2247.03,-64.03 2257.59,-64.92 2249.89,-57.64 2247.03,-64.03"/>
</g>
<!-- 6087625488 -->
<g id="node19" class="node">
<title>6087625488</title>
<polygon fill="none" stroke="black" points="2451,-90 2337,-90 2337,-54 2451,-54 2451,-90"/>
<text text-anchor="middle" x="2394" y="-68.9" font-family="Times,serif" font-size="12.00">Compile audit report</text>
</g>
<!-- 6087633744&#45;&gt;6087625488 -->
<g id="edge21" class="edge">
<title>6087633744&#45;&gt;6087625488</title>
<path fill="none" stroke="black" d="M2301.19,-72C2308.88,-72 2317.67,-72 2326.69,-72"/>
<polygon fill="black" stroke="black" points="2326.93,-75.5 2336.93,-72 2326.93,-68.5 2326.93,-75.5"/>
</g>
<!-- 6091917136 -->
<g id="node20" class="node">
<title>6091917136</title>
<polygon fill="none" stroke="black" points="2651,-90 2487,-90 2487,-54 2651,-54 2651,-90"/>
<text text-anchor="middle" x="2569" y="-68.9" font-family="Times,serif" font-size="12.00">Review report by audit director</text>
</g>
<!-- 6087625488&#45;&gt;6091917136 -->
<g id="edge22" class="edge">
<title>6087625488&#45;&gt;6091917136</title>
<path fill="none" stroke="black" d="M2451.17,-72C2459.39,-72 2468.04,-72 2476.75,-72"/>
<polygon fill="black" stroke="black" points="2476.98,-75.5 2486.98,-72 2476.98,-68.5 2476.98,-75.5"/>
</g>
<!-- 6091411408 -->
<g id="node21" class="node">
<title>6091411408</title>
<polygon fill="none" stroke="black" points="2776,-90 2687,-90 2687,-54 2776,-54 2776,-90"/>
<text text-anchor="middle" x="2731.5" y="-68.9" font-family="Times,serif" font-size="12.00">Approve report</text>
</g>
<!-- 6091917136&#45;&gt;6091411408 -->
<g id="edge23" class="edge">
<title>6091917136&#45;&gt;6091411408</title>
<path fill="none" stroke="black" d="M2651.19,-72C2659.83,-72 2668.45,-72 2676.66,-72"/>
<polygon fill="black" stroke="black" points="2676.81,-75.5 2686.81,-72 2676.8,-68.5 2676.81,-75.5"/>
</g>
<!-- 6091411216 -->
<g id="node22" class="node">
<title>6091411216</title>
<polygon fill="none" stroke="black" points="2839,-90 2812,-72 2839,-54 2866,-72 2839,-90"/>
<text text-anchor="middle" x="2839" y="-68.9" font-family="Times,serif" font-size="12.00">+</text>
</g>
<!-- 6091411408&#45;&gt;6091411216 -->
<g id="edge24" class="edge">
<title>6091411408&#45;&gt;6091411216</title>
<path fill="none" stroke="black" d="M2776.02,-72C2784.56,-72 2793.43,-72 2801.71,-72"/>
<polygon fill="black" stroke="black" points="2801.8,-75.5 2811.8,-72 2801.8,-68.5 2801.8,-75.5"/>
</g>
<!-- 6134406800 -->
<g id="node23" class="node">
<title>6134406800</title>
<polygon fill="none" stroke="black" points="2966,-98 2939,-80 2966,-62 2993,-80 2966,-98"/>
<text text-anchor="middle" x="2966" y="-76.9" font-family="Times,serif" font-size="12.00">X</text>
</g>
<!-- 6091411216&#45;&gt;6134406800 -->
<g id="edge25" class="edge">
<title>6091411216&#45;&gt;6134406800</title>
<path fill="none" stroke="black" d="M2863.81,-73.52C2882.71,-74.73 2909.41,-76.44 2930.63,-77.8"/>
<polygon fill="black" stroke="black" points="2930.65,-81.31 2940.86,-78.45 2931.1,-74.32 2930.65,-81.31"/>
</g>
<!-- 6091408976 -->
<g id="node24" class="node">
<title>6091408976</title>
<polygon fill="none" stroke="black" points="3030,-44 2902,-44 2902,-8 3030,-8 3030,-44"/>
<text text-anchor="middle" x="2966" y="-22.9" font-family="Times,serif" font-size="12.00">Send report for revision</text>
</g>
<!-- 6091411216&#45;&gt;6091408976 -->
<g id="edge26" class="edge">
<title>6091411216&#45;&gt;6091408976</title>
<path fill="none" stroke="black" d="M2856.86,-65.8C2869.74,-61.06 2888.31,-54.22 2906.44,-47.55"/>
<polygon fill="black" stroke="black" points="2907.67,-50.83 2915.84,-44.09 2905.25,-44.26 2907.67,-50.83"/>
</g>
<!-- 6086174224 -->
<g id="node25" class="node">
<title>6086174224</title>
<polygon fill="none" stroke="black" points="3593,-117 3566,-99 3593,-81 3620,-99 3593,-117"/>
<text text-anchor="middle" x="3593" y="-95.9" font-family="Times,serif" font-size="12.00">X</text>
</g>
<!-- 6134406800&#45;&gt;6086174224 -->
<g id="edge28" class="edge">
<title>6134406800&#45;&gt;6086174224</title>
<path fill="none" stroke="black" d="M2983.88,-86.09C3003.37,-92.76 3036.51,-103.05 3066,-107 3251.58,-131.85 3477.27,-111.77 3559.8,-102.78"/>
<polygon fill="black" stroke="black" points="3560.26,-106.25 3569.81,-101.67 3559.49,-99.3 3560.26,-106.25"/>
</g>
<!-- 6158848592 -->
<g id="node26" class="node">
<title>6158848592</title>
<polygon fill="none" stroke="black" points="3199,-98 3079,-98 3079,-62 3199,-62 3199,-98"/>
<text text-anchor="middle" x="3139" y="-76.9" font-family="Times,serif" font-size="12.00">Conduct data analysis</text>
</g>
<!-- 6134406800&#45;&gt;6158848592 -->
<g id="edge27" class="edge">
<title>6134406800&#45;&gt;6158848592</title>
<path fill="none" stroke="black" d="M2993.34,-80C3013.45,-80 3042.11,-80 3068.62,-80"/>
<polygon fill="black" stroke="black" points="3068.66,-83.5 3078.66,-80 3068.66,-76.5 3068.66,-83.5"/>
</g>
<!-- 6091765264 -->
<g id="node27" class="node">
<title>6091765264</title>
<polygon fill="none" stroke="black" points="3212,-44 3066,-44 3066,-8 3212,-8 3212,-44"/>
<text text-anchor="middle" x="3139" y="-22.9" font-family="Times,serif" font-size="12.00">Update and resubmit report</text>
</g>
<!-- 6091408976&#45;&gt;6091765264 -->
<g id="edge29" class="edge">
<title>6091408976&#45;&gt;6091765264</title>
<path fill="none" stroke="black" d="M3030.19,-26C3038.53,-26 3047.18,-26 3055.78,-26"/>
<polygon fill="black" stroke="black" points="3055.84,-29.5 3065.84,-26 3055.84,-22.5 3055.84,-29.5"/>
</g>
<!-- 6087624016 -->
<g id="node29" class="node">
<title>6087624016</title>
<polygon fill="none" stroke="black" points="3710,-117 3683,-99 3710,-81 3737,-99 3710,-117"/>
<text text-anchor="middle" x="3710" y="-95.9" font-family="Times,serif" font-size="12.00">+</text>
</g>
<!-- 6086174224&#45;&gt;6087624016 -->
<g id="edge30" class="edge">
<title>6086174224&#45;&gt;6087624016</title>
<path fill="none" stroke="black" d="M3620.1,-99C3635.57,-99 3655.43,-99 3672.44,-99"/>
<polygon fill="black" stroke="black" points="3672.61,-102.5 3682.61,-99 3672.61,-95.5 3672.61,-102.5"/>
</g>
<!-- 6091414480 -->
<g id="node28" class="node">
<title>6091414480</title>
<polygon fill="none" stroke="black" points="3361.5,-98 3252.5,-98 3252.5,-62 3361.5,-62 3361.5,-98"/>
<text text-anchor="middle" x="3307" y="-76.9" font-family="Times,serif" font-size="12.00">Conduct interviews</text>
</g>
<!-- 6158848592&#45;&gt;6091414480 -->
<g id="edge31" class="edge">
<title>6158848592&#45;&gt;6091414480</title>
<path fill="none" stroke="black" d="M3199.46,-80C3213.39,-80 3228.27,-80 3242.37,-80"/>
<polygon fill="black" stroke="black" points="3242.47,-83.5 3252.47,-80 3242.47,-76.5 3242.47,-83.5"/>
</g>
<!-- 6087632784 -->
<g id="node30" class="node">
<title>6087632784</title>
<polygon fill="none" stroke="black" points="3366,-44 3248,-44 3248,-8 3366,-8 3366,-44"/>
<text text-anchor="middle" x="3307" y="-22.9" font-family="Times,serif" font-size="12.00">Distribute final report</text>
</g>
<!-- 6091765264&#45;&gt;6087632784 -->
<g id="edge32" class="edge">
<title>6091765264&#45;&gt;6087632784</title>
<path fill="none" stroke="black" d="M3212.33,-26C3220.77,-26 3229.37,-26 3237.76,-26"/>
<polygon fill="black" stroke="black" points="3237.87,-29.5 3247.87,-26 3237.87,-22.5 3237.87,-29.5"/>
</g>
<!-- 6087632848 -->
<g id="node32" class="node">
<title>6087632848</title>
<polygon fill="none" stroke="black" points="3503,-98 3402,-98 3402,-62 3503,-62 3503,-98"/>
<text text-anchor="middle" x="3452.5" y="-76.9" font-family="Times,serif" font-size="12.00">Perform site visits</text>
</g>
<!-- 6091414480&#45;&gt;6087632848 -->
<g id="edge34" class="edge">
<title>6091414480&#45;&gt;6087632848</title>
<path fill="none" stroke="black" d="M3361.84,-80C3371.52,-80 3381.67,-80 3391.51,-80"/>
<polygon fill="black" stroke="black" points="3391.62,-83.5 3401.62,-80 3391.62,-76.5 3391.62,-83.5"/>
</g>
<!-- 6087624016&#45;&gt;6086178192 -->
<g id="edge33" class="edge">
<title>6087624016&#45;&gt;6086178192</title>
<path fill="none" stroke="black" d="M3730.09,-103.99C3741.82,-107.06 3757.07,-111.04 3770.24,-114.48"/>
<polygon fill="black" stroke="black" points="3769.68,-117.96 3780.24,-117.1 3771.45,-111.18 3769.68,-117.96"/>
</g>
<!-- 6091416336 -->
<g id="node31" class="node">
<title>6091416336</title>
<polygon fill="none" stroke="black" points="3495.5,-44 3409.5,-44 3409.5,-8 3495.5,-8 3495.5,-44"/>
<text text-anchor="middle" x="3452.5" y="-22.9" font-family="Times,serif" font-size="12.00">Archive report</text>
</g>
<!-- 6087632784&#45;&gt;6091416336 -->
<g id="edge35" class="edge">
<title>6087632784&#45;&gt;6091416336</title>
<path fill="none" stroke="black" d="M3366.37,-26C3377.3,-26 3388.67,-26 3399.4,-26"/>
<polygon fill="black" stroke="black" points="3399.46,-29.5 3409.46,-26 3399.46,-22.5 3399.46,-29.5"/>
</g>
<!-- 6093823824 -->
<g id="node33" class="node">
<title>6093823824</title>
<polygon fill="none" stroke="black" points="3647,-54 3539,-54 3539,-18 3647,-18 3647,-54"/>
<text text-anchor="middle" x="3593" y="-32.9" font-family="Times,serif" font-size="12.00">Close audit process</text>
</g>
<!-- 6091416336&#45;&gt;6093823824 -->
<g id="edge37" class="edge">
<title>6091416336&#45;&gt;6093823824</title>
<path fill="none" stroke="black" d="M3495.81,-29.05C3506.22,-29.81 3517.6,-30.63 3528.77,-31.43"/>
<polygon fill="black" stroke="black" points="3528.71,-34.94 3538.93,-32.17 3529.21,-27.96 3528.71,-34.94"/>
</g>
<!-- 6087632848&#45;&gt;6086174224 -->
<g id="edge36" class="edge">
<title>6087632848&#45;&gt;6086174224</title>
<path fill="none" stroke="black" d="M3503.11,-86.81C3522.14,-89.42 3543.32,-92.32 3560.23,-94.64"/>
<polygon fill="black" stroke="black" points="3559.77,-98.11 3570.15,-96 3560.72,-91.18 3559.77,-98.11"/>
</g>
<!-- 6093823824&#45;&gt;6087624016 -->
<g id="edge38" class="edge">
<title>6093823824&#45;&gt;6087624016</title>
<path fill="none" stroke="black" d="M3626.95,-54.05C3645.6,-64.27 3668.48,-76.8 3685.33,-86.04"/>
<polygon fill="black" stroke="black" points="3684.03,-89.31 3694.49,-91.05 3687.4,-83.17 3684.03,-89.31"/>
</g>
</g>
</svg>
