<?xml version="1.0" encoding="UTF-8" standalone="no"?>
<!DOCTYPE svg PUBLIC "-//W3C//DTD SVG 1.1//EN"
 "http://www.w3.org/Graphics/SVG/1.1/DTD/svg11.dtd">
<!-- Generated by graphviz version 2.50.0 (0)
 -->
<!-- Pages: 1 -->
<svg width="2873pt" height="244pt"
 viewBox="0.00 0.00 2873.00 244.00" xmlns="http://www.w3.org/2000/svg" xmlns:xlink="http://www.w3.org/1999/xlink">
<g id="graph0" class="graph" transform="scale(1 1) rotate(0) translate(4 240)">
<polygon fill="white" stroke="transparent" points="-4,4 -4,-240 2869,-240 2869,4 -4,4"/>
<!-- 6096073232 -->
<g id="node1" class="node">
<title>6096073232</title>
<ellipse fill="green" stroke="black" cx="18" cy="-170" rx="18" ry="18"/>
</g>
<!-- 6158591120 -->
<g id="node2" class="node">
<title>6158591120</title>
<polygon fill="none" stroke="black" points="99,-188 72,-170 99,-152 126,-170 99,-188"/>
<text text-anchor="middle" x="99" y="-166.9" font-family="Times,serif" font-size="12.00">+</text>
</g>
<!-- 6096073232&#45;&gt;6158591120 -->
<g id="edge1" class="edge">
<title>6096073232&#45;&gt;6158591120</title>
<path fill="none" stroke="black" d="M36.14,-170C43.64,-170 52.75,-170 61.64,-170"/>
<polygon fill="black" stroke="black" points="61.87,-173.5 71.87,-170 61.87,-166.5 61.87,-173.5"/>
</g>
<!-- 6091235408 -->
<g id="node3" class="node">
<title>6091235408</title>
<polygon fill="none" stroke="black" points="292.5,-228 195.5,-228 195.5,-192 292.5,-192 292.5,-228"/>
<text text-anchor="middle" x="244" y="-206.9" font-family="Times,serif" font-size="12.00">Send notification</text>
</g>
<!-- 6158591120&#45;&gt;6091235408 -->
<g id="edge2" class="edge">
<title>6158591120&#45;&gt;6091235408</title>
<path fill="none" stroke="black" d="M118.4,-175.15C135.44,-179.91 161.7,-187.26 185.72,-193.98"/>
<polygon fill="black" stroke="black" points="184.92,-197.39 195.49,-196.71 186.81,-190.65 184.92,-197.39"/>
</g>
<!-- 6091232592 -->
<g id="node4" class="node">
<title>6091232592</title>
<polygon fill="none" stroke="black" points="326,-161 162,-161 162,-125 326,-125 326,-161"/>
<text text-anchor="middle" x="244" y="-139.9" font-family="Times,serif" font-size="12.00">Review report by audit director</text>
</g>
<!-- 6158591120&#45;&gt;6091232592 -->
<g id="edge3" class="edge">
<title>6158591120&#45;&gt;6091232592</title>
<path fill="none" stroke="black" d="M120.49,-166.13C129.3,-164.47 140.26,-162.4 151.98,-160.18"/>
<polygon fill="black" stroke="black" points="152.8,-163.59 161.98,-158.3 151.5,-156.71 152.8,-163.59"/>
</g>
<!-- 6086715536 -->
<g id="node5" class="node">
<title>6086715536</title>
<polygon fill="none" stroke="black" points="561.5,-235 413.5,-235 413.5,-199 561.5,-199 561.5,-235"/>
<text text-anchor="middle" x="487.5" y="-213.9" font-family="Times,serif" font-size="12.00">Prepare financial statements</text>
</g>
<!-- 6091235408&#45;&gt;6086715536 -->
<g id="edge4" class="edge">
<title>6091235408&#45;&gt;6086715536</title>
<path fill="none" stroke="black" d="M292.71,-211.38C324.12,-212.29 366.1,-213.51 402.95,-214.58"/>
<polygon fill="black" stroke="black" points="403.1,-218.08 413.2,-214.88 403.3,-211.09 403.1,-218.08"/>
</g>
<!-- 6158857616 -->
<g id="node6" class="node">
<title>6158857616</title>
<polygon fill="none" stroke="black" points="613,-134 362,-134 362,-98 613,-98 613,-134"/>
<text text-anchor="middle" x="487.5" y="-112.9" font-family="Times,serif" font-size="12.00">Request clarifications of discovered discrepancies</text>
</g>
<!-- 6091232592&#45;&gt;6158857616 -->
<g id="edge5" class="edge">
<title>6091232592&#45;&gt;6158857616</title>
<path fill="none" stroke="black" d="M326.09,-133.93C334.36,-133.01 342.91,-132.05 351.56,-131.09"/>
<polygon fill="black" stroke="black" points="352.21,-134.54 361.75,-129.95 351.43,-127.58 352.21,-134.54"/>
</g>
<!-- 6086486544 -->
<g id="node7" class="node">
<title>6086486544</title>
<polygon fill="none" stroke="black" points="801,-235 649,-235 649,-199 801,-199 801,-235"/>
<text text-anchor="middle" x="725" y="-213.9" font-family="Times,serif" font-size="12.00">Gather necessary documents</text>
</g>
<!-- 6086715536&#45;&gt;6086486544 -->
<g id="edge6" class="edge">
<title>6086715536&#45;&gt;6086486544</title>
<path fill="none" stroke="black" d="M561.72,-217C586.05,-217 613.35,-217 638.52,-217"/>
<polygon fill="black" stroke="black" points="638.79,-220.5 648.79,-217 638.79,-213.5 638.79,-220.5"/>
</g>
<!-- 6158583184 -->
<g id="node8" class="node">
<title>6158583184</title>
<polygon fill="none" stroke="black" points="784,-131 666,-131 666,-95 784,-95 784,-131"/>
<text text-anchor="middle" x="725" y="-109.9" font-family="Times,serif" font-size="12.00">Receive clarifications</text>
</g>
<!-- 6158857616&#45;&gt;6158583184 -->
<g id="edge7" class="edge">
<title>6158857616&#45;&gt;6158583184</title>
<path fill="none" stroke="black" d="M613.15,-114.41C627.83,-114.23 642.37,-114.04 655.85,-113.87"/>
<polygon fill="black" stroke="black" points="655.98,-117.37 665.93,-113.74 655.89,-110.37 655.98,-117.37"/>
</g>
<!-- 6158854480 -->
<g id="node10" class="node">
<title>6158854480</title>
<polygon fill="none" stroke="black" points="999.5,-235 862.5,-235 862.5,-199 999.5,-199 999.5,-235"/>
<text text-anchor="middle" x="931" y="-213.9" font-family="Times,serif" font-size="12.00">Check regulatory updates</text>
</g>
<!-- 6086486544&#45;&gt;6158854480 -->
<g id="edge8" class="edge">
<title>6086486544&#45;&gt;6158854480</title>
<path fill="none" stroke="black" d="M801.09,-217C817.75,-217 835.43,-217 852.19,-217"/>
<polygon fill="black" stroke="black" points="852.48,-220.5 862.48,-217 852.48,-213.5 852.48,-220.5"/>
</g>
<!-- 6091238544 -->
<g id="node9" class="node">
<title>6091238544</title>
<polygon fill="none" stroke="black" points="1025,-129 837,-129 837,-93 1025,-93 1025,-129"/>
<text text-anchor="middle" x="931" y="-107.9" font-family="Times,serif" font-size="12.00">Complete risk assessment/mitigation</text>
</g>
<!-- 6158583184&#45;&gt;6091238544 -->
<g id="edge9" class="edge">
<title>6158583184&#45;&gt;6091238544</title>
<path fill="none" stroke="black" d="M784.19,-112.43C797.49,-112.3 812.01,-112.16 826.58,-112.01"/>
<polygon fill="black" stroke="black" points="826.69,-115.51 836.66,-111.92 826.62,-108.51 826.69,-115.51"/>
</g>
<!-- 6092162512 -->
<g id="node11" class="node">
<title>6092162512</title>
<polygon fill="none" stroke="black" points="1249,-128 1061,-128 1061,-92 1249,-92 1249,-128"/>
<text text-anchor="middle" x="1155" y="-106.9" font-family="Times,serif" font-size="12.00">Complete risk assessment/mitigation</text>
</g>
<!-- 6091238544&#45;&gt;6092162512 -->
<g id="edge10" class="edge">
<title>6091238544&#45;&gt;6092162512</title>
<path fill="none" stroke="black" d="M1025.18,-110.58C1033.53,-110.54 1042.02,-110.5 1050.46,-110.47"/>
<polygon fill="black" stroke="black" points="1050.72,-113.97 1060.7,-110.42 1050.68,-106.97 1050.72,-113.97"/>
</g>
<!-- 6158589264 -->
<g id="node12" class="node">
<title>6158589264</title>
<polygon fill="none" stroke="black" points="1207,-235 1103,-235 1103,-199 1207,-199 1207,-235"/>
<text text-anchor="middle" x="1155" y="-213.9" font-family="Times,serif" font-size="12.00">Submit documents</text>
</g>
<!-- 6158854480&#45;&gt;6158589264 -->
<g id="edge11" class="edge">
<title>6158854480&#45;&gt;6158589264</title>
<path fill="none" stroke="black" d="M999.51,-217C1029.05,-217 1063.47,-217 1092.32,-217"/>
<polygon fill="black" stroke="black" points="1092.67,-220.5 1102.67,-217 1092.67,-213.5 1092.67,-220.5"/>
</g>
<!-- 6092168336 -->
<g id="node13" class="node">
<title>6092168336</title>
<polygon fill="none" stroke="black" points="1339.5,-128 1312.5,-110 1339.5,-92 1366.5,-110 1339.5,-128"/>
<text text-anchor="middle" x="1339.5" y="-106.9" font-family="Times,serif" font-size="12.00">+</text>
</g>
<!-- 6092162512&#45;&gt;6092168336 -->
<g id="edge12" class="edge">
<title>6092162512&#45;&gt;6092168336</title>
<path fill="none" stroke="black" d="M1249.12,-110C1267.97,-110 1286.71,-110 1302.13,-110"/>
<polygon fill="black" stroke="black" points="1302.23,-113.5 1312.23,-110 1302.23,-106.5 1302.23,-113.5"/>
</g>
<!-- 6091240656 -->
<g id="node14" class="node">
<title>6091240656</title>
<polygon fill="none" stroke="black" points="1394,-235 1285,-235 1285,-199 1394,-199 1394,-235"/>
<text text-anchor="middle" x="1339.5" y="-213.9" font-family="Times,serif" font-size="12.00">Review submission</text>
</g>
<!-- 6158589264&#45;&gt;6091240656 -->
<g id="edge13" class="edge">
<title>6158589264&#45;&gt;6091240656</title>
<path fill="none" stroke="black" d="M1207.32,-217C1228.16,-217 1252.47,-217 1274.45,-217"/>
<polygon fill="black" stroke="black" points="1274.7,-220.5 1284.7,-217 1274.7,-213.5 1274.7,-220.5"/>
</g>
<!-- 6086489232 -->
<g id="node15" class="node">
<title>6086489232</title>
<polygon fill="none" stroke="black" points="1582,-182 1442,-182 1442,-146 1582,-146 1582,-182"/>
<text text-anchor="middle" x="1512" y="-160.9" font-family="Times,serif" font-size="12.00">Evaluate compliance risks</text>
</g>
<!-- 6092168336&#45;&gt;6086489232 -->
<g id="edge16" class="edge">
<title>6092168336&#45;&gt;6086489232</title>
<path fill="none" stroke="black" d="M1358.42,-115.68C1378.71,-122.1 1412.97,-132.95 1443.9,-142.75"/>
<polygon fill="black" stroke="black" points="1443.21,-146.2 1453.8,-145.88 1445.32,-139.53 1443.21,-146.2"/>
</g>
<!-- 6092167376 -->
<g id="node16" class="node">
<title>6092167376</title>
<polygon fill="none" stroke="black" points="1581,-128 1443,-128 1443,-92 1581,-92 1581,-128"/>
<text text-anchor="middle" x="1512" y="-106.9" font-family="Times,serif" font-size="12.00">Evaluate operational risks</text>
</g>
<!-- 6092168336&#45;&gt;6092167376 -->
<g id="edge15" class="edge">
<title>6092168336&#45;&gt;6092167376</title>
<path fill="none" stroke="black" d="M1366.77,-110C1384.5,-110 1408.92,-110 1432.63,-110"/>
<polygon fill="black" stroke="black" points="1432.72,-113.5 1442.72,-110 1432.72,-106.5 1432.72,-113.5"/>
</g>
<!-- 6091230224 -->
<g id="node17" class="node">
<title>6091230224</title>
<polygon fill="none" stroke="black" points="1575,-74 1449,-74 1449,-38 1575,-38 1575,-74"/>
<text text-anchor="middle" x="1512" y="-52.9" font-family="Times,serif" font-size="12.00">Evaluate financial risks</text>
</g>
<!-- 6092168336&#45;&gt;6091230224 -->
<g id="edge14" class="edge">
<title>6092168336&#45;&gt;6091230224</title>
<path fill="none" stroke="black" d="M1358.42,-104.32C1378.71,-97.9 1412.97,-87.05 1443.9,-77.25"/>
<polygon fill="black" stroke="black" points="1445.32,-80.47 1453.8,-74.12 1443.21,-73.8 1445.32,-80.47"/>
</g>
<!-- 6158859856 -->
<g id="node18" class="node">
<title>6158859856</title>
<polygon fill="none" stroke="black" points="1594,-236 1430,-236 1430,-200 1594,-200 1594,-236"/>
<text text-anchor="middle" x="1512" y="-214.9" font-family="Times,serif" font-size="12.00">Review report by audit director</text>
</g>
<!-- 6091240656&#45;&gt;6158859856 -->
<g id="edge17" class="edge">
<title>6091240656&#45;&gt;6158859856</title>
<path fill="none" stroke="black" d="M1394.45,-217.32C1402.58,-217.36 1411.16,-217.41 1419.81,-217.47"/>
<polygon fill="black" stroke="black" points="1419.97,-220.97 1429.99,-217.52 1420.02,-213.97 1419.97,-220.97"/>
</g>
<!-- 6158846608 -->
<g id="node19" class="node">
<title>6158846608</title>
<polygon fill="none" stroke="black" points="1674.5,-128 1647.5,-110 1674.5,-92 1701.5,-110 1674.5,-128"/>
<text text-anchor="middle" x="1674.5" y="-106.9" font-family="Times,serif" font-size="12.00">+</text>
</g>
<!-- 6086489232&#45;&gt;6158846608 -->
<g id="edge18" class="edge">
<title>6086489232&#45;&gt;6158846608</title>
<path fill="none" stroke="black" d="M1567.48,-145.89C1576.35,-142.93 1585.43,-139.88 1594,-137 1611.4,-131.15 1630.92,-124.52 1646.26,-119.29"/>
<polygon fill="black" stroke="black" points="1647.8,-122.47 1656.14,-115.93 1645.55,-115.84 1647.8,-122.47"/>
</g>
<!-- 6092167376&#45;&gt;6158846608 -->
<g id="edge19" class="edge">
<title>6092167376&#45;&gt;6158846608</title>
<path fill="none" stroke="black" d="M1581.07,-110C1600.27,-110 1620.43,-110 1637,-110"/>
<polygon fill="black" stroke="black" points="1637.32,-113.5 1647.32,-110 1637.32,-106.5 1637.32,-113.5"/>
</g>
<!-- 6091230224&#45;&gt;6158846608 -->
<g id="edge20" class="edge">
<title>6091230224&#45;&gt;6158846608</title>
<path fill="none" stroke="black" d="M1567.48,-74.11C1576.35,-77.07 1585.43,-80.12 1594,-83 1611.4,-88.85 1630.92,-95.48 1646.26,-100.71"/>
<polygon fill="black" stroke="black" points="1645.55,-104.16 1656.14,-104.07 1647.8,-97.53 1645.55,-104.16"/>
</g>
<!-- 6158583376 -->
<g id="node20" class="node">
<title>6158583376</title>
<polygon fill="none" stroke="black" points="1719,-236 1630,-236 1630,-200 1719,-200 1719,-236"/>
<text text-anchor="middle" x="1674.5" y="-214.9" font-family="Times,serif" font-size="12.00">Approve report</text>
</g>
<!-- 6158859856&#45;&gt;6158583376 -->
<g id="edge21" class="edge">
<title>6158859856&#45;&gt;6158583376</title>
<path fill="none" stroke="black" d="M1594.19,-218C1602.83,-218 1611.45,-218 1619.66,-218"/>
<polygon fill="black" stroke="black" points="1619.81,-221.5 1629.81,-218 1619.8,-214.5 1619.81,-221.5"/>
</g>
<!-- 6158854352 -->
<g id="node21" class="node">
<title>6158854352</title>
<polygon fill="none" stroke="black" points="1910,-128 1755,-128 1755,-92 1910,-92 1910,-128"/>
<text text-anchor="middle" x="1832.5" y="-106.9" font-family="Times,serif" font-size="12.00">Launch detailed investigation</text>
</g>
<!-- 6158846608&#45;&gt;6158854352 -->
<g id="edge22" class="edge">
<title>6158846608&#45;&gt;6158854352</title>
<path fill="none" stroke="black" d="M1701.61,-110C1713.71,-110 1728.85,-110 1744.48,-110"/>
<polygon fill="black" stroke="black" points="1744.8,-113.5 1754.8,-110 1744.8,-106.5 1744.8,-113.5"/>
</g>
<!-- 6158848784 -->
<g id="node22" class="node">
<title>6158848784</title>
<polygon fill="none" stroke="black" points="1891.5,-236 1773.5,-236 1773.5,-200 1891.5,-200 1891.5,-236"/>
<text text-anchor="middle" x="1832.5" y="-214.9" font-family="Times,serif" font-size="12.00">Distribute final report</text>
</g>
<!-- 6158583376&#45;&gt;6158848784 -->
<g id="edge23" class="edge">
<title>6158583376&#45;&gt;6158848784</title>
<path fill="none" stroke="black" d="M1719.37,-218C1732.99,-218 1748.34,-218 1763.21,-218"/>
<polygon fill="black" stroke="black" points="1763.4,-221.5 1773.4,-218 1763.4,-214.5 1763.4,-221.5"/>
</g>
<!-- 6096074640 -->
<g id="node23" class="node">
<title>6096074640</title>
<polygon fill="none" stroke="black" points="1989,-128 1962,-110 1989,-92 2016,-110 1989,-128"/>
<text text-anchor="middle" x="1989" y="-106.9" font-family="Times,serif" font-size="12.00">X</text>
</g>
<!-- 6158854352&#45;&gt;6096074640 -->
<g id="edge24" class="edge">
<title>6158854352&#45;&gt;6096074640</title>
<path fill="none" stroke="black" d="M1910.3,-110C1924.71,-110 1939.14,-110 1951.58,-110"/>
<polygon fill="black" stroke="black" points="1951.96,-113.5 1961.96,-110 1951.96,-106.5 1951.96,-113.5"/>
</g>
<!-- 6086476624 -->
<g id="node24" class="node">
<title>6086476624</title>
<polygon fill="none" stroke="black" points="2032,-236 1946,-236 1946,-200 2032,-200 2032,-236"/>
<text text-anchor="middle" x="1989" y="-214.9" font-family="Times,serif" font-size="12.00">Archive report</text>
</g>
<!-- 6158848784&#45;&gt;6086476624 -->
<g id="edge25" class="edge">
<title>6158848784&#45;&gt;6086476624</title>
<path fill="none" stroke="black" d="M1891.91,-218C1906.35,-218 1921.73,-218 1935.85,-218"/>
<polygon fill="black" stroke="black" points="1935.87,-221.5 1945.87,-218 1935.87,-214.5 1935.87,-221.5"/>
</g>
<!-- 6092171408 -->
<g id="node25" class="node">
<title>6092171408</title>
<polygon fill="none" stroke="black" points="2676,-190 2649,-172 2676,-154 2703,-172 2676,-190"/>
<text text-anchor="middle" x="2676" y="-168.9" font-family="Times,serif" font-size="12.00">X</text>
</g>
<!-- 6096074640&#45;&gt;6092171408 -->
<g id="edge26" class="edge">
<title>6096074640&#45;&gt;6092171408</title>
<path fill="none" stroke="black" d="M2007.57,-115.83C2055.69,-131.27 2193.87,-172 2312,-172 2312,-172 2312,-172 2464,-172 2525.29,-172 2596.6,-172 2638.65,-172"/>
<polygon fill="black" stroke="black" points="2638.68,-175.5 2648.68,-172 2638.68,-168.5 2638.68,-175.5"/>
</g>
<!-- 6158856720 -->
<g id="node27" class="node">
<title>6158856720</title>
<polygon fill="none" stroke="black" points="2223,-109 2068,-109 2068,-73 2223,-73 2223,-109"/>
<text text-anchor="middle" x="2145.5" y="-87.9" font-family="Times,serif" font-size="12.00">Launch detailed investigation</text>
</g>
<!-- 6096074640&#45;&gt;6158856720 -->
<g id="edge27" class="edge">
<title>6096074640&#45;&gt;6158856720</title>
<path fill="none" stroke="black" d="M2012.14,-107.28C2024.55,-105.75 2040.93,-103.74 2057.92,-101.65"/>
<polygon fill="black" stroke="black" points="2058.47,-105.11 2067.97,-100.41 2057.62,-98.16 2058.47,-105.11"/>
</g>
<!-- 6158824720 -->
<g id="node26" class="node">
<title>6158824720</title>
<polygon fill="none" stroke="black" points="2367,-236 2259,-236 2259,-200 2367,-200 2367,-236"/>
<text text-anchor="middle" x="2313" y="-214.9" font-family="Times,serif" font-size="12.00">Close audit process</text>
</g>
<!-- 6086476624&#45;&gt;6158824720 -->
<g id="edge28" class="edge">
<title>6086476624&#45;&gt;6158824720</title>
<path fill="none" stroke="black" d="M2032.1,-218C2087.24,-218 2184.44,-218 2248.54,-218"/>
<polygon fill="black" stroke="black" points="2248.92,-221.5 2258.92,-218 2248.92,-214.5 2248.92,-221.5"/>
</g>
<!-- 6158591056 -->
<g id="node29" class="node">
<title>6158591056</title>
<polygon fill="none" stroke="black" points="2766,-213 2739,-195 2766,-177 2793,-195 2766,-213"/>
<text text-anchor="middle" x="2766" y="-191.9" font-family="Times,serif" font-size="12.00">+</text>
</g>
<!-- 6092171408&#45;&gt;6158591056 -->
<g id="edge29" class="edge">
<title>6092171408&#45;&gt;6158591056</title>
<path fill="none" stroke="black" d="M2696.09,-176.99C2707.82,-180.06 2723.07,-184.04 2736.24,-187.48"/>
<polygon fill="black" stroke="black" points="2735.68,-190.96 2746.24,-190.1 2737.45,-184.18 2735.68,-190.96"/>
</g>
<!-- 6158824720&#45;&gt;6158591056 -->
<g id="edge30" class="edge">
<title>6158824720&#45;&gt;6158591056</title>
<path fill="none" stroke="black" d="M2367.18,-215.67C2442.11,-212.32 2583.01,-205.8 2703,-199 2712.06,-198.49 2721.85,-197.88 2730.93,-197.29"/>
<polygon fill="black" stroke="black" points="2731.41,-200.77 2741.16,-196.63 2730.95,-193.79 2731.41,-200.77"/>
</g>
<!-- 6158849680 -->
<g id="node28" class="node">
<title>6158849680</title>
<polygon fill="none" stroke="black" points="2313,-100 2286,-82 2313,-64 2340,-82 2313,-100"/>
<text text-anchor="middle" x="2313" y="-78.9" font-family="Times,serif" font-size="12.00">+</text>
</g>
<!-- 6158856720&#45;&gt;6158849680 -->
<g id="edge31" class="edge">
<title>6158856720&#45;&gt;6158849680</title>
<path fill="none" stroke="black" d="M2223.44,-86.82C2242.37,-85.79 2261.7,-84.74 2277.46,-83.88"/>
<polygon fill="black" stroke="black" points="2277.95,-87.36 2287.75,-83.32 2277.57,-80.37 2277.95,-87.36"/>
</g>
<!-- 6091227216 -->
<g id="node30" class="node">
<title>6091227216</title>
<polygon fill="none" stroke="black" points="2517.5,-144 2408.5,-144 2408.5,-108 2517.5,-108 2517.5,-144"/>
<text text-anchor="middle" x="2463" y="-122.9" font-family="Times,serif" font-size="12.00">Conduct interviews</text>
</g>
<!-- 6158849680&#45;&gt;6091227216 -->
<g id="edge34" class="edge">
<title>6158849680&#45;&gt;6091227216</title>
<path fill="none" stroke="black" d="M2332.15,-87.4C2348.77,-92.34 2374.38,-99.95 2398.47,-107.11"/>
<polygon fill="black" stroke="black" points="2397.74,-110.55 2408.32,-110.04 2399.73,-103.84 2397.74,-110.55"/>
</g>
<!-- 6091237328 -->
<g id="node31" class="node">
<title>6091237328</title>
<polygon fill="none" stroke="black" points="2513.5,-90 2412.5,-90 2412.5,-54 2513.5,-54 2513.5,-90"/>
<text text-anchor="middle" x="2463" y="-68.9" font-family="Times,serif" font-size="12.00">Perform site visits</text>
</g>
<!-- 6158849680&#45;&gt;6091237328 -->
<g id="edge33" class="edge">
<title>6158849680&#45;&gt;6091237328</title>
<path fill="none" stroke="black" d="M2337.78,-80.39C2355.14,-79.22 2379.48,-77.58 2402.02,-76.05"/>
<polygon fill="black" stroke="black" points="2402.48,-79.53 2412.22,-75.36 2402.01,-72.55 2402.48,-79.53"/>
</g>
<!-- 6158848336 -->
<g id="node32" class="node">
<title>6158848336</title>
<polygon fill="none" stroke="black" points="2523,-36 2403,-36 2403,0 2523,0 2523,-36"/>
<text text-anchor="middle" x="2463" y="-14.9" font-family="Times,serif" font-size="12.00">Conduct data analysis</text>
</g>
<!-- 6158849680&#45;&gt;6158848336 -->
<g id="edge32" class="edge">
<title>6158849680&#45;&gt;6158848336</title>
<path fill="none" stroke="black" d="M2329.84,-75.15C2349.07,-66.84 2382.45,-52.4 2410.85,-40.12"/>
<polygon fill="black" stroke="black" points="2412.47,-43.23 2420.26,-36.05 2409.69,-36.81 2412.47,-43.23"/>
</g>
<!-- 6134560208 -->
<g id="node34" class="node">
<title>6134560208</title>
<ellipse fill="orange" stroke="black" cx="2847" cy="-195" rx="18" ry="18"/>
</g>
<!-- 6158591056&#45;&gt;6134560208 -->
<g id="edge35" class="edge">
<title>6158591056&#45;&gt;6134560208</title>
<path fill="none" stroke="black" d="M2793.31,-195C2801.42,-195 2810.37,-195 2818.56,-195"/>
<polygon fill="black" stroke="black" points="2818.75,-198.5 2828.75,-195 2818.75,-191.5 2818.75,-198.5"/>
</g>
<!-- 6158854544 -->
<g id="node33" class="node">
<title>6158854544</title>
<polygon fill="none" stroke="black" points="2586,-117 2559,-99 2586,-81 2613,-99 2586,-117"/>
<text text-anchor="middle" x="2586" y="-95.9" font-family="Times,serif" font-size="12.00">+</text>
</g>
<!-- 6091227216&#45;&gt;6158854544 -->
<g id="edge36" class="edge">
<title>6091227216&#45;&gt;6158854544</title>
<path fill="none" stroke="black" d="M2517.78,-114C2530.73,-111.11 2544.09,-108.13 2555.46,-105.59"/>
<polygon fill="black" stroke="black" points="2556.28,-109 2565.28,-103.4 2554.75,-102.16 2556.28,-109"/>
</g>
<!-- 6091237328&#45;&gt;6158854544 -->
<g id="edge37" class="edge">
<title>6091237328&#45;&gt;6158854544</title>
<path fill="none" stroke="black" d="M2513.56,-83.06C2527.74,-86.22 2542.74,-89.57 2555.32,-92.38"/>
<polygon fill="black" stroke="black" points="2554.72,-95.83 2565.24,-94.59 2556.25,-89 2554.72,-95.83"/>
</g>
<!-- 6158848336&#45;&gt;6158854544 -->
<g id="edge38" class="edge">
<title>6158848336&#45;&gt;6158854544</title>
<path fill="none" stroke="black" d="M2507.31,-36.06C2512.72,-38.83 2518.08,-41.82 2523,-45 2539.18,-55.44 2555.52,-69.86 2567.36,-81.18"/>
<polygon fill="black" stroke="black" points="2565.18,-83.95 2574.78,-88.43 2570.08,-78.94 2565.18,-83.95"/>
</g>
<!-- 6158854544&#45;&gt;6092171408 -->
<g id="edge39" class="edge">
<title>6158854544&#45;&gt;6092171408</title>
<path fill="none" stroke="black" d="M2598.87,-108.85C2613.38,-120.89 2638.15,-141.43 2655.49,-155.81"/>
<polygon fill="black" stroke="black" points="2653.39,-158.62 2663.32,-162.31 2657.86,-153.23 2653.39,-158.62"/>
</g>
</g>
</svg>
