<?xml version="1.0" encoding="UTF-8" standalone="no"?>
<!DOCTYPE svg PUBLIC "-//W3C//DTD SVG 1.1//EN"
 "http://www.w3.org/Graphics/SVG/1.1/DTD/svg11.dtd">
<!-- Generated by graphviz version 2.50.0 (0)
 -->
<!-- Pages: 1 -->
<svg width="1153pt" height="536pt"
 viewBox="0.00 0.00 1153.00 536.00" xmlns="http://www.w3.org/2000/svg" xmlns:xlink="http://www.w3.org/1999/xlink">
<g id="graph0" class="graph" transform="scale(1 1) rotate(0) translate(4 532)">
<polygon fill="white" stroke="transparent" points="-4,4 -4,-532 1149,-532 1149,4 -4,4"/>
<!-- 6159558928 -->
<g id="node1" class="node">
<title>6159558928</title>
<ellipse fill="green" stroke="black" cx="18" cy="-240" rx="18" ry="18"/>
</g>
<!-- 6086859216 -->
<g id="node2" class="node">
<title>6086859216</title>
<polygon fill="none" stroke="black" points="99,-258 72,-240 99,-222 126,-240 99,-258"/>
<text text-anchor="middle" x="99" y="-236.9" font-family="Times,serif" font-size="12.00">+</text>
</g>
<!-- 6159558928&#45;&gt;6086859216 -->
<g id="edge1" class="edge">
<title>6159558928&#45;&gt;6086859216</title>
<path fill="none" stroke="black" d="M36.14,-240C43.64,-240 52.75,-240 61.64,-240"/>
<polygon fill="black" stroke="black" points="61.87,-243.5 71.87,-240 61.87,-236.5 61.87,-243.5"/>
</g>
<!-- 6159632080 -->
<g id="node3" class="node">
<title>6159632080</title>
<polygon fill="none" stroke="black" points="319.5,-528 201.5,-528 201.5,-492 319.5,-492 319.5,-528"/>
<text text-anchor="middle" x="260.5" y="-506.9" font-family="Times,serif" font-size="12.00">Distribute final report</text>
</g>
<!-- 6086859216&#45;&gt;6159632080 -->
<g id="edge9" class="edge">
<title>6086859216&#45;&gt;6159632080</title>
<path fill="none" stroke="black" d="M102,-256.15C108.38,-305.02 129.7,-450.04 162,-483 170.13,-491.3 180.56,-497.11 191.57,-501.17"/>
<polygon fill="black" stroke="black" points="190.76,-504.58 201.35,-504.3 192.89,-497.91 190.76,-504.58"/>
</g>
<!-- 6159634064 -->
<g id="node4" class="node">
<title>6159634064</title>
<polygon fill="none" stroke="black" points="329.5,-474 191.5,-474 191.5,-438 329.5,-438 329.5,-474"/>
<text text-anchor="middle" x="260.5" y="-452.9" font-family="Times,serif" font-size="12.00">Evaluate operational risks</text>
</g>
<!-- 6086859216&#45;&gt;6159634064 -->
<g id="edge10" class="edge">
<title>6086859216&#45;&gt;6159634064</title>
<path fill="none" stroke="black" d="M100.47,-257.16C102.45,-294.11 112.41,-381.68 162,-429 167.81,-434.54 174.65,-438.97 181.97,-442.49"/>
<polygon fill="black" stroke="black" points="180.88,-445.83 191.46,-446.5 183.61,-439.39 180.88,-445.83"/>
</g>
<!-- 6159641616 -->
<g id="node5" class="node">
<title>6159641616</title>
<polygon fill="none" stroke="black" points="311,-420 210,-420 210,-384 311,-384 311,-420"/>
<text text-anchor="middle" x="260.5" y="-398.9" font-family="Times,serif" font-size="12.00">Perform site visits</text>
</g>
<!-- 6086859216&#45;&gt;6159641616 -->
<g id="edge11" class="edge">
<title>6086859216&#45;&gt;6159641616</title>
<path fill="none" stroke="black" d="M102.8,-255.96C108.61,-284.26 124.69,-343.24 162,-375 172.76,-384.16 186.39,-390.23 200.02,-394.25"/>
<polygon fill="black" stroke="black" points="199.35,-397.69 209.91,-396.82 201.11,-390.91 199.35,-397.69"/>
</g>
<!-- 6159646224 -->
<g id="node6" class="node">
<title>6159646224</title>
<polygon fill="none" stroke="black" points="324.5,-366 196.5,-366 196.5,-330 324.5,-330 324.5,-366"/>
<text text-anchor="middle" x="260.5" y="-344.9" font-family="Times,serif" font-size="12.00">Send report for revision</text>
</g>
<!-- 6086859216&#45;&gt;6159646224 -->
<g id="edge8" class="edge">
<title>6086859216&#45;&gt;6159646224</title>
<path fill="none" stroke="black" d="M106.48,-253.06C116.1,-271.09 135.87,-303.36 162,-321 169.54,-326.09 178.01,-330.22 186.74,-333.58"/>
<polygon fill="black" stroke="black" points="185.68,-336.92 196.28,-336.93 188,-330.31 185.68,-336.92"/>
</g>
<!-- 6086854928 -->
<g id="node7" class="node">
<title>6086854928</title>
<polygon fill="none" stroke="black" points="305,-312 216,-312 216,-276 305,-276 305,-312"/>
<text text-anchor="middle" x="260.5" y="-290.9" font-family="Times,serif" font-size="12.00">Approve report</text>
</g>
<!-- 6086859216&#45;&gt;6086854928 -->
<g id="edge4" class="edge">
<title>6086859216&#45;&gt;6086854928</title>
<path fill="none" stroke="black" d="M115.3,-247.38C127.7,-253.19 145.73,-261.24 162,-267 176.12,-272 191.66,-276.67 206.1,-280.67"/>
<polygon fill="black" stroke="black" points="205.33,-284.09 215.9,-283.33 207.16,-277.33 205.33,-284.09"/>
</g>
<!-- 6086861648 -->
<g id="node8" class="node">
<title>6086861648</title>
<polygon fill="none" stroke="black" points="311,-258 210,-258 210,-222 311,-222 311,-258"/>
<text text-anchor="middle" x="260.5" y="-236.9" font-family="Times,serif" font-size="12.00">Perform site visits</text>
</g>
<!-- 6086859216&#45;&gt;6086861648 -->
<g id="edge3" class="edge">
<title>6086859216&#45;&gt;6086861648</title>
<path fill="none" stroke="black" d="M126.34,-240C146.25,-240 174.37,-240 199.65,-240"/>
<polygon fill="black" stroke="black" points="199.91,-243.5 209.91,-240 199.91,-236.5 199.91,-243.5"/>
</g>
<!-- 6086866256 -->
<g id="node9" class="node">
<title>6086866256</title>
<polygon fill="none" stroke="black" points="775,-220 627,-220 627,-184 775,-184 775,-220"/>
<text text-anchor="middle" x="701" y="-198.9" font-family="Times,serif" font-size="12.00">Prepare financial statements</text>
</g>
<!-- 6086859216&#45;&gt;6086866256 -->
<g id="edge5" class="edge">
<title>6086859216&#45;&gt;6086866256</title>
<path fill="none" stroke="black" d="M114.24,-231.88C126.47,-225.39 144.8,-216.77 162,-213 319.81,-178.44 509.9,-185.55 616.65,-193.81"/>
<polygon fill="black" stroke="black" points="616.48,-197.3 626.72,-194.61 617.03,-190.32 616.48,-197.3"/>
</g>
<!-- 6086864976 -->
<g id="node10" class="node">
<title>6086864976</title>
<polygon fill="none" stroke="black" points="977,-176 825,-176 825,-140 977,-140 977,-176"/>
<text text-anchor="middle" x="901" y="-154.9" font-family="Times,serif" font-size="12.00">Gather necessary documents</text>
</g>
<!-- 6086859216&#45;&gt;6086864976 -->
<g id="edge2" class="edge">
<title>6086859216&#45;&gt;6086864976</title>
<path fill="none" stroke="black" d="M108.99,-228.16C119.87,-214.87 139.56,-193.99 162,-185 278.19,-138.44 646.48,-147.2 814.7,-153.98"/>
<polygon fill="black" stroke="black" points="814.62,-157.48 824.76,-154.39 814.91,-150.48 814.62,-157.48"/>
</g>
<!-- 6159761680 -->
<g id="node11" class="node">
<title>6159761680</title>
<polygon fill="none" stroke="black" points="769.5,-128 632.5,-128 632.5,-92 769.5,-92 769.5,-128"/>
<text text-anchor="middle" x="701" y="-106.9" font-family="Times,serif" font-size="12.00">Check regulatory updates</text>
</g>
<!-- 6086859216&#45;&gt;6159761680 -->
<g id="edge7" class="edge">
<title>6086859216&#45;&gt;6159761680</title>
<path fill="none" stroke="black" d="M104.38,-225.57C112.02,-203.22 130.1,-160.83 162,-142 237.71,-97.33 492.15,-100.99 622.14,-106.11"/>
<polygon fill="black" stroke="black" points="622.28,-109.61 632.42,-106.52 622.57,-102.62 622.28,-109.61"/>
</g>
<!-- 6159764112 -->
<g id="node12" class="node">
<title>6159764112</title>
<polygon fill="none" stroke="black" points="359,-90 162,-90 162,-54 359,-54 359,-90"/>
<text text-anchor="middle" x="260.5" y="-68.9" font-family="Times,serif" font-size="12.00">Request clarifications of discrepancies</text>
</g>
<!-- 6086859216&#45;&gt;6159764112 -->
<g id="edge12" class="edge">
<title>6086859216&#45;&gt;6159764112</title>
<path fill="none" stroke="black" d="M102.82,-224.54C108.73,-196.49 125.07,-137.06 162,-104 165.63,-100.75 169.59,-97.84 173.77,-95.22"/>
<polygon fill="black" stroke="black" points="175.63,-98.19 182.64,-90.24 172.21,-92.08 175.63,-98.19"/>
</g>
<!-- 6159769424 -->
<g id="node13" class="node">
<title>6159769424</title>
<polygon fill="none" stroke="black" points="330.5,-36 190.5,-36 190.5,0 330.5,0 330.5,-36"/>
<text text-anchor="middle" x="260.5" y="-14.9" font-family="Times,serif" font-size="12.00">Evaluate compliance risks</text>
</g>
<!-- 6086859216&#45;&gt;6159769424 -->
<g id="edge6" class="edge">
<title>6086859216&#45;&gt;6159769424</title>
<path fill="none" stroke="black" d="M100.28,-222.6C101.86,-184.67 111.08,-94.04 162,-45 167.48,-39.72 173.9,-35.46 180.78,-32.02"/>
<polygon fill="black" stroke="black" points="182.64,-35.02 190.4,-27.81 179.83,-28.61 182.64,-35.02"/>
</g>
<!-- 6086857296 -->
<g id="node18" class="node">
<title>6086857296</title>
<polygon fill="none" stroke="black" points="532,-528 446,-528 446,-492 532,-492 532,-528"/>
<text text-anchor="middle" x="489" y="-506.9" font-family="Times,serif" font-size="12.00">Archive report</text>
</g>
<!-- 6159632080&#45;&gt;6086857296 -->
<g id="edge13" class="edge">
<title>6159632080&#45;&gt;6086857296</title>
<path fill="none" stroke="black" d="M319.54,-510C355.29,-510 400.76,-510 435.45,-510"/>
<polygon fill="black" stroke="black" points="435.85,-513.5 445.85,-510 435.85,-506.5 435.85,-513.5"/>
</g>
<!-- 6088005136 -->
<g id="node14" class="node">
<title>6088005136</title>
<polygon fill="none" stroke="black" points="537.5,-474 440.5,-474 440.5,-438 537.5,-438 537.5,-474"/>
<text text-anchor="middle" x="489" y="-452.9" font-family="Times,serif" font-size="12.00">Send notification</text>
</g>
<!-- 6159634064&#45;&gt;6088005136 -->
<g id="edge14" class="edge">
<title>6159634064&#45;&gt;6088005136</title>
<path fill="none" stroke="black" d="M329.76,-456C361.83,-456 399.64,-456 430.26,-456"/>
<polygon fill="black" stroke="black" points="430.35,-459.5 440.35,-456 430.35,-452.5 430.35,-459.5"/>
</g>
<!-- 6159765584 -->
<g id="node20" class="node">
<title>6159765584</title>
<polygon fill="none" stroke="black" points="983,-420 819,-420 819,-384 983,-384 983,-420"/>
<text text-anchor="middle" x="901" y="-398.9" font-family="Times,serif" font-size="12.00">Review report by audit director</text>
</g>
<!-- 6159641616&#45;&gt;6159765584 -->
<g id="edge15" class="edge">
<title>6159641616&#45;&gt;6159765584</title>
<path fill="none" stroke="black" d="M311.07,-402C418.05,-402 671.94,-402 808.81,-402"/>
<polygon fill="black" stroke="black" points="808.86,-405.5 818.86,-402 808.86,-398.5 808.86,-405.5"/>
</g>
<!-- 6088014544 -->
<g id="node15" class="node">
<title>6088014544</title>
<polygon fill="none" stroke="black" points="583,-366 395,-366 395,-330 583,-330 583,-366"/>
<text text-anchor="middle" x="489" y="-344.9" font-family="Times,serif" font-size="12.00">Complete risk assessment/mitigation</text>
</g>
<!-- 6159646224&#45;&gt;6088014544 -->
<g id="edge16" class="edge">
<title>6159646224&#45;&gt;6088014544</title>
<path fill="none" stroke="black" d="M324.59,-348C343.27,-348 364.22,-348 384.73,-348"/>
<polygon fill="black" stroke="black" points="384.76,-351.5 394.76,-348 384.76,-344.5 384.76,-351.5"/>
</g>
<!-- 6159641680 -->
<g id="node16" class="node">
<title>6159641680</title>
<polygon fill="none" stroke="black" points="548,-312 430,-312 430,-276 548,-276 548,-312"/>
<text text-anchor="middle" x="489" y="-290.9" font-family="Times,serif" font-size="12.00">Distribute final report</text>
</g>
<!-- 6086854928&#45;&gt;6159641680 -->
<g id="edge17" class="edge">
<title>6086854928&#45;&gt;6159641680</title>
<path fill="none" stroke="black" d="M305.17,-294C337.6,-294 382.46,-294 419.63,-294"/>
<polygon fill="black" stroke="black" points="419.89,-297.5 429.89,-294 419.89,-290.5 419.89,-297.5"/>
</g>
<!-- 6159772752 -->
<g id="node22" class="node">
<title>6159772752</title>
<polygon fill="none" stroke="black" points="546,-258 432,-258 432,-222 546,-222 546,-258"/>
<text text-anchor="middle" x="489" y="-236.9" font-family="Times,serif" font-size="12.00">Compile audit report</text>
</g>
<!-- 6086861648&#45;&gt;6159772752 -->
<g id="edge18" class="edge">
<title>6086861648&#45;&gt;6159772752</title>
<path fill="none" stroke="black" d="M311.21,-240C343.56,-240 386.15,-240 421.42,-240"/>
<polygon fill="black" stroke="black" points="421.63,-243.5 431.63,-240 421.63,-236.5 421.63,-243.5"/>
</g>
<!-- 6159763152 -->
<g id="node19" class="node">
<title>6159763152</title>
<polygon fill="none" stroke="black" points="1046,-274 1019,-256 1046,-238 1073,-256 1046,-274"/>
<text text-anchor="middle" x="1046" y="-252.9" font-family="Times,serif" font-size="12.00">+</text>
</g>
<!-- 6086866256&#45;&gt;6159763152 -->
<g id="edge19" class="edge">
<title>6086866256&#45;&gt;6159763152</title>
<path fill="none" stroke="black" d="M775.28,-202.76C832.63,-204.85 913.97,-211.13 983,-229 996.01,-232.37 1009.78,-238.12 1021.03,-243.45"/>
<polygon fill="black" stroke="black" points="1019.67,-246.69 1030.19,-247.96 1022.76,-240.41 1019.67,-246.69"/>
</g>
<!-- 6086864976&#45;&gt;6159763152 -->
<g id="edge20" class="edge">
<title>6086864976&#45;&gt;6159763152</title>
<path fill="none" stroke="black" d="M953.76,-176.04C963.85,-180.56 974.06,-185.89 983,-192 1000.98,-204.29 1017.94,-222.41 1029.56,-236.24"/>
<polygon fill="black" stroke="black" points="1027.03,-238.68 1036.06,-244.21 1032.45,-234.25 1027.03,-238.68"/>
</g>
<!-- 6159761680&#45;&gt;6159763152 -->
<g id="edge21" class="edge">
<title>6159761680&#45;&gt;6159763152</title>
<path fill="none" stroke="black" d="M769.63,-97.42C830.64,-89.89 920.2,-88.73 983,-131 1016.83,-153.77 1032.97,-200.64 1040.07,-230.07"/>
<polygon fill="black" stroke="black" points="1036.7,-231.05 1042.29,-240.05 1043.53,-229.53 1036.7,-231.05"/>
</g>
<!-- 6086864720 -->
<g id="node17" class="node">
<title>6086864720</title>
<polygon fill="none" stroke="black" points="548,-90 430,-90 430,-54 548,-54 548,-90"/>
<text text-anchor="middle" x="489" y="-68.9" font-family="Times,serif" font-size="12.00">Receive clarifications</text>
</g>
<!-- 6159764112&#45;&gt;6086864720 -->
<g id="edge22" class="edge">
<title>6159764112&#45;&gt;6086864720</title>
<path fill="none" stroke="black" d="M359.2,-72C379.6,-72 400.69,-72 419.74,-72"/>
<polygon fill="black" stroke="black" points="419.8,-75.5 429.8,-72 419.8,-68.5 419.8,-75.5"/>
</g>
<!-- 6159767568 -->
<g id="node21" class="node">
<title>6159767568</title>
<polygon fill="none" stroke="black" points="566.5,-36 411.5,-36 411.5,0 566.5,0 566.5,-36"/>
<text text-anchor="middle" x="489" y="-14.9" font-family="Times,serif" font-size="12.00">Launch detailed investigation</text>
</g>
<!-- 6159769424&#45;&gt;6159767568 -->
<g id="edge23" class="edge">
<title>6159769424&#45;&gt;6159767568</title>
<path fill="none" stroke="black" d="M330.69,-18C352.9,-18 377.79,-18 401.1,-18"/>
<polygon fill="black" stroke="black" points="401.34,-21.5 411.34,-18 401.34,-14.5 401.34,-21.5"/>
</g>
<!-- 6159636240 -->
<g id="node24" class="node">
<title>6159636240</title>
<polygon fill="none" stroke="black" points="755.5,-474 646.5,-474 646.5,-438 755.5,-438 755.5,-474"/>
<text text-anchor="middle" x="701" y="-452.9" font-family="Times,serif" font-size="12.00">Review submission</text>
</g>
<!-- 6088005136&#45;&gt;6159636240 -->
<g id="edge27" class="edge">
<title>6088005136&#45;&gt;6159636240</title>
<path fill="none" stroke="black" d="M537.65,-456C566.81,-456 604.47,-456 636.18,-456"/>
<polygon fill="black" stroke="black" points="636.25,-459.5 646.25,-456 636.25,-452.5 636.25,-459.5"/>
</g>
<!-- 6088004240 -->
<g id="node23" class="node">
<title>6088004240</title>
<polygon fill="none" stroke="black" points="774,-366 628,-366 628,-330 774,-330 774,-366"/>
<text text-anchor="middle" x="701" y="-344.9" font-family="Times,serif" font-size="12.00">Update and resubmit report</text>
</g>
<!-- 6088014544&#45;&gt;6088004240 -->
<g id="edge28" class="edge">
<title>6088014544&#45;&gt;6088004240</title>
<path fill="none" stroke="black" d="M583.03,-348C594.53,-348 606.24,-348 617.57,-348"/>
<polygon fill="black" stroke="black" points="617.86,-351.5 627.86,-348 617.86,-344.5 617.86,-351.5"/>
</g>
<!-- 6159641680&#45;&gt;6159763152 -->
<g id="edge24" class="edge">
<title>6159641680&#45;&gt;6159763152</title>
<path fill="none" stroke="black" d="M548.17,-299.88C641.27,-307.69 828.94,-316.89 983,-283 996.3,-280.07 1010.28,-274.25 1021.59,-268.77"/>
<polygon fill="black" stroke="black" points="1023.43,-271.76 1030.76,-264.11 1020.26,-265.52 1023.43,-271.76"/>
</g>
<!-- 6086864720&#45;&gt;6159763152 -->
<g id="edge25" class="edge">
<title>6086864720&#45;&gt;6159763152</title>
<path fill="none" stroke="black" d="M548.21,-66.19C663.39,-55.94 915.11,-40.03 983,-89 1027.86,-121.36 1040.3,-190.01 1043.72,-228.45"/>
<polygon fill="black" stroke="black" points="1040.27,-229.18 1044.5,-238.89 1047.25,-228.66 1040.27,-229.18"/>
</g>
<!-- 6159637520 -->
<g id="node25" class="node">
<title>6159637520</title>
<polygon fill="none" stroke="black" points="755,-528 647,-528 647,-492 755,-492 755,-528"/>
<text text-anchor="middle" x="701" y="-506.9" font-family="Times,serif" font-size="12.00">Close audit process</text>
</g>
<!-- 6086857296&#45;&gt;6159637520 -->
<g id="edge29" class="edge">
<title>6086857296&#45;&gt;6159637520</title>
<path fill="none" stroke="black" d="M532.24,-510C562.09,-510 602.63,-510 636.38,-510"/>
<polygon fill="black" stroke="black" points="636.62,-513.5 646.62,-510 636.62,-506.5 636.62,-513.5"/>
</g>
<!-- 6091901712 -->
<g id="node33" class="node">
<title>6091901712</title>
<ellipse fill="orange" stroke="black" cx="1127" cy="-256" rx="18" ry="18"/>
</g>
<!-- 6159763152&#45;&gt;6091901712 -->
<g id="edge32" class="edge">
<title>6159763152&#45;&gt;6091901712</title>
<path fill="none" stroke="black" d="M1073.31,-256C1081.42,-256 1090.37,-256 1098.56,-256"/>
<polygon fill="black" stroke="black" points="1098.75,-259.5 1108.75,-256 1098.75,-252.5 1098.75,-259.5"/>
</g>
<!-- 6159765584&#45;&gt;6159763152 -->
<g id="edge26" class="edge">
<title>6159765584&#45;&gt;6159763152</title>
<path fill="none" stroke="black" d="M970.05,-383.9C974.67,-381.32 979.05,-378.37 983,-375 1012.26,-350.05 1029.57,-307.79 1038.17,-280.92"/>
<polygon fill="black" stroke="black" points="1041.59,-281.7 1041.14,-271.11 1034.89,-279.67 1041.59,-281.7"/>
</g>
<!-- 6159639824 -->
<g id="node26" class="node">
<title>6159639824</title>
<polygon fill="none" stroke="black" points="761,-36 641,-36 641,0 761,0 761,-36"/>
<text text-anchor="middle" x="701" y="-14.9" font-family="Times,serif" font-size="12.00">Conduct data analysis</text>
</g>
<!-- 6159767568&#45;&gt;6159639824 -->
<g id="edge30" class="edge">
<title>6159767568&#45;&gt;6159639824</title>
<path fill="none" stroke="black" d="M566.71,-18C587.65,-18 610.23,-18 630.73,-18"/>
<polygon fill="black" stroke="black" points="630.93,-21.5 640.93,-18 630.93,-14.5 630.93,-21.5"/>
</g>
<!-- 6086858704 -->
<g id="node27" class="node">
<title>6086858704</title>
<polygon fill="none" stroke="black" points="783,-274 619,-274 619,-238 783,-238 783,-274"/>
<text text-anchor="middle" x="701" y="-252.9" font-family="Times,serif" font-size="12.00">Review report by audit director</text>
</g>
<!-- 6159772752&#45;&gt;6086858704 -->
<g id="edge31" class="edge">
<title>6159772752&#45;&gt;6086858704</title>
<path fill="none" stroke="black" d="M546,-244.27C565.3,-245.74 587.45,-247.42 608.82,-249.05"/>
<polygon fill="black" stroke="black" points="608.66,-252.55 618.9,-249.82 609.19,-245.57 608.66,-252.55"/>
</g>
<!-- 6159771024 -->
<g id="node31" class="node">
<title>6159771024</title>
<polygon fill="none" stroke="black" points="983,-366 819,-366 819,-330 983,-330 983,-366"/>
<text text-anchor="middle" x="901" y="-344.9" font-family="Times,serif" font-size="12.00">Review report by audit director</text>
</g>
<!-- 6088004240&#45;&gt;6159771024 -->
<g id="edge33" class="edge">
<title>6088004240&#45;&gt;6159771024</title>
<path fill="none" stroke="black" d="M774.04,-348C785.33,-348 797.13,-348 808.78,-348"/>
<polygon fill="black" stroke="black" points="808.96,-351.5 818.96,-348 808.96,-344.5 808.96,-351.5"/>
</g>
<!-- 6086866192 -->
<g id="node29" class="node">
<title>6086866192</title>
<polygon fill="none" stroke="black" points="971,-474 831,-474 831,-438 971,-438 971,-474"/>
<text text-anchor="middle" x="901" y="-452.9" font-family="Times,serif" font-size="12.00">Evaluate compliance risks</text>
</g>
<!-- 6159636240&#45;&gt;6086866192 -->
<g id="edge34" class="edge">
<title>6159636240&#45;&gt;6086866192</title>
<path fill="none" stroke="black" d="M755.58,-456C775.55,-456 798.67,-456 820.48,-456"/>
<polygon fill="black" stroke="black" points="820.73,-459.5 830.73,-456 820.73,-452.5 820.73,-459.5"/>
</g>
<!-- 6159774352 -->
<g id="node32" class="node">
<title>6159774352</title>
<polygon fill="none" stroke="black" points="964,-528 838,-528 838,-492 964,-492 964,-528"/>
<text text-anchor="middle" x="901" y="-506.9" font-family="Times,serif" font-size="12.00">Evaluate financial risks</text>
</g>
<!-- 6159637520&#45;&gt;6159774352 -->
<g id="edge35" class="edge">
<title>6159637520&#45;&gt;6159774352</title>
<path fill="none" stroke="black" d="M755.06,-510C777.31,-510 803.54,-510 827.53,-510"/>
<polygon fill="black" stroke="black" points="827.65,-513.5 837.65,-510 827.65,-506.5 827.65,-513.5"/>
</g>
<!-- 6159643216 -->
<g id="node28" class="node">
<title>6159643216</title>
<polygon fill="none" stroke="black" points="951.5,-36 850.5,-36 850.5,0 951.5,0 951.5,-36"/>
<text text-anchor="middle" x="901" y="-14.9" font-family="Times,serif" font-size="12.00">Perform site visits</text>
</g>
<!-- 6159639824&#45;&gt;6159643216 -->
<g id="edge36" class="edge">
<title>6159639824&#45;&gt;6159643216</title>
<path fill="none" stroke="black" d="M761.14,-18C786.08,-18 815.07,-18 840.09,-18"/>
<polygon fill="black" stroke="black" points="840.18,-21.5 850.18,-18 840.18,-14.5 840.18,-21.5"/>
</g>
<!-- 6086861136 -->
<g id="node30" class="node">
<title>6086861136</title>
<polygon fill="none" stroke="black" points="945.5,-274 856.5,-274 856.5,-238 945.5,-238 945.5,-274"/>
<text text-anchor="middle" x="901" y="-252.9" font-family="Times,serif" font-size="12.00">Approve report</text>
</g>
<!-- 6086858704&#45;&gt;6086861136 -->
<g id="edge37" class="edge">
<title>6086858704&#45;&gt;6086861136</title>
<path fill="none" stroke="black" d="M783.11,-256C804.38,-256 826.79,-256 846.24,-256"/>
<polygon fill="black" stroke="black" points="846.42,-259.5 856.42,-256 846.41,-252.5 846.42,-259.5"/>
</g>
<!-- 6159643216&#45;&gt;6159763152 -->
<g id="edge38" class="edge">
<title>6159643216&#45;&gt;6159763152</title>
<path fill="none" stroke="black" d="M951.76,-29.6C963.28,-34.31 974.61,-40.87 983,-50 1029.61,-100.69 1041.24,-185.22 1044.1,-228.55"/>
<polygon fill="black" stroke="black" points="1040.61,-228.84 1044.66,-238.63 1047.6,-228.46 1040.61,-228.84"/>
</g>
<!-- 6086866192&#45;&gt;6159763152 -->
<g id="edge39" class="edge">
<title>6086866192&#45;&gt;6159763152</title>
<path fill="none" stroke="black" d="M971.35,-438.02C975.56,-435.41 979.5,-432.42 983,-429 1023.8,-389.11 1037.85,-320.52 1042.62,-282.8"/>
<polygon fill="black" stroke="black" points="1046.13,-282.92 1043.77,-272.59 1039.17,-282.13 1046.13,-282.92"/>
</g>
<!-- 6086861136&#45;&gt;6159763152 -->
<g id="edge40" class="edge">
<title>6086861136&#45;&gt;6159763152</title>
<path fill="none" stroke="black" d="M945.68,-256C965.78,-256 989.35,-256 1008.49,-256"/>
<polygon fill="black" stroke="black" points="1008.61,-259.5 1018.61,-256 1008.61,-252.5 1008.61,-259.5"/>
</g>
<!-- 6159771024&#45;&gt;6159763152 -->
<g id="edge41" class="edge">
<title>6159771024&#45;&gt;6159763152</title>
<path fill="none" stroke="black" d="M956.62,-329.85C965.74,-325.86 974.87,-321.24 983,-316 1000.35,-304.81 1016.99,-288.28 1028.65,-275.41"/>
<polygon fill="black" stroke="black" points="1031.58,-277.38 1035.56,-267.56 1026.32,-272.76 1031.58,-277.38"/>
</g>
<!-- 6159774352&#45;&gt;6159763152 -->
<g id="edge42" class="edge">
<title>6159774352&#45;&gt;6159763152</title>
<path fill="none" stroke="black" d="M964.24,-496.55C971.21,-493.04 977.7,-488.6 983,-483 1035.75,-427.25 1044.47,-331.08 1045.37,-283.83"/>
<polygon fill="black" stroke="black" points="1048.87,-283.76 1045.46,-273.73 1041.87,-283.7 1048.87,-283.76"/>
</g>
</g>
</svg>
