<?xml version="1.0" encoding="UTF-8" standalone="no"?>
<!DOCTYPE svg PUBLIC "-//W3C//DTD SVG 1.1//EN"
 "http://www.w3.org/Graphics/SVG/1.1/DTD/svg11.dtd">
<!-- Generated by graphviz version 2.50.0 (0)
 -->
<!-- Pages: 1 -->
<svg width="2982pt" height="163pt"
 viewBox="0.00 0.00 2982.00 163.00" xmlns="http://www.w3.org/2000/svg" xmlns:xlink="http://www.w3.org/1999/xlink">
<g id="graph0" class="graph" transform="scale(1 1) rotate(0) translate(4 159)">
<polygon fill="white" stroke="transparent" points="-4,4 -4,-159 2978,-159 2978,4 -4,4"/>
<!-- 6157408976 -->
<g id="node1" class="node">
<title>6157408976</title>
<ellipse fill="green" stroke="black" cx="18" cy="-102" rx="18" ry="18"/>
</g>
<!-- 6158897680 -->
<g id="node2" class="node">
<title>6158897680</title>
<polygon fill="none" stroke="black" points="99,-120 72,-102 99,-84 126,-102 99,-120"/>
<text text-anchor="middle" x="99" y="-98.9" font-family="Times,serif" font-size="12.00">+</text>
</g>
<!-- 6157408976&#45;&gt;6158897680 -->
<g id="edge1" class="edge">
<title>6157408976&#45;&gt;6158897680</title>
<path fill="none" stroke="black" d="M36.14,-102C43.64,-102 52.75,-102 61.64,-102"/>
<polygon fill="black" stroke="black" points="61.87,-105.5 71.87,-102 61.87,-98.5 61.87,-105.5"/>
</g>
<!-- 6157257104 -->
<g id="node3" class="node">
<title>6157257104</title>
<polygon fill="none" stroke="black" points="502,-147 348,-147 348,-111 502,-111 502,-147"/>
<text text-anchor="middle" x="425" y="-125.9" font-family="Times,serif" font-size="12.00">Provide personal information</text>
</g>
<!-- 6158897680&#45;&gt;6157257104 -->
<g id="edge3" class="edge">
<title>6158897680&#45;&gt;6157257104</title>
<path fill="none" stroke="black" d="M123.3,-103.94C167.51,-107.63 265.58,-115.8 337.76,-121.81"/>
<polygon fill="black" stroke="black" points="337.51,-125.3 347.76,-122.65 338.09,-118.33 337.51,-125.3"/>
</g>
<!-- 6158907280 -->
<g id="node4" class="node">
<title>6158907280</title>
<polygon fill="none" stroke="black" points="312,-97 162,-97 162,-61 312,-61 312,-97"/>
<text text-anchor="middle" x="237" y="-75.9" font-family="Times,serif" font-size="12.00">Customer searches for ticket</text>
</g>
<!-- 6158897680&#45;&gt;6158907280 -->
<g id="edge2" class="edge">
<title>6158897680&#45;&gt;6158907280</title>
<path fill="none" stroke="black" d="M120.95,-98.46C129.65,-96.99 140.37,-95.17 151.73,-93.25"/>
<polygon fill="black" stroke="black" points="152.57,-96.66 161.85,-91.54 151.41,-89.76 152.57,-96.66"/>
</g>
<!-- 6157418320 -->
<g id="node6" class="node">
<title>6157418320</title>
<polygon fill="none" stroke="black" points="1478,-128 1451,-110 1478,-92 1505,-110 1478,-128"/>
<text text-anchor="middle" x="1478" y="-106.9" font-family="Times,serif" font-size="12.00">+</text>
</g>
<!-- 6157257104&#45;&gt;6157418320 -->
<g id="edge4" class="edge">
<title>6157257104&#45;&gt;6157418320</title>
<path fill="none" stroke="black" d="M502.22,-129C568.69,-129 667.73,-129 754,-129 754,-129 754,-129 1173,-129 1272.11,-129 1389.04,-118.82 1444.58,-113.36"/>
<polygon fill="black" stroke="black" points="1444.93,-116.84 1454.53,-112.37 1444.23,-109.88 1444.93,-116.84"/>
</g>
<!-- 6157410640 -->
<g id="node5" class="node">
<title>6157410640</title>
<polygon fill="none" stroke="black" points="425,-93 398,-75 425,-57 452,-75 425,-93"/>
<text text-anchor="middle" x="425" y="-71.9" font-family="Times,serif" font-size="12.00">X</text>
</g>
<!-- 6158907280&#45;&gt;6157410640 -->
<g id="edge5" class="edge">
<title>6158907280&#45;&gt;6157410640</title>
<path fill="none" stroke="black" d="M312.05,-77.41C338.34,-76.84 366.74,-76.23 388.36,-75.77"/>
<polygon fill="black" stroke="black" points="388.47,-79.27 398.39,-75.55 388.32,-72.27 388.47,-79.27"/>
</g>
<!-- 6158908368 -->
<g id="node7" class="node">
<title>6158908368</title>
<polygon fill="none" stroke="black" points="680,-97 550,-97 550,-61 680,-61 680,-97"/>
<text text-anchor="middle" x="615" y="-75.9" font-family="Times,serif" font-size="12.00">Provide payment details</text>
</g>
<!-- 6157410640&#45;&gt;6158908368 -->
<g id="edge6" class="edge">
<title>6157410640&#45;&gt;6158908368</title>
<path fill="none" stroke="black" d="M451.35,-75.54C474.05,-76.02 508.5,-76.76 539.85,-77.42"/>
<polygon fill="black" stroke="black" points="539.83,-80.92 549.91,-77.64 539.98,-73.92 539.83,-80.92"/>
</g>
<!-- 6158896080 -->
<g id="node8" class="node">
<title>6158896080</title>
<polygon fill="none" stroke="black" points="692,-43 538,-43 538,-7 692,-7 692,-43"/>
<text text-anchor="middle" x="615" y="-21.9" font-family="Times,serif" font-size="12.00">Provide personal information</text>
</g>
<!-- 6157410640&#45;&gt;6158896080 -->
<g id="edge7" class="edge">
<title>6157410640&#45;&gt;6158896080</title>
<path fill="none" stroke="black" d="M444.71,-70.02C466.1,-64.34 502.49,-54.66 536.06,-45.73"/>
<polygon fill="black" stroke="black" points="537.14,-49.06 545.91,-43.11 535.34,-42.3 537.14,-49.06"/>
</g>
<!-- 6157402192 -->
<g id="node9" class="node">
<title>6157402192</title>
<polygon fill="none" stroke="black" points="1679,-128 1591,-128 1591,-92 1679,-92 1679,-128"/>
<text text-anchor="middle" x="1635" y="-106.9" font-family="Times,serif" font-size="12.00">Generate ticket</text>
</g>
<!-- 6157418320&#45;&gt;6157402192 -->
<g id="edge8" class="edge">
<title>6157418320&#45;&gt;6157402192</title>
<path fill="none" stroke="black" d="M1505.29,-110C1525.87,-110 1555.15,-110 1580.59,-110"/>
<polygon fill="black" stroke="black" points="1580.85,-113.5 1590.85,-110 1580.85,-106.5 1580.85,-113.5"/>
</g>
<!-- 6157410960 -->
<g id="node10" class="node">
<title>6157410960</title>
<polygon fill="none" stroke="black" points="755,-70 728,-52 755,-34 782,-52 755,-70"/>
<text text-anchor="middle" x="755" y="-48.9" font-family="Times,serif" font-size="12.00">X</text>
</g>
<!-- 6158908368&#45;&gt;6157410960 -->
<g id="edge9" class="edge">
<title>6158908368&#45;&gt;6157410960</title>
<path fill="none" stroke="black" d="M680.15,-66.45C695.33,-63.48 710.82,-60.45 723.67,-57.93"/>
<polygon fill="black" stroke="black" points="724.63,-61.31 733.78,-55.96 723.29,-54.44 724.63,-61.31"/>
</g>
<!-- 6158896080&#45;&gt;6157410960 -->
<g id="edge10" class="edge">
<title>6158896080&#45;&gt;6157410960</title>
<path fill="none" stroke="black" d="M692.27,-39.92C703.41,-42.1 714.29,-44.23 723.74,-46.08"/>
<polygon fill="black" stroke="black" points="723.26,-49.55 733.74,-48.04 724.6,-42.68 723.26,-49.55"/>
</g>
<!-- 6157410384 -->
<g id="node11" class="node">
<title>6157410384</title>
<polygon fill="none" stroke="black" points="1742,-128 1715,-110 1742,-92 1769,-110 1742,-128"/>
<text text-anchor="middle" x="1742" y="-106.9" font-family="Times,serif" font-size="12.00">X</text>
</g>
<!-- 6157402192&#45;&gt;6157410384 -->
<g id="edge11" class="edge">
<title>6157402192&#45;&gt;6157410384</title>
<path fill="none" stroke="black" d="M1679.01,-110C1687.53,-110 1696.4,-110 1704.67,-110"/>
<polygon fill="black" stroke="black" points="1704.76,-113.5 1714.76,-110 1704.76,-106.5 1704.76,-113.5"/>
</g>
<!-- 6157414480 -->
<g id="node12" class="node">
<title>6157414480</title>
<polygon fill="none" stroke="black" points="845,-70 818,-52 845,-34 872,-52 845,-70"/>
<text text-anchor="middle" x="845" y="-48.9" font-family="Times,serif" font-size="12.00">X</text>
</g>
<!-- 6157410960&#45;&gt;6157414480 -->
<g id="edge12" class="edge">
<title>6157410960&#45;&gt;6157414480</title>
<path fill="none" stroke="black" d="M782.4,-52C790.39,-52 799.31,-52 807.82,-52"/>
<polygon fill="black" stroke="black" points="807.92,-55.5 817.92,-52 807.92,-48.5 807.92,-55.5"/>
</g>
<!-- 6157286096 -->
<g id="node13" class="node">
<title>6157286096</title>
<polygon fill="none" stroke="black" points="1920,-155 1805,-155 1805,-119 1920,-119 1920,-155"/>
<text text-anchor="middle" x="1862.5" y="-133.9" font-family="Times,serif" font-size="12.00">Send ticket via email</text>
</g>
<!-- 6157410384&#45;&gt;6157286096 -->
<g id="edge13" class="edge">
<title>6157410384&#45;&gt;6157286096</title>
<path fill="none" stroke="black" d="M1762.57,-114.46C1771.66,-116.53 1783.05,-119.13 1794.85,-121.81"/>
<polygon fill="black" stroke="black" points="1794.28,-125.27 1804.81,-124.08 1795.83,-118.45 1794.28,-125.27"/>
</g>
<!-- 6157404560 -->
<g id="node14" class="node">
<title>6157404560</title>
<polygon fill="none" stroke="black" points="1919,-101 1806,-101 1806,-65 1919,-65 1919,-101"/>
<text text-anchor="middle" x="1862.5" y="-79.9" font-family="Times,serif" font-size="12.00">Send ticket via SMS</text>
</g>
<!-- 6157410384&#45;&gt;6157404560 -->
<g id="edge14" class="edge">
<title>6157410384&#45;&gt;6157404560</title>
<path fill="none" stroke="black" d="M1762.57,-105.54C1771.96,-103.4 1783.81,-100.7 1796.01,-97.92"/>
<polygon fill="black" stroke="black" points="1796.86,-101.32 1805.84,-95.68 1795.31,-94.49 1796.86,-101.32"/>
</g>
<!-- 6136630160 -->
<g id="node16" class="node">
<title>6136630160</title>
<polygon fill="none" stroke="black" points="999.5,-90 927.5,-90 927.5,-54 999.5,-54 999.5,-90"/>
<text text-anchor="middle" x="963.5" y="-68.9" font-family="Times,serif" font-size="12.00">Select route</text>
</g>
<!-- 6157414480&#45;&gt;6136630160 -->
<g id="edge15" class="edge">
<title>6157414480&#45;&gt;6136630160</title>
<path fill="none" stroke="black" d="M866.83,-55.58C880.83,-57.98 899.85,-61.24 917.23,-64.23"/>
<polygon fill="black" stroke="black" points="916.78,-67.7 927.23,-65.95 917.97,-60.8 916.78,-67.7"/>
</g>
<!-- 6158900368 -->
<g id="node17" class="node">
<title>6158900368</title>
<polygon fill="none" stroke="black" points="1019,-36 908,-36 908,0 1019,0 1019,-36"/>
<text text-anchor="middle" x="963.5" y="-14.9" font-family="Times,serif" font-size="12.00">Select date and time</text>
</g>
<!-- 6157414480&#45;&gt;6158900368 -->
<g id="edge16" class="edge">
<title>6157414480&#45;&gt;6158900368</title>
<path fill="none" stroke="black" d="M864.2,-46.69C873.64,-43.93 885.79,-40.39 898.31,-36.73"/>
<polygon fill="black" stroke="black" points="899.3,-40.09 907.92,-33.93 897.34,-33.37 899.3,-40.09"/>
</g>
<!-- 6157409168 -->
<g id="node15" class="node">
<title>6157409168</title>
<polygon fill="none" stroke="black" points="1983,-101 1956,-83 1983,-65 2010,-83 1983,-101"/>
<text text-anchor="middle" x="1983" y="-79.9" font-family="Times,serif" font-size="12.00">X</text>
</g>
<!-- 6157286096&#45;&gt;6157409168 -->
<g id="edge17" class="edge">
<title>6157286096&#45;&gt;6157409168</title>
<path fill="none" stroke="black" d="M1903.29,-118.87C1921.05,-110.78 1941.43,-101.49 1957.01,-94.39"/>
<polygon fill="black" stroke="black" points="1958.82,-97.41 1966.47,-90.08 1955.92,-91.04 1958.82,-97.41"/>
</g>
<!-- 6157404560&#45;&gt;6157409168 -->
<g id="edge18" class="edge">
<title>6157404560&#45;&gt;6157409168</title>
<path fill="none" stroke="black" d="M1919.28,-83C1928.23,-83 1937.28,-83 1945.62,-83"/>
<polygon fill="black" stroke="black" points="1945.74,-86.5 1955.74,-83 1945.74,-79.5 1945.74,-86.5"/>
</g>
<!-- 6158924496 -->
<g id="node19" class="node">
<title>6158924496</title>
<polygon fill="none" stroke="black" points="2166,-101 2046,-101 2046,-65 2166,-65 2166,-101"/>
<text text-anchor="middle" x="2106" y="-79.9" font-family="Times,serif" font-size="12.00">Update seat inventory</text>
</g>
<!-- 6157409168&#45;&gt;6158924496 -->
<g id="edge19" class="edge">
<title>6157409168&#45;&gt;6158924496</title>
<path fill="none" stroke="black" d="M2010.26,-83C2017.83,-83 2026.47,-83 2035.39,-83"/>
<polygon fill="black" stroke="black" points="2035.52,-86.5 2045.52,-83 2035.52,-79.5 2035.52,-86.5"/>
</g>
<!-- 6157414032 -->
<g id="node18" class="node">
<title>6157414032</title>
<polygon fill="none" stroke="black" points="1082,-78 1055,-60 1082,-42 1109,-60 1082,-78"/>
<text text-anchor="middle" x="1082" y="-56.9" font-family="Times,serif" font-size="12.00">X</text>
</g>
<!-- 6136630160&#45;&gt;6157414032 -->
<g id="edge20" class="edge">
<title>6136630160&#45;&gt;6157414032</title>
<path fill="none" stroke="black" d="M999.77,-68.37C1015.22,-66.78 1033.25,-64.92 1048.38,-63.36"/>
<polygon fill="black" stroke="black" points="1048.75,-66.84 1058.34,-62.33 1048.03,-59.88 1048.75,-66.84"/>
</g>
<!-- 6158900368&#45;&gt;6157414032 -->
<g id="edge21" class="edge">
<title>6158900368&#45;&gt;6157414032</title>
<path fill="none" stroke="black" d="M1014.58,-36.06C1028.22,-40.97 1042.48,-46.11 1054.26,-50.36"/>
<polygon fill="black" stroke="black" points="1053.32,-53.74 1063.91,-53.84 1055.69,-47.16 1053.32,-53.74"/>
</g>
<!-- 6158902224 -->
<g id="node21" class="node">
<title>6158902224</title>
<polygon fill="none" stroke="black" points="1172,-78 1145,-60 1172,-42 1199,-60 1172,-78"/>
<text text-anchor="middle" x="1172" y="-56.9" font-family="Times,serif" font-size="12.00">+</text>
</g>
<!-- 6157414032&#45;&gt;6158902224 -->
<g id="edge22" class="edge">
<title>6157414032&#45;&gt;6158902224</title>
<path fill="none" stroke="black" d="M1109.4,-60C1117.39,-60 1126.31,-60 1134.82,-60"/>
<polygon fill="black" stroke="black" points="1134.92,-63.5 1144.92,-60 1134.92,-56.5 1134.92,-63.5"/>
</g>
<!-- 6158748432 -->
<g id="node20" class="node">
<title>6158748432</title>
<polygon fill="none" stroke="black" points="2300,-101 2202,-101 2202,-65 2300,-65 2300,-101"/>
<text text-anchor="middle" x="2251" y="-79.9" font-family="Times,serif" font-size="12.00">Send instructions</text>
</g>
<!-- 6158924496&#45;&gt;6158748432 -->
<g id="edge23" class="edge">
<title>6158924496&#45;&gt;6158748432</title>
<path fill="none" stroke="black" d="M2166.4,-83C2174.8,-83 2183.43,-83 2191.81,-83"/>
<polygon fill="black" stroke="black" points="2191.87,-86.5 2201.87,-83 2191.87,-79.5 2191.87,-86.5"/>
</g>
<!-- 6157404176 -->
<g id="node24" class="node">
<title>6157404176</title>
<polygon fill="none" stroke="black" points="2422,-101 2336,-101 2336,-65 2422,-65 2422,-101"/>
<text text-anchor="middle" x="2379" y="-79.9" font-family="Times,serif" font-size="12.00">Send reminder</text>
</g>
<!-- 6158748432&#45;&gt;6157404176 -->
<g id="edge24" class="edge">
<title>6158748432&#45;&gt;6157404176</title>
<path fill="none" stroke="black" d="M2300.35,-83C2308.64,-83 2317.29,-83 2325.68,-83"/>
<polygon fill="black" stroke="black" points="2325.74,-86.5 2335.74,-83 2325.74,-79.5 2325.74,-86.5"/>
</g>
<!-- 6158033872 -->
<g id="node22" class="node">
<title>6158033872</title>
<polygon fill="none" stroke="black" points="1365,-101 1235,-101 1235,-65 1365,-65 1365,-101"/>
<text text-anchor="middle" x="1300" y="-79.9" font-family="Times,serif" font-size="12.00">Provide payment details</text>
</g>
<!-- 6158902224&#45;&gt;6158033872 -->
<g id="edge26" class="edge">
<title>6158902224&#45;&gt;6158033872</title>
<path fill="none" stroke="black" d="M1193.52,-63.75C1202.37,-65.36 1213.31,-67.36 1224.75,-69.45"/>
<polygon fill="black" stroke="black" points="1224.44,-72.95 1234.91,-71.3 1225.7,-66.06 1224.44,-72.95"/>
</g>
<!-- 6136642320 -->
<g id="node23" class="node">
<title>6136642320</title>
<polygon fill="none" stroke="black" points="1555,-55 1401,-55 1401,-19 1555,-19 1555,-55"/>
<text text-anchor="middle" x="1478" y="-33.9" font-family="Times,serif" font-size="12.00">Provide personal information</text>
</g>
<!-- 6158902224&#45;&gt;6136642320 -->
<g id="edge25" class="edge">
<title>6158902224&#45;&gt;6136642320</title>
<path fill="none" stroke="black" d="M1196.6,-58.21C1237.74,-55.1 1324.49,-48.54 1390.68,-43.53"/>
<polygon fill="black" stroke="black" points="1390.99,-47.02 1400.7,-42.77 1390.46,-40.04 1390.99,-47.02"/>
</g>
<!-- 6158033872&#45;&gt;6157418320 -->
<g id="edge27" class="edge">
<title>6158033872&#45;&gt;6157418320</title>
<path fill="none" stroke="black" d="M1365.04,-92.82C1392.53,-97.04 1423.4,-101.78 1445.75,-105.21"/>
<polygon fill="black" stroke="black" points="1445.26,-108.67 1455.68,-106.73 1446.33,-101.75 1445.26,-108.67"/>
</g>
<!-- 6136627856 -->
<g id="node26" class="node">
<title>6136627856</title>
<polygon fill="none" stroke="black" points="2875,-78 2848,-60 2875,-42 2902,-60 2875,-78"/>
<text text-anchor="middle" x="2875" y="-56.9" font-family="Times,serif" font-size="12.00">+</text>
</g>
<!-- 6136642320&#45;&gt;6136627856 -->
<g id="edge28" class="edge">
<title>6136642320&#45;&gt;6136627856</title>
<path fill="none" stroke="black" d="M1555.24,-37C1607.52,-37 1678.46,-37 1741,-37 1741,-37 1741,-37 2535,-37 2647.97,-37 2781.62,-49.87 2841.8,-56.36"/>
<polygon fill="black" stroke="black" points="2841.5,-59.84 2851.82,-57.45 2842.26,-52.89 2841.5,-59.84"/>
</g>
<!-- 6158426960 -->
<g id="node25" class="node">
<title>6158426960</title>
<polygon fill="none" stroke="black" points="2610,-101 2458,-101 2458,-65 2610,-65 2610,-101"/>
<text text-anchor="middle" x="2534" y="-79.9" font-family="Times,serif" font-size="12.00">Customer completes journey</text>
</g>
<!-- 6157404176&#45;&gt;6158426960 -->
<g id="edge29" class="edge">
<title>6157404176&#45;&gt;6158426960</title>
<path fill="none" stroke="black" d="M2422.21,-83C2430.25,-83 2438.92,-83 2447.74,-83"/>
<polygon fill="black" stroke="black" points="2447.75,-86.5 2457.75,-83 2447.75,-79.5 2447.75,-86.5"/>
</g>
<!-- 6158029456 -->
<g id="node27" class="node">
<title>6158029456</title>
<polygon fill="none" stroke="black" points="2812,-101 2646,-101 2646,-65 2812,-65 2812,-101"/>
<text text-anchor="middle" x="2729" y="-79.9" font-family="Times,serif" font-size="12.00">Post&#45;travel feedback or services</text>
</g>
<!-- 6158426960&#45;&gt;6158029456 -->
<g id="edge30" class="edge">
<title>6158426960&#45;&gt;6158029456</title>
<path fill="none" stroke="black" d="M2610.17,-83C2618.54,-83 2627.13,-83 2635.68,-83"/>
<polygon fill="black" stroke="black" points="2635.68,-86.5 2645.68,-83 2635.68,-79.5 2635.68,-86.5"/>
</g>
<!-- 6158872848 -->
<g id="node28" class="node">
<title>6158872848</title>
<ellipse fill="orange" stroke="black" cx="2956" cy="-60" rx="18" ry="18"/>
</g>
<!-- 6136627856&#45;&gt;6158872848 -->
<g id="edge31" class="edge">
<title>6136627856&#45;&gt;6158872848</title>
<path fill="none" stroke="black" d="M2902.31,-60C2910.42,-60 2919.37,-60 2927.56,-60"/>
<polygon fill="black" stroke="black" points="2927.75,-63.5 2937.75,-60 2927.75,-56.5 2927.75,-63.5"/>
</g>
<!-- 6158029456&#45;&gt;6136627856 -->
<g id="edge32" class="edge">
<title>6158029456&#45;&gt;6136627856</title>
<path fill="none" stroke="black" d="M2812.1,-69.89C2822.99,-68.15 2833.57,-66.46 2842.81,-64.98"/>
<polygon fill="black" stroke="black" points="2843.66,-68.39 2852.98,-63.36 2842.56,-61.48 2843.66,-68.39"/>
</g>
</g>
</svg>
