<?xml version="1.0" encoding="UTF-8" standalone="no"?>
<!DOCTYPE svg PUBLIC "-//W3C//DTD SVG 1.1//EN"
 "http://www.w3.org/Graphics/SVG/1.1/DTD/svg11.dtd">
<!-- Generated by graphviz version 2.50.0 (0)
 -->
<!-- Pages: 1 -->
<svg width="3430pt" height="144pt"
 viewBox="0.00 0.00 3430.00 144.00" xmlns="http://www.w3.org/2000/svg" xmlns:xlink="http://www.w3.org/1999/xlink">
<g id="graph0" class="graph" transform="scale(1 1) rotate(0) translate(4 140)">
<polygon fill="white" stroke="transparent" points="-4,4 -4,-140 3426,-140 3426,4 -4,4"/>
<!-- 6119885136 -->
<g id="node1" class="node">
<title>6119885136</title>
<ellipse fill="green" stroke="black" cx="18" cy="-91" rx="18" ry="18"/>
</g>
<!-- 6115618384 -->
<g id="node2" class="node">
<title>6115618384</title>
<polygon fill="none" stroke="black" points="222,-109 72,-109 72,-73 222,-73 222,-109"/>
<text text-anchor="middle" x="147" y="-87.9" font-family="Times,serif" font-size="12.00">Customer searches for ticket</text>
</g>
<!-- 6119885136&#45;&gt;6115618384 -->
<g id="edge1" class="edge">
<title>6119885136&#45;&gt;6115618384</title>
<path fill="none" stroke="black" d="M36.13,-91C43.26,-91 52.12,-91 61.68,-91"/>
<polygon fill="black" stroke="black" points="61.86,-94.5 71.86,-91 61.86,-87.5 61.86,-94.5"/>
</g>
<!-- 6119889488 -->
<g id="node3" class="node">
<title>6119889488</title>
<polygon fill="none" stroke="black" points="285,-109 258,-91 285,-73 312,-91 285,-109"/>
<text text-anchor="middle" x="285" y="-87.9" font-family="Times,serif" font-size="12.00">X</text>
</g>
<!-- 6115618384&#45;&gt;6119889488 -->
<g id="edge2" class="edge">
<title>6115618384&#45;&gt;6119889488</title>
<path fill="none" stroke="black" d="M222.37,-91C231.15,-91 239.79,-91 247.69,-91"/>
<polygon fill="black" stroke="black" points="247.96,-94.5 257.96,-91 247.96,-87.5 247.96,-94.5"/>
</g>
<!-- 6119887568 -->
<g id="node4" class="node">
<title>6119887568</title>
<polygon fill="none" stroke="black" points="483,-109 456,-91 483,-73 510,-91 483,-109"/>
<text text-anchor="middle" x="483" y="-87.9" font-family="Times,serif" font-size="12.00">X</text>
</g>
<!-- 6119889488&#45;&gt;6119887568 -->
<g id="edge3" class="edge">
<title>6119889488&#45;&gt;6119887568</title>
<path fill="none" stroke="black" d="M309.24,-92.86C320.87,-93.69 335.17,-94.59 348,-95 379.98,-96.03 388.02,-96.03 420,-95 429.32,-94.7 439.42,-94.15 448.7,-93.54"/>
<polygon fill="black" stroke="black" points="449.02,-97.03 458.76,-92.86 448.54,-90.05 449.02,-97.03"/>
</g>
<!-- 6119886160 -->
<g id="node5" class="node">
<title>6119886160</title>
<polygon fill="none" stroke="black" points="420,-86 348,-86 348,-50 420,-50 420,-86"/>
<text text-anchor="middle" x="384" y="-64.9" font-family="Times,serif" font-size="12.00">Select route</text>
</g>
<!-- 6119889488&#45;&gt;6119886160 -->
<g id="edge4" class="edge">
<title>6119889488&#45;&gt;6119886160</title>
<path fill="none" stroke="black" d="M305.63,-86.35C314.96,-84.13 326.54,-81.39 337.87,-78.7"/>
<polygon fill="black" stroke="black" points="338.78,-82.08 347.7,-76.37 337.16,-75.27 338.78,-82.08"/>
</g>
<!-- 6119889424 -->
<g id="node6" class="node">
<title>6119889424</title>
<polygon fill="none" stroke="black" points="573,-109 546,-91 573,-73 600,-91 573,-109"/>
<text text-anchor="middle" x="573" y="-87.9" font-family="Times,serif" font-size="12.00">X</text>
</g>
<!-- 6119887568&#45;&gt;6119889424 -->
<g id="edge6" class="edge">
<title>6119887568&#45;&gt;6119889424</title>
<path fill="none" stroke="black" d="M510.4,-91C518.39,-91 527.31,-91 535.82,-91"/>
<polygon fill="black" stroke="black" points="535.92,-94.5 545.92,-91 535.92,-87.5 535.92,-94.5"/>
</g>
<!-- 6119886160&#45;&gt;6119887568 -->
<g id="edge5" class="edge">
<title>6119886160&#45;&gt;6119887568</title>
<path fill="none" stroke="black" d="M420.02,-76.3C430.76,-78.85 442.47,-81.63 452.78,-84.07"/>
<polygon fill="black" stroke="black" points="452.01,-87.49 462.55,-86.39 453.62,-80.67 452.01,-87.49"/>
</g>
<!-- 6119891472 -->
<g id="node7" class="node">
<title>6119891472</title>
<polygon fill="none" stroke="black" points="810,-109 783,-91 810,-73 837,-91 810,-109"/>
<text text-anchor="middle" x="810" y="-87.9" font-family="Times,serif" font-size="12.00">X</text>
</g>
<!-- 6119889424&#45;&gt;6119891472 -->
<g id="edge7" class="edge">
<title>6119889424&#45;&gt;6119891472</title>
<path fill="none" stroke="black" d="M597.24,-92.86C608.87,-93.69 623.17,-94.59 636,-95 685.31,-96.59 697.69,-96.59 747,-95 756.32,-94.7 766.42,-94.15 775.7,-93.54"/>
<polygon fill="black" stroke="black" points="776.02,-97.03 785.76,-92.86 775.54,-90.05 776.02,-97.03"/>
</g>
<!-- 6119884048 -->
<g id="node8" class="node">
<title>6119884048</title>
<polygon fill="none" stroke="black" points="747,-86 636,-86 636,-50 747,-50 747,-86"/>
<text text-anchor="middle" x="691.5" y="-64.9" font-family="Times,serif" font-size="12.00">Select date and time</text>
</g>
<!-- 6119889424&#45;&gt;6119884048 -->
<g id="edge8" class="edge">
<title>6119889424&#45;&gt;6119884048</title>
<path fill="none" stroke="black" d="M594.29,-86.99C603.27,-85.22 614.37,-83.03 625.81,-80.77"/>
<polygon fill="black" stroke="black" points="626.77,-84.15 635.91,-78.78 625.42,-77.28 626.77,-84.15"/>
</g>
<!-- 6119890064 -->
<g id="node9" class="node">
<title>6119890064</title>
<polygon fill="none" stroke="black" points="900,-109 873,-91 900,-73 927,-91 900,-109"/>
<text text-anchor="middle" x="900" y="-87.9" font-family="Times,serif" font-size="12.00">X</text>
</g>
<!-- 6119891472&#45;&gt;6119890064 -->
<g id="edge10" class="edge">
<title>6119891472&#45;&gt;6119890064</title>
<path fill="none" stroke="black" d="M837.4,-91C845.39,-91 854.31,-91 862.82,-91"/>
<polygon fill="black" stroke="black" points="862.92,-94.5 872.92,-91 862.92,-87.5 862.92,-94.5"/>
</g>
<!-- 6119884048&#45;&gt;6119891472 -->
<g id="edge9" class="edge">
<title>6119884048&#45;&gt;6119891472</title>
<path fill="none" stroke="black" d="M747.34,-78.83C758.17,-80.97 769.17,-83.14 778.81,-85.04"/>
<polygon fill="black" stroke="black" points="778.19,-88.48 788.68,-86.99 779.54,-81.62 778.19,-88.48"/>
</g>
<!-- 6119898000 -->
<g id="node10" class="node">
<title>6119898000</title>
<polygon fill="none" stroke="black" points="1180,-109 1153,-91 1180,-73 1207,-91 1180,-109"/>
<text text-anchor="middle" x="1180" y="-87.9" font-family="Times,serif" font-size="12.00">X</text>
</g>
<!-- 6119890064&#45;&gt;6119898000 -->
<g id="edge11" class="edge">
<title>6119890064&#45;&gt;6119898000</title>
<path fill="none" stroke="black" d="M924.24,-92.86C935.87,-93.69 950.17,-94.59 963,-95 1031.41,-97.2 1048.59,-97.2 1117,-95 1126.32,-94.7 1136.42,-94.15 1145.7,-93.54"/>
<polygon fill="black" stroke="black" points="1146.02,-97.03 1155.76,-92.86 1145.54,-90.05 1146.02,-97.03"/>
</g>
<!-- 6115621904 -->
<g id="node11" class="node">
<title>6115621904</title>
<polygon fill="none" stroke="black" points="1117,-86 963,-86 963,-50 1117,-50 1117,-86"/>
<text text-anchor="middle" x="1040" y="-64.9" font-family="Times,serif" font-size="12.00">Provide personal information</text>
</g>
<!-- 6119890064&#45;&gt;6115621904 -->
<g id="edge12" class="edge">
<title>6119890064&#45;&gt;6115621904</title>
<path fill="none" stroke="black" d="M921.96,-87.51C930.65,-86.06 941.36,-84.27 952.73,-82.38"/>
<polygon fill="black" stroke="black" points="953.58,-85.79 962.87,-80.69 952.43,-78.88 953.58,-85.79"/>
</g>
<!-- 6115620304 -->
<g id="node12" class="node">
<title>6115620304</title>
<polygon fill="none" stroke="black" points="1329,-109 1243,-109 1243,-73 1329,-73 1329,-109"/>
<text text-anchor="middle" x="1286" y="-87.9" font-family="Times,serif" font-size="12.00">Send reminder</text>
</g>
<!-- 6119898000&#45;&gt;6115620304 -->
<g id="edge14" class="edge">
<title>6119898000&#45;&gt;6115620304</title>
<path fill="none" stroke="black" d="M1207.24,-91C1215.11,-91 1224.04,-91 1232.96,-91"/>
<polygon fill="black" stroke="black" points="1232.98,-94.5 1242.98,-91 1232.98,-87.5 1232.98,-94.5"/>
</g>
<!-- 6115621904&#45;&gt;6119898000 -->
<g id="edge13" class="edge">
<title>6115621904&#45;&gt;6119898000</title>
<path fill="none" stroke="black" d="M1117.27,-80.71C1128.23,-82.54 1138.94,-84.32 1148.28,-85.88"/>
<polygon fill="black" stroke="black" points="1147.75,-89.34 1158.19,-87.53 1148.9,-82.43 1147.75,-89.34"/>
</g>
<!-- 6119887248 -->
<g id="node13" class="node">
<title>6119887248</title>
<polygon fill="none" stroke="black" points="1392,-109 1365,-91 1392,-73 1419,-91 1392,-109"/>
<text text-anchor="middle" x="1392" y="-87.9" font-family="Times,serif" font-size="12.00">X</text>
</g>
<!-- 6115620304&#45;&gt;6119887248 -->
<g id="edge15" class="edge">
<title>6115620304&#45;&gt;6119887248</title>
<path fill="none" stroke="black" d="M1329,-91C1337.48,-91 1346.34,-91 1354.61,-91"/>
<polygon fill="black" stroke="black" points="1354.7,-94.5 1364.7,-91 1354.7,-87.5 1354.7,-94.5"/>
</g>
<!-- 6119890192 -->
<g id="node14" class="node">
<title>6119890192</title>
<polygon fill="none" stroke="black" points="1672,-109 1645,-91 1672,-73 1699,-91 1672,-109"/>
<text text-anchor="middle" x="1672" y="-87.9" font-family="Times,serif" font-size="12.00">X</text>
</g>
<!-- 6119887248&#45;&gt;6119890192 -->
<g id="edge16" class="edge">
<title>6119887248&#45;&gt;6119890192</title>
<path fill="none" stroke="black" d="M1416.24,-92.86C1427.87,-93.69 1442.17,-94.59 1455,-95 1523.41,-97.2 1540.59,-97.2 1609,-95 1618.32,-94.7 1628.42,-94.15 1637.7,-93.54"/>
<polygon fill="black" stroke="black" points="1638.02,-97.03 1647.76,-92.86 1637.54,-90.05 1638.02,-97.03"/>
</g>
<!-- 6117710160 -->
<g id="node15" class="node">
<title>6117710160</title>
<polygon fill="none" stroke="black" points="1609,-86 1455,-86 1455,-50 1609,-50 1609,-86"/>
<text text-anchor="middle" x="1532" y="-64.9" font-family="Times,serif" font-size="12.00">Provide personal information</text>
</g>
<!-- 6119887248&#45;&gt;6117710160 -->
<g id="edge17" class="edge">
<title>6119887248&#45;&gt;6117710160</title>
<path fill="none" stroke="black" d="M1413.96,-87.51C1422.65,-86.06 1433.36,-84.27 1444.73,-82.38"/>
<polygon fill="black" stroke="black" points="1445.58,-85.79 1454.87,-80.69 1444.43,-78.88 1445.58,-85.79"/>
</g>
<!-- 6119888848 -->
<g id="node16" class="node">
<title>6119888848</title>
<polygon fill="none" stroke="black" points="1762,-109 1735,-91 1762,-73 1789,-91 1762,-109"/>
<text text-anchor="middle" x="1762" y="-87.9" font-family="Times,serif" font-size="12.00">X</text>
</g>
<!-- 6119890192&#45;&gt;6119888848 -->
<g id="edge19" class="edge">
<title>6119890192&#45;&gt;6119888848</title>
<path fill="none" stroke="black" d="M1699.4,-91C1707.39,-91 1716.31,-91 1724.82,-91"/>
<polygon fill="black" stroke="black" points="1724.92,-94.5 1734.92,-91 1724.92,-87.5 1724.92,-94.5"/>
</g>
<!-- 6117710160&#45;&gt;6119890192 -->
<g id="edge18" class="edge">
<title>6117710160&#45;&gt;6119890192</title>
<path fill="none" stroke="black" d="M1609.27,-80.71C1620.23,-82.54 1630.94,-84.32 1640.28,-85.88"/>
<polygon fill="black" stroke="black" points="1639.75,-89.34 1650.19,-87.53 1640.9,-82.43 1639.75,-89.34"/>
</g>
<!-- 6119898704 -->
<g id="node17" class="node">
<title>6119898704</title>
<polygon fill="none" stroke="black" points="2018,-109 1991,-91 2018,-73 2045,-91 2018,-109"/>
<text text-anchor="middle" x="2018" y="-87.9" font-family="Times,serif" font-size="12.00">X</text>
</g>
<!-- 6119888848&#45;&gt;6119898704 -->
<g id="edge21" class="edge">
<title>6119888848&#45;&gt;6119898704</title>
<path fill="none" stroke="black" d="M1786.24,-92.86C1797.87,-93.69 1812.17,-94.59 1825,-95 1882.75,-96.86 1897.25,-96.86 1955,-95 1964.32,-94.7 1974.42,-94.15 1983.7,-93.54"/>
<polygon fill="black" stroke="black" points="1984.02,-97.03 1993.76,-92.86 1983.54,-90.05 1984.02,-97.03"/>
</g>
<!-- 6120073744 -->
<g id="node18" class="node">
<title>6120073744</title>
<polygon fill="none" stroke="black" points="1955,-86 1825,-86 1825,-50 1955,-50 1955,-86"/>
<text text-anchor="middle" x="1890" y="-64.9" font-family="Times,serif" font-size="12.00">Provide payment details</text>
</g>
<!-- 6119888848&#45;&gt;6120073744 -->
<g id="edge20" class="edge">
<title>6119888848&#45;&gt;6120073744</title>
<path fill="none" stroke="black" d="M1783.52,-87.25C1792.37,-85.64 1803.31,-83.64 1814.75,-81.55"/>
<polygon fill="black" stroke="black" points="1815.7,-84.94 1824.91,-79.7 1814.44,-78.05 1815.7,-84.94"/>
</g>
<!-- 6120076304 -->
<g id="node19" class="node">
<title>6120076304</title>
<polygon fill="none" stroke="black" points="2169,-109 2081,-109 2081,-73 2169,-73 2169,-109"/>
<text text-anchor="middle" x="2125" y="-87.9" font-family="Times,serif" font-size="12.00">Generate ticket</text>
</g>
<!-- 6119898704&#45;&gt;6120076304 -->
<g id="edge23" class="edge">
<title>6119898704&#45;&gt;6120076304</title>
<path fill="none" stroke="black" d="M2045.23,-91C2053.08,-91 2061.99,-91 2070.93,-91"/>
<polygon fill="black" stroke="black" points="2070.97,-94.5 2080.97,-91 2070.97,-87.5 2070.97,-94.5"/>
</g>
<!-- 6120073744&#45;&gt;6119898704 -->
<g id="edge22" class="edge">
<title>6120073744&#45;&gt;6119898704</title>
<path fill="none" stroke="black" d="M1955.11,-79.7C1965.97,-81.69 1976.8,-83.66 1986.28,-85.39"/>
<polygon fill="black" stroke="black" points="1985.89,-88.88 1996.35,-87.23 1987.14,-81.99 1985.89,-88.88"/>
</g>
<!-- 6120075408 -->
<g id="node20" class="node">
<title>6120075408</title>
<polygon fill="none" stroke="black" points="2232,-109 2205,-91 2232,-73 2259,-91 2232,-109"/>
<text text-anchor="middle" x="2232" y="-87.9" font-family="Times,serif" font-size="12.00">+</text>
</g>
<!-- 6120076304&#45;&gt;6120075408 -->
<g id="edge24" class="edge">
<title>6120076304&#45;&gt;6120075408</title>
<path fill="none" stroke="black" d="M2169.01,-91C2177.53,-91 2186.4,-91 2194.67,-91"/>
<polygon fill="black" stroke="black" points="2194.76,-94.5 2204.76,-91 2194.76,-87.5 2194.76,-94.5"/>
</g>
<!-- 6122089168 -->
<g id="node21" class="node">
<title>6122089168</title>
<polygon fill="none" stroke="black" points="2539,-136 2419,-136 2419,-100 2539,-100 2539,-136"/>
<text text-anchor="middle" x="2479" y="-114.9" font-family="Times,serif" font-size="12.00">Update seat inventory</text>
</g>
<!-- 6120075408&#45;&gt;6122089168 -->
<g id="edge26" class="edge">
<title>6120075408&#45;&gt;6122089168</title>
<path fill="none" stroke="black" d="M2255.61,-93.49C2290.09,-97.29 2357.25,-104.69 2408.78,-110.37"/>
<polygon fill="black" stroke="black" points="2408.54,-113.87 2418.87,-111.48 2409.31,-106.91 2408.54,-113.87"/>
</g>
<!-- 6120075344 -->
<g id="node22" class="node">
<title>6120075344</title>
<polygon fill="none" stroke="black" points="2383,-86 2295,-86 2295,-50 2383,-50 2383,-86"/>
<text text-anchor="middle" x="2339" y="-64.9" font-family="Times,serif" font-size="12.00">Generate ticket</text>
</g>
<!-- 6120075408&#45;&gt;6120075344 -->
<g id="edge25" class="edge">
<title>6120075408&#45;&gt;6120075344</title>
<path fill="none" stroke="black" d="M2252.75,-86.67C2261.94,-84.66 2273.36,-82.16 2284.82,-79.65"/>
<polygon fill="black" stroke="black" points="2285.83,-83.01 2294.85,-77.45 2284.33,-76.17 2285.83,-83.01"/>
</g>
<!-- 6119895824 -->
<g id="node23" class="node">
<title>6119895824</title>
<polygon fill="none" stroke="black" points="2753,-90 2726,-72 2753,-54 2780,-72 2753,-90"/>
<text text-anchor="middle" x="2753" y="-68.9" font-family="Times,serif" font-size="12.00">+</text>
</g>
<!-- 6122089168&#45;&gt;6119895824 -->
<g id="edge27" class="edge">
<title>6122089168&#45;&gt;6119895824</title>
<path fill="none" stroke="black" d="M2539.24,-117.67C2581.78,-116.23 2640.17,-111.75 2690,-99 2703.2,-95.62 2717.16,-89.76 2728.5,-84.36"/>
<polygon fill="black" stroke="black" points="2730.28,-87.38 2737.69,-79.81 2727.17,-81.11 2730.28,-87.38"/>
</g>
<!-- 6120078288 -->
<g id="node24" class="node">
<title>6120078288</title>
<polygon fill="none" stroke="black" points="2479,-82 2452,-64 2479,-46 2506,-64 2479,-82"/>
<text text-anchor="middle" x="2479" y="-60.9" font-family="Times,serif" font-size="12.00">+</text>
</g>
<!-- 6120075344&#45;&gt;6120078288 -->
<g id="edge28" class="edge">
<title>6120075344&#45;&gt;6120078288</title>
<path fill="none" stroke="black" d="M2383.29,-66.75C2402.45,-66.19 2424.7,-65.55 2442.82,-65.02"/>
<polygon fill="black" stroke="black" points="2443.06,-68.51 2452.95,-64.73 2442.85,-61.52 2443.06,-68.51"/>
</g>
<!-- 6119897808 -->
<g id="node25" class="node">
<title>6119897808</title>
<polygon fill="none" stroke="black" points="2843,-90 2816,-72 2843,-54 2870,-72 2843,-90"/>
<text text-anchor="middle" x="2843" y="-68.9" font-family="Times,serif" font-size="12.00">X</text>
</g>
<!-- 6119895824&#45;&gt;6119897808 -->
<g id="edge29" class="edge">
<title>6119895824&#45;&gt;6119897808</title>
<path fill="none" stroke="black" d="M2780.4,-72C2788.39,-72 2797.31,-72 2805.82,-72"/>
<polygon fill="black" stroke="black" points="2805.92,-75.5 2815.92,-72 2805.92,-68.5 2805.92,-75.5"/>
</g>
<!-- 6115616976 -->
<g id="node26" class="node">
<title>6115616976</title>
<polygon fill="none" stroke="black" points="2690,-90 2575,-90 2575,-54 2690,-54 2690,-90"/>
<text text-anchor="middle" x="2632.5" y="-68.9" font-family="Times,serif" font-size="12.00">Send ticket via email</text>
</g>
<!-- 6120078288&#45;&gt;6115616976 -->
<g id="edge30" class="edge">
<title>6120078288&#45;&gt;6115616976</title>
<path fill="none" stroke="black" d="M2504.34,-65.29C2520.73,-66.15 2543.2,-67.34 2564.7,-68.47"/>
<polygon fill="black" stroke="black" points="2564.64,-71.97 2574.81,-69.01 2565.01,-64.98 2564.64,-71.97"/>
</g>
<!-- 6115618256 -->
<g id="node27" class="node">
<title>6115618256</title>
<polygon fill="none" stroke="black" points="2689,-36 2576,-36 2576,0 2689,0 2689,-36"/>
<text text-anchor="middle" x="2632.5" y="-14.9" font-family="Times,serif" font-size="12.00">Send ticket via SMS</text>
</g>
<!-- 6120078288&#45;&gt;6115618256 -->
<g id="edge31" class="edge">
<title>6120078288&#45;&gt;6115618256</title>
<path fill="none" stroke="black" d="M2497.97,-58.54C2514.86,-53.42 2541.17,-45.43 2565.99,-37.89"/>
<polygon fill="black" stroke="black" points="2567.21,-41.18 2575.77,-34.92 2565.18,-34.48 2567.21,-41.18"/>
</g>
<!-- 6119895888 -->
<g id="node28" class="node">
<title>6119895888</title>
<polygon fill="none" stroke="black" points="3031,-117 2933,-117 2933,-81 3031,-81 3031,-117"/>
<text text-anchor="middle" x="2982" y="-95.9" font-family="Times,serif" font-size="12.00">Send instructions</text>
</g>
<!-- 6119897808&#45;&gt;6119895888 -->
<g id="edge35" class="edge">
<title>6119897808&#45;&gt;6119895888</title>
<path fill="none" stroke="black" d="M2864.21,-75.98C2879.76,-79.05 2902.07,-83.44 2923.03,-87.57"/>
<polygon fill="black" stroke="black" points="2922.36,-91.01 2932.85,-89.51 2923.71,-84.14 2922.36,-91.01"/>
</g>
<!-- 6115615312 -->
<g id="node29" class="node">
<title>6115615312</title>
<polygon fill="none" stroke="black" points="3058,-63 2906,-63 2906,-27 3058,-27 3058,-63"/>
<text text-anchor="middle" x="2982" y="-41.9" font-family="Times,serif" font-size="12.00">Customer completes journey</text>
</g>
<!-- 6119897808&#45;&gt;6115615312 -->
<g id="edge34" class="edge">
<title>6119897808&#45;&gt;6115615312</title>
<path fill="none" stroke="black" d="M2864.21,-68.02C2873.05,-66.27 2884.07,-64.1 2895.79,-61.79"/>
<polygon fill="black" stroke="black" points="2896.63,-65.2 2905.76,-59.83 2895.27,-58.33 2896.63,-65.2"/>
</g>
<!-- 6115616976&#45;&gt;6119895824 -->
<g id="edge32" class="edge">
<title>6115616976&#45;&gt;6119895824</title>
<path fill="none" stroke="black" d="M2690.32,-72C2698.99,-72 2707.74,-72 2715.8,-72"/>
<polygon fill="black" stroke="black" points="2715.96,-75.5 2725.96,-72 2715.96,-68.5 2715.96,-75.5"/>
</g>
<!-- 6115618256&#45;&gt;6119895824 -->
<g id="edge33" class="edge">
<title>6115618256&#45;&gt;6119895824</title>
<path fill="none" stroke="black" d="M2673.29,-36.13C2691.05,-44.22 2711.43,-53.51 2727.01,-60.61"/>
<polygon fill="black" stroke="black" points="2725.92,-63.96 2736.47,-64.92 2728.82,-57.59 2725.92,-63.96"/>
</g>
<!-- 6119891856 -->
<g id="node30" class="node">
<title>6119891856</title>
<polygon fill="none" stroke="black" points="3121,-90 3094,-72 3121,-54 3148,-72 3121,-90"/>
<text text-anchor="middle" x="3121" y="-68.9" font-family="Times,serif" font-size="12.00">X</text>
</g>
<!-- 6119895888&#45;&gt;6119891856 -->
<g id="edge36" class="edge">
<title>6119895888&#45;&gt;6119891856</title>
<path fill="none" stroke="black" d="M3031.3,-89.48C3050.82,-85.63 3072.75,-81.31 3089.92,-77.93"/>
<polygon fill="black" stroke="black" points="3090.79,-81.32 3099.93,-75.96 3089.44,-74.46 3090.79,-81.32"/>
</g>
<!-- 6115615312&#45;&gt;6119891856 -->
<g id="edge37" class="edge">
<title>6115615312&#45;&gt;6119891856</title>
<path fill="none" stroke="black" d="M3058.31,-59.84C3069.43,-62.03 3080.3,-64.18 3089.74,-66.04"/>
<polygon fill="black" stroke="black" points="3089.25,-69.51 3099.74,-68.01 3090.6,-62.64 3089.25,-69.51"/>
</g>
<!-- 6115426832 -->
<g id="node31" class="node">
<title>6115426832</title>
<polygon fill="none" stroke="black" points="3350,-90 3184,-90 3184,-54 3350,-54 3350,-90"/>
<text text-anchor="middle" x="3267" y="-68.9" font-family="Times,serif" font-size="12.00">Post&#45;travel feedback or services</text>
</g>
<!-- 6119891856&#45;&gt;6115426832 -->
<g id="edge38" class="edge">
<title>6119891856&#45;&gt;6115426832</title>
<path fill="none" stroke="black" d="M3148.08,-72C3155.64,-72 3164.35,-72 3173.56,-72"/>
<polygon fill="black" stroke="black" points="3173.7,-75.5 3183.7,-72 3173.7,-68.5 3173.7,-75.5"/>
</g>
<!-- 6115491344 -->
<g id="node32" class="node">
<title>6115491344</title>
<ellipse fill="orange" stroke="black" cx="3404" cy="-72" rx="18" ry="18"/>
</g>
<!-- 6115426832&#45;&gt;6115491344 -->
<g id="edge39" class="edge">
<title>6115426832&#45;&gt;6115491344</title>
<path fill="none" stroke="black" d="M3350.03,-72C3359.19,-72 3367.97,-72 3375.66,-72"/>
<polygon fill="black" stroke="black" points="3375.73,-75.5 3385.73,-72 3375.73,-68.5 3375.73,-75.5"/>
</g>
</g>
</svg>
