<?xml version="1.0" encoding="UTF-8" standalone="no"?>
<!DOCTYPE svg PUBLIC "-//W3C//DTD SVG 1.1//EN"
 "http://www.w3.org/Graphics/SVG/1.1/DTD/svg11.dtd">
<!-- Generated by graphviz version 2.50.0 (0)
 -->
<!-- Pages: 1 -->
<svg width="4806pt" height="153pt"
 viewBox="0.00 0.00 4806.00 153.00" xmlns="http://www.w3.org/2000/svg" xmlns:xlink="http://www.w3.org/1999/xlink">
<g id="graph0" class="graph" transform="scale(1 1) rotate(0) translate(4 149)">
<polygon fill="white" stroke="transparent" points="-4,4 -4,-149 4802,-149 4802,4 -4,4"/>
<!-- 6117709392 -->
<g id="node1" class="node">
<title>6117709392</title>
<ellipse fill="green" stroke="black" cx="18" cy="-89" rx="18" ry="18"/>
</g>
<!-- 6117761296 -->
<g id="node2" class="node">
<title>6117761296</title>
<polygon fill="none" stroke="black" points="222,-107 72,-107 72,-71 222,-71 222,-107"/>
<text text-anchor="middle" x="147" y="-85.9" font-family="Times,serif" font-size="12.00">Customer searches for ticket</text>
</g>
<!-- 6117709392&#45;&gt;6117761296 -->
<g id="edge1" class="edge">
<title>6117709392&#45;&gt;6117761296</title>
<path fill="none" stroke="black" d="M36.13,-89C43.26,-89 52.12,-89 61.68,-89"/>
<polygon fill="black" stroke="black" points="61.86,-92.5 71.86,-89 61.86,-85.5 61.86,-92.5"/>
</g>
<!-- 6117716944 -->
<g id="node3" class="node">
<title>6117716944</title>
<polygon fill="none" stroke="black" points="285,-107 258,-89 285,-71 312,-89 285,-107"/>
<text text-anchor="middle" x="285" y="-85.9" font-family="Times,serif" font-size="12.00">X</text>
</g>
<!-- 6117761296&#45;&gt;6117716944 -->
<g id="edge2" class="edge">
<title>6117761296&#45;&gt;6117716944</title>
<path fill="none" stroke="black" d="M222.37,-89C231.15,-89 239.79,-89 247.69,-89"/>
<polygon fill="black" stroke="black" points="247.96,-92.5 257.96,-89 247.96,-85.5 247.96,-92.5"/>
</g>
<!-- 6117712016 -->
<g id="node4" class="node">
<title>6117712016</title>
<polygon fill="none" stroke="black" points="483,-107 456,-89 483,-71 510,-89 483,-107"/>
<text text-anchor="middle" x="483" y="-85.9" font-family="Times,serif" font-size="12.00">X</text>
</g>
<!-- 6117716944&#45;&gt;6117712016 -->
<g id="edge3" class="edge">
<title>6117716944&#45;&gt;6117712016</title>
<path fill="none" stroke="black" d="M309.24,-90.86C320.87,-91.69 335.17,-92.59 348,-93 379.98,-94.03 388.02,-94.03 420,-93 429.32,-92.7 439.42,-92.15 448.7,-91.54"/>
<polygon fill="black" stroke="black" points="449.02,-95.03 458.76,-90.86 448.54,-88.05 449.02,-95.03"/>
</g>
<!-- 6122142928 -->
<g id="node5" class="node">
<title>6122142928</title>
<polygon fill="none" stroke="black" points="420,-84 348,-84 348,-48 420,-48 420,-84"/>
<text text-anchor="middle" x="384" y="-62.9" font-family="Times,serif" font-size="12.00">Select route</text>
</g>
<!-- 6117716944&#45;&gt;6122142928 -->
<g id="edge4" class="edge">
<title>6117716944&#45;&gt;6122142928</title>
<path fill="none" stroke="black" d="M305.63,-84.35C314.96,-82.13 326.54,-79.39 337.87,-76.7"/>
<polygon fill="black" stroke="black" points="338.78,-80.08 347.7,-74.37 337.16,-73.27 338.78,-80.08"/>
</g>
<!-- 6122132368 -->
<g id="node6" class="node">
<title>6122132368</title>
<polygon fill="none" stroke="black" points="696,-107 546,-107 546,-71 696,-71 696,-107"/>
<text text-anchor="middle" x="621" y="-85.9" font-family="Times,serif" font-size="12.00">Customer searches for ticket</text>
</g>
<!-- 6117712016&#45;&gt;6122132368 -->
<g id="edge6" class="edge">
<title>6117712016&#45;&gt;6122132368</title>
<path fill="none" stroke="black" d="M510.22,-89C517.82,-89 526.55,-89 535.7,-89"/>
<polygon fill="black" stroke="black" points="535.76,-92.5 545.76,-89 535.76,-85.5 535.76,-92.5"/>
</g>
<!-- 6122142928&#45;&gt;6117712016 -->
<g id="edge5" class="edge">
<title>6122142928&#45;&gt;6117712016</title>
<path fill="none" stroke="black" d="M420.02,-74.3C430.76,-76.85 442.47,-79.63 452.78,-82.07"/>
<polygon fill="black" stroke="black" points="452.01,-85.49 462.55,-84.39 453.62,-78.67 452.01,-85.49"/>
</g>
<!-- 6122135184 -->
<g id="node7" class="node">
<title>6122135184</title>
<polygon fill="none" stroke="black" points="882,-107 732,-107 732,-71 882,-71 882,-107"/>
<text text-anchor="middle" x="807" y="-85.9" font-family="Times,serif" font-size="12.00">Customer searches for ticket</text>
</g>
<!-- 6122132368&#45;&gt;6122135184 -->
<g id="edge7" class="edge">
<title>6122132368&#45;&gt;6122135184</title>
<path fill="none" stroke="black" d="M696.04,-89C704.51,-89 713.19,-89 721.78,-89"/>
<polygon fill="black" stroke="black" points="721.81,-92.5 731.81,-89 721.81,-85.5 721.81,-92.5"/>
</g>
<!-- 6117719312 -->
<g id="node8" class="node">
<title>6117719312</title>
<polygon fill="none" stroke="black" points="945,-107 918,-89 945,-71 972,-89 945,-107"/>
<text text-anchor="middle" x="945" y="-85.9" font-family="Times,serif" font-size="12.00">X</text>
</g>
<!-- 6122135184&#45;&gt;6117719312 -->
<g id="edge8" class="edge">
<title>6122135184&#45;&gt;6117719312</title>
<path fill="none" stroke="black" d="M882.37,-89C891.15,-89 899.79,-89 907.69,-89"/>
<polygon fill="black" stroke="black" points="907.96,-92.5 917.96,-89 907.96,-85.5 907.96,-92.5"/>
</g>
<!-- 6117713168 -->
<g id="node9" class="node">
<title>6117713168</title>
<polygon fill="none" stroke="black" points="1143,-107 1116,-89 1143,-71 1170,-89 1143,-107"/>
<text text-anchor="middle" x="1143" y="-85.9" font-family="Times,serif" font-size="12.00">X</text>
</g>
<!-- 6117719312&#45;&gt;6117713168 -->
<g id="edge10" class="edge">
<title>6117719312&#45;&gt;6117713168</title>
<path fill="none" stroke="black" d="M969.24,-90.86C980.87,-91.69 995.17,-92.59 1008,-93 1039.98,-94.03 1048.02,-94.03 1080,-93 1089.32,-92.7 1099.42,-92.15 1108.7,-91.54"/>
<polygon fill="black" stroke="black" points="1109.02,-95.03 1118.76,-90.86 1108.54,-88.05 1109.02,-95.03"/>
</g>
<!-- 6122139344 -->
<g id="node10" class="node">
<title>6122139344</title>
<polygon fill="none" stroke="black" points="1080,-84 1008,-84 1008,-48 1080,-48 1080,-84"/>
<text text-anchor="middle" x="1044" y="-62.9" font-family="Times,serif" font-size="12.00">Select route</text>
</g>
<!-- 6117719312&#45;&gt;6122139344 -->
<g id="edge9" class="edge">
<title>6117719312&#45;&gt;6122139344</title>
<path fill="none" stroke="black" d="M965.63,-84.35C974.96,-82.13 986.54,-79.39 997.87,-76.7"/>
<polygon fill="black" stroke="black" points="998.78,-80.08 1007.7,-74.37 997.16,-73.27 998.78,-80.08"/>
</g>
<!-- 6118312208 -->
<g id="node11" class="node">
<title>6118312208</title>
<polygon fill="none" stroke="black" points="1317,-107 1206,-107 1206,-71 1317,-71 1317,-107"/>
<text text-anchor="middle" x="1261.5" y="-85.9" font-family="Times,serif" font-size="12.00">Select date and time</text>
</g>
<!-- 6117713168&#45;&gt;6118312208 -->
<g id="edge12" class="edge">
<title>6117713168&#45;&gt;6118312208</title>
<path fill="none" stroke="black" d="M1170.14,-89C1177.85,-89 1186.64,-89 1195.64,-89"/>
<polygon fill="black" stroke="black" points="1195.85,-92.5 1205.85,-89 1195.85,-85.5 1195.85,-92.5"/>
</g>
<!-- 6122139344&#45;&gt;6117713168 -->
<g id="edge11" class="edge">
<title>6122139344&#45;&gt;6117713168</title>
<path fill="none" stroke="black" d="M1080.02,-74.3C1090.76,-76.85 1102.47,-79.63 1112.78,-82.07"/>
<polygon fill="black" stroke="black" points="1112.01,-85.49 1122.55,-84.39 1113.62,-78.67 1112.01,-85.49"/>
</g>
<!-- 6117760592 -->
<g id="node12" class="node">
<title>6117760592</title>
<polygon fill="none" stroke="black" points="1503,-107 1353,-107 1353,-71 1503,-71 1503,-107"/>
<text text-anchor="middle" x="1428" y="-85.9" font-family="Times,serif" font-size="12.00">Customer searches for ticket</text>
</g>
<!-- 6118312208&#45;&gt;6117760592 -->
<g id="edge13" class="edge">
<title>6118312208&#45;&gt;6117760592</title>
<path fill="none" stroke="black" d="M1317.28,-89C1325.47,-89 1334.08,-89 1342.72,-89"/>
<polygon fill="black" stroke="black" points="1342.84,-92.5 1352.84,-89 1342.84,-85.5 1342.84,-92.5"/>
</g>
<!-- 6122135952 -->
<g id="node13" class="node">
<title>6122135952</title>
<polygon fill="none" stroke="black" points="1689,-107 1539,-107 1539,-71 1689,-71 1689,-107"/>
<text text-anchor="middle" x="1614" y="-85.9" font-family="Times,serif" font-size="12.00">Customer searches for ticket</text>
</g>
<!-- 6117760592&#45;&gt;6122135952 -->
<g id="edge14" class="edge">
<title>6117760592&#45;&gt;6122135952</title>
<path fill="none" stroke="black" d="M1503.04,-89C1511.51,-89 1520.19,-89 1528.78,-89"/>
<polygon fill="black" stroke="black" points="1528.81,-92.5 1538.81,-89 1528.81,-85.5 1528.81,-92.5"/>
</g>
<!-- 6117711184 -->
<g id="node14" class="node">
<title>6117711184</title>
<polygon fill="none" stroke="black" points="1752,-107 1725,-89 1752,-71 1779,-89 1752,-107"/>
<text text-anchor="middle" x="1752" y="-85.9" font-family="Times,serif" font-size="12.00">X</text>
</g>
<!-- 6122135952&#45;&gt;6117711184 -->
<g id="edge15" class="edge">
<title>6122135952&#45;&gt;6117711184</title>
<path fill="none" stroke="black" d="M1689.37,-89C1698.15,-89 1706.79,-89 1714.69,-89"/>
<polygon fill="black" stroke="black" points="1714.96,-92.5 1724.96,-89 1714.96,-85.5 1714.96,-92.5"/>
</g>
<!-- 6117718736 -->
<g id="node15" class="node">
<title>6117718736</title>
<polygon fill="none" stroke="black" points="1950,-107 1923,-89 1950,-71 1977,-89 1950,-107"/>
<text text-anchor="middle" x="1950" y="-85.9" font-family="Times,serif" font-size="12.00">X</text>
</g>
<!-- 6117711184&#45;&gt;6117718736 -->
<g id="edge17" class="edge">
<title>6117711184&#45;&gt;6117718736</title>
<path fill="none" stroke="black" d="M1776.24,-90.86C1787.87,-91.69 1802.17,-92.59 1815,-93 1846.98,-94.03 1855.02,-94.03 1887,-93 1896.32,-92.7 1906.42,-92.15 1915.7,-91.54"/>
<polygon fill="black" stroke="black" points="1916.02,-95.03 1925.76,-90.86 1915.54,-88.05 1916.02,-95.03"/>
</g>
<!-- 6118389328 -->
<g id="node16" class="node">
<title>6118389328</title>
<polygon fill="none" stroke="black" points="1887,-84 1815,-84 1815,-48 1887,-48 1887,-84"/>
<text text-anchor="middle" x="1851" y="-62.9" font-family="Times,serif" font-size="12.00">Select route</text>
</g>
<!-- 6117711184&#45;&gt;6118389328 -->
<g id="edge16" class="edge">
<title>6117711184&#45;&gt;6118389328</title>
<path fill="none" stroke="black" d="M1772.63,-84.35C1781.96,-82.13 1793.54,-79.39 1804.87,-76.7"/>
<polygon fill="black" stroke="black" points="1805.78,-80.08 1814.7,-74.37 1804.16,-73.27 1805.78,-80.08"/>
</g>
<!-- 6117749776 -->
<g id="node17" class="node">
<title>6117749776</title>
<polygon fill="none" stroke="black" points="2124,-107 2013,-107 2013,-71 2124,-71 2124,-107"/>
<text text-anchor="middle" x="2068.5" y="-85.9" font-family="Times,serif" font-size="12.00">Select date and time</text>
</g>
<!-- 6117718736&#45;&gt;6117749776 -->
<g id="edge19" class="edge">
<title>6117718736&#45;&gt;6117749776</title>
<path fill="none" stroke="black" d="M1977.14,-89C1984.85,-89 1993.64,-89 2002.64,-89"/>
<polygon fill="black" stroke="black" points="2002.85,-92.5 2012.85,-89 2002.85,-85.5 2002.85,-92.5"/>
</g>
<!-- 6118389328&#45;&gt;6117718736 -->
<g id="edge18" class="edge">
<title>6118389328&#45;&gt;6117718736</title>
<path fill="none" stroke="black" d="M1887.02,-74.3C1897.76,-76.85 1909.47,-79.63 1919.78,-82.07"/>
<polygon fill="black" stroke="black" points="1919.01,-85.49 1929.55,-84.39 1920.62,-78.67 1919.01,-85.49"/>
</g>
<!-- 6117750800 -->
<g id="node18" class="node">
<title>6117750800</title>
<polygon fill="none" stroke="black" points="2314,-107 2160,-107 2160,-71 2314,-71 2314,-107"/>
<text text-anchor="middle" x="2237" y="-85.9" font-family="Times,serif" font-size="12.00">Provide personal information</text>
</g>
<!-- 6117749776&#45;&gt;6117750800 -->
<g id="edge20" class="edge">
<title>6117749776&#45;&gt;6117750800</title>
<path fill="none" stroke="black" d="M2124.02,-89C2132.27,-89 2140.94,-89 2149.67,-89"/>
<polygon fill="black" stroke="black" points="2149.9,-92.5 2159.9,-89 2149.9,-85.5 2149.9,-92.5"/>
</g>
<!-- 6117744208 -->
<g id="node19" class="node">
<title>6117744208</title>
<polygon fill="none" stroke="black" points="2480,-107 2350,-107 2350,-71 2480,-71 2480,-107"/>
<text text-anchor="middle" x="2415" y="-85.9" font-family="Times,serif" font-size="12.00">Provide payment details</text>
</g>
<!-- 6117750800&#45;&gt;6117744208 -->
<g id="edge21" class="edge">
<title>6117750800&#45;&gt;6117744208</title>
<path fill="none" stroke="black" d="M2314.17,-89C2322.63,-89 2331.23,-89 2339.66,-89"/>
<polygon fill="black" stroke="black" points="2339.84,-92.5 2349.84,-89 2339.84,-85.5 2339.84,-92.5"/>
</g>
<!-- 6117748752 -->
<g id="node20" class="node">
<title>6117748752</title>
<polygon fill="none" stroke="black" points="2543,-107 2516,-89 2543,-71 2570,-89 2543,-107"/>
<text text-anchor="middle" x="2543" y="-85.9" font-family="Times,serif" font-size="12.00">+</text>
</g>
<!-- 6117744208&#45;&gt;6117748752 -->
<g id="edge22" class="edge">
<title>6117744208&#45;&gt;6117748752</title>
<path fill="none" stroke="black" d="M2480.11,-89C2488.9,-89 2497.66,-89 2505.71,-89"/>
<polygon fill="black" stroke="black" points="2505.83,-92.5 2515.83,-89 2505.83,-85.5 2505.83,-92.5"/>
</g>
<!-- 6121867984 -->
<g id="node21" class="node">
<title>6121867984</title>
<polygon fill="none" stroke="black" points="2756,-134 2606,-134 2606,-98 2756,-98 2756,-134"/>
<text text-anchor="middle" x="2681" y="-112.9" font-family="Times,serif" font-size="12.00">Customer searches for ticket</text>
</g>
<!-- 6117748752&#45;&gt;6121867984 -->
<g id="edge24" class="edge">
<title>6117748752&#45;&gt;6121867984</title>
<path fill="none" stroke="black" d="M2564.07,-92.98C2572.96,-94.75 2584.07,-96.96 2595.87,-99.3"/>
<polygon fill="black" stroke="black" points="2595.42,-102.78 2605.91,-101.29 2596.79,-95.91 2595.42,-102.78"/>
</g>
<!-- 6118374224 -->
<g id="node22" class="node">
<title>6118374224</title>
<polygon fill="none" stroke="black" points="2756,-80 2606,-80 2606,-44 2756,-44 2756,-80"/>
<text text-anchor="middle" x="2681" y="-58.9" font-family="Times,serif" font-size="12.00">Customer searches for ticket</text>
</g>
<!-- 6117748752&#45;&gt;6118374224 -->
<g id="edge23" class="edge">
<title>6117748752&#45;&gt;6118374224</title>
<path fill="none" stroke="black" d="M2564.07,-85.02C2572.96,-83.25 2584.07,-81.04 2595.87,-78.7"/>
<polygon fill="black" stroke="black" points="2596.79,-82.09 2605.91,-76.71 2595.42,-75.22 2596.79,-82.09"/>
</g>
<!-- 6117740368 -->
<g id="node23" class="node">
<title>6117740368</title>
<polygon fill="none" stroke="black" points="2942,-134 2792,-134 2792,-98 2942,-98 2942,-134"/>
<text text-anchor="middle" x="2867" y="-112.9" font-family="Times,serif" font-size="12.00">Customer searches for ticket</text>
</g>
<!-- 6121867984&#45;&gt;6117740368 -->
<g id="edge25" class="edge">
<title>6121867984&#45;&gt;6117740368</title>
<path fill="none" stroke="black" d="M2756.04,-116C2764.51,-116 2773.19,-116 2781.78,-116"/>
<polygon fill="black" stroke="black" points="2781.81,-119.5 2791.81,-116 2781.81,-112.5 2781.81,-119.5"/>
</g>
<!-- 6122139664 -->
<g id="node24" class="node">
<title>6122139664</title>
<polygon fill="none" stroke="black" points="2942,-80 2792,-80 2792,-44 2942,-44 2942,-80"/>
<text text-anchor="middle" x="2867" y="-58.9" font-family="Times,serif" font-size="12.00">Customer searches for ticket</text>
</g>
<!-- 6118374224&#45;&gt;6122139664 -->
<g id="edge26" class="edge">
<title>6118374224&#45;&gt;6122139664</title>
<path fill="none" stroke="black" d="M2756.04,-62C2764.51,-62 2773.19,-62 2781.78,-62"/>
<polygon fill="black" stroke="black" points="2781.81,-65.5 2791.81,-62 2781.81,-58.5 2781.81,-65.5"/>
</g>
<!-- 6121878160 -->
<g id="node26" class="node">
<title>6121878160</title>
<polygon fill="none" stroke="black" points="3005,-134 2978,-116 3005,-98 3032,-116 3005,-134"/>
<text text-anchor="middle" x="3005" y="-112.9" font-family="Times,serif" font-size="12.00">X</text>
</g>
<!-- 6117740368&#45;&gt;6121878160 -->
<g id="edge27" class="edge">
<title>6117740368&#45;&gt;6121878160</title>
<path fill="none" stroke="black" d="M2942.37,-116C2951.15,-116 2959.79,-116 2967.69,-116"/>
<polygon fill="black" stroke="black" points="2967.96,-119.5 2977.96,-116 2967.96,-112.5 2967.96,-119.5"/>
</g>
<!-- 6117711248 -->
<g id="node25" class="node">
<title>6117711248</title>
<polygon fill="none" stroke="black" points="3005,-80 2978,-62 3005,-44 3032,-62 3005,-80"/>
<text text-anchor="middle" x="3005" y="-58.9" font-family="Times,serif" font-size="12.00">X</text>
</g>
<!-- 6122139664&#45;&gt;6117711248 -->
<g id="edge28" class="edge">
<title>6122139664&#45;&gt;6117711248</title>
<path fill="none" stroke="black" d="M2942.37,-62C2951.15,-62 2959.79,-62 2967.69,-62"/>
<polygon fill="black" stroke="black" points="2967.96,-65.5 2977.96,-62 2967.96,-58.5 2967.96,-65.5"/>
</g>
<!-- 6117717136 -->
<g id="node28" class="node">
<title>6117717136</title>
<polygon fill="none" stroke="black" points="3203,-72 3176,-54 3203,-36 3230,-54 3203,-72"/>
<text text-anchor="middle" x="3203" y="-50.9" font-family="Times,serif" font-size="12.00">X</text>
</g>
<!-- 6117711248&#45;&gt;6117717136 -->
<g id="edge30" class="edge">
<title>6117711248&#45;&gt;6117717136</title>
<path fill="none" stroke="black" d="M3030.82,-60.99C3065.36,-59.58 3128.06,-57.02 3167.24,-55.42"/>
<polygon fill="black" stroke="black" points="3167.53,-58.91 3177.38,-55 3167.24,-51.92 3167.53,-58.91"/>
</g>
<!-- 6122134672 -->
<g id="node30" class="node">
<title>6122134672</title>
<polygon fill="none" stroke="black" points="3140,-36 3068,-36 3068,0 3140,0 3140,-36"/>
<text text-anchor="middle" x="3104" y="-14.9" font-family="Times,serif" font-size="12.00">Select route</text>
</g>
<!-- 6117711248&#45;&gt;6122134672 -->
<g id="edge29" class="edge">
<title>6117711248&#45;&gt;6122134672</title>
<path fill="none" stroke="black" d="M3021.58,-54.93C3031.58,-50.4 3045.11,-44.26 3058.27,-38.29"/>
<polygon fill="black" stroke="black" points="3060.07,-41.32 3067.73,-34 3057.18,-34.94 3060.07,-41.32"/>
</g>
<!-- 6117710416 -->
<g id="node27" class="node">
<title>6117710416</title>
<polygon fill="none" stroke="black" points="3203,-145 3176,-127 3203,-109 3230,-127 3203,-145"/>
<text text-anchor="middle" x="3203" y="-123.9" font-family="Times,serif" font-size="12.00">X</text>
</g>
<!-- 6121878160&#45;&gt;6117710416 -->
<g id="edge31" class="edge">
<title>6121878160&#45;&gt;6117710416</title>
<path fill="none" stroke="black" d="M3020.79,-123.85C3033.05,-129.88 3051.14,-137.73 3068,-141 3104.08,-148 3146.36,-141.13 3173.63,-134.78"/>
<polygon fill="black" stroke="black" points="3174.77,-138.11 3183.64,-132.32 3173.1,-131.31 3174.77,-138.11"/>
</g>
<!-- 6117736784 -->
<g id="node29" class="node">
<title>6117736784</title>
<polygon fill="none" stroke="black" points="3140,-132 3068,-132 3068,-96 3140,-96 3140,-132"/>
<text text-anchor="middle" x="3104" y="-110.9" font-family="Times,serif" font-size="12.00">Select route</text>
</g>
<!-- 6121878160&#45;&gt;6117736784 -->
<g id="edge32" class="edge">
<title>6121878160&#45;&gt;6117736784</title>
<path fill="none" stroke="black" d="M3031.23,-115.48C3039.31,-115.31 3048.51,-115.12 3057.57,-114.94"/>
<polygon fill="black" stroke="black" points="3057.75,-118.43 3067.67,-114.73 3057.6,-111.44 3057.75,-118.43"/>
</g>
<!-- 6122137360 -->
<g id="node32" class="node">
<title>6122137360</title>
<polygon fill="none" stroke="black" points="3377,-145 3266,-145 3266,-109 3377,-109 3377,-145"/>
<text text-anchor="middle" x="3321.5" y="-123.9" font-family="Times,serif" font-size="12.00">Select date and time</text>
</g>
<!-- 6117710416&#45;&gt;6122137360 -->
<g id="edge35" class="edge">
<title>6117710416&#45;&gt;6122137360</title>
<path fill="none" stroke="black" d="M3230.14,-127C3237.85,-127 3246.64,-127 3255.64,-127"/>
<polygon fill="black" stroke="black" points="3255.85,-130.5 3265.85,-127 3255.85,-123.5 3255.85,-130.5"/>
</g>
<!-- 6117763984 -->
<g id="node31" class="node">
<title>6117763984</title>
<polygon fill="none" stroke="black" points="3377,-72 3266,-72 3266,-36 3377,-36 3377,-72"/>
<text text-anchor="middle" x="3321.5" y="-50.9" font-family="Times,serif" font-size="12.00">Select date and time</text>
</g>
<!-- 6117717136&#45;&gt;6117763984 -->
<g id="edge36" class="edge">
<title>6117717136&#45;&gt;6117763984</title>
<path fill="none" stroke="black" d="M3230.14,-54C3237.85,-54 3246.64,-54 3255.64,-54"/>
<polygon fill="black" stroke="black" points="3255.85,-57.5 3265.85,-54 3255.85,-50.5 3255.85,-57.5"/>
</g>
<!-- 6117736784&#45;&gt;6117710416 -->
<g id="edge33" class="edge">
<title>6117736784&#45;&gt;6117710416</title>
<path fill="none" stroke="black" d="M3140.02,-118.69C3149.9,-120.02 3160.6,-121.45 3170.28,-122.75"/>
<polygon fill="black" stroke="black" points="3169.92,-126.23 3180.29,-124.09 3170.85,-119.29 3169.92,-126.23"/>
</g>
<!-- 6122134672&#45;&gt;6117717136 -->
<g id="edge34" class="edge">
<title>6122134672&#45;&gt;6117717136</title>
<path fill="none" stroke="black" d="M3140.02,-31C3151.82,-35.38 3164.77,-40.18 3175.78,-44.27"/>
<polygon fill="black" stroke="black" points="3174.65,-47.58 3185.24,-47.78 3177.08,-41.02 3174.65,-47.58"/>
</g>
<!-- 6117749968 -->
<g id="node33" class="node">
<title>6117749968</title>
<polygon fill="none" stroke="black" points="3567,-72 3413,-72 3413,-36 3567,-36 3567,-72"/>
<text text-anchor="middle" x="3490" y="-50.9" font-family="Times,serif" font-size="12.00">Provide personal information</text>
</g>
<!-- 6117763984&#45;&gt;6117749968 -->
<g id="edge37" class="edge">
<title>6117763984&#45;&gt;6117749968</title>
<path fill="none" stroke="black" d="M3377.02,-54C3385.27,-54 3393.94,-54 3402.67,-54"/>
<polygon fill="black" stroke="black" points="3402.9,-57.5 3412.9,-54 3402.9,-50.5 3402.9,-57.5"/>
</g>
<!-- 6118372944 -->
<g id="node34" class="node">
<title>6118372944</title>
<polygon fill="none" stroke="black" points="3567,-145 3413,-145 3413,-109 3567,-109 3567,-145"/>
<text text-anchor="middle" x="3490" y="-123.9" font-family="Times,serif" font-size="12.00">Provide personal information</text>
</g>
<!-- 6122137360&#45;&gt;6118372944 -->
<g id="edge38" class="edge">
<title>6122137360&#45;&gt;6118372944</title>
<path fill="none" stroke="black" d="M3377.02,-127C3385.27,-127 3393.94,-127 3402.67,-127"/>
<polygon fill="black" stroke="black" points="3402.9,-130.5 3412.9,-127 3402.9,-123.5 3402.9,-130.5"/>
</g>
<!-- 6118369040 -->
<g id="node36" class="node">
<title>6118369040</title>
<polygon fill="none" stroke="black" points="3733,-72 3603,-72 3603,-36 3733,-36 3733,-72"/>
<text text-anchor="middle" x="3668" y="-50.9" font-family="Times,serif" font-size="12.00">Provide payment details</text>
</g>
<!-- 6117749968&#45;&gt;6118369040 -->
<g id="edge39" class="edge">
<title>6117749968&#45;&gt;6118369040</title>
<path fill="none" stroke="black" d="M3567.17,-54C3575.63,-54 3584.23,-54 3592.66,-54"/>
<polygon fill="black" stroke="black" points="3592.84,-57.5 3602.84,-54 3592.84,-50.5 3592.84,-57.5"/>
</g>
<!-- 6117759312 -->
<g id="node35" class="node">
<title>6117759312</title>
<polygon fill="none" stroke="black" points="3733,-145 3603,-145 3603,-109 3733,-109 3733,-145"/>
<text text-anchor="middle" x="3668" y="-123.9" font-family="Times,serif" font-size="12.00">Provide payment details</text>
</g>
<!-- 6118372944&#45;&gt;6117759312 -->
<g id="edge40" class="edge">
<title>6118372944&#45;&gt;6117759312</title>
<path fill="none" stroke="black" d="M3567.17,-127C3575.63,-127 3584.23,-127 3592.66,-127"/>
<polygon fill="black" stroke="black" points="3592.84,-130.5 3602.84,-127 3592.84,-123.5 3592.84,-130.5"/>
</g>
<!-- 6118363600 -->
<g id="node38" class="node">
<title>6118363600</title>
<polygon fill="none" stroke="black" points="4013,-145 3893,-145 3893,-109 4013,-109 4013,-145"/>
<text text-anchor="middle" x="3953" y="-123.9" font-family="Times,serif" font-size="12.00">Update seat inventory</text>
</g>
<!-- 6117759312&#45;&gt;6118363600 -->
<g id="edge41" class="edge">
<title>6117759312&#45;&gt;6118363600</title>
<path fill="none" stroke="black" d="M3733.22,-127C3777.79,-127 3837.13,-127 3882.76,-127"/>
<polygon fill="black" stroke="black" points="3882.86,-130.5 3892.86,-127 3882.86,-123.5 3882.86,-130.5"/>
</g>
<!-- 6117768208 -->
<g id="node37" class="node">
<title>6117768208</title>
<polygon fill="none" stroke="black" points="3857,-72 3769,-72 3769,-36 3857,-36 3857,-72"/>
<text text-anchor="middle" x="3813" y="-50.9" font-family="Times,serif" font-size="12.00">Generate ticket</text>
</g>
<!-- 6118369040&#45;&gt;6117768208 -->
<g id="edge42" class="edge">
<title>6118369040&#45;&gt;6117768208</title>
<path fill="none" stroke="black" d="M3733.39,-54C3741.83,-54 3750.41,-54 3758.64,-54"/>
<polygon fill="black" stroke="black" points="3758.85,-57.5 3768.85,-54 3758.85,-50.5 3758.85,-57.5"/>
</g>
<!-- 6117768912 -->
<g id="node40" class="node">
<title>6117768912</title>
<polygon fill="none" stroke="black" points="3953,-72 3926,-54 3953,-36 3980,-54 3953,-72"/>
<text text-anchor="middle" x="3953" y="-50.9" font-family="Times,serif" font-size="12.00">+</text>
</g>
<!-- 6117768208&#45;&gt;6117768912 -->
<g id="edge43" class="edge">
<title>6117768208&#45;&gt;6117768912</title>
<path fill="none" stroke="black" d="M3857.29,-54C3876.05,-54 3897.78,-54 3915.69,-54"/>
<polygon fill="black" stroke="black" points="3915.74,-57.5 3925.74,-54 3915.74,-50.5 3915.74,-57.5"/>
</g>
<!-- 6117757136 -->
<g id="node39" class="node">
<title>6117757136</title>
<polygon fill="none" stroke="black" points="4699,-122 4672,-104 4699,-86 4726,-104 4699,-122"/>
<text text-anchor="middle" x="4699" y="-100.9" font-family="Times,serif" font-size="12.00">+</text>
</g>
<!-- 6118363600&#45;&gt;6117757136 -->
<g id="edge44" class="edge">
<title>6118363600&#45;&gt;6117757136</title>
<path fill="none" stroke="black" d="M4013.16,-127C4068.26,-127 4152.69,-127 4226,-127 4226,-127 4226,-127 4464,-127 4537.13,-127 4622.49,-115.74 4667.16,-108.97"/>
<polygon fill="black" stroke="black" points="4667.74,-112.43 4677.09,-107.44 4666.68,-105.51 4667.74,-112.43"/>
</g>
<!-- 6115437136 -->
<g id="node48" class="node">
<title>6115437136</title>
<ellipse fill="orange" stroke="black" cx="4780" cy="-104" rx="18" ry="18"/>
</g>
<!-- 6117757136&#45;&gt;6115437136 -->
<g id="edge47" class="edge">
<title>6117757136&#45;&gt;6115437136</title>
<path fill="none" stroke="black" d="M4726.31,-104C4734.42,-104 4743.37,-104 4751.56,-104"/>
<polygon fill="black" stroke="black" points="4751.75,-107.5 4761.75,-104 4751.75,-100.5 4751.75,-107.5"/>
</g>
<!-- 6118369424 -->
<g id="node41" class="node">
<title>6118369424</title>
<polygon fill="none" stroke="black" points="4163,-95 4050,-95 4050,-59 4163,-59 4163,-95"/>
<text text-anchor="middle" x="4106.5" y="-73.9" font-family="Times,serif" font-size="12.00">Send ticket via SMS</text>
</g>
<!-- 6117768912&#45;&gt;6118369424 -->
<g id="edge45" class="edge">
<title>6117768912&#45;&gt;6118369424</title>
<path fill="none" stroke="black" d="M3975.38,-57.25C3992.22,-59.8 4016.64,-63.51 4039.78,-67.02"/>
<polygon fill="black" stroke="black" points="4039.53,-70.52 4049.94,-68.57 4040.58,-63.6 4039.53,-70.52"/>
</g>
<!-- 6118367248 -->
<g id="node42" class="node">
<title>6118367248</title>
<polygon fill="none" stroke="black" points="4164,-41 4049,-41 4049,-5 4164,-5 4164,-41"/>
<text text-anchor="middle" x="4106.5" y="-19.9" font-family="Times,serif" font-size="12.00">Send ticket via email</text>
</g>
<!-- 6117768912&#45;&gt;6118367248 -->
<g id="edge46" class="edge">
<title>6117768912&#45;&gt;6118367248</title>
<path fill="none" stroke="black" d="M3974.12,-49.88C3990.74,-46.48 4015.32,-41.45 4038.75,-36.66"/>
<polygon fill="black" stroke="black" points="4039.59,-40.06 4048.69,-34.63 4038.19,-33.2 4039.59,-40.06"/>
</g>
<!-- 6117754768 -->
<g id="node43" class="node">
<title>6117754768</title>
<polygon fill="none" stroke="black" points="4227,-68 4200,-50 4227,-32 4254,-50 4227,-68"/>
<text text-anchor="middle" x="4227" y="-46.9" font-family="Times,serif" font-size="12.00">+</text>
</g>
<!-- 6118369424&#45;&gt;6117754768 -->
<g id="edge48" class="edge">
<title>6118369424&#45;&gt;6117754768</title>
<path fill="none" stroke="black" d="M4163.28,-64.29C4174.77,-61.67 4186.44,-59.01 4196.55,-56.71"/>
<polygon fill="black" stroke="black" points="4197.47,-60.09 4206.44,-54.46 4195.91,-53.27 4197.47,-60.09"/>
</g>
<!-- 6118367248&#45;&gt;6117754768 -->
<g id="edge49" class="edge">
<title>6118367248&#45;&gt;6117754768</title>
<path fill="none" stroke="black" d="M4164.32,-35.95C4175.49,-38.49 4186.77,-41.06 4196.58,-43.3"/>
<polygon fill="black" stroke="black" points="4196.04,-46.76 4206.56,-45.57 4197.59,-39.94 4196.04,-46.76"/>
</g>
<!-- 6117709584 -->
<g id="node44" class="node">
<title>6117709584</title>
<polygon fill="none" stroke="black" points="4317,-68 4290,-50 4317,-32 4344,-50 4317,-68"/>
<text text-anchor="middle" x="4317" y="-46.9" font-family="Times,serif" font-size="12.00">X</text>
</g>
<!-- 6117754768&#45;&gt;6117709584 -->
<g id="edge50" class="edge">
<title>6117754768&#45;&gt;6117709584</title>
<path fill="none" stroke="black" d="M4254.4,-50C4262.39,-50 4271.31,-50 4279.82,-50"/>
<polygon fill="black" stroke="black" points="4279.92,-53.5 4289.92,-50 4279.92,-46.5 4279.92,-53.5"/>
</g>
<!-- 6117755600 -->
<g id="node45" class="node">
<title>6117755600</title>
<polygon fill="none" stroke="black" points="4546,-99 4380,-99 4380,-63 4546,-63 4546,-99"/>
<text text-anchor="middle" x="4463" y="-77.9" font-family="Times,serif" font-size="12.00">Post&#45;travel feedback or services</text>
</g>
<!-- 6117709584&#45;&gt;6117755600 -->
<g id="edge52" class="edge">
<title>6117709584&#45;&gt;6117755600</title>
<path fill="none" stroke="black" d="M4337.72,-54.25C4346.66,-56.17 4357.92,-58.59 4370,-61.19"/>
<polygon fill="black" stroke="black" points="4369.32,-64.63 4379.84,-63.31 4370.8,-57.79 4369.32,-64.63"/>
</g>
<!-- 6118362576 -->
<g id="node46" class="node">
<title>6118362576</title>
<polygon fill="none" stroke="black" points="4539,-45 4387,-45 4387,-9 4539,-9 4539,-45"/>
<text text-anchor="middle" x="4463" y="-23.9" font-family="Times,serif" font-size="12.00">Customer completes journey</text>
</g>
<!-- 6117709584&#45;&gt;6118362576 -->
<g id="edge51" class="edge">
<title>6117709584&#45;&gt;6118362576</title>
<path fill="none" stroke="black" d="M4339.25,-46.61C4349.57,-44.96 4362.73,-42.86 4376.57,-40.64"/>
<polygon fill="black" stroke="black" points="4377.42,-44.05 4386.74,-39.02 4376.32,-37.14 4377.42,-44.05"/>
</g>
<!-- 6121875024 -->
<g id="node47" class="node">
<title>6121875024</title>
<polygon fill="none" stroke="black" points="4609,-99 4582,-81 4609,-63 4636,-81 4609,-99"/>
<text text-anchor="middle" x="4609" y="-77.9" font-family="Times,serif" font-size="12.00">X</text>
</g>
<!-- 6117755600&#45;&gt;6121875024 -->
<g id="edge53" class="edge">
<title>6117755600&#45;&gt;6121875024</title>
<path fill="none" stroke="black" d="M4546.1,-81C4554.95,-81 4563.6,-81 4571.5,-81"/>
<polygon fill="black" stroke="black" points="4571.73,-84.5 4581.73,-81 4571.73,-77.5 4571.73,-84.5"/>
</g>
<!-- 6118362576&#45;&gt;6121875024 -->
<g id="edge54" class="edge">
<title>6118362576&#45;&gt;6121875024</title>
<path fill="none" stroke="black" d="M4521.14,-45.06C4529.52,-47.93 4538.02,-50.96 4546,-54 4558.47,-58.76 4572.09,-64.61 4583.39,-69.66"/>
<polygon fill="black" stroke="black" points="4582.07,-72.9 4592.62,-73.83 4584.95,-66.52 4582.07,-72.9"/>
</g>
<!-- 6121875024&#45;&gt;6117757136 -->
<g id="edge55" class="edge">
<title>6121875024&#45;&gt;6117757136</title>
<path fill="none" stroke="black" d="M4629.09,-85.99C4640.82,-89.06 4656.07,-93.04 4669.24,-96.48"/>
<polygon fill="black" stroke="black" points="4668.68,-99.96 4679.24,-99.1 4670.45,-93.18 4668.68,-99.96"/>
</g>
</g>
</svg>
