<?xml version="1.0" encoding="UTF-8" standalone="no"?>
<!DOCTYPE svg PUBLIC "-//W3C//DTD SVG 1.1//EN"
 "http://www.w3.org/Graphics/SVG/1.1/DTD/svg11.dtd">
<!-- Generated by graphviz version 2.50.0 (0)
 -->
<!-- Pages: 1 -->
<svg width="2319pt" height="67pt"
 viewBox="0.00 0.00 2319.00 67.00" xmlns="http://www.w3.org/2000/svg" xmlns:xlink="http://www.w3.org/1999/xlink">
<g id="graph0" class="graph" transform="scale(1 1) rotate(0) translate(4 63)">
<polygon fill="white" stroke="transparent" points="-4,4 -4,-63 2315,-63 2315,4 -4,4"/>
<!-- 6195384272 -->
<g id="node1" class="node">
<title>6195384272</title>
<ellipse fill="green" stroke="black" cx="18" cy="-41" rx="18" ry="18"/>
</g>
<!-- 6195393040 -->
<g id="node2" class="node">
<title>6195393040</title>
<polygon fill="none" stroke="black" points="222,-59 72,-59 72,-23 222,-23 222,-59"/>
<text text-anchor="middle" x="147" y="-37.9" font-family="Times,serif" font-size="12.00">Customer searches for ticket</text>
</g>
<!-- 6195384272&#45;&gt;6195393040 -->
<g id="edge1" class="edge">
<title>6195384272&#45;&gt;6195393040</title>
<path fill="none" stroke="black" d="M36.13,-41C43.26,-41 52.12,-41 61.68,-41"/>
<polygon fill="black" stroke="black" points="61.86,-44.5 71.86,-41 61.86,-37.5 61.86,-44.5"/>
</g>
<!-- 6195391056 -->
<g id="node3" class="node">
<title>6195391056</title>
<polygon fill="none" stroke="black" points="330,-59 258,-59 258,-23 330,-23 330,-59"/>
<text text-anchor="middle" x="294" y="-37.9" font-family="Times,serif" font-size="12.00">Select route</text>
</g>
<!-- 6195393040&#45;&gt;6195391056 -->
<g id="edge2" class="edge">
<title>6195393040&#45;&gt;6195391056</title>
<path fill="none" stroke="black" d="M222.2,-41C230.82,-41 239.41,-41 247.49,-41"/>
<polygon fill="black" stroke="black" points="247.75,-44.5 257.75,-41 247.75,-37.5 247.75,-44.5"/>
</g>
<!-- 6195883600 -->
<g id="node4" class="node">
<title>6195883600</title>
<polygon fill="none" stroke="black" points="477,-59 366,-59 366,-23 477,-23 477,-59"/>
<text text-anchor="middle" x="421.5" y="-37.9" font-family="Times,serif" font-size="12.00">Select date and time</text>
</g>
<!-- 6195391056&#45;&gt;6195883600 -->
<g id="edge3" class="edge">
<title>6195391056&#45;&gt;6195883600</title>
<path fill="none" stroke="black" d="M330.29,-41C338.21,-41 346.86,-41 355.56,-41"/>
<polygon fill="black" stroke="black" points="355.77,-44.5 365.77,-41 355.77,-37.5 355.77,-44.5"/>
</g>
<!-- 6195880912 -->
<g id="node5" class="node">
<title>6195880912</title>
<polygon fill="none" stroke="black" points="667,-59 513,-59 513,-23 667,-23 667,-59"/>
<text text-anchor="middle" x="590" y="-37.9" font-family="Times,serif" font-size="12.00">Provide personal information</text>
</g>
<!-- 6195883600&#45;&gt;6195880912 -->
<g id="edge4" class="edge">
<title>6195883600&#45;&gt;6195880912</title>
<path fill="none" stroke="black" d="M477.02,-41C485.27,-41 493.94,-41 502.67,-41"/>
<polygon fill="black" stroke="black" points="502.9,-44.5 512.9,-41 502.9,-37.5 502.9,-44.5"/>
</g>
<!-- 6195394448 -->
<g id="node6" class="node">
<title>6195394448</title>
<polygon fill="none" stroke="black" points="833,-59 703,-59 703,-23 833,-23 833,-59"/>
<text text-anchor="middle" x="768" y="-37.9" font-family="Times,serif" font-size="12.00">Provide payment details</text>
</g>
<!-- 6195880912&#45;&gt;6195394448 -->
<g id="edge5" class="edge">
<title>6195880912&#45;&gt;6195394448</title>
<path fill="none" stroke="black" d="M667.17,-41C675.63,-41 684.23,-41 692.66,-41"/>
<polygon fill="black" stroke="black" points="692.84,-44.5 702.84,-41 692.84,-37.5 692.84,-44.5"/>
</g>
<!-- 6195875536 -->
<g id="node7" class="node">
<title>6195875536</title>
<polygon fill="none" stroke="black" points="957,-59 869,-59 869,-23 957,-23 957,-59"/>
<text text-anchor="middle" x="913" y="-37.9" font-family="Times,serif" font-size="12.00">Generate ticket</text>
</g>
<!-- 6195394448&#45;&gt;6195875536 -->
<g id="edge6" class="edge">
<title>6195394448&#45;&gt;6195875536</title>
<path fill="none" stroke="black" d="M833.39,-41C841.83,-41 850.41,-41 858.64,-41"/>
<polygon fill="black" stroke="black" points="858.85,-44.5 868.85,-41 858.85,-37.5 858.85,-44.5"/>
</g>
<!-- 6195447632 -->
<g id="node8" class="node">
<title>6195447632</title>
<polygon fill="none" stroke="black" points="1108,-59 993,-59 993,-23 1108,-23 1108,-59"/>
<text text-anchor="middle" x="1050.5" y="-37.9" font-family="Times,serif" font-size="12.00">Send ticket via email</text>
</g>
<!-- 6195875536&#45;&gt;6195447632 -->
<g id="edge7" class="edge">
<title>6195875536&#45;&gt;6195447632</title>
<path fill="none" stroke="black" d="M957.25,-41C965.37,-41 974.04,-41 982.7,-41"/>
<polygon fill="black" stroke="black" points="982.81,-44.5 992.81,-41 982.81,-37.5 982.81,-44.5"/>
</g>
<!-- 6195396240 -->
<g id="node9" class="node">
<title>6195396240</title>
<polygon fill="none" stroke="black" points="1257,-59 1144,-59 1144,-23 1257,-23 1257,-59"/>
<text text-anchor="middle" x="1200.5" y="-37.9" font-family="Times,serif" font-size="12.00">Send ticket via SMS</text>
</g>
<!-- 6195447632&#45;&gt;6195396240 -->
<g id="edge8" class="edge">
<title>6195447632&#45;&gt;6195396240</title>
<path fill="none" stroke="black" d="M1108.3,-41C1116.53,-41 1125.06,-41 1133.45,-41"/>
<polygon fill="black" stroke="black" points="1133.59,-44.5 1143.59,-41 1133.59,-37.5 1133.59,-44.5"/>
</g>
<!-- 6195873872 -->
<g id="node10" class="node">
<title>6195873872</title>
<polygon fill="none" stroke="black" points="1413,-59 1293,-59 1293,-23 1413,-23 1413,-59"/>
<text text-anchor="middle" x="1353" y="-37.9" font-family="Times,serif" font-size="12.00">Update seat inventory</text>
</g>
<!-- 6195396240&#45;&gt;6195873872 -->
<g id="edge9" class="edge">
<title>6195396240&#45;&gt;6195873872</title>
<path fill="none" stroke="black" d="M1257.11,-41C1265.48,-41 1274.19,-41 1282.8,-41"/>
<polygon fill="black" stroke="black" points="1282.83,-44.5 1292.83,-41 1282.83,-37.5 1282.83,-44.5"/>
</g>
<!-- 6195874704 -->
<g id="node11" class="node">
<title>6195874704</title>
<polygon fill="none" stroke="black" points="1601,-59 1449,-59 1449,-23 1601,-23 1601,-59"/>
<text text-anchor="middle" x="1525" y="-37.9" font-family="Times,serif" font-size="12.00">Customer completes journey</text>
</g>
<!-- 6195873872&#45;&gt;6195874704 -->
<g id="edge10" class="edge">
<title>6195873872&#45;&gt;6195874704</title>
<path fill="none" stroke="black" d="M1413.46,-41C1421.65,-41 1430.19,-41 1438.73,-41"/>
<polygon fill="black" stroke="black" points="1438.74,-44.5 1448.74,-41 1438.74,-37.5 1438.74,-44.5"/>
</g>
<!-- 6195881488 -->
<g id="node12" class="node">
<title>6195881488</title>
<polygon fill="none" stroke="black" points="1723,-59 1637,-59 1637,-23 1723,-23 1723,-59"/>
<text text-anchor="middle" x="1680" y="-37.9" font-family="Times,serif" font-size="12.00">Send reminder</text>
</g>
<!-- 6195874704&#45;&gt;6195881488 -->
<g id="edge11" class="edge">
<title>6195874704&#45;&gt;6195881488</title>
<path fill="none" stroke="black" d="M1601.16,-41C1609.76,-41 1618.39,-41 1626.61,-41"/>
<polygon fill="black" stroke="black" points="1626.77,-44.5 1636.77,-41 1626.77,-37.5 1626.77,-44.5"/>
</g>
<!-- 6195879440 -->
<g id="node13" class="node">
<title>6195879440</title>
<polygon fill="none" stroke="black" points="1857,-59 1759,-59 1759,-23 1857,-23 1857,-59"/>
<text text-anchor="middle" x="1808" y="-37.9" font-family="Times,serif" font-size="12.00">Send instructions</text>
</g>
<!-- 6195881488&#45;&gt;6195879440 -->
<g id="edge12" class="edge">
<title>6195881488&#45;&gt;6195879440</title>
<path fill="none" stroke="black" d="M1723.31,-41C1731.53,-41 1740.28,-41 1748.91,-41"/>
<polygon fill="black" stroke="black" points="1748.94,-44.5 1758.94,-41 1748.94,-37.5 1748.94,-44.5"/>
</g>
<!-- 6195389968 -->
<g id="node14" class="node">
<title>6195389968</title>
<polygon fill="none" stroke="black" points="1920,-59 1893,-41 1920,-23 1947,-41 1920,-59"/>
<text text-anchor="middle" x="1920" y="-37.9" font-family="Times,serif" font-size="12.00">X</text>
</g>
<!-- 6195879440&#45;&gt;6195389968 -->
<g id="edge13" class="edge">
<title>6195879440&#45;&gt;6195389968</title>
<path fill="none" stroke="black" d="M1857.25,-41C1865.76,-41 1874.48,-41 1882.6,-41"/>
<polygon fill="black" stroke="black" points="1882.85,-44.5 1892.85,-41 1882.85,-37.5 1882.85,-44.5"/>
</g>
<!-- 6195385680 -->
<g id="node15" class="node">
<title>6195385680</title>
<polygon fill="none" stroke="black" points="2212,-59 2185,-41 2212,-23 2239,-41 2212,-59"/>
<text text-anchor="middle" x="2212" y="-37.9" font-family="Times,serif" font-size="12.00">X</text>
</g>
<!-- 6195389968&#45;&gt;6195385680 -->
<g id="edge14" class="edge">
<title>6195389968&#45;&gt;6195385680</title>
<path fill="none" stroke="black" d="M1944.24,-42.86C1955.87,-43.69 1970.17,-44.59 1983,-45 2056.74,-47.38 2075.26,-47.38 2149,-45 2158.32,-44.7 2168.42,-44.15 2177.7,-43.54"/>
<polygon fill="black" stroke="black" points="2178.02,-47.03 2187.76,-42.86 2177.54,-40.05 2178.02,-47.03"/>
</g>
<!-- 6195877328 -->
<g id="node16" class="node">
<title>6195877328</title>
<polygon fill="none" stroke="black" points="2149,-36 1983,-36 1983,0 2149,0 2149,-36"/>
<text text-anchor="middle" x="2066" y="-14.9" font-family="Times,serif" font-size="12.00">Post&#45;travel feedback or services</text>
</g>
<!-- 6195389968&#45;&gt;6195877328 -->
<g id="edge15" class="edge">
<title>6195389968&#45;&gt;6195877328</title>
<path fill="none" stroke="black" d="M1942.25,-37.61C1950.84,-36.23 1961.39,-34.55 1972.67,-32.75"/>
<polygon fill="black" stroke="black" points="1973.42,-36.17 1982.74,-31.14 1972.31,-29.26 1973.42,-36.17"/>
</g>
<!-- 6195456720 -->
<g id="node17" class="node">
<title>6195456720</title>
<ellipse fill="orange" stroke="black" cx="2293" cy="-41" rx="18" ry="18"/>
</g>
<!-- 6195385680&#45;&gt;6195456720 -->
<g id="edge17" class="edge">
<title>6195385680&#45;&gt;6195456720</title>
<path fill="none" stroke="black" d="M2239.31,-41C2247.42,-41 2256.37,-41 2264.56,-41"/>
<polygon fill="black" stroke="black" points="2264.75,-44.5 2274.75,-41 2264.75,-37.5 2264.75,-44.5"/>
</g>
<!-- 6195877328&#45;&gt;6195385680 -->
<g id="edge16" class="edge">
<title>6195877328&#45;&gt;6195385680</title>
<path fill="none" stroke="black" d="M2149.1,-31.11C2159.99,-32.85 2170.57,-34.54 2179.81,-36.02"/>
<polygon fill="black" stroke="black" points="2179.56,-39.52 2189.98,-37.64 2180.66,-32.61 2179.56,-39.52"/>
</g>
</g>
</svg>
