<?xml version="1.0" encoding="UTF-8" standalone="no"?>
<!DOCTYPE svg PUBLIC "-//W3C//DTD SVG 1.1//EN"
 "http://www.w3.org/Graphics/SVG/1.1/DTD/svg11.dtd">
<!-- Generated by graphviz version 2.50.0 (0)
 -->
<!-- Pages: 1 -->
<svg width="2675pt" height="190pt"
 viewBox="0.00 0.00 2675.00 190.00" xmlns="http://www.w3.org/2000/svg" xmlns:xlink="http://www.w3.org/1999/xlink">
<g id="graph0" class="graph" transform="scale(1 1) rotate(0) translate(4 186)">
<polygon fill="white" stroke="transparent" points="-4,4 -4,-186 2671,-186 2671,4 -4,4"/>
<!-- 6158362256 -->
<g id="node1" class="node">
<title>6158362256</title>
<ellipse fill="green" stroke="black" cx="18" cy="-41" rx="18" ry="18"/>
</g>
<!-- 6158367440 -->
<g id="node2" class="node">
<title>6158367440</title>
<polygon fill="none" stroke="black" points="99,-59 72,-41 99,-23 126,-41 99,-59"/>
<text text-anchor="middle" x="99" y="-37.9" font-family="Times,serif" font-size="12.00">X</text>
</g>
<!-- 6158362256&#45;&gt;6158367440 -->
<g id="edge1" class="edge">
<title>6158362256&#45;&gt;6158367440</title>
<path fill="none" stroke="black" d="M36.14,-41C43.64,-41 52.75,-41 61.64,-41"/>
<polygon fill="black" stroke="black" points="61.87,-44.5 71.87,-41 61.87,-37.5 61.87,-44.5"/>
</g>
<!-- 6158362704 -->
<g id="node3" class="node">
<title>6158362704</title>
<polygon fill="none" stroke="black" points="189,-82 162,-64 189,-46 216,-64 189,-82"/>
<text text-anchor="middle" x="189" y="-60.9" font-family="Times,serif" font-size="12.00">X</text>
</g>
<!-- 6158367440&#45;&gt;6158362704 -->
<g id="edge2" class="edge">
<title>6158367440&#45;&gt;6158362704</title>
<path fill="none" stroke="black" d="M119.09,-45.99C130.82,-49.06 146.07,-53.04 159.24,-56.48"/>
<polygon fill="black" stroke="black" points="158.68,-59.96 169.24,-59.1 160.45,-53.18 158.68,-59.96"/>
</g>
<!-- 6158360400 -->
<g id="node4" class="node">
<title>6158360400</title>
<polygon fill="none" stroke="black" points="404,-36 252,-36 252,0 404,0 404,-36"/>
<text text-anchor="middle" x="328" y="-14.9" font-family="Times,serif" font-size="12.00">Customer completes journey</text>
</g>
<!-- 6158367440&#45;&gt;6158360400 -->
<g id="edge3" class="edge">
<title>6158367440&#45;&gt;6158360400</title>
<path fill="none" stroke="black" d="M122.6,-38.71C150.32,-35.9 198.91,-30.98 241.77,-26.64"/>
<polygon fill="black" stroke="black" points="242.35,-30.09 251.95,-25.6 241.65,-23.13 242.35,-30.09"/>
</g>
<!-- 6158358416 -->
<g id="node6" class="node">
<title>6158358416</title>
<polygon fill="none" stroke="black" points="403,-128 253,-128 253,-92 403,-92 403,-128"/>
<text text-anchor="middle" x="328" y="-106.9" font-family="Times,serif" font-size="12.00">Customer searches for ticket</text>
</g>
<!-- 6158362704&#45;&gt;6158358416 -->
<g id="edge4" class="edge">
<title>6158362704&#45;&gt;6158358416</title>
<path fill="none" stroke="black" d="M207.35,-69.83C221.65,-74.63 242.85,-81.75 263.45,-88.66"/>
<polygon fill="black" stroke="black" points="262.57,-92.06 273.16,-91.92 264.8,-85.42 262.57,-92.06"/>
</g>
<!-- 6158363472 -->
<g id="node5" class="node">
<title>6158363472</title>
<polygon fill="none" stroke="black" points="2186,-59 2159,-41 2186,-23 2213,-41 2186,-59"/>
<text text-anchor="middle" x="2186" y="-37.9" font-family="Times,serif" font-size="12.00">X</text>
</g>
<!-- 6158360400&#45;&gt;6158363472 -->
<g id="edge5" class="edge">
<title>6158360400&#45;&gt;6158363472</title>
<path fill="none" stroke="black" d="M404.17,-18C466.95,-18 558.81,-18 639,-18 639,-18 639,-18 1976.5,-18 2040.02,-18 2113.77,-28.68 2154.32,-35.48"/>
<polygon fill="black" stroke="black" points="2153.92,-38.96 2164.37,-37.2 2155.1,-32.06 2153.92,-38.96"/>
</g>
<!-- 6158365776 -->
<g id="node7" class="node">
<title>6158365776</title>
<polygon fill="none" stroke="black" points="2276,-59 2249,-41 2276,-23 2303,-41 2276,-59"/>
<text text-anchor="middle" x="2276" y="-37.9" font-family="Times,serif" font-size="12.00">X</text>
</g>
<!-- 6158363472&#45;&gt;6158365776 -->
<g id="edge6" class="edge">
<title>6158363472&#45;&gt;6158365776</title>
<path fill="none" stroke="black" d="M2213.4,-41C2221.39,-41 2230.31,-41 2238.82,-41"/>
<polygon fill="black" stroke="black" points="2238.92,-44.5 2248.92,-41 2238.92,-37.5 2238.92,-44.5"/>
</g>
<!-- 6158710608 -->
<g id="node8" class="node">
<title>6158710608</title>
<polygon fill="none" stroke="black" points="560,-128 440,-128 440,-92 560,-92 560,-128"/>
<text text-anchor="middle" x="500" y="-106.9" font-family="Times,serif" font-size="12.00">Update seat inventory</text>
</g>
<!-- 6158358416&#45;&gt;6158710608 -->
<g id="edge7" class="edge">
<title>6158358416&#45;&gt;6158710608</title>
<path fill="none" stroke="black" d="M403.07,-110C411.94,-110 420.98,-110 429.78,-110"/>
<polygon fill="black" stroke="black" points="429.99,-113.5 439.99,-110 429.99,-106.5 429.99,-113.5"/>
</g>
<!-- 6158356048 -->
<g id="node9" class="node">
<title>6158356048</title>
<polygon fill="none" stroke="black" points="2568,-59 2541,-41 2568,-23 2595,-41 2568,-59"/>
<text text-anchor="middle" x="2568" y="-37.9" font-family="Times,serif" font-size="12.00">X</text>
</g>
<!-- 6158365776&#45;&gt;6158356048 -->
<g id="edge8" class="edge">
<title>6158365776&#45;&gt;6158356048</title>
<path fill="none" stroke="black" d="M2300.24,-42.86C2311.87,-43.69 2326.17,-44.59 2339,-45 2412.74,-47.38 2431.26,-47.38 2505,-45 2514.32,-44.7 2524.42,-44.15 2533.7,-43.54"/>
<polygon fill="black" stroke="black" points="2534.02,-47.03 2543.76,-42.86 2533.54,-40.05 2534.02,-47.03"/>
</g>
<!-- 6159892432 -->
<g id="node11" class="node">
<title>6159892432</title>
<polygon fill="none" stroke="black" points="2505,-36 2339,-36 2339,0 2505,0 2505,-36"/>
<text text-anchor="middle" x="2422" y="-14.9" font-family="Times,serif" font-size="12.00">Post&#45;travel feedback or services</text>
</g>
<!-- 6158365776&#45;&gt;6159892432 -->
<g id="edge9" class="edge">
<title>6158365776&#45;&gt;6159892432</title>
<path fill="none" stroke="black" d="M2298.25,-37.61C2306.84,-36.23 2317.39,-34.55 2328.67,-32.75"/>
<polygon fill="black" stroke="black" points="2329.42,-36.17 2338.74,-31.14 2328.31,-29.26 2329.42,-36.17"/>
</g>
<!-- 6158356432 -->
<g id="node10" class="node">
<title>6158356432</title>
<polygon fill="none" stroke="black" points="684,-128 596,-128 596,-92 684,-92 684,-128"/>
<text text-anchor="middle" x="640" y="-106.9" font-family="Times,serif" font-size="12.00">Generate ticket</text>
</g>
<!-- 6158710608&#45;&gt;6158356432 -->
<g id="edge10" class="edge">
<title>6158710608&#45;&gt;6158356432</title>
<path fill="none" stroke="black" d="M560.33,-110C568.84,-110 577.56,-110 585.95,-110"/>
<polygon fill="black" stroke="black" points="585.97,-113.5 595.97,-110 585.97,-106.5 585.97,-113.5"/>
</g>
<!-- 6152766992 -->
<g id="node25" class="node">
<title>6152766992</title>
<ellipse fill="orange" stroke="black" cx="2649" cy="-41" rx="18" ry="18"/>
</g>
<!-- 6158356048&#45;&gt;6152766992 -->
<g id="edge13" class="edge">
<title>6158356048&#45;&gt;6152766992</title>
<path fill="none" stroke="black" d="M2595.31,-41C2603.42,-41 2612.37,-41 2620.56,-41"/>
<polygon fill="black" stroke="black" points="2620.75,-44.5 2630.75,-41 2620.75,-37.5 2620.75,-44.5"/>
</g>
<!-- 6158367952 -->
<g id="node12" class="node">
<title>6158367952</title>
<polygon fill="none" stroke="black" points="747,-128 720,-110 747,-92 774,-110 747,-128"/>
<text text-anchor="middle" x="747" y="-106.9" font-family="Times,serif" font-size="12.00">X</text>
</g>
<!-- 6158356432&#45;&gt;6158367952 -->
<g id="edge12" class="edge">
<title>6158356432&#45;&gt;6158367952</title>
<path fill="none" stroke="black" d="M684.01,-110C692.53,-110 701.4,-110 709.67,-110"/>
<polygon fill="black" stroke="black" points="709.76,-113.5 719.76,-110 709.76,-106.5 709.76,-113.5"/>
</g>
<!-- 6159892432&#45;&gt;6158356048 -->
<g id="edge11" class="edge">
<title>6159892432&#45;&gt;6158356048</title>
<path fill="none" stroke="black" d="M2505.1,-31.11C2515.99,-32.85 2526.57,-34.54 2535.81,-36.02"/>
<polygon fill="black" stroke="black" points="2535.56,-39.52 2545.98,-37.64 2536.66,-32.61 2535.56,-39.52"/>
</g>
<!-- 6160065296 -->
<g id="node13" class="node">
<title>6160065296</title>
<polygon fill="none" stroke="black" points="921,-182 810,-182 810,-146 921,-146 921,-182"/>
<text text-anchor="middle" x="865.5" y="-160.9" font-family="Times,serif" font-size="12.00">Select date and time</text>
</g>
<!-- 6158367952&#45;&gt;6160065296 -->
<g id="edge15" class="edge">
<title>6158367952&#45;&gt;6160065296</title>
<path fill="none" stroke="black" d="M763.71,-117.28C777.27,-123.57 797.59,-132.98 816.43,-141.72"/>
<polygon fill="black" stroke="black" points="814.99,-144.91 825.53,-145.94 817.93,-138.56 814.99,-144.91"/>
</g>
<!-- 6154462864 -->
<g id="node14" class="node">
<title>6154462864</title>
<polygon fill="none" stroke="black" points="921,-128 810,-128 810,-92 921,-92 921,-128"/>
<text text-anchor="middle" x="865.5" y="-106.9" font-family="Times,serif" font-size="12.00">Select date and time</text>
</g>
<!-- 6158367952&#45;&gt;6154462864 -->
<g id="edge14" class="edge">
<title>6158367952&#45;&gt;6154462864</title>
<path fill="none" stroke="black" d="M774.14,-110C781.85,-110 790.64,-110 799.64,-110"/>
<polygon fill="black" stroke="black" points="799.85,-113.5 809.85,-110 799.85,-106.5 799.85,-113.5"/>
</g>
<!-- 6159434960 -->
<g id="node16" class="node">
<title>6159434960</title>
<polygon fill="none" stroke="black" points="1153,-182 1065,-182 1065,-146 1153,-146 1153,-182"/>
<text text-anchor="middle" x="1109" y="-160.9" font-family="Times,serif" font-size="12.00">Generate ticket</text>
</g>
<!-- 6160065296&#45;&gt;6159434960 -->
<g id="edge16" class="edge">
<title>6160065296&#45;&gt;6159434960</title>
<path fill="none" stroke="black" d="M921.3,-164C961.16,-164 1014.84,-164 1054.42,-164"/>
<polygon fill="black" stroke="black" points="1054.67,-167.5 1064.67,-164 1054.67,-160.5 1054.67,-167.5"/>
</g>
<!-- 6152862608 -->
<g id="node15" class="node">
<title>6152862608</title>
<polygon fill="none" stroke="black" points="1029,-128 957,-128 957,-92 1029,-92 1029,-128"/>
<text text-anchor="middle" x="993" y="-106.9" font-family="Times,serif" font-size="12.00">Select route</text>
</g>
<!-- 6154462864&#45;&gt;6152862608 -->
<g id="edge17" class="edge">
<title>6154462864&#45;&gt;6152862608</title>
<path fill="none" stroke="black" d="M921.18,-110C929.63,-110 938.29,-110 946.51,-110"/>
<polygon fill="black" stroke="black" points="946.65,-113.5 956.65,-110 946.65,-106.5 946.65,-113.5"/>
</g>
<!-- 6155023056 -->
<g id="node18" class="node">
<title>6155023056</title>
<polygon fill="none" stroke="black" points="1153,-128 1065,-128 1065,-92 1153,-92 1153,-128"/>
<text text-anchor="middle" x="1109" y="-106.9" font-family="Times,serif" font-size="12.00">Generate ticket</text>
</g>
<!-- 6152862608&#45;&gt;6155023056 -->
<g id="edge18" class="edge">
<title>6152862608&#45;&gt;6155023056</title>
<path fill="none" stroke="black" d="M1029.13,-110C1037.22,-110 1046,-110 1054.67,-110"/>
<polygon fill="black" stroke="black" points="1054.74,-113.5 1064.74,-110 1054.74,-106.5 1054.74,-113.5"/>
</g>
<!-- 6158367248 -->
<g id="node17" class="node">
<title>6158367248</title>
<polygon fill="none" stroke="black" points="1216,-128 1189,-110 1216,-92 1243,-110 1216,-128"/>
<text text-anchor="middle" x="1216" y="-106.9" font-family="Times,serif" font-size="12.00">X</text>
</g>
<!-- 6159434960&#45;&gt;6158367248 -->
<g id="edge19" class="edge">
<title>6159434960&#45;&gt;6158367248</title>
<path fill="none" stroke="black" d="M1145.26,-145.87C1160.31,-138.13 1177.49,-129.29 1191.03,-122.33"/>
<polygon fill="black" stroke="black" points="1192.88,-125.31 1200.17,-117.63 1189.68,-119.09 1192.88,-125.31"/>
</g>
<!-- 6160072144 -->
<g id="node19" class="node">
<title>6160072144</title>
<polygon fill="none" stroke="black" points="1409,-128 1279,-128 1279,-92 1409,-92 1409,-128"/>
<text text-anchor="middle" x="1344" y="-106.9" font-family="Times,serif" font-size="12.00">Provide payment details</text>
</g>
<!-- 6158367248&#45;&gt;6160072144 -->
<g id="edge21" class="edge">
<title>6158367248&#45;&gt;6160072144</title>
<path fill="none" stroke="black" d="M1243.11,-110C1250.84,-110 1259.71,-110 1268.91,-110"/>
<polygon fill="black" stroke="black" points="1268.98,-113.5 1278.98,-110 1268.98,-106.5 1268.98,-113.5"/>
</g>
<!-- 6155023056&#45;&gt;6158367248 -->
<g id="edge20" class="edge">
<title>6155023056&#45;&gt;6158367248</title>
<path fill="none" stroke="black" d="M1153.01,-110C1161.53,-110 1170.4,-110 1178.67,-110"/>
<polygon fill="black" stroke="black" points="1178.76,-113.5 1188.76,-110 1178.76,-106.5 1178.76,-113.5"/>
</g>
<!-- 6152858192 -->
<g id="node20" class="node">
<title>6152858192</title>
<polygon fill="none" stroke="black" points="1558,-128 1445,-128 1445,-92 1558,-92 1558,-128"/>
<text text-anchor="middle" x="1501.5" y="-106.9" font-family="Times,serif" font-size="12.00">Send ticket via SMS</text>
</g>
<!-- 6160072144&#45;&gt;6152858192 -->
<g id="edge22" class="edge">
<title>6160072144&#45;&gt;6152858192</title>
<path fill="none" stroke="black" d="M1409.15,-110C1417.59,-110 1426.26,-110 1434.73,-110"/>
<polygon fill="black" stroke="black" points="1434.94,-113.5 1444.94,-110 1434.94,-106.5 1434.94,-113.5"/>
</g>
<!-- 6158352528 -->
<g id="node21" class="node">
<title>6158352528</title>
<polygon fill="none" stroke="black" points="1692,-128 1594,-128 1594,-92 1692,-92 1692,-128"/>
<text text-anchor="middle" x="1643" y="-106.9" font-family="Times,serif" font-size="12.00">Send instructions</text>
</g>
<!-- 6152858192&#45;&gt;6158352528 -->
<g id="edge23" class="edge">
<title>6152858192&#45;&gt;6158352528</title>
<path fill="none" stroke="black" d="M1558.03,-110C1566.46,-110 1575.18,-110 1583.66,-110"/>
<polygon fill="black" stroke="black" points="1583.86,-113.5 1593.86,-110 1583.86,-106.5 1583.86,-113.5"/>
</g>
<!-- 6159924816 -->
<g id="node22" class="node">
<title>6159924816</title>
<polygon fill="none" stroke="black" points="1882,-128 1728,-128 1728,-92 1882,-92 1882,-128"/>
<text text-anchor="middle" x="1805" y="-106.9" font-family="Times,serif" font-size="12.00">Provide personal information</text>
</g>
<!-- 6158352528&#45;&gt;6159924816 -->
<g id="edge24" class="edge">
<title>6158352528&#45;&gt;6159924816</title>
<path fill="none" stroke="black" d="M1692.01,-110C1700.23,-110 1709,-110 1717.87,-110"/>
<polygon fill="black" stroke="black" points="1717.9,-113.5 1727.9,-110 1717.9,-106.5 1717.9,-113.5"/>
</g>
<!-- 6155021584 -->
<g id="node23" class="node">
<title>6155021584</title>
<polygon fill="none" stroke="black" points="2033,-128 1918,-128 1918,-92 2033,-92 2033,-128"/>
<text text-anchor="middle" x="1975.5" y="-106.9" font-family="Times,serif" font-size="12.00">Send ticket via email</text>
</g>
<!-- 6159924816&#45;&gt;6155021584 -->
<g id="edge25" class="edge">
<title>6159924816&#45;&gt;6155021584</title>
<path fill="none" stroke="black" d="M1882.36,-110C1890.69,-110 1899.12,-110 1907.32,-110"/>
<polygon fill="black" stroke="black" points="1907.57,-113.5 1917.57,-110 1907.57,-106.5 1907.57,-113.5"/>
</g>
<!-- 6158368592 -->
<g id="node24" class="node">
<title>6158368592</title>
<polygon fill="none" stroke="black" points="2096,-82 2069,-64 2096,-46 2123,-64 2096,-82"/>
<text text-anchor="middle" x="2096" y="-60.9" font-family="Times,serif" font-size="12.00">X</text>
</g>
<!-- 6155021584&#45;&gt;6158368592 -->
<g id="edge26" class="edge">
<title>6155021584&#45;&gt;6158368592</title>
<path fill="none" stroke="black" d="M2022.99,-91.95C2038.6,-85.89 2055.44,-79.36 2068.91,-74.13"/>
<polygon fill="black" stroke="black" points="2070.42,-77.29 2078.48,-70.41 2067.89,-70.77 2070.42,-77.29"/>
</g>
<!-- 6158368592&#45;&gt;6158362704 -->
<g id="edge27" class="edge">
<title>6158368592&#45;&gt;6158362704</title>
<path fill="none" stroke="black" d="M2068.7,-64C2017.92,-64 1902.84,-64 1806,-64 499,-64 499,-64 499,-64 400.27,-64 283.79,-64 226.11,-64"/>
<polygon fill="black" stroke="black" points="226.04,-60.5 216.04,-64 226.04,-67.5 226.04,-60.5"/>
</g>
<!-- 6158368592&#45;&gt;6158363472 -->
<g id="edge28" class="edge">
<title>6158368592&#45;&gt;6158363472</title>
<path fill="none" stroke="black" d="M2116.09,-59.01C2127.82,-55.94 2143.07,-51.96 2156.24,-48.52"/>
<polygon fill="black" stroke="black" points="2157.45,-51.82 2166.24,-45.9 2155.68,-45.04 2157.45,-51.82"/>
</g>
</g>
</svg>
