<?xml version="1.0" encoding="UTF-8" standalone="no"?>
<!DOCTYPE svg PUBLIC "-//W3C//DTD SVG 1.1//EN"
 "http://www.w3.org/Graphics/SVG/1.1/DTD/svg11.dtd">
<!-- Generated by graphviz version 2.50.0 (0)
 -->
<!-- Pages: 1 -->
<svg width="3203pt" height="236pt"
 viewBox="0.00 0.00 3203.00 236.00" xmlns="http://www.w3.org/2000/svg" xmlns:xlink="http://www.w3.org/1999/xlink">
<g id="graph0" class="graph" transform="scale(1 1) rotate(0) translate(4 232)">
<polygon fill="white" stroke="transparent" points="-4,4 -4,-232 3199,-232 3199,4 -4,4"/>
<!-- 6414192720 -->
<g id="node1" class="node">
<title>6414192720</title>
<ellipse fill="green" stroke="black" cx="18" cy="-133" rx="18" ry="18"/>
</g>
<!-- 6414405264 -->
<g id="node2" class="node">
<title>6414405264</title>
<polygon fill="none" stroke="black" points="99,-151 72,-133 99,-115 126,-133 99,-151"/>
<text text-anchor="middle" x="99" y="-129.9" font-family="Times,serif" font-size="12.00">X</text>
</g>
<!-- 6414192720&#45;&gt;6414405264 -->
<g id="edge1" class="edge">
<title>6414192720&#45;&gt;6414405264</title>
<path fill="none" stroke="black" d="M36.14,-133C43.64,-133 52.75,-133 61.64,-133"/>
<polygon fill="black" stroke="black" points="61.87,-136.5 71.87,-133 61.87,-129.5 61.87,-136.5"/>
</g>
<!-- 6414411280 -->
<g id="node3" class="node">
<title>6414411280</title>
<polygon fill="none" stroke="black" points="314,-174 162,-174 162,-138 314,-138 314,-174"/>
<text text-anchor="middle" x="238" y="-152.9" font-family="Times,serif" font-size="12.00">Customer completes journey</text>
</g>
<!-- 6414405264&#45;&gt;6414411280 -->
<g id="edge2" class="edge">
<title>6414405264&#45;&gt;6414411280</title>
<path fill="none" stroke="black" d="M120.81,-136.49C129.49,-137.95 140.21,-139.75 151.58,-141.66"/>
<polygon fill="black" stroke="black" points="151.28,-145.16 161.72,-143.36 152.44,-138.25 151.28,-145.16"/>
</g>
<!-- 6414416784 -->
<g id="node4" class="node">
<title>6414416784</title>
<polygon fill="none" stroke="black" points="377,-174 350,-156 377,-138 404,-156 377,-174"/>
<text text-anchor="middle" x="377" y="-152.9" font-family="Times,serif" font-size="12.00">X</text>
</g>
<!-- 6414411280&#45;&gt;6414416784 -->
<g id="edge3" class="edge">
<title>6414411280&#45;&gt;6414416784</title>
<path fill="none" stroke="black" d="M314.31,-156C323.22,-156 331.97,-156 339.96,-156"/>
<polygon fill="black" stroke="black" points="339.96,-159.5 349.96,-156 339.96,-152.5 339.96,-159.5"/>
</g>
<!-- 6414405712 -->
<g id="node5" class="node">
<title>6414405712</title>
<polygon fill="none" stroke="black" points="467,-174 440,-156 467,-138 494,-156 467,-174"/>
<text text-anchor="middle" x="467" y="-152.9" font-family="Times,serif" font-size="12.00">X</text>
</g>
<!-- 6414416784&#45;&gt;6414405712 -->
<g id="edge4" class="edge">
<title>6414416784&#45;&gt;6414405712</title>
<path fill="none" stroke="black" d="M404.4,-156C412.39,-156 421.31,-156 429.82,-156"/>
<polygon fill="black" stroke="black" points="429.92,-159.5 439.92,-156 429.92,-152.5 429.92,-159.5"/>
</g>
<!-- 6413469456 -->
<g id="node31" class="node">
<title>6413469456</title>
<ellipse fill="orange" stroke="black" cx="467" cy="-210" rx="18" ry="18"/>
</g>
<!-- 6414416784&#45;&gt;6413469456 -->
<g id="edge5" class="edge">
<title>6414416784&#45;&gt;6413469456</title>
<path fill="none" stroke="black" d="M391.75,-164.44C405.25,-172.72 426.1,-185.52 442.28,-195.44"/>
<polygon fill="black" stroke="black" points="440.82,-198.65 451.17,-200.9 444.48,-192.69 440.82,-198.65"/>
</g>
<!-- 6414412560 -->
<g id="node6" class="node">
<title>6414412560</title>
<polygon fill="none" stroke="black" points="616,-174 530,-174 530,-138 616,-138 616,-174"/>
<text text-anchor="middle" x="573" y="-152.9" font-family="Times,serif" font-size="12.00">Send reminder</text>
</g>
<!-- 6414405712&#45;&gt;6414412560 -->
<g id="edge6" class="edge">
<title>6414405712&#45;&gt;6414412560</title>
<path fill="none" stroke="black" d="M494.24,-156C502.11,-156 511.04,-156 519.96,-156"/>
<polygon fill="black" stroke="black" points="519.98,-159.5 529.98,-156 519.98,-152.5 519.98,-159.5"/>
</g>
<!-- 6413417168 -->
<g id="node7" class="node">
<title>6413417168</title>
<polygon fill="none" stroke="black" points="802,-174 652,-174 652,-138 802,-138 802,-174"/>
<text text-anchor="middle" x="727" y="-152.9" font-family="Times,serif" font-size="12.00">Customer searches for ticket</text>
</g>
<!-- 6414412560&#45;&gt;6413417168 -->
<g id="edge7" class="edge">
<title>6414412560&#45;&gt;6413417168</title>
<path fill="none" stroke="black" d="M616.34,-156C624.3,-156 632.87,-156 641.59,-156"/>
<polygon fill="black" stroke="black" points="641.87,-159.5 651.87,-156 641.87,-152.5 641.87,-159.5"/>
</g>
<!-- 6413405328 -->
<g id="node8" class="node">
<title>6413405328</title>
<polygon fill="none" stroke="black" points="958,-174 838,-174 838,-138 958,-138 958,-174"/>
<text text-anchor="middle" x="898" y="-152.9" font-family="Times,serif" font-size="12.00">Update seat inventory</text>
</g>
<!-- 6413417168&#45;&gt;6413405328 -->
<g id="edge8" class="edge">
<title>6413417168&#45;&gt;6413405328</title>
<path fill="none" stroke="black" d="M802.13,-156C810.64,-156 819.29,-156 827.74,-156"/>
<polygon fill="black" stroke="black" points="827.91,-159.5 837.91,-156 827.91,-152.5 827.91,-159.5"/>
</g>
<!-- 6414411088 -->
<g id="node9" class="node">
<title>6414411088</title>
<polygon fill="none" stroke="black" points="1082,-174 994,-174 994,-138 1082,-138 1082,-174"/>
<text text-anchor="middle" x="1038" y="-152.9" font-family="Times,serif" font-size="12.00">Generate ticket</text>
</g>
<!-- 6413405328&#45;&gt;6414411088 -->
<g id="edge9" class="edge">
<title>6413405328&#45;&gt;6414411088</title>
<path fill="none" stroke="black" d="M958.33,-156C966.84,-156 975.56,-156 983.95,-156"/>
<polygon fill="black" stroke="black" points="983.97,-159.5 993.97,-156 983.97,-152.5 983.97,-159.5"/>
</g>
<!-- 6413414992 -->
<g id="node10" class="node">
<title>6413414992</title>
<polygon fill="none" stroke="black" points="1206,-174 1118,-174 1118,-138 1206,-138 1206,-174"/>
<text text-anchor="middle" x="1162" y="-152.9" font-family="Times,serif" font-size="12.00">Generate ticket</text>
</g>
<!-- 6414411088&#45;&gt;6413414992 -->
<g id="edge10" class="edge">
<title>6414411088&#45;&gt;6413414992</title>
<path fill="none" stroke="black" d="M1082.01,-156C1090.4,-156 1099.28,-156 1107.94,-156"/>
<polygon fill="black" stroke="black" points="1107.96,-159.5 1117.96,-156 1107.96,-152.5 1107.96,-159.5"/>
</g>
<!-- 6414405968 -->
<g id="node11" class="node">
<title>6414405968</title>
<polygon fill="none" stroke="black" points="1269,-132 1242,-114 1269,-96 1296,-114 1269,-132"/>
<text text-anchor="middle" x="1269" y="-110.9" font-family="Times,serif" font-size="12.00">X</text>
</g>
<!-- 6413414992&#45;&gt;6414405968 -->
<g id="edge11" class="edge">
<title>6413414992&#45;&gt;6414405968</title>
<path fill="none" stroke="black" d="M1206.01,-138.8C1218.33,-133.87 1231.36,-128.66 1242.28,-124.29"/>
<polygon fill="black" stroke="black" points="1243.65,-127.51 1251.64,-120.54 1241.05,-121.01 1243.65,-127.51"/>
</g>
<!-- 6414405968&#45;&gt;6414405264 -->
<g id="edge12" class="edge">
<title>6414405968&#45;&gt;6414405264</title>
<path fill="none" stroke="black" d="M1242.93,-113.28C1200.8,-112.12 1113.16,-110 1039,-110 376,-110 376,-110 376,-110 287.34,-110 183.22,-121.93 131.9,-128.61"/>
<polygon fill="black" stroke="black" points="131.23,-125.17 121.77,-129.95 132.15,-132.1 131.23,-125.17"/>
</g>
<!-- 6411518800 -->
<g id="node12" class="node">
<title>6411518800</title>
<polygon fill="none" stroke="black" points="1359,-132 1332,-114 1359,-96 1386,-114 1359,-132"/>
<text text-anchor="middle" x="1359" y="-110.9" font-family="Times,serif" font-size="12.00">+</text>
</g>
<!-- 6414405968&#45;&gt;6411518800 -->
<g id="edge13" class="edge">
<title>6414405968&#45;&gt;6411518800</title>
<path fill="none" stroke="black" d="M1296.4,-114C1304.39,-114 1313.31,-114 1321.82,-114"/>
<polygon fill="black" stroke="black" points="1321.92,-117.5 1331.92,-114 1321.92,-110.5 1321.92,-117.5"/>
</g>
<!-- 6414414416 -->
<g id="node13" class="node">
<title>6414414416</title>
<polygon fill="none" stroke="black" points="1449,-136 1422,-118 1449,-100 1476,-118 1449,-136"/>
<text text-anchor="middle" x="1449" y="-114.9" font-family="Times,serif" font-size="12.00">X</text>
</g>
<!-- 6411518800&#45;&gt;6414414416 -->
<g id="edge14" class="edge">
<title>6411518800&#45;&gt;6414414416</title>
<path fill="none" stroke="black" d="M1384.51,-115.11C1393.48,-115.52 1403.79,-115.99 1413.47,-116.43"/>
<polygon fill="black" stroke="black" points="1413.47,-119.93 1423.62,-116.89 1413.79,-112.94 1413.47,-119.93"/>
</g>
<!-- 6414407760 -->
<g id="node14" class="node">
<title>6414407760</title>
<polygon fill="none" stroke="black" points="1449,-82 1422,-64 1449,-46 1476,-64 1449,-82"/>
<text text-anchor="middle" x="1449" y="-60.9" font-family="Times,serif" font-size="12.00">X</text>
</g>
<!-- 6411518800&#45;&gt;6414407760 -->
<g id="edge15" class="edge">
<title>6411518800&#45;&gt;6414407760</title>
<path fill="none" stroke="black" d="M1374.14,-105.97C1387.87,-98.17 1408.94,-86.2 1425.06,-77.03"/>
<polygon fill="black" stroke="black" points="1426.93,-80 1433.9,-72.01 1423.47,-73.91 1426.93,-80"/>
</g>
<!-- 6414414736 -->
<g id="node15" class="node">
<title>6414414736</title>
<polygon fill="none" stroke="black" points="1769.5,-174 1742.5,-156 1769.5,-138 1796.5,-156 1769.5,-174"/>
<text text-anchor="middle" x="1769.5" y="-152.9" font-family="Times,serif" font-size="12.00">X</text>
</g>
<!-- 6414414416&#45;&gt;6414414736 -->
<g id="edge16" class="edge">
<title>6414414416&#45;&gt;6414414736</title>
<path fill="none" stroke="black" d="M1464.26,-126.02C1476.5,-132.45 1494.84,-141.04 1512,-145 1590.29,-163.07 1685.51,-161.14 1735,-158.42"/>
<polygon fill="black" stroke="black" points="1735.35,-161.91 1745.13,-157.82 1734.94,-154.92 1735.35,-161.91"/>
</g>
<!-- 6413418768 -->
<g id="node17" class="node">
<title>6413418768</title>
<polygon fill="none" stroke="black" points="1678,-136 1512,-136 1512,-100 1678,-100 1678,-136"/>
<text text-anchor="middle" x="1595" y="-114.9" font-family="Times,serif" font-size="12.00">Post&#45;travel feedback or services</text>
</g>
<!-- 6414414416&#45;&gt;6413418768 -->
<g id="edge17" class="edge">
<title>6414414416&#45;&gt;6413418768</title>
<path fill="none" stroke="black" d="M1476.08,-118C1483.64,-118 1492.35,-118 1501.56,-118"/>
<polygon fill="black" stroke="black" points="1501.7,-121.5 1511.7,-118 1501.7,-114.5 1501.7,-121.5"/>
</g>
<!-- 6413402192 -->
<g id="node16" class="node">
<title>6413402192</title>
<polygon fill="none" stroke="black" points="1639,-82 1551,-82 1551,-46 1639,-46 1639,-82"/>
<text text-anchor="middle" x="1595" y="-60.9" font-family="Times,serif" font-size="12.00">Generate ticket</text>
</g>
<!-- 6414407760&#45;&gt;6413402192 -->
<g id="edge19" class="edge">
<title>6414407760&#45;&gt;6413402192</title>
<path fill="none" stroke="black" d="M1476.08,-64C1494.06,-64 1518.6,-64 1540.64,-64"/>
<polygon fill="black" stroke="black" points="1540.88,-67.5 1550.88,-64 1540.88,-60.5 1540.88,-67.5"/>
</g>
<!-- 6413408848 -->
<g id="node18" class="node">
<title>6413408848</title>
<polygon fill="none" stroke="black" points="2117,-36 1951,-36 1951,0 2117,0 2117,-36"/>
<text text-anchor="middle" x="2034" y="-14.9" font-family="Times,serif" font-size="12.00">Post&#45;travel feedback or services</text>
</g>
<!-- 6414407760&#45;&gt;6413408848 -->
<g id="edge18" class="edge">
<title>6414407760&#45;&gt;6413408848</title>
<path fill="none" stroke="black" d="M1464.25,-55.95C1476.49,-49.5 1494.83,-40.9 1512,-37 1658.91,-3.59 1835.05,-5.6 1940.29,-11.09"/>
<polygon fill="black" stroke="black" points="1940.39,-14.6 1950.56,-11.65 1940.77,-7.61 1940.39,-14.6"/>
</g>
<!-- 6413410384 -->
<g id="node20" class="node">
<title>6413410384</title>
<polygon fill="none" stroke="black" points="2268,-174 2153,-174 2153,-138 2268,-138 2268,-174"/>
<text text-anchor="middle" x="2210.5" y="-152.9" font-family="Times,serif" font-size="12.00">Send ticket via email</text>
</g>
<!-- 6414414736&#45;&gt;6413410384 -->
<g id="edge21" class="edge">
<title>6414414736&#45;&gt;6413410384</title>
<path fill="none" stroke="black" d="M1796.65,-156C1863.77,-156 2043.79,-156 2142.5,-156"/>
<polygon fill="black" stroke="black" points="2142.66,-159.5 2152.66,-156 2142.66,-152.5 2142.66,-159.5"/>
</g>
<!-- 6413419152 -->
<g id="node21" class="node">
<title>6413419152</title>
<polygon fill="none" stroke="black" points="1825,-86 1714,-86 1714,-50 1825,-50 1825,-86"/>
<text text-anchor="middle" x="1769.5" y="-64.9" font-family="Times,serif" font-size="12.00">Select date and time</text>
</g>
<!-- 6413402192&#45;&gt;6413419152 -->
<g id="edge22" class="edge">
<title>6413402192&#45;&gt;6413419152</title>
<path fill="none" stroke="black" d="M1639.08,-65C1658.64,-65.45 1682.18,-66 1703.8,-66.5"/>
<polygon fill="black" stroke="black" points="1703.82,-70 1713.9,-66.73 1703.98,-63 1703.82,-70"/>
</g>
<!-- 6413418768&#45;&gt;6414414736 -->
<g id="edge20" class="edge">
<title>6413418768&#45;&gt;6414414736</title>
<path fill="none" stroke="black" d="M1677.96,-136.05C1699.84,-140.87 1722.09,-145.78 1739.06,-149.52"/>
<polygon fill="black" stroke="black" points="1738.38,-152.95 1748.9,-151.68 1739.88,-146.11 1738.38,-152.95"/>
</g>
<!-- 6414406544 -->
<g id="node19" class="node">
<title>6414406544</title>
<polygon fill="none" stroke="black" points="2331,-111 2304,-93 2331,-75 2358,-93 2331,-111"/>
<text text-anchor="middle" x="2331" y="-89.9" font-family="Times,serif" font-size="12.00">X</text>
</g>
<!-- 6413408848&#45;&gt;6414406544 -->
<g id="edge23" class="edge">
<title>6413408848&#45;&gt;6414406544</title>
<path fill="none" stroke="black" d="M2117.21,-30.64C2162.31,-38.64 2218.89,-50.43 2268,-66 2280.81,-70.06 2294.56,-75.89 2305.85,-81.09"/>
<polygon fill="black" stroke="black" points="2304.51,-84.33 2315.05,-85.44 2307.51,-78 2304.51,-84.33"/>
</g>
<!-- 6413424080 -->
<g id="node23" class="node">
<title>6413424080</title>
<polygon fill="none" stroke="black" points="2466,-121 2394,-121 2394,-85 2466,-85 2466,-121"/>
<text text-anchor="middle" x="2430" y="-99.9" font-family="Times,serif" font-size="12.00">Select route</text>
</g>
<!-- 6414406544&#45;&gt;6413424080 -->
<g id="edge24" class="edge">
<title>6414406544&#45;&gt;6413424080</title>
<path fill="none" stroke="black" d="M2354.99,-95.37C2363.55,-96.25 2373.6,-97.29 2383.49,-98.31"/>
<polygon fill="black" stroke="black" points="2383.35,-101.81 2393.66,-99.36 2384.07,-94.85 2383.35,-101.81"/>
</g>
<!-- 6413416528 -->
<g id="node24" class="node">
<title>6413416528</title>
<polygon fill="none" stroke="black" points="3168,-174 3141,-156 3168,-138 3195,-156 3168,-174"/>
<text text-anchor="middle" x="3168" y="-152.9" font-family="Times,serif" font-size="12.00">+</text>
</g>
<!-- 6413410384&#45;&gt;6413416528 -->
<g id="edge25" class="edge">
<title>6413410384&#45;&gt;6413416528</title>
<path fill="none" stroke="black" d="M2268.29,-156C2312.17,-156 2374.44,-156 2429,-156 2429,-156 2429,-156 2867,-156 2962.17,-156 3074.32,-156 3130.72,-156"/>
<polygon fill="black" stroke="black" points="3130.92,-159.5 3140.92,-156 3130.92,-152.5 3130.92,-159.5"/>
</g>
<!-- 6414406864 -->
<g id="node22" class="node">
<title>6414406864</title>
<polygon fill="none" stroke="black" points="1888,-90 1861,-72 1888,-54 1915,-72 1888,-90"/>
<text text-anchor="middle" x="1888" y="-68.9" font-family="Times,serif" font-size="12.00">X</text>
</g>
<!-- 6413419152&#45;&gt;6414406864 -->
<g id="edge26" class="edge">
<title>6413419152&#45;&gt;6414406864</title>
<path fill="none" stroke="black" d="M1825.34,-69.88C1834.38,-70.19 1843.54,-70.51 1851.93,-70.8"/>
<polygon fill="black" stroke="black" points="1851.97,-74.3 1862.08,-71.14 1852.21,-67.3 1851.97,-74.3"/>
</g>
<!-- 6414414928 -->
<g id="node25" class="node">
<title>6414414928</title>
<polygon fill="none" stroke="black" points="2210.5,-111 2183.5,-93 2210.5,-75 2237.5,-93 2210.5,-111"/>
<text text-anchor="middle" x="2210.5" y="-89.9" font-family="Times,serif" font-size="12.00">X</text>
</g>
<!-- 6414406864&#45;&gt;6414414928 -->
<g id="edge29" class="edge">
<title>6414406864&#45;&gt;6414414928</title>
<path fill="none" stroke="black" d="M1903.22,-80.21C1915.44,-86.76 1933.76,-95.41 1951,-99 2031.86,-115.84 2130.03,-105.37 2178.85,-98.15"/>
<polygon fill="black" stroke="black" points="2179.42,-101.61 2188.77,-96.63 2178.35,-94.69 2179.42,-101.61"/>
</g>
<!-- 6413423632 -->
<g id="node27" class="node">
<title>6413423632</title>
<polygon fill="none" stroke="black" points="2117,-90 1951,-90 1951,-54 2117,-54 2117,-90"/>
<text text-anchor="middle" x="2034" y="-68.9" font-family="Times,serif" font-size="12.00">Post&#45;travel feedback or services</text>
</g>
<!-- 6414406864&#45;&gt;6413423632 -->
<g id="edge28" class="edge">
<title>6414406864&#45;&gt;6413423632</title>
<path fill="none" stroke="black" d="M1915.08,-72C1922.64,-72 1931.35,-72 1940.56,-72"/>
<polygon fill="black" stroke="black" points="1940.7,-75.5 1950.7,-72 1940.7,-68.5 1940.7,-75.5"/>
</g>
<!-- 6413404304 -->
<g id="node26" class="node">
<title>6413404304</title>
<polygon fill="none" stroke="black" points="2632,-125 2502,-125 2502,-89 2632,-89 2632,-125"/>
<text text-anchor="middle" x="2567" y="-103.9" font-family="Times,serif" font-size="12.00">Provide payment details</text>
</g>
<!-- 6413424080&#45;&gt;6413404304 -->
<g id="edge30" class="edge">
<title>6413424080&#45;&gt;6413404304</title>
<path fill="none" stroke="black" d="M2466.12,-104.04C2474.06,-104.28 2482.8,-104.53 2491.69,-104.8"/>
<polygon fill="black" stroke="black" points="2491.66,-108.3 2501.76,-105.1 2491.87,-101.3 2491.66,-108.3"/>
</g>
<!-- 6413416528&#45;&gt;6414405712 -->
<g id="edge27" class="edge">
<title>6413416528&#45;&gt;6414405712</title>
<path fill="none" stroke="black" d="M3148.2,-160.92C3101.17,-172.79 2974.49,-202 2867,-202 726,-202 726,-202 726,-202 638.48,-202 614.72,-204.96 530,-183 516.99,-179.63 503.22,-173.87 491.97,-168.54"/>
<polygon fill="black" stroke="black" points="493.33,-165.31 482.81,-164.03 490.24,-171.59 493.33,-165.31"/>
</g>
<!-- 6414414928&#45;&gt;6414406544 -->
<g id="edge31" class="edge">
<title>6414414928&#45;&gt;6414406544</title>
<path fill="none" stroke="black" d="M2237.51,-93C2253.91,-93 2275.34,-93 2293.44,-93"/>
<polygon fill="black" stroke="black" points="2293.65,-96.5 2303.65,-93 2293.65,-89.5 2293.65,-96.5"/>
</g>
<!-- 6414555024 -->
<g id="node28" class="node">
<title>6414555024</title>
<polygon fill="none" stroke="black" points="2781,-127 2668,-127 2668,-91 2781,-91 2781,-127"/>
<text text-anchor="middle" x="2724.5" y="-105.9" font-family="Times,serif" font-size="12.00">Send ticket via SMS</text>
</g>
<!-- 6413404304&#45;&gt;6414555024 -->
<g id="edge33" class="edge">
<title>6413404304&#45;&gt;6414555024</title>
<path fill="none" stroke="black" d="M2632.15,-107.83C2640.59,-107.93 2649.26,-108.05 2657.73,-108.15"/>
<polygon fill="black" stroke="black" points="2657.9,-111.66 2667.94,-108.29 2657.99,-104.66 2657.9,-111.66"/>
</g>
<!-- 6413423632&#45;&gt;6414414928 -->
<g id="edge32" class="edge">
<title>6413423632&#45;&gt;6414414928</title>
<path fill="none" stroke="black" d="M2117.14,-81.89C2138.52,-84.46 2160.3,-87.08 2177.34,-89.13"/>
<polygon fill="black" stroke="black" points="2176.95,-92.61 2187.29,-90.33 2177.78,-85.66 2176.95,-92.61"/>
</g>
<!-- 6413407760 -->
<g id="node29" class="node">
<title>6413407760</title>
<polygon fill="none" stroke="black" points="2915,-128 2817,-128 2817,-92 2915,-92 2915,-128"/>
<text text-anchor="middle" x="2866" y="-106.9" font-family="Times,serif" font-size="12.00">Send instructions</text>
</g>
<!-- 6414555024&#45;&gt;6413407760 -->
<g id="edge34" class="edge">
<title>6414555024&#45;&gt;6413407760</title>
<path fill="none" stroke="black" d="M2781.03,-109.4C2789.46,-109.46 2798.18,-109.52 2806.66,-109.58"/>
<polygon fill="black" stroke="black" points="2806.84,-113.08 2816.86,-109.65 2806.89,-106.08 2806.84,-113.08"/>
</g>
<!-- 6414580624 -->
<g id="node30" class="node">
<title>6414580624</title>
<polygon fill="none" stroke="black" points="3105,-128 2951,-128 2951,-92 3105,-92 3105,-128"/>
<text text-anchor="middle" x="3028" y="-106.9" font-family="Times,serif" font-size="12.00">Provide personal information</text>
</g>
<!-- 6413407760&#45;&gt;6414580624 -->
<g id="edge35" class="edge">
<title>6413407760&#45;&gt;6414580624</title>
<path fill="none" stroke="black" d="M2915.01,-110C2923.23,-110 2932,-110 2940.87,-110"/>
<polygon fill="black" stroke="black" points="2940.9,-113.5 2950.9,-110 2940.9,-106.5 2940.9,-113.5"/>
</g>
<!-- 6414580624&#45;&gt;6413416528 -->
<g id="edge36" class="edge">
<title>6414580624&#45;&gt;6413416528</title>
<path fill="none" stroke="black" d="M3083.15,-128.05C3102.47,-134.49 3123.43,-141.48 3139.56,-146.85"/>
<polygon fill="black" stroke="black" points="3138.8,-150.29 3149.4,-150.13 3141.02,-143.65 3138.8,-150.29"/>
</g>
</g>
</svg>
