<?xml version="1.0" encoding="UTF-8" standalone="no"?>
<!DOCTYPE svg PUBLIC "-//W3C//DTD SVG 1.1//EN"
 "http://www.w3.org/Graphics/SVG/1.1/DTD/svg11.dtd">
<!-- Generated by graphviz version 11.0.0 (20240428.1522)
 -->
<!-- Pages: 1 -->
<svg width="1758pt" height="98pt"
 viewBox="0.00 0.00 1758.00 98.00" xmlns="http://www.w3.org/2000/svg" xmlns:xlink="http://www.w3.org/1999/xlink">
<g id="graph0" class="graph" transform="scale(1 1) rotate(0) translate(4 94)">
<polygon fill="white" stroke="none" points="-4,4 -4,-94 1754,-94 1754,4 -4,4"/>
<!-- 2592514324912 -->
<g id="node1" class="node">
<title>2592514324912</title>
<ellipse fill="green" stroke="black" cx="18" cy="-45" rx="18" ry="18"/>
</g>
<!-- 2592514320304 -->
<g id="node2" class="node">
<title>2592514320304</title>
<polygon fill="none" stroke="black" points="208.75,-63 72,-63 72,-27 208.75,-27 208.75,-63"/>
<text text-anchor="middle" x="140.38" y="-39.98" font-family="Times New Roman,serif" font-size="12.00">Receive customer inquiry</text>
</g>
<!-- 2592514324912&#45;&gt;2592514320304 -->
<g id="edge1" class="edge">
<title>2592514324912&#45;&gt;2592514320304</title>
<path fill="none" stroke="black" d="M36.25,-45C43.09,-45 51.47,-45 60.48,-45"/>
<polygon fill="black" stroke="black" points="60.19,-48.5 70.19,-45 60.19,-41.5 60.19,-48.5"/>
</g>
<!-- 2592514318192 -->
<g id="node3" class="node">
<title>2592514318192</title>
<polygon fill="none" stroke="black" points="271.75,-63 244.75,-45 271.75,-27 298.75,-45 271.75,-63"/>
<text text-anchor="middle" x="271.75" y="-39.98" font-family="Times New Roman,serif" font-size="12.00">+</text>
</g>
<!-- 2592514320304&#45;&gt;2592514318192 -->
<g id="edge2" class="edge">
<title>2592514320304&#45;&gt;2592514318192</title>
<path fill="none" stroke="black" d="M209.09,-45C217.1,-45 225.05,-45 232.44,-45"/>
<polygon fill="black" stroke="black" points="232.38,-48.5 242.38,-45 232.38,-41.5 232.38,-48.5"/>
</g>
<!-- 2592514321072 -->
<g id="node4" class="node">
<title>2592514321072</title>
<polygon fill="none" stroke="black" points="514.25,-90 361,-90 361,-54 514.25,-54 514.25,-90"/>
<text text-anchor="middle" x="437.62" y="-66.97" font-family="Times New Roman,serif" font-size="12.00">Collect customer information</text>
</g>
<!-- 2592514318192&#45;&gt;2592514321072 -->
<g id="edge3" class="edge">
<title>2592514318192&#45;&gt;2592514321072</title>
<path fill="none" stroke="black" d="M294.17,-48.53C308.66,-50.92 328.85,-54.24 349.48,-57.64"/>
<polygon fill="black" stroke="black" points="348.69,-61.06 359.13,-59.23 349.83,-54.15 348.69,-61.06"/>
</g>
<!-- 2592514321792 -->
<g id="node5" class="node">
<title>2592514321792</title>
<polygon fill="none" stroke="black" points="540.5,-36 334.75,-36 334.75,0 540.5,0 540.5,-36"/>
<text text-anchor="middle" x="437.62" y="-12.97" font-family="Times New Roman,serif" font-size="12.00">Address customer concerns or questions</text>
</g>
<!-- 2592514318192&#45;&gt;2592514321792 -->
<g id="edge4" class="edge">
<title>2592514318192&#45;&gt;2592514321792</title>
<path fill="none" stroke="black" d="M294.17,-41.47C302.37,-40.12 312.4,-38.47 323.3,-36.67"/>
<polygon fill="black" stroke="black" points="323.66,-40.16 332.96,-35.08 322.52,-33.25 323.66,-40.16"/>
</g>
<!-- 2592514320160 -->
<g id="node6" class="node">
<title>2592514320160</title>
<polygon fill="none" stroke="black" points="603.5,-63 576.5,-45 603.5,-27 630.5,-45 603.5,-63"/>
<text text-anchor="middle" x="603.5" y="-39.98" font-family="Times New Roman,serif" font-size="12.00">+</text>
</g>
<!-- 2592514321072&#45;&gt;2592514320160 -->
<g id="edge5" class="edge">
<title>2592514321072&#45;&gt;2592514320160</title>
<path fill="none" stroke="black" d="M514.33,-59.53C534.03,-56.28 554.22,-52.95 570.3,-50.31"/>
<polygon fill="black" stroke="black" points="570.42,-53.83 579.72,-48.75 569.29,-46.93 570.42,-53.83"/>
</g>
<!-- 2592514321792&#45;&gt;2592514320160 -->
<g id="edge6" class="edge">
<title>2592514321792&#45;&gt;2592514320160</title>
<path fill="none" stroke="black" d="M540.55,-34.79C551.02,-36.52 561.02,-38.17 569.83,-39.62"/>
<polygon fill="black" stroke="black" points="569.08,-43.04 579.52,-41.21 570.22,-36.13 569.08,-43.04"/>
</g>
<!-- 2592514319920 -->
<g id="node7" class="node">
<title>2592514319920</title>
<polygon fill="none" stroke="black" points="693.5,-63 666.5,-45 693.5,-27 720.5,-45 693.5,-63"/>
<text text-anchor="middle" x="693.5" y="-39.98" font-family="Times New Roman,serif" font-size="12.00">X</text>
</g>
<!-- 2592514320160&#45;&gt;2592514319920 -->
<g id="edge7" class="edge">
<title>2592514320160&#45;&gt;2592514319920</title>
<path fill="none" stroke="black" d="M631.38,-45C638.63,-45 646.62,-45 654.35,-45"/>
<polygon fill="black" stroke="black" points="654.27,-48.5 664.27,-45 654.27,-41.5 654.27,-48.5"/>
</g>
<!-- 2592514319680 -->
<g id="node8" class="node">
<title>2592514319680</title>
<polygon fill="none" stroke="black" points="1651,-63 1624,-45 1651,-27 1678,-45 1651,-63"/>
<text text-anchor="middle" x="1651" y="-39.98" font-family="Times New Roman,serif" font-size="12.00">X</text>
</g>
<!-- 2592514319920&#45;&gt;2592514319680 -->
<g id="edge9" class="edge">
<title>2592514319920&#45;&gt;2592514319680</title>
<path fill="none" stroke="black" d="M717.23,-47.46C774.05,-53.39 926.9,-68 1054.75,-68 1054.75,-68 1054.75,-68 1301.75,-68 1417.3,-68 1553.96,-55.24 1616.15,-48.73"/>
<polygon fill="black" stroke="black" points="1616.14,-52.25 1625.71,-47.71 1615.4,-45.28 1616.14,-52.25"/>
</g>
<!-- 2592514322128 -->
<g id="node9" class="node">
<title>2592514322128</title>
<polygon fill="none" stroke="black" points="978.75,-40 756.5,-40 756.5,-4 978.75,-4 978.75,-40"/>
<text text-anchor="middle" x="867.62" y="-16.98" font-family="Times New Roman,serif" font-size="12.00">Guide customer in selecting product/service</text>
</g>
<!-- 2592514319920&#45;&gt;2592514322128 -->
<g id="edge8" class="edge">
<title>2592514319920&#45;&gt;2592514322128</title>
<path fill="none" stroke="black" d="M716.65,-42.04C724.67,-40.97 734.38,-39.67 744.97,-38.26"/>
<polygon fill="black" stroke="black" points="745.34,-41.74 754.79,-36.94 744.41,-34.8 745.34,-41.74"/>
</g>
<!-- 2592514325008 -->
<g id="node14" class="node">
<title>2592514325008</title>
<ellipse fill="orange" stroke="black" cx="1732" cy="-45" rx="18" ry="18"/>
</g>
<!-- 2592514319680&#45;&gt;2592514325008 -->
<g id="edge11" class="edge">
<title>2592514319680&#45;&gt;2592514325008</title>
<path fill="none" stroke="black" d="M1678.75,-45C1686.38,-45 1694.73,-45 1702.47,-45"/>
<polygon fill="black" stroke="black" points="1702.43,-48.5 1712.43,-45 1702.43,-41.5 1702.43,-48.5"/>
</g>
<!-- 2592514320736 -->
<g id="node10" class="node">
<title>2592514320736</title>
<polygon fill="none" stroke="black" points="1096.75,-40 1014.75,-40 1014.75,-4 1096.75,-4 1096.75,-40"/>
<text text-anchor="middle" x="1055.75" y="-16.98" font-family="Times New Roman,serif" font-size="12.00">Provide quote</text>
</g>
<!-- 2592514322128&#45;&gt;2592514320736 -->
<g id="edge10" class="edge">
<title>2592514322128&#45;&gt;2592514320736</title>
<path fill="none" stroke="black" d="M979.05,-22C987.27,-22 995.3,-22 1002.87,-22"/>
<polygon fill="black" stroke="black" points="1002.85,-25.5 1012.85,-22 1002.85,-18.5 1002.85,-25.5"/>
</g>
<!-- 2592514321408 -->
<g id="node11" class="node">
<title>2592514321408</title>
<polygon fill="none" stroke="black" points="1202,-40 1132.75,-40 1132.75,-4 1202,-4 1202,-40"/>
<text text-anchor="middle" x="1167.38" y="-16.98" font-family="Times New Roman,serif" font-size="12.00">Place order</text>
</g>
<!-- 2592514320736&#45;&gt;2592514321408 -->
<g id="edge12" class="edge">
<title>2592514320736&#45;&gt;2592514321408</title>
<path fill="none" stroke="black" d="M1096.95,-22C1104.75,-22 1112.98,-22 1120.93,-22"/>
<polygon fill="black" stroke="black" points="1120.8,-25.5 1130.8,-22 1120.8,-18.5 1120.8,-25.5"/>
</g>
<!-- 2592514322464 -->
<g id="node12" class="node">
<title>2592514322464</title>
<polygon fill="none" stroke="black" points="1363.5,-40 1238,-40 1238,-4 1363.5,-4 1363.5,-40"/>
<text text-anchor="middle" x="1300.75" y="-16.98" font-family="Times New Roman,serif" font-size="12.00">Record order in system</text>
</g>
<!-- 2592514321408&#45;&gt;2592514322464 -->
<g id="edge13" class="edge">
<title>2592514321408&#45;&gt;2592514322464</title>
<path fill="none" stroke="black" d="M1202.21,-22C1209.68,-22 1217.88,-22 1226.25,-22"/>
<polygon fill="black" stroke="black" points="1226.21,-25.5 1236.21,-22 1226.21,-18.5 1226.21,-25.5"/>
</g>
<!-- 2592514320880 -->
<g id="node13" class="node">
<title>2592514320880</title>
<polygon fill="none" stroke="black" points="1588,-40 1399.5,-40 1399.5,-4 1588,-4 1588,-40"/>
<text text-anchor="middle" x="1493.75" y="-16.98" font-family="Times New Roman,serif" font-size="12.00">Send order confirmation to customer</text>
</g>
<!-- 2592514322464&#45;&gt;2592514320880 -->
<g id="edge14" class="edge">
<title>2592514322464&#45;&gt;2592514320880</title>
<path fill="none" stroke="black" d="M1363.76,-22C1371.55,-22 1379.68,-22 1387.9,-22"/>
<polygon fill="black" stroke="black" points="1387.63,-25.5 1397.63,-22 1387.63,-18.5 1387.63,-25.5"/>
</g>
<!-- 2592514320880&#45;&gt;2592514319680 -->
<g id="edge15" class="edge">
<title>2592514320880&#45;&gt;2592514319680</title>
<path fill="none" stroke="black" d="M1588.2,-35.84C1598.44,-37.36 1608.3,-38.82 1617.02,-40.11"/>
<polygon fill="black" stroke="black" points="1616.23,-43.54 1626.63,-41.54 1617.26,-36.61 1616.23,-43.54"/>
</g>
</g>
</svg>
