<?xml version="1.0" encoding="UTF-8" standalone="no"?>
<!DOCTYPE svg PUBLIC "-//W3C//DTD SVG 1.1//EN"
 "http://www.w3.org/Graphics/SVG/1.1/DTD/svg11.dtd">
<!-- Generated by graphviz version 11.0.0 (20240428.1522)
 -->
<!-- Pages: 1 -->
<svg width="1938pt" height="98pt"
 viewBox="0.00 0.00 1938.00 98.00" xmlns="http://www.w3.org/2000/svg" xmlns:xlink="http://www.w3.org/1999/xlink">
<g id="graph0" class="graph" transform="scale(1 1) rotate(0) translate(4 94)">
<polygon fill="white" stroke="none" points="-4,4 -4,-94 1934,-94 1934,4 -4,4"/>
<!-- 2592513861600 -->
<g id="node1" class="node">
<title>2592513861600</title>
<ellipse fill="green" stroke="black" cx="18" cy="-45" rx="18" ry="18"/>
</g>
<!-- 2592514319248 -->
<g id="node2" class="node">
<title>2592514319248</title>
<polygon fill="none" stroke="black" points="99,-63 72,-45 99,-27 126,-45 99,-63"/>
<text text-anchor="middle" x="99" y="-39.98" font-family="Times New Roman,serif" font-size="12.00">X</text>
</g>
<!-- 2592513861600&#45;&gt;2592514319248 -->
<g id="edge1" class="edge">
<title>2592513861600&#45;&gt;2592514319248</title>
<path fill="none" stroke="black" d="M36.14,-45C43.11,-45 51.47,-45 59.75,-45"/>
<polygon fill="black" stroke="black" points="59.75,-48.5 69.75,-45 59.75,-41.5 59.75,-48.5"/>
</g>
<!-- 2592514318816 -->
<g id="node3" class="node">
<title>2592514318816</title>
<polygon fill="none" stroke="black" points="680.25,-63 653.25,-45 680.25,-27 707.25,-45 680.25,-63"/>
<text text-anchor="middle" x="680.25" y="-39.98" font-family="Times New Roman,serif" font-size="12.00">X</text>
</g>
<!-- 2592514319248&#45;&gt;2592514318816 -->
<g id="edge3" class="edge">
<title>2592514319248&#45;&gt;2592514318816</title>
<path fill="none" stroke="black" d="M123.83,-46.9C135.35,-47.72 149.39,-48.59 162,-49 364.23,-55.52 415.02,-55.52 617.25,-49 625.92,-48.72 635.27,-48.22 644,-47.67"/>
<polygon fill="black" stroke="black" points="644.17,-51.17 653.91,-47 643.7,-44.18 644.17,-51.17"/>
</g>
<!-- 2592514712128 -->
<g id="node4" class="node">
<title>2592514712128</title>
<polygon fill="none" stroke="black" points="350.5,-40 162,-40 162,-4 350.5,-4 350.5,-40"/>
<text text-anchor="middle" x="256.25" y="-16.98" font-family="Times New Roman,serif" font-size="12.00">Send order confirmation to customer</text>
</g>
<!-- 2592514319248&#45;&gt;2592514712128 -->
<g id="edge2" class="edge">
<title>2592514319248&#45;&gt;2592514712128</title>
<path fill="none" stroke="black" d="M121.91,-41.75C130.04,-40.55 139.89,-39.09 150.51,-37.52"/>
<polygon fill="black" stroke="black" points="150.95,-40.99 160.33,-36.06 149.92,-34.07 150.95,-40.99"/>
</g>
<!-- 2592496065312 -->
<g id="node5" class="node">
<title>2592496065312</title>
<polygon fill="none" stroke="black" points="770.25,-63 743.25,-45 770.25,-27 797.25,-45 770.25,-63"/>
<text text-anchor="middle" x="770.25" y="-39.98" font-family="Times New Roman,serif" font-size="12.00">X</text>
</g>
<!-- 2592514318816&#45;&gt;2592496065312 -->
<g id="edge4" class="edge">
<title>2592514318816&#45;&gt;2592496065312</title>
<path fill="none" stroke="black" d="M708.13,-45C715.38,-45 723.37,-45 731.1,-45"/>
<polygon fill="black" stroke="black" points="731.02,-48.5 741.02,-45 731.02,-41.5 731.02,-48.5"/>
</g>
<!-- 2592496071984 -->
<g id="node6" class="node">
<title>2592496071984</title>
<polygon fill="none" stroke="black" points="512,-40 386.5,-40 386.5,-4 512,-4 512,-40"/>
<text text-anchor="middle" x="449.25" y="-16.98" font-family="Times New Roman,serif" font-size="12.00">Record order in system</text>
</g>
<!-- 2592514712128&#45;&gt;2592496071984 -->
<g id="edge5" class="edge">
<title>2592514712128&#45;&gt;2592496071984</title>
<path fill="none" stroke="black" d="M350.79,-22C358.86,-22 366.94,-22 374.81,-22"/>
<polygon fill="black" stroke="black" points="374.65,-25.5 384.65,-22 374.65,-18.5 374.65,-25.5"/>
</g>
<!-- 2592496063872 -->
<g id="node7" class="node">
<title>2592496063872</title>
<polygon fill="none" stroke="black" points="1236.5,-63 1209.5,-45 1236.5,-27 1263.5,-45 1236.5,-63"/>
<text text-anchor="middle" x="1236.5" y="-39.98" font-family="Times New Roman,serif" font-size="12.00">X</text>
</g>
<!-- 2592496065312&#45;&gt;2592496063872 -->
<g id="edge7" class="edge">
<title>2592496065312&#45;&gt;2592496063872</title>
<path fill="none" stroke="black" d="M795.08,-46.9C806.6,-47.72 820.64,-48.59 833.25,-49 984.39,-53.87 1022.36,-53.87 1173.5,-49 1182.17,-48.72 1191.52,-48.22 1200.25,-47.67"/>
<polygon fill="black" stroke="black" points="1200.42,-51.17 1210.16,-47 1199.95,-44.18 1200.42,-51.17"/>
</g>
<!-- 2592514715536 -->
<g id="node9" class="node">
<title>2592514715536</title>
<polygon fill="none" stroke="black" points="915.25,-40 833.25,-40 833.25,-4 915.25,-4 915.25,-40"/>
<text text-anchor="middle" x="874.25" y="-16.98" font-family="Times New Roman,serif" font-size="12.00">Provide quote</text>
</g>
<!-- 2592496065312&#45;&gt;2592514715536 -->
<g id="edge6" class="edge">
<title>2592496065312&#45;&gt;2592514715536</title>
<path fill="none" stroke="black" d="M790.92,-40.57C799.86,-38.55 810.9,-36.06 821.97,-33.56"/>
<polygon fill="black" stroke="black" points="822.49,-37.03 831.48,-31.42 820.95,-30.2 822.49,-37.03"/>
</g>
<!-- 2592496063248 -->
<g id="node8" class="node">
<title>2592496063248</title>
<polygon fill="none" stroke="black" points="617.25,-40 548,-40 548,-4 617.25,-4 617.25,-40"/>
<text text-anchor="middle" x="582.62" y="-16.98" font-family="Times New Roman,serif" font-size="12.00">Place order</text>
</g>
<!-- 2592496071984&#45;&gt;2592496063248 -->
<g id="edge8" class="edge">
<title>2592496071984&#45;&gt;2592496063248</title>
<path fill="none" stroke="black" d="M512.47,-22C520.49,-22 528.57,-22 536.25,-22"/>
<polygon fill="black" stroke="black" points="536.01,-25.5 546.01,-22 536.01,-18.5 536.01,-25.5"/>
</g>
<!-- 2592514716256 -->
<g id="node11" class="node">
<title>2592514716256</title>
<polygon fill="none" stroke="black" points="1326.5,-63 1299.5,-45 1326.5,-27 1353.5,-45 1326.5,-63"/>
<text text-anchor="middle" x="1326.5" y="-39.98" font-family="Times New Roman,serif" font-size="12.00">+</text>
</g>
<!-- 2592496063872&#45;&gt;2592514716256 -->
<g id="edge10" class="edge">
<title>2592496063872&#45;&gt;2592514716256</title>
<path fill="none" stroke="black" d="M1264.38,-45C1271.63,-45 1279.62,-45 1287.35,-45"/>
<polygon fill="black" stroke="black" points="1287.27,-48.5 1297.27,-45 1287.27,-41.5 1287.27,-48.5"/>
</g>
<!-- 2592496063248&#45;&gt;2592514318816 -->
<g id="edge9" class="edge">
<title>2592496063248&#45;&gt;2592514318816</title>
<path fill="none" stroke="black" d="M617.61,-30.17C627.72,-32.61 638.73,-35.25 648.61,-37.63"/>
<polygon fill="black" stroke="black" points="647.56,-40.98 658.1,-39.91 649.2,-34.17 647.56,-40.98"/>
</g>
<!-- 2592514704688 -->
<g id="node10" class="node">
<title>2592514704688</title>
<polygon fill="none" stroke="black" points="1173.5,-40 951.25,-40 951.25,-4 1173.5,-4 1173.5,-40"/>
<text text-anchor="middle" x="1062.38" y="-16.98" font-family="Times New Roman,serif" font-size="12.00">Guide customer in selecting product/service</text>
</g>
<!-- 2592514715536&#45;&gt;2592514704688 -->
<g id="edge11" class="edge">
<title>2592514715536&#45;&gt;2592514704688</title>
<path fill="none" stroke="black" d="M915.64,-22C923.07,-22 931.17,-22 939.63,-22"/>
<polygon fill="black" stroke="black" points="939.4,-25.5 949.4,-22 939.4,-18.5 939.4,-25.5"/>
</g>
<!-- 2592514704688&#45;&gt;2592496063872 -->
<g id="edge12" class="edge">
<title>2592514704688&#45;&gt;2592496063872</title>
<path fill="none" stroke="black" d="M1173.85,-36.76C1183.9,-38.11 1193.47,-39.38 1201.95,-40.52"/>
<polygon fill="black" stroke="black" points="1201.25,-43.95 1211.63,-41.81 1202.18,-37.02 1201.25,-43.95"/>
</g>
<!-- 2592496069584 -->
<g id="node12" class="node">
<title>2592496069584</title>
<polygon fill="none" stroke="black" points="1595.25,-90 1389.5,-90 1389.5,-54 1595.25,-54 1595.25,-90"/>
<text text-anchor="middle" x="1492.38" y="-66.97" font-family="Times New Roman,serif" font-size="12.00">Address customer concerns or questions</text>
</g>
<!-- 2592514716256&#45;&gt;2592496069584 -->
<g id="edge13" class="edge">
<title>2592514716256&#45;&gt;2592496069584</title>
<path fill="none" stroke="black" d="M1348.92,-48.53C1357.12,-49.88 1367.15,-51.53 1378.05,-53.33"/>
<polygon fill="black" stroke="black" points="1377.27,-56.75 1387.71,-54.92 1378.41,-49.84 1377.27,-56.75"/>
</g>
<!-- 2592514711024 -->
<g id="node13" class="node">
<title>2592514711024</title>
<polygon fill="none" stroke="black" points="1569,-36 1415.75,-36 1415.75,0 1569,0 1569,-36"/>
<text text-anchor="middle" x="1492.38" y="-12.97" font-family="Times New Roman,serif" font-size="12.00">Collect customer information</text>
</g>
<!-- 2592514716256&#45;&gt;2592514711024 -->
<g id="edge14" class="edge">
<title>2592514716256&#45;&gt;2592514711024</title>
<path fill="none" stroke="black" d="M1348.92,-41.47C1363.41,-39.08 1383.6,-35.76 1404.23,-32.36"/>
<polygon fill="black" stroke="black" points="1404.58,-35.85 1413.88,-30.77 1403.44,-28.94 1404.58,-35.85"/>
</g>
<!-- 2592496059408 -->
<g id="node14" class="node">
<title>2592496059408</title>
<polygon fill="none" stroke="black" points="1658.25,-63 1631.25,-45 1658.25,-27 1685.25,-45 1658.25,-63"/>
<text text-anchor="middle" x="1658.25" y="-39.98" font-family="Times New Roman,serif" font-size="12.00">+</text>
</g>
<!-- 2592496069584&#45;&gt;2592496059408 -->
<g id="edge15" class="edge">
<title>2592496069584&#45;&gt;2592496059408</title>
<path fill="none" stroke="black" d="M1595.3,-55.21C1605.77,-53.48 1615.77,-51.83 1624.58,-50.38"/>
<polygon fill="black" stroke="black" points="1624.97,-53.87 1634.27,-48.79 1623.83,-46.96 1624.97,-53.87"/>
</g>
<!-- 2592514711024&#45;&gt;2592496059408 -->
<g id="edge16" class="edge">
<title>2592514711024&#45;&gt;2592496059408</title>
<path fill="none" stroke="black" d="M1569.08,-30.47C1588.78,-33.72 1608.97,-37.05 1625.05,-39.69"/>
<polygon fill="black" stroke="black" points="1624.04,-43.07 1634.47,-41.25 1625.17,-36.17 1624.04,-43.07"/>
</g>
<!-- 2592514708480 -->
<g id="node15" class="node">
<title>2592514708480</title>
<polygon fill="none" stroke="black" points="1858,-63 1721.25,-63 1721.25,-27 1858,-27 1858,-63"/>
<text text-anchor="middle" x="1789.62" y="-39.98" font-family="Times New Roman,serif" font-size="12.00">Receive customer inquiry</text>
</g>
<!-- 2592496059408&#45;&gt;2592514708480 -->
<g id="edge17" class="edge">
<title>2592496059408&#45;&gt;2592514708480</title>
<path fill="none" stroke="black" d="M1686.06,-45C1693.21,-45 1701.32,-45 1709.76,-45"/>
<polygon fill="black" stroke="black" points="1709.5,-48.5 1719.5,-45 1709.5,-41.5 1709.5,-48.5"/>
</g>
<!-- 2592513865344 -->
<g id="node16" class="node">
<title>2592513865344</title>
<ellipse fill="orange" stroke="black" cx="1912" cy="-45" rx="18" ry="18"/>
</g>
<!-- 2592514708480&#45;&gt;2592513865344 -->
<g id="edge18" class="edge">
<title>2592514708480&#45;&gt;2592513865344</title>
<path fill="none" stroke="black" d="M1858.2,-45C1866.82,-45 1875.23,-45 1882.72,-45"/>
<polygon fill="black" stroke="black" points="1882.45,-48.5 1892.45,-45 1882.45,-41.5 1882.45,-48.5"/>
</g>
</g>
</svg>
