<?xml version="1.0" encoding="UTF-8" standalone="no"?>
<!DOCTYPE svg PUBLIC "-//W3C//DTD SVG 1.1//EN"
 "http://www.w3.org/Graphics/SVG/1.1/DTD/svg11.dtd">
<!-- Generated by graphviz version 11.0.0 (20240428.1522)
 -->
<!-- Pages: 1 -->
<svg width="1758pt" height="98pt"
 viewBox="0.00 0.00 1758.00 98.00" xmlns="http://www.w3.org/2000/svg" xmlns:xlink="http://www.w3.org/1999/xlink">
<g id="graph0" class="graph" transform="scale(1 1) rotate(0) translate(4 94)">
<polygon fill="white" stroke="none" points="-4,4 -4,-94 1754,-94 1754,4 -4,4"/>
<!-- 2592514709776 -->
<g id="node1" class="node">
<title>2592514709776</title>
<ellipse fill="green" stroke="black" cx="18" cy="-45" rx="18" ry="18"/>
</g>
<!-- 2592514714480 -->
<g id="node2" class="node">
<title>2592514714480</title>
<polygon fill="none" stroke="black" points="208.75,-63 72,-63 72,-27 208.75,-27 208.75,-63"/>
<text text-anchor="middle" x="140.38" y="-39.98" font-family="Times New Roman,serif" font-size="12.00">Receive customer inquiry</text>
</g>
<!-- 2592514709776&#45;&gt;2592514714480 -->
<g id="edge1" class="edge">
<title>2592514709776&#45;&gt;2592514714480</title>
<path fill="none" stroke="black" d="M36.25,-45C43.09,-45 51.47,-45 60.48,-45"/>
<polygon fill="black" stroke="black" points="60.19,-48.5 70.19,-45 60.19,-41.5 60.19,-48.5"/>
</g>
<!-- 2592513859536 -->
<g id="node3" class="node">
<title>2592513859536</title>
<polygon fill="none" stroke="black" points="271.75,-63 244.75,-45 271.75,-27 298.75,-45 271.75,-63"/>
<text text-anchor="middle" x="271.75" y="-39.98" font-family="Times New Roman,serif" font-size="12.00">X</text>
</g>
<!-- 2592514714480&#45;&gt;2592513859536 -->
<g id="edge2" class="edge">
<title>2592514714480&#45;&gt;2592513859536</title>
<path fill="none" stroke="black" d="M209.09,-45C217.1,-45 225.05,-45 232.44,-45"/>
<polygon fill="black" stroke="black" points="232.38,-48.5 242.38,-45 232.38,-41.5 232.38,-48.5"/>
</g>
<!-- 2592513860016 -->
<g id="node4" class="node">
<title>2592513860016</title>
<polygon fill="none" stroke="black" points="1229.25,-63 1202.25,-45 1229.25,-27 1256.25,-45 1229.25,-63"/>
<text text-anchor="middle" x="1229.25" y="-39.98" font-family="Times New Roman,serif" font-size="12.00">X</text>
</g>
<!-- 2592513859536&#45;&gt;2592513860016 -->
<g id="edge4" class="edge">
<title>2592513859536&#45;&gt;2592513860016</title>
<path fill="none" stroke="black" d="M295.53,-47.55C351.09,-53.54 498,-68 621,-68 621,-68 621,-68 868,-68 988.11,-68 1130.28,-55.11 1194.17,-48.63"/>
<polygon fill="black" stroke="black" points="1194.43,-52.12 1204.02,-47.62 1193.71,-45.16 1194.43,-52.12"/>
</g>
<!-- 2592514711408 -->
<g id="node5" class="node">
<title>2592514711408</title>
<polygon fill="none" stroke="black" points="523.25,-40 334.75,-40 334.75,-4 523.25,-4 523.25,-40"/>
<text text-anchor="middle" x="429" y="-16.98" font-family="Times New Roman,serif" font-size="12.00">Send order confirmation to customer</text>
</g>
<!-- 2592513859536&#45;&gt;2592514711408 -->
<g id="edge3" class="edge">
<title>2592513859536&#45;&gt;2592514711408</title>
<path fill="none" stroke="black" d="M294.66,-41.75C302.79,-40.55 312.64,-39.09 323.26,-37.52"/>
<polygon fill="black" stroke="black" points="323.7,-40.99 333.08,-36.06 322.67,-34.07 323.7,-40.99"/>
</g>
<!-- 2592514713808 -->
<g id="node6" class="node">
<title>2592514713808</title>
<polygon fill="none" stroke="black" points="1319.25,-63 1292.25,-45 1319.25,-27 1346.25,-45 1319.25,-63"/>
<text text-anchor="middle" x="1319.25" y="-39.98" font-family="Times New Roman,serif" font-size="12.00">+</text>
</g>
<!-- 2592513860016&#45;&gt;2592514713808 -->
<g id="edge5" class="edge">
<title>2592513860016&#45;&gt;2592514713808</title>
<path fill="none" stroke="black" d="M1257.13,-45C1264.38,-45 1272.37,-45 1280.1,-45"/>
<polygon fill="black" stroke="black" points="1280.02,-48.5 1290.02,-45 1280.02,-41.5 1280.02,-48.5"/>
</g>
<!-- 2592514714624 -->
<g id="node7" class="node">
<title>2592514714624</title>
<polygon fill="none" stroke="black" points="684.75,-40 559.25,-40 559.25,-4 684.75,-4 684.75,-40"/>
<text text-anchor="middle" x="622" y="-16.98" font-family="Times New Roman,serif" font-size="12.00">Record order in system</text>
</g>
<!-- 2592514711408&#45;&gt;2592514714624 -->
<g id="edge6" class="edge">
<title>2592514711408&#45;&gt;2592514714624</title>
<path fill="none" stroke="black" d="M523.54,-22C531.61,-22 539.69,-22 547.56,-22"/>
<polygon fill="black" stroke="black" points="547.4,-25.5 557.4,-22 547.4,-18.5 547.4,-25.5"/>
</g>
<!-- 2592514711840 -->
<g id="node8" class="node">
<title>2592514711840</title>
<polygon fill="none" stroke="black" points="1561.75,-90 1408.5,-90 1408.5,-54 1561.75,-54 1561.75,-90"/>
<text text-anchor="middle" x="1485.12" y="-66.97" font-family="Times New Roman,serif" font-size="12.00">Collect customer information</text>
</g>
<!-- 2592514713808&#45;&gt;2592514711840 -->
<g id="edge8" class="edge">
<title>2592514713808&#45;&gt;2592514711840</title>
<path fill="none" stroke="black" d="M1341.67,-48.53C1356.16,-50.92 1376.35,-54.24 1396.98,-57.64"/>
<polygon fill="black" stroke="black" points="1396.19,-61.06 1406.63,-59.23 1397.33,-54.15 1396.19,-61.06"/>
</g>
<!-- 2592514713616 -->
<g id="node9" class="node">
<title>2592514713616</title>
<polygon fill="none" stroke="black" points="1588,-36 1382.25,-36 1382.25,0 1588,0 1588,-36"/>
<text text-anchor="middle" x="1485.12" y="-12.97" font-family="Times New Roman,serif" font-size="12.00">Address customer concerns or questions</text>
</g>
<!-- 2592514713808&#45;&gt;2592514713616 -->
<g id="edge7" class="edge">
<title>2592514713808&#45;&gt;2592514713616</title>
<path fill="none" stroke="black" d="M1341.67,-41.47C1349.87,-40.12 1359.9,-38.47 1370.8,-36.67"/>
<polygon fill="black" stroke="black" points="1371.16,-40.16 1380.46,-35.08 1370.02,-33.25 1371.16,-40.16"/>
</g>
<!-- 2592514715056 -->
<g id="node10" class="node">
<title>2592514715056</title>
<polygon fill="none" stroke="black" points="790,-40 720.75,-40 720.75,-4 790,-4 790,-40"/>
<text text-anchor="middle" x="755.38" y="-16.98" font-family="Times New Roman,serif" font-size="12.00">Place order</text>
</g>
<!-- 2592514714624&#45;&gt;2592514715056 -->
<g id="edge9" class="edge">
<title>2592514714624&#45;&gt;2592514715056</title>
<path fill="none" stroke="black" d="M685.22,-22C693.24,-22 701.32,-22 709,-22"/>
<polygon fill="black" stroke="black" points="708.76,-25.5 718.76,-22 708.76,-18.5 708.76,-25.5"/>
</g>
<!-- 2592514713664 -->
<g id="node12" class="node">
<title>2592514713664</title>
<polygon fill="none" stroke="black" points="1651,-63 1624,-45 1651,-27 1678,-45 1651,-63"/>
<text text-anchor="middle" x="1651" y="-39.98" font-family="Times New Roman,serif" font-size="12.00">+</text>
</g>
<!-- 2592514711840&#45;&gt;2592514713664 -->
<g id="edge10" class="edge">
<title>2592514711840&#45;&gt;2592514713664</title>
<path fill="none" stroke="black" d="M1561.83,-59.53C1581.53,-56.28 1601.72,-52.95 1617.8,-50.31"/>
<polygon fill="black" stroke="black" points="1617.92,-53.83 1627.22,-48.75 1616.79,-46.93 1617.92,-53.83"/>
</g>
<!-- 2592514713616&#45;&gt;2592514713664 -->
<g id="edge11" class="edge">
<title>2592514713616&#45;&gt;2592514713664</title>
<path fill="none" stroke="black" d="M1588.05,-34.79C1598.52,-36.52 1608.52,-38.17 1617.33,-39.62"/>
<polygon fill="black" stroke="black" points="1616.58,-43.04 1627.02,-41.21 1617.72,-36.13 1616.58,-43.04"/>
</g>
<!-- 2592514711552 -->
<g id="node11" class="node">
<title>2592514711552</title>
<polygon fill="none" stroke="black" points="908,-40 826,-40 826,-4 908,-4 908,-40"/>
<text text-anchor="middle" x="867" y="-16.98" font-family="Times New Roman,serif" font-size="12.00">Provide quote</text>
</g>
<!-- 2592514715056&#45;&gt;2592514711552 -->
<g id="edge12" class="edge">
<title>2592514715056&#45;&gt;2592514711552</title>
<path fill="none" stroke="black" d="M790.46,-22C798.06,-22 806.29,-22 814.43,-22"/>
<polygon fill="black" stroke="black" points="814.27,-25.5 824.27,-22 814.27,-18.5 814.27,-25.5"/>
</g>
<!-- 2592514712608 -->
<g id="node13" class="node">
<title>2592514712608</title>
<polygon fill="none" stroke="black" points="1166.25,-40 944,-40 944,-4 1166.25,-4 1166.25,-40"/>
<text text-anchor="middle" x="1055.12" y="-16.98" font-family="Times New Roman,serif" font-size="12.00">Guide customer in selecting product/service</text>
</g>
<!-- 2592514711552&#45;&gt;2592514712608 -->
<g id="edge13" class="edge">
<title>2592514711552&#45;&gt;2592514712608</title>
<path fill="none" stroke="black" d="M908.39,-22C915.82,-22 923.92,-22 932.38,-22"/>
<polygon fill="black" stroke="black" points="932.15,-25.5 942.15,-22 932.15,-18.5 932.15,-25.5"/>
</g>
<!-- 2592514708432 -->
<g id="node14" class="node">
<title>2592514708432</title>
<ellipse fill="orange" stroke="black" cx="1732" cy="-45" rx="18" ry="18"/>
</g>
<!-- 2592514713664&#45;&gt;2592514708432 -->
<g id="edge14" class="edge">
<title>2592514713664&#45;&gt;2592514708432</title>
<path fill="none" stroke="black" d="M1678.75,-45C1686.38,-45 1694.73,-45 1702.47,-45"/>
<polygon fill="black" stroke="black" points="1702.43,-48.5 1712.43,-45 1702.43,-41.5 1702.43,-48.5"/>
</g>
<!-- 2592514712608&#45;&gt;2592513860016 -->
<g id="edge15" class="edge">
<title>2592514712608&#45;&gt;2592513860016</title>
<path fill="none" stroke="black" d="M1166.6,-36.76C1176.65,-38.11 1186.22,-39.38 1194.7,-40.52"/>
<polygon fill="black" stroke="black" points="1194,-43.95 1204.38,-41.81 1194.93,-37.02 1194,-43.95"/>
</g>
</g>
</svg>
