<?xml version="1.0" encoding="UTF-8" standalone="no"?>
<!DOCTYPE svg PUBLIC "-//W3C//DTD SVG 1.1//EN"
 "http://www.w3.org/Graphics/SVG/1.1/DTD/svg11.dtd">
<!-- Generated by graphviz version 11.0.0 (20240428.1522)
 -->
<!-- Pages: 1 -->
<svg width="1758pt" height="98pt"
 viewBox="0.00 0.00 1758.00 98.00" xmlns="http://www.w3.org/2000/svg" xmlns:xlink="http://www.w3.org/1999/xlink">
<g id="graph0" class="graph" transform="scale(1 1) rotate(0) translate(4 94)">
<polygon fill="white" stroke="none" points="-4,4 -4,-94 1754,-94 1754,4 -4,4"/>
<!-- 2592514312720 -->
<g id="node1" class="node">
<title>2592514312720</title>
<ellipse fill="green" stroke="black" cx="18" cy="-45" rx="18" ry="18"/>
</g>
<!-- 2592513852720 -->
<g id="node2" class="node">
<title>2592513852720</title>
<polygon fill="none" stroke="black" points="99,-63 72,-45 99,-27 126,-45 99,-63"/>
<text text-anchor="middle" x="99" y="-39.98" font-family="Times New Roman,serif" font-size="12.00">X</text>
</g>
<!-- 2592514312720&#45;&gt;2592513852720 -->
<g id="edge1" class="edge">
<title>2592514312720&#45;&gt;2592513852720</title>
<path fill="none" stroke="black" d="M36.14,-45C43.11,-45 51.47,-45 59.75,-45"/>
<polygon fill="black" stroke="black" points="59.75,-48.5 69.75,-45 59.75,-41.5 59.75,-48.5"/>
</g>
<!-- 2592513853632 -->
<g id="node3" class="node">
<title>2592513853632</title>
<polygon fill="none" stroke="black" points="680.25,-63 653.25,-45 680.25,-27 707.25,-45 680.25,-63"/>
<text text-anchor="middle" x="680.25" y="-39.98" font-family="Times New Roman,serif" font-size="12.00">X</text>
</g>
<!-- 2592513852720&#45;&gt;2592513853632 -->
<g id="edge2" class="edge">
<title>2592513852720&#45;&gt;2592513853632</title>
<path fill="none" stroke="black" d="M123.83,-46.9C135.35,-47.72 149.39,-48.59 162,-49 364.23,-55.52 415.02,-55.52 617.25,-49 625.92,-48.72 635.27,-48.22 644,-47.67"/>
<polygon fill="black" stroke="black" points="644.17,-51.17 653.91,-47 643.7,-44.18 644.17,-51.17"/>
</g>
<!-- 2592496069344 -->
<g id="node4" class="node">
<title>2592496069344</title>
<polygon fill="none" stroke="black" points="350.5,-40 162,-40 162,-4 350.5,-4 350.5,-40"/>
<text text-anchor="middle" x="256.25" y="-16.98" font-family="Times New Roman,serif" font-size="12.00">Send order confirmation to customer</text>
</g>
<!-- 2592513852720&#45;&gt;2592496069344 -->
<g id="edge3" class="edge">
<title>2592513852720&#45;&gt;2592496069344</title>
<path fill="none" stroke="black" d="M121.91,-41.75C130.04,-40.55 139.89,-39.09 150.51,-37.52"/>
<polygon fill="black" stroke="black" points="150.95,-40.99 160.33,-36.06 149.92,-34.07 150.95,-40.99"/>
</g>
<!-- 2592496069392 -->
<g id="node5" class="node">
<title>2592496069392</title>
<polygon fill="none" stroke="black" points="825.25,-63 743.25,-63 743.25,-27 825.25,-27 825.25,-63"/>
<text text-anchor="middle" x="784.25" y="-39.98" font-family="Times New Roman,serif" font-size="12.00">Provide quote</text>
</g>
<!-- 2592513853632&#45;&gt;2592496069392 -->
<g id="edge4" class="edge">
<title>2592513853632&#45;&gt;2592496069392</title>
<path fill="none" stroke="black" d="M708.05,-45C715.27,-45 723.33,-45 731.43,-45"/>
<polygon fill="black" stroke="black" points="731.29,-48.5 741.29,-45 731.29,-41.5 731.29,-48.5"/>
</g>
<!-- 2592496064736 -->
<g id="node6" class="node">
<title>2592496064736</title>
<polygon fill="none" stroke="black" points="512,-40 386.5,-40 386.5,-4 512,-4 512,-40"/>
<text text-anchor="middle" x="449.25" y="-16.98" font-family="Times New Roman,serif" font-size="12.00">Record order in system</text>
</g>
<!-- 2592496069344&#45;&gt;2592496064736 -->
<g id="edge5" class="edge">
<title>2592496069344&#45;&gt;2592496064736</title>
<path fill="none" stroke="black" d="M350.79,-22C358.86,-22 366.94,-22 374.81,-22"/>
<polygon fill="black" stroke="black" points="374.65,-25.5 384.65,-22 374.65,-18.5 374.65,-25.5"/>
</g>
<!-- 2592496058880 -->
<g id="node7" class="node">
<title>2592496058880</title>
<polygon fill="none" stroke="black" points="1083.5,-63 861.25,-63 861.25,-27 1083.5,-27 1083.5,-63"/>
<text text-anchor="middle" x="972.38" y="-39.98" font-family="Times New Roman,serif" font-size="12.00">Guide customer in selecting product/service</text>
</g>
<!-- 2592496069392&#45;&gt;2592496058880 -->
<g id="edge6" class="edge">
<title>2592496069392&#45;&gt;2592496058880</title>
<path fill="none" stroke="black" d="M825.64,-45C833.07,-45 841.17,-45 849.63,-45"/>
<polygon fill="black" stroke="black" points="849.4,-48.5 859.4,-45 849.4,-41.5 849.4,-48.5"/>
</g>
<!-- 2592496074336 -->
<g id="node8" class="node">
<title>2592496074336</title>
<polygon fill="none" stroke="black" points="617.25,-40 548,-40 548,-4 617.25,-4 617.25,-40"/>
<text text-anchor="middle" x="582.62" y="-16.98" font-family="Times New Roman,serif" font-size="12.00">Place order</text>
</g>
<!-- 2592496064736&#45;&gt;2592496074336 -->
<g id="edge7" class="edge">
<title>2592496064736&#45;&gt;2592496074336</title>
<path fill="none" stroke="black" d="M512.47,-22C520.49,-22 528.57,-22 536.25,-22"/>
<polygon fill="black" stroke="black" points="536.01,-25.5 546.01,-22 536.01,-18.5 536.01,-25.5"/>
</g>
<!-- 2592496073136 -->
<g id="node9" class="node">
<title>2592496073136</title>
<polygon fill="none" stroke="black" points="1146.5,-63 1119.5,-45 1146.5,-27 1173.5,-45 1146.5,-63"/>
<text text-anchor="middle" x="1146.5" y="-39.98" font-family="Times New Roman,serif" font-size="12.00">+</text>
</g>
<!-- 2592496058880&#45;&gt;2592496073136 -->
<g id="edge9" class="edge">
<title>2592496058880&#45;&gt;2592496073136</title>
<path fill="none" stroke="black" d="M1083.85,-45C1092.07,-45 1099.96,-45 1107.2,-45"/>
<polygon fill="black" stroke="black" points="1107.18,-48.5 1117.18,-45 1107.18,-41.5 1107.18,-48.5"/>
</g>
<!-- 2592496074336&#45;&gt;2592513853632 -->
<g id="edge8" class="edge">
<title>2592496074336&#45;&gt;2592513853632</title>
<path fill="none" stroke="black" d="M617.61,-30.17C627.72,-32.61 638.73,-35.25 648.61,-37.63"/>
<polygon fill="black" stroke="black" points="647.56,-40.98 658.1,-39.91 649.2,-34.17 647.56,-40.98"/>
</g>
<!-- 2592496071456 -->
<g id="node10" class="node">
<title>2592496071456</title>
<polygon fill="none" stroke="black" points="1389,-90 1235.75,-90 1235.75,-54 1389,-54 1389,-90"/>
<text text-anchor="middle" x="1312.38" y="-66.97" font-family="Times New Roman,serif" font-size="12.00">Collect customer information</text>
</g>
<!-- 2592496073136&#45;&gt;2592496071456 -->
<g id="edge10" class="edge">
<title>2592496073136&#45;&gt;2592496071456</title>
<path fill="none" stroke="black" d="M1168.92,-48.53C1183.41,-50.92 1203.6,-54.24 1224.23,-57.64"/>
<polygon fill="black" stroke="black" points="1223.44,-61.06 1233.88,-59.23 1224.58,-54.15 1223.44,-61.06"/>
</g>
<!-- 2592496074576 -->
<g id="node11" class="node">
<title>2592496074576</title>
<polygon fill="none" stroke="black" points="1415.25,-36 1209.5,-36 1209.5,0 1415.25,0 1415.25,-36"/>
<text text-anchor="middle" x="1312.38" y="-12.97" font-family="Times New Roman,serif" font-size="12.00">Address customer concerns or questions</text>
</g>
<!-- 2592496073136&#45;&gt;2592496074576 -->
<g id="edge11" class="edge">
<title>2592496073136&#45;&gt;2592496074576</title>
<path fill="none" stroke="black" d="M1168.92,-41.47C1177.12,-40.12 1187.15,-38.47 1198.05,-36.67"/>
<polygon fill="black" stroke="black" points="1198.41,-40.16 1207.71,-35.08 1197.27,-33.25 1198.41,-40.16"/>
</g>
<!-- 2592496070736 -->
<g id="node12" class="node">
<title>2592496070736</title>
<polygon fill="none" stroke="black" points="1478.25,-63 1451.25,-45 1478.25,-27 1505.25,-45 1478.25,-63"/>
<text text-anchor="middle" x="1478.25" y="-39.98" font-family="Times New Roman,serif" font-size="12.00">+</text>
</g>
<!-- 2592496071456&#45;&gt;2592496070736 -->
<g id="edge12" class="edge">
<title>2592496071456&#45;&gt;2592496070736</title>
<path fill="none" stroke="black" d="M1389.08,-59.53C1408.78,-56.28 1428.97,-52.95 1445.05,-50.31"/>
<polygon fill="black" stroke="black" points="1445.17,-53.83 1454.47,-48.75 1444.04,-46.93 1445.17,-53.83"/>
</g>
<!-- 2592496074576&#45;&gt;2592496070736 -->
<g id="edge13" class="edge">
<title>2592496074576&#45;&gt;2592496070736</title>
<path fill="none" stroke="black" d="M1415.3,-34.79C1425.77,-36.52 1435.77,-38.17 1444.58,-39.62"/>
<polygon fill="black" stroke="black" points="1443.83,-43.04 1454.27,-41.21 1444.97,-36.13 1443.83,-43.04"/>
</g>
<!-- 2592496070112 -->
<g id="node13" class="node">
<title>2592496070112</title>
<polygon fill="none" stroke="black" points="1678,-63 1541.25,-63 1541.25,-27 1678,-27 1678,-63"/>
<text text-anchor="middle" x="1609.62" y="-39.98" font-family="Times New Roman,serif" font-size="12.00">Receive customer inquiry</text>
</g>
<!-- 2592496070736&#45;&gt;2592496070112 -->
<g id="edge14" class="edge">
<title>2592496070736&#45;&gt;2592496070112</title>
<path fill="none" stroke="black" d="M1506.06,-45C1513.21,-45 1521.32,-45 1529.76,-45"/>
<polygon fill="black" stroke="black" points="1529.5,-48.5 1539.5,-45 1529.5,-41.5 1529.5,-48.5"/>
</g>
<!-- 2592514318096 -->
<g id="node14" class="node">
<title>2592514318096</title>
<ellipse fill="orange" stroke="black" cx="1732" cy="-45" rx="18" ry="18"/>
</g>
<!-- 2592496070112&#45;&gt;2592514318096 -->
<g id="edge15" class="edge">
<title>2592496070112&#45;&gt;2592514318096</title>
<path fill="none" stroke="black" d="M1678.2,-45C1686.82,-45 1695.23,-45 1702.72,-45"/>
<polygon fill="black" stroke="black" points="1702.45,-48.5 1712.45,-45 1702.45,-41.5 1702.45,-48.5"/>
</g>
</g>
</svg>
