<?xml version="1.0" encoding="UTF-8" standalone="no"?>
<!DOCTYPE svg PUBLIC "-//W3C//DTD SVG 1.1//EN"
 "http://www.w3.org/Graphics/SVG/1.1/DTD/svg11.dtd">
<!-- Generated by graphviz version 11.0.0 (20240428.1522)
 -->
<!-- Pages: 1 -->
<svg width="1775pt" height="132pt"
 viewBox="0.00 0.00 1774.50 132.00" xmlns="http://www.w3.org/2000/svg" xmlns:xlink="http://www.w3.org/1999/xlink">
<g id="graph0" class="graph" transform="scale(1 1) rotate(0) translate(4 128)">
<polygon fill="white" stroke="none" points="-4,4 -4,-128 1770.5,-128 1770.5,4 -4,4"/>
<!-- 2592496065024 -->
<g id="node1" class="node">
<title>2592496065024</title>
<ellipse fill="green" stroke="black" cx="18" cy="-79" rx="18" ry="18"/>
</g>
<!-- 2592513865776 -->
<g id="node2" class="node">
<title>2592513865776</title>
<polygon fill="none" stroke="black" points="225.25,-97 72,-97 72,-61 225.25,-61 225.25,-97"/>
<text text-anchor="middle" x="148.62" y="-73.97" font-family="Times New Roman,serif" font-size="12.00">Collect customer information</text>
</g>
<!-- 2592496065024&#45;&gt;2592513865776 -->
<g id="edge1" class="edge">
<title>2592496065024&#45;&gt;2592513865776</title>
<path fill="none" stroke="black" d="M36.35,-79C43.12,-79 51.43,-79 60.42,-79"/>
<polygon fill="black" stroke="black" points="60.16,-82.5 70.16,-79 60.16,-75.5 60.16,-82.5"/>
</g>
<!-- 2592513862896 -->
<g id="node3" class="node">
<title>2592513862896</title>
<polygon fill="none" stroke="black" points="288.25,-97 261.25,-79 288.25,-61 315.25,-79 288.25,-97"/>
<text text-anchor="middle" x="288.25" y="-73.97" font-family="Times New Roman,serif" font-size="12.00">+</text>
</g>
<!-- 2592513865776&#45;&gt;2592513862896 -->
<g id="edge2" class="edge">
<title>2592513865776&#45;&gt;2592513862896</title>
<path fill="none" stroke="black" d="M225.68,-79C233.75,-79 241.67,-79 249.02,-79"/>
<polygon fill="black" stroke="black" points="248.86,-82.5 258.86,-79 248.86,-75.5 248.86,-82.5"/>
</g>
<!-- 2592513856896 -->
<g id="node4" class="node">
<title>2592513856896</title>
<polygon fill="none" stroke="black" points="619.12,-124 482.38,-124 482.38,-88 619.12,-88 619.12,-124"/>
<text text-anchor="middle" x="550.75" y="-100.97" font-family="Times New Roman,serif" font-size="12.00">Receive customer inquiry</text>
</g>
<!-- 2592513862896&#45;&gt;2592513856896 -->
<g id="edge3" class="edge">
<title>2592513862896&#45;&gt;2592513856896</title>
<path fill="none" stroke="black" d="M312.37,-81.4C347.53,-85.04 416.13,-92.15 470.58,-97.79"/>
<polygon fill="black" stroke="black" points="470.15,-101.27 480.46,-98.82 470.87,-94.31 470.15,-101.27"/>
</g>
<!-- 2592513864048 -->
<g id="node5" class="node">
<title>2592513864048</title>
<polygon fill="none" stroke="black" points="420.5,-74 351.25,-74 351.25,-38 420.5,-38 420.5,-74"/>
<text text-anchor="middle" x="385.88" y="-50.98" font-family="Times New Roman,serif" font-size="12.00">Place order</text>
</g>
<!-- 2592513862896&#45;&gt;2592513864048 -->
<g id="edge4" class="edge">
<title>2592513862896&#45;&gt;2592513864048</title>
<path fill="none" stroke="black" d="M308.6,-74.35C317.69,-72.16 328.93,-69.46 339.97,-66.8"/>
<polygon fill="black" stroke="black" points="340.47,-70.28 349.37,-64.54 338.83,-63.47 340.47,-70.28"/>
</g>
<!-- 2592513864864 -->
<g id="node7" class="node">
<title>2592513864864</title>
<polygon fill="none" stroke="black" points="1667.5,-101 1640.5,-83 1667.5,-65 1694.5,-83 1667.5,-101"/>
<text text-anchor="middle" x="1667.5" y="-77.97" font-family="Times New Roman,serif" font-size="12.00">+</text>
</g>
<!-- 2592513856896&#45;&gt;2592513864864 -->
<g id="edge5" class="edge">
<title>2592513856896&#45;&gt;2592513864864</title>
<path fill="none" stroke="black" d="M619.54,-106C698.57,-106 833.13,-106 948.75,-106 948.75,-106 948.75,-106 1452.75,-106 1517.43,-106 1592.5,-95.46 1634.24,-88.65"/>
<polygon fill="black" stroke="black" points="1634.56,-92.14 1643.85,-87.05 1633.41,-85.24 1634.56,-92.14"/>
</g>
<!-- 2592513867600 -->
<g id="node6" class="node">
<title>2592513867600</title>
<polygon fill="none" stroke="black" points="645,-70 456.5,-70 456.5,-34 645,-34 645,-70"/>
<text text-anchor="middle" x="550.75" y="-46.98" font-family="Times New Roman,serif" font-size="12.00">Send order confirmation to customer</text>
</g>
<!-- 2592513864048&#45;&gt;2592513867600 -->
<g id="edge6" class="edge">
<title>2592513864048&#45;&gt;2592513867600</title>
<path fill="none" stroke="black" d="M420.62,-55.17C428.01,-54.99 436.2,-54.79 444.78,-54.58"/>
<polygon fill="black" stroke="black" points="444.81,-58.08 454.72,-54.33 444.64,-51.08 444.81,-58.08"/>
</g>
<!-- 2592496071264 -->
<g id="node8" class="node">
<title>2592496071264</title>
<polygon fill="none" stroke="black" points="886.75,-70 681,-70 681,-34 886.75,-34 886.75,-70"/>
<text text-anchor="middle" x="783.88" y="-46.98" font-family="Times New Roman,serif" font-size="12.00">Address customer concerns or questions</text>
</g>
<!-- 2592513867600&#45;&gt;2592496071264 -->
<g id="edge7" class="edge">
<title>2592513867600&#45;&gt;2592496071264</title>
<path fill="none" stroke="black" d="M645.42,-52C653.33,-52 661.39,-52 669.42,-52"/>
<polygon fill="black" stroke="black" points="669.25,-55.5 679.25,-52 669.25,-48.5 669.25,-55.5"/>
</g>
<!-- 2592496063872 -->
<g id="node14" class="node">
<title>2592496063872</title>
<ellipse fill="orange" stroke="black" cx="1748.5" cy="-83" rx="18" ry="18"/>
</g>
<!-- 2592513864864&#45;&gt;2592496063872 -->
<g id="edge8" class="edge">
<title>2592513864864&#45;&gt;2592496063872</title>
<path fill="none" stroke="black" d="M1695.25,-83C1702.88,-83 1711.23,-83 1718.97,-83"/>
<polygon fill="black" stroke="black" points="1718.93,-86.5 1728.93,-83 1718.93,-79.5 1718.93,-86.5"/>
</g>
<!-- 2592513866208 -->
<g id="node9" class="node">
<title>2592513866208</title>
<polygon fill="none" stroke="black" points="949.75,-70 922.75,-52 949.75,-34 976.75,-52 949.75,-70"/>
<text text-anchor="middle" x="949.75" y="-46.98" font-family="Times New Roman,serif" font-size="12.00">X</text>
</g>
<!-- 2592496071264&#45;&gt;2592513866208 -->
<g id="edge9" class="edge">
<title>2592496071264&#45;&gt;2592513866208</title>
<path fill="none" stroke="black" d="M886.8,-52C895.15,-52 903.21,-52 910.6,-52"/>
<polygon fill="black" stroke="black" points="910.45,-55.5 920.45,-52 910.45,-48.5 910.45,-55.5"/>
</g>
<!-- 2592513861408 -->
<g id="node10" class="node">
<title>2592513861408</title>
<polygon fill="none" stroke="black" points="1577.5,-78 1550.5,-60 1577.5,-42 1604.5,-60 1577.5,-78"/>
<text text-anchor="middle" x="1577.5" y="-54.98" font-family="Times New Roman,serif" font-size="12.00">X</text>
</g>
<!-- 2592513866208&#45;&gt;2592513861408 -->
<g id="edge11" class="edge">
<title>2592513866208&#45;&gt;2592513861408</title>
<path fill="none" stroke="black" d="M976.84,-52.33C1075.14,-53.59 1423.37,-58.04 1538.92,-59.52"/>
<polygon fill="black" stroke="black" points="1538.74,-63.02 1548.78,-59.65 1538.83,-56.02 1538.74,-63.02"/>
</g>
<!-- 2592513867696 -->
<g id="node11" class="node">
<title>2592513867696</title>
<polygon fill="none" stroke="black" points="1094.75,-36 1012.75,-36 1012.75,0 1094.75,0 1094.75,-36"/>
<text text-anchor="middle" x="1053.75" y="-12.97" font-family="Times New Roman,serif" font-size="12.00">Provide quote</text>
</g>
<!-- 2592513866208&#45;&gt;2592513867696 -->
<g id="edge10" class="edge">
<title>2592513866208&#45;&gt;2592513867696</title>
<path fill="none" stroke="black" d="M968.52,-46.08C977.78,-42.99 989.64,-39.04 1001.51,-35.08"/>
<polygon fill="black" stroke="black" points="1002.53,-38.43 1010.91,-31.95 1000.32,-31.79 1002.53,-38.43"/>
</g>
<!-- 2592513861408&#45;&gt;2592513864864 -->
<g id="edge12" class="edge">
<title>2592513861408&#45;&gt;2592513864864</title>
<path fill="none" stroke="black" d="M1597.59,-64.99C1609.01,-67.97 1623.76,-71.83 1636.69,-75.21"/>
<polygon fill="black" stroke="black" points="1635.42,-78.49 1645.98,-77.64 1637.19,-71.72 1635.42,-78.49"/>
</g>
<!-- 2592513861120 -->
<g id="node12" class="node">
<title>2592513861120</title>
<polygon fill="none" stroke="black" points="1353,-36 1130.75,-36 1130.75,0 1353,0 1353,-36"/>
<text text-anchor="middle" x="1241.88" y="-12.97" font-family="Times New Roman,serif" font-size="12.00">Guide customer in selecting product/service</text>
</g>
<!-- 2592513867696&#45;&gt;2592513861120 -->
<g id="edge13" class="edge">
<title>2592513867696&#45;&gt;2592513861120</title>
<path fill="none" stroke="black" d="M1095.14,-18C1102.57,-18 1110.67,-18 1119.13,-18"/>
<polygon fill="black" stroke="black" points="1118.9,-21.5 1128.9,-18 1118.9,-14.5 1118.9,-21.5"/>
</g>
<!-- 2592496071504 -->
<g id="node13" class="node">
<title>2592496071504</title>
<polygon fill="none" stroke="black" points="1514.5,-36 1389,-36 1389,0 1514.5,0 1514.5,-36"/>
<text text-anchor="middle" x="1451.75" y="-12.97" font-family="Times New Roman,serif" font-size="12.00">Record order in system</text>
</g>
<!-- 2592513861120&#45;&gt;2592496071504 -->
<g id="edge14" class="edge">
<title>2592513861120&#45;&gt;2592496071504</title>
<path fill="none" stroke="black" d="M1353.2,-18C1361.36,-18 1369.47,-18 1377.33,-18"/>
<polygon fill="black" stroke="black" points="1377.11,-21.5 1387.11,-18 1377.11,-14.5 1377.11,-21.5"/>
</g>
<!-- 2592496071504&#45;&gt;2592513861408 -->
<g id="edge15" class="edge">
<title>2592496071504&#45;&gt;2592513861408</title>
<path fill="none" stroke="black" d="M1507.03,-36.42C1521.1,-41.2 1535.71,-46.16 1547.88,-50.29"/>
<polygon fill="black" stroke="black" points="1546.67,-53.57 1557.27,-53.47 1548.92,-46.94 1546.67,-53.57"/>
</g>
</g>
</svg>
