<?xml version="1.0" encoding="UTF-8" standalone="no"?>
<!DOCTYPE svg PUBLIC "-//W3C//DTD SVG 1.1//EN"
 "http://www.w3.org/Graphics/SVG/1.1/DTD/svg11.dtd">
<!-- Generated by graphviz version 11.0.0 (20240428.1522)
 -->
<!-- Pages: 1 -->
<svg width="1775pt" height="129pt"
 viewBox="0.00 0.00 1774.50 128.83" xmlns="http://www.w3.org/2000/svg" xmlns:xlink="http://www.w3.org/1999/xlink">
<g id="graph0" class="graph" transform="scale(1 1) rotate(0) translate(4 124.83)">
<polygon fill="white" stroke="none" points="-4,4 -4,-124.83 1770.5,-124.83 1770.5,4 -4,4"/>
<!-- 2592516808464 -->
<g id="node1" class="node">
<title>2592516808464</title>
<ellipse fill="green" stroke="black" cx="18" cy="-45" rx="18" ry="18"/>
</g>
<!-- 2592516805872 -->
<g id="node2" class="node">
<title>2592516805872</title>
<polygon fill="none" stroke="black" points="225.25,-63 72,-63 72,-27 225.25,-27 225.25,-63"/>
<text text-anchor="middle" x="148.62" y="-39.98" font-family="Times New Roman,serif" font-size="12.00">Collect customer information</text>
</g>
<!-- 2592516808464&#45;&gt;2592516805872 -->
<g id="edge1" class="edge">
<title>2592516808464&#45;&gt;2592516805872</title>
<path fill="none" stroke="black" d="M36.35,-45C43.12,-45 51.43,-45 60.42,-45"/>
<polygon fill="black" stroke="black" points="60.16,-48.5 70.16,-45 60.16,-41.5 60.16,-48.5"/>
</g>
<!-- 2592516805296 -->
<g id="node3" class="node">
<title>2592516805296</title>
<polygon fill="none" stroke="black" points="288.25,-63 261.25,-45 288.25,-27 315.25,-45 288.25,-63"/>
<text text-anchor="middle" x="288.25" y="-39.98" font-family="Times New Roman,serif" font-size="12.00">+</text>
</g>
<!-- 2592516805872&#45;&gt;2592516805296 -->
<g id="edge2" class="edge">
<title>2592516805872&#45;&gt;2592516805296</title>
<path fill="none" stroke="black" d="M225.68,-45C233.75,-45 241.67,-45 249.02,-45"/>
<polygon fill="black" stroke="black" points="248.86,-48.5 258.86,-45 248.86,-41.5 248.86,-48.5"/>
</g>
<!-- 2592516804144 -->
<g id="node4" class="node">
<title>2592516804144</title>
<polygon fill="none" stroke="black" points="420.5,-88 351.25,-88 351.25,-52 420.5,-52 420.5,-88"/>
<text text-anchor="middle" x="385.88" y="-64.97" font-family="Times New Roman,serif" font-size="12.00">Place order</text>
</g>
<!-- 2592516805296&#45;&gt;2592516804144 -->
<g id="edge4" class="edge">
<title>2592516805296&#45;&gt;2592516804144</title>
<path fill="none" stroke="black" d="M308.14,-49.94C317.29,-52.33 328.69,-55.31 339.89,-58.24"/>
<polygon fill="black" stroke="black" points="338.9,-61.6 349.46,-60.74 340.67,-54.83 338.9,-61.6"/>
</g>
<!-- 2592516804528 -->
<g id="node5" class="node">
<title>2592516804528</title>
<polygon fill="none" stroke="black" points="619.12,-36 482.38,-36 482.38,0 619.12,0 619.12,-36"/>
<text text-anchor="middle" x="550.75" y="-12.97" font-family="Times New Roman,serif" font-size="12.00">Receive customer inquiry</text>
</g>
<!-- 2592516805296&#45;&gt;2592516804528 -->
<g id="edge3" class="edge">
<title>2592516805296&#45;&gt;2592516804528</title>
<path fill="none" stroke="black" d="M312.37,-42.6C347.53,-38.96 416.13,-31.85 470.58,-26.21"/>
<polygon fill="black" stroke="black" points="470.87,-29.69 480.46,-25.18 470.15,-22.73 470.87,-29.69"/>
</g>
<!-- 2592516803760 -->
<g id="node6" class="node">
<title>2592516803760</title>
<polygon fill="none" stroke="black" points="645,-90 456.5,-90 456.5,-54 645,-54 645,-90"/>
<text text-anchor="middle" x="550.75" y="-66.97" font-family="Times New Roman,serif" font-size="12.00">Send order confirmation to customer</text>
</g>
<!-- 2592516804144&#45;&gt;2592516803760 -->
<g id="edge5" class="edge">
<title>2592516804144&#45;&gt;2592516803760</title>
<path fill="none" stroke="black" d="M420.62,-70.41C428.01,-70.51 436.2,-70.61 444.78,-70.71"/>
<polygon fill="black" stroke="black" points="444.68,-74.21 454.72,-70.83 444.76,-67.21 444.68,-74.21"/>
</g>
<!-- 2592516804192 -->
<g id="node7" class="node">
<title>2592516804192</title>
<polygon fill="none" stroke="black" points="1667.5,-59 1640.5,-41 1667.5,-23 1694.5,-41 1667.5,-59"/>
<text text-anchor="middle" x="1667.5" y="-35.98" font-family="Times New Roman,serif" font-size="12.00">+</text>
</g>
<!-- 2592516804528&#45;&gt;2592516804192 -->
<g id="edge6" class="edge">
<title>2592516804528&#45;&gt;2592516804192</title>
<path fill="none" stroke="black" d="M619.54,-18C698.57,-18 833.13,-18 948.75,-18 948.75,-18 948.75,-18 1452.75,-18 1517.43,-18 1592.5,-28.54 1634.24,-35.35"/>
<polygon fill="black" stroke="black" points="1633.41,-38.76 1643.85,-36.95 1634.56,-31.86 1633.41,-38.76"/>
</g>
<!-- 2592516804864 -->
<g id="node8" class="node">
<title>2592516804864</title>
<polygon fill="none" stroke="black" points="886.75,-90 681,-90 681,-54 886.75,-54 886.75,-90"/>
<text text-anchor="middle" x="783.88" y="-66.97" font-family="Times New Roman,serif" font-size="12.00">Address customer concerns or questions</text>
</g>
<!-- 2592516803760&#45;&gt;2592516804864 -->
<g id="edge7" class="edge">
<title>2592516803760&#45;&gt;2592516804864</title>
<path fill="none" stroke="black" d="M645.42,-72C653.33,-72 661.39,-72 669.42,-72"/>
<polygon fill="black" stroke="black" points="669.25,-75.5 679.25,-72 669.25,-68.5 669.25,-75.5"/>
</g>
<!-- 2592516808560 -->
<g id="node14" class="node">
<title>2592516808560</title>
<ellipse fill="orange" stroke="black" cx="1748.5" cy="-41" rx="18" ry="18"/>
</g>
<!-- 2592516804192&#45;&gt;2592516808560 -->
<g id="edge8" class="edge">
<title>2592516804192&#45;&gt;2592516808560</title>
<path fill="none" stroke="black" d="M1695.25,-41C1702.88,-41 1711.23,-41 1718.97,-41"/>
<polygon fill="black" stroke="black" points="1718.93,-44.5 1728.93,-41 1718.93,-37.5 1718.93,-44.5"/>
</g>
<!-- 2592516803280 -->
<g id="node9" class="node">
<title>2592516803280</title>
<polygon fill="none" stroke="black" points="949.75,-90 922.75,-72 949.75,-54 976.75,-72 949.75,-90"/>
<text text-anchor="middle" x="949.75" y="-66.97" font-family="Times New Roman,serif" font-size="12.00">X</text>
</g>
<!-- 2592516804864&#45;&gt;2592516803280 -->
<g id="edge9" class="edge">
<title>2592516804864&#45;&gt;2592516803280</title>
<path fill="none" stroke="black" d="M886.8,-72C895.15,-72 903.21,-72 910.6,-72"/>
<polygon fill="black" stroke="black" points="910.45,-75.5 920.45,-72 910.45,-68.5 910.45,-75.5"/>
</g>
<!-- 2592516803328 -->
<g id="node10" class="node">
<title>2592516803328</title>
<polygon fill="none" stroke="black" points="1577.5,-82 1550.5,-64 1577.5,-46 1604.5,-64 1577.5,-82"/>
<text text-anchor="middle" x="1577.5" y="-58.98" font-family="Times New Roman,serif" font-size="12.00">X</text>
</g>
<!-- 2592516803280&#45;&gt;2592516803328 -->
<g id="edge11" class="edge">
<title>2592516803280&#45;&gt;2592516803328</title>
<path fill="none" stroke="black" d="M967.54,-78.63C979.84,-83.12 997.05,-88.65 1012.75,-91 1233.29,-124.03 1296.19,-136.47 1514.5,-91 1527.43,-88.31 1540.97,-82.77 1552.09,-77.4"/>
<polygon fill="black" stroke="black" points="1553.61,-80.55 1560.93,-72.89 1550.43,-74.31 1553.61,-80.55"/>
</g>
<!-- 2592516805200 -->
<g id="node11" class="node">
<title>2592516805200</title>
<polygon fill="none" stroke="black" points="1094.75,-82 1012.75,-82 1012.75,-46 1094.75,-46 1094.75,-82"/>
<text text-anchor="middle" x="1053.75" y="-58.98" font-family="Times New Roman,serif" font-size="12.00">Provide quote</text>
</g>
<!-- 2592516803280&#45;&gt;2592516805200 -->
<g id="edge10" class="edge">
<title>2592516803280&#45;&gt;2592516805200</title>
<path fill="none" stroke="black" d="M974.66,-70.12C982.7,-69.49 992,-68.76 1001.32,-68.03"/>
<polygon fill="black" stroke="black" points="1001.42,-71.54 1011.11,-67.27 1000.87,-64.56 1001.42,-71.54"/>
</g>
<!-- 2592516803328&#45;&gt;2592516804192 -->
<g id="edge12" class="edge">
<title>2592516803328&#45;&gt;2592516804192</title>
<path fill="none" stroke="black" d="M1597.59,-59.01C1609.01,-56.03 1623.76,-52.17 1636.69,-48.79"/>
<polygon fill="black" stroke="black" points="1637.19,-52.28 1645.98,-46.36 1635.42,-45.51 1637.19,-52.28"/>
</g>
<!-- 2592516806208 -->
<g id="node12" class="node">
<title>2592516806208</title>
<polygon fill="none" stroke="black" points="1353,-82 1130.75,-82 1130.75,-46 1353,-46 1353,-82"/>
<text text-anchor="middle" x="1241.88" y="-58.98" font-family="Times New Roman,serif" font-size="12.00">Guide customer in selecting product/service</text>
</g>
<!-- 2592516805200&#45;&gt;2592516806208 -->
<g id="edge13" class="edge">
<title>2592516805200&#45;&gt;2592516806208</title>
<path fill="none" stroke="black" d="M1095.14,-64C1102.57,-64 1110.67,-64 1119.13,-64"/>
<polygon fill="black" stroke="black" points="1118.9,-67.5 1128.9,-64 1118.9,-60.5 1118.9,-67.5"/>
</g>
<!-- 2592516805536 -->
<g id="node13" class="node">
<title>2592516805536</title>
<polygon fill="none" stroke="black" points="1514.5,-82 1389,-82 1389,-46 1514.5,-46 1514.5,-82"/>
<text text-anchor="middle" x="1451.75" y="-58.98" font-family="Times New Roman,serif" font-size="12.00">Record order in system</text>
</g>
<!-- 2592516806208&#45;&gt;2592516805536 -->
<g id="edge14" class="edge">
<title>2592516806208&#45;&gt;2592516805536</title>
<path fill="none" stroke="black" d="M1353.2,-64C1361.36,-64 1369.47,-64 1377.33,-64"/>
<polygon fill="black" stroke="black" points="1377.11,-67.5 1387.11,-64 1377.11,-60.5 1377.11,-67.5"/>
</g>
<!-- 2592516805536&#45;&gt;2592516803328 -->
<g id="edge15" class="edge">
<title>2592516805536&#45;&gt;2592516803328</title>
<path fill="none" stroke="black" d="M1514.99,-64C1522.95,-64 1530.9,-64 1538.32,-64"/>
<polygon fill="black" stroke="black" points="1538.32,-67.5 1548.32,-64 1538.32,-60.5 1538.32,-67.5"/>
</g>
</g>
</svg>
