<?xml version="1.0" encoding="UTF-8" standalone="no"?>
<!DOCTYPE svg PUBLIC "-//W3C//DTD SVG 1.1//EN"
 "http://www.w3.org/Graphics/SVG/1.1/DTD/svg11.dtd">
<!-- Generated by graphviz version 6.0.1 (20220911.1526)
 -->
<!-- Pages: 1 -->
<svg width="2291pt" height="206pt"
 viewBox="0.00 0.00 2291.00 206.00" xmlns="http://www.w3.org/2000/svg" xmlns:xlink="http://www.w3.org/1999/xlink">
<g id="graph0" class="graph" transform="scale(1 1) rotate(0) translate(4 202)">
<polygon fill="white" stroke="none" points="-4,4 -4,-202 2287,-202 2287,4 -4,4"/>
<!-- 2058986748176 -->
<g id="node1" class="node">
<title>2058986748176</title>
<ellipse fill="green" stroke="black" cx="18" cy="-99" rx="18" ry="18"/>
</g>
<!-- 2057961397152 -->
<g id="node2" class="node">
<title>2057961397152</title>
<polygon fill="none" stroke="black" points="218,-117 72,-117 72,-81 218,-81 218,-117"/>
<text text-anchor="middle" x="145" y="-95.9" font-family="Times New Roman,serif" font-size="12.00">Customer searches for ticket</text>
</g>
<!-- 2058986748176&#45;&gt;2057961397152 -->
<g id="edge1" class="edge">
<title>2058986748176&#45;&gt;2057961397152</title>
<path fill="none" stroke="black" d="M36.12,-99C43.26,-99 52.13,-99 61.68,-99"/>
<polygon fill="black" stroke="black" points="61.84,-102.5 71.84,-99 61.84,-95.5 61.84,-102.5"/>
</g>
<!-- 2058997436896 -->
<g id="node3" class="node">
<title>2058997436896</title>
<polygon fill="none" stroke="black" points="325,-117 254,-117 254,-81 325,-81 325,-117"/>
<text text-anchor="middle" x="289.5" y="-95.9" font-family="Times New Roman,serif" font-size="12.00">Select route</text>
</g>
<!-- 2057961397152&#45;&gt;2058997436896 -->
<g id="edge2" class="edge">
<title>2057961397152&#45;&gt;2058997436896</title>
<path fill="none" stroke="black" d="M218.08,-99C226.82,-99 235.54,-99 243.72,-99"/>
<polygon fill="black" stroke="black" points="243.75,-102.5 253.75,-99 243.75,-95.5 243.75,-102.5"/>
</g>
<!-- 2058997446688 -->
<g id="node4" class="node">
<title>2058997446688</title>
<polygon fill="none" stroke="black" points="469,-117 361,-117 361,-81 469,-81 469,-117"/>
<text text-anchor="middle" x="415" y="-95.9" font-family="Times New Roman,serif" font-size="12.00">Select date and time</text>
</g>
<!-- 2058997436896&#45;&gt;2058997446688 -->
<g id="edge3" class="edge">
<title>2058997436896&#45;&gt;2058997446688</title>
<path fill="none" stroke="black" d="M325.23,-99C333.13,-99 341.76,-99 350.44,-99"/>
<polygon fill="black" stroke="black" points="350.61,-102.5 360.61,-99 350.61,-95.5 350.61,-102.5"/>
</g>
<!-- 2058997438576 -->
<g id="node5" class="node">
<title>2058997438576</title>
<polygon fill="none" stroke="black" points="532,-117 505,-99 532,-81 559,-99 532,-117"/>
<text text-anchor="middle" x="532" y="-95.9" font-family="Times New Roman,serif" font-size="12.00">+</text>
</g>
<!-- 2058997446688&#45;&gt;2058997438576 -->
<g id="edge4" class="edge">
<title>2058997446688&#45;&gt;2058997438576</title>
<path fill="none" stroke="black" d="M469.12,-99C477.72,-99 486.44,-99 494.52,-99"/>
<polygon fill="black" stroke="black" points="494.71,-102.5 504.71,-99 494.71,-95.5 494.71,-102.5"/>
</g>
<!-- 2058997437520 -->
<g id="node6" class="node">
<title>2058997437520</title>
<polygon fill="none" stroke="black" points="730.5,-144 605.5,-144 605.5,-108 730.5,-108 730.5,-144"/>
<text text-anchor="middle" x="668" y="-122.9" font-family="Times New Roman,serif" font-size="12.00">Provide payment details</text>
</g>
<!-- 2058997438576&#45;&gt;2058997437520 -->
<g id="edge5" class="edge">
<title>2058997438576&#45;&gt;2058997437520</title>
<path fill="none" stroke="black" d="M553.06,-103.04C564.5,-105.35 579.61,-108.39 595.07,-111.51"/>
<polygon fill="black" stroke="black" points="594.75,-115.01 605.24,-113.56 596.13,-108.15 594.75,-115.01"/>
</g>
<!-- 2058997437568 -->
<g id="node7" class="node">
<title>2058997437568</title>
<polygon fill="none" stroke="black" points="741,-90 595,-90 595,-54 741,-54 741,-90"/>
<text text-anchor="middle" x="668" y="-68.9" font-family="Times New Roman,serif" font-size="12.00">Provide personal information</text>
</g>
<!-- 2058997438576&#45;&gt;2058997437568 -->
<g id="edge6" class="edge">
<title>2058997438576&#45;&gt;2058997437568</title>
<path fill="none" stroke="black" d="M553.06,-94.96C561.96,-93.16 573.08,-90.92 584.85,-88.55"/>
<polygon fill="black" stroke="black" points="585.76,-91.94 594.87,-86.53 584.37,-85.08 585.76,-91.94"/>
</g>
<!-- 2057961398736 -->
<g id="node8" class="node">
<title>2057961398736</title>
<polygon fill="none" stroke="black" points="804,-117 777,-99 804,-81 831,-99 804,-117"/>
<text text-anchor="middle" x="804" y="-95.9" font-family="Times New Roman,serif" font-size="12.00">+</text>
</g>
<!-- 2058997437520&#45;&gt;2057961398736 -->
<g id="edge7" class="edge">
<title>2058997437520&#45;&gt;2057961398736</title>
<path fill="none" stroke="black" d="M730.51,-113.61C745.24,-110.64 760.32,-107.6 772.89,-105.07"/>
<polygon fill="black" stroke="black" points="773.68,-108.48 782.79,-103.07 772.3,-101.62 773.68,-108.48"/>
</g>
<!-- 2058997437568&#45;&gt;2057961398736 -->
<g id="edge8" class="edge">
<title>2058997437568&#45;&gt;2057961398736</title>
<path fill="none" stroke="black" d="M741.1,-86.53C752.26,-88.78 763.23,-90.99 772.77,-92.91"/>
<polygon fill="black" stroke="black" points="772.36,-96.4 782.85,-94.94 773.74,-89.53 772.36,-96.4"/>
</g>
<!-- 2057961404064 -->
<g id="node9" class="node">
<title>2057961404064</title>
<polygon fill="none" stroke="black" points="953,-117 867,-117 867,-81 953,-81 953,-117"/>
<text text-anchor="middle" x="910" y="-95.9" font-family="Times New Roman,serif" font-size="12.00">Generate ticket</text>
</g>
<!-- 2057961398736&#45;&gt;2057961404064 -->
<g id="edge9" class="edge">
<title>2057961398736&#45;&gt;2057961404064</title>
<path fill="none" stroke="black" d="M831.24,-99C839.11,-99 848.04,-99 856.96,-99"/>
<polygon fill="black" stroke="black" points="856.98,-102.5 866.98,-99 856.98,-95.5 856.98,-102.5"/>
</g>
<!-- 2057961399936 -->
<g id="node10" class="node">
<title>2057961399936</title>
<polygon fill="none" stroke="black" points="1016,-117 989,-99 1016,-81 1043,-99 1016,-117"/>
<text text-anchor="middle" x="1016" y="-95.9" font-family="Times New Roman,serif" font-size="12.00">+</text>
</g>
<!-- 2057961404064&#45;&gt;2057961399936 -->
<g id="edge10" class="edge">
<title>2057961404064&#45;&gt;2057961399936</title>
<path fill="none" stroke="black" d="M953,-99C961.48,-99 970.34,-99 978.61,-99"/>
<polygon fill="black" stroke="black" points="978.7,-102.5 988.7,-99 978.7,-95.5 978.7,-102.5"/>
</g>
<!-- 2058997436560 -->
<g id="node11" class="node">
<title>2058997436560</title>
<polygon fill="none" stroke="black" points="1137,-90 1110,-72 1137,-54 1164,-72 1137,-90"/>
<text text-anchor="middle" x="1137" y="-68.9" font-family="Times New Roman,serif" font-size="12.00">X</text>
</g>
<!-- 2057961399936&#45;&gt;2058997436560 -->
<g id="edge11" class="edge">
<title>2057961399936&#45;&gt;2058997436560</title>
<path fill="none" stroke="black" d="M1036.65,-94.54C1055.6,-90.24 1084.53,-83.68 1106.29,-78.74"/>
<polygon fill="black" stroke="black" points="1107.34,-82.09 1116.32,-76.47 1105.79,-75.26 1107.34,-82.09"/>
</g>
<!-- 2057961403536 -->
<g id="node12" class="node">
<title>2057961403536</title>
<polygon fill="none" stroke="black" points="1195,-144 1079,-144 1079,-108 1195,-108 1195,-144"/>
<text text-anchor="middle" x="1137" y="-122.9" font-family="Times New Roman,serif" font-size="12.00">Update seat inventory</text>
</g>
<!-- 2057961399936&#45;&gt;2057961403536 -->
<g id="edge12" class="edge">
<title>2057961399936&#45;&gt;2057961403536</title>
<path fill="none" stroke="black" d="M1036.65,-103.46C1045.73,-105.52 1057.09,-108.1 1068.87,-110.77"/>
<polygon fill="black" stroke="black" points="1068.28,-114.22 1078.81,-113.02 1069.83,-107.4 1068.28,-114.22"/>
</g>
<!-- 2058997438672 -->
<g id="node13" class="node">
<title>2058997438672</title>
<polygon fill="none" stroke="black" points="1341,-94 1231,-94 1231,-58 1341,-58 1341,-94"/>
<text text-anchor="middle" x="1286" y="-72.9" font-family="Times New Roman,serif" font-size="12.00">Send ticket via SMS</text>
</g>
<!-- 2058997436560&#45;&gt;2058997438672 -->
<g id="edge14" class="edge">
<title>2058997436560&#45;&gt;2058997438672</title>
<path fill="none" stroke="black" d="M1163.27,-72.69C1179.14,-73.12 1200.38,-73.7 1220.68,-74.25"/>
<polygon fill="black" stroke="black" points="1220.76,-77.75 1230.85,-74.53 1220.95,-70.76 1220.76,-77.75"/>
</g>
<!-- 2057961400368 -->
<g id="node15" class="node">
<title>2057961400368</title>
<polygon fill="none" stroke="black" points="1341,-40 1231,-40 1231,-4 1341,-4 1341,-40"/>
<text text-anchor="middle" x="1286" y="-18.9" font-family="Times New Roman,serif" font-size="12.00">Send ticket via email</text>
</g>
<!-- 2058997436560&#45;&gt;2057961400368 -->
<g id="edge13" class="edge">
<title>2058997436560&#45;&gt;2057961400368</title>
<path fill="none" stroke="black" d="M1155.44,-66.07C1172.02,-60.43 1197.98,-51.6 1222.32,-43.32"/>
<polygon fill="black" stroke="black" points="1223.56,-46.59 1231.9,-40.06 1221.31,-39.97 1223.56,-46.59"/>
</g>
<!-- 2057961400944 -->
<g id="node14" class="node">
<title>2057961400944</title>
<polygon fill="none" stroke="black" points="1494,-144 1467,-126 1494,-108 1521,-126 1494,-144"/>
<text text-anchor="middle" x="1494" y="-122.9" font-family="Times New Roman,serif" font-size="12.00">+</text>
</g>
<!-- 2057961403536&#45;&gt;2057961400944 -->
<g id="edge15" class="edge">
<title>2057961403536&#45;&gt;2057961400944</title>
<path fill="none" stroke="black" d="M1195.04,-126C1268.78,-126 1395.04,-126 1456.81,-126"/>
<polygon fill="black" stroke="black" points="1456.86,-129.5 1466.86,-126 1456.86,-122.5 1456.86,-129.5"/>
</g>
<!-- 2058997436800 -->
<g id="node16" class="node">
<title>2058997436800</title>
<polygon fill="none" stroke="black" points="1404,-90 1377,-72 1404,-54 1431,-72 1404,-90"/>
<text text-anchor="middle" x="1404" y="-68.9" font-family="Times New Roman,serif" font-size="12.00">X</text>
</g>
<!-- 2058997438672&#45;&gt;2058997436800 -->
<g id="edge16" class="edge">
<title>2058997438672&#45;&gt;2058997436800</title>
<path fill="none" stroke="black" d="M1341.26,-74.13C1350.3,-73.82 1359.46,-73.5 1367.86,-73.21"/>
<polygon fill="black" stroke="black" points="1368.15,-76.7 1378.02,-72.86 1367.91,-69.71 1368.15,-76.7"/>
</g>
<!-- 2058997438048 -->
<g id="node17" class="node">
<title>2058997438048</title>
<polygon fill="none" stroke="black" points="1584,-198 1557,-180 1584,-162 1611,-180 1584,-198"/>
<text text-anchor="middle" x="1584" y="-176.9" font-family="Times New Roman,serif" font-size="12.00">+</text>
</g>
<!-- 2057961400944&#45;&gt;2058997438048 -->
<g id="edge17" class="edge">
<title>2057961400944&#45;&gt;2058997438048</title>
<path fill="none" stroke="black" d="M1508.75,-134.44C1522.57,-142.92 1544.11,-156.13 1560.43,-166.15"/>
<polygon fill="black" stroke="black" points="1558.99,-169.37 1569.35,-171.62 1562.65,-163.41 1558.99,-169.37"/>
</g>
<!-- 2058997438768 -->
<g id="node18" class="node">
<title>2058997438768</title>
<polygon fill="none" stroke="black" points="1584,-144 1557,-126 1584,-108 1611,-126 1584,-144"/>
<text text-anchor="middle" x="1584" y="-122.9" font-family="Times New Roman,serif" font-size="12.00">+</text>
</g>
<!-- 2057961400944&#45;&gt;2058997438768 -->
<g id="edge19" class="edge">
<title>2057961400944&#45;&gt;2058997438768</title>
<path fill="none" stroke="black" d="M1521.4,-126C1529.39,-126 1538.31,-126 1546.82,-126"/>
<polygon fill="black" stroke="black" points="1546.92,-129.5 1556.92,-126 1546.92,-122.5 1546.92,-129.5"/>
</g>
<!-- 2057961393744 -->
<g id="node19" class="node">
<title>2057961393744</title>
<polygon fill="none" stroke="black" points="1584,-90 1557,-72 1584,-54 1611,-72 1584,-90"/>
<text text-anchor="middle" x="1584" y="-68.9" font-family="Times New Roman,serif" font-size="12.00">+</text>
</g>
<!-- 2057961400944&#45;&gt;2057961393744 -->
<g id="edge18" class="edge">
<title>2057961400944&#45;&gt;2057961393744</title>
<path fill="none" stroke="black" d="M1508.75,-117.56C1522.57,-109.08 1544.11,-95.87 1560.43,-85.85"/>
<polygon fill="black" stroke="black" points="1562.65,-88.59 1569.35,-80.38 1558.99,-82.63 1562.65,-88.59"/>
</g>
<!-- 2057961397056 -->
<g id="node20" class="node">
<title>2057961397056</title>
<polygon fill="none" stroke="black" points="1584,-36 1557,-18 1584,0 1611,-18 1584,-36"/>
<text text-anchor="middle" x="1584" y="-14.9" font-family="Times New Roman,serif" font-size="12.00">+</text>
</g>
<!-- 2057961400944&#45;&gt;2057961397056 -->
<g id="edge20" class="edge">
<title>2057961400944&#45;&gt;2057961397056</title>
<path fill="none" stroke="black" d="M1505.83,-115.63C1510.69,-110.77 1516.35,-104.78 1521,-99 1539.08,-76.52 1538.92,-67.48 1557,-45 1559.47,-41.93 1562.23,-38.8 1565,-35.81"/>
<polygon fill="black" stroke="black" points="1567.75,-38 1572.17,-28.37 1562.71,-33.14 1567.75,-38"/>
</g>
<!-- 2057961400368&#45;&gt;2058997436800 -->
<g id="edge21" class="edge">
<title>2057961400368&#45;&gt;2058997436800</title>
<path fill="none" stroke="black" d="M1328.88,-40.05C1345.33,-47.14 1363.66,-55.04 1377.98,-61.21"/>
<polygon fill="black" stroke="black" points="1376.61,-64.43 1387.17,-65.18 1379.38,-58.01 1376.61,-64.43"/>
</g>
<!-- 2057961404736 -->
<g id="node24" class="node">
<title>2057961404736</title>
<polygon fill="none" stroke="black" points="1494,-90 1467,-72 1494,-54 1521,-72 1494,-90"/>
<text text-anchor="middle" x="1494" y="-68.9" font-family="Times New Roman,serif" font-size="12.00">+</text>
</g>
<!-- 2058997436800&#45;&gt;2057961404736 -->
<g id="edge22" class="edge">
<title>2058997436800&#45;&gt;2057961404736</title>
<path fill="none" stroke="black" d="M1431.4,-72C1439.39,-72 1448.31,-72 1456.82,-72"/>
<polygon fill="black" stroke="black" points="1456.92,-75.5 1466.92,-72 1456.92,-68.5 1456.92,-75.5"/>
</g>
<!-- 2058997436320 -->
<g id="node21" class="node">
<title>2058997436320</title>
<polygon fill="none" stroke="black" points="1740,-198 1647,-198 1647,-162 1740,-162 1740,-198"/>
<text text-anchor="middle" x="1693.5" y="-176.9" font-family="Times New Roman,serif" font-size="12.00">Send instructions</text>
</g>
<!-- 2058997438048&#45;&gt;2058997436320 -->
<g id="edge23" class="edge">
<title>2058997438048&#45;&gt;2058997436320</title>
<path fill="none" stroke="black" d="M1611.02,-180C1618.88,-180 1627.82,-180 1636.84,-180"/>
<polygon fill="black" stroke="black" points="1636.99,-183.5 1646.99,-180 1636.99,-176.5 1636.99,-183.5"/>
</g>
<!-- 2058997438240 -->
<g id="node22" class="node">
<title>2058997438240</title>
<polygon fill="none" stroke="black" points="1740,-144 1647,-144 1647,-108 1740,-108 1740,-144"/>
<text text-anchor="middle" x="1693.5" y="-122.9" font-family="Times New Roman,serif" font-size="12.00">Send instructions</text>
</g>
<!-- 2058997438768&#45;&gt;2058997438240 -->
<g id="edge24" class="edge">
<title>2058997438768&#45;&gt;2058997438240</title>
<path fill="none" stroke="black" d="M1611.02,-126C1618.88,-126 1627.82,-126 1636.84,-126"/>
<polygon fill="black" stroke="black" points="1636.99,-129.5 1646.99,-126 1636.99,-122.5 1636.99,-129.5"/>
</g>
<!-- 2057961393072 -->
<g id="node23" class="node">
<title>2057961393072</title>
<polygon fill="none" stroke="black" points="1735,-90 1652,-90 1652,-54 1735,-54 1735,-90"/>
<text text-anchor="middle" x="1693.5" y="-68.9" font-family="Times New Roman,serif" font-size="12.00">Send reminder</text>
</g>
<!-- 2057961393744&#45;&gt;2057961393072 -->
<g id="edge25" class="edge">
<title>2057961393744&#45;&gt;2057961393072</title>
<path fill="none" stroke="black" d="M1611.02,-72C1620.25,-72 1630.98,-72 1641.57,-72"/>
<polygon fill="black" stroke="black" points="1641.62,-75.5 1651.62,-72 1641.62,-68.5 1641.62,-75.5"/>
</g>
<!-- 2057961404352 -->
<g id="node25" class="node">
<title>2057961404352</title>
<polygon fill="none" stroke="black" points="1735,-36 1652,-36 1652,0 1735,0 1735,-36"/>
<text text-anchor="middle" x="1693.5" y="-14.9" font-family="Times New Roman,serif" font-size="12.00">Send reminder</text>
</g>
<!-- 2057961397056&#45;&gt;2057961404352 -->
<g id="edge26" class="edge">
<title>2057961397056&#45;&gt;2057961404352</title>
<path fill="none" stroke="black" d="M1611.02,-18C1620.25,-18 1630.98,-18 1641.57,-18"/>
<polygon fill="black" stroke="black" points="1641.62,-21.5 1651.62,-18 1641.62,-14.5 1641.62,-21.5"/>
</g>
<!-- 2057961402336 -->
<g id="node26" class="node">
<title>2057961402336</title>
<polygon fill="none" stroke="black" points="1803,-117 1776,-99 1803,-81 1830,-99 1803,-117"/>
<text text-anchor="middle" x="1803" y="-95.9" font-family="Times New Roman,serif" font-size="12.00">+</text>
</g>
<!-- 2058997436320&#45;&gt;2057961402336 -->
<g id="edge31" class="edge">
<title>2058997436320&#45;&gt;2057961402336</title>
<path fill="none" stroke="black" d="M1726.79,-161.83C1731.31,-159 1735.83,-156.01 1740,-153 1755.41,-141.86 1771.58,-127.68 1783.54,-116.65"/>
<polygon fill="black" stroke="black" points="1786.17,-118.98 1791.08,-109.6 1781.39,-113.87 1786.17,-118.98"/>
</g>
<!-- 2058997438240&#45;&gt;2057961402336 -->
<g id="edge32" class="edge">
<title>2058997438240&#45;&gt;2057961402336</title>
<path fill="none" stroke="black" d="M1740.09,-114.55C1751.22,-111.75 1762.82,-108.84 1772.94,-106.3"/>
<polygon fill="black" stroke="black" points="1774.01,-109.64 1782.86,-103.81 1772.31,-102.85 1774.01,-109.64"/>
</g>
<!-- 2057961393072&#45;&gt;2057961402336 -->
<g id="edge33" class="edge">
<title>2057961393072&#45;&gt;2057961402336</title>
<path fill="none" stroke="black" d="M1735.14,-82.21C1747.71,-85.36 1761.29,-88.77 1772.91,-91.69"/>
<polygon fill="black" stroke="black" points="1772.39,-95.17 1782.94,-94.21 1774.09,-88.38 1772.39,-95.17"/>
</g>
<!-- 2057961404736&#45;&gt;2058997438048 -->
<g id="edge30" class="edge">
<title>2057961404736&#45;&gt;2058997438048</title>
<path fill="none" stroke="black" d="M1505.83,-82.37C1510.69,-87.23 1516.35,-93.22 1521,-99 1539.08,-121.48 1538.92,-130.52 1557,-153 1559.47,-156.07 1562.23,-159.2 1565,-162.19"/>
<polygon fill="black" stroke="black" points="1562.71,-164.86 1572.17,-169.63 1567.75,-160 1562.71,-164.86"/>
</g>
<!-- 2057961404736&#45;&gt;2058997438768 -->
<g id="edge29" class="edge">
<title>2057961404736&#45;&gt;2058997438768</title>
<path fill="none" stroke="black" d="M1508.75,-80.44C1522.57,-88.92 1544.11,-102.13 1560.43,-112.15"/>
<polygon fill="black" stroke="black" points="1558.99,-115.37 1569.35,-117.62 1562.65,-109.41 1558.99,-115.37"/>
</g>
<!-- 2057961404736&#45;&gt;2057961393744 -->
<g id="edge27" class="edge">
<title>2057961404736&#45;&gt;2057961393744</title>
<path fill="none" stroke="black" d="M1521.4,-72C1529.39,-72 1538.31,-72 1546.82,-72"/>
<polygon fill="black" stroke="black" points="1546.92,-75.5 1556.92,-72 1546.92,-68.5 1546.92,-75.5"/>
</g>
<!-- 2057961404736&#45;&gt;2057961397056 -->
<g id="edge28" class="edge">
<title>2057961404736&#45;&gt;2057961397056</title>
<path fill="none" stroke="black" d="M1508.75,-63.56C1522.57,-55.08 1544.11,-41.87 1560.43,-31.85"/>
<polygon fill="black" stroke="black" points="1562.65,-34.59 1569.35,-26.38 1558.99,-28.63 1562.65,-34.59"/>
</g>
<!-- 2057961404352&#45;&gt;2057961402336 -->
<g id="edge34" class="edge">
<title>2057961404352&#45;&gt;2057961402336</title>
<path fill="none" stroke="black" d="M1726.79,-36.17C1731.31,-39 1735.83,-41.99 1740,-45 1755.41,-56.14 1771.58,-70.32 1783.54,-81.35"/>
<polygon fill="black" stroke="black" points="1781.39,-84.13 1791.08,-88.4 1786.17,-79.02 1781.39,-84.13"/>
</g>
<!-- 2057961400800 -->
<g id="node27" class="node">
<title>2057961400800</title>
<polygon fill="none" stroke="black" points="2012,-117 1866,-117 1866,-81 2012,-81 2012,-117"/>
<text text-anchor="middle" x="1939" y="-95.9" font-family="Times New Roman,serif" font-size="12.00">Customer completes journey</text>
</g>
<!-- 2057961402336&#45;&gt;2057961400800 -->
<g id="edge35" class="edge">
<title>2057961402336&#45;&gt;2057961400800</title>
<path fill="none" stroke="black" d="M1830.15,-99C1837.82,-99 1846.63,-99 1855.85,-99"/>
<polygon fill="black" stroke="black" points="1855.98,-102.5 1865.98,-99 1855.98,-95.5 1855.98,-102.5"/>
</g>
<!-- 2058997439344 -->
<g id="node28" class="node">
<title>2058997439344</title>
<polygon fill="none" stroke="black" points="2211,-117 2048,-117 2048,-81 2211,-81 2211,-117"/>
<text text-anchor="middle" x="2129.5" y="-95.9" font-family="Times New Roman,serif" font-size="12.00">Post&#45;travel feedback or services</text>
</g>
<!-- 2057961400800&#45;&gt;2058997439344 -->
<g id="edge36" class="edge">
<title>2057961400800&#45;&gt;2058997439344</title>
<path fill="none" stroke="black" d="M2012.07,-99C2020.51,-99 2029.21,-99 2037.86,-99"/>
<polygon fill="black" stroke="black" points="2037.98,-102.5 2047.98,-99 2037.98,-95.5 2037.98,-102.5"/>
</g>
<!-- 2058986745248 -->
<g id="node29" class="node">
<title>2058986745248</title>
<ellipse fill="orange" stroke="black" cx="2265" cy="-99" rx="18" ry="18"/>
</g>
<!-- 2058997439344&#45;&gt;2058986745248 -->
<g id="edge37" class="edge">
<title>2058997439344&#45;&gt;2058986745248</title>
<path fill="none" stroke="black" d="M2211.24,-99C2220.34,-99 2229.09,-99 2236.75,-99"/>
<polygon fill="black" stroke="black" points="2236.78,-102.5 2246.78,-99 2236.78,-95.5 2236.78,-102.5"/>
</g>
</g>
</svg>
