<?xml version="1.0" encoding="UTF-8" standalone="no"?>
<!DOCTYPE svg PUBLIC "-//W3C//DTD SVG 1.1//EN"
 "http://www.w3.org/Graphics/SVG/1.1/DTD/svg11.dtd">
<!-- Generated by graphviz version 6.0.1 (20220911.1526)
 -->
<!-- Pages: 1 -->
<svg width="2328pt" height="173pt"
 viewBox="0.00 0.00 2328.00 173.00" xmlns="http://www.w3.org/2000/svg" xmlns:xlink="http://www.w3.org/1999/xlink">
<g id="graph0" class="graph" transform="scale(1 1) rotate(0) translate(4 169)">
<polygon fill="white" stroke="none" points="-4,4 -4,-169 2324,-169 2324,4 -4,4"/>
<!-- 2057961244512 -->
<g id="node1" class="node">
<title>2057961244512</title>
<ellipse fill="green" stroke="black" cx="18" cy="-82" rx="18" ry="18"/>
</g>
<!-- 2057961256128 -->
<g id="node2" class="node">
<title>2057961256128</title>
<polygon fill="none" stroke="black" points="218,-100 72,-100 72,-64 218,-64 218,-100"/>
<text text-anchor="middle" x="145" y="-78.9" font-family="Times New Roman,serif" font-size="12.00">Customer searches for ticket</text>
</g>
<!-- 2057961244512&#45;&gt;2057961256128 -->
<g id="edge1" class="edge">
<title>2057961244512&#45;&gt;2057961256128</title>
<path fill="none" stroke="black" d="M36.12,-82C43.26,-82 52.13,-82 61.68,-82"/>
<polygon fill="black" stroke="black" points="61.84,-85.5 71.84,-82 61.84,-78.5 61.84,-85.5"/>
</g>
<!-- 2057961257952 -->
<g id="node3" class="node">
<title>2057961257952</title>
<polygon fill="none" stroke="black" points="325,-100 254,-100 254,-64 325,-64 325,-100"/>
<text text-anchor="middle" x="289.5" y="-78.9" font-family="Times New Roman,serif" font-size="12.00">Select route</text>
</g>
<!-- 2057961256128&#45;&gt;2057961257952 -->
<g id="edge2" class="edge">
<title>2057961256128&#45;&gt;2057961257952</title>
<path fill="none" stroke="black" d="M218.08,-82C226.82,-82 235.54,-82 243.72,-82"/>
<polygon fill="black" stroke="black" points="243.75,-85.5 253.75,-82 243.75,-78.5 243.75,-85.5"/>
</g>
<!-- 2057961243072 -->
<g id="node4" class="node">
<title>2057961243072</title>
<polygon fill="none" stroke="black" points="469,-100 361,-100 361,-64 469,-64 469,-100"/>
<text text-anchor="middle" x="415" y="-78.9" font-family="Times New Roman,serif" font-size="12.00">Select date and time</text>
</g>
<!-- 2057961257952&#45;&gt;2057961243072 -->
<g id="edge3" class="edge">
<title>2057961257952&#45;&gt;2057961243072</title>
<path fill="none" stroke="black" d="M325.23,-82C333.13,-82 341.76,-82 350.44,-82"/>
<polygon fill="black" stroke="black" points="350.61,-85.5 360.61,-82 350.61,-78.5 350.61,-85.5"/>
</g>
<!-- 2057961254832 -->
<g id="node5" class="node">
<title>2057961254832</title>
<polygon fill="none" stroke="black" points="651,-100 505,-100 505,-64 651,-64 651,-100"/>
<text text-anchor="middle" x="578" y="-78.9" font-family="Times New Roman,serif" font-size="12.00">Provide personal information</text>
</g>
<!-- 2057961243072&#45;&gt;2057961254832 -->
<g id="edge4" class="edge">
<title>2057961243072&#45;&gt;2057961254832</title>
<path fill="none" stroke="black" d="M469.16,-82C477.39,-82 486.05,-82 494.74,-82"/>
<polygon fill="black" stroke="black" points="494.93,-85.5 504.93,-82 494.93,-78.5 494.93,-85.5"/>
</g>
<!-- 2057961255840 -->
<g id="node6" class="node">
<title>2057961255840</title>
<polygon fill="none" stroke="black" points="812,-100 687,-100 687,-64 812,-64 812,-100"/>
<text text-anchor="middle" x="749.5" y="-78.9" font-family="Times New Roman,serif" font-size="12.00">Provide payment details</text>
</g>
<!-- 2057961254832&#45;&gt;2057961255840 -->
<g id="edge5" class="edge">
<title>2057961254832&#45;&gt;2057961255840</title>
<path fill="none" stroke="black" d="M651.37,-82C659.75,-82 668.3,-82 676.67,-82"/>
<polygon fill="black" stroke="black" points="676.78,-85.5 686.78,-82 676.78,-78.5 676.78,-85.5"/>
</g>
<!-- 2057961257376 -->
<g id="node7" class="node">
<title>2057961257376</title>
<polygon fill="none" stroke="black" points="934,-100 848,-100 848,-64 934,-64 934,-100"/>
<text text-anchor="middle" x="891" y="-78.9" font-family="Times New Roman,serif" font-size="12.00">Generate ticket</text>
</g>
<!-- 2057961255840&#45;&gt;2057961257376 -->
<g id="edge6" class="edge">
<title>2057961255840&#45;&gt;2057961257376</title>
<path fill="none" stroke="black" d="M812.09,-82C820.71,-82 829.49,-82 837.9,-82"/>
<polygon fill="black" stroke="black" points="837.95,-85.5 847.95,-82 837.95,-78.5 837.95,-85.5"/>
</g>
<!-- 2057961255744 -->
<g id="node8" class="node">
<title>2057961255744</title>
<polygon fill="none" stroke="black" points="997,-100 970,-82 997,-64 1024,-82 997,-100"/>
<text text-anchor="middle" x="997" y="-78.9" font-family="Times New Roman,serif" font-size="12.00">+</text>
</g>
<!-- 2057961257376&#45;&gt;2057961255744 -->
<g id="edge7" class="edge">
<title>2057961257376&#45;&gt;2057961255744</title>
<path fill="none" stroke="black" d="M934,-82C942.48,-82 951.34,-82 959.61,-82"/>
<polygon fill="black" stroke="black" points="959.7,-85.5 969.7,-82 959.7,-78.5 959.7,-85.5"/>
</g>
<!-- 2057961257184 -->
<g id="node9" class="node">
<title>2057961257184</title>
<polygon fill="none" stroke="black" points="1322,-165 1212,-165 1212,-129 1322,-129 1322,-165"/>
<text text-anchor="middle" x="1267" y="-143.9" font-family="Times New Roman,serif" font-size="12.00">Send ticket via SMS</text>
</g>
<!-- 2057961255744&#45;&gt;2057961257184 -->
<g id="edge10" class="edge">
<title>2057961255744&#45;&gt;2057961257184</title>
<path fill="none" stroke="black" d="M1012.92,-89.65C1025.26,-95.69 1043.38,-103.92 1060,-109 1106.49,-123.21 1160.6,-132.94 1201.69,-138.99"/>
<polygon fill="black" stroke="black" points="1201.45,-142.49 1211.84,-140.45 1202.44,-135.57 1201.45,-142.49"/>
</g>
<!-- 2057961257520 -->
<g id="node10" class="node">
<title>2057961257520</title>
<polygon fill="none" stroke="black" points="1176,-100 1060,-100 1060,-64 1176,-64 1176,-100"/>
<text text-anchor="middle" x="1118" y="-78.9" font-family="Times New Roman,serif" font-size="12.00">Update seat inventory</text>
</g>
<!-- 2057961255744&#45;&gt;2057961257520 -->
<g id="edge9" class="edge">
<title>2057961255744&#45;&gt;2057961257520</title>
<path fill="none" stroke="black" d="M1024.12,-82C1031.77,-82 1040.52,-82 1049.51,-82"/>
<polygon fill="black" stroke="black" points="1049.72,-85.5 1059.72,-82 1049.72,-78.5 1049.72,-85.5"/>
</g>
<!-- 2057961254064 -->
<g id="node11" class="node">
<title>2057961254064</title>
<polygon fill="none" stroke="black" points="1597,-36 1487,-36 1487,0 1597,0 1597,-36"/>
<text text-anchor="middle" x="1542" y="-14.9" font-family="Times New Roman,serif" font-size="12.00">Send ticket via email</text>
</g>
<!-- 2057961255744&#45;&gt;2057961254064 -->
<g id="edge8" class="edge">
<title>2057961255744&#45;&gt;2057961254064</title>
<path fill="none" stroke="black" d="M1012.3,-74.13C1024.56,-67.79 1042.91,-59.25 1060,-55 1205.71,-18.74 1383.23,-15.12 1476.55,-16.21"/>
<polygon fill="black" stroke="black" points="1476.64,-19.71 1486.69,-16.35 1476.74,-12.71 1476.64,-19.71"/>
</g>
<!-- 2057961253968 -->
<g id="node12" class="node">
<title>2057961253968</title>
<polygon fill="none" stroke="black" points="2221,-105 2194,-87 2221,-69 2248,-87 2221,-105"/>
<text text-anchor="middle" x="2221" y="-83.9" font-family="Times New Roman,serif" font-size="12.00">+</text>
</g>
<!-- 2057961257184&#45;&gt;2057961253968 -->
<g id="edge11" class="edge">
<title>2057961257184&#45;&gt;2057961253968</title>
<path fill="none" stroke="black" d="M1322.1,-150.78C1377.16,-154.3 1464.97,-159 1541,-159 1541,-159 1541,-159 1987.5,-159 2067.11,-159 2155.46,-120.01 2196.58,-99.41"/>
<polygon fill="black" stroke="black" points="2198.21,-102.51 2205.53,-94.84 2195.03,-96.27 2198.21,-102.51"/>
</g>
<!-- 2057961249504 -->
<g id="node13" class="node">
<title>2057961249504</title>
<polygon fill="none" stroke="black" points="1267,-100 1240,-82 1267,-64 1294,-82 1267,-100"/>
<text text-anchor="middle" x="1267" y="-78.9" font-family="Times New Roman,serif" font-size="12.00">+</text>
</g>
<!-- 2057961257520&#45;&gt;2057961249504 -->
<g id="edge12" class="edge">
<title>2057961257520&#45;&gt;2057961249504</title>
<path fill="none" stroke="black" d="M1176.25,-82C1194.24,-82 1213.6,-82 1229.71,-82"/>
<polygon fill="black" stroke="black" points="1229.78,-85.5 1239.78,-82 1229.78,-78.5 1229.78,-85.5"/>
</g>
<!-- 2057961254064&#45;&gt;2057961253968 -->
<g id="edge13" class="edge">
<title>2057961254064&#45;&gt;2057961253968</title>
<path fill="none" stroke="black" d="M1597.1,-19.16C1656.81,-20.34 1755.76,-22 1841,-22 1841,-22 1841,-22 1987.5,-22 2065.91,-22 2153.88,-56.71 2195.57,-75.4"/>
<polygon fill="black" stroke="black" points="2194.35,-78.7 2204.9,-79.67 2197.26,-72.33 2194.35,-78.7"/>
</g>
<!-- 2057961254448 -->
<g id="node21" class="node">
<title>2057961254448</title>
<ellipse fill="orange" stroke="black" cx="2302" cy="-87" rx="18" ry="18"/>
</g>
<!-- 2057961253968&#45;&gt;2057961254448 -->
<g id="edge16" class="edge">
<title>2057961253968&#45;&gt;2057961254448</title>
<path fill="none" stroke="black" d="M2248.31,-87C2256.42,-87 2265.37,-87 2273.56,-87"/>
<polygon fill="black" stroke="black" points="2273.75,-90.5 2283.75,-87 2273.75,-83.5 2273.75,-90.5"/>
</g>
<!-- 2057961253152 -->
<g id="node14" class="node">
<title>2057961253152</title>
<polygon fill="none" stroke="black" points="1446,-131 1363,-131 1363,-95 1446,-95 1446,-131"/>
<text text-anchor="middle" x="1404.5" y="-109.9" font-family="Times New Roman,serif" font-size="12.00">Send reminder</text>
</g>
<!-- 2057961249504&#45;&gt;2057961253152 -->
<g id="edge14" class="edge">
<title>2057961249504&#45;&gt;2057961253152</title>
<path fill="none" stroke="black" d="M1287.41,-86.44C1304.5,-90.35 1330.14,-96.22 1352.98,-101.44"/>
<polygon fill="black" stroke="black" points="1352.37,-104.89 1362.9,-103.71 1353.93,-98.07 1352.37,-104.89"/>
</g>
<!-- 2058987453936 -->
<g id="node15" class="node">
<title>2058987453936</title>
<polygon fill="none" stroke="black" points="1451,-77 1358,-77 1358,-41 1451,-41 1451,-77"/>
<text text-anchor="middle" x="1404.5" y="-55.9" font-family="Times New Roman,serif" font-size="12.00">Send instructions</text>
</g>
<!-- 2057961249504&#45;&gt;2058987453936 -->
<g id="edge15" class="edge">
<title>2057961249504&#45;&gt;2058987453936</title>
<path fill="none" stroke="black" d="M1288.87,-78.46C1304.63,-75.78 1327.03,-71.98 1347.84,-68.45"/>
<polygon fill="black" stroke="black" points="1348.63,-71.86 1357.9,-66.74 1347.46,-64.96 1348.63,-71.86"/>
</g>
<!-- 2057961254880 -->
<g id="node16" class="node">
<title>2057961254880</title>
<polygon fill="none" stroke="black" points="1542,-110 1515,-92 1542,-74 1569,-92 1542,-110"/>
<text text-anchor="middle" x="1542" y="-88.9" font-family="Times New Roman,serif" font-size="12.00">+</text>
</g>
<!-- 2057961253152&#45;&gt;2057961254880 -->
<g id="edge17" class="edge">
<title>2057961253152&#45;&gt;2057961254880</title>
<path fill="none" stroke="black" d="M1446.15,-106.7C1466.54,-103.54 1490.85,-99.77 1509.76,-96.84"/>
<polygon fill="black" stroke="black" points="1510.3,-100.3 1519.64,-95.31 1509.23,-93.38 1510.3,-100.3"/>
</g>
<!-- 2058987453936&#45;&gt;2057961254880 -->
<g id="edge18" class="edge">
<title>2058987453936&#45;&gt;2057961254880</title>
<path fill="none" stroke="black" d="M1451.37,-70.17C1471.21,-75 1493.85,-80.52 1511.41,-84.79"/>
<polygon fill="black" stroke="black" points="1511.08,-88.31 1521.62,-87.28 1512.73,-81.51 1511.08,-88.31"/>
</g>
<!-- 2057961243168 -->
<g id="node17" class="node">
<title>2057961243168</title>
<polygon fill="none" stroke="black" points="1779,-110 1633,-110 1633,-74 1779,-74 1779,-110"/>
<text text-anchor="middle" x="1706" y="-88.9" font-family="Times New Roman,serif" font-size="12.00">Customer completes journey</text>
</g>
<!-- 2057961254880&#45;&gt;2057961243168 -->
<g id="edge19" class="edge">
<title>2057961254880&#45;&gt;2057961243168</title>
<path fill="none" stroke="black" d="M1569.03,-92C1583.8,-92 1603.2,-92 1622.7,-92"/>
<polygon fill="black" stroke="black" points="1622.88,-95.5 1632.88,-92 1622.88,-88.5 1622.88,-95.5"/>
</g>
<!-- 2057961257472 -->
<g id="node18" class="node">
<title>2057961257472</title>
<polygon fill="none" stroke="black" points="1842,-110 1815,-92 1842,-74 1869,-92 1842,-110"/>
<text text-anchor="middle" x="1842" y="-88.9" font-family="Times New Roman,serif" font-size="12.00">X</text>
</g>
<!-- 2057961243168&#45;&gt;2057961257472 -->
<g id="edge20" class="edge">
<title>2057961243168&#45;&gt;2057961257472</title>
<path fill="none" stroke="black" d="M1779.1,-92C1787.97,-92 1796.73,-92 1804.73,-92"/>
<polygon fill="black" stroke="black" points="1804.77,-95.5 1814.77,-92 1804.77,-88.5 1804.77,-95.5"/>
</g>
<!-- 2057961249168 -->
<g id="node19" class="node">
<title>2057961249168</title>
<polygon fill="none" stroke="black" points="2131,-105 2104,-87 2131,-69 2158,-87 2131,-105"/>
<text text-anchor="middle" x="2131" y="-83.9" font-family="Times New Roman,serif" font-size="12.00">X</text>
</g>
<!-- 2057961257472&#45;&gt;2057961249168 -->
<g id="edge21" class="edge">
<title>2057961257472&#45;&gt;2057961249168</title>
<path fill="none" stroke="black" d="M1865.65,-94.27C1877.38,-95.33 1891.94,-96.47 1905,-97 1977.39,-99.91 1995.79,-102.79 2068,-97 2078.49,-96.16 2089.87,-94.53 2100,-92.83"/>
<polygon fill="black" stroke="black" points="2100.76,-96.25 2109.99,-91.06 2099.54,-89.36 2100.76,-96.25"/>
</g>
<!-- 2057961243120 -->
<g id="node20" class="node">
<title>2057961243120</title>
<polygon fill="none" stroke="black" points="2068,-88 1905,-88 1905,-52 2068,-52 2068,-88"/>
<text text-anchor="middle" x="1986.5" y="-66.9" font-family="Times New Roman,serif" font-size="12.00">Post&#45;travel feedback or services</text>
</g>
<!-- 2057961257472&#45;&gt;2057961243120 -->
<g id="edge22" class="edge">
<title>2057961257472&#45;&gt;2057961243120</title>
<path fill="none" stroke="black" d="M1864.33,-88.71C1872.92,-87.38 1883.45,-85.75 1894.69,-84.02"/>
<polygon fill="black" stroke="black" points="1895.36,-87.46 1904.71,-82.47 1894.29,-80.54 1895.36,-87.46"/>
</g>
<!-- 2057961249168&#45;&gt;2057961253968 -->
<g id="edge23" class="edge">
<title>2057961249168&#45;&gt;2057961253968</title>
<path fill="none" stroke="black" d="M2158.4,-87C2166.39,-87 2175.31,-87 2183.82,-87"/>
<polygon fill="black" stroke="black" points="2183.92,-90.5 2193.92,-87 2183.92,-83.5 2183.92,-90.5"/>
</g>
<!-- 2057961243120&#45;&gt;2057961249168 -->
<g id="edge24" class="edge">
<title>2057961243120&#45;&gt;2057961249168</title>
<path fill="none" stroke="black" d="M2068.33,-79.64C2078.8,-80.89 2088.99,-82.11 2097.98,-83.18"/>
<polygon fill="black" stroke="black" points="2097.57,-86.66 2107.92,-84.37 2098.4,-79.71 2097.57,-86.66"/>
</g>
</g>
</svg>
