<?xml version="1.0" encoding="UTF-8" standalone="no"?>
<!DOCTYPE svg PUBLIC "-//W3C//DTD SVG 1.1//EN"
 "http://www.w3.org/Graphics/SVG/1.1/DTD/svg11.dtd">
<!-- Generated by graphviz version 6.0.1 (20220911.1526)
 -->
<!-- Pages: 1 -->
<svg width="2454pt" height="153pt"
 viewBox="0.00 0.00 2454.00 152.90" xmlns="http://www.w3.org/2000/svg" xmlns:xlink="http://www.w3.org/1999/xlink">
<g id="graph0" class="graph" transform="scale(1 1) rotate(0) translate(4 148.9)">
<polygon fill="white" stroke="none" points="-4,4 -4,-148.9 2450,-148.9 2450,4 -4,4"/>
<!-- 2057961805696 -->
<g id="node1" class="node">
<title>2057961805696</title>
<ellipse fill="green" stroke="black" cx="18" cy="-57.9" rx="18" ry="18"/>
</g>
<!-- 2057961803824 -->
<g id="node2" class="node">
<title>2057961803824</title>
<polygon fill="none" stroke="black" points="235,-75.9 72,-75.9 72,-39.9 235,-39.9 235,-75.9"/>
<text text-anchor="middle" x="153.5" y="-54.8" font-family="Times New Roman,serif" font-size="12.00">Post&#45;travel feedback or services</text>
</g>
<!-- 2057961805696&#45;&gt;2057961803824 -->
<g id="edge1" class="edge">
<title>2057961805696&#45;&gt;2057961803824</title>
<path fill="none" stroke="black" d="M36.18,-57.9C43.29,-57.9 52.11,-57.9 61.71,-57.9"/>
<polygon fill="black" stroke="black" points="61.94,-61.4 71.94,-57.9 61.94,-54.4 61.94,-61.4"/>
</g>
<!-- 2057961800080 -->
<g id="node3" class="node">
<title>2057961800080</title>
<polygon fill="none" stroke="black" points="417,-75.9 271,-75.9 271,-39.9 417,-39.9 417,-75.9"/>
<text text-anchor="middle" x="344" y="-54.8" font-family="Times New Roman,serif" font-size="12.00">Customer completes journey</text>
</g>
<!-- 2057961803824&#45;&gt;2057961800080 -->
<g id="edge2" class="edge">
<title>2057961803824&#45;&gt;2057961800080</title>
<path fill="none" stroke="black" d="M235.26,-57.9C243.64,-57.9 252.17,-57.9 260.57,-57.9"/>
<polygon fill="black" stroke="black" points="260.74,-61.4 270.74,-57.9 260.74,-54.4 260.74,-61.4"/>
</g>
<!-- 2057961799744 -->
<g id="node4" class="node">
<title>2057961799744</title>
<polygon fill="none" stroke="black" points="480,-75.9 453,-57.9 480,-39.9 507,-57.9 480,-75.9"/>
<text text-anchor="middle" x="480" y="-54.8" font-family="Times New Roman,serif" font-size="12.00">+</text>
</g>
<!-- 2057961800080&#45;&gt;2057961799744 -->
<g id="edge3" class="edge">
<title>2057961800080&#45;&gt;2057961799744</title>
<path fill="none" stroke="black" d="M417.1,-57.9C425.97,-57.9 434.73,-57.9 442.73,-57.9"/>
<polygon fill="black" stroke="black" points="442.77,-61.4 452.77,-57.9 442.77,-54.4 442.77,-61.4"/>
</g>
<!-- 2057961806416 -->
<g id="node5" class="node">
<title>2057961806416</title>
<polygon fill="none" stroke="black" points="570,-102.9 543,-84.9 570,-66.9 597,-84.9 570,-102.9"/>
<text text-anchor="middle" x="570" y="-81.8" font-family="Times New Roman,serif" font-size="12.00">X</text>
</g>
<!-- 2057961799744&#45;&gt;2057961806416 -->
<g id="edge4" class="edge">
<title>2057961799744&#45;&gt;2057961806416</title>
<path fill="none" stroke="black" d="M498.81,-63.37C511.01,-67.11 527.45,-72.15 541.34,-76.42"/>
<polygon fill="black" stroke="black" points="540.33,-79.77 550.92,-79.36 542.38,-73.08 540.33,-79.77"/>
</g>
<!-- 2057961815728 -->
<g id="node6" class="node">
<title>2057961815728</title>
<polygon fill="none" stroke="black" points="570,-48.9 543,-30.9 570,-12.9 597,-30.9 570,-48.9"/>
<text text-anchor="middle" x="570" y="-27.8" font-family="Times New Roman,serif" font-size="12.00">X</text>
</g>
<!-- 2057961799744&#45;&gt;2057961815728 -->
<g id="edge5" class="edge">
<title>2057961799744&#45;&gt;2057961815728</title>
<path fill="none" stroke="black" d="M498.81,-52.44C511.01,-48.7 527.45,-43.65 541.34,-39.39"/>
<polygon fill="black" stroke="black" points="542.38,-42.73 550.92,-36.45 540.33,-36.04 542.38,-42.73"/>
</g>
<!-- 2057961814816 -->
<g id="node8" class="node">
<title>2057961814816</title>
<polygon fill="none" stroke="black" points="721,-144.9 638,-144.9 638,-108.9 721,-108.9 721,-144.9"/>
<text text-anchor="middle" x="679.5" y="-123.8" font-family="Times New Roman,serif" font-size="12.00">Send reminder</text>
</g>
<!-- 2057961806416&#45;&gt;2057961814816 -->
<g id="edge6" class="edge">
<title>2057961806416&#45;&gt;2057961814816</title>
<path fill="none" stroke="black" d="M587.8,-91.47C598.74,-95.74 613.66,-101.57 628.23,-107.26"/>
<polygon fill="black" stroke="black" points="627.12,-110.59 637.71,-110.97 629.66,-104.07 627.12,-110.59"/>
</g>
<!-- 2057961809680 -->
<g id="node7" class="node">
<title>2057961809680</title>
<polygon fill="none" stroke="black" points="726,-50.9 633,-50.9 633,-14.9 726,-14.9 726,-50.9"/>
<text text-anchor="middle" x="679.5" y="-29.8" font-family="Times New Roman,serif" font-size="12.00">Send instructions</text>
</g>
<!-- 2057961815728&#45;&gt;2057961809680 -->
<g id="edge7" class="edge">
<title>2057961815728&#45;&gt;2057961809680</title>
<path fill="none" stroke="black" d="M596.48,-31.38C604.33,-31.52 613.3,-31.69 622.36,-31.86"/>
<polygon fill="black" stroke="black" points="622.52,-35.36 632.58,-32.05 622.65,-28.36 622.52,-35.36"/>
</g>
<!-- 2057961810592 -->
<g id="node10" class="node">
<title>2057961810592</title>
<polygon fill="none" stroke="black" points="789,-48.9 762,-30.9 789,-12.9 816,-30.9 789,-48.9"/>
<text text-anchor="middle" x="789" y="-27.8" font-family="Times New Roman,serif" font-size="12.00">X</text>
</g>
<!-- 2057961809680&#45;&gt;2057961810592 -->
<g id="edge8" class="edge">
<title>2057961809680&#45;&gt;2057961810592</title>
<path fill="none" stroke="black" d="M726.09,-32.06C734.86,-31.89 743.93,-31.72 752.33,-31.57"/>
<polygon fill="black" stroke="black" points="752.61,-35.06 762.54,-31.38 752.48,-28.06 752.61,-35.06"/>
</g>
<!-- 2057961803440 -->
<g id="node9" class="node">
<title>2057961803440</title>
<polygon fill="none" stroke="black" points="789,-102.9 762,-84.9 789,-66.9 816,-84.9 789,-102.9"/>
<text text-anchor="middle" x="789" y="-81.8" font-family="Times New Roman,serif" font-size="12.00">X</text>
</g>
<!-- 2057961814816&#45;&gt;2057961803440 -->
<g id="edge9" class="edge">
<title>2057961814816&#45;&gt;2057961803440</title>
<path fill="none" stroke="black" d="M721.14,-111.03C734.8,-105.69 749.66,-99.89 761.89,-95.11"/>
<polygon fill="black" stroke="black" points="763.43,-98.26 771.47,-91.36 760.88,-91.74 763.43,-98.26"/>
</g>
<!-- 2057961803440&#45;&gt;2057961806416 -->
<g id="edge10" class="edge">
<title>2057961803440&#45;&gt;2057961806416</title>
<path fill="none" stroke="black" d="M761.73,-84.9C723.15,-84.9 651.01,-84.9 607.36,-84.9"/>
<polygon fill="black" stroke="black" points="607.18,-81.4 597.18,-84.9 607.18,-88.4 607.18,-81.4"/>
</g>
<!-- 2057961808672 -->
<g id="node11" class="node">
<title>2057961808672</title>
<polygon fill="none" stroke="black" points="879,-75.9 852,-57.9 879,-39.9 906,-57.9 879,-75.9"/>
<text text-anchor="middle" x="879" y="-54.8" font-family="Times New Roman,serif" font-size="12.00">+</text>
</g>
<!-- 2057961803440&#45;&gt;2057961808672 -->
<g id="edge12" class="edge">
<title>2057961803440&#45;&gt;2057961808672</title>
<path fill="none" stroke="black" d="M807.81,-79.44C820.01,-75.7 836.45,-70.65 850.34,-66.39"/>
<polygon fill="black" stroke="black" points="851.38,-69.73 859.92,-63.45 849.33,-63.04 851.38,-69.73"/>
</g>
<!-- 2057961810592&#45;&gt;2057961815728 -->
<g id="edge11" class="edge">
<title>2057961810592&#45;&gt;2057961815728</title>
<path fill="none" stroke="black" d="M773.21,-23.06C760.95,-17.02 742.86,-9.18 726,-5.9 685.42,1.97 673.58,1.97 633,-5.9 619.96,-8.44 606.18,-13.7 594.94,-18.75"/>
<polygon fill="black" stroke="black" points="593.35,-15.63 585.79,-23.06 596.33,-21.96 593.35,-15.63"/>
</g>
<!-- 2057961810592&#45;&gt;2057961808672 -->
<g id="edge13" class="edge">
<title>2057961810592&#45;&gt;2057961808672</title>
<path fill="none" stroke="black" d="M807.81,-36.37C820.01,-40.11 836.45,-45.15 850.34,-49.42"/>
<polygon fill="black" stroke="black" points="849.33,-52.77 859.92,-52.36 851.38,-46.08 849.33,-52.77"/>
</g>
<!-- 2057961813184 -->
<g id="node12" class="node">
<title>2057961813184</title>
<polygon fill="none" stroke="black" points="1058,-75.9 942,-75.9 942,-39.9 1058,-39.9 1058,-75.9"/>
<text text-anchor="middle" x="1000" y="-54.8" font-family="Times New Roman,serif" font-size="12.00">Update seat inventory</text>
</g>
<!-- 2057961808672&#45;&gt;2057961813184 -->
<g id="edge14" class="edge">
<title>2057961808672&#45;&gt;2057961813184</title>
<path fill="none" stroke="black" d="M906.12,-57.9C913.77,-57.9 922.52,-57.9 931.51,-57.9"/>
<polygon fill="black" stroke="black" points="931.72,-61.4 941.72,-57.9 931.72,-54.4 931.72,-61.4"/>
</g>
<!-- 2057961814144 -->
<g id="node13" class="node">
<title>2057961814144</title>
<polygon fill="none" stroke="black" points="1121,-75.9 1094,-57.9 1121,-39.9 1148,-57.9 1121,-75.9"/>
<text text-anchor="middle" x="1121" y="-54.8" font-family="Times New Roman,serif" font-size="12.00">X</text>
</g>
<!-- 2057961813184&#45;&gt;2057961814144 -->
<g id="edge15" class="edge">
<title>2057961813184&#45;&gt;2057961814144</title>
<path fill="none" stroke="black" d="M1058.06,-57.9C1066.77,-57.9 1075.55,-57.9 1083.65,-57.9"/>
<polygon fill="black" stroke="black" points="1083.85,-61.4 1093.85,-57.9 1083.85,-54.4 1083.85,-61.4"/>
</g>
<!-- 2057961813088 -->
<g id="node14" class="node">
<title>2057961813088</title>
<polygon fill="none" stroke="black" points="1294,-102.9 1184,-102.9 1184,-66.9 1294,-66.9 1294,-102.9"/>
<text text-anchor="middle" x="1239" y="-81.8" font-family="Times New Roman,serif" font-size="12.00">Send ticket via email</text>
</g>
<!-- 2057961814144&#45;&gt;2057961813088 -->
<g id="edge16" class="edge">
<title>2057961814144&#45;&gt;2057961813088</title>
<path fill="none" stroke="black" d="M1141.42,-62.42C1150.59,-64.56 1162.11,-67.24 1173.98,-70"/>
<polygon fill="black" stroke="black" points="1173.45,-73.47 1183.98,-72.33 1175.03,-66.66 1173.45,-73.47"/>
</g>
<!-- 2057961804496 -->
<g id="node15" class="node">
<title>2057961804496</title>
<polygon fill="none" stroke="black" points="1294,-48.9 1184,-48.9 1184,-12.9 1294,-12.9 1294,-48.9"/>
<text text-anchor="middle" x="1239" y="-27.8" font-family="Times New Roman,serif" font-size="12.00">Send ticket via SMS</text>
</g>
<!-- 2057961814144&#45;&gt;2057961804496 -->
<g id="edge17" class="edge">
<title>2057961814144&#45;&gt;2057961804496</title>
<path fill="none" stroke="black" d="M1141.42,-53.39C1150.59,-51.25 1162.11,-48.57 1173.98,-45.81"/>
<polygon fill="black" stroke="black" points="1175.03,-49.15 1183.98,-43.48 1173.45,-42.34 1175.03,-49.15"/>
</g>
<!-- 2057961807760 -->
<g id="node16" class="node">
<title>2057961807760</title>
<polygon fill="none" stroke="black" points="1357,-75.9 1330,-57.9 1357,-39.9 1384,-57.9 1357,-75.9"/>
<text text-anchor="middle" x="1357" y="-54.8" font-family="Times New Roman,serif" font-size="12.00">X</text>
</g>
<!-- 2057961813088&#45;&gt;2057961807760 -->
<g id="edge18" class="edge">
<title>2057961813088&#45;&gt;2057961807760</title>
<path fill="none" stroke="black" d="M1294.26,-72.27C1305.55,-69.65 1317.04,-66.97 1326.98,-64.66"/>
<polygon fill="black" stroke="black" points="1327.78,-68.07 1336.73,-62.39 1326.19,-61.25 1327.78,-68.07"/>
</g>
<!-- 2057961804496&#45;&gt;2057961807760 -->
<g id="edge19" class="edge">
<title>2057961804496&#45;&gt;2057961807760</title>
<path fill="none" stroke="black" d="M1294.26,-43.54C1305.55,-46.16 1317.04,-48.84 1326.98,-51.15"/>
<polygon fill="black" stroke="black" points="1326.19,-54.56 1336.73,-53.42 1327.78,-47.74 1326.19,-54.56"/>
</g>
<!-- 2057961814336 -->
<g id="node17" class="node">
<title>2057961814336</title>
<polygon fill="none" stroke="black" points="1506,-75.9 1420,-75.9 1420,-39.9 1506,-39.9 1506,-75.9"/>
<text text-anchor="middle" x="1463" y="-54.8" font-family="Times New Roman,serif" font-size="12.00">Generate ticket</text>
</g>
<!-- 2057961807760&#45;&gt;2057961814336 -->
<g id="edge20" class="edge">
<title>2057961807760&#45;&gt;2057961814336</title>
<path fill="none" stroke="black" d="M1384.24,-57.9C1392.11,-57.9 1401.04,-57.9 1409.96,-57.9"/>
<polygon fill="black" stroke="black" points="1409.98,-61.4 1419.98,-57.9 1409.98,-54.4 1409.98,-61.4"/>
</g>
<!-- 2057961810256 -->
<g id="node18" class="node">
<title>2057961810256</title>
<polygon fill="none" stroke="black" points="1569,-75.9 1542,-57.9 1569,-39.9 1596,-57.9 1569,-75.9"/>
<text text-anchor="middle" x="1569" y="-54.8" font-family="Times New Roman,serif" font-size="12.00">+</text>
</g>
<!-- 2057961814336&#45;&gt;2057961810256 -->
<g id="edge21" class="edge">
<title>2057961814336&#45;&gt;2057961810256</title>
<path fill="none" stroke="black" d="M1506,-57.9C1514.48,-57.9 1523.34,-57.9 1531.61,-57.9"/>
<polygon fill="black" stroke="black" points="1531.7,-61.4 1541.7,-57.9 1531.7,-54.4 1531.7,-61.4"/>
</g>
<!-- 2057961803632 -->
<g id="node19" class="node">
<title>2057961803632</title>
<polygon fill="none" stroke="black" points="1767.5,-102.9 1642.5,-102.9 1642.5,-66.9 1767.5,-66.9 1767.5,-102.9"/>
<text text-anchor="middle" x="1705" y="-81.8" font-family="Times New Roman,serif" font-size="12.00">Provide payment details</text>
</g>
<!-- 2057961810256&#45;&gt;2057961803632 -->
<g id="edge22" class="edge">
<title>2057961810256&#45;&gt;2057961803632</title>
<path fill="none" stroke="black" d="M1590.06,-61.95C1601.5,-64.25 1616.61,-67.3 1632.07,-70.41"/>
<polygon fill="black" stroke="black" points="1631.75,-73.92 1642.24,-72.46 1633.13,-67.05 1631.75,-73.92"/>
</g>
<!-- 2057961802192 -->
<g id="node20" class="node">
<title>2057961802192</title>
<polygon fill="none" stroke="black" points="1778,-48.9 1632,-48.9 1632,-12.9 1778,-12.9 1778,-48.9"/>
<text text-anchor="middle" x="1705" y="-27.8" font-family="Times New Roman,serif" font-size="12.00">Provide personal information</text>
</g>
<!-- 2057961810256&#45;&gt;2057961802192 -->
<g id="edge23" class="edge">
<title>2057961810256&#45;&gt;2057961802192</title>
<path fill="none" stroke="black" d="M1590.06,-53.86C1598.96,-52.07 1610.08,-49.83 1621.85,-47.46"/>
<polygon fill="black" stroke="black" points="1622.76,-50.85 1631.87,-45.44 1621.37,-43.98 1622.76,-50.85"/>
</g>
<!-- 2057961809824 -->
<g id="node21" class="node">
<title>2057961809824</title>
<polygon fill="none" stroke="black" points="1841,-102.9 1814,-84.9 1841,-66.9 1868,-84.9 1841,-102.9"/>
<text text-anchor="middle" x="1841" y="-81.8" font-family="Times New Roman,serif" font-size="12.00">+</text>
</g>
<!-- 2057961803632&#45;&gt;2057961809824 -->
<g id="edge24" class="edge">
<title>2057961803632&#45;&gt;2057961809824</title>
<path fill="none" stroke="black" d="M1767.51,-84.9C1779.81,-84.9 1792.37,-84.9 1803.49,-84.9"/>
<polygon fill="black" stroke="black" points="1803.67,-88.4 1813.67,-84.9 1803.67,-81.4 1803.67,-88.4"/>
</g>
<!-- 2057961800032 -->
<g id="node22" class="node">
<title>2057961800032</title>
<polygon fill="none" stroke="black" points="1841,-48.9 1814,-30.9 1841,-12.9 1868,-30.9 1841,-48.9"/>
<text text-anchor="middle" x="1841" y="-27.8" font-family="Times New Roman,serif" font-size="12.00">+</text>
</g>
<!-- 2057961802192&#45;&gt;2057961800032 -->
<g id="edge25" class="edge">
<title>2057961802192&#45;&gt;2057961800032</title>
<path fill="none" stroke="black" d="M1778.1,-30.9C1786.97,-30.9 1795.73,-30.9 1803.73,-30.9"/>
<polygon fill="black" stroke="black" points="1803.77,-34.4 1813.77,-30.9 1803.77,-27.4 1803.77,-34.4"/>
</g>
<!-- 2057961811792 -->
<g id="node23" class="node">
<title>2057961811792</title>
<polygon fill="none" stroke="black" points="1931,-102.9 1904,-84.9 1931,-66.9 1958,-84.9 1931,-102.9"/>
<text text-anchor="middle" x="1931" y="-81.8" font-family="Times New Roman,serif" font-size="12.00">+</text>
</g>
<!-- 2057961809824&#45;&gt;2057961811792 -->
<g id="edge27" class="edge">
<title>2057961809824&#45;&gt;2057961811792</title>
<path fill="none" stroke="black" d="M1868.4,-84.9C1876.39,-84.9 1885.31,-84.9 1893.82,-84.9"/>
<polygon fill="black" stroke="black" points="1893.92,-88.4 1903.92,-84.9 1893.92,-81.4 1893.92,-88.4"/>
</g>
<!-- 2057961801808 -->
<g id="node24" class="node">
<title>2057961801808</title>
<polygon fill="none" stroke="black" points="1931,-48.9 1904,-30.9 1931,-12.9 1958,-30.9 1931,-48.9"/>
<text text-anchor="middle" x="1931" y="-27.8" font-family="Times New Roman,serif" font-size="12.00">+</text>
</g>
<!-- 2057961809824&#45;&gt;2057961801808 -->
<g id="edge26" class="edge">
<title>2057961809824&#45;&gt;2057961801808</title>
<path fill="none" stroke="black" d="M1855.75,-76.47C1869.57,-67.99 1891.11,-54.77 1907.43,-44.75"/>
<polygon fill="black" stroke="black" points="1909.65,-47.5 1916.35,-39.28 1905.99,-41.53 1909.65,-47.5"/>
</g>
<!-- 2057961800032&#45;&gt;2057961811792 -->
<g id="edge29" class="edge">
<title>2057961800032&#45;&gt;2057961811792</title>
<path fill="none" stroke="black" d="M1855.75,-39.34C1869.57,-47.82 1891.11,-61.04 1907.43,-71.06"/>
<polygon fill="black" stroke="black" points="1905.99,-74.28 1916.35,-76.53 1909.65,-68.31 1905.99,-74.28"/>
</g>
<!-- 2057961800032&#45;&gt;2057961801808 -->
<g id="edge28" class="edge">
<title>2057961800032&#45;&gt;2057961801808</title>
<path fill="none" stroke="black" d="M1868.4,-30.9C1876.39,-30.9 1885.31,-30.9 1893.82,-30.9"/>
<polygon fill="black" stroke="black" points="1893.92,-34.4 1903.92,-30.9 1893.92,-27.4 1893.92,-34.4"/>
</g>
<!-- 2057961806272 -->
<g id="node25" class="node">
<title>2057961806272</title>
<polygon fill="none" stroke="black" points="2102,-102.9 1994,-102.9 1994,-66.9 2102,-66.9 2102,-102.9"/>
<text text-anchor="middle" x="2048" y="-81.8" font-family="Times New Roman,serif" font-size="12.00">Select date and time</text>
</g>
<!-- 2057961811792&#45;&gt;2057961806272 -->
<g id="edge30" class="edge">
<title>2057961811792&#45;&gt;2057961806272</title>
<path fill="none" stroke="black" d="M1958.1,-84.9C1965.8,-84.9 1974.59,-84.9 1983.57,-84.9"/>
<polygon fill="black" stroke="black" points="1983.75,-88.4 1993.75,-84.9 1983.75,-81.4 1983.75,-88.4"/>
</g>
<!-- 2057961815968 -->
<g id="node26" class="node">
<title>2057961815968</title>
<polygon fill="none" stroke="black" points="2083.5,-48.9 2012.5,-48.9 2012.5,-12.9 2083.5,-12.9 2083.5,-48.9"/>
<text text-anchor="middle" x="2048" y="-27.8" font-family="Times New Roman,serif" font-size="12.00">Select route</text>
</g>
<!-- 2057961801808&#45;&gt;2057961815968 -->
<g id="edge31" class="edge">
<title>2057961801808&#45;&gt;2057961815968</title>
<path fill="none" stroke="black" d="M1958.1,-30.9C1971.13,-30.9 1987.26,-30.9 2002.19,-30.9"/>
<polygon fill="black" stroke="black" points="2002.28,-34.4 2012.28,-30.9 2002.28,-27.4 2002.28,-34.4"/>
</g>
<!-- 2057961811552 -->
<g id="node27" class="node">
<title>2057961811552</title>
<polygon fill="none" stroke="black" points="2165,-75.9 2138,-57.9 2165,-39.9 2192,-57.9 2165,-75.9"/>
<text text-anchor="middle" x="2165" y="-54.8" font-family="Times New Roman,serif" font-size="12.00">+</text>
</g>
<!-- 2057961806272&#45;&gt;2057961811552 -->
<g id="edge32" class="edge">
<title>2057961806272&#45;&gt;2057961811552</title>
<path fill="none" stroke="black" d="M2102.12,-72.43C2113.39,-69.79 2124.89,-67.09 2134.86,-64.75"/>
<polygon fill="black" stroke="black" points="2135.7,-68.14 2144.64,-62.45 2134.1,-61.33 2135.7,-68.14"/>
</g>
<!-- 2057961815968&#45;&gt;2057961811552 -->
<g id="edge33" class="edge">
<title>2057961815968&#45;&gt;2057961811552</title>
<path fill="none" stroke="black" d="M2083.5,-39.01C2099.74,-42.82 2118.9,-47.32 2134.45,-50.97"/>
<polygon fill="black" stroke="black" points="2134.03,-54.46 2144.57,-53.34 2135.63,-47.65 2134.03,-54.46"/>
</g>
<!-- 2057961802000 -->
<g id="node28" class="node">
<title>2057961802000</title>
<polygon fill="none" stroke="black" points="2374,-75.9 2228,-75.9 2228,-39.9 2374,-39.9 2374,-75.9"/>
<text text-anchor="middle" x="2301" y="-54.8" font-family="Times New Roman,serif" font-size="12.00">Customer searches for ticket</text>
</g>
<!-- 2057961811552&#45;&gt;2057961802000 -->
<g id="edge34" class="edge">
<title>2057961811552&#45;&gt;2057961802000</title>
<path fill="none" stroke="black" d="M2192.15,-57.9C2199.82,-57.9 2208.63,-57.9 2217.85,-57.9"/>
<polygon fill="black" stroke="black" points="2217.98,-61.4 2227.98,-57.9 2217.98,-54.4 2217.98,-61.4"/>
</g>
<!-- 2057961803248 -->
<g id="node29" class="node">
<title>2057961803248</title>
<ellipse fill="orange" stroke="black" cx="2428" cy="-57.9" rx="18" ry="18"/>
</g>
<!-- 2057961802000&#45;&gt;2057961803248 -->
<g id="edge35" class="edge">
<title>2057961802000&#45;&gt;2057961803248</title>
<path fill="none" stroke="black" d="M2374.35,-57.9C2383.31,-57.9 2391.98,-57.9 2399.62,-57.9"/>
<polygon fill="black" stroke="black" points="2399.65,-61.4 2409.65,-57.9 2399.65,-54.4 2399.65,-61.4"/>
</g>
</g>
</svg>
