<?xml version="1.0" encoding="UTF-8" standalone="no"?>
<!DOCTYPE svg PUBLIC "-//W3C//DTD SVG 1.1//EN"
 "http://www.w3.org/Graphics/SVG/1.1/DTD/svg11.dtd">
<!-- Generated by graphviz version 6.0.1 (20220911.1526)
 -->
<!-- Pages: 1 -->
<svg width="2235pt" height="152pt"
 viewBox="0.00 0.00 2235.00 152.00" xmlns="http://www.w3.org/2000/svg" xmlns:xlink="http://www.w3.org/1999/xlink">
<g id="graph0" class="graph" transform="scale(1 1) rotate(0) translate(4 148)">
<polygon fill="white" stroke="none" points="-4,4 -4,-148 2231,-148 2231,4 -4,4"/>
<!-- 2057961246528 -->
<g id="node1" class="node">
<title>2057961246528</title>
<ellipse fill="green" stroke="black" cx="18" cy="-72" rx="18" ry="18"/>
</g>
<!-- 2057961255888 -->
<g id="node2" class="node">
<title>2057961255888</title>
<polygon fill="none" stroke="black" points="218,-90 72,-90 72,-54 218,-54 218,-90"/>
<text text-anchor="middle" x="145" y="-68.9" font-family="Times New Roman,serif" font-size="12.00">Customer searches for ticket</text>
</g>
<!-- 2057961246528&#45;&gt;2057961255888 -->
<g id="edge1" class="edge">
<title>2057961246528&#45;&gt;2057961255888</title>
<path fill="none" stroke="black" d="M36.12,-72C43.26,-72 52.13,-72 61.68,-72"/>
<polygon fill="black" stroke="black" points="61.84,-75.5 71.84,-72 61.84,-68.5 61.84,-75.5"/>
</g>
<!-- 2057961243648 -->
<g id="node3" class="node">
<title>2057961243648</title>
<polygon fill="none" stroke="black" points="362,-90 254,-90 254,-54 362,-54 362,-90"/>
<text text-anchor="middle" x="308" y="-68.9" font-family="Times New Roman,serif" font-size="12.00">Select date and time</text>
</g>
<!-- 2057961255888&#45;&gt;2057961243648 -->
<g id="edge2" class="edge">
<title>2057961255888&#45;&gt;2057961243648</title>
<path fill="none" stroke="black" d="M218.02,-72C226.6,-72 235.3,-72 243.73,-72"/>
<polygon fill="black" stroke="black" points="243.86,-75.5 253.86,-72 243.86,-68.5 243.86,-75.5"/>
</g>
<!-- 2057961246288 -->
<g id="node4" class="node">
<title>2057961246288</title>
<polygon fill="none" stroke="black" points="469,-90 398,-90 398,-54 469,-54 469,-90"/>
<text text-anchor="middle" x="433.5" y="-68.9" font-family="Times New Roman,serif" font-size="12.00">Select route</text>
</g>
<!-- 2057961243648&#45;&gt;2057961246288 -->
<g id="edge3" class="edge">
<title>2057961243648&#45;&gt;2057961246288</title>
<path fill="none" stroke="black" d="M362.09,-72C370.55,-72 379.23,-72 387.48,-72"/>
<polygon fill="black" stroke="black" points="387.65,-75.5 397.65,-72 387.65,-68.5 387.65,-75.5"/>
</g>
<!-- 2057961257952 -->
<g id="node5" class="node">
<title>2057961257952</title>
<polygon fill="none" stroke="black" points="532,-90 505,-72 532,-54 559,-72 532,-90"/>
<text text-anchor="middle" x="532" y="-68.9" font-family="Times New Roman,serif" font-size="12.00">+</text>
</g>
<!-- 2057961246288&#45;&gt;2057961257952 -->
<g id="edge4" class="edge">
<title>2057961246288&#45;&gt;2057961257952</title>
<path fill="none" stroke="black" d="M469.07,-72C477.36,-72 486.23,-72 494.6,-72"/>
<polygon fill="black" stroke="black" points="494.85,-75.5 504.85,-72 494.85,-68.5 494.85,-75.5"/>
</g>
<!-- 2057960409984 -->
<g id="node6" class="node">
<title>2057960409984</title>
<polygon fill="none" stroke="black" points="741,-117 595,-117 595,-81 741,-81 741,-117"/>
<text text-anchor="middle" x="668" y="-95.9" font-family="Times New Roman,serif" font-size="12.00">Provide personal information</text>
</g>
<!-- 2057961257952&#45;&gt;2057960409984 -->
<g id="edge6" class="edge">
<title>2057961257952&#45;&gt;2057960409984</title>
<path fill="none" stroke="black" d="M553.06,-76.04C561.96,-77.84 573.08,-80.08 584.85,-82.45"/>
<polygon fill="black" stroke="black" points="584.37,-85.92 594.87,-84.47 585.76,-79.06 584.37,-85.92"/>
</g>
<!-- 2057961256176 -->
<g id="node7" class="node">
<title>2057961256176</title>
<polygon fill="none" stroke="black" points="730.5,-63 605.5,-63 605.5,-27 730.5,-27 730.5,-63"/>
<text text-anchor="middle" x="668" y="-41.9" font-family="Times New Roman,serif" font-size="12.00">Provide payment details</text>
</g>
<!-- 2057961257952&#45;&gt;2057961256176 -->
<g id="edge5" class="edge">
<title>2057961257952&#45;&gt;2057961256176</title>
<path fill="none" stroke="black" d="M553.06,-67.96C564.5,-65.65 579.61,-62.61 595.07,-59.49"/>
<polygon fill="black" stroke="black" points="596.13,-62.85 605.24,-57.44 594.75,-55.99 596.13,-62.85"/>
</g>
<!-- 2057960417280 -->
<g id="node8" class="node">
<title>2057960417280</title>
<polygon fill="none" stroke="black" points="804,-90 777,-72 804,-54 831,-72 804,-90"/>
<text text-anchor="middle" x="804" y="-68.9" font-family="Times New Roman,serif" font-size="12.00">+</text>
</g>
<!-- 2057960409984&#45;&gt;2057960417280 -->
<g id="edge7" class="edge">
<title>2057960409984&#45;&gt;2057960417280</title>
<path fill="none" stroke="black" d="M741.1,-84.47C752.26,-82.22 763.23,-80.01 772.77,-78.09"/>
<polygon fill="black" stroke="black" points="773.74,-81.47 782.85,-76.06 772.36,-74.6 773.74,-81.47"/>
</g>
<!-- 2057961256176&#45;&gt;2057960417280 -->
<g id="edge8" class="edge">
<title>2057961256176&#45;&gt;2057960417280</title>
<path fill="none" stroke="black" d="M730.51,-57.39C745.24,-60.36 760.32,-63.4 772.89,-65.93"/>
<polygon fill="black" stroke="black" points="772.3,-69.38 782.79,-67.93 773.68,-62.52 772.3,-69.38"/>
</g>
<!-- 2057960419584 -->
<g id="node9" class="node">
<title>2057960419584</title>
<polygon fill="none" stroke="black" points="953,-90 867,-90 867,-54 953,-54 953,-90"/>
<text text-anchor="middle" x="910" y="-68.9" font-family="Times New Roman,serif" font-size="12.00">Generate ticket</text>
</g>
<!-- 2057960417280&#45;&gt;2057960419584 -->
<g id="edge9" class="edge">
<title>2057960417280&#45;&gt;2057960419584</title>
<path fill="none" stroke="black" d="M831.24,-72C839.11,-72 848.04,-72 856.96,-72"/>
<polygon fill="black" stroke="black" points="856.98,-75.5 866.98,-72 856.98,-68.5 856.98,-75.5"/>
</g>
<!-- 2057960413440 -->
<g id="node10" class="node">
<title>2057960413440</title>
<polygon fill="none" stroke="black" points="1016,-90 989,-72 1016,-54 1043,-72 1016,-90"/>
<text text-anchor="middle" x="1016" y="-68.9" font-family="Times New Roman,serif" font-size="12.00">+</text>
</g>
<!-- 2057960419584&#45;&gt;2057960413440 -->
<g id="edge10" class="edge">
<title>2057960419584&#45;&gt;2057960413440</title>
<path fill="none" stroke="black" d="M953,-72C961.48,-72 970.34,-72 978.61,-72"/>
<polygon fill="black" stroke="black" points="978.7,-75.5 988.7,-72 978.7,-68.5 978.7,-75.5"/>
</g>
<!-- 2057961257808 -->
<g id="node11" class="node">
<title>2057961257808</title>
<polygon fill="none" stroke="black" points="1192,-144 1082,-144 1082,-108 1192,-108 1192,-144"/>
<text text-anchor="middle" x="1137" y="-122.9" font-family="Times New Roman,serif" font-size="12.00">Send ticket via SMS</text>
</g>
<!-- 2057960413440&#45;&gt;2057961257808 -->
<g id="edge12" class="edge">
<title>2057960413440&#45;&gt;2057961257808</title>
<path fill="none" stroke="black" d="M1032.56,-79.06C1046.43,-85.35 1067.49,-94.91 1087,-103.77"/>
<polygon fill="black" stroke="black" points="1085.57,-106.96 1096.12,-107.9 1088.46,-100.58 1085.57,-106.96"/>
</g>
<!-- 2057961244704 -->
<g id="node12" class="node">
<title>2057961244704</title>
<polygon fill="none" stroke="black" points="1195,-90 1079,-90 1079,-54 1195,-54 1195,-90"/>
<text text-anchor="middle" x="1137" y="-68.9" font-family="Times New Roman,serif" font-size="12.00">Update seat inventory</text>
</g>
<!-- 2057960413440&#45;&gt;2057961244704 -->
<g id="edge11" class="edge">
<title>2057960413440&#45;&gt;2057961244704</title>
<path fill="none" stroke="black" d="M1043.12,-72C1050.77,-72 1059.52,-72 1068.51,-72"/>
<polygon fill="black" stroke="black" points="1068.72,-75.5 1078.72,-72 1068.72,-68.5 1068.72,-75.5"/>
</g>
<!-- 2057961257616 -->
<g id="node13" class="node">
<title>2057961257616</title>
<polygon fill="none" stroke="black" points="1192,-36 1082,-36 1082,0 1192,0 1192,-36"/>
<text text-anchor="middle" x="1137" y="-14.9" font-family="Times New Roman,serif" font-size="12.00">Send ticket via email</text>
</g>
<!-- 2057960413440&#45;&gt;2057961257616 -->
<g id="edge13" class="edge">
<title>2057960413440&#45;&gt;2057961257616</title>
<path fill="none" stroke="black" d="M1032.56,-64.94C1046.43,-58.65 1067.49,-49.09 1087,-40.23"/>
<polygon fill="black" stroke="black" points="1088.46,-43.42 1096.12,-36.1 1085.57,-37.04 1088.46,-43.42"/>
</g>
<!-- 2057961255504 -->
<g id="node14" class="node">
<title>2057961255504</title>
<polygon fill="none" stroke="black" points="1258,-144 1231,-126 1258,-108 1285,-126 1258,-144"/>
<text text-anchor="middle" x="1258" y="-122.9" font-family="Times New Roman,serif" font-size="12.00">+</text>
</g>
<!-- 2057961257808&#45;&gt;2057961255504 -->
<g id="edge14" class="edge">
<title>2057961257808&#45;&gt;2057961255504</title>
<path fill="none" stroke="black" d="M1192.28,-126C1201.88,-126 1211.67,-126 1220.63,-126"/>
<polygon fill="black" stroke="black" points="1220.7,-129.5 1230.7,-126 1220.7,-122.5 1220.7,-129.5"/>
</g>
<!-- 2057961255120 -->
<g id="node15" class="node">
<title>2057961255120</title>
<polygon fill="none" stroke="black" points="1258,-90 1231,-72 1258,-54 1285,-72 1258,-90"/>
<text text-anchor="middle" x="1258" y="-68.9" font-family="Times New Roman,serif" font-size="12.00">+</text>
</g>
<!-- 2057961244704&#45;&gt;2057961255120 -->
<g id="edge15" class="edge">
<title>2057961244704&#45;&gt;2057961255120</title>
<path fill="none" stroke="black" d="M1195.06,-72C1203.77,-72 1212.55,-72 1220.65,-72"/>
<polygon fill="black" stroke="black" points="1220.85,-75.5 1230.85,-72 1220.85,-68.5 1220.85,-75.5"/>
</g>
<!-- 2057961249168 -->
<g id="node16" class="node">
<title>2057961249168</title>
<polygon fill="none" stroke="black" points="1258,-36 1231,-18 1258,0 1285,-18 1258,-36"/>
<text text-anchor="middle" x="1258" y="-14.9" font-family="Times New Roman,serif" font-size="12.00">+</text>
</g>
<!-- 2057961257616&#45;&gt;2057961249168 -->
<g id="edge16" class="edge">
<title>2057961257616&#45;&gt;2057961249168</title>
<path fill="none" stroke="black" d="M1192.28,-18C1201.88,-18 1211.67,-18 1220.63,-18"/>
<polygon fill="black" stroke="black" points="1220.7,-21.5 1230.7,-18 1220.7,-14.5 1220.7,-21.5"/>
</g>
<!-- 2057961254784 -->
<g id="node17" class="node">
<title>2057961254784</title>
<polygon fill="none" stroke="black" points="1348,-117 1321,-99 1348,-81 1375,-99 1348,-117"/>
<text text-anchor="middle" x="1348" y="-95.9" font-family="Times New Roman,serif" font-size="12.00">+</text>
</g>
<!-- 2057961255504&#45;&gt;2057961254784 -->
<g id="edge18" class="edge">
<title>2057961255504&#45;&gt;2057961254784</title>
<path fill="none" stroke="black" d="M1276.81,-120.54C1289.01,-116.79 1305.45,-111.75 1319.34,-107.49"/>
<polygon fill="black" stroke="black" points="1320.38,-110.83 1328.92,-104.55 1318.33,-104.14 1320.38,-110.83"/>
</g>
<!-- 2057961249552 -->
<g id="node18" class="node">
<title>2057961249552</title>
<polygon fill="none" stroke="black" points="1348,-63 1321,-45 1348,-27 1375,-45 1348,-63"/>
<text text-anchor="middle" x="1348" y="-41.9" font-family="Times New Roman,serif" font-size="12.00">+</text>
</g>
<!-- 2057961255504&#45;&gt;2057961249552 -->
<g id="edge17" class="edge">
<title>2057961255504&#45;&gt;2057961249552</title>
<path fill="none" stroke="black" d="M1270.15,-115.74C1284.82,-102.23 1310.84,-78.29 1328.49,-62.04"/>
<polygon fill="black" stroke="black" points="1330.96,-64.52 1335.95,-55.18 1326.22,-59.37 1330.96,-64.52"/>
</g>
<!-- 2057961255120&#45;&gt;2057961254784 -->
<g id="edge20" class="edge">
<title>2057961255120&#45;&gt;2057961254784</title>
<path fill="none" stroke="black" d="M1276.81,-77.46C1289.01,-81.21 1305.45,-86.25 1319.34,-90.51"/>
<polygon fill="black" stroke="black" points="1318.33,-93.86 1328.92,-93.45 1320.38,-87.17 1318.33,-93.86"/>
</g>
<!-- 2057961255120&#45;&gt;2057961249552 -->
<g id="edge19" class="edge">
<title>2057961255120&#45;&gt;2057961249552</title>
<path fill="none" stroke="black" d="M1276.81,-66.54C1289.01,-62.79 1305.45,-57.75 1319.34,-53.49"/>
<polygon fill="black" stroke="black" points="1320.38,-56.83 1328.92,-50.55 1318.33,-50.14 1320.38,-56.83"/>
</g>
<!-- 2057961249168&#45;&gt;2057961254784 -->
<g id="edge21" class="edge">
<title>2057961249168&#45;&gt;2057961254784</title>
<path fill="none" stroke="black" d="M1270.15,-28.26C1284.82,-41.77 1310.84,-65.71 1328.49,-81.96"/>
<polygon fill="black" stroke="black" points="1326.22,-84.63 1335.95,-88.82 1330.96,-79.48 1326.22,-84.63"/>
</g>
<!-- 2057961249168&#45;&gt;2057961249552 -->
<g id="edge22" class="edge">
<title>2057961249168&#45;&gt;2057961249552</title>
<path fill="none" stroke="black" d="M1276.81,-23.46C1289.01,-27.21 1305.45,-32.25 1319.34,-36.51"/>
<polygon fill="black" stroke="black" points="1318.33,-39.86 1328.92,-39.45 1320.38,-33.17 1318.33,-39.86"/>
</g>
<!-- 2057961250512 -->
<g id="node19" class="node">
<title>2057961250512</title>
<polygon fill="none" stroke="black" points="1499,-117 1416,-117 1416,-81 1499,-81 1499,-117"/>
<text text-anchor="middle" x="1457.5" y="-95.9" font-family="Times New Roman,serif" font-size="12.00">Send reminder</text>
</g>
<!-- 2057961254784&#45;&gt;2057961250512 -->
<g id="edge23" class="edge">
<title>2057961254784&#45;&gt;2057961250512</title>
<path fill="none" stroke="black" d="M1375.02,-99C1384.25,-99 1394.98,-99 1405.57,-99"/>
<polygon fill="black" stroke="black" points="1405.62,-102.5 1415.62,-99 1405.62,-95.5 1405.62,-102.5"/>
</g>
<!-- 2057961250464 -->
<g id="node20" class="node">
<title>2057961250464</title>
<polygon fill="none" stroke="black" points="1504,-63 1411,-63 1411,-27 1504,-27 1504,-63"/>
<text text-anchor="middle" x="1457.5" y="-41.9" font-family="Times New Roman,serif" font-size="12.00">Send instructions</text>
</g>
<!-- 2057961249552&#45;&gt;2057961250464 -->
<g id="edge24" class="edge">
<title>2057961249552&#45;&gt;2057961250464</title>
<path fill="none" stroke="black" d="M1375.02,-45C1382.88,-45 1391.82,-45 1400.84,-45"/>
<polygon fill="black" stroke="black" points="1400.99,-48.5 1410.99,-45 1400.99,-41.5 1400.99,-48.5"/>
</g>
<!-- 2057960418288 -->
<g id="node21" class="node">
<title>2057960418288</title>
<polygon fill="none" stroke="black" points="1567,-90 1540,-72 1567,-54 1594,-72 1567,-90"/>
<text text-anchor="middle" x="1567" y="-68.9" font-family="Times New Roman,serif" font-size="12.00">+</text>
</g>
<!-- 2057961250512&#45;&gt;2057960418288 -->
<g id="edge25" class="edge">
<title>2057961250512&#45;&gt;2057960418288</title>
<path fill="none" stroke="black" d="M1499.14,-88.79C1511.71,-85.64 1525.29,-82.23 1536.91,-79.31"/>
<polygon fill="black" stroke="black" points="1538.09,-82.62 1546.94,-76.79 1536.39,-75.83 1538.09,-82.62"/>
</g>
<!-- 2057961250464&#45;&gt;2057960418288 -->
<g id="edge26" class="edge">
<title>2057961250464&#45;&gt;2057960418288</title>
<path fill="none" stroke="black" d="M1504.09,-56.45C1515.22,-59.25 1526.82,-62.16 1536.94,-64.7"/>
<polygon fill="black" stroke="black" points="1536.31,-68.15 1546.86,-67.19 1538.01,-61.36 1536.31,-68.15"/>
</g>
<!-- 2057961247968 -->
<g id="node22" class="node">
<title>2057961247968</title>
<polygon fill="none" stroke="black" points="1776,-90 1630,-90 1630,-54 1776,-54 1776,-90"/>
<text text-anchor="middle" x="1703" y="-68.9" font-family="Times New Roman,serif" font-size="12.00">Customer completes journey</text>
</g>
<!-- 2057960418288&#45;&gt;2057961247968 -->
<g id="edge27" class="edge">
<title>2057960418288&#45;&gt;2057961247968</title>
<path fill="none" stroke="black" d="M1594.15,-72C1601.82,-72 1610.63,-72 1619.85,-72"/>
<polygon fill="black" stroke="black" points="1619.98,-75.5 1629.98,-72 1619.98,-68.5 1619.98,-75.5"/>
</g>
<!-- 2057960408352 -->
<g id="node23" class="node">
<title>2057960408352</title>
<polygon fill="none" stroke="black" points="1839,-90 1812,-72 1839,-54 1866,-72 1839,-90"/>
<text text-anchor="middle" x="1839" y="-68.9" font-family="Times New Roman,serif" font-size="12.00">X</text>
</g>
<!-- 2057961247968&#45;&gt;2057960408352 -->
<g id="edge28" class="edge">
<title>2057961247968&#45;&gt;2057960408352</title>
<path fill="none" stroke="black" d="M1776.1,-72C1784.97,-72 1793.73,-72 1801.73,-72"/>
<polygon fill="black" stroke="black" points="1801.77,-75.5 1811.77,-72 1801.77,-68.5 1801.77,-75.5"/>
</g>
<!-- 2057960416032 -->
<g id="node24" class="node">
<title>2057960416032</title>
<polygon fill="none" stroke="black" points="2128,-90 2101,-72 2128,-54 2155,-72 2128,-90"/>
<text text-anchor="middle" x="2128" y="-68.9" font-family="Times New Roman,serif" font-size="12.00">X</text>
</g>
<!-- 2057960408352&#45;&gt;2057960416032 -->
<g id="edge30" class="edge">
<title>2057960408352&#45;&gt;2057960416032</title>
<path fill="none" stroke="black" d="M1863.24,-73.86C1874.87,-74.69 1889.17,-75.59 1902,-76 1974.41,-78.33 1992.59,-78.33 2065,-76 2074.32,-75.7 2084.42,-75.15 2093.7,-74.54"/>
<polygon fill="black" stroke="black" points="2094.02,-78.03 2103.76,-73.86 2093.54,-71.05 2094.02,-78.03"/>
</g>
<!-- 2057960417184 -->
<g id="node25" class="node">
<title>2057960417184</title>
<polygon fill="none" stroke="black" points="2065,-67 1902,-67 1902,-31 2065,-31 2065,-67"/>
<text text-anchor="middle" x="1983.5" y="-45.9" font-family="Times New Roman,serif" font-size="12.00">Post&#45;travel feedback or services</text>
</g>
<!-- 2057960408352&#45;&gt;2057960417184 -->
<g id="edge29" class="edge">
<title>2057960408352&#45;&gt;2057960417184</title>
<path fill="none" stroke="black" d="M1861.03,-68.61C1869.65,-67.21 1880.27,-65.5 1891.61,-63.67"/>
<polygon fill="black" stroke="black" points="1892.41,-67.09 1901.73,-62.04 1891.3,-60.18 1892.41,-67.09"/>
</g>
<!-- 2057961248976 -->
<g id="node26" class="node">
<title>2057961248976</title>
<ellipse fill="orange" stroke="black" cx="2209" cy="-72" rx="18" ry="18"/>
</g>
<!-- 2057960416032&#45;&gt;2057961248976 -->
<g id="edge32" class="edge">
<title>2057960416032&#45;&gt;2057961248976</title>
<path fill="none" stroke="black" d="M2155.31,-72C2163.42,-72 2172.37,-72 2180.56,-72"/>
<polygon fill="black" stroke="black" points="2180.75,-75.5 2190.75,-72 2180.75,-68.5 2180.75,-75.5"/>
</g>
<!-- 2057960417184&#45;&gt;2057960416032 -->
<g id="edge31" class="edge">
<title>2057960417184&#45;&gt;2057960416032</title>
<path fill="none" stroke="black" d="M2065.33,-62.05C2076.16,-63.79 2086.7,-65.5 2095.9,-66.98"/>
<polygon fill="black" stroke="black" points="2095.61,-70.48 2106.04,-68.62 2096.73,-63.57 2095.61,-70.48"/>
</g>
</g>
</svg>
