<?xml version="1.0" encoding="UTF-8" standalone="no"?>
<!DOCTYPE svg PUBLIC "-//W3C//DTD SVG 1.1//EN"
 "http://www.w3.org/Graphics/SVG/1.1/DTD/svg11.dtd">
<!-- Generated by graphviz version 6.0.1 (20220911.1526)
 -->
<!-- Pages: 1 -->
<svg width="2240pt" height="206pt"
 viewBox="0.00 0.00 2240.00 206.00" xmlns="http://www.w3.org/2000/svg" xmlns:xlink="http://www.w3.org/1999/xlink">
<g id="graph0" class="graph" transform="scale(1 1) rotate(0) translate(4 202)">
<polygon fill="white" stroke="none" points="-4,4 -4,-202 2236,-202 2236,4 -4,4"/>
<!-- 2058998933360 -->
<g id="node1" class="node">
<title>2058998933360</title>
<ellipse fill="green" stroke="black" cx="18" cy="-75" rx="18" ry="18"/>
</g>
<!-- 2058997448080 -->
<g id="node2" class="node">
<title>2058997448080</title>
<polygon fill="none" stroke="black" points="99,-93 72,-75 99,-57 126,-75 99,-93"/>
<text text-anchor="middle" x="99" y="-71.9" font-family="Times New Roman,serif" font-size="12.00">X</text>
</g>
<!-- 2058998933360&#45;&gt;2058997448080 -->
<g id="edge1" class="edge">
<title>2058998933360&#45;&gt;2058997448080</title>
<path fill="none" stroke="black" d="M36.14,-75C43.64,-75 52.75,-75 61.64,-75"/>
<polygon fill="black" stroke="black" points="61.87,-78.5 71.87,-75 61.87,-71.5 61.87,-78.5"/>
</g>
<!-- 2058997448032 -->
<g id="node3" class="node">
<title>2058997448032</title>
<polygon fill="none" stroke="black" points="388,-93 361,-75 388,-57 415,-75 388,-93"/>
<text text-anchor="middle" x="388" y="-71.9" font-family="Times New Roman,serif" font-size="12.00">X</text>
</g>
<!-- 2058997448080&#45;&gt;2058997448032 -->
<g id="edge2" class="edge">
<title>2058997448080&#45;&gt;2058997448032</title>
<path fill="none" stroke="black" d="M123.24,-76.86C134.87,-77.69 149.17,-78.59 162,-79 234.41,-81.33 252.59,-81.33 325,-79 334.32,-78.7 344.42,-78.15 353.7,-77.54"/>
<polygon fill="black" stroke="black" points="354.02,-81.03 363.76,-76.86 353.54,-74.05 354.02,-81.03"/>
</g>
<!-- 2058998925968 -->
<g id="node4" class="node">
<title>2058998925968</title>
<polygon fill="none" stroke="black" points="325,-70 162,-70 162,-34 325,-34 325,-70"/>
<text text-anchor="middle" x="243.5" y="-48.9" font-family="Times New Roman,serif" font-size="12.00">Post&#45;travel feedback or services</text>
</g>
<!-- 2058997448080&#45;&gt;2058998925968 -->
<g id="edge3" class="edge">
<title>2058997448080&#45;&gt;2058998925968</title>
<path fill="none" stroke="black" d="M121.03,-71.61C129.65,-70.21 140.27,-68.5 151.61,-66.67"/>
<polygon fill="black" stroke="black" points="152.41,-70.09 161.73,-65.04 151.3,-63.18 152.41,-70.09"/>
</g>
<!-- 2058998929568 -->
<g id="node5" class="node">
<title>2058998929568</title>
<polygon fill="none" stroke="black" points="597,-93 451,-93 451,-57 597,-57 597,-93"/>
<text text-anchor="middle" x="524" y="-71.9" font-family="Times New Roman,serif" font-size="12.00">Customer completes journey</text>
</g>
<!-- 2058997448032&#45;&gt;2058998929568 -->
<g id="edge5" class="edge">
<title>2058997448032&#45;&gt;2058998929568</title>
<path fill="none" stroke="black" d="M415.15,-75C422.82,-75 431.63,-75 440.85,-75"/>
<polygon fill="black" stroke="black" points="440.98,-78.5 450.98,-75 440.98,-71.5 440.98,-78.5"/>
</g>
<!-- 2058998925968&#45;&gt;2058997448032 -->
<g id="edge4" class="edge">
<title>2058998925968&#45;&gt;2058997448032</title>
<path fill="none" stroke="black" d="M325.33,-65.05C336.16,-66.79 346.7,-68.5 355.9,-69.98"/>
<polygon fill="black" stroke="black" points="355.61,-73.48 366.04,-71.62 356.73,-66.57 355.61,-73.48"/>
</g>
<!-- 2058998931056 -->
<g id="node6" class="node">
<title>2058998931056</title>
<polygon fill="none" stroke="black" points="660,-93 633,-75 660,-57 687,-75 660,-93"/>
<text text-anchor="middle" x="660" y="-71.9" font-family="Times New Roman,serif" font-size="12.00">+</text>
</g>
<!-- 2058998929568&#45;&gt;2058998931056 -->
<g id="edge6" class="edge">
<title>2058998929568&#45;&gt;2058998931056</title>
<path fill="none" stroke="black" d="M597.1,-75C605.97,-75 614.73,-75 622.73,-75"/>
<polygon fill="black" stroke="black" points="622.77,-78.5 632.77,-75 622.77,-71.5 622.77,-78.5"/>
</g>
<!-- 2058998938832 -->
<g id="node7" class="node">
<title>2058998938832</title>
<polygon fill="none" stroke="black" points="811,-120 728,-120 728,-84 811,-84 811,-120"/>
<text text-anchor="middle" x="769.5" y="-98.9" font-family="Times New Roman,serif" font-size="12.00">Send reminder</text>
</g>
<!-- 2058998931056&#45;&gt;2058998938832 -->
<g id="edge8" class="edge">
<title>2058998931056&#45;&gt;2058998938832</title>
<path fill="none" stroke="black" d="M680.22,-79.83C690.71,-82.46 704.25,-85.86 717.55,-89.2"/>
<polygon fill="black" stroke="black" points="717.08,-92.69 727.63,-91.73 718.78,-85.9 717.08,-92.69"/>
</g>
<!-- 2058998939072 -->
<g id="node8" class="node">
<title>2058998939072</title>
<polygon fill="none" stroke="black" points="816,-66 723,-66 723,-30 816,-30 816,-66"/>
<text text-anchor="middle" x="769.5" y="-44.9" font-family="Times New Roman,serif" font-size="12.00">Send instructions</text>
</g>
<!-- 2058998931056&#45;&gt;2058998939072 -->
<g id="edge7" class="edge">
<title>2058998931056&#45;&gt;2058998939072</title>
<path fill="none" stroke="black" d="M680.22,-70.17C689.47,-67.85 701.08,-64.93 712.81,-61.99"/>
<polygon fill="black" stroke="black" points="713.81,-65.35 722.65,-59.52 712.1,-58.56 713.81,-65.35"/>
</g>
<!-- 2058998927120 -->
<g id="node9" class="node">
<title>2058998927120</title>
<polygon fill="none" stroke="black" points="879,-93 852,-75 879,-57 906,-75 879,-93"/>
<text text-anchor="middle" x="879" y="-71.9" font-family="Times New Roman,serif" font-size="12.00">+</text>
</g>
<!-- 2058998938832&#45;&gt;2058998927120 -->
<g id="edge9" class="edge">
<title>2058998938832&#45;&gt;2058998927120</title>
<path fill="none" stroke="black" d="M811.14,-91.79C823.71,-88.64 837.29,-85.23 848.91,-82.31"/>
<polygon fill="black" stroke="black" points="850.09,-85.62 858.94,-79.79 848.39,-78.83 850.09,-85.62"/>
</g>
<!-- 2058998939072&#45;&gt;2058998927120 -->
<g id="edge10" class="edge">
<title>2058998939072&#45;&gt;2058998927120</title>
<path fill="none" stroke="black" d="M816.09,-59.45C827.22,-62.25 838.82,-65.16 848.94,-67.7"/>
<polygon fill="black" stroke="black" points="848.31,-71.15 858.86,-70.19 850.01,-64.36 848.31,-71.15"/>
</g>
<!-- 2058998927936 -->
<g id="node10" class="node">
<title>2058998927936</title>
<polygon fill="none" stroke="black" points="1028,-93 942,-93 942,-57 1028,-57 1028,-93"/>
<text text-anchor="middle" x="985" y="-71.9" font-family="Times New Roman,serif" font-size="12.00">Generate ticket</text>
</g>
<!-- 2058998927120&#45;&gt;2058998927936 -->
<g id="edge11" class="edge">
<title>2058998927120&#45;&gt;2058998927936</title>
<path fill="none" stroke="black" d="M906.24,-75C914.11,-75 923.04,-75 931.96,-75"/>
<polygon fill="black" stroke="black" points="931.98,-78.5 941.98,-75 931.98,-71.5 931.98,-78.5"/>
</g>
<!-- 2058998924288 -->
<g id="node11" class="node">
<title>2058998924288</title>
<polygon fill="none" stroke="black" points="1091,-93 1064,-75 1091,-57 1118,-75 1091,-93"/>
<text text-anchor="middle" x="1091" y="-71.9" font-family="Times New Roman,serif" font-size="12.00">+</text>
</g>
<!-- 2058998927936&#45;&gt;2058998924288 -->
<g id="edge12" class="edge">
<title>2058998927936&#45;&gt;2058998924288</title>
<path fill="none" stroke="black" d="M1028,-75C1036.48,-75 1045.34,-75 1053.61,-75"/>
<polygon fill="black" stroke="black" points="1053.7,-78.5 1063.7,-75 1053.7,-71.5 1053.7,-78.5"/>
</g>
<!-- 2058998924000 -->
<g id="node12" class="node">
<title>2058998924000</title>
<polygon fill="none" stroke="black" points="1414,-193 1298,-193 1298,-157 1414,-157 1414,-193"/>
<text text-anchor="middle" x="1356" y="-171.9" font-family="Times New Roman,serif" font-size="12.00">Update seat inventory</text>
</g>
<!-- 2058998924288&#45;&gt;2058998924000 -->
<g id="edge13" class="edge">
<title>2058998924288&#45;&gt;2058998924000</title>
<path fill="none" stroke="black" d="M1102.4,-85.82C1113.96,-97.23 1133.69,-114.91 1154,-125 1196.01,-145.88 1247.39,-158.46 1287.69,-165.78"/>
<polygon fill="black" stroke="black" points="1287.23,-169.25 1297.69,-167.53 1288.44,-162.36 1287.23,-169.25"/>
</g>
<!-- 2058998923856 -->
<g id="node13" class="node">
<title>2058998923856</title>
<polygon fill="none" stroke="black" points="1262,-116 1154,-116 1154,-80 1262,-80 1262,-116"/>
<text text-anchor="middle" x="1208" y="-94.9" font-family="Times New Roman,serif" font-size="12.00">Select date and time</text>
</g>
<!-- 2058998924288&#45;&gt;2058998923856 -->
<g id="edge16" class="edge">
<title>2058998924288&#45;&gt;2058998923856</title>
<path fill="none" stroke="black" d="M1112.03,-79.01C1120.99,-80.8 1132.1,-83.02 1143.53,-85.31"/>
<polygon fill="black" stroke="black" points="1143.11,-88.79 1153.6,-87.32 1144.48,-81.93 1143.11,-88.79"/>
</g>
<!-- 2058998932976 -->
<g id="node14" class="node">
<title>2058998932976</title>
<polygon fill="none" stroke="black" points="1742,-78 1632,-78 1632,-42 1742,-42 1742,-78"/>
<text text-anchor="middle" x="1687" y="-56.9" font-family="Times New Roman,serif" font-size="12.00">Send ticket via SMS</text>
</g>
<!-- 2058998924288&#45;&gt;2058998932976 -->
<g id="edge14" class="edge">
<title>2058998924288&#45;&gt;2058998932976</title>
<path fill="none" stroke="black" d="M1115.54,-73.24C1127.12,-72.43 1141.28,-71.54 1154,-71 1322.7,-63.82 1521.71,-61.28 1621.74,-60.42"/>
<polygon fill="black" stroke="black" points="1622.01,-63.92 1631.98,-60.34 1621.95,-56.92 1622.01,-63.92"/>
</g>
<!-- 2058998932112 -->
<g id="node15" class="node">
<title>2058998932112</title>
<polygon fill="none" stroke="black" points="1888,-36 1778,-36 1778,0 1888,0 1888,-36"/>
<text text-anchor="middle" x="1833" y="-14.9" font-family="Times New Roman,serif" font-size="12.00">Send ticket via email</text>
</g>
<!-- 2058998924288&#45;&gt;2058998932112 -->
<g id="edge15" class="edge">
<title>2058998924288&#45;&gt;2058998932112</title>
<path fill="none" stroke="black" d="M1108.31,-68.47C1149.15,-52.74 1259.38,-14 1355,-14 1355,-14 1355,-14 1524,-14 1608.22,-14 1705.38,-15.51 1767.68,-16.68"/>
<polygon fill="black" stroke="black" points="1767.69,-20.18 1777.76,-16.87 1767.82,-13.18 1767.69,-20.18"/>
</g>
<!-- 2058998924480 -->
<g id="node16" class="node">
<title>2058998924480</title>
<polygon fill="none" stroke="black" points="2133,-108 2106,-90 2133,-72 2160,-90 2133,-108"/>
<text text-anchor="middle" x="2133" y="-86.9" font-family="Times New Roman,serif" font-size="12.00">+</text>
</g>
<!-- 2058998924000&#45;&gt;2058998924480 -->
<g id="edge17" class="edge">
<title>2058998924000&#45;&gt;2058998924480</title>
<path fill="none" stroke="black" d="M1414.27,-181.44C1479.84,-188.24 1590.52,-198 1686,-198 1686,-198 1686,-198 1834,-198 1942.12,-198 1972.97,-186.7 2070,-139 2086.41,-130.93 2102.53,-117.99 2114.22,-107.43"/>
<polygon fill="black" stroke="black" points="2116.63,-109.97 2121.56,-100.59 2111.86,-104.85 2116.63,-109.97"/>
</g>
<!-- 2058998923808 -->
<g id="node17" class="node">
<title>2058998923808</title>
<polygon fill="none" stroke="black" points="1356,-116 1329,-98 1356,-80 1383,-98 1356,-116"/>
<text text-anchor="middle" x="1356" y="-94.9" font-family="Times New Roman,serif" font-size="12.00">+</text>
</g>
<!-- 2058998923856&#45;&gt;2058998923808 -->
<g id="edge18" class="edge">
<title>2058998923856&#45;&gt;2058998923808</title>
<path fill="none" stroke="black" d="M1262.12,-98C1280.89,-98 1301.56,-98 1318.63,-98"/>
<polygon fill="black" stroke="black" points="1318.74,-101.5 1328.74,-98 1318.74,-94.5 1318.74,-101.5"/>
</g>
<!-- 2058998932976&#45;&gt;2058998924480 -->
<g id="edge19" class="edge">
<title>2058998932976&#45;&gt;2058998924480</title>
<path fill="none" stroke="black" d="M1742.11,-63.28C1816.14,-67.83 1953.17,-76.47 2070,-85 2079.31,-85.68 2089.41,-86.47 2098.69,-87.22"/>
<polygon fill="black" stroke="black" points="2098.5,-90.72 2108.75,-88.04 2099.07,-83.74 2098.5,-90.72"/>
</g>
<!-- 2058998932112&#45;&gt;2058998924480 -->
<g id="edge20" class="edge">
<title>2058998932112&#45;&gt;2058998924480</title>
<path fill="none" stroke="black" d="M1888.04,-19.13C1936.91,-21.64 2010.16,-29.14 2070,-51 2085.04,-56.49 2100.28,-66.02 2111.89,-74.28"/>
<polygon fill="black" stroke="black" points="2109.87,-77.14 2120,-80.26 2114.03,-71.51 2109.87,-77.14"/>
</g>
<!-- 2058998933888 -->
<g id="node23" class="node">
<title>2058998933888</title>
<ellipse fill="orange" stroke="black" cx="2214" cy="-90" rx="18" ry="18"/>
</g>
<!-- 2058998924480&#45;&gt;2058998933888 -->
<g id="edge23" class="edge">
<title>2058998924480&#45;&gt;2058998933888</title>
<path fill="none" stroke="black" d="M2160.31,-90C2168.42,-90 2177.37,-90 2185.56,-90"/>
<polygon fill="black" stroke="black" points="2185.75,-93.5 2195.75,-90 2185.75,-86.5 2185.75,-93.5"/>
</g>
<!-- 2058998927984 -->
<g id="node18" class="node">
<title>2058998927984</title>
<polygon fill="none" stroke="black" points="1596,-170 1450,-170 1450,-134 1596,-134 1596,-170"/>
<text text-anchor="middle" x="1523" y="-148.9" font-family="Times New Roman,serif" font-size="12.00">Provide personal information</text>
</g>
<!-- 2058998923808&#45;&gt;2058998927984 -->
<g id="edge22" class="edge">
<title>2058998923808&#45;&gt;2058998927984</title>
<path fill="none" stroke="black" d="M1374.66,-103.78C1394.39,-110.24 1427.48,-121.07 1457.31,-130.83"/>
<polygon fill="black" stroke="black" points="1456.27,-134.17 1466.86,-133.96 1458.45,-127.52 1456.27,-134.17"/>
</g>
<!-- 2058998933936 -->
<g id="node19" class="node">
<title>2058998933936</title>
<polygon fill="none" stroke="black" points="1585.5,-116 1460.5,-116 1460.5,-80 1585.5,-80 1585.5,-116"/>
<text text-anchor="middle" x="1523" y="-94.9" font-family="Times New Roman,serif" font-size="12.00">Provide payment details</text>
</g>
<!-- 2058998923808&#45;&gt;2058998933936 -->
<g id="edge21" class="edge">
<title>2058998923808&#45;&gt;2058998933936</title>
<path fill="none" stroke="black" d="M1383.14,-98C1401.27,-98 1426.36,-98 1450.22,-98"/>
<polygon fill="black" stroke="black" points="1450.35,-101.5 1460.35,-98 1450.35,-94.5 1450.35,-101.5"/>
</g>
<!-- 2058998933072 -->
<g id="node20" class="node">
<title>2058998933072</title>
<polygon fill="none" stroke="black" points="1687,-132 1660,-114 1687,-96 1714,-114 1687,-132"/>
<text text-anchor="middle" x="1687" y="-110.9" font-family="Times New Roman,serif" font-size="12.00">+</text>
</g>
<!-- 2058998927984&#45;&gt;2058998933072 -->
<g id="edge24" class="edge">
<title>2058998927984&#45;&gt;2058998933072</title>
<path fill="none" stroke="black" d="M1596.47,-135C1617.82,-129.99 1639.97,-124.8 1656.89,-120.83"/>
<polygon fill="black" stroke="black" points="1657.77,-124.22 1666.7,-118.53 1656.17,-117.4 1657.77,-124.22"/>
</g>
<!-- 2058998933936&#45;&gt;2058998933072 -->
<g id="edge25" class="edge">
<title>2058998933936&#45;&gt;2058998933072</title>
<path fill="none" stroke="black" d="M1585.71,-104.09C1608.64,-106.36 1633.77,-108.84 1653.13,-110.75"/>
<polygon fill="black" stroke="black" points="1652.95,-114.25 1663.25,-111.75 1653.64,-107.29 1652.95,-114.25"/>
</g>
<!-- 2058998929616 -->
<g id="node21" class="node">
<title>2058998929616</title>
<polygon fill="none" stroke="black" points="1868.5,-130 1797.5,-130 1797.5,-94 1868.5,-94 1868.5,-130"/>
<text text-anchor="middle" x="1833" y="-108.9" font-family="Times New Roman,serif" font-size="12.00">Select route</text>
</g>
<!-- 2058998933072&#45;&gt;2058998929616 -->
<g id="edge26" class="edge">
<title>2058998933072&#45;&gt;2058998929616</title>
<path fill="none" stroke="black" d="M1713.74,-113.64C1734.13,-113.36 1763.1,-112.96 1787.26,-112.62"/>
<polygon fill="black" stroke="black" points="1787.33,-116.12 1797.28,-112.48 1787.23,-109.12 1787.33,-116.12"/>
</g>
<!-- 2058998939312 -->
<g id="node22" class="node">
<title>2058998939312</title>
<polygon fill="none" stroke="black" points="2070,-130 1924,-130 1924,-94 2070,-94 2070,-130"/>
<text text-anchor="middle" x="1997" y="-108.9" font-family="Times New Roman,serif" font-size="12.00">Customer searches for ticket</text>
</g>
<!-- 2058998929616&#45;&gt;2058998939312 -->
<g id="edge27" class="edge">
<title>2058998929616&#45;&gt;2058998939312</title>
<path fill="none" stroke="black" d="M1868.75,-112C1881.95,-112 1897.6,-112 1913.34,-112"/>
<polygon fill="black" stroke="black" points="1913.67,-115.5 1923.67,-112 1913.67,-108.5 1913.67,-115.5"/>
</g>
<!-- 2058998939312&#45;&gt;2058998924480 -->
<g id="edge28" class="edge">
<title>2058998939312&#45;&gt;2058998924480</title>
<path fill="none" stroke="black" d="M2070.1,-100.16C2080.99,-98.37 2091.7,-96.62 2101.07,-95.08"/>
<polygon fill="black" stroke="black" points="2101.72,-98.52 2111.02,-93.44 2100.58,-91.61 2101.72,-98.52"/>
</g>
</g>
</svg>
