<?xml version="1.0" encoding="UTF-8" standalone="no"?>
<!DOCTYPE svg PUBLIC "-//W3C//DTD SVG 1.1//EN"
 "http://www.w3.org/Graphics/SVG/1.1/DTD/svg11.dtd">
<!-- Generated by graphviz version 6.0.1 (20220911.1526)
 -->
<!-- Pages: 1 -->
<svg width="2193pt" height="152pt"
 viewBox="0.00 0.00 2193.00 152.00" xmlns="http://www.w3.org/2000/svg" xmlns:xlink="http://www.w3.org/1999/xlink">
<g id="graph0" class="graph" transform="scale(1 1) rotate(0) translate(4 148)">
<polygon fill="white" stroke="none" points="-4,4 -4,-148 2189,-148 2189,4 -4,4"/>
<!-- 2057960888336 -->
<g id="node1" class="node">
<title>2057960888336</title>
<ellipse fill="green" stroke="black" cx="18" cy="-72" rx="18" ry="18"/>
</g>
<!-- 2058996278384 -->
<g id="node2" class="node">
<title>2058996278384</title>
<polygon fill="none" stroke="black" points="218,-90 72,-90 72,-54 218,-54 218,-90"/>
<text text-anchor="middle" x="145" y="-68.9" font-family="Times New Roman,serif" font-size="12.00">Customer completes journey</text>
</g>
<!-- 2057960888336&#45;&gt;2058996278384 -->
<g id="edge1" class="edge">
<title>2057960888336&#45;&gt;2058996278384</title>
<path fill="none" stroke="black" d="M36.12,-72C43.26,-72 52.13,-72 61.68,-72"/>
<polygon fill="black" stroke="black" points="61.84,-75.5 71.84,-72 61.84,-68.5 61.84,-75.5"/>
</g>
<!-- 2057961404496 -->
<g id="node3" class="node">
<title>2057961404496</title>
<polygon fill="none" stroke="black" points="337,-90 254,-90 254,-54 337,-54 337,-90"/>
<text text-anchor="middle" x="295.5" y="-68.9" font-family="Times New Roman,serif" font-size="12.00">Send reminder</text>
</g>
<!-- 2058996278384&#45;&gt;2057961404496 -->
<g id="edge2" class="edge">
<title>2058996278384&#45;&gt;2057961404496</title>
<path fill="none" stroke="black" d="M218.07,-72C226.7,-72 235.36,-72 243.6,-72"/>
<polygon fill="black" stroke="black" points="243.77,-75.5 253.77,-72 243.77,-68.5 243.77,-75.5"/>
</g>
<!-- 2057961401856 -->
<g id="node4" class="node">
<title>2057961401856</title>
<polygon fill="none" stroke="black" points="519,-90 373,-90 373,-54 519,-54 519,-90"/>
<text text-anchor="middle" x="446" y="-68.9" font-family="Times New Roman,serif" font-size="12.00">Customer searches for ticket</text>
</g>
<!-- 2057961404496&#45;&gt;2057961401856 -->
<g id="edge3" class="edge">
<title>2057961404496&#45;&gt;2057961401856</title>
<path fill="none" stroke="black" d="M337.08,-72C345.13,-72 353.85,-72 362.72,-72"/>
<polygon fill="black" stroke="black" points="362.78,-75.5 372.78,-72 362.78,-68.5 362.78,-75.5"/>
</g>
<!-- 2057961399024 -->
<g id="node5" class="node">
<title>2057961399024</title>
<polygon fill="none" stroke="black" points="671,-90 555,-90 555,-54 671,-54 671,-90"/>
<text text-anchor="middle" x="613" y="-68.9" font-family="Times New Roman,serif" font-size="12.00">Update seat inventory</text>
</g>
<!-- 2057961401856&#45;&gt;2057961399024 -->
<g id="edge4" class="edge">
<title>2057961401856&#45;&gt;2057961399024</title>
<path fill="none" stroke="black" d="M519.37,-72C527.65,-72 536.07,-72 544.29,-72"/>
<polygon fill="black" stroke="black" points="544.56,-75.5 554.56,-72 544.56,-68.5 544.56,-75.5"/>
</g>
<!-- 2058996275120 -->
<g id="node6" class="node">
<title>2058996275120</title>
<polygon fill="none" stroke="black" points="793,-90 707,-90 707,-54 793,-54 793,-90"/>
<text text-anchor="middle" x="750" y="-68.9" font-family="Times New Roman,serif" font-size="12.00">Generate ticket</text>
</g>
<!-- 2057961399024&#45;&gt;2058996275120 -->
<g id="edge5" class="edge">
<title>2057961399024&#45;&gt;2058996275120</title>
<path fill="none" stroke="black" d="M671.25,-72C679.73,-72 688.44,-72 696.81,-72"/>
<polygon fill="black" stroke="black" points="696.81,-75.5 706.81,-72 696.81,-68.5 696.81,-75.5"/>
</g>
<!-- 2058996279680 -->
<g id="node7" class="node">
<title>2058996279680</title>
<polygon fill="none" stroke="black" points="856,-90 829,-72 856,-54 883,-72 856,-90"/>
<text text-anchor="middle" x="856" y="-68.9" font-family="Times New Roman,serif" font-size="12.00">+</text>
</g>
<!-- 2058996275120&#45;&gt;2058996279680 -->
<g id="edge6" class="edge">
<title>2058996275120&#45;&gt;2058996279680</title>
<path fill="none" stroke="black" d="M793,-72C801.48,-72 810.34,-72 818.61,-72"/>
<polygon fill="black" stroke="black" points="818.7,-75.5 828.7,-72 818.7,-68.5 818.7,-75.5"/>
</g>
<!-- 2058996271664 -->
<g id="node8" class="node">
<title>2058996271664</title>
<polygon fill="none" stroke="black" points="1054.5,-36 946.5,-36 946.5,0 1054.5,0 1054.5,-36"/>
<text text-anchor="middle" x="1000.5" y="-14.9" font-family="Times New Roman,serif" font-size="12.00">Select date and time</text>
</g>
<!-- 2058996279680&#45;&gt;2058996271664 -->
<g id="edge9" class="edge">
<title>2058996279680&#45;&gt;2058996271664</title>
<path fill="none" stroke="black" d="M872.39,-64.85C884.84,-59.18 902.89,-51.2 919,-45 924.78,-42.78 930.83,-40.56 936.9,-38.4"/>
<polygon fill="black" stroke="black" points="938.15,-41.67 946.44,-35.07 935.84,-35.06 938.15,-41.67"/>
</g>
<!-- 2058996277712 -->
<g id="node9" class="node">
<title>2058996277712</title>
<polygon fill="none" stroke="black" points="1063,-144 938,-144 938,-108 1063,-108 1063,-144"/>
<text text-anchor="middle" x="1000.5" y="-122.9" font-family="Times New Roman,serif" font-size="12.00">Provide payment details</text>
</g>
<!-- 2058996279680&#45;&gt;2058996277712 -->
<g id="edge8" class="edge">
<title>2058996279680&#45;&gt;2058996277712</title>
<path fill="none" stroke="black" d="M872.39,-79.15C884.84,-84.82 902.89,-92.8 919,-99 923.78,-100.84 928.74,-102.67 933.75,-104.48"/>
<polygon fill="black" stroke="black" points="932.82,-107.86 943.41,-107.89 935.15,-101.26 932.82,-107.86"/>
</g>
<!-- 2058996273536 -->
<g id="node10" class="node">
<title>2058996273536</title>
<polygon fill="none" stroke="black" points="1082,-90 919,-90 919,-54 1082,-54 1082,-90"/>
<text text-anchor="middle" x="1000.5" y="-68.9" font-family="Times New Roman,serif" font-size="12.00">Post&#45;travel feedback or services</text>
</g>
<!-- 2058996279680&#45;&gt;2058996273536 -->
<g id="edge7" class="edge">
<title>2058996279680&#45;&gt;2058996273536</title>
<path fill="none" stroke="black" d="M883.14,-72C890.75,-72 899.53,-72 908.78,-72"/>
<polygon fill="black" stroke="black" points="908.97,-75.5 918.97,-72 908.97,-68.5 908.97,-75.5"/>
</g>
<!-- 2058996273152 -->
<g id="node11" class="node">
<title>2058996273152</title>
<polygon fill="none" stroke="black" points="1189,-36 1118,-36 1118,0 1189,0 1189,-36"/>
<text text-anchor="middle" x="1153.5" y="-14.9" font-family="Times New Roman,serif" font-size="12.00">Select route</text>
</g>
<!-- 2058996271664&#45;&gt;2058996273152 -->
<g id="edge10" class="edge">
<title>2058996271664&#45;&gt;2058996273152</title>
<path fill="none" stroke="black" d="M1054.74,-18C1072.03,-18 1091.04,-18 1107.67,-18"/>
<polygon fill="black" stroke="black" points="1107.67,-21.5 1117.67,-18 1107.67,-14.5 1107.67,-21.5"/>
</g>
<!-- 2058996271616 -->
<g id="node12" class="node">
<title>2058996271616</title>
<polygon fill="none" stroke="black" points="1252,-144 1225,-126 1252,-108 1279,-126 1252,-144"/>
<text text-anchor="middle" x="1252" y="-122.9" font-family="Times New Roman,serif" font-size="12.00">+</text>
</g>
<!-- 2058996277712&#45;&gt;2058996271616 -->
<g id="edge11" class="edge">
<title>2058996277712&#45;&gt;2058996271616</title>
<path fill="none" stroke="black" d="M1063.17,-126C1110.86,-126 1175.24,-126 1214.89,-126"/>
<polygon fill="black" stroke="black" points="1214.9,-129.5 1224.9,-126 1214.9,-122.5 1214.9,-129.5"/>
</g>
<!-- 2058996275312 -->
<g id="node13" class="node">
<title>2058996275312</title>
<polygon fill="none" stroke="black" points="1252,-90 1225,-72 1252,-54 1279,-72 1252,-90"/>
<text text-anchor="middle" x="1252" y="-68.9" font-family="Times New Roman,serif" font-size="12.00">+</text>
</g>
<!-- 2058996273536&#45;&gt;2058996275312 -->
<g id="edge12" class="edge">
<title>2058996273536&#45;&gt;2058996275312</title>
<path fill="none" stroke="black" d="M1082.16,-72C1126.8,-72 1180.09,-72 1214.69,-72"/>
<polygon fill="black" stroke="black" points="1214.8,-75.5 1224.8,-72 1214.8,-68.5 1214.8,-75.5"/>
</g>
<!-- 2058996270032 -->
<g id="node16" class="node">
<title>2058996270032</title>
<polygon fill="none" stroke="black" points="1252,-36 1225,-18 1252,0 1279,-18 1252,-36"/>
<text text-anchor="middle" x="1252" y="-14.9" font-family="Times New Roman,serif" font-size="12.00">+</text>
</g>
<!-- 2058996273152&#45;&gt;2058996270032 -->
<g id="edge13" class="edge">
<title>2058996273152&#45;&gt;2058996270032</title>
<path fill="none" stroke="black" d="M1189.07,-18C1197.36,-18 1206.23,-18 1214.6,-18"/>
<polygon fill="black" stroke="black" points="1214.85,-21.5 1224.85,-18 1214.85,-14.5 1214.85,-21.5"/>
</g>
<!-- 2057961392304 -->
<g id="node14" class="node">
<title>2057961392304</title>
<polygon fill="none" stroke="black" points="1342,-117 1315,-99 1342,-81 1369,-99 1342,-117"/>
<text text-anchor="middle" x="1342" y="-95.9" font-family="Times New Roman,serif" font-size="12.00">+</text>
</g>
<!-- 2058996271616&#45;&gt;2057961392304 -->
<g id="edge15" class="edge">
<title>2058996271616&#45;&gt;2057961392304</title>
<path fill="none" stroke="black" d="M1270.81,-120.54C1283.01,-116.79 1299.45,-111.75 1313.34,-107.49"/>
<polygon fill="black" stroke="black" points="1314.38,-110.83 1322.92,-104.55 1312.33,-104.14 1314.38,-110.83"/>
</g>
<!-- 2057961404736 -->
<g id="node15" class="node">
<title>2057961404736</title>
<polygon fill="none" stroke="black" points="1342,-63 1315,-45 1342,-27 1369,-45 1342,-63"/>
<text text-anchor="middle" x="1342" y="-41.9" font-family="Times New Roman,serif" font-size="12.00">+</text>
</g>
<!-- 2058996271616&#45;&gt;2057961404736 -->
<g id="edge14" class="edge">
<title>2058996271616&#45;&gt;2057961404736</title>
<path fill="none" stroke="black" d="M1264.15,-115.74C1278.82,-102.23 1304.84,-78.29 1322.49,-62.04"/>
<polygon fill="black" stroke="black" points="1324.96,-64.52 1329.95,-55.18 1320.22,-59.37 1324.96,-64.52"/>
</g>
<!-- 2058996275312&#45;&gt;2057961392304 -->
<g id="edge16" class="edge">
<title>2058996275312&#45;&gt;2057961392304</title>
<path fill="none" stroke="black" d="M1270.81,-77.46C1283.01,-81.21 1299.45,-86.25 1313.34,-90.51"/>
<polygon fill="black" stroke="black" points="1312.33,-93.86 1322.92,-93.45 1314.38,-87.17 1312.33,-93.86"/>
</g>
<!-- 2058996275312&#45;&gt;2057961404736 -->
<g id="edge17" class="edge">
<title>2058996275312&#45;&gt;2057961404736</title>
<path fill="none" stroke="black" d="M1270.81,-66.54C1283.01,-62.79 1299.45,-57.75 1313.34,-53.49"/>
<polygon fill="black" stroke="black" points="1314.38,-56.83 1322.92,-50.55 1312.33,-50.14 1314.38,-56.83"/>
</g>
<!-- 2057961399264 -->
<g id="node17" class="node">
<title>2057961399264</title>
<polygon fill="none" stroke="black" points="1515,-117 1405,-117 1405,-81 1515,-81 1515,-117"/>
<text text-anchor="middle" x="1460" y="-95.9" font-family="Times New Roman,serif" font-size="12.00">Send ticket via SMS</text>
</g>
<!-- 2057961392304&#45;&gt;2057961399264 -->
<g id="edge20" class="edge">
<title>2057961392304&#45;&gt;2057961399264</title>
<path fill="none" stroke="black" d="M1369.03,-99C1376.7,-99 1385.45,-99 1394.42,-99"/>
<polygon fill="black" stroke="black" points="1394.58,-102.5 1404.58,-99 1394.58,-95.5 1394.58,-102.5"/>
</g>
<!-- 2058996270896 -->
<g id="node18" class="node">
<title>2058996270896</title>
<polygon fill="none" stroke="black" points="1506.5,-63 1413.5,-63 1413.5,-27 1506.5,-27 1506.5,-63"/>
<text text-anchor="middle" x="1460" y="-41.9" font-family="Times New Roman,serif" font-size="12.00">Send instructions</text>
</g>
<!-- 2057961404736&#45;&gt;2058996270896 -->
<g id="edge21" class="edge">
<title>2057961404736&#45;&gt;2058996270896</title>
<path fill="none" stroke="black" d="M1369.03,-45C1379.26,-45 1391.42,-45 1403.44,-45"/>
<polygon fill="black" stroke="black" points="1403.45,-48.5 1413.45,-45 1403.45,-41.5 1403.45,-48.5"/>
</g>
<!-- 2058996270032&#45;&gt;2057961392304 -->
<g id="edge19" class="edge">
<title>2058996270032&#45;&gt;2057961392304</title>
<path fill="none" stroke="black" d="M1264.15,-28.26C1278.82,-41.77 1304.84,-65.71 1322.49,-81.96"/>
<polygon fill="black" stroke="black" points="1320.22,-84.63 1329.95,-88.82 1324.96,-79.48 1320.22,-84.63"/>
</g>
<!-- 2058996270032&#45;&gt;2057961404736 -->
<g id="edge18" class="edge">
<title>2058996270032&#45;&gt;2057961404736</title>
<path fill="none" stroke="black" d="M1270.81,-23.46C1283.01,-27.21 1299.45,-32.25 1313.34,-36.51"/>
<polygon fill="black" stroke="black" points="1312.33,-39.86 1322.92,-39.45 1314.38,-33.17 1312.33,-39.86"/>
</g>
<!-- 2058996270608 -->
<g id="node19" class="node">
<title>2058996270608</title>
<polygon fill="none" stroke="black" points="1578,-90 1551,-72 1578,-54 1605,-72 1578,-90"/>
<text text-anchor="middle" x="1578" y="-68.9" font-family="Times New Roman,serif" font-size="12.00">+</text>
</g>
<!-- 2057961399264&#45;&gt;2058996270608 -->
<g id="edge22" class="edge">
<title>2057961399264&#45;&gt;2058996270608</title>
<path fill="none" stroke="black" d="M1515.26,-86.37C1526.55,-83.74 1538.04,-81.07 1547.98,-78.75"/>
<polygon fill="black" stroke="black" points="1548.78,-82.16 1557.73,-76.49 1547.19,-75.34 1548.78,-82.16"/>
</g>
<!-- 2058996270896&#45;&gt;2058996270608 -->
<g id="edge23" class="edge">
<title>2058996270896&#45;&gt;2058996270608</title>
<path fill="none" stroke="black" d="M1506.51,-55.59C1520.4,-58.83 1535.28,-62.29 1547.78,-65.2"/>
<polygon fill="black" stroke="black" points="1547.11,-68.64 1557.65,-67.5 1548.7,-61.82 1547.11,-68.64"/>
</g>
<!-- 2057961250224 -->
<g id="node20" class="node">
<title>2057961250224</title>
<polygon fill="none" stroke="black" points="1787,-90 1641,-90 1641,-54 1787,-54 1787,-90"/>
<text text-anchor="middle" x="1714" y="-68.9" font-family="Times New Roman,serif" font-size="12.00">Provide personal information</text>
</g>
<!-- 2058996270608&#45;&gt;2057961250224 -->
<g id="edge24" class="edge">
<title>2058996270608&#45;&gt;2057961250224</title>
<path fill="none" stroke="black" d="M1605.15,-72C1612.82,-72 1621.63,-72 1630.85,-72"/>
<polygon fill="black" stroke="black" points="1630.98,-75.5 1640.98,-72 1630.98,-68.5 1630.98,-75.5"/>
</g>
<!-- 2057961394464 -->
<g id="node21" class="node">
<title>2057961394464</title>
<polygon fill="none" stroke="black" points="1850,-90 1823,-72 1850,-54 1877,-72 1850,-90"/>
<text text-anchor="middle" x="1850" y="-68.9" font-family="Times New Roman,serif" font-size="12.00">X</text>
</g>
<!-- 2057961250224&#45;&gt;2057961394464 -->
<g id="edge25" class="edge">
<title>2057961250224&#45;&gt;2057961394464</title>
<path fill="none" stroke="black" d="M1787.1,-72C1795.97,-72 1804.73,-72 1812.73,-72"/>
<polygon fill="black" stroke="black" points="1812.77,-75.5 1822.77,-72 1812.77,-68.5 1812.77,-75.5"/>
</g>
<!-- 2057961396768 -->
<g id="node22" class="node">
<title>2057961396768</title>
<polygon fill="none" stroke="black" points="2086,-90 2059,-72 2086,-54 2113,-72 2086,-90"/>
<text text-anchor="middle" x="2086" y="-68.9" font-family="Times New Roman,serif" font-size="12.00">X</text>
</g>
<!-- 2057961394464&#45;&gt;2057961396768 -->
<g id="edge26" class="edge">
<title>2057961394464&#45;&gt;2057961396768</title>
<path fill="none" stroke="black" d="M1874.24,-73.86C1885.87,-74.69 1900.17,-75.59 1913,-76 1961.86,-77.57 1974.14,-77.57 2023,-76 2032.32,-75.7 2042.42,-75.15 2051.7,-74.54"/>
<polygon fill="black" stroke="black" points="2052.02,-78.03 2061.76,-73.86 2051.54,-71.05 2052.02,-78.03"/>
</g>
<!-- 2058996269936 -->
<g id="node23" class="node">
<title>2058996269936</title>
<polygon fill="none" stroke="black" points="2023,-67 1913,-67 1913,-31 2023,-31 2023,-67"/>
<text text-anchor="middle" x="1968" y="-45.9" font-family="Times New Roman,serif" font-size="12.00">Send ticket via email</text>
</g>
<!-- 2057961394464&#45;&gt;2058996269936 -->
<g id="edge27" class="edge">
<title>2057961394464&#45;&gt;2058996269936</title>
<path fill="none" stroke="black" d="M1871.21,-67.99C1880.14,-66.22 1891.2,-64.03 1902.59,-61.77"/>
<polygon fill="black" stroke="black" points="1903.51,-65.16 1912.64,-59.78 1902.15,-58.29 1903.51,-65.16"/>
</g>
<!-- 2057960888144 -->
<g id="node24" class="node">
<title>2057960888144</title>
<ellipse fill="orange" stroke="black" cx="2167" cy="-72" rx="18" ry="18"/>
</g>
<!-- 2057961396768&#45;&gt;2057960888144 -->
<g id="edge29" class="edge">
<title>2057961396768&#45;&gt;2057960888144</title>
<path fill="none" stroke="black" d="M2113.31,-72C2121.42,-72 2130.37,-72 2138.56,-72"/>
<polygon fill="black" stroke="black" points="2138.75,-75.5 2148.75,-72 2138.75,-68.5 2138.75,-75.5"/>
</g>
<!-- 2058996269936&#45;&gt;2057961396768 -->
<g id="edge28" class="edge">
<title>2058996269936&#45;&gt;2057961396768</title>
<path fill="none" stroke="black" d="M2023.26,-59.76C2034.18,-61.92 2045.27,-64.12 2054.98,-66.05"/>
<polygon fill="black" stroke="black" points="2054.41,-69.5 2064.9,-68.02 2055.78,-62.64 2054.41,-69.5"/>
</g>
</g>
</svg>
