<?xml version="1.0" encoding="UTF-8" standalone="no"?>
<!DOCTYPE svg PUBLIC "-//W3C//DTD SVG 1.1//EN"
 "http://www.w3.org/Graphics/SVG/1.1/DTD/svg11.dtd">
<!-- Generated by graphviz version 6.0.1 (20220911.1526)
 -->
<!-- Pages: 1 -->
<svg width="2539pt" height="211pt"
 viewBox="0.00 0.00 2539.00 211.00" xmlns="http://www.w3.org/2000/svg" xmlns:xlink="http://www.w3.org/1999/xlink">
<g id="graph0" class="graph" transform="scale(1 1) rotate(0) translate(4 207)">
<polygon fill="white" stroke="none" points="-4,4 -4,-207 2535,-207 2535,4 -4,4"/>
<!-- 2058996198960 -->
<g id="node1" class="node">
<title>2058996198960</title>
<ellipse fill="green" stroke="black" cx="18" cy="-110" rx="18" ry="18"/>
</g>
<!-- 2057960890256 -->
<g id="node2" class="node">
<title>2057960890256</title>
<polygon fill="none" stroke="black" points="218,-128 72,-128 72,-92 218,-92 218,-128"/>
<text text-anchor="middle" x="145" y="-106.9" font-family="Times New Roman,serif" font-size="12.00">Customer completes journey</text>
</g>
<!-- 2058996198960&#45;&gt;2057960890256 -->
<g id="edge1" class="edge">
<title>2058996198960&#45;&gt;2057960890256</title>
<path fill="none" stroke="black" d="M36.12,-110C43.26,-110 52.13,-110 61.68,-110"/>
<polygon fill="black" stroke="black" points="61.84,-113.5 71.84,-110 61.84,-106.5 61.84,-113.5"/>
</g>
<!-- 2057960890736 -->
<g id="node3" class="node">
<title>2057960890736</title>
<polygon fill="none" stroke="black" points="337,-128 254,-128 254,-92 337,-92 337,-128"/>
<text text-anchor="middle" x="295.5" y="-106.9" font-family="Times New Roman,serif" font-size="12.00">Send reminder</text>
</g>
<!-- 2057960890256&#45;&gt;2057960890736 -->
<g id="edge2" class="edge">
<title>2057960890256&#45;&gt;2057960890736</title>
<path fill="none" stroke="black" d="M218.07,-110C226.7,-110 235.36,-110 243.6,-110"/>
<polygon fill="black" stroke="black" points="243.77,-113.5 253.77,-110 243.77,-106.5 243.77,-113.5"/>
</g>
<!-- 2057960897792 -->
<g id="node4" class="node">
<title>2057960897792</title>
<polygon fill="none" stroke="black" points="519,-128 373,-128 373,-92 519,-92 519,-128"/>
<text text-anchor="middle" x="446" y="-106.9" font-family="Times New Roman,serif" font-size="12.00">Customer searches for ticket</text>
</g>
<!-- 2057960890736&#45;&gt;2057960897792 -->
<g id="edge3" class="edge">
<title>2057960890736&#45;&gt;2057960897792</title>
<path fill="none" stroke="black" d="M337.08,-110C345.13,-110 353.85,-110 362.72,-110"/>
<polygon fill="black" stroke="black" points="362.78,-113.5 372.78,-110 362.78,-106.5 362.78,-113.5"/>
</g>
<!-- 2057960886896 -->
<g id="node5" class="node">
<title>2057960886896</title>
<polygon fill="none" stroke="black" points="582,-128 555,-110 582,-92 609,-110 582,-128"/>
<text text-anchor="middle" x="582" y="-106.9" font-family="Times New Roman,serif" font-size="12.00">+</text>
</g>
<!-- 2057960897792&#45;&gt;2057960886896 -->
<g id="edge4" class="edge">
<title>2057960897792&#45;&gt;2057960886896</title>
<path fill="none" stroke="black" d="M519.1,-110C527.97,-110 536.73,-110 544.73,-110"/>
<polygon fill="black" stroke="black" points="544.77,-113.5 554.77,-110 544.77,-106.5 544.77,-113.5"/>
</g>
<!-- 2057960886128 -->
<g id="node6" class="node">
<title>2057960886128</title>
<polygon fill="none" stroke="black" points="746,-155 660,-155 660,-119 746,-119 746,-155"/>
<text text-anchor="middle" x="703" y="-133.9" font-family="Times New Roman,serif" font-size="12.00">Generate ticket</text>
</g>
<!-- 2057960886896&#45;&gt;2057960886128 -->
<g id="edge6" class="edge">
<title>2057960886896&#45;&gt;2057960886128</title>
<path fill="none" stroke="black" d="M602.65,-114.46C615.44,-117.36 632.78,-121.3 649.4,-125.06"/>
<polygon fill="black" stroke="black" points="649.07,-128.58 659.6,-127.38 650.62,-121.75 649.07,-128.58"/>
</g>
<!-- 2057960892800 -->
<g id="node7" class="node">
<title>2057960892800</title>
<polygon fill="none" stroke="black" points="761,-101 645,-101 645,-65 761,-65 761,-101"/>
<text text-anchor="middle" x="703" y="-79.9" font-family="Times New Roman,serif" font-size="12.00">Update seat inventory</text>
</g>
<!-- 2057960886896&#45;&gt;2057960892800 -->
<g id="edge5" class="edge">
<title>2057960886896&#45;&gt;2057960892800</title>
<path fill="none" stroke="black" d="M602.65,-105.54C611.73,-103.48 623.09,-100.9 634.87,-98.23"/>
<polygon fill="black" stroke="black" points="635.83,-101.6 644.81,-95.98 634.28,-94.78 635.83,-101.6"/>
</g>
<!-- 2057960893904 -->
<g id="node8" class="node">
<title>2057960893904</title>
<polygon fill="none" stroke="black" points="824,-128 797,-110 824,-92 851,-110 824,-128"/>
<text text-anchor="middle" x="824" y="-106.9" font-family="Times New Roman,serif" font-size="12.00">+</text>
</g>
<!-- 2057960886128&#45;&gt;2057960893904 -->
<g id="edge7" class="edge">
<title>2057960886128&#45;&gt;2057960893904</title>
<path fill="none" stroke="black" d="M746.29,-127.4C761.99,-123.84 779.43,-119.89 793.72,-116.64"/>
<polygon fill="black" stroke="black" points="794.51,-120.05 803.49,-114.43 792.96,-113.23 794.51,-120.05"/>
</g>
<!-- 2057960892800&#45;&gt;2057960893904 -->
<g id="edge8" class="edge">
<title>2057960892800&#45;&gt;2057960893904</title>
<path fill="none" stroke="black" d="M761.06,-95.95C772.27,-98.49 783.6,-101.06 793.45,-103.3"/>
<polygon fill="black" stroke="black" points="792.96,-106.77 803.48,-105.57 794.51,-99.95 792.96,-106.77"/>
</g>
<!-- 2057961252528 -->
<g id="node9" class="node">
<title>2057961252528</title>
<polygon fill="none" stroke="black" points="995,-128 887,-128 887,-92 995,-92 995,-128"/>
<text text-anchor="middle" x="941" y="-106.9" font-family="Times New Roman,serif" font-size="12.00">Select date and time</text>
</g>
<!-- 2057960893904&#45;&gt;2057961252528 -->
<g id="edge9" class="edge">
<title>2057960893904&#45;&gt;2057961252528</title>
<path fill="none" stroke="black" d="M851.1,-110C858.8,-110 867.59,-110 876.57,-110"/>
<polygon fill="black" stroke="black" points="876.75,-113.5 886.75,-110 876.75,-106.5 876.75,-113.5"/>
</g>
<!-- 2057960892224 -->
<g id="node10" class="node">
<title>2057960892224</title>
<polygon fill="none" stroke="black" points="1058,-128 1031,-110 1058,-92 1085,-110 1058,-128"/>
<text text-anchor="middle" x="1058" y="-106.9" font-family="Times New Roman,serif" font-size="12.00">+</text>
</g>
<!-- 2057961252528&#45;&gt;2057960892224 -->
<g id="edge10" class="edge">
<title>2057961252528&#45;&gt;2057960892224</title>
<path fill="none" stroke="black" d="M995.12,-110C1003.72,-110 1012.44,-110 1020.52,-110"/>
<polygon fill="black" stroke="black" points="1020.71,-113.5 1030.71,-110 1020.71,-106.5 1020.71,-113.5"/>
</g>
<!-- 2057960890688 -->
<g id="node11" class="node">
<title>2057960890688</title>
<polygon fill="none" stroke="black" points="1183.5,-82 1156.5,-64 1183.5,-46 1210.5,-64 1183.5,-82"/>
<text text-anchor="middle" x="1183.5" y="-60.9" font-family="Times New Roman,serif" font-size="12.00">X</text>
</g>
<!-- 2057960892224&#45;&gt;2057960890688 -->
<g id="edge11" class="edge">
<title>2057960892224&#45;&gt;2057960890688</title>
<path fill="none" stroke="black" d="M1075.91,-103.7C1096.61,-95.99 1131.88,-82.86 1156.14,-73.82"/>
<polygon fill="black" stroke="black" points="1157.64,-76.99 1165.79,-70.22 1155.2,-70.43 1157.64,-76.99"/>
</g>
<!-- 2057960897120 -->
<g id="node12" class="node">
<title>2057960897120</title>
<polygon fill="none" stroke="black" points="1246,-174 1121,-174 1121,-138 1246,-138 1246,-174"/>
<text text-anchor="middle" x="1183.5" y="-152.9" font-family="Times New Roman,serif" font-size="12.00">Provide payment details</text>
</g>
<!-- 2057960892224&#45;&gt;2057960897120 -->
<g id="edge13" class="edge">
<title>2057960892224&#45;&gt;2057960897120</title>
<path fill="none" stroke="black" d="M1075.91,-116.3C1088.57,-121.01 1106.67,-127.75 1124.37,-134.35"/>
<polygon fill="black" stroke="black" points="1123.54,-137.77 1134.13,-137.98 1125.98,-131.21 1123.54,-137.77"/>
</g>
<!-- 2057960889248 -->
<g id="node13" class="node">
<title>2057960889248</title>
<polygon fill="none" stroke="black" points="1445,-128 1282,-128 1282,-92 1445,-92 1445,-128"/>
<text text-anchor="middle" x="1363.5" y="-106.9" font-family="Times New Roman,serif" font-size="12.00">Post&#45;travel feedback or services</text>
</g>
<!-- 2057960892224&#45;&gt;2057960889248 -->
<g id="edge12" class="edge">
<title>2057960892224&#45;&gt;2057960889248</title>
<path fill="none" stroke="black" d="M1085.14,-110C1126.15,-110 1207.55,-110 1271.61,-110"/>
<polygon fill="black" stroke="black" points="1271.73,-113.5 1281.73,-110 1271.73,-106.5 1271.73,-113.5"/>
</g>
<!-- 2057960889968 -->
<g id="node14" class="node">
<title>2057960889968</title>
<polygon fill="none" stroke="black" points="1508,-68 1481,-50 1508,-32 1535,-50 1508,-68"/>
<text text-anchor="middle" x="1508" y="-46.9" font-family="Times New Roman,serif" font-size="12.00">X</text>
</g>
<!-- 2057960890688&#45;&gt;2057960889968 -->
<g id="edge15" class="edge">
<title>2057960890688&#45;&gt;2057960889968</title>
<path fill="none" stroke="black" d="M1209,-62.94C1265.81,-60.47 1406.66,-54.36 1472.3,-51.51"/>
<polygon fill="black" stroke="black" points="1472.69,-54.99 1482.53,-51.06 1472.39,-48 1472.69,-54.99"/>
</g>
<!-- 2057960886608 -->
<g id="node16" class="node">
<title>2057960886608</title>
<polygon fill="none" stroke="black" points="1399,-36 1328,-36 1328,0 1399,0 1399,-36"/>
<text text-anchor="middle" x="1363.5" y="-14.9" font-family="Times New Roman,serif" font-size="12.00">Select route</text>
</g>
<!-- 2057960890688&#45;&gt;2057960886608 -->
<g id="edge14" class="edge">
<title>2057960890688&#45;&gt;2057960886608</title>
<path fill="none" stroke="black" d="M1203.55,-59.08C1230.6,-52.09 1280.95,-39.08 1317.75,-29.56"/>
<polygon fill="black" stroke="black" points="1318.94,-32.87 1327.74,-26.98 1317.19,-26.1 1318.94,-32.87"/>
</g>
<!-- 2057960884784 -->
<g id="node15" class="node">
<title>2057960884784</title>
<polygon fill="none" stroke="black" points="1598,-176 1571,-158 1598,-140 1625,-158 1598,-176"/>
<text text-anchor="middle" x="1598" y="-154.9" font-family="Times New Roman,serif" font-size="12.00">+</text>
</g>
<!-- 2057960897120&#45;&gt;2057960884784 -->
<g id="edge16" class="edge">
<title>2057960897120&#45;&gt;2057960884784</title>
<path fill="none" stroke="black" d="M1246.26,-156.3C1333.48,-156.72 1489.98,-157.48 1560.63,-157.82"/>
<polygon fill="black" stroke="black" points="1560.8,-161.32 1570.81,-157.87 1560.83,-154.32 1560.8,-161.32"/>
</g>
<!-- 2057960891840 -->
<g id="node17" class="node">
<title>2057960891840</title>
<polygon fill="none" stroke="black" points="1598,-122 1571,-104 1598,-86 1625,-104 1598,-122"/>
<text text-anchor="middle" x="1598" y="-100.9" font-family="Times New Roman,serif" font-size="12.00">+</text>
</g>
<!-- 2057960889248&#45;&gt;2057960891840 -->
<g id="edge17" class="edge">
<title>2057960889248&#45;&gt;2057960891840</title>
<path fill="none" stroke="black" d="M1445.16,-107.92C1484.94,-106.89 1530.86,-105.71 1561.7,-104.91"/>
<polygon fill="black" stroke="black" points="1562.03,-108.4 1571.94,-104.65 1561.85,-101.41 1562.03,-108.4"/>
</g>
<!-- 2057961253632 -->
<g id="node20" class="node">
<title>2057961253632</title>
<polygon fill="none" stroke="black" points="1598,-68 1571,-50 1598,-32 1625,-50 1598,-68"/>
<text text-anchor="middle" x="1598" y="-46.9" font-family="Times New Roman,serif" font-size="12.00">+</text>
</g>
<!-- 2057960889968&#45;&gt;2057961253632 -->
<g id="edge19" class="edge">
<title>2057960889968&#45;&gt;2057961253632</title>
<path fill="none" stroke="black" d="M1535.4,-50C1543.39,-50 1552.31,-50 1560.82,-50"/>
<polygon fill="black" stroke="black" points="1560.92,-53.5 1570.92,-50 1560.92,-46.5 1560.92,-53.5"/>
</g>
<!-- 2057960897072 -->
<g id="node18" class="node">
<title>2057960897072</title>
<polygon fill="none" stroke="black" points="1688,-203 1661,-185 1688,-167 1715,-185 1688,-203"/>
<text text-anchor="middle" x="1688" y="-181.9" font-family="Times New Roman,serif" font-size="12.00">+</text>
</g>
<!-- 2057960884784&#45;&gt;2057960897072 -->
<g id="edge21" class="edge">
<title>2057960884784&#45;&gt;2057960897072</title>
<path fill="none" stroke="black" d="M1616.81,-163.46C1629.01,-167.21 1645.45,-172.25 1659.34,-176.51"/>
<polygon fill="black" stroke="black" points="1658.33,-179.86 1668.92,-179.45 1660.38,-173.17 1658.33,-179.86"/>
</g>
<!-- 2057960886176 -->
<g id="node19" class="node">
<title>2057960886176</title>
<polygon fill="none" stroke="black" points="1688,-149 1661,-131 1688,-113 1715,-131 1688,-149"/>
<text text-anchor="middle" x="1688" y="-127.9" font-family="Times New Roman,serif" font-size="12.00">+</text>
</g>
<!-- 2057960884784&#45;&gt;2057960886176 -->
<g id="edge22" class="edge">
<title>2057960884784&#45;&gt;2057960886176</title>
<path fill="none" stroke="black" d="M1616.81,-152.54C1629.01,-148.79 1645.45,-143.75 1659.34,-139.49"/>
<polygon fill="black" stroke="black" points="1660.38,-142.83 1668.92,-136.55 1658.33,-136.14 1660.38,-142.83"/>
</g>
<!-- 2057961254448 -->
<g id="node21" class="node">
<title>2057961254448</title>
<polygon fill="none" stroke="black" points="1688,-95 1661,-77 1688,-59 1715,-77 1688,-95"/>
<text text-anchor="middle" x="1688" y="-73.9" font-family="Times New Roman,serif" font-size="12.00">+</text>
</g>
<!-- 2057960884784&#45;&gt;2057961254448 -->
<g id="edge23" class="edge">
<title>2057960884784&#45;&gt;2057961254448</title>
<path fill="none" stroke="black" d="M1610.15,-147.74C1624.82,-134.23 1650.84,-110.29 1668.49,-94.04"/>
<polygon fill="black" stroke="black" points="1670.96,-96.52 1675.95,-87.18 1666.22,-91.37 1670.96,-96.52"/>
</g>
<!-- 2057961248448 -->
<g id="node22" class="node">
<title>2057961248448</title>
<polygon fill="none" stroke="black" points="1688,-41 1661,-23 1688,-5 1715,-23 1688,-41"/>
<text text-anchor="middle" x="1688" y="-19.9" font-family="Times New Roman,serif" font-size="12.00">+</text>
</g>
<!-- 2057960884784&#45;&gt;2057961248448 -->
<g id="edge20" class="edge">
<title>2057960884784&#45;&gt;2057961248448</title>
<path fill="none" stroke="black" d="M1610.3,-147.97C1615.25,-143.18 1620.86,-137.15 1625,-131 1647,-98.32 1639,-82.68 1661,-50 1663.2,-46.73 1665.81,-43.5 1668.52,-40.46"/>
<polygon fill="black" stroke="black" points="1671.28,-42.65 1675.7,-33.03 1666.24,-37.79 1671.28,-42.65"/>
</g>
<!-- 2057960886608&#45;&gt;2057960889968 -->
<g id="edge18" class="edge">
<title>2057960886608&#45;&gt;2057960889968</title>
<path fill="none" stroke="black" d="M1399.36,-25.83C1423.37,-31.22 1454.91,-38.3 1477.64,-43.41"/>
<polygon fill="black" stroke="black" points="1476.88,-46.82 1487.4,-45.6 1478.41,-39.99 1476.88,-46.82"/>
</g>
<!-- 2057960891840&#45;&gt;2057960897072 -->
<g id="edge26" class="edge">
<title>2057960891840&#45;&gt;2057960897072</title>
<path fill="none" stroke="black" d="M1610.15,-114.26C1624.82,-127.77 1650.84,-151.71 1668.49,-167.96"/>
<polygon fill="black" stroke="black" points="1666.22,-170.63 1675.95,-174.82 1670.96,-165.48 1666.22,-170.63"/>
</g>
<!-- 2057960891840&#45;&gt;2057960886176 -->
<g id="edge25" class="edge">
<title>2057960891840&#45;&gt;2057960886176</title>
<path fill="none" stroke="black" d="M1616.81,-109.46C1629.01,-113.21 1645.45,-118.25 1659.34,-122.51"/>
<polygon fill="black" stroke="black" points="1658.33,-125.86 1668.92,-125.45 1660.38,-119.17 1658.33,-125.86"/>
</g>
<!-- 2057960891840&#45;&gt;2057961254448 -->
<g id="edge24" class="edge">
<title>2057960891840&#45;&gt;2057961254448</title>
<path fill="none" stroke="black" d="M1616.81,-98.54C1629.01,-94.79 1645.45,-89.75 1659.34,-85.49"/>
<polygon fill="black" stroke="black" points="1660.38,-88.83 1668.92,-82.55 1658.33,-82.14 1660.38,-88.83"/>
</g>
<!-- 2057960891840&#45;&gt;2057961248448 -->
<g id="edge27" class="edge">
<title>2057960891840&#45;&gt;2057961248448</title>
<path fill="none" stroke="black" d="M1610.15,-93.74C1624.82,-80.23 1650.84,-56.29 1668.49,-40.04"/>
<polygon fill="black" stroke="black" points="1670.96,-42.52 1675.95,-33.18 1666.22,-37.37 1670.96,-42.52"/>
</g>
<!-- 2057960894336 -->
<g id="node23" class="node">
<title>2057960894336</title>
<polygon fill="none" stroke="black" points="1861,-203 1751,-203 1751,-167 1861,-167 1861,-203"/>
<text text-anchor="middle" x="1806" y="-181.9" font-family="Times New Roman,serif" font-size="12.00">Send ticket via SMS</text>
</g>
<!-- 2057960897072&#45;&gt;2057960894336 -->
<g id="edge32" class="edge">
<title>2057960897072&#45;&gt;2057960894336</title>
<path fill="none" stroke="black" d="M1715.03,-185C1722.7,-185 1731.45,-185 1740.42,-185"/>
<polygon fill="black" stroke="black" points="1740.58,-188.5 1750.58,-185 1740.58,-181.5 1740.58,-188.5"/>
</g>
<!-- 2057960889104 -->
<g id="node24" class="node">
<title>2057960889104</title>
<polygon fill="none" stroke="black" points="1852.5,-149 1759.5,-149 1759.5,-113 1852.5,-113 1852.5,-149"/>
<text text-anchor="middle" x="1806" y="-127.9" font-family="Times New Roman,serif" font-size="12.00">Send instructions</text>
</g>
<!-- 2057960886176&#45;&gt;2057960889104 -->
<g id="edge33" class="edge">
<title>2057960886176&#45;&gt;2057960889104</title>
<path fill="none" stroke="black" d="M1715.03,-131C1725.26,-131 1737.42,-131 1749.44,-131"/>
<polygon fill="black" stroke="black" points="1749.45,-134.5 1759.45,-131 1749.45,-127.5 1749.45,-134.5"/>
</g>
<!-- 2057961253632&#45;&gt;2057960897072 -->
<g id="edge29" class="edge">
<title>2057961253632&#45;&gt;2057960897072</title>
<path fill="none" stroke="black" d="M1610.3,-60.03C1615.25,-64.82 1620.86,-70.85 1625,-77 1647,-109.68 1639,-125.32 1661,-158 1663.2,-161.27 1665.81,-164.5 1668.52,-167.54"/>
<polygon fill="black" stroke="black" points="1666.24,-170.21 1675.7,-174.97 1671.28,-165.35 1666.24,-170.21"/>
</g>
<!-- 2057961253632&#45;&gt;2057960886176 -->
<g id="edge30" class="edge">
<title>2057961253632&#45;&gt;2057960886176</title>
<path fill="none" stroke="black" d="M1610.15,-60.26C1624.82,-73.77 1650.84,-97.71 1668.49,-113.96"/>
<polygon fill="black" stroke="black" points="1666.22,-116.63 1675.95,-120.82 1670.96,-111.48 1666.22,-116.63"/>
</g>
<!-- 2057961253632&#45;&gt;2057961254448 -->
<g id="edge28" class="edge">
<title>2057961253632&#45;&gt;2057961254448</title>
<path fill="none" stroke="black" d="M1616.81,-55.46C1629.01,-59.21 1645.45,-64.25 1659.34,-68.51"/>
<polygon fill="black" stroke="black" points="1658.33,-71.86 1668.92,-71.45 1660.38,-65.17 1658.33,-71.86"/>
</g>
<!-- 2057961253632&#45;&gt;2057961248448 -->
<g id="edge31" class="edge">
<title>2057961253632&#45;&gt;2057961248448</title>
<path fill="none" stroke="black" d="M1616.81,-44.54C1629.01,-40.79 1645.45,-35.75 1659.34,-31.49"/>
<polygon fill="black" stroke="black" points="1660.38,-34.83 1668.92,-28.55 1658.33,-28.14 1660.38,-34.83"/>
</g>
<!-- 2057961255024 -->
<g id="node25" class="node">
<title>2057961255024</title>
<polygon fill="none" stroke="black" points="1861,-95 1751,-95 1751,-59 1861,-59 1861,-95"/>
<text text-anchor="middle" x="1806" y="-73.9" font-family="Times New Roman,serif" font-size="12.00">Send ticket via SMS</text>
</g>
<!-- 2057961254448&#45;&gt;2057961255024 -->
<g id="edge34" class="edge">
<title>2057961254448&#45;&gt;2057961255024</title>
<path fill="none" stroke="black" d="M1715.03,-77C1722.7,-77 1731.45,-77 1740.42,-77"/>
<polygon fill="black" stroke="black" points="1740.58,-80.5 1750.58,-77 1740.58,-73.5 1740.58,-80.5"/>
</g>
<!-- 2057961253104 -->
<g id="node26" class="node">
<title>2057961253104</title>
<polygon fill="none" stroke="black" points="1852.5,-41 1759.5,-41 1759.5,-5 1852.5,-5 1852.5,-41"/>
<text text-anchor="middle" x="1806" y="-19.9" font-family="Times New Roman,serif" font-size="12.00">Send instructions</text>
</g>
<!-- 2057961248448&#45;&gt;2057961253104 -->
<g id="edge35" class="edge">
<title>2057961248448&#45;&gt;2057961253104</title>
<path fill="none" stroke="black" d="M1715.03,-23C1725.26,-23 1737.42,-23 1749.44,-23"/>
<polygon fill="black" stroke="black" points="1749.45,-26.5 1759.45,-23 1749.45,-19.5 1749.45,-26.5"/>
</g>
<!-- 2057961256464 -->
<g id="node27" class="node">
<title>2057961256464</title>
<polygon fill="none" stroke="black" points="1924,-122 1897,-104 1924,-86 1951,-104 1924,-122"/>
<text text-anchor="middle" x="1924" y="-100.9" font-family="Times New Roman,serif" font-size="12.00">+</text>
</g>
<!-- 2057960894336&#45;&gt;2057961256464 -->
<g id="edge36" class="edge">
<title>2057960894336&#45;&gt;2057961256464</title>
<path fill="none" stroke="black" d="M1846.02,-166.98C1851.18,-164.17 1856.3,-161.15 1861,-158 1876.8,-147.42 1892.95,-133.22 1904.81,-122.04"/>
<polygon fill="black" stroke="black" points="1907.49,-124.32 1912.27,-114.86 1902.64,-119.27 1907.49,-124.32"/>
</g>
<!-- 2057960889104&#45;&gt;2057961256464 -->
<g id="edge37" class="edge">
<title>2057960889104&#45;&gt;2057961256464</title>
<path fill="none" stroke="black" d="M1852.51,-120.41C1866.4,-117.17 1881.28,-113.71 1893.78,-110.8"/>
<polygon fill="black" stroke="black" points="1894.7,-114.18 1903.65,-108.5 1893.11,-107.36 1894.7,-114.18"/>
</g>
<!-- 2057961255024&#45;&gt;2057961256464 -->
<g id="edge38" class="edge">
<title>2057961255024&#45;&gt;2057961256464</title>
<path fill="none" stroke="black" d="M1861.26,-89.63C1872.55,-92.26 1884.04,-94.93 1893.98,-97.25"/>
<polygon fill="black" stroke="black" points="1893.19,-100.66 1903.73,-99.51 1894.78,-93.84 1893.19,-100.66"/>
</g>
<!-- 2057961253104&#45;&gt;2057961256464 -->
<g id="edge39" class="edge">
<title>2057961253104&#45;&gt;2057961256464</title>
<path fill="none" stroke="black" d="M1846.02,-41.02C1851.18,-43.83 1856.3,-46.85 1861,-50 1876.8,-60.58 1892.95,-74.78 1904.81,-85.96"/>
<polygon fill="black" stroke="black" points="1902.64,-88.73 1912.27,-93.14 1907.49,-83.68 1902.64,-88.73"/>
</g>
<!-- 2057961248784 -->
<g id="node28" class="node">
<title>2057961248784</title>
<polygon fill="none" stroke="black" points="2133,-122 1987,-122 1987,-86 2133,-86 2133,-122"/>
<text text-anchor="middle" x="2060" y="-100.9" font-family="Times New Roman,serif" font-size="12.00">Provide personal information</text>
</g>
<!-- 2057961256464&#45;&gt;2057961248784 -->
<g id="edge40" class="edge">
<title>2057961256464&#45;&gt;2057961248784</title>
<path fill="none" stroke="black" d="M1951.15,-104C1958.82,-104 1967.63,-104 1976.85,-104"/>
<polygon fill="black" stroke="black" points="1976.98,-107.5 1986.98,-104 1976.98,-100.5 1976.98,-107.5"/>
</g>
<!-- 2057960883248 -->
<g id="node29" class="node">
<title>2057960883248</title>
<polygon fill="none" stroke="black" points="2196,-122 2169,-104 2196,-86 2223,-104 2196,-122"/>
<text text-anchor="middle" x="2196" y="-100.9" font-family="Times New Roman,serif" font-size="12.00">X</text>
</g>
<!-- 2057961248784&#45;&gt;2057960883248 -->
<g id="edge41" class="edge">
<title>2057961248784&#45;&gt;2057960883248</title>
<path fill="none" stroke="black" d="M2133.1,-104C2141.97,-104 2150.73,-104 2158.73,-104"/>
<polygon fill="black" stroke="black" points="2158.77,-107.5 2168.77,-104 2158.77,-100.5 2158.77,-107.5"/>
</g>
<!-- 2057960882288 -->
<g id="node30" class="node">
<title>2057960882288</title>
<polygon fill="none" stroke="black" points="2432,-122 2405,-104 2432,-86 2459,-104 2432,-122"/>
<text text-anchor="middle" x="2432" y="-100.9" font-family="Times New Roman,serif" font-size="12.00">X</text>
</g>
<!-- 2057960883248&#45;&gt;2057960882288 -->
<g id="edge42" class="edge">
<title>2057960883248&#45;&gt;2057960882288</title>
<path fill="none" stroke="black" d="M2220.24,-105.86C2231.87,-106.69 2246.17,-107.59 2259,-108 2307.86,-109.57 2320.14,-109.57 2369,-108 2378.32,-107.7 2388.42,-107.15 2397.7,-106.54"/>
<polygon fill="black" stroke="black" points="2398.02,-110.03 2407.76,-105.86 2397.54,-103.05 2398.02,-110.03"/>
</g>
<!-- 2057961253872 -->
<g id="node31" class="node">
<title>2057961253872</title>
<polygon fill="none" stroke="black" points="2369,-99 2259,-99 2259,-63 2369,-63 2369,-99"/>
<text text-anchor="middle" x="2314" y="-77.9" font-family="Times New Roman,serif" font-size="12.00">Send ticket via email</text>
</g>
<!-- 2057960883248&#45;&gt;2057961253872 -->
<g id="edge43" class="edge">
<title>2057960883248&#45;&gt;2057961253872</title>
<path fill="none" stroke="black" d="M2217.21,-99.99C2226.14,-98.22 2237.2,-96.03 2248.59,-93.77"/>
<polygon fill="black" stroke="black" points="2249.51,-97.16 2258.64,-91.78 2248.15,-90.29 2249.51,-97.16"/>
</g>
<!-- 2058996189744 -->
<g id="node32" class="node">
<title>2058996189744</title>
<ellipse fill="orange" stroke="black" cx="2513" cy="-104" rx="18" ry="18"/>
</g>
<!-- 2057960882288&#45;&gt;2058996189744 -->
<g id="edge45" class="edge">
<title>2057960882288&#45;&gt;2058996189744</title>
<path fill="none" stroke="black" d="M2459.31,-104C2467.42,-104 2476.37,-104 2484.56,-104"/>
<polygon fill="black" stroke="black" points="2484.75,-107.5 2494.75,-104 2484.75,-100.5 2484.75,-107.5"/>
</g>
<!-- 2057961253872&#45;&gt;2057960882288 -->
<g id="edge44" class="edge">
<title>2057961253872&#45;&gt;2057960882288</title>
<path fill="none" stroke="black" d="M2369.26,-91.76C2380.18,-93.92 2391.27,-96.12 2400.98,-98.05"/>
<polygon fill="black" stroke="black" points="2400.41,-101.5 2410.9,-100.02 2401.78,-94.64 2400.41,-101.5"/>
</g>
</g>
</svg>
