<?xml version="1.0" encoding="UTF-8" standalone="no"?>
<!DOCTYPE svg PUBLIC "-//W3C//DTD SVG 1.1//EN"
 "http://www.w3.org/Graphics/SVG/1.1/DTD/svg11.dtd">
<!-- Generated by graphviz version 6.0.1 (20220911.1526)
 -->
<!-- Pages: 1 -->
<svg width="2156pt" height="152pt"
 viewBox="0.00 0.00 2156.00 152.00" xmlns="http://www.w3.org/2000/svg" xmlns:xlink="http://www.w3.org/1999/xlink">
<g id="graph0" class="graph" transform="scale(1 1) rotate(0) translate(4 148)">
<polygon fill="white" stroke="none" points="-4,4 -4,-148 2152,-148 2152,4 -4,4"/>
<!-- 2057961401904 -->
<g id="node1" class="node">
<title>2057961401904</title>
<ellipse fill="green" stroke="black" cx="18" cy="-72" rx="18" ry="18"/>
</g>
<!-- 2057960891360 -->
<g id="node2" class="node">
<title>2057960891360</title>
<polygon fill="none" stroke="black" points="218,-90 72,-90 72,-54 218,-54 218,-90"/>
<text text-anchor="middle" x="145" y="-68.9" font-family="Times New Roman,serif" font-size="12.00">Customer completes journey</text>
</g>
<!-- 2057961401904&#45;&gt;2057960891360 -->
<g id="edge1" class="edge">
<title>2057961401904&#45;&gt;2057960891360</title>
<path fill="none" stroke="black" d="M36.12,-72C43.26,-72 52.13,-72 61.68,-72"/>
<polygon fill="black" stroke="black" points="61.84,-75.5 71.84,-72 61.84,-68.5 61.84,-75.5"/>
</g>
<!-- 2057960897360 -->
<g id="node3" class="node">
<title>2057960897360</title>
<polygon fill="none" stroke="black" points="281,-90 254,-72 281,-54 308,-72 281,-90"/>
<text text-anchor="middle" x="281" y="-68.9" font-family="Times New Roman,serif" font-size="12.00">+</text>
</g>
<!-- 2057960891360&#45;&gt;2057960897360 -->
<g id="edge2" class="edge">
<title>2057960891360&#45;&gt;2057960897360</title>
<path fill="none" stroke="black" d="M218.1,-72C226.97,-72 235.73,-72 243.73,-72"/>
<polygon fill="black" stroke="black" points="243.77,-75.5 253.77,-72 243.77,-68.5 243.77,-75.5"/>
</g>
<!-- 2057960883152 -->
<g id="node4" class="node">
<title>2057960883152</title>
<polygon fill="none" stroke="black" points="458.5,-144 375.5,-144 375.5,-108 458.5,-108 458.5,-144"/>
<text text-anchor="middle" x="417" y="-122.9" font-family="Times New Roman,serif" font-size="12.00">Send reminder</text>
</g>
<!-- 2057960897360&#45;&gt;2057960883152 -->
<g id="edge4" class="edge">
<title>2057960897360&#45;&gt;2057960883152</title>
<path fill="none" stroke="black" d="M297.7,-79.11C310.18,-84.69 328.11,-92.57 344,-99 350.98,-101.82 358.37,-104.71 365.66,-107.5"/>
<polygon fill="black" stroke="black" points="364.9,-110.96 375.49,-111.23 367.38,-104.41 364.9,-110.96"/>
</g>
<!-- 2057960894480 -->
<g id="node5" class="node">
<title>2057960894480</title>
<polygon fill="none" stroke="black" points="490,-90 344,-90 344,-54 490,-54 490,-90"/>
<text text-anchor="middle" x="417" y="-68.9" font-family="Times New Roman,serif" font-size="12.00">Customer searches for ticket</text>
</g>
<!-- 2057960897360&#45;&gt;2057960894480 -->
<g id="edge3" class="edge">
<title>2057960897360&#45;&gt;2057960894480</title>
<path fill="none" stroke="black" d="M308.15,-72C315.82,-72 324.63,-72 333.85,-72"/>
<polygon fill="black" stroke="black" points="333.98,-75.5 343.98,-72 333.98,-68.5 333.98,-75.5"/>
</g>
<!-- 2057960882432 -->
<g id="node6" class="node">
<title>2057960882432</title>
<polygon fill="none" stroke="black" points="475,-36 359,-36 359,0 475,0 475,-36"/>
<text text-anchor="middle" x="417" y="-14.9" font-family="Times New Roman,serif" font-size="12.00">Update seat inventory</text>
</g>
<!-- 2057960897360&#45;&gt;2057960882432 -->
<g id="edge5" class="edge">
<title>2057960897360&#45;&gt;2057960882432</title>
<path fill="none" stroke="black" d="M297.7,-64.89C310.18,-59.31 328.11,-51.43 344,-45 348.22,-43.29 352.59,-41.56 357.01,-39.84"/>
<polygon fill="black" stroke="black" points="358.61,-42.97 366.68,-36.11 356.09,-36.44 358.61,-42.97"/>
</g>
<!-- 2057960893616 -->
<g id="node7" class="node">
<title>2057960893616</title>
<polygon fill="none" stroke="black" points="553,-90 526,-72 553,-54 580,-72 553,-90"/>
<text text-anchor="middle" x="553" y="-68.9" font-family="Times New Roman,serif" font-size="12.00">+</text>
</g>
<!-- 2057960883152&#45;&gt;2057960893616 -->
<g id="edge6" class="edge">
<title>2057960883152&#45;&gt;2057960893616</title>
<path fill="none" stroke="black" d="M458.51,-111.23C468.82,-107.36 479.85,-103.11 490,-99 502.29,-94.02 515.8,-88.18 527.06,-83.21"/>
<polygon fill="black" stroke="black" points="528.58,-86.37 536.3,-79.11 525.74,-79.97 528.58,-86.37"/>
</g>
<!-- 2057960894480&#45;&gt;2057960893616 -->
<g id="edge7" class="edge">
<title>2057960894480&#45;&gt;2057960893616</title>
<path fill="none" stroke="black" d="M490.1,-72C498.97,-72 507.73,-72 515.73,-72"/>
<polygon fill="black" stroke="black" points="515.77,-75.5 525.77,-72 515.77,-68.5 515.77,-75.5"/>
</g>
<!-- 2057960882432&#45;&gt;2057960893616 -->
<g id="edge8" class="edge">
<title>2057960882432&#45;&gt;2057960893616</title>
<path fill="none" stroke="black" d="M467.32,-36.11C474.94,-39.02 482.7,-42.04 490,-45 502.29,-49.98 515.8,-55.82 527.06,-60.79"/>
<polygon fill="black" stroke="black" points="525.74,-64.03 536.3,-64.89 528.58,-57.63 525.74,-64.03"/>
</g>
<!-- 2057960894912 -->
<g id="node8" class="node">
<title>2057960894912</title>
<polygon fill="none" stroke="black" points="741,-90 616,-90 616,-54 741,-54 741,-90"/>
<text text-anchor="middle" x="678.5" y="-68.9" font-family="Times New Roman,serif" font-size="12.00">Provide payment details</text>
</g>
<!-- 2057960893616&#45;&gt;2057960894912 -->
<g id="edge9" class="edge">
<title>2057960893616&#45;&gt;2057960894912</title>
<path fill="none" stroke="black" d="M580.19,-72C587.8,-72 596.51,-72 605.52,-72"/>
<polygon fill="black" stroke="black" points="605.77,-75.5 615.77,-72 605.77,-68.5 605.77,-75.5"/>
</g>
<!-- 2057960894288 -->
<g id="node9" class="node">
<title>2057960894288</title>
<polygon fill="none" stroke="black" points="863,-90 777,-90 777,-54 863,-54 863,-90"/>
<text text-anchor="middle" x="820" y="-68.9" font-family="Times New Roman,serif" font-size="12.00">Generate ticket</text>
</g>
<!-- 2057960894912&#45;&gt;2057960894288 -->
<g id="edge10" class="edge">
<title>2057960894912&#45;&gt;2057960894288</title>
<path fill="none" stroke="black" d="M741.09,-72C749.71,-72 758.49,-72 766.9,-72"/>
<polygon fill="black" stroke="black" points="766.95,-75.5 776.95,-72 766.95,-68.5 766.95,-75.5"/>
</g>
<!-- 2057960884016 -->
<g id="node10" class="node">
<title>2057960884016</title>
<polygon fill="none" stroke="black" points="926,-90 899,-72 926,-54 953,-72 926,-90"/>
<text text-anchor="middle" x="926" y="-68.9" font-family="Times New Roman,serif" font-size="12.00">+</text>
</g>
<!-- 2057960894288&#45;&gt;2057960884016 -->
<g id="edge11" class="edge">
<title>2057960894288&#45;&gt;2057960884016</title>
<path fill="none" stroke="black" d="M863,-72C871.48,-72 880.34,-72 888.61,-72"/>
<polygon fill="black" stroke="black" points="888.7,-75.5 898.7,-72 888.7,-68.5 888.7,-75.5"/>
</g>
<!-- 2057960887280 -->
<g id="node11" class="node">
<title>2057960887280</title>
<polygon fill="none" stroke="black" points="1152,-144 989,-144 989,-108 1152,-108 1152,-144"/>
<text text-anchor="middle" x="1070.5" y="-122.9" font-family="Times New Roman,serif" font-size="12.00">Post&#45;travel feedback or services</text>
</g>
<!-- 2057960884016&#45;&gt;2057960887280 -->
<g id="edge12" class="edge">
<title>2057960884016&#45;&gt;2057960887280</title>
<path fill="none" stroke="black" d="M942.39,-79.15C954.84,-84.82 972.89,-92.8 989,-99 993.78,-100.84 998.74,-102.67 1003.75,-104.48"/>
<polygon fill="black" stroke="black" points="1002.82,-107.86 1013.41,-107.89 1005.15,-101.26 1002.82,-107.86"/>
</g>
<!-- 2057960884448 -->
<g id="node12" class="node">
<title>2057960884448</title>
<polygon fill="none" stroke="black" points="1124.5,-90 1016.5,-90 1016.5,-54 1124.5,-54 1124.5,-90"/>
<text text-anchor="middle" x="1070.5" y="-68.9" font-family="Times New Roman,serif" font-size="12.00">Select date and time</text>
</g>
<!-- 2057960884016&#45;&gt;2057960884448 -->
<g id="edge13" class="edge">
<title>2057960884016&#45;&gt;2057960884448</title>
<path fill="none" stroke="black" d="M953.14,-72C968.12,-72 987.63,-72 1006.37,-72"/>
<polygon fill="black" stroke="black" points="1006.37,-75.5 1016.37,-72 1006.37,-68.5 1006.37,-75.5"/>
</g>
<!-- 2057960884496 -->
<g id="node13" class="node">
<title>2057960884496</title>
<polygon fill="none" stroke="black" points="1106,-36 1035,-36 1035,0 1106,0 1106,-36"/>
<text text-anchor="middle" x="1070.5" y="-14.9" font-family="Times New Roman,serif" font-size="12.00">Select route</text>
</g>
<!-- 2057960884016&#45;&gt;2057960884496 -->
<g id="edge14" class="edge">
<title>2057960884016&#45;&gt;2057960884496</title>
<path fill="none" stroke="black" d="M942.39,-64.85C954.84,-59.18 972.89,-51.2 989,-45 1000.61,-40.54 1013.31,-36.08 1025.12,-32.11"/>
<polygon fill="black" stroke="black" points="1026.4,-35.38 1034.79,-28.91 1024.2,-28.73 1026.4,-35.38"/>
</g>
<!-- 2057960891504 -->
<g id="node14" class="node">
<title>2057960891504</title>
<polygon fill="none" stroke="black" points="1215,-144 1188,-126 1215,-108 1242,-126 1215,-144"/>
<text text-anchor="middle" x="1215" y="-122.9" font-family="Times New Roman,serif" font-size="12.00">+</text>
</g>
<!-- 2057960887280&#45;&gt;2057960891504 -->
<g id="edge15" class="edge">
<title>2057960887280&#45;&gt;2057960891504</title>
<path fill="none" stroke="black" d="M1152.33,-126C1161.14,-126 1169.75,-126 1177.61,-126"/>
<polygon fill="black" stroke="black" points="1177.81,-129.5 1187.81,-126 1177.81,-122.5 1177.81,-129.5"/>
</g>
<!-- 2057960884544 -->
<g id="node15" class="node">
<title>2057960884544</title>
<polygon fill="none" stroke="black" points="1215,-90 1188,-72 1215,-54 1242,-72 1215,-90"/>
<text text-anchor="middle" x="1215" y="-68.9" font-family="Times New Roman,serif" font-size="12.00">+</text>
</g>
<!-- 2057960884448&#45;&gt;2057960884544 -->
<g id="edge16" class="edge">
<title>2057960884448&#45;&gt;2057960884544</title>
<path fill="none" stroke="black" d="M1124.56,-72C1142.22,-72 1161.47,-72 1177.58,-72"/>
<polygon fill="black" stroke="black" points="1177.66,-75.5 1187.66,-72 1177.66,-68.5 1177.66,-75.5"/>
</g>
<!-- 2057960897408 -->
<g id="node16" class="node">
<title>2057960897408</title>
<polygon fill="none" stroke="black" points="1215,-36 1188,-18 1215,0 1242,-18 1215,-36"/>
<text text-anchor="middle" x="1215" y="-14.9" font-family="Times New Roman,serif" font-size="12.00">+</text>
</g>
<!-- 2057960884496&#45;&gt;2057960897408 -->
<g id="edge17" class="edge">
<title>2057960884496&#45;&gt;2057960897408</title>
<path fill="none" stroke="black" d="M1106.36,-18C1128.03,-18 1155.83,-18 1177.75,-18"/>
<polygon fill="black" stroke="black" points="1177.99,-21.5 1187.99,-18 1177.99,-14.5 1177.99,-21.5"/>
</g>
<!-- 2057960893184 -->
<g id="node17" class="node">
<title>2057960893184</title>
<polygon fill="none" stroke="black" points="1305,-117 1278,-99 1305,-81 1332,-99 1305,-117"/>
<text text-anchor="middle" x="1305" y="-95.9" font-family="Times New Roman,serif" font-size="12.00">+</text>
</g>
<!-- 2057960891504&#45;&gt;2057960893184 -->
<g id="edge18" class="edge">
<title>2057960891504&#45;&gt;2057960893184</title>
<path fill="none" stroke="black" d="M1233.81,-120.54C1246.01,-116.79 1262.45,-111.75 1276.34,-107.49"/>
<polygon fill="black" stroke="black" points="1277.38,-110.83 1285.92,-104.55 1275.33,-104.14 1277.38,-110.83"/>
</g>
<!-- 2057960889632 -->
<g id="node18" class="node">
<title>2057960889632</title>
<polygon fill="none" stroke="black" points="1305,-63 1278,-45 1305,-27 1332,-45 1305,-63"/>
<text text-anchor="middle" x="1305" y="-41.9" font-family="Times New Roman,serif" font-size="12.00">+</text>
</g>
<!-- 2057960891504&#45;&gt;2057960889632 -->
<g id="edge19" class="edge">
<title>2057960891504&#45;&gt;2057960889632</title>
<path fill="none" stroke="black" d="M1227.15,-115.74C1241.82,-102.23 1267.84,-78.29 1285.49,-62.04"/>
<polygon fill="black" stroke="black" points="1287.96,-64.52 1292.95,-55.18 1283.22,-59.37 1287.96,-64.52"/>
</g>
<!-- 2057960884544&#45;&gt;2057960893184 -->
<g id="edge20" class="edge">
<title>2057960884544&#45;&gt;2057960893184</title>
<path fill="none" stroke="black" d="M1233.81,-77.46C1246.01,-81.21 1262.45,-86.25 1276.34,-90.51"/>
<polygon fill="black" stroke="black" points="1275.33,-93.86 1285.92,-93.45 1277.38,-87.17 1275.33,-93.86"/>
</g>
<!-- 2057960884544&#45;&gt;2057960889632 -->
<g id="edge21" class="edge">
<title>2057960884544&#45;&gt;2057960889632</title>
<path fill="none" stroke="black" d="M1233.81,-66.54C1246.01,-62.79 1262.45,-57.75 1276.34,-53.49"/>
<polygon fill="black" stroke="black" points="1277.38,-56.83 1285.92,-50.55 1275.33,-50.14 1277.38,-56.83"/>
</g>
<!-- 2057960897408&#45;&gt;2057960893184 -->
<g id="edge22" class="edge">
<title>2057960897408&#45;&gt;2057960893184</title>
<path fill="none" stroke="black" d="M1227.15,-28.26C1241.82,-41.77 1267.84,-65.71 1285.49,-81.96"/>
<polygon fill="black" stroke="black" points="1283.22,-84.63 1292.95,-88.82 1287.96,-79.48 1283.22,-84.63"/>
</g>
<!-- 2057960897408&#45;&gt;2057960889632 -->
<g id="edge23" class="edge">
<title>2057960897408&#45;&gt;2057960889632</title>
<path fill="none" stroke="black" d="M1233.81,-23.46C1246.01,-27.21 1262.45,-32.25 1276.34,-36.51"/>
<polygon fill="black" stroke="black" points="1275.33,-39.86 1285.92,-39.45 1277.38,-33.17 1275.33,-39.86"/>
</g>
<!-- 2057960892272 -->
<g id="node19" class="node">
<title>2057960892272</title>
<polygon fill="none" stroke="black" points="1469.5,-117 1376.5,-117 1376.5,-81 1469.5,-81 1469.5,-117"/>
<text text-anchor="middle" x="1423" y="-95.9" font-family="Times New Roman,serif" font-size="12.00">Send instructions</text>
</g>
<!-- 2057960893184&#45;&gt;2057960892272 -->
<g id="edge24" class="edge">
<title>2057960893184&#45;&gt;2057960892272</title>
<path fill="none" stroke="black" d="M1332.03,-99C1342.26,-99 1354.42,-99 1366.44,-99"/>
<polygon fill="black" stroke="black" points="1366.45,-102.5 1376.45,-99 1366.45,-95.5 1366.45,-102.5"/>
</g>
<!-- 2057960882960 -->
<g id="node20" class="node">
<title>2057960882960</title>
<polygon fill="none" stroke="black" points="1478,-63 1368,-63 1368,-27 1478,-27 1478,-63"/>
<text text-anchor="middle" x="1423" y="-41.9" font-family="Times New Roman,serif" font-size="12.00">Send ticket via SMS</text>
</g>
<!-- 2057960889632&#45;&gt;2057960882960 -->
<g id="edge25" class="edge">
<title>2057960889632&#45;&gt;2057960882960</title>
<path fill="none" stroke="black" d="M1332.03,-45C1339.7,-45 1348.45,-45 1357.42,-45"/>
<polygon fill="black" stroke="black" points="1357.58,-48.5 1367.58,-45 1357.58,-41.5 1357.58,-48.5"/>
</g>
<!-- 2057960898224 -->
<g id="node21" class="node">
<title>2057960898224</title>
<polygon fill="none" stroke="black" points="1541,-90 1514,-72 1541,-54 1568,-72 1541,-90"/>
<text text-anchor="middle" x="1541" y="-68.9" font-family="Times New Roman,serif" font-size="12.00">+</text>
</g>
<!-- 2057960892272&#45;&gt;2057960898224 -->
<g id="edge26" class="edge">
<title>2057960892272&#45;&gt;2057960898224</title>
<path fill="none" stroke="black" d="M1469.51,-88.41C1483.4,-85.17 1498.28,-81.71 1510.78,-78.8"/>
<polygon fill="black" stroke="black" points="1511.7,-82.18 1520.65,-76.5 1510.11,-75.36 1511.7,-82.18"/>
</g>
<!-- 2057960882960&#45;&gt;2057960898224 -->
<g id="edge27" class="edge">
<title>2057960882960&#45;&gt;2057960898224</title>
<path fill="none" stroke="black" d="M1478.26,-57.63C1489.55,-60.26 1501.04,-62.93 1510.98,-65.25"/>
<polygon fill="black" stroke="black" points="1510.19,-68.66 1520.73,-67.51 1511.78,-61.84 1510.19,-68.66"/>
</g>
<!-- 2057960882528 -->
<g id="node22" class="node">
<title>2057960882528</title>
<polygon fill="none" stroke="black" points="1750,-90 1604,-90 1604,-54 1750,-54 1750,-90"/>
<text text-anchor="middle" x="1677" y="-68.9" font-family="Times New Roman,serif" font-size="12.00">Provide personal information</text>
</g>
<!-- 2057960898224&#45;&gt;2057960882528 -->
<g id="edge28" class="edge">
<title>2057960898224&#45;&gt;2057960882528</title>
<path fill="none" stroke="black" d="M1568.15,-72C1575.82,-72 1584.63,-72 1593.85,-72"/>
<polygon fill="black" stroke="black" points="1593.98,-75.5 1603.98,-72 1593.98,-68.5 1593.98,-75.5"/>
</g>
<!-- 2057960885072 -->
<g id="node23" class="node">
<title>2057960885072</title>
<polygon fill="none" stroke="black" points="1813,-90 1786,-72 1813,-54 1840,-72 1813,-90"/>
<text text-anchor="middle" x="1813" y="-68.9" font-family="Times New Roman,serif" font-size="12.00">X</text>
</g>
<!-- 2057960882528&#45;&gt;2057960885072 -->
<g id="edge29" class="edge">
<title>2057960882528&#45;&gt;2057960885072</title>
<path fill="none" stroke="black" d="M1750.1,-72C1758.97,-72 1767.73,-72 1775.73,-72"/>
<polygon fill="black" stroke="black" points="1775.77,-75.5 1785.77,-72 1775.77,-68.5 1775.77,-75.5"/>
</g>
<!-- 2057960889584 -->
<g id="node24" class="node">
<title>2057960889584</title>
<polygon fill="none" stroke="black" points="2049,-90 2022,-72 2049,-54 2076,-72 2049,-90"/>
<text text-anchor="middle" x="2049" y="-68.9" font-family="Times New Roman,serif" font-size="12.00">X</text>
</g>
<!-- 2057960885072&#45;&gt;2057960889584 -->
<g id="edge31" class="edge">
<title>2057960885072&#45;&gt;2057960889584</title>
<path fill="none" stroke="black" d="M1837.24,-73.86C1848.87,-74.69 1863.17,-75.59 1876,-76 1924.86,-77.57 1937.14,-77.57 1986,-76 1995.32,-75.7 2005.42,-75.15 2014.7,-74.54"/>
<polygon fill="black" stroke="black" points="2015.02,-78.03 2024.76,-73.86 2014.54,-71.05 2015.02,-78.03"/>
</g>
<!-- 2057960895536 -->
<g id="node25" class="node">
<title>2057960895536</title>
<polygon fill="none" stroke="black" points="1986,-67 1876,-67 1876,-31 1986,-31 1986,-67"/>
<text text-anchor="middle" x="1931" y="-45.9" font-family="Times New Roman,serif" font-size="12.00">Send ticket via email</text>
</g>
<!-- 2057960885072&#45;&gt;2057960895536 -->
<g id="edge30" class="edge">
<title>2057960885072&#45;&gt;2057960895536</title>
<path fill="none" stroke="black" d="M1834.21,-67.99C1843.14,-66.22 1854.2,-64.03 1865.59,-61.77"/>
<polygon fill="black" stroke="black" points="1866.51,-65.16 1875.64,-59.78 1865.15,-58.29 1866.51,-65.16"/>
</g>
<!-- 2057961403872 -->
<g id="node26" class="node">
<title>2057961403872</title>
<ellipse fill="orange" stroke="black" cx="2130" cy="-72" rx="18" ry="18"/>
</g>
<!-- 2057960889584&#45;&gt;2057961403872 -->
<g id="edge33" class="edge">
<title>2057960889584&#45;&gt;2057961403872</title>
<path fill="none" stroke="black" d="M2076.31,-72C2084.42,-72 2093.37,-72 2101.56,-72"/>
<polygon fill="black" stroke="black" points="2101.75,-75.5 2111.75,-72 2101.75,-68.5 2101.75,-75.5"/>
</g>
<!-- 2057960895536&#45;&gt;2057960889584 -->
<g id="edge32" class="edge">
<title>2057960895536&#45;&gt;2057960889584</title>
<path fill="none" stroke="black" d="M1986.26,-59.76C1997.18,-61.92 2008.27,-64.12 2017.98,-66.05"/>
<polygon fill="black" stroke="black" points="2017.41,-69.5 2027.9,-68.02 2018.78,-62.64 2017.41,-69.5"/>
</g>
</g>
</svg>
