<?xml version="1.0" encoding="UTF-8" standalone="no"?>
<!DOCTYPE svg PUBLIC "-//W3C//DTD SVG 1.1//EN"
 "http://www.w3.org/Graphics/SVG/1.1/DTD/svg11.dtd">
<!-- Generated by graphviz version 11.0.0 (20240428.1522)
 -->
<!-- Pages: 1 -->
<svg width="2649pt" height="544pt"
 viewBox="0.00 0.00 2648.75 544.00" xmlns="http://www.w3.org/2000/svg" xmlns:xlink="http://www.w3.org/1999/xlink">
<g id="graph0" class="graph" transform="scale(1 1) rotate(0) translate(4 540)">
<polygon fill="white" stroke="none" points="-4,4 -4,-540 2644.75,-540 2644.75,4 -4,4"/>
<!-- 2547420113008 -->
<g id="node1" class="node">
<title>2547420113008</title>
<ellipse fill="green" stroke="black" cx="18" cy="-229" rx="18" ry="18"/>
</g>
<!-- 2547401059664 -->
<g id="node2" class="node">
<title>2547401059664</title>
<polygon fill="none" stroke="black" points="99,-247 72,-229 99,-211 126,-229 99,-247"/>
<text text-anchor="middle" x="99" y="-223.97" font-family="Times New Roman,serif" font-size="12.00">+</text>
</g>
<!-- 2547420113008&#45;&gt;2547401059664 -->
<g id="edge1" class="edge">
<title>2547420113008&#45;&gt;2547401059664</title>
<path fill="none" stroke="black" d="M36.14,-229C43.11,-229 51.47,-229 59.75,-229"/>
<polygon fill="black" stroke="black" points="59.75,-232.5 69.75,-229 59.75,-225.5 59.75,-232.5"/>
</g>
<!-- 2547403434384 -->
<g id="node3" class="node">
<title>2547403434384</title>
<polygon fill="none" stroke="black" points="218.75,-378 191.75,-360 218.75,-342 245.75,-360 218.75,-378"/>
<text text-anchor="middle" x="218.75" y="-354.98" font-family="Times New Roman,serif" font-size="12.00">X</text>
</g>
<!-- 2547401059664&#45;&gt;2547403434384 -->
<g id="edge2" class="edge">
<title>2547401059664&#45;&gt;2547403434384</title>
<path fill="none" stroke="black" d="M110.04,-240.17C130.03,-262.4 175.02,-312.46 200.07,-340.33"/>
<polygon fill="black" stroke="black" points="197.44,-342.64 206.72,-347.73 202.64,-337.96 197.44,-342.64"/>
</g>
<!-- 2547401056448 -->
<g id="node4" class="node">
<title>2547401056448</title>
<polygon fill="none" stroke="black" points="275.5,-247 162,-247 162,-211 275.5,-211 275.5,-247"/>
<text text-anchor="middle" x="218.75" y="-223.97" font-family="Times New Roman,serif" font-size="12.00">Compile audit report</text>
</g>
<!-- 2547401059664&#45;&gt;2547401056448 -->
<g id="edge3" class="edge">
<title>2547401059664&#45;&gt;2547401056448</title>
<path fill="none" stroke="black" d="M126.72,-229C133.9,-229 142.01,-229 150.35,-229"/>
<polygon fill="black" stroke="black" points="150.28,-232.5 160.28,-229 150.28,-225.5 150.28,-232.5"/>
</g>
<!-- 2547401061776 -->
<g id="node5" class="node">
<title>2547401061776</title>
<polygon fill="none" stroke="black" points="266.88,-173 170.62,-173 170.62,-137 266.88,-137 266.88,-173"/>
<text text-anchor="middle" x="218.75" y="-149.97" font-family="Times New Roman,serif" font-size="12.00">Send notification</text>
</g>
<!-- 2547401059664&#45;&gt;2547401061776 -->
<g id="edge4" class="edge">
<title>2547401059664&#45;&gt;2547401061776</title>
<path fill="none" stroke="black" d="M113.51,-220.51C129.4,-210.52 156.48,-193.51 179.06,-179.32"/>
<polygon fill="black" stroke="black" points="180.85,-182.33 187.45,-174.04 177.12,-176.4 180.85,-182.33"/>
</g>
<!-- 2547401060960 -->
<g id="node7" class="node">
<title>2547401060960</title>
<polygon fill="none" stroke="black" points="507.5,-459 311.5,-459 311.5,-423 507.5,-423 507.5,-459"/>
<text text-anchor="middle" x="409.5" y="-435.98" font-family="Times New Roman,serif" font-size="12.00">Request clarifications of discrepancies</text>
</g>
<!-- 2547403434384&#45;&gt;2547401060960 -->
<g id="edge6" class="edge">
<title>2547403434384&#45;&gt;2547401060960</title>
<path fill="none" stroke="black" d="M235.84,-366.91C261.95,-378.11 314.67,-400.73 355.02,-418.05"/>
<polygon fill="black" stroke="black" points="353.56,-421.23 364.13,-421.96 356.32,-414.8 353.56,-421.23"/>
</g>
<!-- 2547403427472 -->
<g id="node9" class="node">
<title>2547403427472</title>
<polygon fill="none" stroke="black" points="409.5,-378 382.5,-360 409.5,-342 436.5,-360 409.5,-378"/>
<text text-anchor="middle" x="409.5" y="-354.98" font-family="Times New Roman,serif" font-size="12.00">+</text>
</g>
<!-- 2547403434384&#45;&gt;2547403427472 -->
<g id="edge5" class="edge">
<title>2547403434384&#45;&gt;2547403427472</title>
<path fill="none" stroke="black" d="M246.39,-360C278.76,-360 333.6,-360 370.42,-360"/>
<polygon fill="black" stroke="black" points="370.17,-363.5 380.17,-360 370.17,-356.5 370.17,-363.5"/>
</g>
<!-- 2547403173248 -->
<g id="node6" class="node">
<title>2547403173248</title>
<polygon fill="none" stroke="black" points="409.5,-247 382.5,-229 409.5,-211 436.5,-229 409.5,-247"/>
<text text-anchor="middle" x="409.5" y="-223.97" font-family="Times New Roman,serif" font-size="12.00">X</text>
</g>
<!-- 2547401056448&#45;&gt;2547403173248 -->
<g id="edge7" class="edge">
<title>2547401056448&#45;&gt;2547403173248</title>
<path fill="none" stroke="black" d="M275.87,-229C306.35,-229 343.24,-229 370.37,-229"/>
<polygon fill="black" stroke="black" points="370.2,-232.5 380.2,-229 370.2,-225.5 370.2,-232.5"/>
</g>
<!-- 2547401055296 -->
<g id="node8" class="node">
<title>2547401055296</title>
<polygon fill="none" stroke="black" points="625.38,-112 598.38,-94 625.38,-76 652.38,-94 625.38,-112"/>
<text text-anchor="middle" x="625.38" y="-88.97" font-family="Times New Roman,serif" font-size="12.00">+</text>
</g>
<!-- 2547401061776&#45;&gt;2547401055296 -->
<g id="edge8" class="edge">
<title>2547401061776&#45;&gt;2547401055296</title>
<path fill="none" stroke="black" d="M267.36,-147.82C350.49,-135.29 520.09,-109.72 591.51,-98.95"/>
<polygon fill="black" stroke="black" points="592.02,-102.42 601.39,-97.47 590.98,-95.5 592.02,-102.42"/>
</g>
<!-- 2547401060816 -->
<g id="node12" class="node">
<title>2547401060816</title>
<polygon fill="none" stroke="black" points="707.25,-270 543.5,-270 543.5,-234 707.25,-234 707.25,-270"/>
<text text-anchor="middle" x="625.38" y="-246.97" font-family="Times New Roman,serif" font-size="12.00">Review report by audit director</text>
</g>
<!-- 2547403173248&#45;&gt;2547401060816 -->
<g id="edge9" class="edge">
<title>2547403173248&#45;&gt;2547401060816</title>
<path fill="none" stroke="black" d="M433.39,-231.46C457.12,-234.01 495.77,-238.17 532.11,-242.08"/>
<polygon fill="black" stroke="black" points="531.48,-245.53 541.79,-243.12 532.23,-238.57 531.48,-245.53"/>
</g>
<!-- 2547403435680 -->
<g id="node16" class="node">
<title>2547403435680</title>
<polygon fill="none" stroke="black" points="684,-486 566.75,-486 566.75,-450 684,-450 684,-486"/>
<text text-anchor="middle" x="625.38" y="-462.98" font-family="Times New Roman,serif" font-size="12.00">Receive clarifications</text>
</g>
<!-- 2547401060960&#45;&gt;2547403435680 -->
<g id="edge10" class="edge">
<title>2547401060960&#45;&gt;2547403435680</title>
<path fill="none" stroke="black" d="M507.74,-453.28C523.74,-455.3 540.04,-457.35 555.18,-459.26"/>
<polygon fill="black" stroke="black" points="554.64,-462.72 565,-460.5 555.52,-455.78 554.64,-462.72"/>
</g>
<!-- 2547403177760 -->
<g id="node10" class="node">
<title>2547403177760</title>
<polygon fill="none" stroke="black" points="892.38,-139 745.12,-139 745.12,-103 892.38,-103 892.38,-139"/>
<text text-anchor="middle" x="818.75" y="-115.97" font-family="Times New Roman,serif" font-size="12.00">Prepare financial statements</text>
</g>
<!-- 2547401055296&#45;&gt;2547403177760 -->
<g id="edge13" class="edge">
<title>2547401055296&#45;&gt;2547403177760</title>
<path fill="none" stroke="black" d="M648.33,-97.1C669.23,-100.05 702.03,-104.67 733.23,-109.08"/>
<polygon fill="black" stroke="black" points="732.74,-112.54 743.13,-110.47 733.72,-105.61 732.74,-112.54"/>
</g>
<!-- 2547403434960 -->
<g id="node15" class="node">
<title>2547403434960</title>
<polygon fill="none" stroke="black" points="894.25,-85 743.25,-85 743.25,-49 894.25,-49 894.25,-85"/>
<text text-anchor="middle" x="818.75" y="-61.98" font-family="Times New Roman,serif" font-size="12.00">Gather necessary documents</text>
</g>
<!-- 2547401055296&#45;&gt;2547403434960 -->
<g id="edge12" class="edge">
<title>2547401055296&#45;&gt;2547403434960</title>
<path fill="none" stroke="black" d="M648.33,-90.9C668.88,-88 700.94,-83.48 731.66,-79.15"/>
<polygon fill="black" stroke="black" points="731.99,-82.63 741.4,-77.77 731.01,-75.7 731.99,-82.63"/>
</g>
<!-- 2547403438368 -->
<g id="node17" class="node">
<title>2547403438368</title>
<polygon fill="none" stroke="black" points="2329.25,-43 2192.5,-43 2192.5,-7 2329.25,-7 2329.25,-43"/>
<text text-anchor="middle" x="2260.88" y="-19.98" font-family="Times New Roman,serif" font-size="12.00">Check regulatory updates</text>
</g>
<!-- 2547401055296&#45;&gt;2547403438368 -->
<g id="edge11" class="edge">
<title>2547401055296&#45;&gt;2547403438368</title>
<path fill="none" stroke="black" d="M640.62,-85.83C662.14,-73.86 704.53,-51.73 743.25,-40 853.26,-6.69 883.81,0 998.75,0 998.75,0 998.75,0 1955.5,0 2032.24,0 2119.51,-7.99 2180.86,-14.94"/>
<polygon fill="black" stroke="black" points="2180.17,-18.38 2190.5,-16.05 2180.97,-11.43 2180.17,-18.38"/>
</g>
<!-- 2547401054144 -->
<g id="node11" class="node">
<title>2547401054144</title>
<polygon fill="none" stroke="black" points="694.88,-432 555.88,-432 555.88,-396 694.88,-396 694.88,-432"/>
<text text-anchor="middle" x="625.38" y="-408.98" font-family="Times New Roman,serif" font-size="12.00">Evaluate compliance risks</text>
</g>
<!-- 2547403427472&#45;&gt;2547401054144 -->
<g id="edge14" class="edge">
<title>2547403427472&#45;&gt;2547401054144</title>
<path fill="none" stroke="black" d="M429.86,-364.89C455.72,-371.42 503.12,-383.38 544.65,-393.87"/>
<polygon fill="black" stroke="black" points="543.6,-397.22 554.15,-396.27 545.31,-390.43 543.6,-397.22"/>
</g>
<!-- 2547403427136 -->
<g id="node13" class="node">
<title>2547403427136</title>
<polygon fill="none" stroke="black" points="688.12,-378 562.62,-378 562.62,-342 688.12,-342 688.12,-378"/>
<text text-anchor="middle" x="625.38" y="-354.98" font-family="Times New Roman,serif" font-size="12.00">Evaluate financial risks</text>
</g>
<!-- 2547403427472&#45;&gt;2547403427136 -->
<g id="edge16" class="edge">
<title>2547403427472&#45;&gt;2547403427136</title>
<path fill="none" stroke="black" d="M437.15,-360C465.49,-360 511.54,-360 550.88,-360"/>
<polygon fill="black" stroke="black" points="550.8,-363.5 560.8,-360 550.8,-356.5 550.8,-363.5"/>
</g>
<!-- 2547403434624 -->
<g id="node14" class="node">
<title>2547403434624</title>
<polygon fill="none" stroke="black" points="694.12,-324 556.62,-324 556.62,-288 694.12,-288 694.12,-324"/>
<text text-anchor="middle" x="625.38" y="-300.98" font-family="Times New Roman,serif" font-size="12.00">Evaluate operational risks</text>
</g>
<!-- 2547403427472&#45;&gt;2547403434624 -->
<g id="edge15" class="edge">
<title>2547403427472&#45;&gt;2547403434624</title>
<path fill="none" stroke="black" d="M429.86,-355.11C455.91,-348.53 503.81,-336.44 545.56,-325.9"/>
<polygon fill="black" stroke="black" points="546.27,-329.33 555.11,-323.49 544.56,-322.54 546.27,-329.33"/>
</g>
<!-- 2547401062016 -->
<g id="node19" class="node">
<title>2547401062016</title>
<polygon fill="none" stroke="black" points="999.75,-126 972.75,-108 999.75,-90 1026.75,-108 999.75,-126"/>
<text text-anchor="middle" x="999.75" y="-102.97" font-family="Times New Roman,serif" font-size="12.00">+</text>
</g>
<!-- 2547403177760&#45;&gt;2547401062016 -->
<g id="edge17" class="edge">
<title>2547403177760&#45;&gt;2547401062016</title>
<path fill="none" stroke="black" d="M892.81,-115.69C917.11,-113.93 943.07,-112.04 963.21,-110.58"/>
<polygon fill="black" stroke="black" points="963.41,-114.08 973.13,-109.86 962.9,-107.09 963.41,-114.08"/>
</g>
<!-- 2547401056928 -->
<g id="node21" class="node">
<title>2547401056928</title>
<polygon fill="none" stroke="black" points="818.75,-380 791.75,-362 818.75,-344 845.75,-362 818.75,-380"/>
<text text-anchor="middle" x="818.75" y="-356.98" font-family="Times New Roman,serif" font-size="12.00">+</text>
</g>
<!-- 2547401054144&#45;&gt;2547401056928 -->
<g id="edge18" class="edge">
<title>2547401054144&#45;&gt;2547401056928</title>
<path fill="none" stroke="black" d="M694.39,-395.52C726.48,-386.8 763.11,-376.85 788.06,-370.07"/>
<polygon fill="black" stroke="black" points="788.78,-373.5 797.52,-367.5 786.95,-366.74 788.78,-373.5"/>
</g>
<!-- 2547403172960 -->
<g id="node18" class="node">
<title>2547403172960</title>
<polygon fill="none" stroke="black" points="818.75,-270 791.75,-252 818.75,-234 845.75,-252 818.75,-270"/>
<text text-anchor="middle" x="818.75" y="-246.97" font-family="Times New Roman,serif" font-size="12.00">X</text>
</g>
<!-- 2547401060816&#45;&gt;2547403172960 -->
<g id="edge19" class="edge">
<title>2547401060816&#45;&gt;2547403172960</title>
<path fill="none" stroke="black" d="M707.54,-252C732.57,-252 758.97,-252 779.65,-252"/>
<polygon fill="black" stroke="black" points="779.6,-255.5 789.6,-252 779.6,-248.5 779.6,-255.5"/>
</g>
<!-- 2547403427136&#45;&gt;2547401056928 -->
<g id="edge20" class="edge">
<title>2547403427136&#45;&gt;2547401056928</title>
<path fill="none" stroke="black" d="M688.51,-360.65C718.7,-360.96 754,-361.33 780.07,-361.61"/>
<polygon fill="black" stroke="black" points="779.79,-365.1 789.83,-361.71 779.87,-358.1 779.79,-365.1"/>
</g>
<!-- 2547403434624&#45;&gt;2547401056928 -->
<g id="edge21" class="edge">
<title>2547403434624&#45;&gt;2547401056928</title>
<path fill="none" stroke="black" d="M689.57,-324.49C722.95,-334.26 762.32,-345.78 788.54,-353.45"/>
<polygon fill="black" stroke="black" points="787.21,-356.71 797.8,-356.16 789.18,-349.99 787.21,-356.71"/>
</g>
<!-- 2547403434960&#45;&gt;2547401062016 -->
<g id="edge22" class="edge">
<title>2547403434960&#45;&gt;2547401062016</title>
<path fill="none" stroke="black" d="M894.62,-84.15C920.25,-90.02 947.52,-96.27 967.73,-100.89"/>
<polygon fill="black" stroke="black" points="966.73,-104.26 977.26,-103.08 968.3,-97.43 966.73,-104.26"/>
</g>
<!-- 2547403434720 -->
<g id="node22" class="node">
<title>2547403434720</title>
<polygon fill="none" stroke="black" points="818.75,-484 791.75,-466 818.75,-448 845.75,-466 818.75,-484"/>
<text text-anchor="middle" x="818.75" y="-460.98" font-family="Times New Roman,serif" font-size="12.00">+</text>
</g>
<!-- 2547403435680&#45;&gt;2547403434720 -->
<g id="edge23" class="edge">
<title>2547403435680&#45;&gt;2547403434720</title>
<path fill="none" stroke="black" d="M684.31,-467.39C715.36,-467.07 752.73,-466.68 780.01,-466.39"/>
<polygon fill="black" stroke="black" points="779.93,-469.9 789.89,-466.29 779.86,-462.9 779.93,-469.9"/>
</g>
<!-- 2547401057072 -->
<g id="node20" class="node">
<title>2547401057072</title>
<polygon fill="none" stroke="black" points="2541.75,-245 2514.75,-227 2541.75,-209 2568.75,-227 2541.75,-245"/>
<text text-anchor="middle" x="2541.75" y="-221.97" font-family="Times New Roman,serif" font-size="12.00">+</text>
</g>
<!-- 2547403438368&#45;&gt;2547401057072 -->
<g id="edge24" class="edge">
<title>2547403438368&#45;&gt;2547401057072</title>
<path fill="none" stroke="black" d="M2291.05,-43.35C2333.42,-70.34 2413.99,-122.98 2478.75,-173 2493.51,-184.4 2509.36,-198.24 2521.34,-209.05"/>
<polygon fill="black" stroke="black" points="2518.79,-211.46 2528.54,-215.62 2523.51,-206.29 2518.79,-211.46"/>
</g>
<!-- 2547401058032 -->
<g id="node27" class="node">
<title>2547401058032</title>
<polygon fill="none" stroke="black" points="1063.62,-320 935.88,-320 935.88,-284 1063.62,-284 1063.62,-320"/>
<text text-anchor="middle" x="999.75" y="-296.98" font-family="Times New Roman,serif" font-size="12.00">Send report for revision</text>
</g>
<!-- 2547403172960&#45;&gt;2547401058032 -->
<g id="edge25" class="edge">
<title>2547403172960&#45;&gt;2547401058032</title>
<path fill="none" stroke="black" d="M838.57,-257.26C859.04,-262.98 893.07,-272.48 924.51,-281.26"/>
<polygon fill="black" stroke="black" points="923.46,-284.6 934.03,-283.92 925.34,-277.86 923.46,-284.6"/>
</g>
<!-- 2547403438032 -->
<g id="node29" class="node">
<title>2547403438032</title>
<polygon fill="none" stroke="black" points="1222.12,-270 1133.38,-270 1133.38,-234 1222.12,-234 1222.12,-270"/>
<text text-anchor="middle" x="1177.75" y="-246.97" font-family="Times New Roman,serif" font-size="12.00">Approve report</text>
</g>
<!-- 2547403172960&#45;&gt;2547403438032 -->
<g id="edge26" class="edge">
<title>2547403172960&#45;&gt;2547403438032</title>
<path fill="none" stroke="black" d="M846.58,-252C904.81,-252 1043.75,-252 1121.56,-252"/>
<polygon fill="black" stroke="black" points="1121.53,-255.5 1131.53,-252 1121.53,-248.5 1121.53,-255.5"/>
</g>
<!-- 2547401061008 -->
<g id="node25" class="node">
<title>2547401061008</title>
<polygon fill="none" stroke="black" points="1229.62,-126 1125.88,-126 1125.88,-90 1229.62,-90 1229.62,-126"/>
<text text-anchor="middle" x="1177.75" y="-102.97" font-family="Times New Roman,serif" font-size="12.00">Submit documents</text>
</g>
<!-- 2547401062016&#45;&gt;2547401061008 -->
<g id="edge27" class="edge">
<title>2547401062016&#45;&gt;2547401061008</title>
<path fill="none" stroke="black" d="M1027.48,-108C1050.5,-108 1084.63,-108 1114.45,-108"/>
<polygon fill="black" stroke="black" points="1114.12,-111.5 1124.12,-108 1114.12,-104.5 1114.12,-111.5"/>
</g>
<!-- 2547420113104 -->
<g id="node59" class="node">
<title>2547420113104</title>
<ellipse fill="orange" stroke="black" cx="2622.75" cy="-227" rx="18" ry="18"/>
</g>
<!-- 2547401057072&#45;&gt;2547420113104 -->
<g id="edge32" class="edge">
<title>2547401057072&#45;&gt;2547420113104</title>
<path fill="none" stroke="black" d="M2569.5,-227C2577.13,-227 2585.48,-227 2593.22,-227"/>
<polygon fill="black" stroke="black" points="2593.18,-230.5 2603.18,-227 2593.18,-223.5 2593.18,-230.5"/>
</g>
<!-- 2547403173440 -->
<g id="node23" class="node">
<title>2547403173440</title>
<polygon fill="none" stroke="black" points="1340.38,-427 1313.38,-409 1340.38,-391 1367.38,-409 1340.38,-427"/>
<text text-anchor="middle" x="1340.38" y="-403.98" font-family="Times New Roman,serif" font-size="12.00">X</text>
</g>
<!-- 2547401056928&#45;&gt;2547403173440 -->
<g id="edge28" class="edge">
<title>2547401056928&#45;&gt;2547403173440</title>
<path fill="none" stroke="black" d="M845.2,-361.17C912.11,-359.43 1098.23,-357.48 1250.25,-383 1271.24,-386.52 1294.3,-393.33 1311.7,-399.1"/>
<polygon fill="black" stroke="black" points="1310.21,-402.29 1320.8,-402.2 1312.47,-395.66 1310.21,-402.29"/>
</g>
<!-- 2547401050688 -->
<g id="node24" class="node">
<title>2547401050688</title>
<polygon fill="none" stroke="black" points="1068.5,-536 931,-536 931,-500 1068.5,-500 1068.5,-536"/>
<text text-anchor="middle" x="999.75" y="-512.98" font-family="Times New Roman,serif" font-size="12.00">Evaluate operational risks</text>
</g>
<!-- 2547403434720&#45;&gt;2547401050688 -->
<g id="edge30" class="edge">
<title>2547403434720&#45;&gt;2547401050688</title>
<path fill="none" stroke="black" d="M838.23,-471.37C858.61,-477.29 892.69,-487.19 924.22,-496.35"/>
<polygon fill="black" stroke="black" points="923.2,-499.7 933.78,-499.13 925.16,-492.98 923.2,-499.7"/>
</g>
<!-- 2547401062640 -->
<g id="node26" class="node">
<title>2547401062640</title>
<polygon fill="none" stroke="black" points="1069.25,-482 930.25,-482 930.25,-446 1069.25,-446 1069.25,-482"/>
<text text-anchor="middle" x="999.75" y="-458.98" font-family="Times New Roman,serif" font-size="12.00">Evaluate compliance risks</text>
</g>
<!-- 2547403434720&#45;&gt;2547401062640 -->
<g id="edge31" class="edge">
<title>2547403434720&#45;&gt;2547401062640</title>
<path fill="none" stroke="black" d="M846.16,-465.7C865.39,-465.49 892.53,-465.19 918.59,-464.9"/>
<polygon fill="black" stroke="black" points="918.59,-468.4 928.55,-464.78 918.52,-461.4 918.59,-468.4"/>
</g>
<!-- 2547403437360 -->
<g id="node28" class="node">
<title>2547403437360</title>
<polygon fill="none" stroke="black" points="1062.5,-428 937,-428 937,-392 1062.5,-392 1062.5,-428"/>
<text text-anchor="middle" x="999.75" y="-404.98" font-family="Times New Roman,serif" font-size="12.00">Evaluate financial risks</text>
</g>
<!-- 2547403434720&#45;&gt;2547403437360 -->
<g id="edge29" class="edge">
<title>2547403434720&#45;&gt;2547403437360</title>
<path fill="none" stroke="black" d="M837.9,-460.32C859.31,-453.62 896.19,-442.09 929.24,-431.75"/>
<polygon fill="black" stroke="black" points="929.86,-435.22 938.36,-428.89 927.77,-428.54 929.86,-435.22"/>
</g>
<!-- 2547403173776 -->
<g id="node30" class="node">
<title>2547403173776</title>
<polygon fill="none" stroke="black" points="1457.5,-427 1430.5,-409 1457.5,-391 1484.5,-409 1457.5,-427"/>
<text text-anchor="middle" x="1457.5" y="-403.98" font-family="Times New Roman,serif" font-size="12.00">X</text>
</g>
<!-- 2547403173440&#45;&gt;2547403173776 -->
<g id="edge33" class="edge">
<title>2547403173440&#45;&gt;2547403173776</title>
<path fill="none" stroke="black" d="M1368.08,-409C1383.04,-409 1401.96,-409 1418.45,-409"/>
<polygon fill="black" stroke="black" points="1418.43,-412.5 1428.43,-409 1418.43,-405.5 1418.43,-412.5"/>
</g>
<!-- 2547401062928 -->
<g id="node32" class="node">
<title>2547401062928</title>
<polygon fill="none" stroke="black" points="1177.75,-428 1150.75,-410 1177.75,-392 1204.75,-410 1177.75,-428"/>
<text text-anchor="middle" x="1177.75" y="-404.98" font-family="Times New Roman,serif" font-size="12.00">+</text>
</g>
<!-- 2547401050688&#45;&gt;2547401062928 -->
<g id="edge34" class="edge">
<title>2547401050688&#45;&gt;2547401062928</title>
<path fill="none" stroke="black" d="M1051.96,-499.59C1057.9,-496.94 1063.79,-494.06 1069.25,-491 1102.13,-472.58 1136.26,-445.22 1157,-427.49"/>
<polygon fill="black" stroke="black" points="1159.13,-430.28 1164.39,-421.08 1154.55,-424.99 1159.13,-430.28"/>
</g>
<!-- 2547403435344 -->
<g id="node34" class="node">
<title>2547403435344</title>
<polygon fill="none" stroke="black" points="1394.5,-126 1286.25,-126 1286.25,-90 1394.5,-90 1394.5,-126"/>
<text text-anchor="middle" x="1340.38" y="-102.97" font-family="Times New Roman,serif" font-size="12.00">Review submission</text>
</g>
<!-- 2547401061008&#45;&gt;2547403435344 -->
<g id="edge35" class="edge">
<title>2547401061008&#45;&gt;2547403435344</title>
<path fill="none" stroke="black" d="M1230.01,-108C1244.21,-108 1259.8,-108 1274.65,-108"/>
<polygon fill="black" stroke="black" points="1274.32,-111.5 1284.32,-108 1274.32,-104.5 1274.32,-111.5"/>
</g>
<!-- 2547401062640&#45;&gt;2547401062928 -->
<g id="edge36" class="edge">
<title>2547401062640&#45;&gt;2547401062928</title>
<path fill="none" stroke="black" d="M1060.83,-445.57C1090.13,-436.58 1124.05,-426.17 1147.59,-418.95"/>
<polygon fill="black" stroke="black" points="1148.58,-422.3 1157.12,-416.02 1146.53,-415.61 1148.58,-422.3"/>
</g>
<!-- 2547401063696 -->
<g id="node33" class="node">
<title>2547401063696</title>
<polygon fill="none" stroke="black" points="1250.25,-324 1105.25,-324 1105.25,-288 1250.25,-288 1250.25,-324"/>
<text text-anchor="middle" x="1177.75" y="-300.98" font-family="Times New Roman,serif" font-size="12.00">Update and resubmit report</text>
</g>
<!-- 2547401058032&#45;&gt;2547401063696 -->
<g id="edge37" class="edge">
<title>2547401058032&#45;&gt;2547401063696</title>
<path fill="none" stroke="black" d="M1063.79,-303.43C1073.47,-303.65 1083.58,-303.88 1093.61,-304.11"/>
<polygon fill="black" stroke="black" points="1093.28,-307.6 1103.36,-304.33 1093.44,-300.61 1093.28,-307.6"/>
</g>
<!-- 2547403437360&#45;&gt;2547401062928 -->
<g id="edge38" class="edge">
<title>2547403437360&#45;&gt;2547401062928</title>
<path fill="none" stroke="black" d="M1062.8,-410C1088.14,-410 1116.62,-410 1138.78,-410"/>
<polygon fill="black" stroke="black" points="1138.54,-413.5 1148.54,-410 1138.54,-406.5 1138.54,-413.5"/>
</g>
<!-- 2547403174016 -->
<g id="node31" class="node">
<title>2547403174016</title>
<polygon fill="none" stroke="black" points="1340.38,-270 1313.38,-252 1340.38,-234 1367.38,-252 1340.38,-270"/>
<text text-anchor="middle" x="1340.38" y="-246.97" font-family="Times New Roman,serif" font-size="12.00">X</text>
</g>
<!-- 2547403438032&#45;&gt;2547403174016 -->
<g id="edge39" class="edge">
<title>2547403438032&#45;&gt;2547403174016</title>
<path fill="none" stroke="black" d="M1222.22,-252C1246.86,-252 1277.4,-252 1301.13,-252"/>
<polygon fill="black" stroke="black" points="1300.99,-255.5 1310.99,-252 1300.99,-248.5 1300.99,-255.5"/>
</g>
<!-- 2547403174880 -->
<g id="node37" class="node">
<title>2547403174880</title>
<polygon fill="none" stroke="black" points="2087,-372 2060,-354 2087,-336 2114,-354 2087,-372"/>
<text text-anchor="middle" x="2087" y="-348.98" font-family="Times New Roman,serif" font-size="12.00">X</text>
</g>
<!-- 2547403173776&#45;&gt;2547403174880 -->
<g id="edge43" class="edge">
<title>2547403173776&#45;&gt;2547403174880</title>
<path fill="none" stroke="black" d="M1474.13,-416.5C1486.42,-421.98 1504.13,-428.95 1520.5,-432 1682.61,-462.18 1729.8,-467.32 1891.5,-435 1956.19,-422.07 2026.26,-387.16 2062.03,-367.65"/>
<polygon fill="black" stroke="black" points="2063.61,-370.78 2070.66,-362.87 2060.22,-364.66 2063.61,-370.78"/>
</g>
<!-- 2547401049200 -->
<g id="node38" class="node">
<title>2547401049200</title>
<polygon fill="none" stroke="black" points="1618.5,-423 1591.5,-405 1618.5,-387 1645.5,-405 1618.5,-423"/>
<text text-anchor="middle" x="1618.5" y="-399.98" font-family="Times New Roman,serif" font-size="12.00">+</text>
</g>
<!-- 2547403173776&#45;&gt;2547401049200 -->
<g id="edge42" class="edge">
<title>2547403173776&#45;&gt;2547401049200</title>
<path fill="none" stroke="black" d="M1484.4,-408.35C1510.39,-407.69 1550.68,-406.68 1580.12,-405.94"/>
<polygon fill="black" stroke="black" points="1580.19,-409.44 1590.1,-405.69 1580.01,-402.44 1580.19,-409.44"/>
</g>
<!-- 2547403173968 -->
<g id="node36" class="node">
<title>2547403173968</title>
<polygon fill="none" stroke="black" points="1457.5,-270 1430.5,-252 1457.5,-234 1484.5,-252 1457.5,-270"/>
<text text-anchor="middle" x="1457.5" y="-246.97" font-family="Times New Roman,serif" font-size="12.00">X</text>
</g>
<!-- 2547403174016&#45;&gt;2547403173968 -->
<g id="edge44" class="edge">
<title>2547403174016&#45;&gt;2547403173968</title>
<path fill="none" stroke="black" d="M1368.08,-252C1383.04,-252 1401.96,-252 1418.45,-252"/>
<polygon fill="black" stroke="black" points="1418.43,-255.5 1428.43,-252 1418.43,-248.5 1418.43,-255.5"/>
</g>
<!-- 2547401062928&#45;&gt;2547403173440 -->
<g id="edge40" class="edge">
<title>2547401062928&#45;&gt;2547403173440</title>
<path fill="none" stroke="black" d="M1205.27,-409.83C1231.55,-409.67 1272.03,-409.42 1301.65,-409.23"/>
<polygon fill="black" stroke="black" points="1301.32,-412.74 1311.3,-409.17 1301.28,-405.74 1301.32,-412.74"/>
</g>
<!-- 2547401063696&#45;&gt;2547403174016 -->
<g id="edge41" class="edge">
<title>2547401063696&#45;&gt;2547403174016</title>
<path fill="none" stroke="black" d="M1233.58,-287.57C1259.62,-278.81 1289.64,-268.72 1311.04,-261.53"/>
<polygon fill="black" stroke="black" points="1311.87,-264.94 1320.23,-258.44 1309.64,-258.3 1311.87,-264.94"/>
</g>
<!-- 2547402838848 -->
<g id="node35" class="node">
<title>2547402838848</title>
<polygon fill="none" stroke="black" points="1457.5,-126 1430.5,-108 1457.5,-90 1484.5,-108 1457.5,-126"/>
<text text-anchor="middle" x="1457.5" y="-102.97" font-family="Times New Roman,serif" font-size="12.00">X</text>
</g>
<!-- 2547403435344&#45;&gt;2547402838848 -->
<g id="edge45" class="edge">
<title>2547403435344&#45;&gt;2547402838848</title>
<path fill="none" stroke="black" d="M1394.89,-108C1402.83,-108 1410.87,-108 1418.41,-108"/>
<polygon fill="black" stroke="black" points="1418.24,-111.5 1428.24,-108 1418.24,-104.5 1418.24,-111.5"/>
</g>
<!-- 2547401048144 -->
<g id="node41" class="node">
<title>2547401048144</title>
<polygon fill="none" stroke="black" points="1618.5,-159 1591.5,-141 1618.5,-123 1645.5,-141 1618.5,-159"/>
<text text-anchor="middle" x="1618.5" y="-135.97" font-family="Times New Roman,serif" font-size="12.00">+</text>
</g>
<!-- 2547402838848&#45;&gt;2547401048144 -->
<g id="edge47" class="edge">
<title>2547402838848&#45;&gt;2547401048144</title>
<path fill="none" stroke="black" d="M1478.96,-112.25C1506.15,-117.89 1554.45,-127.91 1586.23,-134.51"/>
<polygon fill="black" stroke="black" points="1585.13,-137.86 1595.64,-136.46 1586.56,-131 1585.13,-137.86"/>
</g>
<!-- 2547403436352 -->
<g id="node45" class="node">
<title>2547403436352</title>
<polygon fill="none" stroke="black" points="1716.5,-78 1520.5,-78 1520.5,-42 1716.5,-42 1716.5,-78"/>
<text text-anchor="middle" x="1618.5" y="-54.98" font-family="Times New Roman,serif" font-size="12.00">Request clarifications of discrepancies</text>
</g>
<!-- 2547402838848&#45;&gt;2547403436352 -->
<g id="edge48" class="edge">
<title>2547402838848&#45;&gt;2547403436352</title>
<path fill="none" stroke="black" d="M1476.74,-102.49C1493.73,-97.37 1520.18,-89.38 1545.59,-81.71"/>
<polygon fill="black" stroke="black" points="1546.38,-85.13 1554.94,-78.89 1544.36,-78.43 1546.38,-85.13"/>
</g>
<!-- 2547403173968&#45;&gt;2547401057072 -->
<g id="edge46" class="edge">
<title>2547403173968&#45;&gt;2547401057072</title>
<path fill="none" stroke="black" d="M1484.88,-252.25C1544.68,-252.78 1695.13,-254 1821,-254 1821,-254 1821,-254 2261.88,-254 2351.45,-254 2456.46,-240.03 2508.35,-232.19"/>
<polygon fill="black" stroke="black" points="2508.63,-235.68 2517.98,-230.7 2507.56,-228.77 2508.63,-235.68"/>
</g>
<!-- 2547401055152 -->
<g id="node40" class="node">
<title>2547401055152</title>
<polygon fill="none" stroke="black" points="1691,-226 1546,-226 1546,-190 1691,-190 1691,-226"/>
<text text-anchor="middle" x="1618.5" y="-202.97" font-family="Times New Roman,serif" font-size="12.00">Update and resubmit report</text>
</g>
<!-- 2547403173968&#45;&gt;2547401055152 -->
<g id="edge49" class="edge">
<title>2547403173968&#45;&gt;2547401055152</title>
<path fill="none" stroke="black" d="M1477.36,-246.78C1493.06,-242.44 1516.51,-235.95 1539.77,-229.51"/>
<polygon fill="black" stroke="black" points="1540.61,-232.91 1549.31,-226.87 1538.74,-226.16 1540.61,-232.91"/>
</g>
<!-- 2547401054528 -->
<g id="node39" class="node">
<title>2547401054528</title>
<polygon fill="none" stroke="black" points="2317.62,-358 2204.12,-358 2204.12,-322 2317.62,-322 2317.62,-358"/>
<text text-anchor="middle" x="2260.88" y="-334.98" font-family="Times New Roman,serif" font-size="12.00">Compile audit report</text>
</g>
<!-- 2547403174880&#45;&gt;2547401054528 -->
<g id="edge50" class="edge">
<title>2547403174880&#45;&gt;2547401054528</title>
<path fill="none" stroke="black" d="M2111.9,-352.05C2132.83,-350.35 2164.26,-347.79 2192.79,-345.46"/>
<polygon fill="black" stroke="black" points="2192.77,-348.98 2202.45,-344.68 2192.2,-342 2192.77,-348.98"/>
</g>
<!-- 2547401061728 -->
<g id="node42" class="node">
<title>2547401061728</title>
<polygon fill="none" stroke="black" points="1876.12,-426 1767.88,-426 1767.88,-390 1876.12,-390 1876.12,-426"/>
<text text-anchor="middle" x="1822" y="-402.98" font-family="Times New Roman,serif" font-size="12.00">Conduct interviews</text>
</g>
<!-- 2547401049200&#45;&gt;2547401061728 -->
<g id="edge53" class="edge">
<title>2547401049200&#45;&gt;2547401061728</title>
<path fill="none" stroke="black" d="M1645.43,-405.39C1673.27,-405.8 1718.57,-406.47 1756.18,-407.03"/>
<polygon fill="black" stroke="black" points="1756.01,-410.53 1766.06,-407.18 1756.12,-403.53 1756.01,-410.53"/>
</g>
<!-- 2547401052272 -->
<g id="node43" class="node">
<title>2547401052272</title>
<polygon fill="none" stroke="black" points="1881.75,-372 1762.25,-372 1762.25,-336 1881.75,-336 1881.75,-372"/>
<text text-anchor="middle" x="1822" y="-348.98" font-family="Times New Roman,serif" font-size="12.00">Conduct data analysis</text>
</g>
<!-- 2547401049200&#45;&gt;2547401052272 -->
<g id="edge51" class="edge">
<title>2547401049200&#45;&gt;2547401052272</title>
<path fill="none" stroke="black" d="M1638.82,-400.11C1664.48,-393.62 1711.19,-381.79 1750.89,-371.74"/>
<polygon fill="black" stroke="black" points="1751.57,-375.18 1760.41,-369.34 1749.86,-368.4 1751.57,-375.18"/>
</g>
<!-- 2547403436016 -->
<g id="node44" class="node">
<title>2547403436016</title>
<polygon fill="none" stroke="black" points="1872,-318 1772,-318 1772,-282 1872,-282 1872,-318"/>
<text text-anchor="middle" x="1822" y="-294.98" font-family="Times New Roman,serif" font-size="12.00">Perform site visits</text>
</g>
<!-- 2547401049200&#45;&gt;2547403436016 -->
<g id="edge52" class="edge">
<title>2547401049200&#45;&gt;2547403436016</title>
<path fill="none" stroke="black" d="M1632.71,-396.32C1656.2,-381.1 1707.01,-349.14 1752.5,-327 1755.36,-325.61 1758.3,-324.24 1761.29,-322.89"/>
<polygon fill="black" stroke="black" points="1762.42,-326.21 1770.2,-319.02 1759.63,-319.79 1762.42,-326.21"/>
</g>
<!-- 2547403437696 -->
<g id="node50" class="node">
<title>2547403437696</title>
<polygon fill="none" stroke="black" points="2478.75,-331 2365.25,-331 2365.25,-295 2478.75,-295 2478.75,-331"/>
<text text-anchor="middle" x="2422" y="-307.98" font-family="Times New Roman,serif" font-size="12.00">Compile audit report</text>
</g>
<!-- 2547401054528&#45;&gt;2547403437696 -->
<g id="edge55" class="edge">
<title>2547401054528&#45;&gt;2547403437696</title>
<path fill="none" stroke="black" d="M2317.98,-330.48C2329.5,-328.52 2341.75,-326.45 2353.63,-324.43"/>
<polygon fill="black" stroke="black" points="2354.1,-327.9 2363.38,-322.78 2352.93,-321 2354.1,-327.9"/>
</g>
<!-- 2547401055152&#45;&gt;2547403173248 -->
<g id="edge54" class="edge">
<title>2547401055152&#45;&gt;2547403173248</title>
<path fill="none" stroke="black" d="M1545.7,-207.2C1489.97,-206.64 1410.77,-206 1341.38,-206 817.75,-206 817.75,-206 817.75,-206 679.51,-206 515.3,-219.37 445.1,-225.72"/>
<polygon fill="black" stroke="black" points="445.03,-222.22 435.4,-226.61 445.67,-229.19 445.03,-222.22"/>
</g>
<!-- 2547403429920 -->
<g id="node47" class="node">
<title>2547403429920</title>
<polygon fill="none" stroke="black" points="1890.75,-226 1753.25,-226 1753.25,-190 1890.75,-190 1890.75,-226"/>
<text text-anchor="middle" x="1822" y="-202.97" font-family="Times New Roman,serif" font-size="12.00">Evaluate operational risks</text>
</g>
<!-- 2547401048144&#45;&gt;2547403429920 -->
<g id="edge58" class="edge">
<title>2547401048144&#45;&gt;2547403429920</title>
<path fill="none" stroke="black" d="M1637.38,-146.95C1663.55,-155.65 1713.66,-172.31 1754.93,-186.03"/>
<polygon fill="black" stroke="black" points="1753.73,-189.32 1764.32,-189.15 1755.93,-182.68 1753.73,-189.32"/>
</g>
<!-- 2547403437024 -->
<g id="node49" class="node">
<title>2547403437024</title>
<polygon fill="none" stroke="black" points="1891.5,-172 1752.5,-172 1752.5,-136 1891.5,-136 1891.5,-172"/>
<text text-anchor="middle" x="1822" y="-148.97" font-family="Times New Roman,serif" font-size="12.00">Evaluate compliance risks</text>
</g>
<!-- 2547401048144&#45;&gt;2547403437024 -->
<g id="edge56" class="edge">
<title>2547401048144&#45;&gt;2547403437024</title>
<path fill="none" stroke="black" d="M1643.81,-142.57C1667.89,-144.12 1706.12,-146.59 1740.91,-148.83"/>
<polygon fill="black" stroke="black" points="1740.34,-152.3 1750.55,-149.45 1740.79,-145.32 1740.34,-152.3"/>
</g>
<!-- 2547403438704 -->
<g id="node51" class="node">
<title>2547403438704</title>
<polygon fill="none" stroke="black" points="1884.75,-118 1759.25,-118 1759.25,-82 1884.75,-82 1884.75,-118"/>
<text text-anchor="middle" x="1822" y="-94.97" font-family="Times New Roman,serif" font-size="12.00">Evaluate financial risks</text>
</g>
<!-- 2547401048144&#45;&gt;2547403438704 -->
<g id="edge57" class="edge">
<title>2547401048144&#45;&gt;2547403438704</title>
<path fill="none" stroke="black" d="M1639.93,-136.84C1665.15,-131.71 1709.44,-122.7 1747.9,-114.87"/>
<polygon fill="black" stroke="black" points="1748.51,-118.32 1757.61,-112.9 1747.12,-111.46 1748.51,-118.32"/>
</g>
<!-- 2547403435008 -->
<g id="node48" class="node">
<title>2547403435008</title>
<polygon fill="none" stroke="black" points="1954.5,-372 1927.5,-354 1954.5,-336 1981.5,-354 1954.5,-372"/>
<text text-anchor="middle" x="1954.5" y="-348.98" font-family="Times New Roman,serif" font-size="12.00">+</text>
</g>
<!-- 2547401061728&#45;&gt;2547403435008 -->
<g id="edge59" class="edge">
<title>2547401061728&#45;&gt;2547403435008</title>
<path fill="none" stroke="black" d="M1870.25,-389.63C1877.39,-386.78 1884.65,-383.84 1891.5,-381 1903.29,-376.11 1916.26,-370.5 1927.27,-365.67"/>
<polygon fill="black" stroke="black" points="1928.39,-369 1936.12,-361.76 1925.56,-362.59 1928.39,-369"/>
</g>
<!-- 2547401052272&#45;&gt;2547403435008 -->
<g id="edge60" class="edge">
<title>2547401052272&#45;&gt;2547403435008</title>
<path fill="none" stroke="black" d="M1882.14,-354C1893.51,-354 1905.13,-354 1915.6,-354"/>
<polygon fill="black" stroke="black" points="1915.34,-357.5 1925.34,-354 1915.34,-350.5 1915.34,-357.5"/>
</g>
<!-- 2547403436016&#45;&gt;2547403435008 -->
<g id="edge61" class="edge">
<title>2547403436016&#45;&gt;2547403435008</title>
<path fill="none" stroke="black" d="M1870.25,-318.37C1877.39,-321.22 1884.65,-324.16 1891.5,-327 1903.29,-331.89 1916.26,-337.5 1927.27,-342.33"/>
<polygon fill="black" stroke="black" points="1925.56,-345.41 1936.12,-346.24 1928.39,-339 1925.56,-345.41"/>
</g>
<!-- 2547401055488 -->
<g id="node46" class="node">
<title>2547401055488</title>
<polygon fill="none" stroke="black" points="1880.62,-64 1763.38,-64 1763.38,-28 1880.62,-28 1880.62,-64"/>
<text text-anchor="middle" x="1822" y="-40.98" font-family="Times New Roman,serif" font-size="12.00">Receive clarifications</text>
</g>
<!-- 2547403436352&#45;&gt;2547401055488 -->
<g id="edge62" class="edge">
<title>2547403436352&#45;&gt;2547401055488</title>
<path fill="none" stroke="black" d="M1716.71,-53.25C1728.44,-52.43 1740.23,-51.61 1751.44,-50.83"/>
<polygon fill="black" stroke="black" points="1751.66,-54.33 1761.39,-50.14 1751.17,-47.34 1751.66,-54.33"/>
</g>
<!-- 2547401058272 -->
<g id="node52" class="node">
<title>2547401058272</title>
<polygon fill="none" stroke="black" points="1954.5,-91 1927.5,-73 1954.5,-55 1981.5,-73 1954.5,-91"/>
<text text-anchor="middle" x="1954.5" y="-67.97" font-family="Times New Roman,serif" font-size="12.00">+</text>
</g>
<!-- 2547401055488&#45;&gt;2547401058272 -->
<g id="edge65" class="edge">
<title>2547401055488&#45;&gt;2547401058272</title>
<path fill="none" stroke="black" d="M1881,-58C1895.13,-60.92 1909.73,-63.94 1922.08,-66.5"/>
<polygon fill="black" stroke="black" points="1921.17,-69.89 1931.68,-68.48 1922.59,-63.03 1921.17,-69.89"/>
</g>
<!-- 2547401057360 -->
<g id="node53" class="node">
<title>2547401057360</title>
<polygon fill="none" stroke="black" points="1954.5,-195 1927.5,-177 1954.5,-159 1981.5,-177 1954.5,-195"/>
<text text-anchor="middle" x="1954.5" y="-171.97" font-family="Times New Roman,serif" font-size="12.00">+</text>
</g>
<!-- 2547403429920&#45;&gt;2547401057360 -->
<g id="edge66" class="edge">
<title>2547403429920&#45;&gt;2547401057360</title>
<path fill="none" stroke="black" d="M1890.93,-191.86C1902.11,-189.21 1913.19,-186.58 1922.84,-184.28"/>
<polygon fill="black" stroke="black" points="1923.44,-187.74 1932.36,-182.02 1921.82,-180.93 1923.44,-187.74"/>
</g>
<!-- 2547403435008&#45;&gt;2547403174880 -->
<g id="edge64" class="edge">
<title>2547403435008&#45;&gt;2547403174880</title>
<path fill="none" stroke="black" d="M1982.22,-354C2001.14,-354 2026.78,-354 2047.84,-354"/>
<polygon fill="black" stroke="black" points="2047.8,-357.5 2057.8,-354 2047.8,-350.5 2047.8,-357.5"/>
</g>
<!-- 2547403437024&#45;&gt;2547401057360 -->
<g id="edge67" class="edge">
<title>2547403437024&#45;&gt;2547401057360</title>
<path fill="none" stroke="black" d="M1891.69,-166.11C1902.02,-167.93 1912.24,-169.73 1921.3,-171.32"/>
<polygon fill="black" stroke="black" points="1920.51,-174.74 1930.97,-173.03 1921.73,-167.85 1920.51,-174.74"/>
</g>
<!-- 2547403437696&#45;&gt;2547401057072 -->
<g id="edge63" class="edge">
<title>2547403437696&#45;&gt;2547401057072</title>
<path fill="none" stroke="black" d="M2448.26,-294.55C2469.3,-279.18 2498.96,-257.52 2518.97,-242.91"/>
<polygon fill="black" stroke="black" points="2520.97,-245.78 2526.98,-237.06 2516.84,-240.13 2520.97,-245.78"/>
</g>
<!-- 2547403438704&#45;&gt;2547401057360 -->
<g id="edge68" class="edge">
<title>2547403438704&#45;&gt;2547401057360</title>
<path fill="none" stroke="black" d="M1874.68,-118.4C1880.47,-121.04 1886.2,-123.91 1891.5,-127 1906.97,-136 1922.64,-148.68 1934.36,-159.02"/>
<polygon fill="black" stroke="black" points="1931.94,-161.55 1941.71,-165.67 1936.64,-156.36 1931.94,-161.55"/>
</g>
<!-- 2547401062208 -->
<g id="node55" class="node">
<title>2547401062208</title>
<polygon fill="none" stroke="black" points="2156.5,-172 2017.5,-172 2017.5,-136 2156.5,-136 2156.5,-172"/>
<text text-anchor="middle" x="2087" y="-148.97" font-family="Times New Roman,serif" font-size="12.00">Evaluate compliance risks</text>
</g>
<!-- 2547401058272&#45;&gt;2547401062208 -->
<g id="edge71" class="edge">
<title>2547401058272&#45;&gt;2547401062208</title>
<path fill="none" stroke="black" d="M1965.59,-83.77C1977.19,-95.64 1997.25,-114.7 2017.5,-127 2019.51,-128.22 2021.58,-129.4 2023.69,-130.55"/>
<polygon fill="black" stroke="black" points="2021.98,-133.61 2032.49,-134.96 2025.12,-127.35 2021.98,-133.61"/>
</g>
<!-- 2547401049488 -->
<g id="node56" class="node">
<title>2547401049488</title>
<polygon fill="none" stroke="black" points="2155.75,-118 2018.25,-118 2018.25,-82 2155.75,-82 2155.75,-118"/>
<text text-anchor="middle" x="2087" y="-94.97" font-family="Times New Roman,serif" font-size="12.00">Evaluate operational risks</text>
</g>
<!-- 2547401058272&#45;&gt;2547401049488 -->
<g id="edge69" class="edge">
<title>2547401058272&#45;&gt;2547401049488</title>
<path fill="none" stroke="black" d="M1975.89,-77.22C1984.64,-79.03 1995.47,-81.27 2006.89,-83.63"/>
<polygon fill="black" stroke="black" points="2005.99,-87.02 2016.5,-85.62 2007.41,-80.17 2005.99,-87.02"/>
</g>
<!-- 2547403436688 -->
<g id="node57" class="node">
<title>2547403436688</title>
<polygon fill="none" stroke="black" points="2149.75,-64 2024.25,-64 2024.25,-28 2149.75,-28 2149.75,-64"/>
<text text-anchor="middle" x="2087" y="-40.98" font-family="Times New Roman,serif" font-size="12.00">Evaluate financial risks</text>
</g>
<!-- 2547401058272&#45;&gt;2547403436688 -->
<g id="edge70" class="edge">
<title>2547401058272&#45;&gt;2547403436688</title>
<path fill="none" stroke="black" d="M1975.89,-68.78C1986.19,-66.65 1999.37,-63.92 2013.01,-61.1"/>
<polygon fill="black" stroke="black" points="2013.43,-64.59 2022.52,-59.13 2012.01,-57.73 2013.43,-64.59"/>
</g>
<!-- 2547403173296 -->
<g id="node54" class="node">
<title>2547403173296</title>
<polygon fill="none" stroke="black" points="2422,-218 2395,-200 2422,-182 2449,-200 2422,-218"/>
<text text-anchor="middle" x="2422" y="-194.97" font-family="Times New Roman,serif" font-size="12.00">X</text>
</g>
<!-- 2547401057360&#45;&gt;2547403173296 -->
<g id="edge72" class="edge">
<title>2547401057360&#45;&gt;2547403173296</title>
<path fill="none" stroke="black" d="M1979.64,-178.66C1991.11,-179.42 2005.01,-180.3 2017.5,-181 2152.86,-188.55 2313.88,-195.53 2384.62,-198.5"/>
<polygon fill="black" stroke="black" points="2384.32,-201.99 2394.45,-198.91 2384.61,-195 2384.32,-201.99"/>
</g>
<!-- 2547403173296&#45;&gt;2547401057072 -->
<g id="edge73" class="edge">
<title>2547403173296&#45;&gt;2547401057072</title>
<path fill="none" stroke="black" d="M2442.97,-204.58C2461.35,-208.79 2488.89,-215.11 2510.06,-219.96"/>
<polygon fill="black" stroke="black" points="2509.07,-223.33 2519.6,-222.15 2510.63,-216.5 2509.07,-223.33"/>
</g>
<!-- 2547403427184 -->
<g id="node58" class="node">
<title>2547403427184</title>
<polygon fill="none" stroke="black" points="2260.88,-147 2233.88,-129 2260.88,-111 2287.88,-129 2260.88,-147"/>
<text text-anchor="middle" x="2260.88" y="-123.97" font-family="Times New Roman,serif" font-size="12.00">+</text>
</g>
<!-- 2547401062208&#45;&gt;2547403427184 -->
<g id="edge74" class="edge">
<title>2547401062208&#45;&gt;2547403427184</title>
<path fill="none" stroke="black" d="M2156.92,-143.98C2181.01,-140.47 2206.95,-136.7 2226.77,-133.81"/>
<polygon fill="black" stroke="black" points="2227.07,-137.31 2236.46,-132.41 2226.06,-130.38 2227.07,-137.31"/>
</g>
<!-- 2547401049488&#45;&gt;2547403427184 -->
<g id="edge75" class="edge">
<title>2547401049488&#45;&gt;2547403427184</title>
<path fill="none" stroke="black" d="M2155.93,-111.46C2180.44,-115.6 2207.01,-120.08 2227.14,-123.48"/>
<polygon fill="black" stroke="black" points="2226.55,-126.93 2236.99,-125.14 2227.71,-120.02 2226.55,-126.93"/>
</g>
<!-- 2547403436688&#45;&gt;2547403427184 -->
<g id="edge76" class="edge">
<title>2547403436688&#45;&gt;2547403427184</title>
<path fill="none" stroke="black" d="M2136.95,-64.46C2143.58,-67.2 2150.24,-70.09 2156.5,-73 2184.39,-85.99 2215.27,-103.1 2235.96,-114.97"/>
<polygon fill="black" stroke="black" points="2234.06,-117.91 2244.46,-119.89 2237.56,-111.85 2234.06,-117.91"/>
</g>
<!-- 2547403427184&#45;&gt;2547403173296 -->
<g id="edge77" class="edge">
<title>2547403427184&#45;&gt;2547403173296</title>
<path fill="none" stroke="black" d="M2277.71,-136.07C2305.12,-148.29 2361.63,-173.51 2394.91,-188.36"/>
<polygon fill="black" stroke="black" points="2393.28,-191.47 2403.84,-192.34 2396.14,-185.07 2393.28,-191.47"/>
</g>
</g>
</svg>
