<?xml version="1.0" encoding="UTF-8" standalone="no"?>
<!DOCTYPE svg PUBLIC "-//W3C//DTD SVG 1.1//EN"
 "http://www.w3.org/Graphics/SVG/1.1/DTD/svg11.dtd">
<!-- Generated by graphviz version 11.0.0 (20240428.1522)
 -->
<!-- Pages: 1 -->
<svg width="3908pt" height="209pt"
 viewBox="0.00 0.00 3907.75 209.00" xmlns="http://www.w3.org/2000/svg" xmlns:xlink="http://www.w3.org/1999/xlink">
<g id="graph0" class="graph" transform="scale(1 1) rotate(0) translate(4 205)">
<polygon fill="white" stroke="none" points="-4,4 -4,-205 3903.75,-205 3903.75,4 -4,4"/>
<!-- 2547400172144 -->
<g id="node1" class="node">
<title>2547400172144</title>
<ellipse fill="green" stroke="black" cx="18" cy="-129" rx="18" ry="18"/>
</g>
<!-- 2547400620848 -->
<g id="node2" class="node">
<title>2547400620848</title>
<polygon fill="none" stroke="black" points="179.5,-147 72,-147 72,-111 179.5,-111 179.5,-147"/>
<text text-anchor="middle" x="125.75" y="-123.97" font-family="Times New Roman,serif" font-size="12.00">Close audit process</text>
</g>
<!-- 2547400172144&#45;&gt;2547400620848 -->
<g id="edge1" class="edge">
<title>2547400172144&#45;&gt;2547400620848</title>
<path fill="none" stroke="black" d="M36.46,-129C43.31,-129 51.62,-129 60.38,-129"/>
<polygon fill="black" stroke="black" points="60.11,-132.5 70.11,-129 60.11,-125.5 60.11,-132.5"/>
</g>
<!-- 2547400442512 -->
<g id="node3" class="node">
<title>2547400442512</title>
<polygon fill="none" stroke="black" points="300.5,-147 215.5,-147 215.5,-111 300.5,-111 300.5,-147"/>
<text text-anchor="middle" x="258" y="-123.97" font-family="Times New Roman,serif" font-size="12.00">Archive report</text>
</g>
<!-- 2547400620848&#45;&gt;2547400442512 -->
<g id="edge2" class="edge">
<title>2547400620848&#45;&gt;2547400442512</title>
<path fill="none" stroke="black" d="M179.73,-129C187.68,-129 195.88,-129 203.83,-129"/>
<polygon fill="black" stroke="black" points="203.74,-132.5 213.74,-129 203.74,-125.5 203.74,-132.5"/>
</g>
<!-- 2547400617488 -->
<g id="node4" class="node">
<title>2547400617488</title>
<polygon fill="none" stroke="black" points="453.75,-147 336.5,-147 336.5,-111 453.75,-111 453.75,-147"/>
<text text-anchor="middle" x="395.12" y="-123.97" font-family="Times New Roman,serif" font-size="12.00">Distribute final report</text>
</g>
<!-- 2547400442512&#45;&gt;2547400617488 -->
<g id="edge3" class="edge">
<title>2547400442512&#45;&gt;2547400617488</title>
<path fill="none" stroke="black" d="M300.64,-129C308.43,-129 316.75,-129 325.11,-129"/>
<polygon fill="black" stroke="black" points="324.96,-132.5 334.96,-129 324.96,-125.5 324.96,-132.5"/>
</g>
<!-- 2547400614992 -->
<g id="node5" class="node">
<title>2547400614992</title>
<polygon fill="none" stroke="black" points="586,-147 489.75,-147 489.75,-111 586,-111 586,-147"/>
<text text-anchor="middle" x="537.88" y="-123.97" font-family="Times New Roman,serif" font-size="12.00">Send notification</text>
</g>
<!-- 2547400617488&#45;&gt;2547400614992 -->
<g id="edge4" class="edge">
<title>2547400617488&#45;&gt;2547400614992</title>
<path fill="none" stroke="black" d="M454.19,-129C462.12,-129 470.28,-129 478.22,-129"/>
<polygon fill="black" stroke="black" points="478.16,-132.5 488.16,-129 478.16,-125.5 478.16,-132.5"/>
</g>
<!-- 2547400457536 -->
<g id="node6" class="node">
<title>2547400457536</title>
<polygon fill="none" stroke="black" points="785.75,-147 622,-147 622,-111 785.75,-111 785.75,-147"/>
<text text-anchor="middle" x="703.88" y="-123.97" font-family="Times New Roman,serif" font-size="12.00">Review report by audit director</text>
</g>
<!-- 2547400614992&#45;&gt;2547400457536 -->
<g id="edge5" class="edge">
<title>2547400614992&#45;&gt;2547400457536</title>
<path fill="none" stroke="black" d="M586.31,-129C593.92,-129 602.02,-129 610.26,-129"/>
<polygon fill="black" stroke="black" points="610.04,-132.5 620.04,-129 610.04,-125.5 610.04,-132.5"/>
</g>
<!-- 2547400165520 -->
<g id="node7" class="node">
<title>2547400165520</title>
<polygon fill="none" stroke="black" points="848.75,-147 821.75,-129 848.75,-111 875.75,-129 848.75,-147"/>
<text text-anchor="middle" x="848.75" y="-123.97" font-family="Times New Roman,serif" font-size="12.00">X</text>
</g>
<!-- 2547400457536&#45;&gt;2547400165520 -->
<g id="edge6" class="edge">
<title>2547400457536&#45;&gt;2547400165520</title>
<path fill="none" stroke="black" d="M785.91,-129C794.08,-129 802.08,-129 809.47,-129"/>
<polygon fill="black" stroke="black" points="809.37,-132.5 819.37,-129 809.37,-125.5 809.37,-132.5"/>
</g>
<!-- 2547400170368 -->
<g id="node8" class="node">
<title>2547400170368</title>
<polygon fill="none" stroke="black" points="1283.5,-147 1256.5,-129 1283.5,-111 1310.5,-129 1283.5,-147"/>
<text text-anchor="middle" x="1283.5" y="-123.97" font-family="Times New Roman,serif" font-size="12.00">X</text>
</g>
<!-- 2547400165520&#45;&gt;2547400170368 -->
<g id="edge8" class="edge">
<title>2547400165520&#45;&gt;2547400170368</title>
<path fill="none" stroke="black" d="M873.58,-130.9C885.1,-131.72 899.14,-132.59 911.75,-133 1048.9,-137.42 1083.35,-137.42 1220.5,-133 1229.17,-132.72 1238.52,-132.22 1247.25,-131.67"/>
<polygon fill="black" stroke="black" points="1247.42,-135.17 1257.16,-131 1246.95,-128.18 1247.42,-135.17"/>
</g>
<!-- 2547400444384 -->
<g id="node9" class="node">
<title>2547400444384</title>
<polygon fill="none" stroke="black" points="1056.75,-124 911.75,-124 911.75,-88 1056.75,-88 1056.75,-124"/>
<text text-anchor="middle" x="984.25" y="-100.97" font-family="Times New Roman,serif" font-size="12.00">Update and resubmit report</text>
</g>
<!-- 2547400165520&#45;&gt;2547400444384 -->
<g id="edge7" class="edge">
<title>2547400165520&#45;&gt;2547400444384</title>
<path fill="none" stroke="black" d="M870.9,-125.36C879.2,-123.93 889.29,-122.19 899.99,-120.34"/>
<polygon fill="black" stroke="black" points="900.55,-123.8 909.81,-118.65 899.36,-116.9 900.55,-123.8"/>
</g>
<!-- 2547400620560 -->
<g id="node11" class="node">
<title>2547400620560</title>
<polygon fill="none" stroke="black" points="1460,-147 1346.5,-147 1346.5,-111 1460,-111 1460,-147"/>
<text text-anchor="middle" x="1403.25" y="-123.97" font-family="Times New Roman,serif" font-size="12.00">Compile audit report</text>
</g>
<!-- 2547400170368&#45;&gt;2547400620560 -->
<g id="edge9" class="edge">
<title>2547400170368&#45;&gt;2547400620560</title>
<path fill="none" stroke="black" d="M1311.22,-129C1318.4,-129 1326.51,-129 1334.85,-129"/>
<polygon fill="black" stroke="black" points="1334.78,-132.5 1344.78,-129 1334.78,-125.5 1334.78,-132.5"/>
</g>
<!-- 2547400448752 -->
<g id="node10" class="node">
<title>2547400448752</title>
<polygon fill="none" stroke="black" points="1220.5,-124 1092.75,-124 1092.75,-88 1220.5,-88 1220.5,-124"/>
<text text-anchor="middle" x="1156.62" y="-100.97" font-family="Times New Roman,serif" font-size="12.00">Send report for revision</text>
</g>
<!-- 2547400444384&#45;&gt;2547400448752 -->
<g id="edge10" class="edge">
<title>2547400444384&#45;&gt;2547400448752</title>
<path fill="none" stroke="black" d="M1057.01,-106C1064.89,-106 1072.93,-106 1080.85,-106"/>
<polygon fill="black" stroke="black" points="1080.82,-109.5 1090.82,-106 1080.82,-102.5 1080.82,-109.5"/>
</g>
<!-- 2547400448752&#45;&gt;2547400170368 -->
<g id="edge11" class="edge">
<title>2547400448752&#45;&gt;2547400170368</title>
<path fill="none" stroke="black" d="M1220.79,-117.63C1231.06,-119.53 1241.29,-121.41 1250.4,-123.09"/>
<polygon fill="black" stroke="black" points="1249.65,-126.51 1260.12,-124.88 1250.92,-119.63 1249.65,-126.51"/>
</g>
<!-- 2547402739104 -->
<g id="node12" class="node">
<title>2547402739104</title>
<polygon fill="none" stroke="black" points="1683,-147 1496,-147 1496,-111 1683,-111 1683,-147"/>
<text text-anchor="middle" x="1589.5" y="-123.97" font-family="Times New Roman,serif" font-size="12.00">Complete risk assessment/mitigation</text>
</g>
<!-- 2547400620560&#45;&gt;2547402739104 -->
<g id="edge12" class="edge">
<title>2547400620560&#45;&gt;2547402739104</title>
<path fill="none" stroke="black" d="M1460.28,-129C1468,-129 1476.11,-129 1484.36,-129"/>
<polygon fill="black" stroke="black" points="1484.15,-132.5 1494.15,-129 1484.15,-125.5 1484.15,-132.5"/>
</g>
<!-- 2547400165232 -->
<g id="node13" class="node">
<title>2547400165232</title>
<polygon fill="none" stroke="black" points="1746,-147 1719,-129 1746,-111 1773,-129 1746,-147"/>
<text text-anchor="middle" x="1746" y="-123.97" font-family="Times New Roman,serif" font-size="12.00">X</text>
</g>
<!-- 2547402739104&#45;&gt;2547400165232 -->
<g id="edge13" class="edge">
<title>2547402739104&#45;&gt;2547400165232</title>
<path fill="none" stroke="black" d="M1683.49,-129C1691.7,-129 1699.66,-129 1706.97,-129"/>
<polygon fill="black" stroke="black" points="1706.74,-132.5 1716.74,-129 1706.74,-125.5 1706.74,-132.5"/>
</g>
<!-- 2547400169792 -->
<g id="node14" class="node">
<title>2547400169792</title>
<polygon fill="none" stroke="black" points="2596.5,-147 2569.5,-129 2596.5,-111 2623.5,-129 2596.5,-147"/>
<text text-anchor="middle" x="2596.5" y="-123.97" font-family="Times New Roman,serif" font-size="12.00">X</text>
</g>
<!-- 2547400165232&#45;&gt;2547400169792 -->
<g id="edge15" class="edge">
<title>2547400165232&#45;&gt;2547400169792</title>
<path fill="none" stroke="black" d="M1760.68,-137.77C1789.72,-155.51 1860.19,-194 1925,-194 1925,-194 1925,-194 2316.75,-194 2411.06,-194 2518.74,-158.28 2568.13,-139.8"/>
<polygon fill="black" stroke="black" points="2569.34,-143.08 2577.43,-136.25 2566.84,-136.54 2569.34,-143.08"/>
</g>
<!-- 2547400621904 -->
<g id="node15" class="node">
<title>2547400621904</title>
<polygon fill="none" stroke="black" points="1836,-105 1809,-87 1836,-69 1863,-87 1836,-105"/>
<text text-anchor="middle" x="1836" y="-81.97" font-family="Times New Roman,serif" font-size="12.00">+</text>
</g>
<!-- 2547400165232&#45;&gt;2547400621904 -->
<g id="edge14" class="edge">
<title>2547400165232&#45;&gt;2547400621904</title>
<path fill="none" stroke="black" d="M1762.33,-121.68C1775.25,-115.52 1794,-106.57 1809.23,-99.3"/>
<polygon fill="black" stroke="black" points="1810.67,-102.49 1818.19,-95.02 1807.65,-96.17 1810.67,-102.49"/>
</g>
<!-- 2547400610240 -->
<g id="node18" class="node">
<title>2547400610240</title>
<polygon fill="none" stroke="black" points="2686.5,-147 2659.5,-129 2686.5,-111 2713.5,-129 2686.5,-147"/>
<text text-anchor="middle" x="2686.5" y="-123.97" font-family="Times New Roman,serif" font-size="12.00">+</text>
</g>
<!-- 2547400169792&#45;&gt;2547400610240 -->
<g id="edge16" class="edge">
<title>2547400169792&#45;&gt;2547400610240</title>
<path fill="none" stroke="black" d="M2624.38,-129C2631.63,-129 2639.62,-129 2647.35,-129"/>
<polygon fill="black" stroke="black" points="2647.27,-132.5 2657.27,-129 2647.27,-125.5 2647.27,-132.5"/>
</g>
<!-- 2547400165712 -->
<g id="node16" class="node">
<title>2547400165712</title>
<polygon fill="none" stroke="black" points="1926,-128 1899,-110 1926,-92 1953,-110 1926,-128"/>
<text text-anchor="middle" x="1926" y="-104.97" font-family="Times New Roman,serif" font-size="12.00">X</text>
</g>
<!-- 2547400621904&#45;&gt;2547400165712 -->
<g id="edge17" class="edge">
<title>2547400621904&#45;&gt;2547400165712</title>
<path fill="none" stroke="black" d="M1856.09,-91.99C1867.51,-94.97 1882.26,-98.83 1895.19,-102.21"/>
<polygon fill="black" stroke="black" points="1893.92,-105.49 1904.48,-104.64 1895.69,-98.72 1893.92,-105.49"/>
</g>
<!-- 2547400616912 -->
<g id="node17" class="node">
<title>2547400616912</title>
<polygon fill="none" stroke="black" points="2252.75,-82 2133.25,-82 2133.25,-46 2252.75,-46 2252.75,-82"/>
<text text-anchor="middle" x="2193" y="-58.98" font-family="Times New Roman,serif" font-size="12.00">Conduct data analysis</text>
</g>
<!-- 2547400621904&#45;&gt;2547400616912 -->
<g id="edge19" class="edge">
<title>2547400621904&#45;&gt;2547400616912</title>
<path fill="none" stroke="black" d="M1861.4,-85.42C1914.36,-81.99 2041.54,-73.75 2121.82,-68.55"/>
<polygon fill="black" stroke="black" points="2121.56,-72.07 2131.31,-67.93 2121.11,-65.09 2121.56,-72.07"/>
</g>
<!-- 2547400618496 -->
<g id="node19" class="node">
<title>2547400618496</title>
<polygon fill="none" stroke="black" points="2097.25,-36 1989,-36 1989,0 2097.25,0 2097.25,-36"/>
<text text-anchor="middle" x="2043.12" y="-12.97" font-family="Times New Roman,serif" font-size="12.00">Conduct interviews</text>
</g>
<!-- 2547400621904&#45;&gt;2547400618496 -->
<g id="edge18" class="edge">
<title>2547400621904&#45;&gt;2547400618496</title>
<path fill="none" stroke="black" d="M1849.67,-77.79C1861.78,-69.39 1880.83,-57.24 1899,-50 1923.82,-40.11 1952.34,-32.96 1977.36,-27.95"/>
<polygon fill="black" stroke="black" points="1977.93,-31.41 1987.09,-26.09 1976.61,-24.53 1977.93,-31.41"/>
</g>
<!-- 2547400168832 -->
<g id="node20" class="node">
<title>2547400168832</title>
<polygon fill="none" stroke="black" points="2193,-136 2166,-118 2193,-100 2220,-118 2193,-136"/>
<text text-anchor="middle" x="2193" y="-112.97" font-family="Times New Roman,serif" font-size="12.00">X</text>
</g>
<!-- 2547400165712&#45;&gt;2547400168832 -->
<g id="edge20" class="edge">
<title>2547400165712&#45;&gt;2547400168832</title>
<path fill="none" stroke="black" d="M1941.22,-118.21C1953.44,-124.76 1971.76,-133.41 1989,-137 2049.74,-149.65 2122.47,-136.07 2162.3,-126.25"/>
<polygon fill="black" stroke="black" points="2163.04,-129.67 2171.85,-123.79 2161.3,-122.89 2163.04,-129.67"/>
</g>
<!-- 2547400450624 -->
<g id="node21" class="node">
<title>2547400450624</title>
<polygon fill="none" stroke="black" points="2093.12,-128 1993.12,-128 1993.12,-92 2093.12,-92 2093.12,-128"/>
<text text-anchor="middle" x="2043.12" y="-104.97" font-family="Times New Roman,serif" font-size="12.00">Perform site visits</text>
</g>
<!-- 2547400165712&#45;&gt;2547400450624 -->
<g id="edge21" class="edge">
<title>2547400165712&#45;&gt;2547400450624</title>
<path fill="none" stroke="black" d="M1953.7,-110C1962.1,-110 1971.75,-110 1981.52,-110"/>
<polygon fill="black" stroke="black" points="1981.45,-113.5 1991.45,-110 1981.45,-106.5 1981.45,-113.5"/>
</g>
<!-- 2547400621808 -->
<g id="node23" class="node">
<title>2547400621808</title>
<polygon fill="none" stroke="black" points="2315.75,-103 2288.75,-85 2315.75,-67 2342.75,-85 2315.75,-103"/>
<text text-anchor="middle" x="2315.75" y="-79.97" font-family="Times New Roman,serif" font-size="12.00">+</text>
</g>
<!-- 2547400616912&#45;&gt;2547400621808 -->
<g id="edge22" class="edge">
<title>2547400616912&#45;&gt;2547400621808</title>
<path fill="none" stroke="black" d="M2252.96,-74.25C2263.12,-76.02 2273.33,-77.8 2282.44,-79.38"/>
<polygon fill="black" stroke="black" points="2281.75,-82.81 2292.2,-81.08 2282.95,-75.92 2281.75,-82.81"/>
</g>
<!-- 2547400454416 -->
<g id="node22" class="node">
<title>2547400454416</title>
<polygon fill="none" stroke="black" points="2881.75,-201 2756.25,-201 2756.25,-165 2881.75,-165 2881.75,-201"/>
<text text-anchor="middle" x="2819" y="-177.97" font-family="Times New Roman,serif" font-size="12.00">Evaluate financial risks</text>
</g>
<!-- 2547400610240&#45;&gt;2547400454416 -->
<g id="edge25" class="edge">
<title>2547400610240&#45;&gt;2547400454416</title>
<path fill="none" stroke="black" d="M2703.49,-136.15C2715.97,-141.68 2733.77,-149.48 2749.5,-156 2753.03,-157.46 2756.67,-158.95 2760.35,-160.45"/>
<polygon fill="black" stroke="black" points="2758.76,-163.58 2769.34,-164.06 2761.37,-157.08 2758.76,-163.58"/>
</g>
<!-- 2547400620608 -->
<g id="node24" class="node">
<title>2547400620608</title>
<polygon fill="none" stroke="black" points="2887.75,-147 2750.25,-147 2750.25,-111 2887.75,-111 2887.75,-147"/>
<text text-anchor="middle" x="2819" y="-123.97" font-family="Times New Roman,serif" font-size="12.00">Evaluate operational risks</text>
</g>
<!-- 2547400610240&#45;&gt;2547400620608 -->
<g id="edge24" class="edge">
<title>2547400610240&#45;&gt;2547400620608</title>
<path fill="none" stroke="black" d="M2714.22,-129C2721.48,-129 2729.73,-129 2738.33,-129"/>
<polygon fill="black" stroke="black" points="2738.28,-132.5 2748.28,-129 2738.28,-125.5 2738.28,-132.5"/>
</g>
<!-- 2547400174496 -->
<g id="node25" class="node">
<title>2547400174496</title>
<polygon fill="none" stroke="black" points="2888.5,-93 2749.5,-93 2749.5,-57 2888.5,-57 2888.5,-93"/>
<text text-anchor="middle" x="2819" y="-69.97" font-family="Times New Roman,serif" font-size="12.00">Evaluate compliance risks</text>
</g>
<!-- 2547400610240&#45;&gt;2547400174496 -->
<g id="edge23" class="edge">
<title>2547400610240&#45;&gt;2547400174496</title>
<path fill="none" stroke="black" d="M2703.49,-121.85C2715.97,-116.32 2733.77,-108.52 2749.5,-102 2753.03,-100.54 2756.67,-99.05 2760.35,-97.55"/>
<polygon fill="black" stroke="black" points="2761.37,-100.92 2769.34,-93.94 2758.76,-94.42 2761.37,-100.92"/>
</g>
<!-- 2547400618496&#45;&gt;2547400621808 -->
<g id="edge26" class="edge">
<title>2547400618496&#45;&gt;2547400621808</title>
<path fill="none" stroke="black" d="M2097.44,-14.77C2140.76,-14.02 2202.66,-17.29 2252.75,-37 2269.14,-43.45 2284.81,-55.64 2296.29,-66.13"/>
<polygon fill="black" stroke="black" points="2293.8,-68.59 2303.44,-72.98 2298.64,-63.53 2293.8,-68.59"/>
</g>
<!-- 2547400168832&#45;&gt;2547400621808 -->
<g id="edge27" class="edge">
<title>2547400168832&#45;&gt;2547400621808</title>
<path fill="none" stroke="black" d="M2212.87,-112.84C2232.18,-107.56 2262.49,-99.28 2285.03,-93.12"/>
<polygon fill="black" stroke="black" points="2285.83,-96.53 2294.56,-90.52 2283.99,-89.78 2285.83,-96.53"/>
</g>
<!-- 2547400450624&#45;&gt;2547400168832 -->
<g id="edge28" class="edge">
<title>2547400450624&#45;&gt;2547400168832</title>
<path fill="none" stroke="black" d="M2093.37,-112.66C2113.86,-113.77 2137.22,-115.04 2156.06,-116.06"/>
<polygon fill="black" stroke="black" points="2155.74,-119.54 2165.91,-116.59 2156.12,-112.55 2155.74,-119.54"/>
</g>
<!-- 2547402745104 -->
<g id="node26" class="node">
<title>2547402745104</title>
<polygon fill="none" stroke="black" points="2951.5,-147 2924.5,-129 2951.5,-111 2978.5,-129 2951.5,-147"/>
<text text-anchor="middle" x="2951.5" y="-123.97" font-family="Times New Roman,serif" font-size="12.00">+</text>
</g>
<!-- 2547400454416&#45;&gt;2547402745104 -->
<g id="edge29" class="edge">
<title>2547400454416&#45;&gt;2547402745104</title>
<path fill="none" stroke="black" d="M2867.25,-164.63C2874.39,-161.78 2881.65,-158.84 2888.5,-156 2900.29,-151.11 2913.26,-145.5 2924.27,-140.67"/>
<polygon fill="black" stroke="black" points="2925.39,-144 2933.12,-136.76 2922.56,-137.59 2925.39,-144"/>
</g>
<!-- 2547400618736 -->
<g id="node27" class="node">
<title>2547400618736</title>
<polygon fill="none" stroke="black" points="2533.5,-124 2378.75,-124 2378.75,-88 2533.5,-88 2533.5,-124"/>
<text text-anchor="middle" x="2456.12" y="-100.97" font-family="Times New Roman,serif" font-size="12.00">Launch detailed investigation</text>
</g>
<!-- 2547400621808&#45;&gt;2547400618736 -->
<g id="edge30" class="edge">
<title>2547400621808&#45;&gt;2547400618736</title>
<path fill="none" stroke="black" d="M2338.37,-88.28C2346.61,-89.53 2356.59,-91.05 2367.2,-92.66"/>
<polygon fill="black" stroke="black" points="2366.54,-96.1 2376.95,-94.14 2367.59,-89.18 2366.54,-96.1"/>
</g>
<!-- 2547400620608&#45;&gt;2547402745104 -->
<g id="edge31" class="edge">
<title>2547400620608&#45;&gt;2547402745104</title>
<path fill="none" stroke="black" d="M2887.93,-129C2896.4,-129 2904.81,-129 2912.59,-129"/>
<polygon fill="black" stroke="black" points="2912.32,-132.5 2922.32,-129 2912.32,-125.5 2912.32,-132.5"/>
</g>
<!-- 2547400174496&#45;&gt;2547402745104 -->
<g id="edge32" class="edge">
<title>2547400174496&#45;&gt;2547402745104</title>
<path fill="none" stroke="black" d="M2867.25,-93.37C2874.39,-96.22 2881.65,-99.16 2888.5,-102 2900.29,-106.89 2913.26,-112.5 2924.27,-117.33"/>
<polygon fill="black" stroke="black" points="2922.56,-120.41 2933.12,-121.24 2925.39,-114 2922.56,-120.41"/>
</g>
<!-- 2547400169936 -->
<g id="node28" class="node">
<title>2547400169936</title>
<polygon fill="none" stroke="black" points="3041.5,-147 3014.5,-129 3041.5,-111 3068.5,-129 3041.5,-147"/>
<text text-anchor="middle" x="3041.5" y="-123.97" font-family="Times New Roman,serif" font-size="12.00">X</text>
</g>
<!-- 2547402745104&#45;&gt;2547400169936 -->
<g id="edge34" class="edge">
<title>2547402745104&#45;&gt;2547400169936</title>
<path fill="none" stroke="black" d="M2979.38,-129C2986.63,-129 2994.62,-129 3002.35,-129"/>
<polygon fill="black" stroke="black" points="3002.27,-132.5 3012.27,-129 3002.27,-125.5 3002.27,-132.5"/>
</g>
<!-- 2547400618736&#45;&gt;2547400169792 -->
<g id="edge33" class="edge">
<title>2547400618736&#45;&gt;2547400169792</title>
<path fill="none" stroke="black" d="M2533.6,-118.71C2543.82,-120.41 2553.84,-122.08 2562.73,-123.55"/>
<polygon fill="black" stroke="black" points="2562.14,-127 2572.58,-125.19 2563.29,-120.1 2562.14,-127"/>
</g>
<!-- 2547400166672 -->
<g id="node29" class="node">
<title>2547400166672</title>
<polygon fill="none" stroke="black" points="3516.75,-147 3489.75,-129 3516.75,-111 3543.75,-129 3516.75,-147"/>
<text text-anchor="middle" x="3516.75" y="-123.97" font-family="Times New Roman,serif" font-size="12.00">X</text>
</g>
<!-- 2547400169936&#45;&gt;2547400166672 -->
<g id="edge36" class="edge">
<title>2547400169936&#45;&gt;2547400166672</title>
<path fill="none" stroke="black" d="M3066.33,-130.9C3077.85,-131.72 3091.89,-132.59 3104.5,-133 3259.64,-138 3298.61,-138 3453.75,-133 3462.42,-132.72 3471.77,-132.22 3480.5,-131.67"/>
<polygon fill="black" stroke="black" points="3480.67,-135.17 3490.41,-131 3480.2,-128.18 3480.67,-135.17"/>
</g>
<!-- 2547400179536 -->
<g id="node30" class="node">
<title>2547400179536</title>
<polygon fill="none" stroke="black" points="3300.5,-124 3104.5,-124 3104.5,-88 3300.5,-88 3300.5,-124"/>
<text text-anchor="middle" x="3202.5" y="-100.97" font-family="Times New Roman,serif" font-size="12.00">Request clarifications of discrepancies</text>
</g>
<!-- 2547400169936&#45;&gt;2547400179536 -->
<g id="edge35" class="edge">
<title>2547400169936&#45;&gt;2547400179536</title>
<path fill="none" stroke="black" d="M3064.27,-125.85C3072.35,-124.68 3082.16,-123.26 3092.77,-121.73"/>
<polygon fill="black" stroke="black" points="3093.19,-125.2 3102.59,-120.31 3092.19,-118.28 3093.19,-125.2"/>
</g>
<!-- 2547400619936 -->
<g id="node31" class="node">
<title>2547400619936</title>
<polygon fill="none" stroke="black" points="3688,-147 3579.75,-147 3579.75,-111 3688,-111 3688,-147"/>
<text text-anchor="middle" x="3633.88" y="-123.97" font-family="Times New Roman,serif" font-size="12.00">Review submission</text>
</g>
<!-- 2547400166672&#45;&gt;2547400619936 -->
<g id="edge37" class="edge">
<title>2547400166672&#45;&gt;2547400619936</title>
<path fill="none" stroke="black" d="M3544.45,-129C3551.67,-129 3559.8,-129 3568.14,-129"/>
<polygon fill="black" stroke="black" points="3568.05,-132.5 3578.05,-129 3568.05,-125.5 3568.05,-132.5"/>
</g>
<!-- 2547400171376 -->
<g id="node32" class="node">
<title>2547400171376</title>
<polygon fill="none" stroke="black" points="3453.75,-124 3336.5,-124 3336.5,-88 3453.75,-88 3453.75,-124"/>
<text text-anchor="middle" x="3395.12" y="-100.97" font-family="Times New Roman,serif" font-size="12.00">Receive clarifications</text>
</g>
<!-- 2547400179536&#45;&gt;2547400171376 -->
<g id="edge38" class="edge">
<title>2547400179536&#45;&gt;2547400171376</title>
<path fill="none" stroke="black" d="M3300.77,-106C3308.91,-106 3317.03,-106 3324.89,-106"/>
<polygon fill="black" stroke="black" points="3324.69,-109.5 3334.69,-106 3324.69,-102.5 3324.69,-109.5"/>
</g>
<!-- 2547400166624 -->
<g id="node33" class="node">
<title>2547400166624</title>
<polygon fill="none" stroke="black" points="3827.75,-147 3724,-147 3724,-111 3827.75,-111 3827.75,-147"/>
<text text-anchor="middle" x="3775.88" y="-123.97" font-family="Times New Roman,serif" font-size="12.00">Submit documents</text>
</g>
<!-- 2547400619936&#45;&gt;2547400166624 -->
<g id="edge40" class="edge">
<title>2547400619936&#45;&gt;2547400166624</title>
<path fill="none" stroke="black" d="M3688.2,-129C3696.08,-129 3704.26,-129 3712.3,-129"/>
<polygon fill="black" stroke="black" points="3712.03,-132.5 3722.03,-129 3712.03,-125.5 3712.03,-132.5"/>
</g>
<!-- 2547400171376&#45;&gt;2547400166672 -->
<g id="edge39" class="edge">
<title>2547400171376&#45;&gt;2547400166672</title>
<path fill="none" stroke="black" d="M3454.19,-117.16C3464.37,-119.12 3474.62,-121.09 3483.75,-122.85"/>
<polygon fill="black" stroke="black" points="3483.06,-126.28 3493.54,-124.73 3484.38,-119.4 3483.06,-126.28"/>
</g>
<!-- 2547400177424 -->
<g id="node34" class="node">
<title>2547400177424</title>
<ellipse fill="orange" stroke="black" cx="3881.75" cy="-129" rx="18" ry="18"/>
</g>
<!-- 2547400166624&#45;&gt;2547400177424 -->
<g id="edge41" class="edge">
<title>2547400166624&#45;&gt;2547400177424</title>
<path fill="none" stroke="black" d="M3828.2,-129C3836.42,-129 3844.66,-129 3852.1,-129"/>
<polygon fill="black" stroke="black" points="3851.84,-132.5 3861.84,-129 3851.84,-125.5 3851.84,-132.5"/>
</g>
</g>
</svg>
