<?xml version="1.0" encoding="UTF-8" standalone="no"?>
<!DOCTYPE svg PUBLIC "-//W3C//DTD SVG 1.1//EN"
 "http://www.w3.org/Graphics/SVG/1.1/DTD/svg11.dtd">
<!-- Generated by graphviz version 2.50.0 (0)
 -->
<!-- Pages: 1 -->
<svg width="1283pt" height="1149pt"
 viewBox="0.00 0.00 1283.00 1148.56" xmlns="http://www.w3.org/2000/svg" xmlns:xlink="http://www.w3.org/1999/xlink">
<g id="graph0" class="graph" transform="scale(1 1) rotate(0) translate(4 1144.56)">
<polygon fill="white" stroke="transparent" points="-4,4 -4,-1144.56 1279,-1144.56 1279,4 -4,4"/>
<!-- 6066061520 -->
<g id="node1" class="node">
<title>6066061520</title>
<ellipse fill="green" stroke="black" cx="18" cy="-479.56" rx="18" ry="18"/>
</g>
<!-- 6090759184 -->
<g id="node2" class="node">
<title>6090759184</title>
<polygon fill="none" stroke="black" points="99,-497.56 72,-479.56 99,-461.56 126,-479.56 99,-497.56"/>
<text text-anchor="middle" x="99" y="-476.46" font-family="Times,serif" font-size="12.00">+</text>
</g>
<!-- 6066061520&#45;&gt;6090759184 -->
<g id="edge1" class="edge">
<title>6066061520&#45;&gt;6090759184</title>
<path fill="none" stroke="black" d="M36.14,-479.56C43.64,-479.56 52.75,-479.56 61.64,-479.56"/>
<polygon fill="black" stroke="black" points="61.87,-483.06 71.87,-479.56 61.87,-476.06 61.87,-483.06"/>
</g>
<!-- 6066073296 -->
<g id="node3" class="node">
<title>6066073296</title>
<polygon fill="none" stroke="black" points="260.5,-1048.56 233.5,-1030.56 260.5,-1012.56 287.5,-1030.56 260.5,-1048.56"/>
<text text-anchor="middle" x="260.5" y="-1027.46" font-family="Times,serif" font-size="12.00">X</text>
</g>
<!-- 6090759184&#45;&gt;6066073296 -->
<g id="edge3" class="edge">
<title>6090759184&#45;&gt;6066073296</title>
<path fill="none" stroke="black" d="M100.77,-496.54C104.32,-569.93 120.75,-859.74 162,-939.56 179.36,-973.16 214.25,-1000.93 237.24,-1016.63"/>
<polygon fill="black" stroke="black" points="235.43,-1019.63 245.7,-1022.23 239.29,-1013.79 235.43,-1019.63"/>
</g>
<!-- 6090680976 -->
<g id="node4" class="node">
<title>6090680976</title>
<polygon fill="none" stroke="black" points="260.5,-930.56 233.5,-912.56 260.5,-894.56 287.5,-912.56 260.5,-930.56"/>
<text text-anchor="middle" x="260.5" y="-909.46" font-family="Times,serif" font-size="12.00">X</text>
</g>
<!-- 6090759184&#45;&gt;6090680976 -->
<g id="edge2" class="edge">
<title>6090759184&#45;&gt;6090680976</title>
<path fill="none" stroke="black" d="M100.35,-497.14C102.07,-566.64 111.76,-821.34 162,-880.56 177.45,-898.78 203.46,-906.69 224.73,-910.1"/>
<polygon fill="black" stroke="black" points="224.35,-913.58 234.72,-911.43 225.27,-906.64 224.35,-913.58"/>
</g>
<!-- 6090736656 -->
<g id="node5" class="node">
<title>6090736656</title>
<polygon fill="none" stroke="black" points="896,-892.56 810,-892.56 810,-856.56 896,-856.56 896,-892.56"/>
<text text-anchor="middle" x="853" y="-871.46" font-family="Times,serif" font-size="12.00">Archive report</text>
</g>
<!-- 6090759184&#45;&gt;6090736656 -->
<g id="edge22" class="edge">
<title>6090759184&#45;&gt;6090736656</title>
<path fill="none" stroke="black" d="M100.22,-496.76C101.43,-562.44 109.43,-796.09 162,-842.56 209.37,-884.44 647,-879.04 799.72,-875.83"/>
<polygon fill="black" stroke="black" points="799.86,-879.33 809.79,-875.62 799.71,-872.33 799.86,-879.33"/>
</g>
<!-- 6090683856 -->
<g id="node6" class="node">
<title>6090683856</title>
<polygon fill="none" stroke="black" points="1089.5,-846.56 988.5,-846.56 988.5,-810.56 1089.5,-810.56 1089.5,-846.56"/>
<text text-anchor="middle" x="1039" y="-825.46" font-family="Times,serif" font-size="12.00">Perform site visits</text>
</g>
<!-- 6090759184&#45;&gt;6090683856 -->
<g id="edge4" class="edge">
<title>6090759184&#45;&gt;6090683856</title>
<path fill="none" stroke="black" d="M100.69,-496.82C103.48,-557.59 116.15,-760.17 162,-801.56 212.5,-847.16 398.96,-828.56 467,-828.56 467,-828.56 467,-828.56 660,-828.56 772.51,-828.56 903.85,-828.56 978.34,-828.56"/>
<polygon fill="black" stroke="black" points="978.47,-832.06 988.47,-828.56 978.47,-825.06 978.47,-832.06"/>
</g>
<!-- 6090685392 -->
<g id="node7" class="node">
<title>6090685392</title>
<polygon fill="none" stroke="black" points="512.5,-800.56 423.5,-800.56 423.5,-764.56 512.5,-764.56 512.5,-800.56"/>
<text text-anchor="middle" x="468" y="-779.46" font-family="Times,serif" font-size="12.00">Approve report</text>
</g>
<!-- 6090759184&#45;&gt;6090685392 -->
<g id="edge18" class="edge">
<title>6090759184&#45;&gt;6090685392</title>
<path fill="none" stroke="black" d="M101.05,-496.56C104.9,-552.75 120.27,-731.04 162,-766.56 231.8,-825.98 346.42,-812.45 413.49,-797.39"/>
<polygon fill="black" stroke="black" points="414.49,-800.75 423.43,-795.07 412.9,-793.94 414.49,-800.75"/>
</g>
<!-- 6090674640 -->
<g id="node8" class="node">
<title>6090674640</title>
<polygon fill="none" stroke="black" points="723,-754.56 595,-754.56 595,-718.56 723,-718.56 723,-754.56"/>
<text text-anchor="middle" x="659" y="-733.46" font-family="Times,serif" font-size="12.00">Send report for revision</text>
</g>
<!-- 6090759184&#45;&gt;6090674640 -->
<g id="edge11" class="edge">
<title>6090759184&#45;&gt;6090674640</title>
<path fill="none" stroke="black" d="M101.45,-496.12C106.34,-547.66 124.07,-703.59 162,-733.56 194.28,-759.07 454.69,-748.17 584.7,-741"/>
<polygon fill="black" stroke="black" points="585.18,-744.48 594.97,-740.43 584.79,-737.49 585.18,-744.48"/>
</g>
<!-- 6090676368 -->
<g id="node9" class="node">
<title>6090676368</title>
<polygon fill="none" stroke="black" points="309,-724.56 212,-724.56 212,-688.56 309,-688.56 309,-724.56"/>
<text text-anchor="middle" x="260.5" y="-703.46" font-family="Times,serif" font-size="12.00">Send notification</text>
</g>
<!-- 6090759184&#45;&gt;6090676368 -->
<g id="edge16" class="edge">
<title>6090759184&#45;&gt;6090676368</title>
<path fill="none" stroke="black" d="M100.12,-497.11C101.37,-535.81 109.94,-629.07 162,-679.56 172.81,-690.05 187.31,-696.54 201.82,-700.53"/>
<polygon fill="black" stroke="black" points="201.28,-704 211.82,-702.92 202.9,-697.19 201.28,-704"/>
</g>
<!-- 6090677328 -->
<g id="node10" class="node">
<title>6090677328</title>
<polygon fill="none" stroke="black" points="354.5,-670.56 166.5,-670.56 166.5,-634.56 354.5,-634.56 354.5,-670.56"/>
<text text-anchor="middle" x="260.5" y="-649.46" font-family="Times,serif" font-size="12.00">Complete risk assessment/mitigation</text>
</g>
<!-- 6090759184&#45;&gt;6090677328 -->
<g id="edge20" class="edge">
<title>6090759184&#45;&gt;6090677328</title>
<path fill="none" stroke="black" d="M102.23,-495.84C107.24,-526.01 122.24,-590.71 162,-625.56 163.32,-626.72 164.68,-627.82 166.08,-628.88"/>
<polygon fill="black" stroke="black" points="164.23,-631.85 174.51,-634.44 168.09,-626.01 164.23,-631.85"/>
</g>
<!-- 6067172944 -->
<g id="node11" class="node">
<title>6067172944</title>
<polygon fill="none" stroke="black" points="359,-616.56 162,-616.56 162,-580.56 359,-580.56 359,-616.56"/>
<text text-anchor="middle" x="260.5" y="-595.46" font-family="Times,serif" font-size="12.00">Request clarifications of discrepancies</text>
</g>
<!-- 6090759184&#45;&gt;6067172944 -->
<g id="edge17" class="edge">
<title>6090759184&#45;&gt;6067172944</title>
<path fill="none" stroke="black" d="M105.56,-493.38C114.43,-513.64 133.71,-551.19 162,-571.56 163.91,-572.94 165.89,-574.24 167.92,-575.48"/>
<polygon fill="black" stroke="black" points="166.69,-578.8 177.15,-580.5 170.04,-572.65 166.69,-578.8"/>
</g>
<!-- 6067159696 -->
<g id="node12" class="node">
<title>6067159696</title>
<polygon fill="none" stroke="black" points="314.5,-562.56 206.5,-562.56 206.5,-526.56 314.5,-526.56 314.5,-562.56"/>
<text text-anchor="middle" x="260.5" y="-541.46" font-family="Times,serif" font-size="12.00">Close audit process</text>
</g>
<!-- 6090759184&#45;&gt;6067159696 -->
<g id="edge21" class="edge">
<title>6090759184&#45;&gt;6067159696</title>
<path fill="none" stroke="black" d="M113.94,-487.88C126.29,-495.02 144.95,-505.29 162,-512.56 173.01,-517.26 184.96,-521.69 196.59,-525.68"/>
<polygon fill="black" stroke="black" points="195.67,-529.06 206.26,-528.92 197.89,-522.43 195.67,-529.06"/>
</g>
<!-- 6067162832 -->
<g id="node13" class="node">
<title>6067162832</title>
<polygon fill="none" stroke="black" points="929,-548.56 777,-548.56 777,-512.56 929,-512.56 929,-548.56"/>
<text text-anchor="middle" x="853" y="-527.46" font-family="Times,serif" font-size="12.00">Gather necessary documents</text>
</g>
<!-- 6090759184&#45;&gt;6067162832 -->
<g id="edge6" class="edge">
<title>6090759184&#45;&gt;6067162832</title>
<path fill="none" stroke="black" d="M123.25,-481.52C134.89,-482.47 149.18,-483.62 162,-484.56 379.71,-500.6 636.24,-517.06 766.62,-525.25"/>
<polygon fill="black" stroke="black" points="766.73,-528.77 776.93,-525.9 767.17,-521.78 766.73,-528.77"/>
</g>
<!-- 6067173072 -->
<g id="node14" class="node">
<title>6067173072</title>
<polygon fill="none" stroke="black" points="716,-502.56 602,-502.56 602,-466.56 716,-466.56 716,-502.56"/>
<text text-anchor="middle" x="659" y="-481.46" font-family="Times,serif" font-size="12.00">Compile audit report</text>
</g>
<!-- 6090759184&#45;&gt;6067173072 -->
<g id="edge23" class="edge">
<title>6090759184&#45;&gt;6067173072</title>
<path fill="none" stroke="black" d="M125.79,-479.79C208.46,-480.54 468.55,-482.87 591.87,-483.97"/>
<polygon fill="black" stroke="black" points="591.91,-487.47 601.94,-484.06 591.98,-480.47 591.91,-487.47"/>
</g>
<!-- 6067159760 -->
<g id="node15" class="node">
<title>6067159760</title>
<polygon fill="none" stroke="black" points="1093.5,-464.56 984.5,-464.56 984.5,-428.56 1093.5,-428.56 1093.5,-464.56"/>
<text text-anchor="middle" x="1039" y="-443.46" font-family="Times,serif" font-size="12.00">Review submission</text>
</g>
<!-- 6090759184&#45;&gt;6067159760 -->
<g id="edge9" class="edge">
<title>6090759184&#45;&gt;6067159760</title>
<path fill="none" stroke="black" d="M123.55,-477.93C135.13,-477.15 149.29,-476.25 162,-475.56 346.35,-465.62 392.49,-463.77 577,-457.56 718.81,-452.8 885.22,-449.36 974.2,-447.69"/>
<polygon fill="black" stroke="black" points="974.47,-451.19 984.4,-447.5 974.34,-444.19 974.47,-451.19"/>
</g>
<!-- 6067172432 -->
<g id="node16" class="node">
<title>6067172432</title>
<polygon fill="none" stroke="black" points="741,-410.56 577,-410.56 577,-374.56 741,-374.56 741,-410.56"/>
<text text-anchor="middle" x="659" y="-389.46" font-family="Times,serif" font-size="12.00">Review report by audit director</text>
</g>
<!-- 6090759184&#45;&gt;6067172432 -->
<g id="edge14" class="edge">
<title>6090759184&#45;&gt;6067172432</title>
<path fill="none" stroke="black" d="M106.75,-466.71C116.43,-449.83 135.97,-420.9 162,-408.56 291.97,-346.96 463.35,-358.9 566.87,-374.66"/>
<polygon fill="black" stroke="black" points="566.56,-378.15 576.98,-376.24 567.64,-371.24 566.56,-378.15"/>
</g>
<!-- 6067173840 -->
<g id="node17" class="node">
<title>6067173840</title>
<polygon fill="none" stroke="black" points="907.5,-372.56 798.5,-372.56 798.5,-336.56 907.5,-336.56 907.5,-372.56"/>
<text text-anchor="middle" x="853" y="-351.46" font-family="Times,serif" font-size="12.00">Conduct interviews</text>
</g>
<!-- 6090759184&#45;&gt;6067173840 -->
<g id="edge8" class="edge">
<title>6090759184&#45;&gt;6067173840</title>
<path fill="none" stroke="black" d="M102.89,-463.68C108.72,-436.89 124.65,-383.44 162,-360.56 265.61,-297.1 638.21,-330.44 788.5,-347.02"/>
<polygon fill="black" stroke="black" points="788.17,-350.51 798.5,-348.14 788.95,-343.55 788.17,-350.51"/>
</g>
<!-- 6090753744 -->
<g id="node18" class="node">
<title>6090753744</title>
<polygon fill="none" stroke="black" points="1113,-334.56 965,-334.56 965,-298.56 1113,-298.56 1113,-334.56"/>
<text text-anchor="middle" x="1039" y="-313.46" font-family="Times,serif" font-size="12.00">Prepare financial statements</text>
</g>
<!-- 6090759184&#45;&gt;6090753744 -->
<g id="edge13" class="edge">
<title>6090759184&#45;&gt;6090753744</title>
<path fill="none" stroke="black" d="M100.96,-462.73C103.87,-429.49 115.5,-355.78 162,-322.56 217.21,-283.13 399.15,-308.56 467,-308.56 467,-308.56 467,-308.56 660,-308.56 761.45,-308.56 878.19,-311.48 954.77,-313.79"/>
<polygon fill="black" stroke="black" points="954.74,-317.29 964.84,-314.1 954.95,-310.29 954.74,-317.29"/>
</g>
<!-- 6090755984 -->
<g id="node19" class="node">
<title>6090755984</title>
<polygon fill="none" stroke="black" points="541,-280.56 395,-280.56 395,-244.56 541,-244.56 541,-280.56"/>
<text text-anchor="middle" x="468" y="-259.46" font-family="Times,serif" font-size="12.00">Update and resubmit report</text>
</g>
<!-- 6090759184&#45;&gt;6090755984 -->
<g id="edge19" class="edge">
<title>6090759184&#45;&gt;6090755984</title>
<path fill="none" stroke="black" d="M100.04,-462.12C101.16,-424.69 109.55,-336.63 162,-294.56 224.02,-244.82 317.47,-242.22 384.58,-248.69"/>
<polygon fill="black" stroke="black" points="384.38,-252.19 394.7,-249.75 385.12,-245.23 384.38,-252.19"/>
</g>
<!-- 6090758096 -->
<g id="node20" class="node">
<title>6090758096</title>
<polygon fill="none" stroke="black" points="718,-242.56 600,-242.56 600,-206.56 718,-206.56 718,-242.56"/>
<text text-anchor="middle" x="659" y="-221.46" font-family="Times,serif" font-size="12.00">Receive clarifications</text>
</g>
<!-- 6090759184&#45;&gt;6090758096 -->
<g id="edge7" class="edge">
<title>6090759184&#45;&gt;6090758096</title>
<path fill="none" stroke="black" d="M101.77,-463.05C107.43,-413.82 126.75,-269.78 162,-241.56 226.05,-190.29 469.31,-205.89 589.69,-217.25"/>
<polygon fill="black" stroke="black" points="589.61,-220.76 599.9,-218.23 590.28,-213.79 589.61,-220.76"/>
</g>
<!-- 6090760400 -->
<g id="node21" class="node">
<title>6090760400</title>
<polygon fill="none" stroke="black" points="922,-204.56 784,-204.56 784,-168.56 922,-168.56 922,-204.56"/>
<text text-anchor="middle" x="853" y="-183.46" font-family="Times,serif" font-size="12.00">Evaluate operational risks</text>
</g>
<!-- 6090759184&#45;&gt;6090760400 -->
<g id="edge12" class="edge">
<title>6090759184&#45;&gt;6090760400</title>
<path fill="none" stroke="black" d="M101.13,-462.67C105.17,-407.64 120.98,-235.18 162,-201.56 208.29,-163.63 602.6,-175.77 773.52,-182.93"/>
<polygon fill="black" stroke="black" points="773.57,-186.43 783.71,-183.36 773.86,-179.44 773.57,-186.43"/>
</g>
<!-- 6090762256 -->
<g id="node22" class="node">
<title>6090762256</title>
<polygon fill="none" stroke="black" points="1098,-163.56 980,-163.56 980,-127.56 1098,-127.56 1098,-163.56"/>
<text text-anchor="middle" x="1039" y="-142.46" font-family="Times,serif" font-size="12.00">Distribute final report</text>
</g>
<!-- 6090759184&#45;&gt;6090762256 -->
<g id="edge5" class="edge">
<title>6090759184&#45;&gt;6090762256</title>
<path fill="none" stroke="black" d="M100.85,-462.66C104.16,-404.09 118.27,-211.23 162,-171.56 262.92,-80.02 330.75,-140.56 467,-140.56 467,-140.56 467,-140.56 660,-140.56 768.13,-140.56 893.64,-142.63 969.37,-144.11"/>
<polygon fill="black" stroke="black" points="969.66,-147.62 979.72,-144.31 969.79,-140.62 969.66,-147.62"/>
</g>
<!-- 6090763536 -->
<g id="node23" class="node">
<title>6090763536</title>
<polygon fill="none" stroke="black" points="520,-112.56 416,-112.56 416,-76.56 520,-76.56 520,-112.56"/>
<text text-anchor="middle" x="468" y="-91.46" font-family="Times,serif" font-size="12.00">Submit documents</text>
</g>
<!-- 6090759184&#45;&gt;6090763536 -->
<g id="edge10" class="edge">
<title>6090759184&#45;&gt;6090763536</title>
<path fill="none" stroke="black" d="M100.39,-462.49C102.23,-398.33 112.18,-173.04 162,-126.56 226.99,-65.93 336.91,-70.77 405.53,-81.47"/>
<polygon fill="black" stroke="black" points="405.32,-84.98 415.76,-83.16 406.46,-78.08 405.32,-84.98"/>
</g>
<!-- 6090766224 -->
<g id="node24" class="node">
<title>6090766224</title>
<polygon fill="none" stroke="black" points="727.5,-68.56 590.5,-68.56 590.5,-32.56 727.5,-32.56 727.5,-68.56"/>
<text text-anchor="middle" x="659" y="-47.46" font-family="Times,serif" font-size="12.00">Check regulatory updates</text>
</g>
<!-- 6090759184&#45;&gt;6090766224 -->
<g id="edge15" class="edge">
<title>6090759184&#45;&gt;6090766224</title>
<path fill="none" stroke="black" d="M99.86,-461.73C99.68,-390.08 103.07,-124.43 162,-71.56 280.4,34.64 485.86,-1.36 591.32,-29.74"/>
<polygon fill="black" stroke="black" points="590.64,-33.18 601.21,-32.45 592.49,-26.43 590.64,-33.18"/>
</g>
<!-- 6066072336 -->
<g id="node25" class="node">
<title>6066072336</title>
<polygon fill="none" stroke="black" points="468,-1102.56 441,-1084.56 468,-1066.56 495,-1084.56 468,-1102.56"/>
<text text-anchor="middle" x="468" y="-1081.46" font-family="Times,serif" font-size="12.00">X</text>
</g>
<!-- 6066073296&#45;&gt;6066072336 -->
<g id="edge25" class="edge">
<title>6066073296&#45;&gt;6066072336</title>
<path fill="none" stroke="black" d="M280.46,-1035.55C316.63,-1045.05 395.65,-1065.81 438.31,-1077.03"/>
<polygon fill="black" stroke="black" points="437.52,-1080.44 448.08,-1079.59 439.3,-1073.67 437.52,-1080.44"/>
</g>
<!-- 6067173776 -->
<g id="node28" class="node">
<title>6067173776</title>
<polygon fill="none" stroke="black" points="528,-1048.56 408,-1048.56 408,-1012.56 528,-1012.56 528,-1048.56"/>
<text text-anchor="middle" x="468" y="-1027.46" font-family="Times,serif" font-size="12.00">Conduct data analysis</text>
</g>
<!-- 6066073296&#45;&gt;6067173776 -->
<g id="edge24" class="edge">
<title>6066073296&#45;&gt;6067173776</title>
<path fill="none" stroke="black" d="M287.53,-1030.56C314.97,-1030.56 359.38,-1030.56 397.16,-1030.56"/>
<polygon fill="black" stroke="black" points="397.62,-1034.06 407.62,-1030.56 397.62,-1027.06 397.62,-1034.06"/>
</g>
<!-- 6090681168 -->
<g id="node26" class="node">
<title>6090681168</title>
<polygon fill="none" stroke="black" points="468,-968.56 441,-950.56 468,-932.56 495,-950.56 468,-968.56"/>
<text text-anchor="middle" x="468" y="-947.46" font-family="Times,serif" font-size="12.00">X</text>
</g>
<!-- 6090680976&#45;&gt;6090681168 -->
<g id="edge27" class="edge">
<title>6090680976&#45;&gt;6090681168</title>
<path fill="none" stroke="black" d="M281.96,-916.35C318.27,-923.06 394.16,-937.09 436.6,-944.94"/>
<polygon fill="black" stroke="black" points="436.16,-948.42 446.63,-946.8 437.43,-941.54 436.16,-948.42"/>
</g>
<!-- 6090678672 -->
<g id="node27" class="node">
<title>6090678672</title>
<polygon fill="none" stroke="black" points="923,-946.56 783,-946.56 783,-910.56 923,-910.56 923,-946.56"/>
<text text-anchor="middle" x="853" y="-925.46" font-family="Times,serif" font-size="12.00">Evaluate compliance risks</text>
</g>
<!-- 6090680976&#45;&gt;6090678672 -->
<g id="edge26" class="edge">
<title>6090680976&#45;&gt;6090678672</title>
<path fill="none" stroke="black" d="M286.5,-913.24C369.35,-915.49 637.33,-922.75 772.5,-926.41"/>
<polygon fill="black" stroke="black" points="772.69,-929.92 782.78,-926.69 772.88,-922.92 772.69,-929.92"/>
</g>
<!-- 6090752656 -->
<g id="node29" class="node">
<title>6090752656</title>
<polygon fill="none" stroke="black" points="1176,-529.56 1149,-511.56 1176,-493.56 1203,-511.56 1176,-529.56"/>
<text text-anchor="middle" x="1176" y="-508.46" font-family="Times,serif" font-size="12.00">+</text>
</g>
<!-- 6090736656&#45;&gt;6090752656 -->
<g id="edge28" class="edge">
<title>6090736656&#45;&gt;6090752656</title>
<path fill="none" stroke="black" d="M896.31,-885.61C953.15,-897.66 1053.85,-908.8 1113,-855.56 1159.87,-813.38 1171.5,-612.96 1174.22,-539.04"/>
<polygon fill="black" stroke="black" points="1177.73,-538.8 1174.57,-528.69 1170.73,-538.57 1177.73,-538.8"/>
</g>
<!-- 6090683856&#45;&gt;6090752656 -->
<g id="edge29" class="edge">
<title>6090683856&#45;&gt;6090752656</title>
<path fill="none" stroke="black" d="M1089.52,-814.49C1098.39,-810.01 1106.78,-804.17 1113,-796.56 1145.53,-756.83 1165.43,-601.16 1172.3,-538.2"/>
<polygon fill="black" stroke="black" points="1175.81,-538.23 1173.39,-527.91 1168.85,-537.48 1175.81,-538.23"/>
</g>
<!-- 6090685392&#45;&gt;6090752656 -->
<g id="edge30" class="edge">
<title>6090685392&#45;&gt;6090752656</title>
<path fill="none" stroke="black" d="M512.9,-785.81C643,-794.46 1022.99,-812.49 1113,-735.56 1143.2,-709.75 1163.63,-591.09 1171.44,-537.71"/>
<polygon fill="black" stroke="black" points="1174.93,-538.06 1172.88,-527.66 1168,-537.07 1174.93,-538.06"/>
</g>
<!-- 6090674640&#45;&gt;6090752656 -->
<g id="edge31" class="edge">
<title>6090674640&#45;&gt;6090752656</title>
<path fill="none" stroke="black" d="M723.05,-740.5C833.08,-746.03 1054.07,-750.8 1113,-704.56 1163.92,-664.61 1173.68,-582.45 1175.13,-539.35"/>
<polygon fill="black" stroke="black" points="1178.63,-539.36 1175.35,-529.28 1171.64,-539.21 1178.63,-539.36"/>
</g>
<!-- 6090676368&#45;&gt;6090752656 -->
<g id="edge32" class="edge">
<title>6090676368&#45;&gt;6090752656</title>
<path fill="none" stroke="black" d="M309.08,-703.4C383.49,-698.74 531.93,-690.56 658,-690.56 658,-690.56 658,-690.56 854,-690.56 971.24,-690.56 1020.15,-712.14 1113,-640.56 1146.3,-614.89 1162.67,-566.79 1169.94,-537.13"/>
<polygon fill="black" stroke="black" points="1173.41,-537.64 1172.22,-527.12 1166.58,-536.09 1173.41,-537.64"/>
</g>
<!-- 6090677328&#45;&gt;6090752656 -->
<g id="edge33" class="edge">
<title>6090677328&#45;&gt;6090752656</title>
<path fill="none" stroke="black" d="M354.83,-652.56C435.18,-652.56 554.23,-652.56 658,-652.56 658,-652.56 658,-652.56 854,-652.56 971.32,-652.56 1014.93,-665.96 1113,-601.56 1137.78,-585.29 1155.41,-555.35 1165.38,-534.49"/>
<polygon fill="black" stroke="black" points="1168.59,-535.91 1169.55,-525.36 1162.22,-533.01 1168.59,-535.91"/>
</g>
<!-- 6067172944&#45;&gt;6090752656 -->
<g id="edge34" class="edge">
<title>6067172944&#45;&gt;6090752656</title>
<path fill="none" stroke="black" d="M359.22,-604.7C439.45,-609.22 556.04,-614.56 658,-614.56 658,-614.56 658,-614.56 854,-614.56 971.24,-614.56 1007.38,-615.45 1113,-564.56 1130.21,-556.27 1146.49,-542.01 1158.05,-530.36"/>
<polygon fill="black" stroke="black" points="1160.87,-532.47 1165.25,-522.83 1155.81,-527.64 1160.87,-532.47"/>
</g>
<!-- 6067159696&#45;&gt;6090752656 -->
<g id="edge35" class="edge">
<title>6067159696&#45;&gt;6090752656</title>
<path fill="none" stroke="black" d="M314.62,-551.59C390.59,-561.01 534.73,-576.56 658,-576.56 658,-576.56 658,-576.56 854,-576.56 970.69,-576.56 1000.02,-562.74 1113,-533.56 1125.11,-530.44 1138.2,-525.96 1149.22,-521.86"/>
<polygon fill="black" stroke="black" points="1150.57,-525.09 1158.67,-518.25 1148.08,-518.55 1150.57,-525.09"/>
</g>
<!-- 6067162832&#45;&gt;6090752656 -->
<g id="edge36" class="edge">
<title>6067162832&#45;&gt;6090752656</title>
<path fill="none" stroke="black" d="M929.26,-526.11C996.07,-522.15 1090.65,-516.56 1140.75,-513.59"/>
<polygon fill="black" stroke="black" points="1141.26,-517.07 1151.03,-512.98 1140.84,-510.08 1141.26,-517.07"/>
</g>
<!-- 6067173072&#45;&gt;6090752656 -->
<g id="edge37" class="edge">
<title>6067173072&#45;&gt;6090752656</title>
<path fill="none" stroke="black" d="M716.09,-487.5C823.08,-493.11 1053.39,-505.19 1140.59,-509.76"/>
<polygon fill="black" stroke="black" points="1140.56,-513.26 1150.73,-510.29 1140.93,-506.27 1140.56,-513.26"/>
</g>
<!-- 6067159760&#45;&gt;6090752656 -->
<g id="edge38" class="edge">
<title>6067159760&#45;&gt;6090752656</title>
<path fill="none" stroke="black" d="M1082.71,-464.64C1092.72,-469.05 1103.29,-473.86 1113,-478.56 1125.95,-484.83 1140.13,-492.33 1151.65,-498.6"/>
<polygon fill="black" stroke="black" points="1150.18,-501.78 1160.63,-503.51 1153.54,-495.64 1150.18,-501.78"/>
</g>
<!-- 6067172432&#45;&gt;6090752656 -->
<g id="edge39" class="edge">
<title>6067172432&#45;&gt;6090752656</title>
<path fill="none" stroke="black" d="M741.2,-388.95C854.14,-385.34 1051.68,-384.56 1113,-419.56 1139.4,-434.63 1156.81,-466.09 1166.29,-488"/>
<polygon fill="black" stroke="black" points="1163.06,-489.37 1170.08,-497.3 1169.55,-486.72 1163.06,-489.37"/>
</g>
<!-- 6067173840&#45;&gt;6090752656 -->
<g id="edge40" class="edge">
<title>6067173840&#45;&gt;6090752656</title>
<path fill="none" stroke="black" d="M907.6,-347.28C963.95,-342.56 1052.66,-343.79 1113,-386.56 1146.27,-410.14 1162.59,-456.76 1169.87,-485.92"/>
<polygon fill="black" stroke="black" points="1166.49,-486.85 1172.16,-495.8 1173.31,-485.27 1166.49,-486.85"/>
</g>
<!-- 6090753744&#45;&gt;6090752656 -->
<g id="edge41" class="edge">
<title>6090753744&#45;&gt;6090752656</title>
<path fill="none" stroke="black" d="M1094.64,-334.57C1101.39,-338.43 1107.75,-343.05 1113,-348.56 1149.88,-387.32 1165.39,-450.24 1171.46,-485.5"/>
<polygon fill="black" stroke="black" points="1168.02,-486.17 1173.05,-495.49 1174.93,-485.07 1168.02,-486.17"/>
</g>
<!-- 6090755984&#45;&gt;6090752656 -->
<g id="edge42" class="edge">
<title>6090755984&#45;&gt;6090752656</title>
<path fill="none" stroke="black" d="M541.08,-260.9C699.83,-257.89 1069.1,-254.77 1113,-289.56 1143.88,-314.04 1163.94,-432.23 1171.55,-485.47"/>
<polygon fill="black" stroke="black" points="1168.1,-486.07 1172.95,-495.5 1175.04,-485.11 1168.1,-486.07"/>
</g>
<!-- 6090758096&#45;&gt;6090752656 -->
<g id="edge43" class="edge">
<title>6090758096&#45;&gt;6090752656</title>
<path fill="none" stroke="black" d="M718.24,-220.5C826.92,-214.21 1054.88,-207.47 1113,-256.56 1147.9,-286.04 1166.16,-425.79 1172.44,-484.98"/>
<polygon fill="black" stroke="black" points="1168.97,-485.46 1173.48,-495.05 1175.94,-484.74 1168.97,-485.46"/>
</g>
<!-- 6090760400&#45;&gt;6090752656 -->
<g id="edge44" class="edge">
<title>6090760400&#45;&gt;6090752656</title>
<path fill="none" stroke="black" d="M922.1,-175.09C980.2,-169.44 1062.18,-171.92 1113,-218.56 1152.02,-254.38 1168.2,-418.73 1173.18,-484.37"/>
<polygon fill="black" stroke="black" points="1169.72,-485.01 1173.93,-494.73 1176.7,-484.5 1169.72,-485.01"/>
</g>
<!-- 6090762256&#45;&gt;6090752656 -->
<g id="edge45" class="edge">
<title>6090762256&#45;&gt;6090752656</title>
<path fill="none" stroke="black" d="M1094.54,-163.62C1101.56,-167.91 1108.03,-173.16 1113,-179.56 1150.1,-227.39 1167.68,-414 1173.1,-484.44"/>
<polygon fill="black" stroke="black" points="1169.63,-485 1173.87,-494.71 1176.61,-484.48 1169.63,-485"/>
</g>
<!-- 6090763536&#45;&gt;6090752656 -->
<g id="edge46" class="edge">
<title>6090763536&#45;&gt;6090752656</title>
<path fill="none" stroke="black" d="M520.17,-92.82C664.82,-88.38 1069.12,-79.62 1113,-118.56 1167.4,-166.84 1174.26,-401.64 1174.97,-483.42"/>
<polygon fill="black" stroke="black" points="1171.48,-483.93 1175.04,-493.9 1178.48,-483.88 1171.48,-483.93"/>
</g>
<!-- 6090766224&#45;&gt;6090752656 -->
<g id="edge47" class="edge">
<title>6090766224&#45;&gt;6090752656</title>
<path fill="none" stroke="black" d="M726.99,-32.53C825.39,-10.51 1008.63,12.82 1113,-84.56 1171.3,-138.96 1175.51,-398.19 1175.28,-483.95"/>
<polygon fill="black" stroke="black" points="1171.78,-483.95 1175.23,-493.97 1178.78,-483.99 1171.78,-483.95"/>
</g>
<!-- 6067165520 -->
<g id="node32" class="node">
<title>6067165520</title>
<polygon fill="none" stroke="black" points="736.5,-1140.56 581.5,-1140.56 581.5,-1104.56 736.5,-1104.56 736.5,-1140.56"/>
<text text-anchor="middle" x="659" y="-1119.46" font-family="Times,serif" font-size="12.00">Launch detailed investigation</text>
</g>
<!-- 6066072336&#45;&gt;6067165520 -->
<g id="edge48" class="edge">
<title>6066072336&#45;&gt;6067165520</title>
<path fill="none" stroke="black" d="M489.23,-1088.63C509.08,-1092.62 540.74,-1098.99 571.3,-1105.13"/>
<polygon fill="black" stroke="black" points="570.68,-1108.58 581.17,-1107.12 572.06,-1101.71 570.68,-1108.58"/>
</g>
<!-- 6090758608 -->
<g id="node33" class="node">
<title>6090758608</title>
<polygon fill="none" stroke="black" points="722,-1006.56 596,-1006.56 596,-970.56 722,-970.56 722,-1006.56"/>
<text text-anchor="middle" x="659" y="-985.46" font-family="Times,serif" font-size="12.00">Evaluate financial risks</text>
</g>
<!-- 6090681168&#45;&gt;6090758608 -->
<g id="edge49" class="edge">
<title>6090681168&#45;&gt;6090758608</title>
<path fill="none" stroke="black" d="M489.23,-954.63C512.19,-959.25 550.98,-967.05 585.58,-974"/>
<polygon fill="black" stroke="black" points="585.19,-977.49 595.68,-976.03 586.57,-970.63 585.19,-977.49"/>
</g>
<!-- 6057386832 -->
<g id="node31" class="node">
<title>6057386832</title>
<polygon fill="none" stroke="black" points="1039,-946.56 1012,-928.56 1039,-910.56 1066,-928.56 1039,-946.56"/>
<text text-anchor="middle" x="1039" y="-925.46" font-family="Times,serif" font-size="12.00">X</text>
</g>
<!-- 6090678672&#45;&gt;6057386832 -->
<g id="edge50" class="edge">
<title>6090678672&#45;&gt;6057386832</title>
<path fill="none" stroke="black" d="M923.04,-928.56C949.8,-928.56 979.33,-928.56 1001.76,-928.56"/>
<polygon fill="black" stroke="black" points="1001.84,-932.06 1011.84,-928.56 1001.84,-925.06 1001.84,-932.06"/>
</g>
<!-- 6066074448 -->
<g id="node30" class="node">
<title>6066074448</title>
<polygon fill="none" stroke="black" points="1039,-1052.56 1012,-1034.56 1039,-1016.56 1066,-1034.56 1039,-1052.56"/>
<text text-anchor="middle" x="1039" y="-1031.46" font-family="Times,serif" font-size="12.00">X</text>
</g>
<!-- 6067173776&#45;&gt;6066074448 -->
<g id="edge51" class="edge">
<title>6067173776&#45;&gt;6066074448</title>
<path fill="none" stroke="black" d="M528.02,-1030.98C645.71,-1031.81 906.49,-1033.64 1002.02,-1034.31"/>
<polygon fill="black" stroke="black" points="1002.03,-1037.81 1012.05,-1034.38 1002.08,-1030.81 1002.03,-1037.81"/>
</g>
<!-- 6090976976 -->
<g id="node36" class="node">
<title>6090976976</title>
<ellipse fill="orange" stroke="black" cx="1257" cy="-511.56" rx="18" ry="18"/>
</g>
<!-- 6090752656&#45;&gt;6090976976 -->
<g id="edge52" class="edge">
<title>6090752656&#45;&gt;6090976976</title>
<path fill="none" stroke="black" d="M1203.31,-511.56C1211.42,-511.56 1220.37,-511.56 1228.56,-511.56"/>
<polygon fill="black" stroke="black" points="1228.75,-515.06 1238.75,-511.56 1228.75,-508.06 1228.75,-515.06"/>
</g>
<!-- 6066074448&#45;&gt;6090752656 -->
<g id="edge53" class="edge">
<title>6066074448&#45;&gt;6090752656</title>
<path fill="none" stroke="black" d="M1052.52,-1025.17C1069.37,-1011.77 1098.85,-985.44 1113,-955.56 1148.51,-880.6 1167.87,-622.65 1173.36,-538.41"/>
<polygon fill="black" stroke="black" points="1176.85,-538.57 1174,-528.36 1169.87,-538.12 1176.85,-538.57"/>
</g>
<!-- 6057386832&#45;&gt;6090752656 -->
<g id="edge54" class="edge">
<title>6057386832&#45;&gt;6090752656</title>
<path fill="none" stroke="black" d="M1058.75,-923.44C1075.71,-917.79 1099.97,-906.96 1113,-888.56 1153.1,-831.94 1169.07,-616.08 1173.56,-539.07"/>
<polygon fill="black" stroke="black" points="1177.08,-538.93 1174.14,-528.75 1170.09,-538.53 1177.08,-538.93"/>
</g>
<!-- 6057385744 -->
<g id="node35" class="node">
<title>6057385744</title>
<polygon fill="none" stroke="black" points="853,-1098.56 826,-1080.56 853,-1062.56 880,-1080.56 853,-1098.56"/>
<text text-anchor="middle" x="853" y="-1077.46" font-family="Times,serif" font-size="12.00">X</text>
</g>
<!-- 6067165520&#45;&gt;6057385744 -->
<g id="edge55" class="edge">
<title>6067165520&#45;&gt;6057385744</title>
<path fill="none" stroke="black" d="M736.71,-1105.78C766.78,-1099.2 799.49,-1092.05 822.36,-1087.05"/>
<polygon fill="black" stroke="black" points="823.11,-1090.47 832.13,-1084.91 821.61,-1083.63 823.11,-1090.47"/>
</g>
<!-- 6090897872 -->
<g id="node34" class="node">
<title>6090897872</title>
<polygon fill="none" stroke="black" points="853,-1000.56 826,-982.56 853,-964.56 880,-982.56 853,-1000.56"/>
<text text-anchor="middle" x="853" y="-979.46" font-family="Times,serif" font-size="12.00">X</text>
</g>
<!-- 6090758608&#45;&gt;6090897872 -->
<g id="edge56" class="edge">
<title>6090758608&#45;&gt;6090897872</title>
<path fill="none" stroke="black" d="M722.07,-986.62C753.46,-985.64 790.41,-984.49 816.86,-983.66"/>
<polygon fill="black" stroke="black" points="817.27,-987.15 827.16,-983.34 817.05,-980.15 817.27,-987.15"/>
</g>
<!-- 6090897872&#45;&gt;6090681168 -->
<g id="edge57" class="edge">
<title>6090897872&#45;&gt;6090681168</title>
<path fill="none" stroke="black" d="M832.48,-977.97C810.42,-972.99 773.35,-965.26 741,-961.56 656.88,-951.96 557.28,-950.41 505.07,-950.35"/>
<polygon fill="black" stroke="black" points="504.97,-946.85 494.97,-950.35 504.98,-953.85 504.97,-946.85"/>
</g>
<!-- 6090897872&#45;&gt;6057386832 -->
<g id="edge59" class="edge">
<title>6090897872&#45;&gt;6057386832</title>
<path fill="none" stroke="black" d="M872.32,-977.19C904.55,-967.73 971.63,-948.04 1009.81,-936.84"/>
<polygon fill="black" stroke="black" points="1011.15,-940.09 1019.76,-933.92 1009.18,-933.37 1011.15,-940.09"/>
</g>
<!-- 6057385744&#45;&gt;6066072336 -->
<g id="edge58" class="edge">
<title>6057385744&#45;&gt;6066072336</title>
<path fill="none" stroke="black" d="M826.39,-1080.83C759.88,-1081.53 581.52,-1083.39 504.85,-1084.19"/>
<polygon fill="black" stroke="black" points="504.69,-1080.69 494.72,-1084.29 504.76,-1087.69 504.69,-1080.69"/>
</g>
<!-- 6057385744&#45;&gt;6066074448 -->
<g id="edge60" class="edge">
<title>6057385744&#45;&gt;6066074448</title>
<path fill="none" stroke="black" d="M873,-1075.81C905.23,-1067.76 970.81,-1051.36 1008.87,-1041.84"/>
<polygon fill="black" stroke="black" points="1009.98,-1045.18 1018.83,-1039.36 1008.28,-1038.39 1009.98,-1045.18"/>
</g>
</g>
</svg>
