<?xml version="1.0" encoding="UTF-8" standalone="no"?>
<!DOCTYPE svg PUBLIC "-//W3C//DTD SVG 1.1//EN"
 "http://www.w3.org/Graphics/SVG/1.1/DTD/svg11.dtd">
<!-- Generated by graphviz version 2.50.0 (0)
 -->
<!-- Pages: 1 -->
<svg width="3804pt" height="258pt"
 viewBox="0.00 0.00 3804.00 258.00" xmlns="http://www.w3.org/2000/svg" xmlns:xlink="http://www.w3.org/1999/xlink">
<g id="graph0" class="graph" transform="scale(1 1) rotate(0) translate(4 254)">
<polygon fill="white" stroke="transparent" points="-4,4 -4,-254 3800,-254 3800,4 -4,4"/>
<!-- 12970592784 -->
<g id="node1" class="node">
<title>12970592784</title>
<ellipse fill="green" stroke="black" cx="18" cy="-93" rx="18" ry="18"/>
</g>
<!-- 12972164752 -->
<g id="node2" class="node">
<title>12972164752</title>
<polygon fill="none" stroke="black" points="99,-111 72,-93 99,-75 126,-93 99,-111"/>
<text text-anchor="middle" x="99" y="-89.9" font-family="Times,serif" font-size="12.00">X</text>
</g>
<!-- 12970592784&#45;&gt;12972164752 -->
<g id="edge1" class="edge">
<title>12970592784&#45;&gt;12972164752</title>
<path fill="none" stroke="black" d="M36.14,-93C43.64,-93 52.75,-93 61.64,-93"/>
<polygon fill="black" stroke="black" points="61.87,-96.5 71.87,-93 61.87,-89.5 61.87,-96.5"/>
</g>
<!-- 12970597200 -->
<g id="node3" class="node">
<title>12970597200</title>
<polygon fill="none" stroke="black" points="322,-111 295,-93 322,-75 349,-93 322,-111"/>
<text text-anchor="middle" x="322" y="-89.9" font-family="Times,serif" font-size="12.00">X</text>
</g>
<!-- 12972164752&#45;&gt;12970597200 -->
<g id="edge2" class="edge">
<title>12972164752&#45;&gt;12970597200</title>
<path fill="none" stroke="black" d="M123.24,-94.86C134.87,-95.69 149.17,-96.59 162,-97 205.09,-98.39 215.91,-98.39 259,-97 268.32,-96.7 278.42,-96.15 287.7,-95.54"/>
<polygon fill="black" stroke="black" points="288.02,-99.03 297.76,-94.86 287.54,-92.05 288.02,-99.03"/>
</g>
<!-- 12969909456 -->
<g id="node4" class="node">
<title>12969909456</title>
<polygon fill="none" stroke="black" points="259,-88 162,-88 162,-52 259,-52 259,-88"/>
<text text-anchor="middle" x="210.5" y="-66.9" font-family="Times,serif" font-size="12.00">Send notification</text>
</g>
<!-- 12972164752&#45;&gt;12969909456 -->
<g id="edge3" class="edge">
<title>12972164752&#45;&gt;12969909456</title>
<path fill="none" stroke="black" d="M119.83,-88.83C128.89,-86.93 140.13,-84.57 151.56,-82.17"/>
<polygon fill="black" stroke="black" points="152.54,-85.54 161.6,-80.06 151.1,-78.69 152.54,-85.54"/>
</g>
<!-- 13094890960 -->
<g id="node5" class="node">
<title>13094890960</title>
<polygon fill="none" stroke="black" points="482,-111 385,-111 385,-75 482,-75 482,-111"/>
<text text-anchor="middle" x="433.5" y="-89.9" font-family="Times,serif" font-size="12.00">Send notification</text>
</g>
<!-- 12970597200&#45;&gt;13094890960 -->
<g id="edge5" class="edge">
<title>12970597200&#45;&gt;13094890960</title>
<path fill="none" stroke="black" d="M349.23,-93C356.95,-93 365.72,-93 374.61,-93"/>
<polygon fill="black" stroke="black" points="374.64,-96.5 384.64,-93 374.64,-89.5 374.64,-96.5"/>
</g>
<!-- 12969909456&#45;&gt;12970597200 -->
<g id="edge4" class="edge">
<title>12969909456&#45;&gt;12970597200</title>
<path fill="none" stroke="black" d="M259.21,-80.02C270.04,-82.3 281.25,-84.65 291.1,-86.72"/>
<polygon fill="black" stroke="black" points="290.66,-90.2 301.17,-88.83 292.1,-83.35 290.66,-90.2"/>
</g>
<!-- 12969907792 -->
<g id="node6" class="node">
<title>12969907792</title>
<polygon fill="none" stroke="black" points="666,-111 518,-111 518,-75 666,-75 666,-111"/>
<text text-anchor="middle" x="592" y="-89.9" font-family="Times,serif" font-size="12.00">Prepare financial statements</text>
</g>
<!-- 13094890960&#45;&gt;12969907792 -->
<g id="edge6" class="edge">
<title>13094890960&#45;&gt;12969907792</title>
<path fill="none" stroke="black" d="M482.31,-93C490.38,-93 498.97,-93 507.64,-93"/>
<polygon fill="black" stroke="black" points="507.84,-96.5 517.84,-93 507.84,-89.5 507.84,-96.5"/>
</g>
<!-- 12969903120 -->
<g id="node7" class="node">
<title>12969903120</title>
<polygon fill="none" stroke="black" points="854,-111 702,-111 702,-75 854,-75 854,-111"/>
<text text-anchor="middle" x="778" y="-89.9" font-family="Times,serif" font-size="12.00">Gather necessary documents</text>
</g>
<!-- 12969907792&#45;&gt;12969903120 -->
<g id="edge7" class="edge">
<title>12969907792&#45;&gt;12969903120</title>
<path fill="none" stroke="black" d="M666.25,-93C674.68,-93 683.33,-93 691.89,-93"/>
<polygon fill="black" stroke="black" points="691.89,-96.5 701.89,-93 691.89,-89.5 691.89,-96.5"/>
</g>
<!-- 12969903888 -->
<g id="node8" class="node">
<title>12969903888</title>
<polygon fill="none" stroke="black" points="994,-111 890,-111 890,-75 994,-75 994,-111"/>
<text text-anchor="middle" x="942" y="-89.9" font-family="Times,serif" font-size="12.00">Submit documents</text>
</g>
<!-- 12969903120&#45;&gt;12969903888 -->
<g id="edge8" class="edge">
<title>12969903120&#45;&gt;12969903888</title>
<path fill="none" stroke="black" d="M854.31,-93C862.89,-93 871.55,-93 879.91,-93"/>
<polygon fill="black" stroke="black" points="879.93,-96.5 889.93,-93 879.93,-89.5 879.93,-96.5"/>
</g>
<!-- 12969903504 -->
<g id="node9" class="node">
<title>12969903504</title>
<polygon fill="none" stroke="black" points="1057,-111 1030,-93 1057,-75 1084,-93 1057,-111"/>
<text text-anchor="middle" x="1057" y="-89.9" font-family="Times,serif" font-size="12.00">+</text>
</g>
<!-- 12969903888&#45;&gt;12969903504 -->
<g id="edge9" class="edge">
<title>12969903888&#45;&gt;12969903504</title>
<path fill="none" stroke="black" d="M994.21,-93C1002.82,-93 1011.59,-93 1019.72,-93"/>
<polygon fill="black" stroke="black" points="1019.97,-96.5 1029.97,-93 1019.97,-89.5 1019.97,-96.5"/>
</g>
<!-- 12972166288 -->
<g id="node10" class="node">
<title>12972166288</title>
<polygon fill="none" stroke="black" points="1231,-138 1127,-138 1127,-102 1231,-102 1231,-138"/>
<text text-anchor="middle" x="1179" y="-116.9" font-family="Times,serif" font-size="12.00">Submit documents</text>
</g>
<!-- 12969903504&#45;&gt;12972166288 -->
<g id="edge11" class="edge">
<title>12969903504&#45;&gt;12972166288</title>
<path fill="none" stroke="black" d="M1077.55,-97.4C1088.45,-99.85 1102.68,-103.05 1116.99,-106.27"/>
<polygon fill="black" stroke="black" points="1116.35,-109.72 1126.87,-108.5 1117.88,-102.89 1116.35,-109.72"/>
</g>
<!-- 12972178384 -->
<g id="node11" class="node">
<title>12972178384</title>
<polygon fill="none" stroke="black" points="1238,-84 1120,-84 1120,-48 1238,-48 1238,-84"/>
<text text-anchor="middle" x="1179" y="-62.9" font-family="Times,serif" font-size="12.00">Receive clarifications</text>
</g>
<!-- 12969903504&#45;&gt;12972178384 -->
<g id="edge10" class="edge">
<title>12969903504&#45;&gt;12972178384</title>
<path fill="none" stroke="black" d="M1077.55,-88.6C1086.63,-86.56 1098.02,-84 1109.84,-81.33"/>
<polygon fill="black" stroke="black" points="1110.85,-84.7 1119.84,-79.09 1109.31,-77.87 1110.85,-84.7"/>
</g>
<!-- 12969915920 -->
<g id="node12" class="node">
<title>12969915920</title>
<polygon fill="none" stroke="black" points="1383,-138 1274,-138 1274,-102 1383,-102 1383,-138"/>
<text text-anchor="middle" x="1328.5" y="-116.9" font-family="Times,serif" font-size="12.00">Review submission</text>
</g>
<!-- 12972166288&#45;&gt;12969915920 -->
<g id="edge12" class="edge">
<title>12972166288&#45;&gt;12969915920</title>
<path fill="none" stroke="black" d="M1231.17,-120C1241.64,-120 1252.78,-120 1263.63,-120"/>
<polygon fill="black" stroke="black" points="1263.91,-123.5 1273.91,-120 1263.91,-116.5 1263.91,-123.5"/>
</g>
<!-- 12969917968 -->
<g id="node13" class="node">
<title>12969917968</title>
<polygon fill="none" stroke="black" points="1627,-84 1419,-84 1419,-48 1627,-48 1627,-84"/>
<text text-anchor="middle" x="1523" y="-62.9" font-family="Times,serif" font-size="12.00">Complete risk assessment and mitigation</text>
</g>
<!-- 12972178384&#45;&gt;12969917968 -->
<g id="edge13" class="edge">
<title>12972178384&#45;&gt;12969917968</title>
<path fill="none" stroke="black" d="M1238.02,-66C1284.58,-66 1351.37,-66 1408.48,-66"/>
<polygon fill="black" stroke="black" points="1408.66,-69.5 1418.66,-66 1408.66,-62.5 1408.66,-69.5"/>
</g>
<!-- 13094889232 -->
<g id="node15" class="node">
<title>13094889232</title>
<polygon fill="none" stroke="black" points="1621.5,-138 1424.5,-138 1424.5,-102 1621.5,-102 1621.5,-138"/>
<text text-anchor="middle" x="1523" y="-116.9" font-family="Times,serif" font-size="12.00">Request clarifications of discrepancies</text>
</g>
<!-- 12969915920&#45;&gt;13094889232 -->
<g id="edge14" class="edge">
<title>12969915920&#45;&gt;13094889232</title>
<path fill="none" stroke="black" d="M1383.12,-120C1392.9,-120 1403.42,-120 1414.13,-120"/>
<polygon fill="black" stroke="black" points="1414.44,-123.5 1424.44,-120 1414.44,-116.5 1414.44,-123.5"/>
</g>
<!-- 12967874064 -->
<g id="node14" class="node">
<title>12967874064</title>
<polygon fill="none" stroke="black" points="1690,-111 1663,-93 1690,-75 1717,-93 1690,-111"/>
<text text-anchor="middle" x="1690" y="-89.9" font-family="Times,serif" font-size="12.00">+</text>
</g>
<!-- 12969917968&#45;&gt;12967874064 -->
<g id="edge15" class="edge">
<title>12969917968&#45;&gt;12967874064</title>
<path fill="none" stroke="black" d="M1627.09,-82.87C1638.23,-84.69 1648.84,-86.43 1658.03,-87.93"/>
<polygon fill="black" stroke="black" points="1657.67,-91.42 1668.11,-89.58 1658.8,-84.51 1657.67,-91.42"/>
</g>
<!-- 12967873424 -->
<g id="node16" class="node">
<title>12967873424</title>
<polygon fill="none" stroke="black" points="1961,-111 1753,-111 1753,-75 1961,-75 1961,-111"/>
<text text-anchor="middle" x="1857" y="-89.9" font-family="Times,serif" font-size="12.00">Complete risk assessment and mitigation</text>
</g>
<!-- 12967874064&#45;&gt;12967873424 -->
<g id="edge17" class="edge">
<title>12967874064&#45;&gt;12967873424</title>
<path fill="none" stroke="black" d="M1717.14,-93C1724.62,-93 1733.27,-93 1742.54,-93"/>
<polygon fill="black" stroke="black" points="1742.81,-96.5 1752.81,-93 1742.81,-89.5 1742.81,-96.5"/>
</g>
<!-- 13094889232&#45;&gt;12967874064 -->
<g id="edge16" class="edge">
<title>13094889232&#45;&gt;12967874064</title>
<path fill="none" stroke="black" d="M1621.89,-103.98C1634.9,-101.85 1647.38,-99.81 1657.98,-98.08"/>
<polygon fill="black" stroke="black" points="1658.59,-101.52 1667.89,-96.45 1657.46,-94.61 1658.59,-101.52"/>
</g>
<!-- 12967879184 -->
<g id="node17" class="node">
<title>12967879184</title>
<polygon fill="none" stroke="black" points="2024,-111 1997,-93 2024,-75 2051,-93 2024,-111"/>
<text text-anchor="middle" x="2024" y="-89.9" font-family="Times,serif" font-size="12.00">+</text>
</g>
<!-- 12967873424&#45;&gt;12967879184 -->
<g id="edge18" class="edge">
<title>12967873424&#45;&gt;12967879184</title>
<path fill="none" stroke="black" d="M1961.09,-93C1970.14,-93 1978.83,-93 1986.7,-93"/>
<polygon fill="black" stroke="black" points="1986.87,-96.5 1996.87,-93 1986.87,-89.5 1986.87,-96.5"/>
</g>
<!-- 12967874960 -->
<g id="node18" class="node">
<title>12967874960</title>
<polygon fill="none" stroke="black" points="2226,-165 2088,-165 2088,-129 2226,-129 2226,-165"/>
<text text-anchor="middle" x="2157" y="-143.9" font-family="Times,serif" font-size="12.00">Evaluate operational risks</text>
</g>
<!-- 12967879184&#45;&gt;12967874960 -->
<g id="edge20" class="edge">
<title>12967879184&#45;&gt;12967874960</title>
<path fill="none" stroke="black" d="M2040.73,-100.05C2053.22,-105.59 2071.16,-113.45 2087,-120 2091.12,-121.7 2095.4,-123.44 2099.7,-125.17"/>
<polygon fill="black" stroke="black" points="2098.55,-128.48 2109.14,-128.94 2101.15,-121.98 2098.55,-128.48"/>
</g>
<!-- 12967873168 -->
<g id="node19" class="node">
<title>12967873168</title>
<polygon fill="none" stroke="black" points="2227,-111 2087,-111 2087,-75 2227,-75 2227,-111"/>
<text text-anchor="middle" x="2157" y="-89.9" font-family="Times,serif" font-size="12.00">Evaluate compliance risks</text>
</g>
<!-- 12967879184&#45;&gt;12967873168 -->
<g id="edge19" class="edge">
<title>12967879184&#45;&gt;12967873168</title>
<path fill="none" stroke="black" d="M2051.19,-93C2058.87,-93 2067.69,-93 2076.89,-93"/>
<polygon fill="black" stroke="black" points="2076.97,-96.5 2086.97,-93 2076.97,-89.5 2076.97,-96.5"/>
</g>
<!-- 13094887248 -->
<g id="node20" class="node">
<title>13094887248</title>
<polygon fill="none" stroke="black" points="2220,-57 2094,-57 2094,-21 2220,-21 2220,-57"/>
<text text-anchor="middle" x="2157" y="-35.9" font-family="Times,serif" font-size="12.00">Evaluate financial risks</text>
</g>
<!-- 12967879184&#45;&gt;13094887248 -->
<g id="edge21" class="edge">
<title>12967879184&#45;&gt;13094887248</title>
<path fill="none" stroke="black" d="M2040.73,-85.95C2053.22,-80.41 2071.16,-72.55 2087,-66 2091.12,-64.3 2095.4,-62.56 2099.7,-60.83"/>
<polygon fill="black" stroke="black" points="2101.15,-64.02 2109.14,-57.06 2098.55,-57.52 2101.15,-64.02"/>
</g>
<!-- 13094888272 -->
<g id="node21" class="node">
<title>13094888272</title>
<polygon fill="none" stroke="black" points="2290,-111 2263,-93 2290,-75 2317,-93 2290,-111"/>
<text text-anchor="middle" x="2290" y="-89.9" font-family="Times,serif" font-size="12.00">+</text>
</g>
<!-- 12967874960&#45;&gt;13094888272 -->
<g id="edge22" class="edge">
<title>12967874960&#45;&gt;13094888272</title>
<path fill="none" stroke="black" d="M2204.86,-128.94C2212.29,-126 2219.87,-122.95 2227,-120 2239.25,-114.94 2252.76,-109.09 2264.03,-104.13"/>
<polygon fill="black" stroke="black" points="2265.54,-107.29 2273.27,-100.05 2262.71,-100.89 2265.54,-107.29"/>
</g>
<!-- 12967873168&#45;&gt;13094888272 -->
<g id="edge23" class="edge">
<title>12967873168&#45;&gt;13094888272</title>
<path fill="none" stroke="black" d="M2227.34,-93C2236.13,-93 2244.82,-93 2252.79,-93"/>
<polygon fill="black" stroke="black" points="2252.8,-96.5 2262.8,-93 2252.8,-89.5 2252.8,-96.5"/>
</g>
<!-- 13094887248&#45;&gt;13094888272 -->
<g id="edge24" class="edge">
<title>13094887248&#45;&gt;13094888272</title>
<path fill="none" stroke="black" d="M2204.86,-57.06C2212.29,-60 2219.87,-63.05 2227,-66 2239.25,-71.06 2252.76,-76.91 2264.03,-81.87"/>
<polygon fill="black" stroke="black" points="2262.71,-85.11 2273.27,-85.95 2265.54,-78.71 2262.71,-85.11"/>
</g>
<!-- 12970592208 -->
<g id="node22" class="node">
<title>12970592208</title>
<polygon fill="none" stroke="black" points="2435,-147 2408,-129 2435,-111 2462,-129 2435,-147"/>
<text text-anchor="middle" x="2435" y="-125.9" font-family="Times,serif" font-size="12.00">X</text>
</g>
<!-- 13094888272&#45;&gt;12970592208 -->
<g id="edge25" class="edge">
<title>13094888272&#45;&gt;12970592208</title>
<path fill="none" stroke="black" d="M2309.99,-97.78C2334.35,-103.91 2376.83,-114.61 2405.18,-121.75"/>
<polygon fill="black" stroke="black" points="2404.38,-125.15 2414.93,-124.2 2406.09,-118.36 2404.38,-125.15"/>
</g>
<!-- 13094892880 -->
<g id="node23" class="node">
<title>13094892880</title>
<polygon fill="none" stroke="black" points="2517,-84 2353,-84 2353,-48 2517,-48 2517,-84"/>
<text text-anchor="middle" x="2435" y="-62.9" font-family="Times,serif" font-size="12.00">Review report by audit director</text>
</g>
<!-- 13094888272&#45;&gt;13094892880 -->
<g id="edge26" class="edge">
<title>13094888272&#45;&gt;13094892880</title>
<path fill="none" stroke="black" d="M2311.49,-89.13C2320.3,-87.47 2331.26,-85.4 2342.98,-83.18"/>
<polygon fill="black" stroke="black" points="2343.8,-86.59 2352.98,-81.3 2342.5,-79.71 2343.8,-86.59"/>
</g>
<!-- 12970596304 -->
<g id="node24" class="node">
<title>12970596304</title>
<polygon fill="none" stroke="black" points="3023,-196 2996,-178 3023,-160 3050,-178 3023,-196"/>
<text text-anchor="middle" x="3023" y="-174.9" font-family="Times,serif" font-size="12.00">X</text>
</g>
<!-- 12970592208&#45;&gt;12970596304 -->
<g id="edge27" class="edge">
<title>12970592208&#45;&gt;12970596304</title>
<path fill="none" stroke="black" d="M2454.96,-133.84C2478.02,-139.62 2518.19,-149.35 2553,-156 2608.19,-166.55 2621.99,-170.52 2678,-175 2790.84,-184.02 2925.16,-181.33 2987.29,-179.32"/>
<polygon fill="black" stroke="black" points="2987.46,-182.82 2997.34,-178.98 2987.22,-175.82 2987.46,-182.82"/>
</g>
<!-- 12972166672 -->
<g id="node25" class="node">
<title>12972166672</title>
<polygon fill="none" stroke="black" points="2597.5,-147 2570.5,-129 2597.5,-111 2624.5,-129 2597.5,-147"/>
<text text-anchor="middle" x="2597.5" y="-125.9" font-family="Times,serif" font-size="12.00">X</text>
</g>
<!-- 12970592208&#45;&gt;12972166672 -->
<g id="edge28" class="edge">
<title>12970592208&#45;&gt;12972166672</title>
<path fill="none" stroke="black" d="M2462.14,-129C2488.84,-129 2530.5,-129 2560.34,-129"/>
<polygon fill="black" stroke="black" points="2560.37,-132.5 2570.37,-129 2560.37,-125.5 2560.37,-132.5"/>
</g>
<!-- 12969913296 -->
<g id="node26" class="node">
<title>12969913296</title>
<polygon fill="none" stroke="black" points="2642,-84 2553,-84 2553,-48 2642,-48 2642,-84"/>
<text text-anchor="middle" x="2597.5" y="-62.9" font-family="Times,serif" font-size="12.00">Approve report</text>
</g>
<!-- 13094892880&#45;&gt;12969913296 -->
<g id="edge29" class="edge">
<title>13094892880&#45;&gt;12969913296</title>
<path fill="none" stroke="black" d="M2517.19,-66C2525.83,-66 2534.45,-66 2542.66,-66"/>
<polygon fill="black" stroke="black" points="2542.81,-69.5 2552.81,-66 2542.8,-62.5 2542.81,-69.5"/>
</g>
<!-- 13094885264 -->
<g id="node29" class="node">
<title>13094885264</title>
<polygon fill="none" stroke="black" points="3278,-196 3123,-196 3123,-160 3278,-160 3278,-196"/>
<text text-anchor="middle" x="3200.5" y="-174.9" font-family="Times,serif" font-size="12.00">Launch detailed investigation</text>
</g>
<!-- 12970596304&#45;&gt;13094885264 -->
<g id="edge30" class="edge">
<title>12970596304&#45;&gt;13094885264</title>
<path fill="none" stroke="black" d="M3050.27,-178C3067.1,-178 3089.99,-178 3112.78,-178"/>
<polygon fill="black" stroke="black" points="3112.87,-181.5 3122.87,-178 3112.87,-174.5 3112.87,-181.5"/>
</g>
<!-- 12972174992 -->
<g id="node27" class="node">
<title>12972174992</title>
<polygon fill="none" stroke="black" points="2833,-166 2678,-166 2678,-130 2833,-130 2833,-166"/>
<text text-anchor="middle" x="2755.5" y="-144.9" font-family="Times,serif" font-size="12.00">Launch detailed investigation</text>
</g>
<!-- 12972166672&#45;&gt;12972174992 -->
<g id="edge31" class="edge">
<title>12972166672&#45;&gt;12972174992</title>
<path fill="none" stroke="black" d="M2620.52,-131.68C2633.23,-133.23 2650.13,-135.29 2667.63,-137.42"/>
<polygon fill="black" stroke="black" points="2667.62,-140.94 2677.97,-138.68 2668.47,-134 2667.62,-140.94"/>
</g>
<!-- 12967885904 -->
<g id="node28" class="node">
<title>12967885904</title>
<polygon fill="none" stroke="black" points="2819.5,-74 2691.5,-74 2691.5,-38 2819.5,-38 2819.5,-74"/>
<text text-anchor="middle" x="2755.5" y="-52.9" font-family="Times,serif" font-size="12.00">Send report for revision</text>
</g>
<!-- 12969913296&#45;&gt;12967885904 -->
<g id="edge32" class="edge">
<title>12969913296&#45;&gt;12967885904</title>
<path fill="none" stroke="black" d="M2642.37,-63.19C2654.51,-62.41 2668.02,-61.54 2681.34,-60.69"/>
<polygon fill="black" stroke="black" points="2681.71,-64.17 2691.46,-60.04 2681.26,-57.19 2681.71,-64.17"/>
</g>
<!-- 12972166352 -->
<g id="node30" class="node">
<title>12972166352</title>
<polygon fill="none" stroke="black" points="2896,-166 2869,-148 2896,-130 2923,-148 2896,-166"/>
<text text-anchor="middle" x="2896" y="-144.9" font-family="Times,serif" font-size="12.00">X</text>
</g>
<!-- 12972174992&#45;&gt;12972166352 -->
<g id="edge33" class="edge">
<title>12972174992&#45;&gt;12972166352</title>
<path fill="none" stroke="black" d="M2833.04,-148C2842,-148 2850.8,-148 2858.82,-148"/>
<polygon fill="black" stroke="black" points="2858.87,-151.5 2868.87,-148 2858.87,-144.5 2858.87,-151.5"/>
</g>
<!-- 12967879120 -->
<g id="node31" class="node">
<title>12967879120</title>
<polygon fill="none" stroke="black" points="2896,-74 2869,-56 2896,-38 2923,-56 2896,-74"/>
<text text-anchor="middle" x="2896" y="-52.9" font-family="Times,serif" font-size="12.00">+</text>
</g>
<!-- 12967885904&#45;&gt;12967879120 -->
<g id="edge34" class="edge">
<title>12967885904&#45;&gt;12967879120</title>
<path fill="none" stroke="black" d="M2819.67,-56C2833.13,-56 2846.91,-56 2858.93,-56"/>
<polygon fill="black" stroke="black" points="2859,-59.5 2869,-56 2859,-52.5 2859,-59.5"/>
</g>
<!-- 13094884816 -->
<g id="node32" class="node">
<title>13094884816</title>
<polygon fill="none" stroke="black" points="3396,-196 3369,-178 3396,-160 3423,-178 3396,-196"/>
<text text-anchor="middle" x="3396" y="-174.9" font-family="Times,serif" font-size="12.00">+</text>
</g>
<!-- 13094885264&#45;&gt;13094884816 -->
<g id="edge35" class="edge">
<title>13094885264&#45;&gt;13094884816</title>
<path fill="none" stroke="black" d="M3278.25,-178C3305.95,-178 3335.92,-178 3358.57,-178"/>
<polygon fill="black" stroke="black" points="3358.73,-181.5 3368.73,-178 3358.73,-174.5 3358.73,-181.5"/>
</g>
<!-- 12972166352&#45;&gt;12970596304 -->
<g id="edge36" class="edge">
<title>12972166352&#45;&gt;12970596304</title>
<path fill="none" stroke="black" d="M2916.26,-152.62C2936.66,-157.52 2969.12,-165.31 2992.7,-170.97"/>
<polygon fill="black" stroke="black" points="2991.97,-174.39 3002.51,-173.32 2993.61,-167.59 2991.97,-174.39"/>
</g>
<!-- 12972166352&#45;&gt;12972166672 -->
<g id="edge37" class="edge">
<title>12972166352&#45;&gt;12972166672</title>
<path fill="none" stroke="black" d="M2880.78,-139.79C2868.56,-133.24 2850.24,-124.59 2833,-121 2761.01,-106 2673.94,-116.14 2628.86,-123.41"/>
<polygon fill="black" stroke="black" points="2628.13,-119.99 2618.85,-125.09 2629.29,-126.89 2628.13,-119.99"/>
</g>
<!-- 12967884112 -->
<g id="node35" class="node">
<title>12967884112</title>
<polygon fill="none" stroke="black" points="3067.5,-90 2978.5,-90 2978.5,-54 3067.5,-54 3067.5,-90"/>
<text text-anchor="middle" x="3023" y="-68.9" font-family="Times,serif" font-size="12.00">Approve report</text>
</g>
<!-- 12967879120&#45;&gt;12967884112 -->
<g id="edge38" class="edge">
<title>12967879120&#45;&gt;12967884112</title>
<path fill="none" stroke="black" d="M2919.06,-58.82C2932.77,-60.58 2951.03,-62.92 2968.36,-65.13"/>
<polygon fill="black" stroke="black" points="2968.05,-68.62 2978.42,-66.42 2968.94,-61.68 2968.05,-68.62"/>
</g>
<!-- 12967885328 -->
<g id="node37" class="node">
<title>12967885328</title>
<polygon fill="none" stroke="black" points="3087,-36 2959,-36 2959,0 3087,0 3087,-36"/>
<text text-anchor="middle" x="3023" y="-14.9" font-family="Times,serif" font-size="12.00">Send report for revision</text>
</g>
<!-- 12967879120&#45;&gt;12967885328 -->
<g id="edge39" class="edge">
<title>12967879120&#45;&gt;12967885328</title>
<path fill="none" stroke="black" d="M2914.91,-50.56C2925.17,-47.44 2938.77,-43.3 2952.82,-39.03"/>
<polygon fill="black" stroke="black" points="2954.04,-42.32 2962.59,-36.06 2952,-35.62 2954.04,-42.32"/>
</g>
<!-- 12972171664 -->
<g id="node33" class="node">
<title>12972171664</title>
<polygon fill="none" stroke="black" points="3634,-250 3514,-250 3514,-214 3634,-214 3634,-250"/>
<text text-anchor="middle" x="3574" y="-228.9" font-family="Times,serif" font-size="12.00">Conduct data analysis</text>
</g>
<!-- 13094884816&#45;&gt;12972171664 -->
<g id="edge41" class="edge">
<title>13094884816&#45;&gt;12972171664</title>
<path fill="none" stroke="black" d="M3414.84,-183.47C3435.83,-189.91 3471.93,-200.99 3504.34,-210.93"/>
<polygon fill="black" stroke="black" points="3503.67,-214.39 3514.26,-213.98 3505.73,-207.7 3503.67,-214.39"/>
</g>
<!-- 12969911312 -->
<g id="node34" class="node">
<title>12969911312</title>
<polygon fill="none" stroke="black" points="3628.5,-196 3519.5,-196 3519.5,-160 3628.5,-160 3628.5,-196"/>
<text text-anchor="middle" x="3574" y="-174.9" font-family="Times,serif" font-size="12.00">Conduct interviews</text>
</g>
<!-- 13094884816&#45;&gt;12969911312 -->
<g id="edge42" class="edge">
<title>13094884816&#45;&gt;12969911312</title>
<path fill="none" stroke="black" d="M3423.35,-178C3446,-178 3479.59,-178 3509.21,-178"/>
<polygon fill="black" stroke="black" points="3509.5,-181.5 3519.5,-178 3509.5,-174.5 3509.5,-181.5"/>
</g>
<!-- 12967878864 -->
<g id="node36" class="node">
<title>12967878864</title>
<polygon fill="none" stroke="black" points="3624.5,-142 3523.5,-142 3523.5,-106 3624.5,-106 3624.5,-142"/>
<text text-anchor="middle" x="3574" y="-120.9" font-family="Times,serif" font-size="12.00">Perform site visits</text>
</g>
<!-- 13094884816&#45;&gt;12967878864 -->
<g id="edge40" class="edge">
<title>13094884816&#45;&gt;12967878864</title>
<path fill="none" stroke="black" d="M3414.84,-172.53C3437.75,-165.5 3478.66,-152.95 3513.13,-142.37"/>
<polygon fill="black" stroke="black" points="3514.59,-145.58 3523.12,-139.3 3512.54,-138.89 3514.59,-145.58"/>
</g>
<!-- 12969916688 -->
<g id="node38" class="node">
<title>12969916688</title>
<polygon fill="none" stroke="black" points="3697,-142 3670,-124 3697,-106 3724,-124 3697,-142"/>
<text text-anchor="middle" x="3697" y="-120.9" font-family="Times,serif" font-size="12.00">+</text>
</g>
<!-- 12972171664&#45;&gt;12969916688 -->
<g id="edge43" class="edge">
<title>12972171664&#45;&gt;12969916688</title>
<path fill="none" stroke="black" d="M3620.49,-214C3625.25,-211.3 3629.86,-208.3 3634,-205 3654.87,-188.35 3672.65,-163.23 3683.76,-145.38"/>
<polygon fill="black" stroke="black" points="3686.77,-147.17 3688.93,-136.8 3680.77,-143.55 3686.77,-147.17"/>
</g>
<!-- 12969911312&#45;&gt;12969916688 -->
<g id="edge44" class="edge">
<title>12969911312&#45;&gt;12969916688</title>
<path fill="none" stroke="black" d="M3615.63,-159.87C3633.94,-151.7 3654.97,-142.31 3670.93,-135.19"/>
<polygon fill="black" stroke="black" points="3672.44,-138.35 3680.14,-131.08 3669.59,-131.96 3672.44,-138.35"/>
</g>
<!-- 12967876944 -->
<g id="node40" class="node">
<title>12967876944</title>
<polygon fill="none" stroke="black" points="3259.5,-90 3141.5,-90 3141.5,-54 3259.5,-54 3259.5,-90"/>
<text text-anchor="middle" x="3200.5" y="-68.9" font-family="Times,serif" font-size="12.00">Distribute final report</text>
</g>
<!-- 12967884112&#45;&gt;12967876944 -->
<g id="edge45" class="edge">
<title>12967884112&#45;&gt;12967876944</title>
<path fill="none" stroke="black" d="M3067.83,-72C3086.94,-72 3109.79,-72 3131.05,-72"/>
<polygon fill="black" stroke="black" points="3131.34,-75.5 3141.34,-72 3131.34,-68.5 3131.34,-75.5"/>
</g>
<!-- 12967878864&#45;&gt;12969916688 -->
<g id="edge46" class="edge">
<title>12967878864&#45;&gt;12969916688</title>
<path fill="none" stroke="black" d="M3624.56,-124C3636.34,-124 3648.68,-124 3659.73,-124"/>
<polygon fill="black" stroke="black" points="3659.87,-127.5 3669.87,-124 3659.87,-120.5 3659.87,-127.5"/>
</g>
<!-- 12967873488 -->
<g id="node39" class="node">
<title>12967873488</title>
<polygon fill="none" stroke="black" points="3273.5,-36 3127.5,-36 3127.5,0 3273.5,0 3273.5,-36"/>
<text text-anchor="middle" x="3200.5" y="-14.9" font-family="Times,serif" font-size="12.00">Update and resubmit report</text>
</g>
<!-- 12967885328&#45;&gt;12967873488 -->
<g id="edge47" class="edge">
<title>12967885328&#45;&gt;12967873488</title>
<path fill="none" stroke="black" d="M3087.36,-18C3097.08,-18 3107.23,-18 3117.29,-18"/>
<polygon fill="black" stroke="black" points="3117.29,-21.5 3127.29,-18 3117.29,-14.5 3117.29,-21.5"/>
</g>
<!-- 12970862864 -->
<g id="node44" class="node">
<title>12970862864</title>
<ellipse fill="orange" stroke="black" cx="3778" cy="-124" rx="18" ry="18"/>
</g>
<!-- 12969916688&#45;&gt;12970862864 -->
<g id="edge50" class="edge">
<title>12969916688&#45;&gt;12970862864</title>
<path fill="none" stroke="black" d="M3724.31,-124C3732.42,-124 3741.37,-124 3749.56,-124"/>
<polygon fill="black" stroke="black" points="3749.75,-127.5 3759.75,-124 3749.75,-120.5 3749.75,-127.5"/>
</g>
<!-- 13094883024 -->
<g id="node42" class="node">
<title>13094883024</title>
<polygon fill="none" stroke="black" points="3478,-36 3314,-36 3314,0 3478,0 3478,-36"/>
<text text-anchor="middle" x="3396" y="-14.9" font-family="Times,serif" font-size="12.00">Review report by audit director</text>
</g>
<!-- 12967873488&#45;&gt;13094883024 -->
<g id="edge48" class="edge">
<title>12967873488&#45;&gt;13094883024</title>
<path fill="none" stroke="black" d="M3273.55,-18C3283.38,-18 3293.58,-18 3303.7,-18"/>
<polygon fill="black" stroke="black" points="3303.77,-21.5 3313.77,-18 3303.77,-14.5 3303.77,-21.5"/>
</g>
<!-- 12967882768 -->
<g id="node41" class="node">
<title>12967882768</title>
<polygon fill="none" stroke="black" points="3439,-90 3353,-90 3353,-54 3439,-54 3439,-90"/>
<text text-anchor="middle" x="3396" y="-68.9" font-family="Times,serif" font-size="12.00">Archive report</text>
</g>
<!-- 12967876944&#45;&gt;12967882768 -->
<g id="edge49" class="edge">
<title>12967876944&#45;&gt;12967882768</title>
<path fill="none" stroke="black" d="M3259.56,-72C3285.97,-72 3317,-72 3342.69,-72"/>
<polygon fill="black" stroke="black" points="3342.97,-75.5 3352.97,-72 3342.97,-68.5 3342.97,-75.5"/>
</g>
<!-- 13094880720 -->
<g id="node43" class="node">
<title>13094880720</title>
<polygon fill="none" stroke="black" points="3628,-88 3520,-88 3520,-52 3628,-52 3628,-88"/>
<text text-anchor="middle" x="3574" y="-66.9" font-family="Times,serif" font-size="12.00">Close audit process</text>
</g>
<!-- 12967882768&#45;&gt;13094880720 -->
<g id="edge52" class="edge">
<title>12967882768&#45;&gt;13094880720</title>
<path fill="none" stroke="black" d="M3439.16,-71.52C3460.24,-71.28 3486.19,-70.99 3509.62,-70.72"/>
<polygon fill="black" stroke="black" points="3509.87,-74.22 3519.83,-70.6 3509.79,-67.22 3509.87,-74.22"/>
</g>
<!-- 13094883024&#45;&gt;12969916688 -->
<g id="edge51" class="edge">
<title>13094883024&#45;&gt;12969916688</title>
<path fill="none" stroke="black" d="M3478.08,-11.09C3526.24,-10.6 3586.91,-16.58 3634,-43 3657.52,-56.19 3674.99,-82.35 3685.3,-101.38"/>
<polygon fill="black" stroke="black" points="3682.21,-103.03 3689.9,-110.32 3688.43,-99.83 3682.21,-103.03"/>
</g>
<!-- 13094880720&#45;&gt;12969916688 -->
<g id="edge53" class="edge">
<title>13094880720&#45;&gt;12969916688</title>
<path fill="none" stroke="black" d="M3615.63,-88.13C3633.94,-96.3 3654.97,-105.69 3670.93,-112.81"/>
<polygon fill="black" stroke="black" points="3669.59,-116.04 3680.14,-116.92 3672.44,-109.65 3669.59,-116.04"/>
</g>
</g>
</svg>
