<?xml version="1.0" encoding="UTF-8" standalone="no"?>
<!DOCTYPE svg PUBLIC "-//W3C//DTD SVG 1.1//EN"
 "http://www.w3.org/Graphics/SVG/1.1/DTD/svg11.dtd">
<!-- Generated by graphviz version 2.50.0 (0)
 -->
<!-- Pages: 1 -->
<svg width="4191pt" height="255pt"
 viewBox="0.00 0.00 4191.00 255.00" xmlns="http://www.w3.org/2000/svg" xmlns:xlink="http://www.w3.org/1999/xlink">
<g id="graph0" class="graph" transform="scale(1 1) rotate(0) translate(4 251)">
<polygon fill="white" stroke="transparent" points="-4,4 -4,-251 4187,-251 4187,4 -4,4"/>
<!-- 12970554896 -->
<g id="node1" class="node">
<title>12970554896</title>
<ellipse fill="green" stroke="black" cx="18" cy="-72" rx="18" ry="18"/>
</g>
<!-- 12970553552 -->
<g id="node2" class="node">
<title>12970553552</title>
<polygon fill="none" stroke="black" points="99,-90 72,-72 99,-54 126,-72 99,-90"/>
<text text-anchor="middle" x="99" y="-68.9" font-family="Times,serif" font-size="12.00">X</text>
</g>
<!-- 12970554896&#45;&gt;12970553552 -->
<g id="edge1" class="edge">
<title>12970554896&#45;&gt;12970553552</title>
<path fill="none" stroke="black" d="M36.14,-72C43.64,-72 52.75,-72 61.64,-72"/>
<polygon fill="black" stroke="black" points="61.87,-75.5 71.87,-72 61.87,-68.5 61.87,-75.5"/>
</g>
<!-- 13089109968 -->
<g id="node3" class="node">
<title>13089109968</title>
<polygon fill="none" stroke="black" points="322,-90 295,-72 322,-54 349,-72 322,-90"/>
<text text-anchor="middle" x="322" y="-68.9" font-family="Times,serif" font-size="12.00">X</text>
</g>
<!-- 12970553552&#45;&gt;13089109968 -->
<g id="edge3" class="edge">
<title>12970553552&#45;&gt;13089109968</title>
<path fill="none" stroke="black" d="M123.24,-73.86C134.87,-74.69 149.17,-75.59 162,-76 205.09,-77.39 215.91,-77.39 259,-76 268.32,-75.7 278.42,-75.15 287.7,-74.54"/>
<polygon fill="black" stroke="black" points="288.02,-78.03 297.76,-73.86 287.54,-71.05 288.02,-78.03"/>
</g>
<!-- 13088802256 -->
<g id="node4" class="node">
<title>13088802256</title>
<polygon fill="none" stroke="black" points="259,-67 162,-67 162,-31 259,-31 259,-67"/>
<text text-anchor="middle" x="210.5" y="-45.9" font-family="Times,serif" font-size="12.00">Send notification</text>
</g>
<!-- 12970553552&#45;&gt;13088802256 -->
<g id="edge2" class="edge">
<title>12970553552&#45;&gt;13088802256</title>
<path fill="none" stroke="black" d="M119.83,-67.83C128.89,-65.93 140.13,-63.57 151.56,-61.17"/>
<polygon fill="black" stroke="black" points="152.54,-64.54 161.6,-59.06 151.1,-57.69 152.54,-64.54"/>
</g>
<!-- 13089106256 -->
<g id="node5" class="node">
<title>13089106256</title>
<polygon fill="none" stroke="black" points="412,-90 385,-72 412,-54 439,-72 412,-90"/>
<text text-anchor="middle" x="412" y="-68.9" font-family="Times,serif" font-size="12.00">+</text>
</g>
<!-- 13089109968&#45;&gt;13089106256 -->
<g id="edge5" class="edge">
<title>13089109968&#45;&gt;13089106256</title>
<path fill="none" stroke="black" d="M349.4,-72C357.39,-72 366.31,-72 374.82,-72"/>
<polygon fill="black" stroke="black" points="374.92,-75.5 384.92,-72 374.92,-68.5 374.92,-75.5"/>
</g>
<!-- 13088802256&#45;&gt;13089109968 -->
<g id="edge4" class="edge">
<title>13088802256&#45;&gt;13089109968</title>
<path fill="none" stroke="black" d="M259.21,-59.02C270.04,-61.3 281.25,-63.65 291.1,-65.72"/>
<polygon fill="black" stroke="black" points="290.66,-69.2 301.17,-67.83 292.1,-62.35 290.66,-69.2"/>
</g>
<!-- 12970560720 -->
<g id="node6" class="node">
<title>12970560720</title>
<polygon fill="none" stroke="black" points="683,-153 475,-153 475,-117 683,-117 683,-153"/>
<text text-anchor="middle" x="579" y="-131.9" font-family="Times,serif" font-size="12.00">Complete risk assessment and mitigation</text>
</g>
<!-- 13089106256&#45;&gt;12970560720 -->
<g id="edge6" class="edge">
<title>13089106256&#45;&gt;12970560720</title>
<path fill="none" stroke="black" d="M428.41,-79.09C440.87,-84.74 458.93,-92.7 475,-99 487.7,-103.98 501.41,-109 514.55,-113.66"/>
<polygon fill="black" stroke="black" points="513.4,-116.96 524,-116.97 515.72,-110.36 513.4,-116.96"/>
</g>
<!-- 13094816016 -->
<g id="node7" class="node">
<title>13094816016</title>
<polygon fill="none" stroke="black" points="653,-90 505,-90 505,-54 653,-54 653,-90"/>
<text text-anchor="middle" x="579" y="-68.9" font-family="Times,serif" font-size="12.00">Prepare financial statements</text>
</g>
<!-- 13089106256&#45;&gt;13094816016 -->
<g id="edge7" class="edge">
<title>13089106256&#45;&gt;13094816016</title>
<path fill="none" stroke="black" d="M439.14,-72C454.38,-72 474.53,-72 494.74,-72"/>
<polygon fill="black" stroke="black" points="494.96,-75.5 504.96,-72 494.96,-68.5 494.96,-75.5"/>
</g>
<!-- 12971325584 -->
<g id="node8" class="node">
<title>12971325584</title>
<polygon fill="none" stroke="black" points="655,-36 503,-36 503,0 655,0 655,-36"/>
<text text-anchor="middle" x="579" y="-14.9" font-family="Times,serif" font-size="12.00">Gather necessary documents</text>
</g>
<!-- 13089106256&#45;&gt;12971325584 -->
<g id="edge8" class="edge">
<title>13089106256&#45;&gt;12971325584</title>
<path fill="none" stroke="black" d="M428.03,-64.68C440.43,-58.82 458.58,-50.69 475,-45 481.02,-42.91 487.28,-40.9 493.62,-38.98"/>
<polygon fill="black" stroke="black" points="495,-42.22 503.6,-36.04 493.02,-35.51 495,-42.22"/>
</g>
<!-- 12970573712 -->
<g id="node10" class="node">
<title>12970573712</title>
<polygon fill="none" stroke="black" points="746,-172 719,-154 746,-136 773,-154 746,-172"/>
<text text-anchor="middle" x="746" y="-150.9" font-family="Times,serif" font-size="12.00">+</text>
</g>
<!-- 12970560720&#45;&gt;12970573712 -->
<g id="edge9" class="edge">
<title>12970560720&#45;&gt;12970573712</title>
<path fill="none" stroke="black" d="M683.09,-146.87C693.65,-148.09 703.73,-149.25 712.57,-150.27"/>
<polygon fill="black" stroke="black" points="712.36,-153.76 722.7,-151.43 713.16,-146.81 712.36,-153.76"/>
</g>
<!-- 13089098064 -->
<g id="node9" class="node">
<title>13089098064</title>
<polygon fill="none" stroke="black" points="1089,-82 985,-82 985,-46 1089,-46 1089,-82"/>
<text text-anchor="middle" x="1037" y="-60.9" font-family="Times,serif" font-size="12.00">Submit documents</text>
</g>
<!-- 13094816016&#45;&gt;13089098064 -->
<g id="edge10" class="edge">
<title>13094816016&#45;&gt;13089098064</title>
<path fill="none" stroke="black" d="M653.01,-70.72C742.14,-69.16 891.26,-66.54 974.7,-65.08"/>
<polygon fill="black" stroke="black" points="974.85,-68.57 984.79,-64.9 974.73,-61.57 974.85,-68.57"/>
</g>
<!-- 12972334736 -->
<g id="node11" class="node">
<title>12972334736</title>
<polygon fill="none" stroke="black" points="1262,-36 1125,-36 1125,0 1262,0 1262,-36"/>
<text text-anchor="middle" x="1193.5" y="-14.9" font-family="Times,serif" font-size="12.00">Submit documents &#45; copy</text>
</g>
<!-- 12971325584&#45;&gt;12972334736 -->
<g id="edge11" class="edge">
<title>12971325584&#45;&gt;12972334736</title>
<path fill="none" stroke="black" d="M655.1,-18C771.97,-18 996.19,-18 1114.69,-18"/>
<polygon fill="black" stroke="black" points="1114.78,-21.5 1124.78,-18 1114.78,-14.5 1114.78,-21.5"/>
</g>
<!-- 13089102672 -->
<g id="node12" class="node">
<title>13089102672</title>
<polygon fill="none" stroke="black" points="4084,-105 4057,-87 4084,-69 4111,-87 4084,-105"/>
<text text-anchor="middle" x="4084" y="-83.9" font-family="Times,serif" font-size="12.00">+</text>
</g>
<!-- 13089098064&#45;&gt;13089102672 -->
<g id="edge12" class="edge">
<title>13089098064&#45;&gt;13089102672</title>
<path fill="none" stroke="black" d="M1089.02,-64C1154.95,-64 1273.29,-64 1374.5,-64 1374.5,-64 1374.5,-64 3779,-64 3878.24,-64 3995.19,-76.34 4050.67,-82.94"/>
<polygon fill="black" stroke="black" points="4050.57,-86.45 4060.92,-84.18 4051.41,-79.51 4050.57,-86.45"/>
</g>
<!-- 13089105808 -->
<g id="node13" class="node">
<title>13089105808</title>
<polygon fill="none" stroke="black" points="948,-236 810,-236 810,-200 948,-200 948,-236"/>
<text text-anchor="middle" x="879" y="-214.9" font-family="Times,serif" font-size="12.00">Evaluate operational risks</text>
</g>
<!-- 12970573712&#45;&gt;13089105808 -->
<g id="edge15" class="edge">
<title>12970573712&#45;&gt;13089105808</title>
<path fill="none" stroke="black" d="M760.43,-162.9C772.75,-170.84 791.66,-182.51 809,-191 812.38,-192.65 815.88,-194.28 819.44,-195.87"/>
<polygon fill="black" stroke="black" points="818.37,-199.22 828.94,-199.96 821.14,-192.79 818.37,-199.22"/>
</g>
<!-- 13088815504 -->
<g id="node14" class="node">
<title>13088815504</title>
<polygon fill="none" stroke="black" points="942,-182 816,-182 816,-146 942,-146 942,-182"/>
<text text-anchor="middle" x="879" y="-160.9" font-family="Times,serif" font-size="12.00">Evaluate financial risks</text>
</g>
<!-- 12970573712&#45;&gt;13088815504 -->
<g id="edge13" class="edge">
<title>12970573712&#45;&gt;13088815504</title>
<path fill="none" stroke="black" d="M770.42,-155.79C780.52,-156.56 792.95,-157.51 805.71,-158.48"/>
<polygon fill="black" stroke="black" points="805.75,-162 815.99,-159.27 806.29,-155.02 805.75,-162"/>
</g>
<!-- 13088806416 -->
<g id="node15" class="node">
<title>13088806416</title>
<polygon fill="none" stroke="black" points="949,-128 809,-128 809,-92 949,-92 949,-128"/>
<text text-anchor="middle" x="879" y="-106.9" font-family="Times,serif" font-size="12.00">Evaluate compliance risks</text>
</g>
<!-- 12970573712&#45;&gt;13088806416 -->
<g id="edge14" class="edge">
<title>12970573712&#45;&gt;13088806416</title>
<path fill="none" stroke="black" d="M764.4,-148.16C777.43,-143.78 796.14,-137.49 814.62,-131.29"/>
<polygon fill="black" stroke="black" points="815.87,-134.56 824.24,-128.06 813.64,-127.92 815.87,-134.56"/>
</g>
<!-- 12972334736&#45;&gt;13089102672 -->
<g id="edge16" class="edge">
<title>12972334736&#45;&gt;13089102672</title>
<path fill="none" stroke="black" d="M1262.03,-19.33C1326.88,-20.5 1427.63,-22 1515,-22 1515,-22 1515,-22 3779,-22 3887.27,-22 3918.45,-15.26 4021,-50 4035.8,-55.01 4050.89,-63.92 4062.48,-71.74"/>
<polygon fill="black" stroke="black" points="4060.75,-74.8 4070.95,-77.68 4064.77,-69.07 4060.75,-74.8"/>
</g>
<!-- 13087908112 -->
<g id="node45" class="node">
<title>13087908112</title>
<ellipse fill="orange" stroke="black" cx="4165" cy="-87" rx="18" ry="18"/>
</g>
<!-- 13089102672&#45;&gt;13087908112 -->
<g id="edge20" class="edge">
<title>13089102672&#45;&gt;13087908112</title>
<path fill="none" stroke="black" d="M4111.31,-87C4119.42,-87 4128.37,-87 4136.56,-87"/>
<polygon fill="black" stroke="black" points="4136.75,-90.5 4146.75,-87 4136.75,-83.5 4136.75,-90.5"/>
</g>
<!-- 12971319504 -->
<g id="node16" class="node">
<title>12971319504</title>
<polygon fill="none" stroke="black" points="1037,-182 1010,-164 1037,-146 1064,-164 1037,-182"/>
<text text-anchor="middle" x="1037" y="-160.9" font-family="Times,serif" font-size="12.00">+</text>
</g>
<!-- 13089105808&#45;&gt;12971319504 -->
<g id="edge17" class="edge">
<title>13089105808&#45;&gt;12971319504</title>
<path fill="none" stroke="black" d="M932.38,-199.87C958.09,-190.97 987.98,-180.62 1009.03,-173.34"/>
<polygon fill="black" stroke="black" points="1010.29,-176.6 1018.6,-170.02 1008,-169.99 1010.29,-176.6"/>
</g>
<!-- 13088815504&#45;&gt;12971319504 -->
<g id="edge18" class="edge">
<title>13088815504&#45;&gt;12971319504</title>
<path fill="none" stroke="black" d="M942.1,-164C961.66,-164 982.62,-164 999.76,-164"/>
<polygon fill="black" stroke="black" points="999.89,-167.5 1009.89,-164 999.89,-160.5 999.89,-167.5"/>
</g>
<!-- 13088806416&#45;&gt;12971319504 -->
<g id="edge19" class="edge">
<title>13088806416&#45;&gt;12971319504</title>
<path fill="none" stroke="black" d="M932.38,-128.13C958.09,-137.03 987.98,-147.38 1009.03,-154.66"/>
<polygon fill="black" stroke="black" points="1008,-158.01 1018.6,-157.98 1010.29,-151.4 1008,-158.01"/>
</g>
<!-- 12970541456 -->
<g id="node17" class="node">
<title>12970541456</title>
<polygon fill="none" stroke="black" points="1193.5,-182 1166.5,-164 1193.5,-146 1220.5,-164 1193.5,-182"/>
<text text-anchor="middle" x="1193.5" y="-160.9" font-family="Times,serif" font-size="12.00">X</text>
</g>
<!-- 12971319504&#45;&gt;12970541456 -->
<g id="edge21" class="edge">
<title>12971319504&#45;&gt;12970541456</title>
<path fill="none" stroke="black" d="M1064.21,-164C1089.48,-164 1127.93,-164 1156.15,-164"/>
<polygon fill="black" stroke="black" points="1156.42,-167.5 1166.42,-164 1156.42,-160.5 1156.42,-167.5"/>
</g>
<!-- 12970570384 -->
<g id="node18" class="node">
<title>12970570384</title>
<polygon fill="none" stroke="black" points="1453,-216 1298,-216 1298,-180 1453,-180 1453,-216"/>
<text text-anchor="middle" x="1375.5" y="-194.9" font-family="Times,serif" font-size="12.00">Launch detailed investigation</text>
</g>
<!-- 12970541456&#45;&gt;12970570384 -->
<g id="edge22" class="edge">
<title>12970541456&#45;&gt;12970570384</title>
<path fill="none" stroke="black" d="M1214.8,-167.83C1232.81,-171.24 1260.43,-176.45 1287.66,-181.6"/>
<polygon fill="black" stroke="black" points="1287.18,-185.07 1297.65,-183.48 1288.48,-178.19 1287.18,-185.07"/>
</g>
<!-- 12970547280 -->
<g id="node19" class="node">
<title>12970547280</title>
<polygon fill="none" stroke="black" points="1516,-193 1489,-175 1516,-157 1543,-175 1516,-193"/>
<text text-anchor="middle" x="1516" y="-171.9" font-family="Times,serif" font-size="12.00">X</text>
</g>
<!-- 12970570384&#45;&gt;12970547280 -->
<g id="edge23" class="edge">
<title>12970570384&#45;&gt;12970547280</title>
<path fill="none" stroke="black" d="M1453.04,-185.29C1464.04,-183.46 1474.79,-181.68 1484.17,-180.12"/>
<polygon fill="black" stroke="black" points="1484.82,-183.56 1494.11,-178.47 1483.67,-176.65 1484.82,-183.56"/>
</g>
<!-- 12970547280&#45;&gt;12970541456 -->
<g id="edge24" class="edge">
<title>12970547280&#45;&gt;12970541456</title>
<path fill="none" stroke="black" d="M1491.46,-173.27C1479.88,-172.48 1465.71,-171.58 1453,-171 1373.61,-167.37 1280.42,-165.41 1230.47,-164.55"/>
<polygon fill="black" stroke="black" points="1230.25,-161.05 1220.19,-164.38 1230.13,-168.04 1230.25,-161.05"/>
</g>
<!-- 13089099600 -->
<g id="node20" class="node">
<title>13089099600</title>
<polygon fill="none" stroke="black" points="1606,-193 1579,-175 1606,-157 1633,-175 1606,-193"/>
<text text-anchor="middle" x="1606" y="-171.9" font-family="Times,serif" font-size="12.00">+</text>
</g>
<!-- 12970547280&#45;&gt;13089099600 -->
<g id="edge25" class="edge">
<title>12970547280&#45;&gt;13089099600</title>
<path fill="none" stroke="black" d="M1543.4,-175C1551.39,-175 1560.31,-175 1568.82,-175"/>
<polygon fill="black" stroke="black" points="1568.92,-178.5 1578.92,-175 1568.92,-171.5 1568.92,-178.5"/>
</g>
<!-- 13089097296 -->
<g id="node21" class="node">
<title>13089097296</title>
<polygon fill="none" stroke="black" points="1783.5,-247 1674.5,-247 1674.5,-211 1783.5,-211 1783.5,-247"/>
<text text-anchor="middle" x="1729" y="-225.9" font-family="Times,serif" font-size="12.00">Conduct interviews</text>
</g>
<!-- 13089099600&#45;&gt;13089097296 -->
<g id="edge26" class="edge">
<title>13089099600&#45;&gt;13089097296</title>
<path fill="none" stroke="black" d="M1622.82,-182.06C1636.92,-188.35 1658.34,-197.91 1678.18,-206.77"/>
<polygon fill="black" stroke="black" points="1676.89,-210.02 1687.45,-210.9 1679.74,-203.63 1676.89,-210.02"/>
</g>
<!-- 13089108048 -->
<g id="node22" class="node">
<title>13089108048</title>
<polygon fill="none" stroke="black" points="1789,-193 1669,-193 1669,-157 1789,-157 1789,-193"/>
<text text-anchor="middle" x="1729" y="-171.9" font-family="Times,serif" font-size="12.00">Conduct data analysis</text>
</g>
<!-- 13089099600&#45;&gt;13089108048 -->
<g id="edge28" class="edge">
<title>13089099600&#45;&gt;13089108048</title>
<path fill="none" stroke="black" d="M1633.26,-175C1640.83,-175 1649.47,-175 1658.39,-175"/>
<polygon fill="black" stroke="black" points="1658.52,-178.5 1668.52,-175 1658.52,-171.5 1658.52,-178.5"/>
</g>
<!-- 13088812368 -->
<g id="node23" class="node">
<title>13088812368</title>
<polygon fill="none" stroke="black" points="1779.5,-139 1678.5,-139 1678.5,-103 1779.5,-103 1779.5,-139"/>
<text text-anchor="middle" x="1729" y="-117.9" font-family="Times,serif" font-size="12.00">Perform site visits</text>
</g>
<!-- 13089099600&#45;&gt;13088812368 -->
<g id="edge27" class="edge">
<title>13089099600&#45;&gt;13088812368</title>
<path fill="none" stroke="black" d="M1622.82,-167.94C1636.92,-161.65 1658.34,-152.09 1678.18,-143.23"/>
<polygon fill="black" stroke="black" points="1679.74,-146.37 1687.45,-139.1 1676.89,-139.98 1679.74,-146.37"/>
</g>
<!-- 13089105168 -->
<g id="node24" class="node">
<title>13089105168</title>
<polygon fill="none" stroke="black" points="1852,-193 1825,-175 1852,-157 1879,-175 1852,-193"/>
<text text-anchor="middle" x="1852" y="-171.9" font-family="Times,serif" font-size="12.00">+</text>
</g>
<!-- 13089097296&#45;&gt;13089105168 -->
<g id="edge29" class="edge">
<title>13089097296&#45;&gt;13089105168</title>
<path fill="none" stroke="black" d="M1770.63,-210.87C1788.94,-202.7 1809.97,-193.31 1825.93,-186.19"/>
<polygon fill="black" stroke="black" points="1827.44,-189.35 1835.14,-182.08 1824.59,-182.96 1827.44,-189.35"/>
</g>
<!-- 13089108048&#45;&gt;13089105168 -->
<g id="edge30" class="edge">
<title>13089108048&#45;&gt;13089105168</title>
<path fill="none" stroke="black" d="M1789.08,-175C1797.84,-175 1806.64,-175 1814.74,-175"/>
<polygon fill="black" stroke="black" points="1814.94,-178.5 1824.94,-175 1814.94,-171.5 1814.94,-178.5"/>
</g>
<!-- 13088812368&#45;&gt;13089105168 -->
<g id="edge31" class="edge">
<title>13088812368&#45;&gt;13089105168</title>
<path fill="none" stroke="black" d="M1770.63,-139.13C1788.94,-147.3 1809.97,-156.69 1825.93,-163.81"/>
<polygon fill="black" stroke="black" points="1824.59,-167.04 1835.14,-167.92 1827.44,-160.65 1824.59,-167.04"/>
</g>
<!-- 13089109520 -->
<g id="node25" class="node">
<title>13089109520</title>
<polygon fill="none" stroke="black" points="2052,-193 1915,-193 1915,-157 2052,-157 2052,-193"/>
<text text-anchor="middle" x="1983.5" y="-171.9" font-family="Times,serif" font-size="12.00">Submit documents &#45; copy</text>
</g>
<!-- 13089105168&#45;&gt;13089109520 -->
<g id="edge32" class="edge">
<title>13089105168&#45;&gt;13089109520</title>
<path fill="none" stroke="black" d="M1879.21,-175C1886.86,-175 1895.64,-175 1904.78,-175"/>
<polygon fill="black" stroke="black" points="1904.81,-178.5 1914.81,-175 1904.81,-171.5 1904.81,-178.5"/>
</g>
<!-- 13088805776 -->
<g id="node26" class="node">
<title>13088805776</title>
<polygon fill="none" stroke="black" points="2197,-193 2088,-193 2088,-157 2197,-157 2197,-193"/>
<text text-anchor="middle" x="2142.5" y="-171.9" font-family="Times,serif" font-size="12.00">Review submission</text>
</g>
<!-- 13089109520&#45;&gt;13088805776 -->
<g id="edge33" class="edge">
<title>13089109520&#45;&gt;13088805776</title>
<path fill="none" stroke="black" d="M2052.45,-175C2060.72,-175 2069.16,-175 2077.37,-175"/>
<polygon fill="black" stroke="black" points="2077.64,-178.5 2087.64,-175 2077.64,-171.5 2077.64,-178.5"/>
</g>
<!-- 12970547600 -->
<g id="node27" class="node">
<title>12970547600</title>
<polygon fill="none" stroke="black" points="2260,-193 2233,-175 2260,-157 2287,-175 2260,-193"/>
<text text-anchor="middle" x="2260" y="-171.9" font-family="Times,serif" font-size="12.00">X</text>
</g>
<!-- 13088805776&#45;&gt;12970547600 -->
<g id="edge34" class="edge">
<title>13088805776&#45;&gt;12970547600</title>
<path fill="none" stroke="black" d="M2197.19,-175C2205.79,-175 2214.52,-175 2222.59,-175"/>
<polygon fill="black" stroke="black" points="2222.77,-178.5 2232.77,-175 2222.77,-171.5 2222.77,-178.5"/>
</g>
<!-- 13089099280 -->
<g id="node28" class="node">
<title>13089099280</title>
<polygon fill="none" stroke="black" points="2583,-161 2556,-143 2583,-125 2610,-143 2583,-161"/>
<text text-anchor="middle" x="2583" y="-139.9" font-family="Times,serif" font-size="12.00">X</text>
</g>
<!-- 12970547600&#45;&gt;13089099280 -->
<g id="edge36" class="edge">
<title>12970547600&#45;&gt;13089099280</title>
<path fill="none" stroke="black" d="M2284.84,-176.46C2330.81,-178.75 2434.71,-181.38 2520,-165 2532.45,-162.61 2545.76,-158.15 2556.85,-153.87"/>
<polygon fill="black" stroke="black" points="2558.35,-157.04 2566.31,-150.06 2555.73,-150.55 2558.35,-157.04"/>
</g>
<!-- 13093690960 -->
<g id="node29" class="node">
<title>13093690960</title>
<polygon fill="none" stroke="black" points="2520,-156 2323,-156 2323,-120 2520,-120 2520,-156"/>
<text text-anchor="middle" x="2421.5" y="-134.9" font-family="Times,serif" font-size="12.00">Request clarifications of discrepancies</text>
</g>
<!-- 12970547600&#45;&gt;13093690960 -->
<g id="edge35" class="edge">
<title>12970547600&#45;&gt;13093690960</title>
<path fill="none" stroke="black" d="M2280.56,-170.46C2294.14,-167.31 2313.29,-162.87 2333.08,-158.28"/>
<polygon fill="black" stroke="black" points="2333.87,-161.69 2342.82,-156.02 2332.29,-154.87 2333.87,-161.69"/>
</g>
<!-- 12970552528 -->
<g id="node30" class="node">
<title>12970552528</title>
<polygon fill="none" stroke="black" points="2673,-161 2646,-143 2673,-125 2700,-143 2673,-161"/>
<text text-anchor="middle" x="2673" y="-139.9" font-family="Times,serif" font-size="12.00">X</text>
</g>
<!-- 13089099280&#45;&gt;12970552528 -->
<g id="edge38" class="edge">
<title>13089099280&#45;&gt;12970552528</title>
<path fill="none" stroke="black" d="M2610.4,-143C2618.39,-143 2627.31,-143 2635.82,-143"/>
<polygon fill="black" stroke="black" points="2635.92,-146.5 2645.92,-143 2635.92,-139.5 2635.92,-146.5"/>
</g>
<!-- 13093690960&#45;&gt;13089099280 -->
<g id="edge37" class="edge">
<title>13093690960&#45;&gt;13089099280</title>
<path fill="none" stroke="black" d="M2520.33,-141.07C2529.75,-141.36 2538.81,-141.65 2546.95,-141.9"/>
<polygon fill="black" stroke="black" points="2546.97,-145.4 2557.08,-142.22 2547.19,-138.41 2546.97,-145.4"/>
</g>
<!-- 13086562384 -->
<g id="node31" class="node">
<title>13086562384</title>
<polygon fill="none" stroke="black" points="2850,-170 2736,-170 2736,-134 2850,-134 2850,-170"/>
<text text-anchor="middle" x="2793" y="-148.9" font-family="Times,serif" font-size="12.00">Compile audit report</text>
</g>
<!-- 12970552528&#45;&gt;13086562384 -->
<g id="edge39" class="edge">
<title>12970552528&#45;&gt;13086562384</title>
<path fill="none" stroke="black" d="M2697.6,-144.8C2705.87,-145.43 2715.61,-146.17 2725.65,-146.94"/>
<polygon fill="black" stroke="black" points="2725.5,-150.44 2735.74,-147.71 2726.03,-143.46 2725.5,-150.44"/>
</g>
<!-- 12970554576 -->
<g id="node32" class="node">
<title>12970554576</title>
<polygon fill="none" stroke="black" points="2913,-149 2886,-131 2913,-113 2940,-131 2913,-149"/>
<text text-anchor="middle" x="2913" y="-127.9" font-family="Times,serif" font-size="12.00">X</text>
</g>
<!-- 13086562384&#45;&gt;12970554576 -->
<g id="edge40" class="edge">
<title>13086562384&#45;&gt;12970554576</title>
<path fill="none" stroke="black" d="M2850.24,-141.99C2860.93,-140.09 2871.75,-138.16 2881.28,-136.47"/>
<polygon fill="black" stroke="black" points="2882.18,-139.86 2891.41,-134.66 2880.95,-132.97 2882.18,-139.86"/>
</g>
<!-- 12970554576&#45;&gt;12970552528 -->
<g id="edge41" class="edge">
<title>12970554576&#45;&gt;12970552528</title>
<path fill="none" stroke="black" d="M2890.47,-127.86C2857.17,-123.54 2791.24,-117.14 2736,-125 2724.14,-126.69 2711.38,-130.1 2700.54,-133.51"/>
<polygon fill="black" stroke="black" points="2699.22,-130.26 2690.82,-136.71 2701.41,-136.9 2699.22,-130.26"/>
</g>
<!-- 12970545424 -->
<g id="node33" class="node">
<title>12970545424</title>
<polygon fill="none" stroke="black" points="3003,-149 2976,-131 3003,-113 3030,-131 3003,-149"/>
<text text-anchor="middle" x="3003" y="-127.9" font-family="Times,serif" font-size="12.00">X</text>
</g>
<!-- 12970554576&#45;&gt;12970545424 -->
<g id="edge42" class="edge">
<title>12970554576&#45;&gt;12970545424</title>
<path fill="none" stroke="black" d="M2940.4,-131C2948.39,-131 2957.31,-131 2965.82,-131"/>
<polygon fill="black" stroke="black" points="2965.92,-134.5 2975.92,-131 2965.92,-127.5 2965.92,-134.5"/>
</g>
<!-- 12970548368 -->
<g id="node34" class="node">
<title>12970548368</title>
<polygon fill="none" stroke="black" points="3293,-160 3266,-142 3293,-124 3320,-142 3293,-160"/>
<text text-anchor="middle" x="3293" y="-138.9" font-family="Times,serif" font-size="12.00">X</text>
</g>
<!-- 12970545424&#45;&gt;12970548368 -->
<g id="edge43" class="edge">
<title>12970545424&#45;&gt;12970548368</title>
<path fill="none" stroke="black" d="M3021.41,-136.75C3033.71,-140.5 3050.67,-145.05 3066,-147 3134.52,-155.7 3215.64,-150.07 3259.65,-145.71"/>
<polygon fill="black" stroke="black" points="3260.17,-149.17 3269.75,-144.66 3259.44,-142.21 3260.17,-149.17"/>
</g>
<!-- 13086232144 -->
<g id="node35" class="node">
<title>13086232144</title>
<polygon fill="none" stroke="black" points="3230,-138 3066,-138 3066,-102 3230,-102 3230,-138"/>
<text text-anchor="middle" x="3148" y="-116.9" font-family="Times,serif" font-size="12.00">Review report by audit director</text>
</g>
<!-- 12970545424&#45;&gt;13086232144 -->
<g id="edge44" class="edge">
<title>12970545424&#45;&gt;13086232144</title>
<path fill="none" stroke="black" d="M3027.61,-129.18C3035.79,-128.55 3045.51,-127.81 3055.83,-127.01"/>
<polygon fill="black" stroke="black" points="3056.16,-130.5 3065.86,-126.24 3055.63,-123.52 3056.16,-130.5"/>
</g>
<!-- 13089102288 -->
<g id="node36" class="node">
<title>13089102288</title>
<polygon fill="none" stroke="black" points="3383,-160 3356,-142 3383,-124 3410,-142 3383,-160"/>
<text text-anchor="middle" x="3383" y="-138.9" font-family="Times,serif" font-size="12.00">+</text>
</g>
<!-- 12970548368&#45;&gt;13089102288 -->
<g id="edge46" class="edge">
<title>12970548368&#45;&gt;13089102288</title>
<path fill="none" stroke="black" d="M3320.4,-142C3328.39,-142 3337.31,-142 3345.82,-142"/>
<polygon fill="black" stroke="black" points="3345.92,-145.5 3355.92,-142 3345.92,-138.5 3345.92,-145.5"/>
</g>
<!-- 13086232144&#45;&gt;12970548368 -->
<g id="edge45" class="edge">
<title>13086232144&#45;&gt;12970548368</title>
<path fill="none" stroke="black" d="M3230.11,-132.48C3240.89,-134.14 3251.38,-135.75 3260.56,-137.16"/>
<polygon fill="black" stroke="black" points="3260.27,-140.66 3270.69,-138.72 3261.34,-133.74 3260.27,-140.66"/>
</g>
<!-- 12970552080 -->
<g id="node37" class="node">
<title>12970552080</title>
<polygon fill="none" stroke="black" points="3490.5,-182 3463.5,-164 3490.5,-146 3517.5,-164 3490.5,-182"/>
<text text-anchor="middle" x="3490.5" y="-160.9" font-family="Times,serif" font-size="12.00">X</text>
</g>
<!-- 13089102288&#45;&gt;12970552080 -->
<g id="edge47" class="edge">
<title>13089102288&#45;&gt;12970552080</title>
<path fill="none" stroke="black" d="M3403.84,-146.14C3419.51,-149.41 3441.63,-154.02 3459.46,-157.74"/>
<polygon fill="black" stroke="black" points="3458.88,-161.19 3469.39,-159.81 3460.31,-154.34 3458.88,-161.19"/>
</g>
<!-- 13089100944 -->
<g id="node38" class="node">
<title>13089100944</title>
<polygon fill="none" stroke="black" points="3535,-128 3446,-128 3446,-92 3535,-92 3535,-128"/>
<text text-anchor="middle" x="3490.5" y="-106.9" font-family="Times,serif" font-size="12.00">Approve report</text>
</g>
<!-- 13089102288&#45;&gt;13089100944 -->
<g id="edge48" class="edge">
<title>13089102288&#45;&gt;13089100944</title>
<path fill="none" stroke="black" d="M3401.9,-136.57C3411.36,-133.7 3423.53,-130.01 3435.77,-126.3"/>
<polygon fill="black" stroke="black" points="3437,-129.58 3445.56,-123.33 3434.97,-122.88 3437,-129.58"/>
</g>
<!-- 13088809360 -->
<g id="node40" class="node">
<title>13088809360</title>
<polygon fill="none" stroke="black" points="3699,-224 3571,-224 3571,-188 3699,-188 3699,-224"/>
<text text-anchor="middle" x="3635" y="-202.9" font-family="Times,serif" font-size="12.00">Send report for revision</text>
</g>
<!-- 12970552080&#45;&gt;13088809360 -->
<g id="edge49" class="edge">
<title>12970552080&#45;&gt;13088809360</title>
<path fill="none" stroke="black" d="M3509.55,-169.32C3523.32,-173.38 3543.26,-179.25 3563.15,-185.12"/>
<polygon fill="black" stroke="black" points="3562.3,-188.52 3572.89,-187.99 3564.28,-181.8 3562.3,-188.52"/>
</g>
<!-- 13088802128 -->
<g id="node39" class="node">
<title>13088802128</title>
<polygon fill="none" stroke="black" points="3694,-128 3576,-128 3576,-92 3694,-92 3694,-128"/>
<text text-anchor="middle" x="3635" y="-106.9" font-family="Times,serif" font-size="12.00">Distribute final report</text>
</g>
<!-- 13089100944&#45;&gt;13088802128 -->
<g id="edge50" class="edge">
<title>13089100944&#45;&gt;13088802128</title>
<path fill="none" stroke="black" d="M3535.03,-110C3544.67,-110 3555.11,-110 3565.47,-110"/>
<polygon fill="black" stroke="black" points="3565.77,-113.5 3575.77,-110 3565.77,-106.5 3565.77,-113.5"/>
</g>
<!-- 13089107408 -->
<g id="node42" class="node">
<title>13089107408</title>
<polygon fill="none" stroke="black" points="3821,-128 3735,-128 3735,-92 3821,-92 3821,-128"/>
<text text-anchor="middle" x="3778" y="-106.9" font-family="Times,serif" font-size="12.00">Archive report</text>
</g>
<!-- 13088802128&#45;&gt;13089107408 -->
<g id="edge51" class="edge">
<title>13088802128&#45;&gt;13089107408</title>
<path fill="none" stroke="black" d="M3694.16,-110C3704.3,-110 3714.78,-110 3724.75,-110"/>
<polygon fill="black" stroke="black" points="3724.9,-113.5 3734.9,-110 3724.9,-106.5 3724.9,-113.5"/>
</g>
<!-- 12970553488 -->
<g id="node41" class="node">
<title>12970553488</title>
<polygon fill="none" stroke="black" points="3778,-182 3751,-164 3778,-146 3805,-164 3778,-182"/>
<text text-anchor="middle" x="3778" y="-160.9" font-family="Times,serif" font-size="12.00">X</text>
</g>
<!-- 13088809360&#45;&gt;12970553488 -->
<g id="edge52" class="edge">
<title>13088809360&#45;&gt;12970553488</title>
<path fill="none" stroke="black" d="M3696.61,-187.94C3714.93,-182.49 3734.15,-176.76 3749.21,-172.28"/>
<polygon fill="black" stroke="black" points="3750.32,-175.6 3758.9,-169.39 3748.32,-168.89 3750.32,-175.6"/>
</g>
<!-- 12970553488&#45;&gt;12970552080 -->
<g id="edge53" class="edge">
<title>12970553488&#45;&gt;12970552080</title>
<path fill="none" stroke="black" d="M3750.66,-164C3699.4,-164 3586.16,-164 3527.82,-164"/>
<polygon fill="black" stroke="black" points="3527.59,-160.5 3517.59,-164 3527.59,-167.5 3527.59,-160.5"/>
</g>
<!-- 13088815120 -->
<g id="node44" class="node">
<title>13088815120</title>
<polygon fill="none" stroke="black" points="4021,-182 3857,-182 3857,-146 4021,-146 4021,-182"/>
<text text-anchor="middle" x="3939" y="-160.9" font-family="Times,serif" font-size="12.00">Review report by audit director</text>
</g>
<!-- 12970553488&#45;&gt;13088815120 -->
<g id="edge54" class="edge">
<title>12970553488&#45;&gt;13088815120</title>
<path fill="none" stroke="black" d="M3805.26,-164C3816.98,-164 3831.56,-164 3846.72,-164"/>
<polygon fill="black" stroke="black" points="3846.75,-167.5 3856.75,-164 3846.75,-160.5 3846.75,-167.5"/>
</g>
<!-- 13089097040 -->
<g id="node43" class="node">
<title>13089097040</title>
<polygon fill="none" stroke="black" points="3993,-128 3885,-128 3885,-92 3993,-92 3993,-128"/>
<text text-anchor="middle" x="3939" y="-106.9" font-family="Times,serif" font-size="12.00">Close audit process</text>
</g>
<!-- 13089107408&#45;&gt;13089097040 -->
<g id="edge55" class="edge">
<title>13089107408&#45;&gt;13089097040</title>
<path fill="none" stroke="black" d="M3821.19,-110C3837.57,-110 3856.69,-110 3874.65,-110"/>
<polygon fill="black" stroke="black" points="3874.78,-113.5 3884.78,-110 3874.78,-106.5 3874.78,-113.5"/>
</g>
<!-- 13089097040&#45;&gt;13089102672 -->
<g id="edge56" class="edge">
<title>13089097040&#45;&gt;13089102672</title>
<path fill="none" stroke="black" d="M3993.25,-101.44C4012.98,-98.26 4034.69,-94.77 4051.82,-92.02"/>
<polygon fill="black" stroke="black" points="4052.52,-95.45 4061.83,-90.4 4051.4,-88.54 4052.52,-95.45"/>
</g>
<!-- 13088815120&#45;&gt;13089102672 -->
<g id="edge57" class="edge">
<title>13088815120&#45;&gt;13089102672</title>
<path fill="none" stroke="black" d="M4002.02,-145.9C4008.57,-143.24 4015.02,-140.27 4021,-137 4037.17,-128.16 4053.3,-114.98 4065.06,-104.37"/>
<polygon fill="black" stroke="black" points="4067.49,-106.88 4072.44,-97.52 4062.73,-101.75 4067.49,-106.88"/>
</g>
</g>
</svg>
