<?xml version="1.0" encoding="UTF-8" standalone="no"?>
<!DOCTYPE svg PUBLIC "-//W3C//DTD SVG 1.1//EN"
 "http://www.w3.org/Graphics/SVG/1.1/DTD/svg11.dtd">
<!-- Generated by graphviz version 2.50.0 (0)
 -->
<!-- Pages: 1 -->
<svg width="4850pt" height="202pt"
 viewBox="0.00 0.00 4850.00 202.06" xmlns="http://www.w3.org/2000/svg" xmlns:xlink="http://www.w3.org/1999/xlink">
<g id="graph0" class="graph" transform="scale(1 1) rotate(0) translate(4 198.06)">
<polygon fill="white" stroke="transparent" points="-4,4 -4,-198.06 4846,-198.06 4846,4 -4,4"/>
<!-- 6094055568 -->
<g id="node1" class="node">
<title>6094055568</title>
<ellipse fill="green" stroke="black" cx="18" cy="-133.06" rx="18" ry="18"/>
</g>
<!-- 6086392016 -->
<g id="node2" class="node">
<title>6086392016</title>
<polygon fill="none" stroke="black" points="180,-151.06 72,-151.06 72,-115.06 180,-115.06 180,-151.06"/>
<text text-anchor="middle" x="126" y="-129.96" font-family="Times,serif" font-size="12.00">Close audit process</text>
</g>
<!-- 6094055568&#45;&gt;6086392016 -->
<g id="edge1" class="edge">
<title>6094055568&#45;&gt;6086392016</title>
<path fill="none" stroke="black" d="M36.03,-133.06C43.25,-133.06 52.16,-133.06 61.52,-133.06"/>
<polygon fill="black" stroke="black" points="61.8,-136.56 71.8,-133.06 61.8,-129.56 61.8,-136.56"/>
</g>
<!-- 6094045968 -->
<g id="node3" class="node">
<title>6094045968</title>
<polygon fill="none" stroke="black" points="243,-151.06 216,-133.06 243,-115.06 270,-133.06 243,-151.06"/>
<text text-anchor="middle" x="243" y="-129.96" font-family="Times,serif" font-size="12.00">X</text>
</g>
<!-- 6086392016&#45;&gt;6094045968 -->
<g id="edge2" class="edge">
<title>6086392016&#45;&gt;6094045968</title>
<path fill="none" stroke="black" d="M180.12,-133.06C188.72,-133.06 197.44,-133.06 205.52,-133.06"/>
<polygon fill="black" stroke="black" points="205.71,-136.56 215.71,-133.06 205.71,-129.56 205.71,-136.56"/>
</g>
<!-- 6094051536 -->
<g id="node4" class="node">
<title>6094051536</title>
<polygon fill="none" stroke="black" points="1460,-151.06 1433,-133.06 1460,-115.06 1487,-133.06 1460,-151.06"/>
<text text-anchor="middle" x="1460" y="-129.96" font-family="Times,serif" font-size="12.00">X</text>
</g>
<!-- 6094045968&#45;&gt;6094051536 -->
<g id="edge4" class="edge">
<title>6094045968&#45;&gt;6094051536</title>
<path fill="none" stroke="black" d="M265.3,-136.45C307.37,-142.85 404.13,-156.06 486,-156.06 486,-156.06 486,-156.06 1244,-156.06 1309.96,-156.06 1386.66,-145.23 1428.28,-138.43"/>
<polygon fill="black" stroke="black" points="1429.03,-141.85 1438.32,-136.76 1427.88,-134.95 1429.03,-141.85"/>
</g>
<!-- 6091891088 -->
<g id="node5" class="node">
<title>6091891088</title>
<polygon fill="none" stroke="black" points="392,-128.06 306,-128.06 306,-92.06 392,-92.06 392,-128.06"/>
<text text-anchor="middle" x="349" y="-106.96" font-family="Times,serif" font-size="12.00">Archive report</text>
</g>
<!-- 6094045968&#45;&gt;6091891088 -->
<g id="edge3" class="edge">
<title>6094045968&#45;&gt;6091891088</title>
<path fill="none" stroke="black" d="M263.56,-128.73C272.75,-126.7 284.2,-124.17 295.67,-121.63"/>
<polygon fill="black" stroke="black" points="296.68,-124.99 305.69,-119.42 295.17,-118.16 296.68,-124.99"/>
</g>
<!-- 6086386192 -->
<g id="node6" class="node">
<title>6086386192</title>
<polygon fill="none" stroke="black" points="1550,-151.06 1523,-133.06 1550,-115.06 1577,-133.06 1550,-151.06"/>
<text text-anchor="middle" x="1550" y="-129.96" font-family="Times,serif" font-size="12.00">X</text>
</g>
<!-- 6094051536&#45;&gt;6086386192 -->
<g id="edge5" class="edge">
<title>6094051536&#45;&gt;6086386192</title>
<path fill="none" stroke="black" d="M1487.4,-133.06C1495.39,-133.06 1504.31,-133.06 1512.82,-133.06"/>
<polygon fill="black" stroke="black" points="1512.92,-136.56 1522.92,-133.06 1512.92,-129.56 1512.92,-136.56"/>
</g>
<!-- 6091885392 -->
<g id="node7" class="node">
<title>6091885392</title>
<polygon fill="none" stroke="black" points="546,-128.06 428,-128.06 428,-92.06 546,-92.06 546,-128.06"/>
<text text-anchor="middle" x="487" y="-106.96" font-family="Times,serif" font-size="12.00">Distribute final report</text>
</g>
<!-- 6091891088&#45;&gt;6091885392 -->
<g id="edge6" class="edge">
<title>6091891088&#45;&gt;6091885392</title>
<path fill="none" stroke="black" d="M392.29,-110.06C400.36,-110.06 408.99,-110.06 417.64,-110.06"/>
<polygon fill="black" stroke="black" points="417.76,-113.56 427.76,-110.06 417.76,-106.56 417.76,-113.56"/>
</g>
<!-- 6093651792 -->
<g id="node8" class="node">
<title>6093651792</title>
<polygon fill="none" stroke="black" points="3198,-151.06 3171,-133.06 3198,-115.06 3225,-133.06 3198,-151.06"/>
<text text-anchor="middle" x="3198" y="-129.96" font-family="Times,serif" font-size="12.00">X</text>
</g>
<!-- 6086386192&#45;&gt;6093651792 -->
<g id="edge7" class="edge">
<title>6086386192&#45;&gt;6093651792</title>
<path fill="none" stroke="black" d="M1573.15,-135.88C1623.38,-142.02 1749.8,-156.06 1856,-156.06 1856,-156.06 1856,-156.06 2941.5,-156.06 3022.45,-156.06 3117.24,-144.47 3165.42,-137.74"/>
<polygon fill="black" stroke="black" points="3166.12,-141.18 3175.52,-136.31 3165.13,-134.25 3166.12,-141.18"/>
</g>
<!-- 6092147024 -->
<g id="node9" class="node">
<title>6092147024</title>
<polygon fill="none" stroke="black" points="1727,-128.06 1613,-128.06 1613,-92.06 1727,-92.06 1727,-128.06"/>
<text text-anchor="middle" x="1670" y="-106.96" font-family="Times,serif" font-size="12.00">Compile audit report</text>
</g>
<!-- 6086386192&#45;&gt;6092147024 -->
<g id="edge8" class="edge">
<title>6086386192&#45;&gt;6092147024</title>
<path fill="none" stroke="black" d="M1571.28,-129.11C1580.25,-127.36 1591.36,-125.19 1602.84,-122.96"/>
<polygon fill="black" stroke="black" points="1603.82,-126.33 1612.97,-120.98 1602.48,-119.46 1603.82,-126.33"/>
</g>
<!-- 6091729680 -->
<g id="node10" class="node">
<title>6091729680</title>
<polygon fill="none" stroke="black" points="671,-128.06 582,-128.06 582,-92.06 671,-92.06 671,-128.06"/>
<text text-anchor="middle" x="626.5" y="-106.96" font-family="Times,serif" font-size="12.00">Approve report</text>
</g>
<!-- 6091885392&#45;&gt;6091729680 -->
<g id="edge9" class="edge">
<title>6091885392&#45;&gt;6091729680</title>
<path fill="none" stroke="black" d="M546.31,-110.06C554.65,-110.06 563.2,-110.06 571.45,-110.06"/>
<polygon fill="black" stroke="black" points="571.7,-113.56 581.7,-110.06 571.7,-106.56 571.7,-113.56"/>
</g>
<!-- 6094050704 -->
<g id="node11" class="node">
<title>6094050704</title>
<polygon fill="none" stroke="black" points="3288,-151.06 3261,-133.06 3288,-115.06 3315,-133.06 3288,-151.06"/>
<text text-anchor="middle" x="3288" y="-129.96" font-family="Times,serif" font-size="12.00">X</text>
</g>
<!-- 6093651792&#45;&gt;6094050704 -->
<g id="edge10" class="edge">
<title>6093651792&#45;&gt;6094050704</title>
<path fill="none" stroke="black" d="M3225.4,-133.06C3233.39,-133.06 3242.31,-133.06 3250.82,-133.06"/>
<polygon fill="black" stroke="black" points="3250.92,-136.56 3260.92,-133.06 3250.92,-129.56 3250.92,-136.56"/>
</g>
<!-- 6092157776 -->
<g id="node12" class="node">
<title>6092157776</title>
<polygon fill="none" stroke="black" points="1951,-128.06 1763,-128.06 1763,-92.06 1951,-92.06 1951,-128.06"/>
<text text-anchor="middle" x="1857" y="-106.96" font-family="Times,serif" font-size="12.00">Complete risk assessment/mitigation</text>
</g>
<!-- 6092147024&#45;&gt;6092157776 -->
<g id="edge11" class="edge">
<title>6092147024&#45;&gt;6092157776</title>
<path fill="none" stroke="black" d="M1727.01,-110.06C1735.28,-110.06 1744.01,-110.06 1752.87,-110.06"/>
<polygon fill="black" stroke="black" points="1752.91,-113.56 1762.91,-110.06 1752.91,-106.56 1752.91,-113.56"/>
</g>
<!-- 6091682128 -->
<g id="node13" class="node">
<title>6091682128</title>
<polygon fill="none" stroke="black" points="871,-128.06 707,-128.06 707,-92.06 871,-92.06 871,-128.06"/>
<text text-anchor="middle" x="789" y="-106.96" font-family="Times,serif" font-size="12.00">Review report by audit director</text>
</g>
<!-- 6091729680&#45;&gt;6091682128 -->
<g id="edge12" class="edge">
<title>6091729680&#45;&gt;6091682128</title>
<path fill="none" stroke="black" d="M671.36,-110.06C679.38,-110.06 688.02,-110.06 696.84,-110.06"/>
<polygon fill="black" stroke="black" points="696.85,-113.56 706.85,-110.06 696.85,-106.56 696.85,-113.56"/>
</g>
<!-- 6094045456 -->
<g id="node14" class="node">
<title>6094045456</title>
<polygon fill="none" stroke="black" points="4430,-171.06 4403,-153.06 4430,-135.06 4457,-153.06 4430,-171.06"/>
<text text-anchor="middle" x="4430" y="-149.96" font-family="Times,serif" font-size="12.00">X</text>
</g>
<!-- 6094050704&#45;&gt;6094045456 -->
<g id="edge13" class="edge">
<title>6094050704&#45;&gt;6094045456</title>
<path fill="none" stroke="black" d="M3306.82,-138.64C3344.97,-150.06 3437.51,-175.06 3517,-175.06 3517,-175.06 3517,-175.06 4251,-175.06 4303.35,-175.06 4363.7,-165.57 4398.97,-159.06"/>
<polygon fill="black" stroke="black" points="4399.9,-162.45 4409.08,-157.15 4398.6,-155.57 4399.9,-162.45"/>
</g>
<!-- 6091681744 -->
<g id="node15" class="node">
<title>6091681744</title>
<polygon fill="none" stroke="black" points="3455,-128.06 3351,-128.06 3351,-92.06 3455,-92.06 3455,-128.06"/>
<text text-anchor="middle" x="3403" y="-106.96" font-family="Times,serif" font-size="12.00">Submit documents</text>
</g>
<!-- 6094050704&#45;&gt;6091681744 -->
<g id="edge14" class="edge">
<title>6094050704&#45;&gt;6091681744</title>
<path fill="none" stroke="black" d="M3308.94,-129C3317.96,-127.17 3329.15,-124.89 3340.62,-122.55"/>
<polygon fill="black" stroke="black" points="3341.61,-125.92 3350.71,-120.5 3340.22,-119.06 3341.61,-125.92"/>
</g>
<!-- 6091676624 -->
<g id="node17" class="node">
<title>6091676624</title>
<polygon fill="none" stroke="black" points="2113,-128.06 1987,-128.06 1987,-92.06 2113,-92.06 2113,-128.06"/>
<text text-anchor="middle" x="2050" y="-106.96" font-family="Times,serif" font-size="12.00">Evaluate financial risks</text>
</g>
<!-- 6092157776&#45;&gt;6091676624 -->
<g id="edge15" class="edge">
<title>6092157776&#45;&gt;6091676624</title>
<path fill="none" stroke="black" d="M1951.26,-110.06C1959.88,-110.06 1968.52,-110.06 1976.91,-110.06"/>
<polygon fill="black" stroke="black" points="1976.99,-113.56 1986.99,-110.06 1976.99,-106.56 1976.99,-113.56"/>
</g>
<!-- 6091678864 -->
<g id="node16" class="node">
<title>6091678864</title>
<polygon fill="none" stroke="black" points="934,-128.06 907,-110.06 934,-92.06 961,-110.06 934,-128.06"/>
<text text-anchor="middle" x="934" y="-106.96" font-family="Times,serif" font-size="12.00">+</text>
</g>
<!-- 6091682128&#45;&gt;6091678864 -->
<g id="edge16" class="edge">
<title>6091682128&#45;&gt;6091678864</title>
<path fill="none" stroke="black" d="M871.11,-110.06C879.95,-110.06 888.59,-110.06 896.48,-110.06"/>
<polygon fill="black" stroke="black" points="896.72,-113.56 906.72,-110.06 896.72,-106.56 896.72,-113.56"/>
</g>
<!-- 6134303120 -->
<g id="node18" class="node">
<title>6134303120</title>
<polygon fill="none" stroke="black" points="4520,-171.06 4493,-153.06 4520,-135.06 4547,-153.06 4520,-171.06"/>
<text text-anchor="middle" x="4520" y="-149.96" font-family="Times,serif" font-size="12.00">X</text>
</g>
<!-- 6094045456&#45;&gt;6134303120 -->
<g id="edge17" class="edge">
<title>6094045456&#45;&gt;6134303120</title>
<path fill="none" stroke="black" d="M4457.4,-153.06C4465.39,-153.06 4474.31,-153.06 4482.82,-153.06"/>
<polygon fill="black" stroke="black" points="4482.92,-156.56 4492.92,-153.06 4482.92,-149.56 4482.92,-156.56"/>
</g>
<!-- 6091672080 -->
<g id="node21" class="node">
<title>6091672080</title>
<polygon fill="none" stroke="black" points="3518,-128.06 3491,-110.06 3518,-92.06 3545,-110.06 3518,-128.06"/>
<text text-anchor="middle" x="3518" y="-106.96" font-family="Times,serif" font-size="12.00">+</text>
</g>
<!-- 6091681744&#45;&gt;6091672080 -->
<g id="edge18" class="edge">
<title>6091681744&#45;&gt;6091672080</title>
<path fill="none" stroke="black" d="M3455.21,-110.06C3463.82,-110.06 3472.59,-110.06 3480.72,-110.06"/>
<polygon fill="black" stroke="black" points="3480.97,-113.56 3490.97,-110.06 3480.97,-106.56 3480.97,-113.56"/>
</g>
<!-- 6091896400 -->
<g id="node19" class="node">
<title>6091896400</title>
<polygon fill="none" stroke="black" points="1300,-128.06 1186,-128.06 1186,-92.06 1300,-92.06 1300,-128.06"/>
<text text-anchor="middle" x="1243" y="-106.96" font-family="Times,serif" font-size="12.00">Compile audit report</text>
</g>
<!-- 6091678864&#45;&gt;6091896400 -->
<g id="edge20" class="edge">
<title>6091678864&#45;&gt;6091896400</title>
<path fill="none" stroke="black" d="M961.17,-110.06C1008.28,-110.06 1108.64,-110.06 1175.73,-110.06"/>
<polygon fill="black" stroke="black" points="1175.79,-113.56 1185.79,-110.06 1175.79,-106.56 1175.79,-113.56"/>
</g>
<!-- 6091682320 -->
<g id="node22" class="node">
<title>6091682320</title>
<polygon fill="none" stroke="black" points="1143,-78.06 997,-78.06 997,-42.06 1143,-42.06 1143,-78.06"/>
<text text-anchor="middle" x="1070" y="-56.96" font-family="Times,serif" font-size="12.00">Update and resubmit report</text>
</g>
<!-- 6091678864&#45;&gt;6091682320 -->
<g id="edge19" class="edge">
<title>6091678864&#45;&gt;6091682320</title>
<path fill="none" stroke="black" d="M951.7,-103.83C966.67,-98.24 989.54,-89.71 1011.13,-81.65"/>
<polygon fill="black" stroke="black" points="1012.45,-84.9 1020.6,-78.12 1010,-78.34 1012.45,-84.9"/>
</g>
<!-- 6091676816 -->
<g id="node20" class="node">
<title>6091676816</title>
<polygon fill="none" stroke="black" points="2287,-128.06 2149,-128.06 2149,-92.06 2287,-92.06 2287,-128.06"/>
<text text-anchor="middle" x="2218" y="-106.96" font-family="Times,serif" font-size="12.00">Evaluate operational risks</text>
</g>
<!-- 6091676624&#45;&gt;6091676816 -->
<g id="edge21" class="edge">
<title>6091676624&#45;&gt;6091676816</title>
<path fill="none" stroke="black" d="M2113.28,-110.06C2121.53,-110.06 2130.06,-110.06 2138.53,-110.06"/>
<polygon fill="black" stroke="black" points="2138.8,-113.56 2148.8,-110.06 2138.8,-106.56 2138.8,-113.56"/>
</g>
<!-- 6091888720 -->
<g id="node26" class="node">
<title>6091888720</title>
<polygon fill="none" stroke="black" points="4680,-194.06 4583,-194.06 4583,-158.06 4680,-158.06 4680,-194.06"/>
<text text-anchor="middle" x="4631.5" y="-172.96" font-family="Times,serif" font-size="12.00">Send notification</text>
</g>
<!-- 6134303120&#45;&gt;6091888720 -->
<g id="edge22" class="edge">
<title>6134303120&#45;&gt;6091888720</title>
<path fill="none" stroke="black" d="M4540.83,-157.23C4549.89,-159.13 4561.13,-161.49 4572.56,-163.89"/>
<polygon fill="black" stroke="black" points="4572.1,-167.37 4582.6,-166 4573.54,-160.52 4572.1,-167.37"/>
</g>
<!-- 6086390864 -->
<g id="node25" class="node">
<title>6086390864</title>
<polygon fill="none" stroke="black" points="1370,-128.06 1343,-110.06 1370,-92.06 1397,-110.06 1370,-128.06"/>
<text text-anchor="middle" x="1370" y="-106.96" font-family="Times,serif" font-size="12.00">+</text>
</g>
<!-- 6091896400&#45;&gt;6086390864 -->
<g id="edge23" class="edge">
<title>6091896400&#45;&gt;6086390864</title>
<path fill="none" stroke="black" d="M1300.28,-110.06C1311.35,-110.06 1322.67,-110.06 1332.85,-110.06"/>
<polygon fill="black" stroke="black" points="1332.99,-113.56 1342.99,-110.06 1332.99,-106.56 1332.99,-113.56"/>
</g>
<!-- 6091884688 -->
<g id="node27" class="node">
<title>6091884688</title>
<polygon fill="none" stroke="black" points="2463,-128.06 2323,-128.06 2323,-92.06 2463,-92.06 2463,-128.06"/>
<text text-anchor="middle" x="2393" y="-106.96" font-family="Times,serif" font-size="12.00">Evaluate compliance risks</text>
</g>
<!-- 6091676816&#45;&gt;6091884688 -->
<g id="edge24" class="edge">
<title>6091676816&#45;&gt;6091884688</title>
<path fill="none" stroke="black" d="M2287.37,-110.06C2295.7,-110.06 2304.26,-110.06 2312.73,-110.06"/>
<polygon fill="black" stroke="black" points="2312.99,-113.56 2322.99,-110.06 2312.99,-106.56 2312.99,-113.56"/>
</g>
<!-- 6086390992 -->
<g id="node23" class="node">
<title>6086390992</title>
<polygon fill="none" stroke="black" points="3608,-128.06 3581,-110.06 3608,-92.06 3635,-110.06 3608,-128.06"/>
<text text-anchor="middle" x="3608" y="-106.96" font-family="Times,serif" font-size="12.00">X</text>
</g>
<!-- 6091672080&#45;&gt;6086390992 -->
<g id="edge25" class="edge">
<title>6091672080&#45;&gt;6086390992</title>
<path fill="none" stroke="black" d="M3545.4,-110.06C3553.39,-110.06 3562.31,-110.06 3570.82,-110.06"/>
<polygon fill="black" stroke="black" points="3570.92,-113.56 3580.92,-110.06 3570.92,-106.56 3570.92,-113.56"/>
</g>
<!-- 6086388176 -->
<g id="node24" class="node">
<title>6086388176</title>
<polygon fill="none" stroke="black" points="3608,-55.06 3581,-37.06 3608,-19.06 3635,-37.06 3608,-55.06"/>
<text text-anchor="middle" x="3608" y="-33.96" font-family="Times,serif" font-size="12.00">X</text>
</g>
<!-- 6091672080&#45;&gt;6086388176 -->
<g id="edge26" class="edge">
<title>6091672080&#45;&gt;6086388176</title>
<path fill="none" stroke="black" d="M3530.87,-100.21C3545.38,-88.17 3570.15,-67.63 3587.49,-53.25"/>
<polygon fill="black" stroke="black" points="3589.86,-55.83 3595.32,-46.75 3585.39,-50.44 3589.86,-55.83"/>
</g>
<!-- 6091676240 -->
<g id="node28" class="node">
<title>6091676240</title>
<polygon fill="none" stroke="black" points="1307,-74.06 1179,-74.06 1179,-38.06 1307,-38.06 1307,-74.06"/>
<text text-anchor="middle" x="1243" y="-52.96" font-family="Times,serif" font-size="12.00">Send report for revision</text>
</g>
<!-- 6091682320&#45;&gt;6091676240 -->
<g id="edge27" class="edge">
<title>6091682320&#45;&gt;6091676240</title>
<path fill="none" stroke="black" d="M1143.02,-58.38C1151.46,-58.18 1160.08,-57.98 1168.53,-57.78"/>
<polygon fill="black" stroke="black" points="1168.83,-61.27 1178.74,-57.54 1168.66,-54.27 1168.83,-61.27"/>
</g>
<!-- 6091677712 -->
<g id="node31" class="node">
<title>6091677712</title>
<polygon fill="none" stroke="black" points="3813.5,-147.06 3676.5,-147.06 3676.5,-111.06 3813.5,-111.06 3813.5,-147.06"/>
<text text-anchor="middle" x="3745" y="-125.96" font-family="Times,serif" font-size="12.00">Check regulatory updates</text>
</g>
<!-- 6086390992&#45;&gt;6091677712 -->
<g id="edge30" class="edge">
<title>6086390992&#45;&gt;6091677712</title>
<path fill="none" stroke="black" d="M3630.69,-113.11C3640.67,-114.52 3653.18,-116.28 3666.21,-118.11"/>
<polygon fill="black" stroke="black" points="3665.85,-121.6 3676.24,-119.52 3666.83,-114.66 3665.85,-121.6"/>
</g>
<!-- 6092146384 -->
<g id="node30" class="node">
<title>6092146384</title>
<polygon fill="none" stroke="black" points="3819,-55.06 3671,-55.06 3671,-19.06 3819,-19.06 3819,-55.06"/>
<text text-anchor="middle" x="3745" y="-33.96" font-family="Times,serif" font-size="12.00">Prepare financial statements</text>
</g>
<!-- 6086388176&#45;&gt;6092146384 -->
<g id="edge31" class="edge">
<title>6086388176&#45;&gt;6092146384</title>
<path fill="none" stroke="black" d="M3635.03,-37.06C3642.68,-37.06 3651.5,-37.06 3660.73,-37.06"/>
<polygon fill="black" stroke="black" points="3660.87,-40.56 3670.87,-37.06 3660.87,-33.56 3660.87,-40.56"/>
</g>
<!-- 6086390864&#45;&gt;6094051536 -->
<g id="edge28" class="edge">
<title>6086390864&#45;&gt;6094051536</title>
<path fill="none" stroke="black" d="M1390.09,-115.05C1401.82,-118.12 1417.07,-122.1 1430.24,-125.54"/>
<polygon fill="black" stroke="black" points="1429.68,-129.02 1440.24,-128.16 1431.45,-122.24 1429.68,-129.02"/>
</g>
<!-- 6094049040 -->
<g id="node29" class="node">
<title>6094049040</title>
<polygon fill="none" stroke="black" points="4743,-171.06 4716,-153.06 4743,-135.06 4770,-153.06 4743,-171.06"/>
<text text-anchor="middle" x="4743" y="-149.96" font-family="Times,serif" font-size="12.00">X</text>
</g>
<!-- 6091888720&#45;&gt;6094049040 -->
<g id="edge32" class="edge">
<title>6091888720&#45;&gt;6094049040</title>
<path fill="none" stroke="black" d="M4680.21,-166.04C4691.04,-163.76 4702.25,-161.41 4712.1,-159.34"/>
<polygon fill="black" stroke="black" points="4713.1,-162.71 4722.17,-157.23 4711.66,-155.86 4713.1,-162.71"/>
</g>
<!-- 6091677200 -->
<g id="node32" class="node">
<title>6091677200</title>
<polygon fill="none" stroke="black" points="2617,-128.06 2499,-128.06 2499,-92.06 2617,-92.06 2617,-128.06"/>
<text text-anchor="middle" x="2558" y="-106.96" font-family="Times,serif" font-size="12.00">Receive clarifications</text>
</g>
<!-- 6091884688&#45;&gt;6091677200 -->
<g id="edge33" class="edge">
<title>6091884688&#45;&gt;6091677200</title>
<path fill="none" stroke="black" d="M2463.13,-110.06C2471.58,-110.06 2480.21,-110.06 2488.65,-110.06"/>
<polygon fill="black" stroke="black" points="2488.82,-113.56 2498.82,-110.06 2488.82,-106.56 2488.82,-113.56"/>
</g>
<!-- 6091676240&#45;&gt;6086390864 -->
<g id="edge29" class="edge">
<title>6091676240&#45;&gt;6086390864</title>
<path fill="none" stroke="black" d="M1286.37,-74.18C1293.27,-77.14 1300.34,-80.18 1307,-83.06 1319.17,-88.32 1332.67,-94.19 1343.95,-99.11"/>
<polygon fill="black" stroke="black" points="1342.65,-102.36 1353.21,-103.15 1345.45,-95.95 1342.65,-102.36"/>
</g>
<!-- 6094049040&#45;&gt;6134303120 -->
<g id="edge34" class="edge">
<title>6094049040&#45;&gt;6134303120</title>
<path fill="none" stroke="black" d="M4718.76,-151.2C4707.13,-150.37 4692.83,-149.47 4680,-149.06 4636.91,-147.67 4626.09,-147.67 4583,-149.06 4573.68,-149.36 4563.58,-149.91 4554.3,-150.52"/>
<polygon fill="black" stroke="black" points="4553.98,-147.03 4544.24,-151.2 4554.46,-154.01 4553.98,-147.03"/>
</g>
<!-- 6087635472 -->
<g id="node42" class="node">
<title>6087635472</title>
<ellipse fill="orange" stroke="black" cx="4824" cy="-153.06" rx="18" ry="18"/>
</g>
<!-- 6094049040&#45;&gt;6087635472 -->
<g id="edge38" class="edge">
<title>6094049040&#45;&gt;6087635472</title>
<path fill="none" stroke="black" d="M4770.31,-153.06C4778.42,-153.06 4787.37,-153.06 4795.56,-153.06"/>
<polygon fill="black" stroke="black" points="4795.75,-156.56 4805.75,-153.06 4795.75,-149.56 4795.75,-156.56"/>
</g>
<!-- 6094056144 -->
<g id="node34" class="node">
<title>6094056144</title>
<polygon fill="none" stroke="black" points="3882,-55.06 3855,-37.06 3882,-19.06 3909,-37.06 3882,-55.06"/>
<text text-anchor="middle" x="3882" y="-33.96" font-family="Times,serif" font-size="12.00">X</text>
</g>
<!-- 6092146384&#45;&gt;6094056144 -->
<g id="edge35" class="edge">
<title>6092146384&#45;&gt;6094056144</title>
<path fill="none" stroke="black" d="M3819.03,-37.06C3827.93,-37.06 3836.7,-37.06 3844.72,-37.06"/>
<polygon fill="black" stroke="black" points="3844.77,-40.56 3854.77,-37.06 3844.77,-33.56 3844.77,-40.56"/>
</g>
<!-- 6094050512 -->
<g id="node33" class="node">
<title>6094050512</title>
<polygon fill="none" stroke="black" points="3882,-110.06 3855,-92.06 3882,-74.06 3909,-92.06 3882,-110.06"/>
<text text-anchor="middle" x="3882" y="-88.96" font-family="Times,serif" font-size="12.00">X</text>
</g>
<!-- 6091677712&#45;&gt;6094050512 -->
<g id="edge36" class="edge">
<title>6091677712&#45;&gt;6094050512</title>
<path fill="none" stroke="black" d="M3811.92,-110.99C3826.31,-107.05 3840.8,-103.08 3852.76,-99.8"/>
<polygon fill="black" stroke="black" points="3853.84,-103.13 3862.56,-97.11 3851.99,-96.38 3853.84,-103.13"/>
</g>
<!-- 6091889616 -->
<g id="node35" class="node">
<title>6091889616</title>
<polygon fill="none" stroke="black" points="2850,-128.06 2653,-128.06 2653,-92.06 2850,-92.06 2850,-128.06"/>
<text text-anchor="middle" x="2751.5" y="-106.96" font-family="Times,serif" font-size="12.00">Request clarifications of discrepancies</text>
</g>
<!-- 6091677200&#45;&gt;6091889616 -->
<g id="edge37" class="edge">
<title>6091677200&#45;&gt;6091889616</title>
<path fill="none" stroke="black" d="M2617.24,-110.06C2625.38,-110.06 2633.96,-110.06 2642.67,-110.06"/>
<polygon fill="black" stroke="black" points="2642.94,-113.56 2652.94,-110.06 2642.94,-106.56 2642.94,-113.56"/>
</g>
<!-- 6094050512&#45;&gt;6086390992 -->
<g id="edge39" class="edge">
<title>6094050512&#45;&gt;6086390992</title>
<path fill="none" stroke="black" d="M3855.74,-92.6C3816.26,-93.6 3737.54,-96.19 3671,-102.06 3661.08,-102.94 3650.3,-104.21 3640.55,-105.49"/>
<polygon fill="black" stroke="black" points="3639.91,-102.04 3630.47,-106.86 3640.85,-108.98 3639.91,-102.04"/>
</g>
<!-- 6093151312 -->
<g id="node36" class="node">
<title>6093151312</title>
<polygon fill="none" stroke="black" points="3972,-110.06 3945,-92.06 3972,-74.06 3999,-92.06 3972,-110.06"/>
<text text-anchor="middle" x="3972" y="-88.96" font-family="Times,serif" font-size="12.00">X</text>
</g>
<!-- 6094050512&#45;&gt;6093151312 -->
<g id="edge41" class="edge">
<title>6094050512&#45;&gt;6093151312</title>
<path fill="none" stroke="black" d="M3909.4,-92.06C3917.39,-92.06 3926.31,-92.06 3934.82,-92.06"/>
<polygon fill="black" stroke="black" points="3934.92,-95.56 3944.92,-92.06 3934.92,-88.56 3934.92,-95.56"/>
</g>
<!-- 6094056144&#45;&gt;6086388176 -->
<g id="edge40" class="edge">
<title>6094056144&#45;&gt;6086388176</title>
<path fill="none" stroke="black" d="M3866.78,-28.85C3854.56,-22.3 3836.24,-13.65 3819,-10.06 3754.6,3.35 3735.4,3.35 3671,-10.06 3657.67,-12.84 3643.68,-18.64 3632.38,-24.16"/>
<polygon fill="black" stroke="black" points="3630.52,-21.18 3623.22,-28.85 3633.72,-27.41 3630.52,-21.18"/>
</g>
<!-- 6091890000 -->
<g id="node38" class="node">
<title>6091890000</title>
<polygon fill="none" stroke="black" points="4340,-127.06 4313,-109.06 4340,-91.06 4367,-109.06 4340,-127.06"/>
<text text-anchor="middle" x="4340" y="-105.96" font-family="Times,serif" font-size="12.00">+</text>
</g>
<!-- 6094056144&#45;&gt;6091890000 -->
<g id="edge42" class="edge">
<title>6094056144&#45;&gt;6091890000</title>
<path fill="none" stroke="black" d="M3908.84,-37.38C3972.53,-38.73 4141.68,-45.74 4277,-82.06 4289.98,-85.54 4303.75,-91.31 4315,-96.62"/>
<polygon fill="black" stroke="black" points="4313.65,-99.85 4324.17,-101.1 4316.72,-93.57 4313.65,-99.85"/>
</g>
<!-- 6091896336 -->
<g id="node37" class="node">
<title>6091896336</title>
<polygon fill="none" stroke="black" points="2995,-128.06 2886,-128.06 2886,-92.06 2995,-92.06 2995,-128.06"/>
<text text-anchor="middle" x="2940.5" y="-106.96" font-family="Times,serif" font-size="12.00">Review submission</text>
</g>
<!-- 6091889616&#45;&gt;6091896336 -->
<g id="edge43" class="edge">
<title>6091889616&#45;&gt;6091896336</title>
<path fill="none" stroke="black" d="M2850.11,-110.06C2858.7,-110.06 2867.25,-110.06 2875.46,-110.06"/>
<polygon fill="black" stroke="black" points="2875.65,-113.56 2885.65,-110.06 2875.65,-106.56 2875.65,-113.56"/>
</g>
<!-- 6092159056 -->
<g id="node39" class="node">
<title>6092159056</title>
<polygon fill="none" stroke="black" points="4187,-145.06 4035,-145.06 4035,-109.06 4187,-109.06 4187,-145.06"/>
<text text-anchor="middle" x="4111" y="-123.96" font-family="Times,serif" font-size="12.00">Gather necessary documents</text>
</g>
<!-- 6093151312&#45;&gt;6092159056 -->
<g id="edge45" class="edge">
<title>6093151312&#45;&gt;6092159056</title>
<path fill="none" stroke="black" d="M3992.05,-96.93C4002.26,-99.54 4015.62,-102.95 4029.66,-106.54"/>
<polygon fill="black" stroke="black" points="4028.91,-109.96 4039.46,-109.04 4030.64,-103.17 4028.91,-109.96"/>
</g>
<!-- 6091896208 -->
<g id="node40" class="node">
<title>6091896208</title>
<polygon fill="none" stroke="black" points="3135,-128.06 3031,-128.06 3031,-92.06 3135,-92.06 3135,-128.06"/>
<text text-anchor="middle" x="3083" y="-106.96" font-family="Times,serif" font-size="12.00">Submit documents</text>
</g>
<!-- 6091896336&#45;&gt;6091896208 -->
<g id="edge46" class="edge">
<title>6091896336&#45;&gt;6091896208</title>
<path fill="none" stroke="black" d="M2995.02,-110.06C3003.49,-110.06 3012.31,-110.06 3020.94,-110.06"/>
<polygon fill="black" stroke="black" points="3020.95,-113.56 3030.95,-110.06 3020.95,-106.56 3020.95,-113.56"/>
</g>
<!-- 6091890000&#45;&gt;6094045456 -->
<g id="edge44" class="edge">
<title>6091890000&#45;&gt;6094045456</title>
<path fill="none" stroke="black" d="M4355.93,-116.52C4369.33,-123.22 4389.24,-133.18 4404.9,-141.01"/>
<polygon fill="black" stroke="black" points="4403.49,-144.22 4414,-145.56 4406.62,-137.96 4403.49,-144.22"/>
</g>
<!-- 6094048976 -->
<g id="node41" class="node">
<title>6094048976</title>
<polygon fill="none" stroke="black" points="4250,-127.06 4223,-109.06 4250,-91.06 4277,-109.06 4250,-127.06"/>
<text text-anchor="middle" x="4250" y="-105.96" font-family="Times,serif" font-size="12.00">X</text>
</g>
<!-- 6092159056&#45;&gt;6094048976 -->
<g id="edge48" class="edge">
<title>6092159056&#45;&gt;6094048976</title>
<path fill="none" stroke="black" d="M4187.31,-117.16C4197.77,-115.79 4208.01,-114.44 4217.06,-113.26"/>
<polygon fill="black" stroke="black" points="4217.6,-116.72 4227.06,-111.94 4216.69,-109.78 4217.6,-116.72"/>
</g>
<!-- 6091896208&#45;&gt;6093651792 -->
<g id="edge47" class="edge">
<title>6091896208&#45;&gt;6093651792</title>
<path fill="none" stroke="black" d="M3135.21,-120.48C3146.1,-122.7 3157.26,-124.97 3167.04,-126.96"/>
<polygon fill="black" stroke="black" points="3166.54,-130.43 3177.04,-129 3167.94,-123.57 3166.54,-130.43"/>
</g>
<!-- 6094048976&#45;&gt;6093151312 -->
<g id="edge50" class="edge">
<title>6094048976&#45;&gt;6093151312</title>
<path fill="none" stroke="black" d="M4228.12,-105.46C4216.12,-103.54 4200.76,-101.31 4187,-100.06 4124.71,-94.39 4051.86,-92.72 4009.24,-92.24"/>
<polygon fill="black" stroke="black" points="4009.11,-88.74 3999.08,-92.14 4009.05,-95.74 4009.11,-88.74"/>
</g>
<!-- 6094048976&#45;&gt;6091890000 -->
<g id="edge49" class="edge">
<title>6094048976&#45;&gt;6091890000</title>
<path fill="none" stroke="black" d="M4277.4,-109.06C4285.39,-109.06 4294.31,-109.06 4302.82,-109.06"/>
<polygon fill="black" stroke="black" points="4302.92,-112.56 4312.92,-109.06 4302.92,-105.56 4302.92,-112.56"/>
</g>
</g>
</svg>
