<?xml version="1.0" encoding="UTF-8" standalone="no"?>
<!DOCTYPE svg PUBLIC "-//W3C//DTD SVG 1.1//EN"
 "http://www.w3.org/Graphics/SVG/1.1/DTD/svg11.dtd">
<!-- Generated by graphviz version 2.50.0 (0)
 -->
<!-- Pages: 1 -->
<svg width="4850pt" height="201pt"
 viewBox="0.00 0.00 4850.00 201.06" xmlns="http://www.w3.org/2000/svg" xmlns:xlink="http://www.w3.org/1999/xlink">
<g id="graph0" class="graph" transform="scale(1 1) rotate(0) translate(4 197.06)">
<polygon fill="white" stroke="transparent" points="-4,4 -4,-197.06 4846,-197.06 4846,4 -4,4"/>
<!-- 6092514256 -->
<g id="node1" class="node">
<title>6092514256</title>
<ellipse fill="green" stroke="black" cx="18" cy="-133.06" rx="18" ry="18"/>
</g>
<!-- 6096062288 -->
<g id="node2" class="node">
<title>6096062288</title>
<polygon fill="none" stroke="black" points="180,-151.06 72,-151.06 72,-115.06 180,-115.06 180,-151.06"/>
<text text-anchor="middle" x="126" y="-129.96" font-family="Times,serif" font-size="12.00">Close audit process</text>
</g>
<!-- 6092514256&#45;&gt;6096062288 -->
<g id="edge1" class="edge">
<title>6092514256&#45;&gt;6096062288</title>
<path fill="none" stroke="black" d="M36.03,-133.06C43.25,-133.06 52.16,-133.06 61.52,-133.06"/>
<polygon fill="black" stroke="black" points="61.8,-136.56 71.8,-133.06 61.8,-129.56 61.8,-136.56"/>
</g>
<!-- 6134400400 -->
<g id="node3" class="node">
<title>6134400400</title>
<polygon fill="none" stroke="black" points="243,-151.06 216,-133.06 243,-115.06 270,-133.06 243,-151.06"/>
<text text-anchor="middle" x="243" y="-129.96" font-family="Times,serif" font-size="12.00">X</text>
</g>
<!-- 6096062288&#45;&gt;6134400400 -->
<g id="edge2" class="edge">
<title>6096062288&#45;&gt;6134400400</title>
<path fill="none" stroke="black" d="M180.12,-133.06C188.72,-133.06 197.44,-133.06 205.52,-133.06"/>
<polygon fill="black" stroke="black" points="205.71,-136.56 215.71,-133.06 205.71,-129.56 205.71,-136.56"/>
</g>
<!-- 6134406160 -->
<g id="node4" class="node">
<title>6134406160</title>
<polygon fill="none" stroke="black" points="1460,-151.06 1433,-133.06 1460,-115.06 1487,-133.06 1460,-151.06"/>
<text text-anchor="middle" x="1460" y="-129.96" font-family="Times,serif" font-size="12.00">X</text>
</g>
<!-- 6134400400&#45;&gt;6134406160 -->
<g id="edge3" class="edge">
<title>6134400400&#45;&gt;6134406160</title>
<path fill="none" stroke="black" d="M265.3,-136.45C307.37,-142.85 404.13,-156.06 486,-156.06 486,-156.06 486,-156.06 1244,-156.06 1309.96,-156.06 1386.66,-145.23 1428.28,-138.43"/>
<polygon fill="black" stroke="black" points="1429.03,-141.85 1438.32,-136.76 1427.88,-134.95 1429.03,-141.85"/>
</g>
<!-- 6133647824 -->
<g id="node5" class="node">
<title>6133647824</title>
<polygon fill="none" stroke="black" points="392,-128.06 306,-128.06 306,-92.06 392,-92.06 392,-128.06"/>
<text text-anchor="middle" x="349" y="-106.96" font-family="Times,serif" font-size="12.00">Archive report</text>
</g>
<!-- 6134400400&#45;&gt;6133647824 -->
<g id="edge4" class="edge">
<title>6134400400&#45;&gt;6133647824</title>
<path fill="none" stroke="black" d="M263.56,-128.73C272.75,-126.7 284.2,-124.17 295.67,-121.63"/>
<polygon fill="black" stroke="black" points="296.68,-124.99 305.69,-119.42 295.17,-118.16 296.68,-124.99"/>
</g>
<!-- 6092521232 -->
<g id="node6" class="node">
<title>6092521232</title>
<polygon fill="none" stroke="black" points="1550,-151.06 1523,-133.06 1550,-115.06 1577,-133.06 1550,-151.06"/>
<text text-anchor="middle" x="1550" y="-129.96" font-family="Times,serif" font-size="12.00">X</text>
</g>
<!-- 6134406160&#45;&gt;6092521232 -->
<g id="edge5" class="edge">
<title>6134406160&#45;&gt;6092521232</title>
<path fill="none" stroke="black" d="M1487.4,-133.06C1495.39,-133.06 1504.31,-133.06 1512.82,-133.06"/>
<polygon fill="black" stroke="black" points="1512.92,-136.56 1522.92,-133.06 1512.92,-129.56 1512.92,-136.56"/>
</g>
<!-- 6086476560 -->
<g id="node7" class="node">
<title>6086476560</title>
<polygon fill="none" stroke="black" points="546,-128.06 428,-128.06 428,-92.06 546,-92.06 546,-128.06"/>
<text text-anchor="middle" x="487" y="-106.96" font-family="Times,serif" font-size="12.00">Distribute final report</text>
</g>
<!-- 6133647824&#45;&gt;6086476560 -->
<g id="edge6" class="edge">
<title>6133647824&#45;&gt;6086476560</title>
<path fill="none" stroke="black" d="M392.29,-110.06C400.36,-110.06 408.99,-110.06 417.64,-110.06"/>
<polygon fill="black" stroke="black" points="417.76,-113.56 427.76,-110.06 417.76,-106.56 417.76,-113.56"/>
</g>
<!-- 6092512336 -->
<g id="node8" class="node">
<title>6092512336</title>
<polygon fill="none" stroke="black" points="3198,-151.06 3171,-133.06 3198,-115.06 3225,-133.06 3198,-151.06"/>
<text text-anchor="middle" x="3198" y="-129.96" font-family="Times,serif" font-size="12.00">X</text>
</g>
<!-- 6092521232&#45;&gt;6092512336 -->
<g id="edge7" class="edge">
<title>6092521232&#45;&gt;6092512336</title>
<path fill="none" stroke="black" d="M1573.15,-135.88C1623.38,-142.02 1749.8,-156.06 1856,-156.06 1856,-156.06 1856,-156.06 2941.5,-156.06 3022.45,-156.06 3117.24,-144.47 3165.42,-137.74"/>
<polygon fill="black" stroke="black" points="3166.12,-141.18 3175.52,-136.31 3165.13,-134.25 3166.12,-141.18"/>
</g>
<!-- 6134410768 -->
<g id="node9" class="node">
<title>6134410768</title>
<polygon fill="none" stroke="black" points="1727,-128.06 1613,-128.06 1613,-92.06 1727,-92.06 1727,-128.06"/>
<text text-anchor="middle" x="1670" y="-106.96" font-family="Times,serif" font-size="12.00">Compile audit report</text>
</g>
<!-- 6092521232&#45;&gt;6134410768 -->
<g id="edge8" class="edge">
<title>6092521232&#45;&gt;6134410768</title>
<path fill="none" stroke="black" d="M1571.28,-129.11C1580.25,-127.36 1591.36,-125.19 1602.84,-122.96"/>
<polygon fill="black" stroke="black" points="1603.82,-126.33 1612.97,-120.98 1602.48,-119.46 1603.82,-126.33"/>
</g>
<!-- 6092153872 -->
<g id="node10" class="node">
<title>6092153872</title>
<polygon fill="none" stroke="black" points="671,-128.06 582,-128.06 582,-92.06 671,-92.06 671,-128.06"/>
<text text-anchor="middle" x="626.5" y="-106.96" font-family="Times,serif" font-size="12.00">Approve report</text>
</g>
<!-- 6086476560&#45;&gt;6092153872 -->
<g id="edge9" class="edge">
<title>6086476560&#45;&gt;6092153872</title>
<path fill="none" stroke="black" d="M546.31,-110.06C554.65,-110.06 563.2,-110.06 571.45,-110.06"/>
<polygon fill="black" stroke="black" points="571.7,-113.56 581.7,-110.06 571.7,-106.56 571.7,-113.56"/>
</g>
<!-- 6092507024 -->
<g id="node11" class="node">
<title>6092507024</title>
<polygon fill="none" stroke="black" points="3288,-151.06 3261,-133.06 3288,-115.06 3315,-133.06 3288,-151.06"/>
<text text-anchor="middle" x="3288" y="-129.96" font-family="Times,serif" font-size="12.00">X</text>
</g>
<!-- 6092512336&#45;&gt;6092507024 -->
<g id="edge10" class="edge">
<title>6092512336&#45;&gt;6092507024</title>
<path fill="none" stroke="black" d="M3225.4,-133.06C3233.39,-133.06 3242.31,-133.06 3250.82,-133.06"/>
<polygon fill="black" stroke="black" points="3250.92,-136.56 3260.92,-133.06 3250.92,-129.56 3250.92,-136.56"/>
</g>
<!-- 6086491536 -->
<g id="node13" class="node">
<title>6086491536</title>
<polygon fill="none" stroke="black" points="1951,-128.06 1763,-128.06 1763,-92.06 1951,-92.06 1951,-128.06"/>
<text text-anchor="middle" x="1857" y="-106.96" font-family="Times,serif" font-size="12.00">Complete risk assessment/mitigation</text>
</g>
<!-- 6134410768&#45;&gt;6086491536 -->
<g id="edge11" class="edge">
<title>6134410768&#45;&gt;6086491536</title>
<path fill="none" stroke="black" d="M1727.01,-110.06C1735.28,-110.06 1744.01,-110.06 1752.87,-110.06"/>
<polygon fill="black" stroke="black" points="1752.91,-113.56 1762.91,-110.06 1752.91,-106.56 1752.91,-113.56"/>
</g>
<!-- 6133657104 -->
<g id="node12" class="node">
<title>6133657104</title>
<polygon fill="none" stroke="black" points="871,-128.06 707,-128.06 707,-92.06 871,-92.06 871,-128.06"/>
<text text-anchor="middle" x="789" y="-106.96" font-family="Times,serif" font-size="12.00">Review report by audit director</text>
</g>
<!-- 6092153872&#45;&gt;6133657104 -->
<g id="edge12" class="edge">
<title>6092153872&#45;&gt;6133657104</title>
<path fill="none" stroke="black" d="M671.36,-110.06C679.38,-110.06 688.02,-110.06 696.84,-110.06"/>
<polygon fill="black" stroke="black" points="696.85,-113.56 706.85,-110.06 696.85,-106.56 696.85,-113.56"/>
</g>
<!-- 6134409808 -->
<g id="node14" class="node">
<title>6134409808</title>
<polygon fill="none" stroke="black" points="4430,-170.06 4403,-152.06 4430,-134.06 4457,-152.06 4430,-170.06"/>
<text text-anchor="middle" x="4430" y="-148.96" font-family="Times,serif" font-size="12.00">X</text>
</g>
<!-- 6092507024&#45;&gt;6134409808 -->
<g id="edge13" class="edge">
<title>6092507024&#45;&gt;6134409808</title>
<path fill="none" stroke="black" d="M3306.82,-138.64C3344.97,-150.06 3437.51,-175.06 3517,-175.06 3517,-175.06 3517,-175.06 4251,-175.06 4303.38,-175.06 4363.73,-165.14 4398.99,-158.33"/>
<polygon fill="black" stroke="black" points="4399.96,-161.71 4409.09,-156.33 4398.6,-154.84 4399.96,-161.71"/>
</g>
<!-- 6086489104 -->
<g id="node17" class="node">
<title>6086489104</title>
<polygon fill="none" stroke="black" points="3455,-128.06 3351,-128.06 3351,-92.06 3455,-92.06 3455,-128.06"/>
<text text-anchor="middle" x="3403" y="-106.96" font-family="Times,serif" font-size="12.00">Submit documents</text>
</g>
<!-- 6092507024&#45;&gt;6086489104 -->
<g id="edge14" class="edge">
<title>6092507024&#45;&gt;6086489104</title>
<path fill="none" stroke="black" d="M3308.94,-129C3317.96,-127.17 3329.15,-124.89 3340.62,-122.55"/>
<polygon fill="black" stroke="black" points="3341.61,-125.92 3350.71,-120.5 3340.22,-119.06 3341.61,-125.92"/>
</g>
<!-- 6133657808 -->
<g id="node16" class="node">
<title>6133657808</title>
<polygon fill="none" stroke="black" points="934,-128.06 907,-110.06 934,-92.06 961,-110.06 934,-128.06"/>
<text text-anchor="middle" x="934" y="-106.96" font-family="Times,serif" font-size="12.00">+</text>
</g>
<!-- 6133657104&#45;&gt;6133657808 -->
<g id="edge15" class="edge">
<title>6133657104&#45;&gt;6133657808</title>
<path fill="none" stroke="black" d="M871.11,-110.06C879.95,-110.06 888.59,-110.06 896.48,-110.06"/>
<polygon fill="black" stroke="black" points="896.72,-113.56 906.72,-110.06 896.72,-106.56 896.72,-113.56"/>
</g>
<!-- 6133652624 -->
<g id="node15" class="node">
<title>6133652624</title>
<polygon fill="none" stroke="black" points="2113,-128.06 1987,-128.06 1987,-92.06 2113,-92.06 2113,-128.06"/>
<text text-anchor="middle" x="2050" y="-106.96" font-family="Times,serif" font-size="12.00">Evaluate financial risks</text>
</g>
<!-- 6086491536&#45;&gt;6133652624 -->
<g id="edge16" class="edge">
<title>6086491536&#45;&gt;6133652624</title>
<path fill="none" stroke="black" d="M1951.26,-110.06C1959.88,-110.06 1968.52,-110.06 1976.91,-110.06"/>
<polygon fill="black" stroke="black" points="1976.99,-113.56 1986.99,-110.06 1976.99,-106.56 1976.99,-113.56"/>
</g>
<!-- 6134412112 -->
<g id="node18" class="node">
<title>6134412112</title>
<polygon fill="none" stroke="black" points="4520,-170.06 4493,-152.06 4520,-134.06 4547,-152.06 4520,-170.06"/>
<text text-anchor="middle" x="4520" y="-148.96" font-family="Times,serif" font-size="12.00">X</text>
</g>
<!-- 6134409808&#45;&gt;6134412112 -->
<g id="edge17" class="edge">
<title>6134409808&#45;&gt;6134412112</title>
<path fill="none" stroke="black" d="M4457.4,-152.06C4465.39,-152.06 4474.31,-152.06 4482.82,-152.06"/>
<polygon fill="black" stroke="black" points="4482.92,-155.56 4492.92,-152.06 4482.92,-148.56 4482.92,-155.56"/>
</g>
<!-- 6133661392 -->
<g id="node21" class="node">
<title>6133661392</title>
<polygon fill="none" stroke="black" points="2287,-128.06 2149,-128.06 2149,-92.06 2287,-92.06 2287,-128.06"/>
<text text-anchor="middle" x="2218" y="-106.96" font-family="Times,serif" font-size="12.00">Evaluate operational risks</text>
</g>
<!-- 6133652624&#45;&gt;6133661392 -->
<g id="edge18" class="edge">
<title>6133652624&#45;&gt;6133661392</title>
<path fill="none" stroke="black" d="M2113.28,-110.06C2121.53,-110.06 2130.06,-110.06 2138.53,-110.06"/>
<polygon fill="black" stroke="black" points="2138.8,-113.56 2148.8,-110.06 2138.8,-106.56 2138.8,-113.56"/>
</g>
<!-- 6134402448 -->
<g id="node19" class="node">
<title>6134402448</title>
<polygon fill="none" stroke="black" points="1143,-128.06 997,-128.06 997,-92.06 1143,-92.06 1143,-128.06"/>
<text text-anchor="middle" x="1070" y="-106.96" font-family="Times,serif" font-size="12.00">Update and resubmit report</text>
</g>
<!-- 6133657808&#45;&gt;6134402448 -->
<g id="edge19" class="edge">
<title>6133657808&#45;&gt;6134402448</title>
<path fill="none" stroke="black" d="M961.15,-110.06C968.82,-110.06 977.63,-110.06 986.85,-110.06"/>
<polygon fill="black" stroke="black" points="986.98,-113.56 996.98,-110.06 986.98,-106.56 986.98,-113.56"/>
</g>
<!-- 6134412432 -->
<g id="node20" class="node">
<title>6134412432</title>
<polygon fill="none" stroke="black" points="1300,-74.06 1186,-74.06 1186,-38.06 1300,-38.06 1300,-74.06"/>
<text text-anchor="middle" x="1243" y="-52.96" font-family="Times,serif" font-size="12.00">Compile audit report</text>
</g>
<!-- 6133657808&#45;&gt;6134412432 -->
<g id="edge20" class="edge">
<title>6133657808&#45;&gt;6134412432</title>
<path fill="none" stroke="black" d="M949.83,-102.09C962.11,-95.86 980.21,-87.53 997,-83.06 1056.19,-67.3 1125.78,-60.72 1175.64,-57.99"/>
<polygon fill="black" stroke="black" points="1175.85,-61.48 1185.66,-57.47 1175.49,-54.49 1175.85,-61.48"/>
</g>
<!-- 6086490512 -->
<g id="node22" class="node">
<title>6086490512</title>
<polygon fill="none" stroke="black" points="3518,-128.06 3491,-110.06 3518,-92.06 3545,-110.06 3518,-128.06"/>
<text text-anchor="middle" x="3518" y="-106.96" font-family="Times,serif" font-size="12.00">+</text>
</g>
<!-- 6086489104&#45;&gt;6086490512 -->
<g id="edge21" class="edge">
<title>6086489104&#45;&gt;6086490512</title>
<path fill="none" stroke="black" d="M3455.21,-110.06C3463.82,-110.06 3472.59,-110.06 3480.72,-110.06"/>
<polygon fill="black" stroke="black" points="3480.97,-113.56 3490.97,-110.06 3480.97,-106.56 3480.97,-113.56"/>
</g>
<!-- 6086482128 -->
<g id="node28" class="node">
<title>6086482128</title>
<polygon fill="none" stroke="black" points="4680,-193.06 4583,-193.06 4583,-157.06 4680,-157.06 4680,-193.06"/>
<text text-anchor="middle" x="4631.5" y="-171.96" font-family="Times,serif" font-size="12.00">Send notification</text>
</g>
<!-- 6134412112&#45;&gt;6086482128 -->
<g id="edge22" class="edge">
<title>6134412112&#45;&gt;6086482128</title>
<path fill="none" stroke="black" d="M4540.83,-156.23C4549.89,-158.13 4561.13,-160.49 4572.56,-162.89"/>
<polygon fill="black" stroke="black" points="4572.1,-166.37 4582.6,-165 4573.54,-159.52 4572.1,-166.37"/>
</g>
<!-- 6086483408 -->
<g id="node27" class="node">
<title>6086483408</title>
<polygon fill="none" stroke="black" points="1307,-128.06 1179,-128.06 1179,-92.06 1307,-92.06 1307,-128.06"/>
<text text-anchor="middle" x="1243" y="-106.96" font-family="Times,serif" font-size="12.00">Send report for revision</text>
</g>
<!-- 6134402448&#45;&gt;6086483408 -->
<g id="edge23" class="edge">
<title>6134402448&#45;&gt;6086483408</title>
<path fill="none" stroke="black" d="M1143.02,-110.06C1151.46,-110.06 1160.08,-110.06 1168.53,-110.06"/>
<polygon fill="black" stroke="black" points="1168.74,-113.56 1178.74,-110.06 1168.74,-106.56 1168.74,-113.56"/>
</g>
<!-- 6086489616 -->
<g id="node26" class="node">
<title>6086489616</title>
<polygon fill="none" stroke="black" points="1370,-128.06 1343,-110.06 1370,-92.06 1397,-110.06 1370,-128.06"/>
<text text-anchor="middle" x="1370" y="-106.96" font-family="Times,serif" font-size="12.00">+</text>
</g>
<!-- 6134412432&#45;&gt;6086489616 -->
<g id="edge24" class="edge">
<title>6134412432&#45;&gt;6086489616</title>
<path fill="none" stroke="black" d="M1286.37,-74.18C1293.27,-77.14 1300.34,-80.18 1307,-83.06 1319.17,-88.32 1332.67,-94.19 1343.95,-99.11"/>
<polygon fill="black" stroke="black" points="1342.65,-102.36 1353.21,-103.15 1345.45,-95.95 1342.65,-102.36"/>
</g>
<!-- 6133659920 -->
<g id="node25" class="node">
<title>6133659920</title>
<polygon fill="none" stroke="black" points="2463,-128.06 2323,-128.06 2323,-92.06 2463,-92.06 2463,-128.06"/>
<text text-anchor="middle" x="2393" y="-106.96" font-family="Times,serif" font-size="12.00">Evaluate compliance risks</text>
</g>
<!-- 6133661392&#45;&gt;6133659920 -->
<g id="edge25" class="edge">
<title>6133661392&#45;&gt;6133659920</title>
<path fill="none" stroke="black" d="M2287.37,-110.06C2295.7,-110.06 2304.26,-110.06 2312.73,-110.06"/>
<polygon fill="black" stroke="black" points="2312.99,-113.56 2322.99,-110.06 2312.99,-106.56 2312.99,-113.56"/>
</g>
<!-- 6098209808 -->
<g id="node23" class="node">
<title>6098209808</title>
<polygon fill="none" stroke="black" points="3608,-128.06 3581,-110.06 3608,-92.06 3635,-110.06 3608,-128.06"/>
<text text-anchor="middle" x="3608" y="-106.96" font-family="Times,serif" font-size="12.00">X</text>
</g>
<!-- 6086490512&#45;&gt;6098209808 -->
<g id="edge27" class="edge">
<title>6086490512&#45;&gt;6098209808</title>
<path fill="none" stroke="black" d="M3545.4,-110.06C3553.39,-110.06 3562.31,-110.06 3570.82,-110.06"/>
<polygon fill="black" stroke="black" points="3570.92,-113.56 3580.92,-110.06 3570.92,-106.56 3570.92,-113.56"/>
</g>
<!-- 6098208592 -->
<g id="node24" class="node">
<title>6098208592</title>
<polygon fill="none" stroke="black" points="3608,-55.06 3581,-37.06 3608,-19.06 3635,-37.06 3608,-55.06"/>
<text text-anchor="middle" x="3608" y="-33.96" font-family="Times,serif" font-size="12.00">X</text>
</g>
<!-- 6086490512&#45;&gt;6098208592 -->
<g id="edge26" class="edge">
<title>6086490512&#45;&gt;6098208592</title>
<path fill="none" stroke="black" d="M3530.87,-100.21C3545.38,-88.17 3570.15,-67.63 3587.49,-53.25"/>
<polygon fill="black" stroke="black" points="3589.86,-55.83 3595.32,-46.75 3585.39,-50.44 3589.86,-55.83"/>
</g>
<!-- 6096076496 -->
<g id="node32" class="node">
<title>6096076496</title>
<polygon fill="none" stroke="black" points="3819,-147.06 3671,-147.06 3671,-111.06 3819,-111.06 3819,-147.06"/>
<text text-anchor="middle" x="3745" y="-125.96" font-family="Times,serif" font-size="12.00">Prepare financial statements</text>
</g>
<!-- 6098209808&#45;&gt;6096076496 -->
<g id="edge30" class="edge">
<title>6098209808&#45;&gt;6096076496</title>
<path fill="none" stroke="black" d="M3630.69,-113.11C3639.34,-114.33 3649.88,-115.81 3661.02,-117.38"/>
<polygon fill="black" stroke="black" points="3660.54,-120.85 3670.93,-118.78 3661.52,-113.92 3660.54,-120.85"/>
</g>
<!-- 6133657296 -->
<g id="node30" class="node">
<title>6133657296</title>
<polygon fill="none" stroke="black" points="3813.5,-55.06 3676.5,-55.06 3676.5,-19.06 3813.5,-19.06 3813.5,-55.06"/>
<text text-anchor="middle" x="3745" y="-33.96" font-family="Times,serif" font-size="12.00">Check regulatory updates</text>
</g>
<!-- 6098208592&#45;&gt;6133657296 -->
<g id="edge31" class="edge">
<title>6098208592&#45;&gt;6133657296</title>
<path fill="none" stroke="black" d="M3635.03,-37.06C3644.12,-37.06 3654.85,-37.06 3665.98,-37.06"/>
<polygon fill="black" stroke="black" points="3666.27,-40.56 3676.27,-37.06 3666.27,-33.56 3666.27,-40.56"/>
</g>
<!-- 6086491728 -->
<g id="node31" class="node">
<title>6086491728</title>
<polygon fill="none" stroke="black" points="2617,-128.06 2499,-128.06 2499,-92.06 2617,-92.06 2617,-128.06"/>
<text text-anchor="middle" x="2558" y="-106.96" font-family="Times,serif" font-size="12.00">Receive clarifications</text>
</g>
<!-- 6133659920&#45;&gt;6086491728 -->
<g id="edge32" class="edge">
<title>6133659920&#45;&gt;6086491728</title>
<path fill="none" stroke="black" d="M2463.13,-110.06C2471.58,-110.06 2480.21,-110.06 2488.65,-110.06"/>
<polygon fill="black" stroke="black" points="2488.82,-113.56 2498.82,-110.06 2488.82,-106.56 2488.82,-113.56"/>
</g>
<!-- 6086489616&#45;&gt;6134406160 -->
<g id="edge28" class="edge">
<title>6086489616&#45;&gt;6134406160</title>
<path fill="none" stroke="black" d="M1390.09,-115.05C1401.82,-118.12 1417.07,-122.1 1430.24,-125.54"/>
<polygon fill="black" stroke="black" points="1429.68,-129.02 1440.24,-128.16 1431.45,-122.24 1429.68,-129.02"/>
</g>
<!-- 6086483408&#45;&gt;6086489616 -->
<g id="edge29" class="edge">
<title>6086483408&#45;&gt;6086489616</title>
<path fill="none" stroke="black" d="M1307.23,-110.06C1315.99,-110.06 1324.73,-110.06 1332.76,-110.06"/>
<polygon fill="black" stroke="black" points="1332.85,-113.56 1342.85,-110.06 1332.85,-106.56 1332.85,-113.56"/>
</g>
<!-- 6134403792 -->
<g id="node29" class="node">
<title>6134403792</title>
<polygon fill="none" stroke="black" points="4743,-170.06 4716,-152.06 4743,-134.06 4770,-152.06 4743,-170.06"/>
<text text-anchor="middle" x="4743" y="-148.96" font-family="Times,serif" font-size="12.00">X</text>
</g>
<!-- 6086482128&#45;&gt;6134403792 -->
<g id="edge33" class="edge">
<title>6086482128&#45;&gt;6134403792</title>
<path fill="none" stroke="black" d="M4680.21,-165.04C4691.04,-162.76 4702.25,-160.41 4712.1,-158.34"/>
<polygon fill="black" stroke="black" points="4713.1,-161.71 4722.17,-156.23 4711.66,-154.86 4713.1,-161.71"/>
</g>
<!-- 6134403792&#45;&gt;6134412112 -->
<g id="edge34" class="edge">
<title>6134403792&#45;&gt;6134412112</title>
<path fill="none" stroke="black" d="M4718.76,-150.2C4707.13,-149.37 4692.83,-148.47 4680,-148.06 4636.91,-146.67 4626.09,-146.67 4583,-148.06 4573.68,-148.36 4563.58,-148.91 4554.3,-149.52"/>
<polygon fill="black" stroke="black" points="4553.98,-146.03 4544.24,-150.2 4554.46,-153.01 4553.98,-146.03"/>
</g>
<!-- 6092166928 -->
<g id="node42" class="node">
<title>6092166928</title>
<ellipse fill="orange" stroke="black" cx="4824" cy="-152.06" rx="18" ry="18"/>
</g>
<!-- 6134403792&#45;&gt;6092166928 -->
<g id="edge38" class="edge">
<title>6134403792&#45;&gt;6092166928</title>
<path fill="none" stroke="black" d="M4770.31,-152.06C4778.42,-152.06 4787.37,-152.06 4795.56,-152.06"/>
<polygon fill="black" stroke="black" points="4795.75,-155.56 4805.75,-152.06 4795.75,-148.56 4795.75,-155.56"/>
</g>
<!-- 6092518032 -->
<g id="node33" class="node">
<title>6092518032</title>
<polygon fill="none" stroke="black" points="3882,-55.06 3855,-37.06 3882,-19.06 3909,-37.06 3882,-55.06"/>
<text text-anchor="middle" x="3882" y="-33.96" font-family="Times,serif" font-size="12.00">X</text>
</g>
<!-- 6133657296&#45;&gt;6092518032 -->
<g id="edge35" class="edge">
<title>6133657296&#45;&gt;6092518032</title>
<path fill="none" stroke="black" d="M3813.9,-37.06C3824.49,-37.06 3835.06,-37.06 3844.59,-37.06"/>
<polygon fill="black" stroke="black" points="3844.83,-40.56 3854.83,-37.06 3844.83,-33.56 3844.83,-40.56"/>
</g>
<!-- 6086481040 -->
<g id="node35" class="node">
<title>6086481040</title>
<polygon fill="none" stroke="black" points="2850,-128.06 2653,-128.06 2653,-92.06 2850,-92.06 2850,-128.06"/>
<text text-anchor="middle" x="2751.5" y="-106.96" font-family="Times,serif" font-size="12.00">Request clarifications of discrepancies</text>
</g>
<!-- 6086491728&#45;&gt;6086481040 -->
<g id="edge36" class="edge">
<title>6086491728&#45;&gt;6086481040</title>
<path fill="none" stroke="black" d="M2617.24,-110.06C2625.38,-110.06 2633.96,-110.06 2642.67,-110.06"/>
<polygon fill="black" stroke="black" points="2642.94,-113.56 2652.94,-110.06 2642.94,-106.56 2642.94,-113.56"/>
</g>
<!-- 6134400912 -->
<g id="node34" class="node">
<title>6134400912</title>
<polygon fill="none" stroke="black" points="3882,-147.06 3855,-129.06 3882,-111.06 3909,-129.06 3882,-147.06"/>
<text text-anchor="middle" x="3882" y="-125.96" font-family="Times,serif" font-size="12.00">X</text>
</g>
<!-- 6096076496&#45;&gt;6134400912 -->
<g id="edge37" class="edge">
<title>6096076496&#45;&gt;6134400912</title>
<path fill="none" stroke="black" d="M3819.03,-129.06C3827.93,-129.06 3836.7,-129.06 3844.72,-129.06"/>
<polygon fill="black" stroke="black" points="3844.77,-132.56 3854.77,-129.06 3844.77,-125.56 3844.77,-132.56"/>
</g>
<!-- 6092518032&#45;&gt;6098208592 -->
<g id="edge39" class="edge">
<title>6092518032&#45;&gt;6098208592</title>
<path fill="none" stroke="black" d="M3866.78,-28.85C3854.56,-22.3 3836.24,-13.65 3819,-10.06 3754.6,3.35 3735.4,3.35 3671,-10.06 3657.67,-12.84 3643.68,-18.64 3632.38,-24.16"/>
<polygon fill="black" stroke="black" points="3630.52,-21.18 3623.22,-28.85 3633.72,-27.41 3630.52,-21.18"/>
</g>
<!-- 6098211920 -->
<g id="node36" class="node">
<title>6098211920</title>
<polygon fill="none" stroke="black" points="3972,-55.06 3945,-37.06 3972,-19.06 3999,-37.06 3972,-55.06"/>
<text text-anchor="middle" x="3972" y="-33.96" font-family="Times,serif" font-size="12.00">X</text>
</g>
<!-- 6092518032&#45;&gt;6098211920 -->
<g id="edge41" class="edge">
<title>6092518032&#45;&gt;6098211920</title>
<path fill="none" stroke="black" d="M3909.4,-37.06C3917.39,-37.06 3926.31,-37.06 3934.82,-37.06"/>
<polygon fill="black" stroke="black" points="3934.92,-40.56 3944.92,-37.06 3934.92,-33.56 3934.92,-40.56"/>
</g>
<!-- 6134400912&#45;&gt;6098209808 -->
<g id="edge40" class="edge">
<title>6134400912&#45;&gt;6098209808</title>
<path fill="none" stroke="black" d="M3866.78,-120.85C3854.56,-114.3 3836.24,-105.65 3819,-102.06 3756.08,-88.95 3680.31,-97.67 3639.17,-104.39"/>
<polygon fill="black" stroke="black" points="3638.52,-100.95 3629.25,-106.08 3639.69,-107.85 3638.52,-100.95"/>
</g>
<!-- 6096066704 -->
<g id="node37" class="node">
<title>6096066704</title>
<polygon fill="none" stroke="black" points="4340,-147.06 4313,-129.06 4340,-111.06 4367,-129.06 4340,-147.06"/>
<text text-anchor="middle" x="4340" y="-125.96" font-family="Times,serif" font-size="12.00">+</text>
</g>
<!-- 6134400912&#45;&gt;6096066704 -->
<g id="edge42" class="edge">
<title>6134400912&#45;&gt;6096066704</title>
<path fill="none" stroke="black" d="M3909.15,-129.06C3986.44,-129.06 4213.92,-129.06 4302.82,-129.06"/>
<polygon fill="black" stroke="black" points="4302.95,-132.56 4312.95,-129.06 4302.95,-125.56 4302.95,-132.56"/>
</g>
<!-- 6096064784 -->
<g id="node38" class="node">
<title>6096064784</title>
<polygon fill="none" stroke="black" points="2995,-128.06 2886,-128.06 2886,-92.06 2995,-92.06 2995,-128.06"/>
<text text-anchor="middle" x="2940.5" y="-106.96" font-family="Times,serif" font-size="12.00">Review submission</text>
</g>
<!-- 6086481040&#45;&gt;6096064784 -->
<g id="edge43" class="edge">
<title>6086481040&#45;&gt;6096064784</title>
<path fill="none" stroke="black" d="M2850.11,-110.06C2858.7,-110.06 2867.25,-110.06 2875.46,-110.06"/>
<polygon fill="black" stroke="black" points="2875.65,-113.56 2885.65,-110.06 2875.65,-106.56 2875.65,-113.56"/>
</g>
<!-- 6133658320 -->
<g id="node39" class="node">
<title>6133658320</title>
<polygon fill="none" stroke="black" points="4187,-101.06 4035,-101.06 4035,-65.06 4187,-65.06 4187,-101.06"/>
<text text-anchor="middle" x="4111" y="-79.96" font-family="Times,serif" font-size="12.00">Gather necessary documents</text>
</g>
<!-- 6098211920&#45;&gt;6133658320 -->
<g id="edge45" class="edge">
<title>6098211920&#45;&gt;6133658320</title>
<path fill="none" stroke="black" d="M3990.35,-42.89C4004.65,-47.69 4025.85,-54.81 4046.45,-61.72"/>
<polygon fill="black" stroke="black" points="4045.57,-65.12 4056.16,-64.98 4047.8,-58.48 4045.57,-65.12"/>
</g>
<!-- 6096066704&#45;&gt;6134409808 -->
<g id="edge44" class="edge">
<title>6096066704&#45;&gt;6134409808</title>
<path fill="none" stroke="black" d="M4360.09,-134.05C4371.82,-137.12 4387.07,-141.1 4400.24,-144.54"/>
<polygon fill="black" stroke="black" points="4399.68,-148.02 4410.24,-147.16 4401.45,-141.24 4399.68,-148.02"/>
</g>
<!-- 6133651536 -->
<g id="node40" class="node">
<title>6133651536</title>
<polygon fill="none" stroke="black" points="3135,-128.06 3031,-128.06 3031,-92.06 3135,-92.06 3135,-128.06"/>
<text text-anchor="middle" x="3083" y="-106.96" font-family="Times,serif" font-size="12.00">Submit documents</text>
</g>
<!-- 6096064784&#45;&gt;6133651536 -->
<g id="edge46" class="edge">
<title>6096064784&#45;&gt;6133651536</title>
<path fill="none" stroke="black" d="M2995.02,-110.06C3003.49,-110.06 3012.31,-110.06 3020.94,-110.06"/>
<polygon fill="black" stroke="black" points="3020.95,-113.56 3030.95,-110.06 3020.95,-106.56 3020.95,-113.56"/>
</g>
<!-- 6134410448 -->
<g id="node41" class="node">
<title>6134410448</title>
<polygon fill="none" stroke="black" points="4250,-101.06 4223,-83.06 4250,-65.06 4277,-83.06 4250,-101.06"/>
<text text-anchor="middle" x="4250" y="-79.96" font-family="Times,serif" font-size="12.00">X</text>
</g>
<!-- 6133658320&#45;&gt;6134410448 -->
<g id="edge48" class="edge">
<title>6133658320&#45;&gt;6134410448</title>
<path fill="none" stroke="black" d="M4187.31,-83.06C4196.22,-83.06 4204.97,-83.06 4212.96,-83.06"/>
<polygon fill="black" stroke="black" points="4212.96,-86.56 4222.96,-83.06 4212.96,-79.56 4212.96,-86.56"/>
</g>
<!-- 6133651536&#45;&gt;6092512336 -->
<g id="edge47" class="edge">
<title>6133651536&#45;&gt;6092512336</title>
<path fill="none" stroke="black" d="M3135.21,-120.48C3146.1,-122.7 3157.26,-124.97 3167.04,-126.96"/>
<polygon fill="black" stroke="black" points="3166.54,-130.43 3177.04,-129 3167.94,-123.57 3166.54,-130.43"/>
</g>
<!-- 6134410448&#45;&gt;6098211920 -->
<g id="edge50" class="edge">
<title>6134410448&#45;&gt;6098211920</title>
<path fill="none" stroke="black" d="M4234.69,-75.24C4222.42,-68.93 4204.06,-60.41 4187,-56.06 4125.69,-40.43 4051.68,-37.17 4008.71,-36.75"/>
<polygon fill="black" stroke="black" points="4008.5,-33.25 3998.48,-36.7 4008.46,-40.25 4008.5,-33.25"/>
</g>
<!-- 6134410448&#45;&gt;6096066704 -->
<g id="edge49" class="edge">
<title>6134410448&#45;&gt;6096066704</title>
<path fill="none" stroke="black" d="M4265.93,-90.86C4279.41,-97.91 4299.48,-108.4 4315.18,-116.61"/>
<polygon fill="black" stroke="black" points="4313.81,-119.84 4324.29,-121.37 4317.05,-113.64 4313.81,-119.84"/>
</g>
</g>
</svg>
