<?xml version="1.0" encoding="UTF-8" standalone="no"?>
<!DOCTYPE svg PUBLIC "-//W3C//DTD SVG 1.1//EN"
 "http://www.w3.org/Graphics/SVG/1.1/DTD/svg11.dtd">
<!-- Generated by graphviz version 2.50.0 (0)
 -->
<!-- Pages: 1 -->
<svg width="4655pt" height="172pt"
 viewBox="0.00 0.00 4655.00 172.00" xmlns="http://www.w3.org/2000/svg" xmlns:xlink="http://www.w3.org/1999/xlink">
<g id="graph0" class="graph" transform="scale(1 1) rotate(0) translate(4 168)">
<polygon fill="white" stroke="transparent" points="-4,4 -4,-168 4651,-168 4651,4 -4,4"/>
<!-- 6133859344 -->
<g id="node1" class="node">
<title>6133859344</title>
<ellipse fill="green" stroke="black" cx="18" cy="-92" rx="18" ry="18"/>
</g>
<!-- 6092436944 -->
<g id="node2" class="node">
<title>6092436944</title>
<polygon fill="none" stroke="black" points="180,-110 72,-110 72,-74 180,-74 180,-110"/>
<text text-anchor="middle" x="126" y="-88.9" font-family="Times,serif" font-size="12.00">Close audit process</text>
</g>
<!-- 6133859344&#45;&gt;6092436944 -->
<g id="edge1" class="edge">
<title>6133859344&#45;&gt;6092436944</title>
<path fill="none" stroke="black" d="M36.03,-92C43.25,-92 52.16,-92 61.52,-92"/>
<polygon fill="black" stroke="black" points="61.8,-95.5 71.8,-92 61.8,-88.5 61.8,-95.5"/>
</g>
<!-- 6091528592 -->
<g id="node3" class="node">
<title>6091528592</title>
<polygon fill="none" stroke="black" points="302,-110 216,-110 216,-74 302,-74 302,-110"/>
<text text-anchor="middle" x="259" y="-88.9" font-family="Times,serif" font-size="12.00">Archive report</text>
</g>
<!-- 6092436944&#45;&gt;6091528592 -->
<g id="edge2" class="edge">
<title>6092436944&#45;&gt;6091528592</title>
<path fill="none" stroke="black" d="M180.28,-92C188.55,-92 197.09,-92 205.34,-92"/>
<polygon fill="black" stroke="black" points="205.6,-95.5 215.6,-92 205.6,-88.5 205.6,-95.5"/>
</g>
<!-- 6133994256 -->
<g id="node4" class="node">
<title>6133994256</title>
<polygon fill="none" stroke="black" points="456,-110 338,-110 338,-74 456,-74 456,-110"/>
<text text-anchor="middle" x="397" y="-88.9" font-family="Times,serif" font-size="12.00">Distribute final report</text>
</g>
<!-- 6091528592&#45;&gt;6133994256 -->
<g id="edge3" class="edge">
<title>6091528592&#45;&gt;6133994256</title>
<path fill="none" stroke="black" d="M302.29,-92C310.36,-92 318.99,-92 327.64,-92"/>
<polygon fill="black" stroke="black" points="327.76,-95.5 337.76,-92 327.76,-88.5 327.76,-95.5"/>
</g>
<!-- 6134005456 -->
<g id="node5" class="node">
<title>6134005456</title>
<polygon fill="none" stroke="black" points="589,-110 492,-110 492,-74 589,-74 589,-110"/>
<text text-anchor="middle" x="540.5" y="-88.9" font-family="Times,serif" font-size="12.00">Send notification</text>
</g>
<!-- 6133994256&#45;&gt;6134005456 -->
<g id="edge4" class="edge">
<title>6133994256&#45;&gt;6134005456</title>
<path fill="none" stroke="black" d="M456.37,-92C464.71,-92 473.28,-92 481.6,-92"/>
<polygon fill="black" stroke="black" points="481.6,-95.5 491.6,-92 481.6,-88.5 481.6,-95.5"/>
</g>
<!-- 6091655248 -->
<g id="node6" class="node">
<title>6091655248</title>
<polygon fill="none" stroke="black" points="739,-110 625,-110 625,-74 739,-74 739,-110"/>
<text text-anchor="middle" x="682" y="-88.9" font-family="Times,serif" font-size="12.00">Compile audit report</text>
</g>
<!-- 6134005456&#45;&gt;6091655248 -->
<g id="edge5" class="edge">
<title>6134005456&#45;&gt;6091655248</title>
<path fill="none" stroke="black" d="M589.12,-92C597.4,-92 606.15,-92 614.82,-92"/>
<polygon fill="black" stroke="black" points="614.94,-95.5 624.94,-92 614.94,-88.5 614.94,-95.5"/>
</g>
<!-- 6133997456 -->
<g id="node7" class="node">
<title>6133997456</title>
<polygon fill="none" stroke="black" points="963,-110 775,-110 775,-74 963,-74 963,-110"/>
<text text-anchor="middle" x="869" y="-88.9" font-family="Times,serif" font-size="12.00">Complete risk assessment/mitigation</text>
</g>
<!-- 6091655248&#45;&gt;6133997456 -->
<g id="edge6" class="edge">
<title>6091655248&#45;&gt;6133997456</title>
<path fill="none" stroke="black" d="M739.01,-92C747.28,-92 756.01,-92 764.87,-92"/>
<polygon fill="black" stroke="black" points="764.91,-95.5 774.91,-92 764.91,-88.5 764.91,-95.5"/>
</g>
<!-- 6133997200 -->
<g id="node8" class="node">
<title>6133997200</title>
<polygon fill="none" stroke="black" points="1026,-110 999,-92 1026,-74 1053,-92 1026,-110"/>
<text text-anchor="middle" x="1026" y="-88.9" font-family="Times,serif" font-size="12.00">+</text>
</g>
<!-- 6133997456&#45;&gt;6133997200 -->
<g id="edge7" class="edge">
<title>6133997456&#45;&gt;6133997200</title>
<path fill="none" stroke="black" d="M963.29,-92C972.2,-92 980.81,-92 988.64,-92"/>
<polygon fill="black" stroke="black" points="988.77,-95.5 998.77,-92 988.77,-88.5 988.77,-95.5"/>
</g>
<!-- 6092428368 -->
<g id="node9" class="node">
<title>6092428368</title>
<polygon fill="none" stroke="black" points="1229,-164 1089,-164 1089,-128 1229,-128 1229,-164"/>
<text text-anchor="middle" x="1159" y="-142.9" font-family="Times,serif" font-size="12.00">Evaluate compliance risks</text>
</g>
<!-- 6133997200&#45;&gt;6092428368 -->
<g id="edge9" class="edge">
<title>6133997200&#45;&gt;6092428368</title>
<path fill="none" stroke="black" d="M1042.73,-99.05C1055.22,-104.59 1073.16,-112.45 1089,-119 1093.12,-120.7 1097.4,-122.44 1101.7,-124.17"/>
<polygon fill="black" stroke="black" points="1100.55,-127.48 1111.14,-127.94 1103.15,-120.98 1100.55,-127.48"/>
</g>
<!-- 6091538192 -->
<g id="node10" class="node">
<title>6091538192</title>
<polygon fill="none" stroke="black" points="1228,-110 1090,-110 1090,-74 1228,-74 1228,-110"/>
<text text-anchor="middle" x="1159" y="-88.9" font-family="Times,serif" font-size="12.00">Evaluate operational risks</text>
</g>
<!-- 6133997200&#45;&gt;6091538192 -->
<g id="edge10" class="edge">
<title>6133997200&#45;&gt;6091538192</title>
<path fill="none" stroke="black" d="M1053.19,-92C1061.12,-92 1070.26,-92 1079.78,-92"/>
<polygon fill="black" stroke="black" points="1079.79,-95.5 1089.79,-92 1079.79,-88.5 1079.79,-95.5"/>
</g>
<!-- 6134002896 -->
<g id="node11" class="node">
<title>6134002896</title>
<polygon fill="none" stroke="black" points="1222,-56 1096,-56 1096,-20 1222,-20 1222,-56"/>
<text text-anchor="middle" x="1159" y="-34.9" font-family="Times,serif" font-size="12.00">Evaluate financial risks</text>
</g>
<!-- 6133997200&#45;&gt;6134002896 -->
<g id="edge8" class="edge">
<title>6133997200&#45;&gt;6134002896</title>
<path fill="none" stroke="black" d="M1042.73,-84.95C1055.22,-79.41 1073.16,-71.55 1089,-65 1093.12,-63.3 1097.4,-61.56 1101.7,-59.83"/>
<polygon fill="black" stroke="black" points="1103.15,-63.02 1111.14,-56.06 1100.55,-56.52 1103.15,-63.02"/>
</g>
<!-- 6092434384 -->
<g id="node12" class="node">
<title>6092434384</title>
<polygon fill="none" stroke="black" points="1292,-110 1265,-92 1292,-74 1319,-92 1292,-110"/>
<text text-anchor="middle" x="1292" y="-88.9" font-family="Times,serif" font-size="12.00">+</text>
</g>
<!-- 6092428368&#45;&gt;6092434384 -->
<g id="edge11" class="edge">
<title>6092428368&#45;&gt;6092434384</title>
<path fill="none" stroke="black" d="M1206.86,-127.94C1214.29,-125 1221.87,-121.95 1229,-119 1241.25,-113.94 1254.76,-108.09 1266.03,-103.13"/>
<polygon fill="black" stroke="black" points="1267.54,-106.29 1275.27,-99.05 1264.71,-99.89 1267.54,-106.29"/>
</g>
<!-- 6091538192&#45;&gt;6092434384 -->
<g id="edge12" class="edge">
<title>6091538192&#45;&gt;6092434384</title>
<path fill="none" stroke="black" d="M1228.19,-92C1237.37,-92 1246.47,-92 1254.79,-92"/>
<polygon fill="black" stroke="black" points="1254.85,-95.5 1264.85,-92 1254.85,-88.5 1254.85,-95.5"/>
</g>
<!-- 6134002896&#45;&gt;6092434384 -->
<g id="edge13" class="edge">
<title>6134002896&#45;&gt;6092434384</title>
<path fill="none" stroke="black" d="M1206.86,-56.06C1214.29,-59 1221.87,-62.05 1229,-65 1241.25,-70.06 1254.76,-75.91 1266.03,-80.87"/>
<polygon fill="black" stroke="black" points="1264.71,-84.11 1275.27,-84.95 1267.54,-77.71 1264.71,-84.11"/>
</g>
<!-- 6092431632 -->
<g id="node13" class="node">
<title>6092431632</title>
<polygon fill="none" stroke="black" points="1382,-110 1355,-92 1382,-74 1409,-92 1382,-110"/>
<text text-anchor="middle" x="1382" y="-88.9" font-family="Times,serif" font-size="12.00">X</text>
</g>
<!-- 6092434384&#45;&gt;6092431632 -->
<g id="edge14" class="edge">
<title>6092434384&#45;&gt;6092431632</title>
<path fill="none" stroke="black" d="M1319.4,-92C1327.39,-92 1336.31,-92 1344.82,-92"/>
<polygon fill="black" stroke="black" points="1344.92,-95.5 1354.92,-92 1344.92,-88.5 1344.92,-95.5"/>
</g>
<!-- 6092359056 -->
<g id="node14" class="node">
<title>6092359056</title>
<polygon fill="none" stroke="black" points="2821,-110 2794,-92 2821,-74 2848,-92 2821,-110"/>
<text text-anchor="middle" x="2821" y="-88.9" font-family="Times,serif" font-size="12.00">X</text>
</g>
<!-- 6092431632&#45;&gt;6092359056 -->
<g id="edge15" class="edge">
<title>6092431632&#45;&gt;6092359056</title>
<path fill="none" stroke="black" d="M1403.58,-95.75C1441.24,-102.26 1523.8,-115 1594,-115 1594,-115 1594,-115 2591.5,-115 2662.4,-115 2745.07,-103.9 2788.93,-97.12"/>
<polygon fill="black" stroke="black" points="2789.63,-100.56 2798.96,-95.54 2788.54,-93.64 2789.63,-100.56"/>
</g>
<!-- 6091811600 -->
<g id="node15" class="node">
<title>6091811600</title>
<polygon fill="none" stroke="black" points="1472,-87 1445,-69 1472,-51 1499,-69 1472,-87"/>
<text text-anchor="middle" x="1472" y="-65.9" font-family="Times,serif" font-size="12.00">X</text>
</g>
<!-- 6092431632&#45;&gt;6091811600 -->
<g id="edge16" class="edge">
<title>6092431632&#45;&gt;6091811600</title>
<path fill="none" stroke="black" d="M1402.09,-87.01C1413.82,-83.94 1429.07,-79.96 1442.24,-76.52"/>
<polygon fill="black" stroke="black" points="1443.45,-79.82 1452.24,-73.9 1441.68,-73.04 1443.45,-79.82"/>
</g>
<!-- 6133991056 -->
<g id="node18" class="node">
<title>6133991056</title>
<polygon fill="none" stroke="black" points="3002,-110 2884,-110 2884,-74 3002,-74 3002,-110"/>
<text text-anchor="middle" x="2943" y="-88.9" font-family="Times,serif" font-size="12.00">Receive clarifications</text>
</g>
<!-- 6092359056&#45;&gt;6133991056 -->
<g id="edge17" class="edge">
<title>6092359056&#45;&gt;6133991056</title>
<path fill="none" stroke="black" d="M2848.04,-92C2855.83,-92 2864.77,-92 2873.96,-92"/>
<polygon fill="black" stroke="black" points="2874,-95.5 2884,-92 2874,-88.5 2874,-95.5"/>
</g>
<!-- 6091807760 -->
<g id="node16" class="node">
<title>6091807760</title>
<polygon fill="none" stroke="black" points="1718,-64 1691,-46 1718,-28 1745,-46 1718,-64"/>
<text text-anchor="middle" x="1718" y="-42.9" font-family="Times,serif" font-size="12.00">X</text>
</g>
<!-- 6091811600&#45;&gt;6091807760 -->
<g id="edge19" class="edge">
<title>6091811600&#45;&gt;6091807760</title>
<path fill="none" stroke="black" d="M1496.88,-67.38C1531.7,-64.95 1598.41,-59.98 1655,-54 1664.91,-52.95 1675.68,-51.63 1685.43,-50.36"/>
<polygon fill="black" stroke="black" points="1686.06,-53.81 1695.51,-49.02 1685.13,-46.87 1686.06,-53.81"/>
</g>
<!-- 6087086352 -->
<g id="node17" class="node">
<title>6087086352</title>
<polygon fill="none" stroke="black" points="1655,-45 1535,-45 1535,-9 1655,-9 1655,-45"/>
<text text-anchor="middle" x="1595" y="-23.9" font-family="Times,serif" font-size="12.00">Conduct data analysis</text>
</g>
<!-- 6091811600&#45;&gt;6087086352 -->
<g id="edge18" class="edge">
<title>6091811600&#45;&gt;6087086352</title>
<path fill="none" stroke="black" d="M1490.34,-62.98C1501.59,-59.08 1517.01,-53.72 1532.51,-48.34"/>
<polygon fill="black" stroke="black" points="1533.84,-51.59 1542.14,-45 1531.54,-44.97 1533.84,-51.59"/>
</g>
<!-- 6134622096 -->
<g id="node19" class="node">
<title>6134622096</title>
<polygon fill="none" stroke="black" points="1808,-64 1781,-46 1808,-28 1835,-46 1808,-64"/>
<text text-anchor="middle" x="1808" y="-42.9" font-family="Times,serif" font-size="12.00">X</text>
</g>
<!-- 6091807760&#45;&gt;6134622096 -->
<g id="edge21" class="edge">
<title>6091807760&#45;&gt;6134622096</title>
<path fill="none" stroke="black" d="M1745.4,-46C1753.39,-46 1762.31,-46 1770.82,-46"/>
<polygon fill="black" stroke="black" points="1770.92,-49.5 1780.92,-46 1770.92,-42.5 1770.92,-49.5"/>
</g>
<!-- 6087086352&#45;&gt;6091807760 -->
<g id="edge20" class="edge">
<title>6087086352&#45;&gt;6091807760</title>
<path fill="none" stroke="black" d="M1655.08,-36.28C1665.72,-37.95 1676.41,-39.63 1685.85,-41.11"/>
<polygon fill="black" stroke="black" points="1685.48,-44.59 1695.9,-42.69 1686.56,-37.68 1685.48,-44.59"/>
</g>
<!-- 6091661200 -->
<g id="node20" class="node">
<title>6091661200</title>
<polygon fill="none" stroke="black" points="3235,-110 3038,-110 3038,-74 3235,-74 3235,-110"/>
<text text-anchor="middle" x="3136.5" y="-88.9" font-family="Times,serif" font-size="12.00">Request clarifications of discrepancies</text>
</g>
<!-- 6133991056&#45;&gt;6091661200 -->
<g id="edge22" class="edge">
<title>6133991056&#45;&gt;6091661200</title>
<path fill="none" stroke="black" d="M3002.24,-92C3010.38,-92 3018.96,-92 3027.67,-92"/>
<polygon fill="black" stroke="black" points="3027.94,-95.5 3037.94,-92 3027.94,-88.5 3027.94,-95.5"/>
</g>
<!-- 6091808336 -->
<g id="node21" class="node">
<title>6091808336</title>
<polygon fill="none" stroke="black" points="2043,-55 2016,-37 2043,-19 2070,-37 2043,-55"/>
<text text-anchor="middle" x="2043" y="-33.9" font-family="Times,serif" font-size="12.00">X</text>
</g>
<!-- 6134622096&#45;&gt;6091808336 -->
<g id="edge23" class="edge">
<title>6134622096&#45;&gt;6091808336</title>
<path fill="none" stroke="black" d="M1833.96,-46.81C1867.29,-47.67 1928.16,-48.48 1980,-45 1990.02,-44.33 2000.9,-43.1 2010.7,-41.8"/>
<polygon fill="black" stroke="black" points="2011.41,-45.23 2020.83,-40.38 2010.44,-38.3 2011.41,-45.23"/>
</g>
<!-- 6094514512 -->
<g id="node23" class="node">
<title>6094514512</title>
<polygon fill="none" stroke="black" points="1980,-36 1871,-36 1871,0 1980,0 1980,-36"/>
<text text-anchor="middle" x="1925.5" y="-14.9" font-family="Times,serif" font-size="12.00">Conduct interviews</text>
</g>
<!-- 6134622096&#45;&gt;6094514512 -->
<g id="edge24" class="edge">
<title>6134622096&#45;&gt;6094514512</title>
<path fill="none" stroke="black" d="M1828.07,-41.38C1837.38,-39.12 1849.16,-36.27 1861.26,-33.33"/>
<polygon fill="black" stroke="black" points="1862.1,-36.73 1871,-30.97 1860.45,-29.92 1862.1,-36.73"/>
</g>
<!-- 6134001296 -->
<g id="node22" class="node">
<title>6134001296</title>
<polygon fill="none" stroke="black" points="3380,-110 3271,-110 3271,-74 3380,-74 3380,-110"/>
<text text-anchor="middle" x="3325.5" y="-88.9" font-family="Times,serif" font-size="12.00">Review submission</text>
</g>
<!-- 6091661200&#45;&gt;6134001296 -->
<g id="edge25" class="edge">
<title>6091661200&#45;&gt;6134001296</title>
<path fill="none" stroke="black" d="M3235.11,-92C3243.7,-92 3252.25,-92 3260.46,-92"/>
<polygon fill="black" stroke="black" points="3260.65,-95.5 3270.65,-92 3260.65,-88.5 3260.65,-95.5"/>
</g>
<!-- 6134616336 -->
<g id="node24" class="node">
<title>6134616336</title>
<polygon fill="none" stroke="black" points="2133,-55 2106,-37 2133,-19 2160,-37 2133,-55"/>
<text text-anchor="middle" x="2133" y="-33.9" font-family="Times,serif" font-size="12.00">X</text>
</g>
<!-- 6091808336&#45;&gt;6134616336 -->
<g id="edge27" class="edge">
<title>6091808336&#45;&gt;6134616336</title>
<path fill="none" stroke="black" d="M2070.4,-37C2078.39,-37 2087.31,-37 2095.82,-37"/>
<polygon fill="black" stroke="black" points="2095.92,-40.5 2105.92,-37 2095.92,-33.5 2095.92,-40.5"/>
</g>
<!-- 6133999696 -->
<g id="node25" class="node">
<title>6133999696</title>
<polygon fill="none" stroke="black" points="3564,-110 3416,-110 3416,-74 3564,-74 3564,-110"/>
<text text-anchor="middle" x="3490" y="-88.9" font-family="Times,serif" font-size="12.00">Prepare financial statements</text>
</g>
<!-- 6134001296&#45;&gt;6133999696 -->
<g id="edge28" class="edge">
<title>6134001296&#45;&gt;6133999696</title>
<path fill="none" stroke="black" d="M3380.16,-92C3388.4,-92 3397.07,-92 3405.77,-92"/>
<polygon fill="black" stroke="black" points="3405.97,-95.5 3415.97,-92 3405.97,-88.5 3405.97,-95.5"/>
</g>
<!-- 6094514512&#45;&gt;6091808336 -->
<g id="edge26" class="edge">
<title>6094514512&#45;&gt;6091808336</title>
<path fill="none" stroke="black" d="M1980.19,-26.83C1990.72,-28.56 2001.43,-30.33 2010.91,-31.89"/>
<polygon fill="black" stroke="black" points="2010.59,-35.38 2021.02,-33.55 2011.72,-28.47 2010.59,-35.38"/>
</g>
<!-- 6091929424 -->
<g id="node26" class="node">
<title>6091929424</title>
<polygon fill="none" stroke="black" points="2360,-57 2333,-39 2360,-21 2387,-39 2360,-57"/>
<text text-anchor="middle" x="2360" y="-35.9" font-family="Times,serif" font-size="12.00">X</text>
</g>
<!-- 6134616336&#45;&gt;6091929424 -->
<g id="edge30" class="edge">
<title>6134616336&#45;&gt;6091929424</title>
<path fill="none" stroke="black" d="M2154.01,-41.06C2166.1,-43.31 2181.87,-45.87 2196,-47 2240.75,-50.59 2252.2,-49.88 2297,-47 2307.02,-46.36 2317.9,-45.13 2327.7,-43.83"/>
<polygon fill="black" stroke="black" points="2328.41,-47.27 2337.83,-42.42 2327.44,-40.33 2328.41,-47.27"/>
</g>
<!-- 6094505936 -->
<g id="node28" class="node">
<title>6094505936</title>
<polygon fill="none" stroke="black" points="2297,-38 2196,-38 2196,-2 2297,-2 2297,-38"/>
<text text-anchor="middle" x="2246.5" y="-16.9" font-family="Times,serif" font-size="12.00">Perform site visits</text>
</g>
<!-- 6134616336&#45;&gt;6094505936 -->
<g id="edge29" class="edge">
<title>6134616336&#45;&gt;6094505936</title>
<path fill="none" stroke="black" d="M2155.23,-33.76C2164.04,-32.42 2174.74,-30.79 2185.65,-29.13"/>
<polygon fill="black" stroke="black" points="2186.32,-32.56 2195.67,-27.6 2185.26,-25.64 2186.32,-32.56"/>
</g>
<!-- 6092325072 -->
<g id="node27" class="node">
<title>6092325072</title>
<polygon fill="none" stroke="black" points="3704,-110 3600,-110 3600,-74 3704,-74 3704,-110"/>
<text text-anchor="middle" x="3652" y="-88.9" font-family="Times,serif" font-size="12.00">Submit documents</text>
</g>
<!-- 6133999696&#45;&gt;6092325072 -->
<g id="edge31" class="edge">
<title>6133999696&#45;&gt;6092325072</title>
<path fill="none" stroke="black" d="M3564.44,-92C3572.88,-92 3581.41,-92 3589.66,-92"/>
<polygon fill="black" stroke="black" points="3589.93,-95.5 3599.93,-92 3589.93,-88.5 3589.93,-95.5"/>
</g>
<!-- 6092204560 -->
<g id="node29" class="node">
<title>6092204560</title>
<polygon fill="none" stroke="black" points="2450,-57 2423,-39 2450,-21 2477,-39 2450,-57"/>
<text text-anchor="middle" x="2450" y="-35.9" font-family="Times,serif" font-size="12.00">X</text>
</g>
<!-- 6091929424&#45;&gt;6092204560 -->
<g id="edge33" class="edge">
<title>6091929424&#45;&gt;6092204560</title>
<path fill="none" stroke="black" d="M2387.4,-39C2395.39,-39 2404.31,-39 2412.82,-39"/>
<polygon fill="black" stroke="black" points="2412.92,-42.5 2422.92,-39 2412.92,-35.5 2412.92,-42.5"/>
</g>
<!-- 6134005648 -->
<g id="node30" class="node">
<title>6134005648</title>
<polygon fill="none" stroke="black" points="3904,-110 3740,-110 3740,-74 3904,-74 3904,-110"/>
<text text-anchor="middle" x="3822" y="-88.9" font-family="Times,serif" font-size="12.00">Review report by audit director</text>
</g>
<!-- 6092325072&#45;&gt;6134005648 -->
<g id="edge34" class="edge">
<title>6092325072&#45;&gt;6134005648</title>
<path fill="none" stroke="black" d="M3704.32,-92C3712.43,-92 3721.03,-92 3729.73,-92"/>
<polygon fill="black" stroke="black" points="3729.97,-95.5 3739.97,-92 3729.97,-88.5 3729.97,-95.5"/>
</g>
<!-- 6094505936&#45;&gt;6091929424 -->
<g id="edge32" class="edge">
<title>6094505936&#45;&gt;6091929424</title>
<path fill="none" stroke="black" d="M2297.05,-28.44C2307.65,-30.25 2318.54,-32.11 2328.18,-33.75"/>
<polygon fill="black" stroke="black" points="2327.64,-37.21 2338.08,-35.44 2328.81,-30.31 2327.64,-37.21"/>
</g>
<!-- 6091802384 -->
<g id="node31" class="node">
<title>6091802384</title>
<polygon fill="none" stroke="black" points="2731,-87 2704,-69 2731,-51 2758,-69 2731,-87"/>
<text text-anchor="middle" x="2731" y="-65.9" font-family="Times,serif" font-size="12.00">X</text>
</g>
<!-- 6092204560&#45;&gt;6091802384 -->
<g id="edge35" class="edge">
<title>6092204560&#45;&gt;6091802384</title>
<path fill="none" stroke="black" d="M2469.29,-44.28C2481.55,-47.61 2498.12,-51.7 2513,-54 2576.44,-63.8 2651.31,-67.2 2694.45,-68.38"/>
<polygon fill="black" stroke="black" points="2694.37,-71.87 2704.46,-68.62 2694.55,-64.88 2694.37,-71.87"/>
</g>
<!-- 6094513296 -->
<g id="node33" class="node">
<title>6094513296</title>
<polygon fill="none" stroke="black" points="2668,-45 2513,-45 2513,-9 2668,-9 2668,-45"/>
<text text-anchor="middle" x="2590.5" y="-23.9" font-family="Times,serif" font-size="12.00">Launch detailed investigation</text>
</g>
<!-- 6092204560&#45;&gt;6094513296 -->
<g id="edge36" class="edge">
<title>6092204560&#45;&gt;6094513296</title>
<path fill="none" stroke="black" d="M2474.18,-36.99C2482.41,-36.28 2492.23,-35.43 2502.61,-34.53"/>
<polygon fill="black" stroke="black" points="2503.04,-38 2512.71,-33.65 2502.44,-31.03 2503.04,-38"/>
</g>
<!-- 6092439248 -->
<g id="node32" class="node">
<title>6092439248</title>
<polygon fill="none" stroke="black" points="4086,-110 3940,-110 3940,-74 4086,-74 4086,-110"/>
<text text-anchor="middle" x="4013" y="-88.9" font-family="Times,serif" font-size="12.00">Update and resubmit report</text>
</g>
<!-- 6134005648&#45;&gt;6092439248 -->
<g id="edge37" class="edge">
<title>6134005648&#45;&gt;6092439248</title>
<path fill="none" stroke="black" d="M3904.25,-92C3912.64,-92 3921.18,-92 3929.58,-92"/>
<polygon fill="black" stroke="black" points="3929.76,-95.5 3939.76,-92 3929.76,-88.5 3929.76,-95.5"/>
</g>
<!-- 6091802384&#45;&gt;6092359056 -->
<g id="edge38" class="edge">
<title>6091802384&#45;&gt;6092359056</title>
<path fill="none" stroke="black" d="M2751.09,-73.99C2762.82,-77.06 2778.07,-81.04 2791.24,-84.48"/>
<polygon fill="black" stroke="black" points="2790.68,-87.96 2801.24,-87.1 2792.45,-81.18 2790.68,-87.96"/>
</g>
<!-- 6094510736 -->
<g id="node34" class="node">
<title>6094510736</title>
<polygon fill="none" stroke="black" points="4250,-110 4122,-110 4122,-74 4250,-74 4250,-110"/>
<text text-anchor="middle" x="4186" y="-88.9" font-family="Times,serif" font-size="12.00">Send report for revision</text>
</g>
<!-- 6092439248&#45;&gt;6094510736 -->
<g id="edge40" class="edge">
<title>6092439248&#45;&gt;6094510736</title>
<path fill="none" stroke="black" d="M4086.02,-92C4094.46,-92 4103.08,-92 4111.53,-92"/>
<polygon fill="black" stroke="black" points="4111.74,-95.5 4121.74,-92 4111.74,-88.5 4111.74,-95.5"/>
</g>
<!-- 6094513296&#45;&gt;6091802384 -->
<g id="edge39" class="edge">
<title>6094513296&#45;&gt;6091802384</title>
<path fill="none" stroke="black" d="M2651.04,-45.06C2668.74,-50.42 2687.3,-56.05 2701.98,-60.5"/>
<polygon fill="black" stroke="black" points="2701.33,-63.96 2711.91,-63.51 2703.36,-57.26 2701.33,-63.96"/>
</g>
<!-- 6094515472 -->
<g id="node35" class="node">
<title>6094515472</title>
<polygon fill="none" stroke="black" points="4450,-110 4286,-110 4286,-74 4450,-74 4450,-110"/>
<text text-anchor="middle" x="4368" y="-88.9" font-family="Times,serif" font-size="12.00">Review report by audit director</text>
</g>
<!-- 6094510736&#45;&gt;6094515472 -->
<g id="edge41" class="edge">
<title>6094510736&#45;&gt;6094515472</title>
<path fill="none" stroke="black" d="M4250.21,-92C4258.51,-92 4267.14,-92 4275.79,-92"/>
<polygon fill="black" stroke="black" points="4275.93,-95.5 4285.93,-92 4275.93,-88.5 4275.93,-95.5"/>
</g>
<!-- 6094514960 -->
<g id="node36" class="node">
<title>6094514960</title>
<polygon fill="none" stroke="black" points="4575,-110 4486,-110 4486,-74 4575,-74 4575,-110"/>
<text text-anchor="middle" x="4530.5" y="-88.9" font-family="Times,serif" font-size="12.00">Approve report</text>
</g>
<!-- 6094515472&#45;&gt;6094514960 -->
<g id="edge42" class="edge">
<title>6094515472&#45;&gt;6094514960</title>
<path fill="none" stroke="black" d="M4450.19,-92C4458.83,-92 4467.45,-92 4475.66,-92"/>
<polygon fill="black" stroke="black" points="4475.81,-95.5 4485.81,-92 4475.8,-88.5 4475.81,-95.5"/>
</g>
<!-- 6134266256 -->
<g id="node37" class="node">
<title>6134266256</title>
<ellipse fill="orange" stroke="black" cx="4629" cy="-92" rx="18" ry="18"/>
</g>
<!-- 6094514960&#45;&gt;6134266256 -->
<g id="edge43" class="edge">
<title>6094514960&#45;&gt;6134266256</title>
<path fill="none" stroke="black" d="M4575.23,-92C4583.87,-92 4592.71,-92 4600.62,-92"/>
<polygon fill="black" stroke="black" points="4600.72,-95.5 4610.72,-92 4600.72,-88.5 4600.72,-95.5"/>
</g>
</g>
</svg>
