<?xml version="1.0" encoding="UTF-8" standalone="no"?>
<!DOCTYPE svg PUBLIC "-//W3C//DTD SVG 1.1//EN"
 "http://www.w3.org/Graphics/SVG/1.1/DTD/svg11.dtd">
<!-- Generated by graphviz version 2.50.0 (0)
 -->
<!-- Pages: 1 -->
<svg width="4655pt" height="152pt"
 viewBox="0.00 0.00 4655.00 152.00" xmlns="http://www.w3.org/2000/svg" xmlns:xlink="http://www.w3.org/1999/xlink">
<g id="graph0" class="graph" transform="scale(1 1) rotate(0) translate(4 148)">
<polygon fill="white" stroke="transparent" points="-4,4 -4,-148 4651,-148 4651,4 -4,4"/>
<!-- 6091975248 -->
<g id="node1" class="node">
<title>6091975248</title>
<ellipse fill="green" stroke="black" cx="18" cy="-72" rx="18" ry="18"/>
</g>
<!-- 6134307152 -->
<g id="node2" class="node">
<title>6134307152</title>
<polygon fill="none" stroke="black" points="180,-90 72,-90 72,-54 180,-54 180,-90"/>
<text text-anchor="middle" x="126" y="-68.9" font-family="Times,serif" font-size="12.00">Close audit process</text>
</g>
<!-- 6091975248&#45;&gt;6134307152 -->
<g id="edge1" class="edge">
<title>6091975248&#45;&gt;6134307152</title>
<path fill="none" stroke="black" d="M36.03,-72C43.25,-72 52.16,-72 61.52,-72"/>
<polygon fill="black" stroke="black" points="61.8,-75.5 71.8,-72 61.8,-68.5 61.8,-75.5"/>
</g>
<!-- 6092326224 -->
<g id="node3" class="node">
<title>6092326224</title>
<polygon fill="none" stroke="black" points="302,-90 216,-90 216,-54 302,-54 302,-90"/>
<text text-anchor="middle" x="259" y="-68.9" font-family="Times,serif" font-size="12.00">Archive report</text>
</g>
<!-- 6134307152&#45;&gt;6092326224 -->
<g id="edge2" class="edge">
<title>6134307152&#45;&gt;6092326224</title>
<path fill="none" stroke="black" d="M180.28,-72C188.55,-72 197.09,-72 205.34,-72"/>
<polygon fill="black" stroke="black" points="205.6,-75.5 215.6,-72 205.6,-68.5 205.6,-75.5"/>
</g>
<!-- 6092340304 -->
<g id="node4" class="node">
<title>6092340304</title>
<polygon fill="none" stroke="black" points="456,-90 338,-90 338,-54 456,-54 456,-90"/>
<text text-anchor="middle" x="397" y="-68.9" font-family="Times,serif" font-size="12.00">Distribute final report</text>
</g>
<!-- 6092326224&#45;&gt;6092340304 -->
<g id="edge3" class="edge">
<title>6092326224&#45;&gt;6092340304</title>
<path fill="none" stroke="black" d="M302.29,-72C310.36,-72 318.99,-72 327.64,-72"/>
<polygon fill="black" stroke="black" points="327.76,-75.5 337.76,-72 327.76,-68.5 327.76,-75.5"/>
</g>
<!-- 6091534608 -->
<g id="node5" class="node">
<title>6091534608</title>
<polygon fill="none" stroke="black" points="589,-90 492,-90 492,-54 589,-54 589,-90"/>
<text text-anchor="middle" x="540.5" y="-68.9" font-family="Times,serif" font-size="12.00">Send notification</text>
</g>
<!-- 6092340304&#45;&gt;6091534608 -->
<g id="edge4" class="edge">
<title>6092340304&#45;&gt;6091534608</title>
<path fill="none" stroke="black" d="M456.37,-72C464.71,-72 473.28,-72 481.6,-72"/>
<polygon fill="black" stroke="black" points="481.6,-75.5 491.6,-72 481.6,-68.5 481.6,-75.5"/>
</g>
<!-- 6134313744 -->
<g id="node6" class="node">
<title>6134313744</title>
<polygon fill="none" stroke="black" points="739,-90 625,-90 625,-54 739,-54 739,-90"/>
<text text-anchor="middle" x="682" y="-68.9" font-family="Times,serif" font-size="12.00">Compile audit report</text>
</g>
<!-- 6091534608&#45;&gt;6134313744 -->
<g id="edge5" class="edge">
<title>6091534608&#45;&gt;6134313744</title>
<path fill="none" stroke="black" d="M589.12,-72C597.4,-72 606.15,-72 614.82,-72"/>
<polygon fill="black" stroke="black" points="614.94,-75.5 624.94,-72 614.94,-68.5 614.94,-75.5"/>
</g>
<!-- 6092330768 -->
<g id="node7" class="node">
<title>6092330768</title>
<polygon fill="none" stroke="black" points="963,-90 775,-90 775,-54 963,-54 963,-90"/>
<text text-anchor="middle" x="869" y="-68.9" font-family="Times,serif" font-size="12.00">Complete risk assessment/mitigation</text>
</g>
<!-- 6134313744&#45;&gt;6092330768 -->
<g id="edge6" class="edge">
<title>6134313744&#45;&gt;6092330768</title>
<path fill="none" stroke="black" d="M739.01,-72C747.28,-72 756.01,-72 764.87,-72"/>
<polygon fill="black" stroke="black" points="764.91,-75.5 774.91,-72 764.91,-68.5 764.91,-75.5"/>
</g>
<!-- 6092329552 -->
<g id="node8" class="node">
<title>6092329552</title>
<polygon fill="none" stroke="black" points="1026,-90 999,-72 1026,-54 1053,-72 1026,-90"/>
<text text-anchor="middle" x="1026" y="-68.9" font-family="Times,serif" font-size="12.00">+</text>
</g>
<!-- 6092330768&#45;&gt;6092329552 -->
<g id="edge7" class="edge">
<title>6092330768&#45;&gt;6092329552</title>
<path fill="none" stroke="black" d="M963.29,-72C972.2,-72 980.81,-72 988.64,-72"/>
<polygon fill="black" stroke="black" points="988.77,-75.5 998.77,-72 988.77,-68.5 988.77,-75.5"/>
</g>
<!-- 6086426832 -->
<g id="node9" class="node">
<title>6086426832</title>
<polygon fill="none" stroke="black" points="1228,-144 1090,-144 1090,-108 1228,-108 1228,-144"/>
<text text-anchor="middle" x="1159" y="-122.9" font-family="Times,serif" font-size="12.00">Evaluate operational risks</text>
</g>
<!-- 6092329552&#45;&gt;6086426832 -->
<g id="edge8" class="edge">
<title>6092329552&#45;&gt;6086426832</title>
<path fill="none" stroke="black" d="M1042.73,-79.05C1055.22,-84.59 1073.16,-92.45 1089,-99 1093.12,-100.7 1097.4,-102.44 1101.7,-104.17"/>
<polygon fill="black" stroke="black" points="1100.55,-107.48 1111.14,-107.94 1103.15,-100.98 1100.55,-107.48"/>
</g>
<!-- 6087352784 -->
<g id="node10" class="node">
<title>6087352784</title>
<polygon fill="none" stroke="black" points="1229,-90 1089,-90 1089,-54 1229,-54 1229,-90"/>
<text text-anchor="middle" x="1159" y="-68.9" font-family="Times,serif" font-size="12.00">Evaluate compliance risks</text>
</g>
<!-- 6092329552&#45;&gt;6087352784 -->
<g id="edge10" class="edge">
<title>6092329552&#45;&gt;6087352784</title>
<path fill="none" stroke="black" d="M1053.19,-72C1060.87,-72 1069.69,-72 1078.89,-72"/>
<polygon fill="black" stroke="black" points="1078.97,-75.5 1088.97,-72 1078.97,-68.5 1078.97,-75.5"/>
</g>
<!-- 6091535952 -->
<g id="node11" class="node">
<title>6091535952</title>
<polygon fill="none" stroke="black" points="1222,-36 1096,-36 1096,0 1222,0 1222,-36"/>
<text text-anchor="middle" x="1159" y="-14.9" font-family="Times,serif" font-size="12.00">Evaluate financial risks</text>
</g>
<!-- 6092329552&#45;&gt;6091535952 -->
<g id="edge9" class="edge">
<title>6092329552&#45;&gt;6091535952</title>
<path fill="none" stroke="black" d="M1042.73,-64.95C1055.22,-59.41 1073.16,-51.55 1089,-45 1093.12,-43.3 1097.4,-41.56 1101.7,-39.83"/>
<polygon fill="black" stroke="black" points="1103.15,-43.02 1111.14,-36.06 1100.55,-36.52 1103.15,-43.02"/>
</g>
<!-- 6092333456 -->
<g id="node12" class="node">
<title>6092333456</title>
<polygon fill="none" stroke="black" points="1292,-90 1265,-72 1292,-54 1319,-72 1292,-90"/>
<text text-anchor="middle" x="1292" y="-68.9" font-family="Times,serif" font-size="12.00">+</text>
</g>
<!-- 6086426832&#45;&gt;6092333456 -->
<g id="edge11" class="edge">
<title>6086426832&#45;&gt;6092333456</title>
<path fill="none" stroke="black" d="M1206.86,-107.94C1214.29,-105 1221.87,-101.95 1229,-99 1241.25,-93.94 1254.76,-88.09 1266.03,-83.13"/>
<polygon fill="black" stroke="black" points="1267.54,-86.29 1275.27,-79.05 1264.71,-79.89 1267.54,-86.29"/>
</g>
<!-- 6087352784&#45;&gt;6092333456 -->
<g id="edge12" class="edge">
<title>6087352784&#45;&gt;6092333456</title>
<path fill="none" stroke="black" d="M1229.34,-72C1238.13,-72 1246.82,-72 1254.79,-72"/>
<polygon fill="black" stroke="black" points="1254.8,-75.5 1264.8,-72 1254.8,-68.5 1254.8,-75.5"/>
</g>
<!-- 6091535952&#45;&gt;6092333456 -->
<g id="edge13" class="edge">
<title>6091535952&#45;&gt;6092333456</title>
<path fill="none" stroke="black" d="M1206.86,-36.06C1214.29,-39 1221.87,-42.05 1229,-45 1241.25,-50.06 1254.76,-55.91 1266.03,-60.87"/>
<polygon fill="black" stroke="black" points="1264.71,-64.11 1275.27,-64.95 1267.54,-57.71 1264.71,-64.11"/>
</g>
<!-- 6091976144 -->
<g id="node13" class="node">
<title>6091976144</title>
<polygon fill="none" stroke="black" points="1382,-90 1355,-72 1382,-54 1409,-72 1382,-90"/>
<text text-anchor="middle" x="1382" y="-68.9" font-family="Times,serif" font-size="12.00">X</text>
</g>
<!-- 6092333456&#45;&gt;6091976144 -->
<g id="edge14" class="edge">
<title>6092333456&#45;&gt;6091976144</title>
<path fill="none" stroke="black" d="M1319.4,-72C1327.39,-72 1336.31,-72 1344.82,-72"/>
<polygon fill="black" stroke="black" points="1344.92,-75.5 1354.92,-72 1344.92,-68.5 1344.92,-75.5"/>
</g>
<!-- 6091975952 -->
<g id="node14" class="node">
<title>6091975952</title>
<polygon fill="none" stroke="black" points="1472,-113 1445,-95 1472,-77 1499,-95 1472,-113"/>
<text text-anchor="middle" x="1472" y="-91.9" font-family="Times,serif" font-size="12.00">X</text>
</g>
<!-- 6091976144&#45;&gt;6091975952 -->
<g id="edge16" class="edge">
<title>6091976144&#45;&gt;6091975952</title>
<path fill="none" stroke="black" d="M1402.09,-76.99C1413.82,-80.06 1429.07,-84.04 1442.24,-87.48"/>
<polygon fill="black" stroke="black" points="1441.68,-90.96 1452.24,-90.1 1443.45,-84.18 1441.68,-90.96"/>
</g>
<!-- 6091968464 -->
<g id="node15" class="node">
<title>6091968464</title>
<polygon fill="none" stroke="black" points="2821,-90 2794,-72 2821,-54 2848,-72 2821,-90"/>
<text text-anchor="middle" x="2821" y="-68.9" font-family="Times,serif" font-size="12.00">X</text>
</g>
<!-- 6091976144&#45;&gt;6091968464 -->
<g id="edge15" class="edge">
<title>6091976144&#45;&gt;6091968464</title>
<path fill="none" stroke="black" d="M1403.58,-68.25C1441.24,-61.74 1523.8,-49 1594,-49 1594,-49 1594,-49 2591.5,-49 2662.4,-49 2745.07,-60.1 2788.93,-66.88"/>
<polygon fill="black" stroke="black" points="2788.54,-70.36 2798.96,-68.46 2789.63,-63.44 2788.54,-70.36"/>
</g>
<!-- 6091967440 -->
<g id="node16" class="node">
<title>6091967440</title>
<polygon fill="none" stroke="black" points="1718,-143 1691,-125 1718,-107 1745,-125 1718,-143"/>
<text text-anchor="middle" x="1718" y="-121.9" font-family="Times,serif" font-size="12.00">X</text>
</g>
<!-- 6091975952&#45;&gt;6091967440 -->
<g id="edge18" class="edge">
<title>6091975952&#45;&gt;6091967440</title>
<path fill="none" stroke="black" d="M1487.23,-103.13C1499.46,-109.64 1517.79,-118.27 1535,-122 1586.3,-133.13 1647.65,-131.08 1684.41,-128.27"/>
<polygon fill="black" stroke="black" points="1684.87,-131.74 1694.55,-127.42 1684.29,-124.76 1684.87,-131.74"/>
</g>
<!-- 6092333520 -->
<g id="node18" class="node">
<title>6092333520</title>
<polygon fill="none" stroke="black" points="1655,-113 1535,-113 1535,-77 1655,-77 1655,-113"/>
<text text-anchor="middle" x="1595" y="-91.9" font-family="Times,serif" font-size="12.00">Conduct data analysis</text>
</g>
<!-- 6091975952&#45;&gt;6092333520 -->
<g id="edge17" class="edge">
<title>6091975952&#45;&gt;6092333520</title>
<path fill="none" stroke="black" d="M1499.26,-95C1506.83,-95 1515.47,-95 1524.39,-95"/>
<polygon fill="black" stroke="black" points="1524.52,-98.5 1534.52,-95 1524.52,-91.5 1524.52,-98.5"/>
</g>
<!-- 6092331024 -->
<g id="node17" class="node">
<title>6092331024</title>
<polygon fill="none" stroke="black" points="3002,-90 2884,-90 2884,-54 3002,-54 3002,-90"/>
<text text-anchor="middle" x="2943" y="-68.9" font-family="Times,serif" font-size="12.00">Receive clarifications</text>
</g>
<!-- 6091968464&#45;&gt;6092331024 -->
<g id="edge19" class="edge">
<title>6091968464&#45;&gt;6092331024</title>
<path fill="none" stroke="black" d="M2848.04,-72C2855.83,-72 2864.77,-72 2873.96,-72"/>
<polygon fill="black" stroke="black" points="2874,-75.5 2884,-72 2874,-68.5 2874,-75.5"/>
</g>
<!-- 6091974096 -->
<g id="node19" class="node">
<title>6091974096</title>
<polygon fill="none" stroke="black" points="1808,-143 1781,-125 1808,-107 1835,-125 1808,-143"/>
<text text-anchor="middle" x="1808" y="-121.9" font-family="Times,serif" font-size="12.00">X</text>
</g>
<!-- 6091967440&#45;&gt;6091974096 -->
<g id="edge21" class="edge">
<title>6091967440&#45;&gt;6091974096</title>
<path fill="none" stroke="black" d="M1745.4,-125C1753.39,-125 1762.31,-125 1770.82,-125"/>
<polygon fill="black" stroke="black" points="1770.92,-128.5 1780.92,-125 1770.92,-121.5 1770.92,-128.5"/>
</g>
<!-- 6092332624 -->
<g id="node20" class="node">
<title>6092332624</title>
<polygon fill="none" stroke="black" points="3235,-90 3038,-90 3038,-54 3235,-54 3235,-90"/>
<text text-anchor="middle" x="3136.5" y="-68.9" font-family="Times,serif" font-size="12.00">Request clarifications of discrepancies</text>
</g>
<!-- 6092331024&#45;&gt;6092332624 -->
<g id="edge22" class="edge">
<title>6092331024&#45;&gt;6092332624</title>
<path fill="none" stroke="black" d="M3002.24,-72C3010.38,-72 3018.96,-72 3027.67,-72"/>
<polygon fill="black" stroke="black" points="3027.94,-75.5 3037.94,-72 3027.94,-68.5 3027.94,-75.5"/>
</g>
<!-- 6092333520&#45;&gt;6091967440 -->
<g id="edge20" class="edge">
<title>6092333520&#45;&gt;6091967440</title>
<path fill="none" stroke="black" d="M1655.08,-109.65C1666.57,-112.5 1678.12,-115.36 1688.09,-117.83"/>
<polygon fill="black" stroke="black" points="1687.28,-121.24 1697.83,-120.25 1688.97,-114.44 1687.28,-121.24"/>
</g>
<!-- 6091976976 -->
<g id="node21" class="node">
<title>6091976976</title>
<polygon fill="none" stroke="black" points="2043,-141 2016,-123 2043,-105 2070,-123 2043,-141"/>
<text text-anchor="middle" x="2043" y="-119.9" font-family="Times,serif" font-size="12.00">X</text>
</g>
<!-- 6091974096&#45;&gt;6091976976 -->
<g id="edge23" class="edge">
<title>6091974096&#45;&gt;6091976976</title>
<path fill="none" stroke="black" d="M1828.71,-129.41C1840.83,-131.89 1856.73,-134.74 1871,-136 1919.26,-140.25 1931.81,-141 1980,-136 1990.99,-134.86 2002.91,-132.61 2013.33,-130.3"/>
<polygon fill="black" stroke="black" points="2014.22,-133.69 2023.17,-128.01 2012.63,-126.87 2014.22,-133.69"/>
</g>
<!-- 6134316944 -->
<g id="node23" class="node">
<title>6134316944</title>
<polygon fill="none" stroke="black" points="1980,-127 1871,-127 1871,-91 1980,-91 1980,-127"/>
<text text-anchor="middle" x="1925.5" y="-105.9" font-family="Times,serif" font-size="12.00">Conduct interviews</text>
</g>
<!-- 6091974096&#45;&gt;6134316944 -->
<g id="edge24" class="edge">
<title>6091974096&#45;&gt;6134316944</title>
<path fill="none" stroke="black" d="M1830.72,-121.99C1839.43,-120.78 1849.95,-119.33 1860.76,-117.83"/>
<polygon fill="black" stroke="black" points="1861.3,-121.29 1870.72,-116.45 1860.33,-114.36 1861.3,-121.29"/>
</g>
<!-- 6134303376 -->
<g id="node22" class="node">
<title>6134303376</title>
<polygon fill="none" stroke="black" points="3380,-90 3271,-90 3271,-54 3380,-54 3380,-90"/>
<text text-anchor="middle" x="3325.5" y="-68.9" font-family="Times,serif" font-size="12.00">Review submission</text>
</g>
<!-- 6092332624&#45;&gt;6134303376 -->
<g id="edge25" class="edge">
<title>6092332624&#45;&gt;6134303376</title>
<path fill="none" stroke="black" d="M3235.11,-72C3243.7,-72 3252.25,-72 3260.46,-72"/>
<polygon fill="black" stroke="black" points="3260.65,-75.5 3270.65,-72 3260.65,-68.5 3260.65,-75.5"/>
</g>
<!-- 6091970256 -->
<g id="node24" class="node">
<title>6091970256</title>
<polygon fill="none" stroke="black" points="2133,-141 2106,-123 2133,-105 2160,-123 2133,-141"/>
<text text-anchor="middle" x="2133" y="-119.9" font-family="Times,serif" font-size="12.00">X</text>
</g>
<!-- 6091976976&#45;&gt;6091970256 -->
<g id="edge27" class="edge">
<title>6091976976&#45;&gt;6091970256</title>
<path fill="none" stroke="black" d="M2070.4,-123C2078.39,-123 2087.31,-123 2095.82,-123"/>
<polygon fill="black" stroke="black" points="2095.92,-126.5 2105.92,-123 2095.92,-119.5 2095.92,-126.5"/>
</g>
<!-- 6134301200 -->
<g id="node25" class="node">
<title>6134301200</title>
<polygon fill="none" stroke="black" points="3564,-90 3416,-90 3416,-54 3564,-54 3564,-90"/>
<text text-anchor="middle" x="3490" y="-68.9" font-family="Times,serif" font-size="12.00">Prepare financial statements</text>
</g>
<!-- 6134303376&#45;&gt;6134301200 -->
<g id="edge28" class="edge">
<title>6134303376&#45;&gt;6134301200</title>
<path fill="none" stroke="black" d="M3380.16,-72C3388.4,-72 3397.07,-72 3405.77,-72"/>
<polygon fill="black" stroke="black" points="3405.97,-75.5 3415.97,-72 3405.97,-68.5 3405.97,-75.5"/>
</g>
<!-- 6134316944&#45;&gt;6091976976 -->
<g id="edge26" class="edge">
<title>6134316944&#45;&gt;6091976976</title>
<path fill="none" stroke="black" d="M1980.19,-115.51C1990.27,-116.73 2000.51,-117.97 2009.69,-119.08"/>
<polygon fill="black" stroke="black" points="2009.54,-122.59 2019.89,-120.32 2010.38,-115.64 2009.54,-122.59"/>
</g>
<!-- 6091966992 -->
<g id="node26" class="node">
<title>6091966992</title>
<polygon fill="none" stroke="black" points="2360,-136 2333,-118 2360,-100 2387,-118 2360,-136"/>
<text text-anchor="middle" x="2360" y="-114.9" font-family="Times,serif" font-size="12.00">X</text>
</g>
<!-- 6091970256&#45;&gt;6091966992 -->
<g id="edge30" class="edge">
<title>6091970256&#45;&gt;6091966992</title>
<path fill="none" stroke="black" d="M2154.01,-127.06C2166.1,-129.31 2181.87,-131.87 2196,-133 2240.75,-136.59 2252.43,-138.32 2297,-133 2308.3,-131.65 2320.52,-128.97 2331.09,-126.24"/>
<polygon fill="black" stroke="black" points="2332.3,-129.54 2341.03,-123.55 2330.46,-122.79 2332.3,-129.54"/>
</g>
<!-- 6092335376 -->
<g id="node27" class="node">
<title>6092335376</title>
<polygon fill="none" stroke="black" points="2297,-124 2196,-124 2196,-88 2297,-88 2297,-124"/>
<text text-anchor="middle" x="2246.5" y="-102.9" font-family="Times,serif" font-size="12.00">Perform site visits</text>
</g>
<!-- 6091970256&#45;&gt;6092335376 -->
<g id="edge29" class="edge">
<title>6091970256&#45;&gt;6092335376</title>
<path fill="none" stroke="black" d="M2155.23,-119.76C2164.04,-118.42 2174.74,-116.79 2185.65,-115.13"/>
<polygon fill="black" stroke="black" points="2186.32,-118.56 2195.67,-113.6 2185.26,-111.64 2186.32,-118.56"/>
</g>
<!-- 6134309776 -->
<g id="node28" class="node">
<title>6134309776</title>
<polygon fill="none" stroke="black" points="3704,-90 3600,-90 3600,-54 3704,-54 3704,-90"/>
<text text-anchor="middle" x="3652" y="-68.9" font-family="Times,serif" font-size="12.00">Submit documents</text>
</g>
<!-- 6134301200&#45;&gt;6134309776 -->
<g id="edge31" class="edge">
<title>6134301200&#45;&gt;6134309776</title>
<path fill="none" stroke="black" d="M3564.44,-72C3572.88,-72 3581.41,-72 3589.66,-72"/>
<polygon fill="black" stroke="black" points="3589.93,-75.5 3599.93,-72 3589.93,-68.5 3589.93,-75.5"/>
</g>
<!-- 6091975888 -->
<g id="node29" class="node">
<title>6091975888</title>
<polygon fill="none" stroke="black" points="2450,-136 2423,-118 2450,-100 2477,-118 2450,-136"/>
<text text-anchor="middle" x="2450" y="-114.9" font-family="Times,serif" font-size="12.00">X</text>
</g>
<!-- 6091966992&#45;&gt;6091975888 -->
<g id="edge33" class="edge">
<title>6091966992&#45;&gt;6091975888</title>
<path fill="none" stroke="black" d="M2387.4,-118C2395.39,-118 2404.31,-118 2412.82,-118"/>
<polygon fill="black" stroke="black" points="2412.92,-121.5 2422.92,-118 2412.92,-114.5 2412.92,-121.5"/>
</g>
<!-- 6092335376&#45;&gt;6091966992 -->
<g id="edge32" class="edge">
<title>6092335376&#45;&gt;6091966992</title>
<path fill="none" stroke="black" d="M2297.05,-111.33C2306.92,-112.4 2317.05,-113.49 2326.18,-114.47"/>
<polygon fill="black" stroke="black" points="2326.05,-117.97 2336.37,-115.56 2326.8,-111.01 2326.05,-117.97"/>
</g>
<!-- 6091522384 -->
<g id="node30" class="node">
<title>6091522384</title>
<polygon fill="none" stroke="black" points="3904,-90 3740,-90 3740,-54 3904,-54 3904,-90"/>
<text text-anchor="middle" x="3822" y="-68.9" font-family="Times,serif" font-size="12.00">Review report by audit director</text>
</g>
<!-- 6134309776&#45;&gt;6091522384 -->
<g id="edge34" class="edge">
<title>6134309776&#45;&gt;6091522384</title>
<path fill="none" stroke="black" d="M3704.32,-72C3712.43,-72 3721.03,-72 3729.73,-72"/>
<polygon fill="black" stroke="black" points="3729.97,-75.5 3739.97,-72 3729.97,-68.5 3729.97,-75.5"/>
</g>
<!-- 6091966480 -->
<g id="node31" class="node">
<title>6091966480</title>
<polygon fill="none" stroke="black" points="2731,-113 2704,-95 2731,-77 2758,-95 2731,-113"/>
<text text-anchor="middle" x="2731" y="-91.9" font-family="Times,serif" font-size="12.00">X</text>
</g>
<!-- 6091975888&#45;&gt;6091966480 -->
<g id="edge36" class="edge">
<title>6091975888&#45;&gt;6091966480</title>
<path fill="none" stroke="black" d="M2471.93,-121.44C2510.98,-127.18 2597.36,-136.71 2668,-122 2681.33,-119.22 2695.32,-113.42 2706.62,-107.9"/>
<polygon fill="black" stroke="black" points="2708.48,-110.88 2715.78,-103.21 2705.28,-104.65 2708.48,-110.88"/>
</g>
<!-- 6092340112 -->
<g id="node32" class="node">
<title>6092340112</title>
<polygon fill="none" stroke="black" points="2668,-113 2513,-113 2513,-77 2668,-77 2668,-113"/>
<text text-anchor="middle" x="2590.5" y="-91.9" font-family="Times,serif" font-size="12.00">Launch detailed investigation</text>
</g>
<!-- 6091975888&#45;&gt;6092340112 -->
<g id="edge35" class="edge">
<title>6091975888&#45;&gt;6092340112</title>
<path fill="none" stroke="black" d="M2472.04,-114.51C2480.7,-113.07 2491.36,-111.3 2502.69,-109.42"/>
<polygon fill="black" stroke="black" points="2503.5,-112.83 2512.79,-107.74 2502.35,-105.92 2503.5,-112.83"/>
</g>
<!-- 6134305040 -->
<g id="node33" class="node">
<title>6134305040</title>
<polygon fill="none" stroke="black" points="4086,-90 3940,-90 3940,-54 4086,-54 4086,-90"/>
<text text-anchor="middle" x="4013" y="-68.9" font-family="Times,serif" font-size="12.00">Update and resubmit report</text>
</g>
<!-- 6091522384&#45;&gt;6134305040 -->
<g id="edge37" class="edge">
<title>6091522384&#45;&gt;6134305040</title>
<path fill="none" stroke="black" d="M3904.25,-72C3912.64,-72 3921.18,-72 3929.58,-72"/>
<polygon fill="black" stroke="black" points="3929.76,-75.5 3939.76,-72 3929.76,-68.5 3929.76,-75.5"/>
</g>
<!-- 6091966480&#45;&gt;6091968464 -->
<g id="edge38" class="edge">
<title>6091966480&#45;&gt;6091968464</title>
<path fill="none" stroke="black" d="M2751.09,-90.01C2762.82,-86.94 2778.07,-82.96 2791.24,-79.52"/>
<polygon fill="black" stroke="black" points="2792.45,-82.82 2801.24,-76.9 2790.68,-76.04 2792.45,-82.82"/>
</g>
<!-- 6092340112&#45;&gt;6091966480 -->
<g id="edge39" class="edge">
<title>6092340112&#45;&gt;6091966480</title>
<path fill="none" stroke="black" d="M2668.04,-95C2677,-95 2685.8,-95 2693.82,-95"/>
<polygon fill="black" stroke="black" points="2693.87,-98.5 2703.87,-95 2693.87,-91.5 2693.87,-98.5"/>
</g>
<!-- 6134311312 -->
<g id="node34" class="node">
<title>6134311312</title>
<polygon fill="none" stroke="black" points="4250,-90 4122,-90 4122,-54 4250,-54 4250,-90"/>
<text text-anchor="middle" x="4186" y="-68.9" font-family="Times,serif" font-size="12.00">Send report for revision</text>
</g>
<!-- 6134305040&#45;&gt;6134311312 -->
<g id="edge40" class="edge">
<title>6134305040&#45;&gt;6134311312</title>
<path fill="none" stroke="black" d="M4086.02,-72C4094.46,-72 4103.08,-72 4111.53,-72"/>
<polygon fill="black" stroke="black" points="4111.74,-75.5 4121.74,-72 4111.74,-68.5 4111.74,-75.5"/>
</g>
<!-- 6086434448 -->
<g id="node35" class="node">
<title>6086434448</title>
<polygon fill="none" stroke="black" points="4450,-90 4286,-90 4286,-54 4450,-54 4450,-90"/>
<text text-anchor="middle" x="4368" y="-68.9" font-family="Times,serif" font-size="12.00">Review report by audit director</text>
</g>
<!-- 6134311312&#45;&gt;6086434448 -->
<g id="edge41" class="edge">
<title>6134311312&#45;&gt;6086434448</title>
<path fill="none" stroke="black" d="M4250.21,-72C4258.51,-72 4267.14,-72 4275.79,-72"/>
<polygon fill="black" stroke="black" points="4275.93,-75.5 4285.93,-72 4275.93,-68.5 4275.93,-75.5"/>
</g>
<!-- 6134303568 -->
<g id="node36" class="node">
<title>6134303568</title>
<polygon fill="none" stroke="black" points="4575,-90 4486,-90 4486,-54 4575,-54 4575,-90"/>
<text text-anchor="middle" x="4530.5" y="-68.9" font-family="Times,serif" font-size="12.00">Approve report</text>
</g>
<!-- 6086434448&#45;&gt;6134303568 -->
<g id="edge42" class="edge">
<title>6086434448&#45;&gt;6134303568</title>
<path fill="none" stroke="black" d="M4450.19,-72C4458.83,-72 4467.45,-72 4475.66,-72"/>
<polygon fill="black" stroke="black" points="4475.81,-75.5 4485.81,-72 4475.8,-68.5 4475.81,-75.5"/>
</g>
<!-- 6091666000 -->
<g id="node37" class="node">
<title>6091666000</title>
<ellipse fill="orange" stroke="black" cx="4629" cy="-72" rx="18" ry="18"/>
</g>
<!-- 6134303568&#45;&gt;6091666000 -->
<g id="edge43" class="edge">
<title>6134303568&#45;&gt;6091666000</title>
<path fill="none" stroke="black" d="M4575.23,-72C4583.87,-72 4592.71,-72 4600.62,-72"/>
<polygon fill="black" stroke="black" points="4600.72,-75.5 4610.72,-72 4600.72,-68.5 4600.72,-75.5"/>
</g>
</g>
</svg>
