<?xml version="1.0" encoding="UTF-8" standalone="no"?>
<!DOCTYPE svg PUBLIC "-//W3C//DTD SVG 1.1//EN"
 "http://www.w3.org/Graphics/SVG/1.1/DTD/svg11.dtd">
<!-- Generated by graphviz version 2.50.0 (0)
 -->
<!-- Pages: 1 -->
<svg width="5317pt" height="240pt"
 viewBox="0.00 0.00 5317.00 240.00" xmlns="http://www.w3.org/2000/svg" xmlns:xlink="http://www.w3.org/1999/xlink">
<g id="graph0" class="graph" transform="scale(1 1) rotate(0) translate(4 236)">
<polygon fill="white" stroke="transparent" points="-4,4 -4,-236 5313,-236 5313,4 -4,4"/>
<!-- 6057608400 -->
<g id="node1" class="node">
<title>6057608400</title>
<ellipse fill="green" stroke="black" cx="18" cy="-72" rx="18" ry="18"/>
</g>
<!-- 6060882384 -->
<g id="node2" class="node">
<title>6060882384</title>
<polygon fill="none" stroke="black" points="99,-90 72,-72 99,-54 126,-72 99,-90"/>
<text text-anchor="middle" x="99" y="-68.9" font-family="Times,serif" font-size="12.00">+</text>
</g>
<!-- 6057608400&#45;&gt;6060882384 -->
<g id="edge1" class="edge">
<title>6057608400&#45;&gt;6060882384</title>
<path fill="none" stroke="black" d="M36.14,-72C43.64,-72 52.75,-72 61.64,-72"/>
<polygon fill="black" stroke="black" points="61.87,-75.5 71.87,-72 61.87,-68.5 61.87,-75.5"/>
</g>
<!-- 6057615504 -->
<g id="node3" class="node">
<title>6057615504</title>
<polygon fill="none" stroke="black" points="257.5,-117 230.5,-99 257.5,-81 284.5,-99 257.5,-117"/>
<text text-anchor="middle" x="257.5" y="-95.9" font-family="Times,serif" font-size="12.00">X</text>
</g>
<!-- 6060882384&#45;&gt;6057615504 -->
<g id="edge2" class="edge">
<title>6060882384&#45;&gt;6057615504</title>
<path fill="none" stroke="black" d="M120.78,-75.59C147.67,-80.23 194.75,-88.35 225.78,-93.7"/>
<polygon fill="black" stroke="black" points="225.18,-97.15 235.63,-95.4 226.37,-90.25 225.18,-97.15"/>
</g>
<!-- 6058653136 -->
<g id="node4" class="node">
<title>6058653136</title>
<polygon fill="none" stroke="black" points="353,-63 162,-63 162,-27 353,-27 353,-63"/>
<text text-anchor="middle" x="257.5" y="-41.9" font-family="Times,serif" font-size="12.00">Evaluate_Compliance_Risks_Copy2</text>
</g>
<!-- 6060882384&#45;&gt;6058653136 -->
<g id="edge3" class="edge">
<title>6060882384&#45;&gt;6058653136</title>
<path fill="none" stroke="black" d="M120.78,-68.41C129.42,-66.92 140.14,-65.07 151.75,-63.07"/>
<polygon fill="black" stroke="black" points="152.42,-66.51 161.68,-61.36 151.23,-59.61 152.42,-66.51"/>
</g>
<!-- 6058646864 -->
<g id="node5" class="node">
<title>6058646864</title>
<polygon fill="none" stroke="black" points="541.5,-198 389.5,-198 389.5,-162 541.5,-162 541.5,-198"/>
<text text-anchor="middle" x="465.5" y="-176.9" font-family="Times,serif" font-size="12.00">Evaluate_Operational_Risks</text>
</g>
<!-- 6057615504&#45;&gt;6058646864 -->
<g id="edge4" class="edge">
<title>6057615504&#45;&gt;6058646864</title>
<path fill="none" stroke="black" d="M274.47,-105.9C298.97,-116.43 347.36,-136.95 389,-153 393.67,-154.8 398.52,-156.63 403.4,-158.44"/>
<polygon fill="black" stroke="black" points="402.2,-161.73 412.8,-161.89 404.62,-155.16 402.2,-161.73"/>
</g>
<!-- 6058641232 -->
<g id="node6" class="node">
<title>6058641232</title>
<polygon fill="none" stroke="black" points="540,-144 391,-144 391,-108 540,-108 540,-144"/>
<text text-anchor="middle" x="465.5" y="-122.9" font-family="Times,serif" font-size="12.00">Send_Report_For_Revision</text>
</g>
<!-- 6057615504&#45;&gt;6058641232 -->
<g id="edge6" class="edge">
<title>6057615504&#45;&gt;6058641232</title>
<path fill="none" stroke="black" d="M280.55,-101.89C304.45,-105.02 344.08,-110.22 380.45,-114.98"/>
<polygon fill="black" stroke="black" points="380.23,-118.49 390.6,-116.31 381.14,-111.54 380.23,-118.49"/>
</g>
<!-- 6068013200 -->
<g id="node8" class="node">
<title>6068013200</title>
<polygon fill="none" stroke="black" points="540,-90 391,-90 391,-54 540,-54 540,-90"/>
<text text-anchor="middle" x="465.5" y="-68.9" font-family="Times,serif" font-size="12.00">Send_Report_For_Revision</text>
</g>
<!-- 6057615504&#45;&gt;6068013200 -->
<g id="edge5" class="edge">
<title>6057615504&#45;&gt;6068013200</title>
<path fill="none" stroke="black" d="M280.55,-96.11C304.45,-92.98 344.08,-87.78 380.45,-83.02"/>
<polygon fill="black" stroke="black" points="381.14,-86.46 390.6,-81.69 380.23,-79.51 381.14,-86.46"/>
</g>
<!-- 6057090832 -->
<g id="node7" class="node">
<title>6057090832</title>
<polygon fill="none" stroke="black" points="542,-36 389,-36 389,0 542,0 542,-36"/>
<text text-anchor="middle" x="465.5" y="-14.9" font-family="Times,serif" font-size="12.00">Evaluate_Compliance_Risks</text>
</g>
<!-- 6058653136&#45;&gt;6057090832 -->
<g id="edge7" class="edge">
<title>6058653136&#45;&gt;6057090832</title>
<path fill="none" stroke="black" d="M353.06,-32.61C361.56,-31.49 370.13,-30.37 378.55,-29.27"/>
<polygon fill="black" stroke="black" points="379.26,-32.7 388.72,-27.93 378.35,-25.76 379.26,-32.7"/>
</g>
<!-- 6057614416 -->
<g id="node9" class="node">
<title>6057614416</title>
<polygon fill="none" stroke="black" points="660.5,-144 633.5,-126 660.5,-108 687.5,-126 660.5,-144"/>
<text text-anchor="middle" x="660.5" y="-122.9" font-family="Times,serif" font-size="12.00">X</text>
</g>
<!-- 6058646864&#45;&gt;6057614416 -->
<g id="edge8" class="edge">
<title>6058646864&#45;&gt;6057614416</title>
<path fill="none" stroke="black" d="M531.03,-161.94C565.09,-152.42 605.13,-141.21 631.34,-133.88"/>
<polygon fill="black" stroke="black" points="632.32,-137.24 641.01,-131.17 630.43,-130.5 632.32,-137.24"/>
</g>
<!-- 6058641232&#45;&gt;6057614416 -->
<g id="edge9" class="edge">
<title>6058641232&#45;&gt;6057614416</title>
<path fill="none" stroke="black" d="M540.02,-126C568.47,-126 599.75,-126 623.17,-126"/>
<polygon fill="black" stroke="black" points="623.34,-129.5 633.34,-126 623.34,-122.5 623.34,-129.5"/>
</g>
<!-- 6057628432 -->
<g id="node10" class="node">
<title>6057628432</title>
<polygon fill="none" stroke="black" points="743,-36 578,-36 578,0 743,0 743,-36"/>
<text text-anchor="middle" x="660.5" y="-14.9" font-family="Times,serif" font-size="12.00">Launch_Detailed_Investigation</text>
</g>
<!-- 6057090832&#45;&gt;6057628432 -->
<g id="edge10" class="edge">
<title>6057090832&#45;&gt;6057628432</title>
<path fill="none" stroke="black" d="M542.22,-18C550.65,-18 559.3,-18 567.89,-18"/>
<polygon fill="black" stroke="black" points="567.94,-21.5 577.94,-18 567.94,-14.5 567.94,-21.5"/>
</g>
<!-- 6068013200&#45;&gt;6057614416 -->
<g id="edge11" class="edge">
<title>6068013200&#45;&gt;6057614416</title>
<path fill="none" stroke="black" d="M531.03,-90.06C565.09,-99.58 605.13,-110.79 631.34,-118.12"/>
<polygon fill="black" stroke="black" points="630.43,-121.5 641.01,-120.83 632.32,-114.76 630.43,-121.5"/>
</g>
<!-- 6058650640 -->
<g id="node11" class="node">
<title>6058650640</title>
<polygon fill="none" stroke="black" points="876,-144 779,-144 779,-108 876,-108 876,-144"/>
<text text-anchor="middle" x="827.5" y="-122.9" font-family="Times,serif" font-size="12.00">Approve_Report</text>
</g>
<!-- 6057614416&#45;&gt;6058650640 -->
<g id="edge12" class="edge">
<title>6057614416&#45;&gt;6058650640</title>
<path fill="none" stroke="black" d="M687.64,-126C709.32,-126 740.94,-126 768.53,-126"/>
<polygon fill="black" stroke="black" points="768.87,-129.5 778.87,-126 768.87,-122.5 768.87,-129.5"/>
</g>
<!-- 6068012432 -->
<g id="node12" class="node">
<title>6068012432</title>
<polygon fill="none" stroke="black" points="1040,-36 912,-36 912,0 1040,0 1040,-36"/>
<text text-anchor="middle" x="976" y="-14.9" font-family="Times,serif" font-size="12.00">Compile_Audit_Report</text>
</g>
<!-- 6057628432&#45;&gt;6068012432 -->
<g id="edge13" class="edge">
<title>6057628432&#45;&gt;6068012432</title>
<path fill="none" stroke="black" d="M743.05,-18C792.15,-18 854.15,-18 901.7,-18"/>
<polygon fill="black" stroke="black" points="901.92,-21.5 911.92,-18 901.92,-14.5 901.92,-21.5"/>
</g>
<!-- 6060876304 -->
<g id="node13" class="node">
<title>6060876304</title>
<polygon fill="none" stroke="black" points="1027.5,-144 924.5,-144 924.5,-108 1027.5,-108 1027.5,-144"/>
<text text-anchor="middle" x="976" y="-122.9" font-family="Times,serif" font-size="12.00">Send_Notification</text>
</g>
<!-- 6058650640&#45;&gt;6060876304 -->
<g id="edge14" class="edge">
<title>6058650640&#45;&gt;6060876304</title>
<path fill="none" stroke="black" d="M876.06,-126C888.26,-126 901.54,-126 914.3,-126"/>
<polygon fill="black" stroke="black" points="914.39,-129.5 924.39,-126 914.39,-122.5 914.39,-129.5"/>
</g>
<!-- 6060455248 -->
<g id="node14" class="node">
<title>6060455248</title>
<polygon fill="none" stroke="black" points="5210,-59 5183,-41 5210,-23 5237,-41 5210,-59"/>
<text text-anchor="middle" x="5210" y="-37.9" font-family="Times,serif" font-size="12.00">+</text>
</g>
<!-- 6068012432&#45;&gt;6060455248 -->
<g id="edge15" class="edge">
<title>6068012432&#45;&gt;6060455248</title>
<path fill="none" stroke="black" d="M1040.08,-18C1095.81,-18 1179.31,-18 1252,-18 1252,-18 1252,-18 4945,-18 5029.22,-18 5127.99,-29.76 5177.43,-36.46"/>
<polygon fill="black" stroke="black" points="5177.11,-39.95 5187.5,-37.85 5178.07,-33.02 5177.11,-39.95"/>
</g>
<!-- 6065497680 -->
<g id="node15" class="node">
<title>6065497680</title>
<polygon fill="none" stroke="black" points="1190,-144 1076,-144 1076,-108 1190,-108 1190,-144"/>
<text text-anchor="middle" x="1133" y="-122.9" font-family="Times,serif" font-size="12.00">Review_Submission</text>
</g>
<!-- 6060876304&#45;&gt;6065497680 -->
<g id="edge16" class="edge">
<title>6060876304&#45;&gt;6065497680</title>
<path fill="none" stroke="black" d="M1027.75,-126C1039.87,-126 1052.99,-126 1065.7,-126"/>
<polygon fill="black" stroke="black" points="1065.77,-129.5 1075.77,-126 1065.77,-122.5 1065.77,-129.5"/>
</g>
<!-- 6065090448 -->
<g id="node45" class="node">
<title>6065090448</title>
<ellipse fill="orange" stroke="black" cx="5291" cy="-41" rx="18" ry="18"/>
</g>
<!-- 6060455248&#45;&gt;6065090448 -->
<g id="edge17" class="edge">
<title>6060455248&#45;&gt;6065090448</title>
<path fill="none" stroke="black" d="M5237.31,-41C5245.42,-41 5254.37,-41 5262.56,-41"/>
<polygon fill="black" stroke="black" points="5262.75,-44.5 5272.75,-41 5262.75,-37.5 5262.75,-44.5"/>
</g>
<!-- 6057609232 -->
<g id="node16" class="node">
<title>6057609232</title>
<polygon fill="none" stroke="black" points="1253,-144 1226,-126 1253,-108 1280,-126 1253,-144"/>
<text text-anchor="middle" x="1253" y="-122.9" font-family="Times,serif" font-size="12.00">X</text>
</g>
<!-- 6065497680&#45;&gt;6057609232 -->
<g id="edge18" class="edge">
<title>6065497680&#45;&gt;6057609232</title>
<path fill="none" stroke="black" d="M1190.24,-126C1198.9,-126 1207.65,-126 1215.73,-126"/>
<polygon fill="black" stroke="black" points="1215.89,-129.5 1225.89,-126 1215.89,-122.5 1215.89,-129.5"/>
</g>
<!-- 6057621328 -->
<g id="node17" class="node">
<title>6057621328</title>
<polygon fill="none" stroke="black" points="1343,-161 1316,-143 1343,-125 1370,-143 1343,-161"/>
<text text-anchor="middle" x="1343" y="-139.9" font-family="Times,serif" font-size="12.00">X</text>
</g>
<!-- 6057609232&#45;&gt;6057621328 -->
<g id="edge19" class="edge">
<title>6057609232&#45;&gt;6057621328</title>
<path fill="none" stroke="black" d="M1274.41,-129.94C1285.52,-132.09 1299.47,-134.78 1311.81,-137.17"/>
<polygon fill="black" stroke="black" points="1311.22,-140.62 1321.7,-139.08 1312.55,-133.75 1311.22,-140.62"/>
</g>
<!-- 6060871184 -->
<g id="node18" class="node">
<title>6060871184</title>
<polygon fill="none" stroke="black" points="1558,-232 1406,-232 1406,-196 1558,-196 1558,-232"/>
<text text-anchor="middle" x="1482" y="-210.9" font-family="Times,serif" font-size="12.00">Evaluate_Operational_Risks</text>
</g>
<!-- 6057621328&#45;&gt;6060871184 -->
<g id="edge21" class="edge">
<title>6057621328&#45;&gt;6060871184</title>
<path fill="none" stroke="black" d="M1355.72,-152.8C1367.74,-162.48 1387.28,-177.22 1406,-187 1409.26,-188.7 1412.65,-190.34 1416.11,-191.91"/>
<polygon fill="black" stroke="black" points="1414.81,-195.17 1425.38,-195.91 1417.58,-188.74 1414.81,-195.17"/>
</g>
<!-- 6060448144 -->
<g id="node19" class="node">
<title>6060448144</title>
<polygon fill="none" stroke="black" points="1556.5,-178 1407.5,-178 1407.5,-142 1556.5,-142 1556.5,-178"/>
<text text-anchor="middle" x="1482" y="-156.9" font-family="Times,serif" font-size="12.00">Send_Report_For_Revision</text>
</g>
<!-- 6057621328&#45;&gt;6060448144 -->
<g id="edge22" class="edge">
<title>6057621328&#45;&gt;6060448144</title>
<path fill="none" stroke="black" d="M1366.01,-145.73C1374.9,-146.83 1385.77,-148.18 1397.25,-149.61"/>
<polygon fill="black" stroke="black" points="1397.09,-153.12 1407.45,-150.87 1397.96,-146.17 1397.09,-153.12"/>
</g>
<!-- 6065497360 -->
<g id="node20" class="node">
<title>6065497360</title>
<polygon fill="none" stroke="black" points="1556.5,-124 1407.5,-124 1407.5,-88 1556.5,-88 1556.5,-124"/>
<text text-anchor="middle" x="1482" y="-102.9" font-family="Times,serif" font-size="12.00">Send_Report_For_Revision</text>
</g>
<!-- 6057621328&#45;&gt;6065497360 -->
<g id="edge20" class="edge">
<title>6057621328&#45;&gt;6065497360</title>
<path fill="none" stroke="black" d="M1362.76,-137.93C1373.93,-134.92 1388.92,-130.87 1404.47,-126.67"/>
<polygon fill="black" stroke="black" points="1405.46,-130.03 1414.2,-124.04 1403.63,-123.27 1405.46,-130.03"/>
</g>
<!-- 6057610320 -->
<g id="node21" class="node">
<title>6057610320</title>
<polygon fill="none" stroke="black" points="1621,-178 1594,-160 1621,-142 1648,-160 1621,-178"/>
<text text-anchor="middle" x="1621" y="-156.9" font-family="Times,serif" font-size="12.00">X</text>
</g>
<!-- 6060871184&#45;&gt;6057610320 -->
<g id="edge23" class="edge">
<title>6060871184&#45;&gt;6057610320</title>
<path fill="none" stroke="black" d="M1534.4,-196C1542.34,-193.07 1550.41,-190.01 1558,-187 1570.41,-182.07 1584.02,-176.2 1595.32,-171.19"/>
<polygon fill="black" stroke="black" points="1596.87,-174.33 1604.57,-167.05 1594.02,-167.94 1596.87,-174.33"/>
</g>
<!-- 6060448144&#45;&gt;6057610320 -->
<g id="edge24" class="edge">
<title>6060448144&#45;&gt;6057610320</title>
<path fill="none" stroke="black" d="M1556.71,-160C1566.06,-160 1575.29,-160 1583.67,-160"/>
<polygon fill="black" stroke="black" points="1583.8,-163.5 1593.8,-160 1583.8,-156.5 1583.8,-163.5"/>
</g>
<!-- 6065497360&#45;&gt;6057610320 -->
<g id="edge25" class="edge">
<title>6065497360&#45;&gt;6057610320</title>
<path fill="none" stroke="black" d="M1534.4,-124C1542.34,-126.93 1550.41,-129.99 1558,-133 1570.41,-137.93 1584.02,-143.8 1595.32,-148.81"/>
<polygon fill="black" stroke="black" points="1594.02,-152.06 1604.57,-152.95 1596.87,-145.67 1594.02,-152.06"/>
</g>
<!-- 6060870032 -->
<g id="node22" class="node">
<title>6060870032</title>
<polygon fill="none" stroke="black" points="1817,-178 1684,-178 1684,-142 1817,-142 1817,-178"/>
<text text-anchor="middle" x="1750.5" y="-156.9" font-family="Times,serif" font-size="12.00">Conduct_Data_Analysis</text>
</g>
<!-- 6057610320&#45;&gt;6060870032 -->
<g id="edge26" class="edge">
<title>6057610320&#45;&gt;6060870032</title>
<path fill="none" stroke="black" d="M1648.11,-160C1655.81,-160 1664.66,-160 1673.85,-160"/>
<polygon fill="black" stroke="black" points="1673.92,-163.5 1683.92,-160 1673.92,-156.5 1673.92,-163.5"/>
</g>
<!-- 6065496336 -->
<g id="node23" class="node">
<title>6065496336</title>
<polygon fill="none" stroke="black" points="2006,-178 1853,-178 1853,-142 2006,-142 2006,-178"/>
<text text-anchor="middle" x="1929.5" y="-156.9" font-family="Times,serif" font-size="12.00">Evaluate_Compliance_Risks</text>
</g>
<!-- 6060870032&#45;&gt;6065496336 -->
<g id="edge27" class="edge">
<title>6060870032&#45;&gt;6065496336</title>
<path fill="none" stroke="black" d="M1817.16,-160C1825.5,-160 1834.14,-160 1842.74,-160"/>
<polygon fill="black" stroke="black" points="1842.8,-163.5 1852.8,-160 1842.8,-156.5 1842.8,-163.5"/>
</g>
<!-- 6058640464 -->
<g id="node24" class="node">
<title>6058640464</title>
<polygon fill="none" stroke="black" points="2195,-178 2042,-178 2042,-142 2195,-142 2195,-178"/>
<text text-anchor="middle" x="2118.5" y="-156.9" font-family="Times,serif" font-size="12.00">Evaluate_Compliance_Risks</text>
</g>
<!-- 6065496336&#45;&gt;6058640464 -->
<g id="edge28" class="edge">
<title>6065496336&#45;&gt;6058640464</title>
<path fill="none" stroke="black" d="M2006.02,-160C2014.47,-160 2023.13,-160 2031.7,-160"/>
<polygon fill="black" stroke="black" points="2031.7,-163.5 2041.7,-160 2031.7,-156.5 2031.7,-163.5"/>
</g>
<!-- 6058655632 -->
<g id="node25" class="node">
<title>6058655632</title>
<polygon fill="none" stroke="black" points="2396,-178 2231,-178 2231,-142 2396,-142 2396,-178"/>
<text text-anchor="middle" x="2313.5" y="-156.9" font-family="Times,serif" font-size="12.00">Launch_Detailed_Investigation</text>
</g>
<!-- 6058640464&#45;&gt;6058655632 -->
<g id="edge29" class="edge">
<title>6058640464&#45;&gt;6058655632</title>
<path fill="none" stroke="black" d="M2195.22,-160C2203.65,-160 2212.3,-160 2220.89,-160"/>
<polygon fill="black" stroke="black" points="2220.94,-163.5 2230.94,-160 2220.94,-156.5 2220.94,-163.5"/>
</g>
<!-- 6065489680 -->
<g id="node26" class="node">
<title>6065489680</title>
<polygon fill="none" stroke="black" points="2560,-178 2432,-178 2432,-142 2560,-142 2560,-178"/>
<text text-anchor="middle" x="2496" y="-156.9" font-family="Times,serif" font-size="12.00">Compile_Audit_Report</text>
</g>
<!-- 6058655632&#45;&gt;6065489680 -->
<g id="edge30" class="edge">
<title>6058655632&#45;&gt;6065489680</title>
<path fill="none" stroke="black" d="M2396.04,-160C2404.6,-160 2413.28,-160 2421.75,-160"/>
<polygon fill="black" stroke="black" points="2421.95,-163.5 2431.95,-160 2421.95,-156.5 2421.95,-163.5"/>
</g>
<!-- 6067020112 -->
<g id="node27" class="node">
<title>6067020112</title>
<polygon fill="none" stroke="black" points="2710,-178 2596,-178 2596,-142 2710,-142 2710,-178"/>
<text text-anchor="middle" x="2653" y="-156.9" font-family="Times,serif" font-size="12.00">Review_Submission</text>
</g>
<!-- 6065489680&#45;&gt;6067020112 -->
<g id="edge31" class="edge">
<title>6065489680&#45;&gt;6067020112</title>
<path fill="none" stroke="black" d="M2560.04,-160C2568.51,-160 2577.21,-160 2585.72,-160"/>
<polygon fill="black" stroke="black" points="2585.99,-163.5 2595.99,-160 2585.99,-156.5 2585.99,-163.5"/>
</g>
<!-- 6058646928 -->
<g id="node28" class="node">
<title>6058646928</title>
<polygon fill="none" stroke="black" points="2870,-178 2746,-178 2746,-142 2870,-142 2870,-178"/>
<text text-anchor="middle" x="2808" y="-156.9" font-family="Times,serif" font-size="12.00">Receive_Clarifications</text>
</g>
<!-- 6067020112&#45;&gt;6058646928 -->
<g id="edge32" class="edge">
<title>6067020112&#45;&gt;6058646928</title>
<path fill="none" stroke="black" d="M2710.1,-160C2718.44,-160 2727.12,-160 2735.72,-160"/>
<polygon fill="black" stroke="black" points="2735.75,-163.5 2745.75,-160 2735.75,-156.5 2735.75,-163.5"/>
</g>
<!-- 6058650768 -->
<g id="node29" class="node">
<title>6058650768</title>
<polygon fill="none" stroke="black" points="3065,-178 2906,-178 2906,-142 3065,-142 3065,-178"/>
<text text-anchor="middle" x="2985.5" y="-156.9" font-family="Times,serif" font-size="12.00">Prepare_Financial_Statements</text>
</g>
<!-- 6058646928&#45;&gt;6058650768 -->
<g id="edge33" class="edge">
<title>6058646928&#45;&gt;6058650768</title>
<path fill="none" stroke="black" d="M2870.38,-160C2878.62,-160 2887.21,-160 2895.8,-160"/>
<polygon fill="black" stroke="black" points="2895.88,-163.5 2905.88,-160 2895.88,-156.5 2895.88,-163.5"/>
</g>
<!-- 6057097936 -->
<g id="node30" class="node">
<title>6057097936</title>
<polygon fill="none" stroke="black" points="3260,-178 3101,-178 3101,-142 3260,-142 3260,-178"/>
<text text-anchor="middle" x="3180.5" y="-156.9" font-family="Times,serif" font-size="12.00">Prepare_Financial_Statements</text>
</g>
<!-- 6058650768&#45;&gt;6057097936 -->
<g id="edge34" class="edge">
<title>6058650768&#45;&gt;6057097936</title>
<path fill="none" stroke="black" d="M3065,-160C3073.48,-160 3082.14,-160 3090.73,-160"/>
<polygon fill="black" stroke="black" points="3090.76,-163.5 3100.76,-160 3090.76,-156.5 3090.76,-163.5"/>
</g>
<!-- 6058641360 -->
<g id="node31" class="node">
<title>6058641360</title>
<polygon fill="none" stroke="black" points="3460,-178 3296,-178 3296,-142 3460,-142 3460,-178"/>
<text text-anchor="middle" x="3378" y="-156.9" font-family="Times,serif" font-size="12.00">Gather_Necessary_Documents</text>
</g>
<!-- 6057097936&#45;&gt;6058641360 -->
<g id="edge35" class="edge">
<title>6057097936&#45;&gt;6058641360</title>
<path fill="none" stroke="black" d="M3260.17,-160C3268.64,-160 3277.3,-160 3285.9,-160"/>
<polygon fill="black" stroke="black" points="3285.94,-163.5 3295.94,-160 3285.94,-156.5 3285.94,-163.5"/>
</g>
<!-- 6057091472 -->
<g id="node32" class="node">
<title>6057091472</title>
<polygon fill="none" stroke="black" points="3588,-178 3496,-178 3496,-142 3588,-142 3588,-178"/>
<text text-anchor="middle" x="3542" y="-156.9" font-family="Times,serif" font-size="12.00">Review_Report</text>
</g>
<!-- 6058641360&#45;&gt;6057091472 -->
<g id="edge36" class="edge">
<title>6058641360&#45;&gt;6057091472</title>
<path fill="none" stroke="black" d="M3460.47,-160C3469.01,-160 3477.53,-160 3485.67,-160"/>
<polygon fill="black" stroke="black" points="3485.74,-163.5 3495.74,-160 3485.74,-156.5 3485.74,-163.5"/>
</g>
<!-- 6057091600 -->
<g id="node33" class="node">
<title>6057091600</title>
<polygon fill="none" stroke="black" points="3716,-178 3624,-178 3624,-142 3716,-142 3716,-178"/>
<text text-anchor="middle" x="3670" y="-156.9" font-family="Times,serif" font-size="12.00">Review_Report</text>
</g>
<!-- 6057091472&#45;&gt;6057091600 -->
<g id="edge37" class="edge">
<title>6057091472&#45;&gt;6057091600</title>
<path fill="none" stroke="black" d="M3588.13,-160C3596.37,-160 3605.04,-160 3613.53,-160"/>
<polygon fill="black" stroke="black" points="3613.76,-163.5 3623.76,-160 3613.76,-156.5 3613.76,-163.5"/>
</g>
<!-- 6060880080 -->
<g id="node34" class="node">
<title>6060880080</title>
<polygon fill="none" stroke="black" points="3903,-178 3752,-178 3752,-142 3903,-142 3903,-178"/>
<text text-anchor="middle" x="3827.5" y="-156.9" font-family="Times,serif" font-size="12.00">Check_Regulatory_Updates</text>
</g>
<!-- 6057091600&#45;&gt;6060880080 -->
<g id="edge38" class="edge">
<title>6057091600&#45;&gt;6060880080</title>
<path fill="none" stroke="black" d="M3716.4,-160C3724.38,-160 3732.93,-160 3741.59,-160"/>
<polygon fill="black" stroke="black" points="3741.79,-163.5 3751.79,-160 3741.79,-156.5 3741.79,-163.5"/>
</g>
<!-- 6058645968 -->
<g id="node35" class="node">
<title>6058645968</title>
<polygon fill="none" stroke="black" points="4050,-178 3939,-178 3939,-142 4050,-142 4050,-178"/>
<text text-anchor="middle" x="3994.5" y="-156.9" font-family="Times,serif" font-size="12.00">Perform_Site_Visits</text>
</g>
<!-- 6060880080&#45;&gt;6058645968 -->
<g id="edge39" class="edge">
<title>6060880080&#45;&gt;6058645968</title>
<path fill="none" stroke="black" d="M3903.28,-160C3911.76,-160 3920.36,-160 3928.7,-160"/>
<polygon fill="black" stroke="black" points="3928.73,-163.5 3938.73,-160 3928.73,-156.5 3928.73,-163.5"/>
</g>
<!-- 6065832848 -->
<g id="node36" class="node">
<title>6065832848</title>
<polygon fill="none" stroke="black" points="4197,-178 4086,-178 4086,-142 4197,-142 4197,-178"/>
<text text-anchor="middle" x="4141.5" y="-156.9" font-family="Times,serif" font-size="12.00">Perform_Site_Visits</text>
</g>
<!-- 6058645968&#45;&gt;6065832848 -->
<g id="edge40" class="edge">
<title>6058645968&#45;&gt;6065832848</title>
<path fill="none" stroke="black" d="M4050.32,-160C4058.53,-160 4067.06,-160 4075.46,-160"/>
<polygon fill="black" stroke="black" points="4075.6,-163.5 4085.6,-160 4075.6,-156.5 4075.6,-163.5"/>
</g>
<!-- 6060879056 -->
<g id="node37" class="node">
<title>6060879056</title>
<polygon fill="none" stroke="black" points="4343,-178 4233,-178 4233,-142 4343,-142 4343,-178"/>
<text text-anchor="middle" x="4288" y="-156.9" font-family="Times,serif" font-size="12.00">Submit_Documents</text>
</g>
<!-- 6065832848&#45;&gt;6060879056 -->
<g id="edge41" class="edge">
<title>6065832848&#45;&gt;6060879056</title>
<path fill="none" stroke="black" d="M4197.13,-160C4205.42,-160 4214.05,-160 4222.53,-160"/>
<polygon fill="black" stroke="black" points="4222.77,-163.5 4232.77,-160 4222.77,-156.5 4222.77,-163.5"/>
</g>
<!-- 6068021072 -->
<g id="node38" class="node">
<title>6068021072</title>
<polygon fill="none" stroke="black" points="4498,-178 4379,-178 4379,-142 4498,-142 4498,-178"/>
<text text-anchor="middle" x="4438.5" y="-156.9" font-family="Times,serif" font-size="12.00">Close_Audit_Process</text>
</g>
<!-- 6060879056&#45;&gt;6068021072 -->
<g id="edge42" class="edge">
<title>6060879056&#45;&gt;6068021072</title>
<path fill="none" stroke="black" d="M4343.03,-160C4351.44,-160 4360.21,-160 4368.89,-160"/>
<polygon fill="black" stroke="black" points="4369,-163.5 4379,-160 4369,-156.5 4369,-163.5"/>
</g>
<!-- 6057622160 -->
<g id="node39" class="node">
<title>6057622160</title>
<polygon fill="none" stroke="black" points="4561,-178 4534,-160 4561,-142 4588,-160 4561,-178"/>
<text text-anchor="middle" x="4561" y="-156.9" font-family="Times,serif" font-size="12.00">X</text>
</g>
<!-- 6068021072&#45;&gt;6057622160 -->
<g id="edge43" class="edge">
<title>6068021072&#45;&gt;6057622160</title>
<path fill="none" stroke="black" d="M4498.34,-160C4506.98,-160 4515.66,-160 4523.66,-160"/>
<polygon fill="black" stroke="black" points="4523.74,-163.5 4533.74,-160 4523.74,-156.5 4523.74,-163.5"/>
</g>
<!-- 6068021008 -->
<g id="node40" class="node">
<title>6068021008</title>
<polygon fill="none" stroke="black" points="4767,-178 4648,-178 4648,-142 4767,-142 4767,-178"/>
<text text-anchor="middle" x="4707.5" y="-156.9" font-family="Times,serif" font-size="12.00">Close_Audit_Process</text>
</g>
<!-- 6057622160&#45;&gt;6068021008 -->
<g id="edge45" class="edge">
<title>6057622160&#45;&gt;6068021008</title>
<path fill="none" stroke="black" d="M4588.17,-160C4602.11,-160 4619.97,-160 4637.57,-160"/>
<polygon fill="black" stroke="black" points="4637.87,-163.5 4647.87,-160 4637.87,-156.5 4637.87,-163.5"/>
</g>
<!-- 6057617296 -->
<g id="node41" class="node">
<title>6057617296</title>
<polygon fill="none" stroke="black" points="4791,-124 4624,-124 4624,-88 4791,-88 4791,-124"/>
<text text-anchor="middle" x="4707.5" y="-102.9" font-family="Times,serif" font-size="12.00">Update_And_Resubmit_Report</text>
</g>
<!-- 6057622160&#45;&gt;6057617296 -->
<g id="edge44" class="edge">
<title>6057622160&#45;&gt;6057617296</title>
<path fill="none" stroke="black" d="M4577.38,-152.82C4589.82,-147.13 4607.87,-139.14 4624,-133 4629.02,-131.09 4634.24,-129.19 4639.5,-127.33"/>
<polygon fill="black" stroke="black" points="4640.7,-130.62 4649,-124.04 4638.41,-124.01 4640.7,-130.62"/>
</g>
<!-- 6057617040 -->
<g id="node42" class="node">
<title>6057617040</title>
<polygon fill="none" stroke="black" points="4854,-124 4827,-106 4854,-88 4881,-106 4854,-124"/>
<text text-anchor="middle" x="4854" y="-102.9" font-family="Times,serif" font-size="12.00">X</text>
</g>
<!-- 6068021008&#45;&gt;6057617040 -->
<g id="edge46" class="edge">
<title>6068021008&#45;&gt;6057617040</title>
<path fill="none" stroke="black" d="M4766,-141.96C4774.43,-139.09 4782.97,-136.05 4791,-133 4803.48,-128.25 4817.1,-122.4 4828.39,-117.35"/>
<polygon fill="black" stroke="black" points="4829.95,-120.49 4837.62,-113.18 4827.07,-114.11 4829.95,-120.49"/>
</g>
<!-- 6057617296&#45;&gt;6057617040 -->
<g id="edge47" class="edge">
<title>6057617296&#45;&gt;6057617040</title>
<path fill="none" stroke="black" d="M4791.3,-106C4800.14,-106 4808.77,-106 4816.64,-106"/>
<polygon fill="black" stroke="black" points="4816.85,-109.5 4826.85,-106 4816.85,-102.5 4816.85,-109.5"/>
</g>
<!-- 6057607504 -->
<g id="node43" class="node">
<title>6057607504</title>
<polygon fill="none" stroke="black" points="4944,-82 4917,-64 4944,-46 4971,-64 4944,-82"/>
<text text-anchor="middle" x="4944" y="-60.9" font-family="Times,serif" font-size="12.00">X</text>
</g>
<!-- 6057617040&#45;&gt;6057607504 -->
<g id="edge48" class="edge">
<title>6057617040&#45;&gt;6057607504</title>
<path fill="none" stroke="black" d="M4870.33,-98.68C4883.58,-92.36 4902.97,-83.1 4918.39,-75.74"/>
<polygon fill="black" stroke="black" points="4920.33,-78.7 4927.85,-71.23 4917.31,-72.38 4920.33,-78.7"/>
</g>
<!-- 6057607504&#45;&gt;6057609232 -->
<g id="edge49" class="edge">
<title>6057607504&#45;&gt;6057609232</title>
<path fill="none" stroke="black" d="M4918.01,-63.29C4875.15,-62.15 4784.85,-60 4708.5,-60 1481,-60 1481,-60 1481,-60 1404.41,-60 1318.86,-95.07 1278.11,-114.08"/>
<polygon fill="black" stroke="black" points="1276.5,-110.97 1268.97,-118.43 1279.51,-117.29 1276.5,-110.97"/>
</g>
<!-- 6068016144 -->
<g id="node44" class="node">
<title>6068016144</title>
<polygon fill="none" stroke="black" points="5147,-82 5007,-82 5007,-46 5147,-46 5147,-82"/>
<text text-anchor="middle" x="5077" y="-60.9" font-family="Times,serif" font-size="12.00">Evaluate_Financial_Risks</text>
</g>
<!-- 6057607504&#45;&gt;6068016144 -->
<g id="edge50" class="edge">
<title>6057607504&#45;&gt;6068016144</title>
<path fill="none" stroke="black" d="M4971.19,-64C4978.87,-64 4987.69,-64 4996.89,-64"/>
<polygon fill="black" stroke="black" points="4996.97,-67.5 5006.97,-64 4996.97,-60.5 4996.97,-67.5"/>
</g>
<!-- 6068016144&#45;&gt;6060455248 -->
<g id="edge51" class="edge">
<title>6068016144&#45;&gt;6060455248</title>
<path fill="none" stroke="black" d="M5147.34,-51.83C5158.22,-49.92 5168.95,-48.03 5178.35,-46.38"/>
<polygon fill="black" stroke="black" points="5179.07,-49.81 5188.31,-44.63 5177.86,-42.91 5179.07,-49.81"/>
</g>
</g>
</svg>
