<?xml version="1.0" encoding="UTF-8" standalone="no"?>
<!DOCTYPE svg PUBLIC "-//W3C//DTD SVG 1.1//EN"
 "http://www.w3.org/Graphics/SVG/1.1/DTD/svg11.dtd">
<!-- Generated by graphviz version 2.50.0 (0)
 -->
<!-- Pages: 1 -->
<svg width="3186pt" height="334pt"
 viewBox="0.00 0.00 3186.00 334.00" xmlns="http://www.w3.org/2000/svg" xmlns:xlink="http://www.w3.org/1999/xlink">
<g id="graph0" class="graph" transform="scale(1 1) rotate(0) translate(4 330)">
<polygon fill="white" stroke="transparent" points="-4,4 -4,-330 3182,-330 3182,4 -4,4"/>
<!-- 6134987472 -->
<g id="node1" class="node">
<title>6134987472</title>
<ellipse fill="green" stroke="black" cx="18" cy="-87" rx="18" ry="18"/>
</g>
<!-- 6134984144 -->
<g id="node2" class="node">
<title>6134984144</title>
<polygon fill="none" stroke="black" points="99,-105 72,-87 99,-69 126,-87 99,-105"/>
<text text-anchor="middle" x="99" y="-83.9" font-family="Times,serif" font-size="12.00">X</text>
</g>
<!-- 6134987472&#45;&gt;6134984144 -->
<g id="edge1" class="edge">
<title>6134987472&#45;&gt;6134984144</title>
<path fill="none" stroke="black" d="M36.14,-87C43.64,-87 52.75,-87 61.64,-87"/>
<polygon fill="black" stroke="black" points="61.87,-90.5 71.87,-87 61.87,-83.5 61.87,-90.5"/>
</g>
<!-- 6159345104 -->
<g id="node3" class="node">
<title>6159345104</title>
<polygon fill="none" stroke="black" points="189,-156 162,-138 189,-120 216,-138 189,-156"/>
<text text-anchor="middle" x="189" y="-134.9" font-family="Times,serif" font-size="12.00">X</text>
</g>
<!-- 6134984144&#45;&gt;6159345104 -->
<g id="edge2" class="edge">
<title>6134984144&#45;&gt;6159345104</title>
<path fill="none" stroke="black" d="M114.14,-95.19C127.87,-103.15 148.94,-115.36 165.06,-124.71"/>
<polygon fill="black" stroke="black" points="163.49,-127.84 173.9,-129.83 167,-121.78 163.49,-127.84"/>
</g>
<!-- 6159530960 -->
<g id="node4" class="node">
<title>6159530960</title>
<polygon fill="none" stroke="black" points="380,-183 252,-183 252,-147 380,-147 380,-183"/>
<text text-anchor="middle" x="316" y="-161.9" font-family="Times,serif" font-size="12.00">Send report for revision</text>
</g>
<!-- 6159345104&#45;&gt;6159530960 -->
<g id="edge3" class="edge">
<title>6159345104&#45;&gt;6159530960</title>
<path fill="none" stroke="black" d="M209.81,-142.28C218.79,-144.22 230.02,-146.64 241.78,-149.18"/>
<polygon fill="black" stroke="black" points="241.23,-152.65 251.74,-151.34 242.7,-145.8 241.23,-152.65"/>
</g>
<!-- 6159529808 -->
<g id="node5" class="node">
<title>6159529808</title>
<polygon fill="none" stroke="black" points="360.5,-129 271.5,-129 271.5,-93 360.5,-93 360.5,-129"/>
<text text-anchor="middle" x="316" y="-107.9" font-family="Times,serif" font-size="12.00">Approve report</text>
</g>
<!-- 6159345104&#45;&gt;6159529808 -->
<g id="edge4" class="edge">
<title>6159345104&#45;&gt;6159529808</title>
<path fill="none" stroke="black" d="M209.81,-133.72C223.81,-130.7 243.29,-126.49 261.69,-122.51"/>
<polygon fill="black" stroke="black" points="262.43,-125.94 271.47,-120.4 260.95,-119.09 262.43,-125.94"/>
</g>
<!-- 6134977232 -->
<g id="node6" class="node">
<title>6134977232</title>
<polygon fill="none" stroke="black" points="443,-156 416,-138 443,-120 470,-138 443,-156"/>
<text text-anchor="middle" x="443" y="-134.9" font-family="Times,serif" font-size="12.00">X</text>
</g>
<!-- 6159530960&#45;&gt;6134977232 -->
<g id="edge5" class="edge">
<title>6159530960&#45;&gt;6134977232</title>
<path fill="none" stroke="black" d="M380.23,-151.34C391.44,-148.92 402.61,-146.51 412.32,-144.41"/>
<polygon fill="black" stroke="black" points="413.16,-147.81 422.2,-142.28 411.68,-140.97 413.16,-147.81"/>
</g>
<!-- 6159529808&#45;&gt;6134977232 -->
<g id="edge6" class="edge">
<title>6159529808&#45;&gt;6134977232</title>
<path fill="none" stroke="black" d="M360.72,-120.44C377.77,-124.13 396.87,-128.25 412.27,-131.58"/>
<polygon fill="black" stroke="black" points="411.75,-135.05 422.27,-133.74 413.23,-128.21 411.75,-135.05"/>
</g>
<!-- 6159343120 -->
<g id="node7" class="node">
<title>6159343120</title>
<polygon fill="none" stroke="black" points="533,-90 506,-72 533,-54 560,-72 533,-90"/>
<text text-anchor="middle" x="533" y="-68.9" font-family="Times,serif" font-size="12.00">X</text>
</g>
<!-- 6134977232&#45;&gt;6159343120 -->
<g id="edge8" class="edge">
<title>6134977232&#45;&gt;6159343120</title>
<path fill="none" stroke="black" d="M456.24,-128.82C470.47,-118.15 494.21,-100.34 511.32,-87.51"/>
<polygon fill="black" stroke="black" points="513.68,-90.11 519.58,-81.31 509.48,-84.51 513.68,-90.11"/>
</g>
<!-- 6159528144 -->
<g id="node8" class="node">
<title>6159528144</title>
<polygon fill="none" stroke="black" points="533,-198 506,-180 533,-162 560,-180 533,-198"/>
<text text-anchor="middle" x="533" y="-176.9" font-family="Times,serif" font-size="12.00">+</text>
</g>
<!-- 6134977232&#45;&gt;6159528144 -->
<g id="edge7" class="edge">
<title>6134977232&#45;&gt;6159528144</title>
<path fill="none" stroke="black" d="M459.33,-145.32C472.58,-151.64 491.97,-160.9 507.39,-168.26"/>
<polygon fill="black" stroke="black" points="506.31,-171.62 516.85,-172.77 509.33,-165.3 506.31,-171.62"/>
</g>
<!-- 6159348048 -->
<g id="node9" class="node">
<title>6159348048</title>
<polygon fill="none" stroke="black" points="729,-36 601,-36 601,0 729,0 729,-36"/>
<text text-anchor="middle" x="665" y="-14.9" font-family="Times,serif" font-size="12.00">Send report for revision</text>
</g>
<!-- 6159343120&#45;&gt;6159348048 -->
<g id="edge9" class="edge">
<title>6159343120&#45;&gt;6159348048</title>
<path fill="none" stroke="black" d="M549.74,-64.98C562.23,-59.44 580.17,-51.59 596,-45 600.07,-43.31 604.28,-41.58 608.53,-39.85"/>
<polygon fill="black" stroke="black" points="609.87,-43.09 617.83,-36.1 607.25,-36.59 609.87,-43.09"/>
</g>
<!-- 6159367056 -->
<g id="node38" class="node">
<title>6159367056</title>
<ellipse fill="orange" stroke="black" cx="665" cy="-72" rx="18" ry="18"/>
</g>
<!-- 6159343120&#45;&gt;6159367056 -->
<g id="edge14" class="edge">
<title>6159343120&#45;&gt;6159367056</title>
<path fill="none" stroke="black" d="M560.31,-72C582.5,-72 614.14,-72 636.63,-72"/>
<polygon fill="black" stroke="black" points="636.85,-75.5 646.85,-72 636.85,-68.5 636.85,-75.5"/>
</g>
<!-- 6159335952 -->
<g id="node10" class="node">
<title>6159335952</title>
<polygon fill="none" stroke="black" points="890,-298 770,-298 770,-262 890,-262 890,-298"/>
<text text-anchor="middle" x="830" y="-276.9" font-family="Times,serif" font-size="12.00">Conduct data analysis</text>
</g>
<!-- 6159528144&#45;&gt;6159335952 -->
<g id="edge10" class="edge">
<title>6159528144&#45;&gt;6159335952</title>
<path fill="none" stroke="black" d="M539.9,-193.46C548.95,-212.27 568.17,-245.82 596,-261 645.89,-288.22 710.92,-291.35 759.6,-288.59"/>
<polygon fill="black" stroke="black" points="759.98,-292.07 769.73,-287.92 759.52,-285.09 759.98,-292.07"/>
</g>
<!-- 6134590224 -->
<g id="node11" class="node">
<title>6134590224</title>
<polygon fill="none" stroke="black" points="724.5,-198 605.5,-198 605.5,-162 724.5,-162 724.5,-198"/>
<text text-anchor="middle" x="665" y="-176.9" font-family="Times,serif" font-size="12.00">Identify discrepancies</text>
</g>
<!-- 6159528144&#45;&gt;6134590224 -->
<g id="edge11" class="edge">
<title>6159528144&#45;&gt;6134590224</title>
<path fill="none" stroke="black" d="M560.31,-180C570.45,-180 582.57,-180 594.89,-180"/>
<polygon fill="black" stroke="black" points="595.24,-183.5 605.24,-180 595.24,-176.5 595.24,-183.5"/>
</g>
<!-- 6134587792 -->
<g id="node12" class="node">
<title>6134587792</title>
<polygon fill="none" stroke="black" points="734,-252 596,-252 596,-216 734,-216 734,-252"/>
<text text-anchor="middle" x="665" y="-230.9" font-family="Times,serif" font-size="12.00">Evaluate operational risks</text>
</g>
<!-- 6159528144&#45;&gt;6134587792 -->
<g id="edge13" class="edge">
<title>6159528144&#45;&gt;6134587792</title>
<path fill="none" stroke="black" d="M549.74,-187.02C562.23,-192.56 580.17,-200.41 596,-207 600.07,-208.69 604.28,-210.42 608.53,-212.15"/>
<polygon fill="black" stroke="black" points="607.25,-215.41 617.83,-215.9 609.87,-208.91 607.25,-215.41"/>
</g>
<!-- 6159523856 -->
<g id="node13" class="node">
<title>6159523856</title>
<polygon fill="none" stroke="black" points="709.5,-144 620.5,-144 620.5,-108 709.5,-108 709.5,-144"/>
<text text-anchor="middle" x="665" y="-122.9" font-family="Times,serif" font-size="12.00">Approve report</text>
</g>
<!-- 6159528144&#45;&gt;6159523856 -->
<g id="edge12" class="edge">
<title>6159528144&#45;&gt;6159523856</title>
<path fill="none" stroke="black" d="M549.74,-172.98C562.23,-167.44 580.17,-159.59 596,-153 600.79,-151.01 605.78,-148.96 610.78,-146.94"/>
<polygon fill="black" stroke="black" points="612.41,-150.05 620.38,-143.07 609.8,-143.56 612.41,-150.05"/>
</g>
<!-- 6159348048&#45;&gt;6134984144 -->
<g id="edge15" class="edge">
<title>6159348048&#45;&gt;6134984144</title>
<path fill="none" stroke="black" d="M600.94,-19.75C556.96,-20.83 496.91,-22 444,-22 315,-22 315,-22 315,-22 242.9,-22 162.79,-55.91 123.85,-74.74"/>
<polygon fill="black" stroke="black" points="122.07,-71.72 114.65,-79.29 125.17,-78 122.07,-71.72"/>
</g>
<!-- 6159527952 -->
<g id="node15" class="node">
<title>6159527952</title>
<polygon fill="none" stroke="black" points="983,-298 956,-280 983,-262 1010,-280 983,-298"/>
<text text-anchor="middle" x="983" y="-276.9" font-family="Times,serif" font-size="12.00">+</text>
</g>
<!-- 6159335952&#45;&gt;6159527952 -->
<g id="edge16" class="edge">
<title>6159335952&#45;&gt;6159527952</title>
<path fill="none" stroke="black" d="M890.25,-280C908.82,-280 928.77,-280 945.3,-280"/>
<polygon fill="black" stroke="black" points="945.63,-283.5 955.63,-280 945.63,-276.5 945.63,-283.5"/>
</g>
<!-- 6159518160 -->
<g id="node17" class="node">
<title>6159518160</title>
<polygon fill="none" stroke="black" points="1040,-198 926,-198 926,-162 1040,-162 1040,-198"/>
<text text-anchor="middle" x="983" y="-176.9" font-family="Times,serif" font-size="12.00">Compile audit report</text>
</g>
<!-- 6134590224&#45;&gt;6159518160 -->
<g id="edge17" class="edge">
<title>6134590224&#45;&gt;6159518160</title>
<path fill="none" stroke="black" d="M724.7,-180C778.8,-180 859.03,-180 915.49,-180"/>
<polygon fill="black" stroke="black" points="915.74,-183.5 925.74,-180 915.74,-176.5 915.74,-183.5"/>
</g>
<!-- 6134586192 -->
<g id="node14" class="node">
<title>6134586192</title>
<polygon fill="none" stroke="black" points="830,-244 803,-226 830,-208 857,-226 830,-244"/>
<text text-anchor="middle" x="830" y="-222.9" font-family="Times,serif" font-size="12.00">+</text>
</g>
<!-- 6134587792&#45;&gt;6134586192 -->
<g id="edge18" class="edge">
<title>6134587792&#45;&gt;6134586192</title>
<path fill="none" stroke="black" d="M734.18,-230.65C754.84,-229.64 776.68,-228.57 794.18,-227.71"/>
<polygon fill="black" stroke="black" points="794.65,-231.19 804.47,-227.2 794.31,-224.2 794.65,-231.19"/>
</g>
<!-- 6159524176 -->
<g id="node16" class="node">
<title>6159524176</title>
<polygon fill="none" stroke="black" points="830,-144 803,-126 830,-108 857,-126 830,-144"/>
<text text-anchor="middle" x="830" y="-122.9" font-family="Times,serif" font-size="12.00">+</text>
</g>
<!-- 6159523856&#45;&gt;6159524176 -->
<g id="edge19" class="edge">
<title>6159523856&#45;&gt;6159524176</title>
<path fill="none" stroke="black" d="M709.68,-126C735.47,-126 767.76,-126 792.24,-126"/>
<polygon fill="black" stroke="black" points="792.55,-129.5 802.55,-126 792.55,-122.5 792.55,-129.5"/>
</g>
<!-- 6134586192&#45;&gt;6159527952 -->
<g id="edge20" class="edge">
<title>6134586192&#45;&gt;6159527952</title>
<path fill="none" stroke="black" d="M848.03,-232.09C874.08,-241.41 924.08,-259.29 955.08,-270.37"/>
<polygon fill="black" stroke="black" points="954.21,-273.78 964.8,-273.85 956.57,-267.19 954.21,-273.78"/>
</g>
<!-- 6134595088 -->
<g id="node19" class="node">
<title>6134595088</title>
<polygon fill="none" stroke="black" points="1146,-200 1119,-182 1146,-164 1173,-182 1146,-200"/>
<text text-anchor="middle" x="1146" y="-178.9" font-family="Times,serif" font-size="12.00">+</text>
</g>
<!-- 6134586192&#45;&gt;6134595088 -->
<g id="edge21" class="edge">
<title>6134586192&#45;&gt;6134595088</title>
<path fill="none" stroke="black" d="M855.6,-224.91C894.82,-222.91 973.84,-217.83 1040,-207 1066.26,-202.7 1095.7,-195.48 1116.7,-189.9"/>
<polygon fill="black" stroke="black" points="1117.83,-193.22 1126.57,-187.23 1116.01,-186.46 1117.83,-193.22"/>
</g>
<!-- 6159527376 -->
<g id="node20" class="node">
<title>6159527376</title>
<polygon fill="none" stroke="black" points="1216,-298 1076,-298 1076,-262 1216,-262 1216,-298"/>
<text text-anchor="middle" x="1146" y="-276.9" font-family="Times,serif" font-size="12.00">Evaluate compliance risks</text>
</g>
<!-- 6159527952&#45;&gt;6159527376 -->
<g id="edge22" class="edge">
<title>6159527952&#45;&gt;6159527376</title>
<path fill="none" stroke="black" d="M1010.23,-280C1025.47,-280 1045.58,-280 1065.59,-280"/>
<polygon fill="black" stroke="black" points="1065.71,-283.5 1075.71,-280 1065.71,-276.5 1065.71,-283.5"/>
</g>
<!-- 6134583184 -->
<g id="node18" class="node">
<title>6134583184</title>
<polygon fill="none" stroke="black" points="1031.5,-144 934.5,-144 934.5,-108 1031.5,-108 1031.5,-144"/>
<text text-anchor="middle" x="983" y="-122.9" font-family="Times,serif" font-size="12.00">Send notification</text>
</g>
<!-- 6159524176&#45;&gt;6134583184 -->
<g id="edge24" class="edge">
<title>6159524176&#45;&gt;6134583184</title>
<path fill="none" stroke="black" d="M857.3,-126C875.78,-126 901.21,-126 924.3,-126"/>
<polygon fill="black" stroke="black" points="924.36,-129.5 934.36,-126 924.36,-122.5 924.36,-129.5"/>
</g>
<!-- 6159522064 -->
<g id="node21" class="node">
<title>6159522064</title>
<polygon fill="none" stroke="black" points="1517,-87 1389,-87 1389,-51 1517,-51 1517,-87"/>
<text text-anchor="middle" x="1453" y="-65.9" font-family="Times,serif" font-size="12.00">Send report for revision</text>
</g>
<!-- 6159524176&#45;&gt;6159522064 -->
<g id="edge23" class="edge">
<title>6159524176&#45;&gt;6159522064</title>
<path fill="none" stroke="black" d="M848.25,-119.86C867.08,-113.44 898.27,-103.67 926,-99 1085.8,-72.07 1276.34,-68.05 1378.54,-68.12"/>
<polygon fill="black" stroke="black" points="1378.74,-71.62 1388.75,-68.14 1378.76,-64.62 1378.74,-71.62"/>
</g>
<!-- 6159518160&#45;&gt;6134595088 -->
<g id="edge25" class="edge">
<title>6159518160&#45;&gt;6134595088</title>
<path fill="none" stroke="black" d="M1040.31,-180.7C1063.17,-180.98 1088.89,-181.3 1109.12,-181.55"/>
<polygon fill="black" stroke="black" points="1109.11,-185.05 1119.15,-181.68 1109.2,-178.05 1109.11,-185.05"/>
</g>
<!-- 6134583184&#45;&gt;6134595088 -->
<g id="edge26" class="edge">
<title>6134583184&#45;&gt;6134595088</title>
<path fill="none" stroke="black" d="M1031.87,-142.65C1059.97,-152.42 1094.45,-164.42 1117.91,-172.58"/>
<polygon fill="black" stroke="black" points="1116.95,-175.95 1127.54,-175.93 1119.25,-169.34 1116.95,-175.95"/>
</g>
<!-- 6134593040 -->
<g id="node23" class="node">
<title>6134593040</title>
<polygon fill="none" stroke="black" points="1353,-201 1252,-201 1252,-165 1353,-165 1353,-201"/>
<text text-anchor="middle" x="1302.5" y="-179.9" font-family="Times,serif" font-size="12.00">Perform site visits</text>
</g>
<!-- 6134595088&#45;&gt;6134593040 -->
<g id="edge27" class="edge">
<title>6134595088&#45;&gt;6134593040</title>
<path fill="none" stroke="black" d="M1172.86,-182.17C1191.65,-182.29 1217.87,-182.46 1241.73,-182.61"/>
<polygon fill="black" stroke="black" points="1241.77,-186.11 1251.79,-182.68 1241.81,-179.11 1241.77,-186.11"/>
</g>
<!-- 6159517712 -->
<g id="node24" class="node">
<title>6159517712</title>
<polygon fill="none" stroke="black" points="1853,-298 1698,-298 1698,-262 1853,-262 1853,-298"/>
<text text-anchor="middle" x="1775.5" y="-276.9" font-family="Times,serif" font-size="12.00">Launch detailed investigation</text>
</g>
<!-- 6159527376&#45;&gt;6159517712 -->
<g id="edge28" class="edge">
<title>6159527376&#45;&gt;6159517712</title>
<path fill="none" stroke="black" d="M1216.25,-280C1331.27,-280 1561.46,-280 1687.35,-280"/>
<polygon fill="black" stroke="black" points="1687.71,-283.5 1697.71,-280 1687.71,-276.5 1687.71,-283.5"/>
</g>
<!-- 6159337808 -->
<g id="node22" class="node">
<title>6159337808</title>
<polygon fill="none" stroke="black" points="3151,-226 3124,-208 3151,-190 3178,-208 3151,-226"/>
<text text-anchor="middle" x="3151" y="-204.9" font-family="Times,serif" font-size="12.00">+</text>
</g>
<!-- 6159522064&#45;&gt;6159337808 -->
<g id="edge29" class="edge">
<title>6159522064&#45;&gt;6159337808</title>
<path fill="none" stroke="black" d="M1517.24,-66.8C1581.87,-64.75 1685.17,-62 1774.5,-62 1774.5,-62 1774.5,-62 2884,-62 2975.58,-62 3013.06,-38.36 3088,-91 3119.05,-112.81 3135.84,-155.15 3143.85,-182.47"/>
<polygon fill="black" stroke="black" points="3140.57,-183.75 3146.58,-192.47 3147.32,-181.9 3140.57,-183.75"/>
</g>
<!-- 6159337808&#45;&gt;6159345104 -->
<g id="edge30" class="edge">
<title>6159337808&#45;&gt;6159345104</title>
<path fill="none" stroke="black" d="M3142.4,-220.29C3132.07,-235.94 3112.07,-262.66 3088,-277 3007.89,-324.72 2977.25,-326 2884,-326 442,-326 442,-326 442,-326 331.24,-326 237.73,-207.88 203.72,-158.89"/>
<polygon fill="black" stroke="black" points="206.42,-156.63 197.9,-150.34 200.63,-160.57 206.42,-156.63"/>
</g>
<!-- 6134585552 -->
<g id="node25" class="node">
<title>6134585552</title>
<polygon fill="none" stroke="black" points="1453,-204 1426,-186 1453,-168 1480,-186 1453,-204"/>
<text text-anchor="middle" x="1453" y="-182.9" font-family="Times,serif" font-size="12.00">+</text>
</g>
<!-- 6134593040&#45;&gt;6134585552 -->
<g id="edge32" class="edge">
<title>6134593040&#45;&gt;6134585552</title>
<path fill="none" stroke="black" d="M1353.36,-184.01C1374.02,-184.42 1397.52,-184.9 1416.4,-185.28"/>
<polygon fill="black" stroke="black" points="1416.57,-188.78 1426.64,-185.49 1416.72,-181.79 1416.57,-188.78"/>
</g>
<!-- 6159517712&#45;&gt;6159337808 -->
<g id="edge31" class="edge">
<title>6159517712&#45;&gt;6159337808</title>
<path fill="none" stroke="black" d="M1853.04,-281.3C1928.53,-282.47 2047.22,-284 2150,-284 2150,-284 2150,-284 2884,-284 2976.23,-284 3001.92,-279.09 3088,-246 3102.69,-240.35 3117.78,-231.19 3129.39,-223.28"/>
<polygon fill="black" stroke="black" points="3131.73,-225.92 3137.88,-217.3 3127.69,-220.2 3131.73,-225.92"/>
</g>
<!-- 6159337296 -->
<g id="node26" class="node">
<title>6159337296</title>
<polygon fill="none" stroke="black" points="2023,-256 1907,-256 1907,-220 2023,-220 2023,-256"/>
<text text-anchor="middle" x="1965" y="-234.9" font-family="Times,serif" font-size="12.00">Provide clarifications</text>
</g>
<!-- 6134585552&#45;&gt;6159337296 -->
<g id="edge35" class="edge">
<title>6134585552&#45;&gt;6159337296</title>
<path fill="none" stroke="black" d="M1473.23,-190.61C1493.09,-195.2 1525.04,-202.1 1553,-206 1673.49,-222.8 1815.17,-231.4 1896.78,-235.28"/>
<polygon fill="black" stroke="black" points="1896.77,-238.78 1906.92,-235.75 1897.09,-231.79 1896.77,-238.78"/>
</g>
<!-- 6134580112 -->
<g id="node27" class="node">
<title>6134580112</title>
<polygon fill="none" stroke="black" points="2225,-218 2077,-218 2077,-182 2225,-182 2225,-218"/>
<text text-anchor="middle" x="2151" y="-196.9" font-family="Times,serif" font-size="12.00">Prepare financial statements</text>
</g>
<!-- 6134585552&#45;&gt;6134580112 -->
<g id="edge33" class="edge">
<title>6134585552&#45;&gt;6134580112</title>
<path fill="none" stroke="black" d="M1479.6,-186.51C1574.51,-188.42 1908.96,-195.15 2066.61,-198.32"/>
<polygon fill="black" stroke="black" points="2066.66,-201.82 2076.73,-198.53 2066.81,-194.83 2066.66,-201.82"/>
</g>
<!-- 6134586512 -->
<g id="node28" class="node">
<title>6134586512</title>
<polygon fill="none" stroke="black" points="1662,-164 1553,-164 1553,-128 1662,-128 1662,-164"/>
<text text-anchor="middle" x="1607.5" y="-142.9" font-family="Times,serif" font-size="12.00">Review submission</text>
</g>
<!-- 6134585552&#45;&gt;6134586512 -->
<g id="edge34" class="edge">
<title>6134585552&#45;&gt;6134586512</title>
<path fill="none" stroke="black" d="M1472.7,-181.1C1490.25,-176.49 1517.54,-169.34 1542.9,-162.68"/>
<polygon fill="black" stroke="black" points="1544.08,-165.99 1552.87,-160.07 1542.31,-159.22 1544.08,-165.99"/>
</g>
<!-- 6159337296&#45;&gt;6159337808 -->
<g id="edge36" class="edge">
<title>6159337296&#45;&gt;6159337808</title>
<path fill="none" stroke="black" d="M2023.13,-240.04C2094.54,-242.41 2220.54,-246 2328.5,-246 2328.5,-246 2328.5,-246 2884,-246 2975.29,-246 2998.02,-237.41 3088,-222 3098.93,-220.13 3110.83,-217.57 3121.26,-215.15"/>
<polygon fill="black" stroke="black" points="3122.19,-218.53 3131.11,-212.81 3120.57,-211.72 3122.19,-218.53"/>
</g>
<!-- 6134580112&#45;&gt;6159337808 -->
<g id="edge37" class="edge">
<title>6134580112&#45;&gt;6159337808</title>
<path fill="none" stroke="black" d="M2225.28,-202.49C2300.87,-204.84 2422.16,-208 2527,-208 2527,-208 2527,-208 2884,-208 2966.13,-208 3062.53,-208 3113.73,-208"/>
<polygon fill="black" stroke="black" points="3113.95,-211.5 3123.95,-208 3113.95,-204.5 3113.95,-211.5"/>
</g>
<!-- 6134586768 -->
<g id="node29" class="node">
<title>6134586768</title>
<polygon fill="none" stroke="black" points="1838,-164 1713,-164 1713,-128 1838,-128 1838,-164"/>
<text text-anchor="middle" x="1775.5" y="-142.9" font-family="Times,serif" font-size="12.00">Identify significant risk</text>
</g>
<!-- 6134586512&#45;&gt;6134586768 -->
<g id="edge38" class="edge">
<title>6134586512&#45;&gt;6134586768</title>
<path fill="none" stroke="black" d="M1662.4,-146C1675.22,-146 1689.11,-146 1702.59,-146"/>
<polygon fill="black" stroke="black" points="1702.81,-149.5 1712.81,-146 1702.81,-142.5 1702.81,-149.5"/>
</g>
<!-- 6159339344 -->
<g id="node30" class="node">
<title>6159339344</title>
<polygon fill="none" stroke="black" points="2041,-164 1889,-164 1889,-128 2041,-128 2041,-164"/>
<text text-anchor="middle" x="1965" y="-142.9" font-family="Times,serif" font-size="12.00">Gather necessary documents</text>
</g>
<!-- 6134586768&#45;&gt;6159339344 -->
<g id="edge39" class="edge">
<title>6134586768&#45;&gt;6159339344</title>
<path fill="none" stroke="black" d="M1838.15,-146C1851.08,-146 1864.94,-146 1878.56,-146"/>
<polygon fill="black" stroke="black" points="1878.91,-149.5 1888.91,-146 1878.91,-142.5 1878.91,-149.5"/>
</g>
<!-- 6159340048 -->
<g id="node31" class="node">
<title>6159340048</title>
<polygon fill="none" stroke="black" points="2151,-164 2124,-146 2151,-128 2178,-146 2151,-164"/>
<text text-anchor="middle" x="2151" y="-142.9" font-family="Times,serif" font-size="12.00">+</text>
</g>
<!-- 6159339344&#45;&gt;6159340048 -->
<g id="edge40" class="edge">
<title>6159339344&#45;&gt;6159340048</title>
<path fill="none" stroke="black" d="M2041.11,-146C2066.15,-146 2092.93,-146 2113.66,-146"/>
<polygon fill="black" stroke="black" points="2113.91,-149.5 2123.91,-146 2113.91,-142.5 2113.91,-149.5"/>
</g>
<!-- 6159350096 -->
<g id="node32" class="node">
<title>6159350096</title>
<polygon fill="none" stroke="black" points="2610,-126 2446,-126 2446,-90 2610,-90 2610,-126"/>
<text text-anchor="middle" x="2528" y="-104.9" font-family="Times,serif" font-size="12.00">Review report by audit director</text>
</g>
<!-- 6159340048&#45;&gt;6159350096 -->
<g id="edge41" class="edge">
<title>6159340048&#45;&gt;6159350096</title>
<path fill="none" stroke="black" d="M2173.26,-142.75C2195.2,-139.47 2230.44,-134.42 2261,-131 2319.09,-124.5 2384.48,-118.82 2435.9,-114.73"/>
<polygon fill="black" stroke="black" points="2436.3,-118.21 2445.99,-113.94 2435.75,-111.23 2436.3,-118.21"/>
</g>
<!-- 6159410064 -->
<g id="node33" class="node">
<title>6159410064</title>
<polygon fill="none" stroke="black" points="2398,-176 2261,-176 2261,-140 2398,-140 2398,-176"/>
<text text-anchor="middle" x="2329.5" y="-154.9" font-family="Times,serif" font-size="12.00">Check regulatory updates</text>
</g>
<!-- 6159340048&#45;&gt;6159410064 -->
<g id="edge42" class="edge">
<title>6159340048&#45;&gt;6159410064</title>
<path fill="none" stroke="black" d="M2175.8,-147.62C2195.08,-148.93 2223.37,-150.85 2250.38,-152.69"/>
<polygon fill="black" stroke="black" points="2250.43,-156.2 2260.65,-153.39 2250.91,-149.22 2250.43,-156.2"/>
</g>
<!-- 6159350096&#45;&gt;6159337808 -->
<g id="edge43" class="edge">
<title>6159350096&#45;&gt;6159337808</title>
<path fill="none" stroke="black" d="M2610.32,-92.64C2723.78,-75.35 2933.05,-58.72 3088,-135 3110.15,-145.91 3127.47,-168.72 3138.1,-185.96"/>
<polygon fill="black" stroke="black" points="3135.24,-188 3143.31,-194.86 3141.28,-184.46 3135.24,-188"/>
</g>
<!-- 6159526096 -->
<g id="node34" class="node">
<title>6159526096</title>
<polygon fill="none" stroke="black" points="2622,-180 2434,-180 2434,-144 2622,-144 2622,-180"/>
<text text-anchor="middle" x="2528" y="-158.9" font-family="Times,serif" font-size="12.00">Complete risk assessment/mitigation</text>
</g>
<!-- 6159410064&#45;&gt;6159526096 -->
<g id="edge44" class="edge">
<title>6159410064&#45;&gt;6159526096</title>
<path fill="none" stroke="black" d="M2398.12,-159.38C2406.42,-159.55 2415.04,-159.72 2423.72,-159.9"/>
<polygon fill="black" stroke="black" points="2423.84,-163.4 2433.91,-160.11 2423.98,-156.4 2423.84,-163.4"/>
</g>
<!-- 6134594192 -->
<g id="node35" class="node">
<title>6134594192</title>
<polygon fill="none" stroke="black" points="2804,-180 2658,-180 2658,-144 2804,-144 2804,-180"/>
<text text-anchor="middle" x="2731" y="-158.9" font-family="Times,serif" font-size="12.00">Update and resubmit report</text>
</g>
<!-- 6159526096&#45;&gt;6134594192 -->
<g id="edge45" class="edge">
<title>6159526096&#45;&gt;6134594192</title>
<path fill="none" stroke="black" d="M2622.15,-162C2630.69,-162 2639.3,-162 2647.74,-162"/>
<polygon fill="black" stroke="black" points="2647.92,-165.5 2657.92,-162 2647.92,-158.5 2647.92,-165.5"/>
</g>
<!-- 6159516304 -->
<g id="node36" class="node">
<title>6159516304</title>
<polygon fill="none" stroke="black" points="2926,-180 2840,-180 2840,-144 2926,-144 2926,-180"/>
<text text-anchor="middle" x="2883" y="-158.9" font-family="Times,serif" font-size="12.00">Archive report</text>
</g>
<!-- 6134594192&#45;&gt;6159516304 -->
<g id="edge46" class="edge">
<title>6134594192&#45;&gt;6159516304</title>
<path fill="none" stroke="black" d="M2804.36,-162C2812.9,-162 2821.48,-162 2829.66,-162"/>
<polygon fill="black" stroke="black" points="2829.78,-165.5 2839.78,-162 2829.78,-158.5 2829.78,-165.5"/>
</g>
<!-- 6134588816 -->
<g id="node37" class="node">
<title>6134588816</title>
<polygon fill="none" stroke="black" points="3088,-180 2962,-180 2962,-144 3088,-144 3088,-180"/>
<text text-anchor="middle" x="3025" y="-158.9" font-family="Times,serif" font-size="12.00">Evaluate financial risks</text>
</g>
<!-- 6159516304&#45;&gt;6134588816 -->
<g id="edge47" class="edge">
<title>6159516304&#45;&gt;6134588816</title>
<path fill="none" stroke="black" d="M2926,-162C2934.11,-162 2942.81,-162 2951.57,-162"/>
<polygon fill="black" stroke="black" points="2951.84,-165.5 2961.84,-162 2951.84,-158.5 2951.84,-165.5"/>
</g>
<!-- 6134588816&#45;&gt;6159337808 -->
<g id="edge48" class="edge">
<title>6134588816&#45;&gt;6159337808</title>
<path fill="none" stroke="black" d="M3074.65,-180.05C3091.25,-186.21 3109.19,-192.86 3123.4,-198.13"/>
<polygon fill="black" stroke="black" points="3122.42,-201.5 3133.01,-201.7 3124.85,-194.94 3122.42,-201.5"/>
</g>
</g>
</svg>
